G75*
G70*
%OFA0B0*%
%FSLAX24Y24*%
%IPPOS*%
%LPD*%
%AMOC8*
5,1,8,0,0,1.08239X$1,22.5*
%
%ADD10C,0.1340*%
%ADD11R,0.0660X0.0220*%
%ADD12R,0.0860X0.0300*%
%ADD13OC8,0.0600*%
%ADD14R,0.0300X0.0600*%
%ADD15R,0.1261X0.1182*%
%ADD16R,0.0474X0.0513*%
%ADD17R,0.0650X0.0440*%
%ADD18R,0.0552X0.0678*%
%ADD19R,0.0749X0.0336*%
%ADD20R,0.0470X0.0200*%
%ADD21R,0.1680X0.3080*%
%ADD22R,0.0540X0.0220*%
%ADD23R,0.0710X0.0290*%
%ADD24R,0.0980X0.0980*%
%ADD25C,0.0595*%
%ADD26R,0.0395X0.0395*%
%ADD27R,0.0682X0.0682*%
%ADD28C,0.0682*%
%ADD29C,0.1261*%
%ADD30R,0.0356X0.0434*%
%ADD31R,0.0671X0.0592*%
%ADD32R,0.0789X0.0710*%
%ADD33R,0.0592X0.0671*%
%ADD34R,0.0434X0.0356*%
%ADD35R,0.0513X0.0474*%
%ADD36C,0.0740*%
%ADD37C,0.0640*%
%ADD38OC8,0.0640*%
%ADD39R,0.1340X0.0678*%
%ADD40C,0.0480*%
D10*
X002438Y001456D03*
X027622Y001356D03*
X027516Y021953D03*
X002435Y022053D03*
D11*
X014079Y016310D03*
X014079Y016060D03*
X014079Y015800D03*
X014079Y015550D03*
X014079Y015290D03*
X014079Y015030D03*
X014079Y014780D03*
X014079Y014520D03*
X014079Y014270D03*
X014079Y014010D03*
X014079Y013750D03*
X014079Y013500D03*
X014079Y013240D03*
X014079Y012990D03*
X016379Y012990D03*
X016379Y013240D03*
X016379Y013500D03*
X016379Y013750D03*
X016379Y014010D03*
X016379Y014270D03*
X016379Y014520D03*
X016379Y014780D03*
X016379Y015030D03*
X016379Y015290D03*
X016379Y015550D03*
X016379Y015800D03*
X016379Y016060D03*
X016379Y016310D03*
D12*
X008949Y013400D03*
X008949Y012900D03*
X008949Y012400D03*
X008949Y011900D03*
X008949Y010400D03*
X008949Y009900D03*
X008949Y009400D03*
X008949Y008900D03*
X007009Y008900D03*
X007009Y009400D03*
X007009Y009900D03*
X007009Y010400D03*
X007009Y011900D03*
X007009Y012400D03*
X007009Y012900D03*
X007009Y013400D03*
D13*
X009979Y011150D03*
X009979Y009650D03*
X012979Y009650D03*
X012979Y011150D03*
X019479Y013650D03*
X022479Y013650D03*
D14*
X020599Y019610D03*
X020229Y019610D03*
X019859Y019610D03*
X019859Y020690D03*
X020599Y020690D03*
D15*
X022256Y016650D03*
X018201Y016650D03*
D16*
X015729Y019315D03*
X015729Y019985D03*
X019894Y021650D03*
X020563Y021650D03*
X009229Y021315D03*
X009229Y021985D03*
D17*
X021729Y020470D03*
X021729Y019830D03*
D18*
X008809Y016880D03*
X008849Y015420D03*
X007148Y015420D03*
X007109Y016880D03*
D19*
X019097Y010400D03*
X019097Y009900D03*
X019097Y009400D03*
X019097Y008900D03*
X019097Y008400D03*
X019097Y007900D03*
X019097Y007400D03*
X019097Y006900D03*
X019097Y006400D03*
X019097Y005900D03*
X019097Y005400D03*
X019097Y004900D03*
X019097Y004400D03*
X019097Y003900D03*
X022860Y003900D03*
X022860Y004400D03*
X022860Y004900D03*
X022860Y005400D03*
X022860Y005900D03*
X022860Y006400D03*
X022860Y006900D03*
X022860Y007400D03*
X022860Y007900D03*
X022860Y008400D03*
X022860Y008900D03*
X022860Y009400D03*
X022860Y009900D03*
X022860Y010400D03*
D20*
X014877Y005557D03*
X014877Y005302D03*
X014877Y005046D03*
X014877Y004790D03*
X014877Y004534D03*
X014877Y004278D03*
X014877Y004022D03*
X014877Y003766D03*
X014877Y003510D03*
X014877Y003254D03*
X014877Y002998D03*
X014877Y002743D03*
X012580Y002743D03*
X012580Y002998D03*
X012580Y003254D03*
X012580Y003510D03*
X012580Y003766D03*
X012580Y004022D03*
X012580Y004278D03*
X012580Y004534D03*
X012580Y004790D03*
X012580Y005046D03*
X012580Y005302D03*
X012580Y005557D03*
D21*
X013736Y004158D03*
D22*
X015069Y009890D03*
X015069Y010150D03*
X015069Y010410D03*
X015889Y010410D03*
X015889Y009890D03*
X019599Y011890D03*
X019599Y012150D03*
X019599Y012410D03*
X020359Y012410D03*
X020359Y011890D03*
X021599Y011890D03*
X021599Y012410D03*
X022359Y012410D03*
X022359Y012150D03*
X022359Y011890D03*
D23*
X013279Y020400D03*
X013279Y020900D03*
X013279Y021400D03*
X013279Y021900D03*
X011179Y021900D03*
X011179Y021400D03*
X011179Y020900D03*
X011179Y020400D03*
D24*
X012229Y021150D03*
D25*
X005634Y007138D02*
X005119Y007138D01*
X005083Y006193D02*
X004568Y006193D01*
X002305Y005407D02*
X002305Y004893D01*
X003347Y003359D02*
X003862Y003359D01*
X006636Y003318D02*
X006636Y003833D01*
D26*
X006544Y002400D03*
X005953Y002400D03*
D27*
X004429Y009059D03*
X004429Y013559D03*
X004429Y018059D03*
D28*
X005610Y018059D03*
X005610Y019241D03*
X004429Y019241D03*
X004429Y014741D03*
X005610Y014741D03*
X005610Y013559D03*
X005610Y010241D03*
X004429Y010241D03*
X005610Y009059D03*
X024097Y003900D03*
X025278Y003900D03*
X025528Y019650D03*
X024347Y019650D03*
D29*
X027229Y019650D03*
X026979Y003900D03*
X002729Y009650D03*
X002729Y014150D03*
X002729Y018650D03*
D30*
X010473Y017150D03*
X010984Y017150D03*
X010984Y016400D03*
X010473Y016400D03*
X010473Y015650D03*
X010984Y015650D03*
X011973Y015650D03*
X012484Y015650D03*
X012484Y016400D03*
X011973Y016400D03*
X011973Y017150D03*
X012484Y017150D03*
X023973Y014650D03*
X024484Y014650D03*
X024484Y014150D03*
X023973Y014150D03*
X010484Y006400D03*
X009973Y006400D03*
X008984Y006400D03*
X008473Y006400D03*
X008473Y000900D03*
X008984Y000900D03*
X009973Y000900D03*
X010484Y000900D03*
D31*
X010979Y002776D03*
X010979Y003524D03*
X013979Y009776D03*
X013979Y010524D03*
X018229Y012776D03*
X018229Y013524D03*
D32*
X017229Y010701D03*
X017229Y009599D03*
X008229Y021099D03*
X008229Y022201D03*
D33*
X012144Y019150D03*
X012813Y019150D03*
X010853Y007400D03*
X010105Y007400D03*
X009103Y005400D03*
X008355Y005400D03*
X008355Y004150D03*
X009103Y004150D03*
X009103Y002900D03*
X008355Y002900D03*
X008355Y001650D03*
X009103Y001650D03*
X013394Y006650D03*
X014063Y006650D03*
X016605Y005400D03*
X017353Y005400D03*
X017353Y004150D03*
X016605Y004150D03*
X016605Y002900D03*
X017353Y002900D03*
X017353Y001650D03*
X016605Y001650D03*
D34*
X023979Y006644D03*
X024479Y006644D03*
X024979Y006644D03*
X024979Y007156D03*
X024479Y007156D03*
X023979Y007156D03*
X023979Y008144D03*
X024479Y008144D03*
X024979Y008144D03*
X024979Y008656D03*
X024479Y008656D03*
X023979Y008656D03*
D35*
X014729Y019315D03*
X014729Y019985D03*
X014729Y020815D03*
X014729Y021485D03*
D36*
X006729Y022150D03*
X006729Y018150D03*
D37*
X027479Y007650D03*
D38*
X026479Y007650D03*
X026479Y008650D03*
X027479Y008650D03*
X027479Y009650D03*
X027479Y010650D03*
X027479Y011650D03*
X026479Y011650D03*
X026479Y010650D03*
X026479Y009650D03*
X026479Y012650D03*
X027479Y012650D03*
X027479Y013650D03*
X027479Y014650D03*
X026479Y014650D03*
X026479Y013650D03*
D39*
X018221Y019768D03*
X018221Y022217D03*
D40*
X021121Y020255D03*
X016975Y015710D03*
X015448Y014647D03*
X012929Y015806D03*
X012882Y016775D03*
X012813Y018548D03*
X008182Y016804D03*
X008252Y010356D03*
X008252Y008436D03*
X009479Y006400D03*
X011158Y006731D03*
X012082Y005507D03*
X010865Y004884D03*
X011369Y004299D03*
X011796Y003704D03*
X013209Y003750D03*
X013649Y003150D03*
X014149Y004250D03*
X013529Y004850D03*
X015375Y004383D03*
X015624Y005095D03*
X015555Y005804D03*
X016170Y006859D03*
X020723Y010287D03*
X021115Y009972D03*
X023801Y011308D03*
X021828Y012783D03*
X024939Y014009D03*
X024931Y014568D03*
X024479Y007647D03*
X024479Y006196D03*
X024013Y005895D03*
X022219Y006838D03*
X018282Y003174D03*
X012137Y002279D03*
X010177Y002221D03*
M02*
