G75*
G70*
%OFA0B0*%
%FSLAX24Y24*%
%IPPOS*%
%LPD*%
%AMOC8*
5,1,8,0,0,1.08239X$1,22.5*
%
%ADD10C,0.1340*%
%ADD11OC8,0.0600*%
%ADD12C,0.0595*%
%ADD13R,0.0682X0.0682*%
%ADD14C,0.0682*%
%ADD15C,0.1261*%
%ADD16C,0.0740*%
%ADD17C,0.0640*%
%ADD18OC8,0.0640*%
%ADD19R,0.0476X0.0476*%
%ADD20C,0.0480*%
D10*
X004920Y001680D03*
X029420Y001680D03*
X028920Y022180D03*
X004920Y022180D03*
D11*
X021723Y013574D03*
X024723Y013574D03*
X010920Y007680D03*
X009920Y007680D03*
X009920Y004680D03*
X010920Y004680D03*
D12*
X008775Y003863D02*
X008775Y003348D01*
X006001Y003389D02*
X005486Y003389D01*
X004444Y004923D02*
X004444Y005437D01*
X006706Y006223D02*
X007221Y006223D01*
X007257Y007168D02*
X007772Y007168D01*
D13*
X006621Y009089D03*
X006621Y013589D03*
X006621Y018089D03*
D14*
X007802Y018089D03*
X007802Y019271D03*
X006621Y019271D03*
X006621Y014771D03*
X007802Y014771D03*
X007802Y013589D03*
X007802Y010271D03*
X006621Y010271D03*
X007802Y009089D03*
X026038Y018180D03*
X027219Y018180D03*
X027416Y003983D03*
X026235Y003983D03*
D15*
X029117Y003983D03*
X028920Y018180D03*
X004920Y018680D03*
X004920Y014180D03*
X004920Y009680D03*
D16*
X008920Y018180D03*
X008920Y022180D03*
D17*
X029511Y007089D03*
D18*
X028511Y007089D03*
X028511Y008089D03*
X029511Y008089D03*
X029511Y009089D03*
X028511Y009089D03*
X028511Y010089D03*
X029511Y010089D03*
X029511Y011089D03*
X028511Y011089D03*
X028511Y012089D03*
X029511Y012089D03*
X029511Y013089D03*
X028511Y013089D03*
X028511Y014089D03*
X029511Y014089D03*
D19*
X017987Y009629D03*
X014050Y010023D03*
X015034Y006873D03*
X014641Y013172D03*
D20*
X013066Y012385D03*
X012278Y012385D03*
X010704Y011991D03*
X009129Y010810D03*
X010113Y010613D03*
X010704Y010416D03*
X010113Y009629D03*
X010704Y009432D03*
X012082Y009038D03*
X012869Y010023D03*
X014444Y011597D03*
X015428Y009038D03*
X013853Y006676D03*
X014641Y005495D03*
X014641Y004117D03*
X014838Y002542D03*
X013263Y001755D03*
X017987Y002345D03*
X018775Y004314D03*
X019365Y005495D03*
X018775Y006086D03*
X018184Y005495D03*
X020349Y004708D03*
X022318Y005495D03*
X022318Y006086D03*
X022908Y006676D03*
X023696Y006873D03*
X024090Y007857D03*
X024090Y008841D03*
X025467Y007463D03*
X026058Y007463D03*
X026649Y007463D03*
X027239Y007463D03*
X027830Y007267D03*
X027239Y006086D03*
X026649Y006086D03*
X026058Y005889D03*
X026649Y004708D03*
X028617Y006086D03*
X027633Y009038D03*
X027042Y009038D03*
X026452Y009038D03*
X025467Y011007D03*
X026255Y011794D03*
X024483Y012778D03*
X023499Y012385D03*
X022515Y011400D03*
X022121Y010023D03*
X020349Y007463D03*
X020349Y006873D03*
X025664Y013566D03*
X026649Y013566D03*
X026649Y014747D03*
X025467Y015928D03*
X015231Y016125D03*
X014247Y016715D03*
X015034Y017503D03*
X013656Y015534D03*
X009326Y013369D03*
X008735Y012975D03*
X007357Y009629D03*
X009129Y007857D03*
X012869Y021637D03*
X011885Y022424D03*
M02*
