G75*
G70*
%OFA0B0*%
%FSLAX24Y24*%
%IPPOS*%
%LPD*%
%AMOC8*
5,1,8,0,0,1.08239X$1,22.5*
%
%ADD10C,0.0000*%
%ADD11C,0.0060*%
%ADD12C,0.0030*%
%ADD13C,0.0050*%
%ADD14R,0.0200X0.0150*%
%ADD15C,0.0040*%
%ADD16R,0.0945X0.0236*%
%ADD17C,0.0020*%
%ADD18C,0.0080*%
%ADD19C,0.0100*%
%ADD20R,0.1000X0.0200*%
%ADD21R,0.0300X0.0750*%
%ADD22R,0.0100X0.0200*%
%ADD23R,0.0050X0.0150*%
%ADD24R,0.0100X0.0100*%
%ADD25C,0.0070*%
%ADD26R,0.0150X0.0200*%
D10*
X003420Y000260D02*
X003420Y023291D01*
X030979Y023291D01*
X030979Y000260D01*
X003420Y000260D01*
X004290Y001760D02*
X004292Y001810D01*
X004298Y001860D01*
X004308Y001909D01*
X004322Y001957D01*
X004339Y002004D01*
X004360Y002049D01*
X004385Y002093D01*
X004413Y002134D01*
X004445Y002173D01*
X004479Y002210D01*
X004516Y002244D01*
X004556Y002274D01*
X004598Y002301D01*
X004642Y002325D01*
X004688Y002346D01*
X004735Y002362D01*
X004783Y002375D01*
X004833Y002384D01*
X004882Y002389D01*
X004933Y002390D01*
X004983Y002387D01*
X005032Y002380D01*
X005081Y002369D01*
X005129Y002354D01*
X005175Y002336D01*
X005220Y002314D01*
X005263Y002288D01*
X005304Y002259D01*
X005343Y002227D01*
X005379Y002192D01*
X005411Y002154D01*
X005441Y002114D01*
X005468Y002071D01*
X005491Y002027D01*
X005510Y001981D01*
X005526Y001933D01*
X005538Y001884D01*
X005546Y001835D01*
X005550Y001785D01*
X005550Y001735D01*
X005546Y001685D01*
X005538Y001636D01*
X005526Y001587D01*
X005510Y001539D01*
X005491Y001493D01*
X005468Y001449D01*
X005441Y001406D01*
X005411Y001366D01*
X005379Y001328D01*
X005343Y001293D01*
X005304Y001261D01*
X005263Y001232D01*
X005220Y001206D01*
X005175Y001184D01*
X005129Y001166D01*
X005081Y001151D01*
X005032Y001140D01*
X004983Y001133D01*
X004933Y001130D01*
X004882Y001131D01*
X004833Y001136D01*
X004783Y001145D01*
X004735Y001158D01*
X004688Y001174D01*
X004642Y001195D01*
X004598Y001219D01*
X004556Y001246D01*
X004516Y001276D01*
X004479Y001310D01*
X004445Y001347D01*
X004413Y001386D01*
X004385Y001427D01*
X004360Y001471D01*
X004339Y001516D01*
X004322Y001563D01*
X004308Y001611D01*
X004298Y001660D01*
X004292Y001710D01*
X004290Y001760D01*
X004329Y009760D02*
X004331Y009808D01*
X004337Y009856D01*
X004347Y009903D01*
X004360Y009949D01*
X004378Y009994D01*
X004398Y010038D01*
X004423Y010080D01*
X004451Y010119D01*
X004481Y010156D01*
X004515Y010190D01*
X004552Y010222D01*
X004590Y010251D01*
X004631Y010276D01*
X004674Y010298D01*
X004719Y010316D01*
X004765Y010330D01*
X004812Y010341D01*
X004860Y010348D01*
X004908Y010351D01*
X004956Y010350D01*
X005004Y010345D01*
X005052Y010336D01*
X005098Y010324D01*
X005143Y010307D01*
X005187Y010287D01*
X005229Y010264D01*
X005269Y010237D01*
X005307Y010207D01*
X005342Y010174D01*
X005374Y010138D01*
X005404Y010100D01*
X005430Y010059D01*
X005452Y010016D01*
X005472Y009972D01*
X005487Y009927D01*
X005499Y009880D01*
X005507Y009832D01*
X005511Y009784D01*
X005511Y009736D01*
X005507Y009688D01*
X005499Y009640D01*
X005487Y009593D01*
X005472Y009548D01*
X005452Y009504D01*
X005430Y009461D01*
X005404Y009420D01*
X005374Y009382D01*
X005342Y009346D01*
X005307Y009313D01*
X005269Y009283D01*
X005229Y009256D01*
X005187Y009233D01*
X005143Y009213D01*
X005098Y009196D01*
X005052Y009184D01*
X005004Y009175D01*
X004956Y009170D01*
X004908Y009169D01*
X004860Y009172D01*
X004812Y009179D01*
X004765Y009190D01*
X004719Y009204D01*
X004674Y009222D01*
X004631Y009244D01*
X004590Y009269D01*
X004552Y009298D01*
X004515Y009330D01*
X004481Y009364D01*
X004451Y009401D01*
X004423Y009440D01*
X004398Y009482D01*
X004378Y009526D01*
X004360Y009571D01*
X004347Y009617D01*
X004337Y009664D01*
X004331Y009712D01*
X004329Y009760D01*
X004329Y014260D02*
X004331Y014308D01*
X004337Y014356D01*
X004347Y014403D01*
X004360Y014449D01*
X004378Y014494D01*
X004398Y014538D01*
X004423Y014580D01*
X004451Y014619D01*
X004481Y014656D01*
X004515Y014690D01*
X004552Y014722D01*
X004590Y014751D01*
X004631Y014776D01*
X004674Y014798D01*
X004719Y014816D01*
X004765Y014830D01*
X004812Y014841D01*
X004860Y014848D01*
X004908Y014851D01*
X004956Y014850D01*
X005004Y014845D01*
X005052Y014836D01*
X005098Y014824D01*
X005143Y014807D01*
X005187Y014787D01*
X005229Y014764D01*
X005269Y014737D01*
X005307Y014707D01*
X005342Y014674D01*
X005374Y014638D01*
X005404Y014600D01*
X005430Y014559D01*
X005452Y014516D01*
X005472Y014472D01*
X005487Y014427D01*
X005499Y014380D01*
X005507Y014332D01*
X005511Y014284D01*
X005511Y014236D01*
X005507Y014188D01*
X005499Y014140D01*
X005487Y014093D01*
X005472Y014048D01*
X005452Y014004D01*
X005430Y013961D01*
X005404Y013920D01*
X005374Y013882D01*
X005342Y013846D01*
X005307Y013813D01*
X005269Y013783D01*
X005229Y013756D01*
X005187Y013733D01*
X005143Y013713D01*
X005098Y013696D01*
X005052Y013684D01*
X005004Y013675D01*
X004956Y013670D01*
X004908Y013669D01*
X004860Y013672D01*
X004812Y013679D01*
X004765Y013690D01*
X004719Y013704D01*
X004674Y013722D01*
X004631Y013744D01*
X004590Y013769D01*
X004552Y013798D01*
X004515Y013830D01*
X004481Y013864D01*
X004451Y013901D01*
X004423Y013940D01*
X004398Y013982D01*
X004378Y014026D01*
X004360Y014071D01*
X004347Y014117D01*
X004337Y014164D01*
X004331Y014212D01*
X004329Y014260D01*
X004329Y018760D02*
X004331Y018808D01*
X004337Y018856D01*
X004347Y018903D01*
X004360Y018949D01*
X004378Y018994D01*
X004398Y019038D01*
X004423Y019080D01*
X004451Y019119D01*
X004481Y019156D01*
X004515Y019190D01*
X004552Y019222D01*
X004590Y019251D01*
X004631Y019276D01*
X004674Y019298D01*
X004719Y019316D01*
X004765Y019330D01*
X004812Y019341D01*
X004860Y019348D01*
X004908Y019351D01*
X004956Y019350D01*
X005004Y019345D01*
X005052Y019336D01*
X005098Y019324D01*
X005143Y019307D01*
X005187Y019287D01*
X005229Y019264D01*
X005269Y019237D01*
X005307Y019207D01*
X005342Y019174D01*
X005374Y019138D01*
X005404Y019100D01*
X005430Y019059D01*
X005452Y019016D01*
X005472Y018972D01*
X005487Y018927D01*
X005499Y018880D01*
X005507Y018832D01*
X005511Y018784D01*
X005511Y018736D01*
X005507Y018688D01*
X005499Y018640D01*
X005487Y018593D01*
X005472Y018548D01*
X005452Y018504D01*
X005430Y018461D01*
X005404Y018420D01*
X005374Y018382D01*
X005342Y018346D01*
X005307Y018313D01*
X005269Y018283D01*
X005229Y018256D01*
X005187Y018233D01*
X005143Y018213D01*
X005098Y018196D01*
X005052Y018184D01*
X005004Y018175D01*
X004956Y018170D01*
X004908Y018169D01*
X004860Y018172D01*
X004812Y018179D01*
X004765Y018190D01*
X004719Y018204D01*
X004674Y018222D01*
X004631Y018244D01*
X004590Y018269D01*
X004552Y018298D01*
X004515Y018330D01*
X004481Y018364D01*
X004451Y018401D01*
X004423Y018440D01*
X004398Y018482D01*
X004378Y018526D01*
X004360Y018571D01*
X004347Y018617D01*
X004337Y018664D01*
X004331Y018712D01*
X004329Y018760D01*
X004290Y022260D02*
X004292Y022310D01*
X004298Y022360D01*
X004308Y022409D01*
X004322Y022457D01*
X004339Y022504D01*
X004360Y022549D01*
X004385Y022593D01*
X004413Y022634D01*
X004445Y022673D01*
X004479Y022710D01*
X004516Y022744D01*
X004556Y022774D01*
X004598Y022801D01*
X004642Y022825D01*
X004688Y022846D01*
X004735Y022862D01*
X004783Y022875D01*
X004833Y022884D01*
X004882Y022889D01*
X004933Y022890D01*
X004983Y022887D01*
X005032Y022880D01*
X005081Y022869D01*
X005129Y022854D01*
X005175Y022836D01*
X005220Y022814D01*
X005263Y022788D01*
X005304Y022759D01*
X005343Y022727D01*
X005379Y022692D01*
X005411Y022654D01*
X005441Y022614D01*
X005468Y022571D01*
X005491Y022527D01*
X005510Y022481D01*
X005526Y022433D01*
X005538Y022384D01*
X005546Y022335D01*
X005550Y022285D01*
X005550Y022235D01*
X005546Y022185D01*
X005538Y022136D01*
X005526Y022087D01*
X005510Y022039D01*
X005491Y021993D01*
X005468Y021949D01*
X005441Y021906D01*
X005411Y021866D01*
X005379Y021828D01*
X005343Y021793D01*
X005304Y021761D01*
X005263Y021732D01*
X005220Y021706D01*
X005175Y021684D01*
X005129Y021666D01*
X005081Y021651D01*
X005032Y021640D01*
X004983Y021633D01*
X004933Y021630D01*
X004882Y021631D01*
X004833Y021636D01*
X004783Y021645D01*
X004735Y021658D01*
X004688Y021674D01*
X004642Y021695D01*
X004598Y021719D01*
X004556Y021746D01*
X004516Y021776D01*
X004479Y021810D01*
X004445Y021847D01*
X004413Y021886D01*
X004385Y021927D01*
X004360Y021971D01*
X004339Y022016D01*
X004322Y022063D01*
X004308Y022111D01*
X004298Y022160D01*
X004292Y022210D01*
X004290Y022260D01*
X014391Y022220D02*
X014393Y022199D01*
X014398Y022179D01*
X014407Y022160D01*
X014419Y022143D01*
X014434Y022128D01*
X014451Y022116D01*
X014470Y022107D01*
X014490Y022102D01*
X014511Y022100D01*
X014532Y022102D01*
X014552Y022107D01*
X014571Y022116D01*
X014588Y022128D01*
X014603Y022143D01*
X014615Y022160D01*
X014624Y022179D01*
X014629Y022199D01*
X014631Y022220D01*
X028290Y022260D02*
X028292Y022310D01*
X028298Y022360D01*
X028308Y022409D01*
X028322Y022457D01*
X028339Y022504D01*
X028360Y022549D01*
X028385Y022593D01*
X028413Y022634D01*
X028445Y022673D01*
X028479Y022710D01*
X028516Y022744D01*
X028556Y022774D01*
X028598Y022801D01*
X028642Y022825D01*
X028688Y022846D01*
X028735Y022862D01*
X028783Y022875D01*
X028833Y022884D01*
X028882Y022889D01*
X028933Y022890D01*
X028983Y022887D01*
X029032Y022880D01*
X029081Y022869D01*
X029129Y022854D01*
X029175Y022836D01*
X029220Y022814D01*
X029263Y022788D01*
X029304Y022759D01*
X029343Y022727D01*
X029379Y022692D01*
X029411Y022654D01*
X029441Y022614D01*
X029468Y022571D01*
X029491Y022527D01*
X029510Y022481D01*
X029526Y022433D01*
X029538Y022384D01*
X029546Y022335D01*
X029550Y022285D01*
X029550Y022235D01*
X029546Y022185D01*
X029538Y022136D01*
X029526Y022087D01*
X029510Y022039D01*
X029491Y021993D01*
X029468Y021949D01*
X029441Y021906D01*
X029411Y021866D01*
X029379Y021828D01*
X029343Y021793D01*
X029304Y021761D01*
X029263Y021732D01*
X029220Y021706D01*
X029175Y021684D01*
X029129Y021666D01*
X029081Y021651D01*
X029032Y021640D01*
X028983Y021633D01*
X028933Y021630D01*
X028882Y021631D01*
X028833Y021636D01*
X028783Y021645D01*
X028735Y021658D01*
X028688Y021674D01*
X028642Y021695D01*
X028598Y021719D01*
X028556Y021746D01*
X028516Y021776D01*
X028479Y021810D01*
X028445Y021847D01*
X028413Y021886D01*
X028385Y021927D01*
X028360Y021971D01*
X028339Y022016D01*
X028322Y022063D01*
X028308Y022111D01*
X028298Y022160D01*
X028292Y022210D01*
X028290Y022260D01*
X028329Y018260D02*
X028331Y018308D01*
X028337Y018356D01*
X028347Y018403D01*
X028360Y018449D01*
X028378Y018494D01*
X028398Y018538D01*
X028423Y018580D01*
X028451Y018619D01*
X028481Y018656D01*
X028515Y018690D01*
X028552Y018722D01*
X028590Y018751D01*
X028631Y018776D01*
X028674Y018798D01*
X028719Y018816D01*
X028765Y018830D01*
X028812Y018841D01*
X028860Y018848D01*
X028908Y018851D01*
X028956Y018850D01*
X029004Y018845D01*
X029052Y018836D01*
X029098Y018824D01*
X029143Y018807D01*
X029187Y018787D01*
X029229Y018764D01*
X029269Y018737D01*
X029307Y018707D01*
X029342Y018674D01*
X029374Y018638D01*
X029404Y018600D01*
X029430Y018559D01*
X029452Y018516D01*
X029472Y018472D01*
X029487Y018427D01*
X029499Y018380D01*
X029507Y018332D01*
X029511Y018284D01*
X029511Y018236D01*
X029507Y018188D01*
X029499Y018140D01*
X029487Y018093D01*
X029472Y018048D01*
X029452Y018004D01*
X029430Y017961D01*
X029404Y017920D01*
X029374Y017882D01*
X029342Y017846D01*
X029307Y017813D01*
X029269Y017783D01*
X029229Y017756D01*
X029187Y017733D01*
X029143Y017713D01*
X029098Y017696D01*
X029052Y017684D01*
X029004Y017675D01*
X028956Y017670D01*
X028908Y017669D01*
X028860Y017672D01*
X028812Y017679D01*
X028765Y017690D01*
X028719Y017704D01*
X028674Y017722D01*
X028631Y017744D01*
X028590Y017769D01*
X028552Y017798D01*
X028515Y017830D01*
X028481Y017864D01*
X028451Y017901D01*
X028423Y017940D01*
X028398Y017982D01*
X028378Y018026D01*
X028360Y018071D01*
X028347Y018117D01*
X028337Y018164D01*
X028331Y018212D01*
X028329Y018260D01*
X028526Y004063D02*
X028528Y004111D01*
X028534Y004159D01*
X028544Y004206D01*
X028557Y004252D01*
X028575Y004297D01*
X028595Y004341D01*
X028620Y004383D01*
X028648Y004422D01*
X028678Y004459D01*
X028712Y004493D01*
X028749Y004525D01*
X028787Y004554D01*
X028828Y004579D01*
X028871Y004601D01*
X028916Y004619D01*
X028962Y004633D01*
X029009Y004644D01*
X029057Y004651D01*
X029105Y004654D01*
X029153Y004653D01*
X029201Y004648D01*
X029249Y004639D01*
X029295Y004627D01*
X029340Y004610D01*
X029384Y004590D01*
X029426Y004567D01*
X029466Y004540D01*
X029504Y004510D01*
X029539Y004477D01*
X029571Y004441D01*
X029601Y004403D01*
X029627Y004362D01*
X029649Y004319D01*
X029669Y004275D01*
X029684Y004230D01*
X029696Y004183D01*
X029704Y004135D01*
X029708Y004087D01*
X029708Y004039D01*
X029704Y003991D01*
X029696Y003943D01*
X029684Y003896D01*
X029669Y003851D01*
X029649Y003807D01*
X029627Y003764D01*
X029601Y003723D01*
X029571Y003685D01*
X029539Y003649D01*
X029504Y003616D01*
X029466Y003586D01*
X029426Y003559D01*
X029384Y003536D01*
X029340Y003516D01*
X029295Y003499D01*
X029249Y003487D01*
X029201Y003478D01*
X029153Y003473D01*
X029105Y003472D01*
X029057Y003475D01*
X029009Y003482D01*
X028962Y003493D01*
X028916Y003507D01*
X028871Y003525D01*
X028828Y003547D01*
X028787Y003572D01*
X028749Y003601D01*
X028712Y003633D01*
X028678Y003667D01*
X028648Y003704D01*
X028620Y003743D01*
X028595Y003785D01*
X028575Y003829D01*
X028557Y003874D01*
X028544Y003920D01*
X028534Y003967D01*
X028528Y004015D01*
X028526Y004063D01*
X028790Y001760D02*
X028792Y001810D01*
X028798Y001860D01*
X028808Y001909D01*
X028822Y001957D01*
X028839Y002004D01*
X028860Y002049D01*
X028885Y002093D01*
X028913Y002134D01*
X028945Y002173D01*
X028979Y002210D01*
X029016Y002244D01*
X029056Y002274D01*
X029098Y002301D01*
X029142Y002325D01*
X029188Y002346D01*
X029235Y002362D01*
X029283Y002375D01*
X029333Y002384D01*
X029382Y002389D01*
X029433Y002390D01*
X029483Y002387D01*
X029532Y002380D01*
X029581Y002369D01*
X029629Y002354D01*
X029675Y002336D01*
X029720Y002314D01*
X029763Y002288D01*
X029804Y002259D01*
X029843Y002227D01*
X029879Y002192D01*
X029911Y002154D01*
X029941Y002114D01*
X029968Y002071D01*
X029991Y002027D01*
X030010Y001981D01*
X030026Y001933D01*
X030038Y001884D01*
X030046Y001835D01*
X030050Y001785D01*
X030050Y001735D01*
X030046Y001685D01*
X030038Y001636D01*
X030026Y001587D01*
X030010Y001539D01*
X029991Y001493D01*
X029968Y001449D01*
X029941Y001406D01*
X029911Y001366D01*
X029879Y001328D01*
X029843Y001293D01*
X029804Y001261D01*
X029763Y001232D01*
X029720Y001206D01*
X029675Y001184D01*
X029629Y001166D01*
X029581Y001151D01*
X029532Y001140D01*
X029483Y001133D01*
X029433Y001130D01*
X029382Y001131D01*
X029333Y001136D01*
X029283Y001145D01*
X029235Y001158D01*
X029188Y001174D01*
X029142Y001195D01*
X029098Y001219D01*
X029056Y001246D01*
X029016Y001276D01*
X028979Y001310D01*
X028945Y001347D01*
X028913Y001386D01*
X028885Y001427D01*
X028860Y001471D01*
X028839Y001516D01*
X028822Y001563D01*
X028808Y001611D01*
X028798Y001660D01*
X028792Y001710D01*
X028790Y001760D01*
D11*
X024382Y003786D02*
X024382Y010736D01*
X021458Y010736D01*
X021458Y003786D01*
X024382Y003786D01*
X027631Y005669D02*
X027631Y006019D01*
X028161Y006019D01*
X028161Y005669D01*
X028761Y005669D01*
X029261Y005669D01*
X029861Y005669D01*
X030381Y005669D01*
X030381Y006019D01*
X030381Y006669D01*
X030381Y014669D01*
X030381Y015319D01*
X030381Y015659D01*
X029861Y015659D01*
X029261Y015659D01*
X028761Y015659D01*
X028161Y015659D01*
X027631Y015659D01*
X027631Y015319D01*
X027631Y014669D01*
X027631Y006669D01*
X027631Y006019D01*
X027631Y005669D02*
X028161Y005669D01*
X028761Y005669D02*
X028761Y006019D01*
X029261Y006019D01*
X029261Y005669D01*
X029370Y006249D02*
X029190Y006430D01*
X029731Y006430D01*
X029731Y006610D02*
X029731Y006249D01*
X029861Y006019D02*
X030381Y006019D01*
X029861Y006019D02*
X029861Y005669D01*
X030381Y006669D02*
X030651Y006669D01*
X030651Y014669D01*
X030381Y014669D01*
X030381Y015319D02*
X029861Y015319D01*
X029861Y015659D01*
X029261Y015659D02*
X029261Y015319D01*
X028761Y015319D01*
X028761Y015659D01*
X028161Y015659D02*
X028161Y015319D01*
X027631Y015319D01*
X027631Y014669D02*
X025261Y014669D01*
X026011Y013169D01*
X025261Y011169D01*
X025561Y009669D01*
X025261Y006669D01*
X027631Y006669D01*
X029931Y006999D02*
X030261Y007169D01*
X030161Y007169D01*
X030261Y007169D02*
X029931Y007339D01*
X029931Y006999D01*
X024510Y011820D02*
X024330Y011820D01*
X024150Y012200D02*
X024150Y012320D01*
X024330Y012700D02*
X024510Y012700D01*
X024123Y013254D02*
X023973Y013254D01*
X023923Y013304D01*
X022523Y013304D01*
X022473Y013254D01*
X022323Y013254D01*
X022306Y013256D01*
X022289Y013260D01*
X022273Y013267D01*
X022259Y013277D01*
X022246Y013290D01*
X022236Y013304D01*
X022229Y013320D01*
X022225Y013337D01*
X022223Y013354D01*
X022223Y013954D01*
X022225Y013971D01*
X022229Y013988D01*
X022236Y014004D01*
X022246Y014018D01*
X022259Y014031D01*
X022273Y014041D01*
X022289Y014048D01*
X022306Y014052D01*
X022323Y014054D01*
X022473Y014054D01*
X022523Y014004D01*
X023923Y014004D01*
X023973Y014054D01*
X024123Y014054D01*
X024140Y014052D01*
X024157Y014048D01*
X024173Y014041D01*
X024187Y014031D01*
X024200Y014018D01*
X024210Y014004D01*
X024217Y013988D01*
X024221Y013971D01*
X024223Y013954D01*
X024223Y013354D01*
X024221Y013337D01*
X024217Y013320D01*
X024210Y013304D01*
X024200Y013290D01*
X024187Y013277D01*
X024173Y013267D01*
X024157Y013260D01*
X024140Y013256D01*
X024123Y013254D01*
X022510Y012700D02*
X022330Y012700D01*
X022690Y012320D02*
X022690Y012200D01*
X022510Y011820D02*
X022330Y011820D01*
X021470Y010366D02*
X021472Y010395D01*
X021478Y010423D01*
X021487Y010450D01*
X021501Y010475D01*
X021517Y010499D01*
X021537Y010519D01*
X021559Y010538D01*
X021583Y010552D01*
X021610Y010564D01*
X021637Y010572D01*
X021666Y010576D01*
X021694Y010576D01*
X021723Y010572D01*
X021750Y010564D01*
X021777Y010552D01*
X021801Y010538D01*
X021823Y010519D01*
X021843Y010499D01*
X021859Y010475D01*
X021873Y010450D01*
X021882Y010423D01*
X021888Y010395D01*
X021890Y010366D01*
X021888Y010337D01*
X021882Y010309D01*
X021873Y010282D01*
X021859Y010257D01*
X021843Y010233D01*
X021823Y010213D01*
X021801Y010194D01*
X021777Y010180D01*
X021750Y010168D01*
X021723Y010160D01*
X021694Y010156D01*
X021666Y010156D01*
X021637Y010160D01*
X021610Y010168D01*
X021583Y010180D01*
X021559Y010194D01*
X021537Y010213D01*
X021517Y010233D01*
X021501Y010257D01*
X021487Y010282D01*
X021478Y010309D01*
X021472Y010337D01*
X021470Y010366D01*
X018310Y012830D02*
X018310Y012900D01*
X018310Y012830D02*
X016530Y012830D01*
X016530Y012900D01*
X015860Y014110D02*
X015460Y014110D01*
X016530Y016620D02*
X016530Y016690D01*
X017300Y016690D01*
X017540Y016690D01*
X018310Y016690D01*
X018310Y016620D01*
X017540Y016690D02*
X017538Y016669D01*
X017533Y016649D01*
X017524Y016630D01*
X017512Y016613D01*
X017497Y016598D01*
X017480Y016586D01*
X017461Y016577D01*
X017441Y016572D01*
X017420Y016570D01*
X017399Y016572D01*
X017379Y016577D01*
X017360Y016586D01*
X017343Y016598D01*
X017328Y016613D01*
X017316Y016630D01*
X017307Y016649D01*
X017302Y016669D01*
X017300Y016690D01*
X018980Y014360D02*
X019380Y014360D01*
X015124Y010916D02*
X014944Y010916D01*
X014984Y010806D02*
X015003Y010799D01*
X015024Y010795D01*
X015044Y010795D01*
X015065Y010799D01*
X015084Y010806D01*
X015314Y010556D02*
X015314Y010436D01*
X015124Y010076D02*
X014944Y010076D01*
X010960Y010240D02*
X010540Y010240D01*
X010300Y010240D01*
X009880Y010240D01*
X010300Y010240D02*
X010302Y010219D01*
X010307Y010199D01*
X010316Y010180D01*
X010328Y010163D01*
X010343Y010148D01*
X010360Y010136D01*
X010379Y010127D01*
X010399Y010122D01*
X010420Y010120D01*
X010441Y010122D01*
X010461Y010127D01*
X010480Y010136D01*
X010497Y010148D01*
X010512Y010163D01*
X010524Y010180D01*
X010533Y010199D01*
X010538Y010219D01*
X010540Y010240D01*
X010960Y011280D02*
X009880Y011280D01*
X009880Y013240D02*
X010300Y013240D01*
X010540Y013240D01*
X010960Y013240D01*
X010540Y013240D02*
X010538Y013219D01*
X010533Y013199D01*
X010524Y013180D01*
X010512Y013163D01*
X010497Y013148D01*
X010480Y013136D01*
X010461Y013127D01*
X010441Y013122D01*
X010420Y013120D01*
X010399Y013122D01*
X010379Y013127D01*
X010360Y013136D01*
X010343Y013148D01*
X010328Y013163D01*
X010316Y013180D01*
X010307Y013199D01*
X010302Y013219D01*
X010300Y013240D01*
X009880Y008280D02*
X010960Y008280D01*
X011220Y007260D02*
X010620Y007260D01*
X010603Y007258D01*
X010586Y007254D01*
X010570Y007247D01*
X010556Y007237D01*
X010543Y007224D01*
X010533Y007210D01*
X010526Y007194D01*
X010522Y007177D01*
X010520Y007160D01*
X010520Y007010D01*
X010570Y006960D01*
X010570Y005560D01*
X010520Y005510D01*
X010520Y005360D01*
X010522Y005343D01*
X010526Y005326D01*
X010533Y005310D01*
X010543Y005296D01*
X010556Y005283D01*
X010570Y005273D01*
X010586Y005266D01*
X010603Y005262D01*
X010620Y005260D01*
X011220Y005260D01*
X011237Y005262D01*
X011254Y005266D01*
X011270Y005273D01*
X011284Y005283D01*
X011297Y005296D01*
X011307Y005310D01*
X011314Y005326D01*
X011318Y005343D01*
X011320Y005360D01*
X011320Y005510D01*
X011270Y005560D01*
X011270Y006960D01*
X011320Y007010D01*
X011320Y007160D01*
X011318Y007177D01*
X011314Y007194D01*
X011307Y007210D01*
X011297Y007224D01*
X011284Y007237D01*
X011270Y007247D01*
X011254Y007254D01*
X011237Y007258D01*
X011220Y007260D01*
X010320Y007160D02*
X010320Y007010D01*
X010270Y006960D01*
X010270Y005560D01*
X010320Y005510D01*
X010320Y005360D01*
X010318Y005343D01*
X010314Y005326D01*
X010307Y005310D01*
X010297Y005296D01*
X010284Y005283D01*
X010270Y005273D01*
X010254Y005266D01*
X010237Y005262D01*
X010220Y005260D01*
X009620Y005260D01*
X009603Y005262D01*
X009586Y005266D01*
X009570Y005273D01*
X009556Y005283D01*
X009543Y005296D01*
X009533Y005310D01*
X009526Y005326D01*
X009522Y005343D01*
X009520Y005360D01*
X009520Y005510D01*
X009570Y005560D01*
X009570Y006960D01*
X009520Y007010D01*
X009520Y007160D01*
X009522Y007177D01*
X009526Y007194D01*
X009533Y007210D01*
X009543Y007224D01*
X009556Y007237D01*
X009570Y007247D01*
X009586Y007254D01*
X009603Y007258D01*
X009620Y007260D01*
X010220Y007260D01*
X010237Y007258D01*
X010254Y007254D01*
X010270Y007247D01*
X010284Y007237D01*
X010297Y007224D01*
X010307Y007210D01*
X010314Y007194D01*
X010318Y007177D01*
X010320Y007160D01*
X015521Y005762D02*
X017319Y005762D01*
X017319Y002758D01*
X015521Y002758D01*
X015521Y005762D01*
X015760Y005412D02*
X015762Y005438D01*
X015768Y005464D01*
X015777Y005488D01*
X015790Y005511D01*
X015806Y005532D01*
X015825Y005550D01*
X015846Y005566D01*
X015870Y005578D01*
X015894Y005586D01*
X015920Y005591D01*
X015947Y005592D01*
X015973Y005589D01*
X015998Y005582D01*
X016022Y005572D01*
X016045Y005558D01*
X016065Y005542D01*
X016082Y005522D01*
X016097Y005500D01*
X016108Y005476D01*
X016116Y005451D01*
X016120Y005425D01*
X016120Y005399D01*
X016116Y005373D01*
X016108Y005348D01*
X016097Y005324D01*
X016082Y005302D01*
X016065Y005282D01*
X016045Y005266D01*
X016022Y005252D01*
X015998Y005242D01*
X015973Y005235D01*
X015947Y005232D01*
X015920Y005233D01*
X015894Y005238D01*
X015870Y005246D01*
X015846Y005258D01*
X015825Y005274D01*
X015806Y005292D01*
X015790Y005313D01*
X015777Y005336D01*
X015768Y005360D01*
X015762Y005386D01*
X015760Y005412D01*
X009420Y019460D02*
X008420Y019460D01*
X008420Y021060D01*
X009420Y021060D01*
X009420Y019460D01*
X009170Y019860D02*
X008920Y020260D01*
X008670Y020260D01*
X008920Y020260D02*
X008920Y020510D01*
X008920Y020260D02*
X009170Y020260D01*
X008920Y020260D02*
X008920Y019660D01*
X008670Y019860D02*
X008920Y020260D01*
X009170Y019860D02*
X008670Y019860D01*
X013851Y020300D02*
X015171Y020300D01*
X015171Y022220D02*
X014631Y022220D01*
X014391Y022220D01*
X013851Y022220D01*
X021810Y020510D02*
X021810Y020380D01*
X021810Y020140D01*
X021810Y020010D01*
X021810Y020140D02*
X021831Y020142D01*
X021851Y020147D01*
X021870Y020156D01*
X021887Y020168D01*
X021902Y020183D01*
X021914Y020200D01*
X021923Y020219D01*
X021928Y020239D01*
X021930Y020260D01*
X021928Y020281D01*
X021923Y020301D01*
X021914Y020320D01*
X021902Y020337D01*
X021887Y020352D01*
X021870Y020364D01*
X021851Y020373D01*
X021831Y020378D01*
X021810Y020380D01*
X022290Y020610D02*
X022550Y020610D01*
X023030Y020510D02*
X023030Y020010D01*
D12*
X021787Y019719D02*
X021473Y019405D01*
X021473Y019562D02*
X021787Y019562D01*
X021787Y019405D02*
X021473Y019719D01*
X021630Y019719D02*
X021630Y019405D01*
X016269Y016917D02*
X015955Y016603D01*
X016112Y016603D02*
X016112Y016917D01*
X015955Y016917D02*
X016269Y016603D01*
X016269Y016760D02*
X015955Y016760D01*
X021725Y013007D02*
X022039Y012693D01*
X021882Y012693D02*
X021882Y013007D01*
X022039Y013007D02*
X021725Y012693D01*
X021725Y012850D02*
X022039Y012850D01*
X024802Y011827D02*
X025115Y011513D01*
X024958Y011513D02*
X024958Y011827D01*
X025115Y011827D02*
X024802Y011513D01*
X024802Y011670D02*
X025115Y011670D01*
X014623Y011243D02*
X014309Y010930D01*
X014309Y011086D02*
X014623Y011086D01*
X014623Y010930D02*
X014309Y011243D01*
X014466Y011243D02*
X014466Y010930D01*
X009449Y010587D02*
X009135Y010273D01*
X009292Y010273D02*
X009292Y010587D01*
X009135Y010587D02*
X009449Y010273D01*
X009449Y010430D02*
X009135Y010430D01*
X009135Y013273D02*
X009449Y013587D01*
X009449Y013430D02*
X009135Y013430D01*
X009135Y013587D02*
X009449Y013273D01*
X009292Y013273D02*
X009292Y013587D01*
X013156Y022263D02*
X013469Y022577D01*
X013313Y022577D02*
X013313Y022263D01*
X013469Y022263D02*
X013156Y022577D01*
X013156Y022420D02*
X013469Y022420D01*
D13*
X013730Y022403D02*
X013805Y022328D01*
X013955Y022328D01*
X014030Y022403D01*
X014030Y022779D01*
X014190Y022628D02*
X014341Y022779D01*
X014341Y022328D01*
X014491Y022328D02*
X014190Y022328D01*
X013730Y022403D02*
X013730Y022779D01*
X008406Y021396D02*
X008106Y021396D01*
X008256Y021396D02*
X008256Y021846D01*
X008106Y021696D01*
X007945Y021771D02*
X007870Y021846D01*
X007645Y021846D01*
X007645Y021396D01*
X007870Y021396D01*
X007945Y021471D01*
X007945Y021771D01*
X009086Y016701D02*
X009412Y016701D01*
X009412Y015717D01*
X009448Y015717D01*
X009448Y016677D01*
X009412Y016701D02*
X010719Y016701D01*
X010719Y015717D01*
X009448Y015717D01*
X009412Y015717D02*
X009086Y015717D01*
X009086Y016701D01*
X009113Y015315D02*
X010385Y015315D01*
X010385Y014354D01*
X010420Y014331D02*
X010420Y015315D01*
X010385Y015315D01*
X010420Y015315D02*
X010747Y015315D01*
X010747Y014331D01*
X010420Y014331D01*
X009113Y014331D01*
X009113Y015315D01*
X009873Y013895D02*
X009873Y013520D01*
X009948Y013444D01*
X010098Y013444D01*
X010173Y013520D01*
X010173Y013895D01*
X010333Y013820D02*
X010408Y013895D01*
X010558Y013895D01*
X010633Y013820D01*
X010633Y013745D01*
X010333Y013444D01*
X010633Y013444D01*
X010361Y010895D02*
X010211Y010895D01*
X010136Y010820D01*
X009976Y010895D02*
X009976Y010520D01*
X009901Y010444D01*
X009751Y010444D01*
X009676Y010520D01*
X009676Y010895D01*
X010136Y010520D02*
X010211Y010444D01*
X010361Y010444D01*
X010436Y010520D01*
X010436Y010595D01*
X010361Y010670D01*
X010286Y010670D01*
X010361Y010670D02*
X010436Y010745D01*
X010436Y010820D01*
X010361Y010895D01*
X014880Y011203D02*
X014956Y011128D01*
X015106Y011128D01*
X015181Y011203D01*
X015181Y011578D01*
X015341Y011578D02*
X015341Y011353D01*
X015491Y011428D01*
X015566Y011428D01*
X015641Y011353D01*
X015641Y011203D01*
X015566Y011128D01*
X015416Y011128D01*
X015341Y011203D01*
X015341Y011578D02*
X015641Y011578D01*
X014880Y011578D02*
X014880Y011203D01*
X019920Y015776D02*
X021554Y015028D01*
X021593Y015008D02*
X021661Y014969D01*
X021730Y014934D01*
X021801Y014902D01*
X021873Y014874D01*
X021946Y014849D01*
X022021Y014828D01*
X022096Y014811D01*
X022172Y014797D01*
X022249Y014786D01*
X022327Y014780D01*
X022404Y014777D01*
X022481Y014778D01*
X022559Y014783D01*
X022636Y014791D01*
X022713Y014803D01*
X022788Y014819D01*
X022863Y014838D01*
X022938Y014861D01*
X023010Y014887D01*
X023082Y014917D01*
X023152Y014951D01*
X023220Y014987D01*
X023287Y015027D01*
X023286Y015028D02*
X024920Y015776D01*
X023286Y018493D02*
X023226Y018535D01*
X023163Y018575D01*
X023098Y018612D01*
X023032Y018645D01*
X022963Y018674D01*
X022894Y018700D01*
X022823Y018723D01*
X022751Y018742D01*
X022679Y018757D01*
X022605Y018768D01*
X022531Y018776D01*
X022457Y018780D01*
X022383Y018780D01*
X022309Y018776D01*
X022235Y018768D01*
X022161Y018757D01*
X022089Y018742D01*
X022017Y018723D01*
X021946Y018700D01*
X021877Y018674D01*
X021808Y018645D01*
X021742Y018612D01*
X021677Y018575D01*
X021614Y018535D01*
X021554Y018493D01*
X021554Y018492D02*
X019920Y017725D01*
X022085Y018974D02*
X022085Y019350D01*
X022385Y019350D02*
X022385Y018974D01*
X022310Y018899D01*
X022160Y018899D01*
X022085Y018974D01*
X022546Y018974D02*
X022621Y018899D01*
X022771Y018899D01*
X022846Y018974D01*
X022846Y019049D01*
X022771Y019124D01*
X022546Y019124D01*
X022546Y018974D01*
X022546Y019124D02*
X022696Y019274D01*
X022846Y019350D01*
X023286Y018492D02*
X024920Y017764D01*
X024861Y020102D02*
X024861Y020552D01*
X024711Y020402D01*
X024551Y020477D02*
X024476Y020552D01*
X024326Y020552D01*
X024251Y020477D01*
X024251Y020177D01*
X024326Y020102D01*
X024476Y020102D01*
X024551Y020177D01*
X024711Y020102D02*
X025011Y020102D01*
X025171Y020177D02*
X025246Y020102D01*
X025397Y020102D01*
X025472Y020177D01*
X025472Y020252D01*
X025397Y020327D01*
X025321Y020327D01*
X025397Y020327D02*
X025472Y020402D01*
X025472Y020477D01*
X025397Y020552D01*
X025246Y020552D01*
X025171Y020477D01*
X021491Y019788D02*
X019290Y019788D01*
X019290Y021941D01*
X021487Y021941D01*
X021491Y022386D02*
X019290Y022386D01*
X019290Y021941D01*
X021491Y022386D02*
X021491Y019788D01*
X017361Y017485D02*
X017361Y017035D01*
X017436Y017260D02*
X017136Y017260D01*
X017361Y017485D01*
X016976Y017485D02*
X016976Y017110D01*
X016901Y017035D01*
X016751Y017035D01*
X016676Y017110D01*
X016676Y017485D01*
X022857Y013145D02*
X022857Y012770D01*
X022932Y012694D01*
X023082Y012694D01*
X023157Y012770D01*
X023157Y013145D01*
X023317Y013145D02*
X023618Y013145D01*
X023618Y013070D01*
X023317Y012770D01*
X023317Y012694D01*
X024786Y012785D02*
X024861Y012710D01*
X025011Y012710D01*
X025086Y012785D01*
X025086Y013161D01*
X025246Y013086D02*
X025246Y013010D01*
X025321Y012935D01*
X025472Y012935D01*
X025547Y012860D01*
X025547Y012785D01*
X025472Y012710D01*
X025321Y012710D01*
X025246Y012785D01*
X025246Y012860D01*
X025321Y012935D01*
X025472Y012935D02*
X025547Y013010D01*
X025547Y013086D01*
X025472Y013161D01*
X025321Y013161D01*
X025246Y013086D01*
X024786Y013161D02*
X024786Y012785D01*
X026935Y011620D02*
X026935Y011395D01*
X027386Y011395D01*
X027236Y011395D02*
X027236Y011620D01*
X027161Y011695D01*
X027010Y011695D01*
X026935Y011620D01*
X026935Y011235D02*
X027010Y011085D01*
X027161Y010935D01*
X027161Y011160D01*
X027236Y011235D01*
X027311Y011235D01*
X027386Y011160D01*
X027386Y011010D01*
X027311Y010935D01*
X027161Y010935D01*
X027386Y010774D02*
X027386Y010474D01*
X027386Y010624D02*
X026935Y010624D01*
X027086Y010474D01*
X027161Y009854D02*
X027236Y009854D01*
X027236Y009553D01*
X027311Y009553D02*
X027161Y009553D01*
X027086Y009628D01*
X027086Y009779D01*
X027161Y009854D01*
X027386Y009779D02*
X027386Y009628D01*
X027311Y009553D01*
X027386Y009397D02*
X027386Y009246D01*
X027386Y009321D02*
X026935Y009321D01*
X026935Y009246D01*
X027161Y009086D02*
X027086Y009011D01*
X027086Y008786D01*
X026935Y008786D02*
X027386Y008786D01*
X027386Y009011D01*
X027311Y009086D01*
X027161Y009086D01*
X027161Y008626D02*
X027386Y008626D01*
X027386Y008401D01*
X027311Y008326D01*
X027236Y008401D01*
X027236Y008626D01*
X027161Y008626D02*
X027086Y008551D01*
X027086Y008401D01*
X027010Y008165D02*
X026935Y008090D01*
X026935Y007940D01*
X027010Y007865D01*
X027311Y007865D01*
X027386Y007940D01*
X027386Y008090D01*
X027311Y008165D01*
X027161Y007705D02*
X027161Y007405D01*
X027161Y007245D02*
X027236Y007170D01*
X027236Y006944D01*
X027386Y006944D02*
X026935Y006944D01*
X026935Y007170D01*
X027010Y007245D01*
X027161Y007245D01*
X027236Y007095D02*
X027386Y007245D01*
X022413Y010891D02*
X022113Y010891D01*
X022263Y010891D02*
X022263Y011341D01*
X022113Y011191D01*
X021952Y011266D02*
X021877Y011341D01*
X021727Y011341D01*
X021652Y011266D01*
X021652Y010966D01*
X021727Y010891D01*
X021877Y010891D01*
X021952Y010966D01*
X021495Y010891D02*
X021345Y010891D01*
X021420Y010891D02*
X021420Y011341D01*
X021345Y011341D02*
X021495Y011341D01*
X010156Y004075D02*
X010156Y003445D01*
X009684Y003445D01*
X009684Y004075D01*
X010156Y004075D01*
D14*
X009920Y005185D03*
X010920Y005185D03*
X010920Y007335D03*
X009920Y007335D03*
D15*
X009280Y007849D02*
X009280Y008199D01*
X009105Y008024D01*
X009338Y008024D01*
X008979Y008024D02*
X008921Y007965D01*
X008746Y007965D01*
X008862Y007965D02*
X008979Y007849D01*
X008979Y008024D02*
X008979Y008140D01*
X008921Y008199D01*
X008746Y008199D01*
X008746Y007849D01*
X011305Y007864D02*
X011305Y008215D01*
X011480Y008215D01*
X011538Y008156D01*
X011538Y008039D01*
X011480Y007981D01*
X011305Y007981D01*
X011421Y007981D02*
X011538Y007864D01*
X011664Y007923D02*
X011722Y007864D01*
X011839Y007864D01*
X011897Y007923D01*
X011897Y007981D01*
X011839Y008039D01*
X011781Y008039D01*
X011839Y008039D02*
X011897Y008098D01*
X011897Y008156D01*
X011839Y008215D01*
X011722Y008215D01*
X011664Y008156D01*
X012751Y008144D02*
X012828Y008067D01*
X012981Y008067D01*
X013058Y008144D01*
X013212Y008144D02*
X013212Y008298D01*
X013442Y008298D01*
X013519Y008221D01*
X013519Y008144D01*
X013442Y008067D01*
X013288Y008067D01*
X013212Y008144D01*
X013212Y008298D02*
X013365Y008451D01*
X013519Y008528D01*
X013058Y008451D02*
X012981Y008528D01*
X012828Y008528D01*
X012751Y008451D01*
X012751Y008144D01*
X015756Y007738D02*
X015756Y007432D01*
X015833Y007355D01*
X015986Y007355D01*
X016063Y007432D01*
X016216Y007355D02*
X016523Y007355D01*
X016370Y007355D02*
X016370Y007815D01*
X016216Y007662D01*
X016063Y007738D02*
X015986Y007815D01*
X015833Y007815D01*
X015756Y007738D01*
X016677Y007815D02*
X016677Y007585D01*
X016830Y007662D01*
X016907Y007662D01*
X016984Y007585D01*
X016984Y007432D01*
X016907Y007355D01*
X016753Y007355D01*
X016677Y007432D01*
X016677Y007815D02*
X016984Y007815D01*
X018384Y006040D02*
X018307Y005963D01*
X018307Y005656D01*
X018384Y005579D01*
X018537Y005579D01*
X018614Y005656D01*
X018767Y005579D02*
X019074Y005579D01*
X018921Y005579D02*
X018921Y006040D01*
X018767Y005886D01*
X018614Y005963D02*
X018537Y006040D01*
X018384Y006040D01*
X019228Y005963D02*
X019228Y005886D01*
X019305Y005809D01*
X019458Y005809D01*
X019535Y005733D01*
X019535Y005656D01*
X019458Y005579D01*
X019305Y005579D01*
X019228Y005656D01*
X019228Y005733D01*
X019305Y005809D01*
X019458Y005809D02*
X019535Y005886D01*
X019535Y005963D01*
X019458Y006040D01*
X019305Y006040D01*
X019228Y005963D01*
X020340Y003799D02*
X020263Y003723D01*
X020263Y003416D01*
X020340Y003339D01*
X020493Y003339D01*
X020570Y003416D01*
X020723Y003339D02*
X021030Y003339D01*
X020877Y003339D02*
X020877Y003799D01*
X020723Y003646D01*
X020570Y003723D02*
X020493Y003799D01*
X020340Y003799D01*
X021184Y003799D02*
X021491Y003799D01*
X021491Y003723D01*
X021184Y003416D01*
X021184Y003339D01*
X021337Y002935D02*
X021184Y002782D01*
X021414Y002782D01*
X021491Y002705D01*
X021491Y002628D01*
X021414Y002552D01*
X021261Y002552D01*
X021184Y002628D01*
X021184Y002782D01*
X021337Y002935D02*
X021491Y003012D01*
X020877Y003012D02*
X020877Y002552D01*
X021030Y002552D02*
X020723Y002552D01*
X020570Y002628D02*
X020493Y002552D01*
X020340Y002552D01*
X020263Y002628D01*
X020263Y002935D01*
X020340Y003012D01*
X020493Y003012D01*
X020570Y002935D01*
X020723Y002859D02*
X020877Y003012D01*
X020877Y001634D02*
X020877Y001174D01*
X021030Y001174D02*
X020723Y001174D01*
X020570Y001250D02*
X020493Y001174D01*
X020340Y001174D01*
X020263Y001250D01*
X020263Y001557D01*
X020340Y001634D01*
X020493Y001634D01*
X020570Y001557D01*
X020723Y001481D02*
X020877Y001634D01*
X021184Y001404D02*
X021491Y001404D01*
X021414Y001174D02*
X021414Y001634D01*
X021184Y001404D01*
X016597Y002192D02*
X016357Y002192D01*
X016477Y002192D02*
X016477Y002552D01*
X016357Y002432D01*
X016229Y002492D02*
X016169Y002552D01*
X016049Y002552D01*
X015989Y002492D01*
X015989Y002432D01*
X016049Y002372D01*
X016169Y002372D01*
X016229Y002312D01*
X016229Y002252D01*
X016169Y002192D01*
X016049Y002192D01*
X015989Y002252D01*
X015860Y002252D02*
X015860Y002552D01*
X015620Y002552D02*
X015620Y002252D01*
X015680Y002192D01*
X015800Y002192D01*
X015860Y002252D01*
X016109Y002132D02*
X016109Y002612D01*
X014460Y002299D02*
X014460Y001839D01*
X014307Y001839D02*
X014614Y001839D01*
X014153Y001839D02*
X013846Y001839D01*
X014000Y001839D02*
X014000Y002299D01*
X013846Y002146D01*
X013693Y002223D02*
X013616Y002299D01*
X013463Y002299D01*
X013386Y002223D01*
X013386Y001916D01*
X013463Y001839D01*
X013616Y001839D01*
X013693Y001916D01*
X014307Y002146D02*
X014460Y002299D01*
X011451Y002628D02*
X011375Y002552D01*
X011221Y002552D01*
X011144Y002628D01*
X011451Y002935D01*
X011451Y002628D01*
X011144Y002628D02*
X011144Y002935D01*
X011221Y003012D01*
X011375Y003012D01*
X011451Y002935D01*
X010991Y002552D02*
X010684Y002552D01*
X010838Y002552D02*
X010838Y003012D01*
X010684Y002859D01*
X010531Y002935D02*
X010454Y003012D01*
X010300Y003012D01*
X010224Y002935D01*
X010224Y002628D01*
X010300Y002552D01*
X010454Y002552D01*
X010531Y002628D01*
X010050Y002998D02*
X009743Y002998D01*
X009973Y003229D01*
X009973Y002768D01*
X009590Y002845D02*
X009590Y003152D01*
X009513Y003229D01*
X009283Y003229D01*
X009283Y002768D01*
X009513Y002768D01*
X009590Y002845D01*
X010497Y003733D02*
X010651Y003733D01*
X010727Y003809D01*
X010881Y003809D02*
X010958Y003733D01*
X011111Y003733D01*
X011188Y003809D01*
X011188Y004116D01*
X011111Y004193D01*
X010958Y004193D01*
X010881Y004116D01*
X010881Y004040D01*
X010958Y003963D01*
X011188Y003963D01*
X010727Y004116D02*
X010651Y004193D01*
X010497Y004193D01*
X010421Y004116D01*
X010421Y003809D01*
X010497Y003733D01*
X010653Y002103D02*
X010500Y001949D01*
X010346Y002026D02*
X010270Y002103D01*
X010116Y002103D01*
X010039Y002026D01*
X010039Y001719D01*
X010116Y001642D01*
X010270Y001642D01*
X010346Y001719D01*
X010500Y001642D02*
X010807Y001642D01*
X010960Y001642D02*
X011267Y001949D01*
X011267Y002026D01*
X011190Y002103D01*
X011037Y002103D01*
X010960Y002026D01*
X010653Y002103D02*
X010653Y001642D01*
X010960Y001642D02*
X011267Y001642D01*
X013253Y005111D02*
X013407Y005111D01*
X013483Y005187D01*
X013637Y005187D02*
X013637Y005264D01*
X013714Y005341D01*
X013867Y005341D01*
X013944Y005264D01*
X013944Y005187D01*
X013867Y005111D01*
X013714Y005111D01*
X013637Y005187D01*
X013714Y005341D02*
X013637Y005418D01*
X013637Y005494D01*
X013714Y005571D01*
X013867Y005571D01*
X013944Y005494D01*
X013944Y005418D01*
X013867Y005341D01*
X013483Y005494D02*
X013407Y005571D01*
X013253Y005571D01*
X013176Y005494D01*
X013176Y005187D01*
X013253Y005111D01*
X013269Y011500D02*
X013116Y011500D01*
X013039Y011577D01*
X012885Y011577D02*
X012809Y011500D01*
X012655Y011500D01*
X012578Y011577D01*
X012578Y011884D01*
X012655Y011961D01*
X012809Y011961D01*
X012885Y011884D01*
X013039Y011961D02*
X013039Y011731D01*
X013192Y011807D01*
X013269Y011807D01*
X013346Y011731D01*
X013346Y011577D01*
X013269Y011500D01*
X013346Y011961D02*
X013039Y011961D01*
X016192Y012053D02*
X016192Y011746D01*
X016269Y011670D01*
X016422Y011670D01*
X016499Y011746D01*
X016653Y011746D02*
X016653Y011670D01*
X016653Y011746D02*
X016959Y012053D01*
X016959Y012130D01*
X016653Y012130D01*
X016499Y012053D02*
X016422Y012130D01*
X016269Y012130D01*
X016192Y012053D01*
X018905Y012526D02*
X018982Y012449D01*
X019136Y012449D01*
X019212Y012526D01*
X019366Y012449D02*
X019673Y012449D01*
X019519Y012449D02*
X019519Y012910D01*
X019366Y012756D01*
X019212Y012833D02*
X019136Y012910D01*
X018982Y012910D01*
X018905Y012833D01*
X018905Y012526D01*
X019826Y012526D02*
X019903Y012449D01*
X020056Y012449D01*
X020133Y012526D01*
X020133Y012833D01*
X020056Y012910D01*
X019903Y012910D01*
X019826Y012833D01*
X019826Y012756D01*
X019903Y012679D01*
X020133Y012679D01*
X022243Y014184D02*
X022243Y014534D01*
X022419Y014534D01*
X022477Y014476D01*
X022477Y014359D01*
X022419Y014300D01*
X022243Y014300D01*
X022360Y014300D02*
X022477Y014184D01*
X022602Y014184D02*
X022836Y014417D01*
X022836Y014476D01*
X022778Y014534D01*
X022661Y014534D01*
X022602Y014476D01*
X022602Y014184D02*
X022836Y014184D01*
X022962Y014184D02*
X023195Y014417D01*
X023195Y014476D01*
X023137Y014534D01*
X023020Y014534D01*
X022962Y014476D01*
X022962Y014184D02*
X023195Y014184D01*
X018289Y018634D02*
X018212Y018558D01*
X018059Y018558D01*
X017982Y018634D01*
X017828Y018634D02*
X017752Y018558D01*
X017598Y018558D01*
X017521Y018634D01*
X017521Y018941D01*
X017598Y019018D01*
X017752Y019018D01*
X017828Y018941D01*
X017982Y018941D02*
X018059Y019018D01*
X018212Y019018D01*
X018289Y018941D01*
X018289Y018864D01*
X018212Y018788D01*
X018289Y018711D01*
X018289Y018634D01*
X018212Y018788D02*
X018135Y018788D01*
X017011Y018639D02*
X016704Y018639D01*
X016857Y018639D02*
X016857Y019099D01*
X016704Y018946D01*
X016550Y019022D02*
X016474Y019099D01*
X016243Y019099D01*
X016243Y018639D01*
X016243Y018792D02*
X016474Y018792D01*
X016550Y018869D01*
X016550Y019022D01*
X016397Y018792D02*
X016550Y018639D01*
X013535Y019203D02*
X013228Y019203D01*
X013458Y019433D01*
X013458Y018973D01*
X013074Y019050D02*
X012998Y018973D01*
X012844Y018973D01*
X012767Y019050D01*
X012767Y019357D01*
X012844Y019433D01*
X012998Y019433D01*
X013074Y019357D01*
X011788Y020341D02*
X011481Y020341D01*
X011788Y020648D01*
X011788Y020725D01*
X011712Y020801D01*
X011558Y020801D01*
X011481Y020725D01*
X011328Y020725D02*
X011251Y020801D01*
X011098Y020801D01*
X011021Y020725D01*
X011021Y020418D01*
X011098Y020341D01*
X011251Y020341D01*
X011328Y020418D01*
X010751Y020182D02*
X010444Y020182D01*
X010597Y020182D02*
X010597Y020642D01*
X010444Y020489D01*
X010290Y020565D02*
X010214Y020642D01*
X010060Y020642D01*
X009984Y020565D01*
X009984Y020258D01*
X010060Y020182D01*
X010214Y020182D01*
X010290Y020258D01*
X016318Y021985D02*
X016318Y022446D01*
X016548Y022446D01*
X016625Y022369D01*
X016625Y022215D01*
X016548Y022139D01*
X016318Y022139D01*
X016472Y022139D02*
X016625Y021985D01*
X016779Y021985D02*
X017086Y022292D01*
X017086Y022369D01*
X017009Y022446D01*
X016855Y022446D01*
X016779Y022369D01*
X016779Y021985D02*
X017086Y021985D01*
X019884Y019409D02*
X019884Y018948D01*
X020191Y018948D01*
X020344Y018948D02*
X020651Y018948D01*
X020498Y018948D02*
X020498Y019409D01*
X020344Y019255D01*
X021803Y022308D02*
X021803Y022768D01*
X022033Y022768D01*
X022110Y022692D01*
X022110Y022538D01*
X022033Y022461D01*
X021803Y022461D01*
X021956Y022461D02*
X022110Y022308D01*
X022263Y022308D02*
X022570Y022308D01*
X022417Y022308D02*
X022417Y022768D01*
X022263Y022615D01*
X022724Y022538D02*
X022877Y022615D01*
X022954Y022615D01*
X023030Y022538D01*
X023030Y022385D01*
X022954Y022308D01*
X022800Y022308D01*
X022724Y022385D01*
X022724Y022538D02*
X022724Y022768D01*
X023030Y022768D01*
X000747Y005971D02*
X000286Y005971D01*
X000516Y005740D01*
X000516Y006047D01*
X000286Y005587D02*
X000747Y005280D01*
X000747Y005587D02*
X000286Y005280D01*
D16*
X022420Y016760D03*
D17*
X009491Y016912D02*
X009344Y016912D01*
X009491Y017059D01*
X009491Y017095D01*
X009454Y017132D01*
X009381Y017132D01*
X009344Y017095D01*
X009270Y017095D02*
X009233Y017132D01*
X009123Y017132D01*
X009123Y016912D01*
X009233Y016912D01*
X009270Y016948D01*
X009270Y017095D01*
X009216Y015695D02*
X009106Y015695D01*
X009106Y015475D01*
X009216Y015475D01*
X009253Y015512D01*
X009253Y015658D01*
X009216Y015695D01*
X009327Y015658D02*
X009364Y015695D01*
X009437Y015695D01*
X009474Y015658D01*
X009474Y015622D01*
X009437Y015585D01*
X009474Y015548D01*
X009474Y015512D01*
X009437Y015475D01*
X009364Y015475D01*
X009327Y015512D01*
X009401Y015585D02*
X009437Y015585D01*
X015611Y005672D02*
X017229Y005672D01*
X017229Y002848D01*
X015611Y002848D01*
X015611Y005672D01*
D18*
X009129Y007583D02*
X009129Y003134D01*
X003656Y003134D01*
X003656Y007583D01*
X009129Y007583D01*
X003617Y006402D02*
X002278Y006402D01*
X002278Y004118D01*
X003617Y004118D01*
D19*
X006381Y007760D02*
X006381Y007860D01*
X003975Y007860D01*
X003109Y008579D01*
X003109Y010941D01*
X003936Y011660D01*
X006381Y011660D01*
X006381Y011760D01*
X007011Y011760D01*
X007011Y011138D01*
X006298Y011138D01*
X006298Y008382D01*
X007011Y008382D01*
X007011Y007760D01*
X006381Y007760D01*
X007011Y008382D02*
X007011Y011138D01*
X007011Y012260D02*
X006381Y012260D01*
X006381Y012360D01*
X003975Y012360D01*
X003109Y013079D01*
X003109Y015441D01*
X003936Y016160D01*
X006381Y016160D01*
X006381Y016260D01*
X007011Y016260D01*
X007011Y015638D01*
X006298Y015638D01*
X006298Y012882D01*
X007011Y012882D01*
X007011Y012260D01*
X007011Y012882D02*
X007011Y015638D01*
X007011Y016760D02*
X006381Y016760D01*
X006381Y016860D01*
X003975Y016860D01*
X003109Y017579D01*
X003109Y019941D01*
X003936Y020660D01*
X006381Y020660D01*
X006381Y020760D01*
X007011Y020760D01*
X007011Y020138D01*
X006298Y020138D01*
X006298Y017382D01*
X007011Y017382D01*
X007011Y016760D01*
X007011Y017382D02*
X007011Y020138D01*
X003975Y018996D02*
X003975Y018524D01*
X003739Y018524D01*
X003739Y018996D01*
X003975Y018996D01*
X003739Y018996D02*
X003345Y018996D01*
X003345Y018524D01*
X003739Y018524D01*
X003739Y014496D02*
X003345Y014496D01*
X003345Y014024D01*
X003739Y014024D01*
X003739Y014496D01*
X003975Y014496D01*
X003975Y014024D01*
X003739Y014024D01*
X003739Y009996D02*
X003345Y009996D01*
X003345Y009524D01*
X003739Y009524D01*
X003739Y009996D01*
X003975Y009996D01*
X003975Y009524D01*
X003739Y009524D01*
X026830Y016851D02*
X026830Y017473D01*
X027542Y017473D01*
X027542Y019047D01*
X026830Y019047D01*
X026830Y019669D01*
X027460Y019669D01*
X027460Y019569D01*
X029865Y019569D01*
X030731Y018851D01*
X030731Y017669D01*
X029904Y016951D01*
X027460Y016951D01*
X027460Y016851D01*
X026830Y016851D01*
X026830Y017473D02*
X026830Y019047D01*
X029865Y018496D02*
X029865Y018024D01*
X030101Y018024D01*
X030101Y018496D01*
X030495Y018496D01*
X030495Y018024D01*
X030101Y018024D01*
X030101Y018496D02*
X029865Y018496D01*
X027656Y005473D02*
X027027Y005473D01*
X027027Y004851D01*
X027739Y004851D01*
X027739Y003276D01*
X027027Y003276D01*
X027027Y004851D01*
X027656Y005372D02*
X027656Y005473D01*
X027656Y005372D02*
X030062Y005372D01*
X030928Y004654D01*
X030928Y003473D01*
X030101Y002754D01*
X027656Y002754D01*
X027656Y002654D01*
X027027Y002654D01*
X027027Y003276D01*
X030062Y003827D02*
X030298Y003827D01*
X030298Y004299D01*
X030692Y004299D01*
X030692Y003827D01*
X030298Y003827D01*
X030062Y003827D02*
X030062Y004299D01*
X030298Y004299D01*
D20*
X008920Y020810D03*
D21*
X008920Y021435D03*
X008920Y019085D03*
D22*
X030051Y007169D03*
D23*
X029976Y007094D03*
X029976Y007244D03*
D24*
X030131Y007169D03*
D25*
X028196Y001919D02*
X028196Y001288D01*
X027986Y001288D02*
X028406Y001288D01*
X027986Y001708D02*
X028196Y001919D01*
X027762Y001919D02*
X027762Y001288D01*
X027341Y001919D01*
X027341Y001288D01*
X027117Y001393D02*
X027117Y001813D01*
X027012Y001919D01*
X026802Y001919D01*
X026697Y001813D01*
X026697Y001393D01*
X026802Y001288D01*
X027012Y001288D01*
X027117Y001393D01*
X026473Y001393D02*
X026367Y001288D01*
X026157Y001288D01*
X026052Y001393D01*
X026052Y001813D01*
X026157Y001919D01*
X026367Y001919D01*
X026473Y001813D01*
D26*
X024298Y013654D03*
X022148Y013654D03*
M02*
