G75*
G70*
%OFA0B0*%
%FSLAX24Y24*%
%IPPOS*%
%LPD*%
%AMOC8*
5,1,8,0,0,1.08239X$1,22.5*
%
%ADD10C,0.1340*%
%ADD11R,0.0660X0.0220*%
%ADD12R,0.0860X0.0300*%
%ADD13OC8,0.0600*%
%ADD14R,0.0300X0.0600*%
%ADD15R,0.1261X0.1182*%
%ADD16R,0.0474X0.0513*%
%ADD17R,0.0650X0.0440*%
%ADD18R,0.0552X0.0678*%
%ADD19R,0.0749X0.0336*%
%ADD20R,0.0470X0.0200*%
%ADD21R,0.1891X0.3230*%
%ADD22R,0.0540X0.0220*%
%ADD23R,0.0710X0.0290*%
%ADD24R,0.0980X0.0980*%
%ADD25C,0.0595*%
%ADD26R,0.0395X0.0395*%
%ADD27R,0.0682X0.0682*%
%ADD28C,0.0682*%
%ADD29C,0.1261*%
%ADD30R,0.0356X0.0434*%
%ADD31R,0.0671X0.0592*%
%ADD32R,0.0789X0.0710*%
%ADD33R,0.0592X0.0671*%
%ADD34R,0.0434X0.0356*%
%ADD35R,0.0513X0.0474*%
%ADD36C,0.0740*%
%ADD37C,0.0640*%
%ADD38OC8,0.0640*%
%ADD39R,0.1340X0.0678*%
%ADD40R,0.0476X0.0476*%
%ADD41C,0.0480*%
D10*
X004920Y001760D03*
X029420Y001760D03*
X028920Y022260D03*
X004920Y022260D03*
D11*
X016270Y016420D03*
X016270Y016170D03*
X016270Y015910D03*
X016270Y015660D03*
X016270Y015400D03*
X016270Y015140D03*
X016270Y014890D03*
X016270Y014630D03*
X016270Y014380D03*
X016270Y014120D03*
X016270Y013860D03*
X016270Y013610D03*
X016270Y013350D03*
X016270Y013100D03*
X018570Y013100D03*
X018570Y013350D03*
X018570Y013610D03*
X018570Y013860D03*
X018570Y014120D03*
X018570Y014380D03*
X018570Y014630D03*
X018570Y014890D03*
X018570Y015140D03*
X018570Y015400D03*
X018570Y015660D03*
X018570Y015910D03*
X018570Y016170D03*
X018570Y016420D03*
D12*
X011390Y013010D03*
X011390Y012510D03*
X011390Y012010D03*
X011390Y011510D03*
X011390Y010010D03*
X011390Y009510D03*
X011390Y009010D03*
X011390Y008510D03*
X009450Y008510D03*
X009450Y009010D03*
X009450Y009510D03*
X009450Y010010D03*
X009450Y011510D03*
X009450Y012010D03*
X009450Y012510D03*
X009450Y013010D03*
D13*
X009920Y007760D03*
X010920Y007760D03*
X010920Y004760D03*
X009920Y004760D03*
X021723Y013654D03*
X024723Y013654D03*
D14*
X022790Y019720D03*
X022420Y019720D03*
X022050Y019720D03*
X022050Y020800D03*
X022790Y020800D03*
D15*
X024448Y016760D03*
X020393Y016760D03*
D16*
X017920Y019425D03*
X017920Y020095D03*
X022086Y021760D03*
X022755Y021760D03*
X011420Y021425D03*
X011420Y022095D03*
D17*
X023920Y020580D03*
X023920Y019940D03*
D18*
X010747Y016185D03*
X010786Y014847D03*
X009086Y014847D03*
X009046Y016185D03*
D19*
X021038Y010516D03*
X021038Y010016D03*
X021038Y009516D03*
X021038Y009016D03*
X021038Y008516D03*
X021038Y008016D03*
X021038Y007516D03*
X021038Y007016D03*
X021038Y006516D03*
X021038Y006016D03*
X021038Y005516D03*
X021038Y005016D03*
X021038Y004516D03*
X021038Y004016D03*
X024802Y004016D03*
X024802Y004516D03*
X024802Y005016D03*
X024802Y005516D03*
X024802Y006016D03*
X024802Y006516D03*
X024802Y007016D03*
X024802Y007516D03*
X024802Y008016D03*
X024802Y008516D03*
X024802Y009016D03*
X024802Y009516D03*
X024802Y010016D03*
X024802Y010516D03*
D20*
X017569Y005667D03*
X017569Y005412D03*
X017569Y005156D03*
X017569Y004900D03*
X017569Y004644D03*
X017569Y004388D03*
X017569Y004132D03*
X017569Y003876D03*
X017569Y003620D03*
X017569Y003364D03*
X017569Y003108D03*
X017569Y002853D03*
X015271Y002853D03*
X015271Y003108D03*
X015271Y003364D03*
X015271Y003620D03*
X015271Y003876D03*
X015271Y004132D03*
X015271Y004388D03*
X015271Y004644D03*
X015271Y004900D03*
X015271Y005156D03*
X015271Y005412D03*
X015271Y005667D03*
D21*
X016428Y004268D03*
D22*
X015444Y010236D03*
X015444Y010756D03*
X014624Y010756D03*
X014624Y010496D03*
X014624Y010236D03*
X022040Y012000D03*
X022040Y012260D03*
X022040Y012520D03*
X022800Y012520D03*
X022800Y012000D03*
X024040Y012000D03*
X024040Y012520D03*
X024800Y012520D03*
X024800Y012260D03*
X024800Y012000D03*
D23*
X015561Y020510D03*
X015561Y021010D03*
X015561Y021510D03*
X015561Y022010D03*
X013461Y022010D03*
X013461Y021510D03*
X013461Y021010D03*
X013461Y020510D03*
D24*
X014511Y021260D03*
D25*
X007772Y007248D02*
X007257Y007248D01*
X007221Y006303D02*
X006706Y006303D01*
X004444Y005517D02*
X004444Y005003D01*
X005486Y003469D02*
X006001Y003469D01*
X008775Y003428D02*
X008775Y003943D01*
D26*
X009920Y004075D03*
X009920Y003484D03*
D27*
X006621Y009169D03*
X006621Y013669D03*
X006621Y018169D03*
D28*
X007802Y018169D03*
X007802Y019351D03*
X006621Y019351D03*
X006621Y014851D03*
X007802Y014851D03*
X007802Y013669D03*
X007802Y010351D03*
X006621Y010351D03*
X007802Y009169D03*
X026235Y004063D03*
X027416Y004063D03*
X027219Y018260D03*
X026038Y018260D03*
D29*
X028920Y018260D03*
X029117Y004063D03*
X004920Y009760D03*
X004920Y014260D03*
X004920Y018760D03*
D30*
X012613Y016205D03*
X013125Y016205D03*
X013125Y015614D03*
X012613Y015614D03*
X012613Y015024D03*
X013125Y015024D03*
X014188Y015024D03*
X014700Y015024D03*
X014700Y015614D03*
X014188Y015614D03*
X014188Y016205D03*
X014700Y016205D03*
X025664Y014760D03*
X026176Y014760D03*
X026176Y014260D03*
X025664Y014260D03*
X014176Y006154D03*
X013664Y006154D03*
X012676Y006154D03*
X012164Y006154D03*
X012338Y001244D03*
X011826Y001244D03*
X013204Y001244D03*
X013715Y001244D03*
D31*
X014247Y002839D03*
X014247Y003587D03*
X013460Y010122D03*
X013460Y010870D03*
X020920Y012870D03*
X020920Y013618D03*
D32*
X016609Y011047D03*
X016609Y009945D03*
X010420Y021209D03*
X010420Y022311D03*
D33*
X014212Y019166D03*
X014881Y019166D03*
X013605Y007547D03*
X012857Y007547D03*
X012652Y005378D03*
X011904Y005378D03*
X011904Y004197D03*
X012652Y004197D03*
X012652Y003213D03*
X011904Y003213D03*
X011904Y002032D03*
X012652Y002032D03*
X016086Y006760D03*
X016755Y006760D03*
X018991Y004984D03*
X019739Y004984D03*
X019739Y003803D03*
X018991Y003803D03*
X018991Y002622D03*
X019739Y002622D03*
X019739Y001244D03*
X018991Y001244D03*
D34*
X025897Y006579D03*
X026397Y006579D03*
X026897Y006579D03*
X026897Y007091D03*
X026397Y007091D03*
X025897Y007091D03*
X025897Y008079D03*
X026397Y008079D03*
X026897Y008079D03*
X026897Y008591D03*
X026397Y008591D03*
X025897Y008591D03*
D35*
X016920Y019425D03*
X016920Y020095D03*
X016920Y020925D03*
X016920Y021595D03*
D36*
X008920Y022260D03*
X008920Y018260D03*
D37*
X029511Y007169D03*
D38*
X028511Y007169D03*
X028511Y008169D03*
X029511Y008169D03*
X029511Y009169D03*
X028511Y009169D03*
X028511Y010169D03*
X029511Y010169D03*
X029511Y011169D03*
X028511Y011169D03*
X028511Y012169D03*
X029511Y012169D03*
X029511Y013169D03*
X028511Y013169D03*
X028511Y014169D03*
X029511Y014169D03*
D39*
X020412Y019878D03*
X020412Y022327D03*
D40*
X014641Y013252D03*
X014050Y010103D03*
X015034Y006953D03*
X017987Y009709D03*
D41*
X015428Y009118D03*
X012869Y010103D03*
X012082Y009118D03*
X010704Y009512D03*
X010113Y009709D03*
X010704Y010496D03*
X010113Y010693D03*
X009129Y010890D03*
X010704Y012071D03*
X012278Y012465D03*
X013066Y012465D03*
X014444Y011677D03*
X013656Y015614D03*
X014247Y016795D03*
X015034Y017583D03*
X015231Y016205D03*
X009326Y013449D03*
X008735Y013055D03*
X007357Y009709D03*
X009129Y007937D03*
X013853Y006756D03*
X014641Y005575D03*
X014641Y004197D03*
X014838Y002622D03*
X013263Y001835D03*
X017987Y002425D03*
X018775Y004394D03*
X019365Y005575D03*
X018775Y006166D03*
X018184Y005575D03*
X020349Y004788D03*
X022318Y005575D03*
X022318Y006166D03*
X022908Y006756D03*
X023696Y006953D03*
X024090Y007937D03*
X024090Y008921D03*
X025467Y007543D03*
X026058Y007543D03*
X026649Y007543D03*
X027239Y007543D03*
X027830Y007347D03*
X027239Y006166D03*
X026649Y006166D03*
X026058Y005969D03*
X026649Y004788D03*
X028617Y006166D03*
X027633Y009118D03*
X027042Y009118D03*
X026452Y009118D03*
X025467Y011087D03*
X026255Y011874D03*
X024483Y012858D03*
X023499Y012465D03*
X022515Y011480D03*
X022121Y010103D03*
X020349Y007543D03*
X020349Y006953D03*
X025664Y013646D03*
X026649Y013646D03*
X026649Y014827D03*
X025467Y016008D03*
X012869Y021717D03*
X011885Y022504D03*
M02*
