%
M48
M72
T01C0.0236
T02C0.0240
T03C0.0315
T04C0.0320
T05C0.0360
T06C0.0402
T07C0.0440
T08C0.1181
T09C0.1260
%
T01
X14050Y10023
X17987Y9629
X15034Y6873
X14641Y13172
T02
X13066Y12385
X12278Y12385
X10704Y11991
X9129Y10810
X10113Y10613
X10704Y10416
X10113Y9629
X10704Y9432
X12082Y9038
X12869Y10023
X14444Y11597
X15428Y9038
X13853Y6676
X14641Y5495
X14641Y4117
X14838Y2542
X13263Y1755
X17987Y2345
X18775Y4314
X19365Y5495
X18775Y6086
X18184Y5495
X20349Y4708
X22318Y5495
X22318Y6086
X22908Y6676
X23696Y6873
X24090Y7857
X24090Y8841
X25467Y7463
X26058Y7463
X26649Y7463
X27239Y7463
X27830Y7267
X27239Y6086
X26649Y6086
X26058Y5889
X26649Y4708
X28617Y6086
X27633Y9038
X27042Y9038
X26452Y9038
X25467Y11007
X26255Y11794
X24483Y12778
X23499Y12385
X22515Y11400
X22121Y10023
X20349Y7463
X20349Y6873
X25664Y13566
X26649Y13566
X26649Y14747
X25467Y15928
X15231Y16125
X14247Y16715
X15034Y17503
X13656Y15534
X9326Y13369
X8735Y12975
X7357Y9629
X9129Y7857
X12869Y21637
X11885Y22424
T03
X7515Y7168
X6964Y6223
X4444Y5180
X5743Y3389
X8775Y3605
T04
X9920Y4680
X10920Y4680
X10920Y7680
X9920Y7680
X21723Y13574
X24723Y13574
T05
X28511Y13089
X29511Y13089
X29511Y14089
X28511Y14089
X28511Y12089
X29511Y12089
X29511Y11089
X28511Y11089
X28511Y10089
X29511Y10089
X29511Y9089
X28511Y9089
X28511Y8089
X29511Y8089
X29511Y7089
X28511Y7089
T06
X27416Y3983
X26235Y3983
X7802Y9089
X6621Y9089
X6621Y10271
X7802Y10271
X7802Y13589
X6621Y13589
X6621Y14771
X7802Y14771
X7802Y18089
X6621Y18089
X6621Y19271
X7802Y19271
X26038Y18180
X27219Y18180
T07
X8920Y18180
X8920Y22180
T08
X4920Y18680
X4920Y14180
X4920Y9680
X29117Y3983
X28920Y18180
T09
X4920Y1680
X29420Y1680
X28920Y22180
X4920Y22180
M30
