%
M48
M72
T01C0.0240
T02C0.0315
T03C0.0320
T04C0.0360
T05C0.0402
T06C0.0440
T07C0.1181
T08C0.1260
%
T01
X9429Y7687
X11762Y5620
X10717Y5153
X11543Y4023
X15063Y3286
X15356Y3712
X15263Y4706
X15296Y5995
X16529Y7850
X18579Y6334
X18581Y5403
X23806Y5946
X24668Y6197
X24476Y7647
X21080Y10900
X20205Y11308
X21886Y13041
X20598Y13084
X18434Y14241
X17277Y15799
X14688Y16912
X13307Y16398
X12923Y15723
X14029Y12250
X12129Y9350
X8276Y12500
X21255Y20973
X24939Y14514
T02
X6636Y3575
X3605Y3359
X2305Y5150
X4825Y6193
X5376Y7138
T03
X10029Y13050
X10029Y14450
X13029Y14450
X13029Y13050
X19479Y13850
X22479Y13850
T04
X26479Y13650
X27479Y13650
X27479Y12650
X27479Y11650
X26479Y11650
X26479Y12650
X26479Y14650
X27479Y14650
X27479Y10650
X27479Y9650
X27479Y8650
X26479Y8650
X26479Y9650
X26479Y10650
X26479Y7650
X27479Y7650
T05
X25278Y3900
X24097Y3900
X5610Y9059
X4429Y9059
X4429Y10241
X5610Y10241
X5610Y13559
X4429Y13559
X4429Y14741
X5610Y14741
X5610Y18059
X4429Y18059
X4429Y19241
X5610Y19241
X24347Y19650
X25528Y19650
T06
X6629Y18450
X6629Y22450
T07
X2729Y18650
X2729Y14150
X2729Y9650
X26979Y3900
X27229Y19650
T08
X2438Y1456
X27622Y1356
X27516Y21953
X2435Y22053
M30
