G75*
G70*
%OFA0B0*%
%FSLAX24Y24*%
%IPPOS*%
%LPD*%
%AMOC8*
5,1,8,0,0,1.08239X$1,22.5*
%
%ADD10C,0.0000*%
%ADD11C,0.0060*%
%ADD12C,0.0030*%
%ADD13C,0.0050*%
%ADD14R,0.0200X0.0150*%
%ADD15C,0.0040*%
%ADD16R,0.0945X0.0236*%
%ADD17C,0.0020*%
%ADD18C,0.0080*%
%ADD19C,0.0100*%
%ADD20R,0.1000X0.0200*%
%ADD21R,0.0300X0.0750*%
%ADD22R,0.0100X0.0200*%
%ADD23R,0.0050X0.0150*%
%ADD24R,0.0100X0.0100*%
%ADD25C,0.0070*%
%ADD26R,0.0150X0.0200*%
D10*
X003420Y000180D02*
X003420Y023211D01*
X030586Y023211D01*
X030586Y000180D01*
X003420Y000180D01*
X004290Y001680D02*
X004292Y001730D01*
X004298Y001780D01*
X004308Y001829D01*
X004322Y001877D01*
X004339Y001924D01*
X004360Y001969D01*
X004385Y002013D01*
X004413Y002054D01*
X004445Y002093D01*
X004479Y002130D01*
X004516Y002164D01*
X004556Y002194D01*
X004598Y002221D01*
X004642Y002245D01*
X004688Y002266D01*
X004735Y002282D01*
X004783Y002295D01*
X004833Y002304D01*
X004882Y002309D01*
X004933Y002310D01*
X004983Y002307D01*
X005032Y002300D01*
X005081Y002289D01*
X005129Y002274D01*
X005175Y002256D01*
X005220Y002234D01*
X005263Y002208D01*
X005304Y002179D01*
X005343Y002147D01*
X005379Y002112D01*
X005411Y002074D01*
X005441Y002034D01*
X005468Y001991D01*
X005491Y001947D01*
X005510Y001901D01*
X005526Y001853D01*
X005538Y001804D01*
X005546Y001755D01*
X005550Y001705D01*
X005550Y001655D01*
X005546Y001605D01*
X005538Y001556D01*
X005526Y001507D01*
X005510Y001459D01*
X005491Y001413D01*
X005468Y001369D01*
X005441Y001326D01*
X005411Y001286D01*
X005379Y001248D01*
X005343Y001213D01*
X005304Y001181D01*
X005263Y001152D01*
X005220Y001126D01*
X005175Y001104D01*
X005129Y001086D01*
X005081Y001071D01*
X005032Y001060D01*
X004983Y001053D01*
X004933Y001050D01*
X004882Y001051D01*
X004833Y001056D01*
X004783Y001065D01*
X004735Y001078D01*
X004688Y001094D01*
X004642Y001115D01*
X004598Y001139D01*
X004556Y001166D01*
X004516Y001196D01*
X004479Y001230D01*
X004445Y001267D01*
X004413Y001306D01*
X004385Y001347D01*
X004360Y001391D01*
X004339Y001436D01*
X004322Y001483D01*
X004308Y001531D01*
X004298Y001580D01*
X004292Y001630D01*
X004290Y001680D01*
X004329Y009680D02*
X004331Y009728D01*
X004337Y009776D01*
X004347Y009823D01*
X004360Y009869D01*
X004378Y009914D01*
X004398Y009958D01*
X004423Y010000D01*
X004451Y010039D01*
X004481Y010076D01*
X004515Y010110D01*
X004552Y010142D01*
X004590Y010171D01*
X004631Y010196D01*
X004674Y010218D01*
X004719Y010236D01*
X004765Y010250D01*
X004812Y010261D01*
X004860Y010268D01*
X004908Y010271D01*
X004956Y010270D01*
X005004Y010265D01*
X005052Y010256D01*
X005098Y010244D01*
X005143Y010227D01*
X005187Y010207D01*
X005229Y010184D01*
X005269Y010157D01*
X005307Y010127D01*
X005342Y010094D01*
X005374Y010058D01*
X005404Y010020D01*
X005430Y009979D01*
X005452Y009936D01*
X005472Y009892D01*
X005487Y009847D01*
X005499Y009800D01*
X005507Y009752D01*
X005511Y009704D01*
X005511Y009656D01*
X005507Y009608D01*
X005499Y009560D01*
X005487Y009513D01*
X005472Y009468D01*
X005452Y009424D01*
X005430Y009381D01*
X005404Y009340D01*
X005374Y009302D01*
X005342Y009266D01*
X005307Y009233D01*
X005269Y009203D01*
X005229Y009176D01*
X005187Y009153D01*
X005143Y009133D01*
X005098Y009116D01*
X005052Y009104D01*
X005004Y009095D01*
X004956Y009090D01*
X004908Y009089D01*
X004860Y009092D01*
X004812Y009099D01*
X004765Y009110D01*
X004719Y009124D01*
X004674Y009142D01*
X004631Y009164D01*
X004590Y009189D01*
X004552Y009218D01*
X004515Y009250D01*
X004481Y009284D01*
X004451Y009321D01*
X004423Y009360D01*
X004398Y009402D01*
X004378Y009446D01*
X004360Y009491D01*
X004347Y009537D01*
X004337Y009584D01*
X004331Y009632D01*
X004329Y009680D01*
X004329Y014180D02*
X004331Y014228D01*
X004337Y014276D01*
X004347Y014323D01*
X004360Y014369D01*
X004378Y014414D01*
X004398Y014458D01*
X004423Y014500D01*
X004451Y014539D01*
X004481Y014576D01*
X004515Y014610D01*
X004552Y014642D01*
X004590Y014671D01*
X004631Y014696D01*
X004674Y014718D01*
X004719Y014736D01*
X004765Y014750D01*
X004812Y014761D01*
X004860Y014768D01*
X004908Y014771D01*
X004956Y014770D01*
X005004Y014765D01*
X005052Y014756D01*
X005098Y014744D01*
X005143Y014727D01*
X005187Y014707D01*
X005229Y014684D01*
X005269Y014657D01*
X005307Y014627D01*
X005342Y014594D01*
X005374Y014558D01*
X005404Y014520D01*
X005430Y014479D01*
X005452Y014436D01*
X005472Y014392D01*
X005487Y014347D01*
X005499Y014300D01*
X005507Y014252D01*
X005511Y014204D01*
X005511Y014156D01*
X005507Y014108D01*
X005499Y014060D01*
X005487Y014013D01*
X005472Y013968D01*
X005452Y013924D01*
X005430Y013881D01*
X005404Y013840D01*
X005374Y013802D01*
X005342Y013766D01*
X005307Y013733D01*
X005269Y013703D01*
X005229Y013676D01*
X005187Y013653D01*
X005143Y013633D01*
X005098Y013616D01*
X005052Y013604D01*
X005004Y013595D01*
X004956Y013590D01*
X004908Y013589D01*
X004860Y013592D01*
X004812Y013599D01*
X004765Y013610D01*
X004719Y013624D01*
X004674Y013642D01*
X004631Y013664D01*
X004590Y013689D01*
X004552Y013718D01*
X004515Y013750D01*
X004481Y013784D01*
X004451Y013821D01*
X004423Y013860D01*
X004398Y013902D01*
X004378Y013946D01*
X004360Y013991D01*
X004347Y014037D01*
X004337Y014084D01*
X004331Y014132D01*
X004329Y014180D01*
X004329Y018680D02*
X004331Y018728D01*
X004337Y018776D01*
X004347Y018823D01*
X004360Y018869D01*
X004378Y018914D01*
X004398Y018958D01*
X004423Y019000D01*
X004451Y019039D01*
X004481Y019076D01*
X004515Y019110D01*
X004552Y019142D01*
X004590Y019171D01*
X004631Y019196D01*
X004674Y019218D01*
X004719Y019236D01*
X004765Y019250D01*
X004812Y019261D01*
X004860Y019268D01*
X004908Y019271D01*
X004956Y019270D01*
X005004Y019265D01*
X005052Y019256D01*
X005098Y019244D01*
X005143Y019227D01*
X005187Y019207D01*
X005229Y019184D01*
X005269Y019157D01*
X005307Y019127D01*
X005342Y019094D01*
X005374Y019058D01*
X005404Y019020D01*
X005430Y018979D01*
X005452Y018936D01*
X005472Y018892D01*
X005487Y018847D01*
X005499Y018800D01*
X005507Y018752D01*
X005511Y018704D01*
X005511Y018656D01*
X005507Y018608D01*
X005499Y018560D01*
X005487Y018513D01*
X005472Y018468D01*
X005452Y018424D01*
X005430Y018381D01*
X005404Y018340D01*
X005374Y018302D01*
X005342Y018266D01*
X005307Y018233D01*
X005269Y018203D01*
X005229Y018176D01*
X005187Y018153D01*
X005143Y018133D01*
X005098Y018116D01*
X005052Y018104D01*
X005004Y018095D01*
X004956Y018090D01*
X004908Y018089D01*
X004860Y018092D01*
X004812Y018099D01*
X004765Y018110D01*
X004719Y018124D01*
X004674Y018142D01*
X004631Y018164D01*
X004590Y018189D01*
X004552Y018218D01*
X004515Y018250D01*
X004481Y018284D01*
X004451Y018321D01*
X004423Y018360D01*
X004398Y018402D01*
X004378Y018446D01*
X004360Y018491D01*
X004347Y018537D01*
X004337Y018584D01*
X004331Y018632D01*
X004329Y018680D01*
X004290Y022180D02*
X004292Y022230D01*
X004298Y022280D01*
X004308Y022329D01*
X004322Y022377D01*
X004339Y022424D01*
X004360Y022469D01*
X004385Y022513D01*
X004413Y022554D01*
X004445Y022593D01*
X004479Y022630D01*
X004516Y022664D01*
X004556Y022694D01*
X004598Y022721D01*
X004642Y022745D01*
X004688Y022766D01*
X004735Y022782D01*
X004783Y022795D01*
X004833Y022804D01*
X004882Y022809D01*
X004933Y022810D01*
X004983Y022807D01*
X005032Y022800D01*
X005081Y022789D01*
X005129Y022774D01*
X005175Y022756D01*
X005220Y022734D01*
X005263Y022708D01*
X005304Y022679D01*
X005343Y022647D01*
X005379Y022612D01*
X005411Y022574D01*
X005441Y022534D01*
X005468Y022491D01*
X005491Y022447D01*
X005510Y022401D01*
X005526Y022353D01*
X005538Y022304D01*
X005546Y022255D01*
X005550Y022205D01*
X005550Y022155D01*
X005546Y022105D01*
X005538Y022056D01*
X005526Y022007D01*
X005510Y021959D01*
X005491Y021913D01*
X005468Y021869D01*
X005441Y021826D01*
X005411Y021786D01*
X005379Y021748D01*
X005343Y021713D01*
X005304Y021681D01*
X005263Y021652D01*
X005220Y021626D01*
X005175Y021604D01*
X005129Y021586D01*
X005081Y021571D01*
X005032Y021560D01*
X004983Y021553D01*
X004933Y021550D01*
X004882Y021551D01*
X004833Y021556D01*
X004783Y021565D01*
X004735Y021578D01*
X004688Y021594D01*
X004642Y021615D01*
X004598Y021639D01*
X004556Y021666D01*
X004516Y021696D01*
X004479Y021730D01*
X004445Y021767D01*
X004413Y021806D01*
X004385Y021847D01*
X004360Y021891D01*
X004339Y021936D01*
X004322Y021983D01*
X004308Y022031D01*
X004298Y022080D01*
X004292Y022130D01*
X004290Y022180D01*
X014391Y022140D02*
X014393Y022119D01*
X014398Y022099D01*
X014407Y022080D01*
X014419Y022063D01*
X014434Y022048D01*
X014451Y022036D01*
X014470Y022027D01*
X014490Y022022D01*
X014511Y022020D01*
X014532Y022022D01*
X014552Y022027D01*
X014571Y022036D01*
X014588Y022048D01*
X014603Y022063D01*
X014615Y022080D01*
X014624Y022099D01*
X014629Y022119D01*
X014631Y022140D01*
X028290Y022180D02*
X028292Y022230D01*
X028298Y022280D01*
X028308Y022329D01*
X028322Y022377D01*
X028339Y022424D01*
X028360Y022469D01*
X028385Y022513D01*
X028413Y022554D01*
X028445Y022593D01*
X028479Y022630D01*
X028516Y022664D01*
X028556Y022694D01*
X028598Y022721D01*
X028642Y022745D01*
X028688Y022766D01*
X028735Y022782D01*
X028783Y022795D01*
X028833Y022804D01*
X028882Y022809D01*
X028933Y022810D01*
X028983Y022807D01*
X029032Y022800D01*
X029081Y022789D01*
X029129Y022774D01*
X029175Y022756D01*
X029220Y022734D01*
X029263Y022708D01*
X029304Y022679D01*
X029343Y022647D01*
X029379Y022612D01*
X029411Y022574D01*
X029441Y022534D01*
X029468Y022491D01*
X029491Y022447D01*
X029510Y022401D01*
X029526Y022353D01*
X029538Y022304D01*
X029546Y022255D01*
X029550Y022205D01*
X029550Y022155D01*
X029546Y022105D01*
X029538Y022056D01*
X029526Y022007D01*
X029510Y021959D01*
X029491Y021913D01*
X029468Y021869D01*
X029441Y021826D01*
X029411Y021786D01*
X029379Y021748D01*
X029343Y021713D01*
X029304Y021681D01*
X029263Y021652D01*
X029220Y021626D01*
X029175Y021604D01*
X029129Y021586D01*
X029081Y021571D01*
X029032Y021560D01*
X028983Y021553D01*
X028933Y021550D01*
X028882Y021551D01*
X028833Y021556D01*
X028783Y021565D01*
X028735Y021578D01*
X028688Y021594D01*
X028642Y021615D01*
X028598Y021639D01*
X028556Y021666D01*
X028516Y021696D01*
X028479Y021730D01*
X028445Y021767D01*
X028413Y021806D01*
X028385Y021847D01*
X028360Y021891D01*
X028339Y021936D01*
X028322Y021983D01*
X028308Y022031D01*
X028298Y022080D01*
X028292Y022130D01*
X028290Y022180D01*
X028329Y018180D02*
X028331Y018228D01*
X028337Y018276D01*
X028347Y018323D01*
X028360Y018369D01*
X028378Y018414D01*
X028398Y018458D01*
X028423Y018500D01*
X028451Y018539D01*
X028481Y018576D01*
X028515Y018610D01*
X028552Y018642D01*
X028590Y018671D01*
X028631Y018696D01*
X028674Y018718D01*
X028719Y018736D01*
X028765Y018750D01*
X028812Y018761D01*
X028860Y018768D01*
X028908Y018771D01*
X028956Y018770D01*
X029004Y018765D01*
X029052Y018756D01*
X029098Y018744D01*
X029143Y018727D01*
X029187Y018707D01*
X029229Y018684D01*
X029269Y018657D01*
X029307Y018627D01*
X029342Y018594D01*
X029374Y018558D01*
X029404Y018520D01*
X029430Y018479D01*
X029452Y018436D01*
X029472Y018392D01*
X029487Y018347D01*
X029499Y018300D01*
X029507Y018252D01*
X029511Y018204D01*
X029511Y018156D01*
X029507Y018108D01*
X029499Y018060D01*
X029487Y018013D01*
X029472Y017968D01*
X029452Y017924D01*
X029430Y017881D01*
X029404Y017840D01*
X029374Y017802D01*
X029342Y017766D01*
X029307Y017733D01*
X029269Y017703D01*
X029229Y017676D01*
X029187Y017653D01*
X029143Y017633D01*
X029098Y017616D01*
X029052Y017604D01*
X029004Y017595D01*
X028956Y017590D01*
X028908Y017589D01*
X028860Y017592D01*
X028812Y017599D01*
X028765Y017610D01*
X028719Y017624D01*
X028674Y017642D01*
X028631Y017664D01*
X028590Y017689D01*
X028552Y017718D01*
X028515Y017750D01*
X028481Y017784D01*
X028451Y017821D01*
X028423Y017860D01*
X028398Y017902D01*
X028378Y017946D01*
X028360Y017991D01*
X028347Y018037D01*
X028337Y018084D01*
X028331Y018132D01*
X028329Y018180D01*
X028526Y003983D02*
X028528Y004031D01*
X028534Y004079D01*
X028544Y004126D01*
X028557Y004172D01*
X028575Y004217D01*
X028595Y004261D01*
X028620Y004303D01*
X028648Y004342D01*
X028678Y004379D01*
X028712Y004413D01*
X028749Y004445D01*
X028787Y004474D01*
X028828Y004499D01*
X028871Y004521D01*
X028916Y004539D01*
X028962Y004553D01*
X029009Y004564D01*
X029057Y004571D01*
X029105Y004574D01*
X029153Y004573D01*
X029201Y004568D01*
X029249Y004559D01*
X029295Y004547D01*
X029340Y004530D01*
X029384Y004510D01*
X029426Y004487D01*
X029466Y004460D01*
X029504Y004430D01*
X029539Y004397D01*
X029571Y004361D01*
X029601Y004323D01*
X029627Y004282D01*
X029649Y004239D01*
X029669Y004195D01*
X029684Y004150D01*
X029696Y004103D01*
X029704Y004055D01*
X029708Y004007D01*
X029708Y003959D01*
X029704Y003911D01*
X029696Y003863D01*
X029684Y003816D01*
X029669Y003771D01*
X029649Y003727D01*
X029627Y003684D01*
X029601Y003643D01*
X029571Y003605D01*
X029539Y003569D01*
X029504Y003536D01*
X029466Y003506D01*
X029426Y003479D01*
X029384Y003456D01*
X029340Y003436D01*
X029295Y003419D01*
X029249Y003407D01*
X029201Y003398D01*
X029153Y003393D01*
X029105Y003392D01*
X029057Y003395D01*
X029009Y003402D01*
X028962Y003413D01*
X028916Y003427D01*
X028871Y003445D01*
X028828Y003467D01*
X028787Y003492D01*
X028749Y003521D01*
X028712Y003553D01*
X028678Y003587D01*
X028648Y003624D01*
X028620Y003663D01*
X028595Y003705D01*
X028575Y003749D01*
X028557Y003794D01*
X028544Y003840D01*
X028534Y003887D01*
X028528Y003935D01*
X028526Y003983D01*
X028790Y001680D02*
X028792Y001730D01*
X028798Y001780D01*
X028808Y001829D01*
X028822Y001877D01*
X028839Y001924D01*
X028860Y001969D01*
X028885Y002013D01*
X028913Y002054D01*
X028945Y002093D01*
X028979Y002130D01*
X029016Y002164D01*
X029056Y002194D01*
X029098Y002221D01*
X029142Y002245D01*
X029188Y002266D01*
X029235Y002282D01*
X029283Y002295D01*
X029333Y002304D01*
X029382Y002309D01*
X029433Y002310D01*
X029483Y002307D01*
X029532Y002300D01*
X029581Y002289D01*
X029629Y002274D01*
X029675Y002256D01*
X029720Y002234D01*
X029763Y002208D01*
X029804Y002179D01*
X029843Y002147D01*
X029879Y002112D01*
X029911Y002074D01*
X029941Y002034D01*
X029968Y001991D01*
X029991Y001947D01*
X030010Y001901D01*
X030026Y001853D01*
X030038Y001804D01*
X030046Y001755D01*
X030050Y001705D01*
X030050Y001655D01*
X030046Y001605D01*
X030038Y001556D01*
X030026Y001507D01*
X030010Y001459D01*
X029991Y001413D01*
X029968Y001369D01*
X029941Y001326D01*
X029911Y001286D01*
X029879Y001248D01*
X029843Y001213D01*
X029804Y001181D01*
X029763Y001152D01*
X029720Y001126D01*
X029675Y001104D01*
X029629Y001086D01*
X029581Y001071D01*
X029532Y001060D01*
X029483Y001053D01*
X029433Y001050D01*
X029382Y001051D01*
X029333Y001056D01*
X029283Y001065D01*
X029235Y001078D01*
X029188Y001094D01*
X029142Y001115D01*
X029098Y001139D01*
X029056Y001166D01*
X029016Y001196D01*
X028979Y001230D01*
X028945Y001267D01*
X028913Y001306D01*
X028885Y001347D01*
X028860Y001391D01*
X028839Y001436D01*
X028822Y001483D01*
X028808Y001531D01*
X028798Y001580D01*
X028792Y001630D01*
X028790Y001680D01*
D11*
X024382Y003706D02*
X024382Y010656D01*
X021458Y010656D01*
X021458Y003706D01*
X024382Y003706D01*
X027631Y005589D02*
X027631Y005939D01*
X028161Y005939D01*
X028161Y005589D01*
X028761Y005589D01*
X029261Y005589D01*
X029861Y005589D01*
X030381Y005589D01*
X030381Y005939D01*
X030381Y006589D01*
X030381Y014589D01*
X030381Y015239D01*
X030381Y015579D01*
X029861Y015579D01*
X029261Y015579D01*
X028761Y015579D01*
X028161Y015579D01*
X027631Y015579D01*
X027631Y015239D01*
X027631Y014589D01*
X027631Y006589D01*
X027631Y005939D01*
X027631Y005589D02*
X028161Y005589D01*
X028761Y005589D02*
X028761Y005939D01*
X029261Y005939D01*
X029261Y005589D01*
X029861Y005589D02*
X029861Y005939D01*
X030381Y005939D01*
X029731Y006169D02*
X029731Y006530D01*
X029731Y006350D02*
X029190Y006350D01*
X029370Y006169D01*
X029931Y006919D02*
X030261Y007089D01*
X030161Y007089D01*
X030261Y007089D02*
X029931Y007259D01*
X029931Y006919D01*
X030381Y006589D02*
X030651Y006589D01*
X030651Y014589D01*
X030381Y014589D01*
X030381Y015239D02*
X029861Y015239D01*
X029861Y015579D01*
X029261Y015579D02*
X029261Y015239D01*
X028761Y015239D01*
X028761Y015579D01*
X028161Y015579D02*
X028161Y015239D01*
X027631Y015239D01*
X027631Y014589D02*
X025261Y014589D01*
X026011Y013089D01*
X025261Y011089D01*
X025561Y009589D01*
X025261Y006589D01*
X027631Y006589D01*
X021470Y010286D02*
X021472Y010315D01*
X021478Y010343D01*
X021487Y010370D01*
X021501Y010395D01*
X021517Y010419D01*
X021537Y010439D01*
X021559Y010458D01*
X021583Y010472D01*
X021610Y010484D01*
X021637Y010492D01*
X021666Y010496D01*
X021694Y010496D01*
X021723Y010492D01*
X021750Y010484D01*
X021777Y010472D01*
X021801Y010458D01*
X021823Y010439D01*
X021843Y010419D01*
X021859Y010395D01*
X021873Y010370D01*
X021882Y010343D01*
X021888Y010315D01*
X021890Y010286D01*
X021888Y010257D01*
X021882Y010229D01*
X021873Y010202D01*
X021859Y010177D01*
X021843Y010153D01*
X021823Y010133D01*
X021801Y010114D01*
X021777Y010100D01*
X021750Y010088D01*
X021723Y010080D01*
X021694Y010076D01*
X021666Y010076D01*
X021637Y010080D01*
X021610Y010088D01*
X021583Y010100D01*
X021559Y010114D01*
X021537Y010133D01*
X021517Y010153D01*
X021501Y010177D01*
X021487Y010202D01*
X021478Y010229D01*
X021472Y010257D01*
X021470Y010286D01*
X022330Y011740D02*
X022510Y011740D01*
X022690Y012120D02*
X022690Y012240D01*
X022510Y012620D02*
X022330Y012620D01*
X022323Y013174D02*
X022473Y013174D01*
X022523Y013224D01*
X023923Y013224D01*
X023973Y013174D01*
X024123Y013174D01*
X024140Y013176D01*
X024157Y013180D01*
X024173Y013187D01*
X024187Y013197D01*
X024200Y013210D01*
X024210Y013224D01*
X024217Y013240D01*
X024221Y013257D01*
X024223Y013274D01*
X024223Y013874D01*
X024221Y013891D01*
X024217Y013908D01*
X024210Y013924D01*
X024200Y013938D01*
X024187Y013951D01*
X024173Y013961D01*
X024157Y013968D01*
X024140Y013972D01*
X024123Y013974D01*
X023973Y013974D01*
X023923Y013924D01*
X022523Y013924D01*
X022473Y013974D01*
X022323Y013974D01*
X022306Y013972D01*
X022289Y013968D01*
X022273Y013961D01*
X022259Y013951D01*
X022246Y013938D01*
X022236Y013924D01*
X022229Y013908D01*
X022225Y013891D01*
X022223Y013874D01*
X022223Y013274D01*
X022225Y013257D01*
X022229Y013240D01*
X022236Y013224D01*
X022246Y013210D01*
X022259Y013197D01*
X022273Y013187D01*
X022289Y013180D01*
X022306Y013176D01*
X022323Y013174D01*
X024150Y012240D02*
X024150Y012120D01*
X024330Y011740D02*
X024510Y011740D01*
X024510Y012620D02*
X024330Y012620D01*
X019380Y014280D02*
X018980Y014280D01*
X018310Y012820D02*
X018310Y012750D01*
X016530Y012750D01*
X016530Y012820D01*
X015860Y014030D02*
X015460Y014030D01*
X016530Y016540D02*
X016530Y016610D01*
X017300Y016610D01*
X017540Y016610D01*
X018310Y016610D01*
X018310Y016540D01*
X017540Y016610D02*
X017538Y016589D01*
X017533Y016569D01*
X017524Y016550D01*
X017512Y016533D01*
X017497Y016518D01*
X017480Y016506D01*
X017461Y016497D01*
X017441Y016492D01*
X017420Y016490D01*
X017399Y016492D01*
X017379Y016497D01*
X017360Y016506D01*
X017343Y016518D01*
X017328Y016533D01*
X017316Y016550D01*
X017307Y016569D01*
X017302Y016589D01*
X017300Y016610D01*
X015171Y020220D02*
X013851Y020220D01*
X013851Y022140D02*
X014391Y022140D01*
X014631Y022140D01*
X015171Y022140D01*
X009420Y020980D02*
X009420Y019380D01*
X008420Y019380D01*
X008420Y020980D01*
X009420Y020980D01*
X008920Y020430D02*
X008920Y020180D01*
X008670Y020180D01*
X008920Y020180D02*
X009170Y020180D01*
X008920Y020180D02*
X009170Y019780D01*
X008670Y019780D01*
X008920Y020180D01*
X008920Y019580D01*
X009880Y013160D02*
X010300Y013160D01*
X010540Y013160D01*
X010960Y013160D01*
X010540Y013160D02*
X010538Y013139D01*
X010533Y013119D01*
X010524Y013100D01*
X010512Y013083D01*
X010497Y013068D01*
X010480Y013056D01*
X010461Y013047D01*
X010441Y013042D01*
X010420Y013040D01*
X010399Y013042D01*
X010379Y013047D01*
X010360Y013056D01*
X010343Y013068D01*
X010328Y013083D01*
X010316Y013100D01*
X010307Y013119D01*
X010302Y013139D01*
X010300Y013160D01*
X009880Y011200D02*
X010960Y011200D01*
X010960Y010160D02*
X010540Y010160D01*
X010300Y010160D01*
X009880Y010160D01*
X010300Y010160D02*
X010302Y010139D01*
X010307Y010119D01*
X010316Y010100D01*
X010328Y010083D01*
X010343Y010068D01*
X010360Y010056D01*
X010379Y010047D01*
X010399Y010042D01*
X010420Y010040D01*
X010441Y010042D01*
X010461Y010047D01*
X010480Y010056D01*
X010497Y010068D01*
X010512Y010083D01*
X010524Y010100D01*
X010533Y010119D01*
X010538Y010139D01*
X010540Y010160D01*
X010960Y008200D02*
X009880Y008200D01*
X009620Y007180D02*
X010220Y007180D01*
X010237Y007178D01*
X010254Y007174D01*
X010270Y007167D01*
X010284Y007157D01*
X010297Y007144D01*
X010307Y007130D01*
X010314Y007114D01*
X010318Y007097D01*
X010320Y007080D01*
X010320Y006930D01*
X010270Y006880D01*
X010270Y005480D01*
X010320Y005430D01*
X010320Y005280D01*
X010318Y005263D01*
X010314Y005246D01*
X010307Y005230D01*
X010297Y005216D01*
X010284Y005203D01*
X010270Y005193D01*
X010254Y005186D01*
X010237Y005182D01*
X010220Y005180D01*
X009620Y005180D01*
X009603Y005182D01*
X009586Y005186D01*
X009570Y005193D01*
X009556Y005203D01*
X009543Y005216D01*
X009533Y005230D01*
X009526Y005246D01*
X009522Y005263D01*
X009520Y005280D01*
X009520Y005430D01*
X009570Y005480D01*
X009570Y006880D01*
X009520Y006930D01*
X009520Y007080D01*
X009522Y007097D01*
X009526Y007114D01*
X009533Y007130D01*
X009543Y007144D01*
X009556Y007157D01*
X009570Y007167D01*
X009586Y007174D01*
X009603Y007178D01*
X009620Y007180D01*
X010520Y007080D02*
X010520Y006930D01*
X010570Y006880D01*
X010570Y005480D01*
X010520Y005430D01*
X010520Y005280D01*
X010522Y005263D01*
X010526Y005246D01*
X010533Y005230D01*
X010543Y005216D01*
X010556Y005203D01*
X010570Y005193D01*
X010586Y005186D01*
X010603Y005182D01*
X010620Y005180D01*
X011220Y005180D01*
X011237Y005182D01*
X011254Y005186D01*
X011270Y005193D01*
X011284Y005203D01*
X011297Y005216D01*
X011307Y005230D01*
X011314Y005246D01*
X011318Y005263D01*
X011320Y005280D01*
X011320Y005430D01*
X011270Y005480D01*
X011270Y006880D01*
X011320Y006930D01*
X011320Y007080D01*
X011318Y007097D01*
X011314Y007114D01*
X011307Y007130D01*
X011297Y007144D01*
X011284Y007157D01*
X011270Y007167D01*
X011254Y007174D01*
X011237Y007178D01*
X011220Y007180D01*
X010620Y007180D01*
X010603Y007178D01*
X010586Y007174D01*
X010570Y007167D01*
X010556Y007157D01*
X010543Y007144D01*
X010533Y007130D01*
X010526Y007114D01*
X010522Y007097D01*
X010520Y007080D01*
X014944Y009996D02*
X015124Y009996D01*
X015314Y010356D02*
X015314Y010476D01*
X015124Y010836D02*
X014944Y010836D01*
X014984Y010726D02*
X015003Y010719D01*
X015024Y010715D01*
X015044Y010715D01*
X015065Y010719D01*
X015084Y010726D01*
X015521Y005682D02*
X017319Y005682D01*
X017319Y002678D01*
X015521Y002678D01*
X015521Y005682D01*
X015760Y005332D02*
X015762Y005358D01*
X015768Y005384D01*
X015777Y005408D01*
X015790Y005431D01*
X015806Y005452D01*
X015825Y005470D01*
X015846Y005486D01*
X015870Y005498D01*
X015894Y005506D01*
X015920Y005511D01*
X015947Y005512D01*
X015973Y005509D01*
X015998Y005502D01*
X016022Y005492D01*
X016045Y005478D01*
X016065Y005462D01*
X016082Y005442D01*
X016097Y005420D01*
X016108Y005396D01*
X016116Y005371D01*
X016120Y005345D01*
X016120Y005319D01*
X016116Y005293D01*
X016108Y005268D01*
X016097Y005244D01*
X016082Y005222D01*
X016065Y005202D01*
X016045Y005186D01*
X016022Y005172D01*
X015998Y005162D01*
X015973Y005155D01*
X015947Y005152D01*
X015920Y005153D01*
X015894Y005158D01*
X015870Y005166D01*
X015846Y005178D01*
X015825Y005194D01*
X015806Y005212D01*
X015790Y005233D01*
X015777Y005256D01*
X015768Y005280D01*
X015762Y005306D01*
X015760Y005332D01*
X021810Y019930D02*
X021810Y020060D01*
X021810Y020300D01*
X021810Y020430D01*
X021810Y020300D02*
X021831Y020298D01*
X021851Y020293D01*
X021870Y020284D01*
X021887Y020272D01*
X021902Y020257D01*
X021914Y020240D01*
X021923Y020221D01*
X021928Y020201D01*
X021930Y020180D01*
X021928Y020159D01*
X021923Y020139D01*
X021914Y020120D01*
X021902Y020103D01*
X021887Y020088D01*
X021870Y020076D01*
X021851Y020067D01*
X021831Y020062D01*
X021810Y020060D01*
X022290Y020530D02*
X022550Y020530D01*
X023030Y020430D02*
X023030Y019930D01*
D12*
X021787Y019639D02*
X021473Y019325D01*
X021473Y019482D02*
X021787Y019482D01*
X021787Y019325D02*
X021473Y019639D01*
X021630Y019639D02*
X021630Y019325D01*
X016269Y016837D02*
X015955Y016523D01*
X016112Y016523D02*
X016112Y016837D01*
X015955Y016837D02*
X016269Y016523D01*
X016269Y016680D02*
X015955Y016680D01*
X021725Y012927D02*
X022039Y012613D01*
X021882Y012613D02*
X021882Y012927D01*
X022039Y012927D02*
X021725Y012613D01*
X021725Y012770D02*
X022039Y012770D01*
X024802Y011747D02*
X025115Y011433D01*
X024958Y011433D02*
X024958Y011747D01*
X025115Y011747D02*
X024802Y011433D01*
X024802Y011590D02*
X025115Y011590D01*
X014623Y011163D02*
X014309Y010850D01*
X014309Y011006D02*
X014623Y011006D01*
X014623Y010850D02*
X014309Y011163D01*
X014466Y011163D02*
X014466Y010850D01*
X009449Y010507D02*
X009135Y010193D01*
X009292Y010193D02*
X009292Y010507D01*
X009135Y010507D02*
X009449Y010193D01*
X009449Y010350D02*
X009135Y010350D01*
X009135Y013193D02*
X009449Y013507D01*
X009449Y013350D02*
X009135Y013350D01*
X009135Y013507D02*
X009449Y013193D01*
X009292Y013193D02*
X009292Y013507D01*
X013156Y022183D02*
X013469Y022497D01*
X013313Y022497D02*
X013313Y022183D01*
X013469Y022183D02*
X013156Y022497D01*
X013156Y022340D02*
X013469Y022340D01*
D13*
X013730Y022323D02*
X013805Y022248D01*
X013955Y022248D01*
X014030Y022323D01*
X014030Y022699D01*
X014190Y022548D02*
X014341Y022699D01*
X014341Y022248D01*
X014491Y022248D02*
X014190Y022248D01*
X013730Y022323D02*
X013730Y022699D01*
X008406Y021316D02*
X008106Y021316D01*
X008256Y021316D02*
X008256Y021766D01*
X008106Y021616D01*
X007945Y021691D02*
X007945Y021391D01*
X007870Y021316D01*
X007645Y021316D01*
X007645Y021766D01*
X007870Y021766D01*
X007945Y021691D01*
X009086Y016621D02*
X009412Y016621D01*
X009412Y015637D01*
X009448Y015637D01*
X009448Y016597D01*
X009412Y016621D02*
X010719Y016621D01*
X010719Y015637D01*
X009448Y015637D01*
X009412Y015637D02*
X009086Y015637D01*
X009086Y016621D01*
X009113Y015235D02*
X010385Y015235D01*
X010385Y014274D01*
X010420Y014251D02*
X010420Y015235D01*
X010385Y015235D01*
X010420Y015235D02*
X010747Y015235D01*
X010747Y014251D01*
X010420Y014251D01*
X009113Y014251D01*
X009113Y015235D01*
X009873Y013815D02*
X009873Y013440D01*
X009948Y013364D01*
X010098Y013364D01*
X010173Y013440D01*
X010173Y013815D01*
X010333Y013740D02*
X010408Y013815D01*
X010558Y013815D01*
X010633Y013740D01*
X010633Y013665D01*
X010333Y013364D01*
X010633Y013364D01*
X010361Y010815D02*
X010211Y010815D01*
X010136Y010740D01*
X009976Y010815D02*
X009976Y010440D01*
X009901Y010364D01*
X009751Y010364D01*
X009676Y010440D01*
X009676Y010815D01*
X010136Y010440D02*
X010211Y010364D01*
X010361Y010364D01*
X010436Y010440D01*
X010436Y010515D01*
X010361Y010590D01*
X010286Y010590D01*
X010361Y010590D02*
X010436Y010665D01*
X010436Y010740D01*
X010361Y010815D01*
X014880Y011123D02*
X014956Y011048D01*
X015106Y011048D01*
X015181Y011123D01*
X015181Y011498D01*
X015341Y011498D02*
X015341Y011273D01*
X015491Y011348D01*
X015566Y011348D01*
X015641Y011273D01*
X015641Y011123D01*
X015566Y011048D01*
X015416Y011048D01*
X015341Y011123D01*
X015341Y011498D02*
X015641Y011498D01*
X014880Y011498D02*
X014880Y011123D01*
X019920Y015696D02*
X021554Y014948D01*
X021593Y014928D02*
X021661Y014889D01*
X021730Y014854D01*
X021801Y014822D01*
X021873Y014794D01*
X021946Y014769D01*
X022021Y014748D01*
X022096Y014731D01*
X022172Y014717D01*
X022249Y014706D01*
X022327Y014700D01*
X022404Y014697D01*
X022481Y014698D01*
X022559Y014703D01*
X022636Y014711D01*
X022713Y014723D01*
X022788Y014739D01*
X022863Y014758D01*
X022938Y014781D01*
X023010Y014807D01*
X023082Y014837D01*
X023152Y014871D01*
X023220Y014907D01*
X023287Y014947D01*
X023286Y014948D02*
X024920Y015696D01*
X024920Y017684D02*
X023286Y018412D01*
X022846Y018894D02*
X022771Y018819D01*
X022621Y018819D01*
X022546Y018894D01*
X022546Y019044D01*
X022771Y019044D01*
X022846Y018969D01*
X022846Y018894D01*
X022696Y019194D02*
X022546Y019044D01*
X022696Y019194D02*
X022846Y019270D01*
X022385Y019270D02*
X022385Y018894D01*
X022310Y018819D01*
X022160Y018819D01*
X022085Y018894D01*
X022085Y019270D01*
X021491Y019708D02*
X019290Y019708D01*
X019290Y021861D01*
X021487Y021861D01*
X021491Y022306D02*
X019290Y022306D01*
X019290Y021861D01*
X021491Y022306D02*
X021491Y019708D01*
X021554Y018412D02*
X019920Y017645D01*
X017436Y017180D02*
X017136Y017180D01*
X017361Y017405D01*
X017361Y016955D01*
X016976Y017030D02*
X016976Y017405D01*
X016676Y017405D02*
X016676Y017030D01*
X016751Y016955D01*
X016901Y016955D01*
X016976Y017030D01*
X021554Y018413D02*
X021614Y018455D01*
X021677Y018495D01*
X021742Y018532D01*
X021808Y018565D01*
X021877Y018594D01*
X021946Y018620D01*
X022017Y018643D01*
X022089Y018662D01*
X022161Y018677D01*
X022235Y018688D01*
X022309Y018696D01*
X022383Y018700D01*
X022457Y018700D01*
X022531Y018696D01*
X022605Y018688D01*
X022679Y018677D01*
X022751Y018662D01*
X022823Y018643D01*
X022894Y018620D01*
X022963Y018594D01*
X023032Y018565D01*
X023098Y018532D01*
X023163Y018495D01*
X023226Y018455D01*
X023286Y018413D01*
X024326Y020022D02*
X024476Y020022D01*
X024551Y020097D01*
X024711Y020022D02*
X025011Y020022D01*
X024861Y020022D02*
X024861Y020472D01*
X024711Y020322D01*
X024551Y020397D02*
X024476Y020472D01*
X024326Y020472D01*
X024251Y020397D01*
X024251Y020097D01*
X024326Y020022D01*
X025171Y020097D02*
X025246Y020022D01*
X025397Y020022D01*
X025472Y020097D01*
X025472Y020172D01*
X025397Y020247D01*
X025321Y020247D01*
X025397Y020247D02*
X025472Y020322D01*
X025472Y020397D01*
X025397Y020472D01*
X025246Y020472D01*
X025171Y020397D01*
X025086Y013081D02*
X025086Y012705D01*
X025011Y012630D01*
X024861Y012630D01*
X024786Y012705D01*
X024786Y013081D01*
X025246Y013006D02*
X025246Y012930D01*
X025321Y012855D01*
X025472Y012855D01*
X025547Y012780D01*
X025547Y012705D01*
X025472Y012630D01*
X025321Y012630D01*
X025246Y012705D01*
X025246Y012780D01*
X025321Y012855D01*
X025472Y012855D02*
X025547Y012930D01*
X025547Y013006D01*
X025472Y013081D01*
X025321Y013081D01*
X025246Y013006D01*
X023618Y012990D02*
X023317Y012690D01*
X023317Y012614D01*
X023157Y012690D02*
X023157Y013065D01*
X023317Y013065D02*
X023618Y013065D01*
X023618Y012990D01*
X023157Y012690D02*
X023082Y012614D01*
X022932Y012614D01*
X022857Y012690D01*
X022857Y013065D01*
X022263Y011261D02*
X022263Y010811D01*
X022113Y010811D02*
X022413Y010811D01*
X022113Y011111D02*
X022263Y011261D01*
X021952Y011186D02*
X021877Y011261D01*
X021727Y011261D01*
X021652Y011186D01*
X021652Y010886D01*
X021727Y010811D01*
X021877Y010811D01*
X021952Y010886D01*
X021495Y010811D02*
X021345Y010811D01*
X021420Y010811D02*
X021420Y011261D01*
X021345Y011261D02*
X021495Y011261D01*
X026935Y011315D02*
X026935Y011540D01*
X027010Y011615D01*
X027161Y011615D01*
X027236Y011540D01*
X027236Y011315D01*
X027386Y011315D02*
X026935Y011315D01*
X026935Y011155D02*
X027010Y011005D01*
X027161Y010855D01*
X027161Y011080D01*
X027236Y011155D01*
X027311Y011155D01*
X027386Y011080D01*
X027386Y010930D01*
X027311Y010855D01*
X027161Y010855D01*
X027386Y010694D02*
X027386Y010394D01*
X027386Y010544D02*
X026935Y010544D01*
X027086Y010394D01*
X027161Y009774D02*
X027236Y009774D01*
X027236Y009473D01*
X027311Y009473D02*
X027161Y009473D01*
X027086Y009548D01*
X027086Y009699D01*
X027161Y009774D01*
X027386Y009699D02*
X027386Y009548D01*
X027311Y009473D01*
X027386Y009317D02*
X027386Y009166D01*
X027386Y009241D02*
X026935Y009241D01*
X026935Y009166D01*
X027161Y009006D02*
X027086Y008931D01*
X027086Y008706D01*
X026935Y008706D02*
X027386Y008706D01*
X027386Y008931D01*
X027311Y009006D01*
X027161Y009006D01*
X027161Y008546D02*
X027386Y008546D01*
X027386Y008321D01*
X027311Y008246D01*
X027236Y008321D01*
X027236Y008546D01*
X027161Y008546D02*
X027086Y008471D01*
X027086Y008321D01*
X027010Y008085D02*
X026935Y008010D01*
X026935Y007860D01*
X027010Y007785D01*
X027311Y007785D01*
X027386Y007860D01*
X027386Y008010D01*
X027311Y008085D01*
X027161Y007625D02*
X027161Y007325D01*
X027161Y007165D02*
X027010Y007165D01*
X026935Y007090D01*
X026935Y006864D01*
X027386Y006864D01*
X027236Y006864D02*
X027236Y007090D01*
X027161Y007165D01*
X027236Y007015D02*
X027386Y007165D01*
X010156Y003995D02*
X010156Y003365D01*
X009684Y003365D01*
X009684Y003995D01*
X010156Y003995D01*
D14*
X009920Y005105D03*
X010920Y005105D03*
X010920Y007255D03*
X009920Y007255D03*
D15*
X009280Y007769D02*
X009280Y008119D01*
X009105Y007944D01*
X009338Y007944D01*
X008979Y007944D02*
X008921Y007885D01*
X008746Y007885D01*
X008862Y007885D02*
X008979Y007769D01*
X008979Y007944D02*
X008979Y008060D01*
X008921Y008119D01*
X008746Y008119D01*
X008746Y007769D01*
X011305Y007784D02*
X011305Y008135D01*
X011480Y008135D01*
X011538Y008076D01*
X011538Y007959D01*
X011480Y007901D01*
X011305Y007901D01*
X011421Y007901D02*
X011538Y007784D01*
X011664Y007843D02*
X011722Y007784D01*
X011839Y007784D01*
X011897Y007843D01*
X011897Y007901D01*
X011839Y007959D01*
X011781Y007959D01*
X011839Y007959D02*
X011897Y008018D01*
X011897Y008076D01*
X011839Y008135D01*
X011722Y008135D01*
X011664Y008076D01*
X012751Y008064D02*
X012828Y007987D01*
X012981Y007987D01*
X013058Y008064D01*
X013212Y008064D02*
X013288Y007987D01*
X013442Y007987D01*
X013519Y008064D01*
X013519Y008141D01*
X013442Y008218D01*
X013212Y008218D01*
X013212Y008064D01*
X013212Y008218D02*
X013365Y008371D01*
X013519Y008448D01*
X013058Y008371D02*
X012981Y008448D01*
X012828Y008448D01*
X012751Y008371D01*
X012751Y008064D01*
X015756Y007658D02*
X015756Y007352D01*
X015833Y007275D01*
X015986Y007275D01*
X016063Y007352D01*
X016216Y007275D02*
X016523Y007275D01*
X016370Y007275D02*
X016370Y007735D01*
X016216Y007582D01*
X016063Y007658D02*
X015986Y007735D01*
X015833Y007735D01*
X015756Y007658D01*
X016677Y007735D02*
X016677Y007505D01*
X016830Y007582D01*
X016907Y007582D01*
X016984Y007505D01*
X016984Y007352D01*
X016907Y007275D01*
X016753Y007275D01*
X016677Y007352D01*
X016677Y007735D02*
X016984Y007735D01*
X018384Y005960D02*
X018307Y005883D01*
X018307Y005576D01*
X018384Y005499D01*
X018537Y005499D01*
X018614Y005576D01*
X018767Y005499D02*
X019074Y005499D01*
X018921Y005499D02*
X018921Y005960D01*
X018767Y005806D01*
X018614Y005883D02*
X018537Y005960D01*
X018384Y005960D01*
X019228Y005883D02*
X019228Y005806D01*
X019305Y005729D01*
X019458Y005729D01*
X019535Y005653D01*
X019535Y005576D01*
X019458Y005499D01*
X019305Y005499D01*
X019228Y005576D01*
X019228Y005653D01*
X019305Y005729D01*
X019458Y005729D02*
X019535Y005806D01*
X019535Y005883D01*
X019458Y005960D01*
X019305Y005960D01*
X019228Y005883D01*
X020340Y003719D02*
X020263Y003643D01*
X020263Y003336D01*
X020340Y003259D01*
X020493Y003259D01*
X020570Y003336D01*
X020723Y003259D02*
X021030Y003259D01*
X020877Y003259D02*
X020877Y003719D01*
X020723Y003566D01*
X020570Y003643D02*
X020493Y003719D01*
X020340Y003719D01*
X020340Y002932D02*
X020263Y002855D01*
X020263Y002548D01*
X020340Y002472D01*
X020493Y002472D01*
X020570Y002548D01*
X020723Y002472D02*
X021030Y002472D01*
X020877Y002472D02*
X020877Y002932D01*
X020723Y002779D01*
X020570Y002855D02*
X020493Y002932D01*
X020340Y002932D01*
X021184Y002702D02*
X021184Y002548D01*
X021261Y002472D01*
X021414Y002472D01*
X021491Y002548D01*
X021491Y002625D01*
X021414Y002702D01*
X021184Y002702D01*
X021337Y002855D01*
X021491Y002932D01*
X021184Y003259D02*
X021184Y003336D01*
X021491Y003643D01*
X021491Y003719D01*
X021184Y003719D01*
X021414Y001554D02*
X021184Y001324D01*
X021491Y001324D01*
X021414Y001094D02*
X021414Y001554D01*
X020877Y001554D02*
X020877Y001094D01*
X021030Y001094D02*
X020723Y001094D01*
X020570Y001170D02*
X020493Y001094D01*
X020340Y001094D01*
X020263Y001170D01*
X020263Y001477D01*
X020340Y001554D01*
X020493Y001554D01*
X020570Y001477D01*
X020723Y001401D02*
X020877Y001554D01*
X016597Y002112D02*
X016357Y002112D01*
X016477Y002112D02*
X016477Y002472D01*
X016357Y002352D01*
X016229Y002412D02*
X016169Y002472D01*
X016049Y002472D01*
X015989Y002412D01*
X015989Y002352D01*
X016049Y002292D01*
X016169Y002292D01*
X016229Y002232D01*
X016229Y002172D01*
X016169Y002112D01*
X016049Y002112D01*
X015989Y002172D01*
X015860Y002172D02*
X015860Y002472D01*
X015620Y002472D02*
X015620Y002172D01*
X015680Y002112D01*
X015800Y002112D01*
X015860Y002172D01*
X016109Y002052D02*
X016109Y002532D01*
X014614Y001759D02*
X014307Y001759D01*
X014460Y001759D02*
X014460Y002219D01*
X014307Y002066D01*
X014153Y001759D02*
X013846Y001759D01*
X014000Y001759D02*
X014000Y002219D01*
X013846Y002066D01*
X013693Y002143D02*
X013616Y002219D01*
X013463Y002219D01*
X013386Y002143D01*
X013386Y001836D01*
X013463Y001759D01*
X013616Y001759D01*
X013693Y001836D01*
X011451Y002548D02*
X011375Y002472D01*
X011221Y002472D01*
X011144Y002548D01*
X011451Y002855D01*
X011451Y002548D01*
X011144Y002548D02*
X011144Y002855D01*
X011221Y002932D01*
X011375Y002932D01*
X011451Y002855D01*
X010991Y002472D02*
X010684Y002472D01*
X010838Y002472D02*
X010838Y002932D01*
X010684Y002779D01*
X010531Y002855D02*
X010454Y002932D01*
X010300Y002932D01*
X010224Y002855D01*
X010224Y002548D01*
X010300Y002472D01*
X010454Y002472D01*
X010531Y002548D01*
X009973Y002688D02*
X009973Y003149D01*
X009743Y002918D01*
X010050Y002918D01*
X009590Y002765D02*
X009590Y003072D01*
X009513Y003149D01*
X009283Y003149D01*
X009283Y002688D01*
X009513Y002688D01*
X009590Y002765D01*
X010116Y002023D02*
X010039Y001946D01*
X010039Y001639D01*
X010116Y001562D01*
X010270Y001562D01*
X010346Y001639D01*
X010500Y001562D02*
X010807Y001562D01*
X010960Y001562D02*
X011267Y001869D01*
X011267Y001946D01*
X011190Y002023D01*
X011037Y002023D01*
X010960Y001946D01*
X010653Y002023D02*
X010653Y001562D01*
X010960Y001562D02*
X011267Y001562D01*
X010653Y002023D02*
X010500Y001869D01*
X010346Y001946D02*
X010270Y002023D01*
X010116Y002023D01*
X010497Y003653D02*
X010651Y003653D01*
X010727Y003729D01*
X010881Y003729D02*
X010958Y003653D01*
X011111Y003653D01*
X011188Y003729D01*
X011188Y004036D01*
X011111Y004113D01*
X010958Y004113D01*
X010881Y004036D01*
X010881Y003960D01*
X010958Y003883D01*
X011188Y003883D01*
X010727Y004036D02*
X010651Y004113D01*
X010497Y004113D01*
X010421Y004036D01*
X010421Y003729D01*
X010497Y003653D01*
X013176Y005107D02*
X013253Y005031D01*
X013407Y005031D01*
X013483Y005107D01*
X013637Y005107D02*
X013637Y005184D01*
X013714Y005261D01*
X013867Y005261D01*
X013944Y005184D01*
X013944Y005107D01*
X013867Y005031D01*
X013714Y005031D01*
X013637Y005107D01*
X013714Y005261D02*
X013637Y005338D01*
X013637Y005414D01*
X013714Y005491D01*
X013867Y005491D01*
X013944Y005414D01*
X013944Y005338D01*
X013867Y005261D01*
X013483Y005414D02*
X013407Y005491D01*
X013253Y005491D01*
X013176Y005414D01*
X013176Y005107D01*
X013116Y011420D02*
X013039Y011497D01*
X013116Y011420D02*
X013269Y011420D01*
X013346Y011497D01*
X013346Y011651D01*
X013269Y011727D01*
X013192Y011727D01*
X013039Y011651D01*
X013039Y011881D01*
X013346Y011881D01*
X012885Y011804D02*
X012809Y011881D01*
X012655Y011881D01*
X012578Y011804D01*
X012578Y011497D01*
X012655Y011420D01*
X012809Y011420D01*
X012885Y011497D01*
X016192Y011666D02*
X016269Y011590D01*
X016422Y011590D01*
X016499Y011666D01*
X016653Y011666D02*
X016653Y011590D01*
X016653Y011666D02*
X016959Y011973D01*
X016959Y012050D01*
X016653Y012050D01*
X016499Y011973D02*
X016422Y012050D01*
X016269Y012050D01*
X016192Y011973D01*
X016192Y011666D01*
X018905Y012446D02*
X018982Y012369D01*
X019136Y012369D01*
X019212Y012446D01*
X019366Y012369D02*
X019673Y012369D01*
X019519Y012369D02*
X019519Y012830D01*
X019366Y012676D01*
X019212Y012753D02*
X019136Y012830D01*
X018982Y012830D01*
X018905Y012753D01*
X018905Y012446D01*
X019826Y012446D02*
X019903Y012369D01*
X020056Y012369D01*
X020133Y012446D01*
X020133Y012753D01*
X020056Y012830D01*
X019903Y012830D01*
X019826Y012753D01*
X019826Y012676D01*
X019903Y012599D01*
X020133Y012599D01*
X022243Y014104D02*
X022243Y014454D01*
X022419Y014454D01*
X022477Y014396D01*
X022477Y014279D01*
X022419Y014220D01*
X022243Y014220D01*
X022360Y014220D02*
X022477Y014104D01*
X022602Y014104D02*
X022836Y014337D01*
X022836Y014396D01*
X022778Y014454D01*
X022661Y014454D01*
X022602Y014396D01*
X022602Y014104D02*
X022836Y014104D01*
X022962Y014104D02*
X023195Y014337D01*
X023195Y014396D01*
X023137Y014454D01*
X023020Y014454D01*
X022962Y014396D01*
X022962Y014104D02*
X023195Y014104D01*
X018289Y018554D02*
X018212Y018478D01*
X018059Y018478D01*
X017982Y018554D01*
X017828Y018554D02*
X017752Y018478D01*
X017598Y018478D01*
X017521Y018554D01*
X017521Y018861D01*
X017598Y018938D01*
X017752Y018938D01*
X017828Y018861D01*
X017982Y018861D02*
X018059Y018938D01*
X018212Y018938D01*
X018289Y018861D01*
X018289Y018784D01*
X018212Y018708D01*
X018289Y018631D01*
X018289Y018554D01*
X018212Y018708D02*
X018135Y018708D01*
X017011Y018559D02*
X016704Y018559D01*
X016857Y018559D02*
X016857Y019019D01*
X016704Y018866D01*
X016550Y018942D02*
X016550Y018789D01*
X016474Y018712D01*
X016243Y018712D01*
X016243Y018559D02*
X016243Y019019D01*
X016474Y019019D01*
X016550Y018942D01*
X016397Y018712D02*
X016550Y018559D01*
X013535Y019123D02*
X013228Y019123D01*
X013458Y019353D01*
X013458Y018893D01*
X013074Y018970D02*
X012998Y018893D01*
X012844Y018893D01*
X012767Y018970D01*
X012767Y019277D01*
X012844Y019353D01*
X012998Y019353D01*
X013074Y019277D01*
X011788Y020261D02*
X011481Y020261D01*
X011788Y020568D01*
X011788Y020645D01*
X011712Y020721D01*
X011558Y020721D01*
X011481Y020645D01*
X011328Y020645D02*
X011251Y020721D01*
X011098Y020721D01*
X011021Y020645D01*
X011021Y020338D01*
X011098Y020261D01*
X011251Y020261D01*
X011328Y020338D01*
X010751Y020102D02*
X010444Y020102D01*
X010597Y020102D02*
X010597Y020562D01*
X010444Y020409D01*
X010290Y020485D02*
X010214Y020562D01*
X010060Y020562D01*
X009984Y020485D01*
X009984Y020178D01*
X010060Y020102D01*
X010214Y020102D01*
X010290Y020178D01*
X016318Y021905D02*
X016318Y022366D01*
X016548Y022366D01*
X016625Y022289D01*
X016625Y022135D01*
X016548Y022059D01*
X016318Y022059D01*
X016472Y022059D02*
X016625Y021905D01*
X016779Y021905D02*
X017086Y022212D01*
X017086Y022289D01*
X017009Y022366D01*
X016855Y022366D01*
X016779Y022289D01*
X016779Y021905D02*
X017086Y021905D01*
X019884Y019329D02*
X019884Y018868D01*
X020191Y018868D01*
X020344Y018868D02*
X020651Y018868D01*
X020498Y018868D02*
X020498Y019329D01*
X020344Y019175D01*
X021803Y022228D02*
X021803Y022688D01*
X022033Y022688D01*
X022110Y022612D01*
X022110Y022458D01*
X022033Y022381D01*
X021803Y022381D01*
X021956Y022381D02*
X022110Y022228D01*
X022263Y022228D02*
X022570Y022228D01*
X022417Y022228D02*
X022417Y022688D01*
X022263Y022535D01*
X022724Y022458D02*
X022877Y022535D01*
X022954Y022535D01*
X023030Y022458D01*
X023030Y022305D01*
X022954Y022228D01*
X022800Y022228D01*
X022724Y022305D01*
X022724Y022458D02*
X022724Y022688D01*
X023030Y022688D01*
X000747Y005891D02*
X000286Y005891D01*
X000516Y005660D01*
X000516Y005967D01*
X000286Y005507D02*
X000747Y005200D01*
X000747Y005507D02*
X000286Y005200D01*
D16*
X022420Y016680D03*
D17*
X009491Y016832D02*
X009344Y016832D01*
X009491Y016979D01*
X009491Y017015D01*
X009454Y017052D01*
X009381Y017052D01*
X009344Y017015D01*
X009270Y017015D02*
X009233Y017052D01*
X009123Y017052D01*
X009123Y016832D01*
X009233Y016832D01*
X009270Y016868D01*
X009270Y017015D01*
X009216Y015615D02*
X009106Y015615D01*
X009106Y015395D01*
X009216Y015395D01*
X009253Y015432D01*
X009253Y015578D01*
X009216Y015615D01*
X009327Y015578D02*
X009364Y015615D01*
X009437Y015615D01*
X009474Y015578D01*
X009474Y015542D01*
X009437Y015505D01*
X009474Y015468D01*
X009474Y015432D01*
X009437Y015395D01*
X009364Y015395D01*
X009327Y015432D01*
X009401Y015505D02*
X009437Y015505D01*
X015611Y005592D02*
X017229Y005592D01*
X017229Y002768D01*
X015611Y002768D01*
X015611Y005592D01*
D18*
X009129Y007503D02*
X009129Y003054D01*
X003656Y003054D01*
X003656Y007503D01*
X009129Y007503D01*
X003617Y006322D02*
X002278Y006322D01*
X002278Y004038D01*
X003617Y004038D01*
D19*
X006381Y007680D02*
X006381Y007780D01*
X003975Y007780D01*
X003109Y008499D01*
X003109Y010861D01*
X003936Y011580D01*
X006381Y011580D01*
X006381Y011680D01*
X007011Y011680D01*
X007011Y011058D01*
X006298Y011058D01*
X006298Y008302D01*
X007011Y008302D01*
X007011Y007680D01*
X006381Y007680D01*
X007011Y008302D02*
X007011Y011058D01*
X007011Y012180D02*
X006381Y012180D01*
X006381Y012280D01*
X003975Y012280D01*
X003109Y012999D01*
X003109Y015361D01*
X003936Y016080D01*
X006381Y016080D01*
X006381Y016180D01*
X007011Y016180D01*
X007011Y015558D01*
X006298Y015558D01*
X006298Y012802D01*
X007011Y012802D01*
X007011Y012180D01*
X007011Y012802D02*
X007011Y015558D01*
X007011Y016680D02*
X006381Y016680D01*
X006381Y016780D01*
X003975Y016780D01*
X003109Y017499D01*
X003109Y019861D01*
X003936Y020580D01*
X006381Y020580D01*
X006381Y020680D01*
X007011Y020680D01*
X007011Y020058D01*
X006298Y020058D01*
X006298Y017302D01*
X007011Y017302D01*
X007011Y016680D01*
X007011Y017302D02*
X007011Y020058D01*
X003975Y018916D02*
X003975Y018444D01*
X003739Y018444D01*
X003739Y018916D01*
X003975Y018916D01*
X003739Y018916D02*
X003345Y018916D01*
X003345Y018444D01*
X003739Y018444D01*
X003739Y014416D02*
X003345Y014416D01*
X003345Y013944D01*
X003739Y013944D01*
X003739Y014416D01*
X003975Y014416D01*
X003975Y013944D01*
X003739Y013944D01*
X003739Y009916D02*
X003345Y009916D01*
X003345Y009444D01*
X003739Y009444D01*
X003739Y009916D01*
X003975Y009916D01*
X003975Y009444D01*
X003739Y009444D01*
X027027Y005393D02*
X027027Y004771D01*
X027739Y004771D01*
X027739Y003196D01*
X027027Y003196D01*
X027027Y004771D01*
X027656Y005292D02*
X027656Y005393D01*
X027027Y005393D01*
X027656Y005292D02*
X030062Y005292D01*
X030928Y004574D01*
X030928Y003393D01*
X030101Y002674D01*
X027656Y002674D01*
X027656Y002574D01*
X027027Y002574D01*
X027027Y003196D01*
X030062Y003747D02*
X030298Y003747D01*
X030298Y004219D01*
X030692Y004219D01*
X030692Y003747D01*
X030298Y003747D01*
X030062Y003747D02*
X030062Y004219D01*
X030298Y004219D01*
X027460Y016771D02*
X026830Y016771D01*
X026830Y017393D01*
X027542Y017393D01*
X027542Y018967D01*
X026830Y018967D01*
X026830Y019589D01*
X027460Y019589D01*
X027460Y019489D01*
X029865Y019489D01*
X030731Y018771D01*
X030731Y017589D01*
X029904Y016871D01*
X027460Y016871D01*
X027460Y016771D01*
X026830Y017393D02*
X026830Y018967D01*
X029865Y018416D02*
X029865Y017944D01*
X030101Y017944D01*
X030101Y018416D01*
X030495Y018416D01*
X030495Y017944D01*
X030101Y017944D01*
X030101Y018416D02*
X029865Y018416D01*
D20*
X008920Y020730D03*
D21*
X008920Y021355D03*
X008920Y019005D03*
D22*
X030051Y007089D03*
D23*
X029976Y007014D03*
X029976Y007164D03*
D24*
X030131Y007089D03*
D25*
X028196Y001839D02*
X028196Y001208D01*
X027986Y001208D02*
X028406Y001208D01*
X027986Y001628D02*
X028196Y001839D01*
X027762Y001839D02*
X027762Y001208D01*
X027341Y001839D01*
X027341Y001208D01*
X027117Y001313D02*
X027117Y001733D01*
X027012Y001839D01*
X026802Y001839D01*
X026697Y001733D01*
X026697Y001313D01*
X026802Y001208D01*
X027012Y001208D01*
X027117Y001313D01*
X026473Y001313D02*
X026367Y001208D01*
X026157Y001208D01*
X026052Y001313D01*
X026052Y001733D01*
X026157Y001839D01*
X026367Y001839D01*
X026473Y001733D01*
D26*
X024298Y013574D03*
X022148Y013574D03*
M02*
