G75*
G70*
%OFA0B0*%
%FSLAX24Y24*%
%IPPOS*%
%LPD*%
%AMOC8*
5,1,8,0,0,1.08239X$1,22.5*
%
%ADD10C,0.0000*%
%ADD11C,0.0060*%
%ADD12C,0.0030*%
%ADD13C,0.0050*%
%ADD14R,0.0150X0.0200*%
%ADD15C,0.0040*%
%ADD16R,0.0945X0.0236*%
%ADD17C,0.0020*%
%ADD18C,0.0080*%
%ADD19C,0.0100*%
%ADD20R,0.1000X0.0200*%
%ADD21R,0.0300X0.0750*%
%ADD22R,0.0100X0.0200*%
%ADD23R,0.0050X0.0150*%
%ADD24R,0.0100X0.0100*%
%ADD25C,0.0070*%
D10*
X001229Y000150D02*
X001229Y023181D01*
X028788Y023181D01*
X028788Y000150D01*
X001229Y000150D01*
X001808Y001456D02*
X001810Y001506D01*
X001816Y001556D01*
X001826Y001605D01*
X001840Y001653D01*
X001857Y001700D01*
X001878Y001745D01*
X001903Y001789D01*
X001931Y001830D01*
X001963Y001869D01*
X001997Y001906D01*
X002034Y001940D01*
X002074Y001970D01*
X002116Y001997D01*
X002160Y002021D01*
X002206Y002042D01*
X002253Y002058D01*
X002301Y002071D01*
X002351Y002080D01*
X002400Y002085D01*
X002451Y002086D01*
X002501Y002083D01*
X002550Y002076D01*
X002599Y002065D01*
X002647Y002050D01*
X002693Y002032D01*
X002738Y002010D01*
X002781Y001984D01*
X002822Y001955D01*
X002861Y001923D01*
X002897Y001888D01*
X002929Y001850D01*
X002959Y001810D01*
X002986Y001767D01*
X003009Y001723D01*
X003028Y001677D01*
X003044Y001629D01*
X003056Y001580D01*
X003064Y001531D01*
X003068Y001481D01*
X003068Y001431D01*
X003064Y001381D01*
X003056Y001332D01*
X003044Y001283D01*
X003028Y001235D01*
X003009Y001189D01*
X002986Y001145D01*
X002959Y001102D01*
X002929Y001062D01*
X002897Y001024D01*
X002861Y000989D01*
X002822Y000957D01*
X002781Y000928D01*
X002738Y000902D01*
X002693Y000880D01*
X002647Y000862D01*
X002599Y000847D01*
X002550Y000836D01*
X002501Y000829D01*
X002451Y000826D01*
X002400Y000827D01*
X002351Y000832D01*
X002301Y000841D01*
X002253Y000854D01*
X002206Y000870D01*
X002160Y000891D01*
X002116Y000915D01*
X002074Y000942D01*
X002034Y000972D01*
X001997Y001006D01*
X001963Y001043D01*
X001931Y001082D01*
X001903Y001123D01*
X001878Y001167D01*
X001857Y001212D01*
X001840Y001259D01*
X001826Y001307D01*
X001816Y001356D01*
X001810Y001406D01*
X001808Y001456D01*
X002138Y009650D02*
X002140Y009698D01*
X002146Y009746D01*
X002156Y009793D01*
X002169Y009839D01*
X002187Y009884D01*
X002207Y009928D01*
X002232Y009970D01*
X002260Y010009D01*
X002290Y010046D01*
X002324Y010080D01*
X002361Y010112D01*
X002399Y010141D01*
X002440Y010166D01*
X002483Y010188D01*
X002528Y010206D01*
X002574Y010220D01*
X002621Y010231D01*
X002669Y010238D01*
X002717Y010241D01*
X002765Y010240D01*
X002813Y010235D01*
X002861Y010226D01*
X002907Y010214D01*
X002952Y010197D01*
X002996Y010177D01*
X003038Y010154D01*
X003078Y010127D01*
X003116Y010097D01*
X003151Y010064D01*
X003183Y010028D01*
X003213Y009990D01*
X003239Y009949D01*
X003261Y009906D01*
X003281Y009862D01*
X003296Y009817D01*
X003308Y009770D01*
X003316Y009722D01*
X003320Y009674D01*
X003320Y009626D01*
X003316Y009578D01*
X003308Y009530D01*
X003296Y009483D01*
X003281Y009438D01*
X003261Y009394D01*
X003239Y009351D01*
X003213Y009310D01*
X003183Y009272D01*
X003151Y009236D01*
X003116Y009203D01*
X003078Y009173D01*
X003038Y009146D01*
X002996Y009123D01*
X002952Y009103D01*
X002907Y009086D01*
X002861Y009074D01*
X002813Y009065D01*
X002765Y009060D01*
X002717Y009059D01*
X002669Y009062D01*
X002621Y009069D01*
X002574Y009080D01*
X002528Y009094D01*
X002483Y009112D01*
X002440Y009134D01*
X002399Y009159D01*
X002361Y009188D01*
X002324Y009220D01*
X002290Y009254D01*
X002260Y009291D01*
X002232Y009330D01*
X002207Y009372D01*
X002187Y009416D01*
X002169Y009461D01*
X002156Y009507D01*
X002146Y009554D01*
X002140Y009602D01*
X002138Y009650D01*
X002138Y014150D02*
X002140Y014198D01*
X002146Y014246D01*
X002156Y014293D01*
X002169Y014339D01*
X002187Y014384D01*
X002207Y014428D01*
X002232Y014470D01*
X002260Y014509D01*
X002290Y014546D01*
X002324Y014580D01*
X002361Y014612D01*
X002399Y014641D01*
X002440Y014666D01*
X002483Y014688D01*
X002528Y014706D01*
X002574Y014720D01*
X002621Y014731D01*
X002669Y014738D01*
X002717Y014741D01*
X002765Y014740D01*
X002813Y014735D01*
X002861Y014726D01*
X002907Y014714D01*
X002952Y014697D01*
X002996Y014677D01*
X003038Y014654D01*
X003078Y014627D01*
X003116Y014597D01*
X003151Y014564D01*
X003183Y014528D01*
X003213Y014490D01*
X003239Y014449D01*
X003261Y014406D01*
X003281Y014362D01*
X003296Y014317D01*
X003308Y014270D01*
X003316Y014222D01*
X003320Y014174D01*
X003320Y014126D01*
X003316Y014078D01*
X003308Y014030D01*
X003296Y013983D01*
X003281Y013938D01*
X003261Y013894D01*
X003239Y013851D01*
X003213Y013810D01*
X003183Y013772D01*
X003151Y013736D01*
X003116Y013703D01*
X003078Y013673D01*
X003038Y013646D01*
X002996Y013623D01*
X002952Y013603D01*
X002907Y013586D01*
X002861Y013574D01*
X002813Y013565D01*
X002765Y013560D01*
X002717Y013559D01*
X002669Y013562D01*
X002621Y013569D01*
X002574Y013580D01*
X002528Y013594D01*
X002483Y013612D01*
X002440Y013634D01*
X002399Y013659D01*
X002361Y013688D01*
X002324Y013720D01*
X002290Y013754D01*
X002260Y013791D01*
X002232Y013830D01*
X002207Y013872D01*
X002187Y013916D01*
X002169Y013961D01*
X002156Y014007D01*
X002146Y014054D01*
X002140Y014102D01*
X002138Y014150D01*
X002138Y018650D02*
X002140Y018698D01*
X002146Y018746D01*
X002156Y018793D01*
X002169Y018839D01*
X002187Y018884D01*
X002207Y018928D01*
X002232Y018970D01*
X002260Y019009D01*
X002290Y019046D01*
X002324Y019080D01*
X002361Y019112D01*
X002399Y019141D01*
X002440Y019166D01*
X002483Y019188D01*
X002528Y019206D01*
X002574Y019220D01*
X002621Y019231D01*
X002669Y019238D01*
X002717Y019241D01*
X002765Y019240D01*
X002813Y019235D01*
X002861Y019226D01*
X002907Y019214D01*
X002952Y019197D01*
X002996Y019177D01*
X003038Y019154D01*
X003078Y019127D01*
X003116Y019097D01*
X003151Y019064D01*
X003183Y019028D01*
X003213Y018990D01*
X003239Y018949D01*
X003261Y018906D01*
X003281Y018862D01*
X003296Y018817D01*
X003308Y018770D01*
X003316Y018722D01*
X003320Y018674D01*
X003320Y018626D01*
X003316Y018578D01*
X003308Y018530D01*
X003296Y018483D01*
X003281Y018438D01*
X003261Y018394D01*
X003239Y018351D01*
X003213Y018310D01*
X003183Y018272D01*
X003151Y018236D01*
X003116Y018203D01*
X003078Y018173D01*
X003038Y018146D01*
X002996Y018123D01*
X002952Y018103D01*
X002907Y018086D01*
X002861Y018074D01*
X002813Y018065D01*
X002765Y018060D01*
X002717Y018059D01*
X002669Y018062D01*
X002621Y018069D01*
X002574Y018080D01*
X002528Y018094D01*
X002483Y018112D01*
X002440Y018134D01*
X002399Y018159D01*
X002361Y018188D01*
X002324Y018220D01*
X002290Y018254D01*
X002260Y018291D01*
X002232Y018330D01*
X002207Y018372D01*
X002187Y018416D01*
X002169Y018461D01*
X002156Y018507D01*
X002146Y018554D01*
X002140Y018602D01*
X002138Y018650D01*
X001805Y022053D02*
X001807Y022103D01*
X001813Y022153D01*
X001823Y022202D01*
X001837Y022250D01*
X001854Y022297D01*
X001875Y022342D01*
X001900Y022386D01*
X001928Y022427D01*
X001960Y022466D01*
X001994Y022503D01*
X002031Y022537D01*
X002071Y022567D01*
X002113Y022594D01*
X002157Y022618D01*
X002203Y022639D01*
X002250Y022655D01*
X002298Y022668D01*
X002348Y022677D01*
X002397Y022682D01*
X002448Y022683D01*
X002498Y022680D01*
X002547Y022673D01*
X002596Y022662D01*
X002644Y022647D01*
X002690Y022629D01*
X002735Y022607D01*
X002778Y022581D01*
X002819Y022552D01*
X002858Y022520D01*
X002894Y022485D01*
X002926Y022447D01*
X002956Y022407D01*
X002983Y022364D01*
X003006Y022320D01*
X003025Y022274D01*
X003041Y022226D01*
X003053Y022177D01*
X003061Y022128D01*
X003065Y022078D01*
X003065Y022028D01*
X003061Y021978D01*
X003053Y021929D01*
X003041Y021880D01*
X003025Y021832D01*
X003006Y021786D01*
X002983Y021742D01*
X002956Y021699D01*
X002926Y021659D01*
X002894Y021621D01*
X002858Y021586D01*
X002819Y021554D01*
X002778Y021525D01*
X002735Y021499D01*
X002690Y021477D01*
X002644Y021459D01*
X002596Y021444D01*
X002547Y021433D01*
X002498Y021426D01*
X002448Y021423D01*
X002397Y021424D01*
X002348Y021429D01*
X002298Y021438D01*
X002250Y021451D01*
X002203Y021467D01*
X002157Y021488D01*
X002113Y021512D01*
X002071Y021539D01*
X002031Y021569D01*
X001994Y021603D01*
X001960Y021640D01*
X001928Y021679D01*
X001900Y021720D01*
X001875Y021764D01*
X001854Y021809D01*
X001837Y021856D01*
X001823Y021904D01*
X001813Y021953D01*
X001807Y022003D01*
X001805Y022053D01*
X012109Y022110D02*
X012111Y022089D01*
X012116Y022069D01*
X012125Y022050D01*
X012137Y022033D01*
X012152Y022018D01*
X012169Y022006D01*
X012188Y021997D01*
X012208Y021992D01*
X012229Y021990D01*
X012250Y021992D01*
X012270Y021997D01*
X012289Y022006D01*
X012306Y022018D01*
X012321Y022033D01*
X012333Y022050D01*
X012342Y022069D01*
X012347Y022089D01*
X012349Y022110D01*
X026638Y019650D02*
X026640Y019698D01*
X026646Y019746D01*
X026656Y019793D01*
X026669Y019839D01*
X026687Y019884D01*
X026707Y019928D01*
X026732Y019970D01*
X026760Y020009D01*
X026790Y020046D01*
X026824Y020080D01*
X026861Y020112D01*
X026899Y020141D01*
X026940Y020166D01*
X026983Y020188D01*
X027028Y020206D01*
X027074Y020220D01*
X027121Y020231D01*
X027169Y020238D01*
X027217Y020241D01*
X027265Y020240D01*
X027313Y020235D01*
X027361Y020226D01*
X027407Y020214D01*
X027452Y020197D01*
X027496Y020177D01*
X027538Y020154D01*
X027578Y020127D01*
X027616Y020097D01*
X027651Y020064D01*
X027683Y020028D01*
X027713Y019990D01*
X027739Y019949D01*
X027761Y019906D01*
X027781Y019862D01*
X027796Y019817D01*
X027808Y019770D01*
X027816Y019722D01*
X027820Y019674D01*
X027820Y019626D01*
X027816Y019578D01*
X027808Y019530D01*
X027796Y019483D01*
X027781Y019438D01*
X027761Y019394D01*
X027739Y019351D01*
X027713Y019310D01*
X027683Y019272D01*
X027651Y019236D01*
X027616Y019203D01*
X027578Y019173D01*
X027538Y019146D01*
X027496Y019123D01*
X027452Y019103D01*
X027407Y019086D01*
X027361Y019074D01*
X027313Y019065D01*
X027265Y019060D01*
X027217Y019059D01*
X027169Y019062D01*
X027121Y019069D01*
X027074Y019080D01*
X027028Y019094D01*
X026983Y019112D01*
X026940Y019134D01*
X026899Y019159D01*
X026861Y019188D01*
X026824Y019220D01*
X026790Y019254D01*
X026760Y019291D01*
X026732Y019330D01*
X026707Y019372D01*
X026687Y019416D01*
X026669Y019461D01*
X026656Y019507D01*
X026646Y019554D01*
X026640Y019602D01*
X026638Y019650D01*
X026886Y021953D02*
X026888Y022003D01*
X026894Y022053D01*
X026904Y022102D01*
X026918Y022150D01*
X026935Y022197D01*
X026956Y022242D01*
X026981Y022286D01*
X027009Y022327D01*
X027041Y022366D01*
X027075Y022403D01*
X027112Y022437D01*
X027152Y022467D01*
X027194Y022494D01*
X027238Y022518D01*
X027284Y022539D01*
X027331Y022555D01*
X027379Y022568D01*
X027429Y022577D01*
X027478Y022582D01*
X027529Y022583D01*
X027579Y022580D01*
X027628Y022573D01*
X027677Y022562D01*
X027725Y022547D01*
X027771Y022529D01*
X027816Y022507D01*
X027859Y022481D01*
X027900Y022452D01*
X027939Y022420D01*
X027975Y022385D01*
X028007Y022347D01*
X028037Y022307D01*
X028064Y022264D01*
X028087Y022220D01*
X028106Y022174D01*
X028122Y022126D01*
X028134Y022077D01*
X028142Y022028D01*
X028146Y021978D01*
X028146Y021928D01*
X028142Y021878D01*
X028134Y021829D01*
X028122Y021780D01*
X028106Y021732D01*
X028087Y021686D01*
X028064Y021642D01*
X028037Y021599D01*
X028007Y021559D01*
X027975Y021521D01*
X027939Y021486D01*
X027900Y021454D01*
X027859Y021425D01*
X027816Y021399D01*
X027771Y021377D01*
X027725Y021359D01*
X027677Y021344D01*
X027628Y021333D01*
X027579Y021326D01*
X027529Y021323D01*
X027478Y021324D01*
X027429Y021329D01*
X027379Y021338D01*
X027331Y021351D01*
X027284Y021367D01*
X027238Y021388D01*
X027194Y021412D01*
X027152Y021439D01*
X027112Y021469D01*
X027075Y021503D01*
X027041Y021540D01*
X027009Y021579D01*
X026981Y021620D01*
X026956Y021664D01*
X026935Y021709D01*
X026918Y021756D01*
X026904Y021804D01*
X026894Y021853D01*
X026888Y021903D01*
X026886Y021953D01*
X026388Y003900D02*
X026390Y003948D01*
X026396Y003996D01*
X026406Y004043D01*
X026419Y004089D01*
X026437Y004134D01*
X026457Y004178D01*
X026482Y004220D01*
X026510Y004259D01*
X026540Y004296D01*
X026574Y004330D01*
X026611Y004362D01*
X026649Y004391D01*
X026690Y004416D01*
X026733Y004438D01*
X026778Y004456D01*
X026824Y004470D01*
X026871Y004481D01*
X026919Y004488D01*
X026967Y004491D01*
X027015Y004490D01*
X027063Y004485D01*
X027111Y004476D01*
X027157Y004464D01*
X027202Y004447D01*
X027246Y004427D01*
X027288Y004404D01*
X027328Y004377D01*
X027366Y004347D01*
X027401Y004314D01*
X027433Y004278D01*
X027463Y004240D01*
X027489Y004199D01*
X027511Y004156D01*
X027531Y004112D01*
X027546Y004067D01*
X027558Y004020D01*
X027566Y003972D01*
X027570Y003924D01*
X027570Y003876D01*
X027566Y003828D01*
X027558Y003780D01*
X027546Y003733D01*
X027531Y003688D01*
X027511Y003644D01*
X027489Y003601D01*
X027463Y003560D01*
X027433Y003522D01*
X027401Y003486D01*
X027366Y003453D01*
X027328Y003423D01*
X027288Y003396D01*
X027246Y003373D01*
X027202Y003353D01*
X027157Y003336D01*
X027111Y003324D01*
X027063Y003315D01*
X027015Y003310D01*
X026967Y003309D01*
X026919Y003312D01*
X026871Y003319D01*
X026824Y003330D01*
X026778Y003344D01*
X026733Y003362D01*
X026690Y003384D01*
X026649Y003409D01*
X026611Y003438D01*
X026574Y003470D01*
X026540Y003504D01*
X026510Y003541D01*
X026482Y003580D01*
X026457Y003622D01*
X026437Y003666D01*
X026419Y003711D01*
X026406Y003757D01*
X026396Y003804D01*
X026390Y003852D01*
X026388Y003900D01*
X026992Y001356D02*
X026994Y001406D01*
X027000Y001456D01*
X027010Y001505D01*
X027024Y001553D01*
X027041Y001600D01*
X027062Y001645D01*
X027087Y001689D01*
X027115Y001730D01*
X027147Y001769D01*
X027181Y001806D01*
X027218Y001840D01*
X027258Y001870D01*
X027300Y001897D01*
X027344Y001921D01*
X027390Y001942D01*
X027437Y001958D01*
X027485Y001971D01*
X027535Y001980D01*
X027584Y001985D01*
X027635Y001986D01*
X027685Y001983D01*
X027734Y001976D01*
X027783Y001965D01*
X027831Y001950D01*
X027877Y001932D01*
X027922Y001910D01*
X027965Y001884D01*
X028006Y001855D01*
X028045Y001823D01*
X028081Y001788D01*
X028113Y001750D01*
X028143Y001710D01*
X028170Y001667D01*
X028193Y001623D01*
X028212Y001577D01*
X028228Y001529D01*
X028240Y001480D01*
X028248Y001431D01*
X028252Y001381D01*
X028252Y001331D01*
X028248Y001281D01*
X028240Y001232D01*
X028228Y001183D01*
X028212Y001135D01*
X028193Y001089D01*
X028170Y001045D01*
X028143Y001002D01*
X028113Y000962D01*
X028081Y000924D01*
X028045Y000889D01*
X028006Y000857D01*
X027965Y000828D01*
X027922Y000802D01*
X027877Y000780D01*
X027831Y000762D01*
X027783Y000747D01*
X027734Y000736D01*
X027685Y000729D01*
X027635Y000726D01*
X027584Y000727D01*
X027535Y000732D01*
X027485Y000741D01*
X027437Y000754D01*
X027390Y000770D01*
X027344Y000791D01*
X027300Y000815D01*
X027258Y000842D01*
X027218Y000872D01*
X027181Y000906D01*
X027147Y000943D01*
X027115Y000982D01*
X027087Y001023D01*
X027062Y001067D01*
X027041Y001112D01*
X027024Y001159D01*
X027010Y001207D01*
X027000Y001256D01*
X026994Y001306D01*
X026992Y001356D01*
D11*
X022440Y003670D02*
X022440Y010620D01*
X019517Y010620D01*
X019517Y003670D01*
X022440Y003670D01*
X025599Y006150D02*
X025599Y006500D01*
X026129Y006500D01*
X026129Y006150D01*
X026729Y006150D01*
X027229Y006150D01*
X027829Y006150D01*
X028349Y006150D01*
X028349Y006500D01*
X028349Y007150D01*
X028349Y015150D01*
X028349Y015800D01*
X028349Y016140D01*
X027829Y016140D01*
X027229Y016140D01*
X026729Y016140D01*
X026129Y016140D01*
X025599Y016140D01*
X025599Y015800D01*
X025599Y015150D01*
X025599Y007150D01*
X025599Y006500D01*
X025599Y006150D02*
X026129Y006150D01*
X026729Y006150D02*
X026729Y006500D01*
X027229Y006500D01*
X027229Y006150D01*
X027338Y006730D02*
X027158Y006910D01*
X027699Y006910D01*
X027699Y006730D02*
X027699Y007090D01*
X027899Y007480D02*
X028229Y007650D01*
X028129Y007650D01*
X028229Y007650D02*
X027899Y007820D01*
X027899Y007480D01*
X028349Y007150D02*
X028619Y007150D01*
X028619Y015150D01*
X028349Y015150D01*
X028349Y015800D02*
X027829Y015800D01*
X027829Y016140D01*
X027229Y016140D02*
X027229Y015800D01*
X026729Y015800D01*
X026729Y016140D01*
X026129Y016140D02*
X026129Y015800D01*
X025599Y015800D01*
X025599Y015150D02*
X023229Y015150D01*
X023979Y013650D01*
X023229Y011650D01*
X023529Y010150D01*
X023229Y007150D01*
X025599Y007150D01*
X027829Y006500D02*
X027829Y006150D01*
X027829Y006500D02*
X028349Y006500D01*
X022069Y011710D02*
X021889Y011710D01*
X021709Y012090D02*
X021709Y012210D01*
X021889Y012590D02*
X022069Y012590D01*
X021879Y013250D02*
X021729Y013250D01*
X021679Y013300D01*
X020279Y013300D01*
X020229Y013250D01*
X020079Y013250D01*
X020062Y013252D01*
X020045Y013256D01*
X020029Y013263D01*
X020015Y013273D01*
X020002Y013286D01*
X019992Y013300D01*
X019985Y013316D01*
X019981Y013333D01*
X019979Y013350D01*
X019979Y013950D01*
X019981Y013967D01*
X019985Y013984D01*
X019992Y014000D01*
X020002Y014014D01*
X020015Y014027D01*
X020029Y014037D01*
X020045Y014044D01*
X020062Y014048D01*
X020079Y014050D01*
X020229Y014050D01*
X020279Y014000D01*
X021679Y014000D01*
X021729Y014050D01*
X021879Y014050D01*
X021896Y014048D01*
X021913Y014044D01*
X021929Y014037D01*
X021943Y014027D01*
X021956Y014014D01*
X021966Y014000D01*
X021973Y013984D01*
X021977Y013967D01*
X021979Y013950D01*
X021979Y013350D01*
X021977Y013333D01*
X021973Y013316D01*
X021966Y013300D01*
X021956Y013286D01*
X021943Y013273D01*
X021929Y013263D01*
X021913Y013256D01*
X021896Y013252D01*
X021879Y013250D01*
X020249Y012210D02*
X020249Y012090D01*
X020069Y011710D02*
X019889Y011710D01*
X019889Y012590D02*
X020069Y012590D01*
X019529Y010250D02*
X019531Y010279D01*
X019537Y010307D01*
X019546Y010334D01*
X019560Y010359D01*
X019576Y010383D01*
X019596Y010403D01*
X019618Y010422D01*
X019642Y010436D01*
X019669Y010448D01*
X019696Y010456D01*
X019725Y010460D01*
X019753Y010460D01*
X019782Y010456D01*
X019809Y010448D01*
X019836Y010436D01*
X019860Y010422D01*
X019882Y010403D01*
X019902Y010383D01*
X019918Y010359D01*
X019932Y010334D01*
X019941Y010307D01*
X019947Y010279D01*
X019949Y010250D01*
X019947Y010221D01*
X019941Y010193D01*
X019932Y010166D01*
X019918Y010141D01*
X019902Y010117D01*
X019882Y010097D01*
X019860Y010078D01*
X019836Y010064D01*
X019809Y010052D01*
X019782Y010044D01*
X019753Y010040D01*
X019725Y010040D01*
X019696Y010044D01*
X019669Y010052D01*
X019642Y010064D01*
X019618Y010078D01*
X019596Y010097D01*
X019576Y010117D01*
X019560Y010141D01*
X019546Y010166D01*
X019537Y010193D01*
X019531Y010221D01*
X019529Y010250D01*
X016119Y012720D02*
X016119Y012790D01*
X016119Y012720D02*
X014339Y012720D01*
X014339Y012790D01*
X013669Y014000D02*
X013269Y014000D01*
X012379Y011550D02*
X012229Y011550D01*
X012179Y011500D01*
X010779Y011500D01*
X010729Y011550D01*
X010579Y011550D01*
X010562Y011548D01*
X010545Y011544D01*
X010529Y011537D01*
X010515Y011527D01*
X010502Y011514D01*
X010492Y011500D01*
X010485Y011484D01*
X010481Y011467D01*
X010479Y011450D01*
X010479Y010850D01*
X010481Y010833D01*
X010485Y010816D01*
X010492Y010800D01*
X010502Y010786D01*
X010515Y010773D01*
X010529Y010763D01*
X010545Y010756D01*
X010562Y010752D01*
X010579Y010750D01*
X010729Y010750D01*
X010779Y010800D01*
X012179Y010800D01*
X012229Y010750D01*
X012379Y010750D01*
X012396Y010752D01*
X012413Y010756D01*
X012429Y010763D01*
X012443Y010773D01*
X012456Y010786D01*
X012466Y010800D01*
X012473Y010816D01*
X012477Y010833D01*
X012479Y010850D01*
X012479Y011450D01*
X012477Y011467D01*
X012473Y011484D01*
X012466Y011500D01*
X012456Y011514D01*
X012443Y011527D01*
X012429Y011537D01*
X012413Y011544D01*
X012396Y011548D01*
X012379Y011550D01*
X012379Y010050D02*
X012229Y010050D01*
X012179Y010000D01*
X010779Y010000D01*
X010729Y010050D01*
X010579Y010050D01*
X010562Y010048D01*
X010545Y010044D01*
X010529Y010037D01*
X010515Y010027D01*
X010502Y010014D01*
X010492Y010000D01*
X010485Y009984D01*
X010481Y009967D01*
X010479Y009950D01*
X010479Y009350D01*
X010481Y009333D01*
X010485Y009316D01*
X010492Y009300D01*
X010502Y009286D01*
X010515Y009273D01*
X010529Y009263D01*
X010545Y009256D01*
X010562Y009252D01*
X010579Y009250D01*
X010729Y009250D01*
X010779Y009300D01*
X012179Y009300D01*
X012229Y009250D01*
X012379Y009250D01*
X012396Y009252D01*
X012413Y009256D01*
X012429Y009263D01*
X012443Y009273D01*
X012456Y009286D01*
X012466Y009300D01*
X012473Y009316D01*
X012477Y009333D01*
X012479Y009350D01*
X012479Y009950D01*
X012477Y009967D01*
X012473Y009984D01*
X012466Y010000D01*
X012456Y010014D01*
X012443Y010027D01*
X012429Y010037D01*
X012413Y010044D01*
X012396Y010048D01*
X012379Y010050D01*
X015389Y009730D02*
X015569Y009730D01*
X015759Y010090D02*
X015759Y010210D01*
X015569Y010570D02*
X015389Y010570D01*
X015429Y010460D02*
X015448Y010453D01*
X015469Y010449D01*
X015489Y010449D01*
X015510Y010453D01*
X015529Y010460D01*
X016789Y014250D02*
X017189Y014250D01*
X016119Y016510D02*
X016119Y016580D01*
X015349Y016580D01*
X015109Y016580D01*
X014339Y016580D01*
X014339Y016510D01*
X015109Y016580D02*
X015111Y016559D01*
X015116Y016539D01*
X015125Y016520D01*
X015137Y016503D01*
X015152Y016488D01*
X015169Y016476D01*
X015188Y016467D01*
X015208Y016462D01*
X015229Y016460D01*
X015250Y016462D01*
X015270Y016467D01*
X015289Y016476D01*
X015306Y016488D01*
X015321Y016503D01*
X015333Y016520D01*
X015342Y016539D01*
X015347Y016559D01*
X015349Y016580D01*
X012889Y020190D02*
X011569Y020190D01*
X011569Y022110D02*
X012109Y022110D01*
X012349Y022110D01*
X012889Y022110D01*
X007229Y020950D02*
X007229Y019350D01*
X006229Y019350D01*
X006229Y020950D01*
X007229Y020950D01*
X006729Y020400D02*
X006729Y020150D01*
X006479Y020150D01*
X006729Y020150D02*
X006979Y020150D01*
X006729Y020150D02*
X006979Y019750D01*
X006479Y019750D01*
X006729Y020150D01*
X006729Y019550D01*
X007439Y013630D02*
X007859Y013630D01*
X008099Y013630D01*
X008519Y013630D01*
X008099Y013630D02*
X008097Y013609D01*
X008092Y013589D01*
X008083Y013570D01*
X008071Y013553D01*
X008056Y013538D01*
X008039Y013526D01*
X008020Y013517D01*
X008000Y013512D01*
X007979Y013510D01*
X007958Y013512D01*
X007938Y013517D01*
X007919Y013526D01*
X007902Y013538D01*
X007887Y013553D01*
X007875Y013570D01*
X007866Y013589D01*
X007861Y013609D01*
X007859Y013630D01*
X007439Y011670D02*
X008519Y011670D01*
X008519Y010630D02*
X008099Y010630D01*
X007859Y010630D01*
X007439Y010630D01*
X007859Y010630D02*
X007861Y010609D01*
X007866Y010589D01*
X007875Y010570D01*
X007887Y010553D01*
X007902Y010538D01*
X007919Y010526D01*
X007938Y010517D01*
X007958Y010512D01*
X007979Y010510D01*
X008000Y010512D01*
X008020Y010517D01*
X008039Y010526D01*
X008056Y010538D01*
X008071Y010553D01*
X008083Y010570D01*
X008092Y010589D01*
X008097Y010609D01*
X008099Y010630D01*
X008519Y008670D02*
X007439Y008670D01*
X012830Y005652D02*
X014627Y005652D01*
X014627Y002648D01*
X012830Y002648D01*
X012830Y005652D01*
X013069Y005302D02*
X013071Y005328D01*
X013077Y005354D01*
X013086Y005378D01*
X013099Y005401D01*
X013115Y005422D01*
X013134Y005440D01*
X013155Y005456D01*
X013179Y005468D01*
X013203Y005476D01*
X013229Y005481D01*
X013256Y005482D01*
X013282Y005479D01*
X013307Y005472D01*
X013331Y005462D01*
X013354Y005448D01*
X013374Y005432D01*
X013391Y005412D01*
X013406Y005390D01*
X013417Y005366D01*
X013425Y005341D01*
X013429Y005315D01*
X013429Y005289D01*
X013425Y005263D01*
X013417Y005238D01*
X013406Y005214D01*
X013391Y005192D01*
X013374Y005172D01*
X013354Y005156D01*
X013331Y005142D01*
X013307Y005132D01*
X013282Y005125D01*
X013256Y005122D01*
X013229Y005123D01*
X013203Y005128D01*
X013179Y005136D01*
X013155Y005148D01*
X013134Y005164D01*
X013115Y005182D01*
X013099Y005203D01*
X013086Y005226D01*
X013077Y005250D01*
X013071Y005276D01*
X013069Y005302D01*
X019619Y019900D02*
X019619Y020030D01*
X019619Y020270D01*
X019619Y020400D01*
X019619Y020270D02*
X019640Y020268D01*
X019660Y020263D01*
X019679Y020254D01*
X019696Y020242D01*
X019711Y020227D01*
X019723Y020210D01*
X019732Y020191D01*
X019737Y020171D01*
X019739Y020150D01*
X019737Y020129D01*
X019732Y020109D01*
X019723Y020090D01*
X019711Y020073D01*
X019696Y020058D01*
X019679Y020046D01*
X019660Y020037D01*
X019640Y020032D01*
X019619Y020030D01*
X020099Y020500D02*
X020359Y020500D01*
X020839Y020400D02*
X020839Y019900D01*
D12*
X019595Y019609D02*
X019282Y019295D01*
X019438Y019295D02*
X019438Y019609D01*
X019282Y019609D02*
X019595Y019295D01*
X019595Y019452D02*
X019282Y019452D01*
X014077Y016807D02*
X013764Y016493D01*
X013920Y016493D02*
X013920Y016807D01*
X013764Y016807D02*
X014077Y016493D01*
X014077Y016650D02*
X013764Y016650D01*
X019284Y012897D02*
X019597Y012583D01*
X019440Y012583D02*
X019440Y012897D01*
X019597Y012897D02*
X019284Y012583D01*
X019284Y012740D02*
X019597Y012740D01*
X022360Y011717D02*
X022674Y011403D01*
X022674Y011560D02*
X022360Y011560D01*
X022360Y011403D02*
X022674Y011717D01*
X022517Y011717D02*
X022517Y011403D01*
X015067Y010897D02*
X014754Y010583D01*
X014910Y010583D02*
X014910Y010897D01*
X014754Y010897D02*
X015067Y010583D01*
X015067Y010740D02*
X014754Y010740D01*
X007007Y010663D02*
X006694Y010977D01*
X006850Y010977D02*
X006850Y010663D01*
X006694Y010663D02*
X007007Y010977D01*
X007007Y010820D02*
X006694Y010820D01*
X006694Y013663D02*
X007007Y013977D01*
X006850Y013977D02*
X006850Y013663D01*
X007007Y013663D02*
X006694Y013977D01*
X006694Y013820D02*
X007007Y013820D01*
X010874Y022153D02*
X011187Y022467D01*
X011030Y022467D02*
X011030Y022153D01*
X011187Y022153D02*
X010874Y022467D01*
X010874Y022310D02*
X011187Y022310D01*
D13*
X011448Y022293D02*
X011523Y022218D01*
X011673Y022218D01*
X011748Y022293D01*
X011748Y022669D01*
X011908Y022518D02*
X012058Y022669D01*
X012058Y022218D01*
X011908Y022218D02*
X012208Y022218D01*
X011448Y022293D02*
X011448Y022669D01*
X006214Y021286D02*
X005914Y021286D01*
X006064Y021286D02*
X006064Y021736D01*
X005914Y021586D01*
X005754Y021661D02*
X005754Y021361D01*
X005679Y021286D01*
X005454Y021286D01*
X005454Y021736D01*
X005679Y021736D01*
X005754Y021661D01*
X007148Y017396D02*
X007475Y017396D01*
X007475Y016412D01*
X007510Y016412D01*
X007510Y017372D01*
X007475Y017396D02*
X008782Y017396D01*
X008782Y016412D01*
X007510Y016412D01*
X007475Y016412D02*
X007148Y016412D01*
X007148Y017396D01*
X007175Y015888D02*
X008447Y015888D01*
X008447Y014928D01*
X008483Y014904D02*
X008483Y015888D01*
X008447Y015888D01*
X008483Y015888D02*
X008809Y015888D01*
X008809Y014904D01*
X008483Y014904D01*
X007175Y014904D01*
X007175Y015888D01*
X007431Y014285D02*
X007431Y013910D01*
X007506Y013834D01*
X007656Y013834D01*
X007731Y013910D01*
X007731Y014285D01*
X007891Y014210D02*
X007966Y014285D01*
X008117Y014285D01*
X008192Y014210D01*
X008192Y014135D01*
X007891Y013834D01*
X008192Y013834D01*
X007920Y011285D02*
X007770Y011285D01*
X007695Y011210D01*
X007534Y011285D02*
X007534Y010910D01*
X007459Y010834D01*
X007309Y010834D01*
X007234Y010910D01*
X007234Y011285D01*
X007695Y010910D02*
X007770Y010834D01*
X007920Y010834D01*
X007995Y010910D01*
X007995Y010985D01*
X007920Y011060D01*
X007845Y011060D01*
X007920Y011060D02*
X007995Y011135D01*
X007995Y011210D01*
X007920Y011285D01*
X014384Y016900D02*
X014459Y016825D01*
X014609Y016825D01*
X014684Y016900D01*
X014684Y017275D01*
X014845Y017050D02*
X015145Y017050D01*
X015070Y016825D02*
X015070Y017275D01*
X014845Y017050D01*
X014384Y016900D02*
X014384Y017275D01*
X017099Y019678D02*
X017099Y021831D01*
X019296Y021831D01*
X019299Y022276D02*
X017099Y022276D01*
X017099Y021831D01*
X019299Y022276D02*
X019299Y019678D01*
X017099Y019678D01*
X017729Y017615D02*
X019362Y018382D01*
X019363Y018383D02*
X019423Y018425D01*
X019486Y018465D01*
X019551Y018502D01*
X019617Y018535D01*
X019686Y018564D01*
X019755Y018590D01*
X019826Y018613D01*
X019898Y018632D01*
X019970Y018647D01*
X020044Y018658D01*
X020118Y018666D01*
X020192Y018670D01*
X020266Y018670D01*
X020340Y018666D01*
X020414Y018658D01*
X020488Y018647D01*
X020560Y018632D01*
X020632Y018613D01*
X020703Y018590D01*
X020772Y018564D01*
X020841Y018535D01*
X020907Y018502D01*
X020972Y018465D01*
X021035Y018425D01*
X021095Y018383D01*
X021095Y018382D02*
X022729Y017654D01*
X021679Y019089D02*
X021529Y019089D01*
X021454Y019164D01*
X021454Y019314D01*
X021679Y019314D01*
X021754Y019239D01*
X021754Y019164D01*
X021679Y019089D01*
X021454Y019314D02*
X021604Y019464D01*
X021754Y019540D01*
X021294Y019540D02*
X021294Y019164D01*
X021219Y019089D01*
X021069Y019089D01*
X020994Y019164D01*
X020994Y019540D01*
X021534Y020792D02*
X021684Y020792D01*
X021759Y020867D01*
X021919Y020792D02*
X022220Y020792D01*
X022069Y020792D02*
X022069Y021242D01*
X021919Y021092D01*
X021759Y021167D02*
X021684Y021242D01*
X021534Y021242D01*
X021459Y021167D01*
X021459Y020867D01*
X021534Y020792D01*
X022380Y020867D02*
X022455Y020792D01*
X022605Y020792D01*
X022680Y020867D01*
X022680Y020942D01*
X022605Y021017D01*
X022530Y021017D01*
X022605Y021017D02*
X022680Y021092D01*
X022680Y021167D01*
X022605Y021242D01*
X022455Y021242D01*
X022380Y021167D01*
X021095Y014917D02*
X021028Y014877D01*
X020960Y014841D01*
X020890Y014807D01*
X020818Y014777D01*
X020746Y014751D01*
X020671Y014728D01*
X020596Y014709D01*
X020521Y014693D01*
X020444Y014681D01*
X020367Y014673D01*
X020289Y014668D01*
X020212Y014667D01*
X020135Y014670D01*
X020057Y014676D01*
X019980Y014687D01*
X019904Y014701D01*
X019829Y014718D01*
X019754Y014739D01*
X019681Y014764D01*
X019609Y014792D01*
X019538Y014824D01*
X019469Y014859D01*
X019401Y014898D01*
X019362Y014918D02*
X017729Y015666D01*
X021095Y014918D02*
X022729Y015666D01*
X022709Y014555D02*
X022559Y014555D01*
X022484Y014480D01*
X022324Y014480D02*
X022324Y014330D01*
X022249Y014255D01*
X022024Y014255D01*
X022174Y014255D02*
X022324Y014105D01*
X022484Y014105D02*
X022784Y014405D01*
X022784Y014480D01*
X022709Y014555D01*
X022944Y014480D02*
X023019Y014555D01*
X023170Y014555D01*
X023245Y014480D01*
X023245Y014405D01*
X022944Y014105D01*
X023245Y014105D01*
X022784Y014105D02*
X022484Y014105D01*
X022324Y014480D02*
X022249Y014555D01*
X022024Y014555D01*
X022024Y014105D01*
X022244Y013151D02*
X022244Y012775D01*
X022319Y012700D01*
X022470Y012700D01*
X022545Y012775D01*
X022545Y013151D01*
X022705Y013076D02*
X022705Y013000D01*
X022780Y012925D01*
X022930Y012925D01*
X023005Y012850D01*
X023005Y012775D01*
X022930Y012700D01*
X022780Y012700D01*
X022705Y012775D01*
X022705Y012850D01*
X022780Y012925D01*
X022930Y012925D02*
X023005Y013000D01*
X023005Y013076D01*
X022930Y013151D01*
X022780Y013151D01*
X022705Y013076D01*
X024903Y012101D02*
X024903Y011875D01*
X025354Y011875D01*
X025203Y011875D02*
X025203Y012101D01*
X025128Y012176D01*
X024978Y012176D01*
X024903Y012101D01*
X024903Y011715D02*
X024978Y011565D01*
X025128Y011415D01*
X025128Y011640D01*
X025203Y011715D01*
X025279Y011715D01*
X025354Y011640D01*
X025354Y011490D01*
X025279Y011415D01*
X025128Y011415D01*
X025354Y011255D02*
X025354Y010955D01*
X025354Y011105D02*
X024903Y011105D01*
X025053Y010955D01*
X025128Y010334D02*
X025203Y010334D01*
X025203Y010034D01*
X025128Y010034D02*
X025053Y010109D01*
X025053Y010259D01*
X025128Y010334D01*
X025354Y010259D02*
X025354Y010109D01*
X025279Y010034D01*
X025128Y010034D01*
X025354Y009877D02*
X025354Y009727D01*
X025354Y009802D02*
X024903Y009802D01*
X024903Y009727D01*
X025128Y009567D02*
X025053Y009492D01*
X025053Y009267D01*
X024903Y009267D02*
X025354Y009267D01*
X025354Y009492D01*
X025279Y009567D01*
X025128Y009567D01*
X025128Y009106D02*
X025354Y009106D01*
X025354Y008881D01*
X025279Y008806D01*
X025203Y008881D01*
X025203Y009106D01*
X025128Y009106D02*
X025053Y009031D01*
X025053Y008881D01*
X024978Y008646D02*
X024903Y008571D01*
X024903Y008421D01*
X024978Y008346D01*
X025279Y008346D01*
X025354Y008421D01*
X025354Y008571D01*
X025279Y008646D01*
X025128Y008186D02*
X025128Y007885D01*
X025128Y007725D02*
X025203Y007650D01*
X025203Y007425D01*
X025203Y007575D02*
X025354Y007725D01*
X025128Y007725D02*
X024978Y007725D01*
X024903Y007650D01*
X024903Y007425D01*
X025354Y007425D01*
X020471Y010775D02*
X020171Y010775D01*
X020321Y010775D02*
X020321Y011225D01*
X020171Y011075D01*
X020011Y011150D02*
X019936Y011225D01*
X019786Y011225D01*
X019711Y011150D01*
X019711Y010850D01*
X019786Y010775D01*
X019936Y010775D01*
X020011Y010850D01*
X019554Y010775D02*
X019404Y010775D01*
X019479Y010775D02*
X019479Y011225D01*
X019404Y011225D02*
X019554Y011225D01*
X018876Y011684D02*
X018876Y011760D01*
X019176Y012060D01*
X019176Y012135D01*
X018876Y012135D01*
X018715Y012135D02*
X018715Y011760D01*
X018640Y011684D01*
X018490Y011684D01*
X018415Y011760D01*
X018415Y012135D01*
X016085Y011232D02*
X015785Y011232D01*
X015785Y011006D01*
X015935Y011082D01*
X016010Y011082D01*
X016085Y011006D01*
X016085Y010856D01*
X016010Y010781D01*
X015860Y010781D01*
X015785Y010856D01*
X015625Y010856D02*
X015625Y011232D01*
X015325Y011232D02*
X015325Y010856D01*
X015400Y010781D01*
X015550Y010781D01*
X015625Y010856D01*
X006544Y002636D02*
X005914Y002636D01*
X005914Y002164D01*
X006544Y002164D01*
X006544Y002636D01*
D14*
X010404Y009650D03*
X010404Y011150D03*
X012554Y011150D03*
X012554Y009650D03*
X019904Y013650D03*
X022054Y013650D03*
D15*
X018742Y014132D02*
X018742Y014439D01*
X018665Y014515D01*
X018511Y014515D01*
X018435Y014439D01*
X018435Y014362D01*
X018511Y014285D01*
X018742Y014285D01*
X018742Y014132D02*
X018665Y014055D01*
X018511Y014055D01*
X018435Y014132D01*
X018281Y014055D02*
X017974Y014055D01*
X018128Y014055D02*
X018128Y014515D01*
X017974Y014362D01*
X017821Y014439D02*
X017744Y014515D01*
X017591Y014515D01*
X017514Y014439D01*
X017514Y014132D01*
X017591Y014055D01*
X017744Y014055D01*
X017821Y014132D01*
X017579Y011784D02*
X017272Y011784D01*
X017119Y011707D02*
X017042Y011784D01*
X016888Y011784D01*
X016812Y011707D01*
X016812Y011400D01*
X016888Y011324D01*
X017042Y011324D01*
X017119Y011400D01*
X017272Y011400D02*
X017272Y011324D01*
X017272Y011400D02*
X017579Y011707D01*
X017579Y011784D01*
X013865Y011615D02*
X013558Y011615D01*
X013558Y011384D01*
X013711Y011461D01*
X013788Y011461D01*
X013865Y011384D01*
X013865Y011231D01*
X013788Y011154D01*
X013635Y011154D01*
X013558Y011231D01*
X013404Y011231D02*
X013328Y011154D01*
X013174Y011154D01*
X013097Y011231D01*
X013097Y011538D01*
X013174Y011615D01*
X013328Y011615D01*
X013404Y011538D01*
X011106Y011783D02*
X011047Y011724D01*
X010931Y011724D01*
X010872Y011783D01*
X010747Y011724D02*
X010630Y011841D01*
X010688Y011841D02*
X010513Y011841D01*
X010513Y011724D02*
X010513Y012075D01*
X010688Y012075D01*
X010747Y012016D01*
X010747Y011899D01*
X010688Y011841D01*
X010872Y012016D02*
X010931Y012075D01*
X011047Y012075D01*
X011106Y012016D01*
X011106Y011958D01*
X011047Y011899D01*
X011106Y011841D01*
X011106Y011783D01*
X011047Y011899D02*
X010989Y011899D01*
X010988Y009099D02*
X010813Y008924D01*
X011047Y008924D01*
X010988Y008749D02*
X010988Y009099D01*
X010688Y009040D02*
X010688Y008924D01*
X010629Y008865D01*
X010454Y008865D01*
X010454Y008749D02*
X010454Y009099D01*
X010629Y009099D01*
X010688Y009040D01*
X010571Y008865D02*
X010688Y008749D01*
X010766Y008380D02*
X010612Y008304D01*
X010459Y008150D01*
X010689Y008150D01*
X010766Y008073D01*
X010766Y007997D01*
X010689Y007920D01*
X010536Y007920D01*
X010459Y007997D01*
X010459Y008150D01*
X010306Y007997D02*
X010229Y007920D01*
X010075Y007920D01*
X009999Y007997D01*
X009999Y008304D01*
X010075Y008380D01*
X010229Y008380D01*
X010306Y008304D01*
X012964Y007528D02*
X012964Y007222D01*
X013041Y007145D01*
X013194Y007145D01*
X013271Y007222D01*
X013425Y007145D02*
X013732Y007145D01*
X013578Y007145D02*
X013578Y007605D01*
X013425Y007452D01*
X013271Y007528D02*
X013194Y007605D01*
X013041Y007605D01*
X012964Y007528D01*
X013885Y007605D02*
X013885Y007375D01*
X014039Y007452D01*
X014115Y007452D01*
X014192Y007375D01*
X014192Y007222D01*
X014115Y007145D01*
X013962Y007145D01*
X013885Y007222D01*
X013885Y007605D02*
X014192Y007605D01*
X016221Y006278D02*
X016221Y005972D01*
X016297Y005895D01*
X016451Y005895D01*
X016527Y005972D01*
X016681Y005895D02*
X016988Y005895D01*
X016834Y005895D02*
X016834Y006355D01*
X016681Y006202D01*
X016527Y006278D02*
X016451Y006355D01*
X016297Y006355D01*
X016221Y006278D01*
X017141Y006278D02*
X017141Y006202D01*
X017218Y006125D01*
X017372Y006125D01*
X017448Y006048D01*
X017448Y005972D01*
X017372Y005895D01*
X017218Y005895D01*
X017141Y005972D01*
X017141Y006048D01*
X017218Y006125D01*
X017372Y006125D02*
X017448Y006202D01*
X017448Y006278D01*
X017372Y006355D01*
X017218Y006355D01*
X017141Y006278D01*
X016990Y004946D02*
X016990Y004486D01*
X016837Y004486D02*
X017144Y004486D01*
X017297Y004486D02*
X017297Y004562D01*
X017604Y004869D01*
X017604Y004946D01*
X017297Y004946D01*
X016990Y004946D02*
X016837Y004793D01*
X016683Y004869D02*
X016607Y004946D01*
X016453Y004946D01*
X016377Y004869D01*
X016377Y004562D01*
X016453Y004486D01*
X016607Y004486D01*
X016683Y004562D01*
X017953Y002990D02*
X017877Y002913D01*
X017877Y002606D01*
X017953Y002529D01*
X018107Y002529D01*
X018183Y002606D01*
X018337Y002529D02*
X018644Y002529D01*
X018490Y002529D02*
X018490Y002990D01*
X018337Y002836D01*
X018183Y002913D02*
X018107Y002990D01*
X017953Y002990D01*
X018797Y002760D02*
X019028Y002760D01*
X019104Y002683D01*
X019104Y002606D01*
X019028Y002529D01*
X018874Y002529D01*
X018797Y002606D01*
X018797Y002760D01*
X018951Y002913D01*
X019104Y002990D01*
X019028Y001740D02*
X018797Y001510D01*
X019104Y001510D01*
X019028Y001740D02*
X019028Y001279D01*
X018644Y001279D02*
X018337Y001279D01*
X018490Y001279D02*
X018490Y001740D01*
X018337Y001586D01*
X018183Y001663D02*
X018107Y001740D01*
X017953Y001740D01*
X017877Y001663D01*
X017877Y001356D01*
X017953Y001279D01*
X018107Y001279D01*
X018183Y001356D01*
X013905Y002082D02*
X013665Y002082D01*
X013785Y002082D02*
X013785Y002442D01*
X013665Y002322D01*
X013537Y002382D02*
X013477Y002442D01*
X013357Y002442D01*
X013297Y002382D01*
X013297Y002322D01*
X013357Y002262D01*
X013477Y002262D01*
X013537Y002202D01*
X013537Y002142D01*
X013477Y002082D01*
X013357Y002082D01*
X013297Y002142D01*
X013169Y002142D02*
X013169Y002442D01*
X012929Y002442D02*
X012929Y002142D01*
X012989Y002082D01*
X013109Y002082D01*
X013169Y002142D01*
X013417Y002022D02*
X013417Y002502D01*
X011345Y001776D02*
X011038Y001776D01*
X010885Y001776D02*
X010578Y001776D01*
X010731Y001776D02*
X010731Y002237D01*
X010578Y002083D01*
X010424Y002160D02*
X010348Y002237D01*
X010194Y002237D01*
X010117Y002160D01*
X010117Y001853D01*
X010194Y001776D01*
X010348Y001776D01*
X010424Y001853D01*
X011038Y002083D02*
X011192Y002237D01*
X011192Y001776D01*
X010725Y003439D02*
X010571Y003439D01*
X010495Y003516D01*
X010801Y003823D01*
X010801Y003516D01*
X010725Y003439D01*
X010495Y003516D02*
X010495Y003823D01*
X010571Y003899D01*
X010725Y003899D01*
X010801Y003823D01*
X010438Y004262D02*
X010438Y004569D01*
X010361Y004646D01*
X010208Y004646D01*
X010131Y004569D01*
X010131Y004493D01*
X010208Y004416D01*
X010438Y004416D01*
X010438Y004262D02*
X010361Y004186D01*
X010208Y004186D01*
X010131Y004262D01*
X009978Y004262D02*
X009901Y004186D01*
X009747Y004186D01*
X009671Y004262D01*
X009671Y004569D01*
X009747Y004646D01*
X009901Y004646D01*
X009978Y004569D01*
X009857Y005133D02*
X009933Y005209D01*
X009857Y005133D02*
X009703Y005133D01*
X009627Y005209D01*
X009627Y005516D01*
X009703Y005593D01*
X009857Y005593D01*
X009933Y005516D01*
X010087Y005516D02*
X010087Y005440D01*
X010164Y005363D01*
X010317Y005363D01*
X010394Y005286D01*
X010394Y005209D01*
X010317Y005133D01*
X010164Y005133D01*
X010087Y005209D01*
X010087Y005286D01*
X010164Y005363D01*
X010317Y005363D02*
X010394Y005440D01*
X010394Y005516D01*
X010317Y005593D01*
X010164Y005593D01*
X010087Y005516D01*
X010188Y003899D02*
X010188Y003439D01*
X010341Y003439D02*
X010034Y003439D01*
X009881Y003516D02*
X009804Y003439D01*
X009651Y003439D01*
X009574Y003516D01*
X009574Y003823D01*
X009651Y003899D01*
X009804Y003899D01*
X009881Y003823D01*
X010034Y003746D02*
X010188Y003899D01*
X007717Y001944D02*
X007640Y002021D01*
X007487Y002021D01*
X007410Y001944D01*
X007717Y001944D02*
X007717Y001867D01*
X007410Y001561D01*
X007717Y001561D01*
X007257Y001561D02*
X006950Y001561D01*
X007103Y001561D02*
X007103Y002021D01*
X006950Y001867D01*
X006796Y001944D02*
X006720Y002021D01*
X006566Y002021D01*
X006489Y001944D01*
X006489Y001637D01*
X006566Y001561D01*
X006720Y001561D01*
X006796Y001637D01*
X005608Y002388D02*
X005301Y002388D01*
X005532Y002619D01*
X005532Y002158D01*
X005148Y002235D02*
X005148Y002542D01*
X005071Y002619D01*
X004841Y002619D01*
X004841Y002158D01*
X005071Y002158D01*
X005148Y002235D01*
X005408Y007650D02*
X005715Y008110D01*
X005868Y007880D02*
X006175Y007880D01*
X006098Y007650D02*
X006098Y008110D01*
X005868Y007880D01*
X005715Y007650D02*
X005408Y008110D01*
X005900Y015298D02*
X006130Y015298D01*
X006207Y015375D01*
X006207Y015682D01*
X006130Y015758D01*
X005900Y015758D01*
X005900Y015298D01*
X006360Y015375D02*
X006437Y015298D01*
X006590Y015298D01*
X006667Y015375D01*
X006667Y015451D01*
X006590Y015528D01*
X006514Y015528D01*
X006590Y015528D02*
X006667Y015605D01*
X006667Y015682D01*
X006590Y015758D01*
X006437Y015758D01*
X006360Y015682D01*
X006456Y016817D02*
X006763Y017124D01*
X006763Y017201D01*
X006686Y017277D01*
X006533Y017277D01*
X006456Y017201D01*
X006302Y017201D02*
X006302Y016894D01*
X006226Y016817D01*
X005995Y016817D01*
X005995Y017277D01*
X006226Y017277D01*
X006302Y017201D01*
X006456Y016817D02*
X006763Y016817D01*
X007805Y020070D02*
X007959Y020070D01*
X008036Y020147D01*
X008189Y020070D02*
X008496Y020070D01*
X008342Y020070D02*
X008342Y020530D01*
X008189Y020377D01*
X008036Y020454D02*
X007959Y020530D01*
X007805Y020530D01*
X007729Y020454D01*
X007729Y020147D01*
X007805Y020070D01*
X008829Y020558D02*
X008829Y020865D01*
X008906Y020941D01*
X009059Y020941D01*
X009136Y020865D01*
X009290Y020865D02*
X009366Y020941D01*
X009520Y020941D01*
X009597Y020865D01*
X009597Y020788D01*
X009290Y020481D01*
X009597Y020481D01*
X009136Y020558D02*
X009059Y020481D01*
X008906Y020481D01*
X008829Y020558D01*
X010700Y019341D02*
X010700Y019034D01*
X010777Y018957D01*
X010930Y018957D01*
X011007Y019034D01*
X011160Y019188D02*
X011467Y019188D01*
X011390Y019418D02*
X011390Y018957D01*
X011160Y019188D02*
X011390Y019418D01*
X011007Y019341D02*
X010930Y019418D01*
X010777Y019418D01*
X010700Y019341D01*
X014128Y018930D02*
X014128Y018470D01*
X014128Y018623D02*
X014358Y018623D01*
X014435Y018700D01*
X014435Y018854D01*
X014358Y018930D01*
X014128Y018930D01*
X014588Y018777D02*
X014742Y018930D01*
X014742Y018470D01*
X014895Y018470D02*
X014588Y018470D01*
X014435Y018470D02*
X014281Y018623D01*
X015328Y018547D02*
X015405Y018470D01*
X015558Y018470D01*
X015635Y018547D01*
X015788Y018547D02*
X015865Y018470D01*
X016018Y018470D01*
X016095Y018547D01*
X016095Y018623D01*
X016018Y018700D01*
X015942Y018700D01*
X016018Y018700D02*
X016095Y018777D01*
X016095Y018854D01*
X016018Y018930D01*
X015865Y018930D01*
X015788Y018854D01*
X015635Y018854D02*
X015558Y018930D01*
X015405Y018930D01*
X015328Y018854D01*
X015328Y018547D01*
X016792Y018699D02*
X016792Y018238D01*
X017099Y018238D01*
X017253Y018238D02*
X017560Y018238D01*
X017406Y018238D02*
X017406Y018699D01*
X017253Y018545D01*
X015094Y021875D02*
X014787Y021875D01*
X015094Y022182D01*
X015094Y022259D01*
X015017Y022336D01*
X014864Y022336D01*
X014787Y022259D01*
X014634Y022259D02*
X014634Y022105D01*
X014557Y022029D01*
X014327Y022029D01*
X014480Y022029D02*
X014634Y021875D01*
X014327Y021875D02*
X014327Y022336D01*
X014557Y022336D01*
X014634Y022259D01*
X019611Y022198D02*
X019611Y022658D01*
X019841Y022658D01*
X019918Y022582D01*
X019918Y022428D01*
X019841Y022351D01*
X019611Y022351D01*
X019765Y022351D02*
X019918Y022198D01*
X020071Y022198D02*
X020378Y022198D01*
X020225Y022198D02*
X020225Y022658D01*
X020071Y022505D01*
X020532Y022428D02*
X020685Y022505D01*
X020762Y022505D01*
X020839Y022428D01*
X020839Y022275D01*
X020762Y022198D01*
X020609Y022198D01*
X020532Y022275D01*
X020532Y022428D02*
X020532Y022658D01*
X020839Y022658D01*
D16*
X020229Y016650D03*
D17*
X014537Y005562D02*
X012920Y005562D01*
X012920Y002738D01*
X014537Y002738D01*
X014537Y005562D01*
D18*
X006990Y007473D02*
X006990Y003024D01*
X001518Y003024D01*
X001518Y007473D01*
X006990Y007473D01*
X001479Y006292D02*
X000140Y006292D01*
X000140Y004008D01*
X001479Y004008D01*
D19*
X004189Y007650D02*
X004189Y007750D01*
X001784Y007750D01*
X000918Y008469D01*
X000918Y010831D01*
X001744Y011550D01*
X004189Y011550D01*
X004189Y011650D01*
X004819Y011650D01*
X004819Y011028D01*
X004107Y011028D01*
X004107Y008272D01*
X004819Y008272D01*
X004819Y007650D01*
X004189Y007650D01*
X004819Y008272D02*
X004819Y011028D01*
X004819Y012150D02*
X004189Y012150D01*
X004189Y012250D01*
X001784Y012250D01*
X000918Y012969D01*
X000918Y015331D01*
X001744Y016050D01*
X004189Y016050D01*
X004189Y016150D01*
X004819Y016150D01*
X004819Y015528D01*
X004107Y015528D01*
X004107Y012772D01*
X004819Y012772D01*
X004819Y012150D01*
X004819Y012772D02*
X004819Y015528D01*
X004819Y016650D02*
X004189Y016650D01*
X004189Y016750D01*
X001784Y016750D01*
X000918Y017469D01*
X000918Y019831D01*
X001744Y020550D01*
X004189Y020550D01*
X004189Y020650D01*
X004819Y020650D01*
X004819Y020028D01*
X004107Y020028D01*
X004107Y017272D01*
X004819Y017272D01*
X004819Y016650D01*
X004819Y017272D02*
X004819Y020028D01*
X001784Y018886D02*
X001784Y018414D01*
X001547Y018414D01*
X001547Y018886D01*
X001784Y018886D01*
X001547Y018886D02*
X001154Y018886D01*
X001154Y018414D01*
X001547Y018414D01*
X001547Y014386D02*
X001154Y014386D01*
X001154Y013914D01*
X001547Y013914D01*
X001547Y014386D01*
X001784Y014386D01*
X001784Y013914D01*
X001547Y013914D01*
X001547Y009886D02*
X001154Y009886D01*
X001154Y009414D01*
X001547Y009414D01*
X001547Y009886D01*
X001784Y009886D01*
X001784Y009414D01*
X001547Y009414D01*
X024888Y005309D02*
X024888Y004687D01*
X025601Y004687D01*
X025601Y003113D01*
X024888Y003113D01*
X024888Y004687D01*
X024888Y005309D02*
X025518Y005309D01*
X025518Y005209D01*
X027923Y005209D01*
X028790Y004491D01*
X028790Y003309D01*
X027963Y002591D01*
X025518Y002591D01*
X025518Y002491D01*
X024888Y002491D01*
X024888Y003113D01*
X027923Y003664D02*
X028160Y003664D01*
X028160Y004136D01*
X028553Y004136D01*
X028553Y003664D01*
X028160Y003664D01*
X027923Y003664D02*
X027923Y004136D01*
X028160Y004136D01*
X028213Y018341D02*
X025768Y018341D01*
X025768Y018241D01*
X025138Y018241D01*
X025138Y018863D01*
X025851Y018863D01*
X025851Y020437D01*
X025138Y020437D01*
X025138Y021059D01*
X025768Y021059D01*
X025768Y020959D01*
X028173Y020959D01*
X029040Y020241D01*
X029040Y019059D01*
X028213Y018341D01*
X028173Y019414D02*
X028410Y019414D01*
X028410Y019886D01*
X028803Y019886D01*
X028803Y019414D01*
X028410Y019414D01*
X028173Y019414D02*
X028173Y019886D01*
X028410Y019886D01*
X025138Y020437D02*
X025138Y018863D01*
D20*
X006729Y020700D03*
D21*
X006729Y021325D03*
X006729Y018975D03*
D22*
X028019Y007650D03*
D23*
X027944Y007575D03*
X027944Y007725D03*
D24*
X028099Y007650D03*
D25*
X028146Y016335D02*
X027725Y016335D01*
X027936Y016335D02*
X027936Y016966D01*
X027725Y016756D01*
X027501Y016966D02*
X027501Y016335D01*
X027081Y016966D01*
X027081Y016335D01*
X026857Y016441D02*
X026857Y016861D01*
X026751Y016966D01*
X026541Y016966D01*
X026436Y016861D01*
X026436Y016441D01*
X026541Y016335D01*
X026751Y016335D01*
X026857Y016441D01*
X026212Y016441D02*
X026107Y016335D01*
X025897Y016335D01*
X025792Y016441D01*
X025792Y016861D01*
X025897Y016966D01*
X026107Y016966D01*
X026212Y016861D01*
M02*
