G75*
G70*
%OFA0B0*%
%FSLAX24Y24*%
%IPPOS*%
%LPD*%
%AMOC8*
5,1,8,0,0,1.08239X$1,22.5*
%
%ADD10C,0.0000*%
D10*
X000260Y001681D02*
X000260Y017822D01*
X027819Y017822D01*
X027819Y001681D01*
X000260Y001681D01*
X000811Y002862D02*
X000813Y002912D01*
X000819Y002962D01*
X000829Y003011D01*
X000843Y003059D01*
X000860Y003106D01*
X000881Y003151D01*
X000906Y003195D01*
X000934Y003236D01*
X000966Y003275D01*
X001000Y003312D01*
X001037Y003346D01*
X001077Y003376D01*
X001119Y003403D01*
X001163Y003427D01*
X001209Y003448D01*
X001256Y003464D01*
X001304Y003477D01*
X001354Y003486D01*
X001403Y003491D01*
X001454Y003492D01*
X001504Y003489D01*
X001553Y003482D01*
X001602Y003471D01*
X001650Y003456D01*
X001696Y003438D01*
X001741Y003416D01*
X001784Y003390D01*
X001825Y003361D01*
X001864Y003329D01*
X001900Y003294D01*
X001932Y003256D01*
X001962Y003216D01*
X001989Y003173D01*
X002012Y003129D01*
X002031Y003083D01*
X002047Y003035D01*
X002059Y002986D01*
X002067Y002937D01*
X002071Y002887D01*
X002071Y002837D01*
X002067Y002787D01*
X002059Y002738D01*
X002047Y002689D01*
X002031Y002641D01*
X002012Y002595D01*
X001989Y002551D01*
X001962Y002508D01*
X001932Y002468D01*
X001900Y002430D01*
X001864Y002395D01*
X001825Y002363D01*
X001784Y002334D01*
X001741Y002308D01*
X001696Y002286D01*
X001650Y002268D01*
X001602Y002253D01*
X001553Y002242D01*
X001504Y002235D01*
X001454Y002232D01*
X001403Y002233D01*
X001354Y002238D01*
X001304Y002247D01*
X001256Y002260D01*
X001209Y002276D01*
X001163Y002297D01*
X001119Y002321D01*
X001077Y002348D01*
X001037Y002378D01*
X001000Y002412D01*
X000966Y002449D01*
X000934Y002488D01*
X000906Y002529D01*
X000881Y002573D01*
X000860Y002618D01*
X000843Y002665D01*
X000829Y002713D01*
X000819Y002762D01*
X000813Y002812D01*
X000811Y002862D01*
X001669Y006181D02*
X001671Y006229D01*
X001677Y006277D01*
X001687Y006324D01*
X001700Y006370D01*
X001718Y006415D01*
X001738Y006459D01*
X001763Y006501D01*
X001791Y006540D01*
X001821Y006577D01*
X001855Y006611D01*
X001892Y006643D01*
X001930Y006672D01*
X001971Y006697D01*
X002014Y006719D01*
X002059Y006737D01*
X002105Y006751D01*
X002152Y006762D01*
X002200Y006769D01*
X002248Y006772D01*
X002296Y006771D01*
X002344Y006766D01*
X002392Y006757D01*
X002438Y006745D01*
X002483Y006728D01*
X002527Y006708D01*
X002569Y006685D01*
X002609Y006658D01*
X002647Y006628D01*
X002682Y006595D01*
X002714Y006559D01*
X002744Y006521D01*
X002770Y006480D01*
X002792Y006437D01*
X002812Y006393D01*
X002827Y006348D01*
X002839Y006301D01*
X002847Y006253D01*
X002851Y006205D01*
X002851Y006157D01*
X002847Y006109D01*
X002839Y006061D01*
X002827Y006014D01*
X002812Y005969D01*
X002792Y005925D01*
X002770Y005882D01*
X002744Y005841D01*
X002714Y005803D01*
X002682Y005767D01*
X002647Y005734D01*
X002609Y005704D01*
X002569Y005677D01*
X002527Y005654D01*
X002483Y005634D01*
X002438Y005617D01*
X002392Y005605D01*
X002344Y005596D01*
X002296Y005591D01*
X002248Y005590D01*
X002200Y005593D01*
X002152Y005600D01*
X002105Y005611D01*
X002059Y005625D01*
X002014Y005643D01*
X001971Y005665D01*
X001930Y005690D01*
X001892Y005719D01*
X001855Y005751D01*
X001821Y005785D01*
X001791Y005822D01*
X001763Y005861D01*
X001738Y005903D01*
X001718Y005947D01*
X001700Y005992D01*
X001687Y006038D01*
X001677Y006085D01*
X001671Y006133D01*
X001669Y006181D01*
X000811Y016641D02*
X000813Y016691D01*
X000819Y016741D01*
X000829Y016790D01*
X000843Y016838D01*
X000860Y016885D01*
X000881Y016930D01*
X000906Y016974D01*
X000934Y017015D01*
X000966Y017054D01*
X001000Y017091D01*
X001037Y017125D01*
X001077Y017155D01*
X001119Y017182D01*
X001163Y017206D01*
X001209Y017227D01*
X001256Y017243D01*
X001304Y017256D01*
X001354Y017265D01*
X001403Y017270D01*
X001454Y017271D01*
X001504Y017268D01*
X001553Y017261D01*
X001602Y017250D01*
X001650Y017235D01*
X001696Y017217D01*
X001741Y017195D01*
X001784Y017169D01*
X001825Y017140D01*
X001864Y017108D01*
X001900Y017073D01*
X001932Y017035D01*
X001962Y016995D01*
X001989Y016952D01*
X002012Y016908D01*
X002031Y016862D01*
X002047Y016814D01*
X002059Y016765D01*
X002067Y016716D01*
X002071Y016666D01*
X002071Y016616D01*
X002067Y016566D01*
X002059Y016517D01*
X002047Y016468D01*
X002031Y016420D01*
X002012Y016374D01*
X001989Y016330D01*
X001962Y016287D01*
X001932Y016247D01*
X001900Y016209D01*
X001864Y016174D01*
X001825Y016142D01*
X001784Y016113D01*
X001741Y016087D01*
X001696Y016065D01*
X001650Y016047D01*
X001602Y016032D01*
X001553Y016021D01*
X001504Y016014D01*
X001454Y016011D01*
X001403Y016012D01*
X001354Y016017D01*
X001304Y016026D01*
X001256Y016039D01*
X001209Y016055D01*
X001163Y016076D01*
X001119Y016100D01*
X001077Y016127D01*
X001037Y016157D01*
X001000Y016191D01*
X000966Y016228D01*
X000934Y016267D01*
X000906Y016308D01*
X000881Y016352D01*
X000860Y016397D01*
X000843Y016444D01*
X000829Y016492D01*
X000819Y016541D01*
X000813Y016591D01*
X000811Y016641D01*
X025169Y009181D02*
X025171Y009229D01*
X025177Y009277D01*
X025187Y009324D01*
X025200Y009370D01*
X025218Y009415D01*
X025238Y009459D01*
X025263Y009501D01*
X025291Y009540D01*
X025321Y009577D01*
X025355Y009611D01*
X025392Y009643D01*
X025430Y009672D01*
X025471Y009697D01*
X025514Y009719D01*
X025559Y009737D01*
X025605Y009751D01*
X025652Y009762D01*
X025700Y009769D01*
X025748Y009772D01*
X025796Y009771D01*
X025844Y009766D01*
X025892Y009757D01*
X025938Y009745D01*
X025983Y009728D01*
X026027Y009708D01*
X026069Y009685D01*
X026109Y009658D01*
X026147Y009628D01*
X026182Y009595D01*
X026214Y009559D01*
X026244Y009521D01*
X026270Y009480D01*
X026292Y009437D01*
X026312Y009393D01*
X026327Y009348D01*
X026339Y009301D01*
X026347Y009253D01*
X026351Y009205D01*
X026351Y009157D01*
X026347Y009109D01*
X026339Y009061D01*
X026327Y009014D01*
X026312Y008969D01*
X026292Y008925D01*
X026270Y008882D01*
X026244Y008841D01*
X026214Y008803D01*
X026182Y008767D01*
X026147Y008734D01*
X026109Y008704D01*
X026069Y008677D01*
X026027Y008654D01*
X025983Y008634D01*
X025938Y008617D01*
X025892Y008605D01*
X025844Y008596D01*
X025796Y008591D01*
X025748Y008590D01*
X025700Y008593D01*
X025652Y008600D01*
X025605Y008611D01*
X025559Y008625D01*
X025514Y008643D01*
X025471Y008665D01*
X025430Y008690D01*
X025392Y008719D01*
X025355Y008751D01*
X025321Y008785D01*
X025291Y008822D01*
X025263Y008861D01*
X025238Y008903D01*
X025218Y008947D01*
X025200Y008992D01*
X025187Y009038D01*
X025177Y009085D01*
X025171Y009133D01*
X025169Y009181D01*
X026008Y003256D02*
X026010Y003306D01*
X026016Y003356D01*
X026026Y003405D01*
X026040Y003453D01*
X026057Y003500D01*
X026078Y003545D01*
X026103Y003589D01*
X026131Y003630D01*
X026163Y003669D01*
X026197Y003706D01*
X026234Y003740D01*
X026274Y003770D01*
X026316Y003797D01*
X026360Y003821D01*
X026406Y003842D01*
X026453Y003858D01*
X026501Y003871D01*
X026551Y003880D01*
X026600Y003885D01*
X026651Y003886D01*
X026701Y003883D01*
X026750Y003876D01*
X026799Y003865D01*
X026847Y003850D01*
X026893Y003832D01*
X026938Y003810D01*
X026981Y003784D01*
X027022Y003755D01*
X027061Y003723D01*
X027097Y003688D01*
X027129Y003650D01*
X027159Y003610D01*
X027186Y003567D01*
X027209Y003523D01*
X027228Y003477D01*
X027244Y003429D01*
X027256Y003380D01*
X027264Y003331D01*
X027268Y003281D01*
X027268Y003231D01*
X027264Y003181D01*
X027256Y003132D01*
X027244Y003083D01*
X027228Y003035D01*
X027209Y002989D01*
X027186Y002945D01*
X027159Y002902D01*
X027129Y002862D01*
X027097Y002824D01*
X027061Y002789D01*
X027022Y002757D01*
X026981Y002728D01*
X026938Y002702D01*
X026893Y002680D01*
X026847Y002662D01*
X026799Y002647D01*
X026750Y002636D01*
X026701Y002629D01*
X026651Y002626D01*
X026600Y002627D01*
X026551Y002632D01*
X026501Y002641D01*
X026453Y002654D01*
X026406Y002670D01*
X026360Y002691D01*
X026316Y002715D01*
X026274Y002742D01*
X026234Y002772D01*
X026197Y002806D01*
X026163Y002843D01*
X026131Y002882D01*
X026103Y002923D01*
X026078Y002967D01*
X026057Y003012D01*
X026040Y003059D01*
X026026Y003107D01*
X026016Y003156D01*
X026010Y003206D01*
X026008Y003256D01*
X026008Y016641D02*
X026010Y016691D01*
X026016Y016741D01*
X026026Y016790D01*
X026040Y016838D01*
X026057Y016885D01*
X026078Y016930D01*
X026103Y016974D01*
X026131Y017015D01*
X026163Y017054D01*
X026197Y017091D01*
X026234Y017125D01*
X026274Y017155D01*
X026316Y017182D01*
X026360Y017206D01*
X026406Y017227D01*
X026453Y017243D01*
X026501Y017256D01*
X026551Y017265D01*
X026600Y017270D01*
X026651Y017271D01*
X026701Y017268D01*
X026750Y017261D01*
X026799Y017250D01*
X026847Y017235D01*
X026893Y017217D01*
X026938Y017195D01*
X026981Y017169D01*
X027022Y017140D01*
X027061Y017108D01*
X027097Y017073D01*
X027129Y017035D01*
X027159Y016995D01*
X027186Y016952D01*
X027209Y016908D01*
X027228Y016862D01*
X027244Y016814D01*
X027256Y016765D01*
X027264Y016716D01*
X027268Y016666D01*
X027268Y016616D01*
X027264Y016566D01*
X027256Y016517D01*
X027244Y016468D01*
X027228Y016420D01*
X027209Y016374D01*
X027186Y016330D01*
X027159Y016287D01*
X027129Y016247D01*
X027097Y016209D01*
X027061Y016174D01*
X027022Y016142D01*
X026981Y016113D01*
X026938Y016087D01*
X026893Y016065D01*
X026847Y016047D01*
X026799Y016032D01*
X026750Y016021D01*
X026701Y016014D01*
X026651Y016011D01*
X026600Y016012D01*
X026551Y016017D01*
X026501Y016026D01*
X026453Y016039D01*
X026406Y016055D01*
X026360Y016076D01*
X026316Y016100D01*
X026274Y016127D01*
X026234Y016157D01*
X026197Y016191D01*
X026163Y016228D01*
X026131Y016267D01*
X026103Y016308D01*
X026078Y016352D01*
X026057Y016397D01*
X026040Y016444D01*
X026026Y016492D01*
X026016Y016541D01*
X026010Y016591D01*
X026008Y016641D01*
M02*
