G75*
G70*
%OFA0B0*%
%FSLAX24Y24*%
%IPPOS*%
%LPD*%
%AMOC8*
5,1,8,0,0,1.08239X$1,22.5*
%
%ADD10C,0.0660*%
%ADD11OC8,0.0520*%
%ADD12R,0.0602X0.0602*%
%ADD13C,0.0602*%
%ADD14C,0.0320*%
%ADD15C,0.0100*%
%ADD16C,0.0400*%
D10*
X001260Y009074D03*
X005260Y009074D03*
D11*
X006260Y007681D03*
X006260Y006681D03*
X009260Y006681D03*
X009260Y007681D03*
D12*
X003961Y005590D03*
X024059Y010362D03*
D13*
X022878Y010362D03*
X022878Y009181D03*
X024059Y009181D03*
X024059Y008000D03*
X022878Y008000D03*
X005142Y006771D03*
X003961Y006771D03*
X005142Y005590D03*
D14*
X002550Y002403D02*
X002457Y002241D01*
X026016Y002241D01*
X025907Y002303D01*
X025686Y002525D01*
X025529Y002796D01*
X025448Y003099D01*
X025448Y003412D01*
X025529Y003715D01*
X025686Y003986D01*
X025907Y004208D01*
X026179Y004364D01*
X026481Y004445D01*
X026795Y004445D01*
X027097Y004364D01*
X027259Y004271D01*
X027259Y015626D01*
X027097Y015533D01*
X026795Y015451D01*
X026481Y015451D01*
X026179Y015533D01*
X025907Y015689D01*
X025686Y015911D01*
X025529Y016182D01*
X025448Y016485D01*
X025448Y016798D01*
X025529Y017101D01*
X025623Y017262D01*
X002457Y017262D01*
X002550Y017101D01*
X002631Y016798D01*
X002631Y016485D01*
X002550Y016182D01*
X002393Y015911D01*
X002172Y015689D01*
X001900Y015533D01*
X001598Y015451D01*
X001284Y015451D01*
X000982Y015533D01*
X000820Y015626D01*
X000820Y009441D01*
X000937Y009558D01*
X001147Y009644D01*
X001373Y009644D01*
X001583Y009558D01*
X001743Y009397D01*
X001830Y009188D01*
X001830Y008961D01*
X001743Y008752D01*
X001583Y008591D01*
X001373Y008504D01*
X001147Y008504D01*
X000937Y008591D01*
X000820Y008708D01*
X000820Y003877D01*
X000982Y003971D01*
X001284Y004052D01*
X001598Y004052D01*
X001900Y003971D01*
X002172Y003814D01*
X002393Y003592D01*
X002550Y003321D01*
X002631Y003018D01*
X002631Y002705D01*
X002550Y002403D01*
X002501Y002318D02*
X025893Y002318D01*
X025622Y002636D02*
X002613Y002636D01*
X002631Y002955D02*
X025487Y002955D01*
X025448Y003273D02*
X002563Y003273D01*
X002394Y003592D02*
X025496Y003592D01*
X025642Y003910D02*
X002005Y003910D01*
X000877Y003910D02*
X000820Y003910D01*
X000820Y004229D02*
X025944Y004229D01*
X027259Y004547D02*
X000820Y004547D01*
X000820Y004866D02*
X027259Y004866D01*
X027259Y005184D02*
X005501Y005184D01*
X005448Y005131D02*
X005601Y005284D01*
X005683Y005483D01*
X005683Y005698D01*
X005601Y005897D01*
X005448Y006049D01*
X005250Y006131D01*
X005034Y006131D01*
X004835Y006049D01*
X004683Y005897D01*
X004601Y005698D01*
X004601Y005483D01*
X004683Y005284D01*
X004835Y005131D01*
X005034Y005049D01*
X005250Y005049D01*
X005448Y005131D01*
X005683Y005503D02*
X027259Y005503D01*
X027259Y005821D02*
X005632Y005821D01*
X005448Y006312D02*
X005601Y006465D01*
X005683Y006664D01*
X005683Y006879D01*
X005601Y007078D01*
X005448Y007230D01*
X005250Y007312D01*
X005034Y007312D01*
X004835Y007230D01*
X004683Y007078D01*
X004601Y006879D01*
X004601Y006664D01*
X004683Y006465D01*
X004835Y006312D01*
X005034Y006230D01*
X005250Y006230D01*
X005448Y006312D01*
X005594Y006458D02*
X005775Y006458D01*
X005760Y006474D02*
X006053Y006181D01*
X006467Y006181D01*
X006760Y006474D01*
X006760Y006888D01*
X006467Y007181D01*
X006760Y007474D01*
X006760Y007888D01*
X006467Y008181D01*
X006053Y008181D01*
X005760Y007888D01*
X005760Y007474D01*
X006053Y007181D01*
X006467Y007181D01*
X006053Y007181D01*
X005760Y006888D01*
X005760Y006474D01*
X005760Y006777D02*
X005683Y006777D01*
X005583Y007095D02*
X005967Y007095D01*
X005820Y007414D02*
X000820Y007414D01*
X000820Y007732D02*
X005760Y007732D01*
X005923Y008051D02*
X000820Y008051D01*
X000820Y008369D02*
X007541Y008369D01*
X007564Y008426D02*
X007497Y008264D01*
X007497Y008147D01*
X007376Y008026D01*
X007259Y008026D01*
X007097Y007959D01*
X006974Y007835D01*
X006907Y007674D01*
X006907Y007499D01*
X006974Y007337D01*
X007097Y007213D01*
X007259Y007146D01*
X007434Y007146D01*
X007596Y007213D01*
X007720Y007337D01*
X007787Y007499D01*
X007787Y007616D01*
X007907Y007737D01*
X008025Y007737D01*
X008186Y007804D01*
X008310Y007928D01*
X008377Y008089D01*
X008377Y008264D01*
X008310Y008426D01*
X008186Y008550D01*
X008025Y008617D01*
X007850Y008617D01*
X007688Y008550D01*
X007564Y008426D01*
X007401Y008051D02*
X006597Y008051D01*
X006760Y007732D02*
X006931Y007732D01*
X006942Y007414D02*
X006700Y007414D01*
X006553Y007095D02*
X008967Y007095D01*
X009053Y007181D02*
X009467Y007181D01*
X009760Y007474D01*
X009760Y007888D01*
X009467Y008181D01*
X009053Y008181D01*
X008760Y007888D01*
X008760Y007474D01*
X009053Y007181D01*
X008760Y006888D01*
X008760Y006474D01*
X009053Y006181D01*
X009467Y006181D01*
X009760Y006474D01*
X009760Y006888D01*
X009467Y007181D01*
X009053Y007181D01*
X008820Y007414D02*
X007751Y007414D01*
X007903Y007732D02*
X008760Y007732D01*
X008923Y008051D02*
X008361Y008051D01*
X008334Y008369D02*
X012276Y008369D01*
X012215Y008394D02*
X012377Y008327D01*
X012552Y008327D01*
X012714Y008394D01*
X012838Y008518D01*
X012905Y008680D01*
X012905Y008855D01*
X012860Y008962D01*
X012968Y008918D01*
X013143Y008918D01*
X013305Y008985D01*
X013428Y009109D01*
X013495Y009270D01*
X013495Y009445D01*
X013428Y009607D01*
X013345Y009690D01*
X013345Y010207D01*
X013428Y010290D01*
X013495Y010451D01*
X013495Y010626D01*
X013428Y010788D01*
X013305Y010912D01*
X013143Y010979D01*
X012968Y010979D01*
X012806Y010912D01*
X012682Y010788D01*
X012615Y010626D01*
X012615Y010451D01*
X012682Y010290D01*
X012765Y010207D01*
X012765Y009690D01*
X012682Y009607D01*
X012615Y009445D01*
X012615Y009270D01*
X012660Y009163D01*
X012552Y009207D01*
X012435Y009207D01*
X010015Y011627D01*
X010554Y011627D01*
X010660Y011671D01*
X010742Y011753D01*
X011844Y012855D01*
X011962Y012855D01*
X012123Y012922D01*
X012247Y013046D01*
X012314Y013207D01*
X012314Y013382D01*
X012247Y013544D01*
X012123Y013668D01*
X011962Y013735D01*
X011787Y013735D01*
X011625Y013668D01*
X011501Y013544D01*
X011434Y013382D01*
X011434Y013265D01*
X010376Y012207D01*
X009057Y012207D01*
X008974Y012290D01*
X008812Y012357D01*
X008637Y012357D01*
X008475Y012290D01*
X008352Y012166D01*
X008285Y012004D01*
X008285Y011829D01*
X008291Y011813D01*
X008178Y011813D01*
X008113Y011969D01*
X008067Y012015D01*
X008113Y012061D01*
X008180Y012223D01*
X008180Y012341D01*
X008695Y012855D01*
X008812Y012855D01*
X008974Y012922D01*
X009098Y013046D01*
X009165Y013207D01*
X009165Y013382D01*
X009098Y013544D01*
X008974Y013668D01*
X008812Y013735D01*
X008637Y013735D01*
X008475Y013668D01*
X008352Y013544D01*
X008285Y013382D01*
X008285Y013265D01*
X007770Y012751D01*
X007653Y012751D01*
X007491Y012684D01*
X007367Y012560D01*
X007300Y012398D01*
X007300Y012223D01*
X007367Y012061D01*
X007413Y012015D01*
X007367Y011969D01*
X007300Y011808D01*
X007300Y011633D01*
X007367Y011471D01*
X007491Y011347D01*
X007653Y011280D01*
X007770Y011280D01*
X007773Y011277D01*
X007879Y011233D01*
X009589Y011233D01*
X012025Y008797D01*
X012025Y008680D01*
X012092Y008518D01*
X012215Y008394D01*
X012653Y008369D02*
X020327Y008369D01*
X020645Y008051D02*
X009597Y008051D01*
X009760Y007732D02*
X020964Y007732D01*
X021282Y007414D02*
X009700Y007414D01*
X009553Y007095D02*
X021601Y007095D01*
X021867Y006829D02*
X021867Y006711D01*
X021934Y006550D01*
X022058Y006426D01*
X022220Y006359D01*
X022395Y006359D01*
X022556Y006426D01*
X022680Y006550D01*
X022747Y006711D01*
X022747Y006886D01*
X022680Y007048D01*
X022556Y007172D01*
X022395Y007239D01*
X022277Y007239D01*
X019991Y009525D01*
X019991Y009642D01*
X019924Y009804D01*
X019801Y009928D01*
X019639Y009995D01*
X019464Y009995D01*
X019302Y009928D01*
X019178Y009804D01*
X019111Y009642D01*
X019111Y009467D01*
X019178Y009305D01*
X019302Y009182D01*
X019464Y009115D01*
X019581Y009115D01*
X021867Y006829D01*
X021867Y006777D02*
X009760Y006777D01*
X009745Y006458D02*
X022026Y006458D01*
X022589Y006458D02*
X027259Y006458D01*
X027259Y006140D02*
X004342Y006140D01*
X004338Y006141D02*
X004288Y006151D01*
X003961Y006151D01*
X003961Y005590D01*
X003961Y005590D01*
X004522Y005590D01*
X004522Y005263D01*
X004512Y005213D01*
X004492Y005166D01*
X004464Y005123D01*
X004428Y005087D01*
X004385Y005059D01*
X004338Y005039D01*
X004288Y005029D01*
X003961Y005029D01*
X003961Y005590D01*
X003961Y005590D01*
X004522Y005590D01*
X004522Y005917D01*
X004512Y005967D01*
X004492Y006014D01*
X004464Y006057D01*
X004428Y006093D01*
X004385Y006122D01*
X004338Y006141D01*
X004267Y006312D02*
X004420Y006465D01*
X004502Y006664D01*
X004502Y006879D01*
X004420Y007078D01*
X004267Y007230D01*
X004068Y007312D01*
X003853Y007312D01*
X003654Y007230D01*
X003502Y007078D01*
X003420Y006879D01*
X003420Y006664D01*
X003502Y006465D01*
X003654Y006312D01*
X003853Y006230D01*
X004068Y006230D01*
X004267Y006312D01*
X004413Y006458D02*
X004690Y006458D01*
X004601Y006777D02*
X004502Y006777D01*
X004402Y007095D02*
X004700Y007095D01*
X003519Y007095D02*
X002973Y007095D01*
X002966Y007101D02*
X002704Y007253D01*
X002411Y007331D01*
X002109Y007331D01*
X001816Y007253D01*
X001554Y007101D01*
X001339Y006887D01*
X001188Y006625D01*
X001109Y006332D01*
X001109Y006029D01*
X001188Y005737D01*
X001339Y005474D01*
X001554Y005260D01*
X001816Y005109D01*
X002109Y005030D01*
X002411Y005030D01*
X002704Y005109D01*
X002966Y005260D01*
X003181Y005474D01*
X003332Y005737D01*
X003411Y006029D01*
X003411Y006332D01*
X003332Y006625D01*
X003181Y006887D01*
X002966Y007101D01*
X003244Y006777D02*
X003420Y006777D01*
X003377Y006458D02*
X003508Y006458D01*
X003584Y006141D02*
X003634Y006151D01*
X003961Y006151D01*
X003961Y005590D01*
X003961Y005029D01*
X003634Y005029D01*
X003584Y005039D01*
X003536Y005059D01*
X003494Y005087D01*
X003458Y005123D01*
X003429Y005166D01*
X003410Y005213D01*
X003400Y005263D01*
X003400Y005590D01*
X003961Y005590D01*
X003961Y005590D01*
X003961Y005590D01*
X003400Y005590D01*
X003400Y005917D01*
X003410Y005967D01*
X003429Y006014D01*
X003458Y006057D01*
X003494Y006093D01*
X003536Y006122D01*
X003584Y006141D01*
X003580Y006140D02*
X003411Y006140D01*
X003400Y005821D02*
X003355Y005821D01*
X003400Y005503D02*
X003197Y005503D01*
X003422Y005184D02*
X002835Y005184D01*
X003961Y005184D02*
X003961Y005184D01*
X003961Y005503D02*
X003961Y005503D01*
X003961Y005821D02*
X003961Y005821D01*
X003961Y006140D02*
X003961Y006140D01*
X004522Y005821D02*
X004652Y005821D01*
X004601Y005503D02*
X004522Y005503D01*
X004500Y005184D02*
X004782Y005184D01*
X006745Y006458D02*
X008775Y006458D01*
X008760Y006777D02*
X006760Y006777D01*
X005583Y008591D02*
X005373Y008504D01*
X005147Y008504D01*
X004937Y008591D01*
X004777Y008752D01*
X004690Y008961D01*
X004690Y009188D01*
X004777Y009397D01*
X004937Y009558D01*
X005147Y009644D01*
X005373Y009644D01*
X005583Y009558D01*
X005743Y009397D01*
X005830Y009188D01*
X005830Y008961D01*
X005743Y008752D01*
X005583Y008591D01*
X005679Y008688D02*
X012025Y008688D01*
X011816Y009006D02*
X005830Y009006D01*
X005773Y009325D02*
X011497Y009325D01*
X011179Y009643D02*
X005376Y009643D01*
X005144Y009643D02*
X001376Y009643D01*
X001144Y009643D02*
X000820Y009643D01*
X000820Y009962D02*
X010860Y009962D01*
X010542Y010280D02*
X000820Y010280D01*
X000820Y010599D02*
X010223Y010599D01*
X009905Y010917D02*
X000820Y010917D01*
X000820Y011236D02*
X007873Y011236D01*
X007333Y011554D02*
X000820Y011554D01*
X000820Y011873D02*
X007327Y011873D01*
X007314Y012191D02*
X000820Y012191D01*
X000820Y012510D02*
X001827Y012510D01*
X001782Y012528D02*
X001944Y012461D01*
X002119Y012461D01*
X002281Y012528D01*
X002405Y012652D01*
X002472Y012814D01*
X002472Y012931D01*
X002789Y013249D01*
X002907Y013249D01*
X003068Y013316D01*
X003192Y013439D01*
X003259Y013601D01*
X003259Y013776D01*
X003192Y013938D01*
X003068Y014062D01*
X002907Y014129D01*
X002732Y014129D01*
X002570Y014062D01*
X002446Y013938D01*
X002379Y013776D01*
X002379Y013659D01*
X002062Y013341D01*
X001944Y013341D01*
X001782Y013274D01*
X001659Y013150D01*
X001592Y012989D01*
X001592Y012814D01*
X001659Y012652D01*
X001782Y012528D01*
X001592Y012828D02*
X000820Y012828D01*
X000820Y013147D02*
X001657Y013147D01*
X002186Y013465D02*
X000820Y013465D01*
X000820Y013784D02*
X002382Y013784D01*
X002668Y014102D02*
X000820Y014102D01*
X000820Y014421D02*
X006895Y014421D01*
X006904Y014443D02*
X006860Y014337D01*
X006860Y013627D01*
X006777Y013544D01*
X006710Y013382D01*
X006710Y013207D01*
X006777Y013046D01*
X006901Y012922D01*
X007062Y012855D01*
X007237Y012855D01*
X007399Y012922D01*
X007523Y013046D01*
X007590Y013207D01*
X007590Y013382D01*
X007523Y013544D01*
X007440Y013627D01*
X007440Y014159D01*
X007907Y014627D01*
X008025Y014627D01*
X008186Y014694D01*
X008310Y014817D01*
X008377Y014979D01*
X008377Y015154D01*
X008310Y015316D01*
X008186Y015440D01*
X008025Y015507D01*
X007850Y015507D01*
X007688Y015440D01*
X007564Y015316D01*
X007497Y015154D01*
X007497Y015037D01*
X006904Y014443D01*
X006860Y014102D02*
X004742Y014102D01*
X004678Y014129D02*
X004840Y014062D01*
X004964Y013938D01*
X005031Y013776D01*
X005031Y013659D01*
X005545Y013144D01*
X005662Y013144D01*
X005824Y013077D01*
X005948Y012954D01*
X006015Y012792D01*
X006015Y012617D01*
X005948Y012455D01*
X005824Y012331D01*
X005662Y012264D01*
X005487Y012264D01*
X005326Y012331D01*
X005202Y012455D01*
X005135Y012617D01*
X005135Y012734D01*
X004621Y013249D01*
X004503Y013249D01*
X004341Y013316D01*
X004218Y013439D01*
X004151Y013601D01*
X004151Y013776D01*
X004218Y013938D01*
X004341Y014062D01*
X004503Y014129D01*
X004678Y014129D01*
X004440Y014102D02*
X002970Y014102D01*
X003256Y013784D02*
X004154Y013784D01*
X004207Y013465D02*
X003203Y013465D01*
X002687Y013147D02*
X004722Y013147D01*
X005041Y012828D02*
X002472Y012828D01*
X002236Y012510D02*
X005179Y012510D01*
X005543Y013147D02*
X006735Y013147D01*
X006744Y013465D02*
X005224Y013465D01*
X005028Y013784D02*
X006860Y013784D01*
X007440Y013784D02*
X012621Y013784D01*
X012615Y013798D02*
X012682Y013636D01*
X012806Y013512D01*
X012968Y013445D01*
X013143Y013445D01*
X013305Y013512D01*
X013428Y013636D01*
X013495Y013798D01*
X013495Y013973D01*
X013428Y014135D01*
X013345Y014218D01*
X013345Y014734D01*
X013428Y014817D01*
X013495Y014979D01*
X013495Y015154D01*
X013428Y015316D01*
X013305Y015440D01*
X013143Y015507D01*
X012968Y015507D01*
X012806Y015440D01*
X012682Y015316D01*
X012615Y015154D01*
X012615Y014979D01*
X012682Y014817D01*
X012765Y014734D01*
X012765Y014218D01*
X012682Y014135D01*
X012615Y013973D01*
X012615Y013798D01*
X012669Y014102D02*
X007440Y014102D01*
X007701Y014421D02*
X012765Y014421D01*
X012760Y014739D02*
X008232Y014739D01*
X008377Y015058D02*
X012615Y015058D01*
X012743Y015376D02*
X008250Y015376D01*
X007625Y015376D02*
X000820Y015376D01*
X000820Y015058D02*
X007497Y015058D01*
X007200Y014739D02*
X000820Y014739D01*
X002177Y015695D02*
X025902Y015695D01*
X025627Y016013D02*
X002452Y016013D01*
X002590Y016332D02*
X025489Y016332D01*
X025448Y016650D02*
X002631Y016650D01*
X002585Y016969D02*
X025494Y016969D01*
X027259Y015376D02*
X013368Y015376D01*
X013495Y015058D02*
X027259Y015058D01*
X027259Y014739D02*
X013350Y014739D01*
X013345Y014421D02*
X027259Y014421D01*
X027259Y014102D02*
X013442Y014102D01*
X013489Y013784D02*
X027259Y013784D01*
X027259Y013465D02*
X013191Y013465D01*
X012920Y013465D02*
X012280Y013465D01*
X012289Y013147D02*
X027259Y013147D01*
X027259Y012828D02*
X011818Y012828D01*
X011499Y012510D02*
X027259Y012510D01*
X027259Y012191D02*
X011181Y012191D01*
X010862Y011873D02*
X027259Y011873D01*
X027259Y011554D02*
X010088Y011554D01*
X010406Y011236D02*
X027259Y011236D01*
X027259Y010917D02*
X013292Y010917D01*
X013495Y010599D02*
X022390Y010599D01*
X022419Y010668D02*
X022337Y010469D01*
X022337Y010254D01*
X022419Y010055D01*
X022572Y009903D01*
X022770Y009821D01*
X022986Y009821D01*
X023185Y009903D01*
X023337Y010055D01*
X023419Y010254D01*
X023419Y010469D01*
X023337Y010668D01*
X023185Y010821D01*
X022986Y010903D01*
X022770Y010903D01*
X022572Y010821D01*
X022419Y010668D01*
X022337Y010280D02*
X013419Y010280D01*
X013345Y009962D02*
X019384Y009962D01*
X019719Y009962D02*
X022513Y009962D01*
X022581Y009643D02*
X019991Y009643D01*
X020191Y009325D02*
X022352Y009325D01*
X022337Y009288D02*
X022337Y009073D01*
X022355Y009029D01*
X022084Y008757D01*
X022058Y008747D01*
X021934Y008623D01*
X021867Y008461D01*
X021867Y008286D01*
X021934Y008124D01*
X022058Y008001D01*
X022220Y007934D01*
X022337Y007934D01*
X022337Y007892D01*
X022419Y007693D01*
X022572Y007541D01*
X022770Y007458D01*
X022986Y007458D01*
X023185Y007541D01*
X023337Y007693D01*
X023419Y007892D01*
X023419Y008107D01*
X023337Y008306D01*
X023185Y008458D01*
X022986Y008541D01*
X022770Y008541D01*
X022722Y008521D01*
X022706Y008560D01*
X022786Y008640D01*
X022986Y008640D01*
X023185Y008722D01*
X023337Y008874D01*
X023419Y009073D01*
X023419Y009288D01*
X023337Y009487D01*
X023185Y009639D01*
X022986Y009722D01*
X022770Y009722D01*
X022572Y009639D01*
X022419Y009487D01*
X022337Y009288D01*
X022333Y009006D02*
X020510Y009006D01*
X020828Y008688D02*
X021999Y008688D01*
X021867Y008369D02*
X021147Y008369D01*
X021465Y008051D02*
X022008Y008051D01*
X021784Y007732D02*
X022403Y007732D01*
X022102Y007414D02*
X027259Y007414D01*
X027259Y007732D02*
X024534Y007732D01*
X024518Y007693D02*
X024600Y007892D01*
X024600Y008107D01*
X024518Y008306D01*
X024366Y008458D01*
X024167Y008541D01*
X023952Y008541D01*
X023753Y008458D01*
X023600Y008306D01*
X023518Y008107D01*
X023518Y007892D01*
X023600Y007693D01*
X023753Y007541D01*
X023952Y007458D01*
X024167Y007458D01*
X024366Y007541D01*
X024518Y007693D01*
X024600Y008051D02*
X025532Y008051D01*
X025609Y008030D02*
X025911Y008030D01*
X026204Y008109D01*
X026466Y008260D01*
X026681Y008474D01*
X026832Y008737D01*
X026911Y009029D01*
X026911Y009332D01*
X026832Y009625D01*
X026681Y009887D01*
X026466Y010101D01*
X026204Y010253D01*
X025911Y010331D01*
X025609Y010331D01*
X025316Y010253D01*
X025054Y010101D01*
X024839Y009887D01*
X024688Y009625D01*
X024609Y009332D01*
X024609Y009029D01*
X024688Y008737D01*
X024839Y008474D01*
X025054Y008260D01*
X025316Y008109D01*
X025609Y008030D01*
X025988Y008051D02*
X027259Y008051D01*
X027259Y008369D02*
X026576Y008369D01*
X026804Y008688D02*
X027259Y008688D01*
X027259Y009006D02*
X026904Y009006D01*
X026911Y009325D02*
X027259Y009325D01*
X027259Y009643D02*
X026822Y009643D01*
X026606Y009962D02*
X027259Y009962D01*
X027259Y010280D02*
X026102Y010280D01*
X025418Y010280D02*
X024600Y010280D01*
X024600Y010013D02*
X024600Y010711D01*
X024564Y010799D01*
X024496Y010866D01*
X024408Y010903D01*
X023710Y010903D01*
X023622Y010866D01*
X023555Y010799D01*
X023518Y010711D01*
X023518Y010013D01*
X023555Y009925D01*
X023622Y009857D01*
X023710Y009821D01*
X024408Y009821D01*
X024496Y009857D01*
X024564Y009925D01*
X024600Y010013D01*
X024579Y009962D02*
X024914Y009962D01*
X024698Y009643D02*
X024357Y009643D01*
X024366Y009639D02*
X024167Y009722D01*
X023952Y009722D01*
X023753Y009639D01*
X023600Y009487D01*
X023518Y009288D01*
X023518Y009073D01*
X023600Y008874D01*
X023753Y008722D01*
X023952Y008640D01*
X024167Y008640D01*
X024366Y008722D01*
X024518Y008874D01*
X024600Y009073D01*
X024600Y009288D01*
X024518Y009487D01*
X024366Y009639D01*
X024585Y009325D02*
X024609Y009325D01*
X024616Y009006D02*
X024573Y009006D01*
X024716Y008688D02*
X024283Y008688D01*
X023835Y008688D02*
X023102Y008688D01*
X023392Y009006D02*
X023546Y009006D01*
X023533Y009325D02*
X023404Y009325D01*
X023176Y009643D02*
X023762Y009643D01*
X023539Y009962D02*
X023243Y009962D01*
X023419Y010280D02*
X023518Y010280D01*
X023518Y010599D02*
X023366Y010599D01*
X024600Y010599D02*
X027259Y010599D01*
X024944Y008369D02*
X024455Y008369D01*
X023663Y008369D02*
X023274Y008369D01*
X023419Y008051D02*
X023518Y008051D01*
X023584Y007732D02*
X023353Y007732D01*
X022633Y007095D02*
X027259Y007095D01*
X027259Y006777D02*
X022747Y006777D01*
X020008Y008688D02*
X012905Y008688D01*
X013326Y009006D02*
X019690Y009006D01*
X019170Y009325D02*
X013495Y009325D01*
X013392Y009643D02*
X019112Y009643D01*
X012765Y009962D02*
X011680Y009962D01*
X011362Y010280D02*
X012692Y010280D01*
X012615Y010599D02*
X011043Y010599D01*
X010725Y010917D02*
X012819Y010917D01*
X012718Y009643D02*
X011999Y009643D01*
X012317Y009325D02*
X012615Y009325D01*
X010742Y011753D02*
X010742Y011753D01*
X010679Y012510D02*
X008350Y012510D01*
X008668Y012828D02*
X010997Y012828D01*
X011316Y013147D02*
X009139Y013147D01*
X009130Y013465D02*
X011468Y013465D01*
X008377Y012191D02*
X008167Y012191D01*
X008153Y011873D02*
X008285Y011873D01*
X007347Y012510D02*
X005971Y012510D01*
X006000Y012828D02*
X007848Y012828D01*
X007565Y013147D02*
X008166Y013147D01*
X008319Y013465D02*
X007555Y013465D01*
X004747Y009325D02*
X001773Y009325D01*
X001830Y009006D02*
X004690Y009006D01*
X004841Y008688D02*
X001679Y008688D01*
X000841Y008688D02*
X000820Y008688D01*
X000820Y007095D02*
X001547Y007095D01*
X001276Y006777D02*
X000820Y006777D01*
X000820Y006458D02*
X001143Y006458D01*
X001109Y006140D02*
X000820Y006140D01*
X000820Y005821D02*
X001165Y005821D01*
X001323Y005503D02*
X000820Y005503D01*
X000820Y005184D02*
X001685Y005184D01*
D15*
X007347Y007586D02*
X007937Y008177D01*
X009709Y011523D02*
X012465Y008767D01*
X013055Y009358D02*
X013055Y010539D01*
X010496Y011917D02*
X008725Y011917D01*
X007937Y011523D02*
X007740Y011720D01*
X007937Y011523D02*
X009709Y011523D01*
X010496Y011917D02*
X011874Y013295D01*
X013055Y013885D02*
X013055Y015067D01*
X008725Y013295D02*
X007740Y012311D01*
X007150Y013295D02*
X007150Y014279D01*
X007937Y015067D01*
X005575Y012704D02*
X004591Y013689D01*
X002819Y013689D02*
X002032Y012901D01*
X019551Y009555D02*
X022307Y006799D01*
X022307Y008374D02*
X022307Y008570D01*
X022898Y009161D01*
X022878Y009181D01*
D16*
X022307Y008374D03*
X022307Y006799D03*
X019551Y009555D03*
X013055Y009358D03*
X012465Y008767D03*
X013055Y010539D03*
X008725Y011917D03*
X007740Y011720D03*
X007740Y012311D03*
X007150Y013295D03*
X008725Y013295D03*
X007937Y015067D03*
X004591Y013689D03*
X005575Y012704D03*
X002819Y013689D03*
X002032Y012901D03*
X007937Y008177D03*
X007347Y007586D03*
X011874Y013295D03*
X013055Y013885D03*
X013055Y015067D03*
M02*
