G75*
G70*
%OFA0B0*%
%FSLAX24Y24*%
%IPPOS*%
%LPD*%
%AMOC8*
5,1,8,0,0,1.08239X$1,22.5*
%
%ADD10C,0.0000*%
D10*
X000100Y000100D02*
X000100Y016242D01*
X026872Y016242D01*
X026872Y000100D01*
X000100Y000100D01*
X000651Y001281D02*
X000653Y001331D01*
X000659Y001381D01*
X000669Y001430D01*
X000683Y001478D01*
X000700Y001525D01*
X000721Y001570D01*
X000746Y001614D01*
X000774Y001655D01*
X000806Y001694D01*
X000840Y001731D01*
X000877Y001765D01*
X000917Y001795D01*
X000959Y001822D01*
X001003Y001846D01*
X001049Y001867D01*
X001096Y001883D01*
X001144Y001896D01*
X001194Y001905D01*
X001243Y001910D01*
X001294Y001911D01*
X001344Y001908D01*
X001393Y001901D01*
X001442Y001890D01*
X001490Y001875D01*
X001536Y001857D01*
X001581Y001835D01*
X001624Y001809D01*
X001665Y001780D01*
X001704Y001748D01*
X001740Y001713D01*
X001772Y001675D01*
X001802Y001635D01*
X001829Y001592D01*
X001852Y001548D01*
X001871Y001502D01*
X001887Y001454D01*
X001899Y001405D01*
X001907Y001356D01*
X001911Y001306D01*
X001911Y001256D01*
X001907Y001206D01*
X001899Y001157D01*
X001887Y001108D01*
X001871Y001060D01*
X001852Y001014D01*
X001829Y000970D01*
X001802Y000927D01*
X001772Y000887D01*
X001740Y000849D01*
X001704Y000814D01*
X001665Y000782D01*
X001624Y000753D01*
X001581Y000727D01*
X001536Y000705D01*
X001490Y000687D01*
X001442Y000672D01*
X001393Y000661D01*
X001344Y000654D01*
X001294Y000651D01*
X001243Y000652D01*
X001194Y000657D01*
X001144Y000666D01*
X001096Y000679D01*
X001049Y000695D01*
X001003Y000716D01*
X000959Y000740D01*
X000917Y000767D01*
X000877Y000797D01*
X000840Y000831D01*
X000806Y000868D01*
X000774Y000907D01*
X000746Y000948D01*
X000721Y000992D01*
X000700Y001037D01*
X000683Y001084D01*
X000669Y001132D01*
X000659Y001181D01*
X000653Y001231D01*
X000651Y001281D01*
X001509Y004600D02*
X001511Y004648D01*
X001517Y004696D01*
X001527Y004743D01*
X001540Y004789D01*
X001558Y004834D01*
X001578Y004878D01*
X001603Y004920D01*
X001631Y004959D01*
X001661Y004996D01*
X001695Y005030D01*
X001732Y005062D01*
X001770Y005091D01*
X001811Y005116D01*
X001854Y005138D01*
X001899Y005156D01*
X001945Y005170D01*
X001992Y005181D01*
X002040Y005188D01*
X002088Y005191D01*
X002136Y005190D01*
X002184Y005185D01*
X002232Y005176D01*
X002278Y005164D01*
X002323Y005147D01*
X002367Y005127D01*
X002409Y005104D01*
X002449Y005077D01*
X002487Y005047D01*
X002522Y005014D01*
X002554Y004978D01*
X002584Y004940D01*
X002610Y004899D01*
X002632Y004856D01*
X002652Y004812D01*
X002667Y004767D01*
X002679Y004720D01*
X002687Y004672D01*
X002691Y004624D01*
X002691Y004576D01*
X002687Y004528D01*
X002679Y004480D01*
X002667Y004433D01*
X002652Y004388D01*
X002632Y004344D01*
X002610Y004301D01*
X002584Y004260D01*
X002554Y004222D01*
X002522Y004186D01*
X002487Y004153D01*
X002449Y004123D01*
X002409Y004096D01*
X002367Y004073D01*
X002323Y004053D01*
X002278Y004036D01*
X002232Y004024D01*
X002184Y004015D01*
X002136Y004010D01*
X002088Y004009D01*
X002040Y004012D01*
X001992Y004019D01*
X001945Y004030D01*
X001899Y004044D01*
X001854Y004062D01*
X001811Y004084D01*
X001770Y004109D01*
X001732Y004138D01*
X001695Y004170D01*
X001661Y004204D01*
X001631Y004241D01*
X001603Y004280D01*
X001578Y004322D01*
X001558Y004366D01*
X001540Y004411D01*
X001527Y004457D01*
X001517Y004504D01*
X001511Y004552D01*
X001509Y004600D01*
X000651Y015061D02*
X000653Y015111D01*
X000659Y015161D01*
X000669Y015210D01*
X000683Y015258D01*
X000700Y015305D01*
X000721Y015350D01*
X000746Y015394D01*
X000774Y015435D01*
X000806Y015474D01*
X000840Y015511D01*
X000877Y015545D01*
X000917Y015575D01*
X000959Y015602D01*
X001003Y015626D01*
X001049Y015647D01*
X001096Y015663D01*
X001144Y015676D01*
X001194Y015685D01*
X001243Y015690D01*
X001294Y015691D01*
X001344Y015688D01*
X001393Y015681D01*
X001442Y015670D01*
X001490Y015655D01*
X001536Y015637D01*
X001581Y015615D01*
X001624Y015589D01*
X001665Y015560D01*
X001704Y015528D01*
X001740Y015493D01*
X001772Y015455D01*
X001802Y015415D01*
X001829Y015372D01*
X001852Y015328D01*
X001871Y015282D01*
X001887Y015234D01*
X001899Y015185D01*
X001907Y015136D01*
X001911Y015086D01*
X001911Y015036D01*
X001907Y014986D01*
X001899Y014937D01*
X001887Y014888D01*
X001871Y014840D01*
X001852Y014794D01*
X001829Y014750D01*
X001802Y014707D01*
X001772Y014667D01*
X001740Y014629D01*
X001704Y014594D01*
X001665Y014562D01*
X001624Y014533D01*
X001581Y014507D01*
X001536Y014485D01*
X001490Y014467D01*
X001442Y014452D01*
X001393Y014441D01*
X001344Y014434D01*
X001294Y014431D01*
X001243Y014432D01*
X001194Y014437D01*
X001144Y014446D01*
X001096Y014459D01*
X001049Y014475D01*
X001003Y014496D01*
X000959Y014520D01*
X000917Y014547D01*
X000877Y014577D01*
X000840Y014611D01*
X000806Y014648D01*
X000774Y014687D01*
X000746Y014728D01*
X000721Y014772D01*
X000700Y014817D01*
X000683Y014864D01*
X000669Y014912D01*
X000659Y014961D01*
X000653Y015011D01*
X000651Y015061D01*
X025009Y007600D02*
X025011Y007648D01*
X025017Y007696D01*
X025027Y007743D01*
X025040Y007789D01*
X025058Y007834D01*
X025078Y007878D01*
X025103Y007920D01*
X025131Y007959D01*
X025161Y007996D01*
X025195Y008030D01*
X025232Y008062D01*
X025270Y008091D01*
X025311Y008116D01*
X025354Y008138D01*
X025399Y008156D01*
X025445Y008170D01*
X025492Y008181D01*
X025540Y008188D01*
X025588Y008191D01*
X025636Y008190D01*
X025684Y008185D01*
X025732Y008176D01*
X025778Y008164D01*
X025823Y008147D01*
X025867Y008127D01*
X025909Y008104D01*
X025949Y008077D01*
X025987Y008047D01*
X026022Y008014D01*
X026054Y007978D01*
X026084Y007940D01*
X026110Y007899D01*
X026132Y007856D01*
X026152Y007812D01*
X026167Y007767D01*
X026179Y007720D01*
X026187Y007672D01*
X026191Y007624D01*
X026191Y007576D01*
X026187Y007528D01*
X026179Y007480D01*
X026167Y007433D01*
X026152Y007388D01*
X026132Y007344D01*
X026110Y007301D01*
X026084Y007260D01*
X026054Y007222D01*
X026022Y007186D01*
X025987Y007153D01*
X025949Y007123D01*
X025909Y007096D01*
X025867Y007073D01*
X025823Y007053D01*
X025778Y007036D01*
X025732Y007024D01*
X025684Y007015D01*
X025636Y007010D01*
X025588Y007009D01*
X025540Y007012D01*
X025492Y007019D01*
X025445Y007030D01*
X025399Y007044D01*
X025354Y007062D01*
X025311Y007084D01*
X025270Y007109D01*
X025232Y007138D01*
X025195Y007170D01*
X025161Y007204D01*
X025131Y007241D01*
X025103Y007280D01*
X025078Y007322D01*
X025058Y007366D01*
X025040Y007411D01*
X025027Y007457D01*
X025017Y007504D01*
X025011Y007552D01*
X025009Y007600D01*
X025061Y001281D02*
X025063Y001331D01*
X025069Y001381D01*
X025079Y001430D01*
X025093Y001478D01*
X025110Y001525D01*
X025131Y001570D01*
X025156Y001614D01*
X025184Y001655D01*
X025216Y001694D01*
X025250Y001731D01*
X025287Y001765D01*
X025327Y001795D01*
X025369Y001822D01*
X025413Y001846D01*
X025459Y001867D01*
X025506Y001883D01*
X025554Y001896D01*
X025604Y001905D01*
X025653Y001910D01*
X025704Y001911D01*
X025754Y001908D01*
X025803Y001901D01*
X025852Y001890D01*
X025900Y001875D01*
X025946Y001857D01*
X025991Y001835D01*
X026034Y001809D01*
X026075Y001780D01*
X026114Y001748D01*
X026150Y001713D01*
X026182Y001675D01*
X026212Y001635D01*
X026239Y001592D01*
X026262Y001548D01*
X026281Y001502D01*
X026297Y001454D01*
X026309Y001405D01*
X026317Y001356D01*
X026321Y001306D01*
X026321Y001256D01*
X026317Y001206D01*
X026309Y001157D01*
X026297Y001108D01*
X026281Y001060D01*
X026262Y001014D01*
X026239Y000970D01*
X026212Y000927D01*
X026182Y000887D01*
X026150Y000849D01*
X026114Y000814D01*
X026075Y000782D01*
X026034Y000753D01*
X025991Y000727D01*
X025946Y000705D01*
X025900Y000687D01*
X025852Y000672D01*
X025803Y000661D01*
X025754Y000654D01*
X025704Y000651D01*
X025653Y000652D01*
X025604Y000657D01*
X025554Y000666D01*
X025506Y000679D01*
X025459Y000695D01*
X025413Y000716D01*
X025369Y000740D01*
X025327Y000767D01*
X025287Y000797D01*
X025250Y000831D01*
X025216Y000868D01*
X025184Y000907D01*
X025156Y000948D01*
X025131Y000992D01*
X025110Y001037D01*
X025093Y001084D01*
X025079Y001132D01*
X025069Y001181D01*
X025063Y001231D01*
X025061Y001281D01*
X025061Y015061D02*
X025063Y015111D01*
X025069Y015161D01*
X025079Y015210D01*
X025093Y015258D01*
X025110Y015305D01*
X025131Y015350D01*
X025156Y015394D01*
X025184Y015435D01*
X025216Y015474D01*
X025250Y015511D01*
X025287Y015545D01*
X025327Y015575D01*
X025369Y015602D01*
X025413Y015626D01*
X025459Y015647D01*
X025506Y015663D01*
X025554Y015676D01*
X025604Y015685D01*
X025653Y015690D01*
X025704Y015691D01*
X025754Y015688D01*
X025803Y015681D01*
X025852Y015670D01*
X025900Y015655D01*
X025946Y015637D01*
X025991Y015615D01*
X026034Y015589D01*
X026075Y015560D01*
X026114Y015528D01*
X026150Y015493D01*
X026182Y015455D01*
X026212Y015415D01*
X026239Y015372D01*
X026262Y015328D01*
X026281Y015282D01*
X026297Y015234D01*
X026309Y015185D01*
X026317Y015136D01*
X026321Y015086D01*
X026321Y015036D01*
X026317Y014986D01*
X026309Y014937D01*
X026297Y014888D01*
X026281Y014840D01*
X026262Y014794D01*
X026239Y014750D01*
X026212Y014707D01*
X026182Y014667D01*
X026150Y014629D01*
X026114Y014594D01*
X026075Y014562D01*
X026034Y014533D01*
X025991Y014507D01*
X025946Y014485D01*
X025900Y014467D01*
X025852Y014452D01*
X025803Y014441D01*
X025754Y014434D01*
X025704Y014431D01*
X025653Y014432D01*
X025604Y014437D01*
X025554Y014446D01*
X025506Y014459D01*
X025459Y014475D01*
X025413Y014496D01*
X025369Y014520D01*
X025327Y014547D01*
X025287Y014577D01*
X025250Y014611D01*
X025216Y014648D01*
X025184Y014687D01*
X025156Y014728D01*
X025131Y014772D01*
X025110Y014817D01*
X025093Y014864D01*
X025079Y014912D01*
X025069Y014961D01*
X025063Y015011D01*
X025061Y015061D01*
M02*
