G75*
G70*
%OFA0B0*%
%FSLAX24Y24*%
%IPPOS*%
%LPD*%
%AMOC8*
5,1,8,0,0,1.08239X$1,22.5*
%
%ADD10C,0.0660*%
%ADD11OC8,0.0520*%
%ADD12R,0.0602X0.0602*%
%ADD13C,0.0602*%
%ADD14C,0.0100*%
%ADD15C,0.0400*%
%ADD16C,0.0300*%
D10*
X001100Y007100D03*
X005100Y007100D03*
D11*
X006100Y006100D03*
X006100Y005100D03*
X009100Y005100D03*
X009100Y006100D03*
D12*
X003801Y004009D03*
X023899Y008781D03*
D13*
X022718Y008781D03*
X022718Y007600D03*
X023899Y007600D03*
X023899Y006419D03*
X022718Y006419D03*
X004982Y005191D03*
X003801Y005191D03*
X004982Y004009D03*
D14*
X007383Y002856D02*
X002265Y002856D01*
X006100Y006100D02*
X007777Y007777D01*
X007777Y003446D01*
X009746Y006793D02*
X013092Y006793D01*
X012895Y007777D02*
X012895Y009549D01*
X009943Y009943D02*
X007777Y007777D01*
X007580Y009549D02*
X009352Y011320D01*
X013092Y011320D01*
X012502Y011911D02*
X010533Y011911D01*
X009943Y010927D02*
X009943Y009943D01*
X008565Y011911D02*
X007580Y010927D01*
X007580Y011517D02*
X007580Y013486D01*
X007777Y013683D01*
X004824Y012108D02*
X004234Y012108D01*
X005612Y010730D01*
X004234Y012108D02*
X003446Y012108D01*
X003250Y013092D02*
X001675Y011517D01*
X012895Y012305D02*
X012895Y014076D01*
X019785Y009352D02*
X023328Y009352D01*
X023899Y008781D01*
X022935Y008171D02*
X023328Y007777D01*
X023328Y006990D01*
X023899Y006419D01*
X022718Y007600D02*
X022541Y007580D01*
X017226Y002265D01*
X016242Y002265D01*
X016045Y006793D02*
X017226Y006793D01*
X019785Y009352D01*
X019194Y008171D02*
X022935Y008171D01*
D15*
X002265Y002856D03*
X007383Y002856D03*
X007777Y003446D03*
X009746Y006793D03*
X012895Y007777D03*
X013092Y006793D03*
X016045Y006793D03*
X019194Y008171D03*
X013092Y011320D03*
X012502Y011911D03*
X012895Y012305D03*
X010533Y011911D03*
X009943Y010927D03*
X008565Y011911D03*
X007580Y011517D03*
X007580Y010927D03*
X005612Y010730D03*
X007580Y009549D03*
X004824Y012108D03*
X003446Y012108D03*
X003250Y013092D03*
X001084Y011714D03*
X001675Y011517D03*
X007777Y013683D03*
X012895Y014076D03*
X012895Y009549D03*
X016242Y002265D03*
D16*
X001100Y007100D02*
X001084Y007187D01*
X001084Y011714D01*
M02*
