%
M48
M72
T01C0.0240
T02C0.0320
T03C0.0402
T04C0.0440
T05C0.1181
T06C0.1260
%
T01
X2265Y2856
X7383Y2856
X7777Y3446
X9746Y6793
X12895Y7777
X13092Y6793
X16045Y6793
X19194Y8171
X13092Y11320
X12502Y11911
X12895Y12305
X10533Y11911
X9943Y10927
X8565Y11911
X7580Y11517
X7580Y10927
X5612Y10730
X7580Y9549
X4824Y12108
X3446Y12108
X3250Y13092
X1084Y11714
X1675Y11517
X7777Y13683
X12895Y14076
X12895Y9549
X16242Y2265
T02
X9100Y5100
X9100Y6100
X6100Y6100
X6100Y5100
T03
X4982Y5191
X3801Y5191
X3801Y4009
X4982Y4009
X22718Y6419
X23899Y6419
X23899Y7600
X22718Y7600
X22718Y8781
X23899Y8781
T04
X5100Y7100
X1100Y7100
T05
X2100Y4600
X25600Y7600
T06
X1281Y1281
X1281Y15061
X25691Y15061
X25691Y1281
M30
