G75*
G70*
%OFA0B0*%
%FSLAX24Y24*%
%IPPOS*%
%LPD*%
%AMOC8*
5,1,8,0,0,1.08239X$1,22.5*
%
%ADD10C,0.1340*%
%ADD11R,0.0660X0.0220*%
%ADD12R,0.0600X0.0300*%
%ADD13R,0.1261X0.1182*%
%ADD14R,0.0513X0.0474*%
%ADD15R,0.0650X0.0440*%
%ADD16R,0.0860X0.0300*%
%ADD17R,0.0678X0.0552*%
%ADD18R,0.0552X0.0678*%
%ADD19R,0.0710X0.0290*%
%ADD20R,0.0980X0.0980*%
%ADD21R,0.0710X0.0789*%
%ADD22R,0.0474X0.0513*%
%ADD23R,0.0592X0.0671*%
%ADD24C,0.0740*%
%ADD25OC8,0.0600*%
%ADD26R,0.0682X0.0682*%
%ADD27C,0.0682*%
%ADD28C,0.1261*%
%ADD29R,0.0678X0.1340*%
%ADD30R,0.0356X0.0434*%
%ADD31C,0.0480*%
D10*
X001441Y002862D03*
X001441Y016641D03*
X026638Y016641D03*
X026638Y003256D03*
D11*
X009410Y009521D03*
X009410Y009771D03*
X009410Y010031D03*
X009410Y010281D03*
X009410Y010541D03*
X009410Y010801D03*
X009410Y011051D03*
X009410Y011311D03*
X009410Y011561D03*
X009410Y011821D03*
X009410Y012081D03*
X009410Y012331D03*
X009410Y012591D03*
X009410Y012841D03*
X007110Y012841D03*
X007110Y012591D03*
X007110Y012331D03*
X007110Y012081D03*
X007110Y011821D03*
X007110Y011561D03*
X007110Y011311D03*
X007110Y011051D03*
X007110Y010801D03*
X007110Y010541D03*
X007110Y010281D03*
X007110Y010031D03*
X007110Y009771D03*
X007110Y009521D03*
D12*
X013720Y009551D03*
X013720Y009181D03*
X013720Y008811D03*
X014800Y008811D03*
X014800Y009551D03*
X014800Y013311D03*
X013720Y013311D03*
X013720Y013681D03*
X013720Y014051D03*
X014800Y014051D03*
X014800Y004551D03*
X013720Y004551D03*
X013720Y004181D03*
X013720Y003811D03*
X014800Y003811D03*
D13*
X017232Y004681D03*
X021288Y004681D03*
X021288Y009181D03*
X017232Y009181D03*
X017232Y013681D03*
X021288Y013681D03*
D14*
X015760Y014015D03*
X015760Y013346D03*
X015760Y009515D03*
X015760Y008846D03*
X015760Y004515D03*
X015760Y003846D03*
X005595Y011681D03*
X004925Y011681D03*
X004595Y014681D03*
X003925Y014681D03*
D15*
X011260Y014001D03*
X011260Y013361D03*
X011260Y009501D03*
X011260Y008861D03*
X011366Y004501D03*
X011366Y003861D03*
D16*
X008730Y003931D03*
X008730Y004431D03*
X008730Y004931D03*
X008730Y005431D03*
X006790Y005431D03*
X006790Y004931D03*
X006790Y004431D03*
X006790Y003931D03*
D17*
X005240Y004551D03*
X005240Y002850D03*
D18*
X004091Y003161D03*
X002390Y003161D03*
D19*
X001710Y010931D03*
X001710Y011431D03*
X001710Y011931D03*
X001710Y012431D03*
X003810Y012431D03*
X003810Y011931D03*
X003810Y011431D03*
X003810Y010931D03*
D20*
X002760Y011681D03*
D21*
X002811Y014681D03*
X001709Y014681D03*
D22*
X003512Y013212D03*
X004181Y013212D03*
X005055Y013212D03*
X005725Y013212D03*
D23*
X005595Y010681D03*
X004925Y010681D03*
D24*
X005260Y009074D03*
X001260Y009074D03*
D25*
X006260Y007681D03*
X006260Y006681D03*
X009260Y006681D03*
X009260Y007681D03*
D26*
X003961Y005590D03*
X024059Y010362D03*
D27*
X022878Y010362D03*
X022878Y009181D03*
X024059Y009181D03*
X024059Y008000D03*
X022878Y008000D03*
X005142Y006771D03*
X003961Y006771D03*
X005142Y005590D03*
D28*
X002260Y006181D03*
X025760Y009181D03*
D29*
X013642Y011673D03*
X011193Y011673D03*
X011193Y016173D03*
X013642Y016173D03*
X013748Y006173D03*
X011299Y006173D03*
D30*
X009213Y014181D03*
X008701Y014181D03*
X008701Y014681D03*
X009213Y014681D03*
X009213Y015181D03*
X008701Y015181D03*
X007516Y015181D03*
X007516Y014681D03*
X007004Y014681D03*
X007004Y015181D03*
X007004Y014181D03*
X007516Y014181D03*
D31*
X007150Y013295D03*
X007740Y012311D03*
X008725Y011917D03*
X007740Y011720D03*
X005575Y012704D03*
X004591Y013689D03*
X002819Y013689D03*
X002032Y012901D03*
X007937Y015067D03*
X008725Y013295D03*
X011874Y013295D03*
X013055Y013885D03*
X013055Y015067D03*
X013055Y010539D03*
X013055Y009358D03*
X012465Y008767D03*
X007937Y008177D03*
X007347Y007586D03*
X019551Y009555D03*
X022307Y008374D03*
X022307Y006799D03*
M02*
