%
M48
M72
T01C0.0240
T02C0.0320
T03C0.0402
T04C0.0440
T05C0.1181
T06C0.1260
%
T01
X7347Y7586
X7937Y8177
X12465Y8767
X13055Y9358
X13055Y10539
X8725Y11917
X7740Y11720
X7740Y12311
X7150Y13295
X8725Y13295
X7937Y15067
X4591Y13689
X5575Y12704
X2819Y13689
X2032Y12901
X11874Y13295
X13055Y13885
X13055Y15067
X19551Y9555
X22307Y8374
X22307Y6799
T02
X9260Y6681
X9260Y7681
X6260Y7681
X6260Y6681
T03
X5142Y6771
X3961Y6771
X3961Y5590
X5142Y5590
X22878Y8000
X24059Y8000
X24059Y9181
X22878Y9181
X22878Y10362
X24059Y10362
T04
X5260Y9074
X1260Y9074
T05
X2260Y6181
X25760Y9181
T06
X1441Y2862
X1441Y16641
X26638Y16641
X26638Y3256
M30
