G75*
G70*
%OFA0B0*%
%FSLAX24Y24*%
%IPPOS*%
%LPD*%
%AMOC8*
5,1,8,0,0,1.08239X$1,22.5*
%
%ADD10C,0.1340*%
%ADD11C,0.0740*%
%ADD12OC8,0.0600*%
%ADD13R,0.0682X0.0682*%
%ADD14C,0.0682*%
%ADD15C,0.1261*%
%ADD16C,0.0480*%
%ADD17R,0.0437X0.0437*%
%ADD18R,0.0476X0.0476*%
D10*
X001361Y001375D03*
X012385Y009052D03*
X001558Y017713D03*
X026558Y017713D03*
X026558Y001769D03*
D11*
X005133Y007674D03*
X001133Y007674D03*
D12*
X006479Y007206D03*
X007660Y007206D03*
X007660Y004206D03*
X006479Y004206D03*
D13*
X003881Y004103D03*
X024176Y009859D03*
D14*
X022995Y009859D03*
X022995Y008678D03*
X024176Y008678D03*
X024176Y007497D03*
X022995Y007497D03*
X005062Y005284D03*
X003881Y005284D03*
X005062Y004103D03*
D15*
X002180Y004694D03*
X025877Y008678D03*
D16*
X022778Y010902D03*
X021991Y011847D03*
X020416Y013501D03*
X020023Y013894D03*
X017109Y014131D03*
X015613Y015627D03*
X013802Y015627D03*
X012542Y015233D03*
X011991Y014839D03*
X010967Y014209D03*
X009786Y015627D03*
X008605Y015391D03*
X008448Y015863D03*
X008605Y014052D03*
X007739Y014052D03*
X006086Y013816D03*
X005219Y013894D03*
X003330Y013580D03*
X001519Y011769D03*
X006479Y011296D03*
X007267Y011296D03*
X016794Y001454D03*
X016558Y000981D03*
X010101Y001060D03*
X008211Y001217D03*
X024826Y011690D03*
D17*
X002739Y016335D03*
D18*
X004314Y012202D03*
X015337Y012398D03*
X025967Y013580D03*
X019078Y004524D03*
X011400Y001965D03*
M02*
