%
M48
M72
T01C0.0197
T02C0.0236
T03C0.0240
T04C0.0320
T05C0.0402
T06C0.0440
T07C0.1181
T08C0.1260
%
T01
X2739Y16335
T02
X4314Y12202
X15337Y12398
X25967Y13580
X19078Y4524
X11400Y1965
T03
X10101Y1060
X8211Y1217
X16558Y981
X16794Y1454
X22778Y10902
X21991Y11847
X20416Y13501
X20023Y13894
X17109Y14131
X15613Y15627
X13802Y15627
X12542Y15233
X11991Y14839
X10967Y14209
X9786Y15627
X8605Y15391
X8448Y15863
X8605Y14052
X7739Y14052
X6086Y13816
X5219Y13894
X3330Y13580
X1519Y11769
X6479Y11296
X7267Y11296
X24826Y11690
T04
X7660Y7206
X6479Y7206
X6479Y4206
X7660Y4206
T05
X5062Y4103
X3881Y4103
X3881Y5284
X5062Y5284
X22995Y7497
X24176Y7497
X24176Y8678
X22995Y8678
X22995Y9859
X24176Y9859
T06
X5133Y7674
X1133Y7674
T07
X2180Y4694
X25877Y8678
T08
X1361Y1375
X12385Y9052
X1558Y17713
X26558Y17713
X26558Y1769
M30
