G75*
G70*
%OFA0B0*%
%FSLAX24Y24*%
%IPPOS*%
%LPD*%
%AMOC8*
5,1,8,0,0,1.08239X$1,22.5*
%
%ADD10C,0.0000*%
%ADD11C,0.0060*%
%ADD12C,0.0030*%
%ADD13C,0.0050*%
%ADD14R,0.0945X0.0236*%
%ADD15C,0.0040*%
%ADD16R,0.0200X0.1000*%
%ADD17R,0.0750X0.0300*%
%ADD18R,0.0150X0.0200*%
%ADD19C,0.0100*%
D10*
X000260Y001681D02*
X000260Y017822D01*
X027819Y017822D01*
X027819Y001681D01*
X000260Y001681D01*
X000811Y002862D02*
X000813Y002912D01*
X000819Y002962D01*
X000829Y003011D01*
X000843Y003059D01*
X000860Y003106D01*
X000881Y003151D01*
X000906Y003195D01*
X000934Y003236D01*
X000966Y003275D01*
X001000Y003312D01*
X001037Y003346D01*
X001077Y003376D01*
X001119Y003403D01*
X001163Y003427D01*
X001209Y003448D01*
X001256Y003464D01*
X001304Y003477D01*
X001354Y003486D01*
X001403Y003491D01*
X001454Y003492D01*
X001504Y003489D01*
X001553Y003482D01*
X001602Y003471D01*
X001650Y003456D01*
X001696Y003438D01*
X001741Y003416D01*
X001784Y003390D01*
X001825Y003361D01*
X001864Y003329D01*
X001900Y003294D01*
X001932Y003256D01*
X001962Y003216D01*
X001989Y003173D01*
X002012Y003129D01*
X002031Y003083D01*
X002047Y003035D01*
X002059Y002986D01*
X002067Y002937D01*
X002071Y002887D01*
X002071Y002837D01*
X002067Y002787D01*
X002059Y002738D01*
X002047Y002689D01*
X002031Y002641D01*
X002012Y002595D01*
X001989Y002551D01*
X001962Y002508D01*
X001932Y002468D01*
X001900Y002430D01*
X001864Y002395D01*
X001825Y002363D01*
X001784Y002334D01*
X001741Y002308D01*
X001696Y002286D01*
X001650Y002268D01*
X001602Y002253D01*
X001553Y002242D01*
X001504Y002235D01*
X001454Y002232D01*
X001403Y002233D01*
X001354Y002238D01*
X001304Y002247D01*
X001256Y002260D01*
X001209Y002276D01*
X001163Y002297D01*
X001119Y002321D01*
X001077Y002348D01*
X001037Y002378D01*
X001000Y002412D01*
X000966Y002449D01*
X000934Y002488D01*
X000906Y002529D01*
X000881Y002573D01*
X000860Y002618D01*
X000843Y002665D01*
X000829Y002713D01*
X000819Y002762D01*
X000813Y002812D01*
X000811Y002862D01*
X001669Y006181D02*
X001671Y006229D01*
X001677Y006277D01*
X001687Y006324D01*
X001700Y006370D01*
X001718Y006415D01*
X001738Y006459D01*
X001763Y006501D01*
X001791Y006540D01*
X001821Y006577D01*
X001855Y006611D01*
X001892Y006643D01*
X001930Y006672D01*
X001971Y006697D01*
X002014Y006719D01*
X002059Y006737D01*
X002105Y006751D01*
X002152Y006762D01*
X002200Y006769D01*
X002248Y006772D01*
X002296Y006771D01*
X002344Y006766D01*
X002392Y006757D01*
X002438Y006745D01*
X002483Y006728D01*
X002527Y006708D01*
X002569Y006685D01*
X002609Y006658D01*
X002647Y006628D01*
X002682Y006595D01*
X002714Y006559D01*
X002744Y006521D01*
X002770Y006480D01*
X002792Y006437D01*
X002812Y006393D01*
X002827Y006348D01*
X002839Y006301D01*
X002847Y006253D01*
X002851Y006205D01*
X002851Y006157D01*
X002847Y006109D01*
X002839Y006061D01*
X002827Y006014D01*
X002812Y005969D01*
X002792Y005925D01*
X002770Y005882D01*
X002744Y005841D01*
X002714Y005803D01*
X002682Y005767D01*
X002647Y005734D01*
X002609Y005704D01*
X002569Y005677D01*
X002527Y005654D01*
X002483Y005634D01*
X002438Y005617D01*
X002392Y005605D01*
X002344Y005596D01*
X002296Y005591D01*
X002248Y005590D01*
X002200Y005593D01*
X002152Y005600D01*
X002105Y005611D01*
X002059Y005625D01*
X002014Y005643D01*
X001971Y005665D01*
X001930Y005690D01*
X001892Y005719D01*
X001855Y005751D01*
X001821Y005785D01*
X001791Y005822D01*
X001763Y005861D01*
X001738Y005903D01*
X001718Y005947D01*
X001700Y005992D01*
X001687Y006038D01*
X001677Y006085D01*
X001671Y006133D01*
X001669Y006181D01*
X002640Y012641D02*
X002642Y012620D01*
X002647Y012600D01*
X002656Y012581D01*
X002668Y012564D01*
X002683Y012549D01*
X002700Y012537D01*
X002719Y012528D01*
X002739Y012523D01*
X002760Y012521D01*
X002781Y012523D01*
X002801Y012528D01*
X002820Y012537D01*
X002837Y012549D01*
X002852Y012564D01*
X002864Y012581D01*
X002873Y012600D01*
X002878Y012620D01*
X002880Y012641D01*
X000811Y016641D02*
X000813Y016691D01*
X000819Y016741D01*
X000829Y016790D01*
X000843Y016838D01*
X000860Y016885D01*
X000881Y016930D01*
X000906Y016974D01*
X000934Y017015D01*
X000966Y017054D01*
X001000Y017091D01*
X001037Y017125D01*
X001077Y017155D01*
X001119Y017182D01*
X001163Y017206D01*
X001209Y017227D01*
X001256Y017243D01*
X001304Y017256D01*
X001354Y017265D01*
X001403Y017270D01*
X001454Y017271D01*
X001504Y017268D01*
X001553Y017261D01*
X001602Y017250D01*
X001650Y017235D01*
X001696Y017217D01*
X001741Y017195D01*
X001784Y017169D01*
X001825Y017140D01*
X001864Y017108D01*
X001900Y017073D01*
X001932Y017035D01*
X001962Y016995D01*
X001989Y016952D01*
X002012Y016908D01*
X002031Y016862D01*
X002047Y016814D01*
X002059Y016765D01*
X002067Y016716D01*
X002071Y016666D01*
X002071Y016616D01*
X002067Y016566D01*
X002059Y016517D01*
X002047Y016468D01*
X002031Y016420D01*
X002012Y016374D01*
X001989Y016330D01*
X001962Y016287D01*
X001932Y016247D01*
X001900Y016209D01*
X001864Y016174D01*
X001825Y016142D01*
X001784Y016113D01*
X001741Y016087D01*
X001696Y016065D01*
X001650Y016047D01*
X001602Y016032D01*
X001553Y016021D01*
X001504Y016014D01*
X001454Y016011D01*
X001403Y016012D01*
X001354Y016017D01*
X001304Y016026D01*
X001256Y016039D01*
X001209Y016055D01*
X001163Y016076D01*
X001119Y016100D01*
X001077Y016127D01*
X001037Y016157D01*
X001000Y016191D01*
X000966Y016228D01*
X000934Y016267D01*
X000906Y016308D01*
X000881Y016352D01*
X000860Y016397D01*
X000843Y016444D01*
X000829Y016492D01*
X000819Y016541D01*
X000813Y016591D01*
X000811Y016641D01*
X025169Y009181D02*
X025171Y009229D01*
X025177Y009277D01*
X025187Y009324D01*
X025200Y009370D01*
X025218Y009415D01*
X025238Y009459D01*
X025263Y009501D01*
X025291Y009540D01*
X025321Y009577D01*
X025355Y009611D01*
X025392Y009643D01*
X025430Y009672D01*
X025471Y009697D01*
X025514Y009719D01*
X025559Y009737D01*
X025605Y009751D01*
X025652Y009762D01*
X025700Y009769D01*
X025748Y009772D01*
X025796Y009771D01*
X025844Y009766D01*
X025892Y009757D01*
X025938Y009745D01*
X025983Y009728D01*
X026027Y009708D01*
X026069Y009685D01*
X026109Y009658D01*
X026147Y009628D01*
X026182Y009595D01*
X026214Y009559D01*
X026244Y009521D01*
X026270Y009480D01*
X026292Y009437D01*
X026312Y009393D01*
X026327Y009348D01*
X026339Y009301D01*
X026347Y009253D01*
X026351Y009205D01*
X026351Y009157D01*
X026347Y009109D01*
X026339Y009061D01*
X026327Y009014D01*
X026312Y008969D01*
X026292Y008925D01*
X026270Y008882D01*
X026244Y008841D01*
X026214Y008803D01*
X026182Y008767D01*
X026147Y008734D01*
X026109Y008704D01*
X026069Y008677D01*
X026027Y008654D01*
X025983Y008634D01*
X025938Y008617D01*
X025892Y008605D01*
X025844Y008596D01*
X025796Y008591D01*
X025748Y008590D01*
X025700Y008593D01*
X025652Y008600D01*
X025605Y008611D01*
X025559Y008625D01*
X025514Y008643D01*
X025471Y008665D01*
X025430Y008690D01*
X025392Y008719D01*
X025355Y008751D01*
X025321Y008785D01*
X025291Y008822D01*
X025263Y008861D01*
X025238Y008903D01*
X025218Y008947D01*
X025200Y008992D01*
X025187Y009038D01*
X025177Y009085D01*
X025171Y009133D01*
X025169Y009181D01*
X026008Y003256D02*
X026010Y003306D01*
X026016Y003356D01*
X026026Y003405D01*
X026040Y003453D01*
X026057Y003500D01*
X026078Y003545D01*
X026103Y003589D01*
X026131Y003630D01*
X026163Y003669D01*
X026197Y003706D01*
X026234Y003740D01*
X026274Y003770D01*
X026316Y003797D01*
X026360Y003821D01*
X026406Y003842D01*
X026453Y003858D01*
X026501Y003871D01*
X026551Y003880D01*
X026600Y003885D01*
X026651Y003886D01*
X026701Y003883D01*
X026750Y003876D01*
X026799Y003865D01*
X026847Y003850D01*
X026893Y003832D01*
X026938Y003810D01*
X026981Y003784D01*
X027022Y003755D01*
X027061Y003723D01*
X027097Y003688D01*
X027129Y003650D01*
X027159Y003610D01*
X027186Y003567D01*
X027209Y003523D01*
X027228Y003477D01*
X027244Y003429D01*
X027256Y003380D01*
X027264Y003331D01*
X027268Y003281D01*
X027268Y003231D01*
X027264Y003181D01*
X027256Y003132D01*
X027244Y003083D01*
X027228Y003035D01*
X027209Y002989D01*
X027186Y002945D01*
X027159Y002902D01*
X027129Y002862D01*
X027097Y002824D01*
X027061Y002789D01*
X027022Y002757D01*
X026981Y002728D01*
X026938Y002702D01*
X026893Y002680D01*
X026847Y002662D01*
X026799Y002647D01*
X026750Y002636D01*
X026701Y002629D01*
X026651Y002626D01*
X026600Y002627D01*
X026551Y002632D01*
X026501Y002641D01*
X026453Y002654D01*
X026406Y002670D01*
X026360Y002691D01*
X026316Y002715D01*
X026274Y002742D01*
X026234Y002772D01*
X026197Y002806D01*
X026163Y002843D01*
X026131Y002882D01*
X026103Y002923D01*
X026078Y002967D01*
X026057Y003012D01*
X026040Y003059D01*
X026026Y003107D01*
X026016Y003156D01*
X026010Y003206D01*
X026008Y003256D01*
X026008Y016641D02*
X026010Y016691D01*
X026016Y016741D01*
X026026Y016790D01*
X026040Y016838D01*
X026057Y016885D01*
X026078Y016930D01*
X026103Y016974D01*
X026131Y017015D01*
X026163Y017054D01*
X026197Y017091D01*
X026234Y017125D01*
X026274Y017155D01*
X026316Y017182D01*
X026360Y017206D01*
X026406Y017227D01*
X026453Y017243D01*
X026501Y017256D01*
X026551Y017265D01*
X026600Y017270D01*
X026651Y017271D01*
X026701Y017268D01*
X026750Y017261D01*
X026799Y017250D01*
X026847Y017235D01*
X026893Y017217D01*
X026938Y017195D01*
X026981Y017169D01*
X027022Y017140D01*
X027061Y017108D01*
X027097Y017073D01*
X027129Y017035D01*
X027159Y016995D01*
X027186Y016952D01*
X027209Y016908D01*
X027228Y016862D01*
X027244Y016814D01*
X027256Y016765D01*
X027264Y016716D01*
X027268Y016666D01*
X027268Y016616D01*
X027264Y016566D01*
X027256Y016517D01*
X027244Y016468D01*
X027228Y016420D01*
X027209Y016374D01*
X027186Y016330D01*
X027159Y016287D01*
X027129Y016247D01*
X027097Y016209D01*
X027061Y016174D01*
X027022Y016142D01*
X026981Y016113D01*
X026938Y016087D01*
X026893Y016065D01*
X026847Y016047D01*
X026799Y016032D01*
X026750Y016021D01*
X026701Y016014D01*
X026651Y016011D01*
X026600Y016012D01*
X026551Y016017D01*
X026501Y016026D01*
X026453Y016039D01*
X026406Y016055D01*
X026360Y016076D01*
X026316Y016100D01*
X026274Y016127D01*
X026234Y016157D01*
X026197Y016191D01*
X026163Y016228D01*
X026131Y016267D01*
X026103Y016308D01*
X026078Y016352D01*
X026057Y016397D01*
X026040Y016444D01*
X026026Y016492D01*
X026016Y016541D01*
X026010Y016591D01*
X026008Y016641D01*
D11*
X014610Y013811D02*
X014610Y013551D01*
X014510Y013071D02*
X014010Y013071D01*
X014010Y014291D02*
X014140Y014291D01*
X014380Y014291D01*
X014510Y014291D01*
X014380Y014291D02*
X014378Y014270D01*
X014373Y014250D01*
X014364Y014231D01*
X014352Y014214D01*
X014337Y014199D01*
X014320Y014187D01*
X014301Y014178D01*
X014281Y014173D01*
X014260Y014171D01*
X014239Y014173D01*
X014219Y014178D01*
X014200Y014187D01*
X014183Y014199D01*
X014168Y014214D01*
X014156Y014231D01*
X014147Y014250D01*
X014142Y014270D01*
X014140Y014291D01*
X009150Y013111D02*
X008380Y013111D01*
X008140Y013111D01*
X007370Y013111D01*
X007370Y013041D01*
X008140Y013111D02*
X008142Y013090D01*
X008147Y013070D01*
X008156Y013051D01*
X008168Y013034D01*
X008183Y013019D01*
X008200Y013007D01*
X008219Y012998D01*
X008239Y012993D01*
X008260Y012991D01*
X008281Y012993D01*
X008301Y012998D01*
X008320Y013007D01*
X008337Y013019D01*
X008352Y013034D01*
X008364Y013051D01*
X008373Y013070D01*
X008378Y013090D01*
X008380Y013111D01*
X009150Y013111D02*
X009150Y013041D01*
X009820Y010781D02*
X010220Y010781D01*
X009150Y009321D02*
X009150Y009251D01*
X007370Y009251D01*
X007370Y009321D01*
X007010Y008081D02*
X007060Y008031D01*
X008460Y008031D01*
X008510Y008081D01*
X008660Y008081D01*
X008677Y008079D01*
X008694Y008075D01*
X008710Y008068D01*
X008724Y008058D01*
X008737Y008045D01*
X008747Y008031D01*
X008754Y008015D01*
X008758Y007998D01*
X008760Y007981D01*
X008760Y007381D01*
X008758Y007364D01*
X008754Y007347D01*
X008747Y007331D01*
X008737Y007317D01*
X008724Y007304D01*
X008710Y007294D01*
X008694Y007287D01*
X008677Y007283D01*
X008660Y007281D01*
X008510Y007281D01*
X008460Y007331D01*
X007060Y007331D01*
X007010Y007281D01*
X006860Y007281D01*
X006843Y007283D01*
X006826Y007287D01*
X006810Y007294D01*
X006796Y007304D01*
X006783Y007317D01*
X006773Y007331D01*
X006766Y007347D01*
X006762Y007364D01*
X006760Y007381D01*
X006760Y007981D01*
X006762Y007998D01*
X006766Y008015D01*
X006773Y008031D01*
X006783Y008045D01*
X006796Y008058D01*
X006810Y008068D01*
X006826Y008075D01*
X006843Y008079D01*
X006860Y008081D01*
X007010Y008081D01*
X007010Y007081D02*
X007060Y007031D01*
X008460Y007031D01*
X008510Y007081D01*
X008660Y007081D01*
X008677Y007079D01*
X008694Y007075D01*
X008710Y007068D01*
X008724Y007058D01*
X008737Y007045D01*
X008747Y007031D01*
X008754Y007015D01*
X008758Y006998D01*
X008760Y006981D01*
X008760Y006381D01*
X008758Y006364D01*
X008754Y006347D01*
X008747Y006331D01*
X008737Y006317D01*
X008724Y006304D01*
X008710Y006294D01*
X008694Y006287D01*
X008677Y006283D01*
X008660Y006281D01*
X008510Y006281D01*
X008460Y006331D01*
X007060Y006331D01*
X007010Y006281D01*
X006860Y006281D01*
X006843Y006283D01*
X006826Y006287D01*
X006810Y006294D01*
X006796Y006304D01*
X006783Y006317D01*
X006773Y006331D01*
X006766Y006347D01*
X006762Y006364D01*
X006760Y006381D01*
X006760Y006981D01*
X006762Y006998D01*
X006766Y007015D01*
X006773Y007031D01*
X006783Y007045D01*
X006796Y007058D01*
X006810Y007068D01*
X006826Y007075D01*
X006843Y007079D01*
X006860Y007081D01*
X007010Y007081D01*
X007220Y005661D02*
X007640Y005661D01*
X007880Y005661D01*
X008300Y005661D01*
X007880Y005661D02*
X007878Y005640D01*
X007873Y005620D01*
X007864Y005601D01*
X007852Y005584D01*
X007837Y005569D01*
X007820Y005557D01*
X007801Y005548D01*
X007781Y005543D01*
X007760Y005541D01*
X007739Y005543D01*
X007719Y005548D01*
X007700Y005557D01*
X007683Y005569D01*
X007668Y005584D01*
X007656Y005601D01*
X007647Y005620D01*
X007642Y005640D01*
X007640Y005661D01*
X007220Y003701D02*
X008300Y003701D01*
X014010Y003571D02*
X014510Y003571D01*
X014610Y004051D02*
X014610Y004311D01*
X014510Y004791D02*
X014380Y004791D01*
X014140Y004791D01*
X014010Y004791D01*
X014140Y004791D02*
X014142Y004770D01*
X014147Y004750D01*
X014156Y004731D01*
X014168Y004714D01*
X014183Y004699D01*
X014200Y004687D01*
X014219Y004678D01*
X014239Y004673D01*
X014260Y004671D01*
X014281Y004673D01*
X014301Y004678D01*
X014320Y004687D01*
X014337Y004699D01*
X014352Y004714D01*
X014364Y004731D01*
X014373Y004750D01*
X014378Y004770D01*
X014380Y004791D01*
X014510Y008571D02*
X014010Y008571D01*
X014610Y009051D02*
X014610Y009311D01*
X014510Y009791D02*
X014380Y009791D01*
X014140Y009791D01*
X014010Y009791D01*
X014140Y009791D02*
X014142Y009770D01*
X014147Y009750D01*
X014156Y009731D01*
X014168Y009714D01*
X014183Y009699D01*
X014200Y009687D01*
X014219Y009678D01*
X014239Y009673D01*
X014260Y009671D01*
X014281Y009673D01*
X014301Y009678D01*
X014320Y009687D01*
X014337Y009699D01*
X014352Y009714D01*
X014364Y009731D01*
X014373Y009750D01*
X014378Y009770D01*
X014380Y009791D01*
X006700Y010531D02*
X006300Y010531D01*
X004060Y009574D02*
X002460Y009574D01*
X002460Y008574D01*
X004060Y008574D01*
X004060Y009574D01*
X003660Y009324D02*
X003260Y009074D01*
X003260Y008824D01*
X003260Y009074D02*
X003660Y008824D01*
X003660Y009324D01*
X003860Y009074D02*
X003260Y009074D01*
X003260Y009324D01*
X003260Y009074D02*
X003010Y009074D01*
X003420Y010721D02*
X002100Y010721D01*
X002100Y012641D02*
X002640Y012641D01*
X002880Y012641D01*
X003420Y012641D01*
D12*
X001719Y012684D02*
X001405Y012998D01*
X001562Y012998D02*
X001562Y012684D01*
X001405Y012684D02*
X001719Y012998D01*
X001719Y012841D02*
X001405Y012841D01*
X006795Y013024D02*
X007109Y013338D01*
X007109Y013181D02*
X006795Y013181D01*
X006795Y013338D02*
X007109Y013024D01*
X006952Y013024D02*
X006952Y013338D01*
X013405Y014314D02*
X013719Y014628D01*
X013719Y014471D02*
X013405Y014471D01*
X013405Y014628D02*
X013719Y014314D01*
X013562Y014314D02*
X013562Y014628D01*
X013562Y010128D02*
X013562Y009814D01*
X013719Y009814D02*
X013405Y010128D01*
X013405Y009971D02*
X013719Y009971D01*
X013719Y010128D02*
X013405Y009814D01*
X006789Y006008D02*
X006475Y005694D01*
X006632Y005694D02*
X006632Y006008D01*
X006475Y006008D02*
X006789Y005694D01*
X006789Y005851D02*
X006475Y005851D01*
X013405Y005128D02*
X013719Y004814D01*
X013719Y004971D02*
X013405Y004971D01*
X013405Y004814D02*
X013719Y005128D01*
X013562Y005128D02*
X013562Y004814D01*
D13*
X013839Y005051D02*
X011685Y005051D01*
X011685Y007248D01*
X011240Y007252D02*
X011240Y005051D01*
X011685Y005051D01*
X009942Y005668D02*
X009641Y005668D01*
X009942Y005969D01*
X009942Y006044D01*
X009866Y006119D01*
X009716Y006119D01*
X009641Y006044D01*
X009481Y006119D02*
X009481Y005743D01*
X009406Y005668D01*
X009256Y005668D01*
X009181Y005743D01*
X009181Y006119D01*
X011240Y007252D02*
X013839Y007252D01*
X013839Y005051D01*
X011634Y003611D02*
X011334Y003611D01*
X011174Y003536D02*
X011099Y003611D01*
X010949Y003611D01*
X010874Y003536D01*
X010874Y003235D01*
X010949Y003160D01*
X011099Y003160D01*
X011174Y003235D01*
X011334Y003235D02*
X011334Y003160D01*
X011334Y003235D02*
X011634Y003536D01*
X011634Y003611D01*
X013712Y003294D02*
X013712Y002919D01*
X013787Y002844D01*
X013938Y002844D01*
X014013Y002919D01*
X014013Y003294D01*
X014173Y003069D02*
X014323Y003219D01*
X014473Y003294D01*
X014398Y003069D02*
X014173Y003069D01*
X014173Y002919D01*
X014248Y002844D01*
X014398Y002844D01*
X014473Y002919D01*
X014473Y002994D01*
X014398Y003069D01*
X016760Y003696D02*
X018394Y002948D01*
X020126Y002948D02*
X021760Y003696D01*
X020127Y002948D02*
X020060Y002908D01*
X019992Y002872D01*
X019922Y002838D01*
X019850Y002808D01*
X019778Y002782D01*
X019703Y002759D01*
X019628Y002740D01*
X019553Y002724D01*
X019476Y002712D01*
X019399Y002704D01*
X019321Y002699D01*
X019244Y002698D01*
X019167Y002701D01*
X019089Y002707D01*
X019012Y002718D01*
X018936Y002732D01*
X018861Y002749D01*
X018786Y002770D01*
X018713Y002795D01*
X018641Y002823D01*
X018570Y002855D01*
X018501Y002890D01*
X018433Y002929D01*
X018394Y006414D02*
X018454Y006456D01*
X018517Y006496D01*
X018582Y006533D01*
X018648Y006566D01*
X018717Y006595D01*
X018786Y006621D01*
X018857Y006644D01*
X018929Y006663D01*
X019001Y006678D01*
X019075Y006689D01*
X019149Y006697D01*
X019223Y006701D01*
X019297Y006701D01*
X019371Y006697D01*
X019445Y006689D01*
X019519Y006678D01*
X019591Y006663D01*
X019663Y006644D01*
X019734Y006621D01*
X019803Y006595D01*
X019872Y006566D01*
X019938Y006533D01*
X020003Y006496D01*
X020066Y006456D01*
X020126Y006414D01*
X020126Y006413D02*
X021760Y005685D01*
X023669Y007212D02*
X023669Y007281D01*
X023669Y007279D02*
X023669Y007212D01*
X021760Y008196D02*
X020126Y007448D01*
X018394Y007448D02*
X016760Y008196D01*
X018433Y007429D02*
X018501Y007390D01*
X018570Y007355D01*
X018641Y007323D01*
X018713Y007295D01*
X018786Y007270D01*
X018861Y007249D01*
X018936Y007232D01*
X019012Y007218D01*
X019089Y007207D01*
X019167Y007201D01*
X019244Y007198D01*
X019321Y007199D01*
X019399Y007204D01*
X019476Y007212D01*
X019553Y007224D01*
X019628Y007240D01*
X019703Y007259D01*
X019778Y007282D01*
X019850Y007308D01*
X019922Y007338D01*
X019992Y007372D01*
X020060Y007408D01*
X020127Y007448D01*
X018394Y006413D02*
X016760Y005645D01*
X018394Y010914D02*
X018454Y010956D01*
X018517Y010996D01*
X018582Y011033D01*
X018648Y011066D01*
X018717Y011095D01*
X018786Y011121D01*
X018857Y011144D01*
X018929Y011163D01*
X019001Y011178D01*
X019075Y011189D01*
X019149Y011197D01*
X019223Y011201D01*
X019297Y011201D01*
X019371Y011197D01*
X019445Y011189D01*
X019519Y011178D01*
X019591Y011163D01*
X019663Y011144D01*
X019734Y011121D01*
X019803Y011095D01*
X019872Y011066D01*
X019938Y011033D01*
X020003Y010996D01*
X020066Y010956D01*
X020126Y010914D01*
X020126Y010913D02*
X021760Y010185D01*
X020126Y011948D02*
X021760Y012696D01*
X020127Y011948D02*
X020060Y011908D01*
X019992Y011872D01*
X019922Y011838D01*
X019850Y011808D01*
X019778Y011782D01*
X019703Y011759D01*
X019628Y011740D01*
X019553Y011724D01*
X019476Y011712D01*
X019399Y011704D01*
X019321Y011699D01*
X019244Y011698D01*
X019167Y011701D01*
X019089Y011707D01*
X019012Y011718D01*
X018936Y011732D01*
X018861Y011749D01*
X018786Y011770D01*
X018713Y011795D01*
X018641Y011823D01*
X018570Y011855D01*
X018501Y011890D01*
X018433Y011929D01*
X018394Y011948D02*
X016760Y012696D01*
X018394Y015414D02*
X018454Y015456D01*
X018517Y015496D01*
X018582Y015533D01*
X018648Y015566D01*
X018717Y015595D01*
X018786Y015621D01*
X018857Y015644D01*
X018929Y015663D01*
X019001Y015678D01*
X019075Y015689D01*
X019149Y015697D01*
X019223Y015701D01*
X019297Y015701D01*
X019371Y015697D01*
X019445Y015689D01*
X019519Y015678D01*
X019591Y015663D01*
X019663Y015644D01*
X019734Y015621D01*
X019803Y015595D01*
X019872Y015566D01*
X019938Y015533D01*
X020003Y015496D01*
X020066Y015456D01*
X020126Y015414D01*
X020126Y015413D02*
X021760Y014685D01*
X018394Y015413D02*
X016760Y014645D01*
X014670Y014584D02*
X014595Y014509D01*
X014445Y014509D01*
X014370Y014584D01*
X014370Y014734D02*
X014520Y014809D01*
X014595Y014809D01*
X014670Y014734D01*
X014670Y014584D01*
X014370Y014734D02*
X014370Y014959D01*
X014670Y014959D01*
X014210Y014959D02*
X014210Y014584D01*
X014134Y014509D01*
X013984Y014509D01*
X013909Y014584D01*
X013909Y014959D01*
X013732Y015051D02*
X011579Y015051D01*
X011579Y017248D01*
X011134Y017252D02*
X011134Y015051D01*
X011579Y015051D01*
X011787Y013953D02*
X011712Y013878D01*
X011712Y013578D01*
X011787Y013503D01*
X011938Y013503D01*
X012013Y013578D01*
X012173Y013578D02*
X012248Y013503D01*
X012398Y013503D01*
X012473Y013578D01*
X012473Y013653D01*
X012398Y013728D01*
X012173Y013728D01*
X012173Y013578D01*
X012173Y013728D02*
X012323Y013878D01*
X012473Y013953D01*
X012013Y013878D02*
X011938Y013953D01*
X011787Y013953D01*
X013732Y015051D02*
X013732Y017252D01*
X011134Y017252D01*
X009776Y013709D02*
X009851Y013634D01*
X009851Y013559D01*
X009776Y013484D01*
X009851Y013409D01*
X009851Y013334D01*
X009776Y013259D01*
X009626Y013259D01*
X009551Y013334D01*
X009391Y013334D02*
X009391Y013709D01*
X009551Y013634D02*
X009626Y013709D01*
X009776Y013709D01*
X009776Y013484D02*
X009701Y013484D01*
X009391Y013334D02*
X009316Y013259D01*
X009165Y013259D01*
X009090Y013334D01*
X009090Y013709D01*
X011134Y012752D02*
X011134Y010551D01*
X011579Y010551D01*
X011579Y012748D01*
X011134Y012752D02*
X013732Y012752D01*
X013732Y010551D01*
X011579Y010551D01*
X011516Y010410D02*
X011216Y010410D01*
X011216Y010185D01*
X011366Y010260D01*
X011441Y010260D01*
X011516Y010185D01*
X011516Y010035D01*
X011441Y009960D01*
X011291Y009960D01*
X011216Y010035D01*
X011056Y010035D02*
X010981Y009960D01*
X010831Y009960D01*
X010756Y010035D01*
X010756Y010335D01*
X010831Y010410D01*
X010981Y010410D01*
X011056Y010335D01*
X013909Y010459D02*
X013909Y010084D01*
X013984Y010009D01*
X014134Y010009D01*
X014210Y010084D01*
X014210Y010459D01*
X014370Y010234D02*
X014670Y010234D01*
X014595Y010009D02*
X014595Y010459D01*
X014370Y010234D01*
X016760Y010145D02*
X018394Y010913D01*
X005756Y004511D02*
X005756Y004185D01*
X004772Y004185D01*
X004772Y004149D01*
X005732Y004149D01*
X005756Y004185D02*
X005756Y002878D01*
X004772Y002878D01*
X004772Y004149D01*
X004772Y004185D02*
X004772Y004511D01*
X005756Y004511D01*
X004063Y003677D02*
X004063Y002693D01*
X002791Y002693D01*
X002791Y003653D01*
X002756Y003677D02*
X002756Y002693D01*
X002791Y002693D01*
X002756Y002693D02*
X002429Y002693D01*
X002429Y003677D01*
X002756Y003677D01*
X004063Y003677D01*
X003246Y009749D02*
X002945Y009749D01*
X003096Y009749D02*
X003096Y010200D01*
X002945Y010050D01*
X002785Y010125D02*
X002710Y010200D01*
X002485Y010200D01*
X002485Y009749D01*
X002710Y009749D01*
X002785Y009824D01*
X002785Y010125D01*
X001756Y012946D02*
X001455Y012946D01*
X001606Y012946D02*
X001606Y013396D01*
X001455Y013246D01*
X001295Y013396D02*
X001295Y013021D01*
X001220Y012946D01*
X001070Y012946D01*
X000995Y013021D01*
X000995Y013396D01*
D14*
X019260Y013681D03*
X019260Y009181D03*
X019260Y004681D03*
D15*
X016087Y005010D02*
X016010Y004933D01*
X015857Y004933D01*
X015780Y005010D01*
X015626Y004933D02*
X015319Y004933D01*
X015166Y004933D02*
X015013Y005087D01*
X015089Y005087D02*
X014859Y005087D01*
X014859Y004933D02*
X014859Y005394D01*
X015089Y005394D01*
X015166Y005317D01*
X015166Y005164D01*
X015089Y005087D01*
X015319Y005240D02*
X015473Y005394D01*
X015473Y004933D01*
X015933Y005164D02*
X016010Y005164D01*
X016087Y005087D01*
X016087Y005010D01*
X016010Y005164D02*
X016087Y005240D01*
X016087Y005317D01*
X016010Y005394D01*
X015857Y005394D01*
X015780Y005317D01*
X010881Y006875D02*
X010823Y006817D01*
X010706Y006817D01*
X010648Y006875D01*
X010881Y007109D01*
X010881Y006875D01*
X010648Y006875D02*
X010648Y007109D01*
X010706Y007167D01*
X010823Y007167D01*
X010881Y007109D01*
X010522Y006817D02*
X010289Y006817D01*
X010405Y006817D02*
X010405Y007167D01*
X010289Y007051D01*
X010163Y007109D02*
X010163Y006992D01*
X010105Y006934D01*
X009930Y006934D01*
X010046Y006934D02*
X010163Y006817D01*
X009930Y006817D02*
X009930Y007167D01*
X010105Y007167D01*
X010163Y007109D01*
X008714Y008211D02*
X008714Y008269D01*
X008947Y008503D01*
X008947Y008561D01*
X008714Y008561D01*
X008588Y008503D02*
X008588Y008386D01*
X008530Y008327D01*
X008355Y008327D01*
X008355Y008211D02*
X008355Y008561D01*
X008530Y008561D01*
X008588Y008503D01*
X008472Y008327D02*
X008588Y008211D01*
X005274Y009626D02*
X005274Y010086D01*
X005044Y009856D01*
X005350Y009856D01*
X004890Y009703D02*
X004813Y009626D01*
X004660Y009626D01*
X004583Y009703D01*
X004583Y010010D01*
X004660Y010086D01*
X004813Y010086D01*
X004890Y010010D01*
X004866Y012148D02*
X004943Y012224D01*
X004866Y012148D02*
X004713Y012148D01*
X004636Y012224D01*
X004636Y012531D01*
X004713Y012608D01*
X004866Y012608D01*
X004943Y012531D01*
X005097Y012531D02*
X005173Y012608D01*
X005327Y012608D01*
X005404Y012531D01*
X005404Y012454D01*
X005327Y012378D01*
X005404Y012301D01*
X005404Y012224D01*
X005327Y012148D01*
X005173Y012148D01*
X005097Y012224D01*
X005250Y012378D02*
X005327Y012378D01*
X005323Y013779D02*
X005630Y013779D01*
X005477Y013779D02*
X005477Y014239D01*
X005323Y014086D01*
X005170Y014163D02*
X005170Y014009D01*
X005093Y013933D01*
X004863Y013933D01*
X005017Y013933D02*
X005170Y013779D01*
X004863Y013779D02*
X004863Y014239D01*
X005093Y014239D01*
X005170Y014163D01*
X004260Y014144D02*
X004260Y014067D01*
X003953Y013760D01*
X004260Y013760D01*
X003800Y013760D02*
X003646Y013914D01*
X003723Y013914D02*
X003493Y013914D01*
X003493Y013760D02*
X003493Y014221D01*
X003723Y014221D01*
X003800Y014144D01*
X003800Y013990D01*
X003723Y013914D01*
X003953Y014144D02*
X004030Y014221D01*
X004183Y014221D01*
X004260Y014144D01*
X004294Y015344D02*
X004600Y015651D01*
X004600Y015728D01*
X004524Y015805D01*
X004370Y015805D01*
X004294Y015728D01*
X004140Y015728D02*
X004063Y015805D01*
X003910Y015805D01*
X003833Y015728D01*
X003833Y015421D01*
X003910Y015344D01*
X004063Y015344D01*
X004140Y015421D01*
X004294Y015344D02*
X004600Y015344D01*
X002547Y015201D02*
X002240Y015201D01*
X002394Y015201D02*
X002394Y015661D01*
X002240Y015508D01*
X002087Y015584D02*
X002010Y015661D01*
X001857Y015661D01*
X001780Y015584D01*
X001780Y015277D01*
X001857Y015201D01*
X002010Y015201D01*
X002087Y015277D01*
X014808Y014843D02*
X014808Y014382D01*
X014808Y014536D02*
X015038Y014536D01*
X015115Y014612D01*
X015115Y014766D01*
X015038Y014843D01*
X014808Y014843D01*
X014961Y014536D02*
X015115Y014382D01*
X015268Y014382D02*
X015575Y014382D01*
X015422Y014382D02*
X015422Y014843D01*
X015268Y014689D01*
X015729Y014766D02*
X015805Y014843D01*
X015959Y014843D01*
X016036Y014766D01*
X016036Y014689D01*
X015729Y014382D01*
X016036Y014382D01*
X022236Y016066D02*
X022543Y016066D01*
X022696Y016066D02*
X023003Y016373D01*
X023003Y016450D01*
X022926Y016526D01*
X022773Y016526D01*
X022696Y016450D01*
X022236Y016526D02*
X022236Y016066D01*
X022696Y016066D02*
X023003Y016066D01*
X022850Y011829D02*
X022850Y011369D01*
X023003Y011369D02*
X022696Y011369D01*
X022543Y011369D02*
X022236Y011369D01*
X022236Y011829D01*
X022696Y011676D02*
X022850Y011829D01*
X016205Y009855D02*
X015898Y009855D01*
X016051Y009855D02*
X016051Y010315D01*
X015898Y010162D01*
X015591Y010315D02*
X015591Y009855D01*
X015438Y009855D02*
X015744Y009855D01*
X015284Y009855D02*
X015131Y010008D01*
X015207Y010008D02*
X014977Y010008D01*
X014977Y009855D02*
X014977Y010315D01*
X015207Y010315D01*
X015284Y010238D01*
X015284Y010085D01*
X015207Y010008D01*
X015438Y010162D02*
X015591Y010315D01*
X005528Y005222D02*
X005528Y005145D01*
X005451Y005069D01*
X005528Y004992D01*
X005528Y004915D01*
X005451Y004839D01*
X005297Y004839D01*
X005221Y004915D01*
X005067Y004915D02*
X005067Y005222D01*
X004991Y005299D01*
X004760Y005299D01*
X004760Y004839D01*
X004991Y004839D01*
X005067Y004915D01*
X005221Y005222D02*
X005297Y005299D01*
X005451Y005299D01*
X005528Y005222D01*
X005451Y005069D02*
X005374Y005069D01*
X003758Y002586D02*
X003605Y002586D01*
X003528Y002510D01*
X003374Y002510D02*
X003374Y002203D01*
X003298Y002126D01*
X003067Y002126D01*
X003067Y002586D01*
X003298Y002586D01*
X003374Y002510D01*
X003758Y002586D02*
X003835Y002510D01*
X003835Y002433D01*
X003528Y002126D01*
X003835Y002126D01*
X022236Y002735D02*
X022543Y002735D01*
X022696Y002812D02*
X022773Y002735D01*
X022926Y002735D01*
X023003Y002812D01*
X023003Y002889D01*
X022926Y002965D01*
X022850Y002965D01*
X022926Y002965D02*
X023003Y003042D01*
X023003Y003119D01*
X022926Y003196D01*
X022773Y003196D01*
X022696Y003119D01*
X022236Y003196D02*
X022236Y002735D01*
D16*
X002710Y009074D03*
D17*
X002085Y009074D03*
X004435Y009074D03*
D18*
X006685Y007681D03*
X006685Y006681D03*
X008835Y006681D03*
X008835Y007681D03*
D19*
X004351Y007559D02*
X003638Y007559D01*
X003638Y004803D01*
X004351Y004803D01*
X004351Y004181D01*
X003721Y004181D01*
X003721Y004281D01*
X001315Y004281D01*
X000449Y005000D01*
X000449Y007362D01*
X001276Y008080D01*
X003721Y008080D01*
X003721Y008181D01*
X004351Y008181D01*
X004351Y007559D01*
X004351Y004803D01*
X001315Y005944D02*
X001079Y005944D01*
X001079Y006417D01*
X001315Y006417D01*
X001315Y005944D01*
X001079Y005944D02*
X000685Y005944D01*
X000685Y006417D01*
X001079Y006417D01*
X023669Y006592D02*
X024299Y006592D01*
X024299Y006691D01*
X026744Y006691D01*
X027571Y007409D01*
X027571Y010952D01*
X026705Y011671D01*
X024299Y011671D01*
X024299Y011769D01*
X023669Y011769D01*
X023669Y011149D01*
X024382Y011149D01*
X024382Y007212D01*
X023669Y007212D01*
X023669Y011149D01*
X026705Y009417D02*
X026941Y009417D01*
X026941Y008944D01*
X026705Y008944D01*
X026705Y009417D01*
X026941Y009417D02*
X027335Y009417D01*
X027335Y008944D01*
X026941Y008944D01*
X023669Y007212D02*
X023669Y006592D01*
M02*
