G75*
G70*
%OFA0B0*%
%FSLAX24Y24*%
%IPPOS*%
%LPD*%
%AMOC8*
5,1,8,0,0,1.08239X$1,22.5*
%
%ADD10C,0.0000*%
%ADD11C,0.0060*%
%ADD12C,0.0030*%
%ADD13C,0.0050*%
%ADD14R,0.0236X0.0945*%
%ADD15C,0.0040*%
%ADD16R,0.0945X0.0236*%
%ADD17R,0.0200X0.1000*%
%ADD18R,0.0750X0.0300*%
%ADD19R,0.0200X0.0150*%
%ADD20C,0.0100*%
D10*
X000150Y000150D02*
X000150Y018851D01*
X027709Y018851D01*
X027709Y000150D01*
X000150Y000150D01*
X000701Y001331D02*
X000703Y001381D01*
X000709Y001431D01*
X000719Y001480D01*
X000733Y001528D01*
X000750Y001575D01*
X000771Y001620D01*
X000796Y001664D01*
X000824Y001705D01*
X000856Y001744D01*
X000890Y001781D01*
X000927Y001815D01*
X000967Y001845D01*
X001009Y001872D01*
X001053Y001896D01*
X001099Y001917D01*
X001146Y001933D01*
X001194Y001946D01*
X001244Y001955D01*
X001293Y001960D01*
X001344Y001961D01*
X001394Y001958D01*
X001443Y001951D01*
X001492Y001940D01*
X001540Y001925D01*
X001586Y001907D01*
X001631Y001885D01*
X001674Y001859D01*
X001715Y001830D01*
X001754Y001798D01*
X001790Y001763D01*
X001822Y001725D01*
X001852Y001685D01*
X001879Y001642D01*
X001902Y001598D01*
X001921Y001552D01*
X001937Y001504D01*
X001949Y001455D01*
X001957Y001406D01*
X001961Y001356D01*
X001961Y001306D01*
X001957Y001256D01*
X001949Y001207D01*
X001937Y001158D01*
X001921Y001110D01*
X001902Y001064D01*
X001879Y001020D01*
X001852Y000977D01*
X001822Y000937D01*
X001790Y000899D01*
X001754Y000864D01*
X001715Y000832D01*
X001674Y000803D01*
X001631Y000777D01*
X001586Y000755D01*
X001540Y000737D01*
X001492Y000722D01*
X001443Y000711D01*
X001394Y000704D01*
X001344Y000701D01*
X001293Y000702D01*
X001244Y000707D01*
X001194Y000716D01*
X001146Y000729D01*
X001099Y000745D01*
X001053Y000766D01*
X001009Y000790D01*
X000967Y000817D01*
X000927Y000847D01*
X000890Y000881D01*
X000856Y000918D01*
X000824Y000957D01*
X000796Y000998D01*
X000771Y001042D01*
X000750Y001087D01*
X000733Y001134D01*
X000719Y001182D01*
X000709Y001231D01*
X000703Y001281D01*
X000701Y001331D01*
X001559Y004650D02*
X001561Y004698D01*
X001567Y004746D01*
X001577Y004793D01*
X001590Y004839D01*
X001608Y004884D01*
X001628Y004928D01*
X001653Y004970D01*
X001681Y005009D01*
X001711Y005046D01*
X001745Y005080D01*
X001782Y005112D01*
X001820Y005141D01*
X001861Y005166D01*
X001904Y005188D01*
X001949Y005206D01*
X001995Y005220D01*
X002042Y005231D01*
X002090Y005238D01*
X002138Y005241D01*
X002186Y005240D01*
X002234Y005235D01*
X002282Y005226D01*
X002328Y005214D01*
X002373Y005197D01*
X002417Y005177D01*
X002459Y005154D01*
X002499Y005127D01*
X002537Y005097D01*
X002572Y005064D01*
X002604Y005028D01*
X002634Y004990D01*
X002660Y004949D01*
X002682Y004906D01*
X002702Y004862D01*
X002717Y004817D01*
X002729Y004770D01*
X002737Y004722D01*
X002741Y004674D01*
X002741Y004626D01*
X002737Y004578D01*
X002729Y004530D01*
X002717Y004483D01*
X002702Y004438D01*
X002682Y004394D01*
X002660Y004351D01*
X002634Y004310D01*
X002604Y004272D01*
X002572Y004236D01*
X002537Y004203D01*
X002499Y004173D01*
X002459Y004146D01*
X002417Y004123D01*
X002373Y004103D01*
X002328Y004086D01*
X002282Y004074D01*
X002234Y004065D01*
X002186Y004060D01*
X002138Y004059D01*
X002090Y004062D01*
X002042Y004069D01*
X001995Y004080D01*
X001949Y004094D01*
X001904Y004112D01*
X001861Y004134D01*
X001820Y004159D01*
X001782Y004188D01*
X001745Y004220D01*
X001711Y004254D01*
X001681Y004291D01*
X001653Y004330D01*
X001628Y004372D01*
X001608Y004416D01*
X001590Y004461D01*
X001577Y004507D01*
X001567Y004554D01*
X001561Y004602D01*
X001559Y004650D01*
X003440Y011030D02*
X003461Y011032D01*
X003481Y011037D01*
X003500Y011046D01*
X003517Y011058D01*
X003532Y011073D01*
X003544Y011090D01*
X003553Y011109D01*
X003558Y011129D01*
X003560Y011150D01*
X003558Y011171D01*
X003553Y011191D01*
X003544Y011210D01*
X003532Y011227D01*
X003517Y011242D01*
X003500Y011254D01*
X003481Y011263D01*
X003461Y011268D01*
X003440Y011270D01*
X011725Y009008D02*
X011727Y009058D01*
X011733Y009108D01*
X011743Y009157D01*
X011757Y009205D01*
X011774Y009252D01*
X011795Y009297D01*
X011820Y009341D01*
X011848Y009382D01*
X011880Y009421D01*
X011914Y009458D01*
X011951Y009492D01*
X011991Y009522D01*
X012033Y009549D01*
X012077Y009573D01*
X012123Y009594D01*
X012170Y009610D01*
X012218Y009623D01*
X012268Y009632D01*
X012317Y009637D01*
X012368Y009638D01*
X012418Y009635D01*
X012467Y009628D01*
X012516Y009617D01*
X012564Y009602D01*
X012610Y009584D01*
X012655Y009562D01*
X012698Y009536D01*
X012739Y009507D01*
X012778Y009475D01*
X012814Y009440D01*
X012846Y009402D01*
X012876Y009362D01*
X012903Y009319D01*
X012926Y009275D01*
X012945Y009229D01*
X012961Y009181D01*
X012973Y009132D01*
X012981Y009083D01*
X012985Y009033D01*
X012985Y008983D01*
X012981Y008933D01*
X012973Y008884D01*
X012961Y008835D01*
X012945Y008787D01*
X012926Y008741D01*
X012903Y008697D01*
X012876Y008654D01*
X012846Y008614D01*
X012814Y008576D01*
X012778Y008541D01*
X012739Y008509D01*
X012698Y008480D01*
X012655Y008454D01*
X012610Y008432D01*
X012564Y008414D01*
X012516Y008399D01*
X012467Y008388D01*
X012418Y008381D01*
X012368Y008378D01*
X012317Y008379D01*
X012268Y008384D01*
X012218Y008393D01*
X012170Y008406D01*
X012123Y008422D01*
X012077Y008443D01*
X012033Y008467D01*
X011991Y008494D01*
X011951Y008524D01*
X011914Y008558D01*
X011880Y008595D01*
X011848Y008634D01*
X011820Y008675D01*
X011795Y008719D01*
X011774Y008764D01*
X011757Y008811D01*
X011743Y008859D01*
X011733Y008908D01*
X011727Y008958D01*
X011725Y009008D01*
X000898Y017670D02*
X000900Y017720D01*
X000906Y017770D01*
X000916Y017819D01*
X000930Y017867D01*
X000947Y017914D01*
X000968Y017959D01*
X000993Y018003D01*
X001021Y018044D01*
X001053Y018083D01*
X001087Y018120D01*
X001124Y018154D01*
X001164Y018184D01*
X001206Y018211D01*
X001250Y018235D01*
X001296Y018256D01*
X001343Y018272D01*
X001391Y018285D01*
X001441Y018294D01*
X001490Y018299D01*
X001541Y018300D01*
X001591Y018297D01*
X001640Y018290D01*
X001689Y018279D01*
X001737Y018264D01*
X001783Y018246D01*
X001828Y018224D01*
X001871Y018198D01*
X001912Y018169D01*
X001951Y018137D01*
X001987Y018102D01*
X002019Y018064D01*
X002049Y018024D01*
X002076Y017981D01*
X002099Y017937D01*
X002118Y017891D01*
X002134Y017843D01*
X002146Y017794D01*
X002154Y017745D01*
X002158Y017695D01*
X002158Y017645D01*
X002154Y017595D01*
X002146Y017546D01*
X002134Y017497D01*
X002118Y017449D01*
X002099Y017403D01*
X002076Y017359D01*
X002049Y017316D01*
X002019Y017276D01*
X001987Y017238D01*
X001951Y017203D01*
X001912Y017171D01*
X001871Y017142D01*
X001828Y017116D01*
X001783Y017094D01*
X001737Y017076D01*
X001689Y017061D01*
X001640Y017050D01*
X001591Y017043D01*
X001541Y017040D01*
X001490Y017041D01*
X001441Y017046D01*
X001391Y017055D01*
X001343Y017068D01*
X001296Y017084D01*
X001250Y017105D01*
X001206Y017129D01*
X001164Y017156D01*
X001124Y017186D01*
X001087Y017220D01*
X001053Y017257D01*
X001021Y017296D01*
X000993Y017337D01*
X000968Y017381D01*
X000947Y017426D01*
X000930Y017473D01*
X000916Y017521D01*
X000906Y017570D01*
X000900Y017620D01*
X000898Y017670D01*
X025309Y008650D02*
X025311Y008698D01*
X025317Y008746D01*
X025327Y008793D01*
X025340Y008839D01*
X025358Y008884D01*
X025378Y008928D01*
X025403Y008970D01*
X025431Y009009D01*
X025461Y009046D01*
X025495Y009080D01*
X025532Y009112D01*
X025570Y009141D01*
X025611Y009166D01*
X025654Y009188D01*
X025699Y009206D01*
X025745Y009220D01*
X025792Y009231D01*
X025840Y009238D01*
X025888Y009241D01*
X025936Y009240D01*
X025984Y009235D01*
X026032Y009226D01*
X026078Y009214D01*
X026123Y009197D01*
X026167Y009177D01*
X026209Y009154D01*
X026249Y009127D01*
X026287Y009097D01*
X026322Y009064D01*
X026354Y009028D01*
X026384Y008990D01*
X026410Y008949D01*
X026432Y008906D01*
X026452Y008862D01*
X026467Y008817D01*
X026479Y008770D01*
X026487Y008722D01*
X026491Y008674D01*
X026491Y008626D01*
X026487Y008578D01*
X026479Y008530D01*
X026467Y008483D01*
X026452Y008438D01*
X026432Y008394D01*
X026410Y008351D01*
X026384Y008310D01*
X026354Y008272D01*
X026322Y008236D01*
X026287Y008203D01*
X026249Y008173D01*
X026209Y008146D01*
X026167Y008123D01*
X026123Y008103D01*
X026078Y008086D01*
X026032Y008074D01*
X025984Y008065D01*
X025936Y008060D01*
X025888Y008059D01*
X025840Y008062D01*
X025792Y008069D01*
X025745Y008080D01*
X025699Y008094D01*
X025654Y008112D01*
X025611Y008134D01*
X025570Y008159D01*
X025532Y008188D01*
X025495Y008220D01*
X025461Y008254D01*
X025431Y008291D01*
X025403Y008330D01*
X025378Y008372D01*
X025358Y008416D01*
X025340Y008461D01*
X025327Y008507D01*
X025317Y008554D01*
X025311Y008602D01*
X025309Y008650D01*
X025898Y001725D02*
X025900Y001775D01*
X025906Y001825D01*
X025916Y001874D01*
X025930Y001922D01*
X025947Y001969D01*
X025968Y002014D01*
X025993Y002058D01*
X026021Y002099D01*
X026053Y002138D01*
X026087Y002175D01*
X026124Y002209D01*
X026164Y002239D01*
X026206Y002266D01*
X026250Y002290D01*
X026296Y002311D01*
X026343Y002327D01*
X026391Y002340D01*
X026441Y002349D01*
X026490Y002354D01*
X026541Y002355D01*
X026591Y002352D01*
X026640Y002345D01*
X026689Y002334D01*
X026737Y002319D01*
X026783Y002301D01*
X026828Y002279D01*
X026871Y002253D01*
X026912Y002224D01*
X026951Y002192D01*
X026987Y002157D01*
X027019Y002119D01*
X027049Y002079D01*
X027076Y002036D01*
X027099Y001992D01*
X027118Y001946D01*
X027134Y001898D01*
X027146Y001849D01*
X027154Y001800D01*
X027158Y001750D01*
X027158Y001700D01*
X027154Y001650D01*
X027146Y001601D01*
X027134Y001552D01*
X027118Y001504D01*
X027099Y001458D01*
X027076Y001414D01*
X027049Y001371D01*
X027019Y001331D01*
X026987Y001293D01*
X026951Y001258D01*
X026912Y001226D01*
X026871Y001197D01*
X026828Y001171D01*
X026783Y001149D01*
X026737Y001131D01*
X026689Y001116D01*
X026640Y001105D01*
X026591Y001098D01*
X026541Y001095D01*
X026490Y001096D01*
X026441Y001101D01*
X026391Y001110D01*
X026343Y001123D01*
X026296Y001139D01*
X026250Y001160D01*
X026206Y001184D01*
X026164Y001211D01*
X026124Y001241D01*
X026087Y001275D01*
X026053Y001312D01*
X026021Y001351D01*
X025993Y001392D01*
X025968Y001436D01*
X025947Y001481D01*
X025930Y001528D01*
X025916Y001576D01*
X025906Y001625D01*
X025900Y001675D01*
X025898Y001725D01*
X025898Y017670D02*
X025900Y017720D01*
X025906Y017770D01*
X025916Y017819D01*
X025930Y017867D01*
X025947Y017914D01*
X025968Y017959D01*
X025993Y018003D01*
X026021Y018044D01*
X026053Y018083D01*
X026087Y018120D01*
X026124Y018154D01*
X026164Y018184D01*
X026206Y018211D01*
X026250Y018235D01*
X026296Y018256D01*
X026343Y018272D01*
X026391Y018285D01*
X026441Y018294D01*
X026490Y018299D01*
X026541Y018300D01*
X026591Y018297D01*
X026640Y018290D01*
X026689Y018279D01*
X026737Y018264D01*
X026783Y018246D01*
X026828Y018224D01*
X026871Y018198D01*
X026912Y018169D01*
X026951Y018137D01*
X026987Y018102D01*
X027019Y018064D01*
X027049Y018024D01*
X027076Y017981D01*
X027099Y017937D01*
X027118Y017891D01*
X027134Y017843D01*
X027146Y017794D01*
X027154Y017745D01*
X027158Y017695D01*
X027158Y017645D01*
X027154Y017595D01*
X027146Y017546D01*
X027134Y017497D01*
X027118Y017449D01*
X027099Y017403D01*
X027076Y017359D01*
X027049Y017316D01*
X027019Y017276D01*
X026987Y017238D01*
X026951Y017203D01*
X026912Y017171D01*
X026871Y017142D01*
X026828Y017116D01*
X026783Y017094D01*
X026737Y017076D01*
X026689Y017061D01*
X026640Y017050D01*
X026591Y017043D01*
X026541Y017040D01*
X026490Y017041D01*
X026441Y017046D01*
X026391Y017055D01*
X026343Y017068D01*
X026296Y017084D01*
X026250Y017105D01*
X026206Y017129D01*
X026164Y017156D01*
X026124Y017186D01*
X026087Y017220D01*
X026053Y017257D01*
X026021Y017296D01*
X025993Y017337D01*
X025968Y017381D01*
X025947Y017426D01*
X025930Y017473D01*
X025916Y017521D01*
X025906Y017570D01*
X025900Y017620D01*
X025898Y017670D01*
D11*
X023101Y012597D02*
X023101Y012097D01*
X022621Y012697D02*
X022361Y012697D01*
X021881Y012597D02*
X021881Y012467D01*
X021881Y012227D01*
X021881Y012097D01*
X021881Y012227D02*
X021902Y012229D01*
X021922Y012234D01*
X021941Y012243D01*
X021958Y012255D01*
X021973Y012270D01*
X021985Y012287D01*
X021994Y012306D01*
X021999Y012326D01*
X022001Y012347D01*
X021999Y012368D01*
X021994Y012388D01*
X021985Y012407D01*
X021973Y012424D01*
X021958Y012439D01*
X021941Y012451D01*
X021922Y012460D01*
X021902Y012465D01*
X021881Y012467D01*
X017900Y013540D02*
X017400Y013540D01*
X018000Y014020D02*
X018000Y014280D01*
X017900Y014760D02*
X017770Y014760D01*
X017530Y014760D01*
X017400Y014760D01*
X017530Y014760D02*
X017532Y014739D01*
X017537Y014719D01*
X017546Y014700D01*
X017558Y014683D01*
X017573Y014668D01*
X017590Y014656D01*
X017609Y014647D01*
X017629Y014642D01*
X017650Y014640D01*
X017671Y014642D01*
X017691Y014647D01*
X017710Y014656D01*
X017727Y014668D01*
X017742Y014683D01*
X017754Y014700D01*
X017763Y014719D01*
X017768Y014739D01*
X017770Y014760D01*
X009860Y016300D02*
X009460Y016300D01*
X008790Y017510D02*
X008790Y017580D01*
X007010Y017580D01*
X007010Y017510D01*
X006340Y016050D02*
X005940Y016050D01*
X007010Y013790D02*
X007010Y013720D01*
X007780Y013720D01*
X008020Y013720D01*
X008790Y013720D01*
X008790Y013790D01*
X008020Y013720D02*
X008018Y013741D01*
X008013Y013761D01*
X008004Y013780D01*
X007992Y013797D01*
X007977Y013812D01*
X007960Y013824D01*
X007941Y013833D01*
X007921Y013838D01*
X007900Y013840D01*
X007879Y013838D01*
X007859Y013833D01*
X007840Y013824D01*
X007823Y013812D01*
X007808Y013797D01*
X007796Y013780D01*
X007787Y013761D01*
X007782Y013741D01*
X007780Y013720D01*
X005360Y011810D02*
X005360Y010490D01*
X003440Y010490D02*
X003440Y011030D01*
X003440Y011270D01*
X003440Y011810D01*
X003950Y008150D02*
X002350Y008150D01*
X002350Y007150D01*
X003950Y007150D01*
X003950Y008150D01*
X003550Y007900D02*
X003150Y007650D01*
X003150Y007400D01*
X003150Y007650D02*
X003550Y007400D01*
X003550Y007900D01*
X003750Y007650D02*
X003150Y007650D01*
X003150Y007900D01*
X003150Y007650D02*
X002900Y007650D01*
X006000Y006550D02*
X006000Y006400D01*
X006050Y006350D01*
X006050Y004950D01*
X006000Y004900D01*
X006000Y004750D01*
X006002Y004733D01*
X006006Y004716D01*
X006013Y004700D01*
X006023Y004686D01*
X006036Y004673D01*
X006050Y004663D01*
X006066Y004656D01*
X006083Y004652D01*
X006100Y004650D01*
X006700Y004650D01*
X006717Y004652D01*
X006734Y004656D01*
X006750Y004663D01*
X006764Y004673D01*
X006777Y004686D01*
X006787Y004700D01*
X006794Y004716D01*
X006798Y004733D01*
X006800Y004750D01*
X006800Y004900D01*
X006750Y004950D01*
X006750Y006350D01*
X006800Y006400D01*
X006800Y006550D01*
X006798Y006567D01*
X006794Y006584D01*
X006787Y006600D01*
X006777Y006614D01*
X006764Y006627D01*
X006750Y006637D01*
X006734Y006644D01*
X006717Y006648D01*
X006700Y006650D01*
X006100Y006650D01*
X006083Y006648D01*
X006066Y006644D01*
X006050Y006637D01*
X006036Y006627D01*
X006023Y006614D01*
X006013Y006600D01*
X006006Y006584D01*
X006002Y006567D01*
X006000Y006550D01*
X007250Y006550D02*
X007250Y006400D01*
X007300Y006350D01*
X007300Y004950D01*
X007250Y004900D01*
X007250Y004750D01*
X007252Y004733D01*
X007256Y004716D01*
X007263Y004700D01*
X007273Y004686D01*
X007286Y004673D01*
X007300Y004663D01*
X007316Y004656D01*
X007333Y004652D01*
X007350Y004650D01*
X007950Y004650D01*
X007967Y004652D01*
X007984Y004656D01*
X008000Y004663D01*
X008014Y004673D01*
X008027Y004686D01*
X008037Y004700D01*
X008044Y004716D01*
X008048Y004733D01*
X008050Y004750D01*
X008050Y004900D01*
X008000Y004950D01*
X008000Y006350D01*
X008050Y006400D01*
X008050Y006550D01*
X008048Y006567D01*
X008044Y006584D01*
X008037Y006600D01*
X008027Y006614D01*
X008014Y006627D01*
X008000Y006637D01*
X007984Y006644D01*
X007967Y006648D01*
X007950Y006650D01*
X007350Y006650D01*
X007333Y006648D01*
X007316Y006644D01*
X007300Y006637D01*
X007286Y006627D01*
X007273Y006614D01*
X007263Y006600D01*
X007256Y006584D01*
X007252Y006567D01*
X007250Y006550D01*
X007860Y003130D02*
X008280Y003130D01*
X008520Y003130D01*
X008940Y003130D01*
X008520Y003130D02*
X008518Y003109D01*
X008513Y003089D01*
X008504Y003070D01*
X008492Y003053D01*
X008477Y003038D01*
X008460Y003026D01*
X008441Y003017D01*
X008421Y003012D01*
X008400Y003010D01*
X008379Y003012D01*
X008359Y003017D01*
X008340Y003026D01*
X008323Y003038D01*
X008308Y003053D01*
X008296Y003070D01*
X008287Y003089D01*
X008282Y003109D01*
X008280Y003130D01*
X007860Y001170D02*
X008940Y001170D01*
X015400Y000790D02*
X015900Y000790D01*
X016000Y001270D02*
X016000Y001530D01*
X015900Y002010D02*
X015770Y002010D01*
X015530Y002010D01*
X015400Y002010D01*
X015530Y002010D02*
X015532Y001989D01*
X015537Y001969D01*
X015546Y001950D01*
X015558Y001933D01*
X015573Y001918D01*
X015590Y001906D01*
X015609Y001897D01*
X015629Y001892D01*
X015650Y001890D01*
X015671Y001892D01*
X015691Y001897D01*
X015710Y001906D01*
X015727Y001918D01*
X015742Y001933D01*
X015754Y001950D01*
X015763Y001969D01*
X015768Y001989D01*
X015770Y002010D01*
D12*
X015109Y002033D02*
X014795Y002347D01*
X014952Y002347D02*
X014952Y002033D01*
X014795Y002033D02*
X015109Y002347D01*
X015109Y002190D02*
X014795Y002190D01*
X007429Y003163D02*
X007115Y003477D01*
X007115Y003320D02*
X007429Y003320D01*
X007429Y003477D02*
X007115Y003163D01*
X007272Y003163D02*
X007272Y003477D01*
X003397Y009795D02*
X003083Y010109D01*
X003240Y010109D02*
X003240Y009795D01*
X003083Y009795D02*
X003397Y010109D01*
X003397Y009952D02*
X003083Y009952D01*
X009051Y013493D02*
X009365Y013807D01*
X009208Y013807D02*
X009208Y013493D01*
X009365Y013493D02*
X009051Y013807D01*
X009051Y013650D02*
X009365Y013650D01*
X016795Y014783D02*
X017109Y015097D01*
X017109Y014940D02*
X016795Y014940D01*
X016795Y015097D02*
X017109Y014783D01*
X016952Y014783D02*
X016952Y015097D01*
X021544Y011805D02*
X021857Y011492D01*
X021857Y011649D02*
X021544Y011649D01*
X021544Y011492D02*
X021857Y011805D01*
X021700Y011805D02*
X021700Y011492D01*
D13*
X020865Y010400D02*
X021632Y008766D01*
X021633Y008766D02*
X021675Y008706D01*
X021715Y008643D01*
X021752Y008578D01*
X021785Y008512D01*
X021814Y008443D01*
X021840Y008374D01*
X021863Y008303D01*
X021882Y008231D01*
X021897Y008159D01*
X021908Y008085D01*
X021916Y008011D01*
X021920Y007937D01*
X021920Y007863D01*
X021916Y007789D01*
X021908Y007715D01*
X021897Y007641D01*
X021882Y007569D01*
X021863Y007497D01*
X021840Y007426D01*
X021814Y007357D01*
X021785Y007288D01*
X021752Y007222D01*
X021715Y007157D01*
X021675Y007094D01*
X021633Y007034D01*
X021632Y007034D02*
X020904Y005400D01*
X022034Y004382D02*
X020400Y003615D01*
X019372Y002770D02*
X017219Y002770D01*
X017219Y004967D01*
X016774Y004971D02*
X016774Y002770D01*
X017219Y002770D01*
X015865Y003580D02*
X015865Y003655D01*
X015565Y003655D01*
X015405Y003580D02*
X015330Y003655D01*
X015179Y003655D01*
X015104Y003580D01*
X015104Y003280D01*
X015179Y003205D01*
X015330Y003205D01*
X015405Y003280D01*
X015565Y003280D02*
X015565Y003205D01*
X015565Y003280D02*
X015865Y003580D01*
X014560Y002429D02*
X014410Y002353D01*
X014260Y002203D01*
X014485Y002203D01*
X014560Y002128D01*
X014560Y002053D01*
X014485Y001978D01*
X014335Y001978D01*
X014260Y002053D01*
X014260Y002203D01*
X014100Y002053D02*
X014100Y002429D01*
X013799Y002429D02*
X013799Y002053D01*
X013874Y001978D01*
X014024Y001978D01*
X014100Y002053D01*
X016774Y004971D02*
X019372Y004971D01*
X019372Y002770D01*
X020400Y001666D02*
X022034Y000918D01*
X022073Y000898D02*
X022141Y000859D01*
X022210Y000824D01*
X022281Y000792D01*
X022353Y000764D01*
X022426Y000739D01*
X022501Y000718D01*
X022576Y000701D01*
X022652Y000687D01*
X022729Y000676D01*
X022807Y000670D01*
X022884Y000667D01*
X022961Y000668D01*
X023039Y000673D01*
X023116Y000681D01*
X023193Y000693D01*
X023268Y000709D01*
X023343Y000728D01*
X023418Y000751D01*
X023490Y000777D01*
X023562Y000807D01*
X023632Y000841D01*
X023700Y000877D01*
X023767Y000917D01*
X023766Y000918D02*
X025400Y001666D01*
X023766Y004383D02*
X023706Y004425D01*
X023643Y004465D01*
X023578Y004502D01*
X023512Y004535D01*
X023443Y004564D01*
X023374Y004590D01*
X023303Y004613D01*
X023231Y004632D01*
X023159Y004647D01*
X023085Y004658D01*
X023011Y004666D01*
X022937Y004670D01*
X022863Y004670D01*
X022789Y004666D01*
X022715Y004658D01*
X022641Y004647D01*
X022569Y004632D01*
X022497Y004613D01*
X022426Y004590D01*
X022357Y004564D01*
X022288Y004535D01*
X022222Y004502D01*
X022157Y004465D01*
X022094Y004425D01*
X022034Y004383D01*
X023766Y004382D02*
X025400Y003654D01*
X023809Y006681D02*
X023809Y006750D01*
X023809Y006748D02*
X023809Y006681D01*
X018167Y007033D02*
X018127Y007100D01*
X018091Y007168D01*
X018057Y007238D01*
X018027Y007310D01*
X018001Y007382D01*
X017978Y007457D01*
X017959Y007532D01*
X017943Y007607D01*
X017931Y007684D01*
X017923Y007761D01*
X017918Y007839D01*
X017917Y007916D01*
X017920Y007993D01*
X017926Y008071D01*
X017937Y008148D01*
X017951Y008224D01*
X017968Y008299D01*
X017989Y008374D01*
X018014Y008447D01*
X018042Y008519D01*
X018074Y008590D01*
X018109Y008659D01*
X018148Y008727D01*
X018168Y008766D02*
X018916Y010400D01*
X019872Y010770D02*
X017719Y010770D01*
X017719Y012967D01*
X017274Y012971D02*
X017274Y010770D01*
X017719Y010770D01*
X019872Y010770D02*
X019872Y012971D01*
X017274Y012971D01*
X016338Y014531D02*
X016188Y014531D01*
X016113Y014606D01*
X016113Y014756D02*
X016263Y014832D01*
X016338Y014832D01*
X016413Y014756D01*
X016413Y014606D01*
X016338Y014531D01*
X016113Y014756D02*
X016113Y014982D01*
X016413Y014982D01*
X015953Y014982D02*
X015953Y014606D01*
X015878Y014531D01*
X015727Y014531D01*
X015652Y014606D01*
X015652Y014982D01*
X015469Y016270D02*
X015024Y016270D01*
X015024Y018471D01*
X017622Y018471D01*
X017622Y016270D01*
X015469Y016270D01*
X015469Y018467D01*
X017868Y016235D02*
X017868Y015935D01*
X017943Y015860D01*
X018093Y015860D01*
X018168Y015935D01*
X018329Y015935D02*
X018404Y015860D01*
X018554Y015860D01*
X018629Y015935D01*
X018629Y016010D01*
X018554Y016085D01*
X018329Y016085D01*
X018329Y015935D01*
X018329Y016085D02*
X018479Y016235D01*
X018629Y016310D01*
X018168Y016235D02*
X018093Y016310D01*
X017943Y016310D01*
X017868Y016235D01*
X020400Y015416D02*
X022034Y014668D01*
X021316Y013495D02*
X021016Y013495D01*
X021016Y013270D01*
X021166Y013345D01*
X021241Y013345D01*
X021316Y013270D01*
X021316Y013120D01*
X021241Y013045D01*
X021091Y013045D01*
X021016Y013120D01*
X020855Y013120D02*
X020780Y013045D01*
X020630Y013045D01*
X020555Y013120D01*
X020555Y013420D01*
X020630Y013495D01*
X020780Y013495D01*
X020855Y013420D01*
X023321Y012482D02*
X023321Y012106D01*
X023396Y012031D01*
X023546Y012031D01*
X023621Y012106D01*
X023621Y012482D01*
X023781Y012256D02*
X024082Y012256D01*
X024006Y012031D02*
X024006Y012482D01*
X023781Y012256D01*
X023766Y014668D02*
X025400Y015416D01*
X023767Y014667D02*
X023700Y014627D01*
X023632Y014591D01*
X023562Y014557D01*
X023490Y014527D01*
X023418Y014501D01*
X023343Y014478D01*
X023268Y014459D01*
X023193Y014443D01*
X023116Y014431D01*
X023039Y014423D01*
X022961Y014418D01*
X022884Y014417D01*
X022807Y014420D01*
X022729Y014426D01*
X022652Y014437D01*
X022576Y014451D01*
X022501Y014468D01*
X022426Y014489D01*
X022353Y014514D01*
X022281Y014542D01*
X022210Y014574D01*
X022141Y014609D01*
X022073Y014648D01*
X022034Y018133D02*
X022094Y018175D01*
X022157Y018215D01*
X022222Y018252D01*
X022288Y018285D01*
X022357Y018314D01*
X022426Y018340D01*
X022497Y018363D01*
X022569Y018382D01*
X022641Y018397D01*
X022715Y018408D01*
X022789Y018416D01*
X022863Y018420D01*
X022937Y018420D01*
X023011Y018416D01*
X023085Y018408D01*
X023159Y018397D01*
X023231Y018382D01*
X023303Y018363D01*
X023374Y018340D01*
X023443Y018314D01*
X023512Y018285D01*
X023578Y018252D01*
X023643Y018215D01*
X023706Y018175D01*
X023766Y018133D01*
X023766Y018132D02*
X025400Y017404D01*
X022034Y018132D02*
X020400Y017365D01*
X007819Y017876D02*
X007744Y017801D01*
X007594Y017801D01*
X007519Y017876D01*
X007359Y017876D02*
X007359Y018251D01*
X007519Y018176D02*
X007594Y018251D01*
X007744Y018251D01*
X007819Y018176D01*
X007819Y018101D01*
X007744Y018026D01*
X007819Y017951D01*
X007819Y017876D01*
X007744Y018026D02*
X007669Y018026D01*
X007359Y017876D02*
X007284Y017801D01*
X007134Y017801D01*
X007059Y017876D01*
X007059Y018251D01*
X006223Y012469D02*
X006223Y012018D01*
X006073Y012018D02*
X006374Y012018D01*
X006073Y012318D02*
X006223Y012469D01*
X005913Y012469D02*
X005913Y012093D01*
X005838Y012018D01*
X005688Y012018D01*
X005613Y012093D01*
X005613Y012469D01*
X002986Y008775D02*
X002986Y008325D01*
X003136Y008325D02*
X002835Y008325D01*
X002675Y008400D02*
X002675Y008700D01*
X002600Y008775D01*
X002375Y008775D01*
X002375Y008325D01*
X002600Y008325D01*
X002675Y008400D01*
X002835Y008625D02*
X002986Y008775D01*
X008246Y003785D02*
X008246Y003410D01*
X008321Y003334D01*
X008471Y003334D01*
X008546Y003410D01*
X008546Y003785D01*
X008706Y003710D02*
X008782Y003785D01*
X008932Y003785D01*
X009007Y003710D01*
X009007Y003635D01*
X008706Y003334D01*
X009007Y003334D01*
X006396Y002981D02*
X006396Y002654D01*
X005412Y002654D01*
X005412Y002619D01*
X006372Y002619D01*
X006396Y002654D02*
X006396Y001347D01*
X005412Y001347D01*
X005412Y002619D01*
X005412Y002654D02*
X005412Y002981D01*
X006396Y002981D01*
X004703Y001896D02*
X004703Y000912D01*
X003431Y000912D01*
X003431Y001872D01*
X003396Y001896D02*
X003396Y000912D01*
X003431Y000912D01*
X003396Y000912D02*
X003069Y000912D01*
X003069Y001896D01*
X003396Y001896D01*
X004703Y001896D01*
X018168Y007034D02*
X018916Y005400D01*
D14*
X019900Y007900D03*
D15*
X017934Y009991D02*
X017627Y009991D01*
X017474Y009991D02*
X017167Y009991D01*
X017167Y010452D01*
X017627Y010298D02*
X017781Y010452D01*
X017781Y009991D01*
X016811Y012520D02*
X016811Y012980D01*
X016580Y012750D01*
X016887Y012750D01*
X016427Y012597D02*
X016350Y012520D01*
X016120Y012520D01*
X016120Y012980D01*
X016350Y012980D01*
X016427Y012904D01*
X016427Y012597D01*
X018398Y014851D02*
X018398Y015312D01*
X018628Y015312D01*
X018705Y015235D01*
X018705Y015082D01*
X018628Y015005D01*
X018398Y015005D01*
X018551Y015005D02*
X018705Y014851D01*
X018858Y014851D02*
X019165Y014851D01*
X019012Y014851D02*
X019012Y015312D01*
X018858Y015158D01*
X019319Y015235D02*
X019395Y015312D01*
X019549Y015312D01*
X019626Y015235D01*
X019626Y015158D01*
X019319Y014851D01*
X019626Y014851D01*
X023310Y013854D02*
X023310Y013394D01*
X023310Y013547D02*
X023540Y013547D01*
X023617Y013624D01*
X023617Y013778D01*
X023540Y013854D01*
X023310Y013854D01*
X023464Y013547D02*
X023617Y013394D01*
X023771Y013394D02*
X024077Y013394D01*
X023924Y013394D02*
X023924Y013854D01*
X023771Y013701D01*
X024231Y013701D02*
X024384Y013854D01*
X024384Y013394D01*
X024231Y013394D02*
X024538Y013394D01*
X020147Y017567D02*
X019840Y017567D01*
X020147Y017874D01*
X020147Y017950D01*
X020070Y018027D01*
X019917Y018027D01*
X019840Y017950D01*
X019687Y017567D02*
X019380Y017567D01*
X019380Y018027D01*
X014837Y016580D02*
X014530Y016580D01*
X014530Y016350D01*
X014684Y016427D01*
X014761Y016427D01*
X014837Y016350D01*
X014837Y016197D01*
X014761Y016120D01*
X014607Y016120D01*
X014530Y016197D01*
X014377Y016197D02*
X014300Y016120D01*
X014070Y016120D01*
X014070Y016580D01*
X014300Y016580D01*
X014377Y016504D01*
X014377Y016197D01*
X006437Y012995D02*
X006130Y012995D01*
X005977Y012995D02*
X005823Y013149D01*
X005900Y013149D02*
X005670Y013149D01*
X005670Y012995D02*
X005670Y013456D01*
X005900Y013456D01*
X005977Y013379D01*
X005977Y013225D01*
X005900Y013149D01*
X006130Y013302D02*
X006284Y013456D01*
X006284Y012995D01*
X004864Y015011D02*
X004710Y015011D01*
X004634Y015087D01*
X004480Y015087D02*
X004403Y015011D01*
X004250Y015011D01*
X004173Y015087D01*
X004173Y015394D01*
X004250Y015471D01*
X004403Y015471D01*
X004480Y015394D01*
X004634Y015394D02*
X004710Y015471D01*
X004864Y015471D01*
X004940Y015394D01*
X004940Y015317D01*
X004864Y015241D01*
X004940Y015164D01*
X004940Y015087D01*
X004864Y015011D01*
X004864Y015241D02*
X004787Y015241D01*
X003287Y014329D02*
X003211Y014406D01*
X003057Y014406D01*
X002980Y014329D01*
X002827Y014329D02*
X002827Y014175D01*
X002750Y014099D01*
X002520Y014099D01*
X002673Y014099D02*
X002827Y013945D01*
X002980Y013945D02*
X003287Y014252D01*
X003287Y014329D01*
X002827Y014329D02*
X002750Y014406D01*
X002520Y014406D01*
X002520Y013945D01*
X002980Y013945D02*
X003287Y013945D01*
X002834Y012330D02*
X002680Y012177D01*
X002527Y012254D02*
X002450Y012330D01*
X002297Y012330D01*
X002220Y012254D01*
X002220Y011947D01*
X002297Y011870D01*
X002450Y011870D01*
X002527Y011947D01*
X002680Y011870D02*
X002987Y011870D01*
X002834Y011870D02*
X002834Y012330D01*
X005704Y009916D02*
X005704Y009609D01*
X005781Y009533D01*
X005934Y009533D01*
X006011Y009609D01*
X006165Y009763D02*
X006472Y009763D01*
X006395Y009533D02*
X006395Y009993D01*
X006165Y009763D01*
X006011Y009916D02*
X005934Y009993D01*
X005781Y009993D01*
X005704Y009916D01*
X005664Y009327D02*
X005510Y009327D01*
X005434Y009251D01*
X005280Y009251D02*
X005203Y009327D01*
X005050Y009327D01*
X004973Y009251D01*
X004973Y008944D01*
X005050Y008867D01*
X005203Y008867D01*
X005280Y008944D01*
X005434Y008867D02*
X005740Y009174D01*
X005740Y009251D01*
X005664Y009327D01*
X005740Y008867D02*
X005434Y008867D01*
X005755Y007876D02*
X005930Y007876D01*
X005989Y007818D01*
X005989Y007701D01*
X005930Y007643D01*
X005755Y007643D01*
X005872Y007643D02*
X005989Y007526D01*
X006114Y007526D02*
X006348Y007526D01*
X006231Y007526D02*
X006231Y007876D01*
X006114Y007759D01*
X005755Y007876D02*
X005755Y007526D01*
X006473Y007584D02*
X006707Y007818D01*
X006707Y007584D01*
X006649Y007526D01*
X006532Y007526D01*
X006473Y007584D01*
X006473Y007818D01*
X006532Y007876D01*
X006649Y007876D01*
X006707Y007818D01*
X007361Y007876D02*
X007361Y007526D01*
X007361Y007643D02*
X007536Y007643D01*
X007595Y007701D01*
X007595Y007818D01*
X007536Y007876D01*
X007361Y007876D01*
X007478Y007643D02*
X007595Y007526D01*
X007720Y007526D02*
X007720Y007584D01*
X007954Y007818D01*
X007954Y007876D01*
X007720Y007876D01*
X005191Y002868D02*
X005268Y002791D01*
X005268Y002715D01*
X005191Y002638D01*
X005268Y002561D01*
X005268Y002485D01*
X005191Y002408D01*
X005037Y002408D01*
X004961Y002485D01*
X004807Y002485D02*
X004807Y002791D01*
X004731Y002868D01*
X004500Y002868D01*
X004500Y002408D01*
X004731Y002408D01*
X004807Y002485D01*
X004961Y002791D02*
X005037Y002868D01*
X005191Y002868D01*
X005191Y002638D02*
X005114Y002638D01*
X003725Y002479D02*
X003725Y002402D01*
X003418Y002095D01*
X003725Y002095D01*
X003725Y002479D02*
X003648Y002556D01*
X003495Y002556D01*
X003418Y002479D01*
X003264Y002479D02*
X003188Y002556D01*
X002957Y002556D01*
X002957Y002095D01*
X003188Y002095D01*
X003264Y002172D01*
X003264Y002479D01*
X016720Y005120D02*
X016950Y005120D01*
X017027Y005197D01*
X017027Y005504D01*
X016950Y005580D01*
X016720Y005580D01*
X016720Y005120D01*
X017180Y005197D02*
X017180Y005350D01*
X017411Y005350D01*
X017487Y005273D01*
X017487Y005197D01*
X017411Y005120D01*
X017257Y005120D01*
X017180Y005197D01*
X017180Y005350D02*
X017334Y005504D01*
X017487Y005580D01*
X017363Y002613D02*
X017363Y002153D01*
X017516Y002153D02*
X017209Y002153D01*
X017056Y002153D02*
X016903Y002306D01*
X016979Y002306D02*
X016749Y002306D01*
X016749Y002153D02*
X016749Y002613D01*
X016979Y002613D01*
X017056Y002536D01*
X017056Y002383D01*
X016979Y002306D01*
X017209Y002460D02*
X017363Y002613D01*
X017670Y002536D02*
X017747Y002613D01*
X017900Y002613D01*
X017977Y002536D01*
X017977Y002460D01*
X017900Y002383D01*
X017977Y002306D01*
X017977Y002229D01*
X017900Y002153D01*
X017747Y002153D01*
X017670Y002229D01*
X017823Y002383D02*
X017900Y002383D01*
X024880Y004907D02*
X025187Y004907D01*
X025340Y004984D02*
X025417Y004907D01*
X025570Y004907D01*
X025647Y004984D01*
X025647Y005061D01*
X025570Y005137D01*
X025494Y005137D01*
X025570Y005137D02*
X025647Y005214D01*
X025647Y005291D01*
X025570Y005368D01*
X025417Y005368D01*
X025340Y005291D01*
X024880Y005368D02*
X024880Y004907D01*
D16*
X022900Y002650D03*
X022900Y016400D03*
D17*
X002600Y007650D03*
D18*
X001975Y007650D03*
X004325Y007650D03*
D19*
X006400Y006725D03*
X007650Y006725D03*
X007650Y004575D03*
X006400Y004575D03*
D20*
X004241Y003272D02*
X003528Y003272D01*
X003528Y006028D01*
X004241Y006028D01*
X004241Y003272D01*
X004241Y002650D01*
X003611Y002650D01*
X003611Y002750D01*
X001205Y002750D01*
X000339Y003469D01*
X000339Y005831D01*
X001166Y006550D01*
X003611Y006550D01*
X003611Y006650D01*
X004241Y006650D01*
X004241Y006028D01*
X001205Y004886D02*
X001205Y004414D01*
X000969Y004414D01*
X000969Y004886D01*
X001205Y004886D01*
X000969Y004886D02*
X000575Y004886D01*
X000575Y004414D01*
X000969Y004414D01*
X023809Y006061D02*
X024439Y006061D01*
X024439Y006160D01*
X026884Y006160D01*
X027711Y006878D01*
X027711Y010422D01*
X026845Y011140D01*
X024439Y011140D01*
X024439Y011239D01*
X023809Y011239D01*
X023809Y010619D01*
X024522Y010619D01*
X024522Y006681D01*
X023809Y006681D01*
X023809Y010619D01*
X026845Y008886D02*
X026845Y008414D01*
X027081Y008414D01*
X027081Y008886D01*
X027475Y008886D01*
X027475Y008414D01*
X027081Y008414D01*
X027081Y008886D02*
X026845Y008886D01*
X023809Y006681D02*
X023809Y006061D01*
M02*
