G75*
G70*
%OFA0B0*%
%FSLAX24Y24*%
%IPPOS*%
%LPD*%
%AMOC8*
5,1,8,0,0,1.08239X$1,22.5*
%
%ADD10C,0.0000*%
%ADD11C,0.0060*%
%ADD12C,0.0030*%
%ADD13C,0.0050*%
%ADD14R,0.0236X0.0945*%
%ADD15C,0.0040*%
%ADD16R,0.0945X0.0236*%
%ADD17R,0.0200X0.1000*%
%ADD18R,0.0750X0.0300*%
%ADD19R,0.0200X0.0150*%
%ADD20C,0.0100*%
D10*
X000180Y000194D02*
X000180Y018894D01*
X027739Y018894D01*
X027739Y000194D01*
X000180Y000194D01*
X000731Y001375D02*
X000733Y001425D01*
X000739Y001475D01*
X000749Y001524D01*
X000763Y001572D01*
X000780Y001619D01*
X000801Y001664D01*
X000826Y001708D01*
X000854Y001749D01*
X000886Y001788D01*
X000920Y001825D01*
X000957Y001859D01*
X000997Y001889D01*
X001039Y001916D01*
X001083Y001940D01*
X001129Y001961D01*
X001176Y001977D01*
X001224Y001990D01*
X001274Y001999D01*
X001323Y002004D01*
X001374Y002005D01*
X001424Y002002D01*
X001473Y001995D01*
X001522Y001984D01*
X001570Y001969D01*
X001616Y001951D01*
X001661Y001929D01*
X001704Y001903D01*
X001745Y001874D01*
X001784Y001842D01*
X001820Y001807D01*
X001852Y001769D01*
X001882Y001729D01*
X001909Y001686D01*
X001932Y001642D01*
X001951Y001596D01*
X001967Y001548D01*
X001979Y001499D01*
X001987Y001450D01*
X001991Y001400D01*
X001991Y001350D01*
X001987Y001300D01*
X001979Y001251D01*
X001967Y001202D01*
X001951Y001154D01*
X001932Y001108D01*
X001909Y001064D01*
X001882Y001021D01*
X001852Y000981D01*
X001820Y000943D01*
X001784Y000908D01*
X001745Y000876D01*
X001704Y000847D01*
X001661Y000821D01*
X001616Y000799D01*
X001570Y000781D01*
X001522Y000766D01*
X001473Y000755D01*
X001424Y000748D01*
X001374Y000745D01*
X001323Y000746D01*
X001274Y000751D01*
X001224Y000760D01*
X001176Y000773D01*
X001129Y000789D01*
X001083Y000810D01*
X001039Y000834D01*
X000997Y000861D01*
X000957Y000891D01*
X000920Y000925D01*
X000886Y000962D01*
X000854Y001001D01*
X000826Y001042D01*
X000801Y001086D01*
X000780Y001131D01*
X000763Y001178D01*
X000749Y001226D01*
X000739Y001275D01*
X000733Y001325D01*
X000731Y001375D01*
X001589Y004694D02*
X001591Y004742D01*
X001597Y004790D01*
X001607Y004837D01*
X001620Y004883D01*
X001638Y004928D01*
X001658Y004972D01*
X001683Y005014D01*
X001711Y005053D01*
X001741Y005090D01*
X001775Y005124D01*
X001812Y005156D01*
X001850Y005185D01*
X001891Y005210D01*
X001934Y005232D01*
X001979Y005250D01*
X002025Y005264D01*
X002072Y005275D01*
X002120Y005282D01*
X002168Y005285D01*
X002216Y005284D01*
X002264Y005279D01*
X002312Y005270D01*
X002358Y005258D01*
X002403Y005241D01*
X002447Y005221D01*
X002489Y005198D01*
X002529Y005171D01*
X002567Y005141D01*
X002602Y005108D01*
X002634Y005072D01*
X002664Y005034D01*
X002690Y004993D01*
X002712Y004950D01*
X002732Y004906D01*
X002747Y004861D01*
X002759Y004814D01*
X002767Y004766D01*
X002771Y004718D01*
X002771Y004670D01*
X002767Y004622D01*
X002759Y004574D01*
X002747Y004527D01*
X002732Y004482D01*
X002712Y004438D01*
X002690Y004395D01*
X002664Y004354D01*
X002634Y004316D01*
X002602Y004280D01*
X002567Y004247D01*
X002529Y004217D01*
X002489Y004190D01*
X002447Y004167D01*
X002403Y004147D01*
X002358Y004130D01*
X002312Y004118D01*
X002264Y004109D01*
X002216Y004104D01*
X002168Y004103D01*
X002120Y004106D01*
X002072Y004113D01*
X002025Y004124D01*
X001979Y004138D01*
X001934Y004156D01*
X001891Y004178D01*
X001850Y004203D01*
X001812Y004232D01*
X001775Y004264D01*
X001741Y004298D01*
X001711Y004335D01*
X001683Y004374D01*
X001658Y004416D01*
X001638Y004460D01*
X001620Y004505D01*
X001607Y004551D01*
X001597Y004598D01*
X001591Y004646D01*
X001589Y004694D01*
X002422Y011390D02*
X002424Y011369D01*
X002429Y011349D01*
X002438Y011330D01*
X002450Y011313D01*
X002465Y011298D01*
X002482Y011286D01*
X002501Y011277D01*
X002521Y011272D01*
X002542Y011270D01*
X002563Y011272D01*
X002583Y011277D01*
X002602Y011286D01*
X002619Y011298D01*
X002634Y011313D01*
X002646Y011330D01*
X002655Y011349D01*
X002660Y011369D01*
X002662Y011390D01*
X000928Y017713D02*
X000930Y017763D01*
X000936Y017813D01*
X000946Y017862D01*
X000960Y017910D01*
X000977Y017957D01*
X000998Y018002D01*
X001023Y018046D01*
X001051Y018087D01*
X001083Y018126D01*
X001117Y018163D01*
X001154Y018197D01*
X001194Y018227D01*
X001236Y018254D01*
X001280Y018278D01*
X001326Y018299D01*
X001373Y018315D01*
X001421Y018328D01*
X001471Y018337D01*
X001520Y018342D01*
X001571Y018343D01*
X001621Y018340D01*
X001670Y018333D01*
X001719Y018322D01*
X001767Y018307D01*
X001813Y018289D01*
X001858Y018267D01*
X001901Y018241D01*
X001942Y018212D01*
X001981Y018180D01*
X002017Y018145D01*
X002049Y018107D01*
X002079Y018067D01*
X002106Y018024D01*
X002129Y017980D01*
X002148Y017934D01*
X002164Y017886D01*
X002176Y017837D01*
X002184Y017788D01*
X002188Y017738D01*
X002188Y017688D01*
X002184Y017638D01*
X002176Y017589D01*
X002164Y017540D01*
X002148Y017492D01*
X002129Y017446D01*
X002106Y017402D01*
X002079Y017359D01*
X002049Y017319D01*
X002017Y017281D01*
X001981Y017246D01*
X001942Y017214D01*
X001901Y017185D01*
X001858Y017159D01*
X001813Y017137D01*
X001767Y017119D01*
X001719Y017104D01*
X001670Y017093D01*
X001621Y017086D01*
X001571Y017083D01*
X001520Y017084D01*
X001471Y017089D01*
X001421Y017098D01*
X001373Y017111D01*
X001326Y017127D01*
X001280Y017148D01*
X001236Y017172D01*
X001194Y017199D01*
X001154Y017229D01*
X001117Y017263D01*
X001083Y017300D01*
X001051Y017339D01*
X001023Y017380D01*
X000998Y017424D01*
X000977Y017469D01*
X000960Y017516D01*
X000946Y017564D01*
X000936Y017613D01*
X000930Y017663D01*
X000928Y017713D01*
X011755Y009052D02*
X011757Y009102D01*
X011763Y009152D01*
X011773Y009201D01*
X011787Y009249D01*
X011804Y009296D01*
X011825Y009341D01*
X011850Y009385D01*
X011878Y009426D01*
X011910Y009465D01*
X011944Y009502D01*
X011981Y009536D01*
X012021Y009566D01*
X012063Y009593D01*
X012107Y009617D01*
X012153Y009638D01*
X012200Y009654D01*
X012248Y009667D01*
X012298Y009676D01*
X012347Y009681D01*
X012398Y009682D01*
X012448Y009679D01*
X012497Y009672D01*
X012546Y009661D01*
X012594Y009646D01*
X012640Y009628D01*
X012685Y009606D01*
X012728Y009580D01*
X012769Y009551D01*
X012808Y009519D01*
X012844Y009484D01*
X012876Y009446D01*
X012906Y009406D01*
X012933Y009363D01*
X012956Y009319D01*
X012975Y009273D01*
X012991Y009225D01*
X013003Y009176D01*
X013011Y009127D01*
X013015Y009077D01*
X013015Y009027D01*
X013011Y008977D01*
X013003Y008928D01*
X012991Y008879D01*
X012975Y008831D01*
X012956Y008785D01*
X012933Y008741D01*
X012906Y008698D01*
X012876Y008658D01*
X012844Y008620D01*
X012808Y008585D01*
X012769Y008553D01*
X012728Y008524D01*
X012685Y008498D01*
X012640Y008476D01*
X012594Y008458D01*
X012546Y008443D01*
X012497Y008432D01*
X012448Y008425D01*
X012398Y008422D01*
X012347Y008423D01*
X012298Y008428D01*
X012248Y008437D01*
X012200Y008450D01*
X012153Y008466D01*
X012107Y008487D01*
X012063Y008511D01*
X012021Y008538D01*
X011981Y008568D01*
X011944Y008602D01*
X011910Y008639D01*
X011878Y008678D01*
X011850Y008719D01*
X011825Y008763D01*
X011804Y008808D01*
X011787Y008855D01*
X011773Y008903D01*
X011763Y008952D01*
X011757Y009002D01*
X011755Y009052D01*
X025286Y008678D02*
X025288Y008726D01*
X025294Y008774D01*
X025304Y008821D01*
X025317Y008867D01*
X025335Y008912D01*
X025355Y008956D01*
X025380Y008998D01*
X025408Y009037D01*
X025438Y009074D01*
X025472Y009108D01*
X025509Y009140D01*
X025547Y009169D01*
X025588Y009194D01*
X025631Y009216D01*
X025676Y009234D01*
X025722Y009248D01*
X025769Y009259D01*
X025817Y009266D01*
X025865Y009269D01*
X025913Y009268D01*
X025961Y009263D01*
X026009Y009254D01*
X026055Y009242D01*
X026100Y009225D01*
X026144Y009205D01*
X026186Y009182D01*
X026226Y009155D01*
X026264Y009125D01*
X026299Y009092D01*
X026331Y009056D01*
X026361Y009018D01*
X026387Y008977D01*
X026409Y008934D01*
X026429Y008890D01*
X026444Y008845D01*
X026456Y008798D01*
X026464Y008750D01*
X026468Y008702D01*
X026468Y008654D01*
X026464Y008606D01*
X026456Y008558D01*
X026444Y008511D01*
X026429Y008466D01*
X026409Y008422D01*
X026387Y008379D01*
X026361Y008338D01*
X026331Y008300D01*
X026299Y008264D01*
X026264Y008231D01*
X026226Y008201D01*
X026186Y008174D01*
X026144Y008151D01*
X026100Y008131D01*
X026055Y008114D01*
X026009Y008102D01*
X025961Y008093D01*
X025913Y008088D01*
X025865Y008087D01*
X025817Y008090D01*
X025769Y008097D01*
X025722Y008108D01*
X025676Y008122D01*
X025631Y008140D01*
X025588Y008162D01*
X025547Y008187D01*
X025509Y008216D01*
X025472Y008248D01*
X025438Y008282D01*
X025408Y008319D01*
X025380Y008358D01*
X025355Y008400D01*
X025335Y008444D01*
X025317Y008489D01*
X025304Y008535D01*
X025294Y008582D01*
X025288Y008630D01*
X025286Y008678D01*
X025928Y001769D02*
X025930Y001819D01*
X025936Y001869D01*
X025946Y001918D01*
X025960Y001966D01*
X025977Y002013D01*
X025998Y002058D01*
X026023Y002102D01*
X026051Y002143D01*
X026083Y002182D01*
X026117Y002219D01*
X026154Y002253D01*
X026194Y002283D01*
X026236Y002310D01*
X026280Y002334D01*
X026326Y002355D01*
X026373Y002371D01*
X026421Y002384D01*
X026471Y002393D01*
X026520Y002398D01*
X026571Y002399D01*
X026621Y002396D01*
X026670Y002389D01*
X026719Y002378D01*
X026767Y002363D01*
X026813Y002345D01*
X026858Y002323D01*
X026901Y002297D01*
X026942Y002268D01*
X026981Y002236D01*
X027017Y002201D01*
X027049Y002163D01*
X027079Y002123D01*
X027106Y002080D01*
X027129Y002036D01*
X027148Y001990D01*
X027164Y001942D01*
X027176Y001893D01*
X027184Y001844D01*
X027188Y001794D01*
X027188Y001744D01*
X027184Y001694D01*
X027176Y001645D01*
X027164Y001596D01*
X027148Y001548D01*
X027129Y001502D01*
X027106Y001458D01*
X027079Y001415D01*
X027049Y001375D01*
X027017Y001337D01*
X026981Y001302D01*
X026942Y001270D01*
X026901Y001241D01*
X026858Y001215D01*
X026813Y001193D01*
X026767Y001175D01*
X026719Y001160D01*
X026670Y001149D01*
X026621Y001142D01*
X026571Y001139D01*
X026520Y001140D01*
X026471Y001145D01*
X026421Y001154D01*
X026373Y001167D01*
X026326Y001183D01*
X026280Y001204D01*
X026236Y001228D01*
X026194Y001255D01*
X026154Y001285D01*
X026117Y001319D01*
X026083Y001356D01*
X026051Y001395D01*
X026023Y001436D01*
X025998Y001480D01*
X025977Y001525D01*
X025960Y001572D01*
X025946Y001620D01*
X025936Y001669D01*
X025930Y001719D01*
X025928Y001769D01*
X025928Y017713D02*
X025930Y017763D01*
X025936Y017813D01*
X025946Y017862D01*
X025960Y017910D01*
X025977Y017957D01*
X025998Y018002D01*
X026023Y018046D01*
X026051Y018087D01*
X026083Y018126D01*
X026117Y018163D01*
X026154Y018197D01*
X026194Y018227D01*
X026236Y018254D01*
X026280Y018278D01*
X026326Y018299D01*
X026373Y018315D01*
X026421Y018328D01*
X026471Y018337D01*
X026520Y018342D01*
X026571Y018343D01*
X026621Y018340D01*
X026670Y018333D01*
X026719Y018322D01*
X026767Y018307D01*
X026813Y018289D01*
X026858Y018267D01*
X026901Y018241D01*
X026942Y018212D01*
X026981Y018180D01*
X027017Y018145D01*
X027049Y018107D01*
X027079Y018067D01*
X027106Y018024D01*
X027129Y017980D01*
X027148Y017934D01*
X027164Y017886D01*
X027176Y017837D01*
X027184Y017788D01*
X027188Y017738D01*
X027188Y017688D01*
X027184Y017638D01*
X027176Y017589D01*
X027164Y017540D01*
X027148Y017492D01*
X027129Y017446D01*
X027106Y017402D01*
X027079Y017359D01*
X027049Y017319D01*
X027017Y017281D01*
X026981Y017246D01*
X026942Y017214D01*
X026901Y017185D01*
X026858Y017159D01*
X026813Y017137D01*
X026767Y017119D01*
X026719Y017104D01*
X026670Y017093D01*
X026621Y017086D01*
X026571Y017083D01*
X026520Y017084D01*
X026471Y017089D01*
X026421Y017098D01*
X026373Y017111D01*
X026326Y017127D01*
X026280Y017148D01*
X026236Y017172D01*
X026194Y017199D01*
X026154Y017229D01*
X026117Y017263D01*
X026083Y017300D01*
X026051Y017339D01*
X026023Y017380D01*
X025998Y017424D01*
X025977Y017469D01*
X025960Y017516D01*
X025946Y017564D01*
X025936Y017613D01*
X025930Y017663D01*
X025928Y017713D01*
D11*
X018050Y015087D02*
X018050Y014827D01*
X017950Y014347D02*
X017450Y014347D01*
X017450Y015567D02*
X017580Y015567D01*
X017820Y015567D01*
X017950Y015567D01*
X017820Y015567D02*
X017818Y015546D01*
X017813Y015526D01*
X017804Y015507D01*
X017792Y015490D01*
X017777Y015475D01*
X017760Y015463D01*
X017741Y015454D01*
X017721Y015449D01*
X017700Y015447D01*
X017679Y015449D01*
X017659Y015454D01*
X017640Y015463D01*
X017623Y015475D01*
X017608Y015490D01*
X017596Y015507D01*
X017587Y015526D01*
X017582Y015546D01*
X017580Y015567D01*
X021420Y012058D02*
X021420Y011928D01*
X021420Y011688D01*
X021420Y011558D01*
X021420Y011688D02*
X021441Y011690D01*
X021461Y011695D01*
X021480Y011704D01*
X021497Y011716D01*
X021512Y011731D01*
X021524Y011748D01*
X021533Y011767D01*
X021538Y011787D01*
X021540Y011808D01*
X021538Y011829D01*
X021533Y011849D01*
X021524Y011868D01*
X021512Y011885D01*
X021497Y011900D01*
X021480Y011912D01*
X021461Y011921D01*
X021441Y011926D01*
X021420Y011928D01*
X021900Y012158D02*
X022160Y012158D01*
X022640Y012058D02*
X022640Y011558D01*
X010014Y016395D02*
X009614Y016395D01*
X008944Y017605D02*
X008944Y017675D01*
X007164Y017675D01*
X007164Y017605D01*
X006494Y016145D02*
X006094Y016145D01*
X007164Y013885D02*
X007164Y013815D01*
X007934Y013815D01*
X008174Y013815D01*
X008944Y013815D01*
X008944Y013885D01*
X008174Y013815D02*
X008172Y013836D01*
X008167Y013856D01*
X008158Y013875D01*
X008146Y013892D01*
X008131Y013907D01*
X008114Y013919D01*
X008095Y013928D01*
X008075Y013933D01*
X008054Y013935D01*
X008033Y013933D01*
X008013Y013928D01*
X007994Y013919D01*
X007977Y013907D01*
X007962Y013892D01*
X007950Y013875D01*
X007941Y013856D01*
X007936Y013836D01*
X007934Y013815D01*
X003202Y011390D02*
X002662Y011390D01*
X002422Y011390D01*
X001882Y011390D01*
X001882Y009470D02*
X003202Y009470D01*
X003933Y008174D02*
X002333Y008174D01*
X002333Y007174D01*
X003933Y007174D01*
X003933Y008174D01*
X003533Y007924D02*
X003133Y007674D01*
X003133Y007424D01*
X003133Y007674D02*
X003533Y007424D01*
X003533Y007924D01*
X003733Y007674D02*
X003133Y007674D01*
X003133Y007924D01*
X003133Y007674D02*
X002883Y007674D01*
X006079Y006606D02*
X006079Y006456D01*
X006129Y006406D01*
X006129Y005006D01*
X006079Y004956D01*
X006079Y004806D01*
X006081Y004789D01*
X006085Y004772D01*
X006092Y004756D01*
X006102Y004742D01*
X006115Y004729D01*
X006129Y004719D01*
X006145Y004712D01*
X006162Y004708D01*
X006179Y004706D01*
X006779Y004706D01*
X006796Y004708D01*
X006813Y004712D01*
X006829Y004719D01*
X006843Y004729D01*
X006856Y004742D01*
X006866Y004756D01*
X006873Y004772D01*
X006877Y004789D01*
X006879Y004806D01*
X006879Y004956D01*
X006829Y005006D01*
X006829Y006406D01*
X006879Y006456D01*
X006879Y006606D01*
X006877Y006623D01*
X006873Y006640D01*
X006866Y006656D01*
X006856Y006670D01*
X006843Y006683D01*
X006829Y006693D01*
X006813Y006700D01*
X006796Y006704D01*
X006779Y006706D01*
X006179Y006706D01*
X006162Y006704D01*
X006145Y006700D01*
X006129Y006693D01*
X006115Y006683D01*
X006102Y006670D01*
X006092Y006656D01*
X006085Y006640D01*
X006081Y006623D01*
X006079Y006606D01*
X007260Y006606D02*
X007260Y006456D01*
X007310Y006406D01*
X007310Y005006D01*
X007260Y004956D01*
X007260Y004806D01*
X007262Y004789D01*
X007266Y004772D01*
X007273Y004756D01*
X007283Y004742D01*
X007296Y004729D01*
X007310Y004719D01*
X007326Y004712D01*
X007343Y004708D01*
X007360Y004706D01*
X007960Y004706D01*
X007977Y004708D01*
X007994Y004712D01*
X008010Y004719D01*
X008024Y004729D01*
X008037Y004742D01*
X008047Y004756D01*
X008054Y004772D01*
X008058Y004789D01*
X008060Y004806D01*
X008060Y004956D01*
X008010Y005006D01*
X008010Y006406D01*
X008060Y006456D01*
X008060Y006606D01*
X008058Y006623D01*
X008054Y006640D01*
X008047Y006656D01*
X008037Y006670D01*
X008024Y006683D01*
X008010Y006693D01*
X007994Y006700D01*
X007977Y006704D01*
X007960Y006706D01*
X007360Y006706D01*
X007343Y006704D01*
X007326Y006700D01*
X007310Y006693D01*
X007296Y006683D01*
X007283Y006670D01*
X007273Y006656D01*
X007266Y006640D01*
X007262Y006623D01*
X007260Y006606D01*
X007908Y002945D02*
X008328Y002945D01*
X008568Y002945D01*
X008988Y002945D01*
X008568Y002945D02*
X008566Y002924D01*
X008561Y002904D01*
X008552Y002885D01*
X008540Y002868D01*
X008525Y002853D01*
X008508Y002841D01*
X008489Y002832D01*
X008469Y002827D01*
X008448Y002825D01*
X008427Y002827D01*
X008407Y002832D01*
X008388Y002841D01*
X008371Y002853D01*
X008356Y002868D01*
X008344Y002885D01*
X008335Y002904D01*
X008330Y002924D01*
X008328Y002945D01*
X007908Y000985D02*
X008988Y000985D01*
X017647Y000765D02*
X018147Y000765D01*
X018247Y001245D02*
X018247Y001505D01*
X018147Y001985D02*
X018017Y001985D01*
X017777Y001985D01*
X017647Y001985D01*
X017777Y001985D02*
X017779Y001964D01*
X017784Y001944D01*
X017793Y001925D01*
X017805Y001908D01*
X017820Y001893D01*
X017837Y001881D01*
X017856Y001872D01*
X017876Y001867D01*
X017897Y001865D01*
X017918Y001867D01*
X017938Y001872D01*
X017957Y001881D01*
X017974Y001893D01*
X017989Y001908D01*
X018001Y001925D01*
X018010Y001944D01*
X018015Y001964D01*
X018017Y001985D01*
D12*
X017355Y002008D02*
X017042Y002322D01*
X017198Y002322D02*
X017198Y002008D01*
X017042Y002008D02*
X017355Y002322D01*
X017355Y002165D02*
X017042Y002165D01*
X007476Y002979D02*
X007163Y003292D01*
X007163Y003136D02*
X007476Y003136D01*
X007476Y003292D02*
X007163Y002979D01*
X007320Y002979D02*
X007320Y003292D01*
X001501Y011433D02*
X001187Y011747D01*
X001187Y011590D02*
X001501Y011590D01*
X001501Y011747D02*
X001187Y011433D01*
X001344Y011433D02*
X001344Y011747D01*
X009205Y013588D02*
X009519Y013901D01*
X009519Y013745D02*
X009205Y013745D01*
X009205Y013901D02*
X009519Y013588D01*
X009362Y013588D02*
X009362Y013901D01*
X016845Y015591D02*
X017158Y015904D01*
X017158Y015748D02*
X016845Y015748D01*
X016845Y015904D02*
X017158Y015591D01*
X017001Y015591D02*
X017001Y015904D01*
X021083Y011266D02*
X021397Y010953D01*
X021397Y011110D02*
X021083Y011110D01*
X021083Y010953D02*
X021397Y011266D01*
X021240Y011266D02*
X021240Y010953D01*
D13*
X020830Y010371D02*
X021597Y008737D01*
X021598Y008737D02*
X021640Y008677D01*
X021680Y008614D01*
X021717Y008549D01*
X021750Y008483D01*
X021779Y008414D01*
X021805Y008345D01*
X021828Y008274D01*
X021847Y008202D01*
X021862Y008130D01*
X021873Y008056D01*
X021881Y007982D01*
X021885Y007908D01*
X021885Y007834D01*
X021881Y007760D01*
X021873Y007686D01*
X021862Y007612D01*
X021847Y007540D01*
X021828Y007468D01*
X021805Y007397D01*
X021779Y007328D01*
X021750Y007259D01*
X021717Y007193D01*
X021680Y007128D01*
X021640Y007065D01*
X021598Y007005D01*
X021597Y007005D02*
X020869Y005371D01*
X021952Y004485D02*
X020318Y003717D01*
X018306Y002653D02*
X018156Y002578D01*
X018006Y002428D01*
X018231Y002428D01*
X018306Y002353D01*
X018306Y002278D01*
X018231Y002203D01*
X018081Y002203D01*
X018006Y002278D01*
X018006Y002428D01*
X017846Y002278D02*
X017846Y002653D01*
X017546Y002653D02*
X017546Y002278D01*
X017621Y002203D01*
X017771Y002203D01*
X017846Y002278D01*
X017507Y002804D02*
X015353Y002804D01*
X015353Y005001D01*
X014908Y005005D02*
X014908Y002804D01*
X015353Y002804D01*
X015707Y002380D02*
X015632Y002305D01*
X015632Y002004D01*
X015707Y001929D01*
X015858Y001929D01*
X015933Y002004D01*
X016093Y002004D02*
X016093Y001929D01*
X016093Y002004D02*
X016393Y002305D01*
X016393Y002380D01*
X016093Y002380D01*
X015933Y002305D02*
X015858Y002380D01*
X015707Y002380D01*
X017507Y002804D02*
X017507Y005005D01*
X014908Y005005D01*
X018133Y007005D02*
X018881Y005371D01*
X018132Y007004D02*
X018092Y007071D01*
X018056Y007139D01*
X018022Y007209D01*
X017992Y007281D01*
X017966Y007353D01*
X017943Y007428D01*
X017924Y007503D01*
X017908Y007578D01*
X017896Y007655D01*
X017888Y007732D01*
X017883Y007810D01*
X017882Y007887D01*
X017885Y007964D01*
X017891Y008042D01*
X017902Y008119D01*
X017916Y008195D01*
X017933Y008270D01*
X017954Y008345D01*
X017979Y008418D01*
X018007Y008490D01*
X018039Y008561D01*
X018074Y008630D01*
X018113Y008698D01*
X018133Y008737D02*
X018881Y010371D01*
X019869Y010875D02*
X017715Y010875D01*
X017715Y013072D01*
X017617Y013374D02*
X017693Y013449D01*
X017617Y013374D02*
X017467Y013374D01*
X017392Y013449D01*
X017392Y013750D01*
X017467Y013825D01*
X017617Y013825D01*
X017693Y013750D01*
X017853Y013825D02*
X017853Y013599D01*
X018003Y013674D01*
X018078Y013674D01*
X018153Y013599D01*
X018153Y013449D01*
X018078Y013374D01*
X017928Y013374D01*
X017853Y013449D01*
X017853Y013825D02*
X018153Y013825D01*
X017271Y013076D02*
X017271Y010875D01*
X017715Y010875D01*
X019869Y010875D02*
X019869Y013076D01*
X017271Y013076D01*
X016279Y015370D02*
X016354Y015445D01*
X016354Y015520D01*
X016279Y015595D01*
X016053Y015595D01*
X016053Y015445D01*
X016128Y015370D01*
X016279Y015370D01*
X016053Y015595D02*
X016204Y015746D01*
X016354Y015821D01*
X015893Y015746D02*
X015818Y015821D01*
X015668Y015821D01*
X015593Y015746D01*
X015593Y015445D01*
X015668Y015370D01*
X015818Y015370D01*
X015893Y015445D01*
X015550Y016190D02*
X015105Y016190D01*
X015105Y018391D01*
X017704Y018391D01*
X017704Y016190D01*
X015550Y016190D01*
X015550Y018387D01*
X017152Y016039D02*
X017152Y015664D01*
X017227Y015589D01*
X017377Y015589D01*
X017452Y015664D01*
X017452Y016039D01*
X017612Y016039D02*
X017612Y015814D01*
X017763Y015889D01*
X017838Y015889D01*
X017913Y015814D01*
X017913Y015664D01*
X017838Y015589D01*
X017688Y015589D01*
X017612Y015664D01*
X017612Y016039D02*
X017913Y016039D01*
X020318Y015351D02*
X021952Y014603D01*
X023684Y014603D02*
X025318Y015351D01*
X023685Y014603D02*
X023618Y014563D01*
X023550Y014527D01*
X023480Y014493D01*
X023408Y014463D01*
X023336Y014437D01*
X023261Y014414D01*
X023186Y014395D01*
X023111Y014379D01*
X023034Y014367D01*
X022957Y014359D01*
X022879Y014354D01*
X022802Y014353D01*
X022725Y014356D01*
X022647Y014362D01*
X022570Y014373D01*
X022494Y014387D01*
X022419Y014404D01*
X022344Y014425D01*
X022271Y014450D01*
X022199Y014478D01*
X022128Y014510D01*
X022059Y014545D01*
X021991Y014584D01*
X022861Y012693D02*
X022861Y012317D01*
X022936Y012242D01*
X023086Y012242D01*
X023161Y012317D01*
X023161Y012693D01*
X023321Y012468D02*
X023621Y012468D01*
X023546Y012693D02*
X023546Y012242D01*
X023321Y012468D02*
X023546Y012693D01*
X023684Y018068D02*
X023624Y018110D01*
X023561Y018150D01*
X023496Y018187D01*
X023430Y018220D01*
X023361Y018249D01*
X023292Y018275D01*
X023221Y018298D01*
X023149Y018317D01*
X023077Y018332D01*
X023003Y018343D01*
X022929Y018351D01*
X022855Y018355D01*
X022781Y018355D01*
X022707Y018351D01*
X022633Y018343D01*
X022559Y018332D01*
X022487Y018317D01*
X022415Y018298D01*
X022344Y018275D01*
X022275Y018249D01*
X022206Y018220D01*
X022140Y018187D01*
X022075Y018150D01*
X022012Y018110D01*
X021952Y018068D01*
X020318Y017300D01*
X023684Y018068D02*
X025318Y017339D01*
X023786Y006778D02*
X023786Y006709D01*
X023786Y006776D01*
X023684Y004485D02*
X025318Y003757D01*
X023684Y004486D02*
X023624Y004528D01*
X023561Y004568D01*
X023496Y004605D01*
X023430Y004638D01*
X023361Y004667D01*
X023292Y004693D01*
X023221Y004716D01*
X023149Y004735D01*
X023077Y004750D01*
X023003Y004761D01*
X022929Y004769D01*
X022855Y004773D01*
X022781Y004773D01*
X022707Y004769D01*
X022633Y004761D01*
X022559Y004750D01*
X022487Y004735D01*
X022415Y004716D01*
X022344Y004693D01*
X022275Y004667D01*
X022206Y004638D01*
X022140Y004605D01*
X022075Y004568D01*
X022012Y004528D01*
X021952Y004486D01*
X021991Y001001D02*
X022059Y000962D01*
X022128Y000927D01*
X022199Y000895D01*
X022271Y000867D01*
X022344Y000842D01*
X022419Y000821D01*
X022494Y000804D01*
X022570Y000790D01*
X022647Y000779D01*
X022725Y000773D01*
X022802Y000770D01*
X022879Y000771D01*
X022957Y000776D01*
X023034Y000784D01*
X023111Y000796D01*
X023186Y000812D01*
X023261Y000831D01*
X023336Y000854D01*
X023408Y000880D01*
X023480Y000910D01*
X023550Y000944D01*
X023618Y000980D01*
X023685Y001020D01*
X023684Y001020D02*
X025318Y001769D01*
X021952Y001020D02*
X020318Y001769D01*
X009054Y003150D02*
X008754Y003150D01*
X009054Y003450D01*
X009054Y003525D01*
X008979Y003600D01*
X008829Y003600D01*
X008754Y003525D01*
X008594Y003600D02*
X008594Y003225D01*
X008519Y003150D01*
X008369Y003150D01*
X008294Y003225D01*
X008294Y003600D01*
X006385Y002993D02*
X006385Y002666D01*
X005400Y002666D01*
X005400Y002631D01*
X006361Y002631D01*
X006385Y002666D02*
X006385Y001359D01*
X005400Y001359D01*
X005400Y002631D01*
X005400Y002666D02*
X005400Y002993D01*
X006385Y002993D01*
X004723Y001871D02*
X004723Y000887D01*
X003452Y000887D01*
X003452Y001847D01*
X003416Y001871D02*
X003416Y000887D01*
X003452Y000887D01*
X003416Y000887D02*
X003089Y000887D01*
X003089Y001871D01*
X003416Y001871D01*
X004723Y001871D01*
X003118Y008349D02*
X002818Y008349D01*
X002968Y008349D02*
X002968Y008799D01*
X002818Y008649D01*
X002658Y008724D02*
X002658Y008424D01*
X002583Y008349D01*
X002358Y008349D01*
X002358Y008799D01*
X002583Y008799D01*
X002658Y008724D01*
X002616Y011498D02*
X002916Y011498D01*
X002766Y011498D02*
X002766Y011948D01*
X002616Y011798D01*
X002455Y011948D02*
X002455Y011573D01*
X002380Y011498D01*
X002230Y011498D01*
X002155Y011573D01*
X002155Y011948D01*
X007113Y013371D02*
X007188Y013295D01*
X007338Y013295D01*
X007413Y013371D01*
X007413Y013746D01*
X007573Y013671D02*
X007648Y013746D01*
X007798Y013746D01*
X007873Y013671D01*
X007873Y013596D01*
X007798Y013521D01*
X007873Y013446D01*
X007873Y013371D01*
X007798Y013295D01*
X007648Y013295D01*
X007573Y013371D01*
X007723Y013521D02*
X007798Y013521D01*
X007113Y013371D02*
X007113Y013746D01*
D14*
X019865Y007871D03*
D15*
X017899Y009862D02*
X017592Y009862D01*
X017439Y009862D02*
X017132Y009862D01*
X017132Y010323D01*
X017592Y010169D02*
X017746Y010323D01*
X017746Y009862D01*
X022653Y013233D02*
X022653Y013693D01*
X022883Y013693D01*
X022960Y013617D01*
X022960Y013463D01*
X022883Y013386D01*
X022653Y013386D01*
X022807Y013386D02*
X022960Y013233D01*
X023114Y013233D02*
X023420Y013233D01*
X023267Y013233D02*
X023267Y013693D01*
X023114Y013540D01*
X023574Y013540D02*
X023727Y013693D01*
X023727Y013233D01*
X023574Y013233D02*
X023881Y013233D01*
X019550Y015659D02*
X019243Y015659D01*
X019550Y015966D01*
X019550Y016043D01*
X019473Y016119D01*
X019320Y016119D01*
X019243Y016043D01*
X018936Y016119D02*
X018936Y015659D01*
X018783Y015659D02*
X019090Y015659D01*
X018783Y015966D02*
X018936Y016119D01*
X018629Y016043D02*
X018629Y015889D01*
X018553Y015812D01*
X018322Y015812D01*
X018322Y015659D02*
X018322Y016119D01*
X018553Y016119D01*
X018629Y016043D01*
X018476Y015812D02*
X018629Y015659D01*
X019297Y016752D02*
X019604Y016752D01*
X019758Y016752D02*
X020065Y017059D01*
X020065Y017136D01*
X019988Y017212D01*
X019835Y017212D01*
X019758Y017136D01*
X019758Y016752D02*
X020065Y016752D01*
X019297Y016752D02*
X019297Y017212D01*
X007607Y011674D02*
X007607Y011597D01*
X007530Y011521D01*
X007607Y011444D01*
X007607Y011367D01*
X007530Y011290D01*
X007377Y011290D01*
X007300Y011367D01*
X007147Y011367D02*
X007070Y011290D01*
X006916Y011290D01*
X006840Y011367D01*
X006840Y011674D01*
X006916Y011751D01*
X007070Y011751D01*
X007147Y011674D01*
X007300Y011674D02*
X007377Y011751D01*
X007530Y011751D01*
X007607Y011674D01*
X007530Y011521D02*
X007454Y011521D01*
X006302Y011175D02*
X005995Y011175D01*
X005842Y011175D02*
X005688Y011328D01*
X005765Y011328D02*
X005535Y011328D01*
X005535Y011175D02*
X005535Y011635D01*
X005765Y011635D01*
X005842Y011558D01*
X005842Y011405D01*
X005765Y011328D01*
X005995Y011482D02*
X006149Y011635D01*
X006149Y011175D01*
X005121Y011175D02*
X004814Y011175D01*
X005121Y011482D01*
X005121Y011558D01*
X005044Y011635D01*
X004891Y011635D01*
X004814Y011558D01*
X004661Y011558D02*
X004661Y011405D01*
X004584Y011328D01*
X004354Y011328D01*
X004507Y011328D02*
X004661Y011175D01*
X004354Y011175D02*
X004354Y011635D01*
X004584Y011635D01*
X004661Y011558D01*
X004457Y013653D02*
X004151Y013653D01*
X004457Y013960D01*
X004457Y014036D01*
X004381Y014113D01*
X004227Y014113D01*
X004151Y014036D01*
X003997Y014036D02*
X003920Y014113D01*
X003767Y014113D01*
X003690Y014036D01*
X003690Y013729D01*
X003767Y013653D01*
X003920Y013653D01*
X003997Y013729D01*
X002436Y013706D02*
X002129Y013706D01*
X002282Y013706D02*
X002282Y014166D01*
X002129Y014013D01*
X001975Y014089D02*
X001899Y014166D01*
X001745Y014166D01*
X001669Y014089D01*
X001669Y013783D01*
X001745Y013706D01*
X001899Y013706D01*
X001975Y013783D01*
X005485Y009048D02*
X005409Y008971D01*
X005409Y008664D01*
X005485Y008588D01*
X005639Y008588D01*
X005716Y008664D01*
X005869Y008818D02*
X006176Y008818D01*
X006099Y008588D02*
X006099Y009048D01*
X005869Y008818D01*
X005716Y008971D02*
X005639Y009048D01*
X005485Y009048D01*
X005634Y007932D02*
X005810Y007932D01*
X005868Y007873D01*
X005868Y007757D01*
X005810Y007698D01*
X005634Y007698D01*
X005634Y007581D02*
X005634Y007932D01*
X005751Y007698D02*
X005868Y007581D01*
X005994Y007581D02*
X006227Y007581D01*
X006110Y007581D02*
X006110Y007932D01*
X005994Y007815D01*
X006353Y007873D02*
X006411Y007932D01*
X006528Y007932D01*
X006586Y007873D01*
X006353Y007640D01*
X006411Y007581D01*
X006528Y007581D01*
X006586Y007640D01*
X006586Y007873D01*
X006353Y007873D02*
X006353Y007640D01*
X007372Y007698D02*
X007547Y007698D01*
X007605Y007757D01*
X007605Y007873D01*
X007547Y007932D01*
X007372Y007932D01*
X007372Y007581D01*
X007488Y007698D02*
X007605Y007581D01*
X007731Y007581D02*
X007731Y007640D01*
X007964Y007873D01*
X007964Y007932D01*
X007731Y007932D01*
X006080Y003780D02*
X006156Y003704D01*
X006156Y003627D01*
X006080Y003550D01*
X006156Y003473D01*
X006156Y003397D01*
X006080Y003320D01*
X005926Y003320D01*
X005849Y003397D01*
X005696Y003397D02*
X005696Y003704D01*
X005619Y003780D01*
X005389Y003780D01*
X005389Y003320D01*
X005619Y003320D01*
X005696Y003397D01*
X006003Y003550D02*
X006080Y003550D01*
X006080Y003780D02*
X005926Y003780D01*
X005849Y003704D01*
X004418Y000780D02*
X004265Y000780D01*
X004188Y000704D01*
X004034Y000704D02*
X003958Y000780D01*
X003728Y000780D01*
X003728Y000320D01*
X003958Y000320D01*
X004034Y000397D01*
X004034Y000704D01*
X004418Y000780D02*
X004495Y000704D01*
X004495Y000627D01*
X004188Y000320D01*
X004495Y000320D01*
X018570Y002127D02*
X018570Y002588D01*
X018801Y002588D01*
X018877Y002511D01*
X018877Y002358D01*
X018801Y002281D01*
X018570Y002281D01*
X018724Y002281D02*
X018877Y002127D01*
X019031Y002127D02*
X019338Y002127D01*
X019184Y002127D02*
X019184Y002588D01*
X019031Y002434D01*
X019491Y002511D02*
X019568Y002588D01*
X019721Y002588D01*
X019798Y002511D01*
X019798Y002434D01*
X019721Y002358D01*
X019798Y002281D01*
X019798Y002204D01*
X019721Y002127D01*
X019568Y002127D01*
X019491Y002204D01*
X019645Y002358D02*
X019721Y002358D01*
X019835Y003760D02*
X019758Y003837D01*
X019835Y003760D02*
X019988Y003760D01*
X020065Y003837D01*
X020065Y003913D01*
X019988Y003990D01*
X019911Y003990D01*
X019988Y003990D02*
X020065Y004067D01*
X020065Y004144D01*
X019988Y004220D01*
X019835Y004220D01*
X019758Y004144D01*
X019604Y003760D02*
X019297Y003760D01*
X019297Y004220D01*
D16*
X022818Y002753D03*
X022818Y016335D03*
D17*
X002583Y007674D03*
D18*
X001958Y007674D03*
X004308Y007674D03*
D19*
X006479Y006781D03*
X007660Y006781D03*
X007660Y004631D03*
X006479Y004631D03*
D20*
X004271Y003316D02*
X003558Y003316D01*
X003558Y006072D01*
X004271Y006072D01*
X004271Y003316D01*
X004271Y002694D01*
X003641Y002694D01*
X003641Y002794D01*
X001235Y002794D01*
X000369Y003513D01*
X000369Y005875D01*
X001196Y006593D01*
X003641Y006593D01*
X003641Y006694D01*
X004271Y006694D01*
X004271Y006072D01*
X001235Y004930D02*
X001235Y004457D01*
X000999Y004457D01*
X000999Y004930D01*
X001235Y004930D01*
X000999Y004930D02*
X000605Y004930D01*
X000605Y004457D01*
X000999Y004457D01*
X023786Y006089D02*
X024416Y006089D01*
X024416Y006188D01*
X026861Y006188D01*
X027688Y006906D01*
X027688Y010450D01*
X026822Y011168D01*
X024416Y011168D01*
X024416Y011267D01*
X023786Y011267D01*
X023786Y010646D01*
X024499Y010646D01*
X024499Y006709D01*
X023786Y006709D01*
X023786Y010646D01*
X026822Y008914D02*
X026822Y008442D01*
X027058Y008442D01*
X027058Y008914D01*
X027452Y008914D01*
X027452Y008442D01*
X027058Y008442D01*
X027058Y008914D02*
X026822Y008914D01*
X023786Y006709D02*
X023786Y006089D01*
M02*
