G75*
G70*
%OFA0B0*%
%FSLAX24Y24*%
%IPPOS*%
%LPD*%
%AMOC8*
5,1,8,0,0,1.08239X$1,22.5*
%
%ADD10C,0.0000*%
%ADD11C,0.0060*%
%ADD12C,0.0030*%
%ADD13C,0.0080*%
%ADD14C,0.0050*%
%ADD15C,0.0040*%
%ADD16R,0.0945X0.0236*%
%ADD17C,0.0020*%
%ADD18R,0.0200X0.1000*%
%ADD19R,0.0750X0.0300*%
%ADD20R,0.0150X0.0200*%
%ADD21C,0.0100*%
D10*
X000100Y000100D02*
X000100Y016242D01*
X026872Y016242D01*
X026872Y000100D01*
X000100Y000100D01*
X000651Y001281D02*
X000653Y001331D01*
X000659Y001381D01*
X000669Y001430D01*
X000683Y001478D01*
X000700Y001525D01*
X000721Y001570D01*
X000746Y001614D01*
X000774Y001655D01*
X000806Y001694D01*
X000840Y001731D01*
X000877Y001765D01*
X000917Y001795D01*
X000959Y001822D01*
X001003Y001846D01*
X001049Y001867D01*
X001096Y001883D01*
X001144Y001896D01*
X001194Y001905D01*
X001243Y001910D01*
X001294Y001911D01*
X001344Y001908D01*
X001393Y001901D01*
X001442Y001890D01*
X001490Y001875D01*
X001536Y001857D01*
X001581Y001835D01*
X001624Y001809D01*
X001665Y001780D01*
X001704Y001748D01*
X001740Y001713D01*
X001772Y001675D01*
X001802Y001635D01*
X001829Y001592D01*
X001852Y001548D01*
X001871Y001502D01*
X001887Y001454D01*
X001899Y001405D01*
X001907Y001356D01*
X001911Y001306D01*
X001911Y001256D01*
X001907Y001206D01*
X001899Y001157D01*
X001887Y001108D01*
X001871Y001060D01*
X001852Y001014D01*
X001829Y000970D01*
X001802Y000927D01*
X001772Y000887D01*
X001740Y000849D01*
X001704Y000814D01*
X001665Y000782D01*
X001624Y000753D01*
X001581Y000727D01*
X001536Y000705D01*
X001490Y000687D01*
X001442Y000672D01*
X001393Y000661D01*
X001344Y000654D01*
X001294Y000651D01*
X001243Y000652D01*
X001194Y000657D01*
X001144Y000666D01*
X001096Y000679D01*
X001049Y000695D01*
X001003Y000716D01*
X000959Y000740D01*
X000917Y000767D01*
X000877Y000797D01*
X000840Y000831D01*
X000806Y000868D01*
X000774Y000907D01*
X000746Y000948D01*
X000721Y000992D01*
X000700Y001037D01*
X000683Y001084D01*
X000669Y001132D01*
X000659Y001181D01*
X000653Y001231D01*
X000651Y001281D01*
X001509Y004600D02*
X001511Y004648D01*
X001517Y004696D01*
X001527Y004743D01*
X001540Y004789D01*
X001558Y004834D01*
X001578Y004878D01*
X001603Y004920D01*
X001631Y004959D01*
X001661Y004996D01*
X001695Y005030D01*
X001732Y005062D01*
X001770Y005091D01*
X001811Y005116D01*
X001854Y005138D01*
X001899Y005156D01*
X001945Y005170D01*
X001992Y005181D01*
X002040Y005188D01*
X002088Y005191D01*
X002136Y005190D01*
X002184Y005185D01*
X002232Y005176D01*
X002278Y005164D01*
X002323Y005147D01*
X002367Y005127D01*
X002409Y005104D01*
X002449Y005077D01*
X002487Y005047D01*
X002522Y005014D01*
X002554Y004978D01*
X002584Y004940D01*
X002610Y004899D01*
X002632Y004856D01*
X002652Y004812D01*
X002667Y004767D01*
X002679Y004720D01*
X002687Y004672D01*
X002691Y004624D01*
X002691Y004576D01*
X002687Y004528D01*
X002679Y004480D01*
X002667Y004433D01*
X002652Y004388D01*
X002632Y004344D01*
X002610Y004301D01*
X002584Y004260D01*
X002554Y004222D01*
X002522Y004186D01*
X002487Y004153D01*
X002449Y004123D01*
X002409Y004096D01*
X002367Y004073D01*
X002323Y004053D01*
X002278Y004036D01*
X002232Y004024D01*
X002184Y004015D01*
X002136Y004010D01*
X002088Y004009D01*
X002040Y004012D01*
X001992Y004019D01*
X001945Y004030D01*
X001899Y004044D01*
X001854Y004062D01*
X001811Y004084D01*
X001770Y004109D01*
X001732Y004138D01*
X001695Y004170D01*
X001661Y004204D01*
X001631Y004241D01*
X001603Y004280D01*
X001578Y004322D01*
X001558Y004366D01*
X001540Y004411D01*
X001527Y004457D01*
X001517Y004504D01*
X001511Y004552D01*
X001509Y004600D01*
X002480Y011060D02*
X002482Y011039D01*
X002487Y011019D01*
X002496Y011000D01*
X002508Y010983D01*
X002523Y010968D01*
X002540Y010956D01*
X002559Y010947D01*
X002579Y010942D01*
X002600Y010940D01*
X002621Y010942D01*
X002641Y010947D01*
X002660Y010956D01*
X002677Y010968D01*
X002692Y010983D01*
X002704Y011000D01*
X002713Y011019D01*
X002718Y011039D01*
X002720Y011060D01*
X000651Y015061D02*
X000653Y015111D01*
X000659Y015161D01*
X000669Y015210D01*
X000683Y015258D01*
X000700Y015305D01*
X000721Y015350D01*
X000746Y015394D01*
X000774Y015435D01*
X000806Y015474D01*
X000840Y015511D01*
X000877Y015545D01*
X000917Y015575D01*
X000959Y015602D01*
X001003Y015626D01*
X001049Y015647D01*
X001096Y015663D01*
X001144Y015676D01*
X001194Y015685D01*
X001243Y015690D01*
X001294Y015691D01*
X001344Y015688D01*
X001393Y015681D01*
X001442Y015670D01*
X001490Y015655D01*
X001536Y015637D01*
X001581Y015615D01*
X001624Y015589D01*
X001665Y015560D01*
X001704Y015528D01*
X001740Y015493D01*
X001772Y015455D01*
X001802Y015415D01*
X001829Y015372D01*
X001852Y015328D01*
X001871Y015282D01*
X001887Y015234D01*
X001899Y015185D01*
X001907Y015136D01*
X001911Y015086D01*
X001911Y015036D01*
X001907Y014986D01*
X001899Y014937D01*
X001887Y014888D01*
X001871Y014840D01*
X001852Y014794D01*
X001829Y014750D01*
X001802Y014707D01*
X001772Y014667D01*
X001740Y014629D01*
X001704Y014594D01*
X001665Y014562D01*
X001624Y014533D01*
X001581Y014507D01*
X001536Y014485D01*
X001490Y014467D01*
X001442Y014452D01*
X001393Y014441D01*
X001344Y014434D01*
X001294Y014431D01*
X001243Y014432D01*
X001194Y014437D01*
X001144Y014446D01*
X001096Y014459D01*
X001049Y014475D01*
X001003Y014496D01*
X000959Y014520D01*
X000917Y014547D01*
X000877Y014577D01*
X000840Y014611D01*
X000806Y014648D01*
X000774Y014687D01*
X000746Y014728D01*
X000721Y014772D01*
X000700Y014817D01*
X000683Y014864D01*
X000669Y014912D01*
X000659Y014961D01*
X000653Y015011D01*
X000651Y015061D01*
X025009Y007600D02*
X025011Y007648D01*
X025017Y007696D01*
X025027Y007743D01*
X025040Y007789D01*
X025058Y007834D01*
X025078Y007878D01*
X025103Y007920D01*
X025131Y007959D01*
X025161Y007996D01*
X025195Y008030D01*
X025232Y008062D01*
X025270Y008091D01*
X025311Y008116D01*
X025354Y008138D01*
X025399Y008156D01*
X025445Y008170D01*
X025492Y008181D01*
X025540Y008188D01*
X025588Y008191D01*
X025636Y008190D01*
X025684Y008185D01*
X025732Y008176D01*
X025778Y008164D01*
X025823Y008147D01*
X025867Y008127D01*
X025909Y008104D01*
X025949Y008077D01*
X025987Y008047D01*
X026022Y008014D01*
X026054Y007978D01*
X026084Y007940D01*
X026110Y007899D01*
X026132Y007856D01*
X026152Y007812D01*
X026167Y007767D01*
X026179Y007720D01*
X026187Y007672D01*
X026191Y007624D01*
X026191Y007576D01*
X026187Y007528D01*
X026179Y007480D01*
X026167Y007433D01*
X026152Y007388D01*
X026132Y007344D01*
X026110Y007301D01*
X026084Y007260D01*
X026054Y007222D01*
X026022Y007186D01*
X025987Y007153D01*
X025949Y007123D01*
X025909Y007096D01*
X025867Y007073D01*
X025823Y007053D01*
X025778Y007036D01*
X025732Y007024D01*
X025684Y007015D01*
X025636Y007010D01*
X025588Y007009D01*
X025540Y007012D01*
X025492Y007019D01*
X025445Y007030D01*
X025399Y007044D01*
X025354Y007062D01*
X025311Y007084D01*
X025270Y007109D01*
X025232Y007138D01*
X025195Y007170D01*
X025161Y007204D01*
X025131Y007241D01*
X025103Y007280D01*
X025078Y007322D01*
X025058Y007366D01*
X025040Y007411D01*
X025027Y007457D01*
X025017Y007504D01*
X025011Y007552D01*
X025009Y007600D01*
X025061Y001281D02*
X025063Y001331D01*
X025069Y001381D01*
X025079Y001430D01*
X025093Y001478D01*
X025110Y001525D01*
X025131Y001570D01*
X025156Y001614D01*
X025184Y001655D01*
X025216Y001694D01*
X025250Y001731D01*
X025287Y001765D01*
X025327Y001795D01*
X025369Y001822D01*
X025413Y001846D01*
X025459Y001867D01*
X025506Y001883D01*
X025554Y001896D01*
X025604Y001905D01*
X025653Y001910D01*
X025704Y001911D01*
X025754Y001908D01*
X025803Y001901D01*
X025852Y001890D01*
X025900Y001875D01*
X025946Y001857D01*
X025991Y001835D01*
X026034Y001809D01*
X026075Y001780D01*
X026114Y001748D01*
X026150Y001713D01*
X026182Y001675D01*
X026212Y001635D01*
X026239Y001592D01*
X026262Y001548D01*
X026281Y001502D01*
X026297Y001454D01*
X026309Y001405D01*
X026317Y001356D01*
X026321Y001306D01*
X026321Y001256D01*
X026317Y001206D01*
X026309Y001157D01*
X026297Y001108D01*
X026281Y001060D01*
X026262Y001014D01*
X026239Y000970D01*
X026212Y000927D01*
X026182Y000887D01*
X026150Y000849D01*
X026114Y000814D01*
X026075Y000782D01*
X026034Y000753D01*
X025991Y000727D01*
X025946Y000705D01*
X025900Y000687D01*
X025852Y000672D01*
X025803Y000661D01*
X025754Y000654D01*
X025704Y000651D01*
X025653Y000652D01*
X025604Y000657D01*
X025554Y000666D01*
X025506Y000679D01*
X025459Y000695D01*
X025413Y000716D01*
X025369Y000740D01*
X025327Y000767D01*
X025287Y000797D01*
X025250Y000831D01*
X025216Y000868D01*
X025184Y000907D01*
X025156Y000948D01*
X025131Y000992D01*
X025110Y001037D01*
X025093Y001084D01*
X025079Y001132D01*
X025069Y001181D01*
X025063Y001231D01*
X025061Y001281D01*
X025061Y015061D02*
X025063Y015111D01*
X025069Y015161D01*
X025079Y015210D01*
X025093Y015258D01*
X025110Y015305D01*
X025131Y015350D01*
X025156Y015394D01*
X025184Y015435D01*
X025216Y015474D01*
X025250Y015511D01*
X025287Y015545D01*
X025327Y015575D01*
X025369Y015602D01*
X025413Y015626D01*
X025459Y015647D01*
X025506Y015663D01*
X025554Y015676D01*
X025604Y015685D01*
X025653Y015690D01*
X025704Y015691D01*
X025754Y015688D01*
X025803Y015681D01*
X025852Y015670D01*
X025900Y015655D01*
X025946Y015637D01*
X025991Y015615D01*
X026034Y015589D01*
X026075Y015560D01*
X026114Y015528D01*
X026150Y015493D01*
X026182Y015455D01*
X026212Y015415D01*
X026239Y015372D01*
X026262Y015328D01*
X026281Y015282D01*
X026297Y015234D01*
X026309Y015185D01*
X026317Y015136D01*
X026321Y015086D01*
X026321Y015036D01*
X026317Y014986D01*
X026309Y014937D01*
X026297Y014888D01*
X026281Y014840D01*
X026262Y014794D01*
X026239Y014750D01*
X026212Y014707D01*
X026182Y014667D01*
X026150Y014629D01*
X026114Y014594D01*
X026075Y014562D01*
X026034Y014533D01*
X025991Y014507D01*
X025946Y014485D01*
X025900Y014467D01*
X025852Y014452D01*
X025803Y014441D01*
X025754Y014434D01*
X025704Y014431D01*
X025653Y014432D01*
X025604Y014437D01*
X025554Y014446D01*
X025506Y014459D01*
X025459Y014475D01*
X025413Y014496D01*
X025369Y014520D01*
X025327Y014547D01*
X025287Y014577D01*
X025250Y014611D01*
X025216Y014648D01*
X025184Y014687D01*
X025156Y014728D01*
X025131Y014772D01*
X025110Y014817D01*
X025093Y014864D01*
X025079Y014912D01*
X025069Y014961D01*
X025063Y015011D01*
X025061Y015061D01*
D11*
X014350Y012710D02*
X014220Y012710D01*
X013980Y012710D01*
X013850Y012710D01*
X013980Y012710D02*
X013982Y012689D01*
X013987Y012669D01*
X013996Y012650D01*
X014008Y012633D01*
X014023Y012618D01*
X014040Y012606D01*
X014059Y012597D01*
X014079Y012592D01*
X014100Y012590D01*
X014121Y012592D01*
X014141Y012597D01*
X014160Y012606D01*
X014177Y012618D01*
X014192Y012633D01*
X014204Y012650D01*
X014213Y012669D01*
X014218Y012689D01*
X014220Y012710D01*
X014450Y012230D02*
X014450Y011970D01*
X014350Y011490D02*
X013850Y011490D01*
X010060Y009200D02*
X009660Y009200D01*
X008990Y007740D02*
X008990Y007670D01*
X007210Y007670D01*
X007210Y007740D01*
X006540Y008950D02*
X006140Y008950D01*
X003900Y007600D02*
X002300Y007600D01*
X002300Y006600D01*
X003900Y006600D01*
X003900Y007600D01*
X003500Y007350D02*
X003100Y007100D01*
X003100Y006850D01*
X003100Y007100D02*
X003500Y006850D01*
X003500Y007350D01*
X003700Y007100D02*
X003100Y007100D01*
X003100Y007350D01*
X003100Y007100D02*
X002850Y007100D01*
X003260Y009140D02*
X001940Y009140D01*
X001940Y011060D02*
X002480Y011060D01*
X002720Y011060D01*
X003260Y011060D01*
X007210Y011460D02*
X007210Y011530D01*
X007980Y011530D01*
X008220Y011530D01*
X008990Y011530D01*
X008990Y011460D01*
X008220Y011530D02*
X008218Y011509D01*
X008213Y011489D01*
X008204Y011470D01*
X008192Y011453D01*
X008177Y011438D01*
X008160Y011426D01*
X008141Y011417D01*
X008121Y011412D01*
X008100Y011410D01*
X008079Y011412D01*
X008059Y011417D01*
X008040Y011426D01*
X008023Y011438D01*
X008008Y011453D01*
X007996Y011470D01*
X007987Y011489D01*
X007982Y011509D01*
X007980Y011530D01*
X013850Y008210D02*
X013980Y008210D01*
X014220Y008210D01*
X014350Y008210D01*
X014220Y008210D02*
X014218Y008189D01*
X014213Y008169D01*
X014204Y008150D01*
X014192Y008133D01*
X014177Y008118D01*
X014160Y008106D01*
X014141Y008097D01*
X014121Y008092D01*
X014100Y008090D01*
X014079Y008092D01*
X014059Y008097D01*
X014040Y008106D01*
X014023Y008118D01*
X014008Y008133D01*
X013996Y008150D01*
X013987Y008169D01*
X013982Y008189D01*
X013980Y008210D01*
X014450Y007730D02*
X014450Y007470D01*
X014350Y006990D02*
X013850Y006990D01*
X008600Y006400D02*
X008600Y005800D01*
X008598Y005783D01*
X008594Y005766D01*
X008587Y005750D01*
X008577Y005736D01*
X008564Y005723D01*
X008550Y005713D01*
X008534Y005706D01*
X008517Y005702D01*
X008500Y005700D01*
X008350Y005700D01*
X008300Y005750D01*
X006900Y005750D01*
X006850Y005700D01*
X006700Y005700D01*
X006683Y005702D01*
X006666Y005706D01*
X006650Y005713D01*
X006636Y005723D01*
X006623Y005736D01*
X006613Y005750D01*
X006606Y005766D01*
X006602Y005783D01*
X006600Y005800D01*
X006600Y006400D01*
X006602Y006417D01*
X006606Y006434D01*
X006613Y006450D01*
X006623Y006464D01*
X006636Y006477D01*
X006650Y006487D01*
X006666Y006494D01*
X006683Y006498D01*
X006700Y006500D01*
X006850Y006500D01*
X006900Y006450D01*
X008300Y006450D01*
X008350Y006500D01*
X008500Y006500D01*
X008517Y006498D01*
X008534Y006494D01*
X008550Y006487D01*
X008564Y006477D01*
X008577Y006464D01*
X008587Y006450D01*
X008594Y006434D01*
X008598Y006417D01*
X008600Y006400D01*
X008500Y005500D02*
X008350Y005500D01*
X008300Y005450D01*
X006900Y005450D01*
X006850Y005500D01*
X006700Y005500D01*
X006683Y005498D01*
X006666Y005494D01*
X006650Y005487D01*
X006636Y005477D01*
X006623Y005464D01*
X006613Y005450D01*
X006606Y005434D01*
X006602Y005417D01*
X006600Y005400D01*
X006600Y004800D01*
X006602Y004783D01*
X006606Y004766D01*
X006613Y004750D01*
X006623Y004736D01*
X006636Y004723D01*
X006650Y004713D01*
X006666Y004706D01*
X006683Y004702D01*
X006700Y004700D01*
X006850Y004700D01*
X006900Y004750D01*
X008300Y004750D01*
X008350Y004700D01*
X008500Y004700D01*
X008517Y004702D01*
X008534Y004706D01*
X008550Y004713D01*
X008564Y004723D01*
X008577Y004736D01*
X008587Y004750D01*
X008594Y004766D01*
X008598Y004783D01*
X008600Y004800D01*
X008600Y005400D01*
X008598Y005417D01*
X008594Y005434D01*
X008587Y005450D01*
X008577Y005464D01*
X008564Y005477D01*
X008550Y005487D01*
X008534Y005494D01*
X008517Y005498D01*
X008500Y005500D01*
X008140Y004080D02*
X007720Y004080D01*
X007480Y004080D01*
X007060Y004080D01*
X007480Y004080D02*
X007482Y004059D01*
X007487Y004039D01*
X007496Y004020D01*
X007508Y004003D01*
X007523Y003988D01*
X007540Y003976D01*
X007559Y003967D01*
X007579Y003962D01*
X007600Y003960D01*
X007621Y003962D01*
X007641Y003967D01*
X007660Y003976D01*
X007677Y003988D01*
X007692Y004003D01*
X007704Y004020D01*
X007713Y004039D01*
X007718Y004059D01*
X007720Y004080D01*
X008140Y002120D02*
X007060Y002120D01*
X013850Y001990D02*
X014350Y001990D01*
X014450Y002470D02*
X014450Y002730D01*
X014350Y003210D02*
X014220Y003210D01*
X013980Y003210D01*
X013850Y003210D01*
X013980Y003210D02*
X013982Y003189D01*
X013987Y003169D01*
X013996Y003150D01*
X014008Y003133D01*
X014023Y003118D01*
X014040Y003106D01*
X014059Y003097D01*
X014079Y003092D01*
X014100Y003090D01*
X014121Y003092D01*
X014141Y003097D01*
X014160Y003106D01*
X014177Y003118D01*
X014192Y003133D01*
X014204Y003150D01*
X014213Y003169D01*
X014218Y003189D01*
X014220Y003210D01*
D12*
X013559Y003233D02*
X013245Y003547D01*
X013402Y003547D02*
X013402Y003233D01*
X013245Y003233D02*
X013559Y003547D01*
X013559Y003390D02*
X013245Y003390D01*
X006629Y004113D02*
X006315Y004427D01*
X006315Y004270D02*
X006629Y004270D01*
X006629Y004427D02*
X006315Y004113D01*
X006472Y004113D02*
X006472Y004427D01*
X013245Y008233D02*
X013559Y008547D01*
X013559Y008390D02*
X013245Y008390D01*
X013245Y008547D02*
X013559Y008233D01*
X013402Y008233D02*
X013402Y008547D01*
X006949Y011443D02*
X006635Y011757D01*
X006792Y011757D02*
X006792Y011443D01*
X006635Y011443D02*
X006949Y011757D01*
X006949Y011600D02*
X006635Y011600D01*
X001559Y011417D02*
X001245Y011103D01*
X001402Y011103D02*
X001402Y011417D01*
X001245Y011417D02*
X001559Y011103D01*
X001559Y011260D02*
X001245Y011260D01*
X013245Y012733D02*
X013559Y013047D01*
X013559Y012890D02*
X013245Y012890D01*
X013245Y013047D02*
X013559Y012733D01*
X013402Y012733D02*
X013402Y013047D01*
D13*
X013274Y013263D02*
X013150Y013140D01*
X012903Y013140D01*
X012780Y013263D01*
X012780Y013881D01*
X013274Y013881D02*
X013274Y013263D01*
X013535Y013263D02*
X013658Y013140D01*
X013905Y013140D01*
X014029Y013263D01*
X014029Y013510D01*
X013905Y013634D01*
X013782Y013634D01*
X013535Y013510D01*
X013535Y013881D01*
X014029Y013881D01*
X010310Y011905D02*
X010310Y011658D01*
X010187Y011535D01*
X009940Y011535D01*
X009940Y011905D01*
X010063Y012029D01*
X010187Y012029D01*
X010310Y011905D01*
X009940Y011535D02*
X009693Y011782D01*
X009569Y012029D01*
X009693Y011274D02*
X009569Y011150D01*
X009569Y010903D01*
X009693Y010780D01*
X010187Y010780D01*
X010310Y010903D01*
X010310Y011150D01*
X010187Y011274D01*
X008029Y012013D02*
X007905Y011890D01*
X007658Y011890D01*
X007535Y012013D01*
X007274Y012013D02*
X007274Y012631D01*
X007535Y012507D02*
X007658Y012631D01*
X007905Y012631D01*
X008029Y012507D01*
X008029Y012384D01*
X007905Y012260D01*
X008029Y012137D01*
X008029Y012013D01*
X007905Y012260D02*
X007782Y012260D01*
X007274Y012013D02*
X007150Y011890D01*
X006903Y011890D01*
X006780Y012013D01*
X006780Y012631D01*
X002099Y011380D02*
X001605Y011380D01*
X001852Y011380D02*
X001852Y012121D01*
X001605Y011874D01*
X001344Y012121D02*
X001344Y011503D01*
X001220Y011380D01*
X000973Y011380D01*
X000850Y011503D01*
X000850Y012121D01*
X009569Y007529D02*
X009569Y007035D01*
X009940Y007035D01*
X009816Y007282D01*
X009816Y007405D01*
X009940Y007529D01*
X010187Y007529D01*
X010310Y007405D01*
X010310Y007158D01*
X010187Y007035D01*
X010187Y006774D02*
X010310Y006650D01*
X010310Y006403D01*
X010187Y006280D01*
X009693Y006280D01*
X009569Y006403D01*
X009569Y006650D01*
X009693Y006774D01*
X007529Y005507D02*
X007405Y005631D01*
X007158Y005631D01*
X007035Y005507D01*
X006774Y005631D02*
X006774Y005013D01*
X006650Y004890D01*
X006403Y004890D01*
X006280Y005013D01*
X006280Y005631D01*
X007035Y004890D02*
X007529Y005384D01*
X007529Y005507D01*
X007529Y004890D02*
X007035Y004890D01*
X010069Y002529D02*
X010193Y002529D01*
X010687Y002035D01*
X010810Y002035D01*
X010687Y001774D02*
X010810Y001650D01*
X010810Y001403D01*
X010687Y001280D01*
X010193Y001280D01*
X010069Y001403D01*
X010069Y001650D01*
X010193Y001774D01*
X010069Y002035D02*
X010069Y002529D01*
X012780Y003763D02*
X012903Y003640D01*
X013150Y003640D01*
X013274Y003763D01*
X013274Y004381D01*
X013535Y004010D02*
X013905Y004010D01*
X014029Y003887D01*
X014029Y003763D01*
X013905Y003640D01*
X013658Y003640D01*
X013535Y003763D01*
X013535Y004010D01*
X013782Y004257D01*
X014029Y004381D01*
X012780Y004381D02*
X012780Y003763D01*
X012903Y008640D02*
X013150Y008640D01*
X013274Y008763D01*
X013274Y009381D01*
X013535Y009010D02*
X014029Y009010D01*
X013905Y009381D02*
X013535Y009010D01*
X013905Y008640D02*
X013905Y009381D01*
X012780Y009381D02*
X012780Y008763D01*
X012903Y008640D01*
D14*
X013572Y008970D02*
X011419Y008970D01*
X011419Y011167D01*
X010974Y011171D02*
X010974Y008970D01*
X011419Y008970D01*
X013572Y008970D02*
X013572Y011171D01*
X010974Y011171D01*
X010974Y013470D02*
X010974Y015671D01*
X013572Y015671D01*
X013572Y013470D01*
X011419Y013470D01*
X011419Y015667D01*
X011419Y013470D02*
X010974Y013470D01*
X016600Y013065D02*
X018234Y013832D01*
X019966Y013832D02*
X021600Y013104D01*
X019966Y013833D02*
X019906Y013875D01*
X019843Y013915D01*
X019778Y013952D01*
X019712Y013985D01*
X019643Y014014D01*
X019574Y014040D01*
X019503Y014063D01*
X019431Y014082D01*
X019359Y014097D01*
X019285Y014108D01*
X019211Y014116D01*
X019137Y014120D01*
X019063Y014120D01*
X018989Y014116D01*
X018915Y014108D01*
X018841Y014097D01*
X018769Y014082D01*
X018697Y014063D01*
X018626Y014040D01*
X018557Y014014D01*
X018488Y013985D01*
X018422Y013952D01*
X018357Y013915D01*
X018294Y013875D01*
X018234Y013833D01*
X018273Y010348D02*
X018341Y010309D01*
X018410Y010274D01*
X018481Y010242D01*
X018553Y010214D01*
X018626Y010189D01*
X018701Y010168D01*
X018776Y010151D01*
X018852Y010137D01*
X018929Y010126D01*
X019007Y010120D01*
X019084Y010117D01*
X019161Y010118D01*
X019239Y010123D01*
X019316Y010131D01*
X019393Y010143D01*
X019468Y010159D01*
X019543Y010178D01*
X019618Y010201D01*
X019690Y010227D01*
X019762Y010257D01*
X019832Y010291D01*
X019900Y010327D01*
X019967Y010367D01*
X019966Y010368D02*
X021600Y011116D01*
X019966Y009332D02*
X021600Y008604D01*
X019966Y009333D02*
X019906Y009375D01*
X019843Y009415D01*
X019778Y009452D01*
X019712Y009485D01*
X019643Y009514D01*
X019574Y009540D01*
X019503Y009563D01*
X019431Y009582D01*
X019359Y009597D01*
X019285Y009608D01*
X019211Y009616D01*
X019137Y009620D01*
X019063Y009620D01*
X018989Y009616D01*
X018915Y009608D01*
X018841Y009597D01*
X018769Y009582D01*
X018697Y009563D01*
X018626Y009540D01*
X018557Y009514D01*
X018488Y009485D01*
X018422Y009452D01*
X018357Y009415D01*
X018294Y009375D01*
X018234Y009333D01*
X018234Y009332D02*
X016600Y008565D01*
X018273Y005848D02*
X018341Y005809D01*
X018410Y005774D01*
X018481Y005742D01*
X018553Y005714D01*
X018626Y005689D01*
X018701Y005668D01*
X018776Y005651D01*
X018852Y005637D01*
X018929Y005626D01*
X019007Y005620D01*
X019084Y005617D01*
X019161Y005618D01*
X019239Y005623D01*
X019316Y005631D01*
X019393Y005643D01*
X019468Y005659D01*
X019543Y005678D01*
X019618Y005701D01*
X019690Y005727D01*
X019762Y005757D01*
X019832Y005791D01*
X019900Y005827D01*
X019967Y005867D01*
X019966Y005868D02*
X021600Y006616D01*
X023509Y005700D02*
X023509Y005631D01*
X023509Y005698D01*
X021600Y004104D02*
X019966Y004832D01*
X018234Y004832D02*
X016600Y004065D01*
X018234Y004833D02*
X018294Y004875D01*
X018357Y004915D01*
X018422Y004952D01*
X018488Y004985D01*
X018557Y005014D01*
X018626Y005040D01*
X018697Y005063D01*
X018769Y005082D01*
X018841Y005097D01*
X018915Y005108D01*
X018989Y005116D01*
X019063Y005120D01*
X019137Y005120D01*
X019211Y005116D01*
X019285Y005108D01*
X019359Y005097D01*
X019431Y005082D01*
X019503Y005063D01*
X019574Y005040D01*
X019643Y005014D01*
X019712Y004985D01*
X019778Y004952D01*
X019843Y004915D01*
X019906Y004875D01*
X019966Y004833D01*
X018234Y005868D02*
X016600Y006616D01*
X014072Y005671D02*
X014072Y003470D01*
X011919Y003470D01*
X011919Y005667D01*
X011474Y005671D02*
X011474Y003470D01*
X011919Y003470D01*
X011474Y005671D02*
X014072Y005671D01*
X018273Y001348D02*
X018341Y001309D01*
X018410Y001274D01*
X018481Y001242D01*
X018553Y001214D01*
X018626Y001189D01*
X018701Y001168D01*
X018776Y001151D01*
X018852Y001137D01*
X018929Y001126D01*
X019007Y001120D01*
X019084Y001117D01*
X019161Y001118D01*
X019239Y001123D01*
X019316Y001131D01*
X019393Y001143D01*
X019468Y001159D01*
X019543Y001178D01*
X019618Y001201D01*
X019690Y001227D01*
X019762Y001257D01*
X019832Y001291D01*
X019900Y001327D01*
X019967Y001367D01*
X019966Y001368D02*
X021600Y002116D01*
X018234Y001368D02*
X016600Y002116D01*
X005596Y002604D02*
X005596Y001297D01*
X004612Y001297D01*
X004612Y002569D01*
X005572Y002569D01*
X005596Y002604D02*
X004612Y002604D01*
X004612Y002569D01*
X004612Y002604D02*
X004612Y002931D01*
X005596Y002931D01*
X005596Y002604D01*
X003903Y002096D02*
X003903Y001112D01*
X002631Y001112D01*
X002631Y002072D01*
X002596Y002096D02*
X002596Y001112D01*
X002631Y001112D01*
X002596Y001112D02*
X002269Y001112D01*
X002269Y002096D01*
X002596Y002096D01*
X003903Y002096D01*
X003086Y007775D02*
X002785Y007775D01*
X002936Y007775D02*
X002936Y008225D01*
X002785Y008075D01*
X002625Y008150D02*
X002625Y007850D01*
X002550Y007775D01*
X002325Y007775D01*
X002325Y008225D01*
X002550Y008225D01*
X002625Y008150D01*
X016600Y011116D02*
X018234Y010368D01*
D15*
X018205Y010745D02*
X018512Y011052D01*
X018512Y011129D01*
X018436Y011205D01*
X018282Y011205D01*
X018205Y011129D01*
X017745Y011205D02*
X017745Y010745D01*
X018052Y010745D01*
X018205Y010745D02*
X018512Y010745D01*
X015230Y011770D02*
X014770Y011770D01*
X014770Y012000D01*
X014846Y012077D01*
X015000Y012077D01*
X015077Y012000D01*
X015077Y011770D01*
X015077Y011923D02*
X015230Y012077D01*
X015230Y012230D02*
X015230Y012537D01*
X015230Y012384D02*
X014770Y012384D01*
X014923Y012230D01*
X014846Y012691D02*
X014770Y012768D01*
X014770Y012921D01*
X014846Y012998D01*
X014923Y012998D01*
X015230Y012691D01*
X015230Y012998D01*
X009137Y012997D02*
X009061Y012920D01*
X008907Y012920D01*
X008830Y012997D01*
X008677Y012920D02*
X008523Y013073D01*
X008600Y013073D02*
X008370Y013073D01*
X008370Y012920D02*
X008370Y013380D01*
X008600Y013380D01*
X008677Y013304D01*
X008677Y013150D01*
X008600Y013073D01*
X008984Y013150D02*
X009061Y013150D01*
X009137Y013073D01*
X009137Y012997D01*
X009061Y013150D02*
X009137Y013227D01*
X009137Y013304D01*
X009061Y013380D01*
X008907Y013380D01*
X008830Y013304D01*
X008907Y013420D02*
X008830Y013497D01*
X008907Y013420D02*
X009061Y013420D01*
X009137Y013497D01*
X009137Y013650D01*
X009061Y013727D01*
X008984Y013727D01*
X008830Y013650D01*
X008830Y013880D01*
X009137Y013880D01*
X009061Y013920D02*
X008907Y013920D01*
X008830Y013997D01*
X008830Y014073D01*
X008907Y014150D01*
X009061Y014150D01*
X009137Y014073D01*
X009137Y013997D01*
X009061Y013920D01*
X009061Y014150D02*
X009137Y014227D01*
X009137Y014304D01*
X009061Y014380D01*
X008907Y014380D01*
X008830Y014304D01*
X008830Y014227D01*
X008907Y014150D01*
X008677Y014150D02*
X008677Y014304D01*
X008600Y014380D01*
X008370Y014380D01*
X008370Y013920D01*
X008370Y013880D02*
X008600Y013880D01*
X008677Y013804D01*
X008677Y013650D01*
X008600Y013573D01*
X008370Y013573D01*
X008370Y013420D02*
X008370Y013880D01*
X008523Y014073D02*
X008677Y013920D01*
X008600Y014073D02*
X008370Y014073D01*
X008600Y014073D02*
X008677Y014150D01*
X008523Y013573D02*
X008677Y013420D01*
X007637Y013497D02*
X007637Y013573D01*
X007561Y013650D01*
X007330Y013650D01*
X007330Y013497D01*
X007407Y013420D01*
X007561Y013420D01*
X007637Y013497D01*
X007561Y013380D02*
X007330Y013150D01*
X007637Y013150D01*
X007561Y012920D02*
X007561Y013380D01*
X007177Y013420D02*
X007023Y013573D01*
X007100Y013573D02*
X006870Y013573D01*
X006870Y013420D02*
X006870Y013880D01*
X007100Y013880D01*
X007177Y013804D01*
X007177Y013650D01*
X007100Y013573D01*
X007330Y013650D02*
X007484Y013804D01*
X007637Y013880D01*
X007561Y013920D02*
X007407Y013920D01*
X007330Y013997D01*
X007177Y013920D02*
X007023Y014073D01*
X007100Y014073D02*
X006870Y014073D01*
X006870Y013920D02*
X006870Y014380D01*
X007100Y014380D01*
X007177Y014304D01*
X007177Y014150D01*
X007100Y014073D01*
X007330Y014227D02*
X007407Y014150D01*
X007637Y014150D01*
X007637Y013997D02*
X007637Y014304D01*
X007561Y014380D01*
X007407Y014380D01*
X007330Y014304D01*
X007330Y014227D01*
X007637Y013997D02*
X007561Y013920D01*
X007100Y013380D02*
X006870Y013380D01*
X006870Y012920D01*
X006870Y013073D02*
X007100Y013073D01*
X007177Y013150D01*
X007177Y013304D01*
X007100Y013380D01*
X007023Y013073D02*
X007177Y012920D01*
X004637Y013370D02*
X004330Y013370D01*
X004637Y013677D01*
X004637Y013754D01*
X004561Y013830D01*
X004407Y013830D01*
X004330Y013754D01*
X004177Y013754D02*
X004100Y013830D01*
X003947Y013830D01*
X003870Y013754D01*
X003870Y013447D01*
X003947Y013370D01*
X004100Y013370D01*
X004177Y013447D01*
X003961Y012430D02*
X003807Y012430D01*
X003730Y012354D01*
X003577Y012354D02*
X003577Y012200D01*
X003500Y012123D01*
X003270Y012123D01*
X003270Y011970D02*
X003270Y012430D01*
X003500Y012430D01*
X003577Y012354D01*
X003423Y012123D02*
X003577Y011970D01*
X003730Y011970D02*
X004037Y012277D01*
X004037Y012354D01*
X003961Y012430D01*
X004037Y011970D02*
X003730Y011970D01*
X005049Y011230D02*
X005279Y011230D01*
X005356Y011154D01*
X005356Y011000D01*
X005279Y010923D01*
X005049Y010923D01*
X005100Y010830D02*
X004947Y010830D01*
X004870Y010754D01*
X004870Y010447D01*
X004947Y010370D01*
X005100Y010370D01*
X005177Y010447D01*
X005330Y010447D02*
X005407Y010370D01*
X005561Y010370D01*
X005637Y010447D01*
X005637Y010523D01*
X005561Y010600D01*
X005484Y010600D01*
X005561Y010600D02*
X005637Y010677D01*
X005637Y010754D01*
X005561Y010830D01*
X005407Y010830D01*
X005330Y010754D01*
X005356Y010770D02*
X005203Y010923D01*
X005100Y010830D02*
X005177Y010754D01*
X005049Y010770D02*
X005049Y011230D01*
X005510Y011077D02*
X005663Y011230D01*
X005663Y010770D01*
X005510Y010770D02*
X005817Y010770D01*
X005311Y010080D02*
X005080Y009850D01*
X005387Y009850D01*
X005311Y009620D02*
X005311Y010080D01*
X004927Y010004D02*
X004850Y010080D01*
X004697Y010080D01*
X004620Y010004D01*
X004620Y009697D01*
X004697Y009620D01*
X004850Y009620D01*
X004927Y009697D01*
X006620Y006980D02*
X006795Y006980D01*
X006854Y006922D01*
X006854Y006805D01*
X006795Y006747D01*
X006620Y006747D01*
X006737Y006747D02*
X006854Y006630D01*
X006979Y006630D02*
X006979Y006688D01*
X007213Y006922D01*
X007213Y006980D01*
X006979Y006980D01*
X006620Y006980D02*
X006620Y006630D01*
X006620Y005980D02*
X006795Y005980D01*
X006854Y005922D01*
X006854Y005805D01*
X006795Y005747D01*
X006620Y005747D01*
X006737Y005747D02*
X006854Y005630D01*
X006979Y005630D02*
X007213Y005630D01*
X007096Y005630D02*
X007096Y005980D01*
X006979Y005864D01*
X007338Y005922D02*
X007338Y005688D01*
X007572Y005922D01*
X007572Y005688D01*
X007513Y005630D01*
X007397Y005630D01*
X007338Y005688D01*
X007338Y005922D02*
X007397Y005980D01*
X007513Y005980D01*
X007572Y005922D01*
X006620Y005980D02*
X006620Y005630D01*
X014770Y007270D02*
X014770Y007500D01*
X014846Y007577D01*
X015000Y007577D01*
X015077Y007500D01*
X015077Y007270D01*
X015230Y007270D02*
X014770Y007270D01*
X015077Y007423D02*
X015230Y007577D01*
X015230Y007730D02*
X015230Y008037D01*
X015230Y007884D02*
X014770Y007884D01*
X014923Y007730D01*
X014923Y008191D02*
X014770Y008344D01*
X015230Y008344D01*
X015230Y008191D02*
X015230Y008498D01*
X017745Y006705D02*
X017745Y006245D01*
X018052Y006245D01*
X018205Y006245D02*
X018512Y006245D01*
X018359Y006245D02*
X018359Y006705D01*
X018205Y006552D01*
X015153Y003498D02*
X015230Y003421D01*
X015230Y003268D01*
X015153Y003191D01*
X015230Y003037D02*
X015230Y002730D01*
X015230Y002577D02*
X015077Y002423D01*
X015077Y002500D02*
X015077Y002270D01*
X015230Y002270D02*
X014770Y002270D01*
X014770Y002500D01*
X014846Y002577D01*
X015000Y002577D01*
X015077Y002500D01*
X014923Y002730D02*
X014770Y002884D01*
X015230Y002884D01*
X014846Y003191D02*
X014770Y003268D01*
X014770Y003421D01*
X014846Y003498D01*
X014923Y003498D01*
X015000Y003421D01*
X015077Y003498D01*
X015153Y003498D01*
X015000Y003421D02*
X015000Y003344D01*
X017745Y002205D02*
X017745Y001745D01*
X018052Y001745D01*
X018205Y001822D02*
X018282Y001745D01*
X018436Y001745D01*
X018512Y001822D01*
X018512Y001898D01*
X018436Y001975D01*
X018359Y001975D01*
X018436Y001975D02*
X018512Y002052D01*
X018512Y002129D01*
X018436Y002205D01*
X018282Y002205D01*
X018205Y002129D01*
X002387Y013620D02*
X002080Y013620D01*
X002234Y013620D02*
X002234Y014080D01*
X002080Y013927D01*
X001927Y014004D02*
X001850Y014080D01*
X001697Y014080D01*
X001620Y014004D01*
X001620Y013697D01*
X001697Y013620D01*
X001850Y013620D01*
X001927Y013697D01*
D16*
X019100Y012100D03*
X019100Y007600D03*
X019100Y003100D03*
D17*
X005830Y002999D02*
X005830Y002926D01*
X005793Y002889D01*
X005793Y002815D02*
X005647Y002815D01*
X005610Y002778D01*
X005610Y002668D01*
X005830Y002668D01*
X005830Y002778D01*
X005793Y002815D01*
X005647Y002889D02*
X005610Y002926D01*
X005610Y002999D01*
X005647Y003036D01*
X005683Y003036D01*
X005720Y002999D01*
X005757Y003036D01*
X005793Y003036D01*
X005830Y002999D01*
X005720Y002999D02*
X005720Y002962D01*
X004330Y002889D02*
X004110Y002889D01*
X004110Y003036D01*
X004220Y002962D02*
X004220Y002889D01*
X004257Y002815D02*
X004220Y002778D01*
X004220Y002668D01*
X004293Y002668D01*
X004330Y002705D01*
X004330Y002778D01*
X004293Y002815D01*
X004257Y002815D01*
X004147Y002741D02*
X004220Y002668D01*
X004220Y002594D02*
X004220Y002447D01*
X004183Y002447D02*
X004110Y002520D01*
X004183Y002594D01*
X004330Y002594D01*
X004330Y002447D02*
X004183Y002447D01*
X004110Y002373D02*
X004330Y002373D01*
X004330Y002226D02*
X004110Y002226D01*
X004183Y002299D01*
X004110Y002373D01*
X004147Y002152D02*
X004110Y002115D01*
X004110Y002042D01*
X004147Y002005D01*
X004183Y002005D01*
X004220Y002042D01*
X004220Y002115D01*
X004257Y002152D01*
X004293Y002152D01*
X004330Y002115D01*
X004330Y002042D01*
X004293Y002005D01*
X004147Y002741D02*
X004110Y002815D01*
X002478Y002293D02*
X002478Y002257D01*
X002331Y002110D01*
X002478Y002110D01*
X002257Y002147D02*
X002220Y002110D01*
X002110Y002110D01*
X002110Y002330D01*
X002220Y002330D01*
X002257Y002293D01*
X002257Y002147D01*
X002331Y002293D02*
X002368Y002330D01*
X002441Y002330D01*
X002478Y002293D01*
X002478Y000830D02*
X002478Y000610D01*
X002552Y000610D02*
X002552Y000757D01*
X002625Y000830D01*
X002699Y000757D01*
X002699Y000610D01*
X002773Y000647D02*
X002773Y000720D01*
X002883Y000720D01*
X002920Y000683D01*
X002920Y000647D01*
X002883Y000610D01*
X002810Y000610D01*
X002773Y000647D01*
X002773Y000720D02*
X002846Y000793D01*
X002920Y000830D01*
X002994Y000830D02*
X003141Y000830D01*
X003067Y000720D02*
X002994Y000720D01*
X002994Y000610D02*
X002994Y000830D01*
X002699Y000720D02*
X002552Y000720D01*
X002478Y000830D02*
X002404Y000757D01*
X002331Y000830D01*
X002331Y000610D01*
X002257Y000647D02*
X002220Y000610D01*
X002147Y000610D01*
X002110Y000647D01*
X002147Y000720D02*
X002220Y000720D01*
X002257Y000683D01*
X002257Y000647D01*
X002147Y000720D02*
X002110Y000757D01*
X002110Y000793D01*
X002147Y000830D01*
X002220Y000830D01*
X002257Y000793D01*
D18*
X002550Y007100D03*
D19*
X001925Y007100D03*
X004275Y007100D03*
D20*
X006525Y006100D03*
X006525Y005100D03*
X008675Y005100D03*
X008675Y006100D03*
D21*
X004191Y005978D02*
X003478Y005978D01*
X003478Y003222D01*
X004191Y003222D01*
X004191Y002600D01*
X003561Y002600D01*
X003561Y002700D01*
X001155Y002700D01*
X000289Y003419D01*
X000289Y005781D01*
X001116Y006500D01*
X003561Y006500D01*
X003561Y006600D01*
X004191Y006600D01*
X004191Y005978D01*
X004191Y003222D01*
X001155Y004364D02*
X000919Y004364D01*
X000919Y004836D01*
X001155Y004836D01*
X001155Y004364D01*
X000919Y004364D02*
X000525Y004364D01*
X000525Y004836D01*
X000919Y004836D01*
X023509Y005011D02*
X024139Y005011D01*
X024139Y005110D01*
X026584Y005110D01*
X027411Y005828D01*
X027411Y009372D01*
X026545Y010090D01*
X024139Y010090D01*
X024139Y010189D01*
X023509Y010189D01*
X023509Y009569D01*
X024222Y009569D01*
X024222Y005631D01*
X023509Y005631D01*
X023509Y009569D01*
X026545Y007836D02*
X026781Y007836D01*
X026781Y007364D01*
X026545Y007364D01*
X026545Y007836D01*
X026781Y007836D02*
X027175Y007836D01*
X027175Y007364D01*
X026781Y007364D01*
X023509Y005631D02*
X023509Y005011D01*
M02*
