G75*
G70*
%OFA0B0*%
%FSLAX24Y24*%
%IPPOS*%
%LPD*%
%AMOC8*
5,1,8,0,0,1.08239X$1,22.5*
%
%ADD10C,0.0000*%
D10*
X003417Y003393D02*
X003417Y030989D01*
X042717Y030993D01*
X042717Y003393D01*
X003417Y003393D01*
X003987Y004693D02*
X003989Y004743D01*
X003995Y004793D01*
X004005Y004842D01*
X004019Y004890D01*
X004036Y004937D01*
X004057Y004982D01*
X004082Y005026D01*
X004110Y005067D01*
X004142Y005106D01*
X004176Y005143D01*
X004213Y005177D01*
X004253Y005207D01*
X004295Y005234D01*
X004339Y005258D01*
X004385Y005279D01*
X004432Y005295D01*
X004480Y005308D01*
X004530Y005317D01*
X004579Y005322D01*
X004630Y005323D01*
X004680Y005320D01*
X004729Y005313D01*
X004778Y005302D01*
X004826Y005287D01*
X004872Y005269D01*
X004917Y005247D01*
X004960Y005221D01*
X005001Y005192D01*
X005040Y005160D01*
X005076Y005125D01*
X005108Y005087D01*
X005138Y005047D01*
X005165Y005004D01*
X005188Y004960D01*
X005207Y004914D01*
X005223Y004866D01*
X005235Y004817D01*
X005243Y004768D01*
X005247Y004718D01*
X005247Y004668D01*
X005243Y004618D01*
X005235Y004569D01*
X005223Y004520D01*
X005207Y004472D01*
X005188Y004426D01*
X005165Y004382D01*
X005138Y004339D01*
X005108Y004299D01*
X005076Y004261D01*
X005040Y004226D01*
X005001Y004194D01*
X004960Y004165D01*
X004917Y004139D01*
X004872Y004117D01*
X004826Y004099D01*
X004778Y004084D01*
X004729Y004073D01*
X004680Y004066D01*
X004630Y004063D01*
X004579Y004064D01*
X004530Y004069D01*
X004480Y004078D01*
X004432Y004091D01*
X004385Y004107D01*
X004339Y004128D01*
X004295Y004152D01*
X004253Y004179D01*
X004213Y004209D01*
X004176Y004243D01*
X004142Y004280D01*
X004110Y004319D01*
X004082Y004360D01*
X004057Y004404D01*
X004036Y004449D01*
X004019Y004496D01*
X004005Y004544D01*
X003995Y004593D01*
X003989Y004643D01*
X003987Y004693D01*
X007326Y029293D02*
X007328Y029341D01*
X007334Y029389D01*
X007344Y029436D01*
X007357Y029482D01*
X007375Y029527D01*
X007395Y029571D01*
X007420Y029613D01*
X007448Y029652D01*
X007478Y029689D01*
X007512Y029723D01*
X007549Y029755D01*
X007587Y029784D01*
X007628Y029809D01*
X007671Y029831D01*
X007716Y029849D01*
X007762Y029863D01*
X007809Y029874D01*
X007857Y029881D01*
X007905Y029884D01*
X007953Y029883D01*
X008001Y029878D01*
X008049Y029869D01*
X008095Y029857D01*
X008140Y029840D01*
X008184Y029820D01*
X008226Y029797D01*
X008266Y029770D01*
X008304Y029740D01*
X008339Y029707D01*
X008371Y029671D01*
X008401Y029633D01*
X008427Y029592D01*
X008449Y029549D01*
X008469Y029505D01*
X008484Y029460D01*
X008496Y029413D01*
X008504Y029365D01*
X008508Y029317D01*
X008508Y029269D01*
X008504Y029221D01*
X008496Y029173D01*
X008484Y029126D01*
X008469Y029081D01*
X008449Y029037D01*
X008427Y028994D01*
X008401Y028953D01*
X008371Y028915D01*
X008339Y028879D01*
X008304Y028846D01*
X008266Y028816D01*
X008226Y028789D01*
X008184Y028766D01*
X008140Y028746D01*
X008095Y028729D01*
X008049Y028717D01*
X008001Y028708D01*
X007953Y028703D01*
X007905Y028702D01*
X007857Y028705D01*
X007809Y028712D01*
X007762Y028723D01*
X007716Y028737D01*
X007671Y028755D01*
X007628Y028777D01*
X007587Y028802D01*
X007549Y028831D01*
X007512Y028863D01*
X007478Y028897D01*
X007448Y028934D01*
X007420Y028973D01*
X007395Y029015D01*
X007375Y029059D01*
X007357Y029104D01*
X007344Y029150D01*
X007334Y029197D01*
X007328Y029245D01*
X007326Y029293D01*
X003987Y029793D02*
X003989Y029843D01*
X003995Y029893D01*
X004005Y029942D01*
X004019Y029990D01*
X004036Y030037D01*
X004057Y030082D01*
X004082Y030126D01*
X004110Y030167D01*
X004142Y030206D01*
X004176Y030243D01*
X004213Y030277D01*
X004253Y030307D01*
X004295Y030334D01*
X004339Y030358D01*
X004385Y030379D01*
X004432Y030395D01*
X004480Y030408D01*
X004530Y030417D01*
X004579Y030422D01*
X004630Y030423D01*
X004680Y030420D01*
X004729Y030413D01*
X004778Y030402D01*
X004826Y030387D01*
X004872Y030369D01*
X004917Y030347D01*
X004960Y030321D01*
X005001Y030292D01*
X005040Y030260D01*
X005076Y030225D01*
X005108Y030187D01*
X005138Y030147D01*
X005165Y030104D01*
X005188Y030060D01*
X005207Y030014D01*
X005223Y029966D01*
X005235Y029917D01*
X005243Y029868D01*
X005247Y029818D01*
X005247Y029768D01*
X005243Y029718D01*
X005235Y029669D01*
X005223Y029620D01*
X005207Y029572D01*
X005188Y029526D01*
X005165Y029482D01*
X005138Y029439D01*
X005108Y029399D01*
X005076Y029361D01*
X005040Y029326D01*
X005001Y029294D01*
X004960Y029265D01*
X004917Y029239D01*
X004872Y029217D01*
X004826Y029199D01*
X004778Y029184D01*
X004729Y029173D01*
X004680Y029166D01*
X004630Y029163D01*
X004579Y029164D01*
X004530Y029169D01*
X004480Y029178D01*
X004432Y029191D01*
X004385Y029207D01*
X004339Y029228D01*
X004295Y029252D01*
X004253Y029279D01*
X004213Y029309D01*
X004176Y029343D01*
X004142Y029380D01*
X004110Y029419D01*
X004082Y029460D01*
X004057Y029504D01*
X004036Y029549D01*
X004019Y029596D01*
X004005Y029644D01*
X003995Y029693D01*
X003989Y029743D01*
X003987Y029793D01*
X039964Y017780D02*
X039966Y017822D01*
X039972Y017864D01*
X039982Y017906D01*
X039995Y017946D01*
X040013Y017985D01*
X040034Y018022D01*
X040058Y018056D01*
X040086Y018089D01*
X040116Y018119D01*
X040149Y018145D01*
X040184Y018169D01*
X040222Y018189D01*
X040261Y018205D01*
X040301Y018218D01*
X040343Y018227D01*
X040385Y018232D01*
X040428Y018233D01*
X040470Y018230D01*
X040512Y018223D01*
X040553Y018212D01*
X040593Y018197D01*
X040631Y018179D01*
X040668Y018157D01*
X040702Y018132D01*
X040734Y018104D01*
X040762Y018073D01*
X040788Y018039D01*
X040811Y018003D01*
X040830Y017966D01*
X040846Y017926D01*
X040858Y017885D01*
X040866Y017844D01*
X040870Y017801D01*
X040870Y017759D01*
X040866Y017716D01*
X040858Y017675D01*
X040846Y017634D01*
X040830Y017594D01*
X040811Y017557D01*
X040788Y017521D01*
X040762Y017487D01*
X040734Y017456D01*
X040702Y017428D01*
X040668Y017403D01*
X040631Y017381D01*
X040593Y017363D01*
X040553Y017348D01*
X040512Y017337D01*
X040470Y017330D01*
X040428Y017327D01*
X040385Y017328D01*
X040343Y017333D01*
X040301Y017342D01*
X040261Y017355D01*
X040222Y017371D01*
X040184Y017391D01*
X040149Y017415D01*
X040116Y017441D01*
X040086Y017471D01*
X040058Y017504D01*
X040034Y017538D01*
X040013Y017575D01*
X039995Y017614D01*
X039982Y017654D01*
X039972Y017696D01*
X039966Y017738D01*
X039964Y017780D01*
X039964Y012607D02*
X039966Y012649D01*
X039972Y012691D01*
X039982Y012733D01*
X039995Y012773D01*
X040013Y012812D01*
X040034Y012849D01*
X040058Y012883D01*
X040086Y012916D01*
X040116Y012946D01*
X040149Y012972D01*
X040184Y012996D01*
X040222Y013016D01*
X040261Y013032D01*
X040301Y013045D01*
X040343Y013054D01*
X040385Y013059D01*
X040428Y013060D01*
X040470Y013057D01*
X040512Y013050D01*
X040553Y013039D01*
X040593Y013024D01*
X040631Y013006D01*
X040668Y012984D01*
X040702Y012959D01*
X040734Y012931D01*
X040762Y012900D01*
X040788Y012866D01*
X040811Y012830D01*
X040830Y012793D01*
X040846Y012753D01*
X040858Y012712D01*
X040866Y012671D01*
X040870Y012628D01*
X040870Y012586D01*
X040866Y012543D01*
X040858Y012502D01*
X040846Y012461D01*
X040830Y012421D01*
X040811Y012384D01*
X040788Y012348D01*
X040762Y012314D01*
X040734Y012283D01*
X040702Y012255D01*
X040668Y012230D01*
X040631Y012208D01*
X040593Y012190D01*
X040553Y012175D01*
X040512Y012164D01*
X040470Y012157D01*
X040428Y012154D01*
X040385Y012155D01*
X040343Y012160D01*
X040301Y012169D01*
X040261Y012182D01*
X040222Y012198D01*
X040184Y012218D01*
X040149Y012242D01*
X040116Y012268D01*
X040086Y012298D01*
X040058Y012331D01*
X040034Y012365D01*
X040013Y012402D01*
X039995Y012441D01*
X039982Y012481D01*
X039972Y012523D01*
X039966Y012565D01*
X039964Y012607D01*
X040887Y004593D02*
X040889Y004643D01*
X040895Y004693D01*
X040905Y004742D01*
X040919Y004790D01*
X040936Y004837D01*
X040957Y004882D01*
X040982Y004926D01*
X041010Y004967D01*
X041042Y005006D01*
X041076Y005043D01*
X041113Y005077D01*
X041153Y005107D01*
X041195Y005134D01*
X041239Y005158D01*
X041285Y005179D01*
X041332Y005195D01*
X041380Y005208D01*
X041430Y005217D01*
X041479Y005222D01*
X041530Y005223D01*
X041580Y005220D01*
X041629Y005213D01*
X041678Y005202D01*
X041726Y005187D01*
X041772Y005169D01*
X041817Y005147D01*
X041860Y005121D01*
X041901Y005092D01*
X041940Y005060D01*
X041976Y005025D01*
X042008Y004987D01*
X042038Y004947D01*
X042065Y004904D01*
X042088Y004860D01*
X042107Y004814D01*
X042123Y004766D01*
X042135Y004717D01*
X042143Y004668D01*
X042147Y004618D01*
X042147Y004568D01*
X042143Y004518D01*
X042135Y004469D01*
X042123Y004420D01*
X042107Y004372D01*
X042088Y004326D01*
X042065Y004282D01*
X042038Y004239D01*
X042008Y004199D01*
X041976Y004161D01*
X041940Y004126D01*
X041901Y004094D01*
X041860Y004065D01*
X041817Y004039D01*
X041772Y004017D01*
X041726Y003999D01*
X041678Y003984D01*
X041629Y003973D01*
X041580Y003966D01*
X041530Y003963D01*
X041479Y003964D01*
X041430Y003969D01*
X041380Y003978D01*
X041332Y003991D01*
X041285Y004007D01*
X041239Y004028D01*
X041195Y004052D01*
X041153Y004079D01*
X041113Y004109D01*
X041076Y004143D01*
X041042Y004180D01*
X041010Y004219D01*
X040982Y004260D01*
X040957Y004304D01*
X040936Y004349D01*
X040919Y004396D01*
X040905Y004444D01*
X040895Y004493D01*
X040889Y004543D01*
X040887Y004593D01*
X040226Y023068D02*
X040228Y023116D01*
X040234Y023164D01*
X040244Y023211D01*
X040257Y023257D01*
X040275Y023302D01*
X040295Y023346D01*
X040320Y023388D01*
X040348Y023427D01*
X040378Y023464D01*
X040412Y023498D01*
X040449Y023530D01*
X040487Y023559D01*
X040528Y023584D01*
X040571Y023606D01*
X040616Y023624D01*
X040662Y023638D01*
X040709Y023649D01*
X040757Y023656D01*
X040805Y023659D01*
X040853Y023658D01*
X040901Y023653D01*
X040949Y023644D01*
X040995Y023632D01*
X041040Y023615D01*
X041084Y023595D01*
X041126Y023572D01*
X041166Y023545D01*
X041204Y023515D01*
X041239Y023482D01*
X041271Y023446D01*
X041301Y023408D01*
X041327Y023367D01*
X041349Y023324D01*
X041369Y023280D01*
X041384Y023235D01*
X041396Y023188D01*
X041404Y023140D01*
X041408Y023092D01*
X041408Y023044D01*
X041404Y022996D01*
X041396Y022948D01*
X041384Y022901D01*
X041369Y022856D01*
X041349Y022812D01*
X041327Y022769D01*
X041301Y022728D01*
X041271Y022690D01*
X041239Y022654D01*
X041204Y022621D01*
X041166Y022591D01*
X041126Y022564D01*
X041084Y022541D01*
X041040Y022521D01*
X040995Y022504D01*
X040949Y022492D01*
X040901Y022483D01*
X040853Y022478D01*
X040805Y022477D01*
X040757Y022480D01*
X040709Y022487D01*
X040662Y022498D01*
X040616Y022512D01*
X040571Y022530D01*
X040528Y022552D01*
X040487Y022577D01*
X040449Y022606D01*
X040412Y022638D01*
X040378Y022672D01*
X040348Y022709D01*
X040320Y022748D01*
X040295Y022790D01*
X040275Y022834D01*
X040257Y022879D01*
X040244Y022925D01*
X040234Y022972D01*
X040228Y023020D01*
X040226Y023068D01*
X040226Y024919D02*
X040228Y024967D01*
X040234Y025015D01*
X040244Y025062D01*
X040257Y025108D01*
X040275Y025153D01*
X040295Y025197D01*
X040320Y025239D01*
X040348Y025278D01*
X040378Y025315D01*
X040412Y025349D01*
X040449Y025381D01*
X040487Y025410D01*
X040528Y025435D01*
X040571Y025457D01*
X040616Y025475D01*
X040662Y025489D01*
X040709Y025500D01*
X040757Y025507D01*
X040805Y025510D01*
X040853Y025509D01*
X040901Y025504D01*
X040949Y025495D01*
X040995Y025483D01*
X041040Y025466D01*
X041084Y025446D01*
X041126Y025423D01*
X041166Y025396D01*
X041204Y025366D01*
X041239Y025333D01*
X041271Y025297D01*
X041301Y025259D01*
X041327Y025218D01*
X041349Y025175D01*
X041369Y025131D01*
X041384Y025086D01*
X041396Y025039D01*
X041404Y024991D01*
X041408Y024943D01*
X041408Y024895D01*
X041404Y024847D01*
X041396Y024799D01*
X041384Y024752D01*
X041369Y024707D01*
X041349Y024663D01*
X041327Y024620D01*
X041301Y024579D01*
X041271Y024541D01*
X041239Y024505D01*
X041204Y024472D01*
X041166Y024442D01*
X041126Y024415D01*
X041084Y024392D01*
X041040Y024372D01*
X040995Y024355D01*
X040949Y024343D01*
X040901Y024334D01*
X040853Y024329D01*
X040805Y024328D01*
X040757Y024331D01*
X040709Y024338D01*
X040662Y024349D01*
X040616Y024363D01*
X040571Y024381D01*
X040528Y024403D01*
X040487Y024428D01*
X040449Y024457D01*
X040412Y024489D01*
X040378Y024523D01*
X040348Y024560D01*
X040320Y024599D01*
X040295Y024641D01*
X040275Y024685D01*
X040257Y024730D01*
X040244Y024776D01*
X040234Y024823D01*
X040228Y024871D01*
X040226Y024919D01*
X040887Y029793D02*
X040889Y029843D01*
X040895Y029893D01*
X040905Y029942D01*
X040919Y029990D01*
X040936Y030037D01*
X040957Y030082D01*
X040982Y030126D01*
X041010Y030167D01*
X041042Y030206D01*
X041076Y030243D01*
X041113Y030277D01*
X041153Y030307D01*
X041195Y030334D01*
X041239Y030358D01*
X041285Y030379D01*
X041332Y030395D01*
X041380Y030408D01*
X041430Y030417D01*
X041479Y030422D01*
X041530Y030423D01*
X041580Y030420D01*
X041629Y030413D01*
X041678Y030402D01*
X041726Y030387D01*
X041772Y030369D01*
X041817Y030347D01*
X041860Y030321D01*
X041901Y030292D01*
X041940Y030260D01*
X041976Y030225D01*
X042008Y030187D01*
X042038Y030147D01*
X042065Y030104D01*
X042088Y030060D01*
X042107Y030014D01*
X042123Y029966D01*
X042135Y029917D01*
X042143Y029868D01*
X042147Y029818D01*
X042147Y029768D01*
X042143Y029718D01*
X042135Y029669D01*
X042123Y029620D01*
X042107Y029572D01*
X042088Y029526D01*
X042065Y029482D01*
X042038Y029439D01*
X042008Y029399D01*
X041976Y029361D01*
X041940Y029326D01*
X041901Y029294D01*
X041860Y029265D01*
X041817Y029239D01*
X041772Y029217D01*
X041726Y029199D01*
X041678Y029184D01*
X041629Y029173D01*
X041580Y029166D01*
X041530Y029163D01*
X041479Y029164D01*
X041430Y029169D01*
X041380Y029178D01*
X041332Y029191D01*
X041285Y029207D01*
X041239Y029228D01*
X041195Y029252D01*
X041153Y029279D01*
X041113Y029309D01*
X041076Y029343D01*
X041042Y029380D01*
X041010Y029419D01*
X040982Y029460D01*
X040957Y029504D01*
X040936Y029549D01*
X040919Y029596D01*
X040905Y029644D01*
X040895Y029693D01*
X040889Y029743D01*
X040887Y029793D01*
M02*
