%
M48
M72
T01C0.0240
T02C0.0315
T03C0.0320
T04C0.0360
T05C0.0374
T06C0.0402
T07C0.0440
T08C0.0520
T09C0.0906
T10C0.1181
T11C0.1260
%
T01
X19476Y6442
X21740Y5824
X22398Y6156
X23817Y6450
X24817Y6450
X25906Y5519
X22160Y3682
X21769Y3010
X23224Y2182
X24528Y1441
X26303Y2301
X27335Y1132
X32027Y4504
X21829Y1310
X25820Y11591
X25645Y12318
X27043Y13171
X24143Y13950
X22065Y14450
X21874Y13533
X27071Y15272
X20157Y17950
X19476Y17457
X18717Y17656
X18100Y17253
X13979Y16275
X8953Y19918
X26776Y20402
X37089Y25450
T02
X40591Y6741
X41890Y4950
X39371Y3907
X38819Y2962
X37560Y6525
X8775Y2975
X5743Y2759
X4444Y4550
X6964Y5593
X7515Y6538
T03
X9617Y3350
X10617Y3350
X10617Y2150
X9617Y2150
X16917Y2550
X17817Y2650
X17817Y1650
X16917Y1550
X16917Y3650
X16917Y4650
X17917Y4650
X17917Y3650
X26617Y7050
X26617Y8050
X19917Y10550
X18917Y10550
X9817Y15950
X9817Y17350
X7817Y17350
X7817Y15950
X8017Y19150
X8017Y20150
X13217Y20150
X13217Y19150
X12617Y23850
X15617Y23850
X13817Y26150
X12817Y26150
X29217Y21650
X32217Y21650
X33417Y21650
X36417Y21650
X36717Y14950
X33717Y14950
X32217Y14950
X29217Y14950
X33917Y3750
X33917Y2750
T04
X15217Y15350
X15217Y16350
X5817Y15850
X4817Y15850
X4817Y14850
X5817Y14850
X5817Y13850
X4817Y13850
X4817Y12850
X4817Y11850
X5817Y11850
X5817Y12850
X5817Y10850
X4817Y10850
X4817Y9850
X5817Y9850
X5817Y8850
X4817Y8850
X4817Y16850
X4817Y17850
X5817Y17850
X5817Y16850
X5817Y18850
X4817Y18850
X4817Y19850
X5817Y19850
X5817Y20850
X4817Y20850
T05
X39350Y13328
X39350Y12344
X39350Y11556
X39350Y10572
T06
X39116Y18978
X37935Y18978
X37935Y20159
X39116Y20159
X39116Y21341
X37935Y21341
X37935Y22522
X39116Y22522
X8508Y23168
X7327Y23168
X7327Y24349
X8508Y24349
T07
X12217Y22350
X16217Y22350
X15417Y13200
X11417Y13200
X13417Y6200
T08
X26317Y10250
T09
X40417Y9363
X40417Y14537
T10
X40817Y19825
X40817Y21675
X7917Y26050
T11
X4617Y1450
X41517Y1350
X41517Y26550
X4617Y26550
M30
