%
M48
M72
T01C0.0240
T02C0.0315
T03C0.0320
T04C0.0360
T05C0.0374
T06C0.0402
T07C0.0440
T08C0.0520
T09C0.0906
T10C0.1181
T11C0.1260
%
T01
X18478Y9779
X18543Y11209
X22083Y9395
X20785Y7675
X24686Y11059
X26094Y12048
X24379Y13600
X20613Y13847
X20014Y17017
X20279Y18541
X26892Y20547
X36909Y25570
X12465Y17316
X7928Y15481
X24355Y3566
X23537Y2318
X23016Y1903
X22955Y1411
X21612Y3048
X19723Y1410
X25188Y1971
X27185Y2239
X28417Y1880
X26708Y3188
X30530Y2700
X31834Y4599
X32689Y4677
T02
X37560Y6675
X40591Y6891
X41890Y5100
X39371Y4057
X38819Y3112
X8775Y3125
X5743Y2909
X4444Y4700
X6964Y5743
X7515Y6688
T03
X9617Y3500
X10617Y3500
X10617Y2300
X9617Y2300
X16917Y2700
X17817Y2800
X17817Y1800
X16917Y1700
X16917Y3800
X17917Y3800
X17917Y4800
X16917Y4800
X19517Y10700
X20517Y10700
X27617Y6100
X27617Y5100
X33917Y3900
X33917Y2900
X33667Y15050
X32167Y15050
X29167Y15050
X36667Y15050
X36417Y21800
X33417Y21800
X32167Y21800
X29167Y21800
X15617Y24000
X12617Y24000
X12817Y26300
X13817Y26300
X8017Y20400
X8017Y19400
X7417Y17550
X7417Y16550
X9417Y16550
X9417Y17550
X13217Y19200
X13217Y20200
T04
X14417Y16450
X14417Y15450
X5817Y15000
X4817Y15000
X4817Y16000
X5817Y16000
X5817Y17000
X4817Y17000
X4817Y18000
X5817Y18000
X5817Y19000
X4817Y19000
X4817Y20000
X4817Y21000
X5817Y21000
X5817Y20000
X5817Y14000
X4817Y14000
X4817Y13000
X5817Y13000
X5817Y12000
X4817Y12000
X4817Y11000
X5817Y11000
X5817Y10000
X4817Y10000
X4817Y9000
X5817Y9000
T05
X39350Y10722
X39350Y11706
X39350Y12494
X39350Y13478
T06
X39116Y19128
X37935Y19128
X37935Y20309
X39116Y20309
X39116Y21491
X37935Y21491
X37935Y22672
X39116Y22672
X8508Y23318
X7327Y23318
X7327Y24499
X8508Y24499
T07
X12217Y22500
X16217Y22500
X15417Y13350
X11417Y13350
X13417Y6350
T08
X25717Y9400
T09
X40417Y9513
X40417Y14687
T10
X40817Y19975
X40817Y21825
X7917Y26200
T11
X4617Y1600
X41517Y1500
X41517Y26700
X4617Y26700
M30
