G75*
G70*
%OFA0B0*%
%FSLAX24Y24*%
%IPPOS*%
%LPD*%
%AMOC8*
5,1,8,0,0,1.08239X$1,22.5*
%
%ADD10C,0.1340*%
%ADD11OC8,0.0600*%
%ADD12C,0.0740*%
%ADD13C,0.0654*%
%ADD14C,0.0986*%
%ADD15C,0.0600*%
%ADD16C,0.0600*%
%ADD17C,0.0595*%
%ADD18OC8,0.0930*%
%ADD19C,0.0640*%
%ADD20C,0.0682*%
%ADD21R,0.0682X0.0682*%
%ADD22C,0.1261*%
%ADD23C,0.0640*%
%ADD24OC8,0.0640*%
%ADD25OC8,0.1080*%
%ADD26C,0.0480*%
D10*
X004617Y001450D03*
X041517Y001350D03*
X041517Y026550D03*
X004617Y026550D03*
D11*
X012817Y026150D03*
X013817Y026150D03*
X012617Y023850D03*
X015617Y023850D03*
X013217Y020150D03*
X013217Y019150D03*
X009817Y017650D03*
X009817Y016550D03*
X007817Y016550D03*
X007817Y017650D03*
X008017Y019150D03*
X008017Y020150D03*
X016917Y004650D03*
X017817Y004550D03*
X016917Y003650D03*
X017817Y003550D03*
X017817Y002650D03*
X016917Y002550D03*
X016917Y001550D03*
X017817Y001650D03*
X010617Y002150D03*
X009617Y002150D03*
X009617Y003350D03*
X010617Y003350D03*
X033917Y003750D03*
X033917Y002750D03*
D12*
X016217Y022350D03*
X012217Y022350D03*
D13*
X039063Y013328D02*
X039637Y013328D01*
X039637Y012344D02*
X039063Y012344D01*
X039063Y011556D02*
X039637Y011556D01*
X039637Y010572D02*
X039063Y010572D01*
D14*
X040417Y009363D03*
X040417Y014537D03*
D15*
X037077Y015350D02*
X036557Y015350D01*
X034077Y015350D02*
X033557Y015350D01*
X032277Y015350D02*
X031757Y015350D01*
X029277Y015350D02*
X028757Y015350D01*
X028757Y021750D02*
X029277Y021750D01*
X031757Y021750D02*
X032277Y021750D01*
X033557Y021750D02*
X034077Y021750D01*
X036557Y021750D02*
X037077Y021750D01*
D16*
X019917Y010550D03*
X018917Y010550D03*
X026617Y008050D03*
X026617Y007050D03*
D17*
X037560Y006782D02*
X037560Y006267D01*
X040334Y006741D02*
X040849Y006741D01*
X041890Y005207D02*
X041890Y004693D01*
X039628Y003907D02*
X039113Y003907D01*
X039077Y002962D02*
X038562Y002962D01*
X008775Y002718D02*
X008775Y003233D01*
X006001Y002759D02*
X005486Y002759D01*
X004444Y004293D02*
X004444Y004807D01*
X006706Y005593D02*
X007221Y005593D01*
X007257Y006538D02*
X007772Y006538D01*
D18*
X022317Y010450D03*
D19*
X015197Y016750D02*
X014637Y016750D01*
X014637Y017750D02*
X015197Y017750D01*
D20*
X008508Y023168D03*
X007327Y023168D03*
X008508Y024349D03*
X037935Y022522D03*
X037935Y021341D03*
X039116Y021341D03*
X039116Y020159D03*
X037935Y020159D03*
X037935Y018978D03*
X039116Y018978D03*
D21*
X039116Y022522D03*
X007327Y024349D03*
D22*
X007917Y026050D03*
X040817Y021675D03*
X040817Y019825D03*
D23*
X005817Y008850D03*
D24*
X004817Y008850D03*
X004817Y009850D03*
X004817Y010850D03*
X005817Y010850D03*
X005817Y009850D03*
X005817Y011850D03*
X004817Y011850D03*
X004817Y012850D03*
X005817Y012850D03*
X005817Y013850D03*
X004817Y013850D03*
X004817Y014850D03*
X004817Y015850D03*
X005817Y015850D03*
X005817Y014850D03*
X005817Y016850D03*
X004817Y016850D03*
X004817Y017850D03*
X005817Y017850D03*
X005817Y018850D03*
X004817Y018850D03*
X004817Y019850D03*
X005817Y019850D03*
X005817Y020850D03*
X004817Y020850D03*
D25*
X012417Y015341D03*
X013409Y015325D03*
X012917Y004744D03*
D26*
X019676Y001153D03*
X021276Y002614D03*
X022645Y003587D03*
X023142Y002180D03*
X022011Y001304D03*
X024953Y001310D03*
X027328Y001170D03*
X025398Y003612D03*
X026429Y005313D03*
X024705Y005528D03*
X022570Y005833D03*
X021026Y007176D03*
X017398Y010182D03*
X016400Y010669D03*
X023368Y014923D03*
X024364Y015560D03*
X022370Y016351D03*
X024364Y017450D03*
X024020Y017950D03*
X026219Y018823D03*
X027917Y019016D03*
X028407Y016218D03*
X027795Y012773D03*
X026198Y012850D03*
X025652Y012404D03*
X024364Y012607D03*
X023855Y012542D03*
X028193Y010624D03*
X033221Y010511D03*
X032023Y004502D03*
X031862Y003485D03*
X033216Y002344D03*
X020074Y016865D03*
X019895Y017403D03*
X020254Y018450D03*
X018597Y017450D03*
X010855Y017530D03*
X008950Y019915D03*
M02*
