%
M48
M72
T01C0.0240
T02C0.0315
T03C0.0320
T04C0.0360
T05C0.0374
T06C0.0402
T07C0.0440
T08C0.0520
T09C0.0906
T10C0.1181
T11C0.1260
%
T01
X21217Y5793
X22517Y6093
X23017Y5593
X23017Y5093
X23517Y5093
X23617Y6193
X23117Y6793
X25517Y6593
X26517Y6693
X27017Y6693
X28817Y5693
X28417Y4793
X27617Y4493
X29517Y4693
X30817Y4693
X30917Y5793
X32717Y7593
X25417Y5093
X22417Y4593
X21217Y9393
X21617Y9793
X26917Y13693
X26417Y14193
X27117Y15593
X24217Y15593
X21117Y16493
X22717Y18593
X23717Y19593
X24217Y19693
X24117Y20493
X26117Y20193
X26617Y18793
X26117Y18293
X27117Y17693
X24817Y17693
X24717Y18793
X21117Y20993
X20317Y20893
X28417Y24893
X33017Y24893
X35917Y24393
X37217Y25693
X30117Y20393
X32917Y19393
X30117Y15593
X18217Y14593
X9717Y18993
X7217Y18793
X8017Y21493
X8917Y21893
X10317Y23293
T02
X7515Y9781
X6964Y8837
X4444Y7793
X5743Y6002
X8775Y6219
X37560Y9768
X40591Y9985
X41890Y8193
X39371Y7150
X38819Y6205
T03
X33917Y5993
X33917Y6993
X27617Y8193
X27617Y9193
X20517Y13793
X19517Y13793
X17917Y7893
X16917Y7893
X16917Y6893
X17917Y6893
X17817Y5893
X16917Y5793
X16917Y4793
X17817Y4893
X10617Y5393
X9617Y5393
X9617Y6593
X10617Y6593
X29017Y18193
X32017Y18193
X33517Y18193
X36517Y18193
X36617Y23693
X33617Y23693
X31917Y23693
X28917Y23693
X15117Y27093
X12117Y27093
X12817Y29393
X13817Y29393
X8017Y23493
X8017Y22493
X7417Y20893
X7317Y19793
X9317Y19793
X9417Y20893
X13217Y22293
X13217Y23293
T04
X12917Y19293
X12917Y18293
X5817Y18093
X4817Y18093
X4817Y17093
X5817Y17093
X5817Y16093
X4817Y16093
X4817Y15093
X5817Y15093
X5817Y14093
X4817Y14093
X4817Y13093
X5817Y13093
X5817Y12093
X4817Y12093
X4817Y19093
X5817Y19093
X5817Y20093
X4817Y20093
X4817Y21093
X5817Y21093
X5817Y22093
X4817Y22093
X4817Y23093
X5817Y23093
X5817Y24093
X4817Y24093
T05
X39350Y16571
X39350Y15587
X39350Y14800
X39350Y13815
T06
X39116Y22222
X39116Y23403
X37935Y23403
X37935Y22222
X37935Y24584
X39116Y24584
X39116Y25765
X37935Y25765
X8508Y26411
X7327Y26411
X7327Y27593
X8508Y27593
T07
X12217Y25593
X16217Y25593
X15417Y16443
X11417Y16443
X13417Y9443
T08
X25717Y12493
T09
X40417Y12607
X40417Y17780
T10
X40817Y23068
X40817Y24919
X7917Y29293
T11
X4617Y4693
X41517Y4593
X41517Y29793
X4617Y29793
M30
