G75*
G70*
%OFA0B0*%
%FSLAX24Y24*%
%IPPOS*%
%LPD*%
%AMOC8*
5,1,8,0,0,1.08239X$1,22.5*
%
%ADD10C,0.1340*%
%ADD11OC8,0.0600*%
%ADD12OC8,0.1080*%
%ADD13C,0.0740*%
%ADD14C,0.0654*%
%ADD15C,0.0986*%
%ADD16C,0.0600*%
%ADD17C,0.0600*%
%ADD18C,0.0595*%
%ADD19OC8,0.0930*%
%ADD20C,0.0640*%
%ADD21C,0.0682*%
%ADD22R,0.0682X0.0682*%
%ADD23C,0.1261*%
%ADD24C,0.0640*%
%ADD25OC8,0.0640*%
%ADD26C,0.0480*%
D10*
X004617Y001450D03*
X041517Y001350D03*
X041517Y026550D03*
X004617Y026550D03*
D11*
X012817Y026150D03*
X013817Y026150D03*
X012617Y023850D03*
X015617Y023850D03*
X013217Y020150D03*
X013217Y019150D03*
X009817Y017350D03*
X009817Y015950D03*
X007817Y015950D03*
X007817Y017350D03*
X008017Y019150D03*
X008017Y020150D03*
X016917Y004650D03*
X016917Y003650D03*
X017917Y003650D03*
X017917Y004650D03*
X017817Y002650D03*
X016917Y002550D03*
X016917Y001550D03*
X017817Y001650D03*
X010617Y002150D03*
X009617Y002150D03*
X009617Y003350D03*
X010617Y003350D03*
X033917Y003750D03*
X033917Y002750D03*
D12*
X015417Y013200D03*
X011417Y013200D03*
X013417Y006200D03*
D13*
X012217Y022350D03*
X016217Y022350D03*
D14*
X039063Y013328D02*
X039637Y013328D01*
X039637Y012344D02*
X039063Y012344D01*
X039063Y011556D02*
X039637Y011556D01*
X039637Y010572D02*
X039063Y010572D01*
D15*
X040417Y009363D03*
X040417Y014537D03*
D16*
X036977Y014950D02*
X036457Y014950D01*
X033977Y014950D02*
X033457Y014950D01*
X032477Y014950D02*
X031957Y014950D01*
X029477Y014950D02*
X028957Y014950D01*
X028957Y021650D02*
X029477Y021650D01*
X031957Y021650D02*
X032477Y021650D01*
X033157Y021650D02*
X033677Y021650D01*
X036157Y021650D02*
X036677Y021650D01*
D17*
X019917Y010550D03*
X018917Y010550D03*
X026617Y008050D03*
X026617Y007050D03*
D18*
X037560Y006782D02*
X037560Y006267D01*
X040334Y006741D02*
X040849Y006741D01*
X041890Y005207D02*
X041890Y004693D01*
X039628Y003907D02*
X039113Y003907D01*
X039077Y002962D02*
X038562Y002962D01*
X008775Y002718D02*
X008775Y003233D01*
X006001Y002759D02*
X005486Y002759D01*
X004444Y004293D02*
X004444Y004807D01*
X006706Y005593D02*
X007221Y005593D01*
X007257Y006538D02*
X007772Y006538D01*
D19*
X026317Y010250D03*
D20*
X015497Y015350D02*
X014937Y015350D01*
X014937Y016350D02*
X015497Y016350D01*
D21*
X008508Y023168D03*
X007327Y023168D03*
X008508Y024349D03*
X037935Y022522D03*
X037935Y021341D03*
X039116Y021341D03*
X039116Y020159D03*
X037935Y020159D03*
X037935Y018978D03*
X039116Y018978D03*
D22*
X039116Y022522D03*
X007327Y024349D03*
D23*
X007917Y026050D03*
X040817Y021675D03*
X040817Y019825D03*
D24*
X005817Y008850D03*
D25*
X004817Y008850D03*
X004817Y009850D03*
X004817Y010850D03*
X005817Y010850D03*
X005817Y009850D03*
X005817Y011850D03*
X004817Y011850D03*
X004817Y012850D03*
X005817Y012850D03*
X005817Y013850D03*
X004817Y013850D03*
X004817Y014850D03*
X004817Y015850D03*
X005817Y015850D03*
X005817Y014850D03*
X005817Y016850D03*
X004817Y016850D03*
X004817Y017850D03*
X005817Y017850D03*
X005817Y018850D03*
X004817Y018850D03*
X004817Y019850D03*
X005817Y019850D03*
X005817Y020850D03*
X004817Y020850D03*
D26*
X008953Y019918D03*
X013979Y016275D03*
X018100Y017253D03*
X018717Y017656D03*
X019476Y017457D03*
X020157Y017950D03*
X022065Y014450D03*
X021874Y013533D03*
X024143Y013950D03*
X025645Y012318D03*
X025820Y011591D03*
X027043Y013171D03*
X027071Y015272D03*
X026776Y020402D03*
X037089Y025450D03*
X024817Y006450D03*
X023817Y006450D03*
X022398Y006156D03*
X021740Y005824D03*
X019476Y006442D03*
X022160Y003682D03*
X021769Y003010D03*
X023224Y002182D03*
X024528Y001441D03*
X026303Y002301D03*
X027335Y001132D03*
X032027Y004504D03*
X025906Y005519D03*
X021829Y001310D03*
M02*
