G75*
G70*
%OFA0B0*%
%FSLAX24Y24*%
%IPPOS*%
%LPD*%
%AMOC8*
5,1,8,0,0,1.08239X$1,22.5*
%
%ADD10C,0.0000*%
%ADD11C,0.0060*%
%ADD12C,0.0030*%
%ADD13C,0.0080*%
%ADD14C,0.0040*%
%ADD15R,0.0150X0.0200*%
%ADD16C,0.0100*%
%ADD17C,0.0050*%
%ADD18R,0.0200X0.1000*%
%ADD19R,0.0750X0.0300*%
%ADD20R,0.0266X0.0965*%
%ADD21C,0.0020*%
%ADD22C,0.0010*%
%ADD23R,0.0200X0.0800*%
%ADD24R,0.0250X0.0200*%
%ADD25R,0.1043X0.0157*%
%ADD26R,0.0157X0.1043*%
%ADD27C,0.0200*%
%ADD28C,0.0070*%
%ADD29C,0.0472*%
%ADD30R,0.0100X0.0200*%
%ADD31R,0.0050X0.0150*%
%ADD32R,0.0100X0.0100*%
D10*
X003417Y001521D02*
X003417Y033017D01*
X042787Y033017D01*
X042787Y001521D01*
X003417Y001521D01*
X003987Y002721D02*
X003989Y002771D01*
X003995Y002821D01*
X004005Y002870D01*
X004019Y002918D01*
X004036Y002965D01*
X004057Y003010D01*
X004082Y003054D01*
X004110Y003095D01*
X004142Y003134D01*
X004176Y003171D01*
X004213Y003205D01*
X004253Y003235D01*
X004295Y003262D01*
X004339Y003286D01*
X004385Y003307D01*
X004432Y003323D01*
X004480Y003336D01*
X004530Y003345D01*
X004579Y003350D01*
X004630Y003351D01*
X004680Y003348D01*
X004729Y003341D01*
X004778Y003330D01*
X004826Y003315D01*
X004872Y003297D01*
X004917Y003275D01*
X004960Y003249D01*
X005001Y003220D01*
X005040Y003188D01*
X005076Y003153D01*
X005108Y003115D01*
X005138Y003075D01*
X005165Y003032D01*
X005188Y002988D01*
X005207Y002942D01*
X005223Y002894D01*
X005235Y002845D01*
X005243Y002796D01*
X005247Y002746D01*
X005247Y002696D01*
X005243Y002646D01*
X005235Y002597D01*
X005223Y002548D01*
X005207Y002500D01*
X005188Y002454D01*
X005165Y002410D01*
X005138Y002367D01*
X005108Y002327D01*
X005076Y002289D01*
X005040Y002254D01*
X005001Y002222D01*
X004960Y002193D01*
X004917Y002167D01*
X004872Y002145D01*
X004826Y002127D01*
X004778Y002112D01*
X004729Y002101D01*
X004680Y002094D01*
X004630Y002091D01*
X004579Y002092D01*
X004530Y002097D01*
X004480Y002106D01*
X004432Y002119D01*
X004385Y002135D01*
X004339Y002156D01*
X004295Y002180D01*
X004253Y002207D01*
X004213Y002237D01*
X004176Y002271D01*
X004142Y002308D01*
X004110Y002347D01*
X004082Y002388D01*
X004057Y002432D01*
X004036Y002477D01*
X004019Y002524D01*
X004005Y002572D01*
X003995Y002621D01*
X003989Y002671D01*
X003987Y002721D01*
X023257Y023801D02*
X023278Y023803D01*
X023298Y023808D01*
X023317Y023817D01*
X023334Y023829D01*
X023349Y023844D01*
X023361Y023861D01*
X023370Y023880D01*
X023375Y023900D01*
X023377Y023921D01*
X023375Y023942D01*
X023370Y023962D01*
X023361Y023981D01*
X023349Y023998D01*
X023334Y024013D01*
X023317Y024025D01*
X023298Y024034D01*
X023278Y024039D01*
X023257Y024041D01*
X023278Y024039D01*
X023298Y024034D01*
X023317Y024025D01*
X023334Y024013D01*
X023349Y023998D01*
X023361Y023981D01*
X023370Y023962D01*
X023375Y023942D01*
X023377Y023921D01*
X023375Y023900D01*
X023370Y023880D01*
X023361Y023861D01*
X023349Y023844D01*
X023334Y023829D01*
X023317Y023817D01*
X023298Y023808D01*
X023278Y023803D01*
X023257Y023801D01*
X007326Y027421D02*
X007328Y027469D01*
X007334Y027517D01*
X007344Y027564D01*
X007357Y027610D01*
X007375Y027655D01*
X007395Y027699D01*
X007420Y027741D01*
X007448Y027780D01*
X007478Y027817D01*
X007512Y027851D01*
X007549Y027883D01*
X007587Y027912D01*
X007628Y027937D01*
X007671Y027959D01*
X007716Y027977D01*
X007762Y027991D01*
X007809Y028002D01*
X007857Y028009D01*
X007905Y028012D01*
X007953Y028011D01*
X008001Y028006D01*
X008049Y027997D01*
X008095Y027985D01*
X008140Y027968D01*
X008184Y027948D01*
X008226Y027925D01*
X008266Y027898D01*
X008304Y027868D01*
X008339Y027835D01*
X008371Y027799D01*
X008401Y027761D01*
X008427Y027720D01*
X008449Y027677D01*
X008469Y027633D01*
X008484Y027588D01*
X008496Y027541D01*
X008504Y027493D01*
X008508Y027445D01*
X008508Y027397D01*
X008504Y027349D01*
X008496Y027301D01*
X008484Y027254D01*
X008469Y027209D01*
X008449Y027165D01*
X008427Y027122D01*
X008401Y027081D01*
X008371Y027043D01*
X008339Y027007D01*
X008304Y026974D01*
X008266Y026944D01*
X008226Y026917D01*
X008184Y026894D01*
X008140Y026874D01*
X008095Y026857D01*
X008049Y026845D01*
X008001Y026836D01*
X007953Y026831D01*
X007905Y026830D01*
X007857Y026833D01*
X007809Y026840D01*
X007762Y026851D01*
X007716Y026865D01*
X007671Y026883D01*
X007628Y026905D01*
X007587Y026930D01*
X007549Y026959D01*
X007512Y026991D01*
X007478Y027025D01*
X007448Y027062D01*
X007420Y027101D01*
X007395Y027143D01*
X007375Y027187D01*
X007357Y027232D01*
X007344Y027278D01*
X007334Y027325D01*
X007328Y027373D01*
X007326Y027421D01*
X003987Y027621D02*
X003989Y027671D01*
X003995Y027721D01*
X004005Y027770D01*
X004019Y027818D01*
X004036Y027865D01*
X004057Y027910D01*
X004082Y027954D01*
X004110Y027995D01*
X004142Y028034D01*
X004176Y028071D01*
X004213Y028105D01*
X004253Y028135D01*
X004295Y028162D01*
X004339Y028186D01*
X004385Y028207D01*
X004432Y028223D01*
X004480Y028236D01*
X004530Y028245D01*
X004579Y028250D01*
X004630Y028251D01*
X004680Y028248D01*
X004729Y028241D01*
X004778Y028230D01*
X004826Y028215D01*
X004872Y028197D01*
X004917Y028175D01*
X004960Y028149D01*
X005001Y028120D01*
X005040Y028088D01*
X005076Y028053D01*
X005108Y028015D01*
X005138Y027975D01*
X005165Y027932D01*
X005188Y027888D01*
X005207Y027842D01*
X005223Y027794D01*
X005235Y027745D01*
X005243Y027696D01*
X005247Y027646D01*
X005247Y027596D01*
X005243Y027546D01*
X005235Y027497D01*
X005223Y027448D01*
X005207Y027400D01*
X005188Y027354D01*
X005165Y027310D01*
X005138Y027267D01*
X005108Y027227D01*
X005076Y027189D01*
X005040Y027154D01*
X005001Y027122D01*
X004960Y027093D01*
X004917Y027067D01*
X004872Y027045D01*
X004826Y027027D01*
X004778Y027012D01*
X004729Y027001D01*
X004680Y026994D01*
X004630Y026991D01*
X004579Y026992D01*
X004530Y026997D01*
X004480Y027006D01*
X004432Y027019D01*
X004385Y027035D01*
X004339Y027056D01*
X004295Y027080D01*
X004253Y027107D01*
X004213Y027137D01*
X004176Y027171D01*
X004142Y027208D01*
X004110Y027247D01*
X004082Y027288D01*
X004057Y027332D01*
X004036Y027377D01*
X004019Y027424D01*
X004005Y027472D01*
X003995Y027521D01*
X003989Y027571D01*
X003987Y027621D01*
X039964Y015908D02*
X039966Y015950D01*
X039972Y015992D01*
X039982Y016034D01*
X039995Y016074D01*
X040013Y016113D01*
X040034Y016150D01*
X040058Y016184D01*
X040086Y016217D01*
X040116Y016247D01*
X040149Y016273D01*
X040184Y016297D01*
X040222Y016317D01*
X040261Y016333D01*
X040301Y016346D01*
X040343Y016355D01*
X040385Y016360D01*
X040428Y016361D01*
X040470Y016358D01*
X040512Y016351D01*
X040553Y016340D01*
X040593Y016325D01*
X040631Y016307D01*
X040668Y016285D01*
X040702Y016260D01*
X040734Y016232D01*
X040762Y016201D01*
X040788Y016167D01*
X040811Y016131D01*
X040830Y016094D01*
X040846Y016054D01*
X040858Y016013D01*
X040866Y015972D01*
X040870Y015929D01*
X040870Y015887D01*
X040866Y015844D01*
X040858Y015803D01*
X040846Y015762D01*
X040830Y015722D01*
X040811Y015685D01*
X040788Y015649D01*
X040762Y015615D01*
X040734Y015584D01*
X040702Y015556D01*
X040668Y015531D01*
X040631Y015509D01*
X040593Y015491D01*
X040553Y015476D01*
X040512Y015465D01*
X040470Y015458D01*
X040428Y015455D01*
X040385Y015456D01*
X040343Y015461D01*
X040301Y015470D01*
X040261Y015483D01*
X040222Y015499D01*
X040184Y015519D01*
X040149Y015543D01*
X040116Y015569D01*
X040086Y015599D01*
X040058Y015632D01*
X040034Y015666D01*
X040013Y015703D01*
X039995Y015742D01*
X039982Y015782D01*
X039972Y015824D01*
X039966Y015866D01*
X039964Y015908D01*
X039964Y010735D02*
X039966Y010777D01*
X039972Y010819D01*
X039982Y010861D01*
X039995Y010901D01*
X040013Y010940D01*
X040034Y010977D01*
X040058Y011011D01*
X040086Y011044D01*
X040116Y011074D01*
X040149Y011100D01*
X040184Y011124D01*
X040222Y011144D01*
X040261Y011160D01*
X040301Y011173D01*
X040343Y011182D01*
X040385Y011187D01*
X040428Y011188D01*
X040470Y011185D01*
X040512Y011178D01*
X040553Y011167D01*
X040593Y011152D01*
X040631Y011134D01*
X040668Y011112D01*
X040702Y011087D01*
X040734Y011059D01*
X040762Y011028D01*
X040788Y010994D01*
X040811Y010958D01*
X040830Y010921D01*
X040846Y010881D01*
X040858Y010840D01*
X040866Y010799D01*
X040870Y010756D01*
X040870Y010714D01*
X040866Y010671D01*
X040858Y010630D01*
X040846Y010589D01*
X040830Y010549D01*
X040811Y010512D01*
X040788Y010476D01*
X040762Y010442D01*
X040734Y010411D01*
X040702Y010383D01*
X040668Y010358D01*
X040631Y010336D01*
X040593Y010318D01*
X040553Y010303D01*
X040512Y010292D01*
X040470Y010285D01*
X040428Y010282D01*
X040385Y010283D01*
X040343Y010288D01*
X040301Y010297D01*
X040261Y010310D01*
X040222Y010326D01*
X040184Y010346D01*
X040149Y010370D01*
X040116Y010396D01*
X040086Y010426D01*
X040058Y010459D01*
X040034Y010493D01*
X040013Y010530D01*
X039995Y010569D01*
X039982Y010609D01*
X039972Y010651D01*
X039966Y010693D01*
X039964Y010735D01*
X040987Y002821D02*
X040989Y002871D01*
X040995Y002921D01*
X041005Y002970D01*
X041019Y003018D01*
X041036Y003065D01*
X041057Y003110D01*
X041082Y003154D01*
X041110Y003195D01*
X041142Y003234D01*
X041176Y003271D01*
X041213Y003305D01*
X041253Y003335D01*
X041295Y003362D01*
X041339Y003386D01*
X041385Y003407D01*
X041432Y003423D01*
X041480Y003436D01*
X041530Y003445D01*
X041579Y003450D01*
X041630Y003451D01*
X041680Y003448D01*
X041729Y003441D01*
X041778Y003430D01*
X041826Y003415D01*
X041872Y003397D01*
X041917Y003375D01*
X041960Y003349D01*
X042001Y003320D01*
X042040Y003288D01*
X042076Y003253D01*
X042108Y003215D01*
X042138Y003175D01*
X042165Y003132D01*
X042188Y003088D01*
X042207Y003042D01*
X042223Y002994D01*
X042235Y002945D01*
X042243Y002896D01*
X042247Y002846D01*
X042247Y002796D01*
X042243Y002746D01*
X042235Y002697D01*
X042223Y002648D01*
X042207Y002600D01*
X042188Y002554D01*
X042165Y002510D01*
X042138Y002467D01*
X042108Y002427D01*
X042076Y002389D01*
X042040Y002354D01*
X042001Y002322D01*
X041960Y002293D01*
X041917Y002267D01*
X041872Y002245D01*
X041826Y002227D01*
X041778Y002212D01*
X041729Y002201D01*
X041680Y002194D01*
X041630Y002191D01*
X041579Y002192D01*
X041530Y002197D01*
X041480Y002206D01*
X041432Y002219D01*
X041385Y002235D01*
X041339Y002256D01*
X041295Y002280D01*
X041253Y002307D01*
X041213Y002337D01*
X041176Y002371D01*
X041142Y002408D01*
X041110Y002447D01*
X041082Y002488D01*
X041057Y002532D01*
X041036Y002577D01*
X041019Y002624D01*
X041005Y002672D01*
X040995Y002721D01*
X040989Y002771D01*
X040987Y002821D01*
X040226Y021196D02*
X040228Y021244D01*
X040234Y021292D01*
X040244Y021339D01*
X040257Y021385D01*
X040275Y021430D01*
X040295Y021474D01*
X040320Y021516D01*
X040348Y021555D01*
X040378Y021592D01*
X040412Y021626D01*
X040449Y021658D01*
X040487Y021687D01*
X040528Y021712D01*
X040571Y021734D01*
X040616Y021752D01*
X040662Y021766D01*
X040709Y021777D01*
X040757Y021784D01*
X040805Y021787D01*
X040853Y021786D01*
X040901Y021781D01*
X040949Y021772D01*
X040995Y021760D01*
X041040Y021743D01*
X041084Y021723D01*
X041126Y021700D01*
X041166Y021673D01*
X041204Y021643D01*
X041239Y021610D01*
X041271Y021574D01*
X041301Y021536D01*
X041327Y021495D01*
X041349Y021452D01*
X041369Y021408D01*
X041384Y021363D01*
X041396Y021316D01*
X041404Y021268D01*
X041408Y021220D01*
X041408Y021172D01*
X041404Y021124D01*
X041396Y021076D01*
X041384Y021029D01*
X041369Y020984D01*
X041349Y020940D01*
X041327Y020897D01*
X041301Y020856D01*
X041271Y020818D01*
X041239Y020782D01*
X041204Y020749D01*
X041166Y020719D01*
X041126Y020692D01*
X041084Y020669D01*
X041040Y020649D01*
X040995Y020632D01*
X040949Y020620D01*
X040901Y020611D01*
X040853Y020606D01*
X040805Y020605D01*
X040757Y020608D01*
X040709Y020615D01*
X040662Y020626D01*
X040616Y020640D01*
X040571Y020658D01*
X040528Y020680D01*
X040487Y020705D01*
X040449Y020734D01*
X040412Y020766D01*
X040378Y020800D01*
X040348Y020837D01*
X040320Y020876D01*
X040295Y020918D01*
X040275Y020962D01*
X040257Y021007D01*
X040244Y021053D01*
X040234Y021100D01*
X040228Y021148D01*
X040226Y021196D01*
X040226Y023046D02*
X040228Y023094D01*
X040234Y023142D01*
X040244Y023189D01*
X040257Y023235D01*
X040275Y023280D01*
X040295Y023324D01*
X040320Y023366D01*
X040348Y023405D01*
X040378Y023442D01*
X040412Y023476D01*
X040449Y023508D01*
X040487Y023537D01*
X040528Y023562D01*
X040571Y023584D01*
X040616Y023602D01*
X040662Y023616D01*
X040709Y023627D01*
X040757Y023634D01*
X040805Y023637D01*
X040853Y023636D01*
X040901Y023631D01*
X040949Y023622D01*
X040995Y023610D01*
X041040Y023593D01*
X041084Y023573D01*
X041126Y023550D01*
X041166Y023523D01*
X041204Y023493D01*
X041239Y023460D01*
X041271Y023424D01*
X041301Y023386D01*
X041327Y023345D01*
X041349Y023302D01*
X041369Y023258D01*
X041384Y023213D01*
X041396Y023166D01*
X041404Y023118D01*
X041408Y023070D01*
X041408Y023022D01*
X041404Y022974D01*
X041396Y022926D01*
X041384Y022879D01*
X041369Y022834D01*
X041349Y022790D01*
X041327Y022747D01*
X041301Y022706D01*
X041271Y022668D01*
X041239Y022632D01*
X041204Y022599D01*
X041166Y022569D01*
X041126Y022542D01*
X041084Y022519D01*
X041040Y022499D01*
X040995Y022482D01*
X040949Y022470D01*
X040901Y022461D01*
X040853Y022456D01*
X040805Y022455D01*
X040757Y022458D01*
X040709Y022465D01*
X040662Y022476D01*
X040616Y022490D01*
X040571Y022508D01*
X040528Y022530D01*
X040487Y022555D01*
X040449Y022584D01*
X040412Y022616D01*
X040378Y022650D01*
X040348Y022687D01*
X040320Y022726D01*
X040295Y022768D01*
X040275Y022812D01*
X040257Y022857D01*
X040244Y022903D01*
X040234Y022950D01*
X040228Y022998D01*
X040226Y023046D01*
X040787Y027721D02*
X040789Y027771D01*
X040795Y027821D01*
X040805Y027870D01*
X040819Y027918D01*
X040836Y027965D01*
X040857Y028010D01*
X040882Y028054D01*
X040910Y028095D01*
X040942Y028134D01*
X040976Y028171D01*
X041013Y028205D01*
X041053Y028235D01*
X041095Y028262D01*
X041139Y028286D01*
X041185Y028307D01*
X041232Y028323D01*
X041280Y028336D01*
X041330Y028345D01*
X041379Y028350D01*
X041430Y028351D01*
X041480Y028348D01*
X041529Y028341D01*
X041578Y028330D01*
X041626Y028315D01*
X041672Y028297D01*
X041717Y028275D01*
X041760Y028249D01*
X041801Y028220D01*
X041840Y028188D01*
X041876Y028153D01*
X041908Y028115D01*
X041938Y028075D01*
X041965Y028032D01*
X041988Y027988D01*
X042007Y027942D01*
X042023Y027894D01*
X042035Y027845D01*
X042043Y027796D01*
X042047Y027746D01*
X042047Y027696D01*
X042043Y027646D01*
X042035Y027597D01*
X042023Y027548D01*
X042007Y027500D01*
X041988Y027454D01*
X041965Y027410D01*
X041938Y027367D01*
X041908Y027327D01*
X041876Y027289D01*
X041840Y027254D01*
X041801Y027222D01*
X041760Y027193D01*
X041717Y027167D01*
X041672Y027145D01*
X041626Y027127D01*
X041578Y027112D01*
X041529Y027101D01*
X041480Y027094D01*
X041430Y027091D01*
X041379Y027092D01*
X041330Y027097D01*
X041280Y027106D01*
X041232Y027119D01*
X041185Y027135D01*
X041139Y027156D01*
X041095Y027180D01*
X041053Y027207D01*
X041013Y027237D01*
X040976Y027271D01*
X040942Y027308D01*
X040910Y027347D01*
X040882Y027388D01*
X040857Y027432D01*
X040836Y027477D01*
X040819Y027524D01*
X040805Y027572D01*
X040795Y027621D01*
X040789Y027671D01*
X040787Y027721D01*
D11*
X035817Y022121D02*
X034217Y022121D01*
X034200Y022119D01*
X034183Y022115D01*
X034167Y022108D01*
X034153Y022098D01*
X034140Y022085D01*
X034130Y022071D01*
X034123Y022055D01*
X034119Y022038D01*
X034117Y022021D01*
X034117Y021421D01*
X034119Y021404D01*
X034123Y021387D01*
X034130Y021371D01*
X034140Y021357D01*
X034153Y021344D01*
X034167Y021334D01*
X034183Y021327D01*
X034200Y021323D01*
X034217Y021321D01*
X035817Y021321D01*
X035834Y021323D01*
X035851Y021327D01*
X035867Y021334D01*
X035881Y021344D01*
X035894Y021357D01*
X035904Y021371D01*
X035911Y021387D01*
X035915Y021404D01*
X035917Y021421D01*
X035917Y022021D01*
X035915Y022038D01*
X035911Y022055D01*
X035904Y022071D01*
X035894Y022085D01*
X035881Y022098D01*
X035867Y022108D01*
X035851Y022115D01*
X035834Y022119D01*
X035817Y022121D01*
X035267Y021721D02*
X035017Y021721D01*
X035017Y021971D01*
X035017Y021721D02*
X034417Y021721D01*
X034617Y021471D02*
X035017Y021721D01*
X035017Y021471D01*
X035017Y021721D02*
X034617Y021971D01*
X034617Y021471D01*
X031417Y021421D02*
X031417Y022021D01*
X031415Y022038D01*
X031411Y022055D01*
X031404Y022071D01*
X031394Y022085D01*
X031381Y022098D01*
X031367Y022108D01*
X031351Y022115D01*
X031334Y022119D01*
X031317Y022121D01*
X029717Y022121D01*
X029700Y022119D01*
X029683Y022115D01*
X029667Y022108D01*
X029653Y022098D01*
X029640Y022085D01*
X029630Y022071D01*
X029623Y022055D01*
X029619Y022038D01*
X029617Y022021D01*
X029617Y021421D01*
X029619Y021404D01*
X029623Y021387D01*
X029630Y021371D01*
X029640Y021357D01*
X029653Y021344D01*
X029667Y021334D01*
X029683Y021327D01*
X029700Y021323D01*
X029717Y021321D01*
X031317Y021321D01*
X031334Y021323D01*
X031351Y021327D01*
X031367Y021334D01*
X031381Y021344D01*
X031394Y021357D01*
X031404Y021371D01*
X031411Y021387D01*
X031415Y021404D01*
X031417Y021421D01*
X030767Y021721D02*
X030517Y021721D01*
X030517Y021971D01*
X030517Y021721D02*
X029917Y021721D01*
X030117Y021471D02*
X030517Y021721D01*
X030517Y021471D01*
X030517Y021721D02*
X030117Y021971D01*
X030117Y021471D01*
X027797Y021311D02*
X027797Y020961D01*
X027797Y021311D02*
X027637Y021311D01*
X027477Y021311D01*
X027507Y021191D02*
X027527Y021191D01*
X027546Y021195D01*
X027565Y021201D01*
X027583Y021211D01*
X027598Y021223D01*
X027612Y021237D01*
X027623Y021254D01*
X027631Y021272D01*
X027635Y021292D01*
X027637Y021311D01*
X027237Y020881D02*
X027237Y020561D01*
X027797Y020481D02*
X027797Y020131D01*
X027477Y020131D01*
X027477Y019211D02*
X027637Y019211D01*
X027797Y019211D01*
X027797Y018861D01*
X027797Y018381D02*
X027797Y018031D01*
X027477Y018031D01*
X027477Y017611D02*
X027637Y017611D01*
X027797Y017611D01*
X027797Y017261D01*
X027507Y017491D02*
X027527Y017491D01*
X027546Y017495D01*
X027565Y017501D01*
X027583Y017511D01*
X027598Y017523D01*
X027612Y017537D01*
X027623Y017554D01*
X027631Y017572D01*
X027635Y017592D01*
X027637Y017611D01*
X027237Y017181D02*
X027237Y016861D01*
X027477Y016431D02*
X027797Y016431D01*
X027797Y016781D01*
X027797Y015711D02*
X027637Y015711D01*
X027477Y015711D01*
X027507Y015591D02*
X027527Y015591D01*
X027546Y015595D01*
X027565Y015601D01*
X027583Y015611D01*
X027598Y015623D01*
X027612Y015637D01*
X027623Y015654D01*
X027631Y015672D01*
X027635Y015692D01*
X027637Y015711D01*
X027797Y015711D02*
X027797Y015361D01*
X027237Y015281D02*
X027237Y014961D01*
X027797Y014881D02*
X027797Y014531D01*
X027477Y014531D01*
X029717Y016021D02*
X029717Y016621D01*
X029719Y016638D01*
X029723Y016655D01*
X029730Y016671D01*
X029740Y016685D01*
X029753Y016698D01*
X029767Y016708D01*
X029783Y016715D01*
X029800Y016719D01*
X029817Y016721D01*
X031417Y016721D01*
X031434Y016719D01*
X031451Y016715D01*
X031467Y016708D01*
X031481Y016698D01*
X031494Y016685D01*
X031504Y016671D01*
X031511Y016655D01*
X031515Y016638D01*
X031517Y016621D01*
X031517Y016021D01*
X031515Y016004D01*
X031511Y015987D01*
X031504Y015971D01*
X031494Y015957D01*
X031481Y015944D01*
X031467Y015934D01*
X031451Y015927D01*
X031434Y015923D01*
X031417Y015921D01*
X029817Y015921D01*
X029800Y015923D01*
X029783Y015927D01*
X029767Y015934D01*
X029753Y015944D01*
X029740Y015957D01*
X029730Y015971D01*
X029723Y015987D01*
X029719Y016004D01*
X029717Y016021D01*
X030017Y016321D02*
X030617Y016321D01*
X030617Y016571D01*
X030617Y016321D02*
X030617Y016071D01*
X030617Y016321D02*
X030217Y016071D01*
X030217Y016571D01*
X030617Y016321D01*
X030867Y016321D01*
X034117Y016021D02*
X034117Y016621D01*
X034119Y016638D01*
X034123Y016655D01*
X034130Y016671D01*
X034140Y016685D01*
X034153Y016698D01*
X034167Y016708D01*
X034183Y016715D01*
X034200Y016719D01*
X034217Y016721D01*
X035817Y016721D01*
X035834Y016719D01*
X035851Y016715D01*
X035867Y016708D01*
X035881Y016698D01*
X035894Y016685D01*
X035904Y016671D01*
X035911Y016655D01*
X035915Y016638D01*
X035917Y016621D01*
X035917Y016021D01*
X035915Y016004D01*
X035911Y015987D01*
X035904Y015971D01*
X035894Y015957D01*
X035881Y015944D01*
X035867Y015934D01*
X035851Y015927D01*
X035834Y015923D01*
X035817Y015921D01*
X034217Y015921D01*
X034200Y015923D01*
X034183Y015927D01*
X034167Y015934D01*
X034153Y015944D01*
X034140Y015957D01*
X034130Y015971D01*
X034123Y015987D01*
X034119Y016004D01*
X034117Y016021D01*
X034417Y016321D02*
X035017Y016321D01*
X035017Y016571D01*
X035017Y016321D02*
X035017Y016071D01*
X035017Y016321D02*
X034617Y016071D01*
X034617Y016571D01*
X035017Y016321D01*
X035267Y016321D01*
X041547Y015321D02*
X043850Y014821D01*
X043850Y014321D01*
X041547Y013821D01*
X041547Y012821D02*
X043850Y012321D01*
X043850Y011821D01*
X041547Y011321D01*
X033117Y006211D02*
X033117Y005441D01*
X033117Y005201D01*
X033117Y004431D01*
X033117Y005201D02*
X033096Y005203D01*
X033076Y005208D01*
X033057Y005217D01*
X033040Y005229D01*
X033025Y005244D01*
X033013Y005261D01*
X033004Y005280D01*
X032999Y005300D01*
X032997Y005321D01*
X032999Y005342D01*
X033004Y005362D01*
X033013Y005381D01*
X033025Y005398D01*
X033040Y005413D01*
X033057Y005425D01*
X033076Y005434D01*
X033096Y005439D01*
X033117Y005441D01*
X031117Y006211D02*
X031117Y004431D01*
X031857Y003761D02*
X031857Y003371D01*
X027217Y006821D02*
X027219Y006860D01*
X027225Y006899D01*
X027234Y006937D01*
X027247Y006974D01*
X027264Y007010D01*
X027284Y007043D01*
X027308Y007075D01*
X027334Y007104D01*
X028017Y006821D02*
X028015Y006782D01*
X028009Y006743D01*
X028000Y006705D01*
X027987Y006668D01*
X027970Y006632D01*
X027950Y006599D01*
X027926Y006567D01*
X027900Y006538D01*
X028017Y006821D02*
X028015Y006860D01*
X028009Y006899D01*
X028000Y006937D01*
X027987Y006974D01*
X027970Y007010D01*
X027950Y007043D01*
X027926Y007075D01*
X027900Y007104D01*
X027217Y006821D02*
X027219Y006782D01*
X027225Y006743D01*
X027234Y006705D01*
X027247Y006668D01*
X027264Y006632D01*
X027284Y006599D01*
X027308Y006567D01*
X027334Y006538D01*
X026407Y003361D02*
X026227Y003361D01*
X026587Y002981D02*
X026587Y002861D01*
X026407Y002481D02*
X026227Y002481D01*
X024687Y002861D02*
X024687Y002981D01*
X024507Y003361D02*
X024327Y003361D01*
X024327Y002481D02*
X024507Y002481D01*
X021687Y002861D02*
X021687Y002981D01*
X021507Y003361D02*
X021327Y003361D01*
X021327Y004181D02*
X021507Y004181D01*
X021687Y004561D02*
X021687Y004681D01*
X021507Y005061D02*
X021327Y005061D01*
X021327Y002481D02*
X021507Y002481D01*
X020597Y008971D02*
X020597Y009401D01*
X020597Y009641D01*
X020597Y010071D01*
X020597Y009641D02*
X020576Y009639D01*
X020556Y009634D01*
X020537Y009625D01*
X020520Y009613D01*
X020505Y009598D01*
X020493Y009581D01*
X020484Y009562D01*
X020479Y009542D01*
X020477Y009521D01*
X020479Y009500D01*
X020484Y009480D01*
X020493Y009461D01*
X020505Y009444D01*
X020520Y009429D01*
X020537Y009417D01*
X020556Y009408D01*
X020576Y009403D01*
X020597Y009401D01*
X018637Y008971D02*
X018637Y010071D01*
X020017Y012321D02*
X020056Y012319D01*
X020095Y012313D01*
X020133Y012304D01*
X020170Y012291D01*
X020206Y012274D01*
X020239Y012254D01*
X020271Y012230D01*
X020300Y012204D01*
X020017Y012321D02*
X019978Y012319D01*
X019939Y012313D01*
X019901Y012304D01*
X019864Y012291D01*
X019828Y012274D01*
X019795Y012254D01*
X019763Y012230D01*
X019734Y012204D01*
X020017Y011521D02*
X020056Y011523D01*
X020095Y011529D01*
X020133Y011538D01*
X020170Y011551D01*
X020206Y011568D01*
X020239Y011588D01*
X020271Y011612D01*
X020300Y011638D01*
X020017Y011521D02*
X019978Y011523D01*
X019939Y011529D01*
X019901Y011538D01*
X019864Y011551D01*
X019828Y011568D01*
X019795Y011588D01*
X019763Y011612D01*
X019734Y011638D01*
X022155Y013101D02*
X025079Y013101D01*
X025079Y020051D01*
X022155Y020051D01*
X022155Y013101D01*
X024647Y013471D02*
X024649Y013500D01*
X024655Y013528D01*
X024664Y013555D01*
X024678Y013580D01*
X024694Y013604D01*
X024714Y013624D01*
X024736Y013643D01*
X024760Y013657D01*
X024787Y013669D01*
X024814Y013677D01*
X024843Y013681D01*
X024871Y013681D01*
X024900Y013677D01*
X024927Y013669D01*
X024954Y013657D01*
X024978Y013643D01*
X025000Y013624D01*
X025020Y013604D01*
X025036Y013580D01*
X025050Y013555D01*
X025059Y013528D01*
X025065Y013500D01*
X025067Y013471D01*
X025065Y013442D01*
X025059Y013414D01*
X025050Y013387D01*
X025036Y013362D01*
X025020Y013338D01*
X025000Y013318D01*
X024978Y013299D01*
X024954Y013285D01*
X024927Y013273D01*
X024900Y013265D01*
X024871Y013261D01*
X024843Y013261D01*
X024814Y013265D01*
X024787Y013273D01*
X024760Y013285D01*
X024736Y013299D01*
X024714Y013318D01*
X024694Y013338D01*
X024678Y013362D01*
X024664Y013387D01*
X024655Y013414D01*
X024649Y013442D01*
X024647Y013471D01*
X029397Y009811D02*
X029397Y009631D01*
X029507Y009671D02*
X029514Y009690D01*
X029518Y009711D01*
X029518Y009731D01*
X029514Y009752D01*
X029507Y009771D01*
X029757Y010001D02*
X029877Y010001D01*
X030237Y009811D02*
X030237Y009631D01*
X027237Y018461D02*
X027237Y018781D01*
X027507Y019091D02*
X027527Y019091D01*
X027546Y019095D01*
X027565Y019101D01*
X027583Y019111D01*
X027598Y019123D01*
X027612Y019137D01*
X027623Y019154D01*
X027631Y019172D01*
X027635Y019192D01*
X027637Y019211D01*
X025177Y023421D02*
X025177Y024421D01*
X023257Y024421D02*
X023257Y024041D01*
X023257Y023801D01*
X023257Y023421D01*
X015017Y023221D02*
X015017Y024221D01*
X013417Y024221D01*
X013417Y023221D01*
X015017Y023221D01*
X014467Y023721D02*
X014217Y023721D01*
X014217Y023971D01*
X014217Y023721D02*
X013617Y023721D01*
X013817Y023471D02*
X014217Y023721D01*
X014217Y023471D01*
X014217Y023721D02*
X013817Y023971D01*
X013817Y023471D01*
X014367Y024821D02*
X014517Y024821D01*
X014534Y024823D01*
X014551Y024827D01*
X014567Y024834D01*
X014581Y024844D01*
X014594Y024857D01*
X014604Y024871D01*
X014611Y024887D01*
X014615Y024904D01*
X014617Y024921D01*
X014617Y025521D01*
X014615Y025538D01*
X014611Y025555D01*
X014604Y025571D01*
X014594Y025585D01*
X014581Y025598D01*
X014567Y025608D01*
X014551Y025615D01*
X014534Y025619D01*
X014517Y025621D01*
X014367Y025621D01*
X014317Y025571D01*
X012917Y025571D01*
X012867Y025621D01*
X012717Y025621D01*
X012700Y025619D01*
X012683Y025615D01*
X012667Y025608D01*
X012653Y025598D01*
X012640Y025585D01*
X012630Y025571D01*
X012623Y025555D01*
X012619Y025538D01*
X012617Y025521D01*
X012617Y024921D01*
X012619Y024904D01*
X012623Y024887D01*
X012630Y024871D01*
X012640Y024857D01*
X012653Y024844D01*
X012667Y024834D01*
X012683Y024827D01*
X012700Y024823D01*
X012717Y024821D01*
X012867Y024821D01*
X012917Y024871D01*
X014317Y024871D01*
X014367Y024821D01*
X010717Y027221D02*
X010719Y027284D01*
X010725Y027346D01*
X010735Y027408D01*
X010748Y027470D01*
X010766Y027530D01*
X010787Y027589D01*
X010812Y027647D01*
X010841Y027703D01*
X010873Y027757D01*
X010908Y027809D01*
X010946Y027858D01*
X010988Y027906D01*
X011032Y027950D01*
X011080Y027992D01*
X011129Y028030D01*
X011181Y028065D01*
X011235Y028097D01*
X011291Y028126D01*
X011349Y028151D01*
X011408Y028172D01*
X011468Y028190D01*
X011530Y028203D01*
X011592Y028213D01*
X011654Y028219D01*
X011717Y028221D01*
X011780Y028219D01*
X011842Y028213D01*
X011904Y028203D01*
X011966Y028190D01*
X012026Y028172D01*
X012085Y028151D01*
X012143Y028126D01*
X012199Y028097D01*
X012253Y028065D01*
X012305Y028030D01*
X012354Y027992D01*
X012402Y027950D01*
X012446Y027906D01*
X012488Y027858D01*
X012526Y027809D01*
X012561Y027757D01*
X012593Y027703D01*
X012622Y027647D01*
X012647Y027589D01*
X012668Y027530D01*
X012686Y027470D01*
X012699Y027408D01*
X012709Y027346D01*
X012715Y027284D01*
X012717Y027221D01*
X012715Y027158D01*
X012709Y027096D01*
X012699Y027034D01*
X012686Y026972D01*
X012668Y026912D01*
X012647Y026853D01*
X012622Y026795D01*
X012593Y026739D01*
X012561Y026685D01*
X012526Y026633D01*
X012488Y026584D01*
X012446Y026536D01*
X012402Y026492D01*
X012354Y026450D01*
X012305Y026412D01*
X012253Y026377D01*
X012199Y026345D01*
X012143Y026316D01*
X012085Y026291D01*
X012026Y026270D01*
X011966Y026252D01*
X011904Y026239D01*
X011842Y026229D01*
X011780Y026223D01*
X011717Y026221D01*
X011654Y026223D01*
X011592Y026229D01*
X011530Y026239D01*
X011468Y026252D01*
X011408Y026270D01*
X011349Y026291D01*
X011291Y026316D01*
X011235Y026345D01*
X011181Y026377D01*
X011129Y026412D01*
X011080Y026450D01*
X011032Y026492D01*
X010988Y026536D01*
X010946Y026584D01*
X010908Y026633D01*
X010873Y026685D01*
X010841Y026739D01*
X010812Y026795D01*
X010787Y026853D01*
X010766Y026912D01*
X010748Y026972D01*
X010735Y027034D01*
X010725Y027096D01*
X010719Y027158D01*
X010717Y027221D01*
X006687Y023711D02*
X006167Y023711D01*
X005567Y023711D01*
X005067Y023711D01*
X004467Y023711D01*
X003937Y023711D01*
X003937Y023371D01*
X003937Y022721D01*
X003937Y009721D01*
X003937Y009071D01*
X003937Y008721D01*
X004467Y008721D01*
X005067Y008721D01*
X005567Y008721D01*
X006167Y008721D01*
X006687Y008721D01*
X006687Y009071D01*
X006687Y009721D01*
X006687Y022721D01*
X006687Y023371D01*
X006687Y023711D01*
X006687Y023371D02*
X006167Y023371D01*
X006167Y023711D01*
X005567Y023711D02*
X005567Y023371D01*
X005067Y023371D01*
X005067Y023711D01*
X004467Y023711D02*
X004467Y023371D01*
X003937Y023371D01*
X003937Y022721D02*
X001817Y022721D01*
X002817Y020221D01*
X001817Y015221D01*
X002317Y013721D01*
X001817Y009721D01*
X003937Y009721D01*
X003937Y009071D02*
X004467Y009071D01*
X004467Y008721D01*
X005067Y008721D02*
X005067Y009071D01*
X005567Y009071D01*
X005567Y008721D01*
X006167Y008721D02*
X006167Y009071D01*
X006687Y009071D01*
X006037Y009301D02*
X006037Y009661D01*
X006037Y009481D02*
X005497Y009481D01*
X005677Y009301D01*
X006237Y010051D02*
X006567Y010221D01*
X006467Y010221D01*
X006567Y010221D02*
X006237Y010391D01*
X006237Y010051D01*
X006687Y009721D02*
X006957Y009721D01*
X006957Y022721D01*
X006687Y022721D01*
X010077Y022001D02*
X010497Y022001D01*
X010737Y022001D01*
X011157Y022001D01*
X010737Y022001D02*
X010735Y021980D01*
X010730Y021960D01*
X010721Y021941D01*
X010709Y021924D01*
X010694Y021909D01*
X010677Y021897D01*
X010658Y021888D01*
X010638Y021883D01*
X010617Y021881D01*
X010596Y021883D01*
X010576Y021888D01*
X010557Y021897D01*
X010540Y021909D01*
X010525Y021924D01*
X010513Y021941D01*
X010504Y021960D01*
X010499Y021980D01*
X010497Y022001D01*
X010077Y020041D02*
X011157Y020041D01*
X009017Y019371D02*
X008917Y019371D01*
X008867Y019321D01*
X007967Y019321D01*
X007917Y019371D01*
X007817Y019371D01*
X007800Y019369D01*
X007783Y019365D01*
X007767Y019358D01*
X007753Y019348D01*
X007740Y019335D01*
X007730Y019321D01*
X007723Y019305D01*
X007719Y019288D01*
X007717Y019271D01*
X007717Y018771D02*
X007719Y018754D01*
X007723Y018737D01*
X007730Y018721D01*
X007740Y018707D01*
X007753Y018694D01*
X007767Y018684D01*
X007783Y018677D01*
X007800Y018673D01*
X007817Y018671D01*
X007917Y018671D01*
X007967Y018721D01*
X008867Y018721D01*
X008917Y018671D01*
X009017Y018671D01*
X009034Y018673D01*
X009051Y018677D01*
X009067Y018684D01*
X009081Y018694D01*
X009094Y018707D01*
X009104Y018721D01*
X009111Y018737D01*
X009115Y018754D01*
X009117Y018771D01*
X008917Y018271D02*
X008817Y018271D01*
X008767Y018221D01*
X007867Y018221D01*
X007817Y018271D01*
X007717Y018271D01*
X007700Y018269D01*
X007683Y018265D01*
X007667Y018258D01*
X007653Y018248D01*
X007640Y018235D01*
X007630Y018221D01*
X007623Y018205D01*
X007619Y018188D01*
X007617Y018171D01*
X007617Y017671D02*
X007619Y017654D01*
X007623Y017637D01*
X007630Y017621D01*
X007640Y017607D01*
X007653Y017594D01*
X007667Y017584D01*
X007683Y017577D01*
X007700Y017573D01*
X007717Y017571D01*
X007817Y017571D01*
X007867Y017621D01*
X008767Y017621D01*
X008817Y017571D01*
X008917Y017571D01*
X008934Y017573D01*
X008951Y017577D01*
X008967Y017584D01*
X008981Y017594D01*
X008994Y017607D01*
X009004Y017621D01*
X009011Y017637D01*
X009015Y017654D01*
X009017Y017671D01*
X009017Y018171D02*
X009015Y018188D01*
X009011Y018205D01*
X009004Y018221D01*
X008994Y018235D01*
X008981Y018248D01*
X008967Y018258D01*
X008951Y018265D01*
X008934Y018269D01*
X008917Y018271D01*
X009117Y019271D02*
X009115Y019288D01*
X009111Y019305D01*
X009104Y019321D01*
X009094Y019335D01*
X009081Y019348D01*
X009067Y019358D01*
X009051Y019365D01*
X009034Y019369D01*
X009017Y019371D01*
X008557Y017231D02*
X008437Y017231D01*
X008197Y017231D01*
X008077Y017231D01*
X008197Y017231D02*
X008199Y017210D01*
X008204Y017190D01*
X008213Y017171D01*
X008225Y017154D01*
X008240Y017139D01*
X008257Y017127D01*
X008276Y017118D01*
X008296Y017113D01*
X008317Y017111D01*
X008338Y017113D01*
X008358Y017118D01*
X008377Y017127D01*
X008394Y017139D01*
X008409Y017154D01*
X008421Y017171D01*
X008430Y017190D01*
X008435Y017210D01*
X008437Y017231D01*
X008557Y016411D02*
X008077Y016411D01*
X010617Y016331D02*
X011017Y016331D01*
X011017Y017511D02*
X010937Y017511D01*
X010697Y017511D01*
X010617Y017511D01*
X010697Y017511D02*
X010699Y017490D01*
X010704Y017470D01*
X010713Y017451D01*
X010725Y017434D01*
X010740Y017419D01*
X010757Y017407D01*
X010776Y017398D01*
X010796Y017393D01*
X010817Y017391D01*
X010838Y017393D01*
X010858Y017398D01*
X010877Y017407D01*
X010894Y017419D01*
X010909Y017434D01*
X010921Y017451D01*
X010930Y017470D01*
X010935Y017490D01*
X010937Y017511D01*
X012417Y017821D02*
X012417Y017021D01*
X012517Y016921D01*
X012417Y016821D01*
X012417Y016021D01*
X012517Y015921D01*
X013317Y015921D01*
X013417Y016021D01*
X013417Y016821D01*
X013317Y016921D01*
X013417Y017021D01*
X013417Y017821D01*
X013317Y017921D01*
X012517Y017921D01*
X012417Y017821D01*
X012017Y014671D02*
X014817Y014671D01*
X016017Y014671D02*
X016017Y009321D01*
X013917Y009321D01*
X013917Y011571D01*
X012917Y011571D01*
X012917Y009321D01*
X010817Y009321D01*
X010817Y014671D01*
X010780Y013312D02*
X010639Y013179D01*
X010505Y013040D01*
X010378Y012894D01*
X010258Y012742D01*
X010146Y012585D01*
X010041Y012422D01*
X009945Y012254D01*
X009857Y012082D01*
X009777Y011905D01*
X009706Y011725D01*
X009644Y011542D01*
X009592Y011356D01*
X009548Y011167D01*
X009514Y010977D01*
X009489Y010785D01*
X009473Y010592D01*
X009467Y010398D01*
X009470Y010205D01*
X009483Y010012D01*
X009506Y009820D01*
X009537Y009629D01*
X009578Y009440D01*
X009629Y009253D01*
X009688Y009068D01*
X009756Y008887D01*
X009833Y008710D01*
X009919Y008536D01*
X010013Y008367D01*
X010115Y008203D01*
X010225Y008044D01*
X010343Y007890D01*
X010468Y007743D01*
X010601Y007601D01*
X010740Y007467D01*
X010885Y007339D01*
X011037Y007219D01*
X011194Y007106D01*
X011357Y007001D01*
X011524Y006904D01*
X011696Y006816D01*
X011872Y006736D01*
X012052Y006664D01*
X012235Y006602D01*
X012421Y006549D01*
X012610Y006504D01*
X012800Y006469D01*
X012992Y006444D01*
X013185Y006428D01*
X013378Y006421D01*
X013572Y006424D01*
X013765Y006436D01*
X013957Y006458D01*
X014148Y006489D01*
X014337Y006530D01*
X014525Y006579D01*
X014709Y006638D01*
X014890Y006706D01*
X015068Y006783D01*
X015242Y006868D01*
X015411Y006961D01*
X015576Y007063D01*
X015735Y007173D01*
X015889Y007290D01*
X016037Y007415D01*
X016179Y007547D01*
X016314Y007685D01*
X016442Y007830D01*
X016562Y007982D01*
X016676Y008139D01*
X016781Y008301D01*
X016878Y008468D01*
X016967Y008640D01*
X017048Y008816D01*
X017120Y008996D01*
X017183Y009179D01*
X017237Y009365D01*
X017281Y009553D01*
X017317Y009743D01*
X017343Y009935D01*
X017359Y010128D01*
X017367Y010321D01*
X017365Y010510D01*
X017353Y010699D01*
X017333Y010888D01*
X017304Y011075D01*
X017266Y011260D01*
X017219Y011444D01*
X017163Y011625D01*
X017098Y011803D01*
X017026Y011977D01*
X016945Y012148D01*
X016855Y012315D01*
X016758Y012478D01*
X016653Y012636D01*
X016541Y012788D01*
X016422Y012935D01*
X016295Y013076D01*
X016162Y013211D01*
X016023Y013339D01*
D12*
X020620Y010806D02*
X020934Y010493D01*
X020934Y010649D02*
X020620Y010649D01*
X020620Y010493D02*
X020934Y010806D01*
X020777Y010806D02*
X020777Y010493D01*
X020722Y005368D02*
X021036Y005055D01*
X021036Y005211D02*
X020722Y005211D01*
X020722Y005055D02*
X021036Y005368D01*
X020879Y005368D02*
X020879Y005055D01*
X020879Y003668D02*
X020879Y003355D01*
X021036Y003355D02*
X020722Y003668D01*
X020722Y003511D02*
X021036Y003511D01*
X021036Y003668D02*
X020722Y003355D01*
X023722Y003355D02*
X024036Y003668D01*
X024036Y003511D02*
X023722Y003511D01*
X023722Y003668D02*
X024036Y003355D01*
X023879Y003355D02*
X023879Y003668D01*
X025622Y003668D02*
X025936Y003355D01*
X025936Y003511D02*
X025622Y003511D01*
X025622Y003355D02*
X025936Y003668D01*
X025779Y003668D02*
X025779Y003355D01*
X033070Y006473D02*
X033384Y006786D01*
X033384Y006629D02*
X033070Y006629D01*
X033070Y006786D02*
X033384Y006473D01*
X033227Y006473D02*
X033227Y006786D01*
X029384Y008996D02*
X029070Y009310D01*
X029227Y009310D02*
X029227Y008996D01*
X029070Y008996D02*
X029384Y009310D01*
X029384Y009153D02*
X029070Y009153D01*
X027116Y015785D02*
X026802Y016098D01*
X026802Y015941D02*
X027116Y015941D01*
X027116Y016098D02*
X026802Y015785D01*
X026959Y015785D02*
X026959Y016098D01*
X026959Y017685D02*
X026959Y017998D01*
X027116Y017998D02*
X026802Y017685D01*
X026802Y017841D02*
X027116Y017841D01*
X027116Y017685D02*
X026802Y017998D01*
X026802Y019285D02*
X027116Y019598D01*
X027116Y019441D02*
X026802Y019441D01*
X026802Y019598D02*
X027116Y019285D01*
X026959Y019285D02*
X026959Y019598D01*
X026959Y021385D02*
X026959Y021698D01*
X027116Y021698D02*
X026802Y021385D01*
X026802Y021541D02*
X027116Y021541D01*
X027116Y021385D02*
X026802Y021698D01*
X027412Y022185D02*
X027412Y022281D01*
X027460Y022330D01*
X027557Y022431D02*
X027557Y022624D01*
X027702Y022576D02*
X027412Y022576D01*
X027557Y022431D01*
X027654Y022330D02*
X027702Y022281D01*
X027702Y022185D01*
X027654Y022136D01*
X027460Y022136D01*
X027412Y022185D01*
X025902Y022185D02*
X025854Y022136D01*
X025902Y022185D02*
X025902Y022281D01*
X025854Y022330D01*
X025757Y022330D01*
X025709Y022281D01*
X025709Y022233D01*
X025757Y022136D01*
X025612Y022136D01*
X025612Y022330D01*
X025660Y022431D02*
X025709Y022431D01*
X025757Y022479D01*
X025757Y022624D01*
X025854Y022624D02*
X025660Y022624D01*
X025612Y022576D01*
X025612Y022479D01*
X025660Y022431D01*
X025854Y022431D02*
X025902Y022479D01*
X025902Y022576D01*
X025854Y022624D01*
X025757Y022725D02*
X025757Y022919D01*
X025902Y022871D02*
X025612Y022871D01*
X025757Y022725D01*
X025902Y023020D02*
X025902Y023165D01*
X025854Y023214D01*
X025660Y023214D01*
X025612Y023165D01*
X025612Y023020D01*
X025902Y023020D01*
X025854Y023315D02*
X025902Y023363D01*
X025902Y023460D01*
X025854Y023508D01*
X025805Y023508D01*
X025757Y023460D01*
X025757Y023315D01*
X025854Y023315D01*
X025757Y023315D02*
X025660Y023412D01*
X025612Y023508D01*
X025660Y023609D02*
X025709Y023609D01*
X025757Y023658D01*
X025757Y023755D01*
X025805Y023803D01*
X025854Y023803D01*
X025902Y023755D01*
X025902Y023658D01*
X025854Y023609D01*
X025805Y023609D01*
X025757Y023658D01*
X025757Y023755D02*
X025709Y023803D01*
X025660Y023803D01*
X025612Y023755D01*
X025612Y023658D01*
X025660Y023609D01*
X025757Y023904D02*
X025757Y024049D01*
X025805Y024098D01*
X025854Y024098D01*
X025902Y024049D01*
X025902Y023952D01*
X025854Y023904D01*
X025757Y023904D01*
X025660Y024001D01*
X025612Y024098D01*
X025612Y024199D02*
X025902Y024392D01*
X025854Y024493D02*
X025660Y024687D01*
X025854Y024687D01*
X025902Y024639D01*
X025902Y024542D01*
X025854Y024493D01*
X025660Y024493D01*
X025612Y024542D01*
X025612Y024639D01*
X025660Y024687D01*
X025660Y024788D02*
X025612Y024836D01*
X025612Y024933D01*
X025660Y024982D01*
X025854Y024788D01*
X025902Y024836D01*
X025902Y024933D01*
X025854Y024982D01*
X025660Y024982D01*
X025709Y025083D02*
X025612Y025179D01*
X025902Y025179D01*
X025902Y025083D02*
X025902Y025276D01*
X025854Y025377D02*
X025660Y025571D01*
X025854Y025571D01*
X025902Y025522D01*
X025902Y025426D01*
X025854Y025377D01*
X025660Y025377D01*
X025612Y025426D01*
X025612Y025522D01*
X025660Y025571D01*
X025660Y025672D02*
X025854Y025672D01*
X025902Y025720D01*
X025902Y025817D01*
X025854Y025866D01*
X025902Y025967D02*
X025709Y026160D01*
X025660Y026160D01*
X025612Y026112D01*
X025612Y026015D01*
X025660Y025967D01*
X025660Y025866D02*
X025612Y025817D01*
X025612Y025720D01*
X025660Y025672D01*
X025902Y025967D02*
X025902Y026160D01*
X025902Y026358D02*
X025612Y026358D01*
X025612Y026261D02*
X025612Y026455D01*
X025660Y024788D02*
X025854Y024788D01*
X025612Y024392D02*
X025902Y024199D01*
X023204Y022950D02*
X022890Y022636D01*
X023204Y022950D01*
X023204Y022793D02*
X022890Y022793D01*
X023204Y022793D01*
X023204Y022636D02*
X022890Y022950D01*
X023204Y022636D01*
X023047Y022636D02*
X023047Y022950D01*
X023047Y022636D01*
X010316Y017828D02*
X010002Y017515D01*
X010002Y017671D02*
X010316Y017671D01*
X010316Y017515D02*
X010002Y017828D01*
X010159Y017828D02*
X010159Y017515D01*
X007756Y017568D02*
X007442Y017255D01*
X007442Y017411D02*
X007756Y017411D01*
X007756Y017255D02*
X007442Y017568D01*
X007599Y017568D02*
X007599Y017255D01*
X009332Y022035D02*
X009646Y022348D01*
X009646Y022191D02*
X009332Y022191D01*
X009332Y022348D02*
X009646Y022035D01*
X009489Y022035D02*
X009489Y022348D01*
D13*
X009420Y022811D02*
X009667Y022811D01*
X009791Y022935D01*
X009791Y023552D01*
X010052Y023428D02*
X010176Y023552D01*
X010422Y023552D01*
X010546Y023428D01*
X010546Y023305D01*
X010422Y023182D01*
X010546Y023058D01*
X010546Y022935D01*
X010422Y022811D01*
X010176Y022811D01*
X010052Y022935D01*
X010299Y023182D02*
X010422Y023182D01*
X009420Y022811D02*
X009297Y022935D01*
X009297Y023552D01*
X010717Y026471D02*
X010717Y027971D01*
X017493Y023077D02*
X018234Y023077D01*
X018234Y022830D02*
X018234Y023324D01*
X017740Y022830D02*
X017493Y023077D01*
X018234Y022569D02*
X018234Y022075D01*
X017493Y022075D01*
X022316Y022131D02*
X022934Y022131D01*
X023057Y022255D01*
X023057Y022502D01*
X022934Y022625D01*
X022316Y022625D01*
X022934Y022625D01*
X023057Y022502D01*
X023057Y022255D01*
X022934Y022131D01*
X022316Y022131D01*
X022687Y022886D02*
X022687Y023380D01*
X022687Y022886D01*
X022316Y023257D01*
X023057Y023257D01*
X022316Y023257D01*
X022687Y022886D01*
X023610Y025609D02*
X024421Y025609D01*
X024421Y026633D02*
X023610Y026633D01*
X026197Y022502D02*
X026197Y021885D01*
X026320Y021761D01*
X026567Y021761D01*
X026691Y021885D01*
X026691Y022502D01*
X026952Y022255D02*
X027199Y022502D01*
X027199Y021761D01*
X026952Y021761D02*
X027446Y021761D01*
X027707Y021885D02*
X027831Y021761D01*
X028077Y021761D01*
X028201Y021885D01*
X028201Y022132D01*
X028077Y022255D01*
X027954Y022255D01*
X027707Y022132D01*
X027707Y022502D01*
X028201Y022502D01*
X028201Y020402D02*
X027954Y020278D01*
X027707Y020032D01*
X028077Y020032D01*
X028201Y019908D01*
X028201Y019785D01*
X028077Y019661D01*
X027831Y019661D01*
X027707Y019785D01*
X027707Y020032D01*
X027446Y019661D02*
X026952Y019661D01*
X027199Y019661D02*
X027199Y020402D01*
X026952Y020155D01*
X026691Y020402D02*
X026691Y019785D01*
X026567Y019661D01*
X026320Y019661D01*
X026197Y019785D01*
X026197Y020402D01*
X026197Y018802D02*
X026197Y018185D01*
X026320Y018061D01*
X026567Y018061D01*
X026691Y018185D01*
X026691Y018802D01*
X026952Y018555D02*
X027199Y018802D01*
X027199Y018061D01*
X026952Y018061D02*
X027446Y018061D01*
X027707Y018432D02*
X028201Y018432D01*
X028077Y018802D02*
X028077Y018061D01*
X027707Y018432D02*
X028077Y018802D01*
X028077Y016902D02*
X028201Y016778D01*
X028201Y016655D01*
X028077Y016532D01*
X028201Y016408D01*
X028201Y016285D01*
X028077Y016161D01*
X027831Y016161D01*
X027707Y016285D01*
X027446Y016161D02*
X026952Y016161D01*
X027199Y016161D02*
X027199Y016902D01*
X026952Y016655D01*
X026691Y016902D02*
X026691Y016285D01*
X026567Y016161D01*
X026320Y016161D01*
X026197Y016285D01*
X026197Y016902D01*
X027707Y016778D02*
X027831Y016902D01*
X028077Y016902D01*
X028077Y016532D02*
X027954Y016532D01*
X022148Y010841D02*
X021530Y010841D01*
X021407Y010718D01*
X021407Y010471D01*
X021530Y010347D01*
X022148Y010347D01*
X022148Y010086D02*
X021777Y010086D01*
X021901Y009839D01*
X021901Y009716D01*
X021777Y009592D01*
X021530Y009592D01*
X021407Y009716D01*
X021407Y009963D01*
X021530Y010086D01*
X022148Y010086D02*
X022148Y009592D01*
X021354Y006152D02*
X021354Y005411D01*
X021107Y005411D02*
X021601Y005411D01*
X021107Y005905D02*
X021354Y006152D01*
X020599Y006152D02*
X020599Y005411D01*
X020352Y005411D02*
X020846Y005411D01*
X020352Y005905D02*
X020599Y006152D01*
X020091Y006152D02*
X020091Y005535D01*
X019967Y005411D01*
X019720Y005411D01*
X019597Y005535D01*
X019597Y006152D01*
X019597Y004452D02*
X019597Y003835D01*
X019720Y003711D01*
X019967Y003711D01*
X020091Y003835D01*
X020091Y004452D01*
X020352Y004205D02*
X020599Y004452D01*
X020599Y003711D01*
X020352Y003711D02*
X020846Y003711D01*
X021107Y003835D02*
X021601Y004328D01*
X021601Y003835D01*
X021477Y003711D01*
X021231Y003711D01*
X021107Y003835D01*
X021107Y004328D01*
X021231Y004452D01*
X021477Y004452D01*
X021601Y004328D01*
X022597Y004452D02*
X022597Y003835D01*
X022720Y003711D01*
X022967Y003711D01*
X023091Y003835D01*
X023091Y004452D01*
X023352Y004328D02*
X023352Y004205D01*
X023476Y004082D01*
X023846Y004082D01*
X023846Y004328D02*
X023846Y003835D01*
X023722Y003711D01*
X023476Y003711D01*
X023352Y003835D01*
X023352Y004328D02*
X023476Y004452D01*
X023722Y004452D01*
X023846Y004328D01*
X024497Y004452D02*
X024497Y003835D01*
X024620Y003711D01*
X024867Y003711D01*
X024991Y003835D01*
X024991Y004452D01*
X025252Y004328D02*
X025252Y004205D01*
X025376Y004082D01*
X025622Y004082D01*
X025746Y003958D01*
X025746Y003835D01*
X025622Y003711D01*
X025376Y003711D01*
X025252Y003835D01*
X025252Y003958D01*
X025376Y004082D01*
X025622Y004082D02*
X025746Y004205D01*
X025746Y004328D01*
X025622Y004452D01*
X025376Y004452D01*
X025252Y004328D01*
X028036Y008401D02*
X028654Y008401D01*
X028777Y008525D01*
X028777Y008772D01*
X028654Y008895D01*
X028036Y008895D01*
X028036Y009156D02*
X028036Y009650D01*
X028160Y009650D01*
X028654Y009156D01*
X028777Y009156D01*
X033407Y006518D02*
X033407Y006271D01*
X033530Y006147D01*
X034148Y006147D01*
X033901Y005886D02*
X034148Y005639D01*
X033407Y005639D01*
X033407Y005886D02*
X033407Y005392D01*
X033407Y005131D02*
X033901Y004637D01*
X034024Y004637D01*
X034148Y004761D01*
X034148Y005008D01*
X034024Y005131D01*
X033407Y005131D02*
X033407Y004637D01*
X033407Y006518D02*
X033530Y006641D01*
X034148Y006641D01*
X037205Y008447D02*
X042678Y008447D01*
X042678Y003998D01*
X037205Y003998D01*
X037205Y008447D01*
X042717Y007463D02*
X044056Y007463D01*
X044056Y005179D01*
X042717Y005179D01*
X010746Y017961D02*
X010252Y017961D01*
X010499Y017961D02*
X010499Y018702D01*
X010252Y018455D01*
X009991Y018702D02*
X009991Y018085D01*
X009867Y017961D01*
X009620Y017961D01*
X009497Y018085D01*
X009497Y018702D01*
X008246Y018478D02*
X008122Y018602D01*
X007876Y018602D01*
X007752Y018478D01*
X007491Y018602D02*
X007491Y017985D01*
X007367Y017861D01*
X007120Y017861D01*
X006997Y017985D01*
X006997Y018602D01*
X007752Y017861D02*
X008246Y018355D01*
X008246Y018478D01*
X008246Y017861D02*
X007752Y017861D01*
X009129Y008244D02*
X003656Y008244D01*
X003656Y003795D01*
X009129Y003795D01*
X009129Y008244D01*
X003617Y007063D02*
X002278Y007063D01*
X002278Y004779D01*
X003617Y004779D01*
D14*
X000747Y005941D02*
X000286Y006248D01*
X000363Y006402D02*
X000286Y006478D01*
X000286Y006632D01*
X000363Y006709D01*
X000440Y006709D01*
X000516Y006632D01*
X000593Y006709D01*
X000670Y006709D01*
X000747Y006632D01*
X000747Y006478D01*
X000670Y006402D01*
X000747Y006248D02*
X000286Y005941D01*
X000516Y006555D02*
X000516Y006632D01*
X011587Y005275D02*
X011587Y004968D01*
X011664Y004891D01*
X011817Y004891D01*
X011894Y004968D01*
X012047Y004968D02*
X012124Y004891D01*
X012278Y004891D01*
X012354Y004968D01*
X012354Y005275D01*
X012278Y005352D01*
X012124Y005352D01*
X012047Y005275D01*
X012047Y005198D01*
X012124Y005121D01*
X012354Y005121D01*
X011894Y005275D02*
X011817Y005352D01*
X011664Y005352D01*
X011587Y005275D01*
X011664Y003452D02*
X011587Y003375D01*
X011587Y003068D01*
X011664Y002991D01*
X011817Y002991D01*
X011894Y003068D01*
X012047Y003068D02*
X012047Y003145D01*
X012124Y003221D01*
X012278Y003221D01*
X012354Y003145D01*
X012354Y003068D01*
X012278Y002991D01*
X012124Y002991D01*
X012047Y003068D01*
X012124Y003221D02*
X012047Y003298D01*
X012047Y003375D01*
X012124Y003452D01*
X012278Y003452D01*
X012354Y003375D01*
X012354Y003298D01*
X012278Y003221D01*
X011894Y003375D02*
X011817Y003452D01*
X011664Y003452D01*
X017972Y011599D02*
X017972Y012059D01*
X017819Y012059D02*
X018126Y012059D01*
X018279Y012059D02*
X018510Y012059D01*
X018586Y011982D01*
X018586Y011829D01*
X018510Y011752D01*
X018279Y011752D01*
X018279Y011599D02*
X018279Y012059D01*
X018279Y012399D02*
X018279Y012859D01*
X018510Y012859D01*
X018586Y012782D01*
X018586Y012629D01*
X018510Y012552D01*
X018279Y012552D01*
X017972Y012399D02*
X017972Y012859D01*
X017819Y012859D02*
X018126Y012859D01*
X018740Y012629D02*
X018740Y012475D01*
X018816Y012399D01*
X018970Y012399D01*
X019047Y012475D01*
X019047Y012552D01*
X018970Y012629D01*
X018740Y012629D01*
X018893Y012782D01*
X019047Y012859D01*
X019047Y012059D02*
X018740Y012059D01*
X019047Y012059D02*
X019047Y011982D01*
X018740Y011675D01*
X018740Y011599D01*
X025187Y009438D02*
X025187Y009131D01*
X025417Y009131D01*
X025340Y009284D01*
X025340Y009361D01*
X025417Y009438D01*
X025570Y009438D01*
X025647Y009361D01*
X025647Y009208D01*
X025570Y009131D01*
X025570Y008977D02*
X025647Y008901D01*
X025647Y008747D01*
X025570Y008670D01*
X025263Y008670D01*
X025187Y008747D01*
X025187Y008901D01*
X025263Y008977D01*
X027266Y007875D02*
X027266Y007568D01*
X027343Y007491D01*
X027496Y007491D01*
X027573Y007568D01*
X027727Y007568D02*
X027803Y007491D01*
X027957Y007491D01*
X028034Y007568D01*
X028034Y007645D01*
X027957Y007721D01*
X027727Y007721D01*
X027727Y007568D01*
X027727Y007721D02*
X027880Y007875D01*
X028034Y007952D01*
X027573Y007875D02*
X027496Y007952D01*
X027343Y007952D01*
X027266Y007875D01*
X026209Y007452D02*
X026055Y007375D01*
X025902Y007221D01*
X026132Y007221D01*
X026209Y007145D01*
X026209Y007068D01*
X026132Y006991D01*
X025978Y006991D01*
X025902Y007068D01*
X025902Y007221D01*
X025748Y007068D02*
X025748Y007452D01*
X025441Y007452D02*
X025441Y007068D01*
X025518Y006991D01*
X025671Y006991D01*
X025748Y007068D01*
X027419Y005059D02*
X027726Y005059D01*
X027803Y004952D02*
X027727Y004875D01*
X027727Y004568D01*
X028034Y004875D01*
X028034Y004568D01*
X027957Y004491D01*
X027803Y004491D01*
X027727Y004568D01*
X027726Y004459D02*
X027419Y004459D01*
X027420Y004491D02*
X027420Y004952D01*
X027266Y004798D01*
X027113Y004875D02*
X027036Y004952D01*
X026883Y004952D01*
X026806Y004875D01*
X026806Y004568D01*
X026883Y004491D01*
X027036Y004491D01*
X027113Y004568D01*
X027015Y004491D02*
X026708Y004491D01*
X027015Y004798D01*
X027015Y004875D01*
X026938Y004952D01*
X026785Y004952D01*
X026708Y004875D01*
X026401Y004952D02*
X026401Y004491D01*
X026554Y004491D02*
X026247Y004491D01*
X026094Y004568D02*
X026017Y004491D01*
X025864Y004491D01*
X025787Y004568D01*
X025787Y004875D01*
X025864Y004952D01*
X026017Y004952D01*
X026094Y004875D01*
X026247Y004798D02*
X026401Y004952D01*
X027266Y004491D02*
X027573Y004491D01*
X027572Y004459D02*
X027572Y003999D01*
X027879Y003999D02*
X027879Y004459D01*
X028110Y004459D01*
X028186Y004382D01*
X028186Y004229D01*
X028110Y004152D01*
X027879Y004152D01*
X027879Y004599D02*
X027879Y005059D01*
X028110Y005059D01*
X028186Y004982D01*
X028186Y004829D01*
X028110Y004752D01*
X027879Y004752D01*
X028034Y004875D02*
X027957Y004952D01*
X027803Y004952D01*
X027572Y005059D02*
X027572Y004599D01*
X028340Y004599D02*
X028647Y004906D01*
X028647Y004982D01*
X028570Y005059D01*
X028416Y005059D01*
X028340Y004982D01*
X028419Y005059D02*
X028726Y005059D01*
X028879Y005059D02*
X029110Y005059D01*
X029186Y004982D01*
X029186Y004829D01*
X029110Y004752D01*
X028879Y004752D01*
X028879Y004599D02*
X028879Y005059D01*
X028572Y005059D02*
X028572Y004599D01*
X028647Y004599D02*
X028340Y004599D01*
X028416Y004459D02*
X028570Y004459D01*
X028647Y004382D01*
X028647Y004306D01*
X028570Y004229D01*
X028647Y004152D01*
X028647Y004075D01*
X028570Y003999D01*
X028416Y003999D01*
X028340Y004075D01*
X028493Y004229D02*
X028570Y004229D01*
X028572Y003999D02*
X028572Y004459D01*
X028419Y004459D02*
X028726Y004459D01*
X028879Y004459D02*
X028879Y003999D01*
X028879Y004152D02*
X029110Y004152D01*
X029186Y004229D01*
X029186Y004382D01*
X029110Y004459D01*
X028879Y004459D01*
X029340Y004459D02*
X029340Y004229D01*
X029493Y004306D01*
X029570Y004306D01*
X029647Y004229D01*
X029647Y004075D01*
X029570Y003999D01*
X029416Y003999D01*
X029340Y004075D01*
X029387Y003975D02*
X029387Y003668D01*
X029464Y003591D01*
X029617Y003591D01*
X029694Y003668D01*
X029847Y003591D02*
X030154Y003591D01*
X030001Y003591D02*
X030001Y004052D01*
X029847Y003898D01*
X029694Y003975D02*
X029617Y004052D01*
X029464Y004052D01*
X029387Y003975D01*
X029464Y004191D02*
X029617Y004191D01*
X029694Y004268D01*
X029847Y004191D02*
X030154Y004191D01*
X030001Y004191D02*
X030001Y004652D01*
X029847Y004498D01*
X029694Y004575D02*
X029617Y004652D01*
X029464Y004652D01*
X029387Y004575D01*
X029387Y004268D01*
X029464Y004191D01*
X029340Y004459D02*
X029647Y004459D01*
X029570Y004599D02*
X029570Y005059D01*
X029340Y004829D01*
X029647Y004829D01*
X030308Y004421D02*
X030615Y004421D01*
X030787Y004440D02*
X030787Y004287D01*
X030863Y004210D01*
X031170Y004210D01*
X031247Y004287D01*
X031247Y004440D01*
X031170Y004517D01*
X031247Y004670D02*
X031247Y004977D01*
X031247Y004824D02*
X030787Y004824D01*
X030940Y004670D01*
X030863Y004517D02*
X030787Y004440D01*
X030538Y004652D02*
X030538Y004191D01*
X030615Y004052D02*
X030308Y004052D01*
X030308Y003821D01*
X030461Y003898D01*
X030538Y003898D01*
X030615Y003821D01*
X030615Y003668D01*
X030538Y003591D01*
X030385Y003591D01*
X030308Y003668D01*
X030308Y004421D02*
X030538Y004652D01*
X031017Y005131D02*
X031017Y005361D01*
X031094Y005438D01*
X031170Y005438D01*
X031247Y005361D01*
X031247Y005208D01*
X031170Y005131D01*
X031017Y005131D01*
X030863Y005284D01*
X030787Y005438D01*
X031083Y006691D02*
X031006Y006768D01*
X031006Y007075D01*
X031083Y007152D01*
X031236Y007152D01*
X031313Y007075D01*
X031466Y006998D02*
X031620Y007152D01*
X031620Y006691D01*
X031773Y006691D02*
X031466Y006691D01*
X031313Y006768D02*
X031236Y006691D01*
X031083Y006691D01*
X031927Y006768D02*
X031927Y006845D01*
X032003Y006921D01*
X032157Y006921D01*
X032234Y006845D01*
X032234Y006768D01*
X032157Y006691D01*
X032003Y006691D01*
X031927Y006768D01*
X032003Y006921D02*
X031927Y006998D01*
X031927Y007075D01*
X032003Y007152D01*
X032157Y007152D01*
X032234Y007075D01*
X032234Y006998D01*
X032157Y006921D01*
X033505Y006755D02*
X033658Y006602D01*
X033582Y006448D02*
X033735Y006448D01*
X033812Y006371D01*
X033812Y006141D01*
X033965Y006141D02*
X033505Y006141D01*
X033505Y006371D01*
X033582Y006448D01*
X033812Y006295D02*
X033965Y006448D01*
X033965Y006602D02*
X033965Y006909D01*
X033965Y007062D02*
X033658Y007369D01*
X033582Y007369D01*
X033505Y007292D01*
X033505Y007139D01*
X033582Y007062D01*
X033505Y006755D02*
X033965Y006755D01*
X033965Y007062D02*
X033965Y007369D01*
X034389Y007121D02*
X034391Y007175D01*
X034397Y007228D01*
X034407Y007281D01*
X034421Y007333D01*
X034438Y007384D01*
X034459Y007433D01*
X034484Y007481D01*
X034513Y007527D01*
X034544Y007570D01*
X034579Y007611D01*
X034617Y007650D01*
X034657Y007685D01*
X034700Y007718D01*
X034745Y007747D01*
X034793Y007773D01*
X034842Y007795D01*
X034892Y007813D01*
X034944Y007828D01*
X034996Y007839D01*
X035050Y007846D01*
X035104Y007849D01*
X035157Y007848D01*
X035211Y007843D01*
X035264Y007834D01*
X035316Y007821D01*
X035367Y007805D01*
X035417Y007784D01*
X035465Y007760D01*
X035512Y007733D01*
X035556Y007702D01*
X035597Y007668D01*
X035637Y007631D01*
X035673Y007591D01*
X035706Y007549D01*
X035736Y007504D01*
X035763Y007457D01*
X035786Y007409D01*
X035805Y007359D01*
X035821Y007307D01*
X035833Y007255D01*
X035841Y007202D01*
X035845Y007148D01*
X035845Y007094D01*
X035841Y007040D01*
X035833Y006987D01*
X035821Y006935D01*
X035805Y006883D01*
X035786Y006833D01*
X035763Y006785D01*
X035736Y006738D01*
X035706Y006693D01*
X035673Y006651D01*
X035637Y006611D01*
X035597Y006574D01*
X035556Y006540D01*
X035512Y006509D01*
X035465Y006482D01*
X035417Y006458D01*
X035367Y006437D01*
X035316Y006421D01*
X035264Y006408D01*
X035211Y006399D01*
X035157Y006394D01*
X035104Y006393D01*
X035050Y006396D01*
X034996Y006403D01*
X034944Y006414D01*
X034892Y006429D01*
X034842Y006447D01*
X034793Y006469D01*
X034745Y006495D01*
X034700Y006524D01*
X034657Y006557D01*
X034617Y006592D01*
X034579Y006631D01*
X034544Y006672D01*
X034513Y006715D01*
X034484Y006761D01*
X034459Y006809D01*
X034438Y006858D01*
X034421Y006909D01*
X034407Y006961D01*
X034397Y007014D01*
X034391Y007067D01*
X034389Y007121D01*
X031997Y009497D02*
X031920Y009420D01*
X031613Y009420D01*
X031537Y009497D01*
X031537Y009651D01*
X031613Y009727D01*
X031537Y009881D02*
X031537Y010188D01*
X031613Y010188D01*
X031920Y009881D01*
X031997Y009881D01*
X031920Y009727D02*
X031997Y009651D01*
X031997Y009497D01*
X029497Y009420D02*
X029497Y009727D01*
X029497Y009574D02*
X029037Y009574D01*
X029190Y009420D01*
X029113Y009267D02*
X029037Y009190D01*
X029037Y009037D01*
X029113Y008960D01*
X029420Y008960D01*
X029497Y009037D01*
X029497Y009190D01*
X029420Y009267D01*
X029420Y009881D02*
X029497Y009958D01*
X029497Y010111D01*
X029420Y010188D01*
X029344Y010188D01*
X029267Y010111D01*
X029267Y010034D01*
X029267Y010111D02*
X029190Y010188D01*
X029113Y010188D01*
X029037Y010111D01*
X029037Y009958D01*
X029113Y009881D01*
X028416Y004459D02*
X028340Y004382D01*
X031006Y002875D02*
X031006Y002568D01*
X031083Y002491D01*
X031236Y002491D01*
X031313Y002568D01*
X031466Y002491D02*
X031773Y002491D01*
X031620Y002491D02*
X031620Y002952D01*
X031466Y002798D01*
X031313Y002875D02*
X031236Y002952D01*
X031083Y002952D01*
X031006Y002875D01*
X031927Y002952D02*
X032234Y002952D01*
X032234Y002875D01*
X031927Y002568D01*
X031927Y002491D01*
X024634Y003491D02*
X024327Y003491D01*
X024480Y003491D02*
X024480Y003952D01*
X024327Y003798D01*
X024173Y003491D02*
X023866Y003491D01*
X024020Y003491D02*
X024020Y003952D01*
X023866Y003798D01*
X023713Y003875D02*
X023636Y003952D01*
X023483Y003952D01*
X023406Y003875D01*
X023406Y003568D01*
X023483Y003491D01*
X023636Y003491D01*
X023713Y003568D01*
X037937Y010341D02*
X038397Y010648D01*
X038397Y010802D02*
X038397Y011109D01*
X038397Y010955D02*
X037937Y010955D01*
X038090Y010802D01*
X037937Y010648D02*
X038397Y010341D01*
X045587Y006111D02*
X045817Y005881D01*
X045817Y006188D01*
X046047Y006111D02*
X045587Y006111D01*
X045587Y005727D02*
X046047Y005420D01*
X046047Y005727D02*
X045587Y005420D01*
X030247Y017541D02*
X029787Y017541D01*
X030017Y017618D02*
X030247Y017848D01*
X030017Y018002D02*
X030017Y018309D01*
X030247Y018232D02*
X029787Y018232D01*
X030017Y018002D01*
X029787Y017848D02*
X030094Y017541D01*
X034287Y017741D02*
X034747Y017741D01*
X034594Y017741D02*
X034287Y018048D01*
X034440Y018202D02*
X034287Y018355D01*
X034747Y018355D01*
X034747Y018202D02*
X034747Y018509D01*
X034747Y018048D02*
X034517Y017818D01*
X030135Y022658D02*
X029982Y022811D01*
X029982Y023118D01*
X029828Y023118D02*
X029521Y023118D01*
X029521Y022888D01*
X029675Y022965D01*
X029752Y022965D01*
X029828Y022888D01*
X029828Y022734D01*
X029752Y022658D01*
X029598Y022658D01*
X029521Y022734D01*
X029687Y022841D02*
X030147Y022841D01*
X030289Y022811D02*
X030289Y023118D01*
X030147Y023148D02*
X029917Y022918D01*
X029994Y022841D02*
X029687Y023148D01*
X029763Y023302D02*
X029687Y023378D01*
X029687Y023532D01*
X029763Y023609D01*
X029840Y023609D01*
X029917Y023532D01*
X029994Y023609D01*
X030070Y023609D01*
X030147Y023532D01*
X030147Y023378D01*
X030070Y023302D01*
X029917Y023455D02*
X029917Y023532D01*
X029368Y022888D02*
X029061Y022888D01*
X028907Y022888D02*
X028831Y022811D01*
X028601Y022811D01*
X028601Y022658D02*
X028601Y023118D01*
X028831Y023118D01*
X028907Y023041D01*
X028907Y022888D01*
X028447Y023118D02*
X028140Y023118D01*
X028294Y023118D02*
X028294Y022658D01*
X030135Y022658D02*
X030289Y022811D01*
X027397Y025197D02*
X027320Y025120D01*
X027013Y025120D01*
X026937Y025197D01*
X026937Y025351D01*
X027013Y025427D01*
X027090Y025581D02*
X026937Y025734D01*
X027397Y025734D01*
X027397Y025581D02*
X027397Y025888D01*
X028137Y025911D02*
X028137Y025758D01*
X028213Y025681D01*
X028213Y025527D02*
X028137Y025451D01*
X028137Y025297D01*
X028213Y025220D01*
X028520Y025220D01*
X028597Y025297D01*
X028597Y025451D01*
X028520Y025527D01*
X028597Y025681D02*
X028290Y025988D01*
X028213Y025988D01*
X028137Y025911D01*
X028597Y025988D02*
X028597Y025681D01*
X027397Y025351D02*
X027320Y025427D01*
X027397Y025351D02*
X027397Y025197D01*
X023728Y026891D02*
X023728Y027352D01*
X023497Y027121D01*
X023804Y027121D01*
X023344Y026968D02*
X023344Y027275D01*
X023267Y027352D01*
X023037Y027352D01*
X023037Y026891D01*
X023267Y026891D01*
X023344Y026968D01*
X022220Y024309D02*
X022297Y024232D01*
X022297Y024078D01*
X022220Y024002D01*
X022220Y023848D02*
X022297Y023771D01*
X022297Y023618D01*
X022220Y023541D01*
X021913Y023541D01*
X021837Y023618D01*
X021837Y023771D01*
X021913Y023848D01*
X021913Y024002D02*
X021837Y024078D01*
X021837Y024232D01*
X021913Y024309D01*
X021990Y024309D01*
X022067Y024232D01*
X022144Y024309D01*
X022220Y024309D01*
X022067Y024232D02*
X022067Y024155D01*
X021420Y019838D02*
X021113Y019838D01*
X021037Y019761D01*
X021037Y019608D01*
X021113Y019531D01*
X021190Y019531D01*
X021267Y019608D01*
X021267Y019838D01*
X021420Y019838D02*
X021497Y019761D01*
X021497Y019608D01*
X021420Y019531D01*
X021497Y019377D02*
X021497Y019070D01*
X021497Y018917D02*
X021344Y018763D01*
X021344Y018840D02*
X021344Y018610D01*
X021497Y018610D02*
X021037Y018610D01*
X021037Y018840D01*
X021113Y018917D01*
X021267Y018917D01*
X021344Y018840D01*
X021190Y019070D02*
X021037Y019224D01*
X021497Y019224D01*
X020697Y019224D02*
X020237Y019224D01*
X020390Y019070D01*
X020313Y018917D02*
X020467Y018917D01*
X020544Y018840D01*
X020544Y018610D01*
X020697Y018610D02*
X020237Y018610D01*
X020237Y018840D01*
X020313Y018917D01*
X020544Y018763D02*
X020697Y018917D01*
X020697Y019070D02*
X020697Y019377D01*
X020697Y019531D02*
X020620Y019531D01*
X020313Y019838D01*
X020237Y019838D01*
X020237Y019531D01*
X019997Y019608D02*
X019920Y019531D01*
X019997Y019608D02*
X019997Y019761D01*
X019920Y019838D01*
X019767Y019838D01*
X019690Y019761D01*
X019690Y019684D01*
X019767Y019531D01*
X019537Y019531D01*
X019537Y019838D01*
X019537Y019224D02*
X019997Y019224D01*
X019997Y019377D02*
X019997Y019070D01*
X019997Y018917D02*
X019844Y018763D01*
X019844Y018840D02*
X019844Y018610D01*
X019997Y018610D02*
X019537Y018610D01*
X019537Y018840D01*
X019613Y018917D01*
X019767Y018917D01*
X019844Y018840D01*
X019690Y019070D02*
X019537Y019224D01*
X019767Y018038D02*
X019767Y017731D01*
X019537Y017961D01*
X019997Y017961D01*
X020237Y018038D02*
X020313Y017884D01*
X020467Y017731D01*
X020467Y017961D01*
X020544Y018038D01*
X020620Y018038D01*
X020697Y017961D01*
X020697Y017808D01*
X020620Y017731D01*
X020467Y017731D01*
X020697Y017577D02*
X020697Y017270D01*
X020697Y017117D02*
X020544Y016963D01*
X020544Y017040D02*
X020544Y016810D01*
X020697Y016810D02*
X020237Y016810D01*
X020237Y017040D01*
X020313Y017117D01*
X020467Y017117D01*
X020544Y017040D01*
X020390Y017270D02*
X020237Y017424D01*
X020697Y017424D01*
X021037Y017424D02*
X021497Y017424D01*
X021497Y017577D02*
X021497Y017270D01*
X021497Y017117D02*
X021344Y016963D01*
X021344Y017040D02*
X021344Y016810D01*
X021497Y016810D02*
X021037Y016810D01*
X021037Y017040D01*
X021113Y017117D01*
X021267Y017117D01*
X021344Y017040D01*
X021190Y017270D02*
X021037Y017424D01*
X021113Y017731D02*
X021190Y017731D01*
X021267Y017808D01*
X021267Y017961D01*
X021344Y018038D01*
X021420Y018038D01*
X021497Y017961D01*
X021497Y017808D01*
X021420Y017731D01*
X021344Y017731D01*
X021267Y017808D01*
X021267Y017961D02*
X021190Y018038D01*
X021113Y018038D01*
X021037Y017961D01*
X021037Y017808D01*
X021113Y017731D01*
X019997Y017577D02*
X019997Y017270D01*
X019997Y017117D02*
X019844Y016963D01*
X019844Y017040D02*
X019844Y016810D01*
X019997Y016810D02*
X019537Y016810D01*
X019537Y017040D01*
X019613Y017117D01*
X019767Y017117D01*
X019844Y017040D01*
X019690Y017270D02*
X019537Y017424D01*
X019997Y017424D01*
X013230Y025751D02*
X012996Y025751D01*
X013113Y025751D02*
X013113Y026101D01*
X012996Y025985D01*
X012871Y026043D02*
X012871Y025926D01*
X012812Y025868D01*
X012637Y025868D01*
X012637Y025751D02*
X012637Y026101D01*
X012812Y026101D01*
X012871Y026043D01*
X012754Y025868D02*
X012871Y025751D01*
X008181Y019851D02*
X008240Y019793D01*
X008240Y019735D01*
X008181Y019676D01*
X008240Y019618D01*
X008240Y019560D01*
X008181Y019501D01*
X008065Y019501D01*
X008006Y019560D01*
X007881Y019501D02*
X007764Y019618D01*
X007822Y019618D02*
X007647Y019618D01*
X007647Y019501D02*
X007647Y019851D01*
X007822Y019851D01*
X007881Y019793D01*
X007881Y019676D01*
X007822Y019618D01*
X008006Y019793D02*
X008065Y019851D01*
X008181Y019851D01*
X008181Y019676D02*
X008123Y019676D01*
X008081Y018751D02*
X007965Y018751D01*
X007906Y018693D01*
X007781Y018693D02*
X007781Y018576D01*
X007722Y018518D01*
X007547Y018518D01*
X007547Y018401D02*
X007547Y018751D01*
X007722Y018751D01*
X007781Y018693D01*
X007664Y018518D02*
X007781Y018401D01*
X007906Y018401D02*
X008140Y018635D01*
X008140Y018693D01*
X008081Y018751D01*
X008140Y018401D02*
X007906Y018401D01*
X033887Y022941D02*
X034347Y022941D01*
X034194Y022941D02*
X033887Y023248D01*
X033963Y023402D02*
X033887Y023478D01*
X033887Y023632D01*
X033963Y023709D01*
X034040Y023709D01*
X034347Y023402D01*
X034347Y023709D01*
X034347Y023248D02*
X034117Y023018D01*
D15*
X014692Y025221D03*
X012542Y025221D03*
D16*
X010717Y026471D02*
X010760Y026417D01*
X010806Y026365D01*
X010855Y026316D01*
X010907Y026269D01*
X010961Y026226D01*
X011017Y026185D01*
X011076Y026148D01*
X011136Y026114D01*
X011199Y026084D01*
X011262Y026057D01*
X011328Y026033D01*
X011394Y026013D01*
X011462Y025997D01*
X011530Y025985D01*
X011599Y025977D01*
X011668Y025972D01*
X011738Y025971D01*
X011807Y025974D01*
X011876Y025981D01*
X011944Y025992D01*
X012012Y026006D01*
X012079Y026025D01*
X012145Y026047D01*
X012210Y026072D01*
X012273Y026101D01*
X012334Y026134D01*
X012393Y026170D01*
X012450Y026209D01*
X012506Y026251D01*
X012558Y026296D01*
X012608Y026344D01*
X012655Y026395D01*
X012700Y026449D01*
X012741Y026504D01*
X012779Y026562D01*
X012814Y026622D01*
X012846Y026684D01*
X012874Y026747D01*
X012898Y026812D01*
X012919Y026878D01*
X012936Y026946D01*
X012950Y027014D01*
X012959Y027083D01*
X012965Y027152D01*
X012967Y027221D01*
X012965Y027290D01*
X012959Y027359D01*
X012950Y027428D01*
X012936Y027496D01*
X012919Y027564D01*
X012898Y027630D01*
X012874Y027695D01*
X012846Y027758D01*
X012814Y027820D01*
X012779Y027880D01*
X012741Y027938D01*
X012700Y027993D01*
X012655Y028047D01*
X012608Y028098D01*
X012558Y028146D01*
X012506Y028191D01*
X012450Y028233D01*
X012393Y028272D01*
X012334Y028308D01*
X012273Y028341D01*
X012210Y028370D01*
X012145Y028395D01*
X012079Y028417D01*
X012012Y028436D01*
X011944Y028450D01*
X011876Y028461D01*
X011807Y028468D01*
X011738Y028471D01*
X011668Y028470D01*
X011599Y028465D01*
X011530Y028457D01*
X011462Y028445D01*
X011394Y028429D01*
X011328Y028409D01*
X011262Y028385D01*
X011199Y028358D01*
X011136Y028328D01*
X011076Y028294D01*
X011017Y028257D01*
X010961Y028216D01*
X010907Y028173D01*
X010855Y028126D01*
X010806Y028077D01*
X010760Y028025D01*
X010717Y027971D01*
X009817Y028405D02*
X009098Y029232D01*
X006736Y029232D01*
X006017Y028366D01*
X006017Y025961D01*
X005917Y025961D01*
X005917Y025331D01*
X006539Y025331D01*
X006539Y026043D01*
X009295Y026043D01*
X009295Y025331D01*
X006539Y025331D01*
X009295Y025331D02*
X009917Y025331D01*
X009917Y025961D01*
X009817Y025961D01*
X009817Y028405D01*
X008153Y028366D02*
X008153Y028602D01*
X007681Y028602D01*
X007681Y028996D01*
X008153Y028996D01*
X008153Y028602D01*
X008153Y028366D02*
X007681Y028366D01*
X007681Y028602D01*
X013417Y013821D02*
X013417Y013321D01*
X013167Y013571D02*
X013667Y013571D01*
X013667Y006821D02*
X013167Y006821D01*
X029277Y017092D02*
X031757Y017092D01*
X031757Y017230D01*
X031757Y017801D02*
X031757Y018234D01*
X031757Y018805D02*
X031757Y019238D01*
X031757Y019809D02*
X031757Y020242D01*
X031757Y020813D02*
X031757Y020950D01*
X029277Y020950D01*
X029277Y020813D01*
X029277Y020242D02*
X029277Y019809D01*
X029277Y019238D02*
X029277Y018805D01*
X029277Y018234D02*
X029277Y017801D01*
X029277Y017230D02*
X029277Y017092D01*
X033777Y017292D02*
X036257Y017292D01*
X036257Y017430D01*
X036257Y018001D02*
X036257Y018434D01*
X036257Y019005D02*
X036257Y019438D01*
X036257Y020009D02*
X036257Y020442D01*
X036257Y021013D02*
X036257Y021150D01*
X033777Y021150D01*
X033777Y021013D01*
X033777Y020442D02*
X033777Y020009D01*
X033777Y019438D02*
X033777Y019005D01*
X033777Y018434D02*
X033777Y018001D01*
X033777Y017430D02*
X033777Y017292D01*
X038799Y016235D02*
X038799Y010408D01*
X044429Y010408D01*
X044429Y016235D01*
X038799Y016235D01*
X038727Y018940D02*
X039356Y018940D01*
X039356Y019040D01*
X041801Y019040D01*
X042628Y019759D01*
X042628Y024483D01*
X041762Y025202D01*
X039356Y025202D01*
X039356Y025302D01*
X038727Y025302D01*
X038727Y024680D01*
X039439Y024680D01*
X039439Y019562D01*
X038727Y019562D01*
X038727Y024680D01*
X035857Y024638D02*
X035857Y024205D01*
X035857Y023634D02*
X035857Y023201D01*
X035857Y022630D02*
X035857Y022492D01*
X033377Y022492D01*
X033377Y022630D01*
X033377Y023201D02*
X033377Y023634D01*
X033377Y024205D02*
X033377Y024638D01*
X033377Y025209D02*
X033377Y025642D01*
X033377Y026213D02*
X033377Y026350D01*
X035857Y026350D01*
X035857Y026213D01*
X035857Y025642D02*
X035857Y025209D01*
X031657Y025109D02*
X031657Y025542D01*
X031657Y026113D02*
X031657Y026250D01*
X029177Y026250D01*
X029177Y026113D01*
X029177Y025542D02*
X029177Y025109D01*
X029177Y024538D02*
X029177Y024105D01*
X029177Y023534D02*
X029177Y023101D01*
X029177Y022530D02*
X029177Y022392D01*
X031657Y022392D01*
X031657Y022530D01*
X031657Y023101D02*
X031657Y023534D01*
X031657Y024105D02*
X031657Y024538D01*
X038727Y019562D02*
X038727Y018940D01*
X041762Y021885D02*
X041998Y021885D01*
X041998Y022357D01*
X042392Y022357D01*
X042392Y021885D01*
X041998Y021885D01*
X041762Y021885D02*
X041762Y022357D01*
X041998Y022357D01*
X036062Y008066D02*
X035609Y008066D01*
X036062Y008066D02*
X036062Y006176D01*
X035904Y006176D01*
X035215Y006176D02*
X035019Y006176D01*
X034290Y006176D02*
X034172Y006176D01*
X034172Y008066D01*
X034625Y008066D01*
D17*
X033357Y005027D02*
X033432Y004952D01*
X033432Y004802D01*
X033357Y004727D01*
X033432Y004567D02*
X033432Y004267D01*
X033432Y004417D02*
X032982Y004417D01*
X033132Y004267D01*
X033207Y004106D02*
X033282Y004031D01*
X033282Y003806D01*
X033432Y003806D02*
X032982Y003806D01*
X032982Y004031D01*
X033057Y004106D01*
X033207Y004106D01*
X033282Y003956D02*
X033432Y004106D01*
X033057Y004727D02*
X032982Y004802D01*
X032982Y004952D01*
X033057Y005027D01*
X033132Y005027D01*
X033207Y004952D01*
X033282Y005027D01*
X033357Y005027D01*
X033207Y004952D02*
X033207Y004877D01*
X028642Y006800D02*
X028567Y006725D01*
X028267Y006725D01*
X028192Y006800D01*
X028192Y006951D01*
X028267Y007026D01*
X028567Y007026D01*
X028642Y006951D01*
X028642Y006800D01*
X028492Y006876D02*
X028642Y007026D01*
X028642Y007186D02*
X028342Y007486D01*
X028267Y007486D01*
X028192Y007411D01*
X028192Y007261D01*
X028267Y007186D01*
X028642Y007186D02*
X028642Y007486D01*
X026842Y007957D02*
X026842Y006971D01*
X026842Y006471D01*
X026842Y005485D01*
X023592Y005485D01*
X023592Y007957D01*
X026842Y007957D01*
X026842Y006971D02*
X026812Y006969D01*
X026782Y006964D01*
X026753Y006955D01*
X026726Y006942D01*
X026700Y006927D01*
X026676Y006908D01*
X026655Y006887D01*
X026636Y006863D01*
X026621Y006837D01*
X026608Y006810D01*
X026599Y006781D01*
X026594Y006751D01*
X026592Y006721D01*
X026594Y006691D01*
X026599Y006661D01*
X026608Y006632D01*
X026621Y006605D01*
X026636Y006579D01*
X026655Y006555D01*
X026676Y006534D01*
X026700Y006515D01*
X026726Y006500D01*
X026753Y006487D01*
X026782Y006478D01*
X026812Y006473D01*
X026842Y006471D01*
X024232Y008685D02*
X023602Y008685D01*
X023602Y009157D01*
X024232Y009157D01*
X024232Y008685D01*
X024692Y011346D02*
X024692Y011797D01*
X024542Y011797D02*
X024842Y011797D01*
X025002Y011797D02*
X025228Y011797D01*
X025303Y011722D01*
X025303Y011571D01*
X025228Y011496D01*
X025002Y011496D01*
X025002Y011346D02*
X025002Y011797D01*
X025463Y011646D02*
X025613Y011797D01*
X025613Y011346D01*
X025463Y011346D02*
X025763Y011346D01*
X020682Y010896D02*
X020382Y010896D01*
X020532Y010896D02*
X020532Y011347D01*
X020382Y011196D01*
X020222Y011272D02*
X020222Y010971D01*
X020146Y010896D01*
X019996Y010896D01*
X019921Y010971D01*
X019921Y011272D01*
X019996Y011347D01*
X020146Y011347D01*
X020222Y011272D01*
X020071Y011046D02*
X020222Y010896D01*
X014357Y008797D02*
X014357Y008496D01*
X014207Y008346D01*
X014057Y008496D01*
X014057Y008797D01*
X013897Y008722D02*
X013897Y008646D01*
X013822Y008571D01*
X013897Y008496D01*
X013897Y008421D01*
X013822Y008346D01*
X013672Y008346D01*
X013597Y008421D01*
X013441Y008421D02*
X013441Y008346D01*
X013366Y008346D01*
X013366Y008421D01*
X013441Y008421D01*
X013210Y008346D02*
X013134Y008421D01*
X013134Y008722D01*
X013059Y008646D02*
X013210Y008646D01*
X012828Y008646D02*
X012828Y008346D01*
X012903Y008346D02*
X012752Y008346D01*
X012592Y008346D02*
X012292Y008346D01*
X012292Y008797D01*
X012752Y008646D02*
X012828Y008646D01*
X012828Y008797D02*
X012828Y008872D01*
X013597Y008722D02*
X013672Y008797D01*
X013822Y008797D01*
X013897Y008722D01*
X013822Y008571D02*
X013747Y008571D01*
X016057Y005927D02*
X016357Y005627D01*
X016432Y005702D01*
X016432Y005852D01*
X016357Y005927D01*
X016057Y005927D01*
X015982Y005852D01*
X015982Y005702D01*
X016057Y005627D01*
X016357Y005627D01*
X016432Y005467D02*
X016432Y005167D01*
X016432Y005317D02*
X015982Y005317D01*
X016132Y005167D01*
X016207Y005006D02*
X016282Y004931D01*
X016282Y004706D01*
X016432Y004706D02*
X015982Y004706D01*
X015982Y004931D01*
X016057Y005006D01*
X016207Y005006D01*
X016282Y004856D02*
X016432Y005006D01*
X017402Y004051D02*
X017477Y004126D01*
X017552Y004126D01*
X017627Y004051D01*
X017627Y003901D01*
X017552Y003826D01*
X017477Y003826D01*
X017402Y003901D01*
X017402Y004051D01*
X017627Y004051D02*
X017702Y004126D01*
X017777Y004126D01*
X017852Y004051D01*
X017852Y003901D01*
X017777Y003826D01*
X017702Y003826D01*
X017627Y003901D01*
X017627Y003666D02*
X017702Y003591D01*
X017702Y003365D01*
X017852Y003365D02*
X017402Y003365D01*
X017402Y003591D01*
X017477Y003666D01*
X017627Y003666D01*
X017702Y003516D02*
X017852Y003666D01*
X017332Y003392D02*
X017257Y003467D01*
X016957Y003467D01*
X016882Y003392D01*
X016882Y003242D01*
X016957Y003167D01*
X017032Y003167D01*
X017107Y003242D01*
X017107Y003467D01*
X017332Y003392D02*
X017332Y003242D01*
X017257Y003167D01*
X017332Y003006D02*
X017182Y002856D01*
X017182Y002931D02*
X017182Y002706D01*
X017332Y002706D02*
X016882Y002706D01*
X016882Y002931D01*
X016957Y003006D01*
X017107Y003006D01*
X017182Y002931D01*
X018402Y005005D02*
X018402Y005230D01*
X018477Y005305D01*
X018627Y005305D01*
X018702Y005230D01*
X018702Y005005D01*
X018852Y005005D02*
X018402Y005005D01*
X018702Y005155D02*
X018852Y005305D01*
X018852Y005465D02*
X018852Y005766D01*
X018852Y005616D02*
X018402Y005616D01*
X018552Y005465D01*
X018552Y005926D02*
X018402Y006076D01*
X018852Y006076D01*
X018852Y005926D02*
X018852Y006226D01*
X013153Y004636D02*
X013153Y004006D01*
X012681Y004006D01*
X012681Y004636D01*
X013153Y004636D01*
X013153Y003336D02*
X012681Y003336D01*
X012681Y002706D01*
X013153Y002706D01*
X013153Y003336D01*
X010822Y003037D02*
X010672Y002962D01*
X010522Y002811D01*
X010747Y002811D01*
X010822Y002736D01*
X010822Y002661D01*
X010747Y002586D01*
X010597Y002586D01*
X010522Y002661D01*
X010522Y002811D01*
X010362Y002811D02*
X010286Y002736D01*
X010061Y002736D01*
X010061Y002586D02*
X010061Y003037D01*
X010286Y003037D01*
X010362Y002962D01*
X010362Y002811D01*
X010211Y002736D02*
X010362Y002586D01*
X010362Y003786D02*
X010211Y003936D01*
X010286Y003936D02*
X010061Y003936D01*
X010061Y003786D02*
X010061Y004237D01*
X010286Y004237D01*
X010362Y004162D01*
X010362Y004011D01*
X010286Y003936D01*
X010522Y003861D02*
X010522Y003786D01*
X010522Y003861D02*
X010822Y004162D01*
X010822Y004237D01*
X010522Y004237D01*
X012517Y014846D02*
X012667Y014846D01*
X012742Y014921D01*
X012742Y015071D01*
X012592Y015071D01*
X012442Y014921D02*
X012517Y014846D01*
X012442Y014921D02*
X012442Y015222D01*
X012517Y015297D01*
X012667Y015297D01*
X012742Y015222D01*
X012902Y015146D02*
X013053Y015297D01*
X013053Y014846D01*
X013203Y014846D02*
X012902Y014846D01*
X013592Y016715D02*
X013592Y016865D01*
X013592Y016790D02*
X013967Y016790D01*
X014042Y016715D01*
X014042Y016640D01*
X013967Y016565D01*
X014042Y017025D02*
X013592Y017025D01*
X013592Y017251D01*
X013667Y017326D01*
X013817Y017326D01*
X013892Y017251D01*
X013892Y017025D01*
X014042Y017486D02*
X014042Y017786D01*
X014042Y017636D02*
X013592Y017636D01*
X013742Y017486D01*
X012732Y020106D02*
X012282Y020106D01*
X012282Y020331D01*
X012357Y020406D01*
X012507Y020406D01*
X012582Y020331D01*
X012582Y020106D01*
X012582Y020256D02*
X012732Y020406D01*
X012657Y020567D02*
X012732Y020642D01*
X012732Y020792D01*
X012657Y020867D01*
X012507Y020867D01*
X012432Y020792D01*
X012432Y020717D01*
X012507Y020567D01*
X012282Y020567D01*
X012282Y020867D01*
X014121Y022596D02*
X014346Y022596D01*
X014422Y022671D01*
X014422Y022972D01*
X014346Y023047D01*
X014121Y023047D01*
X014121Y022596D01*
X014582Y022596D02*
X014882Y022596D01*
X014732Y022596D02*
X014732Y023047D01*
X014582Y022896D01*
X017294Y021580D02*
X022215Y021580D01*
X022215Y026501D01*
X017294Y026501D01*
X017294Y021580D01*
X011313Y023018D02*
X010329Y023018D01*
X010329Y024290D01*
X011290Y024290D01*
X011313Y024325D02*
X010329Y024325D01*
X010329Y024290D01*
X010329Y024325D02*
X010329Y024652D01*
X011313Y024652D01*
X011313Y024325D01*
X011313Y023018D01*
X009320Y022633D02*
X008049Y022633D01*
X008049Y023594D01*
X008013Y023617D02*
X008013Y022633D01*
X008049Y022633D01*
X008013Y022633D02*
X007686Y022633D01*
X007686Y023617D01*
X008013Y023617D01*
X009320Y023617D01*
X009320Y022633D01*
X007532Y020992D02*
X007082Y020992D01*
X007307Y020767D01*
X007307Y021067D01*
X007307Y020606D02*
X007382Y020531D01*
X007382Y020306D01*
X007532Y020306D02*
X007082Y020306D01*
X007082Y020531D01*
X007157Y020606D01*
X007307Y020606D01*
X007382Y020456D02*
X007532Y020606D01*
X003692Y020776D02*
X003392Y021076D01*
X003317Y021076D01*
X003242Y021001D01*
X003242Y020851D01*
X003317Y020776D01*
X003692Y020776D02*
X003692Y021076D01*
X003617Y021236D02*
X003692Y021311D01*
X003692Y021461D01*
X003617Y021537D01*
X003542Y021537D01*
X003467Y021461D01*
X003467Y021236D01*
X003617Y021236D01*
X003467Y021236D02*
X003317Y021386D01*
X003242Y021537D01*
X003242Y021697D02*
X003242Y021922D01*
X003317Y021997D01*
X003467Y021997D01*
X003542Y021922D01*
X003542Y021697D01*
X003692Y021697D02*
X003242Y021697D01*
X003467Y020155D02*
X003542Y020155D01*
X003542Y019855D01*
X003617Y019855D02*
X003467Y019855D01*
X003392Y019930D01*
X003392Y020080D01*
X003467Y020155D01*
X003692Y020080D02*
X003692Y019930D01*
X003617Y019855D01*
X003692Y019698D02*
X003692Y019548D01*
X003692Y019623D02*
X003242Y019623D01*
X003242Y019548D01*
X003467Y019388D02*
X003392Y019313D01*
X003392Y019088D01*
X003242Y019088D02*
X003692Y019088D01*
X003692Y019313D01*
X003617Y019388D01*
X003467Y019388D01*
X003467Y018928D02*
X003692Y018928D01*
X003692Y018702D01*
X003617Y018627D01*
X003542Y018702D01*
X003542Y018928D01*
X003467Y018928D02*
X003392Y018853D01*
X003392Y018702D01*
X003317Y018467D02*
X003242Y018392D01*
X003242Y018242D01*
X003317Y018167D01*
X003617Y018167D01*
X003692Y018242D01*
X003692Y018392D01*
X003617Y018467D01*
X003467Y018007D02*
X003467Y017707D01*
X003467Y017546D02*
X003542Y017471D01*
X003542Y017246D01*
X003692Y017246D02*
X003242Y017246D01*
X003242Y017471D01*
X003317Y017546D01*
X003467Y017546D01*
X003542Y017396D02*
X003692Y017546D01*
X008650Y026536D02*
X008951Y026536D01*
X009111Y026536D02*
X009411Y026536D01*
X009571Y026536D02*
X009796Y026536D01*
X009872Y026611D01*
X009872Y026912D01*
X009796Y026987D01*
X009571Y026987D01*
X009571Y026536D01*
X009261Y026761D02*
X009111Y026761D01*
X009111Y026536D02*
X009111Y026987D01*
X009411Y026987D01*
X010032Y026836D02*
X010182Y026987D01*
X010182Y026536D01*
X010032Y026536D02*
X010332Y026536D01*
X008650Y026536D02*
X008650Y026987D01*
X030061Y021197D02*
X030061Y020746D01*
X030286Y020746D01*
X030361Y020821D01*
X030361Y021122D01*
X030286Y021197D01*
X030061Y021197D01*
X030521Y021046D02*
X030671Y021197D01*
X030671Y020746D01*
X030521Y020746D02*
X030822Y020746D01*
X030982Y020821D02*
X031282Y021122D01*
X031282Y020821D01*
X031207Y020746D01*
X031057Y020746D01*
X030982Y020821D01*
X030982Y021122D01*
X031057Y021197D01*
X031207Y021197D01*
X031282Y021122D01*
X035021Y021197D02*
X035021Y020746D01*
X035246Y020746D01*
X035322Y020821D01*
X035322Y021122D01*
X035246Y021197D01*
X035021Y021197D01*
X035482Y021122D02*
X035482Y021046D01*
X035557Y020971D01*
X035782Y020971D01*
X035782Y020821D02*
X035782Y021122D01*
X035707Y021197D01*
X035557Y021197D01*
X035482Y021122D01*
X035482Y020821D02*
X035557Y020746D01*
X035707Y020746D01*
X035782Y020821D01*
X038727Y020222D02*
X038727Y019562D01*
X038727Y020220D01*
X035707Y015797D02*
X035557Y015797D01*
X035482Y015722D01*
X035482Y015646D01*
X035557Y015571D01*
X035707Y015571D01*
X035782Y015496D01*
X035782Y015421D01*
X035707Y015346D01*
X035557Y015346D01*
X035482Y015421D01*
X035482Y015496D01*
X035557Y015571D01*
X035707Y015571D02*
X035782Y015646D01*
X035782Y015722D01*
X035707Y015797D01*
X035322Y015722D02*
X035322Y015421D01*
X035246Y015346D01*
X035021Y015346D01*
X035021Y015797D01*
X035246Y015797D01*
X035322Y015722D01*
X031382Y015346D02*
X031082Y015346D01*
X031232Y015346D02*
X031232Y015797D01*
X031082Y015646D01*
X030922Y015346D02*
X030621Y015346D01*
X030771Y015346D02*
X030771Y015797D01*
X030621Y015646D01*
X030461Y015722D02*
X030461Y015421D01*
X030386Y015346D01*
X030161Y015346D01*
X030161Y015797D01*
X030386Y015797D01*
X030461Y015722D01*
D18*
X014767Y023721D03*
D19*
X015392Y023721D03*
X013042Y023721D03*
D20*
X023731Y026121D03*
D21*
X011547Y024720D02*
X011547Y024647D01*
X011510Y024610D01*
X011510Y024536D02*
X011364Y024536D01*
X011327Y024499D01*
X011327Y024389D01*
X011547Y024389D01*
X011547Y024499D01*
X011510Y024536D01*
X011364Y024610D02*
X011327Y024647D01*
X011327Y024720D01*
X011364Y024757D01*
X011400Y024757D01*
X011437Y024720D01*
X011474Y024757D01*
X011510Y024757D01*
X011547Y024720D01*
X011437Y024720D02*
X011437Y024684D01*
X010047Y024610D02*
X009827Y024610D01*
X009827Y024757D01*
X009937Y024684D02*
X009937Y024610D01*
X009974Y024536D02*
X009937Y024499D01*
X009937Y024389D01*
X010010Y024389D01*
X010047Y024426D01*
X010047Y024499D01*
X010010Y024536D01*
X009974Y024536D01*
X009864Y024463D02*
X009827Y024536D01*
X009864Y024463D02*
X009937Y024389D01*
X009937Y024315D02*
X009937Y024168D01*
X009900Y024168D02*
X009827Y024242D01*
X009900Y024315D01*
X010047Y024315D01*
X010047Y024168D02*
X009900Y024168D01*
X009827Y024094D02*
X010047Y024094D01*
X010047Y023947D02*
X009827Y023947D01*
X009900Y024021D01*
X009827Y024094D01*
X009864Y023873D02*
X009827Y023836D01*
X009827Y023763D01*
X009864Y023726D01*
X009900Y023726D01*
X009937Y023763D01*
X009937Y023836D01*
X009974Y023873D01*
X010010Y023873D01*
X010047Y023836D01*
X010047Y023763D01*
X010010Y023726D01*
X008558Y022351D02*
X008411Y022351D01*
X008411Y022131D01*
X008337Y022168D02*
X008337Y022205D01*
X008300Y022241D01*
X008190Y022241D01*
X008190Y022168D01*
X008227Y022131D01*
X008300Y022131D01*
X008337Y022168D01*
X008411Y022241D02*
X008484Y022241D01*
X008337Y022351D02*
X008263Y022315D01*
X008190Y022241D01*
X008116Y022241D02*
X007969Y022241D01*
X007969Y022278D02*
X008042Y022351D01*
X008116Y022278D01*
X008116Y022131D01*
X007969Y022131D02*
X007969Y022278D01*
X007895Y022351D02*
X007895Y022131D01*
X007748Y022131D02*
X007748Y022351D01*
X007821Y022278D01*
X007895Y022351D01*
X007674Y022315D02*
X007637Y022351D01*
X007564Y022351D01*
X007527Y022315D01*
X007527Y022278D01*
X007564Y022241D01*
X007637Y022241D01*
X007674Y022205D01*
X007674Y022168D01*
X007637Y022131D01*
X007564Y022131D01*
X007527Y022168D01*
X007527Y023631D02*
X007637Y023631D01*
X007674Y023668D01*
X007674Y023815D01*
X007637Y023851D01*
X007527Y023851D01*
X007527Y023631D01*
X007748Y023631D02*
X007895Y023778D01*
X007895Y023815D01*
X007858Y023851D01*
X007785Y023851D01*
X007748Y023815D01*
X007748Y023631D02*
X007895Y023631D01*
X040801Y014961D02*
X040818Y014904D01*
X040832Y014845D01*
X040842Y014786D01*
X040848Y014726D01*
X040850Y014666D01*
X040653Y014764D02*
X040456Y014764D01*
X040259Y014764D02*
X040261Y014737D01*
X040266Y014711D01*
X040275Y014686D01*
X040288Y014662D01*
X040303Y014640D01*
X040322Y014620D01*
X040342Y014603D01*
X040365Y014589D01*
X040390Y014578D01*
X040416Y014571D01*
X040443Y014567D01*
X040469Y014567D01*
X040496Y014571D01*
X040522Y014578D01*
X040547Y014589D01*
X040570Y014603D01*
X040590Y014620D01*
X040609Y014640D01*
X040624Y014662D01*
X040637Y014686D01*
X040646Y014711D01*
X040651Y014737D01*
X040653Y014764D01*
X040456Y014764D02*
X040456Y014961D01*
X040801Y014961D01*
X040260Y014961D02*
X040255Y014912D01*
X040253Y014863D01*
X040255Y014814D01*
X040260Y014765D01*
X040260Y014959D02*
X040084Y014959D01*
X040062Y014666D02*
X040064Y014627D01*
X040070Y014589D01*
X040079Y014552D01*
X040092Y014515D01*
X040109Y014480D01*
X040128Y014447D01*
X040151Y014416D01*
X040177Y014387D01*
X040206Y014361D01*
X040237Y014338D01*
X040270Y014319D01*
X040305Y014302D01*
X040342Y014289D01*
X040379Y014280D01*
X040417Y014274D01*
X040456Y014272D01*
X040495Y014274D01*
X040533Y014280D01*
X040570Y014289D01*
X040607Y014302D01*
X040642Y014319D01*
X040675Y014338D01*
X040706Y014361D01*
X040735Y014387D01*
X040761Y014416D01*
X040784Y014447D01*
X040803Y014480D01*
X040820Y014515D01*
X040833Y014552D01*
X040842Y014589D01*
X040848Y014627D01*
X040850Y014666D01*
X040063Y014666D02*
X040062Y014741D01*
X040066Y014816D01*
X040073Y014891D01*
X040084Y014965D01*
X040063Y013977D02*
X040063Y013435D01*
X040850Y013435D01*
X040850Y013681D01*
X040555Y013681D01*
X040850Y013878D01*
X040850Y014174D01*
X040555Y013977D01*
X040407Y013829D02*
X040407Y013681D01*
X040260Y013681D01*
X040260Y013829D01*
X040259Y013829D02*
X040261Y013844D01*
X040265Y013859D01*
X040273Y013872D01*
X040283Y013884D01*
X040296Y013893D01*
X040310Y013899D01*
X040325Y013903D01*
X040341Y013903D01*
X040356Y013899D01*
X040370Y013893D01*
X040383Y013884D01*
X040393Y013872D01*
X040401Y013859D01*
X040405Y013844D01*
X040407Y013829D01*
X040555Y013977D02*
X040553Y014007D01*
X040548Y014036D01*
X040539Y014064D01*
X040527Y014091D01*
X040511Y014117D01*
X040493Y014140D01*
X040472Y014161D01*
X040449Y014179D01*
X040423Y014195D01*
X040396Y014207D01*
X040368Y014216D01*
X040339Y014221D01*
X040309Y014223D01*
X040279Y014221D01*
X040250Y014216D01*
X040222Y014207D01*
X040195Y014195D01*
X040169Y014179D01*
X040146Y014161D01*
X040125Y014140D01*
X040107Y014117D01*
X040091Y014091D01*
X040079Y014064D01*
X040070Y014036D01*
X040065Y014007D01*
X040063Y013977D01*
X040063Y013337D02*
X040063Y012648D01*
X040850Y012648D01*
X040850Y013337D01*
X040653Y013337D01*
X040653Y012894D01*
X040555Y012894D01*
X040555Y013337D01*
X040358Y013337D01*
X040358Y012894D01*
X040260Y012894D01*
X040260Y013337D01*
X040063Y013337D01*
X040063Y012353D02*
X040063Y012057D01*
X040260Y012353D01*
X040457Y012353D02*
X040455Y012380D01*
X040450Y012406D01*
X040441Y012431D01*
X040428Y012455D01*
X040413Y012477D01*
X040394Y012497D01*
X040374Y012514D01*
X040351Y012528D01*
X040326Y012539D01*
X040300Y012546D01*
X040273Y012550D01*
X040247Y012550D01*
X040220Y012546D01*
X040194Y012539D01*
X040169Y012528D01*
X040146Y012514D01*
X040126Y012497D01*
X040107Y012477D01*
X040092Y012455D01*
X040079Y012431D01*
X040070Y012406D01*
X040065Y012380D01*
X040063Y012353D01*
X040260Y012353D02*
X040456Y012057D01*
X040653Y012353D01*
X040850Y012353D02*
X040848Y012380D01*
X040843Y012406D01*
X040834Y012431D01*
X040821Y012455D01*
X040806Y012477D01*
X040787Y012497D01*
X040767Y012514D01*
X040744Y012528D01*
X040719Y012539D01*
X040693Y012546D01*
X040666Y012550D01*
X040640Y012550D01*
X040613Y012546D01*
X040587Y012539D01*
X040562Y012528D01*
X040539Y012514D01*
X040519Y012497D01*
X040500Y012477D01*
X040485Y012455D01*
X040472Y012431D01*
X040463Y012406D01*
X040458Y012380D01*
X040456Y012353D01*
X040653Y012353D02*
X040850Y012057D01*
X040850Y012353D01*
X040850Y012057D02*
X040456Y012057D01*
X040063Y012057D01*
X040063Y011811D01*
X040850Y011811D01*
X040850Y012057D01*
D22*
X041065Y012121D02*
X041215Y012121D01*
X041215Y012221D01*
X041215Y012415D02*
X041215Y012516D01*
X041140Y012466D02*
X041140Y012415D01*
X041065Y012415D02*
X041215Y012415D01*
X041065Y012415D02*
X041065Y012516D01*
X041090Y012710D02*
X041190Y012710D01*
X041215Y012735D01*
X041215Y012785D01*
X041190Y012810D01*
X041090Y012810D02*
X041065Y012785D01*
X041065Y012735D01*
X041090Y012710D01*
X041065Y013005D02*
X041065Y013105D01*
X041065Y013055D02*
X041215Y013055D01*
X041215Y013299D02*
X041065Y013299D01*
X041065Y013375D01*
X041090Y013400D01*
X041140Y013400D01*
X041165Y013375D01*
X041165Y013299D01*
X041165Y013349D02*
X041215Y013400D01*
X041190Y013594D02*
X041215Y013619D01*
X041215Y013669D01*
X041190Y013694D01*
X041090Y013694D01*
X041065Y013669D01*
X041065Y013619D01*
X041090Y013594D01*
X041190Y013594D01*
X041215Y013889D02*
X041065Y013889D01*
X041215Y013989D01*
X041065Y013989D01*
X041065Y014183D02*
X041065Y014233D01*
X041065Y014208D02*
X041215Y014208D01*
X041215Y014183D02*
X041215Y014233D01*
X041190Y014429D02*
X041215Y014454D01*
X041215Y014504D01*
X041190Y014529D01*
X041090Y014529D02*
X041065Y014504D01*
X041065Y014454D01*
X041090Y014429D01*
X041190Y014429D01*
X041190Y014724D02*
X041215Y014749D01*
X041215Y014799D01*
X041190Y014824D01*
X041165Y014824D01*
X041140Y014799D01*
X041140Y014749D01*
X041115Y014724D01*
X041090Y014724D01*
X041065Y014749D01*
X041065Y014799D01*
X041090Y014824D01*
X041065Y011926D02*
X041065Y011826D01*
X041215Y011826D01*
X041215Y011926D01*
X041140Y011876D02*
X041140Y011826D01*
X024196Y009327D02*
X024178Y009345D01*
X024141Y009345D01*
X024123Y009327D01*
X024123Y009254D01*
X024141Y009235D01*
X024178Y009235D01*
X024196Y009254D01*
X024085Y009254D02*
X024067Y009235D01*
X024030Y009235D01*
X024012Y009254D01*
X023975Y009254D02*
X023957Y009235D01*
X023920Y009235D01*
X023902Y009254D01*
X023975Y009327D01*
X023975Y009254D01*
X023975Y009327D02*
X023957Y009345D01*
X023920Y009345D01*
X023902Y009327D01*
X023902Y009254D01*
X023828Y009235D02*
X023828Y009345D01*
X023864Y009345D02*
X023791Y009345D01*
X023754Y009290D02*
X023681Y009290D01*
X023644Y009272D02*
X023644Y009254D01*
X023625Y009235D01*
X023588Y009235D01*
X023570Y009254D01*
X023533Y009235D02*
X023460Y009235D01*
X023533Y009309D01*
X023533Y009327D01*
X023515Y009345D01*
X023478Y009345D01*
X023460Y009327D01*
X023423Y009327D02*
X023423Y009309D01*
X023404Y009290D01*
X023423Y009272D01*
X023423Y009254D01*
X023404Y009235D01*
X023367Y009235D01*
X023349Y009254D01*
X023312Y009254D02*
X023312Y009327D01*
X023294Y009345D01*
X023239Y009345D01*
X023239Y009235D01*
X023294Y009235D01*
X023312Y009254D01*
X023349Y009327D02*
X023367Y009345D01*
X023404Y009345D01*
X023423Y009327D01*
X023404Y009290D02*
X023386Y009290D01*
X023570Y009327D02*
X023588Y009345D01*
X023625Y009345D01*
X023644Y009327D01*
X023644Y009309D01*
X023625Y009290D01*
X023644Y009272D01*
X023625Y009290D02*
X023607Y009290D01*
X024012Y009327D02*
X024030Y009345D01*
X024067Y009345D01*
X024085Y009327D01*
X024085Y009309D01*
X024067Y009290D01*
X024085Y009272D01*
X024085Y009254D01*
X024067Y009290D02*
X024049Y009290D01*
X023202Y009254D02*
X023202Y009327D01*
X023183Y009345D01*
X023146Y009345D01*
X023128Y009327D01*
X023128Y009254D01*
X023146Y009235D01*
X023183Y009235D01*
X023202Y009254D01*
X023091Y009254D02*
X023073Y009235D01*
X023036Y009235D01*
X023018Y009254D01*
X022981Y009254D02*
X022981Y009327D01*
X022962Y009345D01*
X022907Y009345D01*
X022907Y009235D01*
X022962Y009235D01*
X022981Y009254D01*
X023036Y009290D02*
X023018Y009309D01*
X023018Y009327D01*
X023036Y009345D01*
X023073Y009345D01*
X023091Y009327D01*
X023073Y009290D02*
X023091Y009272D01*
X023091Y009254D01*
X023073Y009290D02*
X023036Y009290D01*
X022870Y009254D02*
X022852Y009235D01*
X022815Y009235D01*
X022797Y009254D01*
X022797Y009327D01*
X022815Y009345D01*
X022852Y009345D01*
X022870Y009327D01*
X024004Y008597D02*
X024059Y008597D01*
X024078Y008579D01*
X024078Y008506D01*
X024059Y008487D01*
X024004Y008487D01*
X024004Y008597D01*
X024115Y008597D02*
X024115Y008542D01*
X024151Y008561D01*
X024170Y008561D01*
X024188Y008542D01*
X024188Y008506D01*
X024170Y008487D01*
X024133Y008487D01*
X024115Y008506D01*
X024115Y008597D02*
X024188Y008597D01*
X013351Y004519D02*
X013333Y004519D01*
X013259Y004592D01*
X013241Y004592D01*
X013241Y004519D01*
X013259Y004482D02*
X013241Y004463D01*
X013241Y004408D01*
X013351Y004408D01*
X013351Y004463D01*
X013333Y004482D01*
X013259Y004482D01*
X013249Y004114D02*
X013231Y004096D01*
X013231Y004059D01*
X013249Y004041D01*
X013323Y004041D01*
X013341Y004059D01*
X013341Y004096D01*
X013323Y004114D01*
X013323Y004004D02*
X013341Y003986D01*
X013341Y003949D01*
X013323Y003931D01*
X013323Y003893D02*
X013341Y003875D01*
X013341Y003838D01*
X013323Y003820D01*
X013249Y003893D01*
X013323Y003893D01*
X013323Y003820D02*
X013249Y003820D01*
X013231Y003838D01*
X013231Y003875D01*
X013249Y003893D01*
X013249Y003931D02*
X013231Y003949D01*
X013231Y003986D01*
X013249Y004004D01*
X013268Y004004D01*
X013286Y003986D01*
X013304Y004004D01*
X013323Y004004D01*
X013286Y003986D02*
X013286Y003967D01*
X013231Y003783D02*
X013231Y003710D01*
X013231Y003746D02*
X013341Y003746D01*
X013286Y003673D02*
X013286Y003599D01*
X013268Y003562D02*
X013286Y003544D01*
X013304Y003562D01*
X013323Y003562D01*
X013341Y003544D01*
X013341Y003507D01*
X013323Y003489D01*
X013341Y003452D02*
X013341Y003378D01*
X013268Y003452D01*
X013249Y003452D01*
X013231Y003433D01*
X013231Y003396D01*
X013249Y003378D01*
X013249Y003341D02*
X013268Y003341D01*
X013286Y003323D01*
X013304Y003341D01*
X013323Y003341D01*
X013341Y003323D01*
X013341Y003286D01*
X013323Y003268D01*
X013323Y003231D02*
X013249Y003231D01*
X013231Y003212D01*
X013231Y003157D01*
X013341Y003157D01*
X013341Y003212D01*
X013323Y003231D01*
X013286Y003304D02*
X013286Y003323D01*
X013249Y003341D02*
X013231Y003323D01*
X013231Y003286D01*
X013249Y003268D01*
X013249Y003120D02*
X013231Y003102D01*
X013231Y003065D01*
X013249Y003047D01*
X013323Y003047D01*
X013341Y003065D01*
X013341Y003102D01*
X013323Y003120D01*
X013249Y003120D01*
X013249Y003010D02*
X013231Y002991D01*
X013231Y002954D01*
X013249Y002936D01*
X013268Y002936D01*
X013286Y002954D01*
X013286Y002991D01*
X013304Y003010D01*
X013323Y003010D01*
X013341Y002991D01*
X013341Y002954D01*
X013323Y002936D01*
X013323Y002899D02*
X013249Y002899D01*
X013231Y002881D01*
X013231Y002826D01*
X013341Y002826D01*
X013341Y002881D01*
X013323Y002899D01*
X013323Y002789D02*
X013341Y002770D01*
X013341Y002734D01*
X013323Y002715D01*
X013249Y002715D01*
X013231Y002734D01*
X013231Y002770D01*
X013249Y002789D01*
X012593Y002778D02*
X012575Y002796D01*
X012501Y002796D01*
X012483Y002778D01*
X012483Y002723D01*
X012593Y002723D01*
X012593Y002778D01*
X012575Y002834D02*
X012593Y002852D01*
X012593Y002889D01*
X012575Y002907D01*
X012556Y002907D01*
X012538Y002889D01*
X012538Y002834D01*
X012575Y002834D01*
X012538Y002834D02*
X012501Y002870D01*
X012483Y002907D01*
X012511Y003201D02*
X012493Y003219D01*
X012493Y003256D01*
X012511Y003274D01*
X012493Y003311D02*
X012603Y003311D01*
X012603Y003366D01*
X012585Y003385D01*
X012511Y003385D01*
X012493Y003366D01*
X012493Y003311D01*
X012585Y003274D02*
X012603Y003256D01*
X012603Y003219D01*
X012585Y003201D01*
X012511Y003201D01*
X012511Y003422D02*
X012493Y003440D01*
X012493Y003477D01*
X012511Y003495D01*
X012511Y003532D02*
X012585Y003532D01*
X012603Y003551D01*
X012603Y003587D01*
X012585Y003606D01*
X012511Y003606D01*
X012493Y003587D01*
X012493Y003551D01*
X012511Y003532D01*
X012548Y003477D02*
X012566Y003495D01*
X012585Y003495D01*
X012603Y003477D01*
X012603Y003440D01*
X012585Y003422D01*
X012548Y003440D02*
X012548Y003477D01*
X012548Y003440D02*
X012530Y003422D01*
X012511Y003422D01*
X012493Y003643D02*
X012603Y003643D01*
X012603Y003698D01*
X012585Y003716D01*
X012511Y003716D01*
X012493Y003698D01*
X012493Y003643D01*
X012511Y003753D02*
X012493Y003772D01*
X012493Y003808D01*
X012511Y003827D01*
X012530Y003827D01*
X012548Y003808D01*
X012566Y003827D01*
X012585Y003827D01*
X012603Y003808D01*
X012603Y003772D01*
X012585Y003753D01*
X012548Y003790D02*
X012548Y003808D01*
X012511Y003864D02*
X012493Y003882D01*
X012493Y003919D01*
X012511Y003937D01*
X012530Y003937D01*
X012603Y003864D01*
X012603Y003937D01*
X012585Y003974D02*
X012603Y003993D01*
X012603Y004029D01*
X012585Y004048D01*
X012566Y004048D01*
X012548Y004029D01*
X012548Y004011D01*
X012548Y004029D02*
X012530Y004048D01*
X012511Y004048D01*
X012493Y004029D01*
X012493Y003993D01*
X012511Y003974D01*
X012548Y004085D02*
X012548Y004158D01*
X012493Y004195D02*
X012493Y004269D01*
X012493Y004232D02*
X012603Y004232D01*
X012585Y004306D02*
X012511Y004379D01*
X012585Y004379D01*
X012603Y004361D01*
X012603Y004324D01*
X012585Y004306D01*
X012511Y004306D01*
X012493Y004324D01*
X012493Y004361D01*
X012511Y004379D01*
X012511Y004416D02*
X012493Y004435D01*
X012493Y004471D01*
X012511Y004490D01*
X012530Y004490D01*
X012548Y004471D01*
X012566Y004490D01*
X012585Y004490D01*
X012603Y004471D01*
X012603Y004435D01*
X012585Y004416D01*
X012548Y004453D02*
X012548Y004471D01*
X012585Y004527D02*
X012603Y004545D01*
X012603Y004582D01*
X012585Y004600D01*
X012585Y004527D02*
X012511Y004527D01*
X012493Y004545D01*
X012493Y004582D01*
X012511Y004600D01*
X013249Y003562D02*
X013268Y003562D01*
X013249Y003562D02*
X013231Y003544D01*
X013231Y003507D01*
X013249Y003489D01*
X013286Y003525D02*
X013286Y003544D01*
D23*
X031267Y016321D03*
X035667Y016321D03*
X035667Y021721D03*
X031167Y021721D03*
D24*
X031542Y021721D03*
X029492Y021721D03*
X033992Y021721D03*
X036042Y021721D03*
X036042Y016321D03*
X033992Y016321D03*
X031642Y016321D03*
X029592Y016321D03*
D25*
X035127Y007121D03*
D26*
X035117Y007111D03*
D27*
X033917Y004671D02*
X033917Y004571D01*
X017917Y005471D02*
X017917Y005571D01*
X016917Y005571D02*
X016917Y005471D01*
X016917Y003471D02*
X016917Y003371D01*
X017817Y003471D02*
X017817Y003571D01*
X010167Y003521D02*
X010067Y003521D01*
X010067Y004721D02*
X010167Y004721D01*
X013217Y020871D02*
X013217Y020971D01*
X008017Y021071D02*
X008017Y021171D01*
D28*
X003662Y012360D02*
X003662Y011940D01*
X003662Y012150D02*
X003032Y012150D01*
X003242Y011940D01*
X003032Y011716D02*
X003662Y011716D01*
X003032Y011295D01*
X003662Y011295D01*
X003557Y011071D02*
X003137Y011071D01*
X003032Y010966D01*
X003032Y010756D01*
X003137Y010651D01*
X003557Y010651D01*
X003662Y010756D01*
X003662Y010966D01*
X003557Y011071D01*
X003557Y010427D02*
X003662Y010321D01*
X003662Y010111D01*
X003557Y010006D01*
X003137Y010006D01*
X003032Y010111D01*
X003032Y010321D01*
X003137Y010427D01*
X023533Y012306D02*
X023743Y012306D01*
X023638Y012306D02*
X023638Y012937D01*
X023533Y012937D02*
X023743Y012937D01*
X023963Y012832D02*
X024068Y012937D01*
X024278Y012937D01*
X024383Y012832D01*
X024608Y012727D02*
X024818Y012937D01*
X024818Y012306D01*
X024608Y012306D02*
X025028Y012306D01*
X024383Y012411D02*
X024278Y012306D01*
X024068Y012306D01*
X023963Y012411D01*
X023963Y012832D01*
D29*
X031226Y017509D03*
X035726Y017709D03*
X031126Y022809D03*
X035326Y022909D03*
D30*
X006357Y010221D03*
D31*
X006282Y010146D03*
X006282Y010296D03*
D32*
X006437Y010221D03*
M02*
