G75*
G70*
%OFA0B0*%
%FSLAX24Y24*%
%IPPOS*%
%LPD*%
%AMOC8*
5,1,8,0,0,1.08239X$1,22.5*
%
%ADD10OC8,0.0520*%
%ADD11OC8,0.1000*%
%ADD12C,0.0660*%
%ADD13C,0.0574*%
%ADD14C,0.0520*%
%ADD15C,0.0520*%
%ADD16C,0.0515*%
%ADD17OC8,0.0850*%
%ADD18C,0.0560*%
%ADD19C,0.0602*%
%ADD20R,0.0602X0.0602*%
%ADD21C,0.0560*%
%ADD22OC8,0.0560*%
%ADD23C,0.0320*%
%ADD24C,0.0400*%
%ADD25C,0.0100*%
D10*
X009617Y005393D03*
X010617Y005393D03*
X010617Y006593D03*
X009617Y006593D03*
X016917Y006893D03*
X017917Y006893D03*
X017917Y007893D03*
X016917Y007893D03*
X016917Y005793D03*
X017817Y005893D03*
X017817Y004893D03*
X016917Y004793D03*
X033917Y005993D03*
X033917Y006993D03*
X013217Y022293D03*
X013217Y023293D03*
X009417Y020893D03*
X009317Y019793D03*
X007317Y019793D03*
X007417Y020893D03*
X008017Y022493D03*
X008017Y023493D03*
X012117Y027093D03*
X015117Y027093D03*
X013817Y029393D03*
X012817Y029393D03*
D11*
X011417Y016443D03*
X015417Y016443D03*
X013417Y009443D03*
D12*
X012217Y025593D03*
X016217Y025593D03*
D13*
X039063Y016571D02*
X039637Y016571D01*
X039637Y015587D02*
X039063Y015587D01*
X039063Y014800D02*
X039637Y014800D01*
X039637Y013815D02*
X039063Y013815D01*
D14*
X036777Y018193D02*
X036257Y018193D01*
X033777Y018193D02*
X033257Y018193D01*
X032277Y018193D02*
X031757Y018193D01*
X029277Y018193D02*
X028757Y018193D01*
X028657Y023693D02*
X029177Y023693D01*
X031657Y023693D02*
X032177Y023693D01*
X033357Y023693D02*
X033877Y023693D01*
X036357Y023693D02*
X036877Y023693D01*
D15*
X020517Y013793D03*
X019517Y013793D03*
X027617Y009193D03*
X027617Y008193D03*
D16*
X037560Y009511D02*
X037560Y010026D01*
X040334Y009985D02*
X040849Y009985D01*
X041890Y008451D02*
X041890Y007936D01*
X039628Y007150D02*
X039113Y007150D01*
X039077Y006205D02*
X038562Y006205D01*
X008775Y005961D02*
X008775Y006476D01*
X006001Y006002D02*
X005486Y006002D01*
X004444Y007536D02*
X004444Y008051D01*
X006706Y008837D02*
X007221Y008837D01*
X007257Y009781D02*
X007772Y009781D01*
D17*
X025717Y012493D03*
D18*
X013197Y018293D02*
X012637Y018293D01*
X012637Y019293D02*
X013197Y019293D01*
D19*
X008508Y026411D03*
X007327Y026411D03*
X008508Y027593D03*
X037935Y025765D03*
X037935Y024584D03*
X039116Y024584D03*
X039116Y023403D03*
X037935Y023403D03*
X037935Y022222D03*
X039116Y022222D03*
D20*
X039116Y025765D03*
X007327Y027593D03*
D21*
X005817Y012093D03*
D22*
X004817Y012093D03*
X004817Y013093D03*
X005817Y013093D03*
X005817Y014093D03*
X004817Y014093D03*
X004817Y015093D03*
X005817Y015093D03*
X005817Y016093D03*
X004817Y016093D03*
X004817Y017093D03*
X005817Y017093D03*
X005817Y018093D03*
X004817Y018093D03*
X004817Y019093D03*
X005817Y019093D03*
X005817Y020093D03*
X004817Y020093D03*
X004817Y021093D03*
X005817Y021093D03*
X005817Y022093D03*
X004817Y022093D03*
X004817Y023093D03*
X005817Y023093D03*
X005817Y024093D03*
X004817Y024093D03*
D23*
X005569Y003963D02*
X005560Y003953D01*
X023747Y003953D01*
X023047Y004653D01*
X022930Y004653D01*
X022856Y004684D01*
X022857Y004681D01*
X022857Y004506D01*
X022790Y004344D01*
X022666Y004220D01*
X022505Y004153D01*
X022330Y004153D01*
X022168Y004220D01*
X022044Y004344D01*
X021977Y004506D01*
X021977Y004623D01*
X021371Y005229D01*
X021327Y005336D01*
X021327Y005363D01*
X021305Y005353D01*
X021130Y005353D01*
X020968Y005420D01*
X020844Y005544D01*
X020777Y005706D01*
X020777Y005881D01*
X020844Y006043D01*
X020927Y006126D01*
X020927Y009061D01*
X020844Y009144D01*
X020777Y009306D01*
X020777Y009481D01*
X020844Y009643D01*
X020968Y009766D01*
X021130Y009833D01*
X021177Y009833D01*
X021177Y009881D01*
X021244Y010043D01*
X021368Y010166D01*
X021530Y010233D01*
X021705Y010233D01*
X021866Y010166D01*
X021990Y010043D01*
X022057Y009881D01*
X022057Y009706D01*
X021990Y009544D01*
X021907Y009461D01*
X021907Y005513D01*
X022387Y005033D01*
X022505Y005033D01*
X022578Y005003D01*
X022577Y005006D01*
X022577Y005123D01*
X022271Y005429D01*
X022227Y005536D01*
X022227Y005761D01*
X022144Y005844D01*
X022077Y006006D01*
X022077Y006181D01*
X022144Y006343D01*
X022268Y006466D01*
X022430Y006533D01*
X022605Y006533D01*
X022766Y006466D01*
X022890Y006343D01*
X022957Y006181D01*
X022957Y006033D01*
X023047Y006033D01*
X023177Y006163D01*
X023177Y006223D01*
X023047Y006353D01*
X023030Y006353D01*
X022868Y006420D01*
X022744Y006544D01*
X022677Y006706D01*
X022677Y006881D01*
X022744Y007043D01*
X022868Y007166D01*
X023030Y007233D01*
X023205Y007233D01*
X023366Y007166D01*
X023490Y007043D01*
X023557Y006881D01*
X023557Y006706D01*
X023545Y006676D01*
X023587Y006633D01*
X023705Y006633D01*
X023866Y006566D01*
X023990Y006443D01*
X024057Y006281D01*
X024057Y006106D01*
X023990Y005944D01*
X023866Y005820D01*
X023705Y005753D01*
X023587Y005753D01*
X023457Y005623D01*
X023457Y005533D01*
X023605Y005533D01*
X023766Y005466D01*
X023849Y005383D01*
X024797Y005383D01*
X025567Y006153D01*
X025430Y006153D01*
X025268Y006220D01*
X025144Y006344D01*
X025077Y006506D01*
X025077Y006681D01*
X025144Y006843D01*
X025268Y006966D01*
X025430Y007033D01*
X025605Y007033D01*
X025705Y006992D01*
X027071Y008358D01*
X027153Y008439D01*
X027183Y008452D01*
X027193Y008477D01*
X027334Y008617D01*
X027518Y008693D01*
X027717Y008693D01*
X027900Y008769D01*
X028041Y008910D01*
X028117Y009094D01*
X028117Y009293D01*
X028041Y009477D01*
X027900Y009617D01*
X027717Y009693D01*
X027518Y009693D01*
X027334Y009617D01*
X027193Y009477D01*
X027117Y009293D01*
X027117Y009094D01*
X027193Y008910D01*
X027334Y008769D01*
X027518Y008693D01*
X027717Y008693D01*
X027900Y008617D01*
X028041Y008477D01*
X028117Y008293D01*
X028117Y008094D01*
X028041Y007910D01*
X027900Y007769D01*
X027717Y007693D01*
X027518Y007693D01*
X027334Y007769D01*
X027319Y007785D01*
X026649Y007115D01*
X026766Y007066D01*
X026767Y007066D01*
X026768Y007066D01*
X026930Y007133D01*
X027105Y007133D01*
X027266Y007066D01*
X027390Y006943D01*
X027457Y006781D01*
X027457Y006606D01*
X027390Y006444D01*
X027266Y006320D01*
X027105Y006253D01*
X026987Y006253D01*
X025857Y005123D01*
X025857Y005006D01*
X025790Y004844D01*
X025666Y004720D01*
X025505Y004653D01*
X025330Y004653D01*
X025168Y004720D01*
X025053Y004836D01*
X024975Y004803D01*
X023849Y004803D01*
X023783Y004737D01*
X024337Y004183D01*
X027305Y004183D01*
X027244Y004244D01*
X027177Y004406D01*
X027177Y004581D01*
X027244Y004743D01*
X027368Y004866D01*
X027530Y004933D01*
X027647Y004933D01*
X028377Y005663D01*
X028377Y005781D01*
X028444Y005943D01*
X028568Y006066D01*
X028730Y006133D01*
X028905Y006133D01*
X029066Y006066D01*
X029190Y005943D01*
X029257Y005781D01*
X029257Y005606D01*
X029190Y005444D01*
X029066Y005320D01*
X028905Y005253D01*
X028787Y005253D01*
X028683Y005149D01*
X028790Y005043D01*
X028857Y004881D01*
X028857Y004706D01*
X028790Y004544D01*
X028666Y004420D01*
X028505Y004353D01*
X028387Y004353D01*
X027987Y003953D01*
X040513Y003953D01*
X040408Y004134D01*
X040327Y004437D01*
X040327Y004750D01*
X040408Y005053D01*
X040565Y005324D01*
X040786Y005545D01*
X041058Y005702D01*
X041360Y005783D01*
X041674Y005783D01*
X041976Y005702D01*
X042157Y005598D01*
X042157Y007491D01*
X042089Y007456D01*
X042011Y007431D01*
X041931Y007418D01*
X041890Y007418D01*
X041890Y008193D01*
X041890Y008193D01*
X041373Y008193D01*
X041373Y007895D01*
X041386Y007815D01*
X041411Y007737D01*
X041448Y007665D01*
X041496Y007599D01*
X041553Y007541D01*
X041619Y007493D01*
X041692Y007456D01*
X041769Y007431D01*
X041850Y007418D01*
X041890Y007418D01*
X041890Y008193D01*
X041890Y008193D01*
X041373Y008193D01*
X041373Y008492D01*
X041386Y008572D01*
X041411Y008649D01*
X041448Y008722D01*
X041496Y008788D01*
X041553Y008845D01*
X041619Y008893D01*
X041692Y008930D01*
X041769Y008956D01*
X041850Y008968D01*
X041890Y008968D01*
X041890Y008193D01*
X041890Y008193D01*
X041890Y008968D01*
X041931Y008968D01*
X042011Y008956D01*
X042089Y008930D01*
X042157Y008896D01*
X042157Y028789D01*
X041976Y028684D01*
X041674Y028603D01*
X041360Y028603D01*
X041058Y028684D01*
X040786Y028841D01*
X040565Y029063D01*
X040408Y029334D01*
X040327Y029637D01*
X040327Y029950D01*
X040408Y030253D01*
X040512Y030433D01*
X008121Y030430D01*
X008361Y030365D01*
X008624Y030214D01*
X008838Y030000D01*
X008989Y029737D01*
X009068Y029445D01*
X009068Y029142D01*
X008989Y028849D01*
X008838Y028587D01*
X008624Y028373D01*
X008361Y028221D01*
X008069Y028143D01*
X007766Y028143D01*
X007473Y028221D01*
X007211Y028373D01*
X006996Y028587D01*
X006845Y028849D01*
X006767Y029142D01*
X006767Y029445D01*
X006845Y029737D01*
X006996Y030000D01*
X007211Y030214D01*
X007473Y030365D01*
X007713Y030430D01*
X005624Y030430D01*
X005726Y030253D01*
X005807Y029950D01*
X005807Y029637D01*
X005726Y029334D01*
X005569Y029063D01*
X005348Y028841D01*
X005076Y028684D01*
X004774Y028603D01*
X004460Y028603D01*
X004158Y028684D01*
X003977Y028789D01*
X003977Y008275D01*
X004001Y008322D01*
X004049Y008388D01*
X004107Y008445D01*
X004173Y008493D01*
X004245Y008530D01*
X004323Y008556D01*
X004403Y008568D01*
X004444Y008568D01*
X004444Y007793D01*
X004444Y007018D01*
X004485Y007018D01*
X004565Y007031D01*
X004642Y007056D01*
X004715Y007093D01*
X004781Y007141D01*
X004839Y007199D01*
X004886Y007265D01*
X004923Y007337D01*
X004949Y007415D01*
X004961Y007495D01*
X004961Y007793D01*
X004444Y007793D01*
X004444Y007793D01*
X004444Y007793D01*
X004444Y007018D01*
X004403Y007018D01*
X004323Y007031D01*
X004245Y007056D01*
X004173Y007093D01*
X004107Y007141D01*
X004049Y007199D01*
X004001Y007265D01*
X003977Y007312D01*
X003977Y005698D01*
X004158Y005802D01*
X004460Y005883D01*
X004774Y005883D01*
X005024Y005816D01*
X004988Y005903D01*
X004988Y006101D01*
X005064Y006284D01*
X005204Y006424D01*
X005387Y006499D01*
X006099Y006499D01*
X006282Y006424D01*
X006422Y006284D01*
X006498Y006101D01*
X006498Y005903D01*
X006422Y005720D01*
X006282Y005580D01*
X006099Y005504D01*
X005489Y005504D01*
X005569Y005424D01*
X005726Y005153D01*
X005807Y004850D01*
X005807Y004537D01*
X005726Y004234D01*
X005569Y003963D01*
X005608Y004030D02*
X023670Y004030D01*
X023351Y004349D02*
X022792Y004349D01*
X022857Y004667D02*
X022896Y004667D01*
X022396Y005304D02*
X022116Y005304D01*
X022227Y005623D02*
X021907Y005623D01*
X021340Y005304D02*
X018113Y005304D01*
X018038Y005379D02*
X018337Y005678D01*
X018337Y005893D01*
X017817Y005893D01*
X017817Y005893D01*
X018337Y005893D01*
X018337Y006109D01*
X018072Y006373D01*
X018132Y006373D01*
X018437Y006678D01*
X018437Y006893D01*
X017917Y006893D01*
X017917Y006893D01*
X018437Y006893D01*
X018437Y007109D01*
X018138Y007407D01*
X018417Y007686D01*
X018417Y008100D01*
X018124Y008393D01*
X017710Y008393D01*
X017417Y008100D01*
X017417Y007686D01*
X017696Y007407D01*
X017403Y007115D01*
X017124Y007393D01*
X016710Y007393D01*
X016417Y007100D01*
X016417Y006686D01*
X016710Y006393D01*
X017124Y006393D01*
X017403Y006672D01*
X017662Y006413D01*
X017602Y006413D01*
X017303Y006115D01*
X017124Y006293D01*
X016710Y006293D01*
X016417Y006000D01*
X016417Y005586D01*
X016710Y005293D01*
X016417Y005000D01*
X016417Y004586D01*
X016710Y004293D01*
X017124Y004293D01*
X017417Y004586D01*
X017417Y004586D01*
X017610Y004393D01*
X018024Y004393D01*
X018317Y004686D01*
X018317Y005100D01*
X018038Y005379D01*
X018282Y005623D02*
X020811Y005623D01*
X020802Y005941D02*
X018337Y005941D01*
X018186Y006260D02*
X020927Y006260D01*
X020927Y006578D02*
X018337Y006578D01*
X018437Y006897D02*
X020927Y006897D01*
X020927Y007215D02*
X018330Y007215D01*
X018265Y007534D02*
X020927Y007534D01*
X020927Y007852D02*
X018417Y007852D01*
X018347Y008171D02*
X020927Y008171D01*
X020927Y008489D02*
X007577Y008489D01*
X007643Y008555D02*
X007718Y008738D01*
X007718Y008936D01*
X007643Y009118D01*
X007503Y009258D01*
X007441Y009284D01*
X007871Y009284D01*
X008054Y009360D01*
X008194Y009500D01*
X008270Y009683D01*
X008270Y009880D01*
X008194Y010063D01*
X008054Y010203D01*
X007871Y010279D01*
X007158Y010279D01*
X006975Y010203D01*
X006835Y010063D01*
X006760Y009880D01*
X006760Y009683D01*
X006835Y009500D01*
X006975Y009360D01*
X007037Y009334D01*
X006607Y009334D01*
X006424Y009258D01*
X006284Y009118D01*
X006209Y008936D01*
X006209Y008738D01*
X006284Y008555D01*
X006424Y008415D01*
X006607Y008339D01*
X007320Y008339D01*
X007503Y008415D01*
X007643Y008555D01*
X007718Y008808D02*
X012978Y008808D01*
X013102Y008683D02*
X012657Y009129D01*
X012657Y009443D01*
X013417Y009443D01*
X013417Y009443D01*
X013417Y008683D01*
X013102Y008683D01*
X013417Y008683D02*
X013732Y008683D01*
X014177Y009129D01*
X014177Y009443D01*
X013417Y009443D01*
X013417Y008683D01*
X013417Y008808D02*
X013417Y008808D01*
X013417Y009126D02*
X013417Y009126D01*
X013417Y009443D02*
X013417Y009443D01*
X013417Y009443D01*
X012657Y009443D01*
X012657Y009758D01*
X013102Y010203D01*
X013417Y010203D01*
X013417Y009443D01*
X014177Y009443D01*
X014177Y009758D01*
X013732Y010203D01*
X013417Y010203D01*
X013417Y009443D01*
X013417Y009443D01*
X013417Y009445D02*
X013417Y009445D01*
X013417Y009763D02*
X013417Y009763D01*
X013417Y010082D02*
X013417Y010082D01*
X012981Y010082D02*
X008175Y010082D01*
X008270Y009763D02*
X012662Y009763D01*
X012657Y009445D02*
X008139Y009445D01*
X007635Y009126D02*
X012659Y009126D01*
X013856Y008808D02*
X020927Y008808D01*
X020862Y009126D02*
X014175Y009126D01*
X014177Y009445D02*
X020777Y009445D01*
X020965Y009763D02*
X014172Y009763D01*
X013853Y010082D02*
X021283Y010082D01*
X021951Y010082D02*
X037062Y010082D01*
X037062Y010125D02*
X037138Y010307D01*
X037278Y010447D01*
X037461Y010523D01*
X037659Y010523D01*
X037841Y010447D01*
X037981Y010307D01*
X038057Y010125D01*
X038057Y009412D01*
X037981Y009229D01*
X037841Y009089D01*
X037659Y009013D01*
X037461Y009013D01*
X037278Y009089D01*
X037138Y009229D01*
X037062Y009412D01*
X037062Y010125D01*
X037231Y010400D02*
X003977Y010400D01*
X003977Y010082D02*
X006854Y010082D01*
X006760Y009763D02*
X003977Y009763D01*
X003977Y009445D02*
X006890Y009445D01*
X006292Y009126D02*
X003977Y009126D01*
X003977Y008808D02*
X006209Y008808D01*
X006350Y008489D02*
X004721Y008489D01*
X004715Y008493D02*
X004642Y008530D01*
X004565Y008556D01*
X004485Y008568D01*
X004444Y008568D01*
X004444Y007793D01*
X004961Y007793D01*
X004961Y008092D01*
X004949Y008172D01*
X004923Y008249D01*
X004886Y008322D01*
X004839Y008388D01*
X004781Y008445D01*
X004715Y008493D01*
X004444Y008489D02*
X004444Y008489D01*
X004167Y008489D02*
X003977Y008489D01*
X004444Y008171D02*
X004444Y008171D01*
X004444Y007852D02*
X004444Y007852D01*
X004444Y007793D02*
X004444Y007793D01*
X004444Y007534D02*
X004444Y007534D01*
X004444Y007215D02*
X004444Y007215D01*
X004851Y007215D02*
X016532Y007215D01*
X016710Y007393D02*
X017124Y007393D01*
X017417Y007686D01*
X017417Y008100D01*
X017124Y008393D01*
X016710Y008393D01*
X016417Y008100D01*
X016417Y007686D01*
X016710Y007393D01*
X016569Y007534D02*
X004961Y007534D01*
X004961Y007852D02*
X016417Y007852D01*
X016487Y008171D02*
X004949Y008171D01*
X004037Y007215D02*
X003977Y007215D01*
X003977Y006897D02*
X008492Y006897D01*
X008493Y006898D02*
X008353Y006758D01*
X008277Y006575D01*
X008277Y005862D01*
X008353Y005679D01*
X008493Y005539D01*
X008676Y005464D01*
X008873Y005464D01*
X009056Y005539D01*
X009117Y005600D01*
X009117Y005186D01*
X009410Y004893D01*
X009824Y004893D01*
X010117Y005186D01*
X010410Y004893D01*
X010824Y004893D01*
X011117Y005186D01*
X011117Y005600D01*
X010824Y005893D01*
X010410Y005893D01*
X010117Y005600D01*
X010117Y005186D01*
X010117Y005600D01*
X009824Y005893D01*
X009410Y005893D01*
X009197Y005680D01*
X009272Y005862D01*
X009272Y006231D01*
X009410Y006093D01*
X009824Y006093D01*
X010117Y006386D01*
X010117Y006800D01*
X009824Y007093D01*
X009410Y007093D01*
X009135Y006819D01*
X009056Y006898D01*
X008873Y006973D01*
X008676Y006973D01*
X008493Y006898D01*
X008278Y006578D02*
X003977Y006578D01*
X003977Y006260D02*
X005054Y006260D01*
X004988Y005941D02*
X003977Y005941D01*
X005638Y005304D02*
X009117Y005304D01*
X009317Y004986D02*
X005771Y004986D01*
X005807Y004667D02*
X016417Y004667D01*
X016417Y004986D02*
X010917Y004986D01*
X011117Y005304D02*
X016699Y005304D01*
X016710Y005293D02*
X017124Y005293D01*
X016710Y005293D01*
X017124Y005293D02*
X017317Y005100D01*
X017317Y005100D01*
X017596Y005379D01*
X017403Y005572D01*
X017124Y005293D01*
X017135Y005304D02*
X017521Y005304D01*
X018317Y004986D02*
X021614Y004986D01*
X021933Y004667D02*
X018298Y004667D01*
X017180Y004349D02*
X022042Y004349D01*
X023853Y004667D02*
X025296Y004667D01*
X025538Y004667D02*
X027213Y004667D01*
X027201Y004349D02*
X024172Y004349D01*
X023457Y005623D02*
X025036Y005623D01*
X025355Y005941D02*
X023987Y005941D01*
X024057Y006260D02*
X025228Y006260D01*
X025077Y006578D02*
X023837Y006578D01*
X023550Y006897D02*
X025198Y006897D01*
X025929Y007215D02*
X023248Y007215D01*
X022986Y007215D02*
X021907Y007215D01*
X021907Y006897D02*
X022684Y006897D01*
X022730Y006578D02*
X021907Y006578D01*
X021907Y006260D02*
X022110Y006260D01*
X022104Y005941D02*
X021907Y005941D01*
X022924Y006260D02*
X023140Y006260D01*
X021907Y007534D02*
X026247Y007534D01*
X026566Y007852D02*
X021907Y007852D01*
X021907Y008171D02*
X026884Y008171D01*
X027206Y008489D02*
X021907Y008489D01*
X021907Y008808D02*
X027295Y008808D01*
X027117Y009126D02*
X021907Y009126D01*
X021907Y009445D02*
X027180Y009445D01*
X028054Y009445D02*
X037062Y009445D01*
X037062Y009763D02*
X022057Y009763D01*
X025052Y012218D02*
X025442Y011828D01*
X025993Y011828D01*
X026382Y012218D01*
X026382Y012769D01*
X025993Y013158D01*
X025442Y013158D01*
X025052Y012769D01*
X025052Y012218D01*
X025052Y012311D02*
X006290Y012311D01*
X006258Y012388D02*
X006112Y012534D01*
X006017Y012573D01*
X006032Y012573D01*
X006337Y012878D01*
X006337Y013309D01*
X006052Y013593D01*
X006337Y013878D01*
X006337Y014309D01*
X006052Y014593D01*
X006337Y014878D01*
X006337Y015309D01*
X006052Y015593D01*
X006337Y015878D01*
X006337Y016309D01*
X006052Y016593D01*
X006337Y016878D01*
X006337Y017309D01*
X006052Y017593D01*
X006337Y017878D01*
X006337Y018309D01*
X006052Y018593D01*
X006337Y018878D01*
X006337Y019309D01*
X006052Y019593D01*
X006337Y019878D01*
X006337Y020309D01*
X006052Y020593D01*
X006337Y020878D01*
X006337Y021309D01*
X006052Y021593D01*
X006337Y021878D01*
X006337Y022309D01*
X006052Y022593D01*
X006337Y022878D01*
X006337Y023309D01*
X006052Y023593D01*
X006337Y023878D01*
X006337Y024309D01*
X006032Y024613D01*
X005602Y024613D01*
X005317Y024329D01*
X005032Y024613D01*
X004602Y024613D01*
X004297Y024309D01*
X004297Y023878D01*
X004582Y023593D01*
X004297Y023309D01*
X004297Y022878D01*
X004582Y022593D01*
X004297Y022309D01*
X004297Y021878D01*
X004582Y021593D01*
X004297Y021309D01*
X004297Y020878D01*
X004582Y020593D01*
X004297Y020309D01*
X004297Y019878D01*
X004582Y019593D01*
X004297Y019309D01*
X004297Y018878D01*
X004582Y018593D01*
X004297Y018309D01*
X004297Y017878D01*
X004582Y017593D01*
X004297Y017309D01*
X004297Y016878D01*
X004582Y016593D01*
X004297Y016309D01*
X004297Y015878D01*
X004582Y015593D01*
X004297Y015309D01*
X004297Y014878D01*
X004568Y014607D01*
X004277Y014317D01*
X004277Y014093D01*
X004277Y013870D01*
X004568Y013579D01*
X004297Y013309D01*
X004297Y012878D01*
X004582Y012593D01*
X004297Y012309D01*
X004297Y011878D01*
X004602Y011573D01*
X005032Y011573D01*
X005337Y011878D01*
X005337Y011893D01*
X005376Y011799D01*
X005523Y011652D01*
X005714Y011573D01*
X005920Y011573D01*
X006112Y011652D01*
X006258Y011799D01*
X006337Y011990D01*
X006337Y012197D01*
X006258Y012388D01*
X006089Y012630D02*
X025052Y012630D01*
X025232Y012948D02*
X006337Y012948D01*
X006337Y013267D02*
X026797Y013267D01*
X026830Y013253D02*
X027005Y013253D01*
X027166Y013320D01*
X027290Y013444D01*
X027357Y013606D01*
X027357Y013781D01*
X027290Y013943D01*
X027166Y014066D01*
X027005Y014133D01*
X026887Y014133D01*
X026857Y014163D01*
X026857Y014281D01*
X026790Y014443D01*
X026666Y014566D01*
X026505Y014633D01*
X026330Y014633D01*
X026168Y014566D01*
X026044Y014443D01*
X025977Y014281D01*
X025977Y014106D01*
X026044Y013944D01*
X026168Y013820D01*
X026330Y013753D01*
X026447Y013753D01*
X026477Y013723D01*
X026477Y013606D01*
X026544Y013444D01*
X026668Y013320D01*
X026830Y013253D01*
X027037Y013267D02*
X039645Y013267D01*
X039666Y013288D02*
X039607Y013229D01*
X039473Y012998D01*
X039404Y012740D01*
X039404Y012473D01*
X039473Y012216D01*
X039607Y011985D01*
X039795Y011796D01*
X040026Y011663D01*
X040284Y011594D01*
X040550Y011594D01*
X040808Y011663D01*
X041039Y011796D01*
X041227Y011985D01*
X041361Y012216D01*
X041430Y012473D01*
X041430Y012740D01*
X041361Y012998D01*
X041227Y013229D01*
X041039Y013417D01*
X040808Y013550D01*
X040550Y013619D01*
X040284Y013619D01*
X040107Y013572D01*
X040164Y013711D01*
X040164Y013920D01*
X040084Y014114D01*
X039936Y014262D01*
X039826Y014307D01*
X039936Y014353D01*
X040084Y014501D01*
X040164Y014695D01*
X040164Y014904D01*
X040084Y015098D01*
X039989Y015193D01*
X040084Y015288D01*
X040164Y015482D01*
X040164Y015692D01*
X040084Y015886D01*
X039936Y016034D01*
X039854Y016068D01*
X039924Y016103D01*
X039993Y016154D01*
X040054Y016215D01*
X040105Y016285D01*
X040144Y016361D01*
X040171Y016443D01*
X040184Y016528D01*
X040184Y016571D01*
X039350Y016571D01*
X038516Y016571D01*
X038516Y016528D01*
X038530Y016443D01*
X038556Y016361D01*
X038595Y016285D01*
X038646Y016215D01*
X038707Y016154D01*
X038776Y016103D01*
X038847Y016068D01*
X038765Y016034D01*
X038616Y015886D01*
X038536Y015692D01*
X038536Y015482D01*
X038616Y015288D01*
X038712Y015193D01*
X038616Y015098D01*
X038536Y014904D01*
X038536Y014695D01*
X038616Y014501D01*
X038765Y014353D01*
X038874Y014307D01*
X038765Y014262D01*
X038616Y014114D01*
X038536Y013920D01*
X038536Y013711D01*
X038616Y013517D01*
X038765Y013369D01*
X038958Y013288D01*
X039666Y013288D01*
X039460Y012948D02*
X026203Y012948D01*
X026382Y012630D02*
X039404Y012630D01*
X039448Y012311D02*
X026382Y012311D01*
X026157Y011993D02*
X039602Y011993D01*
X040006Y011674D02*
X006133Y011674D01*
X006337Y011993D02*
X025277Y011993D01*
X026486Y013585D02*
X020972Y013585D01*
X020941Y013510D02*
X021017Y013694D01*
X021017Y013893D01*
X020941Y014077D01*
X020800Y014217D01*
X020617Y014293D01*
X020418Y014293D01*
X020234Y014217D01*
X020093Y014077D01*
X020017Y013893D01*
X019941Y014077D01*
X019800Y014217D01*
X019617Y014293D01*
X019418Y014293D01*
X019234Y014217D01*
X019093Y014077D01*
X019017Y013893D01*
X019017Y013694D01*
X019093Y013510D01*
X019234Y013369D01*
X019418Y013293D01*
X019617Y013293D01*
X019800Y013369D01*
X019941Y013510D01*
X020017Y013694D01*
X020017Y013893D01*
X020017Y013694D01*
X020093Y013510D01*
X020234Y013369D01*
X020418Y013293D01*
X020617Y013293D01*
X020800Y013369D01*
X020941Y013510D01*
X021012Y013904D02*
X026084Y013904D01*
X025977Y014222D02*
X020788Y014222D01*
X020246Y014222D02*
X019788Y014222D01*
X020012Y013904D02*
X020022Y013904D01*
X020062Y013585D02*
X019972Y013585D01*
X019062Y013585D02*
X006060Y013585D01*
X006337Y013904D02*
X019022Y013904D01*
X019246Y014222D02*
X018468Y014222D01*
X018466Y014220D02*
X018590Y014344D01*
X018657Y014506D01*
X018657Y014623D01*
X020721Y016687D01*
X020677Y016581D01*
X020677Y016406D01*
X020744Y016244D01*
X020868Y016120D01*
X021030Y016053D01*
X021205Y016053D01*
X021366Y016120D01*
X021490Y016244D01*
X021557Y016406D01*
X021557Y016523D01*
X024287Y019253D01*
X024305Y019253D01*
X024466Y019320D01*
X024590Y019444D01*
X024657Y019606D01*
X024657Y019781D01*
X024590Y019943D01*
X024466Y020066D01*
X024351Y020114D01*
X024366Y020120D01*
X024490Y020244D01*
X024557Y020406D01*
X024557Y020581D01*
X024490Y020743D01*
X024366Y020866D01*
X024205Y020933D01*
X024030Y020933D01*
X023868Y020866D01*
X023744Y020743D01*
X023677Y020581D01*
X023677Y020463D01*
X018247Y015033D01*
X018130Y015033D01*
X017968Y014966D01*
X017844Y014843D01*
X017777Y014681D01*
X017777Y014506D01*
X017844Y014344D01*
X017968Y014220D01*
X018130Y014153D01*
X018305Y014153D01*
X018466Y014220D01*
X018657Y014541D02*
X026142Y014541D01*
X026692Y014541D02*
X038600Y014541D01*
X038536Y014859D02*
X018893Y014859D01*
X019212Y015178D02*
X024070Y015178D01*
X024130Y015153D02*
X024305Y015153D01*
X024466Y015220D01*
X024549Y015303D01*
X026785Y015303D01*
X026868Y015220D01*
X027030Y015153D01*
X027205Y015153D01*
X027366Y015220D01*
X027490Y015344D01*
X027557Y015506D01*
X027557Y015681D01*
X027490Y015843D01*
X027366Y015966D01*
X027205Y016033D01*
X027030Y016033D01*
X026868Y015966D01*
X026785Y015883D01*
X024549Y015883D01*
X024466Y015966D01*
X024305Y016033D01*
X024130Y016033D01*
X023968Y015966D01*
X023844Y015843D01*
X023777Y015681D01*
X023777Y015506D01*
X023844Y015344D01*
X023968Y015220D01*
X024130Y015153D01*
X024364Y015178D02*
X026970Y015178D01*
X027264Y015178D02*
X029970Y015178D01*
X030030Y015153D02*
X029868Y015220D01*
X029744Y015344D01*
X029677Y015506D01*
X029677Y015681D01*
X029744Y015843D01*
X029868Y015966D01*
X030030Y016033D01*
X030205Y016033D01*
X030366Y015966D01*
X030449Y015883D01*
X030797Y015883D01*
X032830Y017917D01*
X032767Y018070D01*
X032701Y017910D01*
X032560Y017769D01*
X032377Y017693D01*
X031658Y017693D01*
X031474Y017769D01*
X031333Y017910D01*
X031257Y018094D01*
X031257Y018293D01*
X031333Y018477D01*
X031474Y018617D01*
X031658Y018693D01*
X032377Y018693D01*
X032560Y018617D01*
X032701Y018477D01*
X032767Y018317D01*
X032833Y018477D01*
X032974Y018617D01*
X033158Y018693D01*
X033207Y018693D01*
X032947Y018953D01*
X032830Y018953D01*
X032668Y019020D01*
X032544Y019144D01*
X032477Y019306D01*
X032477Y019481D01*
X032544Y019643D01*
X032668Y019766D01*
X032830Y019833D01*
X033005Y019833D01*
X033166Y019766D01*
X033290Y019643D01*
X033357Y019481D01*
X033357Y019363D01*
X033681Y019039D01*
X033763Y018958D01*
X033807Y018851D01*
X033807Y018693D01*
X033877Y018693D01*
X034060Y018617D01*
X034201Y018477D01*
X034277Y018293D01*
X034277Y018094D01*
X034201Y017910D01*
X034060Y017769D01*
X033877Y017693D01*
X033427Y017693D01*
X031081Y015347D01*
X030975Y015303D01*
X030859Y015303D01*
X030449Y015303D01*
X030366Y015220D01*
X030205Y015153D01*
X030030Y015153D01*
X030264Y015178D02*
X038696Y015178D01*
X038536Y015496D02*
X031230Y015496D01*
X031549Y015815D02*
X038587Y015815D01*
X038735Y016133D02*
X031867Y016133D01*
X032186Y016452D02*
X038528Y016452D01*
X038516Y016571D02*
X039350Y016571D01*
X039350Y016571D01*
X039350Y016571D01*
X039350Y017118D01*
X039020Y017118D01*
X038935Y017105D01*
X038853Y017078D01*
X038776Y017039D01*
X038707Y016988D01*
X038646Y016928D01*
X038595Y016858D01*
X038556Y016781D01*
X038530Y016699D01*
X038516Y016614D01*
X038516Y016571D01*
X038553Y016770D02*
X032504Y016770D01*
X032823Y017089D02*
X038886Y017089D01*
X039350Y017089D02*
X039350Y017089D01*
X039350Y017118D02*
X039350Y016571D01*
X039350Y016571D01*
X040184Y016571D01*
X040184Y016614D01*
X040171Y016699D01*
X040144Y016781D01*
X040130Y016808D01*
X040284Y016767D01*
X040550Y016767D01*
X040808Y016836D01*
X041039Y016970D01*
X041227Y017158D01*
X041361Y017389D01*
X041430Y017647D01*
X041430Y017913D01*
X041361Y018171D01*
X041227Y018402D01*
X041039Y018590D01*
X040808Y018724D01*
X040550Y018793D01*
X040284Y018793D01*
X040026Y018724D01*
X039795Y018590D01*
X039607Y018402D01*
X039473Y018171D01*
X039404Y017913D01*
X039404Y017647D01*
X039473Y017389D01*
X039607Y017158D01*
X039646Y017118D01*
X039350Y017118D01*
X039468Y017407D02*
X033141Y017407D01*
X032639Y017726D02*
X032455Y017726D01*
X032321Y017407D02*
X027453Y017407D01*
X027490Y017444D02*
X027557Y017606D01*
X027557Y017781D01*
X027490Y017943D01*
X027366Y018066D01*
X027205Y018133D01*
X027030Y018133D01*
X026868Y018066D01*
X026785Y017983D01*
X026429Y017983D01*
X026490Y018044D01*
X026557Y018206D01*
X026557Y018323D01*
X026587Y018353D01*
X026705Y018353D01*
X026866Y018420D01*
X026990Y018544D01*
X027057Y018706D01*
X027057Y018881D01*
X026990Y019043D01*
X026866Y019166D01*
X026705Y019233D01*
X026530Y019233D01*
X026368Y019166D01*
X026244Y019043D01*
X026177Y018881D01*
X026177Y018763D01*
X026147Y018733D01*
X026030Y018733D01*
X025868Y018666D01*
X025744Y018543D01*
X025677Y018381D01*
X025677Y018206D01*
X025744Y018044D01*
X025805Y017983D01*
X025149Y017983D01*
X025066Y018066D01*
X024905Y018133D01*
X024730Y018133D01*
X024568Y018066D01*
X024444Y017943D01*
X024377Y017781D01*
X024377Y017606D01*
X024444Y017444D01*
X024568Y017320D01*
X024730Y017253D01*
X024905Y017253D01*
X025066Y017320D01*
X025149Y017403D01*
X026785Y017403D01*
X026868Y017320D01*
X027030Y017253D01*
X027205Y017253D01*
X027366Y017320D01*
X027490Y017444D01*
X027557Y017726D02*
X028579Y017726D01*
X028658Y017693D02*
X028474Y017769D01*
X028333Y017910D01*
X028257Y018094D01*
X028257Y018293D01*
X028333Y018477D01*
X028474Y018617D01*
X028658Y018693D01*
X029377Y018693D01*
X029560Y018617D01*
X029701Y018477D01*
X029777Y018293D01*
X029777Y018094D01*
X029701Y017910D01*
X029560Y017769D01*
X029377Y017693D01*
X028658Y017693D01*
X028278Y018044D02*
X027388Y018044D01*
X026846Y018044D02*
X026490Y018044D01*
X026728Y018363D02*
X028286Y018363D01*
X028629Y018681D02*
X027047Y018681D01*
X027008Y019000D02*
X032717Y019000D01*
X032477Y019318D02*
X025652Y019318D01*
X025334Y019000D02*
X026226Y019000D01*
X025904Y018681D02*
X025147Y018681D01*
X025157Y018706D02*
X025157Y018823D01*
X026087Y019753D01*
X026205Y019753D01*
X026366Y019820D01*
X026490Y019944D01*
X026557Y020106D01*
X026557Y020281D01*
X026490Y020443D01*
X026366Y020566D01*
X026205Y020633D01*
X026030Y020633D01*
X025868Y020566D01*
X025744Y020443D01*
X025677Y020281D01*
X025677Y020163D01*
X024747Y019233D01*
X024630Y019233D01*
X024468Y019166D01*
X024344Y019043D01*
X024277Y018881D01*
X024277Y018706D01*
X024344Y018544D01*
X024468Y018420D01*
X024630Y018353D01*
X024805Y018353D01*
X024966Y018420D01*
X025090Y018544D01*
X025157Y018706D01*
X024828Y018363D02*
X025677Y018363D01*
X025744Y018044D02*
X025088Y018044D01*
X024546Y018044D02*
X023078Y018044D01*
X022760Y017726D02*
X024377Y017726D01*
X024481Y017407D02*
X022441Y017407D01*
X022123Y017089D02*
X032002Y017089D01*
X031684Y016770D02*
X021804Y016770D01*
X021557Y016452D02*
X031365Y016452D01*
X031047Y016133D02*
X021379Y016133D01*
X020855Y016133D02*
X020167Y016133D01*
X019849Y015815D02*
X023833Y015815D01*
X023781Y015496D02*
X019530Y015496D01*
X019028Y015815D02*
X015835Y015815D01*
X015724Y015703D02*
X016157Y016137D01*
X016157Y016750D01*
X015724Y017183D01*
X015111Y017183D01*
X014677Y016750D01*
X014677Y016137D01*
X015111Y015703D01*
X015724Y015703D01*
X016154Y016133D02*
X019347Y016133D01*
X019665Y016452D02*
X016157Y016452D01*
X016137Y016770D02*
X019984Y016770D01*
X020302Y017089D02*
X015818Y017089D01*
X015016Y017089D02*
X011818Y017089D01*
X011724Y017183D02*
X012157Y016750D01*
X012157Y016137D01*
X011724Y015703D01*
X011111Y015703D01*
X010677Y016137D01*
X010677Y016750D01*
X011111Y017183D01*
X011724Y017183D01*
X012137Y016770D02*
X014698Y016770D01*
X014677Y016452D02*
X012157Y016452D01*
X012154Y016133D02*
X014681Y016133D01*
X014999Y015815D02*
X011835Y015815D01*
X010999Y015815D02*
X006274Y015815D01*
X006337Y016133D02*
X010681Y016133D01*
X010677Y016452D02*
X006194Y016452D01*
X006229Y016770D02*
X010698Y016770D01*
X011016Y017089D02*
X006337Y017089D01*
X006238Y017407D02*
X020621Y017407D01*
X020939Y017726D02*
X006185Y017726D01*
X006337Y018044D02*
X012177Y018044D01*
X012196Y017999D02*
X012343Y017852D01*
X012534Y017773D01*
X013300Y017773D01*
X013492Y017852D01*
X013638Y017999D01*
X013717Y018190D01*
X013717Y018397D01*
X013638Y018588D01*
X013492Y018734D01*
X013374Y018783D01*
X013404Y018793D01*
X013480Y018831D01*
X013549Y018881D01*
X013609Y018942D01*
X013659Y019010D01*
X013697Y019086D01*
X013724Y019167D01*
X013737Y019251D01*
X013737Y019293D01*
X012917Y019293D01*
X012097Y019293D01*
X012097Y019251D01*
X012110Y019167D01*
X012137Y019086D01*
X012175Y019010D01*
X012225Y018942D01*
X012285Y018881D01*
X012354Y018831D01*
X012430Y018793D01*
X012460Y018783D01*
X012343Y018734D01*
X012196Y018588D01*
X012117Y018397D01*
X012117Y018190D01*
X012196Y017999D01*
X012117Y018363D02*
X006283Y018363D01*
X006140Y018681D02*
X012290Y018681D01*
X012183Y019000D02*
X006337Y019000D01*
X006327Y019318D02*
X007085Y019318D01*
X007110Y019293D02*
X007524Y019293D01*
X007817Y019586D01*
X007817Y020000D01*
X007524Y020293D01*
X007110Y020293D01*
X006817Y020000D01*
X006817Y019586D01*
X007110Y019293D01*
X007549Y019318D02*
X009085Y019318D01*
X009110Y019293D02*
X009524Y019293D01*
X009817Y019586D01*
X009817Y020000D01*
X009524Y020293D01*
X009110Y020293D01*
X008817Y020000D01*
X008817Y019586D01*
X009110Y019293D01*
X009549Y019318D02*
X012097Y019318D01*
X012097Y019336D02*
X012110Y019420D01*
X012137Y019501D01*
X012175Y019576D01*
X012225Y019645D01*
X012285Y019705D01*
X012354Y019755D01*
X012430Y019794D01*
X012511Y019820D01*
X012595Y019833D01*
X012917Y019833D01*
X012917Y019293D01*
X012917Y019293D01*
X012917Y019293D01*
X012097Y019293D01*
X012097Y019336D01*
X012219Y019637D02*
X009817Y019637D01*
X009817Y019955D02*
X023169Y019955D01*
X022850Y019637D02*
X013615Y019637D01*
X013609Y019645D02*
X013549Y019705D01*
X013480Y019755D01*
X013404Y019794D01*
X013324Y019820D01*
X013240Y019833D01*
X012917Y019833D01*
X012917Y019293D01*
X013737Y019293D01*
X013737Y019336D01*
X013724Y019420D01*
X013697Y019501D01*
X013659Y019576D01*
X013609Y019645D01*
X013737Y019318D02*
X022532Y019318D01*
X022213Y019000D02*
X013651Y019000D01*
X013544Y018681D02*
X021895Y018681D01*
X021576Y018363D02*
X013717Y018363D01*
X013657Y018044D02*
X021258Y018044D01*
X023397Y018363D02*
X024607Y018363D01*
X024287Y018681D02*
X023715Y018681D01*
X024034Y019000D02*
X024326Y019000D01*
X024462Y019318D02*
X024832Y019318D01*
X024657Y019637D02*
X025150Y019637D01*
X025469Y019955D02*
X024577Y019955D01*
X024502Y020274D02*
X025677Y020274D01*
X025931Y020592D02*
X024552Y020592D01*
X024259Y020911D02*
X030224Y020911D01*
X030147Y020833D02*
X030030Y020833D01*
X029868Y020766D01*
X029744Y020643D01*
X029677Y020481D01*
X029677Y020306D01*
X029744Y020144D01*
X029868Y020020D01*
X030030Y019953D01*
X030205Y019953D01*
X030366Y020020D01*
X030490Y020144D01*
X030557Y020306D01*
X030557Y020423D01*
X033327Y023193D01*
X033977Y023193D01*
X034160Y023269D01*
X034301Y023410D01*
X034377Y023594D01*
X034377Y023793D01*
X034301Y023977D01*
X034160Y024117D01*
X033977Y024193D01*
X033907Y024193D01*
X033907Y024351D01*
X033863Y024458D01*
X033781Y024539D01*
X033457Y024863D01*
X033457Y024981D01*
X033390Y025143D01*
X033266Y025266D01*
X033105Y025333D01*
X032930Y025333D01*
X032768Y025266D01*
X032644Y025143D01*
X032577Y024981D01*
X032577Y024806D01*
X032644Y024644D01*
X032768Y024520D01*
X032930Y024453D01*
X033047Y024453D01*
X033307Y024193D01*
X033258Y024193D01*
X033074Y024117D01*
X032933Y023977D01*
X032857Y023793D01*
X032857Y023594D01*
X032872Y023558D01*
X030147Y020833D01*
X029723Y020592D02*
X026304Y020592D01*
X026557Y020274D02*
X029690Y020274D01*
X030025Y019955D02*
X026495Y019955D01*
X025971Y019637D02*
X032542Y019637D01*
X033292Y019637D02*
X042157Y019637D01*
X042157Y019955D02*
X030209Y019955D01*
X030544Y020274D02*
X042157Y020274D01*
X042157Y020592D02*
X030726Y020592D01*
X031045Y020911D02*
X042157Y020911D01*
X042157Y021229D02*
X031363Y021229D01*
X031682Y021548D02*
X042157Y021548D01*
X042157Y021866D02*
X039526Y021866D01*
X039575Y021915D02*
X039423Y021763D01*
X039224Y021680D01*
X039009Y021680D01*
X038810Y021763D01*
X038657Y021915D01*
X038575Y022114D01*
X038575Y022329D01*
X038657Y022528D01*
X038810Y022680D01*
X039009Y022763D01*
X039224Y022763D01*
X039423Y022680D01*
X039575Y022528D01*
X039657Y022329D01*
X039657Y022114D01*
X039575Y021915D01*
X039657Y022185D02*
X040073Y022185D01*
X040111Y022147D02*
X040373Y021996D01*
X040666Y021918D01*
X040969Y021918D01*
X041261Y021996D01*
X041524Y022147D01*
X041738Y022362D01*
X041889Y022624D01*
X041968Y022917D01*
X041968Y023220D01*
X041889Y023512D01*
X041738Y023775D01*
X041524Y023989D01*
X041516Y023993D01*
X041524Y023998D01*
X041738Y024212D01*
X041889Y024474D01*
X041968Y024767D01*
X041968Y025070D01*
X041889Y025363D01*
X041738Y025625D01*
X041524Y025839D01*
X041261Y025991D01*
X040969Y026069D01*
X040666Y026069D01*
X040373Y025991D01*
X040111Y025839D01*
X039896Y025625D01*
X039745Y025363D01*
X039667Y025070D01*
X039667Y024767D01*
X039745Y024474D01*
X039896Y024212D01*
X040111Y023998D01*
X040118Y023993D01*
X040111Y023989D01*
X039896Y023775D01*
X039745Y023512D01*
X039667Y023220D01*
X039667Y022917D01*
X039745Y022624D01*
X039896Y022362D01*
X040111Y022147D01*
X039815Y022503D02*
X039585Y022503D01*
X039692Y022822D02*
X032956Y022822D01*
X033274Y023140D02*
X037458Y023140D01*
X037476Y023096D02*
X037394Y023295D01*
X037394Y023510D01*
X037476Y023709D01*
X037629Y023862D01*
X037828Y023944D01*
X038043Y023944D01*
X038242Y023862D01*
X038394Y023709D01*
X038476Y023510D01*
X038476Y023295D01*
X038394Y023096D01*
X038242Y022944D01*
X038043Y022862D01*
X037828Y022862D01*
X037629Y022944D01*
X037476Y023096D01*
X037301Y023410D02*
X037377Y023594D01*
X037377Y023793D01*
X037301Y023977D01*
X037160Y024117D01*
X036977Y024193D01*
X036310Y024193D01*
X036357Y024306D01*
X036357Y024423D01*
X037187Y025253D01*
X037305Y025253D01*
X037466Y025320D01*
X037540Y025394D01*
X037629Y025306D01*
X037828Y025224D01*
X038043Y025224D01*
X038242Y025306D01*
X038394Y025458D01*
X038476Y025657D01*
X038476Y025873D01*
X038394Y026072D01*
X038242Y026224D01*
X038043Y026306D01*
X037828Y026306D01*
X037629Y026224D01*
X037476Y026072D01*
X037472Y026061D01*
X037466Y026066D01*
X037305Y026133D01*
X037130Y026133D01*
X036968Y026066D01*
X036844Y025943D01*
X036777Y025781D01*
X036777Y025663D01*
X035947Y024833D01*
X035830Y024833D01*
X035668Y024766D01*
X035544Y024643D01*
X035477Y024481D01*
X035477Y024306D01*
X035544Y024144D01*
X035668Y024020D01*
X035830Y023953D01*
X035924Y023953D01*
X035857Y023793D01*
X035857Y023594D01*
X035933Y023410D01*
X036074Y023269D01*
X036258Y023193D01*
X036977Y023193D01*
X037160Y023269D01*
X037301Y023410D01*
X037321Y023459D02*
X037394Y023459D01*
X037377Y023777D02*
X037544Y023777D01*
X037699Y024096D02*
X037182Y024096D01*
X037476Y024277D02*
X037629Y024125D01*
X037828Y024043D01*
X038043Y024043D01*
X038242Y024125D01*
X038394Y024277D01*
X038476Y024476D01*
X038476Y024692D01*
X038394Y024890D01*
X038242Y025043D01*
X038043Y025125D01*
X037828Y025125D01*
X037629Y025043D01*
X037476Y024890D01*
X037394Y024692D01*
X037394Y024476D01*
X037476Y024277D01*
X037420Y024414D02*
X036357Y024414D01*
X036667Y024733D02*
X037411Y024733D01*
X037650Y025051D02*
X036985Y025051D01*
X036483Y025370D02*
X016741Y025370D01*
X016700Y025270D02*
X016787Y025480D01*
X016787Y025707D01*
X016700Y025916D01*
X016540Y026077D01*
X016330Y026163D01*
X016104Y026163D01*
X015894Y026077D01*
X015734Y025916D01*
X015647Y025707D01*
X015647Y025480D01*
X015734Y025270D01*
X015894Y025110D01*
X016104Y025023D01*
X016330Y025023D01*
X016540Y025110D01*
X016700Y025270D01*
X016398Y025051D02*
X028006Y025051D01*
X027977Y024981D02*
X028044Y025143D01*
X028168Y025266D01*
X028330Y025333D01*
X028505Y025333D01*
X028666Y025266D01*
X028790Y025143D01*
X028857Y024981D01*
X028857Y024863D01*
X029081Y024639D01*
X029163Y024558D01*
X029207Y024451D01*
X029207Y024193D01*
X029277Y024193D01*
X029460Y024117D01*
X029601Y023977D01*
X029677Y023793D01*
X029677Y023594D01*
X029601Y023410D01*
X029460Y023269D01*
X029277Y023193D01*
X028558Y023193D01*
X028374Y023269D01*
X028233Y023410D01*
X028157Y023594D01*
X028157Y023793D01*
X028233Y023977D01*
X028374Y024117D01*
X028558Y024193D01*
X028627Y024193D01*
X028627Y024273D01*
X028447Y024453D01*
X028330Y024453D01*
X028168Y024520D01*
X028044Y024644D01*
X027977Y024806D01*
X027977Y024981D01*
X028007Y024733D02*
X010788Y024733D01*
X011106Y024414D02*
X028486Y024414D01*
X028352Y024096D02*
X011425Y024096D01*
X011743Y023777D02*
X012994Y023777D01*
X013010Y023793D02*
X012717Y023500D01*
X012717Y023086D01*
X013010Y022793D01*
X012869Y022652D01*
X009049Y026472D01*
X009049Y026519D01*
X008966Y026718D01*
X008814Y026870D01*
X008615Y026953D01*
X008400Y026953D01*
X008201Y026870D01*
X008049Y026718D01*
X007966Y026519D01*
X007966Y026304D01*
X008049Y026105D01*
X008201Y025953D01*
X008400Y025870D01*
X008615Y025870D01*
X008767Y025933D01*
X012653Y022047D01*
X012759Y022003D01*
X012800Y022003D01*
X013010Y021793D01*
X013424Y021793D01*
X013717Y022086D01*
X013717Y022500D01*
X013424Y022793D01*
X013010Y022793D01*
X013424Y022793D01*
X013717Y023086D01*
X013717Y023500D01*
X013424Y023793D01*
X013010Y023793D01*
X013440Y023777D02*
X028157Y023777D01*
X028213Y023459D02*
X013717Y023459D01*
X013717Y023140D02*
X032454Y023140D01*
X032460Y023269D02*
X032601Y023410D01*
X032677Y023594D01*
X032677Y023793D01*
X032601Y023977D01*
X032460Y024117D01*
X032277Y024193D01*
X031558Y024193D01*
X031374Y024117D01*
X031233Y023977D01*
X031157Y023793D01*
X031157Y023594D01*
X031233Y023410D01*
X031374Y023269D01*
X031558Y023193D01*
X032277Y023193D01*
X032460Y023269D01*
X032621Y023459D02*
X032772Y023459D01*
X032857Y023777D02*
X032677Y023777D01*
X032482Y024096D02*
X033052Y024096D01*
X033086Y024414D02*
X029207Y024414D01*
X028988Y024733D02*
X032607Y024733D01*
X032606Y025051D02*
X028828Y025051D01*
X029482Y024096D02*
X031352Y024096D01*
X031157Y023777D02*
X029677Y023777D01*
X029621Y023459D02*
X031213Y023459D01*
X032135Y022822D02*
X013453Y022822D01*
X013714Y022503D02*
X031817Y022503D01*
X031498Y022185D02*
X013717Y022185D01*
X013497Y021866D02*
X031180Y021866D01*
X030861Y021548D02*
X009194Y021548D01*
X009166Y021520D02*
X009290Y021644D01*
X009357Y021806D01*
X009357Y021923D01*
X010287Y022853D01*
X010405Y022853D01*
X010566Y022920D01*
X010690Y023044D01*
X010757Y023206D01*
X010757Y023381D01*
X010690Y023543D01*
X010566Y023666D01*
X010405Y023733D01*
X010230Y023733D01*
X010068Y023666D01*
X009944Y023543D01*
X009877Y023381D01*
X009877Y023263D01*
X008947Y022333D01*
X008830Y022333D01*
X008668Y022266D01*
X008544Y022143D01*
X008477Y021981D01*
X008477Y021806D01*
X008544Y021644D01*
X008668Y021520D01*
X008830Y021453D01*
X009005Y021453D01*
X009166Y021520D01*
X009210Y021393D02*
X008917Y021100D01*
X008917Y020686D01*
X009210Y020393D01*
X009624Y020393D01*
X009917Y020686D01*
X009917Y021100D01*
X009624Y021393D01*
X009210Y021393D01*
X009046Y021229D02*
X008375Y021229D01*
X008390Y021244D02*
X008457Y021406D01*
X008457Y021581D01*
X008390Y021743D01*
X008266Y021866D01*
X008477Y021866D01*
X008266Y021866D02*
X008105Y021933D01*
X007930Y021933D01*
X007768Y021866D01*
X006325Y021866D01*
X006337Y022185D02*
X007618Y022185D01*
X007517Y022286D02*
X007810Y021993D01*
X008224Y021993D01*
X008517Y022286D01*
X008517Y022700D01*
X008224Y022993D01*
X007810Y022993D01*
X007517Y022700D01*
X007517Y022286D01*
X007517Y022503D02*
X006142Y022503D01*
X006281Y022822D02*
X007638Y022822D01*
X007810Y022993D02*
X008224Y022993D01*
X008517Y023286D01*
X008517Y023700D01*
X008224Y023993D01*
X007810Y023993D01*
X007517Y023700D01*
X007517Y023286D01*
X007810Y022993D01*
X007663Y023140D02*
X006337Y023140D01*
X006187Y023459D02*
X007517Y023459D01*
X007594Y023777D02*
X006236Y023777D01*
X006337Y024096D02*
X010604Y024096D01*
X010286Y024414D02*
X006231Y024414D01*
X005403Y024414D02*
X005231Y024414D01*
X004403Y024414D02*
X003977Y024414D01*
X003977Y024096D02*
X004297Y024096D01*
X004398Y023777D02*
X003977Y023777D01*
X003977Y023459D02*
X004447Y023459D01*
X004297Y023140D02*
X003977Y023140D01*
X003977Y022822D02*
X004353Y022822D01*
X004492Y022503D02*
X003977Y022503D01*
X003977Y022185D02*
X004297Y022185D01*
X004309Y021866D02*
X003977Y021866D01*
X003977Y021548D02*
X004536Y021548D01*
X004297Y021229D02*
X003977Y021229D01*
X003977Y020911D02*
X004297Y020911D01*
X004581Y020592D02*
X003977Y020592D01*
X003977Y020274D02*
X004297Y020274D01*
X004297Y019955D02*
X003977Y019955D01*
X003977Y019637D02*
X004538Y019637D01*
X004307Y019318D02*
X003977Y019318D01*
X003977Y019000D02*
X004297Y019000D01*
X004494Y018681D02*
X003977Y018681D01*
X003977Y018363D02*
X004351Y018363D01*
X004297Y018044D02*
X003977Y018044D01*
X003977Y017726D02*
X004449Y017726D01*
X004396Y017407D02*
X003977Y017407D01*
X003977Y017089D02*
X004297Y017089D01*
X004405Y016770D02*
X003977Y016770D01*
X003977Y016452D02*
X004440Y016452D01*
X004297Y016133D02*
X003977Y016133D01*
X003977Y015815D02*
X004360Y015815D01*
X004485Y015496D02*
X003977Y015496D01*
X003977Y015178D02*
X004297Y015178D01*
X004316Y014859D02*
X003977Y014859D01*
X003977Y014541D02*
X004501Y014541D01*
X004277Y014222D02*
X003977Y014222D01*
X003977Y013904D02*
X004277Y013904D01*
X004277Y014093D02*
X004817Y014093D01*
X004817Y014093D01*
X004277Y014093D01*
X004561Y013585D02*
X003977Y013585D01*
X003977Y013267D02*
X004297Y013267D01*
X004297Y012948D02*
X003977Y012948D01*
X003977Y012630D02*
X004545Y012630D01*
X004300Y012311D02*
X003977Y012311D01*
X003977Y011993D02*
X004297Y011993D01*
X004501Y011674D02*
X003977Y011674D01*
X003977Y011356D02*
X042157Y011356D01*
X042157Y011674D02*
X040828Y011674D01*
X041232Y011993D02*
X042157Y011993D01*
X042157Y012311D02*
X041386Y012311D01*
X041430Y012630D02*
X042157Y012630D01*
X042157Y012948D02*
X041374Y012948D01*
X041189Y013267D02*
X042157Y013267D01*
X042157Y013585D02*
X040678Y013585D01*
X040156Y013585D02*
X040112Y013585D01*
X040164Y013904D02*
X042157Y013904D01*
X042157Y014222D02*
X039975Y014222D01*
X040100Y014541D02*
X042157Y014541D01*
X042157Y014859D02*
X040164Y014859D01*
X040004Y015178D02*
X042157Y015178D01*
X042157Y015496D02*
X040164Y015496D01*
X040113Y015815D02*
X042157Y015815D01*
X042157Y016133D02*
X039965Y016133D01*
X040172Y016452D02*
X042157Y016452D01*
X042157Y016770D02*
X040562Y016770D01*
X040272Y016770D02*
X040148Y016770D01*
X039350Y016770D02*
X039350Y016770D01*
X039404Y017726D02*
X036955Y017726D01*
X036877Y017693D02*
X037060Y017769D01*
X037201Y017910D01*
X037277Y018094D01*
X037277Y018293D01*
X037201Y018477D01*
X037060Y018617D01*
X036877Y018693D01*
X036158Y018693D01*
X035974Y018617D01*
X035833Y018477D01*
X035757Y018293D01*
X035757Y018094D01*
X035833Y017910D01*
X035974Y017769D01*
X036158Y017693D01*
X036877Y017693D01*
X037257Y018044D02*
X039439Y018044D01*
X039584Y018363D02*
X037248Y018363D01*
X036905Y018681D02*
X039953Y018681D01*
X040881Y018681D02*
X042157Y018681D01*
X042157Y018363D02*
X041250Y018363D01*
X041395Y018044D02*
X042157Y018044D01*
X042157Y017726D02*
X041430Y017726D01*
X041366Y017407D02*
X042157Y017407D01*
X042157Y017089D02*
X041158Y017089D01*
X042157Y019000D02*
X033721Y019000D01*
X033905Y018681D02*
X036129Y018681D01*
X035786Y018363D02*
X034248Y018363D01*
X034257Y018044D02*
X035778Y018044D01*
X036079Y017726D02*
X033955Y017726D01*
X032778Y018044D02*
X032757Y018044D01*
X032748Y018363D02*
X032786Y018363D01*
X033129Y018681D02*
X032405Y018681D01*
X031629Y018681D02*
X029405Y018681D01*
X029748Y018363D02*
X031286Y018363D01*
X031278Y018044D02*
X029757Y018044D01*
X029455Y017726D02*
X031579Y017726D01*
X033402Y019318D02*
X042157Y019318D01*
X038706Y021866D02*
X038345Y021866D01*
X038394Y021915D02*
X038242Y021763D01*
X038043Y021680D01*
X037828Y021680D01*
X037629Y021763D01*
X037476Y021915D01*
X037394Y022114D01*
X037394Y022329D01*
X037476Y022528D01*
X037629Y022680D01*
X037828Y022763D01*
X038043Y022763D01*
X038242Y022680D01*
X038394Y022528D01*
X038476Y022329D01*
X038476Y022114D01*
X038394Y021915D01*
X038476Y022185D02*
X038575Y022185D01*
X038647Y022503D02*
X038404Y022503D01*
X038810Y022944D02*
X039009Y022862D01*
X039224Y022862D01*
X039423Y022944D01*
X039575Y023096D01*
X039657Y023295D01*
X039657Y023510D01*
X039575Y023709D01*
X039423Y023862D01*
X039224Y023944D01*
X039009Y023944D01*
X038810Y023862D01*
X038657Y023709D01*
X038575Y023510D01*
X038575Y023295D01*
X038657Y023096D01*
X038810Y022944D01*
X038639Y023140D02*
X038412Y023140D01*
X038476Y023459D02*
X038575Y023459D01*
X038725Y023777D02*
X038326Y023777D01*
X038171Y024096D02*
X038880Y024096D01*
X038810Y024125D02*
X039009Y024043D01*
X039224Y024043D01*
X039423Y024125D01*
X039575Y024277D01*
X039657Y024476D01*
X039657Y024692D01*
X039575Y024890D01*
X039423Y025043D01*
X039224Y025125D01*
X039009Y025125D01*
X038810Y025043D01*
X038657Y024890D01*
X038575Y024692D01*
X038575Y024476D01*
X038657Y024277D01*
X038810Y024125D01*
X038601Y024414D02*
X038451Y024414D01*
X038459Y024733D02*
X038592Y024733D01*
X038831Y025051D02*
X038221Y025051D01*
X038305Y025370D02*
X038594Y025370D01*
X038612Y025328D02*
X038679Y025260D01*
X038767Y025224D01*
X039465Y025224D01*
X039553Y025260D01*
X039621Y025328D01*
X039657Y025416D01*
X039657Y026114D01*
X039621Y026202D01*
X039553Y026270D01*
X039465Y026306D01*
X038767Y026306D01*
X038679Y026270D01*
X038612Y026202D01*
X038575Y026114D01*
X038575Y025416D01*
X038612Y025328D01*
X038575Y025688D02*
X038476Y025688D01*
X038421Y026007D02*
X038575Y026007D01*
X039657Y026007D02*
X040433Y026007D01*
X039960Y025688D02*
X039657Y025688D01*
X039638Y025370D02*
X039749Y025370D01*
X039667Y025051D02*
X039402Y025051D01*
X039640Y024733D02*
X039676Y024733D01*
X039632Y024414D02*
X039780Y024414D01*
X040013Y024096D02*
X039352Y024096D01*
X039507Y023777D02*
X039899Y023777D01*
X039731Y023459D02*
X039657Y023459D01*
X039667Y023140D02*
X039593Y023140D01*
X041561Y022185D02*
X042157Y022185D01*
X042157Y022503D02*
X041820Y022503D01*
X041942Y022822D02*
X042157Y022822D01*
X042157Y023140D02*
X041968Y023140D01*
X041904Y023459D02*
X042157Y023459D01*
X042157Y023777D02*
X041735Y023777D01*
X041622Y024096D02*
X042157Y024096D01*
X042157Y024414D02*
X041855Y024414D01*
X041958Y024733D02*
X042157Y024733D01*
X042157Y025051D02*
X041968Y025051D01*
X041885Y025370D02*
X042157Y025370D01*
X042157Y025688D02*
X041674Y025688D01*
X041201Y026007D02*
X042157Y026007D01*
X042157Y026325D02*
X009195Y026325D01*
X008997Y026644D02*
X011859Y026644D01*
X011910Y026593D02*
X012324Y026593D01*
X012617Y026886D01*
X012617Y027300D01*
X012324Y027593D01*
X011910Y027593D01*
X011617Y027300D01*
X011617Y026886D01*
X011910Y026593D01*
X012375Y026644D02*
X014859Y026644D01*
X014910Y026593D02*
X015324Y026593D01*
X015617Y026886D01*
X015617Y027300D01*
X015324Y027593D01*
X014910Y027593D01*
X014617Y027300D01*
X014617Y026886D01*
X014910Y026593D01*
X015375Y026644D02*
X042157Y026644D01*
X042157Y026962D02*
X015617Y026962D01*
X015617Y027281D02*
X042157Y027281D01*
X042157Y027599D02*
X009049Y027599D01*
X009049Y027700D02*
X008966Y027899D01*
X008814Y028051D01*
X008615Y028134D01*
X008400Y028134D01*
X008201Y028051D01*
X008049Y027899D01*
X007966Y027700D01*
X007966Y027485D01*
X008049Y027286D01*
X008201Y027134D01*
X008400Y027051D01*
X008615Y027051D01*
X008814Y027134D01*
X008966Y027286D01*
X009049Y027485D01*
X009049Y027700D01*
X008948Y027918D02*
X042157Y027918D01*
X042157Y028236D02*
X008387Y028236D01*
X008068Y027918D02*
X007888Y027918D01*
X007888Y027919D02*
X007878Y027970D01*
X007858Y028017D01*
X007830Y028059D01*
X007793Y028096D01*
X007751Y028124D01*
X007704Y028144D01*
X007653Y028154D01*
X007327Y028154D01*
X007327Y027593D01*
X007327Y027593D01*
X007888Y027593D01*
X007888Y027919D01*
X007888Y027599D02*
X007966Y027599D01*
X007888Y027593D02*
X007327Y027593D01*
X007327Y027593D01*
X007327Y028154D01*
X007000Y028154D01*
X006949Y028144D01*
X006902Y028124D01*
X006860Y028096D01*
X006823Y028059D01*
X006795Y028017D01*
X006775Y027970D01*
X006765Y027919D01*
X006765Y027593D01*
X007326Y027593D01*
X007326Y027593D01*
X006765Y027593D01*
X006765Y027266D01*
X006775Y027215D01*
X006795Y027168D01*
X006823Y027126D01*
X006860Y027089D01*
X006902Y027061D01*
X006949Y027041D01*
X007000Y027031D01*
X007327Y027031D01*
X007653Y027031D01*
X007704Y027041D01*
X007751Y027061D01*
X007793Y027089D01*
X007830Y027126D01*
X007858Y027168D01*
X007878Y027215D01*
X007888Y027266D01*
X007888Y027593D01*
X007888Y027281D02*
X008054Y027281D01*
X007633Y026870D02*
X007434Y026953D01*
X007219Y026953D01*
X007020Y026870D01*
X006868Y026718D01*
X006785Y026519D01*
X006785Y026304D01*
X006868Y026105D01*
X007020Y025953D01*
X007219Y025870D01*
X007434Y025870D01*
X007633Y025953D01*
X007785Y026105D01*
X007868Y026304D01*
X007868Y026519D01*
X007785Y026718D01*
X007633Y026870D01*
X007816Y026644D02*
X008018Y026644D01*
X007966Y026325D02*
X007868Y026325D01*
X007687Y026007D02*
X008147Y026007D01*
X009012Y025688D02*
X003977Y025688D01*
X003977Y025370D02*
X009330Y025370D01*
X009649Y025051D02*
X003977Y025051D01*
X003977Y024733D02*
X009967Y024733D01*
X010469Y025051D02*
X012036Y025051D01*
X012104Y025023D02*
X012330Y025023D01*
X012540Y025110D01*
X012700Y025270D01*
X012787Y025480D01*
X012787Y025707D01*
X012700Y025916D01*
X012540Y026077D01*
X012330Y026163D01*
X012104Y026163D01*
X011894Y026077D01*
X011734Y025916D01*
X011647Y025707D01*
X011647Y025480D01*
X011734Y025270D01*
X011894Y025110D01*
X012104Y025023D01*
X012398Y025051D02*
X016036Y025051D01*
X015693Y025370D02*
X012741Y025370D01*
X012787Y025688D02*
X015647Y025688D01*
X015824Y026007D02*
X012610Y026007D01*
X011824Y026007D02*
X009514Y026007D01*
X009832Y025688D02*
X011647Y025688D01*
X011693Y025370D02*
X010151Y025370D01*
X010923Y023777D02*
X008440Y023777D01*
X008517Y023459D02*
X009909Y023459D01*
X009754Y023140D02*
X008371Y023140D01*
X008396Y022822D02*
X009435Y022822D01*
X009117Y022503D02*
X008517Y022503D01*
X008586Y022185D02*
X008416Y022185D01*
X007768Y021866D02*
X007644Y021743D01*
X007577Y021581D01*
X007577Y021463D01*
X007507Y021393D01*
X007210Y021393D01*
X006917Y021100D01*
X006917Y020686D01*
X007210Y020393D01*
X007624Y020393D01*
X007917Y020686D01*
X007917Y020983D01*
X007987Y021053D01*
X008105Y021053D01*
X008266Y021120D01*
X008390Y021244D01*
X008457Y021548D02*
X008640Y021548D01*
X009357Y021866D02*
X012937Y021866D01*
X012515Y022185D02*
X009619Y022185D01*
X009937Y022503D02*
X012197Y022503D01*
X011878Y022822D02*
X010256Y022822D01*
X010730Y023140D02*
X011560Y023140D01*
X011241Y023459D02*
X010725Y023459D01*
X012062Y023459D02*
X012717Y023459D01*
X012717Y023140D02*
X012380Y023140D01*
X012699Y022822D02*
X012981Y022822D01*
X009788Y021229D02*
X020031Y021229D01*
X020068Y021266D02*
X019944Y021143D01*
X019877Y020981D01*
X019877Y020806D01*
X019944Y020644D01*
X020068Y020520D01*
X020230Y020453D01*
X020405Y020453D01*
X020566Y020520D01*
X020649Y020603D01*
X020909Y020603D01*
X021030Y020553D01*
X021205Y020553D01*
X021366Y020620D01*
X021490Y020744D01*
X021557Y020906D01*
X021557Y021081D01*
X021490Y021243D01*
X021366Y021366D01*
X021205Y021433D01*
X021030Y021433D01*
X020868Y021366D01*
X020744Y021243D01*
X020720Y021183D01*
X020649Y021183D01*
X020566Y021266D01*
X020405Y021333D01*
X020230Y021333D01*
X020068Y021266D01*
X020603Y021229D02*
X020739Y021229D01*
X021496Y021229D02*
X030543Y021229D01*
X032000Y021866D02*
X037525Y021866D01*
X037394Y022185D02*
X032319Y022185D01*
X032637Y022503D02*
X037466Y022503D01*
X035913Y023459D02*
X034321Y023459D01*
X034377Y023777D02*
X035857Y023777D01*
X035592Y024096D02*
X034182Y024096D01*
X033881Y024414D02*
X035477Y024414D01*
X035634Y024733D02*
X033588Y024733D01*
X033428Y025051D02*
X036165Y025051D01*
X036777Y025688D02*
X016787Y025688D01*
X016610Y026007D02*
X036908Y026007D01*
X037516Y025370D02*
X037565Y025370D01*
X042157Y028555D02*
X008806Y028555D01*
X008996Y028873D02*
X012602Y028873D01*
X012817Y028873D01*
X012817Y029393D01*
X012817Y029393D01*
X012817Y028873D01*
X013032Y028873D01*
X013331Y029172D01*
X013610Y028893D01*
X014024Y028893D01*
X014317Y029186D01*
X014317Y029600D01*
X014024Y029893D01*
X013610Y029893D01*
X013331Y029615D01*
X013032Y029913D01*
X012817Y029913D01*
X012602Y029913D01*
X012297Y029609D01*
X012297Y029393D01*
X012297Y029178D01*
X012602Y028873D01*
X012817Y028873D02*
X012817Y028873D01*
X013032Y028873D02*
X040754Y028873D01*
X040490Y029192D02*
X014317Y029192D01*
X014317Y029510D02*
X040361Y029510D01*
X040327Y029829D02*
X014089Y029829D01*
X013545Y029829D02*
X013117Y029829D01*
X012817Y029829D02*
X012817Y029829D01*
X012817Y029913D02*
X012817Y029393D01*
X012297Y029393D01*
X012817Y029393D01*
X012817Y029393D01*
X012817Y029393D01*
X012817Y029913D01*
X012517Y029829D02*
X008936Y029829D01*
X009050Y029510D02*
X012297Y029510D01*
X012297Y029192D02*
X009068Y029192D01*
X008690Y030147D02*
X040380Y030147D01*
X023975Y020911D02*
X021557Y020911D01*
X021299Y020592D02*
X023682Y020592D01*
X023487Y020274D02*
X009544Y020274D01*
X009823Y020592D02*
X019996Y020592D01*
X019877Y020911D02*
X009917Y020911D01*
X009011Y020592D02*
X007823Y020592D01*
X007917Y020911D02*
X008917Y020911D01*
X009090Y020274D02*
X007544Y020274D01*
X007817Y019955D02*
X008817Y019955D01*
X008817Y019637D02*
X007817Y019637D01*
X007090Y020274D02*
X006337Y020274D01*
X006337Y019955D02*
X006817Y019955D01*
X006817Y019637D02*
X006096Y019637D01*
X006053Y020592D02*
X007011Y020592D01*
X006917Y020911D02*
X006337Y020911D01*
X006337Y021229D02*
X007046Y021229D01*
X007577Y021548D02*
X006098Y021548D01*
X006966Y026007D02*
X003977Y026007D01*
X003977Y026325D02*
X006785Y026325D01*
X006837Y026644D02*
X003977Y026644D01*
X003977Y026962D02*
X011617Y026962D01*
X011617Y027281D02*
X008961Y027281D01*
X007327Y027281D02*
X007327Y027281D01*
X007327Y027031D02*
X007327Y027593D01*
X007327Y027593D01*
X007327Y027031D01*
X006765Y027281D02*
X003977Y027281D01*
X003977Y027599D02*
X006765Y027599D01*
X006765Y027918D02*
X003977Y027918D01*
X003977Y028236D02*
X007447Y028236D01*
X007327Y027918D02*
X007327Y027918D01*
X007327Y027599D02*
X007327Y027599D01*
X007028Y028555D02*
X003977Y028555D01*
X005380Y028873D02*
X006838Y028873D01*
X006767Y029192D02*
X005644Y029192D01*
X005773Y029510D02*
X006784Y029510D01*
X006898Y029829D02*
X005807Y029829D01*
X005754Y030147D02*
X007144Y030147D01*
X012617Y027281D02*
X014617Y027281D01*
X014617Y026962D02*
X012617Y026962D01*
X012817Y029192D02*
X012817Y029192D01*
X012817Y029510D02*
X012817Y029510D01*
X020638Y020592D02*
X020935Y020592D01*
X020677Y016452D02*
X020486Y016452D01*
X018710Y015496D02*
X006149Y015496D01*
X006337Y015178D02*
X018391Y015178D01*
X017861Y014859D02*
X006318Y014859D01*
X006105Y014541D02*
X017777Y014541D01*
X017966Y014222D02*
X006337Y014222D01*
X005501Y011674D02*
X005133Y011674D01*
X003977Y011037D02*
X042157Y011037D01*
X042157Y010719D02*
X003977Y010719D01*
X009057Y006897D02*
X009213Y006897D01*
X010021Y006897D02*
X010213Y006897D01*
X010117Y006800D02*
X010117Y006386D01*
X010410Y006093D01*
X010824Y006093D01*
X011117Y006386D01*
X011117Y006800D01*
X010824Y007093D01*
X010410Y007093D01*
X010117Y006800D01*
X010117Y006578D02*
X010117Y006578D01*
X009991Y006260D02*
X010243Y006260D01*
X010991Y006260D02*
X016676Y006260D01*
X016525Y006578D02*
X011117Y006578D01*
X011021Y006897D02*
X016417Y006897D01*
X017302Y007215D02*
X017504Y007215D01*
X017569Y007534D02*
X017265Y007534D01*
X017417Y007852D02*
X017417Y007852D01*
X017347Y008171D02*
X017487Y008171D01*
X017497Y006578D02*
X017309Y006578D01*
X017448Y006260D02*
X017158Y006260D01*
X016417Y005941D02*
X009272Y005941D01*
X010095Y005623D02*
X010139Y005623D01*
X010117Y005304D02*
X010117Y005304D01*
X009917Y004986D02*
X010317Y004986D01*
X011095Y005623D02*
X016417Y005623D01*
X016654Y004349D02*
X005757Y004349D01*
X006325Y005623D02*
X008409Y005623D01*
X008277Y005941D02*
X006498Y005941D01*
X006432Y006260D02*
X008277Y006260D01*
X025849Y004986D02*
X027699Y004986D01*
X028018Y005304D02*
X026038Y005304D01*
X026357Y005623D02*
X028336Y005623D01*
X029028Y005304D02*
X040554Y005304D01*
X040390Y004986D02*
X031147Y004986D01*
X031190Y004943D02*
X031066Y005066D01*
X030905Y005133D01*
X030730Y005133D01*
X030568Y005066D01*
X030485Y004983D01*
X029849Y004983D01*
X029766Y005066D01*
X029605Y005133D01*
X029430Y005133D01*
X029268Y005066D01*
X029144Y004943D01*
X029077Y004781D01*
X029077Y004606D01*
X029144Y004444D01*
X029268Y004320D01*
X029430Y004253D01*
X029605Y004253D01*
X029766Y004320D01*
X029849Y004403D01*
X030485Y004403D01*
X030568Y004320D01*
X030730Y004253D01*
X030905Y004253D01*
X031066Y004320D01*
X031190Y004444D01*
X031257Y004606D01*
X031257Y004781D01*
X031190Y004943D01*
X031257Y004667D02*
X040327Y004667D01*
X040351Y004349D02*
X031095Y004349D01*
X030539Y004349D02*
X029795Y004349D01*
X029239Y004349D02*
X028383Y004349D01*
X028064Y004030D02*
X040468Y004030D01*
X040920Y005623D02*
X034254Y005623D01*
X034124Y005493D02*
X034417Y005786D01*
X034417Y006200D01*
X034124Y006493D01*
X033710Y006493D01*
X033417Y006200D01*
X033417Y005786D01*
X033710Y005493D01*
X034124Y005493D01*
X033580Y005623D02*
X031323Y005623D01*
X031290Y005544D02*
X031357Y005706D01*
X031357Y005823D01*
X032687Y007153D01*
X032805Y007153D01*
X032966Y007220D01*
X033090Y007344D01*
X033157Y007506D01*
X033157Y007681D01*
X033090Y007843D01*
X032966Y007966D01*
X032805Y008033D01*
X032630Y008033D01*
X032468Y007966D01*
X032344Y007843D01*
X032277Y007681D01*
X032277Y007563D01*
X030947Y006233D01*
X030830Y006233D01*
X030668Y006166D01*
X030544Y006043D01*
X030477Y005881D01*
X030477Y005706D01*
X030544Y005544D01*
X030668Y005420D01*
X030830Y005353D01*
X031005Y005353D01*
X031166Y005420D01*
X031290Y005544D01*
X030511Y005623D02*
X029257Y005623D01*
X029191Y005941D02*
X030502Y005941D01*
X030973Y006260D02*
X027120Y006260D01*
X027446Y006578D02*
X031292Y006578D01*
X031610Y006897D02*
X027409Y006897D01*
X026749Y007215D02*
X031929Y007215D01*
X032247Y007534D02*
X027068Y007534D01*
X027983Y007852D02*
X032354Y007852D01*
X033080Y007852D02*
X041380Y007852D01*
X041373Y008171D02*
X028117Y008171D01*
X028028Y008489D02*
X041373Y008489D01*
X041515Y008808D02*
X027939Y008808D01*
X028117Y009126D02*
X037240Y009126D01*
X037879Y009126D02*
X042157Y009126D01*
X042157Y009445D02*
X038057Y009445D01*
X038057Y009763D02*
X039887Y009763D01*
X039912Y009703D02*
X040052Y009563D01*
X040235Y009487D01*
X040948Y009487D01*
X041130Y009563D01*
X041270Y009703D01*
X041346Y009886D01*
X041346Y010084D01*
X041270Y010266D01*
X041130Y010406D01*
X040948Y010482D01*
X040235Y010482D01*
X040052Y010406D01*
X039912Y010266D01*
X039836Y010084D01*
X039836Y009886D01*
X039912Y009703D01*
X039836Y010082D02*
X038057Y010082D01*
X037888Y010400D02*
X040046Y010400D01*
X041136Y010400D02*
X042157Y010400D01*
X042157Y010082D02*
X041346Y010082D01*
X041295Y009763D02*
X042157Y009763D01*
X041890Y008808D02*
X041890Y008808D01*
X041890Y008489D02*
X041890Y008489D01*
X041890Y008171D02*
X041890Y008171D01*
X041890Y007852D02*
X041890Y007852D01*
X041890Y007534D02*
X041890Y007534D01*
X041563Y007534D02*
X039948Y007534D01*
X039910Y007572D02*
X039727Y007647D01*
X039014Y007647D01*
X038831Y007572D01*
X038691Y007432D01*
X038616Y007249D01*
X038616Y007051D01*
X038691Y006868D01*
X038831Y006728D01*
X038893Y006703D01*
X038463Y006703D01*
X038280Y006627D01*
X038140Y006487D01*
X038064Y006304D01*
X038064Y006106D01*
X038140Y005923D01*
X038280Y005783D01*
X038463Y005708D01*
X039176Y005708D01*
X039359Y005783D01*
X039499Y005923D01*
X039574Y006106D01*
X039574Y006304D01*
X039499Y006487D01*
X039359Y006627D01*
X039297Y006653D01*
X039727Y006653D01*
X039910Y006728D01*
X040050Y006868D01*
X040126Y007051D01*
X040126Y007249D01*
X040050Y007432D01*
X039910Y007572D01*
X040126Y007215D02*
X042157Y007215D01*
X042157Y006897D02*
X040062Y006897D01*
X039407Y006578D02*
X042157Y006578D01*
X042157Y006260D02*
X039574Y006260D01*
X039506Y005941D02*
X042157Y005941D01*
X042157Y005623D02*
X042114Y005623D01*
X038680Y006897D02*
X034417Y006897D01*
X034417Y006786D02*
X034124Y006493D01*
X033710Y006493D01*
X033417Y006786D01*
X033417Y007200D01*
X033710Y007493D01*
X034124Y007493D01*
X034417Y007200D01*
X034417Y006786D01*
X034209Y006578D02*
X038232Y006578D01*
X038064Y006260D02*
X034358Y006260D01*
X034417Y005941D02*
X038133Y005941D01*
X038616Y007215D02*
X034402Y007215D01*
X033432Y007215D02*
X032954Y007215D01*
X033157Y007534D02*
X038793Y007534D01*
X033625Y006578D02*
X032112Y006578D01*
X031794Y006260D02*
X033476Y006260D01*
X033417Y005941D02*
X031475Y005941D01*
X032431Y006897D02*
X033417Y006897D01*
X030487Y004986D02*
X029847Y004986D01*
X029187Y004986D02*
X028814Y004986D01*
X028841Y004667D02*
X029077Y004667D01*
X028444Y005941D02*
X026675Y005941D01*
X027349Y013585D02*
X038588Y013585D01*
X038536Y013904D02*
X027306Y013904D01*
X026857Y014222D02*
X038725Y014222D01*
X029733Y015815D02*
X027502Y015815D01*
X027553Y015496D02*
X029681Y015496D01*
X012917Y019293D02*
X012917Y019293D01*
X012917Y019318D02*
X012917Y019318D01*
X012917Y019637D02*
X012917Y019637D01*
D24*
X009717Y018993D03*
X007217Y018793D03*
X008017Y021493D03*
X008917Y021893D03*
X010317Y023293D03*
X020317Y020893D03*
X021117Y020993D03*
X023717Y019593D03*
X024217Y019693D03*
X024117Y020493D03*
X026117Y020193D03*
X026617Y018793D03*
X026117Y018293D03*
X027117Y017693D03*
X024817Y017693D03*
X024717Y018793D03*
X022717Y018593D03*
X021117Y016493D03*
X024217Y015593D03*
X026417Y014193D03*
X026917Y013693D03*
X027117Y015593D03*
X030117Y015593D03*
X032917Y019393D03*
X030117Y020393D03*
X035917Y024393D03*
X037217Y025693D03*
X033017Y024893D03*
X028417Y024893D03*
X018217Y014593D03*
X021617Y009793D03*
X021217Y009393D03*
X023117Y006793D03*
X023617Y006193D03*
X023017Y005593D03*
X023017Y005093D03*
X023517Y005093D03*
X022417Y004593D03*
X021217Y005793D03*
X022517Y006093D03*
X025517Y006593D03*
X026517Y006693D03*
X027017Y006693D03*
X028817Y005693D03*
X028417Y004793D03*
X027617Y004493D03*
X029517Y004693D03*
X030817Y004693D03*
X030917Y005793D03*
X032717Y007593D03*
X025417Y005093D03*
D25*
X027017Y006693D01*
X026517Y006693D02*
X024917Y005093D01*
X023517Y005093D01*
X023017Y005093D02*
X024217Y003893D01*
X027517Y003893D01*
X028417Y004793D01*
X027617Y004493D02*
X028817Y005693D01*
X029517Y004693D02*
X030817Y004693D01*
X030917Y005793D02*
X032717Y007593D01*
X027617Y008193D02*
X027317Y008193D01*
X025717Y006593D01*
X025517Y006593D01*
X023617Y006193D02*
X023017Y005593D01*
X023017Y005093D02*
X022517Y005593D01*
X022517Y006093D01*
X023117Y006693D02*
X023117Y006793D01*
X023117Y006693D02*
X023617Y006193D01*
X022417Y004593D02*
X021617Y005393D01*
X021617Y009793D01*
X021217Y009393D02*
X021217Y005793D01*
X026917Y013693D02*
X026417Y014193D01*
X027117Y015593D02*
X024217Y015593D01*
X021117Y016493D02*
X024217Y019593D01*
X024217Y019693D01*
X023717Y019593D02*
X022717Y018593D01*
X024717Y018793D02*
X026117Y020193D01*
X026617Y018793D02*
X026117Y018293D01*
X027117Y017693D02*
X024817Y017693D01*
X024117Y020493D02*
X018217Y014593D01*
X020317Y020893D02*
X021017Y020893D01*
X021117Y020993D01*
X028417Y024893D02*
X028917Y024393D01*
X028917Y023693D01*
X033017Y024893D02*
X033617Y024293D01*
X033617Y023693D01*
X033417Y023693D01*
X030117Y020393D01*
X032917Y019393D02*
X033517Y018793D01*
X033517Y018193D01*
X030917Y015593D01*
X030117Y015593D01*
X035917Y024393D02*
X037217Y025693D01*
X013217Y022293D02*
X012817Y022293D01*
X008717Y026393D01*
X008517Y026393D01*
X008508Y026411D01*
X010317Y023293D02*
X008917Y021893D01*
X008017Y021493D02*
X007417Y020893D01*
M02*
