G75*
G70*
%OFA0B0*%
%FSLAX24Y24*%
%IPPOS*%
%LPD*%
%AMOC8*
5,1,8,0,0,1.08239X$1,22.5*
%
%ADD10C,0.0051*%
%ADD11C,0.0060*%
%ADD12R,0.0420X0.0100*%
%ADD13R,0.0780X0.0220*%
%ADD14OC8,0.0520*%
%ADD15R,0.0140X0.0580*%
%ADD16OC8,0.1000*%
%ADD17R,0.0210X0.0780*%
%ADD18R,0.0520X0.0220*%
%ADD19R,0.0140X0.0460*%
%ADD20R,0.0220X0.0780*%
%ADD21C,0.0660*%
%ADD22R,0.0394X0.0394*%
%ADD23R,0.0591X0.0512*%
%ADD24R,0.0709X0.0630*%
%ADD25R,0.0709X0.0945*%
%ADD26C,0.0574*%
%ADD27C,0.0520*%
%ADD28R,0.0460X0.0140*%
%ADD29R,0.0354X0.0276*%
%ADD30R,0.0512X0.0512*%
%ADD31R,0.0787X0.0512*%
%ADD32R,0.0276X0.0354*%
%ADD33C,0.0520*%
%ADD34R,0.0669X0.0256*%
%ADD35C,0.0515*%
%ADD36OC8,0.0850*%
%ADD37R,0.0520X0.0170*%
%ADD38C,0.0560*%
%ADD39R,0.0787X0.0394*%
%ADD40R,0.0276X0.0276*%
%ADD41R,0.0472X0.0598*%
%ADD42R,0.0598X0.0472*%
%ADD43R,0.0120X0.0240*%
%ADD44R,0.3354X0.2610*%
%ADD45R,0.0406X0.0276*%
%ADD46R,0.0315X0.0315*%
%ADD47R,0.1181X0.0591*%
%ADD48R,0.2126X0.1575*%
%ADD49C,0.0602*%
%ADD50R,0.0602X0.0602*%
%ADD51C,0.0560*%
%ADD52OC8,0.0560*%
%ADD53C,0.0320*%
%ADD54C,0.0100*%
%ADD55C,0.0400*%
%ADD56C,0.0300*%
D10*
X003417Y000126D02*
X003417Y003393D01*
X003417Y000893D02*
X004441Y000996D01*
X004441Y001019D02*
X004441Y000768D01*
X003417Y000893D01*
X004441Y000791D01*
X004441Y000842D02*
X003417Y000893D01*
X004441Y000944D01*
X004441Y001019D02*
X003417Y000893D01*
X042787Y000893D01*
X041764Y000791D01*
X041764Y000768D02*
X042787Y000893D01*
X041764Y000996D01*
X041764Y001019D02*
X041764Y000768D01*
X041764Y000842D02*
X042787Y000893D01*
X041764Y000944D01*
X041764Y001019D02*
X042787Y000893D01*
X042787Y000126D02*
X042787Y003393D01*
X042717Y003393D02*
X046785Y003393D01*
X046017Y003393D02*
X046119Y004417D01*
X046143Y004417D02*
X046017Y003393D01*
X045915Y004417D01*
X045891Y004417D02*
X046143Y004417D01*
X046068Y004417D02*
X046017Y003393D01*
X045966Y004417D01*
X045891Y004417D02*
X046017Y003393D01*
X046017Y030993D01*
X046119Y029970D01*
X046143Y029970D02*
X046017Y030993D01*
X045915Y029970D01*
X045891Y029970D02*
X046143Y029970D01*
X046068Y029970D02*
X046017Y030993D01*
X045966Y029970D01*
X045891Y029970D02*
X046017Y030993D01*
X046785Y030993D02*
X042717Y030993D01*
D11*
X045761Y018285D02*
X045761Y017858D01*
X045761Y018071D02*
X045120Y018071D01*
X045334Y017858D01*
X045654Y017642D02*
X045761Y017642D01*
X045761Y017535D01*
X045654Y017535D01*
X045654Y017642D01*
X045654Y017318D02*
X045227Y017318D01*
X045654Y016891D01*
X045761Y016998D01*
X045761Y017211D01*
X045654Y017318D01*
X045227Y017318D02*
X045120Y017211D01*
X045120Y016998D01*
X045227Y016891D01*
X045654Y016891D01*
X045227Y016673D02*
X045654Y016246D01*
X045761Y016246D01*
X045120Y016246D02*
X045120Y016673D01*
X045227Y016673D01*
X024010Y001683D02*
X023903Y001790D01*
X023690Y001790D01*
X023583Y001683D01*
X023583Y001256D01*
X024010Y001683D01*
X024010Y001256D01*
X023903Y001149D01*
X023690Y001149D01*
X023583Y001256D01*
X023366Y001256D02*
X023259Y001149D01*
X023045Y001149D01*
X022939Y001256D01*
X023366Y001683D01*
X023366Y001256D01*
X023366Y001683D02*
X023259Y001790D01*
X023045Y001790D01*
X022939Y001683D01*
X022939Y001256D01*
X022721Y001149D02*
X022294Y001149D01*
X022507Y001149D02*
X022507Y001790D01*
X022294Y001577D01*
D12*
X008877Y018393D03*
X008877Y018593D03*
X008877Y018793D03*
X008877Y018993D03*
X007757Y018993D03*
X007757Y018793D03*
X007757Y018593D03*
X007757Y018393D03*
D13*
X009647Y022143D03*
X009647Y022643D03*
X009647Y023143D03*
X009647Y023643D03*
X011587Y023643D03*
X011587Y023143D03*
X011587Y022643D03*
X011587Y022143D03*
D14*
X013217Y022293D03*
X013217Y023293D03*
X009417Y020893D03*
X009317Y019793D03*
X007317Y019793D03*
X007417Y020893D03*
X008017Y022493D03*
X008017Y023493D03*
X012117Y027093D03*
X015117Y027093D03*
X013817Y029393D03*
X012817Y029393D03*
X016917Y007893D03*
X017917Y007893D03*
X017917Y006893D03*
X016917Y006893D03*
X016917Y005793D03*
X017817Y005893D03*
X017817Y004893D03*
X016917Y004793D03*
X010617Y005393D03*
X009617Y005393D03*
X009617Y006593D03*
X010617Y006593D03*
X033917Y006993D03*
X033917Y005993D03*
D15*
X032887Y006043D03*
X032627Y006043D03*
X032377Y006043D03*
X032117Y006043D03*
X031857Y006043D03*
X031607Y006043D03*
X031347Y006043D03*
X031347Y008343D03*
X031607Y008343D03*
X031857Y008343D03*
X032117Y008343D03*
X032377Y008343D03*
X032627Y008343D03*
X032887Y008343D03*
D16*
X015417Y016443D03*
X011417Y016443D03*
X013417Y009443D03*
D17*
X018867Y010423D03*
X019367Y010423D03*
X019867Y010423D03*
X020367Y010423D03*
X020367Y012363D03*
X019867Y012363D03*
X019367Y012363D03*
X018867Y012363D03*
D18*
X027117Y015193D03*
X027917Y015593D03*
X027117Y015993D03*
X027117Y017293D03*
X027117Y018093D03*
X027917Y017693D03*
X027117Y019393D03*
X027117Y020193D03*
X027917Y019793D03*
X027117Y021393D03*
X027917Y021793D03*
X027117Y022193D03*
D19*
X029557Y012003D03*
X030077Y012003D03*
X030077Y011183D03*
X029817Y011183D03*
X029557Y011183D03*
D20*
X025367Y024823D03*
X024867Y024823D03*
X024367Y024823D03*
X023867Y024823D03*
X023867Y026763D03*
X024367Y026763D03*
X024867Y026763D03*
X025367Y026763D03*
D21*
X016217Y025593D03*
X012217Y025593D03*
D22*
X029517Y013493D03*
D23*
X031017Y012067D03*
X031017Y011319D03*
X023017Y025419D03*
X023017Y026167D03*
X026417Y027019D03*
X026417Y027767D03*
D24*
X027617Y027944D03*
X027617Y026842D03*
X028517Y012244D03*
X028517Y011142D03*
D25*
X025314Y027993D03*
X023720Y027993D03*
D26*
X039063Y016571D02*
X039637Y016571D01*
X039637Y015587D02*
X039063Y015587D01*
X039063Y014800D02*
X039637Y014800D01*
X039637Y013815D02*
X039063Y013815D01*
D27*
X036777Y018193D02*
X036257Y018193D01*
X033777Y018193D02*
X033257Y018193D01*
X032277Y018193D02*
X031757Y018193D01*
X029277Y018193D02*
X028757Y018193D01*
X028657Y023693D02*
X029177Y023693D01*
X031657Y023693D02*
X032177Y023693D01*
X033357Y023693D02*
X033877Y023693D01*
X036357Y023693D02*
X036877Y023693D01*
D28*
X021797Y006753D03*
X021797Y006233D03*
X021037Y006233D03*
X021037Y006493D03*
X021037Y006753D03*
X021037Y005053D03*
X021037Y004793D03*
X021037Y004533D03*
X021797Y004533D03*
X021797Y005053D03*
X024037Y005053D03*
X024037Y004793D03*
X024037Y004533D03*
X024797Y004533D03*
X024797Y005053D03*
X025937Y005053D03*
X025937Y004793D03*
X025937Y004533D03*
X026697Y004533D03*
X026697Y005053D03*
D29*
X030517Y006937D03*
X030517Y007449D03*
X024917Y010937D03*
X024917Y011449D03*
X020717Y019537D03*
X020717Y020049D03*
X019917Y020049D03*
X019917Y019537D03*
X019217Y019537D03*
X019217Y020049D03*
X019217Y021337D03*
X019217Y021849D03*
X019917Y021849D03*
X019917Y021337D03*
X020717Y021337D03*
X020717Y021849D03*
D30*
X034664Y007911D03*
X035570Y007911D03*
D31*
X035117Y010076D03*
D32*
X032373Y009293D03*
X031861Y009293D03*
X028173Y010093D03*
X027661Y010093D03*
X027661Y007093D03*
X028173Y007093D03*
X029361Y005793D03*
X029873Y005793D03*
X029873Y005193D03*
X029361Y005193D03*
X031861Y005093D03*
X032373Y005093D03*
X026273Y006093D03*
X025761Y006093D03*
X024773Y006093D03*
X024261Y006093D03*
X012073Y006493D03*
X011561Y006493D03*
X011561Y004593D03*
X012073Y004593D03*
D33*
X019517Y013793D03*
X020517Y013793D03*
X027617Y009193D03*
X027617Y008193D03*
D34*
X025499Y015193D03*
X025499Y015693D03*
X025499Y016193D03*
X025499Y016693D03*
X025499Y017193D03*
X025499Y017693D03*
X025499Y018193D03*
X025499Y018693D03*
X025499Y019193D03*
X025499Y019693D03*
X025499Y020193D03*
X025499Y020693D03*
X025499Y021193D03*
X025499Y021693D03*
X021735Y021693D03*
X021735Y021193D03*
X021735Y020693D03*
X021735Y020193D03*
X021735Y019693D03*
X021735Y019193D03*
X021735Y018693D03*
X021735Y018193D03*
X021735Y017693D03*
X021735Y017193D03*
X021735Y016693D03*
X021735Y016193D03*
X021735Y015693D03*
X021735Y015193D03*
D35*
X008775Y006476D02*
X008775Y005961D01*
X006001Y006002D02*
X005486Y006002D01*
X004444Y007536D02*
X004444Y008051D01*
X006706Y008837D02*
X007221Y008837D01*
X007257Y009781D02*
X007772Y009781D01*
X037560Y009511D02*
X037560Y010026D01*
X040334Y009985D02*
X040849Y009985D01*
X041890Y008451D02*
X041890Y007936D01*
X039628Y007150D02*
X039113Y007150D01*
X039077Y006205D02*
X038562Y006205D01*
D36*
X025717Y012493D03*
D37*
X011317Y018413D03*
X011317Y018663D03*
X011317Y018923D03*
X011317Y019173D03*
X010317Y019173D03*
X010317Y018923D03*
X010317Y018663D03*
X010317Y018413D03*
D38*
X012637Y018293D02*
X013197Y018293D01*
X013197Y019293D02*
X012637Y019293D01*
D39*
X029100Y019393D03*
X029100Y020393D03*
X029100Y021393D03*
X029100Y022393D03*
X031934Y022393D03*
X031934Y021393D03*
X031934Y020393D03*
X031934Y019393D03*
X033600Y019393D03*
X033600Y020393D03*
X033600Y021393D03*
X033600Y022393D03*
X036434Y022393D03*
X036434Y021393D03*
X036434Y020393D03*
X036434Y019393D03*
X036534Y024893D03*
X036534Y025893D03*
X036534Y026893D03*
X036534Y027893D03*
X033700Y027893D03*
X033700Y026893D03*
X031934Y026893D03*
X031934Y027893D03*
X029100Y027893D03*
X029100Y026893D03*
X029100Y025893D03*
X029100Y024893D03*
X031934Y024893D03*
X031934Y025893D03*
X033700Y025893D03*
X033700Y024893D03*
D40*
X017917Y016393D03*
X017917Y015293D03*
X027617Y006193D03*
X027617Y005393D03*
X028417Y005393D03*
X028417Y006193D03*
D41*
X009348Y024974D03*
X007647Y024974D03*
D42*
X010797Y024863D03*
X010797Y026563D03*
D43*
X023842Y010093D03*
X024092Y010093D03*
X024342Y010093D03*
X024592Y010093D03*
X024842Y010093D03*
X025092Y010093D03*
X025342Y010093D03*
X025592Y010093D03*
X025842Y010093D03*
X026092Y010093D03*
X026342Y010093D03*
X026592Y010093D03*
X026592Y007093D03*
X026342Y007093D03*
X026092Y007093D03*
X025842Y007093D03*
X025592Y007093D03*
X025342Y007093D03*
X025092Y007093D03*
X024842Y007093D03*
X024592Y007093D03*
X024342Y007093D03*
X024092Y007093D03*
X023842Y007093D03*
D44*
X025229Y008603D03*
D45*
X023967Y007294D03*
D46*
X024232Y010793D03*
X023641Y010793D03*
X012917Y006508D03*
X012917Y005918D03*
X012917Y005169D03*
X012917Y004578D03*
D47*
X026717Y024242D03*
X026717Y025423D03*
D48*
X019656Y023807D03*
X019656Y028019D03*
D49*
X008508Y027593D03*
X008508Y026411D03*
X007327Y026411D03*
X037935Y025765D03*
X037935Y024584D03*
X039116Y024584D03*
X039116Y023403D03*
X037935Y023403D03*
X037935Y022222D03*
X039116Y022222D03*
D50*
X039116Y025765D03*
X007327Y027593D03*
D51*
X005817Y012093D03*
D52*
X004817Y012093D03*
X004817Y013093D03*
X005817Y013093D03*
X005817Y014093D03*
X004817Y014093D03*
X004817Y015093D03*
X005817Y015093D03*
X005817Y016093D03*
X004817Y016093D03*
X004817Y017093D03*
X005817Y017093D03*
X005817Y018093D03*
X004817Y018093D03*
X004817Y019093D03*
X005817Y019093D03*
X005817Y020093D03*
X004817Y020093D03*
X004817Y021093D03*
X005817Y021093D03*
X005817Y022093D03*
X004817Y022093D03*
X004817Y023093D03*
X005817Y023093D03*
X005817Y024093D03*
X004817Y024093D03*
D53*
X004297Y024096D02*
X003977Y024096D01*
X003977Y024414D02*
X004403Y024414D01*
X004297Y024309D02*
X004602Y024613D01*
X005032Y024613D01*
X005317Y024329D01*
X005602Y024613D01*
X006032Y024613D01*
X006337Y024309D01*
X006337Y023878D01*
X006052Y023593D01*
X006337Y023309D01*
X006337Y022878D01*
X006052Y022593D01*
X006337Y022309D01*
X006337Y021878D01*
X006052Y021593D01*
X006337Y021309D01*
X006337Y020878D01*
X006052Y020593D01*
X006337Y020309D01*
X006337Y019878D01*
X006052Y019593D01*
X006337Y019309D01*
X006337Y018878D01*
X006052Y018593D01*
X006337Y018309D01*
X006337Y017878D01*
X006052Y017593D01*
X006337Y017309D01*
X006337Y016878D01*
X006052Y016593D01*
X006337Y016309D01*
X006337Y015878D01*
X006052Y015593D01*
X006337Y015309D01*
X006337Y015023D01*
X007427Y016113D01*
X007427Y018133D01*
X007411Y018140D01*
X007344Y018207D01*
X007307Y018296D01*
X007307Y018491D01*
X007308Y018493D01*
X007307Y018496D01*
X007307Y018643D01*
X007297Y018667D01*
X007287Y018718D01*
X007287Y018793D01*
X007307Y018793D01*
X007307Y018793D01*
X007287Y018793D01*
X007287Y018813D01*
X006753Y019347D01*
X006671Y019429D01*
X006627Y019536D01*
X006627Y020451D01*
X006671Y020558D01*
X006917Y020803D01*
X006917Y021100D01*
X007210Y021393D01*
X007582Y021393D01*
X007577Y021406D01*
X007577Y021581D01*
X007644Y021743D01*
X007768Y021866D01*
X006325Y021866D01*
X006337Y022185D02*
X007618Y022185D01*
X007517Y022286D02*
X007810Y021993D01*
X008107Y021993D01*
X008047Y021933D01*
X007930Y021933D01*
X007768Y021866D01*
X007577Y021548D02*
X006098Y021548D01*
X006337Y021229D02*
X007046Y021229D01*
X006917Y020911D02*
X006337Y020911D01*
X006053Y020592D02*
X006706Y020592D01*
X006627Y020274D02*
X006337Y020274D01*
X006337Y019955D02*
X006627Y019955D01*
X006627Y019637D02*
X006096Y019637D01*
X006327Y019318D02*
X006782Y019318D01*
X007100Y019000D02*
X006337Y019000D01*
X006140Y018681D02*
X007294Y018681D01*
X007307Y018363D02*
X006283Y018363D01*
X006337Y018044D02*
X007427Y018044D01*
X007427Y017726D02*
X006185Y017726D01*
X006238Y017407D02*
X007427Y017407D01*
X007427Y017089D02*
X006337Y017089D01*
X006229Y016770D02*
X007427Y016770D01*
X007427Y016452D02*
X006194Y016452D01*
X006337Y016133D02*
X007427Y016133D01*
X007128Y015815D02*
X006274Y015815D01*
X006149Y015496D02*
X006810Y015496D01*
X006491Y015178D02*
X006337Y015178D01*
X004817Y014093D02*
X004817Y014093D01*
X004277Y014093D01*
X004277Y013870D01*
X004568Y013579D01*
X004297Y013309D01*
X004297Y012878D01*
X004582Y012593D01*
X004297Y012309D01*
X004297Y011878D01*
X004602Y011573D01*
X005032Y011573D01*
X005337Y011878D01*
X005337Y011893D01*
X005376Y011799D01*
X005523Y011652D01*
X005714Y011573D01*
X005920Y011573D01*
X006112Y011652D01*
X006258Y011799D01*
X006337Y011990D01*
X006337Y012197D01*
X006335Y012201D01*
X009463Y015329D01*
X009507Y015436D01*
X009507Y018293D01*
X009653Y018147D01*
X009759Y018103D01*
X009973Y018103D01*
X010009Y018088D01*
X010512Y018088D01*
X011417Y017183D01*
X011111Y017183D01*
X010677Y016750D01*
X010677Y016137D01*
X011111Y015703D01*
X011724Y015703D01*
X012157Y016137D01*
X012157Y016443D01*
X013271Y015329D01*
X013353Y015247D01*
X018027Y010573D01*
X018027Y008393D01*
X017710Y008393D01*
X017500Y008183D01*
X017334Y008183D01*
X017124Y008393D01*
X016710Y008393D01*
X016417Y008100D01*
X016417Y007803D01*
X014297Y005683D01*
X014137Y005683D01*
X013315Y006506D01*
X013315Y006713D01*
X013278Y006802D01*
X013210Y006869D01*
X013122Y006906D01*
X012712Y006906D01*
X012624Y006869D01*
X012556Y006802D01*
X012549Y006783D01*
X012424Y006783D01*
X012414Y006806D01*
X012347Y006874D01*
X012258Y006910D01*
X011887Y006910D01*
X011817Y006881D01*
X011747Y006910D01*
X011376Y006910D01*
X011287Y006874D01*
X011220Y006806D01*
X011210Y006783D01*
X011117Y006783D01*
X011117Y006800D01*
X010824Y007093D01*
X010410Y007093D01*
X010117Y006800D01*
X009907Y007010D01*
X009907Y007051D01*
X009863Y007158D01*
X007807Y009213D01*
X007807Y009284D01*
X007871Y009284D01*
X008054Y009360D01*
X008194Y009500D01*
X008270Y009683D01*
X008270Y009880D01*
X008194Y010063D01*
X008054Y010203D01*
X007871Y010279D01*
X007158Y010279D01*
X006975Y010203D01*
X006835Y010063D01*
X006760Y009880D01*
X006760Y009683D01*
X006835Y009500D01*
X006975Y009360D01*
X007037Y009334D01*
X006607Y009334D01*
X006424Y009258D01*
X006284Y009118D01*
X006209Y008936D01*
X006209Y008738D01*
X006284Y008555D01*
X006424Y008415D01*
X006607Y008339D01*
X007320Y008339D01*
X007503Y008415D01*
X007643Y008555D01*
X007644Y008557D01*
X009258Y006942D01*
X009135Y006819D01*
X009056Y006898D01*
X008873Y006973D01*
X008676Y006973D01*
X008493Y006898D01*
X008353Y006758D01*
X008277Y006575D01*
X008277Y006241D01*
X008175Y006283D01*
X006422Y006283D01*
X006422Y006284D01*
X006282Y006424D01*
X006099Y006499D01*
X005387Y006499D01*
X005204Y006424D01*
X005064Y006284D01*
X004988Y006101D01*
X004988Y005903D01*
X005024Y005816D01*
X004774Y005883D01*
X004460Y005883D01*
X004158Y005802D01*
X003977Y005698D01*
X003977Y007312D01*
X004001Y007265D01*
X004049Y007199D01*
X004107Y007141D01*
X004173Y007093D01*
X004245Y007056D01*
X004323Y007031D01*
X004403Y007018D01*
X004444Y007018D01*
X004485Y007018D01*
X004565Y007031D01*
X004642Y007056D01*
X004715Y007093D01*
X004781Y007141D01*
X004839Y007199D01*
X004886Y007265D01*
X004923Y007337D01*
X004949Y007415D01*
X004961Y007495D01*
X004961Y007793D01*
X004444Y007793D01*
X004444Y007018D01*
X004444Y007793D01*
X004444Y007793D01*
X004444Y007793D01*
X004961Y007793D01*
X004961Y008092D01*
X004949Y008172D01*
X004923Y008249D01*
X004886Y008322D01*
X004839Y008388D01*
X004781Y008445D01*
X004715Y008493D01*
X004642Y008530D01*
X004565Y008556D01*
X004485Y008568D01*
X004444Y008568D01*
X004444Y007793D01*
X004444Y007793D01*
X004444Y008568D01*
X004403Y008568D01*
X004323Y008556D01*
X004245Y008530D01*
X004173Y008493D01*
X004107Y008445D01*
X004049Y008388D01*
X004001Y008322D01*
X003977Y008275D01*
X003977Y028789D01*
X004158Y028684D01*
X004460Y028603D01*
X004774Y028603D01*
X005076Y028684D01*
X005348Y028841D01*
X005569Y029063D01*
X005726Y029334D01*
X005807Y029637D01*
X005807Y029950D01*
X005726Y030253D01*
X005624Y030430D01*
X007713Y030430D01*
X007473Y030365D01*
X007211Y030214D01*
X006996Y030000D01*
X006845Y029737D01*
X006767Y029445D01*
X006767Y029142D01*
X006845Y028849D01*
X006996Y028587D01*
X007211Y028373D01*
X007473Y028221D01*
X007766Y028143D01*
X007956Y028143D01*
X007853Y028039D01*
X007847Y028033D01*
X007830Y028059D01*
X007793Y028096D01*
X007751Y028124D01*
X007704Y028144D01*
X007653Y028154D01*
X007327Y028154D01*
X007327Y027593D01*
X007327Y027593D01*
X007327Y028154D01*
X007000Y028154D01*
X006949Y028144D01*
X006902Y028124D01*
X006860Y028096D01*
X006823Y028059D01*
X006795Y028017D01*
X006775Y027970D01*
X006765Y027919D01*
X006765Y027593D01*
X007326Y027593D01*
X007326Y027593D01*
X006765Y027593D01*
X006765Y027266D01*
X006775Y027215D01*
X006795Y027168D01*
X006823Y027126D01*
X006860Y027089D01*
X006902Y027061D01*
X006949Y027041D01*
X007000Y027031D01*
X007327Y027031D01*
X007653Y027031D01*
X007704Y027041D01*
X007727Y027051D01*
X007727Y026836D01*
X007769Y026734D01*
X007633Y026870D01*
X007434Y026953D01*
X007219Y026953D01*
X007020Y026870D01*
X006868Y026718D01*
X006785Y026519D01*
X006785Y026304D01*
X006868Y026105D01*
X007020Y025953D01*
X007219Y025870D01*
X007327Y025870D01*
X007327Y025498D01*
X007275Y025476D01*
X007207Y025409D01*
X007171Y025321D01*
X007171Y024627D01*
X007207Y024538D01*
X007275Y024471D01*
X007327Y024449D01*
X007327Y023036D01*
X007371Y022929D01*
X007558Y022742D01*
X007517Y022700D01*
X007517Y022286D01*
X007517Y022503D02*
X006142Y022503D01*
X006281Y022822D02*
X007478Y022822D01*
X007327Y023140D02*
X006337Y023140D01*
X006187Y023459D02*
X007327Y023459D01*
X007327Y023777D02*
X006236Y023777D01*
X006337Y024096D02*
X007327Y024096D01*
X007327Y024414D02*
X006231Y024414D01*
X005403Y024414D02*
X005231Y024414D01*
X004297Y024309D02*
X004297Y023878D01*
X004582Y023593D01*
X004297Y023309D01*
X004297Y022878D01*
X004582Y022593D01*
X004297Y022309D01*
X004297Y021878D01*
X004582Y021593D01*
X004297Y021309D01*
X004297Y020878D01*
X004582Y020593D01*
X004297Y020309D01*
X004297Y019878D01*
X004582Y019593D01*
X004297Y019309D01*
X004297Y018878D01*
X004582Y018593D01*
X004297Y018309D01*
X004297Y017878D01*
X004582Y017593D01*
X004297Y017309D01*
X004297Y016878D01*
X004582Y016593D01*
X004297Y016309D01*
X004297Y015878D01*
X004582Y015593D01*
X004297Y015309D01*
X004297Y014878D01*
X004568Y014607D01*
X004277Y014317D01*
X004277Y014093D01*
X004817Y014093D01*
X004501Y014541D02*
X003977Y014541D01*
X003977Y014859D02*
X004316Y014859D01*
X004297Y015178D02*
X003977Y015178D01*
X003977Y015496D02*
X004485Y015496D01*
X004360Y015815D02*
X003977Y015815D01*
X003977Y016133D02*
X004297Y016133D01*
X004440Y016452D02*
X003977Y016452D01*
X003977Y016770D02*
X004405Y016770D01*
X004297Y017089D02*
X003977Y017089D01*
X003977Y017407D02*
X004396Y017407D01*
X004449Y017726D02*
X003977Y017726D01*
X003977Y018044D02*
X004297Y018044D01*
X004351Y018363D02*
X003977Y018363D01*
X003977Y018681D02*
X004494Y018681D01*
X004297Y019000D02*
X003977Y019000D01*
X003977Y019318D02*
X004307Y019318D01*
X004538Y019637D02*
X003977Y019637D01*
X003977Y019955D02*
X004297Y019955D01*
X004297Y020274D02*
X003977Y020274D01*
X003977Y020592D02*
X004581Y020592D01*
X004297Y020911D02*
X003977Y020911D01*
X003977Y021229D02*
X004297Y021229D01*
X004536Y021548D02*
X003977Y021548D01*
X003977Y021866D02*
X004309Y021866D01*
X004297Y022185D02*
X003977Y022185D01*
X003977Y022503D02*
X004492Y022503D01*
X004353Y022822D02*
X003977Y022822D01*
X003977Y023140D02*
X004297Y023140D01*
X004447Y023459D02*
X003977Y023459D01*
X003977Y023777D02*
X004398Y023777D01*
X003977Y024733D02*
X007171Y024733D01*
X007171Y025051D02*
X003977Y025051D01*
X003977Y025370D02*
X007191Y025370D01*
X007327Y025688D02*
X003977Y025688D01*
X003977Y026007D02*
X006966Y026007D01*
X006785Y026325D02*
X003977Y026325D01*
X003977Y026644D02*
X006837Y026644D01*
X007327Y027031D02*
X007327Y027593D01*
X007327Y027031D01*
X007327Y027281D02*
X007327Y027281D01*
X007327Y027593D02*
X007327Y027593D01*
X007327Y027599D02*
X007327Y027599D01*
X007327Y027918D02*
X007327Y027918D01*
X007447Y028236D02*
X003977Y028236D01*
X003977Y027918D02*
X006765Y027918D01*
X006765Y027599D02*
X003977Y027599D01*
X003977Y027281D02*
X006765Y027281D01*
X007727Y026962D02*
X003977Y026962D01*
X003977Y028555D02*
X007028Y028555D01*
X006838Y028873D02*
X005380Y028873D01*
X005644Y029192D02*
X006767Y029192D01*
X006784Y029510D02*
X005773Y029510D01*
X005807Y029829D02*
X006898Y029829D01*
X007144Y030147D02*
X005754Y030147D01*
X008121Y030430D02*
X040512Y030433D01*
X040408Y030253D01*
X040327Y029950D01*
X040327Y029637D01*
X040408Y029334D01*
X040565Y029063D01*
X040786Y028841D01*
X041058Y028684D01*
X041360Y028603D01*
X041674Y028603D01*
X041976Y028684D01*
X042157Y028789D01*
X042157Y025463D01*
X042081Y025539D01*
X039081Y028539D01*
X038975Y028583D01*
X036059Y028583D01*
X035953Y028539D01*
X035871Y028458D01*
X035671Y028258D01*
X035627Y028151D01*
X035627Y027636D01*
X035671Y027529D01*
X035753Y027447D01*
X035956Y027245D01*
X035937Y027226D01*
X035901Y027138D01*
X035901Y027120D01*
X035481Y027539D01*
X035375Y027583D01*
X034306Y027583D01*
X034333Y027649D01*
X034333Y028138D01*
X034297Y028226D01*
X034229Y028294D01*
X034141Y028330D01*
X033258Y028330D01*
X033170Y028294D01*
X033103Y028226D01*
X033069Y028144D01*
X032975Y028183D01*
X032549Y028183D01*
X032532Y028226D01*
X032464Y028294D01*
X032376Y028330D01*
X031493Y028330D01*
X031405Y028294D01*
X031337Y028226D01*
X031301Y028138D01*
X031301Y027649D01*
X031337Y027561D01*
X031405Y027493D01*
X031493Y027456D01*
X032376Y027456D01*
X032464Y027493D01*
X032532Y027561D01*
X032549Y027603D01*
X032797Y027603D01*
X033138Y027262D01*
X033103Y027226D01*
X033069Y027144D01*
X032975Y027183D01*
X032549Y027183D01*
X032532Y027226D01*
X032464Y027294D01*
X032376Y027330D01*
X031493Y027330D01*
X031405Y027294D01*
X031337Y027226D01*
X031301Y027138D01*
X031301Y026649D01*
X031337Y026561D01*
X031405Y026493D01*
X031493Y026456D01*
X032376Y026456D01*
X032464Y026493D01*
X032532Y026561D01*
X032549Y026603D01*
X032797Y026603D01*
X033138Y026262D01*
X033103Y026226D01*
X033066Y026138D01*
X033066Y025649D01*
X033103Y025561D01*
X033170Y025493D01*
X033258Y025456D01*
X034141Y025456D01*
X034229Y025493D01*
X034297Y025561D01*
X034333Y025649D01*
X034333Y026003D01*
X035197Y026003D01*
X035917Y025283D01*
X035639Y025283D01*
X035496Y025224D01*
X035386Y025114D01*
X035056Y024783D01*
X034333Y024783D01*
X034333Y025138D01*
X034297Y025226D01*
X034229Y025294D01*
X034141Y025330D01*
X033258Y025330D01*
X033185Y025300D01*
X033105Y025333D01*
X032930Y025333D01*
X032768Y025266D01*
X032644Y025143D01*
X032577Y024981D01*
X032577Y024806D01*
X032586Y024783D01*
X032568Y024783D01*
X032568Y025138D01*
X032532Y025226D01*
X032464Y025294D01*
X032376Y025330D01*
X032132Y025330D01*
X032005Y025456D01*
X032376Y025456D01*
X032464Y025493D01*
X032532Y025561D01*
X032568Y025649D01*
X032568Y026138D01*
X032532Y026226D01*
X032464Y026294D01*
X032376Y026330D01*
X031493Y026330D01*
X031405Y026294D01*
X031337Y026226D01*
X031308Y026154D01*
X029738Y027724D01*
X029733Y027726D01*
X029733Y028138D01*
X029697Y028226D01*
X029629Y028294D01*
X029541Y028330D01*
X028658Y028330D01*
X028570Y028294D01*
X028503Y028226D01*
X028466Y028138D01*
X028466Y028096D01*
X028438Y028124D01*
X028295Y028183D01*
X028211Y028183D01*
X028211Y028307D01*
X028175Y028395D01*
X028107Y028463D01*
X028019Y028499D01*
X027215Y028499D01*
X027127Y028463D01*
X027059Y028395D01*
X027023Y028307D01*
X027023Y028183D01*
X026892Y028183D01*
X026848Y028227D01*
X026826Y028236D01*
X025938Y029124D01*
X025795Y029183D01*
X024839Y029183D01*
X024696Y029124D01*
X024517Y028945D01*
X024038Y029424D01*
X023895Y029483D01*
X018439Y029483D01*
X018296Y029424D01*
X018186Y029314D01*
X016456Y027583D01*
X015334Y027583D01*
X015324Y027593D01*
X014910Y027593D01*
X014617Y027300D01*
X014617Y026886D01*
X014727Y026776D01*
X014727Y024655D01*
X014456Y024383D01*
X011189Y024383D01*
X011220Y024396D01*
X011262Y024424D01*
X011299Y024461D01*
X011327Y024503D01*
X011347Y024551D01*
X011357Y024601D01*
X011357Y024863D01*
X011357Y025124D01*
X011347Y025175D01*
X011335Y025203D01*
X011801Y025203D01*
X011894Y025110D01*
X012104Y025023D01*
X012330Y025023D01*
X012540Y025110D01*
X012700Y025270D01*
X012787Y025480D01*
X012787Y025707D01*
X012700Y025916D01*
X012540Y026077D01*
X012330Y026163D01*
X012104Y026163D01*
X011894Y026077D01*
X011801Y025983D01*
X010879Y025983D01*
X010775Y026087D01*
X011144Y026087D01*
X011233Y026124D01*
X011300Y026191D01*
X011337Y026279D01*
X011337Y026847D01*
X011300Y026936D01*
X011233Y027003D01*
X011144Y027040D01*
X010450Y027040D01*
X010362Y027003D01*
X010295Y026936D01*
X010273Y026883D01*
X010237Y026883D01*
X008863Y028258D01*
X008781Y028339D01*
X008675Y028383D01*
X008634Y028383D01*
X008838Y028587D01*
X008989Y028849D01*
X009068Y029142D01*
X009068Y029445D01*
X008989Y029737D01*
X008838Y030000D01*
X008624Y030214D01*
X008361Y030365D01*
X008121Y030430D01*
X008690Y030147D02*
X040380Y030147D01*
X040327Y029829D02*
X014089Y029829D01*
X014024Y029893D02*
X014317Y029600D01*
X014317Y029186D01*
X014024Y028893D01*
X013727Y028893D01*
X012407Y027573D01*
X012407Y027510D01*
X012617Y027300D01*
X012617Y026886D01*
X012324Y026593D01*
X011910Y026593D01*
X011617Y026886D01*
X011617Y027300D01*
X011827Y027510D01*
X011827Y027751D01*
X011871Y027858D01*
X012887Y028873D01*
X012817Y028873D01*
X012817Y029393D01*
X012817Y029393D01*
X012817Y028873D01*
X012602Y028873D01*
X012297Y029178D01*
X012297Y029393D01*
X012817Y029393D01*
X012817Y029393D01*
X012297Y029393D01*
X012297Y029609D01*
X012602Y029913D01*
X012817Y029913D01*
X012817Y029393D01*
X012817Y029393D01*
X012817Y029913D01*
X013032Y029913D01*
X013331Y029615D01*
X013610Y029893D01*
X014024Y029893D01*
X014317Y029510D02*
X040361Y029510D01*
X040490Y029192D02*
X024270Y029192D01*
X026189Y028873D02*
X040754Y028873D01*
X039703Y027918D02*
X042157Y027918D01*
X042157Y028236D02*
X039384Y028236D01*
X039044Y028555D02*
X042157Y028555D01*
X042157Y027599D02*
X040021Y027599D01*
X040340Y027281D02*
X042157Y027281D01*
X042157Y026962D02*
X040658Y026962D01*
X040977Y026644D02*
X042157Y026644D01*
X042157Y026325D02*
X041295Y026325D01*
X041614Y026007D02*
X042157Y026007D01*
X042157Y025688D02*
X041932Y025688D01*
X042157Y022523D02*
X042157Y008896D01*
X042089Y008930D01*
X042011Y008956D01*
X041931Y008968D01*
X041890Y008968D01*
X041850Y008968D01*
X041769Y008956D01*
X041692Y008930D01*
X041619Y008893D01*
X041553Y008845D01*
X041496Y008788D01*
X041448Y008722D01*
X041411Y008649D01*
X041386Y008572D01*
X041373Y008492D01*
X041373Y008193D01*
X041373Y007895D01*
X041386Y007815D01*
X041411Y007737D01*
X041448Y007665D01*
X041496Y007599D01*
X041553Y007541D01*
X041619Y007493D01*
X041692Y007456D01*
X041769Y007431D01*
X041850Y007418D01*
X041890Y007418D01*
X041890Y008193D01*
X041890Y008193D01*
X041373Y008193D01*
X041890Y008193D01*
X041890Y008193D01*
X041890Y007418D01*
X041931Y007418D01*
X042011Y007431D01*
X042089Y007456D01*
X042157Y007491D01*
X042157Y005598D01*
X041976Y005702D01*
X041674Y005783D01*
X041360Y005783D01*
X041058Y005702D01*
X040786Y005545D01*
X040565Y005324D01*
X040408Y005053D01*
X040327Y004750D01*
X040327Y004437D01*
X040408Y004134D01*
X040513Y003953D01*
X029987Y003953D01*
X030461Y004427D01*
X030568Y004320D01*
X030730Y004253D01*
X030905Y004253D01*
X031066Y004320D01*
X031149Y004403D01*
X032575Y004403D01*
X032681Y004447D01*
X033081Y004847D01*
X033163Y004929D01*
X033207Y005036D01*
X033207Y005893D01*
X033227Y005873D01*
X033227Y005736D01*
X033271Y005629D01*
X033471Y005429D01*
X033553Y005347D01*
X033659Y005303D01*
X038275Y005303D01*
X038381Y005347D01*
X038742Y005708D01*
X039176Y005708D01*
X039359Y005783D01*
X039499Y005923D01*
X039574Y006106D01*
X039574Y006304D01*
X039499Y006487D01*
X039359Y006627D01*
X039297Y006653D01*
X039727Y006653D01*
X039910Y006728D01*
X040050Y006868D01*
X040126Y007051D01*
X040126Y007249D01*
X040050Y007432D01*
X039910Y007572D01*
X039727Y007647D01*
X039014Y007647D01*
X038831Y007572D01*
X038691Y007432D01*
X038616Y007249D01*
X038616Y007051D01*
X038691Y006868D01*
X038831Y006728D01*
X038893Y006703D01*
X038463Y006703D01*
X038280Y006627D01*
X038140Y006487D01*
X038064Y006304D01*
X038064Y006106D01*
X038139Y005926D01*
X038097Y005883D01*
X034417Y005883D01*
X034417Y006200D01*
X034124Y006493D01*
X033827Y006493D01*
X033827Y006493D01*
X034124Y006493D01*
X034417Y006786D01*
X034417Y007083D01*
X034749Y007415D01*
X034968Y007415D01*
X035056Y007451D01*
X035117Y007512D01*
X035178Y007451D01*
X035266Y007415D01*
X035873Y007415D01*
X035962Y007451D01*
X036029Y007519D01*
X036066Y007607D01*
X036066Y008214D01*
X036029Y008302D01*
X035962Y008370D01*
X035873Y008407D01*
X035266Y008407D01*
X035178Y008370D01*
X035117Y008309D01*
X035056Y008370D01*
X034968Y008407D01*
X034361Y008407D01*
X034272Y008370D01*
X034205Y008302D01*
X034168Y008214D01*
X034168Y007655D01*
X034007Y007493D01*
X033710Y007493D01*
X033417Y007200D01*
X033417Y006903D01*
X033381Y006939D01*
X033275Y006983D01*
X032559Y006983D01*
X032453Y006939D01*
X032371Y006858D01*
X032171Y006658D01*
X032145Y006593D01*
X032117Y006593D01*
X032021Y006593D01*
X031971Y006583D01*
X031947Y006573D01*
X031847Y006573D01*
X031781Y006639D01*
X031363Y007058D01*
X031281Y007139D01*
X031175Y007183D01*
X030909Y007183D01*
X030905Y007193D01*
X030909Y007203D01*
X031175Y007203D01*
X031281Y007247D01*
X031781Y007747D01*
X031847Y007813D01*
X031975Y007813D01*
X031987Y007818D01*
X031999Y007813D01*
X032207Y007813D01*
X032231Y007803D01*
X032281Y007793D01*
X032324Y007793D01*
X032277Y007681D01*
X032277Y007506D01*
X032344Y007344D01*
X032468Y007220D01*
X032630Y007153D01*
X032805Y007153D01*
X032966Y007220D01*
X033090Y007344D01*
X033157Y007506D01*
X033157Y007681D01*
X033115Y007781D01*
X033163Y007829D01*
X033207Y007936D01*
X033207Y008258D01*
X033212Y008279D01*
X033207Y008315D01*
X033207Y008351D01*
X033199Y008371D01*
X033197Y008382D01*
X033197Y008681D01*
X033161Y008769D01*
X033132Y008798D01*
X033637Y009303D01*
X037107Y009303D01*
X037138Y009229D01*
X037278Y009089D01*
X037461Y009013D01*
X037659Y009013D01*
X037841Y009089D01*
X037981Y009229D01*
X038057Y009412D01*
X038057Y010125D01*
X037981Y010307D01*
X037841Y010447D01*
X037659Y010523D01*
X037461Y010523D01*
X037278Y010447D01*
X037138Y010307D01*
X037062Y010125D01*
X037062Y009883D01*
X035771Y009883D01*
X035771Y010076D01*
X035771Y010357D01*
X035761Y010408D01*
X035741Y010455D01*
X035713Y010498D01*
X035676Y010534D01*
X035634Y010562D01*
X035587Y010582D01*
X035536Y010592D01*
X035117Y010592D01*
X034698Y010592D01*
X034648Y010582D01*
X034600Y010562D01*
X034558Y010534D01*
X034521Y010498D01*
X034493Y010455D01*
X034473Y010408D01*
X034463Y010357D01*
X034463Y010076D01*
X034463Y009883D01*
X033459Y009883D01*
X033353Y009839D01*
X033271Y009758D01*
X033007Y009493D01*
X033007Y009551D01*
X032963Y009658D01*
X031763Y010858D01*
X031681Y010939D01*
X031575Y010983D01*
X031561Y010983D01*
X031562Y010988D01*
X031572Y011038D01*
X031572Y011319D01*
X031017Y011319D01*
X030462Y011319D01*
X030462Y011038D01*
X030472Y010988D01*
X030474Y010983D01*
X030387Y010983D01*
X030387Y011461D01*
X030351Y011549D01*
X030306Y011593D01*
X030351Y011637D01*
X030387Y011726D01*
X030387Y011760D01*
X030402Y011774D01*
X030444Y011869D01*
X030482Y011906D01*
X030482Y011764D01*
X030502Y011714D01*
X030491Y011698D01*
X030472Y011651D01*
X030462Y011601D01*
X030462Y011319D01*
X031017Y011319D01*
X031017Y011319D01*
X031017Y011319D01*
X031572Y011319D01*
X031572Y011601D01*
X031562Y011651D01*
X031543Y011698D01*
X031532Y011714D01*
X031552Y011764D01*
X031552Y011977D01*
X032979Y013403D01*
X038730Y013403D01*
X038765Y013369D01*
X038958Y013288D01*
X039666Y013288D01*
X039607Y013229D01*
X039473Y012998D01*
X039404Y012740D01*
X039404Y012473D01*
X039473Y012216D01*
X039607Y011985D01*
X039795Y011796D01*
X040026Y011663D01*
X040284Y011594D01*
X040550Y011594D01*
X040808Y011663D01*
X041039Y011796D01*
X041227Y011985D01*
X041361Y012216D01*
X041430Y012473D01*
X041430Y012740D01*
X041361Y012998D01*
X041227Y013229D01*
X041039Y013417D01*
X040808Y013550D01*
X040550Y013619D01*
X040284Y013619D01*
X040107Y013572D01*
X040164Y013711D01*
X040164Y013920D01*
X040084Y014114D01*
X039936Y014262D01*
X039826Y014307D01*
X039936Y014353D01*
X040084Y014501D01*
X040164Y014695D01*
X040164Y014904D01*
X040084Y015098D01*
X039989Y015193D01*
X040084Y015288D01*
X040164Y015482D01*
X040164Y015692D01*
X040084Y015886D01*
X039936Y016034D01*
X039854Y016068D01*
X039924Y016103D01*
X039993Y016154D01*
X040054Y016215D01*
X040105Y016285D01*
X040144Y016361D01*
X040171Y016443D01*
X040184Y016528D01*
X040184Y016571D01*
X039350Y016571D01*
X038516Y016571D01*
X038516Y016528D01*
X038530Y016443D01*
X038556Y016361D01*
X038595Y016285D01*
X038646Y016215D01*
X038707Y016154D01*
X038776Y016103D01*
X038847Y016068D01*
X038765Y016034D01*
X038616Y015886D01*
X038536Y015692D01*
X038536Y015482D01*
X038616Y015288D01*
X038712Y015193D01*
X038616Y015098D01*
X038536Y014904D01*
X038536Y014695D01*
X038616Y014501D01*
X038765Y014353D01*
X038874Y014307D01*
X038765Y014262D01*
X038686Y014183D01*
X032739Y014183D01*
X032596Y014124D01*
X031035Y012563D01*
X031007Y012563D01*
X031007Y019852D01*
X031301Y019558D01*
X031301Y019149D01*
X031337Y019061D01*
X031405Y018993D01*
X031493Y018956D01*
X031627Y018956D01*
X031627Y018681D01*
X031007Y018681D01*
X031007Y018363D02*
X031286Y018363D01*
X031257Y018293D02*
X031257Y018094D01*
X031333Y017910D01*
X031474Y017769D01*
X031658Y017693D01*
X032377Y017693D01*
X032560Y017769D01*
X032701Y017910D01*
X032767Y018070D01*
X032833Y017910D01*
X032974Y017769D01*
X033158Y017693D01*
X033877Y017693D01*
X034060Y017769D01*
X034201Y017910D01*
X034277Y018094D01*
X034277Y018293D01*
X034231Y018403D01*
X035803Y018403D01*
X035757Y018293D01*
X035757Y018094D01*
X035833Y017910D01*
X035974Y017769D01*
X036158Y017693D01*
X036877Y017693D01*
X037060Y017769D01*
X037201Y017910D01*
X037277Y018094D01*
X037277Y018293D01*
X037201Y018477D01*
X037060Y018617D01*
X036907Y018681D01*
X039953Y018681D01*
X040026Y018724D02*
X039795Y018590D01*
X039607Y018402D01*
X039473Y018171D01*
X039404Y017913D01*
X039404Y017647D01*
X039473Y017389D01*
X039607Y017158D01*
X039646Y017118D01*
X039350Y017118D01*
X039020Y017118D01*
X038935Y017105D01*
X038853Y017078D01*
X038776Y017039D01*
X038707Y016988D01*
X038646Y016928D01*
X038595Y016858D01*
X038556Y016781D01*
X038530Y016699D01*
X038516Y016614D01*
X038516Y016571D01*
X039350Y016571D01*
X039350Y016571D01*
X039350Y016571D01*
X039350Y017118D01*
X039350Y016571D01*
X039350Y016571D01*
X040184Y016571D01*
X040184Y016614D01*
X040171Y016699D01*
X040144Y016781D01*
X040130Y016808D01*
X040284Y016767D01*
X040550Y016767D01*
X040808Y016836D01*
X041039Y016970D01*
X041227Y017158D01*
X041361Y017389D01*
X041430Y017647D01*
X041430Y017913D01*
X041361Y018171D01*
X041227Y018402D01*
X041039Y018590D01*
X040808Y018724D01*
X040550Y018793D01*
X040284Y018793D01*
X040026Y018724D01*
X039584Y018363D02*
X037248Y018363D01*
X037257Y018044D02*
X039439Y018044D01*
X039404Y017726D02*
X036955Y017726D01*
X036079Y017726D02*
X033955Y017726D01*
X034257Y018044D02*
X035778Y018044D01*
X035786Y018363D02*
X034248Y018363D01*
X034233Y019183D02*
X034233Y019638D01*
X034197Y019726D01*
X034129Y019794D01*
X034041Y019830D01*
X033158Y019830D01*
X033085Y019800D01*
X033005Y019833D01*
X032830Y019833D01*
X032668Y019766D01*
X032560Y019658D01*
X032532Y019726D01*
X032464Y019794D01*
X032376Y019830D01*
X032132Y019830D01*
X032005Y019956D01*
X032376Y019956D01*
X032464Y019993D01*
X032532Y020061D01*
X032568Y020149D01*
X032568Y020503D01*
X032966Y020503D01*
X032966Y020149D01*
X033003Y020061D01*
X033070Y019993D01*
X033158Y019956D01*
X034041Y019956D01*
X034129Y019993D01*
X034197Y020061D01*
X034233Y020149D01*
X034233Y020503D01*
X035801Y020503D01*
X035801Y020149D01*
X035837Y020061D01*
X035905Y019993D01*
X035993Y019956D01*
X036876Y019956D01*
X036964Y019993D01*
X037032Y020061D01*
X037068Y020149D01*
X037068Y020503D01*
X037175Y020503D01*
X037281Y020547D01*
X038581Y021847D01*
X038655Y021921D01*
X038657Y021915D01*
X038810Y021763D01*
X039009Y021680D01*
X039224Y021680D01*
X039279Y021703D01*
X041275Y021703D01*
X041381Y021747D01*
X041463Y021829D01*
X042157Y022523D01*
X042157Y022503D02*
X042137Y022503D01*
X042157Y022185D02*
X041819Y022185D01*
X041500Y021866D02*
X042157Y021866D01*
X042157Y021548D02*
X038282Y021548D01*
X038600Y021866D02*
X038706Y021866D01*
X037963Y021229D02*
X042157Y021229D01*
X042157Y020911D02*
X037645Y020911D01*
X037326Y020592D02*
X042157Y020592D01*
X042157Y020274D02*
X037068Y020274D01*
X036876Y019830D02*
X035993Y019830D01*
X035905Y019794D01*
X035837Y019726D01*
X035801Y019638D01*
X035801Y019183D01*
X034233Y019183D01*
X034233Y019318D02*
X035801Y019318D01*
X035801Y019637D02*
X034233Y019637D01*
X034233Y020274D02*
X035801Y020274D01*
X036876Y019830D02*
X036964Y019794D01*
X037032Y019726D01*
X037068Y019638D01*
X037068Y019149D01*
X037032Y019061D01*
X036964Y018993D01*
X036907Y018969D01*
X036907Y018681D01*
X036971Y019000D02*
X042157Y019000D01*
X042157Y019318D02*
X037068Y019318D01*
X037068Y019637D02*
X042157Y019637D01*
X042157Y019955D02*
X032007Y019955D01*
X032568Y020274D02*
X032966Y020274D01*
X031222Y019637D02*
X031007Y019637D01*
X031007Y019318D02*
X031301Y019318D01*
X031398Y019000D02*
X031007Y019000D01*
X031474Y018617D02*
X031333Y018477D01*
X031257Y018293D01*
X031278Y018044D02*
X031007Y018044D01*
X031007Y017726D02*
X031579Y017726D01*
X031007Y017407D02*
X039468Y017407D01*
X039350Y017089D02*
X039350Y017089D01*
X039350Y016770D02*
X039350Y016770D01*
X038886Y017089D02*
X031007Y017089D01*
X031007Y016770D02*
X038553Y016770D01*
X038528Y016452D02*
X031007Y016452D01*
X031007Y016133D02*
X038735Y016133D01*
X038587Y015815D02*
X031007Y015815D01*
X031007Y015496D02*
X038536Y015496D01*
X038696Y015178D02*
X031007Y015178D01*
X031007Y014859D02*
X038536Y014859D01*
X038600Y014541D02*
X031007Y014541D01*
X031007Y014222D02*
X038725Y014222D01*
X039975Y014222D02*
X042157Y014222D01*
X042157Y013904D02*
X040164Y013904D01*
X040156Y013585D02*
X040112Y013585D01*
X039645Y013267D02*
X032842Y013267D01*
X032524Y012948D02*
X039460Y012948D01*
X039404Y012630D02*
X032205Y012630D01*
X031887Y012311D02*
X039448Y012311D01*
X039602Y011993D02*
X031568Y011993D01*
X031553Y011674D02*
X040006Y011674D01*
X040828Y011674D02*
X042157Y011674D01*
X042157Y011356D02*
X031572Y011356D01*
X031572Y011037D02*
X042157Y011037D01*
X042157Y010719D02*
X031902Y010719D01*
X031763Y010858D02*
X031763Y010858D01*
X031397Y010403D02*
X032104Y009696D01*
X032096Y009690D01*
X032047Y009710D01*
X031676Y009710D01*
X031587Y009674D01*
X031520Y009606D01*
X031483Y009518D01*
X031483Y009068D01*
X031520Y008980D01*
X031587Y008913D01*
X031627Y008896D01*
X031627Y008873D01*
X031489Y008873D01*
X031477Y008868D01*
X031465Y008873D01*
X031229Y008873D01*
X031141Y008837D01*
X031074Y008769D01*
X031037Y008681D01*
X031037Y008006D01*
X031074Y007917D01*
X031102Y007889D01*
X030997Y007783D01*
X030837Y007783D01*
X030830Y007790D01*
X030742Y007827D01*
X030292Y007827D01*
X030204Y007790D01*
X030136Y007723D01*
X030100Y007635D01*
X030100Y007264D01*
X030129Y007193D01*
X030100Y007123D01*
X030100Y006752D01*
X030136Y006664D01*
X030204Y006596D01*
X030292Y006560D01*
X030742Y006560D01*
X030830Y006596D01*
X030837Y006603D01*
X030997Y006603D01*
X031102Y006498D01*
X031074Y006469D01*
X031037Y006381D01*
X031037Y006220D01*
X031005Y006233D01*
X030830Y006233D01*
X030668Y006166D01*
X030585Y006083D01*
X030224Y006083D01*
X030214Y006106D01*
X030147Y006174D01*
X030058Y006210D01*
X029687Y006210D01*
X029617Y006181D01*
X029547Y006210D01*
X029310Y006210D01*
X029281Y006239D01*
X029081Y006439D01*
X028975Y006483D01*
X028742Y006483D01*
X028691Y006535D01*
X028603Y006571D01*
X028232Y006571D01*
X028143Y006535D01*
X028076Y006467D01*
X028039Y006379D01*
X028039Y006008D01*
X028076Y005920D01*
X028143Y005852D01*
X028232Y005816D01*
X028391Y005816D01*
X028377Y005781D01*
X028377Y005771D01*
X028232Y005771D01*
X028143Y005735D01*
X028076Y005667D01*
X028039Y005579D01*
X028039Y005208D01*
X028076Y005120D01*
X028098Y005097D01*
X028044Y005043D01*
X028025Y004996D01*
X027930Y005091D01*
X027958Y005120D01*
X027995Y005208D01*
X027995Y005579D01*
X027958Y005667D01*
X027891Y005735D01*
X027803Y005771D01*
X027649Y005771D01*
X027605Y005816D01*
X027803Y005816D01*
X027891Y005852D01*
X027958Y005920D01*
X027995Y006008D01*
X027995Y006379D01*
X027958Y006467D01*
X027891Y006535D01*
X027803Y006571D01*
X027549Y006571D01*
X027457Y006663D01*
X027457Y006684D01*
X027476Y006676D01*
X027847Y006676D01*
X027896Y006697D01*
X027912Y006686D01*
X027959Y006666D01*
X028010Y006656D01*
X028173Y006656D01*
X028336Y006656D01*
X028387Y006666D01*
X028434Y006686D01*
X028476Y006714D01*
X028513Y006750D01*
X028541Y006793D01*
X028561Y006840D01*
X028571Y006891D01*
X028571Y007093D01*
X028173Y007093D01*
X028173Y006656D01*
X028173Y007093D01*
X028173Y007093D01*
X028173Y007093D01*
X028571Y007093D01*
X028571Y007296D01*
X028561Y007346D01*
X028541Y007394D01*
X028513Y007436D01*
X028476Y007472D01*
X028434Y007501D01*
X028387Y007520D01*
X028336Y007530D01*
X028173Y007530D01*
X028173Y007093D01*
X028173Y007093D01*
X028173Y007530D01*
X028010Y007530D01*
X027959Y007520D01*
X027912Y007501D01*
X027907Y007498D01*
X027907Y007776D01*
X028041Y007910D01*
X028117Y008094D01*
X028117Y008293D01*
X028041Y008477D01*
X027900Y008617D01*
X027717Y008693D01*
X027900Y008769D01*
X028041Y008910D01*
X028117Y009094D01*
X028117Y009293D01*
X028041Y009477D01*
X027907Y009610D01*
X027907Y009689D01*
X027912Y009686D01*
X027959Y009666D01*
X028010Y009656D01*
X028173Y009656D01*
X028336Y009656D01*
X028387Y009666D01*
X028434Y009686D01*
X028476Y009714D01*
X028513Y009750D01*
X028541Y009793D01*
X028561Y009840D01*
X028571Y009891D01*
X028571Y010093D01*
X028173Y010093D01*
X028173Y009656D01*
X028173Y010093D01*
X028173Y010093D01*
X028173Y010093D01*
X028571Y010093D01*
X028571Y010296D01*
X028561Y010346D01*
X028541Y010394D01*
X028535Y010403D01*
X031397Y010403D01*
X031400Y010400D02*
X028537Y010400D01*
X028571Y010082D02*
X031718Y010082D01*
X032037Y009763D02*
X028521Y009763D01*
X028173Y009763D02*
X028173Y009763D01*
X028173Y010082D02*
X028173Y010082D01*
X028054Y009445D02*
X031483Y009445D01*
X031483Y009126D02*
X028117Y009126D01*
X027939Y008808D02*
X031112Y008808D01*
X031037Y008489D02*
X028028Y008489D01*
X028117Y008171D02*
X031037Y008171D01*
X031066Y007852D02*
X027983Y007852D01*
X027907Y007534D02*
X030100Y007534D01*
X030120Y007215D02*
X028571Y007215D01*
X028571Y006897D02*
X030100Y006897D01*
X030247Y006578D02*
X027542Y006578D01*
X027995Y006260D02*
X028039Y006260D01*
X028067Y005941D02*
X027967Y005941D01*
X027977Y005623D02*
X028057Y005623D01*
X028039Y005304D02*
X027995Y005304D01*
X029281Y006239D02*
X029281Y006239D01*
X029261Y006260D02*
X031037Y006260D01*
X031022Y006578D02*
X030787Y006578D01*
X031363Y007058D02*
X031363Y007058D01*
X031204Y007215D02*
X032480Y007215D01*
X032410Y006897D02*
X031524Y006897D01*
X031781Y006639D02*
X031781Y006639D01*
X031842Y006578D02*
X031959Y006578D01*
X032117Y006578D02*
X032117Y006578D01*
X032117Y006593D02*
X032117Y006483D01*
X032117Y006593D01*
X032117Y006483D02*
X032117Y006483D01*
X032117Y006483D01*
X032954Y007215D02*
X033432Y007215D01*
X033157Y007534D02*
X034047Y007534D01*
X034168Y007852D02*
X033173Y007852D01*
X033207Y008171D02*
X034168Y008171D01*
X033197Y008489D02*
X041373Y008489D01*
X041373Y008171D02*
X036066Y008171D01*
X036066Y007852D02*
X041380Y007852D01*
X041563Y007534D02*
X039948Y007534D01*
X040126Y007215D02*
X042157Y007215D01*
X042157Y006897D02*
X040062Y006897D01*
X039407Y006578D02*
X042157Y006578D01*
X042157Y006260D02*
X039574Y006260D01*
X039506Y005941D02*
X042157Y005941D01*
X042157Y005623D02*
X042114Y005623D01*
X040920Y005623D02*
X038657Y005623D01*
X038277Y005304D02*
X040554Y005304D01*
X040390Y004986D02*
X033186Y004986D01*
X033207Y005304D02*
X033657Y005304D01*
X033471Y005429D02*
X033471Y005429D01*
X033277Y005623D02*
X033207Y005623D01*
X032507Y005093D02*
X032507Y005093D01*
X032373Y005093D01*
X032373Y005093D01*
X032507Y005093D01*
X032901Y004667D02*
X040327Y004667D01*
X040351Y004349D02*
X031095Y004349D01*
X030539Y004349D02*
X030383Y004349D01*
X030064Y004030D02*
X040468Y004030D01*
X038133Y005941D02*
X034417Y005941D01*
X034358Y006260D02*
X038064Y006260D01*
X038232Y006578D02*
X034209Y006578D01*
X034417Y006897D02*
X038680Y006897D01*
X038616Y007215D02*
X034549Y007215D01*
X036035Y007534D02*
X038793Y007534D01*
X037879Y009126D02*
X042157Y009126D01*
X041890Y008968D02*
X041890Y008193D01*
X041890Y008968D01*
X041890Y008808D02*
X041890Y008808D01*
X041890Y008489D02*
X041890Y008489D01*
X041890Y008193D02*
X041890Y008193D01*
X041890Y008171D02*
X041890Y008171D01*
X041890Y007852D02*
X041890Y007852D01*
X041890Y007534D02*
X041890Y007534D01*
X041515Y008808D02*
X033142Y008808D01*
X033460Y009126D02*
X037240Y009126D01*
X038057Y009445D02*
X042157Y009445D01*
X042157Y009763D02*
X041295Y009763D01*
X041270Y009703D02*
X041346Y009886D01*
X041346Y010084D01*
X041270Y010266D01*
X041130Y010406D01*
X040948Y010482D01*
X040235Y010482D01*
X040052Y010406D01*
X039912Y010266D01*
X039836Y010084D01*
X039836Y009886D01*
X039912Y009703D01*
X040052Y009563D01*
X040235Y009487D01*
X040948Y009487D01*
X041130Y009563D01*
X041270Y009703D01*
X041346Y010082D02*
X042157Y010082D01*
X042157Y010400D02*
X041136Y010400D01*
X040046Y010400D02*
X037888Y010400D01*
X038057Y010082D02*
X039836Y010082D01*
X039887Y009763D02*
X038057Y009763D01*
X037231Y010400D02*
X035762Y010400D01*
X035771Y010082D02*
X037062Y010082D01*
X035771Y010076D02*
X035117Y010076D01*
X035117Y010076D01*
X034463Y010076D01*
X035117Y010076D01*
X035117Y010592D01*
X035117Y010076D01*
X035117Y010076D01*
X035117Y010076D01*
X035771Y010076D01*
X035117Y010082D02*
X035117Y010082D01*
X035117Y010400D02*
X035117Y010400D01*
X034472Y010400D02*
X032220Y010400D01*
X032539Y010082D02*
X034463Y010082D01*
X033277Y009763D02*
X032857Y009763D01*
X031017Y011319D02*
X031017Y011319D01*
X031017Y011571D01*
X031017Y011571D01*
X031017Y011319D01*
X031017Y011356D02*
X031017Y011356D01*
X030462Y011356D02*
X030387Y011356D01*
X030387Y011037D02*
X030462Y011037D01*
X030481Y011674D02*
X030366Y011674D01*
X029817Y012383D02*
X029763Y012437D01*
X029675Y012473D01*
X029439Y012473D01*
X029351Y012437D01*
X029298Y012383D01*
X029111Y012383D01*
X029111Y012607D01*
X029075Y012695D01*
X029007Y012763D01*
X028919Y012799D01*
X028807Y012799D01*
X028807Y013251D01*
X028763Y013358D01*
X027463Y014658D01*
X027381Y014739D01*
X027297Y014823D01*
X027403Y014823D01*
X027453Y014833D01*
X027500Y014853D01*
X027543Y014881D01*
X027579Y014918D01*
X027607Y014960D01*
X027627Y015007D01*
X027637Y015058D01*
X027637Y015193D01*
X027301Y015193D01*
X027301Y015193D01*
X027637Y015193D01*
X027637Y015243D01*
X028225Y015243D01*
X028313Y015280D01*
X028336Y015303D01*
X029785Y015303D01*
X029868Y015220D01*
X030030Y015153D01*
X030205Y015153D01*
X030227Y015163D01*
X030227Y013335D01*
X029954Y013608D01*
X029954Y013738D01*
X029917Y013826D01*
X029850Y013894D01*
X029762Y013930D01*
X029272Y013930D01*
X029184Y013894D01*
X029117Y013826D01*
X029080Y013738D01*
X029080Y013249D01*
X029117Y013161D01*
X029184Y013093D01*
X029272Y013056D01*
X029402Y013056D01*
X029966Y012493D01*
X029936Y012464D01*
X029871Y012437D01*
X029817Y012383D01*
X029829Y012630D02*
X029102Y012630D01*
X028807Y012948D02*
X029511Y012948D01*
X029080Y013267D02*
X028801Y013267D01*
X028535Y013585D02*
X029080Y013585D01*
X029209Y013904D02*
X028217Y013904D01*
X027898Y014222D02*
X030227Y014222D01*
X030227Y013904D02*
X029825Y013904D01*
X029977Y013585D02*
X030227Y013585D01*
X031007Y013585D02*
X032058Y013585D01*
X032376Y013904D02*
X031007Y013904D01*
X031007Y013267D02*
X031739Y013267D01*
X031421Y012948D02*
X031007Y012948D01*
X031007Y012630D02*
X031102Y012630D01*
X029247Y011803D02*
X029247Y011726D01*
X029284Y011637D01*
X029328Y011593D01*
X029284Y011549D01*
X029247Y011461D01*
X029247Y010983D01*
X029131Y010983D01*
X029131Y011142D01*
X028517Y011142D01*
X028517Y011142D01*
X029131Y011142D01*
X029131Y011483D01*
X029121Y011533D01*
X029102Y011580D01*
X029073Y011623D01*
X029037Y011659D01*
X028995Y011687D01*
X028954Y011704D01*
X029007Y011726D01*
X029075Y011794D01*
X029079Y011803D01*
X029247Y011803D01*
X029268Y011674D02*
X029014Y011674D01*
X029131Y011356D02*
X029247Y011356D01*
X029247Y011037D02*
X029131Y011037D01*
X027146Y009024D02*
X027193Y008910D01*
X027334Y008769D01*
X027518Y008693D01*
X027334Y008617D01*
X027193Y008477D01*
X027146Y008363D01*
X027146Y009024D01*
X027146Y008808D02*
X027295Y008808D01*
X027518Y008693D02*
X027717Y008693D01*
X027518Y008693D01*
X027206Y008489D02*
X027146Y008489D01*
X028173Y007215D02*
X028173Y007215D01*
X028173Y006897D02*
X028173Y006897D01*
X031568Y007534D02*
X032277Y007534D01*
X023835Y010793D02*
X023641Y010793D01*
X023641Y010793D01*
X023835Y010793D01*
X023835Y010793D01*
X019827Y011513D02*
X019367Y011053D01*
X019214Y011053D01*
X019126Y011017D01*
X019117Y011008D01*
X019108Y011017D01*
X019020Y011053D01*
X018714Y011053D01*
X018681Y011039D01*
X018207Y011513D01*
X018207Y014153D01*
X018305Y014153D01*
X018327Y014163D01*
X018327Y014036D01*
X018371Y013929D01*
X018453Y013847D01*
X019027Y013273D01*
X019027Y013007D01*
X018998Y013013D01*
X018867Y013013D01*
X018736Y013013D01*
X018686Y013003D01*
X018639Y012984D01*
X018596Y012955D01*
X018560Y012919D01*
X018532Y012876D01*
X018512Y012829D01*
X018502Y012779D01*
X018502Y012363D01*
X018502Y011948D01*
X018512Y011897D01*
X018532Y011850D01*
X018560Y011808D01*
X018596Y011771D01*
X018639Y011743D01*
X018686Y011723D01*
X018736Y011713D01*
X018867Y011713D01*
X018867Y012363D01*
X018867Y012363D01*
X018867Y011713D01*
X018998Y011713D01*
X019048Y011723D01*
X019095Y011743D01*
X019132Y011767D01*
X019214Y011733D01*
X019520Y011733D01*
X019608Y011770D01*
X019617Y011779D01*
X019626Y011770D01*
X019714Y011733D01*
X019827Y011733D01*
X019827Y011513D01*
X019827Y011674D02*
X018207Y011674D01*
X018207Y011993D02*
X018502Y011993D01*
X018502Y012311D02*
X018207Y012311D01*
X018502Y012363D02*
X018867Y012363D01*
X018867Y012363D01*
X018502Y012363D01*
X018502Y012630D02*
X018207Y012630D01*
X018207Y012948D02*
X018589Y012948D01*
X018867Y012948D02*
X018867Y012948D01*
X018867Y013013D02*
X018867Y012363D01*
X018867Y012363D01*
X018867Y013013D01*
X019027Y013267D02*
X018207Y013267D01*
X018207Y013585D02*
X018715Y013585D01*
X018396Y013904D02*
X018207Y013904D01*
X018867Y012630D02*
X018867Y012630D01*
X018867Y012311D02*
X018867Y012311D01*
X018867Y011993D02*
X018867Y011993D01*
X018365Y011356D02*
X019669Y011356D01*
X019176Y011037D02*
X019058Y011037D01*
X018027Y010400D02*
X003977Y010400D01*
X003977Y010082D02*
X006854Y010082D01*
X006760Y009763D02*
X003977Y009763D01*
X003977Y009445D02*
X006890Y009445D01*
X006292Y009126D02*
X003977Y009126D01*
X003977Y008808D02*
X006209Y008808D01*
X006350Y008489D02*
X004721Y008489D01*
X004444Y008489D02*
X004444Y008489D01*
X004167Y008489D02*
X003977Y008489D01*
X004444Y008171D02*
X004444Y008171D01*
X004444Y007852D02*
X004444Y007852D01*
X004444Y007534D02*
X004444Y007534D01*
X004444Y007215D02*
X004444Y007215D01*
X004851Y007215D02*
X008985Y007215D01*
X009057Y006897D02*
X009213Y006897D01*
X009805Y007215D02*
X015829Y007215D01*
X015510Y006897D02*
X013144Y006897D01*
X013315Y006578D02*
X015192Y006578D01*
X014873Y006260D02*
X013561Y006260D01*
X013879Y005941D02*
X014555Y005941D01*
X013959Y005103D02*
X016520Y005103D01*
X016417Y005000D01*
X016417Y004883D01*
X013302Y004883D01*
X013305Y004888D01*
X013325Y004936D01*
X013335Y004986D01*
X016417Y004986D01*
X016700Y004303D02*
X016710Y004293D01*
X017124Y004293D01*
X017417Y004586D01*
X017417Y004586D01*
X017610Y004393D01*
X018024Y004393D01*
X018317Y004686D01*
X018317Y004703D01*
X020327Y004703D01*
X020327Y004336D01*
X020371Y004229D01*
X020647Y003953D01*
X005560Y003953D01*
X005569Y003963D01*
X005726Y004234D01*
X005807Y004537D01*
X005807Y004850D01*
X005726Y005153D01*
X005569Y005424D01*
X005489Y005504D01*
X006099Y005504D01*
X006282Y005580D01*
X006405Y005703D01*
X007997Y005703D01*
X008471Y005229D01*
X008553Y005147D01*
X008659Y005103D01*
X009200Y005103D01*
X009410Y004893D01*
X009824Y004893D01*
X010117Y005186D01*
X010117Y005600D01*
X009824Y005893D01*
X009410Y005893D01*
X009200Y005683D01*
X009198Y005683D01*
X009272Y005862D01*
X009272Y006231D01*
X009410Y006093D01*
X009824Y006093D01*
X010117Y006386D01*
X010117Y006800D01*
X010117Y006386D01*
X010410Y006093D01*
X010824Y006093D01*
X010934Y006203D01*
X011210Y006203D01*
X011220Y006180D01*
X011287Y006113D01*
X011376Y006076D01*
X011747Y006076D01*
X011817Y006105D01*
X011887Y006076D01*
X012258Y006076D01*
X012347Y006113D01*
X012414Y006180D01*
X012424Y006203D01*
X012532Y006203D01*
X012529Y006198D01*
X012510Y006151D01*
X012500Y006101D01*
X012500Y005918D01*
X012917Y005918D01*
X012917Y005918D01*
X012500Y005918D01*
X012500Y005735D01*
X012510Y005684D01*
X012529Y005637D01*
X012558Y005594D01*
X012594Y005558D01*
X012616Y005543D01*
X012594Y005528D01*
X012558Y005492D01*
X012529Y005450D01*
X012510Y005402D01*
X012500Y005352D01*
X012500Y005169D01*
X012917Y005169D01*
X012917Y005918D01*
X012917Y005918D01*
X012917Y005500D01*
X012917Y005169D01*
X012917Y005169D01*
X012917Y005169D01*
X012500Y005169D01*
X012500Y004986D01*
X012318Y004986D01*
X012347Y004974D02*
X012258Y005010D01*
X011887Y005010D01*
X011817Y004981D01*
X011747Y005010D01*
X011510Y005010D01*
X011117Y005403D01*
X011117Y005600D01*
X010824Y005893D01*
X010410Y005893D01*
X010117Y005600D01*
X010117Y005186D01*
X010410Y004893D01*
X010807Y004893D01*
X011183Y004517D01*
X011183Y004368D01*
X011220Y004280D01*
X011287Y004213D01*
X011376Y004176D01*
X011747Y004176D01*
X011817Y004205D01*
X011887Y004176D01*
X012258Y004176D01*
X012347Y004213D01*
X012414Y004280D01*
X012424Y004303D01*
X012549Y004303D01*
X012556Y004285D01*
X012624Y004217D01*
X012712Y004181D01*
X013122Y004181D01*
X013210Y004217D01*
X013278Y004285D01*
X013286Y004303D01*
X016700Y004303D01*
X017180Y004349D02*
X020327Y004349D01*
X020327Y004667D02*
X018298Y004667D01*
X020570Y004030D02*
X005608Y004030D01*
X005757Y004349D02*
X011191Y004349D01*
X011033Y004667D02*
X005807Y004667D01*
X005771Y004986D02*
X009317Y004986D01*
X009917Y004986D02*
X010317Y004986D01*
X010117Y005304D02*
X010117Y005304D01*
X010095Y005623D02*
X010139Y005623D01*
X009272Y005941D02*
X012500Y005941D01*
X012539Y005623D02*
X011095Y005623D01*
X011216Y005304D02*
X012500Y005304D01*
X012500Y004986D02*
X012510Y004936D01*
X012529Y004888D01*
X012532Y004883D01*
X012424Y004883D01*
X012414Y004906D01*
X012347Y004974D01*
X011828Y004986D02*
X011806Y004986D01*
X012917Y005169D02*
X012917Y005169D01*
X013335Y005169D01*
X013335Y005352D01*
X013325Y005402D01*
X013305Y005450D01*
X013276Y005492D01*
X013240Y005528D01*
X013218Y005543D01*
X013240Y005558D01*
X013276Y005594D01*
X013305Y005637D01*
X013322Y005678D01*
X013853Y005147D01*
X013959Y005103D01*
X013696Y005304D02*
X013335Y005304D01*
X013335Y005169D02*
X012917Y005169D01*
X012917Y005304D02*
X012917Y005304D01*
X012917Y005623D02*
X012917Y005623D01*
X013295Y005623D02*
X013377Y005623D01*
X013335Y005169D02*
X013335Y004986D01*
X012690Y006897D02*
X012291Y006897D01*
X011854Y006897D02*
X011780Y006897D01*
X011343Y006897D02*
X011021Y006897D01*
X010213Y006897D02*
X010021Y006897D01*
X010117Y006578D02*
X010117Y006578D01*
X009991Y006260D02*
X010243Y006260D01*
X008492Y006897D02*
X003977Y006897D01*
X003977Y007215D02*
X004037Y007215D01*
X003977Y006578D02*
X008278Y006578D01*
X008277Y006260D02*
X008231Y006260D01*
X008077Y005623D02*
X006325Y005623D01*
X005638Y005304D02*
X008396Y005304D01*
X004988Y005941D02*
X003977Y005941D01*
X003977Y006260D02*
X005054Y006260D01*
X004961Y007534D02*
X008666Y007534D01*
X008348Y007852D02*
X004961Y007852D01*
X004949Y008171D02*
X008029Y008171D01*
X007711Y008489D02*
X007577Y008489D01*
X008213Y008808D02*
X012978Y008808D01*
X013102Y008683D02*
X012657Y009129D01*
X012657Y009443D01*
X013417Y009443D01*
X013417Y009443D01*
X013417Y008683D01*
X013102Y008683D01*
X013417Y008683D02*
X013732Y008683D01*
X014177Y009129D01*
X014177Y009443D01*
X013417Y009443D01*
X013417Y008683D01*
X013417Y008808D02*
X013417Y008808D01*
X013417Y009126D02*
X013417Y009126D01*
X013417Y009443D02*
X013417Y009443D01*
X013417Y009443D01*
X012657Y009443D01*
X012657Y009758D01*
X013102Y010203D01*
X013417Y010203D01*
X013417Y009443D01*
X014177Y009443D01*
X014177Y009758D01*
X013732Y010203D01*
X013417Y010203D01*
X013417Y009443D01*
X013417Y009443D01*
X013417Y009445D02*
X013417Y009445D01*
X013417Y009763D02*
X013417Y009763D01*
X013417Y010082D02*
X013417Y010082D01*
X012981Y010082D02*
X008175Y010082D01*
X008270Y009763D02*
X012662Y009763D01*
X012657Y009445D02*
X008139Y009445D01*
X007894Y009126D02*
X012659Y009126D01*
X013856Y008808D02*
X018027Y008808D01*
X018027Y009126D02*
X014175Y009126D01*
X014177Y009445D02*
X018027Y009445D01*
X018027Y009763D02*
X014172Y009763D01*
X013853Y010082D02*
X018027Y010082D01*
X017881Y010719D02*
X003977Y010719D01*
X003977Y011037D02*
X017563Y011037D01*
X017244Y011356D02*
X003977Y011356D01*
X003977Y011674D02*
X004501Y011674D01*
X004297Y011993D02*
X003977Y011993D01*
X003977Y012311D02*
X004300Y012311D01*
X004545Y012630D02*
X003977Y012630D01*
X003977Y012948D02*
X004297Y012948D01*
X004297Y013267D02*
X003977Y013267D01*
X003977Y013585D02*
X004561Y013585D01*
X004277Y013904D02*
X003977Y013904D01*
X003977Y014222D02*
X004277Y014222D01*
X006764Y012630D02*
X015970Y012630D01*
X015652Y012948D02*
X007082Y012948D01*
X007401Y013267D02*
X015333Y013267D01*
X015015Y013585D02*
X007719Y013585D01*
X008038Y013904D02*
X014696Y013904D01*
X014378Y014222D02*
X008356Y014222D01*
X008675Y014541D02*
X014059Y014541D01*
X013741Y014859D02*
X008993Y014859D01*
X009312Y015178D02*
X013422Y015178D01*
X013104Y015496D02*
X009507Y015496D01*
X009507Y015815D02*
X010999Y015815D01*
X010681Y016133D02*
X009507Y016133D01*
X009507Y016452D02*
X010677Y016452D01*
X010698Y016770D02*
X009507Y016770D01*
X009507Y017089D02*
X011016Y017089D01*
X011193Y017407D02*
X009507Y017407D01*
X009507Y017726D02*
X010874Y017726D01*
X010556Y018044D02*
X009507Y018044D01*
X009797Y018823D02*
X009607Y019013D01*
X009607Y019376D01*
X009817Y019586D01*
X009817Y020000D01*
X009607Y020210D01*
X009607Y020393D01*
X009624Y020393D01*
X009917Y020686D01*
X009917Y021100D01*
X009826Y021192D01*
X010973Y022339D01*
X010957Y022301D01*
X010957Y021986D01*
X010994Y021897D01*
X011061Y021830D01*
X011149Y021793D01*
X012025Y021793D01*
X012113Y021830D01*
X012181Y021897D01*
X012217Y021986D01*
X012217Y022003D01*
X012717Y022003D01*
X010212Y019498D01*
X010009Y019498D01*
X009921Y019462D01*
X009854Y019394D01*
X009817Y019306D01*
X009817Y019108D01*
X009807Y019084D01*
X009797Y019034D01*
X009797Y018923D01*
X009797Y018823D01*
X009797Y018923D02*
X009883Y018923D01*
X009883Y018923D01*
X009797Y018923D01*
X009797Y019000D02*
X009621Y019000D01*
X009607Y019318D02*
X009822Y019318D01*
X009817Y019637D02*
X010350Y019637D01*
X010669Y019955D02*
X009817Y019955D01*
X009607Y020274D02*
X010987Y020274D01*
X011306Y020592D02*
X009823Y020592D01*
X009917Y020911D02*
X011624Y020911D01*
X011943Y021229D02*
X009863Y021229D01*
X010182Y021548D02*
X012261Y021548D01*
X012149Y021866D02*
X012580Y021866D01*
X013082Y021548D02*
X018563Y021548D01*
X018571Y021529D02*
X018531Y021627D01*
X018475Y021603D01*
X013137Y021603D01*
X011217Y019683D01*
X011875Y019683D01*
X011981Y019639D01*
X012133Y019488D01*
X012137Y019501D01*
X012175Y019576D01*
X012225Y019645D01*
X012285Y019705D01*
X012354Y019755D01*
X012430Y019794D01*
X012511Y019820D01*
X012595Y019833D01*
X012917Y019833D01*
X012917Y019293D01*
X012917Y019293D01*
X013737Y019293D01*
X013737Y019251D01*
X013724Y019167D01*
X013697Y019086D01*
X013659Y019010D01*
X013609Y018942D01*
X013549Y018881D01*
X013480Y018831D01*
X013404Y018793D01*
X013374Y018783D01*
X013492Y018734D01*
X013638Y018588D01*
X013717Y018397D01*
X013717Y018190D01*
X013638Y017999D01*
X013492Y017852D01*
X013300Y017773D01*
X012534Y017773D01*
X012343Y017852D01*
X012196Y017999D01*
X012117Y018190D01*
X012117Y018397D01*
X012196Y018588D01*
X012204Y018596D01*
X012007Y018793D01*
X012007Y018736D01*
X011963Y018629D01*
X011817Y018483D01*
X011817Y018281D01*
X011781Y018192D01*
X011713Y018125D01*
X011625Y018088D01*
X011332Y018088D01*
X013517Y015903D01*
X017353Y019739D01*
X017459Y019783D01*
X018825Y019783D01*
X018829Y019793D01*
X018800Y019864D01*
X018800Y020235D01*
X018836Y020323D01*
X018904Y020390D01*
X018927Y020400D01*
X018927Y020987D01*
X018904Y020996D01*
X018836Y021064D01*
X018800Y021152D01*
X018800Y021300D01*
X018571Y021529D01*
X018800Y021229D02*
X012763Y021229D01*
X012445Y020911D02*
X018927Y020911D01*
X018927Y020592D02*
X012126Y020592D01*
X011808Y020274D02*
X018816Y020274D01*
X018800Y019955D02*
X011489Y019955D01*
X011984Y019637D02*
X012219Y019637D01*
X012917Y019637D02*
X012917Y019637D01*
X012917Y019833D02*
X012917Y019293D01*
X013737Y019293D01*
X013737Y019336D01*
X013724Y019420D01*
X013697Y019501D01*
X013659Y019576D01*
X013609Y019645D01*
X013549Y019705D01*
X013480Y019755D01*
X013404Y019794D01*
X013324Y019820D01*
X013240Y019833D01*
X012917Y019833D01*
X012917Y019318D02*
X012917Y019318D01*
X012917Y019293D02*
X012917Y019293D01*
X013615Y019637D02*
X017250Y019637D01*
X016932Y019318D02*
X013737Y019318D01*
X013651Y019000D02*
X016613Y019000D01*
X016295Y018681D02*
X013544Y018681D01*
X013717Y018363D02*
X015976Y018363D01*
X015658Y018044D02*
X013657Y018044D01*
X014702Y017089D02*
X012332Y017089D01*
X012650Y016770D02*
X014384Y016770D01*
X014065Y016452D02*
X012969Y016452D01*
X013287Y016133D02*
X013747Y016133D01*
X012785Y015815D02*
X011835Y015815D01*
X012154Y016133D02*
X012467Y016133D01*
X012013Y017407D02*
X015021Y017407D01*
X015339Y017726D02*
X011695Y017726D01*
X011376Y018044D02*
X012177Y018044D01*
X012117Y018363D02*
X011817Y018363D01*
X011985Y018681D02*
X012119Y018681D01*
X011025Y021866D02*
X010500Y021866D01*
X010819Y022185D02*
X010957Y022185D01*
X008786Y024214D02*
X008456Y023883D01*
X008334Y023883D01*
X008224Y023993D01*
X007907Y023993D01*
X007907Y024434D01*
X007931Y024434D01*
X008019Y024471D01*
X008087Y024538D01*
X008123Y024627D01*
X008123Y025321D01*
X008087Y025409D01*
X008019Y025476D01*
X007931Y025513D01*
X007907Y025513D01*
X007907Y026251D01*
X007868Y026346D01*
X007868Y026519D01*
X007787Y026713D01*
X007971Y026529D01*
X007966Y026519D01*
X007966Y026304D01*
X008049Y026105D01*
X008201Y025953D01*
X008400Y025870D01*
X008615Y025870D01*
X008814Y025953D01*
X008966Y026105D01*
X009049Y026304D01*
X009049Y026519D01*
X008966Y026718D01*
X008814Y026870D01*
X008615Y026953D01*
X008400Y026953D01*
X008377Y026943D01*
X008307Y027013D01*
X008307Y027090D01*
X008400Y027051D01*
X008615Y027051D01*
X008680Y027078D01*
X010386Y025372D01*
X010414Y025345D01*
X010375Y025329D01*
X010332Y025301D01*
X010296Y025265D01*
X010268Y025222D01*
X010248Y025175D01*
X010238Y025124D01*
X010238Y024863D01*
X010797Y024863D01*
X010797Y024863D01*
X010238Y024863D01*
X010238Y024601D01*
X010248Y024551D01*
X010268Y024503D01*
X010296Y024461D01*
X010332Y024424D01*
X010375Y024396D01*
X010406Y024383D01*
X009039Y024383D01*
X008896Y024324D01*
X008786Y024214D01*
X008668Y024096D02*
X007907Y024096D01*
X007907Y024414D02*
X010348Y024414D01*
X010238Y024733D02*
X009844Y024733D01*
X009844Y024649D02*
X009844Y024974D01*
X009844Y025298D01*
X009834Y025349D01*
X009814Y025396D01*
X009786Y025439D01*
X009750Y025475D01*
X009707Y025503D01*
X009660Y025523D01*
X009610Y025533D01*
X009348Y025533D01*
X009348Y024974D01*
X009348Y024974D01*
X009844Y024974D01*
X009348Y024974D01*
X009348Y024974D01*
X009348Y025533D01*
X009086Y025533D01*
X009036Y025523D01*
X008988Y025503D01*
X008946Y025475D01*
X008910Y025439D01*
X008881Y025396D01*
X008862Y025349D01*
X008852Y025298D01*
X008852Y024974D01*
X009348Y024974D01*
X009348Y024974D01*
X009348Y024414D01*
X009610Y024414D01*
X009660Y024424D01*
X009707Y024444D01*
X009750Y024472D01*
X009786Y024509D01*
X009814Y024551D01*
X009834Y024599D01*
X009844Y024649D01*
X009348Y024733D02*
X009348Y024733D01*
X009348Y024974D02*
X009348Y024974D01*
X008852Y024974D01*
X008852Y024649D01*
X008862Y024599D01*
X008881Y024551D01*
X008910Y024509D01*
X008946Y024472D01*
X008988Y024444D01*
X009036Y024424D01*
X009086Y024414D01*
X009348Y024414D01*
X009348Y024974D01*
X009348Y025051D02*
X009348Y025051D01*
X009348Y025370D02*
X009348Y025370D01*
X009825Y025370D02*
X010389Y025370D01*
X010238Y025051D02*
X009844Y025051D01*
X010070Y025688D02*
X007907Y025688D01*
X007907Y026007D02*
X008147Y026007D01*
X007966Y026325D02*
X007876Y026325D01*
X007856Y026644D02*
X007816Y026644D01*
X008358Y026962D02*
X008796Y026962D01*
X008997Y026644D02*
X009115Y026644D01*
X009049Y026325D02*
X009433Y026325D01*
X009752Y026007D02*
X008868Y026007D01*
X008870Y025370D02*
X008103Y025370D01*
X008123Y025051D02*
X008852Y025051D01*
X008852Y024733D02*
X008123Y024733D01*
X010797Y024863D02*
X011357Y024863D01*
X010797Y024863D01*
X010797Y024863D01*
X011357Y024733D02*
X014727Y024733D01*
X014727Y025051D02*
X012398Y025051D01*
X012036Y025051D02*
X011357Y025051D01*
X011247Y024414D02*
X014487Y024414D01*
X014727Y025370D02*
X012741Y025370D01*
X012787Y025688D02*
X014727Y025688D01*
X014727Y026007D02*
X012610Y026007D01*
X011824Y026007D02*
X010855Y026007D01*
X011337Y026325D02*
X014727Y026325D01*
X014727Y026644D02*
X012375Y026644D01*
X012617Y026962D02*
X014617Y026962D01*
X014617Y027281D02*
X012617Y027281D01*
X012433Y027599D02*
X016472Y027599D01*
X016790Y027918D02*
X012752Y027918D01*
X013070Y028236D02*
X017109Y028236D01*
X017427Y028555D02*
X013389Y028555D01*
X013707Y028873D02*
X017746Y028873D01*
X018064Y029192D02*
X014317Y029192D01*
X013545Y029829D02*
X013117Y029829D01*
X012817Y029829D02*
X012817Y029829D01*
X012517Y029829D02*
X008936Y029829D01*
X009050Y029510D02*
X012297Y029510D01*
X012297Y029192D02*
X009068Y029192D01*
X008996Y028873D02*
X012602Y028873D01*
X012817Y028873D02*
X012817Y028873D01*
X012817Y029192D02*
X012817Y029192D01*
X012817Y029510D02*
X012817Y029510D01*
X012568Y028555D02*
X008806Y028555D01*
X008884Y028236D02*
X012250Y028236D01*
X011931Y027918D02*
X009203Y027918D01*
X009521Y027599D02*
X011827Y027599D01*
X011617Y027281D02*
X009840Y027281D01*
X010158Y026962D02*
X010321Y026962D01*
X011273Y026962D02*
X011617Y026962D01*
X011859Y026644D02*
X011337Y026644D01*
X019217Y021849D02*
X019654Y021849D01*
X019917Y021849D01*
X019217Y021849D01*
X019217Y021849D01*
X019917Y021849D02*
X019917Y021849D01*
X019917Y021849D01*
X020717Y021849D01*
X020717Y021849D01*
X020280Y021849D01*
X019917Y021849D01*
X024657Y019723D02*
X024657Y019606D01*
X024606Y019483D01*
X024917Y019483D01*
X024914Y019490D01*
X024904Y019540D01*
X024904Y019693D01*
X025499Y019693D01*
X025499Y019693D01*
X026094Y019693D01*
X026094Y019540D01*
X026084Y019490D01*
X026064Y019442D01*
X026051Y019423D01*
X026074Y019369D01*
X026074Y019247D01*
X026261Y019059D01*
X026368Y019166D01*
X026530Y019233D01*
X026602Y019233D01*
X026597Y019258D01*
X026597Y019393D01*
X027117Y019393D01*
X027117Y019393D01*
X026597Y019393D01*
X026597Y019529D01*
X026607Y019579D01*
X026627Y019626D01*
X026655Y019669D01*
X026691Y019705D01*
X026734Y019734D01*
X026781Y019753D01*
X026831Y019763D01*
X027117Y019763D01*
X027117Y019393D01*
X027117Y019393D01*
X027117Y019763D01*
X027227Y019763D01*
X027227Y019843D01*
X026809Y019843D01*
X026721Y019880D01*
X026698Y019903D01*
X026449Y019903D01*
X026366Y019820D01*
X026205Y019753D01*
X026094Y019753D01*
X026094Y019693D01*
X025499Y019693D01*
X025499Y019693D01*
X024904Y019693D01*
X024904Y019847D01*
X024914Y019897D01*
X024934Y019944D01*
X024947Y019964D01*
X024932Y019998D01*
X024657Y019723D01*
X024657Y019637D02*
X024904Y019637D01*
X024889Y019955D02*
X024941Y019955D01*
X026094Y019637D02*
X026634Y019637D01*
X026597Y019318D02*
X026074Y019318D01*
X027117Y019637D02*
X027117Y019637D01*
X027227Y020543D02*
X026809Y020543D01*
X026721Y020507D01*
X026698Y020483D01*
X026449Y020483D01*
X026366Y020566D01*
X026205Y020633D01*
X026074Y020633D01*
X026074Y020869D01*
X026043Y020943D01*
X026074Y021018D01*
X026074Y021369D01*
X026043Y021443D01*
X026074Y021518D01*
X026074Y021869D01*
X026059Y021903D01*
X026698Y021903D01*
X026721Y021880D01*
X026809Y021843D01*
X027227Y021843D01*
X027227Y021763D01*
X027117Y021763D01*
X026831Y021763D01*
X026781Y021753D01*
X026734Y021734D01*
X026691Y021705D01*
X026655Y021669D01*
X026627Y021626D01*
X026607Y021579D01*
X026597Y021529D01*
X026597Y021393D01*
X026597Y021258D01*
X026607Y021207D01*
X026627Y021160D01*
X026655Y021118D01*
X026691Y021081D01*
X026734Y021053D01*
X026781Y021033D01*
X026831Y021023D01*
X027117Y021023D01*
X027117Y021393D01*
X027117Y021393D01*
X027117Y021023D01*
X027227Y021023D01*
X027227Y020543D01*
X027227Y020592D02*
X026304Y020592D01*
X026056Y020911D02*
X027227Y020911D01*
X027117Y021229D02*
X027117Y021229D01*
X027117Y021393D02*
X026597Y021393D01*
X027117Y021393D01*
X027117Y021393D01*
X027117Y021763D01*
X027117Y021393D01*
X027117Y021393D01*
X027117Y021548D02*
X027117Y021548D01*
X026754Y021866D02*
X026074Y021866D01*
X026074Y021548D02*
X026601Y021548D01*
X026603Y021229D02*
X026074Y021229D01*
X030385Y023777D02*
X031157Y023777D01*
X031157Y023793D02*
X031157Y023594D01*
X031189Y023517D01*
X030917Y023245D01*
X030838Y023324D01*
X029649Y024513D01*
X029697Y024561D01*
X029733Y024649D01*
X029733Y025138D01*
X029697Y025226D01*
X029629Y025294D01*
X029541Y025330D01*
X028658Y025330D01*
X028585Y025300D01*
X028505Y025333D01*
X028330Y025333D01*
X028168Y025266D01*
X028044Y025143D01*
X027977Y024981D01*
X027977Y024806D01*
X028044Y024644D01*
X028105Y024583D01*
X027548Y024583D01*
X027548Y024585D01*
X027511Y024673D01*
X027444Y024741D01*
X027355Y024777D01*
X026785Y024777D01*
X026694Y024868D01*
X026717Y024868D01*
X026717Y025423D01*
X026717Y025423D01*
X026717Y024868D01*
X027333Y024868D01*
X027383Y024878D01*
X027431Y024898D01*
X027473Y024926D01*
X027510Y024962D01*
X027538Y025005D01*
X027558Y025052D01*
X027568Y025102D01*
X027568Y025423D01*
X026717Y025423D01*
X025867Y025423D01*
X025867Y025183D01*
X025717Y025183D01*
X025717Y025261D01*
X025681Y025349D01*
X025613Y025417D01*
X025525Y025453D01*
X025209Y025453D01*
X025121Y025417D01*
X025117Y025413D01*
X025113Y025417D01*
X025025Y025453D01*
X024709Y025453D01*
X024621Y025417D01*
X024617Y025413D01*
X024613Y025417D01*
X024525Y025453D01*
X024209Y025453D01*
X024121Y025417D01*
X024117Y025413D01*
X024113Y025417D01*
X024025Y025453D01*
X023709Y025453D01*
X023680Y025441D01*
X023552Y025568D01*
X023552Y025723D01*
X023523Y025793D01*
X023552Y025864D01*
X023552Y025877D01*
X023809Y026133D01*
X024025Y026133D01*
X024113Y026170D01*
X024117Y026174D01*
X024121Y026170D01*
X024209Y026133D01*
X024525Y026133D01*
X024601Y026165D01*
X024634Y026143D01*
X024681Y026123D01*
X024731Y026113D01*
X024867Y026113D01*
X024867Y026763D01*
X024867Y026763D01*
X024867Y026113D01*
X025003Y026113D01*
X025053Y026123D01*
X025100Y026143D01*
X025133Y026165D01*
X025209Y026133D01*
X025525Y026133D01*
X025613Y026170D01*
X025681Y026237D01*
X025717Y026326D01*
X025717Y027201D01*
X025692Y027261D01*
X025694Y027261D01*
X025744Y027271D01*
X025792Y027290D01*
X025834Y027319D01*
X025871Y027355D01*
X025878Y027366D01*
X025872Y027351D01*
X025862Y027301D01*
X025862Y027019D01*
X025862Y026738D01*
X025872Y026688D01*
X025891Y026640D01*
X025920Y026598D01*
X025956Y026561D01*
X025999Y026533D01*
X026046Y026513D01*
X026096Y026503D01*
X026417Y026503D01*
X026417Y027019D01*
X026417Y027019D01*
X026417Y026503D01*
X026738Y026503D01*
X026788Y026513D01*
X026835Y026533D01*
X026878Y026561D01*
X026914Y026598D01*
X026943Y026640D01*
X026962Y026688D01*
X026972Y026738D01*
X026972Y027019D01*
X026417Y027019D01*
X025862Y027019D01*
X026417Y027019D01*
X026417Y027019D01*
X026417Y027019D01*
X026972Y027019D01*
X026972Y027301D01*
X026962Y027351D01*
X026943Y027398D01*
X026939Y027403D01*
X027178Y027403D01*
X027140Y027387D01*
X027097Y027359D01*
X027061Y027323D01*
X027032Y027280D01*
X027013Y027233D01*
X027003Y027183D01*
X027003Y026842D01*
X027003Y026502D01*
X027013Y026451D01*
X027032Y026404D01*
X027061Y026361D01*
X027097Y026325D01*
X027140Y026297D01*
X027187Y026277D01*
X027237Y026267D01*
X027617Y026267D01*
X027617Y026842D01*
X027617Y026842D01*
X027003Y026842D01*
X027617Y026842D01*
X027617Y026842D01*
X027617Y026267D01*
X027997Y026267D01*
X028047Y026277D01*
X028095Y026297D01*
X028137Y026325D01*
X028173Y026361D01*
X028202Y026404D01*
X028221Y026451D01*
X028231Y026502D01*
X028231Y026842D01*
X027617Y026842D01*
X027617Y026842D01*
X028231Y026842D01*
X028231Y027183D01*
X028221Y027233D01*
X028218Y027241D01*
X028286Y027172D01*
X028396Y027063D01*
X028466Y027034D01*
X028466Y026649D01*
X028503Y026561D01*
X028570Y026493D01*
X028658Y026456D01*
X029541Y026456D01*
X029629Y026493D01*
X029697Y026561D01*
X029727Y026632D01*
X031301Y025058D01*
X031301Y024649D01*
X031337Y024561D01*
X031405Y024493D01*
X031493Y024456D01*
X031527Y024456D01*
X031527Y024181D01*
X031374Y024117D01*
X031233Y023977D01*
X031157Y023793D01*
X031131Y023459D02*
X030703Y023459D01*
X030066Y024096D02*
X031352Y024096D01*
X031527Y024414D02*
X029748Y024414D01*
X029733Y024733D02*
X031301Y024733D01*
X031301Y025051D02*
X029733Y025051D01*
X029541Y025456D02*
X029629Y025493D01*
X029697Y025561D01*
X029733Y025649D01*
X029733Y026138D01*
X029697Y026226D01*
X029629Y026294D01*
X029541Y026330D01*
X028658Y026330D01*
X028570Y026294D01*
X028503Y026226D01*
X028466Y026138D01*
X028466Y025649D01*
X028503Y025561D01*
X028570Y025493D01*
X028658Y025456D01*
X029541Y025456D01*
X029733Y025688D02*
X030670Y025688D01*
X030352Y026007D02*
X029733Y026007D01*
X029553Y026325D02*
X030033Y026325D01*
X030818Y026644D02*
X031303Y026644D01*
X031301Y026962D02*
X030500Y026962D01*
X030181Y027281D02*
X031392Y027281D01*
X031321Y027599D02*
X029863Y027599D01*
X029733Y027918D02*
X031301Y027918D01*
X031347Y028236D02*
X029687Y028236D01*
X028513Y028236D02*
X028211Y028236D01*
X027023Y028236D02*
X026826Y028236D01*
X026507Y028555D02*
X035991Y028555D01*
X035662Y028236D02*
X034287Y028236D01*
X034333Y027918D02*
X035627Y027918D01*
X035642Y027599D02*
X034313Y027599D01*
X033119Y027281D02*
X032477Y027281D01*
X032548Y027599D02*
X032801Y027599D01*
X032521Y028236D02*
X033113Y028236D01*
X033075Y026325D02*
X032387Y026325D01*
X032568Y026007D02*
X033066Y026007D01*
X033066Y025688D02*
X032568Y025688D01*
X032092Y025370D02*
X035830Y025370D01*
X035512Y025688D02*
X034333Y025688D01*
X034333Y025051D02*
X035324Y025051D01*
X032606Y025051D02*
X032568Y025051D01*
X030989Y025370D02*
X027568Y025370D01*
X027568Y025423D02*
X027568Y025744D01*
X027558Y025794D01*
X027538Y025842D01*
X027510Y025884D01*
X027473Y025920D01*
X027431Y025949D01*
X027383Y025969D01*
X027333Y025979D01*
X026717Y025979D01*
X026101Y025979D01*
X026051Y025969D01*
X026003Y025949D01*
X025961Y025920D01*
X025925Y025884D01*
X025896Y025842D01*
X025876Y025794D01*
X025867Y025744D01*
X025867Y025423D01*
X026717Y025423D01*
X026717Y025423D01*
X026717Y025423D01*
X027568Y025423D01*
X027568Y025688D02*
X028466Y025688D01*
X028466Y026007D02*
X023682Y026007D01*
X023552Y025688D02*
X025867Y025688D01*
X025867Y025370D02*
X025660Y025370D01*
X026717Y025370D02*
X026717Y025370D01*
X026717Y025423D02*
X026717Y025979D01*
X026717Y025423D01*
X026717Y025423D01*
X026717Y025688D02*
X026717Y025688D01*
X026717Y025051D02*
X026717Y025051D01*
X027452Y024733D02*
X028007Y024733D01*
X028006Y025051D02*
X027557Y025051D01*
X027617Y026325D02*
X027617Y026325D01*
X027617Y026644D02*
X027617Y026644D01*
X027097Y026325D02*
X025717Y026325D01*
X025717Y026644D02*
X025890Y026644D01*
X025862Y026962D02*
X025717Y026962D01*
X025769Y027281D02*
X025862Y027281D01*
X026417Y026962D02*
X026417Y026962D01*
X026417Y026644D02*
X026417Y026644D01*
X026944Y026644D02*
X027003Y026644D01*
X027003Y026962D02*
X026972Y026962D01*
X026972Y027281D02*
X027033Y027281D01*
X028231Y026962D02*
X028466Y026962D01*
X028468Y026644D02*
X028231Y026644D01*
X028137Y026325D02*
X028647Y026325D01*
X031137Y026325D02*
X031481Y026325D01*
X035740Y027281D02*
X035919Y027281D01*
X035753Y027447D02*
X035753Y027447D01*
X024867Y026644D02*
X024867Y026644D01*
X024867Y026325D02*
X024867Y026325D01*
X031474Y018617D02*
X031627Y018681D01*
X032757Y018044D02*
X032778Y018044D01*
X033079Y017726D02*
X032455Y017726D01*
X030227Y017726D02*
X029860Y017726D01*
X029581Y017447D02*
X029475Y017403D01*
X028336Y017403D01*
X028313Y017380D01*
X028225Y017343D01*
X027637Y017343D01*
X027637Y017293D01*
X027301Y017293D01*
X027301Y017293D01*
X027637Y017293D01*
X027637Y017158D01*
X027627Y017107D01*
X027607Y017060D01*
X027579Y017018D01*
X027543Y016981D01*
X027500Y016953D01*
X027453Y016933D01*
X027403Y016923D01*
X027117Y016923D01*
X027117Y017253D01*
X027117Y017253D01*
X027117Y016923D01*
X026831Y016923D01*
X026807Y016928D01*
X026807Y016342D01*
X026809Y016343D01*
X027425Y016343D01*
X027513Y016307D01*
X027581Y016239D01*
X027617Y016151D01*
X027617Y015943D01*
X028225Y015943D01*
X028313Y015907D01*
X028336Y015883D01*
X029785Y015883D01*
X029868Y015966D01*
X030030Y016033D01*
X030205Y016033D01*
X030227Y016024D01*
X030227Y018093D01*
X029581Y017447D01*
X029484Y017407D02*
X030227Y017407D01*
X030227Y017089D02*
X027619Y017089D01*
X027117Y017089D02*
X027117Y017089D01*
X026807Y016770D02*
X030227Y016770D01*
X030227Y016452D02*
X026807Y016452D01*
X027617Y016133D02*
X030227Y016133D01*
X029970Y015178D02*
X027637Y015178D01*
X027510Y014859D02*
X030227Y014859D01*
X030227Y014541D02*
X027580Y014541D01*
X027463Y014658D02*
X027463Y014658D01*
X027381Y014739D02*
X027381Y014739D01*
X030178Y018044D02*
X030227Y018044D01*
X039965Y016133D02*
X042157Y016133D01*
X042157Y015815D02*
X040113Y015815D01*
X040164Y015496D02*
X042157Y015496D01*
X042157Y015178D02*
X040004Y015178D01*
X040164Y014859D02*
X042157Y014859D01*
X042157Y014541D02*
X040100Y014541D01*
X040678Y013585D02*
X042157Y013585D01*
X042157Y013267D02*
X041189Y013267D01*
X041374Y012948D02*
X042157Y012948D01*
X042157Y012630D02*
X041430Y012630D01*
X041386Y012311D02*
X042157Y012311D01*
X042157Y011993D02*
X041232Y011993D01*
X042157Y016452D02*
X040172Y016452D01*
X040148Y016770D02*
X040272Y016770D01*
X040562Y016770D02*
X042157Y016770D01*
X042157Y017089D02*
X041158Y017089D01*
X041366Y017407D02*
X042157Y017407D01*
X042157Y017726D02*
X041430Y017726D01*
X041395Y018044D02*
X042157Y018044D01*
X042157Y018363D02*
X041250Y018363D01*
X040881Y018681D02*
X042157Y018681D01*
X020648Y007003D02*
X020628Y006983D01*
X019159Y006983D01*
X019053Y006939D01*
X018280Y006166D01*
X018072Y006373D01*
X018132Y006373D01*
X018437Y006678D01*
X018437Y006893D01*
X017917Y006893D01*
X017917Y006893D01*
X018437Y006893D01*
X018437Y007003D01*
X020648Y007003D01*
X019010Y006897D02*
X018437Y006897D01*
X018337Y006578D02*
X018692Y006578D01*
X018373Y006260D02*
X018186Y006260D01*
X016147Y007534D02*
X009487Y007534D01*
X009168Y007852D02*
X016417Y007852D01*
X016487Y008171D02*
X008850Y008171D01*
X008531Y008489D02*
X018027Y008489D01*
X016926Y011674D02*
X006133Y011674D01*
X006337Y011993D02*
X016607Y011993D01*
X016289Y012311D02*
X006445Y012311D01*
X005501Y011674D02*
X005133Y011674D01*
D54*
X005817Y012093D02*
X009217Y015493D01*
X009217Y018593D01*
X008877Y018593D01*
X007757Y018593D01*
X007757Y018393D02*
X007717Y018393D01*
X007717Y015993D01*
X005817Y014093D01*
X005817Y013093D02*
X008817Y016093D01*
X008817Y018393D01*
X008877Y018393D01*
X008877Y018793D02*
X009217Y018793D01*
X009317Y018893D01*
X009817Y018393D01*
X010317Y018393D01*
X010317Y018413D01*
X010317Y018393D02*
X010617Y018393D01*
X013517Y015493D01*
X017517Y019493D01*
X019217Y019493D01*
X019217Y019537D01*
X019217Y019593D01*
X019917Y019593D01*
X019917Y019537D01*
X019917Y019593D02*
X020717Y019593D01*
X020717Y019537D01*
X020717Y019493D01*
X021417Y020193D01*
X021735Y020193D01*
X021917Y020193D01*
X022917Y019193D01*
X025499Y019193D01*
X025717Y019193D01*
X026517Y018393D01*
X026517Y015193D01*
X027217Y014493D01*
X026517Y013793D01*
X026117Y013793D01*
X021217Y008893D01*
X023217Y006893D01*
X023117Y006793D01*
X023217Y006893D02*
X023317Y006793D01*
X024417Y006793D01*
X024617Y006993D01*
X024617Y007093D01*
X024592Y007093D01*
X024817Y007093D02*
X024842Y007093D01*
X024817Y007093D02*
X024817Y006893D01*
X024517Y006593D01*
X023417Y006593D01*
X023217Y006393D01*
X023017Y006393D01*
X019417Y009993D01*
X019417Y010393D01*
X019367Y010423D01*
X019417Y010493D01*
X019417Y010693D01*
X020117Y011393D01*
X020117Y013893D01*
X019317Y014693D01*
X021117Y016493D01*
X021735Y017193D02*
X021917Y017193D01*
X023517Y015593D01*
X024217Y015593D01*
X025117Y015493D02*
X021617Y011993D01*
X021617Y009793D01*
X021217Y009393D02*
X021217Y012093D01*
X025117Y015993D01*
X025217Y015993D01*
X025417Y016193D01*
X025499Y016193D01*
X025499Y015693D02*
X025417Y015693D01*
X025217Y015493D01*
X025117Y015493D01*
X025417Y015193D02*
X025499Y015193D01*
X025417Y015193D02*
X026417Y014193D01*
X026917Y013693D02*
X026917Y011793D01*
X028017Y010693D01*
X031517Y010693D01*
X032717Y009493D01*
X032717Y009093D01*
X032517Y008893D01*
X032317Y008893D01*
X032117Y008693D01*
X032117Y008343D01*
X032317Y008293D02*
X032377Y008343D01*
X032317Y008293D02*
X032317Y006693D01*
X032117Y006493D01*
X032117Y006043D01*
X032117Y005393D01*
X032417Y005093D01*
X032373Y005093D01*
X032517Y004693D02*
X032917Y005093D01*
X032917Y005993D01*
X032887Y006043D01*
X032627Y006043D02*
X032617Y006093D01*
X032617Y006393D01*
X032717Y006493D01*
X033017Y006493D01*
X033517Y005993D01*
X033517Y005793D01*
X033717Y005593D01*
X038217Y005593D01*
X038817Y006193D01*
X038819Y006205D01*
X034617Y007693D02*
X033917Y006993D01*
X033217Y006693D02*
X033917Y005993D01*
X033217Y006693D02*
X032617Y006693D01*
X032417Y006493D01*
X032417Y006093D01*
X032377Y006043D01*
X031917Y005993D02*
X031857Y006043D01*
X031917Y005993D02*
X031917Y005093D01*
X031861Y005093D01*
X030717Y005093D01*
X029717Y004093D01*
X028517Y004093D01*
X027617Y004993D01*
X026717Y004993D01*
X026697Y005053D01*
X026617Y005093D01*
X025817Y005893D01*
X025817Y006093D01*
X025761Y006093D01*
X025817Y006093D02*
X024817Y005093D01*
X024797Y005053D01*
X024717Y004993D01*
X024417Y004693D01*
X024417Y004393D01*
X024317Y004293D01*
X023317Y004293D01*
X022617Y004993D01*
X022417Y004993D01*
X023017Y005593D01*
X023017Y005093D02*
X023417Y004693D01*
X023617Y004693D01*
X023717Y004793D01*
X024037Y004793D01*
X024037Y005053D02*
X024017Y005093D01*
X023517Y005093D01*
X023617Y005493D02*
X018917Y010193D01*
X018917Y010393D01*
X018867Y010423D01*
X018817Y010493D01*
X017917Y011393D01*
X017917Y014593D01*
X018217Y014593D01*
X017917Y014593D02*
X017917Y015293D01*
X018617Y015093D02*
X017317Y016393D01*
X015417Y016393D01*
X015417Y016443D01*
X013517Y015493D02*
X018317Y010693D01*
X018317Y007293D01*
X021017Y007293D01*
X021517Y006793D01*
X021717Y006793D01*
X021797Y006753D01*
X022117Y006493D02*
X022517Y006093D01*
X022117Y006493D02*
X021037Y006493D01*
X021017Y006693D02*
X021037Y006753D01*
X021017Y006693D02*
X019217Y006693D01*
X017917Y005393D01*
X014417Y005393D01*
X016917Y007893D01*
X017917Y007893D01*
X018317Y007293D02*
X017317Y007293D01*
X016917Y006893D01*
X016917Y005793D01*
X017017Y004893D02*
X016917Y004793D01*
X016717Y004593D01*
X012917Y004593D01*
X012917Y004578D01*
X012917Y004593D02*
X012073Y004593D01*
X011561Y004593D02*
X011517Y004593D01*
X010717Y005393D01*
X010617Y005393D01*
X009617Y005393D02*
X008717Y005393D01*
X008117Y005993D01*
X005817Y005993D01*
X005743Y006002D01*
X007517Y009093D02*
X009617Y006993D01*
X009617Y006593D01*
X010617Y006593D02*
X010717Y006493D01*
X011561Y006493D01*
X012073Y006493D02*
X012917Y006493D01*
X012917Y006508D01*
X012917Y006493D02*
X014017Y005393D01*
X014417Y005393D01*
X017017Y004893D02*
X017817Y004893D01*
X017917Y004993D01*
X021017Y004993D01*
X021037Y005053D01*
X021037Y004793D02*
X020717Y004793D01*
X020617Y004693D01*
X020617Y004393D01*
X021117Y003893D01*
X026617Y003893D01*
X027117Y004393D01*
X027117Y004493D01*
X027617Y004493D01*
X027117Y004493D02*
X027117Y004693D01*
X027017Y004793D01*
X025937Y004793D01*
X025937Y005053D02*
X025917Y005093D01*
X025417Y005093D01*
X025417Y004493D02*
X024817Y004493D01*
X024797Y004533D01*
X024817Y004493D02*
X024417Y004093D01*
X023117Y004093D01*
X022617Y004593D01*
X022417Y004593D01*
X022417Y004993D02*
X021817Y004993D01*
X021797Y005053D01*
X021417Y004893D02*
X021417Y005793D01*
X021217Y005793D01*
X021417Y005793D02*
X021417Y005893D01*
X021717Y006193D01*
X021797Y006233D01*
X021417Y004893D02*
X021717Y004593D01*
X021797Y004533D01*
X023617Y005493D02*
X024717Y005493D01*
X025117Y005893D01*
X025117Y007093D01*
X025092Y007093D01*
X025317Y007093D02*
X025342Y007093D01*
X025317Y007093D02*
X025317Y006793D01*
X025517Y006593D01*
X025817Y006793D02*
X025817Y007093D01*
X025842Y007093D01*
X025817Y007093D02*
X025592Y007093D01*
X025817Y006793D02*
X025917Y006693D01*
X025917Y006193D01*
X025817Y006093D01*
X026117Y006193D02*
X026217Y006093D01*
X026273Y006093D01*
X026117Y006193D02*
X026117Y007093D01*
X026092Y007093D01*
X026317Y007093D02*
X026317Y006693D01*
X026417Y006593D01*
X026517Y006693D01*
X026417Y006593D02*
X027617Y005393D01*
X028417Y005393D02*
X028717Y005093D01*
X028417Y004793D01*
X028717Y005093D02*
X029117Y004693D01*
X029117Y004593D01*
X029417Y004293D01*
X029617Y004293D01*
X029917Y004593D01*
X029917Y005193D01*
X029873Y005193D01*
X029417Y005193D02*
X029417Y004793D01*
X029517Y004693D01*
X029417Y005193D02*
X029361Y005193D01*
X029361Y005793D02*
X029317Y005793D01*
X029117Y005993D01*
X028817Y005693D01*
X029117Y005993D02*
X028917Y006193D01*
X028417Y006193D01*
X027617Y006193D02*
X027517Y006193D01*
X027017Y006693D01*
X026617Y007093D01*
X026592Y007093D01*
X026342Y007093D02*
X026317Y007093D01*
X027617Y007093D02*
X027661Y007093D01*
X027617Y007093D02*
X027617Y008193D01*
X027617Y009193D02*
X027617Y010093D01*
X027661Y010093D01*
X027617Y010093D02*
X027317Y010393D01*
X026217Y010393D01*
X026117Y010293D01*
X026117Y010093D01*
X026092Y010093D01*
X024917Y010893D02*
X024917Y010937D01*
X024917Y010893D02*
X024817Y010793D01*
X024232Y010793D01*
X024317Y010493D02*
X024017Y010493D01*
X023717Y010793D01*
X023641Y010793D01*
X024317Y010493D02*
X024617Y010193D01*
X024617Y010093D01*
X024592Y010093D01*
X024817Y010093D02*
X024842Y010093D01*
X024817Y010093D02*
X024817Y010793D01*
X024917Y011449D02*
X024917Y011693D01*
X025717Y012493D01*
X027217Y014493D02*
X028517Y013193D01*
X028517Y012244D01*
X028517Y012193D01*
X028617Y012093D01*
X029517Y012093D01*
X029557Y012003D01*
X029917Y011593D02*
X030817Y011593D01*
X031017Y011393D01*
X031017Y011319D01*
X029917Y011593D02*
X029817Y011493D01*
X029817Y011183D01*
X031861Y009293D02*
X031917Y009293D01*
X031917Y008393D01*
X031857Y008343D01*
X031617Y008293D02*
X031607Y008343D01*
X031617Y008293D02*
X031617Y007993D01*
X031117Y007493D01*
X030517Y007493D01*
X030517Y007449D01*
X030517Y006937D02*
X030517Y006893D01*
X031117Y006893D01*
X031617Y006393D01*
X031617Y006093D01*
X031607Y006043D01*
X030917Y005793D02*
X029873Y005793D01*
X030817Y004693D02*
X032517Y004693D01*
X032717Y007593D02*
X032717Y007793D01*
X032917Y007993D01*
X032917Y008293D01*
X032887Y008343D01*
X032627Y008343D02*
X032617Y008393D01*
X032617Y008693D01*
X033517Y009593D01*
X037417Y009593D01*
X037517Y009693D01*
X037560Y009768D01*
X034664Y007911D02*
X034617Y007893D01*
X034617Y007693D01*
X026697Y004533D02*
X026617Y004493D01*
X026417Y004293D01*
X025617Y004293D01*
X025417Y004493D01*
X024417Y005693D02*
X024117Y005693D01*
X023617Y006193D01*
X024417Y005693D02*
X024717Y005993D01*
X024717Y006093D01*
X024773Y006093D01*
X021217Y008893D02*
X019917Y010193D01*
X019917Y010393D01*
X019867Y010423D01*
X019867Y012363D02*
X019817Y012393D01*
X019817Y013493D01*
X019517Y013793D01*
X019317Y013393D02*
X018617Y014093D01*
X018617Y015093D01*
X019317Y014693D02*
X017917Y016093D01*
X017917Y016393D01*
X020517Y013793D02*
X020417Y013693D01*
X020417Y012393D01*
X020367Y012363D01*
X019367Y012363D02*
X019317Y012393D01*
X019317Y013393D01*
X025499Y017193D02*
X025717Y017193D01*
X026117Y017593D01*
X026117Y018293D01*
X026617Y018793D02*
X027117Y018793D01*
X027517Y019193D01*
X027517Y022393D01*
X027417Y022493D01*
X019017Y022493D01*
X018417Y021893D01*
X013017Y021893D01*
X010317Y019193D01*
X010317Y019173D01*
X010317Y018923D02*
X010317Y018893D01*
X009817Y018893D01*
X009717Y018993D01*
X009317Y018893D02*
X009317Y019793D01*
X009317Y020793D01*
X009417Y020893D01*
X009417Y021193D01*
X011117Y022893D01*
X012117Y022893D01*
X012117Y023393D01*
X011917Y023593D01*
X011617Y023593D01*
X011587Y023643D01*
X011587Y023143D02*
X011517Y023093D01*
X010817Y023093D01*
X010117Y022393D01*
X008917Y022393D01*
X008017Y021493D01*
X007417Y020893D02*
X006917Y020393D01*
X006917Y019593D01*
X007517Y018993D01*
X007757Y018993D01*
X007757Y018793D02*
X007217Y018793D01*
X007417Y019793D02*
X008217Y018993D01*
X008877Y018993D01*
X008917Y018993D01*
X008917Y021893D01*
X009617Y022593D02*
X008117Y022593D01*
X008017Y022493D01*
X008117Y022593D02*
X007617Y023093D01*
X007617Y024893D01*
X007647Y024974D01*
X007617Y024993D01*
X007617Y026193D01*
X007417Y026393D01*
X007327Y026411D01*
X008017Y026893D02*
X008417Y026493D01*
X008508Y026411D01*
X008017Y026893D02*
X008017Y027793D01*
X008317Y028093D01*
X008617Y028093D01*
X010117Y026593D01*
X010717Y026593D01*
X010797Y026563D01*
X012117Y027093D02*
X012117Y027693D01*
X013817Y029393D01*
X010017Y023593D02*
X009717Y023593D01*
X009647Y023643D01*
X010017Y023593D02*
X010317Y023293D01*
X009717Y023093D02*
X009647Y023143D01*
X009717Y023093D02*
X009717Y022693D01*
X009647Y022643D01*
X009617Y022593D01*
X011587Y022643D02*
X011617Y022593D01*
X011617Y022293D01*
X013217Y022293D01*
X011617Y022293D02*
X011617Y022193D01*
X011587Y022143D01*
X011817Y019393D02*
X010917Y019393D01*
X010917Y018993D01*
X011017Y018893D01*
X011317Y018893D01*
X011317Y018923D01*
X011317Y019173D02*
X011317Y019193D01*
X011617Y019193D01*
X011717Y019093D01*
X011717Y018793D01*
X011317Y018393D01*
X011317Y018413D01*
X011317Y018663D01*
X011317Y018393D02*
X010617Y018393D01*
X011817Y019393D02*
X012917Y018293D01*
X007417Y019793D02*
X007317Y019793D01*
X018817Y021693D02*
X019217Y021293D01*
X019217Y021337D01*
X019217Y021293D02*
X019217Y020049D01*
X019917Y020049D02*
X019917Y020893D01*
X020317Y020893D01*
X019917Y020893D02*
X019917Y021337D01*
X020717Y021337D02*
X020717Y021293D01*
X021117Y021693D01*
X021735Y021693D01*
X022217Y021893D02*
X021917Y022193D01*
X019017Y022193D01*
X018817Y021993D01*
X018817Y021693D01*
X020717Y021293D02*
X020717Y020049D01*
X021735Y020693D02*
X021817Y020693D01*
X022017Y020893D01*
X022117Y020893D01*
X022217Y020993D01*
X022217Y021893D01*
X021735Y021193D02*
X021317Y021193D01*
X021117Y020993D01*
X023717Y020593D02*
X023717Y019593D01*
X024217Y019693D02*
X025217Y020693D01*
X025499Y020693D01*
X025499Y021193D02*
X024817Y021193D01*
X024117Y020493D01*
X023717Y020593D02*
X025317Y022193D01*
X027117Y022193D01*
X027917Y021793D02*
X027917Y022693D01*
X028917Y023693D01*
X029100Y024893D02*
X028417Y024893D01*
X031934Y026893D02*
X032917Y026893D01*
X033517Y026293D01*
X035317Y026293D01*
X036317Y025293D01*
X037217Y025293D01*
X037917Y024593D01*
X037935Y024584D01*
X037917Y024093D02*
X038617Y024093D01*
X039017Y024493D01*
X039116Y024584D01*
X039617Y023993D02*
X039117Y023493D01*
X039116Y023403D01*
X039617Y023993D02*
X039617Y026093D01*
X037817Y027893D01*
X036534Y027893D01*
X036117Y028293D02*
X038917Y028293D01*
X041917Y025293D01*
X041917Y022693D01*
X041217Y021993D01*
X039317Y021993D01*
X039117Y022193D01*
X039116Y022222D01*
X038417Y022093D02*
X038417Y022993D01*
X038017Y023393D01*
X037935Y023403D01*
X037417Y023593D02*
X037917Y024093D01*
X037417Y023593D02*
X037417Y022593D01*
X036517Y021693D01*
X036517Y021393D01*
X036434Y021393D01*
X036817Y020993D02*
X038017Y022193D01*
X037935Y022222D01*
X038417Y022093D02*
X037117Y020793D01*
X031717Y020793D01*
X031317Y021193D01*
X031317Y021593D01*
X031917Y022193D01*
X031917Y022393D01*
X031934Y022393D01*
X031934Y021393D02*
X032817Y021393D01*
X033217Y020993D01*
X036817Y020993D01*
X036434Y022393D02*
X036417Y022393D01*
X036417Y022993D01*
X035917Y023493D01*
X035917Y024393D01*
X037217Y025693D02*
X037617Y025293D01*
X038617Y025293D01*
X039017Y025693D01*
X039116Y025765D01*
X037935Y025765D02*
X037917Y025793D01*
X037417Y026293D01*
X036317Y026293D01*
X035317Y027293D01*
X033517Y027293D01*
X032917Y027893D01*
X031934Y027893D01*
X035917Y028093D02*
X035917Y027693D01*
X036517Y027093D01*
X036517Y026893D01*
X036534Y026893D01*
X035917Y028093D02*
X036117Y028293D01*
X033700Y024893D02*
X033017Y024893D01*
X030117Y020393D02*
X030117Y018393D01*
X029417Y017693D01*
X027917Y017693D01*
X027117Y017693D02*
X027117Y018093D01*
X029017Y018193D02*
X029017Y019393D01*
X029100Y019393D01*
X029017Y019393D02*
X028617Y019793D01*
X027917Y019793D01*
X027117Y020193D02*
X026117Y020193D01*
X024717Y018793D02*
X023017Y018793D01*
X022817Y018993D01*
X022217Y018993D01*
X021917Y018693D01*
X021735Y018693D01*
X021735Y018193D02*
X021917Y018193D01*
X022317Y018593D01*
X022717Y018593D01*
X021735Y017693D02*
X024817Y017693D01*
X027117Y015993D02*
X027117Y015593D01*
X027917Y015593D02*
X030117Y015593D01*
X032917Y019393D02*
X033600Y019393D01*
X023867Y024823D02*
X023817Y024893D01*
X023317Y025393D01*
X023017Y025393D01*
X023017Y025419D01*
X007515Y009781D02*
X007517Y009693D01*
X007517Y009093D01*
D55*
X018217Y014593D03*
X021117Y016493D03*
X024217Y015593D03*
X026417Y014193D03*
X026917Y013693D03*
X027117Y015593D03*
X027117Y017693D03*
X026117Y018293D03*
X026617Y018793D03*
X026117Y020193D03*
X024217Y019693D03*
X023717Y019593D03*
X024717Y018793D03*
X024817Y017693D03*
X022717Y018593D03*
X024117Y020493D03*
X021117Y020993D03*
X020317Y020893D03*
X028417Y024893D03*
X033017Y024893D03*
X035917Y024393D03*
X037217Y025693D03*
X030117Y020393D03*
X032917Y019393D03*
X030117Y015593D03*
X021617Y009793D03*
X021217Y009393D03*
X023117Y006793D03*
X023617Y006193D03*
X023017Y005593D03*
X023017Y005093D03*
X023517Y005093D03*
X022417Y004593D03*
X021217Y005793D03*
X022517Y006093D03*
X025517Y006593D03*
X026517Y006693D03*
X027017Y006693D03*
X028817Y005693D03*
X028417Y004793D03*
X027617Y004493D03*
X029517Y004693D03*
X030817Y004693D03*
X030917Y005793D03*
X032717Y007593D03*
X025417Y005093D03*
X009717Y018993D03*
X007217Y018793D03*
X008017Y021493D03*
X008917Y021893D03*
X010317Y023293D03*
D56*
X009117Y023993D02*
X014417Y023993D01*
X014517Y023893D01*
X013917Y023293D01*
X013217Y023293D01*
X014517Y023893D02*
X015217Y024593D01*
X015117Y024693D01*
X015117Y027093D01*
X015217Y027193D01*
X016617Y027193D01*
X018517Y029093D01*
X023817Y029093D01*
X024517Y028393D01*
X024417Y028293D01*
X024417Y026793D01*
X024367Y026763D01*
X023867Y026763D02*
X023817Y026893D01*
X023817Y027993D01*
X023720Y027993D01*
X019717Y027993D01*
X019656Y028019D01*
X023017Y026193D02*
X023017Y026167D01*
X023017Y026193D02*
X023317Y026193D01*
X023817Y026693D01*
X023867Y026763D01*
X024517Y028393D02*
X024917Y028793D01*
X025717Y028793D01*
X026617Y027893D01*
X026417Y027767D01*
X026417Y027793D01*
X027517Y027793D01*
X027617Y027893D01*
X027617Y027944D01*
X027717Y027793D01*
X028217Y027793D01*
X028617Y027393D01*
X029517Y027393D01*
X031917Y024993D01*
X031934Y024893D01*
X031917Y024893D01*
X031917Y024393D01*
X035217Y024393D01*
X035717Y024893D01*
X036534Y024893D01*
X036617Y024893D01*
X036617Y023693D01*
X031917Y023693D02*
X031017Y022793D01*
X031017Y020393D01*
X031917Y019493D01*
X031934Y019393D01*
X032017Y019393D01*
X032017Y018793D01*
X036517Y018793D01*
X036517Y019393D01*
X036434Y019393D01*
X036517Y018793D02*
X036517Y018193D01*
X032017Y018193D02*
X032017Y018793D01*
X030617Y022993D02*
X030617Y012593D01*
X030517Y012493D01*
X030117Y012093D01*
X030077Y012003D01*
X030517Y012493D02*
X029517Y013493D01*
X030517Y012493D02*
X031017Y011993D01*
X031017Y012067D01*
X031117Y012093D01*
X032817Y013793D01*
X039317Y013793D01*
X039350Y013815D01*
X030617Y022993D02*
X029417Y024193D01*
X026817Y024193D01*
X026717Y024242D01*
X026717Y024293D01*
X026217Y024793D01*
X025417Y024793D01*
X025367Y024823D01*
X025317Y024693D01*
X025317Y024393D01*
X024817Y023893D01*
X019717Y023893D01*
X019656Y023807D01*
X016217Y025593D02*
X015217Y024593D01*
X012217Y025593D02*
X010717Y025593D01*
X008817Y027493D01*
X008517Y027493D01*
X008508Y027593D01*
X009117Y023993D02*
X008617Y023493D01*
X008017Y023493D01*
X031917Y023693D02*
X031917Y024393D01*
M02*
