G75*
G70*
%OFA0B0*%
%FSLAX24Y24*%
%IPPOS*%
%LPD*%
%AMOC8*
5,1,8,0,0,1.08239X$1,22.5*
%
%ADD10C,0.0000*%
%ADD11C,0.0060*%
%ADD12C,0.0030*%
%ADD13C,0.0050*%
%ADD14R,0.0150X0.0200*%
%ADD15C,0.0080*%
%ADD16C,0.0100*%
%ADD17C,0.0040*%
%ADD18R,0.0200X0.1000*%
%ADD19R,0.0750X0.0300*%
%ADD20R,0.0266X0.0965*%
%ADD21C,0.0020*%
%ADD22C,0.0010*%
%ADD23R,0.0200X0.0800*%
%ADD24R,0.0250X0.0200*%
%ADD25R,0.1043X0.0157*%
%ADD26R,0.0157X0.1043*%
%ADD27C,0.0200*%
%ADD28C,0.0472*%
%ADD29C,0.0070*%
%ADD30R,0.0100X0.0200*%
%ADD31R,0.0050X0.0150*%
%ADD32R,0.0100X0.0100*%
D10*
X003417Y000150D02*
X003417Y027746D01*
X042717Y027750D01*
X042717Y000150D01*
X003417Y000150D01*
X003987Y001450D02*
X003989Y001500D01*
X003995Y001550D01*
X004005Y001599D01*
X004019Y001647D01*
X004036Y001694D01*
X004057Y001739D01*
X004082Y001783D01*
X004110Y001824D01*
X004142Y001863D01*
X004176Y001900D01*
X004213Y001934D01*
X004253Y001964D01*
X004295Y001991D01*
X004339Y002015D01*
X004385Y002036D01*
X004432Y002052D01*
X004480Y002065D01*
X004530Y002074D01*
X004579Y002079D01*
X004630Y002080D01*
X004680Y002077D01*
X004729Y002070D01*
X004778Y002059D01*
X004826Y002044D01*
X004872Y002026D01*
X004917Y002004D01*
X004960Y001978D01*
X005001Y001949D01*
X005040Y001917D01*
X005076Y001882D01*
X005108Y001844D01*
X005138Y001804D01*
X005165Y001761D01*
X005188Y001717D01*
X005207Y001671D01*
X005223Y001623D01*
X005235Y001574D01*
X005243Y001525D01*
X005247Y001475D01*
X005247Y001425D01*
X005243Y001375D01*
X005235Y001326D01*
X005223Y001277D01*
X005207Y001229D01*
X005188Y001183D01*
X005165Y001139D01*
X005138Y001096D01*
X005108Y001056D01*
X005076Y001018D01*
X005040Y000983D01*
X005001Y000951D01*
X004960Y000922D01*
X004917Y000896D01*
X004872Y000874D01*
X004826Y000856D01*
X004778Y000841D01*
X004729Y000830D01*
X004680Y000823D01*
X004630Y000820D01*
X004579Y000821D01*
X004530Y000826D01*
X004480Y000835D01*
X004432Y000848D01*
X004385Y000864D01*
X004339Y000885D01*
X004295Y000909D01*
X004253Y000936D01*
X004213Y000966D01*
X004176Y001000D01*
X004142Y001037D01*
X004110Y001076D01*
X004082Y001117D01*
X004057Y001161D01*
X004036Y001206D01*
X004019Y001253D01*
X004005Y001301D01*
X003995Y001350D01*
X003989Y001400D01*
X003987Y001450D01*
X023657Y022430D02*
X023678Y022432D01*
X023698Y022437D01*
X023717Y022446D01*
X023734Y022458D01*
X023749Y022473D01*
X023761Y022490D01*
X023770Y022509D01*
X023775Y022529D01*
X023777Y022550D01*
X023775Y022571D01*
X023770Y022591D01*
X023761Y022610D01*
X023749Y022627D01*
X023734Y022642D01*
X023717Y022654D01*
X023698Y022663D01*
X023678Y022668D01*
X023657Y022670D01*
X023678Y022668D01*
X023698Y022663D01*
X023717Y022654D01*
X023734Y022642D01*
X023749Y022627D01*
X023761Y022610D01*
X023770Y022591D01*
X023775Y022571D01*
X023777Y022550D01*
X023775Y022529D01*
X023770Y022509D01*
X023761Y022490D01*
X023749Y022473D01*
X023734Y022458D01*
X023717Y022446D01*
X023698Y022437D01*
X023678Y022432D01*
X023657Y022430D01*
X007326Y026050D02*
X007328Y026098D01*
X007334Y026146D01*
X007344Y026193D01*
X007357Y026239D01*
X007375Y026284D01*
X007395Y026328D01*
X007420Y026370D01*
X007448Y026409D01*
X007478Y026446D01*
X007512Y026480D01*
X007549Y026512D01*
X007587Y026541D01*
X007628Y026566D01*
X007671Y026588D01*
X007716Y026606D01*
X007762Y026620D01*
X007809Y026631D01*
X007857Y026638D01*
X007905Y026641D01*
X007953Y026640D01*
X008001Y026635D01*
X008049Y026626D01*
X008095Y026614D01*
X008140Y026597D01*
X008184Y026577D01*
X008226Y026554D01*
X008266Y026527D01*
X008304Y026497D01*
X008339Y026464D01*
X008371Y026428D01*
X008401Y026390D01*
X008427Y026349D01*
X008449Y026306D01*
X008469Y026262D01*
X008484Y026217D01*
X008496Y026170D01*
X008504Y026122D01*
X008508Y026074D01*
X008508Y026026D01*
X008504Y025978D01*
X008496Y025930D01*
X008484Y025883D01*
X008469Y025838D01*
X008449Y025794D01*
X008427Y025751D01*
X008401Y025710D01*
X008371Y025672D01*
X008339Y025636D01*
X008304Y025603D01*
X008266Y025573D01*
X008226Y025546D01*
X008184Y025523D01*
X008140Y025503D01*
X008095Y025486D01*
X008049Y025474D01*
X008001Y025465D01*
X007953Y025460D01*
X007905Y025459D01*
X007857Y025462D01*
X007809Y025469D01*
X007762Y025480D01*
X007716Y025494D01*
X007671Y025512D01*
X007628Y025534D01*
X007587Y025559D01*
X007549Y025588D01*
X007512Y025620D01*
X007478Y025654D01*
X007448Y025691D01*
X007420Y025730D01*
X007395Y025772D01*
X007375Y025816D01*
X007357Y025861D01*
X007344Y025907D01*
X007334Y025954D01*
X007328Y026002D01*
X007326Y026050D01*
X003987Y026550D02*
X003989Y026600D01*
X003995Y026650D01*
X004005Y026699D01*
X004019Y026747D01*
X004036Y026794D01*
X004057Y026839D01*
X004082Y026883D01*
X004110Y026924D01*
X004142Y026963D01*
X004176Y027000D01*
X004213Y027034D01*
X004253Y027064D01*
X004295Y027091D01*
X004339Y027115D01*
X004385Y027136D01*
X004432Y027152D01*
X004480Y027165D01*
X004530Y027174D01*
X004579Y027179D01*
X004630Y027180D01*
X004680Y027177D01*
X004729Y027170D01*
X004778Y027159D01*
X004826Y027144D01*
X004872Y027126D01*
X004917Y027104D01*
X004960Y027078D01*
X005001Y027049D01*
X005040Y027017D01*
X005076Y026982D01*
X005108Y026944D01*
X005138Y026904D01*
X005165Y026861D01*
X005188Y026817D01*
X005207Y026771D01*
X005223Y026723D01*
X005235Y026674D01*
X005243Y026625D01*
X005247Y026575D01*
X005247Y026525D01*
X005243Y026475D01*
X005235Y026426D01*
X005223Y026377D01*
X005207Y026329D01*
X005188Y026283D01*
X005165Y026239D01*
X005138Y026196D01*
X005108Y026156D01*
X005076Y026118D01*
X005040Y026083D01*
X005001Y026051D01*
X004960Y026022D01*
X004917Y025996D01*
X004872Y025974D01*
X004826Y025956D01*
X004778Y025941D01*
X004729Y025930D01*
X004680Y025923D01*
X004630Y025920D01*
X004579Y025921D01*
X004530Y025926D01*
X004480Y025935D01*
X004432Y025948D01*
X004385Y025964D01*
X004339Y025985D01*
X004295Y026009D01*
X004253Y026036D01*
X004213Y026066D01*
X004176Y026100D01*
X004142Y026137D01*
X004110Y026176D01*
X004082Y026217D01*
X004057Y026261D01*
X004036Y026306D01*
X004019Y026353D01*
X004005Y026401D01*
X003995Y026450D01*
X003989Y026500D01*
X003987Y026550D01*
X039964Y014537D02*
X039966Y014579D01*
X039972Y014621D01*
X039982Y014663D01*
X039995Y014703D01*
X040013Y014742D01*
X040034Y014779D01*
X040058Y014813D01*
X040086Y014846D01*
X040116Y014876D01*
X040149Y014902D01*
X040184Y014926D01*
X040222Y014946D01*
X040261Y014962D01*
X040301Y014975D01*
X040343Y014984D01*
X040385Y014989D01*
X040428Y014990D01*
X040470Y014987D01*
X040512Y014980D01*
X040553Y014969D01*
X040593Y014954D01*
X040631Y014936D01*
X040668Y014914D01*
X040702Y014889D01*
X040734Y014861D01*
X040762Y014830D01*
X040788Y014796D01*
X040811Y014760D01*
X040830Y014723D01*
X040846Y014683D01*
X040858Y014642D01*
X040866Y014601D01*
X040870Y014558D01*
X040870Y014516D01*
X040866Y014473D01*
X040858Y014432D01*
X040846Y014391D01*
X040830Y014351D01*
X040811Y014314D01*
X040788Y014278D01*
X040762Y014244D01*
X040734Y014213D01*
X040702Y014185D01*
X040668Y014160D01*
X040631Y014138D01*
X040593Y014120D01*
X040553Y014105D01*
X040512Y014094D01*
X040470Y014087D01*
X040428Y014084D01*
X040385Y014085D01*
X040343Y014090D01*
X040301Y014099D01*
X040261Y014112D01*
X040222Y014128D01*
X040184Y014148D01*
X040149Y014172D01*
X040116Y014198D01*
X040086Y014228D01*
X040058Y014261D01*
X040034Y014295D01*
X040013Y014332D01*
X039995Y014371D01*
X039982Y014411D01*
X039972Y014453D01*
X039966Y014495D01*
X039964Y014537D01*
X039964Y009363D02*
X039966Y009405D01*
X039972Y009447D01*
X039982Y009489D01*
X039995Y009529D01*
X040013Y009568D01*
X040034Y009605D01*
X040058Y009639D01*
X040086Y009672D01*
X040116Y009702D01*
X040149Y009728D01*
X040184Y009752D01*
X040222Y009772D01*
X040261Y009788D01*
X040301Y009801D01*
X040343Y009810D01*
X040385Y009815D01*
X040428Y009816D01*
X040470Y009813D01*
X040512Y009806D01*
X040553Y009795D01*
X040593Y009780D01*
X040631Y009762D01*
X040668Y009740D01*
X040702Y009715D01*
X040734Y009687D01*
X040762Y009656D01*
X040788Y009622D01*
X040811Y009586D01*
X040830Y009549D01*
X040846Y009509D01*
X040858Y009468D01*
X040866Y009427D01*
X040870Y009384D01*
X040870Y009342D01*
X040866Y009299D01*
X040858Y009258D01*
X040846Y009217D01*
X040830Y009177D01*
X040811Y009140D01*
X040788Y009104D01*
X040762Y009070D01*
X040734Y009039D01*
X040702Y009011D01*
X040668Y008986D01*
X040631Y008964D01*
X040593Y008946D01*
X040553Y008931D01*
X040512Y008920D01*
X040470Y008913D01*
X040428Y008910D01*
X040385Y008911D01*
X040343Y008916D01*
X040301Y008925D01*
X040261Y008938D01*
X040222Y008954D01*
X040184Y008974D01*
X040149Y008998D01*
X040116Y009024D01*
X040086Y009054D01*
X040058Y009087D01*
X040034Y009121D01*
X040013Y009158D01*
X039995Y009197D01*
X039982Y009237D01*
X039972Y009279D01*
X039966Y009321D01*
X039964Y009363D01*
X040887Y001350D02*
X040889Y001400D01*
X040895Y001450D01*
X040905Y001499D01*
X040919Y001547D01*
X040936Y001594D01*
X040957Y001639D01*
X040982Y001683D01*
X041010Y001724D01*
X041042Y001763D01*
X041076Y001800D01*
X041113Y001834D01*
X041153Y001864D01*
X041195Y001891D01*
X041239Y001915D01*
X041285Y001936D01*
X041332Y001952D01*
X041380Y001965D01*
X041430Y001974D01*
X041479Y001979D01*
X041530Y001980D01*
X041580Y001977D01*
X041629Y001970D01*
X041678Y001959D01*
X041726Y001944D01*
X041772Y001926D01*
X041817Y001904D01*
X041860Y001878D01*
X041901Y001849D01*
X041940Y001817D01*
X041976Y001782D01*
X042008Y001744D01*
X042038Y001704D01*
X042065Y001661D01*
X042088Y001617D01*
X042107Y001571D01*
X042123Y001523D01*
X042135Y001474D01*
X042143Y001425D01*
X042147Y001375D01*
X042147Y001325D01*
X042143Y001275D01*
X042135Y001226D01*
X042123Y001177D01*
X042107Y001129D01*
X042088Y001083D01*
X042065Y001039D01*
X042038Y000996D01*
X042008Y000956D01*
X041976Y000918D01*
X041940Y000883D01*
X041901Y000851D01*
X041860Y000822D01*
X041817Y000796D01*
X041772Y000774D01*
X041726Y000756D01*
X041678Y000741D01*
X041629Y000730D01*
X041580Y000723D01*
X041530Y000720D01*
X041479Y000721D01*
X041430Y000726D01*
X041380Y000735D01*
X041332Y000748D01*
X041285Y000764D01*
X041239Y000785D01*
X041195Y000809D01*
X041153Y000836D01*
X041113Y000866D01*
X041076Y000900D01*
X041042Y000937D01*
X041010Y000976D01*
X040982Y001017D01*
X040957Y001061D01*
X040936Y001106D01*
X040919Y001153D01*
X040905Y001201D01*
X040895Y001250D01*
X040889Y001300D01*
X040887Y001350D01*
X040226Y019825D02*
X040228Y019873D01*
X040234Y019921D01*
X040244Y019968D01*
X040257Y020014D01*
X040275Y020059D01*
X040295Y020103D01*
X040320Y020145D01*
X040348Y020184D01*
X040378Y020221D01*
X040412Y020255D01*
X040449Y020287D01*
X040487Y020316D01*
X040528Y020341D01*
X040571Y020363D01*
X040616Y020381D01*
X040662Y020395D01*
X040709Y020406D01*
X040757Y020413D01*
X040805Y020416D01*
X040853Y020415D01*
X040901Y020410D01*
X040949Y020401D01*
X040995Y020389D01*
X041040Y020372D01*
X041084Y020352D01*
X041126Y020329D01*
X041166Y020302D01*
X041204Y020272D01*
X041239Y020239D01*
X041271Y020203D01*
X041301Y020165D01*
X041327Y020124D01*
X041349Y020081D01*
X041369Y020037D01*
X041384Y019992D01*
X041396Y019945D01*
X041404Y019897D01*
X041408Y019849D01*
X041408Y019801D01*
X041404Y019753D01*
X041396Y019705D01*
X041384Y019658D01*
X041369Y019613D01*
X041349Y019569D01*
X041327Y019526D01*
X041301Y019485D01*
X041271Y019447D01*
X041239Y019411D01*
X041204Y019378D01*
X041166Y019348D01*
X041126Y019321D01*
X041084Y019298D01*
X041040Y019278D01*
X040995Y019261D01*
X040949Y019249D01*
X040901Y019240D01*
X040853Y019235D01*
X040805Y019234D01*
X040757Y019237D01*
X040709Y019244D01*
X040662Y019255D01*
X040616Y019269D01*
X040571Y019287D01*
X040528Y019309D01*
X040487Y019334D01*
X040449Y019363D01*
X040412Y019395D01*
X040378Y019429D01*
X040348Y019466D01*
X040320Y019505D01*
X040295Y019547D01*
X040275Y019591D01*
X040257Y019636D01*
X040244Y019682D01*
X040234Y019729D01*
X040228Y019777D01*
X040226Y019825D01*
X040226Y021675D02*
X040228Y021723D01*
X040234Y021771D01*
X040244Y021818D01*
X040257Y021864D01*
X040275Y021909D01*
X040295Y021953D01*
X040320Y021995D01*
X040348Y022034D01*
X040378Y022071D01*
X040412Y022105D01*
X040449Y022137D01*
X040487Y022166D01*
X040528Y022191D01*
X040571Y022213D01*
X040616Y022231D01*
X040662Y022245D01*
X040709Y022256D01*
X040757Y022263D01*
X040805Y022266D01*
X040853Y022265D01*
X040901Y022260D01*
X040949Y022251D01*
X040995Y022239D01*
X041040Y022222D01*
X041084Y022202D01*
X041126Y022179D01*
X041166Y022152D01*
X041204Y022122D01*
X041239Y022089D01*
X041271Y022053D01*
X041301Y022015D01*
X041327Y021974D01*
X041349Y021931D01*
X041369Y021887D01*
X041384Y021842D01*
X041396Y021795D01*
X041404Y021747D01*
X041408Y021699D01*
X041408Y021651D01*
X041404Y021603D01*
X041396Y021555D01*
X041384Y021508D01*
X041369Y021463D01*
X041349Y021419D01*
X041327Y021376D01*
X041301Y021335D01*
X041271Y021297D01*
X041239Y021261D01*
X041204Y021228D01*
X041166Y021198D01*
X041126Y021171D01*
X041084Y021148D01*
X041040Y021128D01*
X040995Y021111D01*
X040949Y021099D01*
X040901Y021090D01*
X040853Y021085D01*
X040805Y021084D01*
X040757Y021087D01*
X040709Y021094D01*
X040662Y021105D01*
X040616Y021119D01*
X040571Y021137D01*
X040528Y021159D01*
X040487Y021184D01*
X040449Y021213D01*
X040412Y021245D01*
X040378Y021279D01*
X040348Y021316D01*
X040320Y021355D01*
X040295Y021397D01*
X040275Y021441D01*
X040257Y021486D01*
X040244Y021532D01*
X040234Y021579D01*
X040228Y021627D01*
X040226Y021675D01*
X040887Y026550D02*
X040889Y026600D01*
X040895Y026650D01*
X040905Y026699D01*
X040919Y026747D01*
X040936Y026794D01*
X040957Y026839D01*
X040982Y026883D01*
X041010Y026924D01*
X041042Y026963D01*
X041076Y027000D01*
X041113Y027034D01*
X041153Y027064D01*
X041195Y027091D01*
X041239Y027115D01*
X041285Y027136D01*
X041332Y027152D01*
X041380Y027165D01*
X041430Y027174D01*
X041479Y027179D01*
X041530Y027180D01*
X041580Y027177D01*
X041629Y027170D01*
X041678Y027159D01*
X041726Y027144D01*
X041772Y027126D01*
X041817Y027104D01*
X041860Y027078D01*
X041901Y027049D01*
X041940Y027017D01*
X041976Y026982D01*
X042008Y026944D01*
X042038Y026904D01*
X042065Y026861D01*
X042088Y026817D01*
X042107Y026771D01*
X042123Y026723D01*
X042135Y026674D01*
X042143Y026625D01*
X042147Y026575D01*
X042147Y026525D01*
X042143Y026475D01*
X042135Y026426D01*
X042123Y026377D01*
X042107Y026329D01*
X042088Y026283D01*
X042065Y026239D01*
X042038Y026196D01*
X042008Y026156D01*
X041976Y026118D01*
X041940Y026083D01*
X041901Y026051D01*
X041860Y026022D01*
X041817Y025996D01*
X041772Y025974D01*
X041726Y025956D01*
X041678Y025941D01*
X041629Y025930D01*
X041580Y025923D01*
X041530Y025920D01*
X041479Y025921D01*
X041430Y025926D01*
X041380Y025935D01*
X041332Y025948D01*
X041285Y025964D01*
X041239Y025985D01*
X041195Y026009D01*
X041153Y026036D01*
X041113Y026066D01*
X041076Y026100D01*
X041042Y026137D01*
X041010Y026176D01*
X040982Y026217D01*
X040957Y026261D01*
X040936Y026306D01*
X040919Y026353D01*
X040905Y026401D01*
X040895Y026450D01*
X040889Y026500D01*
X040887Y026550D01*
D11*
X036117Y022150D02*
X034517Y022150D01*
X034500Y022148D01*
X034483Y022144D01*
X034467Y022137D01*
X034453Y022127D01*
X034440Y022114D01*
X034430Y022100D01*
X034423Y022084D01*
X034419Y022067D01*
X034417Y022050D01*
X034417Y021450D01*
X034419Y021433D01*
X034423Y021416D01*
X034430Y021400D01*
X034440Y021386D01*
X034453Y021373D01*
X034467Y021363D01*
X034483Y021356D01*
X034500Y021352D01*
X034517Y021350D01*
X036117Y021350D01*
X036134Y021352D01*
X036151Y021356D01*
X036167Y021363D01*
X036181Y021373D01*
X036194Y021386D01*
X036204Y021400D01*
X036211Y021416D01*
X036215Y021433D01*
X036217Y021450D01*
X036217Y022050D01*
X036215Y022067D01*
X036211Y022084D01*
X036204Y022100D01*
X036194Y022114D01*
X036181Y022127D01*
X036167Y022137D01*
X036151Y022144D01*
X036134Y022148D01*
X036117Y022150D01*
X035567Y021750D02*
X035317Y021750D01*
X035317Y022000D01*
X035317Y021750D02*
X035317Y021500D01*
X035317Y021750D02*
X034917Y021500D01*
X034917Y022000D01*
X035317Y021750D01*
X034717Y021750D01*
X031417Y021450D02*
X031417Y022050D01*
X031415Y022067D01*
X031411Y022084D01*
X031404Y022100D01*
X031394Y022114D01*
X031381Y022127D01*
X031367Y022137D01*
X031351Y022144D01*
X031334Y022148D01*
X031317Y022150D01*
X029717Y022150D01*
X029700Y022148D01*
X029683Y022144D01*
X029667Y022137D01*
X029653Y022127D01*
X029640Y022114D01*
X029630Y022100D01*
X029623Y022084D01*
X029619Y022067D01*
X029617Y022050D01*
X029617Y021450D01*
X029619Y021433D01*
X029623Y021416D01*
X029630Y021400D01*
X029640Y021386D01*
X029653Y021373D01*
X029667Y021363D01*
X029683Y021356D01*
X029700Y021352D01*
X029717Y021350D01*
X031317Y021350D01*
X031334Y021352D01*
X031351Y021356D01*
X031367Y021363D01*
X031381Y021373D01*
X031394Y021386D01*
X031404Y021400D01*
X031411Y021416D01*
X031415Y021433D01*
X031417Y021450D01*
X030767Y021750D02*
X030517Y021750D01*
X030517Y022000D01*
X030517Y021750D02*
X029917Y021750D01*
X030117Y021500D02*
X030517Y021750D01*
X030517Y021500D01*
X030517Y021750D02*
X030117Y022000D01*
X030117Y021500D01*
X027797Y019140D02*
X027637Y019140D01*
X027477Y019140D01*
X027507Y019020D02*
X027527Y019020D01*
X027546Y019024D01*
X027565Y019030D01*
X027583Y019040D01*
X027598Y019052D01*
X027612Y019066D01*
X027623Y019083D01*
X027631Y019101D01*
X027635Y019121D01*
X027637Y019140D01*
X027797Y019140D02*
X027797Y018790D01*
X027237Y018710D02*
X027237Y018390D01*
X027477Y017960D02*
X027797Y017960D01*
X027797Y018310D01*
X027797Y017140D02*
X027637Y017140D01*
X027477Y017140D01*
X027507Y017020D02*
X027527Y017020D01*
X027546Y017024D01*
X027565Y017030D01*
X027583Y017040D01*
X027598Y017052D01*
X027612Y017066D01*
X027623Y017083D01*
X027631Y017101D01*
X027635Y017121D01*
X027637Y017140D01*
X027797Y017140D02*
X027797Y016790D01*
X027797Y016310D02*
X027797Y015960D01*
X027477Y015960D01*
X027237Y016390D02*
X027237Y016710D01*
X029617Y015650D02*
X029617Y015050D01*
X029619Y015033D01*
X029623Y015016D01*
X029630Y015000D01*
X029640Y014986D01*
X029653Y014973D01*
X029667Y014963D01*
X029683Y014956D01*
X029700Y014952D01*
X029717Y014950D01*
X031317Y014950D01*
X031334Y014952D01*
X031351Y014956D01*
X031367Y014963D01*
X031381Y014973D01*
X031394Y014986D01*
X031404Y015000D01*
X031411Y015016D01*
X031415Y015033D01*
X031417Y015050D01*
X031417Y015650D01*
X031415Y015667D01*
X031411Y015684D01*
X031404Y015700D01*
X031394Y015714D01*
X031381Y015727D01*
X031367Y015737D01*
X031351Y015744D01*
X031334Y015748D01*
X031317Y015750D01*
X029717Y015750D01*
X029700Y015748D01*
X029683Y015744D01*
X029667Y015737D01*
X029653Y015727D01*
X029640Y015714D01*
X029630Y015700D01*
X029623Y015684D01*
X029619Y015667D01*
X029617Y015650D01*
X029917Y015350D02*
X030517Y015350D01*
X030517Y015600D01*
X030517Y015350D02*
X030517Y015100D01*
X030517Y015350D02*
X030117Y015100D01*
X030117Y015600D01*
X030517Y015350D01*
X030767Y015350D01*
X027797Y015040D02*
X027797Y014690D01*
X027797Y015040D02*
X027637Y015040D01*
X027477Y015040D01*
X027507Y014920D02*
X027527Y014920D01*
X027546Y014924D01*
X027565Y014930D01*
X027583Y014940D01*
X027598Y014952D01*
X027612Y014966D01*
X027623Y014983D01*
X027631Y015001D01*
X027635Y015021D01*
X027637Y015040D01*
X027237Y014610D02*
X027237Y014290D01*
X027797Y014210D02*
X027797Y013860D01*
X027477Y013860D01*
X027477Y012940D02*
X027637Y012940D01*
X027797Y012940D01*
X027797Y012590D01*
X027797Y012110D02*
X027797Y011760D01*
X027477Y011760D01*
X027237Y012190D02*
X027237Y012510D01*
X027507Y012820D02*
X027527Y012820D01*
X027546Y012824D01*
X027565Y012830D01*
X027583Y012840D01*
X027598Y012852D01*
X027612Y012866D01*
X027623Y012883D01*
X027631Y012901D01*
X027635Y012921D01*
X027637Y012940D01*
X024579Y011730D02*
X021655Y011730D01*
X021655Y018680D01*
X024579Y018680D01*
X024579Y011730D01*
X024147Y012100D02*
X024149Y012129D01*
X024155Y012157D01*
X024164Y012184D01*
X024178Y012209D01*
X024194Y012233D01*
X024214Y012253D01*
X024236Y012272D01*
X024260Y012286D01*
X024287Y012298D01*
X024314Y012306D01*
X024343Y012310D01*
X024371Y012310D01*
X024400Y012306D01*
X024427Y012298D01*
X024454Y012286D01*
X024478Y012272D01*
X024500Y012253D01*
X024520Y012233D01*
X024536Y012209D01*
X024550Y012184D01*
X024559Y012157D01*
X024565Y012129D01*
X024567Y012100D01*
X024565Y012071D01*
X024559Y012043D01*
X024550Y012016D01*
X024536Y011991D01*
X024520Y011967D01*
X024500Y011947D01*
X024478Y011928D01*
X024454Y011914D01*
X024427Y011902D01*
X024400Y011894D01*
X024371Y011890D01*
X024343Y011890D01*
X024314Y011894D01*
X024287Y011902D01*
X024260Y011914D01*
X024236Y011928D01*
X024214Y011947D01*
X024194Y011967D01*
X024178Y011991D01*
X024164Y012016D01*
X024155Y012043D01*
X024149Y012071D01*
X024147Y012100D01*
X019417Y010950D02*
X019378Y010948D01*
X019339Y010942D01*
X019301Y010933D01*
X019264Y010920D01*
X019228Y010903D01*
X019195Y010883D01*
X019163Y010859D01*
X019134Y010833D01*
X019417Y010150D02*
X019456Y010152D01*
X019495Y010158D01*
X019533Y010167D01*
X019570Y010180D01*
X019606Y010197D01*
X019639Y010217D01*
X019671Y010241D01*
X019700Y010267D01*
X019417Y010150D02*
X019378Y010152D01*
X019339Y010158D01*
X019301Y010167D01*
X019264Y010180D01*
X019228Y010197D01*
X019195Y010217D01*
X019163Y010241D01*
X019134Y010267D01*
X019417Y010950D02*
X019456Y010948D01*
X019495Y010942D01*
X019533Y010933D01*
X019570Y010920D01*
X019606Y010903D01*
X019639Y010883D01*
X019671Y010859D01*
X019700Y010833D01*
X019897Y008700D02*
X019897Y008270D01*
X019897Y008030D01*
X019897Y007600D01*
X019897Y008030D02*
X019876Y008032D01*
X019856Y008037D01*
X019837Y008046D01*
X019820Y008058D01*
X019805Y008073D01*
X019793Y008090D01*
X019784Y008109D01*
X019779Y008129D01*
X019777Y008150D01*
X019779Y008171D01*
X019784Y008191D01*
X019793Y008210D01*
X019805Y008227D01*
X019820Y008242D01*
X019837Y008254D01*
X019856Y008263D01*
X019876Y008268D01*
X019897Y008270D01*
X017937Y008700D02*
X017937Y007600D01*
X020627Y003690D02*
X020807Y003690D01*
X020987Y003310D02*
X020987Y003190D01*
X020807Y002810D02*
X020627Y002810D01*
X020627Y001990D02*
X020807Y001990D01*
X020987Y001610D02*
X020987Y001490D01*
X020807Y001110D02*
X020627Y001110D01*
X023527Y001110D02*
X023707Y001110D01*
X023887Y001490D02*
X023887Y001610D01*
X023707Y001990D02*
X023527Y001990D01*
X026327Y001990D02*
X026507Y001990D01*
X026687Y001610D02*
X026687Y001490D01*
X026507Y001110D02*
X026327Y001110D01*
X031117Y003060D02*
X031117Y004840D01*
X033117Y004840D02*
X033117Y004070D01*
X033117Y003830D01*
X033117Y003060D01*
X031857Y002390D02*
X031857Y002000D01*
X033117Y003830D02*
X033096Y003832D01*
X033076Y003837D01*
X033057Y003846D01*
X033040Y003858D01*
X033025Y003873D01*
X033013Y003890D01*
X033004Y003909D01*
X032999Y003929D01*
X032997Y003950D01*
X032999Y003971D01*
X033004Y003991D01*
X033013Y004010D01*
X033025Y004027D01*
X033040Y004042D01*
X033057Y004054D01*
X033076Y004063D01*
X033096Y004068D01*
X033117Y004070D01*
X026217Y007550D02*
X026219Y007589D01*
X026225Y007628D01*
X026234Y007666D01*
X026247Y007703D01*
X026264Y007739D01*
X026284Y007772D01*
X026308Y007804D01*
X026334Y007833D01*
X027017Y007550D02*
X027015Y007511D01*
X027009Y007472D01*
X027000Y007434D01*
X026987Y007397D01*
X026970Y007361D01*
X026950Y007328D01*
X026926Y007296D01*
X026900Y007267D01*
X027017Y007550D02*
X027015Y007589D01*
X027009Y007628D01*
X027000Y007666D01*
X026987Y007703D01*
X026970Y007739D01*
X026950Y007772D01*
X026926Y007804D01*
X026900Y007833D01*
X026217Y007550D02*
X026219Y007511D01*
X026225Y007472D01*
X026234Y007434D01*
X026247Y007397D01*
X026264Y007361D01*
X026284Y007328D01*
X026308Y007296D01*
X026334Y007267D01*
X029697Y010060D02*
X029697Y010240D01*
X029807Y010200D02*
X029814Y010181D01*
X029818Y010160D01*
X029818Y010140D01*
X029814Y010119D01*
X029807Y010100D01*
X030057Y010430D02*
X030177Y010430D01*
X030537Y010240D02*
X030537Y010060D01*
X034697Y010060D02*
X034697Y010240D01*
X034807Y010200D02*
X034814Y010181D01*
X034818Y010160D01*
X034818Y010140D01*
X034814Y010119D01*
X034807Y010100D01*
X035057Y010430D02*
X035177Y010430D01*
X035537Y010240D02*
X035537Y010060D01*
X041547Y009950D02*
X043850Y010450D01*
X043850Y010950D01*
X041547Y011450D01*
X041547Y012450D02*
X043850Y012950D01*
X043850Y013450D01*
X041547Y013950D01*
X036217Y015050D02*
X036217Y015650D01*
X036215Y015667D01*
X036211Y015684D01*
X036204Y015700D01*
X036194Y015714D01*
X036181Y015727D01*
X036167Y015737D01*
X036151Y015744D01*
X036134Y015748D01*
X036117Y015750D01*
X034517Y015750D01*
X034500Y015748D01*
X034483Y015744D01*
X034467Y015737D01*
X034453Y015727D01*
X034440Y015714D01*
X034430Y015700D01*
X034423Y015684D01*
X034419Y015667D01*
X034417Y015650D01*
X034417Y015050D01*
X034419Y015033D01*
X034423Y015016D01*
X034430Y015000D01*
X034440Y014986D01*
X034453Y014973D01*
X034467Y014963D01*
X034483Y014956D01*
X034500Y014952D01*
X034517Y014950D01*
X036117Y014950D01*
X036134Y014952D01*
X036151Y014956D01*
X036167Y014963D01*
X036181Y014973D01*
X036194Y014986D01*
X036204Y015000D01*
X036211Y015016D01*
X036215Y015033D01*
X036217Y015050D01*
X035567Y015350D02*
X035317Y015350D01*
X035317Y015600D01*
X035317Y015350D02*
X035317Y015100D01*
X035317Y015350D02*
X034917Y015100D01*
X034917Y015600D01*
X035317Y015350D01*
X034717Y015350D01*
X025577Y022050D02*
X025577Y023050D01*
X023657Y023050D02*
X023657Y022670D01*
X023657Y022430D01*
X023657Y022050D01*
X015417Y018150D02*
X015417Y017350D01*
X015317Y017250D01*
X015417Y017150D01*
X015417Y016350D01*
X015317Y016250D01*
X014517Y016250D01*
X014417Y016350D01*
X014417Y017150D01*
X014517Y017250D01*
X014417Y017350D01*
X014417Y018150D01*
X014517Y018250D01*
X015317Y018250D01*
X015417Y018150D01*
X012217Y017740D02*
X012137Y017740D01*
X011897Y017740D01*
X011817Y017740D01*
X011897Y017740D02*
X011899Y017719D01*
X011904Y017699D01*
X011913Y017680D01*
X011925Y017663D01*
X011940Y017648D01*
X011957Y017636D01*
X011976Y017627D01*
X011996Y017622D01*
X012017Y017620D01*
X012038Y017622D01*
X012058Y017627D01*
X012077Y017636D01*
X012094Y017648D01*
X012109Y017663D01*
X012121Y017680D01*
X012130Y017699D01*
X012135Y017719D01*
X012137Y017740D01*
X011157Y018670D02*
X010077Y018670D01*
X009417Y018000D02*
X009317Y018000D01*
X009267Y017950D01*
X008367Y017950D01*
X008317Y018000D01*
X008217Y018000D01*
X008200Y017998D01*
X008183Y017994D01*
X008167Y017987D01*
X008153Y017977D01*
X008140Y017964D01*
X008130Y017950D01*
X008123Y017934D01*
X008119Y017917D01*
X008117Y017900D01*
X008117Y017400D02*
X008119Y017383D01*
X008123Y017366D01*
X008130Y017350D01*
X008140Y017336D01*
X008153Y017323D01*
X008167Y017313D01*
X008183Y017306D01*
X008200Y017302D01*
X008217Y017300D01*
X008317Y017300D01*
X008367Y017350D01*
X009267Y017350D01*
X009317Y017300D01*
X009417Y017300D01*
X009434Y017302D01*
X009451Y017306D01*
X009467Y017313D01*
X009481Y017323D01*
X009494Y017336D01*
X009504Y017350D01*
X009511Y017366D01*
X009515Y017383D01*
X009517Y017400D01*
X009517Y017900D02*
X009515Y017917D01*
X009511Y017934D01*
X009504Y017950D01*
X009494Y017964D01*
X009481Y017977D01*
X009467Y017987D01*
X009451Y017994D01*
X009434Y017998D01*
X009417Y018000D01*
X009417Y016900D02*
X009317Y016900D01*
X009267Y016850D01*
X008367Y016850D01*
X008317Y016900D01*
X008217Y016900D01*
X008200Y016898D01*
X008183Y016894D01*
X008167Y016887D01*
X008153Y016877D01*
X008140Y016864D01*
X008130Y016850D01*
X008123Y016834D01*
X008119Y016817D01*
X008117Y016800D01*
X008117Y016300D02*
X008119Y016283D01*
X008123Y016266D01*
X008130Y016250D01*
X008140Y016236D01*
X008153Y016223D01*
X008167Y016213D01*
X008183Y016206D01*
X008200Y016202D01*
X008217Y016200D01*
X008317Y016200D01*
X008367Y016250D01*
X009267Y016250D01*
X009317Y016200D01*
X009417Y016200D01*
X009434Y016202D01*
X009451Y016206D01*
X009467Y016213D01*
X009481Y016223D01*
X009494Y016236D01*
X009504Y016250D01*
X009511Y016266D01*
X009515Y016283D01*
X009517Y016300D01*
X009517Y016800D02*
X009515Y016817D01*
X009511Y016834D01*
X009504Y016850D01*
X009494Y016864D01*
X009481Y016877D01*
X009467Y016887D01*
X009451Y016894D01*
X009434Y016898D01*
X009417Y016900D01*
X011817Y016560D02*
X012217Y016560D01*
X009057Y013960D02*
X008937Y013960D01*
X008697Y013960D01*
X008577Y013960D01*
X008697Y013960D02*
X008699Y013939D01*
X008704Y013919D01*
X008713Y013900D01*
X008725Y013883D01*
X008740Y013868D01*
X008757Y013856D01*
X008776Y013847D01*
X008796Y013842D01*
X008817Y013840D01*
X008838Y013842D01*
X008858Y013847D01*
X008877Y013856D01*
X008894Y013868D01*
X008909Y013883D01*
X008921Y013900D01*
X008930Y013919D01*
X008935Y013939D01*
X008937Y013960D01*
X009057Y013140D02*
X008577Y013140D01*
X006567Y008850D02*
X006237Y009020D01*
X006237Y008680D01*
X006567Y008850D01*
X006467Y008850D01*
X006687Y008350D02*
X006687Y007700D01*
X006167Y007700D01*
X006167Y007350D01*
X006687Y007350D01*
X006687Y007700D01*
X006167Y007350D02*
X005567Y007350D01*
X005067Y007350D01*
X004467Y007350D01*
X004467Y007700D01*
X003937Y007700D01*
X003937Y007350D01*
X004467Y007350D01*
X005067Y007350D02*
X005067Y007700D01*
X005567Y007700D01*
X005567Y007350D01*
X005677Y007930D02*
X005497Y008110D01*
X006037Y008110D01*
X006037Y007930D02*
X006037Y008290D01*
X006687Y008350D02*
X006687Y021350D01*
X006687Y022000D01*
X006687Y022340D01*
X006167Y022340D01*
X005567Y022340D01*
X005067Y022340D01*
X004467Y022340D01*
X003937Y022340D01*
X003937Y022000D01*
X003937Y021350D01*
X003937Y008350D01*
X003937Y007700D01*
X003937Y008350D02*
X001817Y008350D01*
X002317Y012350D01*
X001817Y013850D01*
X002817Y018850D01*
X001817Y021350D01*
X003937Y021350D01*
X003937Y022000D02*
X004467Y022000D01*
X004467Y022340D01*
X005067Y022340D02*
X005067Y022000D01*
X005567Y022000D01*
X005567Y022340D01*
X006167Y022340D02*
X006167Y022000D01*
X006687Y022000D01*
X006687Y021350D02*
X006957Y021350D01*
X006957Y008350D01*
X006687Y008350D01*
X010077Y020630D02*
X010497Y020630D01*
X010737Y020630D01*
X011157Y020630D01*
X010737Y020630D02*
X010735Y020609D01*
X010730Y020589D01*
X010721Y020570D01*
X010709Y020553D01*
X010694Y020538D01*
X010677Y020526D01*
X010658Y020517D01*
X010638Y020512D01*
X010617Y020510D01*
X010596Y020512D01*
X010576Y020517D01*
X010557Y020526D01*
X010540Y020538D01*
X010525Y020553D01*
X010513Y020570D01*
X010504Y020589D01*
X010499Y020609D01*
X010497Y020630D01*
X013417Y021850D02*
X015017Y021850D01*
X015017Y022850D01*
X013417Y022850D01*
X013417Y021850D01*
X013817Y022100D02*
X014217Y022350D01*
X014217Y022600D01*
X014217Y022350D02*
X013617Y022350D01*
X013817Y022100D02*
X013817Y022600D01*
X014217Y022350D01*
X014217Y022100D01*
X014217Y022350D02*
X014467Y022350D01*
X014867Y023450D02*
X015017Y023450D01*
X015034Y023452D01*
X015051Y023456D01*
X015067Y023463D01*
X015081Y023473D01*
X015094Y023486D01*
X015104Y023500D01*
X015111Y023516D01*
X015115Y023533D01*
X015117Y023550D01*
X015117Y024150D01*
X015115Y024167D01*
X015111Y024184D01*
X015104Y024200D01*
X015094Y024214D01*
X015081Y024227D01*
X015067Y024237D01*
X015051Y024244D01*
X015034Y024248D01*
X015017Y024250D01*
X014867Y024250D01*
X014817Y024200D01*
X013417Y024200D01*
X013367Y024250D01*
X013217Y024250D01*
X013200Y024248D01*
X013183Y024244D01*
X013167Y024237D01*
X013153Y024227D01*
X013140Y024214D01*
X013130Y024200D01*
X013123Y024184D01*
X013119Y024167D01*
X013117Y024150D01*
X013117Y023550D01*
X013119Y023533D01*
X013123Y023516D01*
X013130Y023500D01*
X013140Y023486D01*
X013153Y023473D01*
X013167Y023463D01*
X013183Y023456D01*
X013200Y023452D01*
X013217Y023450D01*
X013367Y023450D01*
X013417Y023500D01*
X014817Y023500D01*
X014867Y023450D01*
X012317Y026150D02*
X012319Y026213D01*
X012325Y026275D01*
X012335Y026337D01*
X012348Y026399D01*
X012366Y026459D01*
X012387Y026518D01*
X012412Y026576D01*
X012441Y026632D01*
X012473Y026686D01*
X012508Y026738D01*
X012546Y026787D01*
X012588Y026835D01*
X012632Y026879D01*
X012680Y026921D01*
X012729Y026959D01*
X012781Y026994D01*
X012835Y027026D01*
X012891Y027055D01*
X012949Y027080D01*
X013008Y027101D01*
X013068Y027119D01*
X013130Y027132D01*
X013192Y027142D01*
X013254Y027148D01*
X013317Y027150D01*
X013380Y027148D01*
X013442Y027142D01*
X013504Y027132D01*
X013566Y027119D01*
X013626Y027101D01*
X013685Y027080D01*
X013743Y027055D01*
X013799Y027026D01*
X013853Y026994D01*
X013905Y026959D01*
X013954Y026921D01*
X014002Y026879D01*
X014046Y026835D01*
X014088Y026787D01*
X014126Y026738D01*
X014161Y026686D01*
X014193Y026632D01*
X014222Y026576D01*
X014247Y026518D01*
X014268Y026459D01*
X014286Y026399D01*
X014299Y026337D01*
X014309Y026275D01*
X014315Y026213D01*
X014317Y026150D01*
X014315Y026087D01*
X014309Y026025D01*
X014299Y025963D01*
X014286Y025901D01*
X014268Y025841D01*
X014247Y025782D01*
X014222Y025724D01*
X014193Y025668D01*
X014161Y025614D01*
X014126Y025562D01*
X014088Y025513D01*
X014046Y025465D01*
X014002Y025421D01*
X013954Y025379D01*
X013905Y025341D01*
X013853Y025306D01*
X013799Y025274D01*
X013743Y025245D01*
X013685Y025220D01*
X013626Y025199D01*
X013566Y025181D01*
X013504Y025168D01*
X013442Y025158D01*
X013380Y025152D01*
X013317Y025150D01*
X013254Y025152D01*
X013192Y025158D01*
X013130Y025168D01*
X013068Y025181D01*
X013008Y025199D01*
X012949Y025220D01*
X012891Y025245D01*
X012835Y025274D01*
X012781Y025306D01*
X012729Y025341D01*
X012680Y025379D01*
X012632Y025421D01*
X012588Y025465D01*
X012546Y025513D01*
X012508Y025562D01*
X012473Y025614D01*
X012441Y025668D01*
X012412Y025724D01*
X012387Y025782D01*
X012366Y025841D01*
X012348Y025901D01*
X012335Y025963D01*
X012325Y026025D01*
X012319Y026087D01*
X012317Y026150D01*
D12*
X009646Y020977D02*
X009332Y020663D01*
X009489Y020663D02*
X009489Y020977D01*
X009332Y020977D02*
X009646Y020663D01*
X009646Y020820D02*
X009332Y020820D01*
X011202Y018057D02*
X011516Y017743D01*
X011359Y017743D02*
X011359Y018057D01*
X011516Y018057D02*
X011202Y017743D01*
X011202Y017900D02*
X011516Y017900D01*
X008256Y014297D02*
X007942Y013983D01*
X008099Y013983D02*
X008099Y014297D01*
X007942Y014297D02*
X008256Y013983D01*
X008256Y014140D02*
X007942Y014140D01*
X019920Y009435D02*
X020234Y009121D01*
X020077Y009121D02*
X020077Y009435D01*
X020234Y009435D02*
X019920Y009121D01*
X019920Y009278D02*
X020234Y009278D01*
X026802Y013013D02*
X027116Y013327D01*
X027116Y013170D02*
X026802Y013170D01*
X026802Y013327D02*
X027116Y013013D01*
X026959Y013013D02*
X026959Y013327D01*
X026959Y015113D02*
X026959Y015427D01*
X027116Y015427D02*
X026802Y015113D01*
X026802Y015270D02*
X027116Y015270D01*
X027116Y015113D02*
X026802Y015427D01*
X026802Y017213D02*
X027116Y017527D01*
X027116Y017370D02*
X026802Y017370D01*
X026802Y017527D02*
X027116Y017213D01*
X026959Y017213D02*
X026959Y017527D01*
X026959Y019213D02*
X026959Y019527D01*
X027116Y019527D02*
X026802Y019213D01*
X026802Y019370D02*
X027116Y019370D01*
X027116Y019213D02*
X026802Y019527D01*
X023604Y021265D02*
X023290Y021579D01*
X023604Y021265D01*
X023604Y021422D02*
X023290Y021422D01*
X023604Y021422D01*
X023604Y021579D02*
X023290Y021265D01*
X023604Y021579D01*
X023447Y021579D02*
X023447Y021265D01*
X023447Y021579D01*
X029370Y009739D02*
X029684Y009425D01*
X029684Y009582D02*
X029370Y009582D01*
X029370Y009425D02*
X029684Y009739D01*
X029527Y009739D02*
X029527Y009425D01*
X034370Y009425D02*
X034684Y009739D01*
X034527Y009739D02*
X034527Y009425D01*
X034684Y009425D02*
X034370Y009739D01*
X034370Y009582D02*
X034684Y009582D01*
X033384Y005415D02*
X033070Y005101D01*
X033070Y005258D02*
X033384Y005258D01*
X033384Y005101D02*
X033070Y005415D01*
X033227Y005415D02*
X033227Y005101D01*
X028597Y002513D02*
X028403Y002513D01*
X028403Y002368D01*
X028500Y002416D01*
X028548Y002416D01*
X028597Y002368D01*
X028597Y002271D01*
X028548Y002223D01*
X028452Y002223D01*
X028403Y002271D01*
X028302Y002368D02*
X028254Y002319D01*
X028109Y002319D01*
X028109Y002223D02*
X028109Y002513D01*
X028254Y002513D01*
X028302Y002464D01*
X028302Y002368D01*
X028007Y002513D02*
X027814Y002513D01*
X027911Y002513D02*
X027911Y002223D01*
X027911Y001713D02*
X027911Y001423D01*
X028109Y001423D02*
X028109Y001713D01*
X028254Y001713D01*
X028302Y001664D01*
X028302Y001568D01*
X028254Y001519D01*
X028109Y001519D01*
X028007Y001713D02*
X027814Y001713D01*
X028403Y001568D02*
X028597Y001568D01*
X028548Y001423D02*
X028548Y001713D01*
X028403Y001568D01*
X026036Y001983D02*
X025722Y002297D01*
X025722Y002140D02*
X026036Y002140D01*
X026036Y002297D02*
X025722Y001983D01*
X025879Y001983D02*
X025879Y002297D01*
X025497Y002319D02*
X025497Y002271D01*
X025448Y002223D01*
X025352Y002223D01*
X025303Y002271D01*
X025400Y002368D02*
X025448Y002368D01*
X025497Y002319D01*
X025448Y002368D02*
X025497Y002416D01*
X025497Y002464D01*
X025448Y002513D01*
X025352Y002513D01*
X025303Y002464D01*
X025202Y002464D02*
X025202Y002368D01*
X025154Y002319D01*
X025009Y002319D01*
X025009Y002223D02*
X025009Y002513D01*
X025154Y002513D01*
X025202Y002464D01*
X024907Y002513D02*
X024714Y002513D01*
X024811Y002513D02*
X024811Y002223D01*
X023236Y002297D02*
X022922Y001983D01*
X023079Y001983D02*
X023079Y002297D01*
X022922Y002297D02*
X023236Y001983D01*
X023236Y002140D02*
X022922Y002140D01*
X022697Y002223D02*
X022503Y002223D01*
X022697Y002416D01*
X022697Y002464D01*
X022648Y002513D01*
X022552Y002513D01*
X022503Y002464D01*
X022402Y002464D02*
X022402Y002368D01*
X022354Y002319D01*
X022209Y002319D01*
X022209Y002223D02*
X022209Y002513D01*
X022354Y002513D01*
X022402Y002464D01*
X022107Y002513D02*
X021914Y002513D01*
X022011Y002513D02*
X022011Y002223D01*
X020336Y002297D02*
X020022Y001983D01*
X020179Y001983D02*
X020179Y002297D01*
X020022Y002297D02*
X020336Y001983D01*
X020336Y002140D02*
X020022Y002140D01*
X020022Y003683D02*
X020336Y003997D01*
X020336Y003840D02*
X020022Y003840D01*
X020022Y003997D02*
X020336Y003683D01*
X020179Y003683D02*
X020179Y003997D01*
D13*
X019853Y003175D02*
X019853Y002725D01*
X019703Y002725D02*
X020003Y002725D01*
X019703Y003025D02*
X019853Y003175D01*
X019393Y003175D02*
X019242Y003025D01*
X019393Y003175D02*
X019393Y002725D01*
X019543Y002725D02*
X019242Y002725D01*
X019082Y002800D02*
X019082Y003175D01*
X018782Y003175D02*
X018782Y002800D01*
X018857Y002725D01*
X019007Y002725D01*
X019082Y002800D01*
X018982Y001475D02*
X018982Y001100D01*
X018907Y001025D01*
X018757Y001025D01*
X018682Y001100D01*
X018682Y001475D01*
X019142Y001325D02*
X019293Y001475D01*
X019293Y001025D01*
X019443Y001025D02*
X019142Y001025D01*
X019603Y001100D02*
X019603Y001400D01*
X019678Y001475D01*
X019828Y001475D01*
X019903Y001400D01*
X019603Y001100D01*
X019678Y001025D01*
X019828Y001025D01*
X019903Y001100D01*
X019903Y001400D01*
X018263Y001010D02*
X018263Y000935D01*
X018188Y000860D01*
X018038Y000860D01*
X017962Y000935D01*
X017962Y001010D01*
X018038Y001085D01*
X018188Y001085D01*
X018263Y001010D01*
X018188Y000860D02*
X018263Y000785D01*
X018263Y000710D01*
X018188Y000635D01*
X018038Y000635D01*
X017962Y000710D01*
X017962Y000785D01*
X018038Y000860D01*
X017802Y000860D02*
X017727Y000785D01*
X017502Y000785D01*
X017502Y000635D02*
X017502Y001085D01*
X017727Y001085D01*
X017802Y001010D01*
X017802Y000860D01*
X017652Y000785D02*
X017802Y000635D01*
X017122Y000690D02*
X017122Y000990D01*
X017047Y001065D01*
X016897Y001065D01*
X016822Y000990D01*
X016822Y000915D01*
X016897Y000840D01*
X017122Y000840D01*
X017122Y000690D02*
X017047Y000615D01*
X016897Y000615D01*
X016822Y000690D01*
X016662Y000615D02*
X016511Y000765D01*
X016586Y000765D02*
X016361Y000765D01*
X016361Y000615D02*
X016361Y001065D01*
X016586Y001065D01*
X016662Y000990D01*
X016662Y000840D01*
X016586Y000765D01*
X013153Y001335D02*
X012681Y001335D01*
X012681Y001965D01*
X013153Y001965D01*
X013153Y001335D01*
X013153Y002635D02*
X012681Y002635D01*
X012681Y003265D01*
X013153Y003265D01*
X013153Y002635D01*
X014334Y004441D02*
X011578Y004441D01*
X011578Y006292D01*
X011816Y007832D02*
X012116Y007832D01*
X012276Y007832D02*
X012426Y007832D01*
X012351Y007832D02*
X012351Y008133D01*
X012276Y008133D01*
X012351Y008283D02*
X012351Y008358D01*
X012583Y008133D02*
X012733Y008133D01*
X012658Y008208D02*
X012658Y007908D01*
X012733Y007832D01*
X012890Y007832D02*
X012965Y007832D01*
X012965Y007908D01*
X012890Y007908D01*
X012890Y007832D01*
X013120Y007908D02*
X013195Y007832D01*
X013345Y007832D01*
X013420Y007908D01*
X013420Y007983D01*
X013345Y008058D01*
X013270Y008058D01*
X013345Y008058D02*
X013420Y008133D01*
X013420Y008208D01*
X013345Y008283D01*
X013195Y008283D01*
X013120Y008208D01*
X013581Y008283D02*
X013581Y007983D01*
X013731Y007832D01*
X013881Y007983D01*
X013881Y008283D01*
X011816Y008283D02*
X011816Y007832D01*
X014334Y006292D02*
X014334Y004441D01*
X016101Y005115D02*
X016101Y005565D01*
X016326Y005565D01*
X016401Y005490D01*
X016401Y005340D01*
X016326Y005265D01*
X016101Y005265D01*
X016251Y005265D02*
X016401Y005115D01*
X016561Y005115D02*
X016862Y005115D01*
X016711Y005115D02*
X016711Y005565D01*
X016561Y005415D01*
X017022Y005490D02*
X017022Y005190D01*
X017322Y005490D01*
X017322Y005190D01*
X017247Y005115D01*
X017097Y005115D01*
X017022Y005190D01*
X017022Y005490D02*
X017097Y005565D01*
X017247Y005565D01*
X017322Y005490D01*
X017702Y005585D02*
X017702Y005135D01*
X017702Y005285D02*
X017927Y005285D01*
X018002Y005360D01*
X018002Y005510D01*
X017927Y005585D01*
X017702Y005585D01*
X017852Y005285D02*
X018002Y005135D01*
X018162Y005135D02*
X018463Y005135D01*
X018313Y005135D02*
X018313Y005585D01*
X018162Y005435D01*
X018623Y005435D02*
X018773Y005585D01*
X018773Y005135D01*
X018623Y005135D02*
X018923Y005135D01*
X022792Y006214D02*
X022792Y008686D01*
X026042Y008686D01*
X026042Y007700D01*
X026042Y007200D01*
X026042Y006214D01*
X022792Y006214D01*
X026042Y007200D02*
X026012Y007202D01*
X025982Y007207D01*
X025953Y007216D01*
X025926Y007229D01*
X025900Y007244D01*
X025876Y007263D01*
X025855Y007284D01*
X025836Y007308D01*
X025821Y007334D01*
X025808Y007361D01*
X025799Y007390D01*
X025794Y007420D01*
X025792Y007450D01*
X025794Y007480D01*
X025799Y007510D01*
X025808Y007539D01*
X025821Y007566D01*
X025836Y007592D01*
X025855Y007616D01*
X025876Y007637D01*
X025900Y007656D01*
X025926Y007671D01*
X025953Y007684D01*
X025982Y007693D01*
X026012Y007698D01*
X026042Y007700D01*
X027642Y008500D02*
X027642Y008800D01*
X027717Y008875D01*
X027867Y008875D01*
X027942Y008800D01*
X027942Y008500D01*
X027867Y008425D01*
X027717Y008425D01*
X027642Y008500D01*
X027792Y008575D02*
X027942Y008425D01*
X028102Y008425D02*
X028403Y008725D01*
X028403Y008800D01*
X028328Y008875D01*
X028178Y008875D01*
X028102Y008800D01*
X028102Y008425D02*
X028403Y008425D01*
X029857Y010775D02*
X030007Y010775D01*
X030082Y010850D01*
X030082Y011225D01*
X030242Y011225D02*
X030543Y011225D01*
X030543Y011150D01*
X030242Y010850D01*
X030242Y010775D01*
X029857Y010775D02*
X029782Y010850D01*
X029782Y011225D01*
X029278Y012775D02*
X029278Y013225D01*
X029053Y013000D01*
X029353Y013000D01*
X028893Y012775D02*
X028592Y012775D01*
X028743Y012775D02*
X028743Y013225D01*
X028592Y013075D01*
X028432Y013225D02*
X028432Y012850D01*
X028357Y012775D01*
X028207Y012775D01*
X028132Y012850D01*
X028132Y013225D01*
X026753Y014250D02*
X026678Y014175D01*
X026528Y014175D01*
X026453Y014250D01*
X026453Y014400D02*
X026603Y014475D01*
X026678Y014475D01*
X026753Y014400D01*
X026753Y014250D01*
X026453Y014400D02*
X026453Y014625D01*
X026753Y014625D01*
X026143Y014625D02*
X026143Y014175D01*
X026293Y014175D02*
X025992Y014175D01*
X025832Y014250D02*
X025832Y014625D01*
X025992Y014475D02*
X026143Y014625D01*
X025532Y014625D02*
X025532Y014250D01*
X025607Y014175D01*
X025757Y014175D01*
X025832Y014250D01*
X025807Y016375D02*
X025882Y016450D01*
X025882Y016825D01*
X026042Y016675D02*
X026193Y016825D01*
X026193Y016375D01*
X026343Y016375D02*
X026042Y016375D01*
X025807Y016375D02*
X025657Y016375D01*
X025582Y016450D01*
X025582Y016825D01*
X026503Y016825D02*
X026803Y016825D01*
X026803Y016750D01*
X026503Y016450D01*
X026503Y016375D01*
X029921Y014825D02*
X029921Y014375D01*
X030146Y014375D01*
X030222Y014450D01*
X030222Y014750D01*
X030146Y014825D01*
X029921Y014825D01*
X030382Y014750D02*
X030382Y014675D01*
X030457Y014600D01*
X030682Y014600D01*
X030682Y014450D02*
X030682Y014750D01*
X030607Y014825D01*
X030457Y014825D01*
X030382Y014750D01*
X030382Y014450D02*
X030457Y014375D01*
X030607Y014375D01*
X030682Y014450D01*
X034411Y014325D02*
X034636Y014325D01*
X034711Y014400D01*
X034711Y014700D01*
X034636Y014775D01*
X034411Y014775D01*
X034411Y014325D01*
X034871Y014325D02*
X035172Y014325D01*
X035021Y014325D02*
X035021Y014775D01*
X034871Y014625D01*
X035332Y014625D02*
X035482Y014775D01*
X035482Y014325D01*
X035332Y014325D02*
X035632Y014325D01*
X035678Y011525D02*
X035603Y011450D01*
X035678Y011525D02*
X035828Y011525D01*
X035903Y011450D01*
X035903Y011375D01*
X035603Y011075D01*
X035903Y011075D01*
X035443Y011075D02*
X035142Y011075D01*
X035293Y011075D02*
X035293Y011525D01*
X035142Y011375D01*
X034982Y011525D02*
X034982Y011150D01*
X034907Y011075D01*
X034757Y011075D01*
X034682Y011150D01*
X034682Y011525D01*
X031028Y005575D02*
X031103Y005500D01*
X031103Y005425D01*
X031028Y005350D01*
X031103Y005275D01*
X031103Y005200D01*
X031028Y005125D01*
X030878Y005125D01*
X030803Y005200D01*
X030643Y005125D02*
X030342Y005125D01*
X030493Y005125D02*
X030493Y005575D01*
X030342Y005425D01*
X030182Y005575D02*
X030182Y005200D01*
X030107Y005125D01*
X029957Y005125D01*
X029882Y005200D01*
X029882Y005575D01*
X030803Y005500D02*
X030878Y005575D01*
X031028Y005575D01*
X031028Y005350D02*
X030953Y005350D01*
X034301Y002865D02*
X034526Y002865D01*
X034601Y002790D01*
X034601Y002640D01*
X034526Y002565D01*
X034301Y002565D01*
X034301Y002415D02*
X034301Y002865D01*
X034451Y002565D02*
X034601Y002415D01*
X034761Y002415D02*
X035062Y002415D01*
X034911Y002415D02*
X034911Y002865D01*
X034761Y002715D01*
X035222Y002790D02*
X035297Y002865D01*
X035447Y002865D01*
X035522Y002790D01*
X035522Y002715D01*
X035447Y002640D01*
X035522Y002565D01*
X035522Y002490D01*
X035447Y002415D01*
X035297Y002415D01*
X035222Y002490D01*
X035372Y002640D02*
X035447Y002640D01*
X026943Y002600D02*
X026943Y002300D01*
X026868Y002225D01*
X026718Y002225D01*
X026642Y002300D01*
X026482Y002300D02*
X026482Y002675D01*
X026642Y002600D02*
X026642Y002525D01*
X026718Y002450D01*
X026943Y002450D01*
X026943Y002600D02*
X026868Y002675D01*
X026718Y002675D01*
X026642Y002600D01*
X026482Y002300D02*
X026407Y002225D01*
X026257Y002225D01*
X026182Y002300D01*
X026182Y002675D01*
X024343Y002600D02*
X024343Y002525D01*
X024268Y002450D01*
X024118Y002450D01*
X024042Y002525D01*
X024042Y002600D01*
X024118Y002675D01*
X024268Y002675D01*
X024343Y002600D01*
X024268Y002450D02*
X024343Y002375D01*
X024343Y002300D01*
X024268Y002225D01*
X024118Y002225D01*
X024042Y002300D01*
X024042Y002375D01*
X024118Y002450D01*
X023882Y002300D02*
X023807Y002225D01*
X023657Y002225D01*
X023582Y002300D01*
X023582Y002675D01*
X023882Y002675D02*
X023882Y002300D01*
X020868Y008425D02*
X020718Y008425D01*
X020642Y008500D01*
X020642Y008650D02*
X020793Y008725D01*
X020868Y008725D01*
X020943Y008650D01*
X020943Y008500D01*
X020868Y008425D01*
X020642Y008650D02*
X020642Y008875D01*
X020943Y008875D01*
X020482Y008875D02*
X020482Y008500D01*
X020407Y008425D01*
X020257Y008425D01*
X020182Y008500D01*
X020182Y008875D01*
X018382Y010725D02*
X018082Y010725D01*
X018232Y010725D02*
X018232Y011175D01*
X018082Y011025D01*
X017922Y011100D02*
X017922Y010800D01*
X017846Y010725D01*
X017696Y010725D01*
X017621Y010800D01*
X017621Y011100D01*
X017696Y011175D01*
X017846Y011175D01*
X017922Y011100D01*
X017771Y010875D02*
X017922Y010725D01*
X021242Y010975D02*
X021242Y011275D01*
X021392Y011425D01*
X021542Y011275D01*
X021542Y010975D01*
X021702Y010975D02*
X021702Y011425D01*
X022003Y010975D01*
X022003Y011425D01*
X022163Y011425D02*
X022463Y011425D01*
X022313Y011425D02*
X022313Y010975D01*
X021542Y011200D02*
X021242Y011200D01*
X024102Y009886D02*
X024102Y009414D01*
X024732Y009414D01*
X024732Y009886D01*
X024102Y009886D01*
X015426Y014232D02*
X015126Y014232D01*
X015276Y014232D02*
X015276Y014683D01*
X015126Y014533D01*
X014966Y014533D02*
X014891Y014458D01*
X014666Y014458D01*
X014666Y014683D02*
X014666Y014232D01*
X014891Y014232D01*
X014966Y014308D01*
X014966Y014383D01*
X014891Y014458D01*
X014966Y014533D02*
X014966Y014608D01*
X014891Y014683D01*
X014666Y014683D01*
X014334Y013693D02*
X014295Y015662D01*
X011578Y015662D01*
X011578Y013693D01*
X009143Y014075D02*
X008842Y014075D01*
X009143Y014375D01*
X009143Y014450D01*
X009068Y014525D01*
X008918Y014525D01*
X008842Y014450D01*
X008682Y014525D02*
X008682Y014150D01*
X008607Y014075D01*
X008457Y014075D01*
X008382Y014150D01*
X008382Y014525D01*
X003692Y015875D02*
X003242Y015875D01*
X003242Y016100D01*
X003317Y016175D01*
X003467Y016175D01*
X003542Y016100D01*
X003542Y015875D01*
X003542Y016025D02*
X003692Y016175D01*
X003467Y016335D02*
X003467Y016636D01*
X003317Y016796D02*
X003617Y016796D01*
X003692Y016871D01*
X003692Y017021D01*
X003617Y017096D01*
X003617Y017256D02*
X003542Y017331D01*
X003542Y017556D01*
X003467Y017556D02*
X003692Y017556D01*
X003692Y017331D01*
X003617Y017256D01*
X003392Y017331D02*
X003392Y017481D01*
X003467Y017556D01*
X003392Y017717D02*
X003392Y017942D01*
X003467Y018017D01*
X003617Y018017D01*
X003692Y017942D01*
X003692Y017717D01*
X003242Y017717D01*
X003242Y018177D02*
X003242Y018252D01*
X003692Y018252D01*
X003692Y018177D02*
X003692Y018327D01*
X003617Y018484D02*
X003467Y018484D01*
X003392Y018559D01*
X003392Y018709D01*
X003467Y018784D01*
X003542Y018784D01*
X003542Y018484D01*
X003617Y018484D02*
X003692Y018559D01*
X003692Y018709D01*
X003692Y019405D02*
X003392Y019705D01*
X003317Y019705D01*
X003242Y019630D01*
X003242Y019480D01*
X003317Y019405D01*
X003692Y019405D02*
X003692Y019705D01*
X003617Y019865D02*
X003692Y019940D01*
X003692Y020090D01*
X003617Y020165D01*
X003542Y020165D01*
X003467Y020090D01*
X003467Y019865D01*
X003617Y019865D01*
X003467Y019865D02*
X003317Y020015D01*
X003242Y020165D01*
X003242Y020325D02*
X003242Y020551D01*
X003317Y020626D01*
X003467Y020626D01*
X003542Y020551D01*
X003542Y020325D01*
X003692Y020325D02*
X003242Y020325D01*
X007561Y020615D02*
X007561Y021065D01*
X007786Y021065D01*
X007862Y020990D01*
X007862Y020840D01*
X007786Y020765D01*
X007561Y020765D01*
X007711Y020765D02*
X007862Y020615D01*
X008022Y020840D02*
X008322Y020840D01*
X008247Y020615D02*
X008247Y021065D01*
X008022Y020840D01*
X008013Y021262D02*
X008049Y021262D01*
X008049Y022222D01*
X008013Y022246D02*
X008013Y021262D01*
X007686Y021262D01*
X007686Y022246D01*
X008013Y022246D01*
X009320Y022246D01*
X009320Y021262D01*
X008049Y021262D01*
X010329Y021647D02*
X010329Y022919D01*
X011290Y022919D01*
X011313Y022954D02*
X010329Y022954D01*
X010329Y022919D01*
X010329Y022954D02*
X010329Y023281D01*
X011313Y023281D01*
X011313Y022954D01*
X011313Y021647D01*
X010329Y021647D01*
X011182Y021275D02*
X011182Y020900D01*
X011257Y020825D01*
X011407Y020825D01*
X011482Y020900D01*
X011482Y021275D01*
X011642Y021200D02*
X011718Y021275D01*
X011868Y021275D01*
X011943Y021200D01*
X011943Y021125D01*
X011868Y021050D01*
X011943Y020975D01*
X011943Y020900D01*
X011868Y020825D01*
X011718Y020825D01*
X011642Y020900D01*
X011793Y021050D02*
X011868Y021050D01*
X012761Y021065D02*
X012761Y020615D01*
X012761Y020765D02*
X012986Y020765D01*
X013062Y020840D01*
X013062Y020990D01*
X012986Y021065D01*
X012761Y021065D01*
X012911Y020765D02*
X013062Y020615D01*
X013222Y020690D02*
X013297Y020615D01*
X013447Y020615D01*
X013522Y020690D01*
X013522Y020840D01*
X013447Y020915D01*
X013372Y020915D01*
X013222Y020840D01*
X013222Y021065D01*
X013522Y021065D01*
X013721Y021225D02*
X013946Y021225D01*
X014022Y021300D01*
X014022Y021600D01*
X013946Y021675D01*
X013721Y021675D01*
X013721Y021225D01*
X014182Y021225D02*
X014482Y021225D01*
X014332Y021225D02*
X014332Y021675D01*
X014182Y021525D01*
X017294Y020209D02*
X022215Y020209D01*
X022215Y025130D01*
X017294Y025130D01*
X017294Y020209D01*
X015413Y018975D02*
X015413Y018525D01*
X015263Y018525D02*
X015563Y018525D01*
X015263Y018825D02*
X015413Y018975D01*
X015103Y018900D02*
X015103Y018750D01*
X015028Y018675D01*
X014802Y018675D01*
X014802Y018525D02*
X014802Y018975D01*
X015028Y018975D01*
X015103Y018900D01*
X014642Y018975D02*
X014492Y018975D01*
X014567Y018975D02*
X014567Y018600D01*
X014492Y018525D01*
X014417Y018525D01*
X014342Y018600D01*
X012543Y017875D02*
X012242Y017875D01*
X012393Y017875D02*
X012393Y018325D01*
X012242Y018175D01*
X012082Y018325D02*
X012082Y017950D01*
X012007Y017875D01*
X011857Y017875D01*
X011782Y017950D01*
X011782Y018325D01*
X003317Y017096D02*
X003242Y017021D01*
X003242Y016871D01*
X003317Y016796D01*
X008980Y009993D02*
X008985Y010186D01*
X008999Y010379D01*
X009023Y010571D01*
X009056Y010761D01*
X009098Y010950D01*
X009150Y011136D01*
X009210Y011319D01*
X009280Y011500D01*
X009358Y011676D01*
X009445Y011849D01*
X009540Y012017D01*
X009644Y012180D01*
X009755Y012338D01*
X009874Y012491D01*
X010000Y012637D01*
X010133Y012777D01*
X010273Y012910D01*
X010419Y013036D01*
X010572Y013155D01*
X010730Y013266D01*
X010893Y013370D01*
X011061Y013465D01*
X011234Y013552D01*
X011410Y013630D01*
X011591Y013700D01*
X011774Y013760D01*
X011960Y013812D01*
X012149Y013854D01*
X012339Y013887D01*
X012531Y013911D01*
X012724Y013925D01*
X012917Y013930D01*
X013110Y013925D01*
X013303Y013911D01*
X013495Y013887D01*
X013685Y013854D01*
X013874Y013812D01*
X014060Y013760D01*
X014243Y013700D01*
X014424Y013630D01*
X014600Y013552D01*
X014773Y013465D01*
X014941Y013370D01*
X015104Y013266D01*
X015262Y013155D01*
X015415Y013036D01*
X015561Y012910D01*
X015701Y012777D01*
X015834Y012637D01*
X015960Y012491D01*
X016079Y012338D01*
X016190Y012180D01*
X016294Y012017D01*
X016389Y011849D01*
X016476Y011676D01*
X016554Y011500D01*
X016624Y011319D01*
X016684Y011136D01*
X016736Y010950D01*
X016778Y010761D01*
X016811Y010571D01*
X016835Y010379D01*
X016849Y010186D01*
X016854Y009993D01*
X016849Y009800D01*
X016835Y009607D01*
X016811Y009415D01*
X016778Y009225D01*
X016736Y009036D01*
X016684Y008850D01*
X016624Y008667D01*
X016554Y008486D01*
X016476Y008310D01*
X016389Y008137D01*
X016294Y007969D01*
X016190Y007806D01*
X016079Y007648D01*
X015960Y007495D01*
X015834Y007349D01*
X015701Y007209D01*
X015561Y007076D01*
X015415Y006950D01*
X015262Y006831D01*
X015104Y006720D01*
X014941Y006616D01*
X014773Y006521D01*
X014600Y006434D01*
X014424Y006356D01*
X014243Y006286D01*
X014060Y006226D01*
X013874Y006174D01*
X013685Y006132D01*
X013495Y006099D01*
X013303Y006075D01*
X013110Y006061D01*
X012917Y006056D01*
X012724Y006061D01*
X012531Y006075D01*
X012339Y006099D01*
X012149Y006132D01*
X011960Y006174D01*
X011774Y006226D01*
X011591Y006286D01*
X011410Y006356D01*
X011234Y006434D01*
X011061Y006521D01*
X010893Y006616D01*
X010730Y006720D01*
X010572Y006831D01*
X010419Y006950D01*
X010273Y007076D01*
X010133Y007209D01*
X010000Y007349D01*
X009874Y007495D01*
X009755Y007648D01*
X009644Y007806D01*
X009540Y007969D01*
X009445Y008137D01*
X009358Y008310D01*
X009280Y008486D01*
X009210Y008667D01*
X009150Y008850D01*
X009098Y009036D01*
X009056Y009225D01*
X009023Y009415D01*
X008999Y009607D01*
X008985Y009800D01*
X008980Y009993D01*
X009661Y004165D02*
X009886Y004165D01*
X009962Y004090D01*
X009962Y003940D01*
X009886Y003865D01*
X009661Y003865D01*
X009661Y003715D02*
X009661Y004165D01*
X009811Y003865D02*
X009962Y003715D01*
X010122Y003715D02*
X010122Y003790D01*
X010422Y004090D01*
X010422Y004165D01*
X010122Y004165D01*
X009886Y001665D02*
X009661Y001665D01*
X009661Y001215D01*
X009661Y001365D02*
X009886Y001365D01*
X009962Y001440D01*
X009962Y001590D01*
X009886Y001665D01*
X009811Y001365D02*
X009962Y001215D01*
X010122Y001290D02*
X010197Y001215D01*
X010347Y001215D01*
X010422Y001290D01*
X010422Y001365D01*
X010347Y001440D01*
X010122Y001440D01*
X010122Y001290D01*
X010122Y001440D02*
X010272Y001590D01*
X010422Y001665D01*
X021614Y018825D02*
X021764Y018825D01*
X021689Y018825D02*
X021689Y019275D01*
X021614Y019275D02*
X021764Y019275D01*
X021921Y019200D02*
X021921Y018900D01*
X021996Y018825D01*
X022146Y018825D01*
X022222Y018900D01*
X022382Y018825D02*
X022682Y018825D01*
X022532Y018825D02*
X022532Y019275D01*
X022382Y019125D01*
X022222Y019200D02*
X022146Y019275D01*
X021996Y019275D01*
X021921Y019200D01*
X023712Y020570D02*
X023787Y020495D01*
X023937Y020495D01*
X024012Y020570D01*
X024012Y020945D01*
X024172Y020720D02*
X024473Y020720D01*
X024398Y020495D02*
X024398Y020945D01*
X024172Y020720D01*
X023712Y020570D02*
X023712Y020945D01*
X025482Y019625D02*
X025482Y019250D01*
X025557Y019175D01*
X025707Y019175D01*
X025782Y019250D01*
X025782Y019625D01*
X025942Y019475D02*
X026093Y019625D01*
X026093Y019175D01*
X026243Y019175D02*
X025942Y019175D01*
X026403Y019250D02*
X026403Y019400D01*
X026628Y019400D01*
X026703Y019325D01*
X026703Y019250D01*
X026628Y019175D01*
X026478Y019175D01*
X026403Y019250D01*
X026403Y019400D02*
X026553Y019550D01*
X026703Y019625D01*
X029761Y020775D02*
X029986Y020775D01*
X030061Y020850D01*
X030061Y021150D01*
X029986Y021225D01*
X029761Y021225D01*
X029761Y020775D01*
X030221Y020775D02*
X030522Y020775D01*
X030371Y020775D02*
X030371Y021225D01*
X030221Y021075D01*
X030682Y021150D02*
X030682Y020850D01*
X030982Y021150D01*
X030982Y020850D01*
X030907Y020775D01*
X030757Y020775D01*
X030682Y020850D01*
X030682Y021150D02*
X030757Y021225D01*
X030907Y021225D01*
X030982Y021150D01*
X034721Y021225D02*
X034721Y020775D01*
X034946Y020775D01*
X035022Y020850D01*
X035022Y021150D01*
X034946Y021225D01*
X034721Y021225D01*
X035182Y021150D02*
X035182Y021075D01*
X035257Y021000D01*
X035407Y021000D01*
X035482Y020925D01*
X035482Y020850D01*
X035407Y020775D01*
X035257Y020775D01*
X035182Y020850D01*
X035182Y020925D01*
X035257Y021000D01*
X035407Y021000D02*
X035482Y021075D01*
X035482Y021150D01*
X035407Y021225D01*
X035257Y021225D01*
X035182Y021150D01*
X038727Y018850D02*
X038727Y018191D01*
X038727Y018848D01*
X017616Y025318D02*
X017316Y025318D01*
X017466Y025318D02*
X017466Y025768D01*
X017316Y025618D01*
X017156Y025318D02*
X016856Y025318D01*
X016856Y025768D01*
X016332Y026365D02*
X016032Y026365D01*
X016182Y026365D02*
X016182Y026815D01*
X016032Y026665D01*
X015872Y026740D02*
X015796Y026815D01*
X015571Y026815D01*
X015571Y026365D01*
X015796Y026365D01*
X015872Y026440D01*
X015872Y026740D01*
X015411Y026815D02*
X015111Y026815D01*
X015111Y026365D01*
X015411Y026365D01*
X015261Y026590D02*
X015111Y026590D01*
X014951Y026365D02*
X014650Y026365D01*
X014650Y026815D01*
X014353Y024835D02*
X014202Y024685D01*
X014042Y024760D02*
X014042Y024610D01*
X013967Y024535D01*
X013742Y024535D01*
X013742Y024385D02*
X013742Y024835D01*
X013967Y024835D01*
X014042Y024760D01*
X013892Y024535D02*
X014042Y024385D01*
X014202Y024385D02*
X014503Y024385D01*
X014353Y024385D02*
X014353Y024835D01*
D14*
X015192Y023850D03*
X013042Y023850D03*
D15*
X012317Y025400D02*
X012317Y026900D01*
X024110Y025262D02*
X024921Y025262D01*
X024921Y024238D02*
X024110Y024238D01*
X037205Y007076D02*
X042678Y007076D01*
X042678Y002627D01*
X037205Y002627D01*
X037205Y007076D01*
X042717Y006092D02*
X044056Y006092D01*
X044056Y003808D01*
X042717Y003808D01*
X009129Y002424D02*
X003656Y002424D01*
X003656Y006873D01*
X009129Y006873D01*
X009129Y002424D01*
X003617Y003408D02*
X002278Y003408D01*
X002278Y005692D01*
X003617Y005692D01*
D16*
X012941Y012807D02*
X012941Y013307D01*
X012691Y013057D02*
X013191Y013057D01*
X029277Y016121D02*
X031757Y016121D01*
X031757Y016259D01*
X031757Y016830D02*
X031757Y017263D01*
X031757Y017833D02*
X031757Y018267D01*
X031757Y018837D02*
X031757Y019270D01*
X031757Y019841D02*
X031757Y019979D01*
X029277Y019979D01*
X029277Y019841D01*
X029277Y019270D02*
X029277Y018837D01*
X029277Y018267D02*
X029277Y017833D01*
X029277Y017263D02*
X029277Y016830D01*
X029277Y016259D02*
X029277Y016121D01*
X034077Y016121D02*
X036557Y016121D01*
X036557Y016259D01*
X036557Y016830D02*
X036557Y017263D01*
X036557Y017833D02*
X036557Y018267D01*
X036557Y018837D02*
X036557Y019270D01*
X036557Y019841D02*
X036557Y019979D01*
X034077Y019979D01*
X034077Y019841D01*
X034077Y019270D02*
X034077Y018837D01*
X034077Y018267D02*
X034077Y017833D01*
X034077Y017263D02*
X034077Y016830D01*
X034077Y016259D02*
X034077Y016121D01*
X038727Y017569D02*
X039356Y017569D01*
X039356Y017669D01*
X041801Y017669D01*
X042628Y018388D01*
X042628Y023112D01*
X041762Y023831D01*
X039356Y023831D01*
X039356Y023931D01*
X038727Y023931D01*
X038727Y023309D01*
X039439Y023309D01*
X039439Y018191D01*
X038727Y018191D01*
X038727Y023309D01*
X036557Y023230D02*
X036557Y023663D01*
X036557Y024233D02*
X036557Y024667D01*
X036557Y025237D02*
X036557Y025670D01*
X036557Y026241D02*
X036557Y026379D01*
X034077Y026379D01*
X034077Y026241D01*
X034077Y025670D02*
X034077Y025237D01*
X034077Y024667D02*
X034077Y024233D01*
X034077Y023663D02*
X034077Y023230D01*
X034077Y022659D02*
X034077Y022521D01*
X036557Y022521D01*
X036557Y022659D01*
X031757Y022659D02*
X031757Y022521D01*
X029277Y022521D01*
X029277Y022659D01*
X029277Y023230D02*
X029277Y023663D01*
X029277Y024233D02*
X029277Y024667D01*
X029277Y025237D02*
X029277Y025670D01*
X029277Y026241D02*
X029277Y026379D01*
X031757Y026379D01*
X031757Y026241D01*
X031757Y025670D02*
X031757Y025237D01*
X031757Y024667D02*
X031757Y024233D01*
X031757Y023663D02*
X031757Y023230D01*
X038727Y018191D02*
X038727Y017569D01*
X038799Y014863D02*
X038799Y009037D01*
X044429Y009037D01*
X044429Y014863D01*
X038799Y014863D01*
X041762Y020514D02*
X041998Y020514D01*
X041998Y020986D01*
X042392Y020986D01*
X042392Y020514D01*
X041998Y020514D01*
X041762Y020514D02*
X041762Y020986D01*
X041998Y020986D01*
X036062Y006695D02*
X035609Y006695D01*
X036062Y006695D02*
X036062Y004805D01*
X035904Y004805D01*
X035215Y004805D02*
X035019Y004805D01*
X034290Y004805D02*
X034172Y004805D01*
X034172Y006695D01*
X034625Y006695D01*
X009917Y023959D02*
X009295Y023959D01*
X009295Y024672D01*
X006539Y024672D01*
X006539Y023959D01*
X005917Y023959D01*
X005917Y024589D01*
X006017Y024589D01*
X006017Y026995D01*
X006736Y027861D01*
X009098Y027861D01*
X009817Y027034D01*
X009817Y024589D01*
X009917Y024589D01*
X009917Y023959D01*
X009295Y023959D02*
X006539Y023959D01*
X007681Y026995D02*
X007681Y027231D01*
X008153Y027231D01*
X008153Y026995D01*
X007681Y026995D01*
X007681Y027231D02*
X007681Y027625D01*
X008153Y027625D01*
X008153Y027231D01*
X012317Y026900D02*
X012360Y026954D01*
X012406Y027006D01*
X012455Y027055D01*
X012507Y027102D01*
X012561Y027145D01*
X012617Y027186D01*
X012676Y027223D01*
X012736Y027257D01*
X012799Y027287D01*
X012862Y027314D01*
X012928Y027338D01*
X012994Y027358D01*
X013062Y027374D01*
X013130Y027386D01*
X013199Y027394D01*
X013268Y027399D01*
X013338Y027400D01*
X013407Y027397D01*
X013476Y027390D01*
X013544Y027379D01*
X013612Y027365D01*
X013679Y027346D01*
X013745Y027324D01*
X013810Y027299D01*
X013873Y027270D01*
X013934Y027237D01*
X013993Y027201D01*
X014050Y027162D01*
X014106Y027120D01*
X014158Y027075D01*
X014208Y027027D01*
X014255Y026976D01*
X014300Y026922D01*
X014341Y026867D01*
X014379Y026809D01*
X014414Y026749D01*
X014446Y026687D01*
X014474Y026624D01*
X014498Y026559D01*
X014519Y026493D01*
X014536Y026425D01*
X014550Y026357D01*
X014559Y026288D01*
X014565Y026219D01*
X014567Y026150D01*
X014565Y026081D01*
X014559Y026012D01*
X014550Y025943D01*
X014536Y025875D01*
X014519Y025807D01*
X014498Y025741D01*
X014474Y025676D01*
X014446Y025613D01*
X014414Y025551D01*
X014379Y025491D01*
X014341Y025433D01*
X014300Y025378D01*
X014255Y025324D01*
X014208Y025273D01*
X014158Y025225D01*
X014106Y025180D01*
X014050Y025138D01*
X013993Y025099D01*
X013934Y025063D01*
X013873Y025030D01*
X013810Y025001D01*
X013745Y024976D01*
X013679Y024954D01*
X013612Y024935D01*
X013544Y024921D01*
X013476Y024910D01*
X013407Y024903D01*
X013338Y024900D01*
X013268Y024901D01*
X013199Y024906D01*
X013130Y024914D01*
X013062Y024926D01*
X012994Y024942D01*
X012928Y024962D01*
X012862Y024986D01*
X012799Y025013D01*
X012736Y025043D01*
X012676Y025077D01*
X012617Y025114D01*
X012561Y025155D01*
X012507Y025198D01*
X012455Y025245D01*
X012406Y025294D01*
X012360Y025346D01*
X012317Y025400D01*
D17*
X011128Y024130D02*
X011204Y024054D01*
X011204Y023977D01*
X011128Y023900D01*
X011204Y023823D01*
X011204Y023747D01*
X011128Y023670D01*
X010974Y023670D01*
X010897Y023747D01*
X010744Y023747D02*
X010744Y024054D01*
X010667Y024130D01*
X010437Y024130D01*
X010437Y023670D01*
X010667Y023670D01*
X010744Y023747D01*
X010897Y024054D02*
X010974Y024130D01*
X011128Y024130D01*
X011128Y023900D02*
X011051Y023900D01*
X009804Y022854D02*
X009728Y022930D01*
X009574Y022930D01*
X009497Y022854D01*
X009344Y022854D02*
X009344Y022547D01*
X009267Y022470D01*
X009037Y022470D01*
X009037Y022930D01*
X009267Y022930D01*
X009344Y022854D01*
X009497Y022470D02*
X009804Y022777D01*
X009804Y022854D01*
X009804Y022470D02*
X009497Y022470D01*
X010047Y018380D02*
X010222Y018380D01*
X010281Y018322D01*
X010281Y018205D01*
X010222Y018147D01*
X010047Y018147D01*
X010164Y018147D02*
X010281Y018030D01*
X010406Y018088D02*
X010465Y018030D01*
X010581Y018030D01*
X010640Y018088D01*
X010640Y018147D01*
X010581Y018205D01*
X010523Y018205D01*
X010581Y018205D02*
X010640Y018264D01*
X010640Y018322D01*
X010581Y018380D01*
X010465Y018380D01*
X010406Y018322D01*
X010047Y018380D02*
X010047Y018030D01*
X010047Y017280D02*
X010222Y017280D01*
X010281Y017222D01*
X010281Y017105D01*
X010222Y017047D01*
X010047Y017047D01*
X010164Y017047D02*
X010281Y016930D01*
X010406Y016930D02*
X010640Y017164D01*
X010640Y017222D01*
X010581Y017280D01*
X010465Y017280D01*
X010406Y017222D01*
X010406Y016930D02*
X010640Y016930D01*
X010047Y016930D02*
X010047Y017280D01*
X010040Y015588D02*
X010347Y015588D01*
X010347Y015511D01*
X010040Y015204D01*
X010040Y015128D01*
X009886Y015358D02*
X009810Y015281D01*
X009579Y015281D01*
X009579Y015128D02*
X009579Y015588D01*
X009810Y015588D01*
X009886Y015511D01*
X009886Y015358D01*
X009426Y015588D02*
X009119Y015588D01*
X009272Y015588D02*
X009272Y015128D01*
X008847Y015204D02*
X008847Y015281D01*
X008770Y015358D01*
X008540Y015358D01*
X008540Y015204D01*
X008616Y015128D01*
X008770Y015128D01*
X008847Y015204D01*
X008693Y015511D02*
X008540Y015358D01*
X008386Y015358D02*
X008386Y015511D01*
X008310Y015588D01*
X008079Y015588D01*
X008079Y015128D01*
X008079Y015281D02*
X008310Y015281D01*
X008386Y015358D01*
X008693Y015511D02*
X008847Y015588D01*
X007926Y015588D02*
X007619Y015588D01*
X007772Y015588D02*
X007772Y015128D01*
X020106Y007804D02*
X020106Y007497D01*
X020183Y007420D01*
X020336Y007420D01*
X020413Y007497D01*
X020566Y007420D02*
X020873Y007420D01*
X020720Y007420D02*
X020720Y007880D01*
X020566Y007727D01*
X020413Y007804D02*
X020336Y007880D01*
X020183Y007880D01*
X020106Y007804D01*
X021027Y007727D02*
X021180Y007880D01*
X021180Y007420D01*
X021027Y007420D02*
X021334Y007420D01*
X021818Y008920D02*
X021971Y008920D01*
X022048Y008997D01*
X022048Y009380D01*
X022202Y009150D02*
X022432Y009150D01*
X022509Y009073D01*
X022509Y008997D01*
X022432Y008920D01*
X022278Y008920D01*
X022202Y008997D01*
X022202Y009150D01*
X022355Y009304D01*
X022509Y009380D01*
X023034Y009389D02*
X023264Y009389D01*
X023341Y009466D01*
X023341Y009773D01*
X023264Y009849D01*
X023034Y009849D01*
X023034Y009389D01*
X023494Y009466D02*
X023571Y009389D01*
X023724Y009389D01*
X023801Y009466D01*
X023801Y009619D01*
X023724Y009696D01*
X023648Y009696D01*
X023494Y009619D01*
X023494Y009849D01*
X023801Y009849D01*
X023857Y010720D02*
X023857Y011180D01*
X023627Y010950D01*
X023934Y010950D01*
X023473Y010797D02*
X023396Y010720D01*
X023243Y010720D01*
X023166Y010797D01*
X023166Y011104D01*
X023243Y011180D01*
X023396Y011180D01*
X023473Y011104D01*
X021741Y009380D02*
X021741Y008997D01*
X021818Y008920D01*
X026466Y009297D02*
X026543Y009220D01*
X026696Y009220D01*
X026773Y009297D01*
X026927Y009297D02*
X027003Y009220D01*
X027157Y009220D01*
X027234Y009297D01*
X027234Y009373D01*
X027157Y009450D01*
X026927Y009450D01*
X026927Y009297D01*
X026927Y009450D02*
X027080Y009604D01*
X027234Y009680D01*
X026773Y009604D02*
X026696Y009680D01*
X026543Y009680D01*
X026466Y009604D01*
X026466Y009297D01*
X028214Y011170D02*
X028367Y011170D01*
X028444Y011247D01*
X028597Y011170D02*
X028904Y011170D01*
X028751Y011170D02*
X028751Y011630D01*
X028597Y011477D01*
X028444Y011554D02*
X028367Y011630D01*
X028214Y011630D01*
X028137Y011554D01*
X028137Y011247D01*
X028214Y011170D01*
X029058Y011400D02*
X029288Y011630D01*
X029288Y011170D01*
X029365Y011400D02*
X029058Y011400D01*
X031094Y012386D02*
X031094Y012847D01*
X031247Y012847D02*
X030940Y012847D01*
X031401Y012847D02*
X031401Y012386D01*
X031401Y012540D02*
X031631Y012540D01*
X031707Y012617D01*
X031707Y012770D01*
X031631Y012847D01*
X031401Y012847D01*
X031861Y012617D02*
X032168Y012617D01*
X032321Y012617D02*
X032475Y012693D01*
X032552Y012693D01*
X032628Y012617D01*
X032628Y012463D01*
X032552Y012386D01*
X032398Y012386D01*
X032321Y012463D01*
X032321Y012617D02*
X032321Y012847D01*
X032628Y012847D01*
X032782Y012847D02*
X032782Y012540D01*
X032935Y012386D01*
X033089Y012540D01*
X033089Y012847D01*
X033214Y011630D02*
X033137Y011554D01*
X033137Y011247D01*
X033214Y011170D01*
X033367Y011170D01*
X033444Y011247D01*
X033597Y011170D02*
X033904Y011170D01*
X033751Y011170D02*
X033751Y011630D01*
X033597Y011477D01*
X033444Y011554D02*
X033367Y011630D01*
X033214Y011630D01*
X034058Y011554D02*
X034058Y011477D01*
X034135Y011400D01*
X034288Y011400D01*
X034365Y011323D01*
X034365Y011247D01*
X034288Y011170D01*
X034135Y011170D01*
X034058Y011247D01*
X034058Y011323D01*
X034135Y011400D01*
X034288Y011400D02*
X034365Y011477D01*
X034365Y011554D01*
X034288Y011630D01*
X034135Y011630D01*
X034058Y011554D01*
X036237Y011554D02*
X036237Y011247D01*
X036314Y011170D01*
X036467Y011170D01*
X036544Y011247D01*
X036697Y011170D02*
X037004Y011170D01*
X036851Y011170D02*
X036851Y011630D01*
X036697Y011477D01*
X036544Y011554D02*
X036467Y011630D01*
X036314Y011630D01*
X036237Y011554D01*
X037158Y011630D02*
X037158Y011400D01*
X037311Y011477D01*
X037388Y011477D01*
X037465Y011400D01*
X037465Y011247D01*
X037388Y011170D01*
X037235Y011170D01*
X037158Y011247D01*
X037158Y011630D02*
X037465Y011630D01*
X038616Y008830D02*
X038923Y008370D01*
X039077Y008370D02*
X039384Y008370D01*
X039230Y008370D02*
X039230Y008830D01*
X039077Y008677D01*
X038923Y008830D02*
X038616Y008370D01*
X038028Y007681D02*
X037797Y007451D01*
X038104Y007451D01*
X038028Y007681D02*
X038028Y007220D01*
X037644Y007220D02*
X037337Y007681D01*
X037644Y007681D02*
X037337Y007220D01*
X035584Y007338D02*
X035277Y007338D01*
X035584Y007645D01*
X035584Y007722D01*
X035507Y007799D01*
X035353Y007799D01*
X035277Y007722D01*
X034970Y007799D02*
X034970Y007338D01*
X035123Y007338D02*
X034816Y007338D01*
X034663Y007338D02*
X034509Y007492D01*
X034586Y007492D02*
X034356Y007492D01*
X034356Y007338D02*
X034356Y007799D01*
X034586Y007799D01*
X034663Y007722D01*
X034663Y007568D01*
X034586Y007492D01*
X034816Y007645D02*
X034970Y007799D01*
X032380Y006880D02*
X032380Y006420D01*
X032227Y006420D02*
X032534Y006420D01*
X032073Y006420D02*
X031766Y006420D01*
X032073Y006727D01*
X032073Y006804D01*
X031996Y006880D01*
X031843Y006880D01*
X031766Y006804D01*
X031613Y006804D02*
X031536Y006880D01*
X031383Y006880D01*
X031306Y006804D01*
X031306Y006497D01*
X031383Y006420D01*
X031536Y006420D01*
X031613Y006497D01*
X032227Y006727D02*
X032380Y006880D01*
X034389Y005750D02*
X034391Y005804D01*
X034397Y005857D01*
X034407Y005910D01*
X034421Y005962D01*
X034438Y006013D01*
X034459Y006062D01*
X034484Y006110D01*
X034513Y006156D01*
X034544Y006199D01*
X034579Y006240D01*
X034617Y006279D01*
X034657Y006314D01*
X034700Y006347D01*
X034745Y006376D01*
X034793Y006402D01*
X034842Y006424D01*
X034892Y006442D01*
X034944Y006457D01*
X034996Y006468D01*
X035050Y006475D01*
X035104Y006478D01*
X035157Y006477D01*
X035211Y006472D01*
X035264Y006463D01*
X035316Y006450D01*
X035367Y006434D01*
X035417Y006413D01*
X035465Y006389D01*
X035512Y006362D01*
X035556Y006331D01*
X035597Y006297D01*
X035637Y006260D01*
X035673Y006220D01*
X035706Y006178D01*
X035736Y006133D01*
X035763Y006086D01*
X035786Y006038D01*
X035805Y005988D01*
X035821Y005936D01*
X035833Y005884D01*
X035841Y005831D01*
X035845Y005777D01*
X035845Y005723D01*
X035841Y005669D01*
X035833Y005616D01*
X035821Y005564D01*
X035805Y005512D01*
X035786Y005462D01*
X035763Y005414D01*
X035736Y005367D01*
X035706Y005322D01*
X035673Y005280D01*
X035637Y005240D01*
X035597Y005203D01*
X035556Y005169D01*
X035512Y005138D01*
X035465Y005111D01*
X035417Y005087D01*
X035367Y005066D01*
X035316Y005050D01*
X035264Y005037D01*
X035211Y005028D01*
X035157Y005023D01*
X035104Y005022D01*
X035050Y005025D01*
X034996Y005032D01*
X034944Y005043D01*
X034892Y005058D01*
X034842Y005076D01*
X034793Y005098D01*
X034745Y005124D01*
X034700Y005153D01*
X034657Y005186D01*
X034617Y005221D01*
X034579Y005260D01*
X034544Y005301D01*
X034513Y005344D01*
X034484Y005390D01*
X034459Y005438D01*
X034438Y005487D01*
X034421Y005538D01*
X034407Y005590D01*
X034397Y005643D01*
X034391Y005696D01*
X034389Y005750D01*
X030134Y004204D02*
X030134Y003897D01*
X030057Y003820D01*
X029903Y003820D01*
X029827Y003897D01*
X029903Y004050D02*
X029827Y004127D01*
X029827Y004204D01*
X029903Y004280D01*
X030057Y004280D01*
X030134Y004204D01*
X030134Y004050D02*
X029903Y004050D01*
X029673Y003820D02*
X029366Y003820D01*
X029520Y003820D02*
X029520Y004280D01*
X029366Y004127D01*
X029213Y004204D02*
X029136Y004280D01*
X028983Y004280D01*
X028906Y004204D01*
X028906Y003897D01*
X028983Y003820D01*
X029136Y003820D01*
X029213Y003897D01*
X029320Y003180D02*
X029320Y002720D01*
X029473Y002720D02*
X029166Y002720D01*
X029013Y002797D02*
X028936Y002720D01*
X028783Y002720D01*
X028706Y002797D01*
X028706Y003104D01*
X028783Y003180D01*
X028936Y003180D01*
X029013Y003104D01*
X029166Y003027D02*
X029320Y003180D01*
X029627Y003180D02*
X029934Y003180D01*
X029934Y003104D01*
X029627Y002797D01*
X029627Y002720D01*
X031206Y001204D02*
X031206Y000897D01*
X031283Y000820D01*
X031436Y000820D01*
X031513Y000897D01*
X031666Y000820D02*
X031973Y001127D01*
X031973Y001204D01*
X031896Y001280D01*
X031743Y001280D01*
X031666Y001204D01*
X031513Y001204D02*
X031436Y001280D01*
X031283Y001280D01*
X031206Y001204D01*
X031666Y000820D02*
X031973Y000820D01*
X032127Y000897D02*
X032434Y001204D01*
X032434Y000897D01*
X032357Y000820D01*
X032203Y000820D01*
X032127Y000897D01*
X032127Y001204D01*
X032203Y001280D01*
X032357Y001280D01*
X032434Y001204D01*
X030215Y000780D02*
X030061Y000704D01*
X029908Y000550D01*
X030138Y000550D01*
X030215Y000473D01*
X030215Y000397D01*
X030138Y000320D01*
X029985Y000320D01*
X029908Y000397D01*
X029908Y000550D01*
X029754Y000320D02*
X029447Y000320D01*
X029601Y000320D02*
X029601Y000780D01*
X029447Y000627D01*
X029294Y000704D02*
X029217Y000780D01*
X029064Y000780D01*
X028987Y000704D01*
X028987Y000397D01*
X029064Y000320D01*
X029217Y000320D01*
X029294Y000397D01*
X027234Y004220D02*
X026927Y004220D01*
X027234Y004527D01*
X027234Y004604D01*
X027157Y004680D01*
X027003Y004680D01*
X026927Y004604D01*
X026620Y004680D02*
X026620Y004220D01*
X026773Y004220D02*
X026466Y004220D01*
X026313Y004297D02*
X026236Y004220D01*
X026083Y004220D01*
X026006Y004297D01*
X026006Y004604D01*
X026083Y004680D01*
X026236Y004680D01*
X026313Y004604D01*
X026466Y004527D02*
X026620Y004680D01*
X027083Y005300D02*
X027236Y005300D01*
X027313Y005377D01*
X027467Y005377D02*
X027467Y005453D01*
X027543Y005530D01*
X027697Y005530D01*
X027774Y005453D01*
X027774Y005377D01*
X027697Y005300D01*
X027543Y005300D01*
X027467Y005377D01*
X027543Y005530D02*
X027467Y005607D01*
X027467Y005684D01*
X027543Y005760D01*
X027697Y005760D01*
X027774Y005684D01*
X027774Y005607D01*
X027697Y005530D01*
X027313Y005684D02*
X027236Y005760D01*
X027083Y005760D01*
X027006Y005684D01*
X027006Y005377D01*
X027083Y005300D01*
X024115Y004604D02*
X024115Y004527D01*
X024038Y004450D01*
X024115Y004373D01*
X024115Y004297D01*
X024038Y004220D01*
X023885Y004220D01*
X023808Y004297D01*
X023654Y004220D02*
X023347Y004220D01*
X023501Y004220D02*
X023501Y004680D01*
X023347Y004527D01*
X023194Y004604D02*
X023117Y004680D01*
X022964Y004680D01*
X022887Y004604D01*
X022887Y004297D01*
X022964Y004220D01*
X023117Y004220D01*
X023194Y004297D01*
X023808Y004604D02*
X023885Y004680D01*
X024038Y004680D01*
X024115Y004604D01*
X024038Y004450D02*
X023961Y004450D01*
X031837Y009647D02*
X031914Y009570D01*
X032067Y009570D01*
X032144Y009647D01*
X032297Y009647D02*
X032297Y009570D01*
X032297Y009647D02*
X032604Y009954D01*
X032604Y010030D01*
X032297Y010030D01*
X032144Y009954D02*
X032067Y010030D01*
X031914Y010030D01*
X031837Y009954D01*
X031837Y009647D01*
X034016Y020170D02*
X034016Y020630D01*
X034093Y020400D02*
X034323Y020170D01*
X034477Y020400D02*
X034707Y020630D01*
X034707Y020170D01*
X034784Y020400D02*
X034477Y020400D01*
X034323Y020630D02*
X034016Y020323D01*
X029884Y020220D02*
X029577Y020220D01*
X029884Y020527D01*
X029884Y020604D01*
X029807Y020680D01*
X029653Y020680D01*
X029577Y020604D01*
X029423Y020680D02*
X029116Y020373D01*
X029193Y020450D02*
X029423Y020220D01*
X029116Y020220D02*
X029116Y020680D01*
X026904Y022847D02*
X026828Y022770D01*
X026674Y022770D01*
X026597Y022847D01*
X026444Y022847D02*
X026367Y022770D01*
X026214Y022770D01*
X026137Y022847D01*
X026137Y023154D01*
X026214Y023230D01*
X026367Y023230D01*
X026444Y023154D01*
X026597Y023230D02*
X026597Y023000D01*
X026751Y023077D01*
X026828Y023077D01*
X026904Y023000D01*
X026904Y022847D01*
X026904Y023230D02*
X026597Y023230D01*
X026651Y025070D02*
X026651Y025530D01*
X026497Y025377D01*
X026344Y025454D02*
X026267Y025530D01*
X026114Y025530D01*
X026037Y025454D01*
X026037Y025147D01*
X026114Y025070D01*
X026267Y025070D01*
X026344Y025147D01*
X026497Y025070D02*
X026804Y025070D01*
X027237Y025347D02*
X027314Y025270D01*
X027467Y025270D01*
X027544Y025347D01*
X027697Y025270D02*
X028004Y025577D01*
X028004Y025654D01*
X027928Y025730D01*
X027774Y025730D01*
X027697Y025654D01*
X027544Y025654D02*
X027467Y025730D01*
X027314Y025730D01*
X027237Y025654D01*
X027237Y025347D01*
X027697Y025270D02*
X028004Y025270D01*
X029337Y026620D02*
X029337Y027080D01*
X029414Y026850D02*
X029644Y026620D01*
X029797Y026697D02*
X029874Y026620D01*
X030028Y026620D01*
X030104Y026697D01*
X030104Y026773D01*
X030028Y026850D01*
X029951Y026850D01*
X030028Y026850D02*
X030104Y026927D01*
X030104Y027004D01*
X030028Y027080D01*
X029874Y027080D01*
X029797Y027004D01*
X029644Y027080D02*
X029337Y026773D01*
X034016Y026773D02*
X034323Y027080D01*
X034477Y026927D02*
X034630Y027080D01*
X034630Y026620D01*
X034477Y026620D02*
X034784Y026620D01*
X034323Y026620D02*
X034093Y026850D01*
X034016Y027080D02*
X034016Y026620D01*
X024304Y025750D02*
X023997Y025750D01*
X024228Y025980D01*
X024228Y025520D01*
X023844Y025597D02*
X023844Y025904D01*
X023767Y025980D01*
X023537Y025980D01*
X023537Y025520D01*
X023767Y025520D01*
X023844Y025597D01*
X023328Y024030D02*
X023174Y024030D01*
X023097Y023954D01*
X022944Y023954D02*
X022867Y024030D01*
X022714Y024030D01*
X022637Y023954D01*
X022637Y023647D01*
X022714Y023570D01*
X022867Y023570D01*
X022944Y023647D01*
X023097Y023647D02*
X023174Y023570D01*
X023328Y023570D01*
X023404Y023647D01*
X023404Y023723D01*
X023328Y023800D01*
X023251Y023800D01*
X023328Y023800D02*
X023404Y023877D01*
X023404Y023954D01*
X023328Y024030D01*
X000747Y005261D02*
X000670Y005337D01*
X000593Y005337D01*
X000516Y005261D01*
X000516Y005184D01*
X000516Y005261D02*
X000440Y005337D01*
X000363Y005337D01*
X000286Y005261D01*
X000286Y005107D01*
X000363Y005030D01*
X000286Y004877D02*
X000747Y004570D01*
X000747Y004877D02*
X000286Y004570D01*
X000670Y005030D02*
X000747Y005107D01*
X000747Y005261D01*
X011187Y004104D02*
X011187Y003797D01*
X011264Y003720D01*
X011417Y003720D01*
X011494Y003797D01*
X011647Y003720D02*
X011954Y003720D01*
X011801Y003720D02*
X011801Y004180D01*
X011647Y004027D01*
X011494Y004104D02*
X011417Y004180D01*
X011264Y004180D01*
X011187Y004104D01*
X012108Y004104D02*
X012108Y003797D01*
X012415Y004104D01*
X012415Y003797D01*
X012338Y003720D01*
X012185Y003720D01*
X012108Y003797D01*
X012108Y004104D02*
X012185Y004180D01*
X012338Y004180D01*
X012415Y004104D01*
X013434Y003249D02*
X013664Y003249D01*
X013741Y003173D01*
X013741Y002866D01*
X013664Y002789D01*
X013434Y002789D01*
X013434Y003249D01*
X013894Y003249D02*
X014201Y003249D01*
X014201Y003173D01*
X013894Y002866D01*
X013894Y002789D01*
X014087Y001911D02*
X013933Y001835D01*
X013780Y001681D01*
X014010Y001681D01*
X014087Y001605D01*
X014087Y001528D01*
X014010Y001451D01*
X013857Y001451D01*
X013780Y001528D01*
X013780Y001681D01*
X013626Y001528D02*
X013626Y001835D01*
X013550Y001911D01*
X013319Y001911D01*
X013319Y001451D01*
X013550Y001451D01*
X013626Y001528D01*
X012054Y001897D02*
X012054Y002204D01*
X011978Y002280D01*
X011824Y002280D01*
X011747Y002204D01*
X011747Y002127D01*
X011824Y002050D01*
X012054Y002050D01*
X012054Y001897D02*
X011978Y001820D01*
X011824Y001820D01*
X011747Y001897D01*
X011594Y001897D02*
X011517Y001820D01*
X011364Y001820D01*
X011287Y001897D01*
X011287Y002204D01*
X011364Y002280D01*
X011517Y002280D01*
X011594Y002204D01*
D18*
X014767Y022350D03*
D19*
X015392Y022350D03*
X013042Y022350D03*
D20*
X024231Y024750D03*
D21*
X040084Y013588D02*
X040260Y013588D01*
X040456Y013590D02*
X040801Y013590D01*
X040260Y013589D02*
X040255Y013540D01*
X040253Y013491D01*
X040255Y013442D01*
X040260Y013393D01*
X040259Y013393D02*
X040261Y013366D01*
X040266Y013340D01*
X040275Y013315D01*
X040288Y013291D01*
X040303Y013269D01*
X040322Y013249D01*
X040342Y013232D01*
X040365Y013218D01*
X040390Y013207D01*
X040416Y013200D01*
X040443Y013196D01*
X040469Y013196D01*
X040496Y013200D01*
X040522Y013207D01*
X040547Y013218D01*
X040570Y013232D01*
X040590Y013249D01*
X040609Y013269D01*
X040624Y013291D01*
X040637Y013315D01*
X040646Y013340D01*
X040651Y013366D01*
X040653Y013393D01*
X040456Y013393D01*
X040456Y013590D01*
X040062Y013294D02*
X040064Y013255D01*
X040070Y013217D01*
X040079Y013180D01*
X040092Y013143D01*
X040109Y013108D01*
X040128Y013075D01*
X040151Y013044D01*
X040177Y013015D01*
X040206Y012989D01*
X040237Y012966D01*
X040270Y012947D01*
X040305Y012930D01*
X040342Y012917D01*
X040379Y012908D01*
X040417Y012902D01*
X040456Y012900D01*
X040495Y012902D01*
X040533Y012908D01*
X040570Y012917D01*
X040607Y012930D01*
X040642Y012947D01*
X040675Y012966D01*
X040706Y012989D01*
X040735Y013015D01*
X040761Y013044D01*
X040784Y013075D01*
X040803Y013108D01*
X040820Y013143D01*
X040833Y013180D01*
X040842Y013217D01*
X040848Y013255D01*
X040850Y013294D01*
X040850Y012802D02*
X040555Y012606D01*
X040407Y012458D02*
X040407Y012310D01*
X040260Y012310D01*
X040260Y012458D01*
X040259Y012458D02*
X040261Y012473D01*
X040265Y012488D01*
X040273Y012501D01*
X040283Y012513D01*
X040296Y012522D01*
X040310Y012528D01*
X040325Y012532D01*
X040341Y012532D01*
X040356Y012528D01*
X040370Y012522D01*
X040383Y012513D01*
X040393Y012501D01*
X040401Y012488D01*
X040405Y012473D01*
X040407Y012458D01*
X040555Y012606D02*
X040553Y012636D01*
X040548Y012665D01*
X040539Y012693D01*
X040527Y012720D01*
X040511Y012746D01*
X040493Y012769D01*
X040472Y012790D01*
X040449Y012808D01*
X040423Y012824D01*
X040396Y012836D01*
X040368Y012845D01*
X040339Y012850D01*
X040309Y012852D01*
X040279Y012850D01*
X040250Y012845D01*
X040222Y012836D01*
X040195Y012824D01*
X040169Y012808D01*
X040146Y012790D01*
X040125Y012769D01*
X040107Y012746D01*
X040091Y012720D01*
X040079Y012693D01*
X040070Y012665D01*
X040065Y012636D01*
X040063Y012606D01*
X040063Y012064D01*
X040850Y012064D01*
X040850Y012310D01*
X040555Y012310D01*
X040850Y012507D01*
X040850Y012802D01*
X040063Y013295D02*
X040062Y013370D01*
X040066Y013445D01*
X040073Y013520D01*
X040084Y013594D01*
X040801Y013589D02*
X040818Y013532D01*
X040832Y013473D01*
X040842Y013414D01*
X040848Y013354D01*
X040850Y013294D01*
X040850Y011966D02*
X040653Y011966D01*
X040653Y011523D01*
X040555Y011523D01*
X040555Y011966D01*
X040358Y011966D01*
X040358Y011523D01*
X040260Y011523D01*
X040260Y011966D01*
X040063Y011966D01*
X040063Y011277D01*
X040850Y011277D01*
X040850Y011966D01*
X040850Y010981D02*
X040850Y010686D01*
X040653Y010981D01*
X040850Y010981D02*
X040848Y011008D01*
X040843Y011034D01*
X040834Y011059D01*
X040821Y011083D01*
X040806Y011105D01*
X040787Y011125D01*
X040767Y011142D01*
X040744Y011156D01*
X040719Y011167D01*
X040693Y011174D01*
X040666Y011178D01*
X040640Y011178D01*
X040613Y011174D01*
X040587Y011167D01*
X040562Y011156D01*
X040539Y011142D01*
X040519Y011125D01*
X040500Y011105D01*
X040485Y011083D01*
X040472Y011059D01*
X040463Y011034D01*
X040458Y011008D01*
X040456Y010981D01*
X040457Y010981D02*
X040455Y011008D01*
X040450Y011034D01*
X040441Y011059D01*
X040428Y011083D01*
X040413Y011105D01*
X040394Y011125D01*
X040374Y011142D01*
X040351Y011156D01*
X040326Y011167D01*
X040300Y011174D01*
X040273Y011178D01*
X040247Y011178D01*
X040220Y011174D01*
X040194Y011167D01*
X040169Y011156D01*
X040146Y011142D01*
X040126Y011125D01*
X040107Y011105D01*
X040092Y011083D01*
X040079Y011059D01*
X040070Y011034D01*
X040065Y011008D01*
X040063Y010981D01*
X040063Y010686D01*
X040260Y010981D01*
X040456Y010686D01*
X040653Y010981D01*
X040456Y010686D02*
X040063Y010686D01*
X040063Y010440D01*
X040850Y010440D01*
X040850Y010686D01*
X040456Y010686D01*
D22*
X041065Y010750D02*
X041215Y010750D01*
X041215Y010850D01*
X041215Y011044D02*
X041215Y011144D01*
X041140Y011094D02*
X041140Y011044D01*
X041065Y011044D02*
X041215Y011044D01*
X041065Y011044D02*
X041065Y011144D01*
X041090Y011339D02*
X041190Y011339D01*
X041215Y011364D01*
X041215Y011414D01*
X041190Y011439D01*
X041090Y011439D02*
X041065Y011414D01*
X041065Y011364D01*
X041090Y011339D01*
X041065Y011634D02*
X041065Y011734D01*
X041065Y011684D02*
X041215Y011684D01*
X041215Y011928D02*
X041065Y011928D01*
X041065Y012003D01*
X041090Y012028D01*
X041140Y012028D01*
X041165Y012003D01*
X041165Y011928D01*
X041165Y011978D02*
X041215Y012028D01*
X041190Y012223D02*
X041215Y012248D01*
X041215Y012298D01*
X041190Y012323D01*
X041090Y012323D01*
X041065Y012298D01*
X041065Y012248D01*
X041090Y012223D01*
X041190Y012223D01*
X041215Y012518D02*
X041065Y012518D01*
X041215Y012618D01*
X041065Y012618D01*
X041065Y012812D02*
X041065Y012862D01*
X041065Y012837D02*
X041215Y012837D01*
X041215Y012812D02*
X041215Y012862D01*
X041190Y013058D02*
X041215Y013083D01*
X041215Y013133D01*
X041190Y013158D01*
X041090Y013158D02*
X041065Y013133D01*
X041065Y013083D01*
X041090Y013058D01*
X041190Y013058D01*
X041190Y013352D02*
X041215Y013377D01*
X041215Y013427D01*
X041190Y013452D01*
X041165Y013452D01*
X041140Y013427D01*
X041140Y013377D01*
X041115Y013352D01*
X041090Y013352D01*
X041065Y013377D01*
X041065Y013427D01*
X041090Y013452D01*
X041065Y010555D02*
X041065Y010455D01*
X041215Y010455D01*
X041215Y010555D01*
X041140Y010505D02*
X041140Y010455D01*
D23*
X035967Y015350D03*
X031167Y015350D03*
X031167Y021750D03*
X035967Y021750D03*
D24*
X036342Y021750D03*
X034292Y021750D03*
X031542Y021750D03*
X029492Y021750D03*
X029492Y015350D03*
X031542Y015350D03*
X034292Y015350D03*
X036342Y015350D03*
D25*
X035127Y005750D03*
D26*
X035117Y005740D03*
D27*
X033917Y003300D02*
X033917Y003200D01*
X017817Y004000D02*
X017817Y004100D01*
X016917Y004100D02*
X016917Y004200D01*
X016917Y002100D02*
X016917Y002000D01*
X017817Y002100D02*
X017817Y002200D01*
X010167Y002150D02*
X010067Y002150D01*
X010067Y003350D02*
X010167Y003350D01*
X008017Y019600D02*
X008017Y019700D01*
X013217Y019600D02*
X013217Y019700D01*
D28*
X031226Y016538D03*
X036026Y016538D03*
X036026Y022938D03*
X031226Y022938D03*
D29*
X003662Y010989D02*
X003662Y010569D01*
X003662Y010779D02*
X003032Y010779D01*
X003242Y010569D01*
X003032Y010344D02*
X003662Y010344D01*
X003032Y009924D01*
X003662Y009924D01*
X003557Y009700D02*
X003137Y009700D01*
X003032Y009595D01*
X003032Y009385D01*
X003137Y009280D01*
X003557Y009280D01*
X003662Y009385D01*
X003662Y009595D01*
X003557Y009700D01*
X003557Y009055D02*
X003662Y008950D01*
X003662Y008740D01*
X003557Y008635D01*
X003137Y008635D01*
X003032Y008740D01*
X003032Y008950D01*
X003137Y009055D01*
D30*
X006357Y008850D03*
D31*
X006282Y008925D03*
X006282Y008775D03*
D32*
X006437Y008850D03*
M02*
