G75*
G70*
%OFA0B0*%
%FSLAX24Y24*%
%IPPOS*%
%LPD*%
%AMOC8*
5,1,8,0,0,1.08239X$1,22.5*
%
%ADD10C,0.1340*%
%ADD11OC8,0.0600*%
%ADD12OC8,0.1080*%
%ADD13C,0.0740*%
%ADD14C,0.0654*%
%ADD15C,0.0986*%
%ADD16C,0.0600*%
%ADD17C,0.0600*%
%ADD18C,0.0595*%
%ADD19OC8,0.0930*%
%ADD20C,0.0640*%
%ADD21C,0.0682*%
%ADD22R,0.0682X0.0682*%
%ADD23C,0.1261*%
%ADD24C,0.0640*%
%ADD25OC8,0.0640*%
%ADD26C,0.0480*%
D10*
X004617Y001450D03*
X041517Y001350D03*
X041517Y026550D03*
X004617Y026550D03*
D11*
X012817Y026150D03*
X013817Y026150D03*
X012617Y023850D03*
X015617Y023850D03*
X013217Y020050D03*
X013217Y019050D03*
X009817Y017350D03*
X009817Y015950D03*
X007817Y015950D03*
X007817Y017350D03*
X008017Y019250D03*
X008017Y020250D03*
X016917Y004650D03*
X016917Y003650D03*
X017917Y003650D03*
X017917Y004650D03*
X017817Y002650D03*
X016917Y002550D03*
X016917Y001550D03*
X017817Y001650D03*
X010617Y002150D03*
X009617Y002150D03*
X009617Y003350D03*
X010617Y003350D03*
X033917Y003750D03*
X033917Y002750D03*
D12*
X015417Y013200D03*
X011417Y013200D03*
X013417Y006200D03*
D13*
X012217Y022350D03*
X016217Y022350D03*
D14*
X039063Y013328D02*
X039637Y013328D01*
X039637Y012344D02*
X039063Y012344D01*
X039063Y011556D02*
X039637Y011556D01*
X039637Y010572D02*
X039063Y010572D01*
D15*
X040417Y009363D03*
X040417Y014537D03*
D16*
X036927Y014900D02*
X036407Y014900D01*
X033927Y014900D02*
X033407Y014900D01*
X032427Y014900D02*
X031907Y014900D01*
X029427Y014900D02*
X028907Y014900D01*
X028907Y021650D02*
X029427Y021650D01*
X031907Y021650D02*
X032427Y021650D01*
X033157Y021650D02*
X033677Y021650D01*
X036157Y021650D02*
X036677Y021650D01*
D17*
X020517Y010550D03*
X019517Y010550D03*
X026617Y008050D03*
X026617Y007050D03*
D18*
X037560Y006782D02*
X037560Y006267D01*
X040334Y006741D02*
X040849Y006741D01*
X041890Y005207D02*
X041890Y004693D01*
X039628Y003907D02*
X039113Y003907D01*
X039077Y002962D02*
X038562Y002962D01*
X008775Y002718D02*
X008775Y003233D01*
X006001Y002759D02*
X005486Y002759D01*
X004444Y004293D02*
X004444Y004807D01*
X006706Y005593D02*
X007221Y005593D01*
X007257Y006538D02*
X007772Y006538D01*
D19*
X026317Y010250D03*
D20*
X015497Y015300D02*
X014937Y015300D01*
X014937Y016300D02*
X015497Y016300D01*
D21*
X008508Y023168D03*
X007327Y023168D03*
X008508Y024349D03*
X037935Y022522D03*
X037935Y021341D03*
X039116Y021341D03*
X039116Y020159D03*
X037935Y020159D03*
X037935Y018978D03*
X039116Y018978D03*
D22*
X039116Y022522D03*
X007327Y024349D03*
D23*
X007917Y026050D03*
X040817Y021675D03*
X040817Y019825D03*
D24*
X005817Y008850D03*
D25*
X004817Y008850D03*
X004817Y009850D03*
X004817Y010850D03*
X005817Y010850D03*
X005817Y009850D03*
X005817Y011850D03*
X004817Y011850D03*
X004817Y012850D03*
X005817Y012850D03*
X005817Y013850D03*
X004817Y013850D03*
X004817Y014850D03*
X004817Y015850D03*
X005817Y015850D03*
X005817Y014850D03*
X005817Y016850D03*
X004817Y016850D03*
X004817Y017850D03*
X005817Y017850D03*
X005817Y018850D03*
X004817Y018850D03*
X004817Y019850D03*
X005817Y019850D03*
X005817Y020850D03*
X004817Y020850D03*
D26*
X008694Y019790D03*
X008183Y014534D03*
X017627Y012473D03*
X018196Y010594D03*
X023502Y013922D03*
X023684Y014627D03*
X026665Y015203D03*
X026915Y013174D03*
X025637Y012362D03*
X024362Y012798D03*
X028229Y011032D03*
X028235Y009498D03*
X025957Y005515D03*
X021757Y002932D03*
X023418Y002181D03*
X024479Y001539D03*
X021786Y001357D03*
X020560Y004538D03*
X020903Y005688D03*
X027868Y001193D03*
X028647Y002478D03*
X032002Y004502D03*
X020497Y017329D03*
X019720Y017406D03*
X020285Y018205D03*
X017967Y017280D03*
X024351Y017450D03*
X024335Y017966D03*
X026606Y020394D03*
X036889Y025400D03*
M02*
