G75*
G70*
%OFA0B0*%
%FSLAX24Y24*%
%IPPOS*%
%LPD*%
%AMOC8*
5,1,8,0,0,1.08239X$1,22.5*
%
%ADD10C,0.1340*%
%ADD11R,0.0500X0.0180*%
%ADD12R,0.0860X0.0300*%
%ADD13OC8,0.0600*%
%ADD14R,0.0220X0.0660*%
%ADD15OC8,0.1080*%
%ADD16R,0.0290X0.0860*%
%ADD17R,0.0600X0.0300*%
%ADD18R,0.0220X0.0540*%
%ADD19R,0.0300X0.0860*%
%ADD20C,0.0740*%
%ADD21R,0.0474X0.0474*%
%ADD22R,0.0671X0.0592*%
%ADD23R,0.0789X0.0710*%
%ADD24R,0.0789X0.1025*%
%ADD25C,0.0654*%
%ADD26C,0.0986*%
%ADD27C,0.0600*%
%ADD28R,0.0540X0.0220*%
%ADD29R,0.0434X0.0356*%
%ADD30R,0.0592X0.0592*%
%ADD31R,0.0867X0.0592*%
%ADD32R,0.0356X0.0434*%
%ADD33C,0.0600*%
%ADD34R,0.0749X0.0336*%
%ADD35C,0.0595*%
%ADD36OC8,0.0930*%
%ADD37R,0.0600X0.0250*%
%ADD38C,0.0640*%
%ADD39R,0.0867X0.0474*%
%ADD40R,0.0356X0.0356*%
%ADD41R,0.0552X0.0678*%
%ADD42R,0.0678X0.0552*%
%ADD43R,0.0200X0.0320*%
%ADD44R,0.0395X0.0395*%
%ADD45R,0.1261X0.0671*%
%ADD46R,0.2206X0.1655*%
%ADD47C,0.0682*%
%ADD48R,0.0682X0.0682*%
%ADD49C,0.1261*%
%ADD50C,0.0640*%
%ADD51OC8,0.0640*%
%ADD52C,0.0480*%
D10*
X004617Y001600D03*
X041517Y001500D03*
X041517Y026700D03*
X004617Y026700D03*
D11*
X008257Y015150D03*
X008257Y014950D03*
X008257Y014750D03*
X008257Y014550D03*
X009377Y014550D03*
X009377Y014750D03*
X009377Y014950D03*
X009377Y015150D03*
D12*
X009647Y019050D03*
X009647Y019550D03*
X009647Y020050D03*
X009647Y020550D03*
X011587Y020550D03*
X011587Y020050D03*
X011587Y019550D03*
X011587Y019050D03*
D13*
X013217Y019200D03*
X013217Y020200D03*
X009417Y017550D03*
X009417Y016550D03*
X007417Y016550D03*
X007417Y017550D03*
X008017Y019400D03*
X008017Y020400D03*
X012617Y024000D03*
X015617Y024000D03*
X013817Y026300D03*
X012817Y026300D03*
X016917Y004800D03*
X017917Y004800D03*
X017917Y003800D03*
X016917Y003800D03*
X016917Y002700D03*
X017817Y002800D03*
X017817Y001800D03*
X016917Y001700D03*
X010617Y002300D03*
X009617Y002300D03*
X009617Y003500D03*
X010617Y003500D03*
X033917Y003900D03*
X033917Y002900D03*
D14*
X032887Y002950D03*
X032627Y002950D03*
X032377Y002950D03*
X032117Y002950D03*
X031857Y002950D03*
X031607Y002950D03*
X031347Y002950D03*
X031347Y005250D03*
X031607Y005250D03*
X031857Y005250D03*
X032117Y005250D03*
X032377Y005250D03*
X032627Y005250D03*
X032887Y005250D03*
D15*
X015417Y013350D03*
X011417Y013350D03*
X013417Y006350D03*
D16*
X018867Y007330D03*
X019367Y007330D03*
X019867Y007330D03*
X020367Y007330D03*
X020367Y009270D03*
X019867Y009270D03*
X019367Y009270D03*
X018867Y009270D03*
D17*
X027117Y012100D03*
X027917Y012500D03*
X027117Y012900D03*
X027117Y014200D03*
X027917Y014600D03*
X027117Y015000D03*
X027117Y016300D03*
X027917Y016700D03*
X027117Y017100D03*
X027117Y018300D03*
X027917Y018700D03*
X027117Y019100D03*
D18*
X029557Y008910D03*
X030077Y008910D03*
X030077Y008090D03*
X029817Y008090D03*
X029557Y008090D03*
D19*
X025367Y021730D03*
X024867Y021730D03*
X024367Y021730D03*
X023867Y021730D03*
X023867Y023670D03*
X024367Y023670D03*
X024867Y023670D03*
X025367Y023670D03*
D20*
X016217Y022500D03*
X012217Y022500D03*
D21*
X031017Y010150D03*
D22*
X031017Y008974D03*
X031017Y008226D03*
X023017Y022326D03*
X023017Y023074D03*
X026417Y023926D03*
X026417Y024674D03*
D23*
X027617Y024851D03*
X027617Y023749D03*
X028517Y009151D03*
X028517Y008049D03*
D24*
X025314Y024900D03*
X023720Y024900D03*
D25*
X039063Y013478D02*
X039637Y013478D01*
X039637Y012494D02*
X039063Y012494D01*
X039063Y011706D02*
X039637Y011706D01*
X039637Y010722D02*
X039063Y010722D01*
D26*
X040417Y009513D03*
X040417Y014687D03*
D27*
X036927Y015050D02*
X036407Y015050D01*
X033927Y015050D02*
X033407Y015050D01*
X032427Y015050D02*
X031907Y015050D01*
X029427Y015050D02*
X028907Y015050D01*
X028907Y021800D02*
X029427Y021800D01*
X031907Y021800D02*
X032427Y021800D01*
X033157Y021800D02*
X033677Y021800D01*
X036157Y021800D02*
X036677Y021800D01*
D28*
X021047Y003660D03*
X021047Y003140D03*
X020287Y003140D03*
X020287Y003400D03*
X020287Y003660D03*
X020287Y001960D03*
X020287Y001700D03*
X020287Y001440D03*
X021047Y001440D03*
X021047Y001960D03*
X023537Y001960D03*
X023537Y001700D03*
X023537Y001440D03*
X024297Y001440D03*
X024297Y001960D03*
X025937Y001960D03*
X025937Y001700D03*
X025937Y001440D03*
X026697Y001440D03*
X026697Y001960D03*
D29*
X030517Y003844D03*
X030517Y004356D03*
X024917Y007844D03*
X024917Y008356D03*
X019467Y016444D03*
X019467Y016956D03*
X018667Y016956D03*
X017967Y016956D03*
X017967Y016444D03*
X018667Y016444D03*
X018667Y018244D03*
X017967Y018244D03*
X017967Y018756D03*
X018667Y018756D03*
X019467Y018756D03*
X019467Y018244D03*
D30*
X034664Y004817D03*
X035570Y004817D03*
D31*
X035117Y006983D03*
D32*
X032373Y006200D03*
X031861Y006200D03*
X028173Y007000D03*
X027661Y007000D03*
X027661Y004000D03*
X028173Y004000D03*
X029361Y002700D03*
X029873Y002700D03*
X029873Y002100D03*
X029361Y002100D03*
X031861Y002000D03*
X032373Y002000D03*
X026273Y003000D03*
X025761Y003000D03*
X024773Y003000D03*
X024261Y003000D03*
X012073Y003400D03*
X011561Y003400D03*
X011561Y001500D03*
X012073Y001500D03*
D33*
X019517Y010700D03*
X020517Y010700D03*
X027617Y006100D03*
X027617Y005100D03*
D34*
X024999Y012100D03*
X024999Y012600D03*
X024999Y013100D03*
X024999Y013600D03*
X024999Y014100D03*
X024999Y014600D03*
X024999Y015100D03*
X024999Y015600D03*
X024999Y016100D03*
X024999Y016600D03*
X024999Y017100D03*
X024999Y017600D03*
X024999Y018100D03*
X024999Y018600D03*
X021235Y018600D03*
X021235Y018100D03*
X021235Y017600D03*
X021235Y017100D03*
X021235Y016600D03*
X021235Y016100D03*
X021235Y015600D03*
X021235Y015100D03*
X021235Y014600D03*
X021235Y014100D03*
X021235Y013600D03*
X021235Y013100D03*
X021235Y012600D03*
X021235Y012100D03*
D35*
X007772Y006688D02*
X007257Y006688D01*
X007221Y005743D02*
X006706Y005743D01*
X004444Y004957D02*
X004444Y004443D01*
X005486Y002909D02*
X006001Y002909D01*
X008775Y002868D02*
X008775Y003383D01*
X037560Y006417D02*
X037560Y006932D01*
X040334Y006891D02*
X040849Y006891D01*
X041890Y005357D02*
X041890Y004843D01*
X039628Y004057D02*
X039113Y004057D01*
X039077Y003112D02*
X038562Y003112D01*
D36*
X025717Y009400D03*
D37*
X012067Y015570D03*
X012067Y015820D03*
X012067Y016080D03*
X012067Y016330D03*
X011067Y016330D03*
X011067Y016080D03*
X011067Y015820D03*
X011067Y015570D03*
D38*
X014137Y015450D02*
X014697Y015450D01*
X014697Y016450D02*
X014137Y016450D01*
D39*
X029100Y016300D03*
X029100Y017300D03*
X029100Y018300D03*
X029100Y019300D03*
X031934Y019300D03*
X031934Y018300D03*
X031934Y017300D03*
X031934Y016300D03*
X033850Y016300D03*
X033850Y017300D03*
X033850Y018300D03*
X033850Y019300D03*
X036684Y019300D03*
X036684Y018300D03*
X036684Y017300D03*
X036684Y016300D03*
X036534Y023050D03*
X036534Y024050D03*
X036534Y025050D03*
X036534Y026050D03*
X033700Y026050D03*
X033700Y025050D03*
X033700Y024050D03*
X033700Y023050D03*
X031934Y023050D03*
X031934Y024050D03*
X031934Y025050D03*
X031934Y026050D03*
X029100Y026050D03*
X029100Y025050D03*
X029100Y024050D03*
X029100Y023050D03*
D40*
X017917Y013300D03*
X017917Y012200D03*
X027617Y003100D03*
X028417Y003100D03*
X028417Y002300D03*
X027617Y002300D03*
D41*
X009348Y021880D03*
X007647Y021880D03*
D42*
X010797Y021769D03*
X010797Y023470D03*
D43*
X023842Y007000D03*
X024092Y007000D03*
X024342Y007000D03*
X024592Y007000D03*
X024842Y007000D03*
X025092Y007000D03*
X025342Y007000D03*
X025592Y007000D03*
X025842Y007000D03*
X026092Y007000D03*
X026342Y007000D03*
X026592Y007000D03*
X026592Y004000D03*
X026342Y004000D03*
X026092Y004000D03*
X025842Y004000D03*
X025592Y004000D03*
X025342Y004000D03*
X025092Y004000D03*
X024842Y004000D03*
X024592Y004000D03*
X024342Y004000D03*
X024092Y004000D03*
X023842Y004000D03*
D44*
X023641Y007700D03*
X024232Y007700D03*
X012917Y003415D03*
X012917Y002824D03*
X012917Y002076D03*
X012917Y001485D03*
D45*
X026717Y021149D03*
X026717Y022330D03*
D46*
X019656Y020713D03*
X019656Y024926D03*
D47*
X008508Y024499D03*
X008508Y023318D03*
X007327Y023318D03*
X037935Y022672D03*
X037935Y021491D03*
X039116Y021491D03*
X039116Y020309D03*
X037935Y020309D03*
X037935Y019128D03*
X039116Y019128D03*
D48*
X039116Y022672D03*
X007327Y024499D03*
D49*
X007917Y026200D03*
X040817Y021825D03*
X040817Y019975D03*
D50*
X005817Y009000D03*
D51*
X004817Y009000D03*
X004817Y010000D03*
X005817Y010000D03*
X005817Y011000D03*
X004817Y011000D03*
X004817Y012000D03*
X005817Y012000D03*
X005817Y013000D03*
X004817Y013000D03*
X004817Y014000D03*
X005817Y014000D03*
X005817Y015000D03*
X004817Y015000D03*
X004817Y016000D03*
X005817Y016000D03*
X005817Y017000D03*
X004817Y017000D03*
X004817Y018000D03*
X005817Y018000D03*
X005817Y019000D03*
X004817Y019000D03*
X004817Y020000D03*
X004817Y021000D03*
X005817Y021000D03*
X005817Y020000D03*
D52*
X012465Y017316D03*
X007928Y015481D03*
X018543Y011209D03*
X018478Y009779D03*
X020785Y007675D03*
X022083Y009395D03*
X024686Y011059D03*
X026094Y012048D03*
X024379Y013600D03*
X020613Y013847D03*
X020014Y017017D03*
X020279Y018541D03*
X026892Y020547D03*
X036909Y025570D03*
X032689Y004677D03*
X031834Y004599D03*
X030530Y002700D03*
X028417Y001880D03*
X027185Y002239D03*
X026708Y003188D03*
X025188Y001971D03*
X023537Y002318D03*
X023016Y001903D03*
X022955Y001411D03*
X021612Y003048D03*
X019723Y001410D03*
X024355Y003566D03*
M02*
