%
T01C0.024000
X19121Y16061
X17691Y16126
X19505Y19666
X21225Y18368
X17841Y22269
X16852Y23677
X15300Y21962
X15053Y18196
X11883Y17597
X10359Y17862
X8353Y24475
X3330Y34492
X11584Y10048
X13419Y5511
X25334Y21938
X26582Y21120
X26997Y20599
X27489Y20538
X25852Y19195
X27490Y17306
X26929Y22771
X26661Y24768
X27020Y26000
X25712Y24291
X26200Y28113
X24301Y29417
X24223Y30272
X9250Y47175
X10929Y47506
X11853Y46282
X10636Y45659
X11140Y45074
X11567Y44479
X12980Y44525
X13420Y43925
X13920Y45025
X13300Y45625
X15146Y45158
X15395Y45870
X15326Y46579
X15941Y47634
X20494Y51062
X20886Y50747
X23572Y52083
X21599Y53558
X24710Y54784
X24702Y55343
X20892Y61030
X16746Y56485
X15219Y55422
X12700Y56581
X12653Y57550
X12584Y59323
X7953Y57579
X8023Y51131
X8023Y49211
X9948Y42996
X11908Y43054
X18053Y43949
X21990Y47613
X23784Y46670
X24250Y46971
X24250Y48422
X19383Y74345
X21310Y75780
X18167Y77460
X20544Y78226
X12750Y80047
X12310Y78611
X10916Y78671
X10494Y79896
T02C0.031750
X25400Y7200
X25400Y8200
X26600Y8200
X26600Y7200
X26200Y14500
X26100Y15400
X27100Y15400
X27200Y14500
X25100Y14500
X25100Y15500
X24100Y15500
X24100Y14500
X18200Y17100
X18200Y18100
X22800Y25200
X23800Y25200
X25000Y31500
X26000Y31500
X13850Y31250
X13850Y29750
X13850Y26750
X13850Y34250
X7100Y34000
X7100Y31000
X7100Y29750
X7100Y26750
X4900Y13200
X4900Y10200
X2600Y10400
X2600Y11400
X8500Y5600
X9500Y5600
X11350Y5000
X12350Y5000
X12350Y7000
X11350Y7000
X9700Y10800
X8700Y10800
X22225Y35143
X22009Y38174
X23800Y39473
X24843Y36954
X25788Y36402
X25775Y6358
X25991Y3326
X24200Y2027
X23157Y4547
X22212Y5098
X9750Y50425
X9750Y51925
X12750Y51925
X12750Y50425
X19250Y54425
X22250Y54425
X6407Y44350
X3376Y44134
X2076Y45925
X4596Y46968
X5147Y47913
X8500Y71581
X7250Y71581
X7250Y68581
X8500Y68581
T03C0.036700
X18178Y36933
X17194Y36933
X16406Y36933
X15422Y36933
X12450Y12000
X13450Y12000
X13900Y3400
X13900Y2400
X12900Y2400
X12900Y3400
X11900Y3400
X11900Y2400
X10900Y2400
X10900Y3400
X9900Y3400
X9900Y2400
X8900Y2400
X7900Y2400
X7900Y3400
X8900Y3400
X14900Y3400
X14900Y2400
X15900Y2400
X15900Y3400
X16900Y3400
X16900Y2400
X17900Y2400
X17900Y3400
X18900Y3400
X18900Y2400
X19900Y2400
X19900Y3400
X26250Y54425
X27250Y54425
X27250Y53425
X26250Y53425
X26250Y52425
X27250Y52425
X27250Y51425
X27250Y50425
X27250Y49425
X26250Y49425
X26250Y50425
X26250Y51425
X26250Y48425
X27250Y48425
X27250Y55425
X26250Y55425
T04C0.042100
X6400Y9800
X6400Y13800
X15550Y13000
X15550Y9000
X22550Y11000
X9772Y36699
X9772Y35518
X8591Y35518
X8591Y36699
X7409Y36699
X7409Y35518
X6228Y35518
X6228Y36699
X5582Y6091
X5582Y4910
X4401Y4910
X4401Y6091
X6500Y58925
X6500Y62925
X25299Y60425
X24118Y60425
X5381Y60016
X4200Y60016
X4200Y58834
X5381Y58834
X5381Y55516
X4200Y55516
X4200Y54334
X5381Y54334
X5381Y51016
X4200Y51016
X4200Y49834
X5381Y49834
X23868Y44675
X25049Y44675
X6000Y72081
X2000Y72081
X5882Y68490
X4701Y68490
X4701Y69672
X5882Y69672
X23868Y71900
X25049Y71900
X25049Y73081
X23868Y73081
X23868Y74262
X25049Y74262
T05C0.052000
X19500Y23300
T06C0.090600
X19387Y38000
X14213Y38000
T07C0.118100
X8925Y38400
X7075Y38400
X2700Y5500
X2500Y59425
X2500Y54925
X2500Y50425
X26750Y44675
X27000Y60425
X3000Y69081
X26750Y73081
T08C0.126000
X27300Y2200
X27400Y39100
X2200Y39100
X2200Y2200
X2209Y42231
X27393Y42131
X27287Y62728
X2206Y62828
X2181Y65762
X13205Y73439
X2378Y82101
X27378Y82101
X27378Y66156
M30
