%
T01C0.024000
X18081Y13983
X18568Y14981
X21574Y18609
X22917Y20153
X23222Y22288
X23437Y24012
X25138Y22981
X26570Y20725
X27446Y19594
X26136Y18859
X25163Y20228
X27440Y22536
X27580Y24911
X25265Y29445
X24248Y29606
X26406Y30799
X18239Y30804
X18126Y25776
X16346Y23235
X15900Y23781
X15977Y25378
X16143Y21947
X16208Y21438
X13827Y20951
X13190Y21947
X12399Y19953
X11300Y21947
X10800Y21603
X9927Y23802
X9734Y25500
X12532Y25990
X11885Y17657
X11347Y17478
X10300Y17837
X11300Y16180
X11220Y8438
X8835Y6533
X27597Y17259
X9200Y48462
X11533Y46395
X10488Y45928
X11314Y44798
X14834Y44061
X15127Y44487
X15034Y45481
X15067Y46770
X16300Y48625
X18350Y47109
X18352Y46178
X23577Y46721
X24439Y46972
X24247Y48422
X20851Y51675
X19976Y52083
X21657Y53816
X20369Y53859
X18205Y55016
X17048Y56574
X14459Y57687
X13078Y57173
X12694Y56498
X13800Y53025
X11900Y50125
X8047Y53275
X21026Y61748
X24710Y55289
X18785Y76003
X19707Y74312
X20562Y78272
X20545Y78996
X12532Y80191
X11167Y79697
X11697Y78882
X10594Y78679
T02C0.031750
X26000Y31500
X25000Y31500
X21700Y24200
X20700Y24200
X18200Y17500
X18200Y16500
X24200Y15400
X24100Y14500
X25100Y14500
X25200Y15400
X26100Y15400
X26200Y14500
X27200Y14500
X27100Y15400
X26600Y8200
X26600Y7200
X25400Y7200
X25400Y8200
X13400Y26600
X13400Y29600
X13400Y31400
X13400Y34400
X7000Y34400
X7000Y31400
X7000Y29600
X7000Y26600
X4900Y13200
X4900Y10200
X2600Y10400
X2600Y11400
X8600Y10800
X9600Y10800
X11100Y7400
X12200Y7400
X12200Y5400
X11100Y5400
X9600Y5600
X8600Y5600
X25775Y6358
X25991Y3326
X24200Y2027
X23157Y4547
X22212Y5098
X22225Y35143
X22009Y38174
X23800Y39473
X24843Y36954
X25788Y36402
X9800Y53825
X9800Y55225
X12800Y55225
X12800Y53825
X19250Y54625
X22250Y54625
X6407Y44350
X3376Y44134
X2076Y45925
X4596Y46968
X5147Y47913
X8500Y71581
X7250Y71581
X7250Y68581
X8500Y68581
T03C0.036700
X15422Y36933
X16406Y36933
X17194Y36933
X18178Y36933
X8900Y3400
X8900Y2400
X9900Y2400
X9900Y3400
X10900Y3400
X10900Y2400
X11900Y2400
X11900Y3400
X12900Y3400
X12900Y2400
X13900Y2400
X13900Y3400
X14900Y3400
X14900Y2400
X15900Y2400
X16900Y2400
X16900Y3400
X15900Y3400
X17900Y3400
X17900Y2400
X18900Y2400
X18900Y3400
X19900Y3400
X19900Y2400
X12000Y12500
X11000Y12500
X7900Y3400
X7900Y2400
X26250Y54425
X27250Y54425
X27250Y53425
X27250Y52425
X26250Y52425
X26250Y53425
X26250Y55425
X27250Y55425
X27250Y51425
X27250Y50425
X27250Y49425
X26250Y49425
X26250Y50425
X26250Y51425
X26250Y48425
X27250Y48425
T04C0.042100
X6400Y9800
X6400Y13800
X13425Y10992
X13409Y10000
X24006Y10500
X9772Y36699
X9772Y35518
X8591Y35518
X8591Y36699
X7409Y36699
X7409Y35518
X6228Y35518
X6228Y36699
X5582Y6091
X5582Y4910
X4401Y4910
X4401Y6091
X6400Y59225
X6400Y63225
X25049Y44675
X23868Y44675
X5381Y49834
X4200Y49834
X4200Y51016
X5381Y51016
X5381Y54334
X4200Y54334
X4200Y55516
X5381Y55516
X5381Y58834
X4200Y58834
X4200Y60016
X5381Y60016
X24118Y60425
X25299Y60425
X6000Y72081
X2000Y72081
X5882Y68490
X4701Y68490
X4701Y69672
X5882Y69672
X23868Y71900
X25049Y71900
X25049Y73081
X23868Y73081
X23868Y74262
X25049Y74262
T05C0.052000
X18300Y19900
T06C0.090600
X19387Y38000
X14213Y38000
T07C0.118100
X8925Y38400
X7075Y38400
X2700Y5500
X2500Y59425
X2500Y54925
X2500Y50425
X26750Y44675
X27000Y60425
X3000Y69081
X26750Y73081
T08C0.126000
X27300Y2200
X27400Y39100
X2200Y39100
X2200Y2200
X2209Y42231
X27393Y42131
X27287Y62728
X2206Y62828
X2181Y65762
X13205Y73439
X2378Y82101
X27378Y82101
X27378Y66156
M30
