G75*
G70*
%OFA0B0*%
%FSLAX25Y25*%
%IPPOS*%
%LPD*%
%AMOC8*
5,1,8,0,0,1.08239X$1,22.5*
%
%ADD101R,0.10430X0.01570*%
%ADD118R,0.02360X0.09450*%
%ADD120C,0.01000*%
%ADD14C,0.02000*%
%ADD142R,0.02000X0.10000*%
%ADD15R,0.01500X0.02000*%
%ADD151R,0.02000X0.01000*%
%ADD152R,0.01500X0.00500*%
%ADD153R,0.09650X0.02660*%
%ADD154R,0.08000X0.02000*%
%ADD155R,0.02000X0.02500*%
%ADD178R,0.00800X0.00800*%
%ADD20R,0.01570X0.10430*%
%ADD22R,0.03000X0.07500*%
%ADD30R,0.01000X0.01000*%
%ADD31R,0.07500X0.03000*%
%ADD32R,0.09450X0.02360*%
%ADD45R,0.01000X0.02000*%
%ADD68R,0.02000X0.01500*%
%ADD73R,0.10000X0.02000*%
%ADD76C,0.00800*%
%ADD92C,0.04720*%
X0010000Y0010000D02*
G75*
%LPD*%
D76*
X0286000Y0010000D02*
X0010040Y0010000D01*
X0010000Y0403000D01*
X0286000Y0403000D01*
X0286000Y0010000D01*
X0273000Y0015700D02*
X0272500Y0015720D01*
X0272000Y0015780D01*
X0271510Y0015880D01*
X0271030Y0016020D01*
X0270560Y0016190D01*
X0270110Y0016400D01*
X0269670Y0016650D01*
X0269260Y0016930D01*
X0268870Y0017250D01*
X0268500Y0017590D01*
X0268160Y0017960D01*
X0267860Y0018360D01*
X0267590Y0018780D01*
X0267350Y0019220D01*
X0267140Y0019680D01*
X0266980Y0020150D01*
X0266850Y0020630D01*
X0266760Y0021130D01*
X0266710Y0021620D01*
X0266700Y0022130D01*
X0266730Y0022630D01*
X0266800Y0023120D01*
X0266910Y0023610D01*
X0267060Y0024090D01*
X0267240Y0024550D01*
X0267460Y0025000D01*
X0267720Y0025430D01*
X0268010Y0025840D01*
X0268330Y0026230D01*
X0268680Y0026590D01*
X0269060Y0026910D01*
X0269460Y0027210D01*
X0269890Y0027480D01*
X0270330Y0027710D01*
X0270790Y0027900D01*
X0271270Y0028060D01*
X0271760Y0028180D01*
X0272250Y0028260D01*
X0272750Y0028300D01*
X0273250Y0028300D01*
X0273750Y0028260D01*
X0274240Y0028180D01*
X0274730Y0028060D01*
X0275210Y0027900D01*
X0275670Y0027710D01*
X0276110Y0027480D01*
X0276540Y0027210D01*
X0276940Y0026910D01*
X0277320Y0026590D01*
X0277670Y0026230D01*
X0277990Y0025840D01*
X0278280Y0025430D01*
X0278540Y0025000D01*
X0278760Y0024550D01*
X0278940Y0024090D01*
X0279090Y0023610D01*
X0279200Y0023120D01*
X0279270Y0022630D01*
X0279300Y0022130D01*
X0279290Y0021620D01*
X0279240Y0021130D01*
X0279150Y0020630D01*
X0279020Y0020150D01*
X0278860Y0019680D01*
X0278650Y0019220D01*
X0278410Y0018780D01*
X0278140Y0018360D01*
X0277840Y0017960D01*
X0277500Y0017590D01*
X0277130Y0017250D01*
X0276740Y0016930D01*
X0276330Y0016650D01*
X0275890Y0016400D01*
X0275440Y0016190D01*
X0274970Y0016020D01*
X0274490Y0015880D01*
X0274000Y0015780D01*
X0273500Y0015720D01*
X0273000Y0015700D01*
X0063200Y0212400D02*
X0063180Y0212610D01*
X0063130Y0212810D01*
X0063040Y0213000D01*
X0062920Y0213170D01*
X0062770Y0213320D01*
X0062600Y0213440D01*
X0062410Y0213530D01*
X0062210Y0213580D01*
X0062000Y0213600D01*
X0061790Y0213580D01*
X0061590Y0213530D01*
X0061400Y0213440D01*
X0061230Y0213320D01*
X0061080Y0213170D01*
X0060960Y0213000D01*
X0060870Y0212810D01*
X0060820Y0212610D01*
X0060800Y0212400D01*
X0060820Y0212610D01*
X0060870Y0212810D01*
X0060960Y0213000D01*
X0061080Y0213170D01*
X0061230Y0213320D01*
X0061400Y0213440D01*
X0061590Y0213530D01*
X0061790Y0213580D01*
X0062000Y0213600D01*
X0062210Y0213580D01*
X0062410Y0213530D01*
X0062600Y0213440D01*
X0062770Y0213320D01*
X0062920Y0213170D01*
X0063040Y0213000D01*
X0063130Y0212810D01*
X0063180Y0212610D01*
X0063200Y0212400D01*
X0027000Y0049090D02*
X0026520Y0049110D01*
X0026040Y0049170D01*
X0025570Y0049270D01*
X0025110Y0049400D01*
X0024660Y0049580D01*
X0024220Y0049780D01*
X0023800Y0050030D01*
X0023410Y0050310D01*
X0023040Y0050610D01*
X0022700Y0050950D01*
X0022380Y0051320D01*
X0022090Y0051700D01*
X0021840Y0052110D01*
X0021620Y0052540D01*
X0021440Y0052990D01*
X0021300Y0053450D01*
X0021190Y0053920D01*
X0021120Y0054400D01*
X0021090Y0054880D01*
X0021100Y0055360D01*
X0021150Y0055840D01*
X0021240Y0056320D01*
X0021360Y0056780D01*
X0021530Y0057230D01*
X0021730Y0057670D01*
X0021960Y0058090D01*
X0022230Y0058490D01*
X0022530Y0058870D01*
X0022860Y0059220D01*
X0023220Y0059540D01*
X0023600Y0059840D01*
X0024010Y0060100D01*
X0024440Y0060320D01*
X0024880Y0060520D01*
X0025330Y0060670D01*
X0025800Y0060790D01*
X0026280Y0060870D01*
X0026760Y0060910D01*
X0027240Y0060910D01*
X0027720Y0060870D01*
X0028200Y0060790D01*
X0028670Y0060670D01*
X0029120Y0060520D01*
X0029560Y0060320D01*
X0029990Y0060100D01*
X0030400Y0059840D01*
X0030780Y0059540D01*
X0031140Y0059220D01*
X0031470Y0058870D01*
X0031770Y0058490D01*
X0032040Y0058090D01*
X0032270Y0057670D01*
X0032470Y0057230D01*
X0032640Y0056780D01*
X0032760Y0056320D01*
X0032850Y0055840D01*
X0032900Y0055360D01*
X0032910Y0054880D01*
X0032880Y0054400D01*
X0032810Y0053920D01*
X0032700Y0053450D01*
X0032560Y0052990D01*
X0032380Y0052540D01*
X0032160Y0052110D01*
X0031910Y0051700D01*
X0031620Y0051320D01*
X0031300Y0050950D01*
X0030960Y0050610D01*
X0030590Y0050310D01*
X0030200Y0050030D01*
X0029780Y0049780D01*
X0029340Y0049580D01*
X0028890Y0049400D01*
X0028430Y0049270D01*
X0027960Y0049170D01*
X0027480Y0049110D01*
X0027000Y0049090D01*
X0022000Y0015700D02*
X0021500Y0015720D01*
X0021000Y0015780D01*
X0020510Y0015880D01*
X0020030Y0016020D01*
X0019560Y0016190D01*
X0019110Y0016400D01*
X0018670Y0016650D01*
X0018260Y0016930D01*
X0017870Y0017250D01*
X0017500Y0017590D01*
X0017160Y0017960D01*
X0016860Y0018360D01*
X0016590Y0018780D01*
X0016350Y0019220D01*
X0016140Y0019680D01*
X0015980Y0020150D01*
X0015850Y0020630D01*
X0015760Y0021130D01*
X0015710Y0021620D01*
X0015700Y0022130D01*
X0015730Y0022630D01*
X0015800Y0023120D01*
X0015910Y0023610D01*
X0016060Y0024090D01*
X0016240Y0024550D01*
X0016460Y0025000D01*
X0016720Y0025430D01*
X0017010Y0025840D01*
X0017330Y0026230D01*
X0017680Y0026590D01*
X0018060Y0026910D01*
X0018460Y0027210D01*
X0018890Y0027480D01*
X0019330Y0027710D01*
X0019790Y0027900D01*
X0020270Y0028060D01*
X0020760Y0028180D01*
X0021250Y0028260D01*
X0021750Y0028300D01*
X0022250Y0028300D01*
X0022750Y0028260D01*
X0023240Y0028180D01*
X0023730Y0028060D01*
X0024210Y0027900D01*
X0024670Y0027710D01*
X0025110Y0027480D01*
X0025540Y0027210D01*
X0025940Y0026910D01*
X0026320Y0026590D01*
X0026670Y0026230D01*
X0026990Y0025840D01*
X0027280Y0025430D01*
X0027540Y0025000D01*
X0027760Y0024550D01*
X0027940Y0024090D01*
X0028090Y0023610D01*
X0028200Y0023120D01*
X0028270Y0022630D01*
X0028300Y0022130D01*
X0028290Y0021620D01*
X0028240Y0021130D01*
X0028150Y0020630D01*
X0028020Y0020150D01*
X0027860Y0019680D01*
X0027650Y0019220D01*
X0027410Y0018780D01*
X0027140Y0018360D01*
X0026840Y0017960D01*
X0026500Y0017590D01*
X0026130Y0017250D01*
X0025740Y0016930D01*
X0025330Y0016650D01*
X0024890Y0016400D01*
X0024440Y0016190D01*
X0023970Y0016020D01*
X0023490Y0015880D01*
X0023000Y0015780D01*
X0022500Y0015720D01*
X0022000Y0015700D01*
X0142130Y0375470D02*
X0141710Y0375490D01*
X0141290Y0375550D01*
X0140870Y0375650D01*
X0140470Y0375780D01*
X0140080Y0375960D01*
X0139710Y0376170D01*
X0139370Y0376410D01*
X0139040Y0376690D01*
X0138740Y0376990D01*
X0138480Y0377320D01*
X0138240Y0377670D01*
X0138040Y0378050D01*
X0137880Y0378440D01*
X0137750Y0378840D01*
X0137660Y0379260D01*
X0137610Y0379680D01*
X0137600Y0380110D01*
X0137630Y0380530D01*
X0137700Y0380950D01*
X0137810Y0381360D01*
X0137960Y0381760D01*
X0138140Y0382140D01*
X0138360Y0382510D01*
X0138610Y0382850D01*
X0138890Y0383170D01*
X0139200Y0383450D01*
X0139540Y0383710D01*
X0139900Y0383940D01*
X0140270Y0384130D01*
X0140670Y0384290D01*
X0141080Y0384410D01*
X0141490Y0384490D01*
X0141920Y0384530D01*
X0142340Y0384530D01*
X0142770Y0384490D01*
X0143180Y0384410D01*
X0143590Y0384290D01*
X0143990Y0384130D01*
X0144360Y0383940D01*
X0144720Y0383710D01*
X0145060Y0383450D01*
X0145370Y0383170D01*
X0145650Y0382850D01*
X0145900Y0382510D01*
X0146120Y0382140D01*
X0146300Y0381760D01*
X0146450Y0381360D01*
X0146560Y0380950D01*
X0146630Y0380530D01*
X0146660Y0380110D01*
X0146650Y0379680D01*
X0146600Y0379260D01*
X0146510Y0378840D01*
X0146380Y0378440D01*
X0146220Y0378050D01*
X0146020Y0377670D01*
X0145780Y0377320D01*
X0145520Y0376990D01*
X0145220Y0376690D01*
X0144890Y0376410D01*
X0144550Y0376170D01*
X0144180Y0375960D01*
X0143790Y0375780D01*
X0143390Y0375650D01*
X0142970Y0375550D01*
X0142550Y0375490D01*
X0142130Y0375470D01*
X0193870Y0375470D02*
X0193450Y0375490D01*
X0193030Y0375550D01*
X0192610Y0375650D01*
X0192210Y0375780D01*
X0191820Y0375960D01*
X0191450Y0376170D01*
X0191110Y0376410D01*
X0190780Y0376690D01*
X0190480Y0376990D01*
X0190220Y0377320D01*
X0189980Y0377670D01*
X0189780Y0378050D01*
X0189620Y0378440D01*
X0189490Y0378840D01*
X0189400Y0379260D01*
X0189350Y0379680D01*
X0189340Y0380110D01*
X0189370Y0380530D01*
X0189440Y0380950D01*
X0189550Y0381360D01*
X0189700Y0381760D01*
X0189880Y0382140D01*
X0190100Y0382510D01*
X0190350Y0382850D01*
X0190630Y0383170D01*
X0190940Y0383450D01*
X0191280Y0383710D01*
X0191640Y0383940D01*
X0192010Y0384130D01*
X0192410Y0384290D01*
X0192820Y0384410D01*
X0193230Y0384490D01*
X0193660Y0384530D01*
X0194080Y0384530D01*
X0194510Y0384490D01*
X0194920Y0384410D01*
X0195330Y0384290D01*
X0195730Y0384130D01*
X0196100Y0383940D01*
X0196460Y0383710D01*
X0196800Y0383450D01*
X0197110Y0383170D01*
X0197390Y0382850D01*
X0197640Y0382510D01*
X0197860Y0382140D01*
X0198040Y0381760D01*
X0198190Y0381360D01*
X0198300Y0380950D01*
X0198370Y0380530D01*
X0198400Y0380110D01*
X0198390Y0379680D01*
X0198340Y0379260D01*
X0198250Y0378840D01*
X0198120Y0378440D01*
X0197960Y0378050D01*
X0197760Y0377670D01*
X0197520Y0377320D01*
X0197260Y0376990D01*
X0196960Y0376690D01*
X0196630Y0376410D01*
X0196290Y0376170D01*
X0195920Y0375960D01*
X0195530Y0375780D01*
X0195130Y0375650D01*
X0194710Y0375550D01*
X0194290Y0375490D01*
X0193870Y0375470D01*
X0274000Y0384700D02*
X0273500Y0384720D01*
X0273000Y0384780D01*
X0272510Y0384880D01*
X0272030Y0385020D01*
X0271560Y0385190D01*
X0271110Y0385400D01*
X0270670Y0385650D01*
X0270260Y0385930D01*
X0269870Y0386250D01*
X0269500Y0386590D01*
X0269160Y0386960D01*
X0268860Y0387360D01*
X0268590Y0387780D01*
X0268350Y0388220D01*
X0268140Y0388680D01*
X0267980Y0389150D01*
X0267850Y0389630D01*
X0267760Y0390130D01*
X0267710Y0390620D01*
X0267700Y0391130D01*
X0267730Y0391630D01*
X0267800Y0392120D01*
X0267910Y0392610D01*
X0268060Y0393090D01*
X0268240Y0393550D01*
X0268460Y0394000D01*
X0268720Y0394430D01*
X0269010Y0394840D01*
X0269330Y0395230D01*
X0269680Y0395590D01*
X0270060Y0395910D01*
X0270460Y0396210D01*
X0270890Y0396480D01*
X0271330Y0396710D01*
X0271790Y0396900D01*
X0272270Y0397060D01*
X0272760Y0397180D01*
X0273250Y0397260D01*
X0273750Y0397300D01*
X0274250Y0397300D01*
X0274750Y0397260D01*
X0275240Y0397180D01*
X0275730Y0397060D01*
X0276210Y0396900D01*
X0276670Y0396710D01*
X0277110Y0396480D01*
X0277540Y0396210D01*
X0277940Y0395910D01*
X0278320Y0395590D01*
X0278670Y0395230D01*
X0278990Y0394840D01*
X0279280Y0394430D01*
X0279540Y0394000D01*
X0279760Y0393550D01*
X0279940Y0393090D01*
X0280090Y0392610D01*
X0280200Y0392120D01*
X0280270Y0391630D01*
X0280300Y0391130D01*
X0280290Y0390620D01*
X0280240Y0390130D01*
X0280150Y0389630D01*
X0280020Y0389150D01*
X0279860Y0388680D01*
X0279650Y0388220D01*
X0279410Y0387780D01*
X0279140Y0387360D01*
X0278840Y0386960D01*
X0278500Y0386590D01*
X0278130Y0386250D01*
X0277740Y0385930D01*
X0277330Y0385650D01*
X0276890Y0385400D01*
X0276440Y0385190D01*
X0275970Y0385020D01*
X0275490Y0384880D01*
X0275000Y0384780D01*
X0274500Y0384720D01*
X0274000Y0384700D01*
X0089250Y0378090D02*
X0088770Y0378110D01*
X0088290Y0378170D01*
X0087820Y0378270D01*
X0087360Y0378400D01*
X0086910Y0378580D01*
X0086470Y0378780D01*
X0086050Y0379030D01*
X0085660Y0379310D01*
X0085290Y0379610D01*
X0084950Y0379950D01*
X0084630Y0380320D01*
X0084340Y0380700D01*
X0084090Y0381110D01*
X0083870Y0381540D01*
X0083690Y0381990D01*
X0083550Y0382450D01*
X0083440Y0382920D01*
X0083370Y0383400D01*
X0083340Y0383880D01*
X0083350Y0384360D01*
X0083400Y0384840D01*
X0083490Y0385320D01*
X0083610Y0385780D01*
X0083780Y0386230D01*
X0083980Y0386670D01*
X0084210Y0387090D01*
X0084480Y0387490D01*
X0084780Y0387870D01*
X0085110Y0388220D01*
X0085470Y0388540D01*
X0085850Y0388840D01*
X0086260Y0389100D01*
X0086690Y0389320D01*
X0087130Y0389520D01*
X0087580Y0389670D01*
X0088050Y0389790D01*
X0088530Y0389870D01*
X0089010Y0389910D01*
X0089490Y0389910D01*
X0089970Y0389870D01*
X0090450Y0389790D01*
X0090920Y0389670D01*
X0091370Y0389520D01*
X0091810Y0389320D01*
X0092240Y0389100D01*
X0092650Y0388840D01*
X0093030Y0388540D01*
X0093390Y0388220D01*
X0093720Y0387870D01*
X0094020Y0387490D01*
X0094290Y0387090D01*
X0094520Y0386670D01*
X0094720Y0386230D01*
X0094890Y0385780D01*
X0095010Y0385320D01*
X0095100Y0384840D01*
X0095150Y0384360D01*
X0095160Y0383880D01*
X0095130Y0383400D01*
X0095060Y0382920D01*
X0094950Y0382450D01*
X0094810Y0381990D01*
X0094630Y0381540D01*
X0094410Y0381110D01*
X0094160Y0380700D01*
X0093870Y0380320D01*
X0093550Y0379950D01*
X0093210Y0379610D01*
X0092840Y0379310D01*
X0092450Y0379030D01*
X0092030Y0378780D01*
X0091590Y0378580D01*
X0091140Y0378400D01*
X0090680Y0378270D01*
X0090210Y0378170D01*
X0089730Y0378110D01*
X0089250Y0378090D01*
X0070750Y0378090D02*
X0070270Y0378110D01*
X0069790Y0378170D01*
X0069320Y0378270D01*
X0068860Y0378400D01*
X0068410Y0378580D01*
X0067970Y0378780D01*
X0067550Y0379030D01*
X0067160Y0379310D01*
X0066790Y0379610D01*
X0066450Y0379950D01*
X0066130Y0380320D01*
X0065840Y0380700D01*
X0065590Y0381110D01*
X0065370Y0381540D01*
X0065190Y0381990D01*
X0065050Y0382450D01*
X0064940Y0382920D01*
X0064870Y0383400D01*
X0064840Y0383880D01*
X0064850Y0384360D01*
X0064900Y0384840D01*
X0064990Y0385320D01*
X0065110Y0385780D01*
X0065280Y0386230D01*
X0065480Y0386670D01*
X0065710Y0387090D01*
X0065980Y0387490D01*
X0066280Y0387870D01*
X0066610Y0388220D01*
X0066970Y0388540D01*
X0067350Y0388840D01*
X0067760Y0389100D01*
X0068190Y0389320D01*
X0068630Y0389520D01*
X0069080Y0389670D01*
X0069550Y0389790D01*
X0070030Y0389870D01*
X0070510Y0389910D01*
X0070990Y0389910D01*
X0071470Y0389870D01*
X0071950Y0389790D01*
X0072420Y0389670D01*
X0072870Y0389520D01*
X0073310Y0389320D01*
X0073740Y0389100D01*
X0074150Y0388840D01*
X0074530Y0388540D01*
X0074890Y0388220D01*
X0075220Y0387870D01*
X0075520Y0387490D01*
X0075790Y0387090D01*
X0076020Y0386670D01*
X0076220Y0386230D01*
X0076390Y0385780D01*
X0076510Y0385320D01*
X0076600Y0384840D01*
X0076650Y0384360D01*
X0076660Y0383880D01*
X0076630Y0383400D01*
X0076560Y0382920D01*
X0076450Y0382450D01*
X0076310Y0381990D01*
X0076130Y0381540D01*
X0075910Y0381110D01*
X0075660Y0380700D01*
X0075370Y0380320D01*
X0075050Y0379950D01*
X0074710Y0379610D01*
X0074340Y0379310D01*
X0073950Y0379030D01*
X0073530Y0378780D01*
X0073090Y0378580D01*
X0072640Y0378400D01*
X0072180Y0378270D01*
X0071710Y0378170D01*
X0071230Y0378110D01*
X0070750Y0378090D01*
X0022000Y0384700D02*
X0021500Y0384720D01*
X0021000Y0384780D01*
X0020510Y0384880D01*
X0020030Y0385020D01*
X0019560Y0385190D01*
X0019110Y0385400D01*
X0018670Y0385650D01*
X0018260Y0385930D01*
X0017870Y0386250D01*
X0017500Y0386590D01*
X0017160Y0386960D01*
X0016860Y0387360D01*
X0016590Y0387780D01*
X0016350Y0388220D01*
X0016140Y0388680D01*
X0015980Y0389150D01*
X0015850Y0389630D01*
X0015760Y0390130D01*
X0015710Y0390620D01*
X0015700Y0391130D01*
X0015730Y0391630D01*
X0015800Y0392120D01*
X0015910Y0392610D01*
X0016060Y0393090D01*
X0016240Y0393550D01*
X0016460Y0394000D01*
X0016720Y0394430D01*
X0017010Y0394840D01*
X0017330Y0395230D01*
X0017680Y0395590D01*
X0018060Y0395910D01*
X0018460Y0396210D01*
X0018890Y0396480D01*
X0019330Y0396710D01*
X0019790Y0396900D01*
X0020270Y0397060D01*
X0020760Y0397180D01*
X0021250Y0397260D01*
X0021750Y0397300D01*
X0022250Y0397300D01*
X0022750Y0397260D01*
X0023240Y0397180D01*
X0023730Y0397060D01*
X0024210Y0396900D01*
X0024670Y0396710D01*
X0025110Y0396480D01*
X0025540Y0396210D01*
X0025940Y0395910D01*
X0026320Y0395590D01*
X0026670Y0395230D01*
X0026990Y0394840D01*
X0027280Y0394430D01*
X0027540Y0394000D01*
X0027760Y0393550D01*
X0027940Y0393090D01*
X0028090Y0392610D01*
X0028200Y0392120D01*
X0028270Y0391630D01*
X0028300Y0391130D01*
X0028290Y0390620D01*
X0028240Y0390130D01*
X0028150Y0389630D01*
X0028020Y0389150D01*
X0027860Y0388680D01*
X0027650Y0388220D01*
X0027410Y0387780D01*
X0027140Y0387360D01*
X0026840Y0386960D01*
X0026500Y0386590D01*
X0026130Y0386250D01*
X0025740Y0385930D01*
X0025330Y0385650D01*
X0024890Y0385400D01*
X0024440Y0385190D01*
X0023970Y0385020D01*
X0023490Y0384880D01*
X0023000Y0384780D01*
X0022500Y0384720D01*
X0022000Y0384700D01*
D76*
X0068000Y0334000D02*
X0074000Y0334000D01*
X0074170Y0333980D01*
X0074340Y0333940D01*
X0074500Y0333870D01*
X0074640Y0333770D01*
X0074770Y0333640D01*
X0074870Y0333500D01*
X0074940Y0333340D01*
X0074980Y0333170D01*
X0075000Y0333000D01*
X0075000Y0317000D01*
X0074980Y0316830D01*
X0074940Y0316660D01*
X0074870Y0316500D01*
X0074770Y0316360D01*
X0074640Y0316230D01*
X0074500Y0316130D01*
X0074340Y0316060D01*
X0074170Y0316020D01*
X0074000Y0316000D01*
X0068000Y0316000D01*
X0067830Y0316020D01*
X0067660Y0316060D01*
X0067500Y0316130D01*
X0067360Y0316230D01*
X0067230Y0316360D01*
X0067130Y0316500D01*
X0067060Y0316660D01*
X0067020Y0316830D01*
X0067000Y0317000D01*
X0067000Y0333000D01*
X0067020Y0333170D01*
X0067060Y0333340D01*
X0067130Y0333500D01*
X0067230Y0333640D01*
X0067360Y0333770D01*
X0067500Y0333870D01*
X0067660Y0333940D01*
X0067830Y0333980D01*
X0068000Y0334000D01*
X0071000Y0327500D02*
X0071000Y0325000D01*
X0068500Y0325000D01*
X0071000Y0325000D02*
X0073500Y0325000D01*
X0071000Y0325000D02*
X0073500Y0321000D01*
X0068500Y0321000D01*
X0071000Y0325000D01*
X0071000Y0319000D01*
X0074000Y0291500D02*
X0068000Y0291500D01*
X0067830Y0291480D01*
X0067660Y0291440D01*
X0067500Y0291370D01*
X0067360Y0291270D01*
X0067230Y0291140D01*
X0067130Y0291000D01*
X0067060Y0290840D01*
X0067020Y0290670D01*
X0067000Y0290500D01*
X0067000Y0274500D01*
X0067020Y0274330D01*
X0067060Y0274160D01*
X0067130Y0274000D01*
X0067230Y0273860D01*
X0067360Y0273730D01*
X0067500Y0273630D01*
X0067660Y0273560D01*
X0067830Y0273520D01*
X0068000Y0273500D01*
X0074000Y0273500D01*
X0074170Y0273520D01*
X0074340Y0273560D01*
X0074500Y0273630D01*
X0074640Y0273730D01*
X0074770Y0273860D01*
X0074870Y0274000D01*
X0074940Y0274160D01*
X0074980Y0274330D01*
X0075000Y0274500D01*
X0075000Y0290500D01*
X0074980Y0290670D01*
X0074940Y0290840D01*
X0074870Y0291000D01*
X0074770Y0291140D01*
X0074640Y0291270D01*
X0074500Y0291370D01*
X0074340Y0291440D01*
X0074170Y0291480D01*
X0074000Y0291500D01*
X0071000Y0285000D02*
X0071000Y0282500D01*
X0068500Y0282500D01*
X0071000Y0282500D02*
X0071000Y0276500D01*
X0073500Y0278500D02*
X0071000Y0282500D01*
X0073500Y0282500D01*
X0071000Y0282500D02*
X0068500Y0278500D01*
X0073500Y0278500D01*
X0096100Y0253800D02*
X0096100Y0252200D01*
X0096100Y0250600D01*
X0097300Y0250900D02*
X0097300Y0251100D01*
X0097260Y0251290D01*
X0097200Y0251480D01*
X0097100Y0251660D01*
X0096980Y0251810D01*
X0096840Y0251950D01*
X0096670Y0252060D01*
X0096490Y0252140D01*
X0096290Y0252180D01*
X0096100Y0252200D01*
X0096100Y0253800D02*
X0099600Y0253800D01*
X0100400Y0248200D02*
X0103600Y0248200D01*
X0107900Y0250600D02*
X0107900Y0253800D01*
X0104400Y0253800D01*
X0116100Y0253800D02*
X0116100Y0252200D01*
X0116100Y0250600D01*
X0117300Y0250900D02*
X0117300Y0251100D01*
X0117260Y0251290D01*
X0117200Y0251480D01*
X0117100Y0251660D01*
X0116980Y0251810D01*
X0116840Y0251950D01*
X0116670Y0252060D01*
X0116490Y0252140D01*
X0116290Y0252180D01*
X0116100Y0252200D01*
X0116100Y0253800D02*
X0119600Y0253800D01*
X0124400Y0253800D02*
X0127900Y0253800D01*
X0127900Y0250600D01*
X0123600Y0248200D02*
X0120400Y0248200D01*
X0135500Y0273500D02*
X0141500Y0273500D01*
X0141670Y0273520D01*
X0141840Y0273560D01*
X0142000Y0273630D01*
X0142140Y0273730D01*
X0142270Y0273860D01*
X0142370Y0274000D01*
X0142440Y0274160D01*
X0142480Y0274330D01*
X0142500Y0274500D01*
X0142500Y0290500D01*
X0142480Y0290670D01*
X0142440Y0290840D01*
X0142370Y0291000D01*
X0142270Y0291140D01*
X0142140Y0291270D01*
X0142000Y0291370D01*
X0141840Y0291440D01*
X0141670Y0291480D01*
X0141500Y0291500D01*
X0135500Y0291500D01*
X0135330Y0291480D01*
X0135160Y0291440D01*
X0135000Y0291370D01*
X0134860Y0291270D01*
X0134730Y0291140D01*
X0134630Y0291000D01*
X0134560Y0290840D01*
X0134520Y0290670D01*
X0134500Y0290500D01*
X0134500Y0274500D01*
X0134520Y0274330D01*
X0134560Y0274160D01*
X0134630Y0274000D01*
X0134730Y0273860D01*
X0134860Y0273730D01*
X0135000Y0273630D01*
X0135160Y0273560D01*
X0135330Y0273520D01*
X0135500Y0273500D01*
X0138500Y0276500D02*
X0138500Y0282500D01*
X0136000Y0282500D01*
X0138500Y0282500D02*
X0141000Y0282500D01*
X0138500Y0282500D02*
X0141000Y0278500D01*
X0136000Y0278500D01*
X0138500Y0282500D01*
X0138500Y0285000D01*
X0137100Y0253800D02*
X0140600Y0253800D01*
X0137100Y0253800D02*
X0137100Y0252200D01*
X0137100Y0250600D01*
X0138300Y0250900D02*
X0138300Y0251100D01*
X0138260Y0251290D01*
X0138200Y0251480D01*
X0138100Y0251660D01*
X0137980Y0251810D01*
X0137840Y0251950D01*
X0137670Y0252060D01*
X0137490Y0252140D01*
X0137290Y0252180D01*
X0137100Y0252200D01*
X0141400Y0248200D02*
X0144600Y0248200D01*
X0145400Y0253800D02*
X0148900Y0253800D01*
X0148900Y0250600D01*
X0158100Y0250600D02*
X0158100Y0252200D01*
X0158100Y0253800D01*
X0161600Y0253800D01*
X0166400Y0253800D02*
X0169900Y0253800D01*
X0169900Y0250600D01*
X0165600Y0248200D02*
X0162400Y0248200D01*
X0159300Y0250900D02*
X0159300Y0251100D01*
X0159260Y0251290D01*
X0159200Y0251480D01*
X0159100Y0251660D01*
X0158980Y0251810D01*
X0158840Y0251950D01*
X0158670Y0252060D01*
X0158490Y0252140D01*
X0158290Y0252180D01*
X0158100Y0252200D01*
X0170200Y0221620D02*
X0170200Y0192380D01*
X0100700Y0192380D01*
X0100700Y0221620D01*
X0170200Y0221620D01*
X0166500Y0217300D02*
X0166210Y0217320D01*
X0165930Y0217380D01*
X0165660Y0217470D01*
X0165410Y0217610D01*
X0165170Y0217770D01*
X0164970Y0217970D01*
X0164780Y0218190D01*
X0164640Y0218430D01*
X0164520Y0218700D01*
X0164440Y0218970D01*
X0164400Y0219260D01*
X0164400Y0219540D01*
X0164440Y0219830D01*
X0164520Y0220100D01*
X0164640Y0220370D01*
X0164780Y0220610D01*
X0164970Y0220830D01*
X0165170Y0221030D01*
X0165410Y0221190D01*
X0165660Y0221330D01*
X0165930Y0221420D01*
X0166210Y0221480D01*
X0166500Y0221500D01*
X0166790Y0221480D01*
X0167070Y0221420D01*
X0167340Y0221330D01*
X0167590Y0221190D01*
X0167830Y0221030D01*
X0168030Y0220830D01*
X0168220Y0220610D01*
X0168360Y0220370D01*
X0168480Y0220100D01*
X0168560Y0219830D01*
X0168600Y0219540D01*
X0168600Y0219260D01*
X0168560Y0218970D01*
X0168480Y0218700D01*
X0168360Y0218430D01*
X0168220Y0218190D01*
X0168030Y0217970D01*
X0167830Y0217770D01*
X0167590Y0217610D01*
X0167340Y0217470D01*
X0167070Y0217380D01*
X0166790Y0217320D01*
X0166500Y0217300D01*
X0178000Y0176000D02*
X0178020Y0175610D01*
X0178080Y0175220D01*
X0178170Y0174840D01*
X0178300Y0174470D01*
X0178470Y0174110D01*
X0178670Y0173780D01*
X0178910Y0173460D01*
X0179170Y0173170D01*
X0186000Y0176000D02*
X0185980Y0176390D01*
X0185920Y0176780D01*
X0185830Y0177160D01*
X0185700Y0177530D01*
X0185530Y0177890D01*
X0185330Y0178220D01*
X0185090Y0178540D01*
X0184830Y0178830D01*
X0186000Y0176000D02*
X0185980Y0175610D01*
X0185920Y0175220D01*
X0185830Y0174840D01*
X0185700Y0174470D01*
X0185530Y0174110D01*
X0185330Y0173780D01*
X0185090Y0173460D01*
X0184830Y0173170D01*
X0178000Y0176000D02*
X0178020Y0176390D01*
X0178080Y0176780D01*
X0178170Y0177160D01*
X0178300Y0177530D01*
X0178470Y0177890D01*
X0178670Y0178220D01*
X0178910Y0178540D01*
X0179170Y0178830D01*
X0200500Y0181800D02*
X0204800Y0181800D01*
X0207200Y0181800D01*
X0211500Y0181800D01*
X0207200Y0181800D02*
X0207180Y0181590D01*
X0207130Y0181390D01*
X0207040Y0181200D01*
X0206920Y0181030D01*
X0206770Y0180880D01*
X0206600Y0180760D01*
X0206410Y0180670D01*
X0206210Y0180620D01*
X0206000Y0180600D01*
X0205790Y0180620D01*
X0205590Y0180670D01*
X0205400Y0180760D01*
X0205230Y0180880D01*
X0205080Y0181030D01*
X0204960Y0181200D01*
X0204870Y0181390D01*
X0204820Y0181590D01*
X0204800Y0181800D01*
X0200500Y0162200D02*
X0211500Y0162200D01*
X0208000Y0136000D02*
X0208000Y0115000D01*
X0185500Y0115000D01*
X0185500Y0105000D01*
X0208000Y0105000D01*
X0208000Y0084000D01*
X0154500Y0084000D01*
X0154500Y0096000D02*
X0154500Y0124000D01*
X0154500Y0136000D02*
X0208000Y0136000D01*
X0198000Y0149500D02*
X0196110Y0149480D01*
X0194220Y0149360D01*
X0192330Y0149160D01*
X0190460Y0148870D01*
X0188610Y0148490D01*
X0186770Y0148020D01*
X0184960Y0147460D01*
X0183180Y0146810D01*
X0181440Y0146090D01*
X0179730Y0145280D01*
X0178060Y0144380D01*
X0176430Y0143410D01*
X0174850Y0142360D01*
X0173330Y0141240D01*
X0171860Y0140050D01*
X0170450Y0138780D01*
X0169100Y0137450D01*
X0167820Y0136060D01*
X0139500Y0132000D02*
X0139500Y0124000D01*
X0138500Y0123000D01*
X0130500Y0123000D01*
X0129500Y0124000D01*
X0128500Y0123000D01*
X0120500Y0123000D01*
X0119500Y0124000D01*
X0119500Y0132000D01*
X0120500Y0133000D01*
X0128500Y0133000D01*
X0129500Y0132000D01*
X0130500Y0133000D01*
X0138500Y0133000D01*
X0139500Y0132000D01*
X0135400Y0097500D02*
X0135400Y0093500D01*
X0123600Y0093500D02*
X0123600Y0094300D01*
X0123600Y0096700D01*
X0123600Y0097500D01*
X0123600Y0096700D02*
X0123810Y0096680D01*
X0124010Y0096630D01*
X0124200Y0096540D01*
X0124370Y0096420D01*
X0124520Y0096270D01*
X0124640Y0096100D01*
X0124730Y0095910D01*
X0124780Y0095710D01*
X0124800Y0095500D01*
X0124780Y0095290D01*
X0124730Y0095090D01*
X0124640Y0094900D01*
X0124520Y0094730D01*
X0124370Y0094580D01*
X0124200Y0094460D01*
X0124010Y0094370D01*
X0123810Y0094320D01*
X0123600Y0094300D01*
X0124500Y0070000D02*
X0124500Y0069000D01*
X0125000Y0068500D01*
X0125000Y0059500D01*
X0124500Y0059000D01*
X0124500Y0058000D01*
X0124520Y0057830D01*
X0124560Y0057660D01*
X0124630Y0057500D01*
X0124730Y0057360D01*
X0124860Y0057230D01*
X0125000Y0057130D01*
X0125160Y0057060D01*
X0125330Y0057020D01*
X0125500Y0057000D01*
X0130500Y0057000D02*
X0130670Y0057020D01*
X0130840Y0057060D01*
X0131000Y0057130D01*
X0131140Y0057230D01*
X0131270Y0057360D01*
X0131370Y0057500D01*
X0131440Y0057660D01*
X0131480Y0057830D01*
X0131500Y0058000D01*
X0131500Y0059000D01*
X0131000Y0059500D01*
X0131000Y0068500D01*
X0131500Y0069000D01*
X0131500Y0070000D01*
X0131480Y0070170D01*
X0131440Y0070340D01*
X0131370Y0070500D01*
X0131270Y0070640D01*
X0131140Y0070770D01*
X0131000Y0070870D01*
X0130840Y0070940D01*
X0130670Y0070980D01*
X0130500Y0071000D01*
X0125500Y0071000D02*
X0125330Y0070980D01*
X0125160Y0070940D01*
X0125000Y0070870D01*
X0124860Y0070770D01*
X0124730Y0070640D01*
X0124630Y0070500D01*
X0124560Y0070340D01*
X0124520Y0070170D01*
X0124500Y0070000D01*
X0117500Y0070000D02*
X0117500Y0069000D01*
X0117000Y0068500D01*
X0117000Y0059500D01*
X0117500Y0059000D01*
X0117500Y0058000D01*
X0117480Y0057830D01*
X0117440Y0057660D01*
X0117370Y0057500D01*
X0117270Y0057360D01*
X0117140Y0057230D01*
X0117000Y0057130D01*
X0116840Y0057060D01*
X0116670Y0057020D01*
X0116500Y0057000D01*
X0111500Y0057000D02*
X0111330Y0057020D01*
X0111160Y0057060D01*
X0111000Y0057130D01*
X0110860Y0057230D01*
X0110730Y0057360D01*
X0110630Y0057500D01*
X0110560Y0057660D01*
X0110520Y0057830D01*
X0110500Y0058000D01*
X0110500Y0059000D01*
X0111000Y0059500D01*
X0111000Y0068500D01*
X0110500Y0069000D01*
X0110500Y0070000D01*
X0110520Y0070170D01*
X0110560Y0070340D01*
X0110630Y0070500D01*
X0110730Y0070640D01*
X0110860Y0070770D01*
X0111000Y0070870D01*
X0111160Y0070940D01*
X0111330Y0070980D01*
X0111500Y0071000D01*
X0116500Y0071000D02*
X0116670Y0070980D01*
X0116840Y0070940D01*
X0117000Y0070870D01*
X0117140Y0070770D01*
X0117270Y0070640D01*
X0117370Y0070500D01*
X0117440Y0070340D01*
X0117480Y0070170D01*
X0117500Y0070000D01*
X0100800Y0076600D02*
X0100800Y0087400D01*
X0081200Y0087400D02*
X0081200Y0083200D01*
X0081200Y0080800D01*
X0081200Y0076600D01*
X0081200Y0080800D02*
X0081410Y0080820D01*
X0081610Y0080870D01*
X0081800Y0080960D01*
X0081970Y0081080D01*
X0082120Y0081230D01*
X0082240Y0081400D01*
X0082330Y0081590D01*
X0082380Y0081790D01*
X0082400Y0082000D01*
X0082380Y0082210D01*
X0082330Y0082410D01*
X0082240Y0082600D01*
X0082120Y0082770D01*
X0081970Y0082920D01*
X0081800Y0083040D01*
X0081610Y0083130D01*
X0081410Y0083180D01*
X0081200Y0083200D01*
X0069000Y0110000D02*
X0069000Y0126000D01*
X0059000Y0126000D01*
X0059000Y0110000D01*
X0069000Y0110000D01*
X0066500Y0114000D02*
X0064000Y0118000D01*
X0061500Y0118000D01*
X0064000Y0118000D02*
X0064000Y0112000D01*
X0066500Y0114000D02*
X0061500Y0114000D01*
X0064000Y0118000D01*
X0066500Y0118000D01*
X0064000Y0118000D02*
X0064000Y0120500D01*
X0053000Y0124500D02*
X0053000Y0126000D01*
X0052980Y0126170D01*
X0052940Y0126340D01*
X0052870Y0126500D01*
X0052770Y0126640D01*
X0052640Y0126770D01*
X0052500Y0126870D01*
X0052340Y0126940D01*
X0052170Y0126980D01*
X0052000Y0127000D01*
X0046000Y0127000D01*
X0045830Y0126980D01*
X0045660Y0126940D01*
X0045500Y0126870D01*
X0045360Y0126770D01*
X0045230Y0126640D01*
X0045130Y0126500D01*
X0045060Y0126340D01*
X0045020Y0126170D01*
X0045000Y0126000D01*
X0045000Y0124500D01*
X0045500Y0124000D01*
X0045500Y0110000D01*
X0045000Y0109500D01*
X0045000Y0108000D01*
X0045020Y0107830D01*
X0045060Y0107660D01*
X0045130Y0107500D01*
X0045230Y0107360D01*
X0045360Y0107230D01*
X0045500Y0107130D01*
X0045660Y0107060D01*
X0045830Y0107020D01*
X0046000Y0107000D01*
X0052000Y0107000D01*
X0052170Y0107020D01*
X0052340Y0107060D01*
X0052500Y0107130D01*
X0052640Y0107230D01*
X0052770Y0107360D01*
X0052870Y0107500D01*
X0052940Y0107660D01*
X0052980Y0107830D01*
X0053000Y0108000D01*
X0053000Y0109500D01*
X0052500Y0110000D01*
X0052500Y0124000D01*
X0053000Y0124500D01*
X0026000Y0099000D02*
X0025370Y0099020D01*
X0024750Y0099080D01*
X0024130Y0099180D01*
X0023510Y0099310D01*
X0022910Y0099490D01*
X0022320Y0099700D01*
X0021740Y0099950D01*
X0021180Y0100240D01*
X0020640Y0100560D01*
X0020120Y0100910D01*
X0019630Y0101290D01*
X0019150Y0101710D01*
X0018710Y0102150D01*
X0018290Y0102630D01*
X0017910Y0103120D01*
X0017560Y0103640D01*
X0017240Y0104180D01*
X0016950Y0104740D01*
X0016700Y0105320D01*
X0016490Y0105910D01*
X0016310Y0106510D01*
X0016180Y0107130D01*
X0016080Y0107750D01*
X0016020Y0108370D01*
X0016000Y0109000D01*
X0016020Y0109630D01*
X0016080Y0110250D01*
X0016180Y0110870D01*
X0016310Y0111490D01*
X0016490Y0112090D01*
X0016700Y0112680D01*
X0016950Y0113260D01*
X0017240Y0113820D01*
X0017560Y0114360D01*
X0017910Y0114880D01*
X0018290Y0115370D01*
X0018710Y0115850D01*
X0019150Y0116290D01*
X0019630Y0116710D01*
X0020120Y0117090D01*
X0020640Y0117440D01*
X0021180Y0117760D01*
X0021740Y0118050D01*
X0022320Y0118300D01*
X0022910Y0118510D01*
X0023510Y0118690D01*
X0024130Y0118820D01*
X0024750Y0118920D01*
X0025370Y0118980D01*
X0026000Y0119000D01*
X0026630Y0118980D01*
X0027250Y0118920D01*
X0027870Y0118820D01*
X0028490Y0118690D01*
X0029090Y0118510D01*
X0029680Y0118300D01*
X0030260Y0118050D01*
X0030820Y0117760D01*
X0031360Y0117440D01*
X0031880Y0117090D01*
X0032370Y0116710D01*
X0032850Y0116290D01*
X0033290Y0115850D01*
X0033710Y0115370D01*
X0034090Y0114880D01*
X0034440Y0114360D01*
X0034760Y0113820D01*
X0035050Y0113260D01*
X0035300Y0112680D01*
X0035510Y0112090D01*
X0035690Y0111490D01*
X0035820Y0110870D01*
X0035920Y0110250D01*
X0035980Y0109630D01*
X0036000Y0109000D01*
X0035980Y0108370D01*
X0035920Y0107750D01*
X0035820Y0107130D01*
X0035690Y0106510D01*
X0035510Y0105910D01*
X0035300Y0105320D01*
X0035050Y0104740D01*
X0034760Y0104180D01*
X0034440Y0103640D01*
X0034090Y0103120D01*
X0033710Y0102630D01*
X0033290Y0102150D01*
X0032850Y0101710D01*
X0032370Y0101290D01*
X0031880Y0100910D01*
X0031360Y0100560D01*
X0030820Y0100240D01*
X0030260Y0099950D01*
X0029680Y0099700D01*
X0029090Y0099490D01*
X0028490Y0099310D01*
X0027870Y0099180D01*
X0027250Y0099080D01*
X0026630Y0099020D01*
X0026000Y0099000D01*
X0064100Y0042700D02*
X0064100Y0037500D01*
X0064100Y0031500D01*
X0064100Y0026500D01*
X0064100Y0020500D01*
X0064100Y0015200D01*
X0067500Y0015200D01*
X0074000Y0015200D01*
X0204000Y0015200D01*
X0210500Y0015200D01*
X0214000Y0015200D01*
X0214000Y0020500D01*
X0214000Y0026500D01*
X0214000Y0031500D01*
X0214000Y0037500D01*
X0214000Y0042700D01*
X0210500Y0042700D01*
X0204000Y0042700D01*
X0074000Y0042700D01*
X0067500Y0042700D01*
X0064100Y0042700D01*
X0067500Y0042700D02*
X0067500Y0037500D01*
X0064100Y0037500D01*
X0064100Y0031500D02*
X0067500Y0031500D01*
X0067500Y0026500D01*
X0064100Y0026500D01*
X0064100Y0020500D02*
X0067500Y0020500D01*
X0067500Y0015200D01*
X0074000Y0015200D02*
X0074000Y0010000D01*
X0074000Y-006000D02*
X0204000Y0010000D02*
X0204000Y0015200D01*
X0210500Y0015200D02*
X0210500Y0020500D01*
X0214000Y0020500D01*
X0214000Y0026500D02*
X0210500Y0026500D01*
X0210500Y0031500D01*
X0214000Y0031500D01*
X0214000Y0037500D02*
X0210500Y0037500D01*
X0210500Y0042700D01*
X0204000Y0042700D02*
X0204000Y0045400D01*
X0074000Y0045400D01*
X0074000Y0042700D01*
X0147900Y0061600D02*
X0147900Y0062800D01*
X0147900Y0065200D01*
X0147900Y0066400D01*
X0147900Y0065200D02*
X0148110Y0065180D01*
X0148310Y0065130D01*
X0148500Y0065040D01*
X0148670Y0064920D01*
X0148820Y0064770D01*
X0148940Y0064600D01*
X0149030Y0064410D01*
X0149080Y0064210D01*
X0149100Y0064000D01*
X0149080Y0063790D01*
X0149030Y0063590D01*
X0148940Y0063400D01*
X0148820Y0063230D01*
X0148670Y0063080D01*
X0148500Y0062960D01*
X0148310Y0062870D01*
X0148110Y0062820D01*
X0147900Y0062800D01*
X0156100Y0061600D02*
X0156100Y0066400D01*
X0199000Y0041500D02*
X0197300Y0038200D01*
X0200700Y0038200D01*
X0199000Y0041500D01*
X0199000Y0040500D01*
X0204600Y0036200D02*
X0208200Y0036200D01*
X0206400Y0036200D02*
X0206400Y0030800D01*
X0208200Y0032600D01*
X0168090Y0083630D02*
X0169420Y0082220D01*
X0170810Y0080880D01*
X0172270Y0079610D01*
X0173790Y0078410D01*
X0175360Y0077290D01*
X0176990Y0076240D01*
X0178670Y0075280D01*
X0180390Y0074400D01*
X0182160Y0073600D01*
X0183960Y0072890D01*
X0185790Y0072270D01*
X0187650Y0071750D01*
X0189540Y0071310D01*
X0191440Y0070970D01*
X0193360Y0070720D01*
X0195290Y0070560D01*
X0197230Y0070500D01*
X0199160Y0070530D01*
X0201090Y0070660D01*
X0203010Y0070890D01*
X0204920Y0071200D01*
X0206810Y0071610D01*
X0208680Y0072120D01*
X0210530Y0072710D01*
X0212340Y0073390D01*
X0214110Y0074160D01*
X0215850Y0075020D01*
X0217540Y0075960D01*
X0219180Y0076980D01*
X0220770Y0078080D01*
X0222310Y0079260D01*
X0223780Y0080510D01*
X0225200Y0081840D01*
X0226540Y0083230D01*
X0227820Y0084680D01*
X0229020Y0086200D01*
X0230150Y0087770D01*
X0231200Y0089400D01*
X0232170Y0091070D01*
X0233050Y0092790D01*
X0233850Y0094550D01*
X0234570Y0096350D01*
X0235190Y0098180D01*
X0235720Y0100040D01*
X0236170Y0101930D01*
X0236520Y0103830D01*
X0236770Y0105750D01*
X0236930Y0107680D01*
X0237000Y0109610D01*
X0236970Y0111550D01*
X0236850Y0113480D01*
X0236630Y0115400D01*
X0236320Y0117310D01*
X0235910Y0119200D01*
X0235420Y0121080D01*
X0234830Y0122920D01*
X0234150Y0124730D01*
X0233380Y0126510D01*
X0232530Y0128250D01*
X0231600Y0129940D01*
X0230580Y0131590D01*
X0229480Y0133180D01*
X0228310Y0134720D01*
X0227060Y0136200D01*
X0225740Y0137620D01*
X0224360Y0138970D01*
X0222910Y0140250D01*
X0221390Y0141450D01*
X0219820Y0142590D01*
X0218200Y0143640D01*
X0216530Y0144610D01*
X0214810Y0145500D01*
X0213050Y0146310D01*
X0211250Y0147030D01*
X0209420Y0147660D01*
X0207560Y0148200D01*
X0205680Y0148640D01*
X0203780Y0149000D01*
X0201860Y0149260D01*
X0199930Y0149420D01*
X0198000Y0149500D01*
X0250600Y0181600D02*
X0250600Y0183400D01*
X0254400Y0185200D02*
X0255600Y0185200D01*
X0259400Y0183400D02*
X0259400Y0181600D01*
X0267600Y0181600D02*
X0267600Y0183400D01*
X0271400Y0185200D02*
X0272600Y0185200D01*
X0276400Y0183400D02*
X0276400Y0181600D01*
X0276400Y0211100D02*
X0276400Y0212900D01*
X0272600Y0214700D02*
X0271400Y0214700D01*
X0267600Y0212900D02*
X0267600Y0211100D01*
X0267600Y0239100D02*
X0267600Y0240900D01*
X0271400Y0242700D02*
X0272600Y0242700D01*
X0276400Y0240900D02*
X0276400Y0239100D01*
X0256900Y0287000D02*
X0239100Y0287000D01*
X0239100Y0307000D02*
X0246800Y0307000D01*
X0249200Y0307000D01*
X0256900Y0307000D01*
X0263600Y0294400D02*
X0267500Y0294400D01*
X0249200Y0307000D02*
X0249180Y0306790D01*
X0249130Y0306590D01*
X0249040Y0306400D01*
X0248920Y0306230D01*
X0248770Y0306080D01*
X0248600Y0305960D01*
X0248410Y0305870D01*
X0248210Y0305820D01*
X0248000Y0305800D01*
X0247790Y0305820D01*
X0247590Y0305870D01*
X0247400Y0305960D01*
X0247230Y0306080D01*
X0247080Y0306230D01*
X0246960Y0306400D01*
X0246870Y0306590D01*
X0246820Y0306790D01*
X0246800Y0307000D01*
X0212000Y0238000D02*
X0211610Y0238020D01*
X0211220Y0238080D01*
X0210840Y0238170D01*
X0210470Y0238300D01*
X0210110Y0238470D01*
X0209780Y0238670D01*
X0209460Y0238910D01*
X0209170Y0239170D01*
X0212000Y0246000D02*
X0212390Y0245980D01*
X0212780Y0245920D01*
X0213160Y0245830D01*
X0213530Y0245700D01*
X0213890Y0245530D01*
X0214220Y0245330D01*
X0214540Y0245090D01*
X0214830Y0244830D01*
X0212000Y0246000D02*
X0211610Y0245980D01*
X0211220Y0245920D01*
X0210840Y0245830D01*
X0210470Y0245700D01*
X0210110Y0245530D01*
X0209780Y0245330D01*
X0209460Y0245090D01*
X0209170Y0244830D01*
X0212000Y0238000D02*
X0212390Y0238020D01*
X0212780Y0238080D01*
X0213160Y0238170D01*
X0213530Y0238300D01*
X0213890Y0238470D01*
X0214220Y0238670D01*
X0214540Y0238910D01*
X0214830Y0239170D01*
X0190900Y0283800D02*
X0189100Y0283800D01*
X0189500Y0284900D02*
X0189690Y0284970D01*
X0189900Y0285010D01*
X0190100Y0285010D01*
X0190310Y0284970D01*
X0190500Y0284900D01*
X0187200Y0287400D02*
X0187200Y0288600D01*
X0189100Y0292200D02*
X0190900Y0292200D01*
X0142500Y0319500D02*
X0142500Y0335500D01*
X0142480Y0335670D01*
X0142440Y0335840D01*
X0142370Y0336000D01*
X0142270Y0336140D01*
X0142140Y0336270D01*
X0142000Y0336370D01*
X0141840Y0336440D01*
X0141670Y0336480D01*
X0141500Y0336500D01*
X0135500Y0336500D01*
X0135330Y0336480D01*
X0135160Y0336440D01*
X0135000Y0336370D01*
X0134860Y0336270D01*
X0134730Y0336140D01*
X0134630Y0336000D01*
X0134560Y0335840D01*
X0134520Y0335670D01*
X0134500Y0335500D01*
X0134500Y0319500D01*
X0134520Y0319330D01*
X0134560Y0319160D01*
X0134630Y0319000D01*
X0134730Y0318860D01*
X0134860Y0318730D01*
X0135000Y0318630D01*
X0135160Y0318560D01*
X0135330Y0318520D01*
X0135500Y0318500D01*
X0141500Y0318500D01*
X0141670Y0318520D01*
X0141840Y0318560D01*
X0142000Y0318630D01*
X0142140Y0318730D01*
X0142270Y0318860D01*
X0142370Y0319000D01*
X0142440Y0319160D01*
X0142480Y0319330D01*
X0142500Y0319500D01*
X0141000Y0323500D02*
X0138500Y0327500D01*
X0136000Y0327500D01*
X0138500Y0327500D02*
X0138500Y0321500D01*
X0141000Y0323500D02*
X0136000Y0323500D01*
X0138500Y0327500D01*
X0141000Y0327500D01*
X0138500Y0327500D02*
X0138500Y0330000D01*
X0148000Y0391300D02*
X0150540Y0403000D01*
X0153000Y0414330D02*
X0160460Y0403000D02*
X0163000Y0391300D01*
X0173000Y0391300D02*
X0175540Y0403000D01*
X0178000Y0414330D02*
X0185460Y0403000D02*
X0188000Y0391300D01*
X0067000Y0231600D02*
X0057000Y0231600D01*
X0057000Y0212400D02*
X0060800Y0212400D01*
X0063200Y0212400D01*
X0067000Y0212400D01*
D76*
X0071710Y0211870D02*
X0074850Y0208730D01*
X0071710Y0211870D01*
X0071710Y0210300D02*
X0074850Y0210300D01*
X0071710Y0210300D01*
X0071710Y0208730D02*
X0074850Y0211870D01*
X0071710Y0208730D01*
X0073280Y0208730D02*
X0073280Y0211870D01*
X0073280Y0208730D01*
X0092230Y0243850D02*
X0095370Y0246990D01*
X0095370Y0245420D02*
X0092230Y0245420D01*
X0092230Y0246990D02*
X0095370Y0243850D01*
X0093800Y0243850D02*
X0093800Y0246990D01*
X0112230Y0246990D02*
X0115370Y0243850D01*
X0115370Y0245420D02*
X0112230Y0245420D01*
X0112230Y0243850D02*
X0115370Y0246990D01*
X0113800Y0246990D02*
X0113800Y0243850D01*
X0133230Y0243850D02*
X0136370Y0246990D01*
X0136370Y0245420D02*
X0133230Y0245420D01*
X0133230Y0246990D02*
X0136370Y0243850D01*
X0134800Y0243850D02*
X0134800Y0246990D01*
X0154230Y0246990D02*
X0157370Y0243850D01*
X0157370Y0245420D02*
X0154230Y0245420D01*
X0154230Y0243850D02*
X0157370Y0246990D01*
X0155800Y0246990D02*
X0155800Y0243850D01*
X0194110Y0280530D02*
X0197250Y0283670D01*
X0195680Y0283670D02*
X0195680Y0280530D01*
X0197250Y0280530D02*
X0194110Y0283670D01*
X0194110Y0282100D02*
X0197250Y0282100D01*
X0233350Y0306530D02*
X0236490Y0309670D01*
X0236490Y0308100D02*
X0233350Y0308100D01*
X0233350Y0309670D02*
X0236490Y0306530D01*
X0234920Y0306530D02*
X0234920Y0309670D01*
X0264530Y0236190D02*
X0267670Y0233050D01*
X0267670Y0234620D02*
X0264530Y0234620D01*
X0264530Y0233050D02*
X0267670Y0236190D01*
X0266100Y0236190D02*
X0266100Y0233050D01*
X0266100Y0208190D02*
X0266100Y0205050D01*
X0267670Y0205050D02*
X0264530Y0208190D01*
X0264530Y0206620D02*
X0267670Y0206620D01*
X0267670Y0208190D02*
X0264530Y0205050D01*
X0264530Y0178690D02*
X0267670Y0175550D01*
X0267670Y0177120D02*
X0264530Y0177120D01*
X0264530Y0175550D02*
X0267670Y0178690D01*
X0266100Y0178690D02*
X0266100Y0175550D01*
X0250670Y0175550D02*
X0247530Y0178690D01*
X0249100Y0178690D02*
X0249100Y0175550D01*
X0247530Y0175550D02*
X0250670Y0178690D01*
X0250670Y0177120D02*
X0247530Y0177120D01*
X0196290Y0182030D02*
X0193150Y0185170D01*
X0193150Y0183600D02*
X0196290Y0183600D01*
X0196290Y0185170D02*
X0193150Y0182030D01*
X0194720Y0182030D02*
X0194720Y0185170D01*
X0123570Y0090490D02*
X0120430Y0087350D01*
X0122000Y0087350D02*
X0122000Y0090490D01*
X0120430Y0090490D02*
X0123570Y0087350D01*
X0123570Y0088920D02*
X0120430Y0088920D01*
X0144530Y0058390D02*
X0147670Y0055250D01*
X0147670Y0056820D02*
X0144530Y0056820D01*
X0144530Y0055250D02*
X0147670Y0058390D01*
X0146100Y0058390D02*
X0146100Y0055250D01*
X0080870Y0069150D02*
X0077730Y0072290D01*
X0079300Y0072290D02*
X0079300Y0069150D01*
X0077730Y0069150D02*
X0080870Y0072290D01*
X0080870Y0070720D02*
X0077730Y0070720D01*
D76*
X0074880Y0069030D02*
X0074880Y0056320D01*
X0065280Y0056320D01*
X0065040Y0055960D02*
X0074880Y0055960D01*
X0074880Y0056320D01*
X0074880Y0055960D02*
X0074880Y0052690D01*
X0065040Y0052690D01*
X0065040Y0055960D01*
X0065040Y0069030D01*
X0074880Y0069030D01*
X0076850Y0061300D02*
X0079100Y0059050D01*
X0079100Y0062050D01*
X0081350Y0061300D02*
X0076850Y0061300D01*
X0077600Y0057450D02*
X0079100Y0057450D01*
X0079850Y0056690D01*
X0079850Y0054440D01*
X0081350Y0054440D02*
X0076850Y0054440D01*
X0076850Y0056690D01*
X0077600Y0057450D01*
X0079850Y0055940D02*
X0081350Y0057450D01*
X0071030Y0079120D02*
X0058310Y0079120D01*
X0058310Y0088730D01*
X0057960Y0088960D02*
X0057960Y0079120D01*
X0058310Y0079120D01*
X0057960Y0079120D02*
X0054690Y0079120D01*
X0054690Y0088960D01*
X0057960Y0088960D01*
X0071030Y0088960D01*
X0071030Y0079120D01*
X0059250Y0091040D02*
X0059250Y0093290D01*
X0058500Y0094050D01*
X0055500Y0094050D01*
X0054750Y0093290D01*
X0054750Y0091040D01*
X0059250Y0091040D01*
X0059250Y0095650D02*
X0059250Y0098650D01*
X0059250Y0097150D02*
X0054750Y0097150D01*
X0056250Y0095650D01*
X0041650Y0097250D02*
X0037150Y0097250D01*
X0037150Y0099500D01*
X0037900Y0100250D01*
X0039400Y0100250D01*
X0040150Y0099500D01*
X0040150Y0097250D01*
X0040150Y0098750D02*
X0041650Y0100250D01*
X0041650Y0101850D02*
X0041650Y0104860D01*
X0041650Y0103360D02*
X0037150Y0103360D01*
X0038650Y0101850D01*
X0017850Y0120330D02*
X0017850Y0123340D01*
X0017850Y0124940D02*
X0017850Y0127940D01*
X0017850Y0129540D02*
X0017850Y0131790D01*
X0017100Y0132550D01*
X0014100Y0132550D01*
X0013350Y0131790D01*
X0013350Y0129540D01*
X0017850Y0129540D01*
X0015600Y0126440D02*
X0015600Y0124940D01*
X0013350Y0124940D02*
X0017850Y0124940D01*
X0013350Y0124940D02*
X0013350Y0127940D01*
X0014850Y0134150D02*
X0013350Y0135650D01*
X0017850Y0135650D01*
X0017850Y0134150D02*
X0017850Y0137150D01*
X0017850Y0120330D02*
X0013350Y0120330D01*
X0036200Y0148770D02*
X0036200Y0197980D01*
X0085410Y0197980D01*
X0085410Y0148770D01*
X0036200Y0148770D01*
X0076850Y0110050D02*
X0076850Y0107050D01*
X0079100Y0107050D01*
X0078350Y0108550D01*
X0078350Y0109300D01*
X0079100Y0110050D01*
X0080600Y0110050D01*
X0081350Y0109300D01*
X0081350Y0107800D01*
X0080600Y0107050D01*
X0081350Y0105450D02*
X0079850Y0103940D01*
X0079850Y0104690D02*
X0079850Y0102440D01*
X0081350Y0102440D02*
X0076850Y0102440D01*
X0076850Y0104690D01*
X0077600Y0105450D01*
X0079100Y0105450D01*
X0079850Y0104690D01*
X0102750Y0093510D02*
X0103500Y0094260D01*
X0104250Y0094260D01*
X0105000Y0093510D01*
X0105750Y0094260D01*
X0106500Y0094260D01*
X0107250Y0093510D01*
X0107250Y0092010D01*
X0106500Y0091250D01*
X0106500Y0089650D02*
X0102750Y0089650D01*
X0103500Y0091250D02*
X0102750Y0092010D01*
X0102750Y0093510D01*
X0105000Y0093510D02*
X0105000Y0092760D01*
X0106500Y0089650D02*
X0107250Y0088900D01*
X0107250Y0087400D01*
X0106500Y0086650D01*
X0102750Y0086650D01*
X0116000Y0122250D02*
X0116750Y0123000D01*
X0116750Y0123750D01*
X0116000Y0124500D01*
X0112250Y0124500D01*
X0112250Y0123750D02*
X0112250Y0125250D01*
X0112250Y0126850D02*
X0112250Y0129110D01*
X0113000Y0129860D01*
X0114500Y0129860D01*
X0115250Y0129110D01*
X0115250Y0126850D01*
X0116750Y0126850D02*
X0112250Y0126850D01*
X0113750Y0131460D02*
X0112250Y0132960D01*
X0116750Y0132960D01*
X0116750Y0131460D02*
X0116750Y0134460D01*
X0138750Y0098260D02*
X0140250Y0096750D01*
X0138750Y0098260D02*
X0143250Y0098260D01*
X0143250Y0099760D02*
X0143250Y0096750D01*
X0142500Y0095150D02*
X0138750Y0095150D01*
X0138750Y0092150D02*
X0142500Y0092150D01*
X0143250Y0092900D01*
X0143250Y0094400D01*
X0142500Y0095150D01*
X0153250Y0078360D02*
X0157750Y0078360D01*
X0157750Y0079860D02*
X0157750Y0076850D01*
X0157000Y0075250D02*
X0155500Y0075250D01*
X0155500Y0073750D01*
X0154000Y0072250D02*
X0157000Y0072250D01*
X0157750Y0073000D01*
X0157750Y0074500D01*
X0157000Y0075250D01*
X0154750Y0076850D02*
X0153250Y0078360D01*
X0154000Y0075250D02*
X0153250Y0074500D01*
X0153250Y0073000D01*
X0154000Y0072250D01*
X0145750Y0067260D02*
X0145750Y0064250D01*
X0142750Y0067260D01*
X0142000Y0067260D01*
X0141250Y0066510D01*
X0141250Y0065010D01*
X0142000Y0064250D01*
X0141250Y0062650D02*
X0145000Y0062650D01*
X0145750Y0061900D01*
X0145750Y0060400D01*
X0145000Y0059650D01*
X0141250Y0059650D01*
X0128750Y0012750D02*
X0128750Y0010000D01*
X0128750Y0008250D02*
X0125750Y0010000D02*
X0125750Y0010500D01*
X0126500Y0011250D01*
X0128750Y0011250D01*
X0127250Y0011250D02*
X0125750Y0012750D01*
X0124150Y0010500D02*
X0121140Y0010500D01*
X0119540Y0010000D02*
X0119540Y0012000D01*
X0118790Y0012750D01*
X0117290Y0012750D01*
X0116540Y0012000D01*
X0114940Y0012000D02*
X0114190Y0011250D01*
X0111940Y0011250D01*
X0111940Y0010500D02*
X0111940Y0012750D01*
X0114190Y0012750D01*
X0114940Y0012000D01*
X0112440Y0010000D02*
X0111940Y0010500D01*
X0107830Y0010000D02*
X0107330Y0010500D01*
X0107330Y0012000D01*
X0108080Y0012750D01*
X0110330Y0012750D01*
X0110330Y0010000D01*
X0110330Y0008250D02*
X0104980Y0010000D02*
X0104980Y0012750D01*
X0105730Y0012750D02*
X0104230Y0012750D01*
X0102660Y0012000D02*
X0102660Y0010500D01*
X0102160Y0010000D01*
X0101910Y0009750D02*
X0100160Y0010000D02*
X0099660Y0010500D01*
X0099660Y0011250D01*
X0102660Y0011250D01*
X0102660Y0012000D02*
X0101910Y0012750D01*
X0100410Y0012750D01*
X0093450Y0012750D02*
X0090700Y0010000D01*
X0090450Y0009750D02*
X0093450Y0012750D02*
X0090450Y0012750D01*
X0088850Y0012000D02*
X0088100Y0012750D01*
X0086600Y0012750D01*
X0085850Y0012000D01*
X0085850Y0011250D01*
X0086600Y0010500D01*
X0088850Y0010500D01*
X0088850Y0012000D01*
X0088850Y0010500D02*
X0088350Y0010000D01*
X0087350Y0009000D02*
X0081240Y0010000D02*
X0081240Y0010500D01*
X0081990Y0011250D01*
X0084250Y0011250D01*
X0084250Y0012750D02*
X0084250Y0010000D01*
X0084250Y0008250D02*
X0213250Y0098750D02*
X0217750Y0098750D01*
X0217750Y0101750D01*
X0217750Y0103350D02*
X0217750Y0104860D01*
X0217750Y0104110D02*
X0214750Y0104110D01*
X0214750Y0103350D01*
X0213250Y0104110D02*
X0212500Y0104110D01*
X0214750Y0106420D02*
X0214750Y0107930D01*
X0214000Y0107170D02*
X0217000Y0107170D01*
X0217750Y0107930D01*
X0217750Y0109490D02*
X0217750Y0110240D01*
X0217000Y0110240D01*
X0217000Y0109490D01*
X0217750Y0109490D01*
X0217000Y0111800D02*
X0217750Y0112550D01*
X0217750Y0114050D01*
X0217000Y0114800D01*
X0216250Y0114800D01*
X0215500Y0114050D01*
X0215500Y0113300D01*
X0215500Y0114050D02*
X0214750Y0114800D01*
X0214000Y0114800D01*
X0213250Y0114050D01*
X0213250Y0112550D01*
X0214000Y0111800D01*
X0213250Y0116400D02*
X0216250Y0116400D01*
X0217750Y0117900D01*
X0216250Y0119400D01*
X0213250Y0119400D01*
X0230850Y0136840D02*
X0230850Y0139090D01*
X0231600Y0139840D01*
X0233100Y0139840D01*
X0233850Y0139090D01*
X0233850Y0136840D01*
X0235350Y0136840D02*
X0230850Y0136840D01*
X0233850Y0138340D02*
X0235350Y0139840D01*
X0235350Y0141440D02*
X0235350Y0144450D01*
X0235350Y0142940D02*
X0230850Y0142940D01*
X0232350Y0141440D01*
X0231600Y0146050D02*
X0234600Y0146050D01*
X0231600Y0149050D01*
X0234600Y0149050D01*
X0235350Y0148300D01*
X0235350Y0146800D01*
X0234600Y0146050D01*
X0231600Y0146050D02*
X0230850Y0146800D01*
X0230850Y0148300D01*
X0231600Y0149050D01*
X0230650Y0154850D02*
X0235150Y0154850D01*
X0233650Y0154850D02*
X0233650Y0157100D01*
X0232900Y0157850D01*
X0231400Y0157850D01*
X0230650Y0157100D01*
X0230650Y0154850D01*
X0233650Y0156350D02*
X0235150Y0157850D01*
X0235150Y0159450D02*
X0235150Y0162460D01*
X0235150Y0160960D02*
X0230650Y0160960D01*
X0232150Y0159450D01*
X0232150Y0164060D02*
X0230650Y0165560D01*
X0235150Y0165560D01*
X0235150Y0164060D02*
X0235150Y0167060D01*
X0255750Y0166150D02*
X0259500Y0166150D01*
X0260250Y0165400D01*
X0260250Y0163900D01*
X0259500Y0163150D01*
X0255750Y0163150D01*
X0257250Y0167750D02*
X0255750Y0169260D01*
X0260250Y0169260D01*
X0260250Y0170760D02*
X0260250Y0167750D01*
X0260250Y0172360D02*
X0260250Y0175360D01*
X0260250Y0173860D02*
X0255750Y0173860D01*
X0257250Y0172360D01*
X0272750Y0172110D02*
X0272750Y0173610D01*
X0273500Y0174360D01*
X0276500Y0171360D01*
X0277250Y0172110D01*
X0277250Y0173610D01*
X0276500Y0174360D01*
X0273500Y0174360D01*
X0272750Y0172110D02*
X0273500Y0171360D01*
X0276500Y0171360D01*
X0277250Y0169760D02*
X0277250Y0166750D01*
X0277250Y0168260D02*
X0272750Y0168260D01*
X0274250Y0166750D01*
X0272750Y0165150D02*
X0276500Y0165150D01*
X0277250Y0164400D01*
X0277250Y0162900D01*
X0276500Y0162150D01*
X0272750Y0162150D01*
X0276650Y0157710D02*
X0277400Y0158460D01*
X0278150Y0158460D01*
X0278900Y0157710D01*
X0278900Y0156210D01*
X0278150Y0155450D01*
X0277400Y0155450D01*
X0276650Y0156210D01*
X0276650Y0157710D01*
X0278900Y0157710D02*
X0279650Y0158460D01*
X0280400Y0158460D01*
X0281150Y0157710D01*
X0281150Y0156210D01*
X0280400Y0155450D01*
X0279650Y0155450D01*
X0278900Y0156210D01*
X0278900Y0153850D02*
X0279650Y0153100D01*
X0279650Y0150850D01*
X0281150Y0150850D02*
X0276650Y0150850D01*
X0276650Y0153100D01*
X0277400Y0153850D01*
X0278900Y0153850D01*
X0279650Y0152350D02*
X0281150Y0153850D01*
X0280600Y0147050D02*
X0277600Y0147050D01*
X0276850Y0146300D01*
X0276850Y0144800D01*
X0277600Y0144050D01*
X0278350Y0144050D01*
X0279100Y0144800D01*
X0279100Y0147050D01*
X0280600Y0147050D02*
X0281350Y0146300D01*
X0281350Y0144800D01*
X0280600Y0144050D01*
X0281350Y0142450D02*
X0279850Y0140940D01*
X0279850Y0141690D02*
X0279850Y0139440D01*
X0281350Y0139440D02*
X0276850Y0139440D01*
X0276850Y0141690D01*
X0277600Y0142450D01*
X0279100Y0142450D01*
X0279850Y0141690D01*
X0274150Y0107360D02*
X0274150Y0102640D01*
X0267850Y0102640D01*
X0267850Y0107360D01*
X0274150Y0107360D01*
X0261150Y0107360D02*
X0261150Y0102640D01*
X0254850Y0102640D01*
X0254850Y0107360D01*
X0261150Y0107360D01*
X0270850Y0077050D02*
X0271600Y0075550D01*
X0273100Y0074050D01*
X0273100Y0076300D01*
X0273850Y0077050D01*
X0274600Y0077050D01*
X0275350Y0076300D01*
X0275350Y0074800D01*
X0274600Y0074050D01*
X0273100Y0074050D01*
X0273100Y0072450D02*
X0273850Y0071690D01*
X0273850Y0069440D01*
X0275350Y0069440D02*
X0270850Y0069440D01*
X0270850Y0071690D01*
X0271600Y0072450D01*
X0273100Y0072450D01*
X0273850Y0070940D02*
X0275350Y0072450D01*
X0249350Y0072450D02*
X0247850Y0070940D01*
X0247850Y0071690D02*
X0247850Y0069440D01*
X0249350Y0069440D02*
X0244850Y0069440D01*
X0244850Y0071690D01*
X0245600Y0072450D01*
X0247100Y0072450D01*
X0247850Y0071690D01*
X0248600Y0074050D02*
X0249350Y0074050D01*
X0248600Y0074050D02*
X0245600Y0077050D01*
X0244850Y0077050D01*
X0244850Y0074050D01*
X0191500Y0175040D02*
X0192250Y0175790D01*
X0192250Y0177290D01*
X0191500Y0178050D01*
X0188500Y0178050D01*
X0187750Y0177290D01*
X0187750Y0175790D01*
X0188500Y0175040D01*
X0191500Y0175040D01*
X0190750Y0176540D02*
X0192250Y0178050D01*
X0192250Y0179650D02*
X0192250Y0182650D01*
X0192250Y0181150D02*
X0187750Y0181150D01*
X0189250Y0179650D01*
X0200640Y0203750D02*
X0225360Y0203750D01*
X0225360Y0236250D01*
X0215500Y0236250D01*
X0210500Y0236250D01*
X0200640Y0236250D01*
X0200640Y0203750D01*
X0192360Y0215850D02*
X0187640Y0215850D01*
X0187640Y0222150D01*
X0192360Y0222150D01*
X0192360Y0215850D01*
X0179750Y0235250D02*
X0176750Y0235250D01*
X0175250Y0236750D01*
X0176750Y0238250D01*
X0179750Y0238250D01*
X0179750Y0239850D02*
X0175250Y0239850D01*
X0179750Y0242860D01*
X0175250Y0242860D01*
X0175250Y0244460D02*
X0175250Y0247460D01*
X0175250Y0245960D02*
X0179750Y0245960D01*
X0177500Y0238250D02*
X0177500Y0235250D01*
X0155750Y0235610D02*
X0155750Y0234110D01*
X0155000Y0233360D01*
X0155750Y0231760D02*
X0155750Y0228750D01*
X0155750Y0230260D02*
X0151250Y0230260D01*
X0152750Y0228750D01*
X0151250Y0227150D02*
X0155000Y0227150D01*
X0155750Y0226400D01*
X0155750Y0224900D01*
X0155000Y0224150D01*
X0151250Y0224150D01*
X0152000Y0233360D02*
X0151250Y0234110D01*
X0151250Y0235610D01*
X0152000Y0236360D01*
X0152750Y0236360D01*
X0153500Y0235610D01*
X0154250Y0236360D01*
X0155000Y0236360D01*
X0155750Y0235610D01*
X0153500Y0235610D02*
X0153500Y0234860D01*
X0151750Y0264440D02*
X0151750Y0266690D01*
X0151000Y0267440D01*
X0148000Y0267440D01*
X0147250Y0266690D01*
X0147250Y0264440D01*
X0151750Y0264440D01*
X0151750Y0269040D02*
X0151750Y0272050D01*
X0151750Y0270540D02*
X0147250Y0270540D01*
X0148750Y0269040D01*
X0148750Y0273650D02*
X0147250Y0275150D01*
X0151750Y0275150D01*
X0151750Y0273650D02*
X0151750Y0276650D01*
X0176250Y0284650D02*
X0180000Y0284650D01*
X0180750Y0285400D01*
X0180750Y0286900D01*
X0180000Y0287650D01*
X0176250Y0287650D01*
X0176250Y0289250D02*
X0176250Y0292260D01*
X0177000Y0292260D01*
X0180000Y0289250D01*
X0180750Y0289250D01*
X0209500Y0257860D02*
X0208750Y0257110D01*
X0208750Y0255610D01*
X0209500Y0254850D01*
X0209500Y0253250D02*
X0212500Y0253250D01*
X0213250Y0252500D01*
X0213250Y0251000D01*
X0212500Y0250250D01*
X0209500Y0250250D01*
X0208750Y0251000D01*
X0208750Y0252500D01*
X0209500Y0253250D01*
X0211750Y0251750D02*
X0213250Y0253250D01*
X0213250Y0254850D02*
X0210250Y0257860D01*
X0209500Y0257860D01*
X0213250Y0257860D02*
X0213250Y0254850D01*
X0215500Y0236250D02*
X0215480Y0235950D01*
X0215430Y0235650D01*
X0215340Y0235360D01*
X0215210Y0235090D01*
X0215060Y0234830D01*
X0214870Y0234590D01*
X0214660Y0234380D01*
X0214420Y0234190D01*
X0214160Y0234040D01*
X0213890Y0233910D01*
X0213600Y0233820D01*
X0213300Y0233770D01*
X0213000Y0233750D01*
X0212700Y0233770D01*
X0212400Y0233820D01*
X0212110Y0233910D01*
X0211840Y0234040D01*
X0211580Y0234190D01*
X0211340Y0234380D01*
X0211130Y0234590D01*
X0210940Y0234830D01*
X0210790Y0235090D01*
X0210660Y0235360D01*
X0210570Y0235650D01*
X0210520Y0235950D01*
X0210500Y0236250D01*
X0231750Y0274650D02*
X0235500Y0274650D01*
X0236250Y0275400D01*
X0236250Y0276900D01*
X0235500Y0277650D01*
X0231750Y0277650D01*
X0233250Y0279250D02*
X0231750Y0280760D01*
X0236250Y0280760D01*
X0236250Y0282260D02*
X0236250Y0279250D01*
X0236250Y0283860D02*
X0233250Y0286860D01*
X0232500Y0286860D01*
X0231750Y0286110D01*
X0231750Y0284610D01*
X0232500Y0283860D01*
X0236250Y0283860D02*
X0236250Y0286860D01*
X0252850Y0318840D02*
X0252850Y0321090D01*
X0253600Y0321840D01*
X0255100Y0321840D01*
X0255850Y0321090D01*
X0255850Y0318840D01*
X0257350Y0318840D02*
X0252850Y0318840D01*
X0255850Y0320340D02*
X0257350Y0321840D01*
X0257350Y0323440D02*
X0257350Y0326450D01*
X0257350Y0324940D02*
X0252850Y0324940D01*
X0254350Y0323440D01*
X0253600Y0328050D02*
X0252850Y0328800D01*
X0252850Y0330300D01*
X0253600Y0331050D01*
X0254350Y0331050D01*
X0255100Y0330300D01*
X0255850Y0331050D01*
X0256600Y0331050D01*
X0257350Y0330300D01*
X0257350Y0328800D01*
X0256600Y0328050D01*
X0255100Y0329550D02*
X0255100Y0330300D01*
X0272500Y0230260D02*
X0275500Y0230260D01*
X0276250Y0229510D01*
X0276250Y0228010D01*
X0275500Y0227250D01*
X0275000Y0227510D02*
X0275000Y0226010D01*
X0274250Y0225250D01*
X0273500Y0225250D01*
X0272750Y0226010D01*
X0272750Y0227510D01*
X0273500Y0228260D01*
X0274250Y0228260D01*
X0275000Y0227510D01*
X0275750Y0228260D01*
X0276500Y0228260D01*
X0277250Y0227510D01*
X0277250Y0226010D01*
X0276500Y0225250D01*
X0275750Y0225250D01*
X0275000Y0226010D01*
X0275500Y0225650D02*
X0271750Y0225650D01*
X0272500Y0227250D02*
X0273250Y0227250D01*
X0274000Y0228010D01*
X0274000Y0230260D01*
X0272500Y0230260D02*
X0271750Y0229510D01*
X0271750Y0228010D01*
X0272500Y0227250D01*
X0275500Y0225650D02*
X0276250Y0224900D01*
X0276250Y0223400D01*
X0275500Y0222650D01*
X0271750Y0222650D01*
X0272750Y0223650D02*
X0276500Y0223650D01*
X0277250Y0222900D01*
X0277250Y0221400D01*
X0276500Y0220650D01*
X0272750Y0220650D01*
X0213250Y0191510D02*
X0213250Y0190010D01*
X0212500Y0189250D01*
X0211000Y0189250D02*
X0210250Y0190760D01*
X0210250Y0191510D01*
X0211000Y0192260D01*
X0212500Y0192260D01*
X0213250Y0191510D01*
X0211000Y0189250D02*
X0208750Y0189250D01*
X0208750Y0192260D01*
X0208750Y0187650D02*
X0212500Y0187650D01*
X0213250Y0186900D01*
X0213250Y0185400D01*
X0212500Y0184650D01*
X0208750Y0184650D01*
X0134750Y0224900D02*
X0134750Y0226400D01*
X0134000Y0227150D01*
X0130250Y0227150D01*
X0131750Y0228750D02*
X0130250Y0230260D01*
X0134750Y0230260D01*
X0134750Y0231760D02*
X0134750Y0228750D01*
X0134750Y0224900D02*
X0134000Y0224150D01*
X0130250Y0224150D01*
X0132500Y0233360D02*
X0132500Y0236360D01*
X0134750Y0235610D02*
X0130250Y0235610D01*
X0132500Y0233360D01*
X0114750Y0238400D02*
X0114750Y0239900D01*
X0114000Y0240650D01*
X0110250Y0240650D01*
X0111750Y0242250D02*
X0110250Y0243760D01*
X0114750Y0243760D01*
X0114750Y0245260D02*
X0114750Y0242250D01*
X0114750Y0238400D02*
X0114000Y0237650D01*
X0110250Y0237650D01*
X0112500Y0246860D02*
X0114000Y0246860D01*
X0114750Y0247610D01*
X0114750Y0249110D01*
X0114000Y0249860D01*
X0113250Y0249860D01*
X0112500Y0249110D01*
X0112500Y0246860D01*
X0111000Y0248360D01*
X0110250Y0249860D01*
X0084550Y0220810D02*
X0080050Y0220810D01*
X0082300Y0218550D01*
X0082300Y0221560D01*
X0083800Y0216950D02*
X0080050Y0216950D01*
X0080050Y0213950D02*
X0083800Y0213950D01*
X0084550Y0214700D01*
X0084550Y0216200D01*
X0083800Y0216950D01*
X0093250Y0198360D02*
X0093250Y0195360D01*
X0095500Y0195360D01*
X0094750Y0196860D01*
X0094750Y0197610D01*
X0095500Y0198360D01*
X0097000Y0198360D01*
X0097750Y0197610D01*
X0097750Y0196110D01*
X0097000Y0195360D01*
X0097750Y0193760D02*
X0097750Y0190750D01*
X0097750Y0192260D02*
X0093250Y0192260D01*
X0094750Y0190750D01*
X0093250Y0189150D02*
X0097000Y0189150D01*
X0097750Y0188400D01*
X0097750Y0186900D01*
X0097000Y0186150D01*
X0093250Y0186150D01*
X0067750Y0251940D02*
X0067750Y0254190D01*
X0067000Y0254940D01*
X0064000Y0254940D01*
X0063250Y0254190D01*
X0063250Y0251940D01*
X0067750Y0251940D01*
X0067750Y0256540D02*
X0067750Y0259550D01*
X0067750Y0258040D02*
X0063250Y0258040D01*
X0064750Y0256540D01*
X0064000Y0261150D02*
X0067000Y0261150D01*
X0064000Y0264150D01*
X0067000Y0264150D01*
X0067750Y0263400D01*
X0067750Y0261900D01*
X0067000Y0261150D01*
X0064000Y0261150D02*
X0063250Y0261900D01*
X0063250Y0263400D01*
X0064000Y0264150D01*
X0062250Y0337040D02*
X0066750Y0337040D01*
X0066750Y0339290D01*
X0066000Y0340050D01*
X0063000Y0340050D01*
X0062250Y0339290D01*
X0062250Y0337040D01*
X0063000Y0341650D02*
X0063750Y0341650D01*
X0064500Y0342400D01*
X0064500Y0344650D01*
X0066000Y0344650D02*
X0063000Y0344650D01*
X0062250Y0343900D01*
X0062250Y0342400D01*
X0063000Y0341650D01*
X0066000Y0341650D02*
X0066750Y0342400D01*
X0066750Y0343900D01*
X0066000Y0344650D01*
X0099000Y0363100D02*
X0105590Y0363100D01*
X0099020Y0363100D01*
X0144750Y0324400D02*
X0144750Y0322900D01*
X0145500Y0322150D01*
X0146250Y0322150D01*
X0147000Y0322900D01*
X0147000Y0324400D01*
X0147750Y0325150D01*
X0148500Y0325150D01*
X0149250Y0324400D01*
X0149250Y0322900D01*
X0148500Y0322150D01*
X0147750Y0322150D01*
X0147000Y0322900D01*
X0147000Y0324400D02*
X0146250Y0325150D01*
X0145500Y0325150D01*
X0144750Y0324400D01*
X0145500Y0320550D02*
X0148500Y0320550D01*
X0149250Y0319790D01*
X0149250Y0317540D01*
X0144750Y0317540D01*
X0144750Y0319790D01*
X0145500Y0320550D01*
D68*
X0049000Y0127750D03*
X0049000Y0106250D03*
D76*
X0033500Y0099000D02*
X0018500Y0099000D01*
X0024760Y0143540D02*
X0032170Y0143540D01*
X0032170Y0148480D01*
X0032170Y0151090D02*
X0032170Y0156030D01*
X0032170Y0153560D02*
X0024760Y0153560D01*
X0027230Y0151090D01*
X0034880Y0216930D02*
X0034880Y0225040D01*
X0045120Y0225040D02*
X0045120Y0216930D01*
X0216740Y0347880D02*
X0216740Y0402610D01*
X0261230Y0402610D01*
X0261230Y0347880D01*
X0216740Y0347880D01*
X0226580Y0403000D02*
X0226580Y0403000D01*
X0226580Y0416390D02*
X0249420Y0403000D02*
X0249420Y0403000D01*
X0263260Y0067120D02*
X0263260Y0012390D01*
X0218770Y0012390D01*
X0218770Y0067120D01*
X0263260Y0067120D01*
X0253420Y0012000D02*
X0253420Y0010000D01*
X0253420Y-001390D02*
X0230580Y0010000D02*
X0230580Y0012000D01*
D120*
X0233000Y0107500D02*
X0233000Y0112500D01*
X0168000Y0110000D02*
X0163000Y0110000D01*
X0165500Y0107500D02*
X0165500Y0112500D01*
X0130290Y0268600D02*
X0130290Y0293400D01*
X0128910Y0293400D01*
X0123200Y0293400D02*
X0118870Y0293400D01*
X0113170Y0293400D02*
X0108830Y0293400D01*
X0103130Y0293400D02*
X0098800Y0293400D01*
X0093090Y0293400D02*
X0091710Y0293400D01*
X0091710Y0268600D01*
X0093090Y0268600D01*
X0098800Y0268600D02*
X0103130Y0268600D01*
X0108830Y0268600D02*
X0113170Y0268600D01*
X0118870Y0268600D02*
X0123200Y0268600D01*
X0128910Y0268600D02*
X0130290Y0268600D01*
X0130290Y0316100D02*
X0130290Y0340900D01*
X0128910Y0340900D01*
X0123200Y0340900D02*
X0118870Y0340900D01*
X0113170Y0340900D02*
X0108830Y0340900D01*
X0103130Y0340900D02*
X0098800Y0340900D01*
X0093090Y0340900D02*
X0091710Y0340900D01*
X0091710Y0316100D01*
X0093090Y0316100D01*
X0098800Y0316100D02*
X0103130Y0316100D01*
X0108830Y0316100D02*
X0113170Y0316100D01*
X0118870Y0316100D02*
X0123200Y0316100D01*
X0128910Y0316100D02*
X0130290Y0316100D01*
X0111810Y0363100D02*
X0111810Y0369390D01*
X0110810Y0369390D01*
X0110810Y0393840D01*
X0103620Y0402110D01*
X0056380Y0402110D01*
X0049190Y0393450D01*
X0049190Y0369390D01*
X0048190Y0369390D01*
X0048190Y0363100D01*
X0054410Y0363100D01*
X0054410Y0370220D01*
X0105590Y0370220D01*
X0105590Y0363100D01*
X0054410Y0363100D01*
X0055700Y0339400D02*
X0051370Y0339400D01*
X0045670Y0339400D02*
X0041330Y0339400D01*
X0035630Y0339400D02*
X0031300Y0339400D01*
X0025590Y0339400D02*
X0024210Y0339400D01*
X0024210Y0314600D01*
X0025590Y0314600D01*
X0031300Y0314600D02*
X0035630Y0314600D01*
X0041330Y0314600D02*
X0045670Y0314600D01*
X0051370Y0314600D02*
X0055700Y0314600D01*
X0061410Y0314600D02*
X0062790Y0314600D01*
X0062790Y0339400D01*
X0061410Y0339400D01*
X0061410Y0293400D02*
X0062790Y0293400D01*
X0062790Y0268600D01*
X0061410Y0268600D01*
X0055700Y0268600D02*
X0051370Y0268600D01*
X0045670Y0268600D02*
X0041330Y0268600D01*
X0035630Y0268600D02*
X0031300Y0268600D01*
X0025590Y0268600D02*
X0024210Y0268600D01*
X0024210Y0293400D01*
X0025590Y0293400D01*
X0031300Y0293400D02*
X0035630Y0293400D01*
X0041330Y0293400D02*
X0045670Y0293400D01*
X0051370Y0293400D02*
X0055700Y0293400D01*
X0105590Y0363100D02*
X0111810Y0363100D01*
X0138870Y0363820D02*
X0197130Y0363820D01*
X0197130Y0403000D01*
X0197130Y0420120D02*
X0138870Y0403000D02*
X0138870Y0363820D01*
X0082360Y0393450D02*
X0082360Y0395810D01*
X0077640Y0395810D01*
X0077640Y0399750D01*
X0082360Y0399750D01*
X0082360Y0395810D01*
X0082360Y0393450D02*
X0077640Y0393450D01*
X0077640Y0395810D01*
X0220550Y0336450D02*
X0220550Y0331920D01*
X0220550Y0336450D02*
X0239450Y0336450D01*
X0239450Y0334870D01*
X0239450Y0327980D02*
X0239450Y0326020D01*
X0239450Y0318730D02*
X0239450Y0317550D01*
X0220550Y0317550D01*
X0220550Y0322080D01*
X0047910Y0075000D02*
X0047910Y0068780D01*
X0040780Y0068780D01*
X0040780Y0041220D01*
X0047910Y0041220D01*
X0047910Y0035000D01*
X0041610Y0035000D01*
X0041610Y0036000D01*
X0017550Y0036000D01*
X0010000Y0042268D01*
X0008890Y0043190D02*
X0010000Y0067775D02*
X0017160Y0074000D01*
X0041610Y0074000D01*
X0041610Y0075000D01*
X0047910Y0075000D01*
X0047910Y0068780D02*
X0047910Y0041220D01*
X0017550Y0052640D02*
X0015190Y0052640D01*
X0015190Y0057360D01*
X0017550Y0057360D01*
X0017550Y0052640D01*
X0015190Y0052640D02*
X0011250Y0052640D01*
X0011250Y0057360D01*
X0015190Y0057360D01*
X0018500Y0099000D02*
X0017960Y0099430D01*
X0017440Y0099890D01*
X0016950Y0100380D01*
X0016480Y0100900D01*
X0016050Y0101440D01*
X0015640Y0102000D01*
X0015270Y0102590D01*
X0014930Y0103190D01*
X0014630Y0103820D01*
X0014360Y0104450D01*
X0014120Y0105110D01*
X0013920Y0105770D01*
X0013760Y0106450D01*
X0013640Y0107130D01*
X0013560Y0107820D01*
X0013510Y0108510D01*
X0013500Y0109210D01*
X0013530Y0109900D01*
X0013600Y0110590D01*
X0013710Y0111270D01*
X0013850Y0111950D01*
X0014040Y0112620D01*
X0014260Y0113280D01*
X0014510Y0113930D01*
X0014800Y0114560D01*
X0015130Y0115170D01*
X0015490Y0115760D01*
X0015880Y0116330D01*
X0016300Y0116890D01*
X0016750Y0117410D01*
X0017230Y0117910D01*
X0017740Y0118380D01*
X0018280Y0118830D01*
X0018830Y0119240D01*
X0019410Y0119620D01*
X0020010Y0119970D01*
X0020630Y0120290D01*
X0021260Y0120570D01*
X0021910Y0120810D01*
X0022570Y0121020D01*
X0023250Y0121190D01*
X0023930Y0121330D01*
X0024620Y0121420D01*
X0025310Y0121480D01*
X0026000Y0121500D01*
X0026690Y0121480D01*
X0027380Y0121420D01*
X0028070Y0121330D01*
X0028750Y0121190D01*
X0029430Y0121020D01*
X0030090Y0120810D01*
X0030740Y0120570D01*
X0031370Y0120290D01*
X0031990Y0119970D01*
X0032590Y0119620D01*
X0033170Y0119240D01*
X0033720Y0118830D01*
X0034260Y0118380D01*
X0034770Y0117910D01*
X0035250Y0117410D01*
X0035700Y0116890D01*
X0036120Y0116330D01*
X0036510Y0115760D01*
X0036870Y0115170D01*
X0037200Y0114560D01*
X0037490Y0113930D01*
X0037740Y0113280D01*
X0037960Y0112620D01*
X0038150Y0111950D01*
X0038290Y0111270D01*
X0038400Y0110590D01*
X0038470Y0109900D01*
X0038500Y0109210D01*
X0038490Y0108510D01*
X0038440Y0107820D01*
X0038360Y0107130D01*
X0038240Y0106450D01*
X0038080Y0105770D01*
X0037880Y0105110D01*
X0037640Y0104450D01*
X0037370Y0103820D01*
X0037070Y0103190D01*
X0036730Y0102590D01*
X0036360Y0102000D01*
X0035950Y0101440D01*
X0035520Y0100900D01*
X0035050Y0100380D01*
X0034560Y0099890D01*
X0034040Y0099430D01*
X0033500Y0099000D01*
D76*
X0045200Y0088110D02*
X0045200Y0086570D01*
X0045960Y0085800D01*
X0045960Y0084270D02*
X0045200Y0083500D01*
X0045200Y0081200D01*
X0049800Y0081200D01*
X0049800Y0083500D01*
X0049030Y0084270D01*
X0045960Y0084270D01*
X0047500Y0087340D02*
X0047500Y0088110D01*
X0048270Y0088870D01*
X0049030Y0088870D01*
X0049800Y0088110D01*
X0049800Y0086570D01*
X0049030Y0085800D01*
X0047500Y0088110D02*
X0046730Y0088870D01*
X0045960Y0088870D01*
X0045200Y0088110D01*
X0058960Y0073870D02*
X0058200Y0073110D01*
X0058200Y0071570D01*
X0058960Y0070800D01*
X0058960Y0069270D02*
X0062030Y0069270D01*
X0062800Y0068500D01*
X0062800Y0066200D01*
X0058200Y0066200D01*
X0058200Y0068500D01*
X0058960Y0069270D01*
X0062800Y0070800D02*
X0059730Y0073870D01*
X0058960Y0073870D01*
X0062800Y0073870D02*
X0062800Y0070800D01*
X0105700Y0075300D02*
X0105700Y0077050D01*
X0106280Y0077640D01*
X0107450Y0077640D01*
X0108030Y0077050D01*
X0108030Y0075300D01*
X0108030Y0076470D02*
X0109200Y0077640D01*
X0108620Y0078890D02*
X0109200Y0079480D01*
X0109200Y0080640D01*
X0108620Y0081230D01*
X0108030Y0081230D01*
X0107450Y0080640D01*
X0107450Y0080060D01*
X0107450Y0080640D02*
X0106860Y0081230D01*
X0106280Y0081230D01*
X0105700Y0080640D01*
X0105700Y0079480D01*
X0106280Y0078890D01*
X0105700Y0075300D02*
X0109200Y0075300D01*
X0120700Y0076300D02*
X0120700Y0078050D01*
X0121280Y0078640D01*
X0122450Y0078640D01*
X0123030Y0078050D01*
X0123030Y0076300D01*
X0123030Y0077470D02*
X0124200Y0078640D01*
X0124200Y0079890D02*
X0121860Y0082230D01*
X0121280Y0082230D01*
X0120700Y0081640D01*
X0120700Y0080480D01*
X0121280Y0079890D01*
X0124200Y0079890D02*
X0124200Y0082230D01*
X0124200Y0076300D02*
X0120700Y0076300D01*
X0149620Y0149020D02*
X0149620Y0152090D01*
X0149620Y0153620D02*
X0149620Y0155930D01*
X0150390Y0156690D01*
X0151920Y0156690D01*
X0152690Y0155930D01*
X0152690Y0153620D01*
X0154220Y0153620D02*
X0149620Y0153620D01*
X0149620Y0150550D02*
X0154220Y0150550D01*
X0153460Y0158230D02*
X0151920Y0158230D01*
X0151920Y0160530D01*
X0152690Y0161300D01*
X0153460Y0161300D01*
X0154220Y0160530D01*
X0154220Y0158990D01*
X0153460Y0158230D01*
X0151920Y0158230D02*
X0150390Y0159760D01*
X0149620Y0161300D01*
X0160620Y0160300D02*
X0160620Y0157230D01*
X0161390Y0155690D02*
X0162920Y0155690D01*
X0163690Y0154930D01*
X0163690Y0152620D01*
X0165220Y0152620D02*
X0160620Y0152620D01*
X0160620Y0154930D01*
X0161390Y0155690D01*
X0164460Y0157230D02*
X0161390Y0160300D01*
X0160620Y0160300D01*
X0164460Y0157230D02*
X0165220Y0157230D01*
X0160620Y0151090D02*
X0160620Y0148020D01*
X0160620Y0149550D02*
X0165220Y0149550D01*
X0196700Y0192240D02*
X0200530Y0192240D01*
X0201300Y0193010D01*
X0201300Y0194540D01*
X0200530Y0195310D01*
X0196700Y0195310D01*
X0199000Y0196850D02*
X0197460Y0198380D01*
X0196700Y0199920D01*
X0199000Y0199150D02*
X0199000Y0196850D01*
X0200530Y0196850D01*
X0201300Y0197610D01*
X0201300Y0199150D01*
X0200530Y0199920D01*
X0199770Y0199920D01*
X0199000Y0199150D01*
X0185990Y0213020D02*
X0185990Y0215330D01*
X0185220Y0216090D01*
X0182150Y0216090D01*
X0181390Y0215330D01*
X0181390Y0213020D01*
X0185990Y0213020D01*
X0185220Y0217630D02*
X0185990Y0218400D01*
X0185990Y0219930D01*
X0185220Y0220700D01*
X0183690Y0220700D01*
X0182920Y0219930D01*
X0182920Y0219160D01*
X0183690Y0217630D01*
X0181390Y0217630D01*
X0181390Y0220700D01*
X0178530Y0223700D02*
X0179300Y0224470D01*
X0179300Y0226000D01*
X0178530Y0226770D01*
X0178530Y0228300D02*
X0179300Y0229070D01*
X0179300Y0230610D01*
X0178530Y0231370D01*
X0177000Y0231370D01*
X0176230Y0230610D01*
X0176230Y0229840D01*
X0177000Y0228300D01*
X0174700Y0228300D01*
X0174700Y0231370D01*
X0175460Y0226770D02*
X0174700Y0226000D01*
X0174700Y0224470D01*
X0175460Y0223700D01*
X0178530Y0223700D01*
X0190460Y0239490D02*
X0193530Y0239490D01*
X0194300Y0240260D01*
X0194300Y0241790D01*
X0193530Y0242560D01*
X0193530Y0244100D02*
X0192000Y0244100D01*
X0192000Y0246400D01*
X0192770Y0247170D01*
X0193530Y0247170D01*
X0194300Y0246400D01*
X0194300Y0244860D01*
X0193530Y0244100D01*
X0192000Y0244100D02*
X0190460Y0245630D01*
X0189700Y0247170D01*
X0190460Y0242560D02*
X0189700Y0241790D01*
X0189700Y0240260D01*
X0190460Y0239490D01*
X0174030Y0264200D02*
X0174800Y0264970D01*
X0174800Y0266500D01*
X0174030Y0267270D01*
X0174800Y0268800D02*
X0174800Y0271870D01*
X0174800Y0270340D02*
X0170200Y0270340D01*
X0171730Y0268800D01*
X0170960Y0267270D02*
X0170200Y0266500D01*
X0170200Y0264970D01*
X0170960Y0264200D01*
X0174030Y0264200D01*
X0174030Y0273410D02*
X0174800Y0274180D01*
X0174800Y0275710D01*
X0174030Y0276480D01*
X0173270Y0276480D01*
X0172500Y0275710D01*
X0172500Y0274940D01*
X0172500Y0275710D02*
X0171730Y0276480D01*
X0170960Y0276480D01*
X0170200Y0275710D01*
X0170200Y0274180D01*
X0170960Y0273410D01*
X0165530Y0291230D02*
X0165530Y0294300D01*
X0165530Y0292770D02*
X0170140Y0292770D01*
X0170140Y0295840D02*
X0165530Y0295840D01*
X0165530Y0298140D01*
X0166300Y0298900D01*
X0167830Y0298900D01*
X0168600Y0298140D01*
X0168600Y0295840D01*
X0167830Y0300440D02*
X0167830Y0303510D01*
X0167830Y0305040D02*
X0167070Y0306580D01*
X0167070Y0307350D01*
X0167830Y0308110D01*
X0169370Y0308110D01*
X0170140Y0307350D01*
X0170140Y0305810D01*
X0169370Y0305040D01*
X0167830Y0305040D02*
X0165530Y0305040D01*
X0165530Y0308110D01*
X0165530Y0309650D02*
X0168600Y0309650D01*
X0170140Y0311180D01*
X0168600Y0312720D01*
X0165530Y0312720D01*
X0174200Y0303870D02*
X0174200Y0300800D01*
X0174960Y0299270D02*
X0174200Y0298500D01*
X0174200Y0296970D01*
X0174960Y0296200D01*
X0178030Y0296200D01*
X0178800Y0296970D01*
X0178800Y0298500D01*
X0178030Y0299270D01*
X0178030Y0300800D02*
X0178800Y0300800D01*
X0178030Y0300800D02*
X0174960Y0303870D01*
X0174200Y0303870D01*
X0191660Y0355200D02*
X0193200Y0356730D01*
X0194730Y0355200D02*
X0197800Y0359800D01*
X0194730Y0359800D02*
X0197800Y0355200D01*
X0193200Y0359800D02*
X0190130Y0359800D01*
X0191660Y0359800D02*
X0191660Y0355200D01*
X0209690Y0355270D02*
X0214300Y0352200D01*
X0214300Y0355270D02*
X0209690Y0352200D01*
X0211990Y0356800D02*
X0211990Y0359870D01*
X0209690Y0359110D02*
X0211990Y0356800D01*
X0209690Y0359110D02*
X0214300Y0359110D01*
X0214120Y0331670D02*
X0214120Y0328600D01*
X0211050Y0331670D01*
X0210280Y0331670D01*
X0209510Y0330900D01*
X0209510Y0329360D01*
X0210280Y0328600D01*
X0209510Y0325530D02*
X0214120Y0325530D01*
X0214120Y0327060D02*
X0214120Y0323990D01*
X0214120Y0322460D02*
X0212580Y0320920D01*
X0212580Y0321690D02*
X0212580Y0319390D01*
X0214120Y0319390D02*
X0209510Y0319390D01*
X0209510Y0321690D01*
X0210280Y0322460D01*
X0211820Y0322460D01*
X0212580Y0321690D01*
X0211050Y0323990D02*
X0209510Y0325530D01*
X0219460Y0301170D02*
X0220230Y0301170D01*
X0221000Y0300400D01*
X0221000Y0298860D01*
X0220230Y0298100D01*
X0219460Y0298100D01*
X0218700Y0298860D01*
X0218700Y0300400D01*
X0219460Y0301170D01*
X0221000Y0300400D02*
X0221770Y0301170D01*
X0222530Y0301170D01*
X0223300Y0300400D01*
X0223300Y0298860D01*
X0222530Y0298100D01*
X0221770Y0298100D01*
X0221000Y0298860D01*
X0223300Y0296560D02*
X0223300Y0293490D01*
X0223300Y0295030D02*
X0218700Y0295030D01*
X0220230Y0293490D01*
X0219460Y0291960D02*
X0218700Y0291190D01*
X0218700Y0289660D01*
X0219460Y0288890D01*
X0222530Y0288890D01*
X0223300Y0289660D01*
X0223300Y0291190D01*
X0222530Y0291960D01*
X0223460Y0264170D02*
X0226530Y0264170D01*
X0227300Y0263400D01*
X0227300Y0261860D01*
X0226530Y0261100D01*
X0223460Y0264170D01*
X0222700Y0263400D01*
X0222700Y0261860D01*
X0223460Y0261100D01*
X0226530Y0261100D01*
X0227300Y0259560D02*
X0227300Y0256490D01*
X0227300Y0258030D02*
X0222700Y0258030D01*
X0224230Y0256490D01*
X0223460Y0254960D02*
X0222700Y0254190D01*
X0222700Y0252660D01*
X0223460Y0251890D01*
X0226530Y0251890D01*
X0227300Y0252660D01*
X0227300Y0254190D01*
X0226530Y0254960D01*
X0244700Y0245210D02*
X0244700Y0243680D01*
X0245460Y0242910D01*
X0244700Y0245210D02*
X0245460Y0245980D01*
X0246230Y0245980D01*
X0249300Y0242910D01*
X0249300Y0245980D01*
X0249300Y0241370D02*
X0249300Y0238300D01*
X0249300Y0239840D02*
X0244700Y0239840D01*
X0246230Y0238300D01*
X0245460Y0236770D02*
X0244700Y0236000D01*
X0244700Y0234470D01*
X0245460Y0233700D01*
X0248530Y0233700D01*
X0249300Y0234470D01*
X0249300Y0236000D01*
X0248530Y0236770D01*
X0249300Y0215170D02*
X0249300Y0212100D01*
X0249300Y0213630D02*
X0244700Y0213630D01*
X0246230Y0212100D01*
X0249300Y0210560D02*
X0249300Y0207490D01*
X0249300Y0209030D02*
X0244700Y0209030D01*
X0246230Y0207490D01*
X0245460Y0205960D02*
X0244700Y0205190D01*
X0244700Y0203660D01*
X0245460Y0202890D01*
X0248530Y0202890D01*
X0249300Y0203660D01*
X0249300Y0205190D01*
X0248530Y0205960D01*
X0248530Y0264890D02*
X0249300Y0265660D01*
X0249300Y0267190D01*
X0248530Y0267960D01*
X0249300Y0269490D02*
X0249300Y0272560D01*
X0249300Y0271030D02*
X0244700Y0271030D01*
X0246230Y0269490D01*
X0245460Y0267960D02*
X0244700Y0267190D01*
X0244700Y0265660D01*
X0245460Y0264890D01*
X0248530Y0264890D01*
X0248530Y0274100D02*
X0249300Y0274860D01*
X0249300Y0276400D01*
X0248530Y0277170D01*
X0247770Y0277170D01*
X0247000Y0276400D01*
X0247000Y0274100D01*
X0248530Y0274100D01*
X0247000Y0274100D02*
X0245460Y0275630D01*
X0244700Y0277170D01*
X0267700Y0277210D02*
X0270000Y0274910D01*
X0270000Y0277980D01*
X0271700Y0277980D02*
X0271700Y0274910D01*
X0274000Y0274910D01*
X0273230Y0276440D01*
X0273230Y0277210D01*
X0274000Y0277980D01*
X0275530Y0277980D01*
X0276300Y0277210D01*
X0276300Y0275680D01*
X0275530Y0274910D01*
X0276300Y0273370D02*
X0276300Y0270300D01*
X0276300Y0271840D02*
X0271700Y0271840D01*
X0273230Y0270300D01*
X0272300Y0270300D02*
X0272300Y0273370D01*
X0272300Y0271840D02*
X0267700Y0271840D01*
X0269230Y0270300D01*
X0268460Y0268770D02*
X0267700Y0268000D01*
X0267700Y0266470D01*
X0268460Y0265700D01*
X0271530Y0265700D01*
X0272300Y0266470D01*
X0272300Y0268000D01*
X0271530Y0268770D01*
X0271700Y0268000D02*
X0271700Y0266470D01*
X0272460Y0265700D01*
X0275530Y0265700D01*
X0276300Y0266470D01*
X0276300Y0268000D01*
X0275530Y0268770D01*
X0272460Y0268770D02*
X0271700Y0268000D01*
X0272300Y0277210D02*
X0267700Y0277210D01*
X0272460Y0289890D02*
X0275530Y0289890D01*
X0276300Y0290660D01*
X0276300Y0292190D01*
X0275530Y0292960D01*
X0276300Y0294490D02*
X0276300Y0297560D01*
X0276300Y0296030D02*
X0271700Y0296030D01*
X0273230Y0294490D01*
X0272460Y0292960D02*
X0271700Y0292190D01*
X0271700Y0290660D01*
X0272460Y0289890D01*
X0271700Y0299100D02*
X0271700Y0302170D01*
X0272460Y0302170D01*
X0275530Y0299100D01*
X0276300Y0299100D01*
X0230000Y0319720D02*
X0229460Y0319740D01*
X0228930Y0319800D01*
X0228400Y0319900D01*
X0227880Y0320040D01*
X0227370Y0320210D01*
X0226880Y0320420D01*
X0226400Y0320670D01*
X0225940Y0320960D01*
X0225510Y0321270D01*
X0225100Y0321620D01*
X0224710Y0322000D01*
X0224360Y0322400D01*
X0224030Y0322830D01*
X0223740Y0323280D01*
X0223480Y0323760D01*
X0223260Y0324250D01*
X0223080Y0324750D01*
X0222930Y0325270D01*
X0222820Y0325790D01*
X0222750Y0326330D01*
X0222720Y0326870D01*
X0222730Y0327400D01*
X0222780Y0327940D01*
X0222870Y0328470D01*
X0223000Y0328990D01*
X0223160Y0329500D01*
X0223370Y0330000D01*
X0223610Y0330480D01*
X0223880Y0330950D01*
X0224190Y0331390D01*
X0224530Y0331800D01*
X0224900Y0332200D01*
X0225300Y0332560D01*
X0225720Y0332890D01*
X0226170Y0333190D01*
X0226640Y0333460D01*
X0227120Y0333690D01*
X0227620Y0333880D01*
X0228140Y0334040D01*
X0228660Y0334160D01*
X0229190Y0334240D01*
X0229730Y0334280D01*
X0230270Y0334280D01*
X0230810Y0334240D01*
X0231340Y0334160D01*
X0231860Y0334040D01*
X0232380Y0333880D01*
X0232880Y0333690D01*
X0233360Y0333460D01*
X0233830Y0333190D01*
X0234280Y0332890D01*
X0234700Y0332560D01*
X0235100Y0332200D01*
X0235470Y0331800D01*
X0235810Y0331390D01*
X0236120Y0330950D01*
X0236390Y0330480D01*
X0236630Y0330000D01*
X0236840Y0329500D01*
X0237000Y0328990D01*
X0237130Y0328470D01*
X0237220Y0327940D01*
X0237270Y0327400D01*
X0237280Y0326870D01*
X0237250Y0326330D01*
X0237180Y0325790D01*
X0237070Y0325270D01*
X0236920Y0324750D01*
X0236740Y0324250D01*
X0236520Y0323760D01*
X0236260Y0323280D01*
X0235970Y0322830D01*
X0235640Y0322400D01*
X0235290Y0322000D01*
X0234900Y0321620D01*
X0234490Y0321270D01*
X0234060Y0320960D01*
X0233600Y0320670D01*
X0233120Y0320420D01*
X0232630Y0320210D01*
X0232120Y0320040D01*
X0231600Y0319900D01*
X0231070Y0319800D01*
X0230540Y0319740D01*
X0230000Y0319720D01*
X0130300Y0347490D02*
X0125700Y0347490D01*
X0128000Y0348260D02*
X0130300Y0350560D01*
X0130300Y0352100D02*
X0130300Y0355170D01*
X0130300Y0353630D02*
X0125700Y0353630D01*
X0127230Y0352100D01*
X0125700Y0350560D02*
X0128770Y0347490D01*
X0079800Y0261900D02*
X0075200Y0261900D01*
X0077500Y0259600D01*
X0077500Y0262670D01*
X0079800Y0258060D02*
X0077500Y0255760D01*
X0078270Y0254990D02*
X0075200Y0258060D01*
X0075200Y0254990D02*
X0079800Y0254990D01*
X0059800Y0244110D02*
X0055200Y0244110D01*
X0057500Y0241800D01*
X0057500Y0244870D01*
X0059030Y0240270D02*
X0059800Y0239500D01*
X0059800Y0237970D01*
X0059030Y0237200D01*
X0055960Y0237200D01*
X0055200Y0237970D01*
X0055200Y0239500D01*
X0055960Y0240270D01*
X0051030Y0209870D02*
X0051800Y0209110D01*
X0051800Y0207570D01*
X0051030Y0206800D01*
X0051030Y0205270D02*
X0051800Y0204500D01*
X0051800Y0202970D01*
X0051030Y0202200D01*
X0047960Y0202200D01*
X0047200Y0202970D01*
X0047200Y0204500D01*
X0047960Y0205270D01*
X0047960Y0206800D02*
X0047200Y0207570D01*
X0047200Y0209110D01*
X0047960Y0209870D01*
X0048730Y0209870D01*
X0049500Y0209110D01*
X0050270Y0209870D01*
X0051030Y0209870D01*
X0049500Y0209110D02*
X0049500Y0208340D01*
X0034030Y0235200D02*
X0034800Y0235970D01*
X0034800Y0237500D01*
X0034030Y0238270D01*
X0034800Y0239800D02*
X0034800Y0242870D01*
X0034800Y0241340D02*
X0030200Y0241340D01*
X0031730Y0239800D01*
X0030960Y0238270D02*
X0030200Y0237500D01*
X0030200Y0235970D01*
X0030960Y0235200D01*
X0034030Y0235200D01*
X0034030Y0248200D02*
X0034800Y0248970D01*
X0034800Y0250500D01*
X0034030Y0251270D01*
X0034800Y0252800D02*
X0031730Y0255870D01*
X0030960Y0255870D01*
X0030200Y0255110D01*
X0030200Y0253570D01*
X0030960Y0252800D01*
X0030960Y0251270D02*
X0030200Y0250500D01*
X0030200Y0248970D01*
X0030960Y0248200D01*
X0034030Y0248200D01*
X0034800Y0252800D02*
X0034800Y0255870D01*
X0021800Y0269200D02*
X0017200Y0269200D01*
X0019500Y0269970D02*
X0021800Y0272270D01*
X0021030Y0273800D02*
X0021800Y0274570D01*
X0021800Y0276110D01*
X0021030Y0276870D01*
X0020270Y0276870D01*
X0019500Y0276110D01*
X0019500Y0275340D01*
X0019500Y0276110D02*
X0018730Y0276870D01*
X0017960Y0276870D01*
X0017200Y0276110D01*
X0017200Y0274570D01*
X0017960Y0273800D01*
X0017200Y0272270D02*
X0020270Y0269200D01*
X0020270Y0312990D02*
X0017200Y0316060D01*
X0017960Y0317600D02*
X0017200Y0318360D01*
X0017200Y0319900D01*
X0017960Y0320670D01*
X0018730Y0320670D01*
X0021800Y0317600D01*
X0021800Y0320670D01*
X0021800Y0316060D02*
X0019500Y0313760D01*
X0017200Y0312990D02*
X0021800Y0312990D01*
X0030000Y0218870D02*
X0030000Y0215800D01*
X0027700Y0218110D01*
X0032300Y0218110D01*
X0031530Y0214270D02*
X0028460Y0214270D01*
X0027700Y0213500D01*
X0027700Y0211200D01*
X0032300Y0211200D01*
X0032300Y0213500D01*
X0031530Y0214270D01*
X0248460Y0088700D02*
X0251530Y0088700D01*
X0252300Y0089470D01*
X0252300Y0091000D01*
X0251530Y0091770D01*
X0251530Y0093300D02*
X0252300Y0094070D01*
X0252300Y0095610D01*
X0251530Y0096370D01*
X0248460Y0096370D01*
X0247700Y0095610D01*
X0247700Y0094070D01*
X0248460Y0093300D01*
X0249230Y0093300D01*
X0250000Y0094070D01*
X0250000Y0096370D01*
X0248460Y0091770D02*
X0247700Y0091000D01*
X0247700Y0089470D01*
X0248460Y0088700D01*
X0255010Y0110170D02*
X0259610Y0110170D01*
X0259610Y0112470D01*
X0258840Y0113240D01*
X0255770Y0113240D01*
X0255010Y0112470D01*
X0255010Y0110170D01*
X0255010Y0114770D02*
X0255010Y0117840D01*
X0255770Y0117840D01*
X0258840Y0114770D01*
X0259610Y0114770D01*
X0268390Y0116700D02*
X0269150Y0115160D01*
X0270690Y0113630D01*
X0270690Y0115930D01*
X0271450Y0116700D01*
X0272220Y0116700D01*
X0272990Y0115930D01*
X0272990Y0114400D01*
X0272220Y0113630D01*
X0270690Y0113630D01*
X0272220Y0112090D02*
X0269150Y0112090D01*
X0268390Y0111330D01*
X0268390Y0109020D01*
X0272990Y0109020D01*
X0272990Y0111330D01*
X0272220Y0112090D01*
X0270530Y0096370D02*
X0271300Y0095610D01*
X0271300Y0094070D01*
X0270530Y0093300D01*
X0269770Y0093300D01*
X0269000Y0094070D01*
X0269000Y0095610D01*
X0269770Y0096370D01*
X0270530Y0096370D01*
X0269000Y0095610D02*
X0268230Y0096370D01*
X0267460Y0096370D01*
X0266700Y0095610D01*
X0266700Y0094070D01*
X0267460Y0093300D01*
X0268230Y0093300D01*
X0269000Y0094070D01*
X0270530Y0091770D02*
X0271300Y0091000D01*
X0271300Y0089470D01*
X0270530Y0088700D01*
X0267460Y0088700D01*
X0266700Y0089470D01*
X0266700Y0091000D01*
X0267460Y0091770D01*
D73*
X0064000Y0123500D03*
D22*
X0064000Y0129750D03*
X0064000Y0106250D03*
D153*
X0040000Y0218140D03*
D76*
X0151620Y0376670D02*
X0151620Y0378430D01*
X0151600Y0380390D02*
X0151600Y0383840D01*
X0151610Y0378430D02*
X0152100Y0378380D01*
X0152590Y0378360D01*
X0153080Y0378380D01*
X0153570Y0378430D01*
X0153570Y0378420D02*
X0153840Y0378440D01*
X0154100Y0378490D01*
X0154350Y0378580D01*
X0154590Y0378710D01*
X0154810Y0378860D01*
X0155010Y0379050D01*
X0155180Y0379250D01*
X0155320Y0379480D01*
X0155430Y0379730D01*
X0155500Y0379990D01*
X0155540Y0380260D01*
X0155540Y0380520D01*
X0155500Y0380790D01*
X0155430Y0381050D01*
X0155320Y0381300D01*
X0155180Y0381530D01*
X0155010Y0381730D01*
X0154810Y0381920D01*
X0154590Y0382070D01*
X0154350Y0382200D01*
X0154100Y0382290D01*
X0153840Y0382340D01*
X0153570Y0382360D01*
X0153570Y0380390D01*
X0151600Y0380390D01*
X0154560Y0376450D02*
X0154950Y0376470D01*
X0155330Y0376530D01*
X0155700Y0376620D01*
X0156070Y0376750D01*
X0156420Y0376920D01*
X0156750Y0377110D01*
X0157060Y0377340D01*
X0157350Y0377600D01*
X0157610Y0377890D01*
X0157840Y0378200D01*
X0158030Y0378530D01*
X0158200Y0378880D01*
X0158330Y0379250D01*
X0158420Y0379620D01*
X0158480Y0380000D01*
X0158500Y0380390D01*
X0158480Y0380780D01*
X0158420Y0381160D01*
X0158330Y0381530D01*
X0158200Y0381900D01*
X0158030Y0382250D01*
X0157840Y0382580D01*
X0157610Y0382890D01*
X0157350Y0383180D01*
X0157060Y0383440D01*
X0156750Y0383670D01*
X0156420Y0383860D01*
X0156070Y0384030D01*
X0155700Y0384160D01*
X0155330Y0384250D01*
X0154950Y0384310D01*
X0154560Y0384330D01*
X0159480Y0384330D02*
X0161440Y0381380D01*
X0162920Y0379900D02*
X0164400Y0379900D01*
X0164400Y0378430D01*
X0162920Y0378430D01*
X0162920Y0378420D02*
X0162770Y0378440D01*
X0162620Y0378480D01*
X0162490Y0378560D01*
X0162370Y0378660D01*
X0162280Y0378790D01*
X0162220Y0378930D01*
X0162180Y0379080D01*
X0162180Y0379240D01*
X0162220Y0379390D01*
X0162280Y0379530D01*
X0162370Y0379660D01*
X0162490Y0379760D01*
X0162620Y0379840D01*
X0162770Y0379880D01*
X0162920Y0379900D01*
X0161440Y0381380D02*
X0161140Y0381360D01*
X0160850Y0381310D01*
X0160570Y0381220D01*
X0160300Y0381100D01*
X0160040Y0380940D01*
X0159810Y0380760D01*
X0159600Y0380550D01*
X0159420Y0380320D01*
X0159260Y0380060D01*
X0159140Y0379790D01*
X0159050Y0379510D01*
X0159000Y0379220D01*
X0158980Y0378920D01*
X0159000Y0378620D01*
X0159050Y0378330D01*
X0159140Y0378050D01*
X0159260Y0377780D01*
X0159420Y0377520D01*
X0159600Y0377290D01*
X0159810Y0377080D01*
X0160040Y0376900D01*
X0160300Y0376740D01*
X0160570Y0376620D01*
X0160850Y0376530D01*
X0161140Y0376480D01*
X0161440Y0376460D01*
X0166860Y0376460D01*
X0166860Y0384330D01*
X0164400Y0384330D01*
X0164400Y0381380D01*
X0162430Y0384330D01*
X0159480Y0384330D01*
X0154550Y0376460D02*
X0153800Y0376450D01*
X0153050Y0376490D01*
X0152300Y0376560D01*
X0151560Y0376670D01*
X0151610Y0383840D02*
X0152180Y0384010D01*
X0152770Y0384150D01*
X0153360Y0384250D01*
X0153960Y0384310D01*
X0154560Y0384330D01*
X0167840Y0384330D02*
X0167840Y0382360D01*
X0172270Y0382360D01*
X0172270Y0381380D01*
X0167840Y0381380D01*
X0167840Y0379410D01*
X0172270Y0379410D01*
X0172270Y0378430D01*
X0167840Y0378430D01*
X0167840Y0376460D01*
X0174730Y0376460D01*
X0174730Y0384330D01*
X0167840Y0384330D01*
X0177690Y0384330D02*
X0180640Y0384330D01*
X0177690Y0382360D01*
X0177690Y0384330D02*
X0177420Y0384310D01*
X0177160Y0384260D01*
X0176910Y0384170D01*
X0176670Y0384040D01*
X0176450Y0383890D01*
X0176250Y0383700D01*
X0176080Y0383500D01*
X0175940Y0383270D01*
X0175830Y0383020D01*
X0175760Y0382760D01*
X0175720Y0382490D01*
X0175720Y0382230D01*
X0175760Y0381960D01*
X0175830Y0381700D01*
X0175940Y0381450D01*
X0176080Y0381220D01*
X0176250Y0381020D01*
X0176450Y0380830D01*
X0176670Y0380680D01*
X0176910Y0380550D01*
X0177160Y0380460D01*
X0177420Y0380410D01*
X0177690Y0380390D01*
X0177690Y0380400D02*
X0177420Y0380380D01*
X0177160Y0380330D01*
X0176910Y0380240D01*
X0176670Y0380110D01*
X0176450Y0379960D01*
X0176250Y0379770D01*
X0176080Y0379570D01*
X0175940Y0379340D01*
X0175830Y0379090D01*
X0175760Y0378830D01*
X0175720Y0378560D01*
X0175720Y0378300D01*
X0175760Y0378030D01*
X0175830Y0377770D01*
X0175940Y0377520D01*
X0176080Y0377290D01*
X0176250Y0377090D01*
X0176450Y0376900D01*
X0176670Y0376750D01*
X0176910Y0376620D01*
X0177160Y0376530D01*
X0177420Y0376480D01*
X0177690Y0376460D01*
X0180640Y0376460D01*
X0177690Y0378430D01*
X0180640Y0380390D01*
X0177690Y0382360D01*
X0180640Y0380390D02*
X0180640Y0376460D01*
X0183100Y0376460D01*
X0183100Y0384330D01*
X0180640Y0384330D01*
X0180640Y0380390D01*
X0264120Y0264810D02*
X0264120Y0263340D01*
X0265220Y0263340D01*
X0264860Y0264070D01*
X0264860Y0264440D01*
X0265220Y0264810D01*
X0265960Y0264810D01*
X0266320Y0264440D01*
X0266320Y0263710D01*
X0265960Y0263340D01*
X0265220Y0262600D02*
X0265590Y0262230D01*
X0265590Y0261130D01*
X0266320Y0261130D02*
X0264120Y0261130D01*
X0264120Y0262230D01*
X0264490Y0262600D01*
X0265220Y0262600D01*
X0264120Y0260390D02*
X0264120Y0258920D01*
X0264120Y0259650D02*
X0266320Y0259650D01*
X0272120Y0259650D02*
X0274320Y0259650D01*
X0274320Y0261130D02*
X0272120Y0261130D01*
X0272120Y0262230D01*
X0272490Y0262600D01*
X0273220Y0262600D01*
X0273590Y0262230D01*
X0273590Y0261130D01*
X0272120Y0260390D02*
X0272120Y0258920D01*
X0273220Y0263340D02*
X0273220Y0264810D01*
X0272120Y0264440D02*
X0273220Y0263340D01*
X0274320Y0264440D02*
X0272120Y0264440D01*
X0265960Y0232810D02*
X0266320Y0232440D01*
X0266320Y0231710D01*
X0265960Y0231340D01*
X0265220Y0232070D02*
X0265220Y0232440D01*
X0265590Y0232810D01*
X0265960Y0232810D01*
X0265220Y0232440D02*
X0264860Y0232810D01*
X0264490Y0232810D01*
X0264120Y0232440D01*
X0264120Y0231710D01*
X0264490Y0231340D01*
X0264490Y0230600D02*
X0265220Y0230600D01*
X0265590Y0230230D01*
X0265590Y0229130D01*
X0266320Y0229130D02*
X0264120Y0229130D01*
X0264120Y0230230D01*
X0264490Y0230600D01*
X0264120Y0228390D02*
X0264120Y0226920D01*
X0264120Y0227650D02*
X0266320Y0227650D01*
X0266320Y0204810D02*
X0266320Y0203340D01*
X0264860Y0204810D01*
X0264490Y0204810D01*
X0264120Y0204440D01*
X0264120Y0203710D01*
X0264490Y0203340D01*
X0264490Y0202600D02*
X0265220Y0202600D01*
X0265590Y0202230D01*
X0265590Y0201130D01*
X0266320Y0201130D02*
X0264120Y0201130D01*
X0264120Y0202230D01*
X0264490Y0202600D01*
X0264120Y0200390D02*
X0264120Y0198920D01*
X0264120Y0199650D02*
X0266320Y0199650D01*
D76*
X0182950Y0386480D02*
X0182950Y0387980D01*
X0181950Y0387980D01*
X0182450Y0387230D02*
X0182950Y0387230D01*
X0182950Y0386480D02*
X0181950Y0386480D01*
X0180000Y0386480D02*
X0180000Y0387980D01*
X0179000Y0387980D01*
X0177060Y0387980D02*
X0176060Y0387980D01*
X0176560Y0387230D02*
X0177060Y0387230D01*
X0177060Y0386480D02*
X0177060Y0387980D01*
X0177060Y0386480D02*
X0176060Y0386480D01*
X0174110Y0386730D02*
X0174110Y0387730D01*
X0173860Y0387980D01*
X0173360Y0387980D01*
X0173110Y0387730D01*
X0173110Y0386730D02*
X0173360Y0386480D01*
X0173860Y0386480D01*
X0174110Y0386730D01*
X0171160Y0386480D02*
X0170160Y0386480D01*
X0170660Y0386480D02*
X0170660Y0387980D01*
X0168220Y0387980D02*
X0168220Y0386480D01*
X0167470Y0386480D01*
X0167220Y0386730D01*
X0167220Y0387230D01*
X0167470Y0387480D01*
X0168220Y0387480D01*
X0167720Y0387480D02*
X0167220Y0387980D01*
X0165270Y0387730D02*
X0165020Y0387980D01*
X0164520Y0387980D01*
X0164270Y0387730D01*
X0164270Y0386730D01*
X0164520Y0386480D01*
X0165020Y0386480D01*
X0165270Y0386730D01*
X0165270Y0387730D01*
X0162320Y0387980D02*
X0162320Y0386480D01*
X0161320Y0387980D01*
X0161320Y0386480D01*
X0159380Y0386480D02*
X0158880Y0386480D01*
X0159130Y0386480D02*
X0159130Y0387980D01*
X0159380Y0387980D02*
X0158880Y0387980D01*
X0156920Y0387730D02*
X0156670Y0387980D01*
X0156170Y0387980D01*
X0155920Y0387730D01*
X0155920Y0386730D02*
X0156170Y0386480D01*
X0156670Y0386480D01*
X0156920Y0386730D01*
X0156920Y0387730D01*
X0153980Y0387730D02*
X0153730Y0387980D01*
X0153230Y0387980D01*
X0152980Y0387730D01*
X0152980Y0387480D01*
X0153230Y0387230D01*
X0153730Y0387230D01*
X0153980Y0386980D01*
X0153980Y0386730D01*
X0153730Y0386480D01*
X0153230Y0386480D01*
X0152980Y0386730D01*
D154*
X0138500Y0334000D03*
X0138500Y0289000D03*
X0071000Y0289000D03*
X0071000Y0331500D03*
D155*
X0071000Y0335250D03*
X0071000Y0314750D03*
X0071000Y0292750D03*
X0071000Y0272250D03*
X0138500Y0272250D03*
X0138500Y0292750D03*
X0138500Y0317250D03*
X0138500Y0337750D03*
D20*
X0230000Y0327100D03*
D101*
X0230100Y0327000D03*
D14*
X0254500Y0315000D02*
X0255500Y0315000D01*
X0246500Y0155000D02*
X0245500Y0155000D01*
X0245500Y0145000D02*
X0246500Y0145000D01*
X0266500Y0145000D02*
X0267500Y0145000D01*
X0266500Y0154000D02*
X0265500Y0154000D01*
X0266000Y0077500D02*
X0266000Y0076500D01*
X0254000Y0076500D02*
X0254000Y0077500D01*
X0092500Y0108000D02*
X0091500Y0108000D01*
X0090500Y0056000D02*
X0089500Y0056000D01*
D76*
X0177610Y0012450D02*
X0181810Y0012450D01*
X0179710Y0012450D02*
X0179710Y0010000D01*
X0179710Y0006150D02*
X0184060Y0010000D02*
X0184060Y0012450D01*
X0185693Y0010000D01*
X0188260Y0006150D02*
X0188260Y0010000D02*
X0188260Y0012450D01*
X0190500Y0011400D02*
X0190500Y0010000D01*
X0190500Y0007200D02*
X0194700Y0010000D02*
X0194700Y0011400D01*
X0193650Y0012450D01*
X0191550Y0012450D01*
X0190500Y0011400D01*
X0196950Y0011400D02*
X0198000Y0012450D01*
X0200100Y0012450D01*
X0201150Y0011400D01*
X0201150Y0010000D01*
X0201150Y0007200D02*
X0178150Y0206160D02*
X0178150Y0208260D01*
X0178150Y0207210D02*
X0171840Y0207210D01*
X0171840Y0206160D02*
X0171840Y0208260D01*
X0172900Y0210460D02*
X0171840Y0211510D01*
X0171840Y0213610D01*
X0172900Y0214660D01*
X0173950Y0216910D02*
X0171840Y0219010D01*
X0178150Y0219010D01*
X0178150Y0216910D02*
X0178150Y0221110D01*
X0177100Y0214660D02*
X0178150Y0213610D01*
X0178150Y0211510D01*
X0177100Y0210460D01*
X0172900Y0210460D01*
D92*
X0126120Y0288090D03*
X0126120Y0335590D03*
X0058620Y0334090D03*
X0058620Y0288090D03*
D151*
X0199000Y0039400D03*
D152*
X0198250Y0038650D03*
X0199750Y0038650D03*
D30*
X0199000Y0040200D03*
D76*
X0010400Y0010400D02*
X0010400Y0403400D01*
X0010400Y0403400D02*
X0285600Y0403400D01*
X0285600Y0010400D01*
X0285600Y0010400D02*
X0010400Y0010400D01*
X0010000Y0409250D02*
G75*
%LPD*%
D76*
X0010000Y0409250D02*
X0010000Y0639560D01*
X0285590Y0639560D01*
X0285590Y0409250D01*
X0010000Y0409250D01*
X0015790Y0422310D02*
X0015810Y0422810D01*
X0015870Y0423310D01*
X0015970Y0423800D01*
X0016110Y0424280D01*
X0016280Y0424750D01*
X0016490Y0425200D01*
X0016740Y0425640D01*
X0017020Y0426050D01*
X0017340Y0426440D01*
X0017680Y0426810D01*
X0018050Y0427150D01*
X0018450Y0427450D01*
X0018870Y0427720D01*
X0019310Y0427960D01*
X0019770Y0428170D01*
X0020240Y0428330D01*
X0020720Y0428460D01*
X0021220Y0428550D01*
X0021710Y0428600D01*
X0022220Y0428610D01*
X0022720Y0428580D01*
X0023210Y0428510D01*
X0023700Y0428400D01*
X0024180Y0428250D01*
X0024640Y0428070D01*
X0025090Y0427850D01*
X0025520Y0427590D01*
X0025930Y0427300D01*
X0026320Y0426980D01*
X0026680Y0426630D01*
X0027000Y0426250D01*
X0027300Y0425850D01*
X0027570Y0425420D01*
X0027800Y0424980D01*
X0027990Y0424520D01*
X0028150Y0424040D01*
X0028270Y0423550D01*
X0028350Y0423060D01*
X0028390Y0422560D01*
X0028390Y0422060D01*
X0028350Y0421560D01*
X0028270Y0421070D01*
X0028150Y0420580D01*
X0027990Y0420100D01*
X0027800Y0419640D01*
X0027570Y0419200D01*
X0027300Y0418770D01*
X0027000Y0418370D01*
X0026680Y0417990D01*
X0026320Y0417640D01*
X0025930Y0417320D01*
X0025520Y0417030D01*
X0025090Y0416770D01*
X0024640Y0416550D01*
X0024180Y0416370D01*
X0023700Y0416220D01*
X0023210Y0416110D01*
X0022720Y0416040D01*
X0022220Y0416010D01*
X0021710Y0416020D01*
X0021220Y0416070D01*
X0020720Y0416160D01*
X0020240Y0416290D01*
X0019770Y0416450D01*
X0019310Y0416660D01*
X0018870Y0416900D01*
X0018450Y0417170D01*
X0018050Y0417470D01*
X0017680Y0417810D01*
X0017340Y0418180D01*
X0017020Y0418570D01*
X0016740Y0418980D01*
X0016490Y0419420D01*
X0016280Y0419870D01*
X0016110Y0420340D01*
X0015970Y0420820D01*
X0015870Y0421310D01*
X0015810Y0421810D01*
X0015790Y0422310D01*
X0019090Y0504250D02*
X0019110Y0504730D01*
X0019170Y0505210D01*
X0019270Y0505680D01*
X0019400Y0506140D01*
X0019580Y0506590D01*
X0019780Y0507030D01*
X0020030Y0507450D01*
X0020310Y0507840D01*
X0020610Y0508210D01*
X0020950Y0508550D01*
X0021320Y0508870D01*
X0021700Y0509160D01*
X0022110Y0509410D01*
X0022540Y0509630D01*
X0022990Y0509810D01*
X0023450Y0509950D01*
X0023920Y0510060D01*
X0024400Y0510130D01*
X0024880Y0510160D01*
X0025360Y0510150D01*
X0025840Y0510100D01*
X0026320Y0510010D01*
X0026780Y0509890D01*
X0027230Y0509720D01*
X0027670Y0509520D01*
X0028090Y0509290D01*
X0028490Y0509020D01*
X0028870Y0508720D01*
X0029220Y0508390D01*
X0029540Y0508030D01*
X0029840Y0507650D01*
X0030100Y0507240D01*
X0030320Y0506810D01*
X0030520Y0506370D01*
X0030670Y0505920D01*
X0030790Y0505450D01*
X0030870Y0504970D01*
X0030910Y0504490D01*
X0030910Y0504010D01*
X0030870Y0503530D01*
X0030790Y0503050D01*
X0030670Y0502580D01*
X0030520Y0502130D01*
X0030320Y0501690D01*
X0030100Y0501260D01*
X0029840Y0500850D01*
X0029540Y0500470D01*
X0029220Y0500110D01*
X0028870Y0499780D01*
X0028490Y0499480D01*
X0028090Y0499210D01*
X0027670Y0498980D01*
X0027230Y0498780D01*
X0026780Y0498610D01*
X0026320Y0498490D01*
X0025840Y0498400D01*
X0025360Y0498350D01*
X0024880Y0498340D01*
X0024400Y0498370D01*
X0023920Y0498440D01*
X0023450Y0498550D01*
X0022990Y0498690D01*
X0022540Y0498870D01*
X0022110Y0499090D01*
X0021700Y0499340D01*
X0021320Y0499630D01*
X0020950Y0499950D01*
X0020610Y0500290D01*
X0020310Y0500660D01*
X0020030Y0501050D01*
X0019780Y0501470D01*
X0019580Y0501910D01*
X0019400Y0502360D01*
X0019270Y0502820D01*
X0019170Y0503290D01*
X0019110Y0503770D01*
X0019090Y0504250D01*
X0019090Y0549250D02*
X0019110Y0549730D01*
X0019170Y0550210D01*
X0019270Y0550680D01*
X0019400Y0551140D01*
X0019580Y0551590D01*
X0019780Y0552030D01*
X0020030Y0552450D01*
X0020310Y0552840D01*
X0020610Y0553210D01*
X0020950Y0553550D01*
X0021320Y0553870D01*
X0021700Y0554160D01*
X0022110Y0554410D01*
X0022540Y0554630D01*
X0022990Y0554810D01*
X0023450Y0554950D01*
X0023920Y0555060D01*
X0024400Y0555130D01*
X0024880Y0555160D01*
X0025360Y0555150D01*
X0025840Y0555100D01*
X0026320Y0555010D01*
X0026780Y0554890D01*
X0027230Y0554720D01*
X0027670Y0554520D01*
X0028090Y0554290D01*
X0028490Y0554020D01*
X0028870Y0553720D01*
X0029220Y0553390D01*
X0029540Y0553030D01*
X0029840Y0552650D01*
X0030100Y0552240D01*
X0030320Y0551810D01*
X0030520Y0551370D01*
X0030670Y0550920D01*
X0030790Y0550450D01*
X0030870Y0549970D01*
X0030910Y0549490D01*
X0030910Y0549010D01*
X0030870Y0548530D01*
X0030790Y0548050D01*
X0030670Y0547580D01*
X0030520Y0547130D01*
X0030320Y0546690D01*
X0030100Y0546260D01*
X0029840Y0545850D01*
X0029540Y0545470D01*
X0029220Y0545110D01*
X0028870Y0544780D01*
X0028490Y0544480D01*
X0028090Y0544210D01*
X0027670Y0543980D01*
X0027230Y0543780D01*
X0026780Y0543610D01*
X0026320Y0543490D01*
X0025840Y0543400D01*
X0025360Y0543350D01*
X0024880Y0543340D01*
X0024400Y0543370D01*
X0023920Y0543440D01*
X0023450Y0543550D01*
X0022990Y0543690D01*
X0022540Y0543870D01*
X0022110Y0544090D01*
X0021700Y0544340D01*
X0021320Y0544630D01*
X0020950Y0544950D01*
X0020610Y0545290D01*
X0020310Y0545660D01*
X0020030Y0546050D01*
X0019780Y0546470D01*
X0019580Y0546910D01*
X0019400Y0547360D01*
X0019270Y0547820D01*
X0019170Y0548290D01*
X0019110Y0548770D01*
X0019090Y0549250D01*
X0019090Y0594250D02*
X0019110Y0594730D01*
X0019170Y0595210D01*
X0019270Y0595680D01*
X0019400Y0596140D01*
X0019580Y0596590D01*
X0019780Y0597030D01*
X0020030Y0597450D01*
X0020310Y0597840D01*
X0020610Y0598210D01*
X0020950Y0598550D01*
X0021320Y0598870D01*
X0021700Y0599160D01*
X0022110Y0599410D01*
X0022540Y0599630D01*
X0022990Y0599810D01*
X0023450Y0599950D01*
X0023920Y0600060D01*
X0024400Y0600130D01*
X0024880Y0600160D01*
X0025360Y0600150D01*
X0025840Y0600100D01*
X0026320Y0600010D01*
X0026780Y0599890D01*
X0027230Y0599720D01*
X0027670Y0599520D01*
X0028090Y0599290D01*
X0028490Y0599020D01*
X0028870Y0598720D01*
X0029220Y0598390D01*
X0029540Y0598030D01*
X0029840Y0597650D01*
X0030100Y0597240D01*
X0030320Y0596810D01*
X0030520Y0596370D01*
X0030670Y0595920D01*
X0030790Y0595450D01*
X0030870Y0594970D01*
X0030910Y0594490D01*
X0030910Y0594010D01*
X0030870Y0593530D01*
X0030790Y0593050D01*
X0030670Y0592580D01*
X0030520Y0592130D01*
X0030320Y0591690D01*
X0030100Y0591260D01*
X0029840Y0590850D01*
X0029540Y0590470D01*
X0029220Y0590110D01*
X0028870Y0589780D01*
X0028490Y0589480D01*
X0028090Y0589210D01*
X0027670Y0588980D01*
X0027230Y0588780D01*
X0026780Y0588610D01*
X0026320Y0588490D01*
X0025840Y0588400D01*
X0025360Y0588350D01*
X0024880Y0588340D01*
X0024400Y0588370D01*
X0023920Y0588440D01*
X0023450Y0588550D01*
X0022990Y0588690D01*
X0022540Y0588870D01*
X0022110Y0589090D01*
X0021700Y0589340D01*
X0021320Y0589630D01*
X0020950Y0589950D01*
X0020610Y0590290D01*
X0020310Y0590660D01*
X0020030Y0591050D01*
X0019780Y0591470D01*
X0019580Y0591910D01*
X0019400Y0592360D01*
X0019270Y0592820D01*
X0019170Y0593290D01*
X0019110Y0593770D01*
X0019090Y0594250D01*
X0015760Y0628280D02*
X0015780Y0628780D01*
X0015840Y0629280D01*
X0015940Y0629770D01*
X0016080Y0630250D01*
X0016250Y0630720D01*
X0016460Y0631170D01*
X0016710Y0631610D01*
X0016990Y0632020D01*
X0017310Y0632410D01*
X0017650Y0632780D01*
X0018020Y0633120D01*
X0018420Y0633420D01*
X0018840Y0633690D01*
X0019280Y0633930D01*
X0019740Y0634140D01*
X0020210Y0634300D01*
X0020690Y0634430D01*
X0021190Y0634520D01*
X0021680Y0634570D01*
X0022190Y0634580D01*
X0022690Y0634550D01*
X0023180Y0634480D01*
X0023670Y0634370D01*
X0024150Y0634220D01*
X0024610Y0634040D01*
X0025060Y0633820D01*
X0025490Y0633560D01*
X0025900Y0633270D01*
X0026290Y0632950D01*
X0026650Y0632600D01*
X0026970Y0632220D01*
X0027270Y0631820D01*
X0027540Y0631390D01*
X0027770Y0630950D01*
X0027960Y0630490D01*
X0028120Y0630010D01*
X0028240Y0629520D01*
X0028320Y0629030D01*
X0028360Y0628530D01*
X0028360Y0628030D01*
X0028320Y0627530D01*
X0028240Y0627040D01*
X0028120Y0626550D01*
X0027960Y0626070D01*
X0027770Y0625610D01*
X0027540Y0625170D01*
X0027270Y0624740D01*
X0026970Y0624340D01*
X0026650Y0623960D01*
X0026290Y0623610D01*
X0025900Y0623290D01*
X0025490Y0623000D01*
X0025060Y0622740D01*
X0024610Y0622520D01*
X0024150Y0622340D01*
X0023670Y0622190D01*
X0023180Y0622080D01*
X0022690Y0622010D01*
X0022190Y0621980D01*
X0021680Y0621990D01*
X0021190Y0622040D01*
X0020690Y0622130D01*
X0020210Y0622260D01*
X0019740Y0622420D01*
X0019280Y0622630D01*
X0018840Y0622870D01*
X0018420Y0623140D01*
X0018020Y0623440D01*
X0017650Y0623780D01*
X0017310Y0624150D01*
X0016990Y0624540D01*
X0016710Y0624950D01*
X0016460Y0625390D01*
X0016250Y0625840D01*
X0016080Y0626310D01*
X0015940Y0626790D01*
X0015840Y0627280D01*
X0015780Y0627780D01*
X0015760Y0628280D01*
X0118800Y0628850D02*
X0118820Y0628640D01*
X0118870Y0628440D01*
X0118960Y0628250D01*
X0119080Y0628080D01*
X0119230Y0627930D01*
X0119400Y0627810D01*
X0119590Y0627720D01*
X0119790Y0627670D01*
X0120000Y0627650D01*
X0120210Y0627670D01*
X0120410Y0627720D01*
X0120600Y0627810D01*
X0120770Y0627930D01*
X0120920Y0628080D01*
X0121040Y0628250D01*
X0121130Y0628440D01*
X0121180Y0628640D01*
X0121200Y0628850D01*
X0264090Y0604250D02*
X0264110Y0604730D01*
X0264170Y0605210D01*
X0264270Y0605680D01*
X0264400Y0606140D01*
X0264580Y0606590D01*
X0264780Y0607030D01*
X0265030Y0607450D01*
X0265310Y0607840D01*
X0265610Y0608210D01*
X0265950Y0608550D01*
X0266320Y0608870D01*
X0266700Y0609160D01*
X0267110Y0609410D01*
X0267540Y0609630D01*
X0267990Y0609810D01*
X0268450Y0609950D01*
X0268920Y0610060D01*
X0269400Y0610130D01*
X0269880Y0610160D01*
X0270360Y0610150D01*
X0270840Y0610100D01*
X0271320Y0610010D01*
X0271780Y0609890D01*
X0272230Y0609720D01*
X0272670Y0609520D01*
X0273090Y0609290D01*
X0273490Y0609020D01*
X0273870Y0608720D01*
X0274220Y0608390D01*
X0274540Y0608030D01*
X0274840Y0607650D01*
X0275100Y0607240D01*
X0275320Y0606810D01*
X0275520Y0606370D01*
X0275670Y0605920D01*
X0275790Y0605450D01*
X0275870Y0604970D01*
X0275910Y0604490D01*
X0275910Y0604010D01*
X0275870Y0603530D01*
X0275790Y0603050D01*
X0275670Y0602580D01*
X0275520Y0602130D01*
X0275320Y0601690D01*
X0275100Y0601260D01*
X0274840Y0600850D01*
X0274540Y0600470D01*
X0274220Y0600110D01*
X0273870Y0599780D01*
X0273490Y0599480D01*
X0273090Y0599210D01*
X0272670Y0598980D01*
X0272230Y0598780D01*
X0271780Y0598610D01*
X0271320Y0598490D01*
X0270840Y0598400D01*
X0270360Y0598350D01*
X0269880Y0598340D01*
X0269400Y0598370D01*
X0268920Y0598440D01*
X0268450Y0598550D01*
X0267990Y0598690D01*
X0267540Y0598870D01*
X0267110Y0599090D01*
X0266700Y0599340D01*
X0266320Y0599630D01*
X0265950Y0599950D01*
X0265610Y0600290D01*
X0265310Y0600660D01*
X0265030Y0601050D01*
X0264780Y0601470D01*
X0264580Y0601910D01*
X0264400Y0602360D01*
X0264270Y0602820D01*
X0264170Y0603290D01*
X0264110Y0603770D01*
X0264090Y0604250D01*
X0266570Y0627280D02*
X0266590Y0627780D01*
X0266650Y0628280D01*
X0266750Y0628770D01*
X0266890Y0629250D01*
X0267060Y0629720D01*
X0267270Y0630170D01*
X0267520Y0630610D01*
X0267800Y0631020D01*
X0268120Y0631410D01*
X0268460Y0631780D01*
X0268830Y0632120D01*
X0269230Y0632420D01*
X0269650Y0632690D01*
X0270090Y0632930D01*
X0270550Y0633140D01*
X0271020Y0633300D01*
X0271500Y0633430D01*
X0272000Y0633520D01*
X0272490Y0633570D01*
X0273000Y0633580D01*
X0273500Y0633550D01*
X0273990Y0633480D01*
X0274480Y0633370D01*
X0274960Y0633220D01*
X0275420Y0633040D01*
X0275870Y0632820D01*
X0276300Y0632560D01*
X0276710Y0632270D01*
X0277100Y0631950D01*
X0277460Y0631600D01*
X0277780Y0631220D01*
X0278080Y0630820D01*
X0278350Y0630390D01*
X0278580Y0629950D01*
X0278770Y0629490D01*
X0278930Y0629010D01*
X0279050Y0628520D01*
X0279130Y0628030D01*
X0279170Y0627530D01*
X0279170Y0627030D01*
X0279130Y0626530D01*
X0279050Y0626040D01*
X0278930Y0625550D01*
X0278770Y0625070D01*
X0278580Y0624610D01*
X0278350Y0624170D01*
X0278080Y0623740D01*
X0277780Y0623340D01*
X0277460Y0622960D01*
X0277100Y0622610D01*
X0276710Y0622290D01*
X0276300Y0622000D01*
X0275870Y0621740D01*
X0275420Y0621520D01*
X0274960Y0621340D01*
X0274480Y0621190D01*
X0273990Y0621080D01*
X0273500Y0621010D01*
X0273000Y0620980D01*
X0272490Y0620990D01*
X0272000Y0621040D01*
X0271500Y0621130D01*
X0271020Y0621260D01*
X0270550Y0621420D01*
X0270090Y0621630D01*
X0269650Y0621870D01*
X0269230Y0622140D01*
X0268830Y0622440D01*
X0268460Y0622780D01*
X0268120Y0623150D01*
X0267800Y0623540D01*
X0267520Y0623950D01*
X0267270Y0624390D01*
X0267060Y0624840D01*
X0266890Y0625310D01*
X0266750Y0625790D01*
X0266650Y0626280D01*
X0266590Y0626780D01*
X0266570Y0627280D01*
X0261590Y0446750D02*
X0261610Y0447230D01*
X0261670Y0447710D01*
X0261770Y0448180D01*
X0261900Y0448640D01*
X0262080Y0449090D01*
X0262280Y0449530D01*
X0262530Y0449950D01*
X0262810Y0450340D01*
X0263110Y0450710D01*
X0263450Y0451050D01*
X0263820Y0451370D01*
X0264200Y0451660D01*
X0264610Y0451910D01*
X0265040Y0452130D01*
X0265490Y0452310D01*
X0265950Y0452450D01*
X0266420Y0452560D01*
X0266900Y0452630D01*
X0267380Y0452660D01*
X0267860Y0452650D01*
X0268340Y0452600D01*
X0268820Y0452510D01*
X0269280Y0452390D01*
X0269730Y0452220D01*
X0270170Y0452020D01*
X0270590Y0451790D01*
X0270990Y0451520D01*
X0271370Y0451220D01*
X0271720Y0450890D01*
X0272040Y0450530D01*
X0272340Y0450150D01*
X0272600Y0449740D01*
X0272820Y0449310D01*
X0273020Y0448870D01*
X0273170Y0448420D01*
X0273290Y0447950D01*
X0273370Y0447470D01*
X0273410Y0446990D01*
X0273410Y0446510D01*
X0273370Y0446030D01*
X0273290Y0445550D01*
X0273170Y0445080D01*
X0273020Y0444630D01*
X0272820Y0444190D01*
X0272600Y0443760D01*
X0272340Y0443350D01*
X0272040Y0442970D01*
X0271720Y0442610D01*
X0271370Y0442280D01*
X0270990Y0441980D01*
X0270590Y0441710D01*
X0270170Y0441480D01*
X0269730Y0441280D01*
X0269280Y0441110D01*
X0268820Y0440990D01*
X0268340Y0440900D01*
X0267860Y0440850D01*
X0267380Y0440840D01*
X0266900Y0440870D01*
X0266420Y0440940D01*
X0265950Y0441050D01*
X0265490Y0441190D01*
X0265040Y0441370D01*
X0264610Y0441590D01*
X0264200Y0441840D01*
X0263820Y0442130D01*
X0263450Y0442450D01*
X0263110Y0442790D01*
X0262810Y0443160D01*
X0262530Y0443550D01*
X0262280Y0443970D01*
X0262080Y0444410D01*
X0261900Y0444860D01*
X0261770Y0445320D01*
X0261670Y0445790D01*
X0261610Y0446270D01*
X0261590Y0446750D01*
X0267630Y0421310D02*
X0267650Y0421810D01*
X0267710Y0422310D01*
X0267810Y0422800D01*
X0267950Y0423280D01*
X0268120Y0423750D01*
X0268330Y0424200D01*
X0268580Y0424640D01*
X0268860Y0425050D01*
X0269180Y0425440D01*
X0269520Y0425810D01*
X0269890Y0426150D01*
X0270290Y0426450D01*
X0270710Y0426720D01*
X0271150Y0426960D01*
X0271610Y0427170D01*
X0272080Y0427330D01*
X0272560Y0427460D01*
X0273060Y0427550D01*
X0273550Y0427600D01*
X0274060Y0427610D01*
X0274560Y0427580D01*
X0275050Y0427510D01*
X0275540Y0427400D01*
X0276020Y0427250D01*
X0276480Y0427070D01*
X0276930Y0426850D01*
X0277360Y0426590D01*
X0277770Y0426300D01*
X0278160Y0425980D01*
X0278520Y0425630D01*
X0278840Y0425250D01*
X0279140Y0424850D01*
X0279410Y0424420D01*
X0279640Y0423980D01*
X0279830Y0423520D01*
X0279990Y0423040D01*
X0280110Y0422550D01*
X0280190Y0422060D01*
X0280230Y0421560D01*
X0280230Y0421060D01*
X0280190Y0420560D01*
X0280110Y0420070D01*
X0279990Y0419580D01*
X0279830Y0419100D01*
X0279640Y0418640D01*
X0279410Y0418200D01*
X0279140Y0417770D01*
X0278840Y0417370D01*
X0278520Y0416990D01*
X0278160Y0416640D01*
X0277770Y0416320D01*
X0277360Y0416030D01*
X0276930Y0415770D01*
X0276480Y0415550D01*
X0276020Y0415370D01*
X0275540Y0415220D01*
X0275050Y0415110D01*
X0274560Y0415040D01*
X0274060Y0415010D01*
X0273550Y0415020D01*
X0273060Y0415070D01*
X0272560Y0415160D01*
X0272080Y0415290D01*
X0271610Y0415450D01*
X0271150Y0415660D01*
X0270710Y0415900D01*
X0270290Y0416170D01*
X0269890Y0416470D01*
X0269520Y0416810D01*
X0269180Y0417180D01*
X0268860Y0417570D01*
X0268580Y0417980D01*
X0268330Y0418420D01*
X0268120Y0418870D01*
X0267950Y0419340D01*
X0267810Y0419820D01*
X0267710Y0420310D01*
X0267650Y0420810D01*
X0267630Y0421310D01*
D76*
X0222110Y0444450D02*
X0222110Y0513950D01*
X0192880Y0513950D01*
X0192880Y0444450D01*
X0222110Y0444450D01*
X0253700Y0469250D02*
X0253700Y0472750D01*
X0259000Y0472750D01*
X0259000Y0469250D01*
X0265000Y0469250D01*
X0270000Y0469250D01*
X0276000Y0469250D01*
X0281200Y0469250D01*
X0281200Y0472750D01*
X0281200Y0479250D01*
X0281200Y0559250D01*
X0281200Y0565750D01*
X0281200Y0569150D01*
X0276000Y0569150D01*
X0270000Y0569150D01*
X0265000Y0569150D01*
X0259000Y0569150D01*
X0253700Y0569150D01*
X0253700Y0565750D01*
X0253700Y0559250D01*
X0253700Y0479250D01*
X0253700Y0472750D01*
X0253700Y0469250D02*
X0259000Y0469250D01*
X0265000Y0469250D02*
X0265000Y0472750D01*
X0270000Y0472750D01*
X0270000Y0469250D01*
X0271090Y0475050D02*
X0269290Y0476850D01*
X0274700Y0476850D01*
X0274700Y0475050D02*
X0274700Y0478650D01*
X0276700Y0482550D02*
X0280000Y0484250D01*
X0279000Y0484250D01*
X0280000Y0484250D02*
X0276700Y0485950D01*
X0276700Y0482550D01*
X0281200Y0479250D02*
X0283900Y0479250D01*
X0283900Y0559250D01*
X0281200Y0559250D01*
X0281200Y0565750D02*
X0276000Y0565750D01*
X0276000Y0569150D01*
X0270000Y0569150D02*
X0270000Y0565750D01*
X0265000Y0565750D01*
X0265000Y0569150D01*
X0259000Y0569150D02*
X0259000Y0565750D01*
X0253700Y0565750D01*
X0253700Y0559250D02*
X0230000Y0559250D01*
X0237500Y0544250D01*
X0230000Y0524250D01*
X0233000Y0509250D01*
X0230000Y0479250D01*
X0253700Y0479250D01*
X0276000Y0472750D02*
X0276000Y0469250D01*
X0276000Y0472750D02*
X0281200Y0472750D01*
X0218400Y0524850D02*
X0216600Y0524850D01*
X0214800Y0528650D02*
X0214800Y0529850D01*
X0216600Y0533650D02*
X0218400Y0533650D01*
X0216500Y0540250D02*
X0215000Y0540250D01*
X0214500Y0540750D01*
X0200500Y0540750D01*
X0200000Y0540250D01*
X0198500Y0540250D01*
X0198330Y0540270D01*
X0198160Y0540310D01*
X0198000Y0540380D01*
X0197860Y0540480D01*
X0197730Y0540610D01*
X0197630Y0540750D01*
X0197560Y0540910D01*
X0197520Y0541080D01*
X0197500Y0541250D01*
X0197500Y0547250D01*
X0197520Y0547420D01*
X0197560Y0547590D01*
X0197630Y0547750D01*
X0197730Y0547890D01*
X0197860Y0548020D01*
X0198000Y0548120D01*
X0198160Y0548190D01*
X0198330Y0548230D01*
X0198500Y0548250D01*
X0200000Y0548250D01*
X0200500Y0547750D01*
X0214500Y0547750D01*
X0215000Y0548250D01*
X0216500Y0548250D01*
X0216670Y0548230D01*
X0216840Y0548190D01*
X0217000Y0548120D01*
X0217140Y0548020D01*
X0217270Y0547890D01*
X0217370Y0547750D01*
X0217440Y0547590D01*
X0217480Y0547420D01*
X0217500Y0547250D01*
X0217500Y0541250D01*
X0217480Y0541080D01*
X0217440Y0540910D01*
X0217370Y0540750D01*
X0217270Y0540610D01*
X0217140Y0540480D01*
X0217000Y0540380D01*
X0216840Y0540310D01*
X0216670Y0540270D01*
X0216500Y0540250D01*
X0200200Y0529850D02*
X0200200Y0528650D01*
X0198400Y0524850D02*
X0196600Y0524850D01*
X0196600Y0533650D02*
X0198400Y0533650D01*
X0193000Y0510250D02*
X0193020Y0510540D01*
X0193080Y0510820D01*
X0193170Y0511090D01*
X0193310Y0511340D01*
X0193470Y0511580D01*
X0193670Y0511780D01*
X0193890Y0511970D01*
X0194130Y0512110D01*
X0194400Y0512230D01*
X0194670Y0512310D01*
X0194960Y0512350D01*
X0195240Y0512350D01*
X0195530Y0512310D01*
X0195800Y0512230D01*
X0196070Y0512110D01*
X0196310Y0511970D01*
X0196530Y0511780D01*
X0196730Y0511580D01*
X0196890Y0511340D01*
X0197030Y0511090D01*
X0197120Y0510820D01*
X0197180Y0510540D01*
X0197200Y0510250D01*
X0197180Y0509960D01*
X0197120Y0509680D01*
X0197030Y0509410D01*
X0196890Y0509160D01*
X0196730Y0508920D01*
X0196530Y0508720D01*
X0196310Y0508530D01*
X0196070Y0508390D01*
X0195800Y0508270D01*
X0195530Y0508190D01*
X0195240Y0508150D01*
X0194960Y0508150D01*
X0194670Y0508190D01*
X0194400Y0508270D01*
X0194130Y0508390D01*
X0193890Y0508530D01*
X0193670Y0508720D01*
X0193470Y0508920D01*
X0193310Y0509160D01*
X0193170Y0509410D01*
X0193080Y0509680D01*
X0193020Y0509960D01*
X0193000Y0510250D01*
X0158900Y0534950D02*
X0158900Y0535650D01*
X0158900Y0534950D02*
X0141100Y0534950D01*
X0141100Y0535650D01*
X0134400Y0547750D02*
X0130400Y0547750D01*
X0121500Y0523250D02*
X0120000Y0523250D01*
X0119500Y0522750D01*
X0105500Y0522750D01*
X0105000Y0523250D01*
X0103500Y0523250D01*
X0103330Y0523230D01*
X0103160Y0523190D01*
X0103000Y0523120D01*
X0102860Y0523020D01*
X0102730Y0522890D01*
X0102630Y0522750D01*
X0102560Y0522590D01*
X0102520Y0522420D01*
X0102500Y0522250D01*
X0102500Y0516250D01*
X0102520Y0516080D01*
X0102560Y0515910D01*
X0102630Y0515750D01*
X0102730Y0515610D01*
X0102860Y0515480D01*
X0103000Y0515380D01*
X0103160Y0515310D01*
X0103330Y0515270D01*
X0103500Y0515250D01*
X0105000Y0515250D01*
X0105500Y0515750D01*
X0119500Y0515750D01*
X0120000Y0515250D01*
X0121500Y0515250D01*
X0121670Y0515270D01*
X0121840Y0515310D01*
X0122000Y0515380D01*
X0122140Y0515480D01*
X0122270Y0515610D01*
X0122370Y0515750D01*
X0122440Y0515910D01*
X0122480Y0516080D01*
X0122500Y0516250D01*
X0122500Y0522250D01*
X0122480Y0522420D01*
X0122440Y0522590D01*
X0122370Y0522750D01*
X0122270Y0522890D01*
X0122140Y0523020D01*
X0122000Y0523120D01*
X0121840Y0523190D01*
X0121670Y0523230D01*
X0121500Y0523250D01*
X0121500Y0508250D02*
X0120000Y0508250D01*
X0119500Y0507750D01*
X0105500Y0507750D01*
X0105000Y0508250D01*
X0103500Y0508250D01*
X0103330Y0508230D01*
X0103160Y0508190D01*
X0103000Y0508120D01*
X0102860Y0508020D01*
X0102730Y0507890D01*
X0102630Y0507750D01*
X0102560Y0507590D01*
X0102520Y0507420D01*
X0102500Y0507250D01*
X0102500Y0501250D01*
X0102520Y0501080D01*
X0102560Y0500910D01*
X0102630Y0500750D01*
X0102730Y0500610D01*
X0102860Y0500480D01*
X0103000Y0500380D01*
X0103160Y0500310D01*
X0103330Y0500270D01*
X0103500Y0500250D01*
X0105000Y0500250D01*
X0105500Y0500750D01*
X0119500Y0500750D01*
X0120000Y0500250D01*
X0121500Y0500250D01*
X0121670Y0500270D01*
X0121840Y0500310D01*
X0122000Y0500380D01*
X0122140Y0500480D01*
X0122270Y0500610D01*
X0122370Y0500750D01*
X0122440Y0500910D01*
X0122480Y0501080D01*
X0122500Y0501250D01*
X0122500Y0507250D01*
X0122480Y0507420D01*
X0122440Y0507590D01*
X0122370Y0507750D01*
X0122270Y0507890D01*
X0122140Y0508020D01*
X0122000Y0508120D01*
X0121840Y0508190D01*
X0121670Y0508230D01*
X0121500Y0508250D01*
X0151600Y0505050D02*
X0153400Y0505050D01*
X0155300Y0508650D02*
X0155300Y0509850D01*
X0153400Y0513450D02*
X0151600Y0513450D01*
X0152000Y0512350D02*
X0152190Y0512280D01*
X0152400Y0512240D01*
X0152600Y0512240D01*
X0152810Y0512280D01*
X0153000Y0512350D01*
X0165600Y0550250D02*
X0169600Y0550250D01*
X0158900Y0572850D02*
X0158900Y0573550D01*
X0151200Y0573550D01*
X0148800Y0573550D01*
X0141100Y0573550D01*
X0141100Y0572850D01*
X0148800Y0573550D02*
X0148820Y0573340D01*
X0148870Y0573140D01*
X0148960Y0572950D01*
X0149080Y0572780D01*
X0149230Y0572630D01*
X0149400Y0572510D01*
X0149590Y0572420D01*
X0149790Y0572370D01*
X0150000Y0572350D01*
X0150210Y0572370D01*
X0150410Y0572420D01*
X0150600Y0572510D01*
X0150770Y0572630D01*
X0150920Y0572780D01*
X0151040Y0572950D01*
X0151130Y0573140D01*
X0151180Y0573340D01*
X0151200Y0573550D01*
X0126600Y0609650D02*
X0113400Y0609650D01*
X0113400Y0628850D02*
X0118800Y0628850D01*
X0121200Y0628850D01*
X0126600Y0628850D01*
X0070000Y0617250D02*
X0070000Y0601250D01*
X0060000Y0601250D01*
X0060000Y0617250D01*
X0070000Y0617250D01*
X0065000Y0611750D02*
X0065000Y0609250D01*
X0062500Y0609250D01*
X0065000Y0609250D02*
X0067500Y0609250D01*
X0065000Y0609250D02*
X0067500Y0605250D01*
X0062500Y0605250D01*
X0065000Y0609250D01*
X0065000Y0603250D01*
X0072100Y0544050D02*
X0076300Y0544050D01*
X0078700Y0544050D01*
X0082900Y0544050D01*
X0078700Y0544050D02*
X0078680Y0543840D01*
X0078630Y0543640D01*
X0078540Y0543450D01*
X0078420Y0543280D01*
X0078270Y0543130D01*
X0078100Y0543010D01*
X0077910Y0542920D01*
X0077710Y0542870D01*
X0077500Y0542850D01*
X0077290Y0542870D01*
X0077090Y0542920D01*
X0076900Y0543010D01*
X0076730Y0543130D01*
X0076580Y0543280D01*
X0076460Y0543450D01*
X0076370Y0543640D01*
X0076320Y0543840D01*
X0076300Y0544050D01*
X0072100Y0524450D02*
X0082900Y0524450D01*
X0082900Y0514050D02*
X0078700Y0514050D01*
X0076300Y0514050D01*
X0072100Y0514050D01*
X0076300Y0514050D02*
X0076320Y0513840D01*
X0076370Y0513640D01*
X0076460Y0513450D01*
X0076580Y0513280D01*
X0076730Y0513130D01*
X0076900Y0513010D01*
X0077090Y0512920D01*
X0077290Y0512870D01*
X0077500Y0512850D01*
X0077710Y0512870D01*
X0077910Y0512920D01*
X0078100Y0513010D01*
X0078270Y0513130D01*
X0078420Y0513280D01*
X0078540Y0513450D01*
X0078630Y0513640D01*
X0078680Y0513840D01*
X0078700Y0514050D01*
X0082900Y0494450D02*
X0072100Y0494450D01*
X0126010Y0464270D02*
X0143980Y0464270D01*
X0143980Y0434230D01*
X0126010Y0434230D01*
X0126010Y0464270D01*
X0128400Y0460770D02*
X0128420Y0461030D01*
X0128480Y0461290D01*
X0128570Y0461530D01*
X0128700Y0461760D01*
X0128860Y0461970D01*
X0129050Y0462150D01*
X0129260Y0462310D01*
X0129500Y0462430D01*
X0129740Y0462510D01*
X0130000Y0462560D01*
X0130270Y0462570D01*
X0130530Y0462540D01*
X0130780Y0462470D01*
X0131020Y0462370D01*
X0131250Y0462230D01*
X0131450Y0462070D01*
X0131620Y0461870D01*
X0131770Y0461650D01*
X0131880Y0461410D01*
X0131960Y0461160D01*
X0132000Y0460900D01*
X0132000Y0460640D01*
X0131960Y0460380D01*
X0131880Y0460130D01*
X0131770Y0459890D01*
X0131620Y0459670D01*
X0131450Y0459470D01*
X0131250Y0459310D01*
X0131020Y0459170D01*
X0130780Y0459070D01*
X0130530Y0459000D01*
X0130270Y0458970D01*
X0130000Y0458980D01*
X0129740Y0459030D01*
X0129500Y0459110D01*
X0129260Y0459230D01*
X0129050Y0459390D01*
X0128860Y0459570D01*
X0128700Y0459780D01*
X0128570Y0460010D01*
X0128480Y0460250D01*
X0128420Y0460510D01*
X0128400Y0460770D01*
X0193900Y0606750D02*
X0193900Y0608050D01*
X0193900Y0610450D01*
X0193900Y0611750D01*
X0193900Y0610450D02*
X0194110Y0610430D01*
X0194310Y0610380D01*
X0194500Y0610290D01*
X0194670Y0610170D01*
X0194820Y0610020D01*
X0194940Y0609850D01*
X0195030Y0609660D01*
X0195080Y0609460D01*
X0195100Y0609250D01*
X0195080Y0609040D01*
X0195030Y0608840D01*
X0194940Y0608650D01*
X0194820Y0608480D01*
X0194670Y0608330D01*
X0194500Y0608210D01*
X0194310Y0608120D01*
X0194110Y0608070D01*
X0193900Y0608050D01*
X0198700Y0612750D02*
X0201300Y0612750D01*
X0206100Y0611750D02*
X0206100Y0606750D01*
D76*
X0193660Y0603840D02*
X0190530Y0600700D01*
X0192090Y0600700D02*
X0192090Y0603840D01*
X0190530Y0603840D02*
X0193660Y0600700D01*
X0193660Y0602270D02*
X0190530Y0602270D01*
X0138480Y0575820D02*
X0135350Y0572680D01*
X0136910Y0572680D02*
X0136910Y0575820D01*
X0135350Y0575820D02*
X0138480Y0572680D01*
X0138480Y0574250D02*
X0135350Y0574250D01*
X0190550Y0536720D02*
X0193680Y0533580D01*
X0192110Y0533580D02*
X0192110Y0536720D01*
X0193680Y0536720D02*
X0190550Y0533580D01*
X0190550Y0535150D02*
X0193680Y0535150D01*
X0221310Y0524920D02*
X0224450Y0521780D01*
X0224450Y0523350D02*
X0221310Y0523350D01*
X0221310Y0521780D02*
X0224450Y0524920D01*
X0222880Y0524920D02*
X0222880Y0521780D01*
X0148380Y0516720D02*
X0145250Y0513580D01*
X0146810Y0513580D02*
X0146810Y0516720D01*
X0145250Y0516720D02*
X0148380Y0513580D01*
X0148380Y0515150D02*
X0145250Y0515150D01*
X0067780Y0514380D02*
X0064650Y0517520D01*
X0066210Y0517520D02*
X0066210Y0514380D01*
X0064650Y0514380D02*
X0067780Y0517520D01*
X0067780Y0515950D02*
X0064650Y0515950D01*
X0064650Y0544380D02*
X0067780Y0547520D01*
X0066210Y0547520D02*
X0066210Y0544380D01*
X0067780Y0544380D02*
X0064650Y0547520D01*
X0064650Y0545950D02*
X0067780Y0545950D01*
X0106450Y0629280D02*
X0109580Y0632420D01*
X0108010Y0632420D02*
X0108010Y0629280D01*
X0109580Y0629280D02*
X0106450Y0632420D01*
X0106450Y0630850D02*
X0109580Y0630850D01*
D76*
X0112190Y0630680D02*
X0112940Y0629930D01*
X0114440Y0629930D01*
X0115190Y0630680D01*
X0115190Y0634440D01*
X0116790Y0632930D02*
X0118290Y0634440D01*
X0118290Y0629930D01*
X0116790Y0629930D02*
X0119790Y0629930D01*
X0112190Y0630680D02*
X0112190Y0634440D01*
X0059850Y0620610D02*
X0056850Y0620610D01*
X0058350Y0620610D02*
X0058350Y0625110D01*
X0056850Y0623610D01*
X0055250Y0624360D02*
X0055250Y0621360D01*
X0054500Y0620610D01*
X0052250Y0620610D01*
X0052250Y0625110D01*
X0054500Y0625110D01*
X0055250Y0624360D01*
X0069190Y0581710D02*
X0072460Y0581710D01*
X0072460Y0571870D01*
X0072810Y0571870D01*
X0072810Y0581470D01*
X0072460Y0581710D02*
X0085530Y0581710D01*
X0085530Y0571870D01*
X0072810Y0571870D01*
X0072460Y0571870D02*
X0069190Y0571870D01*
X0069190Y0581710D01*
X0069460Y0566630D02*
X0082180Y0566630D01*
X0082180Y0557030D01*
X0082540Y0556790D02*
X0082540Y0566630D01*
X0082180Y0566630D01*
X0082540Y0566630D02*
X0085800Y0566630D01*
X0085800Y0556790D01*
X0082540Y0556790D01*
X0069460Y0556790D01*
X0069460Y0566630D01*
X0072020Y0550600D02*
X0072020Y0546850D01*
X0072770Y0546090D01*
X0074270Y0546090D01*
X0075020Y0546850D01*
X0075020Y0550600D01*
X0076620Y0549850D02*
X0077370Y0550600D01*
X0078880Y0550600D01*
X0079630Y0549850D01*
X0079630Y0549100D01*
X0076620Y0546090D01*
X0079630Y0546090D01*
X0076910Y0520600D02*
X0075410Y0520600D01*
X0074660Y0519850D01*
X0073050Y0520600D02*
X0073050Y0516850D01*
X0072300Y0516090D01*
X0070800Y0516090D01*
X0070050Y0516850D01*
X0070050Y0520600D01*
X0074660Y0516850D02*
X0075410Y0516090D01*
X0076910Y0516090D01*
X0077660Y0516850D01*
X0077660Y0517600D01*
X0076910Y0518350D01*
X0076160Y0518350D01*
X0076910Y0518350D02*
X0077660Y0519100D01*
X0077660Y0519850D01*
X0076910Y0520600D01*
X0141550Y0576750D02*
X0142300Y0576000D01*
X0143800Y0576000D01*
X0144550Y0576750D01*
X0144550Y0580500D01*
X0146160Y0578250D02*
X0149160Y0578250D01*
X0148410Y0576000D02*
X0148410Y0580500D01*
X0146160Y0578250D01*
X0141550Y0576750D02*
X0141550Y0580500D01*
X0168700Y0604530D02*
X0168700Y0626060D01*
X0190670Y0626060D01*
X0190700Y0630510D02*
X0168700Y0630510D01*
X0168700Y0626060D01*
X0190700Y0630510D02*
X0190700Y0604530D01*
X0168700Y0604530D01*
X0175000Y0583900D02*
X0191330Y0591570D01*
X0191340Y0591580D02*
X0191940Y0592000D01*
X0192570Y0592400D01*
X0193220Y0592770D01*
X0193880Y0593100D01*
X0194570Y0593390D01*
X0195260Y0593650D01*
X0195970Y0593880D01*
X0196690Y0594070D01*
X0197410Y0594220D01*
X0198150Y0594330D01*
X0198890Y0594410D01*
X0199630Y0594450D01*
X0200370Y0594450D01*
X0201110Y0594410D01*
X0201850Y0594330D01*
X0202590Y0594220D01*
X0203310Y0594070D01*
X0204030Y0593880D01*
X0204740Y0593650D01*
X0205430Y0593390D01*
X0206120Y0593100D01*
X0206780Y0592770D01*
X0207430Y0592400D01*
X0208060Y0592000D01*
X0208660Y0591580D01*
X0208660Y0591570D02*
X0225000Y0584290D01*
X0214500Y0598640D02*
X0213000Y0598640D01*
X0212250Y0599390D01*
X0212250Y0600890D01*
X0214500Y0600890D01*
X0215250Y0600140D01*
X0215250Y0599390D01*
X0214500Y0598640D01*
X0212250Y0600890D02*
X0213750Y0602390D01*
X0215250Y0603150D01*
X0210650Y0603150D02*
X0210650Y0599390D01*
X0209900Y0598640D01*
X0208400Y0598640D01*
X0207650Y0599390D01*
X0207650Y0603150D01*
X0213050Y0615670D02*
X0214550Y0615670D01*
X0215300Y0616420D01*
X0216900Y0615670D02*
X0219910Y0615670D01*
X0218400Y0615670D02*
X0218400Y0620170D01*
X0216900Y0618670D01*
X0215300Y0619420D02*
X0214550Y0620170D01*
X0213050Y0620170D01*
X0212300Y0619420D01*
X0212300Y0616420D01*
X0213050Y0615670D01*
X0221510Y0616420D02*
X0222260Y0615670D01*
X0223760Y0615670D01*
X0224510Y0616420D01*
X0224510Y0617170D01*
X0223760Y0617920D01*
X0223010Y0617920D01*
X0223760Y0617920D02*
X0224510Y0618670D01*
X0224510Y0619420D01*
X0223760Y0620170D01*
X0222260Y0620170D01*
X0221510Y0619420D01*
X0208660Y0556920D02*
X0207990Y0556520D01*
X0207310Y0556160D01*
X0206610Y0555820D01*
X0205890Y0555520D01*
X0205170Y0555260D01*
X0204420Y0555030D01*
X0203670Y0554840D01*
X0202920Y0554680D01*
X0202150Y0554560D01*
X0201380Y0554480D01*
X0200600Y0554430D01*
X0199830Y0554420D01*
X0199060Y0554450D01*
X0198280Y0554510D01*
X0197510Y0554620D01*
X0196750Y0554760D01*
X0196000Y0554930D01*
X0195250Y0555140D01*
X0194520Y0555390D01*
X0193800Y0555670D01*
X0193090Y0555990D01*
X0192400Y0556340D01*
X0191720Y0556730D01*
X0191330Y0556930D02*
X0175000Y0564410D01*
X0208660Y0556930D02*
X0225000Y0564410D01*
X0224800Y0553300D02*
X0223300Y0553300D01*
X0222550Y0552550D01*
X0220950Y0552550D02*
X0220950Y0551050D01*
X0220200Y0550300D01*
X0217950Y0550300D01*
X0219450Y0550300D02*
X0220950Y0548800D01*
X0222550Y0548800D02*
X0225550Y0551800D01*
X0225550Y0552550D01*
X0224800Y0553300D01*
X0227150Y0552550D02*
X0227900Y0553300D01*
X0229410Y0553300D01*
X0230160Y0552550D01*
X0230160Y0551800D01*
X0227150Y0548800D01*
X0230160Y0548800D01*
X0225550Y0548800D02*
X0222550Y0548800D01*
X0220950Y0552550D02*
X0220200Y0553300D01*
X0217950Y0553300D01*
X0217950Y0548800D01*
X0220150Y0539260D02*
X0220150Y0535500D01*
X0220900Y0534750D01*
X0222410Y0534750D01*
X0223160Y0535500D01*
X0223160Y0539260D01*
X0224760Y0538510D02*
X0224760Y0537750D01*
X0225510Y0537000D01*
X0227010Y0537000D01*
X0227760Y0536250D01*
X0227760Y0535500D01*
X0227010Y0534750D01*
X0225510Y0534750D01*
X0224760Y0535500D01*
X0224760Y0536250D01*
X0225510Y0537000D01*
X0227010Y0537000D02*
X0227760Y0537750D01*
X0227760Y0538510D01*
X0227010Y0539260D01*
X0225510Y0539260D01*
X0224760Y0538510D01*
X0246740Y0528760D02*
X0246740Y0526500D01*
X0251250Y0526500D01*
X0249740Y0526500D02*
X0249740Y0528760D01*
X0248990Y0529510D01*
X0247490Y0529510D01*
X0246740Y0528760D01*
X0246740Y0524900D02*
X0247490Y0523400D01*
X0248990Y0521900D01*
X0248990Y0524150D01*
X0249740Y0524900D01*
X0250500Y0524900D01*
X0251250Y0524150D01*
X0251250Y0522650D01*
X0250500Y0521900D01*
X0248990Y0521900D01*
X0251250Y0520300D02*
X0251250Y0517300D01*
X0251250Y0518800D02*
X0246740Y0518800D01*
X0248240Y0517300D01*
X0248990Y0511090D02*
X0249740Y0511090D01*
X0249740Y0508090D01*
X0248990Y0508090D02*
X0248240Y0508840D01*
X0248240Y0510340D01*
X0248990Y0511090D01*
X0251250Y0510340D02*
X0251250Y0508840D01*
X0250500Y0508090D01*
X0248990Y0508090D01*
X0251250Y0506520D02*
X0251250Y0505020D01*
X0251250Y0505770D02*
X0246740Y0505770D01*
X0246740Y0505020D01*
X0248990Y0503420D02*
X0248240Y0502670D01*
X0248240Y0500420D01*
X0246740Y0500420D02*
X0251250Y0500420D01*
X0251250Y0502670D01*
X0250500Y0503420D01*
X0248990Y0503420D01*
X0248990Y0498810D02*
X0251250Y0498810D01*
X0251250Y0496560D01*
X0250500Y0495810D01*
X0249740Y0496560D01*
X0249740Y0498810D01*
X0248990Y0498810D02*
X0248240Y0498060D01*
X0248240Y0496560D01*
X0247490Y0494210D02*
X0246740Y0493460D01*
X0246740Y0491960D01*
X0247490Y0491210D01*
X0250500Y0491210D01*
X0251250Y0491960D01*
X0251250Y0493460D01*
X0250500Y0494210D01*
X0248990Y0489610D02*
X0248990Y0486600D01*
X0248990Y0485000D02*
X0249740Y0484250D01*
X0249740Y0482000D01*
X0249740Y0483500D02*
X0251250Y0485000D01*
X0248990Y0485000D02*
X0247490Y0485000D01*
X0246740Y0484250D01*
X0246740Y0482000D01*
X0251250Y0482000D01*
X0202420Y0515500D02*
X0199420Y0515500D01*
X0200920Y0515500D02*
X0200920Y0520000D01*
X0199420Y0518500D01*
X0197820Y0519250D02*
X0197070Y0520000D01*
X0195570Y0520000D01*
X0194820Y0519250D01*
X0194820Y0516250D01*
X0195570Y0515500D01*
X0197070Y0515500D01*
X0197820Y0516250D01*
X0193250Y0515500D02*
X0191750Y0515500D01*
X0192500Y0515500D02*
X0192500Y0520000D01*
X0191750Y0520000D02*
X0193250Y0520000D01*
X0186470Y0524590D02*
X0186470Y0525350D01*
X0189470Y0528350D01*
X0189470Y0529100D01*
X0186470Y0529100D01*
X0184860Y0529100D02*
X0184860Y0525350D01*
X0184110Y0524590D01*
X0182610Y0524590D01*
X0181860Y0525350D01*
X0181860Y0529100D01*
X0158560Y0520070D02*
X0155560Y0520070D01*
X0155560Y0517810D01*
X0157060Y0518570D01*
X0157810Y0518570D01*
X0158560Y0517810D01*
X0158560Y0516310D01*
X0157810Y0515560D01*
X0156310Y0515560D01*
X0155560Y0516310D01*
X0153960Y0516310D02*
X0153960Y0520070D01*
X0150960Y0520070D02*
X0150960Y0516310D01*
X0151710Y0515560D01*
X0153210Y0515560D01*
X0153960Y0516310D01*
X0063150Y0434110D02*
X0056850Y0434110D01*
X0056850Y0429390D01*
X0063150Y0429390D01*
X0063150Y0434110D01*
D15*
X0101750Y0504250D03*
X0101750Y0519250D03*
X0123250Y0519250D03*
X0123250Y0504250D03*
X0196750Y0544250D03*
X0218250Y0544250D03*
D76*
X0185130Y0549070D02*
X0185130Y0552140D01*
X0184360Y0552900D01*
X0182820Y0552900D01*
X0182060Y0552140D01*
X0182060Y0551370D01*
X0182820Y0550600D01*
X0185130Y0550600D01*
X0185130Y0549070D02*
X0184360Y0548300D01*
X0182820Y0548300D01*
X0182060Y0549070D01*
X0180520Y0548300D02*
X0177450Y0548300D01*
X0178990Y0548300D02*
X0178990Y0552900D01*
X0177450Y0551370D01*
X0175920Y0552140D02*
X0175150Y0552900D01*
X0173620Y0552900D01*
X0172850Y0552140D01*
X0172850Y0549070D01*
X0173620Y0548300D01*
X0175150Y0548300D01*
X0175920Y0549070D01*
X0173500Y0525590D02*
X0170430Y0525590D01*
X0168900Y0524820D02*
X0168130Y0525590D01*
X0166590Y0525590D01*
X0165830Y0524820D01*
X0165830Y0521750D01*
X0166590Y0520990D01*
X0168130Y0520990D01*
X0168900Y0521750D01*
X0170430Y0521750D02*
X0170430Y0520990D01*
X0170430Y0521750D02*
X0173500Y0524820D01*
X0173500Y0525590D01*
X0136360Y0523900D02*
X0133290Y0523900D01*
X0133290Y0521590D01*
X0134820Y0522360D01*
X0135590Y0522360D01*
X0136360Y0521590D01*
X0136360Y0520060D01*
X0135590Y0519290D01*
X0134060Y0519290D01*
X0133290Y0520060D01*
X0131750Y0520060D02*
X0130990Y0519290D01*
X0129450Y0519290D01*
X0128680Y0520060D01*
X0128680Y0523130D01*
X0129450Y0523900D01*
X0130990Y0523900D01*
X0131750Y0523130D01*
X0108770Y0525580D02*
X0108180Y0524990D01*
X0107020Y0524990D01*
X0106430Y0525580D01*
X0105180Y0524990D02*
X0104010Y0526160D01*
X0104590Y0526160D02*
X0102840Y0526160D01*
X0102840Y0524990D02*
X0102840Y0528500D01*
X0104590Y0528500D01*
X0105180Y0527910D01*
X0105180Y0526740D01*
X0104590Y0526160D01*
X0106430Y0527910D02*
X0107020Y0528500D01*
X0108180Y0528500D01*
X0108770Y0527910D01*
X0108770Y0527330D01*
X0108180Y0526740D01*
X0108770Y0526160D01*
X0108770Y0525580D01*
X0108180Y0526740D02*
X0107600Y0526740D01*
X0107590Y0498740D02*
X0105840Y0496990D01*
X0108180Y0496990D01*
X0107590Y0495240D02*
X0107590Y0498740D01*
X0104590Y0498150D02*
X0104590Y0496990D01*
X0104000Y0496400D01*
X0102250Y0496400D01*
X0102250Y0495240D02*
X0102250Y0498740D01*
X0104000Y0498740D01*
X0104590Y0498150D01*
X0103420Y0496400D02*
X0104590Y0495240D01*
X0105370Y0491550D02*
X0103830Y0490790D01*
X0102300Y0489250D01*
X0104600Y0489250D01*
X0105370Y0488480D01*
X0105370Y0487720D01*
X0104600Y0486950D01*
X0103070Y0486950D01*
X0102300Y0487720D01*
X0102300Y0489250D01*
X0100770Y0487720D02*
X0100000Y0486950D01*
X0098460Y0486950D01*
X0097700Y0487720D01*
X0097700Y0490790D01*
X0098460Y0491550D01*
X0100000Y0491550D01*
X0100770Y0490790D01*
X0127350Y0483030D02*
X0127350Y0479970D01*
X0128120Y0479200D01*
X0129650Y0479200D01*
X0130420Y0479970D01*
X0131960Y0479200D02*
X0135030Y0479200D01*
X0133490Y0479200D02*
X0133490Y0483800D01*
X0131960Y0482270D01*
X0130420Y0483030D02*
X0129650Y0483800D01*
X0128120Y0483800D01*
X0127350Y0483030D01*
X0136560Y0483800D02*
X0136560Y0481500D01*
X0138100Y0482270D01*
X0138860Y0482270D01*
X0139630Y0481500D01*
X0139630Y0479970D01*
X0138860Y0479200D01*
X0137330Y0479200D01*
X0136560Y0479970D01*
X0136560Y0483800D02*
X0139630Y0483800D01*
X0159920Y0470530D02*
X0159920Y0467470D01*
X0160680Y0466700D01*
X0162220Y0466700D01*
X0162980Y0467470D01*
X0164520Y0466700D02*
X0167590Y0466700D01*
X0166050Y0466700D02*
X0166050Y0471300D01*
X0164520Y0469770D01*
X0162980Y0470530D02*
X0162220Y0471300D01*
X0160680Y0471300D01*
X0159920Y0470530D01*
X0169120Y0470530D02*
X0169120Y0469770D01*
X0169890Y0469000D01*
X0171430Y0469000D01*
X0172190Y0468230D01*
X0172190Y0467470D01*
X0171430Y0466700D01*
X0169890Y0466700D01*
X0169120Y0467470D01*
X0169120Y0468230D01*
X0169890Y0469000D01*
X0171430Y0469000D02*
X0172190Y0469770D01*
X0172190Y0470530D01*
X0171430Y0471300D01*
X0169890Y0471300D01*
X0169120Y0470530D01*
X0167610Y0457210D02*
X0167610Y0452610D01*
X0166080Y0452610D02*
X0169150Y0452610D01*
X0170680Y0452610D02*
X0170680Y0453370D01*
X0173750Y0456440D01*
X0173750Y0457210D01*
X0170680Y0457210D01*
X0167610Y0457210D02*
X0166080Y0455680D01*
X0164540Y0456440D02*
X0163780Y0457210D01*
X0162240Y0457210D01*
X0161480Y0456440D01*
X0161480Y0453370D01*
X0162240Y0452610D01*
X0163780Y0452610D01*
X0164540Y0453370D01*
X0177240Y0437650D02*
X0176480Y0436880D01*
X0176480Y0433810D01*
X0177240Y0433040D01*
X0178780Y0433040D01*
X0179540Y0433810D01*
X0181080Y0433040D02*
X0184150Y0433040D01*
X0182610Y0433040D02*
X0182610Y0437650D01*
X0181080Y0436110D01*
X0179540Y0436880D02*
X0178780Y0437650D01*
X0177240Y0437650D01*
X0185680Y0435350D02*
X0187990Y0435350D01*
X0188750Y0434580D01*
X0188750Y0433810D01*
X0187990Y0433040D01*
X0186450Y0433040D01*
X0185680Y0433810D01*
X0185680Y0435350D01*
X0187220Y0436880D01*
X0188750Y0437650D01*
X0187990Y0425150D02*
X0185680Y0422850D01*
X0188750Y0422850D01*
X0187990Y0425150D02*
X0187990Y0420540D01*
X0184150Y0420540D02*
X0181080Y0420540D01*
X0182610Y0420540D02*
X0182610Y0425150D01*
X0181080Y0423610D01*
X0179540Y0424380D02*
X0178780Y0425150D01*
X0177240Y0425150D01*
X0176480Y0424380D01*
X0176480Y0421310D01*
X0177240Y0420540D01*
X0178780Y0420540D01*
X0179540Y0421310D01*
X0136760Y0428570D02*
X0134360Y0428570D01*
X0135560Y0428570D02*
X0135560Y0432170D01*
X0134360Y0430970D01*
X0133080Y0431570D02*
X0132480Y0432170D01*
X0131280Y0432170D01*
X0130680Y0431570D01*
X0130680Y0430970D01*
X0131280Y0430370D01*
X0132480Y0430370D01*
X0133080Y0429770D01*
X0133080Y0429170D01*
X0132480Y0428570D01*
X0131280Y0428570D01*
X0130680Y0429170D01*
X0129400Y0429170D02*
X0129400Y0432170D01*
X0127000Y0432170D02*
X0127000Y0429170D01*
X0127600Y0428570D01*
X0128800Y0428570D01*
X0129400Y0429170D01*
X0131880Y0427970D02*
X0131880Y0432770D01*
X0111160Y0425510D02*
X0108090Y0425510D01*
X0106560Y0425510D02*
X0103490Y0425510D01*
X0105020Y0425510D02*
X0105020Y0430120D01*
X0103490Y0428580D01*
X0101950Y0429350D02*
X0101190Y0430120D01*
X0099650Y0430120D01*
X0098880Y0429350D01*
X0098880Y0426280D01*
X0099650Y0425510D01*
X0101190Y0425510D01*
X0101950Y0426280D01*
X0108090Y0428580D02*
X0109630Y0430120D01*
X0109630Y0425510D01*
X0104960Y0442140D02*
X0103420Y0442140D01*
X0102660Y0442910D01*
X0105720Y0445980D01*
X0105720Y0442910D01*
X0104960Y0442140D01*
X0102660Y0442910D02*
X0102660Y0445980D01*
X0103420Y0446740D01*
X0104960Y0446740D01*
X0105720Y0445980D01*
X0102090Y0450370D02*
X0102090Y0453440D01*
X0101320Y0454210D01*
X0099790Y0454210D01*
X0099020Y0453440D01*
X0099020Y0452680D01*
X0099790Y0451910D01*
X0102090Y0451910D01*
X0102090Y0450370D02*
X0101320Y0449610D01*
X0099790Y0449610D01*
X0099020Y0450370D01*
X0097490Y0450370D02*
X0096720Y0449610D01*
X0095180Y0449610D01*
X0094420Y0450370D01*
X0094420Y0453440D01*
X0095180Y0454210D01*
X0096720Y0454210D01*
X0097490Y0453440D01*
X0096280Y0459080D02*
X0097040Y0459840D01*
X0096280Y0459080D02*
X0094740Y0459080D01*
X0093980Y0459840D01*
X0093980Y0462910D01*
X0094740Y0463680D01*
X0096280Y0463680D01*
X0097040Y0462910D01*
X0098580Y0462910D02*
X0098580Y0462150D01*
X0099350Y0461380D01*
X0100880Y0461380D01*
X0101650Y0460610D01*
X0101650Y0459840D01*
X0100880Y0459080D01*
X0099350Y0459080D01*
X0098580Y0459840D01*
X0098580Y0460610D01*
X0099350Y0461380D01*
X0100880Y0461380D02*
X0101650Y0462150D01*
X0101650Y0462910D01*
X0100880Y0463680D01*
X0099350Y0463680D01*
X0098580Y0462910D01*
X0099590Y0446740D02*
X0099590Y0442140D01*
X0101120Y0442140D02*
X0098050Y0442140D01*
X0096520Y0442910D02*
X0095750Y0442140D01*
X0094220Y0442140D01*
X0093450Y0442910D01*
X0093450Y0445980D01*
X0094220Y0446740D01*
X0095750Y0446740D01*
X0096520Y0445980D01*
X0098050Y0445210D02*
X0099590Y0446740D01*
X0074880Y0427190D02*
X0074110Y0427960D01*
X0072580Y0427960D01*
X0071810Y0427190D01*
X0074880Y0427190D02*
X0074880Y0426420D01*
X0071810Y0423360D01*
X0074880Y0423360D01*
X0070280Y0423360D02*
X0067210Y0423360D01*
X0068740Y0423360D02*
X0068740Y0427960D01*
X0067210Y0426420D01*
X0065670Y0427190D02*
X0064910Y0427960D01*
X0063370Y0427960D01*
X0062600Y0427190D01*
X0062600Y0424120D01*
X0063370Y0423360D01*
X0064910Y0423360D01*
X0065670Y0424120D01*
X0053790Y0431630D02*
X0050720Y0431630D01*
X0053030Y0433940D01*
X0053030Y0429330D01*
X0049190Y0430100D02*
X0049190Y0433170D01*
X0048420Y0433940D01*
X0046120Y0433940D01*
X0046120Y0429330D01*
X0048420Y0429330D01*
X0049190Y0430100D01*
X0051790Y0484250D02*
X0054860Y0488850D01*
X0056390Y0486550D02*
X0059460Y0486550D01*
X0058690Y0484250D02*
X0058690Y0488850D01*
X0056390Y0486550D01*
X0054860Y0484250D02*
X0051790Y0488850D01*
X0056710Y0560730D02*
X0059010Y0560730D01*
X0059780Y0561500D01*
X0059780Y0564570D01*
X0059010Y0565330D01*
X0056710Y0565330D01*
X0056710Y0560730D01*
X0061310Y0561500D02*
X0062080Y0560730D01*
X0063610Y0560730D01*
X0064380Y0561500D01*
X0064380Y0562260D01*
X0063610Y0563030D01*
X0062850Y0563030D01*
X0063610Y0563030D02*
X0064380Y0563800D01*
X0064380Y0564570D01*
X0063610Y0565330D01*
X0062080Y0565330D01*
X0061310Y0564570D01*
X0062270Y0575920D02*
X0065340Y0578990D01*
X0065340Y0579760D01*
X0064570Y0580520D01*
X0063040Y0580520D01*
X0062270Y0579760D01*
X0060730Y0579760D02*
X0060730Y0576690D01*
X0059970Y0575920D01*
X0057660Y0575920D01*
X0057660Y0580520D01*
X0059970Y0580520D01*
X0060730Y0579760D01*
X0062270Y0575920D02*
X0065340Y0575920D01*
X0075760Y0608450D02*
X0077300Y0608450D01*
X0078070Y0609220D01*
X0079600Y0608450D02*
X0082670Y0608450D01*
X0081130Y0608450D02*
X0081130Y0613050D01*
X0079600Y0611520D01*
X0078070Y0612290D02*
X0077300Y0613050D01*
X0075760Y0613050D01*
X0075000Y0612290D01*
X0075000Y0609220D01*
X0075760Y0608450D01*
X0086000Y0613330D02*
X0086000Y0616400D01*
X0086770Y0617160D01*
X0088300Y0617160D01*
X0089070Y0616400D01*
X0090610Y0616400D02*
X0091370Y0617160D01*
X0092910Y0617160D01*
X0093680Y0616400D01*
X0093680Y0615630D01*
X0090610Y0612560D01*
X0093680Y0612560D01*
X0089070Y0613330D02*
X0088300Y0612560D01*
X0086770Y0612560D01*
X0086000Y0613330D01*
X0104710Y0601160D02*
X0104710Y0598090D01*
X0105480Y0597320D01*
X0107010Y0597320D01*
X0107780Y0598090D01*
X0109310Y0599630D02*
X0112380Y0599630D01*
X0111610Y0601930D02*
X0111610Y0597320D01*
X0109310Y0599630D02*
X0111610Y0601930D01*
X0107780Y0601160D02*
X0107010Y0601930D01*
X0105480Y0601930D01*
X0104710Y0601160D01*
X0138990Y0597050D02*
X0138990Y0592450D01*
X0138990Y0593980D02*
X0141290Y0593980D01*
X0142060Y0594750D01*
X0142060Y0596290D01*
X0141290Y0597050D01*
X0138990Y0597050D01*
X0143590Y0595520D02*
X0145130Y0597050D01*
X0145130Y0592450D01*
X0146660Y0592450D02*
X0143590Y0592450D01*
X0142060Y0592450D02*
X0140520Y0593980D01*
X0150990Y0593220D02*
X0151760Y0592450D01*
X0153290Y0592450D01*
X0154060Y0593220D01*
X0155590Y0593220D02*
X0156360Y0592450D01*
X0157890Y0592450D01*
X0158660Y0593220D01*
X0158660Y0593980D01*
X0157890Y0594750D01*
X0157130Y0594750D01*
X0157890Y0594750D02*
X0158660Y0595520D01*
X0158660Y0596290D01*
X0157890Y0597050D01*
X0156360Y0597050D01*
X0155590Y0596290D01*
X0154060Y0596290D02*
X0153290Y0597050D01*
X0151760Y0597050D01*
X0150990Y0596290D01*
X0150990Y0593220D01*
X0165630Y0594740D02*
X0165630Y0590130D01*
X0168700Y0590130D01*
X0170240Y0590130D02*
X0173310Y0590130D01*
X0171770Y0590130D02*
X0171770Y0594740D01*
X0170240Y0593200D01*
X0148650Y0626500D02*
X0145580Y0626500D01*
X0148650Y0629570D01*
X0148650Y0630340D01*
X0147880Y0631110D01*
X0146350Y0631110D01*
X0145580Y0630340D01*
X0144050Y0630340D02*
X0144050Y0628800D01*
X0143280Y0628040D01*
X0140980Y0628040D01*
X0142510Y0628040D02*
X0144050Y0626500D01*
X0140980Y0626500D02*
X0140980Y0631110D01*
X0143280Y0631110D01*
X0144050Y0630340D01*
X0193820Y0629730D02*
X0193820Y0634330D01*
X0196120Y0634330D01*
X0196890Y0633570D01*
X0196890Y0632030D01*
X0196120Y0631260D01*
X0193820Y0631260D01*
X0195360Y0631260D02*
X0196890Y0629730D01*
X0198420Y0629730D02*
X0201490Y0629730D01*
X0199960Y0629730D02*
X0199960Y0634330D01*
X0198420Y0632800D01*
X0203030Y0632030D02*
X0204560Y0632800D01*
X0205330Y0632800D01*
X0206100Y0632030D01*
X0206100Y0630500D01*
X0205330Y0629730D01*
X0203800Y0629730D01*
X0203030Y0630500D01*
X0203030Y0632030D02*
X0203030Y0634330D01*
X0206100Y0634330D01*
D32*
X0200000Y0574250D03*
D76*
X0143080Y0463370D02*
X0126910Y0463370D01*
X0126910Y0435130D01*
X0143080Y0435130D01*
X0143080Y0463370D01*
D76*
X0067610Y0482480D02*
X0067610Y0437990D01*
X0012890Y0437990D01*
X0012890Y0482480D01*
X0067610Y0482480D01*
X0012500Y0470670D02*
X0010000Y0470670D01*
X-000890Y0470670D02*
X0010000Y0447830D02*
X0012500Y0447830D01*
D120*
X0039600Y0484250D02*
X0039600Y0485250D01*
X0015550Y0485250D01*
X0010000Y0489858D01*
X0006890Y0492440D02*
X0010000Y0518767D02*
X0015150Y0523250D01*
X0039600Y0523250D01*
X0039600Y0524250D01*
X0045900Y0524250D01*
X0045900Y0518030D01*
X0038780Y0518030D01*
X0038780Y0490470D01*
X0045900Y0490470D01*
X0045900Y0484250D01*
X0039600Y0484250D01*
X0045900Y0490470D02*
X0045900Y0518030D01*
X0045900Y0529250D02*
X0039600Y0529250D01*
X0039600Y0530250D01*
X0015550Y0530250D01*
X0010000Y0534858D01*
X0006890Y0537440D02*
X0010000Y0563767D02*
X0015150Y0568250D01*
X0039600Y0568250D01*
X0039600Y0569250D01*
X0045900Y0569250D01*
X0045900Y0563030D01*
X0038780Y0563030D01*
X0038780Y0535470D01*
X0045900Y0535470D01*
X0045900Y0529250D01*
X0045900Y0535470D02*
X0045900Y0563030D01*
X0045900Y0574250D02*
X0039600Y0574250D01*
X0039600Y0575250D01*
X0015550Y0575250D01*
X0010000Y0579858D01*
X0006890Y0582440D02*
X0010000Y0608767D02*
X0015150Y0613250D01*
X0039600Y0613250D01*
X0039600Y0614250D01*
X0045900Y0614250D01*
X0045900Y0608030D01*
X0038780Y0608030D01*
X0038780Y0580470D01*
X0045900Y0580470D01*
X0045900Y0574250D01*
X0045900Y0580470D02*
X0045900Y0608030D01*
X0015550Y0596610D02*
X0015550Y0591890D01*
X0013180Y0591890D01*
X0013180Y0596610D01*
X0015550Y0596610D01*
X0013180Y0596610D02*
X0010000Y0596610D01*
X0009250Y0596610D02*
X0010000Y0591890D02*
X0013180Y0591890D01*
X0013180Y0551610D02*
X0010000Y0551610D01*
X0009250Y0551610D02*
X0010000Y0546890D02*
X0013180Y0546890D01*
X0013180Y0551610D01*
X0015550Y0551610D01*
X0015550Y0546890D01*
X0013180Y0546890D01*
X0013180Y0506610D02*
X0010000Y0506610D01*
X0009250Y0506610D02*
X0010000Y0501890D02*
X0013180Y0501890D01*
X0013180Y0506610D01*
X0015550Y0506610D01*
X0015550Y0501890D01*
X0013180Y0501890D01*
X0246590Y0460840D02*
X0246590Y0454620D01*
X0253720Y0454620D01*
X0253720Y0438880D01*
X0246590Y0438880D01*
X0246590Y0454620D01*
X0246590Y0460840D02*
X0252890Y0460840D01*
X0252890Y0459840D01*
X0276940Y0459840D01*
X0285590Y0452677D01*
X0285610Y0452660D02*
X0285590Y0440823D02*
X0277340Y0433660D01*
X0252890Y0433660D01*
X0252890Y0432660D01*
X0246590Y0432660D01*
X0246590Y0438880D01*
X0276940Y0444390D02*
X0279310Y0444390D01*
X0279310Y0449110D01*
X0283240Y0449110D01*
X0283240Y0444390D01*
X0279310Y0444390D01*
X0276940Y0444390D02*
X0276940Y0449110D01*
X0279310Y0449110D01*
X0279840Y0591160D02*
X0255390Y0591160D01*
X0255390Y0590160D01*
X0249090Y0590160D01*
X0249090Y0596380D01*
X0256220Y0596380D01*
X0256220Y0612120D01*
X0249090Y0612120D01*
X0249090Y0618340D01*
X0255390Y0618340D01*
X0255390Y0617340D01*
X0279440Y0617340D01*
X0285590Y0612247D01*
X0288110Y0610160D02*
X0285590Y0596152D02*
X0279840Y0591160D01*
X0279440Y0601890D02*
X0281810Y0601890D01*
X0281810Y0606610D01*
X0285590Y0606610D01*
X0285740Y0606610D02*
X0285590Y0601890D02*
X0281810Y0601890D01*
X0279440Y0601890D02*
X0279440Y0606610D01*
X0281810Y0606610D01*
X0249090Y0612120D02*
X0249090Y0596380D01*
D73*
X0065000Y0614750D03*
D22*
X0065000Y0621000D03*
X0065000Y0597500D03*
D45*
X0277900Y0484250D03*
D178*
X0277150Y0483500D03*
X0277150Y0485000D03*
D30*
X0278700Y0484250D03*
D76*
X0279170Y0571100D02*
X0274960Y0571100D01*
X0277070Y0571100D02*
X0277070Y0577410D01*
X0274960Y0575310D01*
X0272720Y0577410D02*
X0272720Y0571100D01*
X0268520Y0577410D01*
X0268520Y0571100D01*
X0266280Y0572160D02*
X0266280Y0576360D01*
X0265220Y0577410D01*
X0263120Y0577410D01*
X0262070Y0576360D01*
X0262070Y0572160D01*
X0263120Y0571100D01*
X0265220Y0571100D01*
X0266280Y0572160D01*
X0259830Y0572160D02*
X0258780Y0571100D01*
X0256680Y0571100D01*
X0255630Y0572160D01*
X0255630Y0576360D01*
X0256680Y0577410D01*
X0258780Y0577410D01*
X0259830Y0576360D01*
D76*
X0010400Y0408850D02*
X0010400Y0639960D01*
X0010400Y0639960D02*
X0285990Y0639960D01*
X0285990Y0408850D01*
X0010400Y0408850D01*
X0010000Y0645810D02*
G75*
%LPD*%
D76*
X0010000Y0645810D02*
X0010000Y0832820D01*
X0285590Y0832820D01*
X0285590Y0645810D01*
X0010000Y0645810D01*
X0015510Y0657620D02*
X0015530Y0658120D01*
X0015590Y0658620D01*
X0015690Y0659110D01*
X0015830Y0659590D01*
X0016000Y0660060D01*
X0016210Y0660510D01*
X0016460Y0660950D01*
X0016740Y0661360D01*
X0017060Y0661750D01*
X0017400Y0662120D01*
X0017770Y0662460D01*
X0018170Y0662760D01*
X0018590Y0663030D01*
X0019030Y0663270D01*
X0019490Y0663480D01*
X0019960Y0663640D01*
X0020440Y0663770D01*
X0020940Y0663860D01*
X0021430Y0663910D01*
X0021940Y0663920D01*
X0022440Y0663890D01*
X0022930Y0663820D01*
X0023420Y0663710D01*
X0023900Y0663560D01*
X0024360Y0663380D01*
X0024810Y0663160D01*
X0025240Y0662900D01*
X0025650Y0662610D01*
X0026040Y0662290D01*
X0026400Y0661940D01*
X0026720Y0661560D01*
X0027020Y0661160D01*
X0027290Y0660730D01*
X0027520Y0660290D01*
X0027710Y0659830D01*
X0027870Y0659350D01*
X0027990Y0658860D01*
X0028070Y0658370D01*
X0028110Y0657870D01*
X0028110Y0657370D01*
X0028070Y0656870D01*
X0027990Y0656380D01*
X0027870Y0655890D01*
X0027710Y0655410D01*
X0027520Y0654950D01*
X0027290Y0654510D01*
X0027020Y0654080D01*
X0026720Y0653680D01*
X0026400Y0653300D01*
X0026040Y0652950D01*
X0025650Y0652630D01*
X0025240Y0652340D01*
X0024810Y0652080D01*
X0024360Y0651860D01*
X0023900Y0651680D01*
X0023420Y0651530D01*
X0022930Y0651420D01*
X0022440Y0651350D01*
X0021940Y0651320D01*
X0021430Y0651330D01*
X0020940Y0651380D01*
X0020440Y0651470D01*
X0019960Y0651600D01*
X0019490Y0651760D01*
X0019030Y0651970D01*
X0018590Y0652210D01*
X0018170Y0652480D01*
X0017770Y0652780D01*
X0017400Y0653120D01*
X0017060Y0653490D01*
X0016740Y0653880D01*
X0016460Y0654290D01*
X0016210Y0654730D01*
X0016000Y0655180D01*
X0015830Y0655650D01*
X0015690Y0656130D01*
X0015590Y0656620D01*
X0015530Y0657120D01*
X0015510Y0657620D01*
X0024090Y0690810D02*
X0024110Y0691290D01*
X0024170Y0691770D01*
X0024270Y0692240D01*
X0024400Y0692700D01*
X0024580Y0693150D01*
X0024780Y0693590D01*
X0025030Y0694010D01*
X0025310Y0694400D01*
X0025610Y0694770D01*
X0025950Y0695110D01*
X0026320Y0695430D01*
X0026700Y0695720D01*
X0027110Y0695970D01*
X0027540Y0696190D01*
X0027990Y0696370D01*
X0028450Y0696510D01*
X0028920Y0696620D01*
X0029400Y0696690D01*
X0029880Y0696720D01*
X0030360Y0696710D01*
X0030840Y0696660D01*
X0031320Y0696570D01*
X0031780Y0696450D01*
X0032230Y0696280D01*
X0032670Y0696080D01*
X0033090Y0695850D01*
X0033490Y0695580D01*
X0033870Y0695280D01*
X0034220Y0694950D01*
X0034540Y0694590D01*
X0034840Y0694210D01*
X0035100Y0693800D01*
X0035320Y0693370D01*
X0035520Y0692930D01*
X0035670Y0692480D01*
X0035790Y0692010D01*
X0035870Y0691530D01*
X0035910Y0691050D01*
X0035910Y0690570D01*
X0035870Y0690090D01*
X0035790Y0689610D01*
X0035670Y0689140D01*
X0035520Y0688690D01*
X0035320Y0688250D01*
X0035100Y0687820D01*
X0034840Y0687410D01*
X0034540Y0687030D01*
X0034220Y0686670D01*
X0033870Y0686340D01*
X0033490Y0686040D01*
X0033090Y0685770D01*
X0032670Y0685540D01*
X0032230Y0685340D01*
X0031780Y0685170D01*
X0031320Y0685050D01*
X0030840Y0684960D01*
X0030360Y0684910D01*
X0029880Y0684900D01*
X0029400Y0684930D01*
X0028920Y0685000D01*
X0028450Y0685110D01*
X0027990Y0685250D01*
X0027540Y0685430D01*
X0027110Y0685650D01*
X0026700Y0685900D01*
X0026320Y0686190D01*
X0025950Y0686510D01*
X0025610Y0686850D01*
X0025310Y0687220D01*
X0025030Y0687610D01*
X0024780Y0688030D01*
X0024580Y0688470D01*
X0024400Y0688920D01*
X0024270Y0689380D01*
X0024170Y0689850D01*
X0024110Y0690330D01*
X0024090Y0690810D01*
X0042900Y0754610D02*
X0043110Y0754630D01*
X0043310Y0754680D01*
X0043500Y0754770D01*
X0043670Y0754890D01*
X0043820Y0755040D01*
X0043940Y0755210D01*
X0044030Y0755400D01*
X0044080Y0755600D01*
X0044100Y0755810D01*
X0044080Y0756020D01*
X0044030Y0756220D01*
X0043940Y0756410D01*
X0043820Y0756580D01*
X0043670Y0756730D01*
X0043500Y0756850D01*
X0043310Y0756940D01*
X0043110Y0756990D01*
X0042900Y0757010D01*
X0125750Y0734390D02*
X0125770Y0734890D01*
X0125830Y0735390D01*
X0125930Y0735880D01*
X0126070Y0736360D01*
X0126240Y0736830D01*
X0126450Y0737280D01*
X0126700Y0737720D01*
X0126980Y0738130D01*
X0127300Y0738520D01*
X0127640Y0738890D01*
X0128010Y0739230D01*
X0128410Y0739530D01*
X0128830Y0739800D01*
X0129270Y0740040D01*
X0129730Y0740250D01*
X0130200Y0740410D01*
X0130680Y0740540D01*
X0131180Y0740630D01*
X0131670Y0740680D01*
X0132180Y0740690D01*
X0132680Y0740660D01*
X0133170Y0740590D01*
X0133660Y0740480D01*
X0134140Y0740330D01*
X0134600Y0740150D01*
X0135050Y0739930D01*
X0135480Y0739670D01*
X0135890Y0739380D01*
X0136280Y0739060D01*
X0136640Y0738710D01*
X0136960Y0738330D01*
X0137260Y0737930D01*
X0137530Y0737500D01*
X0137760Y0737060D01*
X0137950Y0736600D01*
X0138110Y0736120D01*
X0138230Y0735630D01*
X0138310Y0735140D01*
X0138350Y0734640D01*
X0138350Y0734140D01*
X0138310Y0733640D01*
X0138230Y0733150D01*
X0138110Y0732660D01*
X0137950Y0732180D01*
X0137760Y0731720D01*
X0137530Y0731280D01*
X0137260Y0730850D01*
X0136960Y0730450D01*
X0136640Y0730070D01*
X0136280Y0729720D01*
X0135890Y0729400D01*
X0135480Y0729110D01*
X0135050Y0728850D01*
X0134600Y0728630D01*
X0134140Y0728450D01*
X0133660Y0728300D01*
X0133170Y0728190D01*
X0132680Y0728120D01*
X0132180Y0728090D01*
X0131670Y0728100D01*
X0131180Y0728150D01*
X0130680Y0728240D01*
X0130200Y0728370D01*
X0129730Y0728530D01*
X0129270Y0728740D01*
X0128830Y0728980D01*
X0128410Y0729250D01*
X0128010Y0729550D01*
X0127640Y0729890D01*
X0127300Y0730260D01*
X0126980Y0730650D01*
X0126700Y0731060D01*
X0126450Y0731500D01*
X0126240Y0731950D01*
X0126070Y0732420D01*
X0125930Y0732900D01*
X0125830Y0733390D01*
X0125770Y0733890D01*
X0125750Y0734390D01*
X0017480Y0821010D02*
X0017500Y0821510D01*
X0017560Y0822010D01*
X0017660Y0822500D01*
X0017800Y0822980D01*
X0017970Y0823450D01*
X0018180Y0823900D01*
X0018430Y0824340D01*
X0018710Y0824750D01*
X0019030Y0825140D01*
X0019370Y0825510D01*
X0019740Y0825850D01*
X0020140Y0826150D01*
X0020560Y0826420D01*
X0021000Y0826660D01*
X0021460Y0826870D01*
X0021930Y0827030D01*
X0022410Y0827160D01*
X0022910Y0827250D01*
X0023400Y0827300D01*
X0023910Y0827310D01*
X0024410Y0827280D01*
X0024900Y0827210D01*
X0025390Y0827100D01*
X0025870Y0826950D01*
X0026330Y0826770D01*
X0026780Y0826550D01*
X0027210Y0826290D01*
X0027620Y0826000D01*
X0028010Y0825680D01*
X0028370Y0825330D01*
X0028690Y0824950D01*
X0028990Y0824550D01*
X0029260Y0824120D01*
X0029490Y0823680D01*
X0029680Y0823220D01*
X0029840Y0822740D01*
X0029960Y0822250D01*
X0030040Y0821760D01*
X0030080Y0821260D01*
X0030080Y0820760D01*
X0030040Y0820260D01*
X0029960Y0819770D01*
X0029840Y0819280D01*
X0029680Y0818800D01*
X0029490Y0818340D01*
X0029260Y0817900D01*
X0028990Y0817470D01*
X0028690Y0817070D01*
X0028370Y0816690D01*
X0028010Y0816340D01*
X0027620Y0816020D01*
X0027210Y0815730D01*
X0026780Y0815470D01*
X0026330Y0815250D01*
X0025870Y0815070D01*
X0025390Y0814920D01*
X0024900Y0814810D01*
X0024410Y0814740D01*
X0023910Y0814710D01*
X0023400Y0814720D01*
X0022910Y0814770D01*
X0022410Y0814860D01*
X0021930Y0814990D01*
X0021460Y0815150D01*
X0021000Y0815360D01*
X0020560Y0815600D01*
X0020140Y0815870D01*
X0019740Y0816170D01*
X0019370Y0816510D01*
X0019030Y0816880D01*
X0018710Y0817270D01*
X0018430Y0817680D01*
X0018180Y0818120D01*
X0017970Y0818570D01*
X0017800Y0819040D01*
X0017660Y0819520D01*
X0017560Y0820010D01*
X0017500Y0820510D01*
X0017480Y0821010D01*
X0261590Y0730810D02*
X0261610Y0731290D01*
X0261670Y0731770D01*
X0261770Y0732240D01*
X0261900Y0732700D01*
X0262080Y0733150D01*
X0262280Y0733590D01*
X0262530Y0734010D01*
X0262810Y0734400D01*
X0263110Y0734770D01*
X0263450Y0735110D01*
X0263820Y0735430D01*
X0264200Y0735720D01*
X0264610Y0735970D01*
X0265040Y0736190D01*
X0265490Y0736370D01*
X0265950Y0736510D01*
X0266420Y0736620D01*
X0266900Y0736690D01*
X0267380Y0736720D01*
X0267860Y0736710D01*
X0268340Y0736660D01*
X0268820Y0736570D01*
X0269280Y0736450D01*
X0269730Y0736280D01*
X0270170Y0736080D01*
X0270590Y0735850D01*
X0270990Y0735580D01*
X0271370Y0735280D01*
X0271720Y0734950D01*
X0272040Y0734590D01*
X0272340Y0734210D01*
X0272600Y0733800D01*
X0272820Y0733370D01*
X0273020Y0732930D01*
X0273170Y0732480D01*
X0273290Y0732010D01*
X0273370Y0731530D01*
X0273410Y0731050D01*
X0273410Y0730570D01*
X0273370Y0730090D01*
X0273290Y0729610D01*
X0273170Y0729140D01*
X0273020Y0728690D01*
X0272820Y0728250D01*
X0272600Y0727820D01*
X0272340Y0727410D01*
X0272040Y0727030D01*
X0271720Y0726670D01*
X0271370Y0726340D01*
X0270990Y0726040D01*
X0270590Y0725770D01*
X0270170Y0725540D01*
X0269730Y0725340D01*
X0269280Y0725170D01*
X0268820Y0725050D01*
X0268340Y0724960D01*
X0267860Y0724910D01*
X0267380Y0724900D01*
X0266900Y0724930D01*
X0266420Y0725000D01*
X0265950Y0725110D01*
X0265490Y0725250D01*
X0265040Y0725430D01*
X0264610Y0725650D01*
X0264200Y0725900D01*
X0263820Y0726190D01*
X0263450Y0726510D01*
X0263110Y0726850D01*
X0262810Y0727220D01*
X0262530Y0727610D01*
X0262280Y0728030D01*
X0262080Y0728470D01*
X0261900Y0728920D01*
X0261770Y0729380D01*
X0261670Y0729850D01*
X0261610Y0730330D01*
X0261590Y0730810D01*
X0267480Y0661560D02*
X0267500Y0662060D01*
X0267560Y0662560D01*
X0267660Y0663050D01*
X0267800Y0663530D01*
X0267970Y0664000D01*
X0268180Y0664450D01*
X0268430Y0664890D01*
X0268710Y0665300D01*
X0269030Y0665690D01*
X0269370Y0666060D01*
X0269740Y0666400D01*
X0270140Y0666700D01*
X0270560Y0666970D01*
X0271000Y0667210D01*
X0271460Y0667420D01*
X0271930Y0667580D01*
X0272410Y0667710D01*
X0272910Y0667800D01*
X0273400Y0667850D01*
X0273910Y0667860D01*
X0274410Y0667830D01*
X0274900Y0667760D01*
X0275390Y0667650D01*
X0275870Y0667500D01*
X0276330Y0667320D01*
X0276780Y0667100D01*
X0277210Y0666840D01*
X0277620Y0666550D01*
X0278010Y0666230D01*
X0278370Y0665880D01*
X0278690Y0665500D01*
X0278990Y0665100D01*
X0279260Y0664670D01*
X0279490Y0664230D01*
X0279680Y0663770D01*
X0279840Y0663290D01*
X0279960Y0662800D01*
X0280040Y0662310D01*
X0280080Y0661810D01*
X0280080Y0661310D01*
X0280040Y0660810D01*
X0279960Y0660320D01*
X0279840Y0659830D01*
X0279680Y0659350D01*
X0279490Y0658890D01*
X0279260Y0658450D01*
X0278990Y0658020D01*
X0278690Y0657620D01*
X0278370Y0657240D01*
X0278010Y0656890D01*
X0277620Y0656570D01*
X0277210Y0656280D01*
X0276780Y0656020D01*
X0276330Y0655800D01*
X0275870Y0655620D01*
X0275390Y0655470D01*
X0274900Y0655360D01*
X0274410Y0655290D01*
X0273910Y0655260D01*
X0273400Y0655270D01*
X0272910Y0655320D01*
X0272410Y0655410D01*
X0271930Y0655540D01*
X0271460Y0655700D01*
X0271000Y0655910D01*
X0270560Y0656150D01*
X0270140Y0656420D01*
X0269740Y0656720D01*
X0269370Y0657060D01*
X0269030Y0657430D01*
X0268710Y0657820D01*
X0268430Y0658230D01*
X0268180Y0658670D01*
X0267970Y0659120D01*
X0267800Y0659590D01*
X0267660Y0660070D01*
X0267560Y0660560D01*
X0267500Y0661060D01*
X0267480Y0661560D01*
X0267480Y0821010D02*
X0267500Y0821510D01*
X0267560Y0822010D01*
X0267660Y0822500D01*
X0267800Y0822980D01*
X0267970Y0823450D01*
X0268180Y0823900D01*
X0268430Y0824340D01*
X0268710Y0824750D01*
X0269030Y0825140D01*
X0269370Y0825510D01*
X0269740Y0825850D01*
X0270140Y0826150D01*
X0270560Y0826420D01*
X0271000Y0826660D01*
X0271460Y0826870D01*
X0271930Y0827030D01*
X0272410Y0827160D01*
X0272910Y0827250D01*
X0273400Y0827300D01*
X0273910Y0827310D01*
X0274410Y0827280D01*
X0274900Y0827210D01*
X0275390Y0827100D01*
X0275870Y0826950D01*
X0276330Y0826770D01*
X0276780Y0826550D01*
X0277210Y0826290D01*
X0277620Y0826000D01*
X0278010Y0825680D01*
X0278370Y0825330D01*
X0278690Y0824950D01*
X0278990Y0824550D01*
X0279260Y0824120D01*
X0279490Y0823680D01*
X0279680Y0823220D01*
X0279840Y0822740D01*
X0279960Y0822250D01*
X0280040Y0821760D01*
X0280080Y0821260D01*
X0280080Y0820760D01*
X0280040Y0820260D01*
X0279960Y0819770D01*
X0279840Y0819280D01*
X0279680Y0818800D01*
X0279490Y0818340D01*
X0279260Y0817900D01*
X0278990Y0817470D01*
X0278690Y0817070D01*
X0278370Y0816690D01*
X0278010Y0816340D01*
X0277620Y0816020D01*
X0277210Y0815730D01*
X0276780Y0815470D01*
X0276330Y0815250D01*
X0275870Y0815070D01*
X0275390Y0814920D01*
X0274900Y0814810D01*
X0274410Y0814740D01*
X0273910Y0814710D01*
X0273400Y0814720D01*
X0272910Y0814770D01*
X0272410Y0814860D01*
X0271930Y0814990D01*
X0271460Y0815150D01*
X0271000Y0815360D01*
X0270560Y0815600D01*
X0270140Y0815870D01*
X0269740Y0816170D01*
X0269370Y0816510D01*
X0269030Y0816880D01*
X0268710Y0817270D01*
X0268430Y0817680D01*
X0268180Y0818120D01*
X0267970Y0818570D01*
X0267800Y0819040D01*
X0267660Y0819520D01*
X0267560Y0820010D01*
X0267500Y0820510D01*
X0267480Y0821010D01*
D76*
X0233600Y0768310D02*
X0233600Y0763310D01*
X0228800Y0769310D02*
X0226200Y0769310D01*
X0221400Y0768310D02*
X0221400Y0767010D01*
X0221400Y0764610D01*
X0221400Y0763310D01*
X0221400Y0764610D02*
X0221610Y0764630D01*
X0221810Y0764680D01*
X0222000Y0764770D01*
X0222170Y0764890D01*
X0222320Y0765040D01*
X0222440Y0765210D01*
X0222530Y0765400D01*
X0222580Y0765600D01*
X0222600Y0765810D01*
X0222580Y0766020D01*
X0222530Y0766220D01*
X0222440Y0766410D01*
X0222320Y0766580D01*
X0222170Y0766730D01*
X0222000Y0766850D01*
X0221810Y0766940D01*
X0221610Y0766990D01*
X0221400Y0767010D01*
X0187500Y0779710D02*
X0182500Y0779710D01*
X0188500Y0784510D02*
X0188500Y0787110D01*
X0187500Y0791910D02*
X0186200Y0791910D01*
X0183800Y0791910D01*
X0182500Y0791910D01*
X0183800Y0791910D02*
X0183820Y0791700D01*
X0183870Y0791500D01*
X0183960Y0791310D01*
X0184080Y0791140D01*
X0184230Y0790990D01*
X0184400Y0790870D01*
X0184590Y0790780D01*
X0184790Y0790730D01*
X0185000Y0790710D01*
X0185210Y0790730D01*
X0185410Y0790780D01*
X0185600Y0790870D01*
X0185770Y0790990D01*
X0185920Y0791140D01*
X0186040Y0791310D01*
X0186130Y0791500D01*
X0186180Y0791700D01*
X0186200Y0791910D01*
X0107100Y0807310D02*
X0103100Y0807310D01*
X0096400Y0819410D02*
X0096400Y0820110D01*
X0078600Y0820110D01*
X0078600Y0819410D01*
X0071900Y0804810D02*
X0067900Y0804810D01*
X0078600Y0782210D02*
X0078600Y0781510D01*
X0086300Y0781510D01*
X0088700Y0781510D01*
X0096400Y0781510D01*
X0096400Y0782210D01*
X0088700Y0781510D02*
X0088680Y0781720D01*
X0088630Y0781920D01*
X0088540Y0782110D01*
X0088420Y0782280D01*
X0088270Y0782430D01*
X0088100Y0782550D01*
X0087910Y0782640D01*
X0087710Y0782690D01*
X0087500Y0782710D01*
X0087290Y0782690D01*
X0087090Y0782640D01*
X0086900Y0782550D01*
X0086730Y0782430D01*
X0086580Y0782280D01*
X0086460Y0782110D01*
X0086370Y0781920D01*
X0086320Y0781720D01*
X0086300Y0781510D01*
X0062100Y0762410D02*
X0062100Y0749210D01*
X0042900Y0749210D02*
X0042900Y0754610D01*
X0042900Y0757010D01*
X0042900Y0762410D01*
X0048000Y0725810D02*
X0032000Y0725810D01*
X0032000Y0715810D01*
X0048000Y0715810D01*
X0048000Y0725810D01*
X0044000Y0723310D02*
X0040000Y0720810D01*
X0040000Y0718310D01*
X0040000Y0720810D02*
X0044000Y0718310D01*
X0044000Y0723310D01*
X0046000Y0720810D02*
X0040000Y0720810D01*
X0040000Y0723310D01*
X0040000Y0720810D02*
X0037500Y0720810D01*
X0068500Y0709810D02*
X0068500Y0708310D01*
X0069000Y0707810D01*
X0069000Y0693810D01*
X0068500Y0693310D01*
X0068500Y0691810D01*
X0068520Y0691640D01*
X0068560Y0691470D01*
X0068630Y0691310D01*
X0068730Y0691170D01*
X0068860Y0691040D01*
X0069000Y0690940D01*
X0069160Y0690870D01*
X0069330Y0690830D01*
X0069500Y0690810D01*
X0075500Y0690810D01*
X0075670Y0690830D01*
X0075840Y0690870D01*
X0076000Y0690940D01*
X0076140Y0691040D01*
X0076270Y0691170D01*
X0076370Y0691310D01*
X0076440Y0691470D01*
X0076480Y0691640D01*
X0076500Y0691810D01*
X0076500Y0693310D01*
X0076000Y0693810D01*
X0076000Y0707810D01*
X0076500Y0708310D01*
X0076500Y0709810D01*
X0076480Y0709980D01*
X0076440Y0710150D01*
X0076370Y0710310D01*
X0076270Y0710450D01*
X0076140Y0710580D01*
X0076000Y0710680D01*
X0075840Y0710750D01*
X0075670Y0710790D01*
X0075500Y0710810D01*
X0069500Y0710810D01*
X0069330Y0710790D01*
X0069160Y0710750D01*
X0069000Y0710680D01*
X0068860Y0710580D01*
X0068730Y0710450D01*
X0068630Y0710310D01*
X0068560Y0710150D01*
X0068520Y0709980D01*
X0068500Y0709810D01*
X0081000Y0709810D02*
X0081000Y0708310D01*
X0081500Y0707810D01*
X0081500Y0693810D01*
X0081000Y0693310D01*
X0081000Y0691810D01*
X0081020Y0691640D01*
X0081060Y0691470D01*
X0081130Y0691310D01*
X0081230Y0691170D01*
X0081360Y0691040D01*
X0081500Y0690940D01*
X0081660Y0690870D01*
X0081830Y0690830D01*
X0082000Y0690810D01*
X0088000Y0690810D01*
X0088170Y0690830D01*
X0088340Y0690870D01*
X0088500Y0690940D01*
X0088640Y0691040D01*
X0088770Y0691170D01*
X0088870Y0691310D01*
X0088940Y0691470D01*
X0088980Y0691640D01*
X0089000Y0691810D01*
X0089000Y0693310D01*
X0088500Y0693810D01*
X0088500Y0707810D01*
X0089000Y0708310D01*
X0089000Y0709810D01*
X0088980Y0709980D01*
X0088940Y0710150D01*
X0088870Y0710310D01*
X0088770Y0710450D01*
X0088640Y0710580D01*
X0088500Y0710680D01*
X0088340Y0710750D01*
X0088170Y0710790D01*
X0088000Y0710810D01*
X0082000Y0710810D01*
X0081830Y0710790D01*
X0081660Y0710750D01*
X0081500Y0710680D01*
X0081360Y0710580D01*
X0081230Y0710450D01*
X0081130Y0710310D01*
X0081060Y0710150D01*
X0081020Y0709980D01*
X0081000Y0709810D01*
X0087100Y0675610D02*
X0091300Y0675610D01*
X0093700Y0675610D01*
X0097900Y0675610D01*
X0093700Y0675610D02*
X0093680Y0675400D01*
X0093630Y0675200D01*
X0093540Y0675010D01*
X0093420Y0674840D01*
X0093270Y0674690D01*
X0093100Y0674570D01*
X0092910Y0674480D01*
X0092710Y0674430D01*
X0092500Y0674410D01*
X0092290Y0674430D01*
X0092090Y0674480D01*
X0091900Y0674570D01*
X0091730Y0674690D01*
X0091580Y0674840D01*
X0091460Y0675010D01*
X0091370Y0675200D01*
X0091320Y0675400D01*
X0091300Y0675610D01*
X0087100Y0656010D02*
X0097900Y0656010D01*
X0162500Y0652210D02*
X0167500Y0652210D01*
X0168500Y0657010D02*
X0168500Y0659610D01*
X0167500Y0664410D02*
X0166200Y0664410D01*
X0163800Y0664410D01*
X0162500Y0664410D01*
X0163800Y0664410D02*
X0163820Y0664200D01*
X0163870Y0664000D01*
X0163960Y0663810D01*
X0164080Y0663640D01*
X0164230Y0663490D01*
X0164400Y0663370D01*
X0164590Y0663280D01*
X0164790Y0663230D01*
X0165000Y0663210D01*
X0165210Y0663230D01*
X0165410Y0663280D01*
X0165600Y0663370D01*
X0165770Y0663490D01*
X0165920Y0663640D01*
X0166040Y0663810D01*
X0166130Y0664000D01*
X0166180Y0664200D01*
X0166200Y0664410D01*
D76*
X0159590Y0664640D02*
X0156450Y0667780D01*
X0158020Y0667780D02*
X0158020Y0664640D01*
X0156450Y0664640D02*
X0159590Y0667780D01*
X0159590Y0666210D02*
X0156450Y0666210D01*
X0082790Y0675940D02*
X0079650Y0679080D01*
X0079650Y0677510D02*
X0082790Y0677510D01*
X0082790Y0679080D02*
X0079650Y0675940D01*
X0081220Y0675940D02*
X0081220Y0679080D01*
X0042470Y0742260D02*
X0039330Y0745400D01*
X0040900Y0745400D02*
X0040900Y0742260D01*
X0039330Y0742260D02*
X0042470Y0745400D01*
X0042470Y0743830D02*
X0039330Y0743830D01*
X0099010Y0779240D02*
X0102150Y0782380D01*
X0100580Y0782380D02*
X0100580Y0779240D01*
X0102150Y0779240D02*
X0099010Y0782380D01*
X0099010Y0780810D02*
X0102150Y0780810D01*
X0176450Y0792140D02*
X0179590Y0795280D01*
X0179590Y0793710D02*
X0176450Y0793710D01*
X0176450Y0795280D02*
X0179590Y0792140D01*
X0178020Y0792140D02*
X0178020Y0795280D01*
X0218030Y0760400D02*
X0221170Y0757260D01*
X0221170Y0758830D02*
X0218030Y0758830D01*
X0218030Y0757260D02*
X0221170Y0760400D01*
X0219600Y0760400D02*
X0219600Y0757260D01*
D76*
X0207220Y0752010D02*
X0185690Y0752010D01*
X0185690Y0773980D01*
X0181240Y0774020D02*
X0181240Y0752010D01*
X0185690Y0752010D01*
X0197660Y0748310D02*
X0190180Y0731970D01*
X0189980Y0731580D02*
X0189590Y0730900D01*
X0189240Y0730210D01*
X0188920Y0729500D01*
X0188640Y0728780D01*
X0188390Y0728050D01*
X0188180Y0727300D01*
X0188010Y0726550D01*
X0187870Y0725790D01*
X0187760Y0725020D01*
X0187700Y0724240D01*
X0187670Y0723470D01*
X0187680Y0722700D01*
X0187730Y0721920D01*
X0187810Y0721150D01*
X0187930Y0720380D01*
X0188090Y0719630D01*
X0188280Y0718880D01*
X0188510Y0718130D01*
X0188770Y0717410D01*
X0189070Y0716690D01*
X0189410Y0715990D01*
X0189770Y0715310D01*
X0190170Y0714640D01*
X0190180Y0714650D02*
X0197660Y0698310D01*
X0202220Y0694020D02*
X0202220Y0672010D01*
X0180690Y0672010D01*
X0180690Y0693980D01*
X0176240Y0694020D02*
X0176240Y0672010D01*
X0180690Y0672010D01*
X0167150Y0680110D02*
X0167150Y0680860D01*
X0164150Y0680860D01*
X0162550Y0680110D02*
X0161800Y0680860D01*
X0160290Y0680860D01*
X0159540Y0680110D01*
X0159540Y0677110D01*
X0160290Y0676360D01*
X0161800Y0676360D01*
X0162550Y0677110D01*
X0164150Y0677110D02*
X0164150Y0676360D01*
X0164150Y0677110D02*
X0167150Y0680110D01*
X0154100Y0668600D02*
X0152600Y0667840D01*
X0151100Y0666340D01*
X0153350Y0666340D01*
X0154100Y0665590D01*
X0154100Y0664840D01*
X0153350Y0664090D01*
X0151850Y0664090D01*
X0151100Y0664840D01*
X0151100Y0666340D01*
X0149500Y0664840D02*
X0149500Y0668600D01*
X0146490Y0668600D02*
X0146490Y0664840D01*
X0147240Y0664090D01*
X0148740Y0664090D01*
X0149500Y0664840D01*
X0176240Y0694020D02*
X0202220Y0694020D01*
X0217540Y0698310D02*
X0224820Y0714650D01*
X0224830Y0714650D02*
X0225250Y0715250D01*
X0225650Y0715880D01*
X0226020Y0716530D01*
X0226350Y0717190D01*
X0226640Y0717880D01*
X0226900Y0718570D01*
X0227130Y0719280D01*
X0227320Y0720000D01*
X0227470Y0720720D01*
X0227580Y0721460D01*
X0227660Y0722200D01*
X0227700Y0722940D01*
X0227700Y0723680D01*
X0227660Y0724420D01*
X0227580Y0725160D01*
X0227470Y0725900D01*
X0227320Y0726620D01*
X0227130Y0727340D01*
X0226900Y0728050D01*
X0226640Y0728740D01*
X0226350Y0729430D01*
X0226020Y0730090D01*
X0225650Y0730740D01*
X0225250Y0731370D01*
X0224830Y0731970D01*
X0224820Y0731970D02*
X0217150Y0748310D01*
X0207220Y0752010D02*
X0207220Y0774020D01*
X0181240Y0774020D01*
X0173880Y0784620D02*
X0172380Y0784620D01*
X0171630Y0785370D01*
X0171630Y0786870D02*
X0173130Y0787630D01*
X0173880Y0787630D01*
X0174630Y0786870D01*
X0174630Y0785370D01*
X0173880Y0784620D01*
X0171630Y0786870D02*
X0171630Y0789130D01*
X0174630Y0789130D01*
X0170030Y0789130D02*
X0170030Y0785370D01*
X0169280Y0784620D01*
X0167770Y0784620D01*
X0167020Y0785370D01*
X0167020Y0789130D01*
X0187180Y0802660D02*
X0187180Y0805660D01*
X0187930Y0806410D01*
X0189430Y0806410D01*
X0190180Y0805660D01*
X0191790Y0804160D02*
X0194040Y0804160D01*
X0194790Y0803410D01*
X0194790Y0802660D01*
X0194040Y0801910D01*
X0192540Y0801910D01*
X0191790Y0802660D01*
X0191790Y0804160D01*
X0193290Y0805660D01*
X0194790Y0806410D01*
X0190180Y0802660D02*
X0189430Y0801910D01*
X0187930Y0801910D01*
X0187180Y0802660D01*
X0184720Y0807010D02*
X0163190Y0807010D01*
X0163190Y0828980D01*
X0158740Y0829020D02*
X0158740Y0807010D01*
X0163190Y0807010D01*
X0184720Y0807010D02*
X0184720Y0829020D01*
X0158740Y0829020D01*
X0212500Y0817960D02*
X0228840Y0825630D01*
X0228840Y0825640D02*
X0229440Y0826060D01*
X0230070Y0826460D01*
X0230720Y0826830D01*
X0231380Y0827160D01*
X0232070Y0827450D01*
X0232760Y0827710D01*
X0233470Y0827940D01*
X0234190Y0828130D01*
X0234910Y0828280D01*
X0235650Y0828390D01*
X0236390Y0828470D01*
X0237130Y0828510D01*
X0237870Y0828510D01*
X0238610Y0828470D01*
X0239350Y0828390D01*
X0240090Y0828280D01*
X0240810Y0828130D01*
X0241530Y0827940D01*
X0242240Y0827710D01*
X0242930Y0827450D01*
X0243620Y0827160D01*
X0244280Y0826830D01*
X0244930Y0826460D01*
X0245560Y0826060D01*
X0246160Y0825640D01*
X0246160Y0825630D02*
X0262500Y0818350D01*
X0246170Y0790980D02*
X0245500Y0790580D01*
X0244820Y0790220D01*
X0244120Y0789880D01*
X0243400Y0789580D01*
X0242680Y0789320D01*
X0241930Y0789090D01*
X0241180Y0788900D01*
X0240430Y0788740D01*
X0239660Y0788620D01*
X0238890Y0788540D01*
X0238110Y0788490D01*
X0237340Y0788480D01*
X0236570Y0788510D01*
X0235790Y0788570D01*
X0235020Y0788680D01*
X0234260Y0788820D01*
X0233510Y0788990D01*
X0232760Y0789200D01*
X0232030Y0789450D01*
X0231310Y0789730D01*
X0230600Y0790050D01*
X0229910Y0790400D01*
X0229230Y0790790D01*
X0228840Y0790990D02*
X0212500Y0798470D01*
X0212370Y0776290D02*
X0210870Y0776290D01*
X0210110Y0775540D01*
X0210110Y0772540D01*
X0210870Y0771790D01*
X0212370Y0771790D01*
X0213120Y0772540D01*
X0214720Y0772540D02*
X0215470Y0771790D01*
X0216970Y0771790D01*
X0217720Y0772540D01*
X0217720Y0774040D01*
X0216970Y0774790D01*
X0216220Y0774790D01*
X0214720Y0774040D01*
X0214720Y0776290D01*
X0217720Y0776290D01*
X0213120Y0775540D02*
X0212370Y0776290D01*
X0235800Y0767160D02*
X0235800Y0763410D01*
X0236550Y0762650D01*
X0238060Y0762650D01*
X0238810Y0763410D01*
X0238810Y0767160D01*
X0240410Y0764910D02*
X0243410Y0764910D01*
X0242660Y0767160D02*
X0242660Y0762650D01*
X0240410Y0764910D02*
X0242660Y0767160D01*
X0246160Y0790990D02*
X0262500Y0798470D01*
X0246590Y0711810D02*
X0246590Y0711120D01*
X0246590Y0711790D01*
X0246160Y0688130D02*
X0262500Y0680850D01*
X0246160Y0688140D02*
X0245560Y0688560D01*
X0244930Y0688960D01*
X0244280Y0689330D01*
X0243620Y0689660D01*
X0242930Y0689950D01*
X0242240Y0690210D01*
X0241530Y0690440D01*
X0240810Y0690630D01*
X0240090Y0690780D01*
X0239350Y0690890D01*
X0238610Y0690970D01*
X0237870Y0691010D01*
X0237130Y0691010D01*
X0236390Y0690970D01*
X0235650Y0690890D01*
X0234910Y0690780D01*
X0234190Y0690630D01*
X0233470Y0690440D01*
X0232760Y0690210D01*
X0232070Y0689950D01*
X0231380Y0689660D01*
X0230720Y0689330D01*
X0230070Y0688960D01*
X0229440Y0688560D01*
X0228840Y0688140D01*
X0228840Y0688130D02*
X0212500Y0680460D01*
X0229230Y0653290D02*
X0229910Y0652900D01*
X0230600Y0652550D01*
X0231310Y0652230D01*
X0232030Y0651950D01*
X0232760Y0651700D01*
X0233510Y0651490D01*
X0234260Y0651320D01*
X0235020Y0651180D01*
X0235790Y0651070D01*
X0236570Y0651010D01*
X0237340Y0650980D01*
X0238110Y0650990D01*
X0238890Y0651040D01*
X0239660Y0651120D01*
X0240430Y0651240D01*
X0241180Y0651400D01*
X0241930Y0651590D01*
X0242680Y0651820D01*
X0243400Y0652080D01*
X0244120Y0652380D01*
X0244820Y0652720D01*
X0245500Y0653080D01*
X0246170Y0653480D01*
X0246160Y0653490D02*
X0262500Y0660970D01*
X0228840Y0653490D02*
X0212500Y0660970D01*
X0098570Y0677650D02*
X0095560Y0677650D01*
X0098570Y0680660D01*
X0098570Y0681410D01*
X0097820Y0682160D01*
X0096320Y0682160D01*
X0095560Y0681410D01*
X0093960Y0682160D02*
X0093960Y0678410D01*
X0093210Y0677650D01*
X0091710Y0677650D01*
X0090960Y0678410D01*
X0090960Y0682160D01*
X0072460Y0674120D02*
X0072460Y0670850D01*
X0062620Y0670850D01*
X0062620Y0670500D01*
X0072220Y0670500D01*
X0072460Y0670850D02*
X0072460Y0657780D01*
X0062620Y0657780D01*
X0062620Y0670500D01*
X0062620Y0670850D02*
X0062620Y0674120D01*
X0072460Y0674120D01*
X0055530Y0663270D02*
X0055530Y0653430D01*
X0042810Y0653430D01*
X0042810Y0663030D01*
X0042460Y0663270D02*
X0042460Y0653430D01*
X0042810Y0653430D01*
X0042460Y0653430D02*
X0039190Y0653430D01*
X0039190Y0663270D01*
X0042460Y0663270D01*
X0055530Y0663270D01*
X0039860Y0727560D02*
X0036850Y0727560D01*
X0038360Y0727560D02*
X0038360Y0732060D01*
X0036850Y0730560D01*
X0035250Y0731310D02*
X0035250Y0728310D01*
X0034500Y0727560D01*
X0032250Y0727560D01*
X0032250Y0732060D01*
X0034500Y0732060D01*
X0035250Y0731310D01*
X0064380Y0766490D02*
X0063630Y0767240D01*
X0063630Y0771000D01*
X0066630Y0771000D02*
X0066630Y0767240D01*
X0065880Y0766490D01*
X0064380Y0766490D01*
X0068230Y0766490D02*
X0071240Y0766490D01*
X0069730Y0766490D02*
X0069730Y0771000D01*
X0068230Y0769490D01*
X0078090Y0777070D02*
X0078840Y0776320D01*
X0080340Y0776320D01*
X0081090Y0777070D01*
X0081090Y0780820D01*
X0082690Y0780070D02*
X0083440Y0780820D01*
X0084940Y0780820D01*
X0085690Y0780070D01*
X0085690Y0779320D01*
X0084940Y0778570D01*
X0085690Y0777820D01*
X0085690Y0777070D01*
X0084940Y0776320D01*
X0083440Y0776320D01*
X0082690Y0777070D01*
X0084190Y0778570D02*
X0084940Y0778570D01*
X0078090Y0777070D02*
X0078090Y0780820D01*
D118*
X0207500Y0723310D03*
D76*
X0187840Y0743220D02*
X0184770Y0743220D01*
X0183240Y0743220D02*
X0180170Y0743220D01*
X0180170Y0747830D01*
X0184770Y0746290D02*
X0186310Y0747830D01*
X0186310Y0743220D01*
X0235700Y0774310D02*
X0235700Y0778920D01*
X0238000Y0778920D01*
X0238770Y0778150D01*
X0238770Y0776620D01*
X0238000Y0775850D01*
X0235700Y0775850D01*
X0237230Y0775850D02*
X0238770Y0774310D01*
X0240300Y0774310D02*
X0243370Y0774310D01*
X0244900Y0774310D02*
X0247970Y0774310D01*
X0246440Y0774310D02*
X0246440Y0778920D01*
X0244900Y0777380D01*
X0241830Y0778920D02*
X0241830Y0774310D01*
X0240300Y0777380D02*
X0241830Y0778920D01*
X0202760Y0792820D02*
X0199690Y0792820D01*
X0202760Y0795890D01*
X0202760Y0796660D01*
X0201990Y0797430D01*
X0200450Y0797430D01*
X0199690Y0796660D01*
X0196620Y0797430D02*
X0196620Y0792820D01*
X0198150Y0792820D02*
X0195080Y0792820D01*
X0193550Y0792820D02*
X0192010Y0794360D01*
X0192780Y0794360D02*
X0190480Y0794360D01*
X0190480Y0792820D02*
X0190480Y0797430D01*
X0192780Y0797430D01*
X0193550Y0796660D01*
X0193550Y0795130D01*
X0192780Y0794360D01*
X0195080Y0795890D02*
X0196620Y0797430D01*
X0202300Y0819980D02*
X0205370Y0819980D01*
X0206900Y0819980D02*
X0209970Y0823050D01*
X0209970Y0823810D01*
X0209200Y0824580D01*
X0207670Y0824580D01*
X0206900Y0823810D01*
X0206900Y0819980D02*
X0209970Y0819980D01*
X0202300Y0819980D02*
X0202300Y0824580D01*
X0089450Y0755240D02*
X0089450Y0750640D01*
X0090220Y0752940D02*
X0087150Y0752940D01*
X0089450Y0755240D01*
X0085610Y0754470D02*
X0084840Y0755240D01*
X0083310Y0755240D01*
X0082540Y0754470D01*
X0082540Y0751400D01*
X0083310Y0750640D01*
X0084840Y0750640D01*
X0085610Y0751400D01*
X0065900Y0736820D02*
X0065140Y0737580D01*
X0063600Y0737580D01*
X0062840Y0736820D01*
X0061300Y0736820D02*
X0060530Y0737580D01*
X0059000Y0737580D01*
X0058230Y0736820D01*
X0058230Y0733750D01*
X0059000Y0732980D01*
X0060530Y0732980D01*
X0061300Y0733750D01*
X0062840Y0732980D02*
X0065900Y0736050D01*
X0065900Y0736820D01*
X0065900Y0732980D02*
X0062840Y0732980D01*
X0064050Y0723070D02*
X0065800Y0723070D01*
X0066390Y0722490D01*
X0066390Y0721320D01*
X0065800Y0720740D01*
X0064050Y0720740D01*
X0065220Y0720740D02*
X0066390Y0719570D01*
X0067640Y0719570D02*
X0069980Y0719570D01*
X0068810Y0719570D02*
X0068810Y0723070D01*
X0067640Y0721900D01*
X0071230Y0722490D02*
X0071230Y0720150D01*
X0073570Y0722490D01*
X0073570Y0720150D01*
X0072990Y0719570D01*
X0071820Y0719570D01*
X0071230Y0720150D01*
X0071230Y0722490D02*
X0071820Y0723070D01*
X0072990Y0723070D01*
X0073570Y0722490D01*
X0082110Y0723070D02*
X0082110Y0719570D01*
X0082110Y0720740D02*
X0083860Y0720740D01*
X0084450Y0721320D01*
X0084450Y0722490D01*
X0083860Y0723070D01*
X0082110Y0723070D01*
X0083280Y0720740D02*
X0084450Y0719570D01*
X0085700Y0719570D02*
X0085700Y0720150D01*
X0088040Y0722490D01*
X0088040Y0723070D01*
X0085700Y0723070D01*
X0064050Y0723070D02*
X0064050Y0719570D01*
X0064810Y0681990D02*
X0062500Y0681990D01*
X0062500Y0677390D01*
X0064810Y0677390D01*
X0065570Y0678160D01*
X0065570Y0681220D01*
X0064810Y0681990D01*
X0067110Y0681220D02*
X0067870Y0681990D01*
X0069410Y0681990D01*
X0070180Y0681220D01*
X0070180Y0680460D01*
X0069410Y0679690D01*
X0070180Y0678920D01*
X0070180Y0678160D01*
X0069410Y0677390D01*
X0067870Y0677390D01*
X0067110Y0678160D01*
X0068640Y0679690D02*
X0069410Y0679690D01*
X0045750Y0669100D02*
X0045750Y0668330D01*
X0042680Y0665260D01*
X0045750Y0665260D01*
X0045750Y0669100D02*
X0044980Y0669870D01*
X0043450Y0669870D01*
X0042680Y0669100D01*
X0041140Y0669100D02*
X0040380Y0669870D01*
X0038070Y0669870D01*
X0038070Y0665260D01*
X0040380Y0665260D01*
X0041140Y0666030D01*
X0041140Y0669100D01*
X0175990Y0670440D02*
X0175990Y0665840D01*
X0175990Y0667370D02*
X0178290Y0667370D01*
X0179060Y0668140D01*
X0179060Y0669670D01*
X0178290Y0670440D01*
X0175990Y0670440D01*
X0177530Y0667370D02*
X0179060Y0665840D01*
X0180590Y0665840D02*
X0183660Y0665840D01*
X0182130Y0665840D02*
X0182130Y0670440D01*
X0180590Y0668910D01*
X0185200Y0669670D02*
X0185970Y0670440D01*
X0187500Y0670440D01*
X0188270Y0669670D01*
X0188270Y0668910D01*
X0187500Y0668140D01*
X0188270Y0667370D01*
X0188270Y0666600D01*
X0187500Y0665840D01*
X0185970Y0665840D01*
X0185200Y0666600D01*
X0186730Y0668140D02*
X0187500Y0668140D01*
X0257300Y0693380D02*
X0260370Y0693380D01*
X0261900Y0694150D02*
X0262670Y0693380D01*
X0264200Y0693380D01*
X0264970Y0694150D01*
X0264970Y0694920D01*
X0264200Y0695680D01*
X0263440Y0695680D01*
X0264200Y0695680D02*
X0264970Y0696450D01*
X0264970Y0697220D01*
X0264200Y0697990D01*
X0262670Y0697990D01*
X0261900Y0697220D01*
X0257300Y0697990D02*
X0257300Y0693380D01*
X0071870Y0776260D02*
X0068800Y0776260D01*
X0067270Y0776260D02*
X0065730Y0777800D01*
X0066500Y0777800D02*
X0064200Y0777800D01*
X0064200Y0776260D02*
X0064200Y0780870D01*
X0066500Y0780870D01*
X0067270Y0780100D01*
X0067270Y0778560D01*
X0066500Y0777800D01*
X0068800Y0779330D02*
X0070340Y0780870D01*
X0070340Y0776260D01*
X0060140Y0794420D02*
X0058600Y0794420D01*
X0057840Y0795180D01*
X0056300Y0795180D02*
X0055530Y0794420D01*
X0054000Y0794420D01*
X0053230Y0795180D01*
X0053230Y0798250D01*
X0054000Y0799020D01*
X0055530Y0799020D01*
X0056300Y0798250D01*
X0057840Y0798250D02*
X0058600Y0799020D01*
X0060140Y0799020D01*
X0060900Y0798250D01*
X0060900Y0797480D01*
X0060140Y0796720D01*
X0060900Y0795950D01*
X0060900Y0795180D01*
X0060140Y0794420D01*
X0060140Y0796720D02*
X0059370Y0796720D01*
X0039370Y0787600D02*
X0038610Y0788370D01*
X0037070Y0788370D01*
X0036300Y0787600D01*
X0034770Y0787600D02*
X0034770Y0786060D01*
X0034000Y0785300D01*
X0031700Y0785300D01*
X0033230Y0785300D02*
X0034770Y0783760D01*
X0036300Y0783760D02*
X0039370Y0786830D01*
X0039370Y0787600D01*
X0039370Y0783760D02*
X0036300Y0783760D01*
X0031700Y0783760D02*
X0031700Y0788370D01*
X0034000Y0788370D01*
X0034770Y0787600D01*
X0035000Y0770610D02*
X0033470Y0770610D01*
X0032700Y0769850D01*
X0032700Y0766780D01*
X0033470Y0766010D01*
X0035000Y0766010D01*
X0035770Y0766780D01*
X0037300Y0766010D02*
X0040370Y0766010D01*
X0038840Y0766010D02*
X0038840Y0770610D01*
X0037300Y0769080D01*
X0035770Y0769850D02*
X0035000Y0770610D01*
D32*
X0237500Y0808310D03*
X0237500Y0670810D03*
D142*
X0034500Y0720810D03*
D31*
X0028250Y0720810D03*
X0051750Y0720810D03*
D68*
X0072500Y0711560D03*
X0085000Y0711560D03*
X0085000Y0690060D03*
X0072500Y0690060D03*
D120*
X0050910Y0677030D02*
X0043780Y0677030D01*
X0043780Y0704590D01*
X0050910Y0704590D01*
X0050910Y0677030D01*
X0050910Y0670810D01*
X0044610Y0670810D01*
X0044610Y0671810D01*
X0020550Y0671810D01*
X0011890Y0679000D01*
X0011890Y0702620D01*
X0020160Y0709810D01*
X0044610Y0709810D01*
X0044610Y0710810D01*
X0050910Y0710810D01*
X0050910Y0704590D01*
X0020550Y0693170D02*
X0020550Y0688450D01*
X0018190Y0688450D01*
X0018190Y0693170D01*
X0020550Y0693170D01*
X0018190Y0693170D02*
X0014250Y0693170D01*
X0014250Y0688450D01*
X0018190Y0688450D01*
X0246590Y0704920D02*
X0252890Y0704920D01*
X0252890Y0705910D01*
X0277340Y0705910D01*
X0285590Y0713073D01*
X0285610Y0713090D02*
X0285590Y0748547D02*
X0276950Y0755710D01*
X0252890Y0755710D01*
X0252890Y0756700D01*
X0246590Y0756700D01*
X0246590Y0750500D01*
X0253720Y0750500D01*
X0253720Y0711120D01*
X0246590Y0711120D01*
X0246590Y0750500D01*
X0276950Y0733170D02*
X0276950Y0728450D01*
X0279310Y0728450D01*
X0279310Y0733170D01*
X0283250Y0733170D01*
X0283250Y0728450D01*
X0279310Y0728450D01*
X0279310Y0733170D02*
X0276950Y0733170D01*
X0246590Y0711120D02*
X0246590Y0704920D01*
D76*
X0010400Y0645410D02*
X0010400Y0832420D01*
X0010400Y0832420D02*
X0285990Y0832420D01*
X0285990Y0832420D02*
X0285990Y0645410D01*
X0010400Y0645410D01*
M02*
