G75*
G70*
%OFA0B0*%
%FSLAX25Y25*%
%IPPOS*%
%LPD*%
%AMOC8*
5,1,8,0,0,1.08239X$1,22.5*
%
%ADD10R,0.05920X0.06710*%
%ADD105R,0.06000X0.03000*%
%ADD109C,0.05950*%
%ADD112OC8,0.09300*%
%ADD116C,0.06000*%
%ADD117R,0.13400X0.06780*%
%ADD120C,0.06540*%
%ADD124C,0.09860*%
%ADD126R,0.06780X0.05520*%
%ADD127C,0.06400*%
%ADD130R,0.06500X0.04400*%
%ADD131R,0.03560X0.03560*%
%ADD132C,0.07400*%
%ADD133R,0.03000X0.08600*%
%ADD134R,0.09800X0.09800*%
%ADD136R,0.18910X0.32300*%
%ADD137R,0.07100X0.02900*%
%ADD140R,0.08600X0.03000*%
%ADD142C,0.13400*%
%ADD144C,0.04800*%
%ADD145R,0.05520X0.06780*%
%ADD147R,0.04340X0.03560*%
%ADD168R,0.08600X0.02900*%
%ADD169R,0.01800X0.05000*%
%ADD170R,0.02500X0.06000*%
%ADD171R,0.03360X0.07490*%
%ADD172R,0.05920X0.08670*%
%ADD173R,0.04740X0.08670*%
%ADD174R,0.10250X0.07890*%
%ADD175R,0.03200X0.02000*%
%ADD176R,0.16550X0.22060*%
%ADD177R,0.06710X0.12610*%
%ADD18R,0.03950X0.03950*%
%ADD20OC8,0.06000*%
%ADD22R,0.03000X0.06000*%
%ADD26R,0.04740X0.04740*%
%ADD28R,0.05130X0.04740*%
%ADD30R,0.06710X0.05920*%
%ADD36R,0.12610X0.11820*%
%ADD39R,0.03560X0.04340*%
%ADD40OC8,0.06400*%
%ADD44R,0.07490X0.03360*%
%ADD48R,0.06600X0.02200*%
%ADD50R,0.04740X0.05130*%
%ADD54R,0.07890X0.07100*%
%ADD57R,0.05400X0.02200*%
%ADD58R,0.04700X0.02000*%
%ADD59R,0.06780X0.13400*%
%ADD60OC8,0.10800*%
%ADD68C,0.12610*%
%ADD71R,0.06820X0.06820*%
%ADD74R,0.02200X0.05400*%
%ADD81R,0.05920X0.05920*%
%ADD87R,0.04760X0.04760*%
%ADD88R,0.07100X0.07890*%
%ADD96C,0.06820*%
X0010000Y0010000D02*
G75*
%LPD*%
D142*
X0273000Y0022000D03*
X0274000Y0391000D03*
X0022000Y0391000D03*
X0022000Y0022000D03*
D169*
X0130000Y0053400D03*
X0132000Y0053400D03*
X0134000Y0053400D03*
X0136000Y0053400D03*
X0136000Y0064600D03*
X0134000Y0064600D03*
X0132000Y0064600D03*
X0130000Y0064600D03*
D133*
X0098500Y0072300D03*
X0093500Y0072300D03*
X0088500Y0072300D03*
X0083500Y0072300D03*
X0083500Y0091700D03*
X0088500Y0091700D03*
X0093500Y0091700D03*
X0098500Y0091700D03*
D20*
X0097000Y0108000D03*
X0087000Y0108000D03*
X0111000Y0070000D03*
X0122000Y0069000D03*
X0122000Y0049000D03*
X0111000Y0050000D03*
X0095000Y0056000D03*
X0085000Y0056000D03*
X0049000Y0097000D03*
X0049000Y0127000D03*
X0026000Y0114000D03*
X0026000Y0104000D03*
X0241000Y0145000D03*
X0241000Y0155000D03*
X0251000Y0155000D03*
X0251000Y0145000D03*
X0262000Y0145000D03*
X0261000Y0154000D03*
X0271000Y0154000D03*
X0272000Y0145000D03*
X0266000Y0082000D03*
X0266000Y0072000D03*
X0254000Y0072000D03*
X0254000Y0082000D03*
X0250000Y0315000D03*
X0260000Y0315000D03*
D48*
X0259500Y0304700D03*
X0259500Y0302100D03*
X0259500Y0299600D03*
X0259500Y0297000D03*
X0259500Y0294400D03*
X0259500Y0291900D03*
X0259500Y0289300D03*
X0236500Y0289300D03*
X0236500Y0291900D03*
X0236500Y0294400D03*
X0236500Y0297000D03*
X0236500Y0299600D03*
X0236500Y0302100D03*
X0236500Y0304700D03*
D60*
X0155500Y0130000D03*
X0155500Y0090000D03*
X0225500Y0110000D03*
D168*
X0215700Y0164500D03*
X0215700Y0169500D03*
X0215700Y0174500D03*
X0215700Y0179500D03*
X0196300Y0179500D03*
X0196300Y0174500D03*
X0196300Y0169500D03*
X0196300Y0164500D03*
D22*
X0168000Y0247000D03*
X0164000Y0255000D03*
X0160000Y0247000D03*
X0147000Y0247000D03*
X0139000Y0247000D03*
X0143000Y0255000D03*
X0126000Y0247000D03*
X0118000Y0247000D03*
X0122000Y0255000D03*
X0106000Y0247000D03*
X0102000Y0255000D03*
X0098000Y0247000D03*
D57*
X0199900Y0271400D03*
X0199900Y0276600D03*
X0208100Y0276600D03*
X0208100Y0274000D03*
X0208100Y0271400D03*
D140*
X0071700Y0229500D03*
X0071700Y0224500D03*
X0071700Y0219500D03*
X0071700Y0214500D03*
X0052300Y0214500D03*
X0052300Y0219500D03*
X0052300Y0224500D03*
X0052300Y0229500D03*
D132*
X0064000Y0138000D03*
X0064000Y0098000D03*
D26*
X0185000Y0271000D03*
D10*
X0199260Y0286000D03*
X0206740Y0286000D03*
X0065740Y0206000D03*
X0058260Y0206000D03*
X0049740Y0240000D03*
X0042260Y0240000D03*
D88*
X0040490Y0252000D03*
X0051510Y0252000D03*
X0197490Y0261000D03*
X0208510Y0261000D03*
D174*
X0040000Y0228970D03*
X0040000Y0213030D03*
D120*
X0154220Y0366460D02*
X0154220Y0372200D01*
X0164060Y0372200D02*
X0164060Y0366460D01*
X0171930Y0366460D02*
X0171930Y0372200D01*
X0181780Y0372200D02*
X0181780Y0366460D01*
D124*
X0193860Y0380000D03*
X0142130Y0380000D03*
D116*
X0138000Y0343600D02*
X0138000Y0338400D01*
X0138000Y0313600D02*
X0138000Y0308400D01*
X0138000Y0298600D02*
X0138000Y0293400D01*
X0138000Y0268600D02*
X0138000Y0263400D01*
X0083000Y0262400D02*
X0083000Y0267600D01*
X0083000Y0292400D02*
X0083000Y0297600D01*
X0083000Y0309400D02*
X0083000Y0314600D01*
X0083000Y0339400D02*
X0083000Y0344600D01*
D74*
X0252400Y0193800D03*
X0257600Y0193800D03*
X0257600Y0186200D03*
X0255000Y0186200D03*
X0252400Y0186200D03*
X0269400Y0186200D03*
X0272000Y0186200D03*
X0274600Y0186200D03*
X0274600Y0193800D03*
X0269400Y0193800D03*
X0269400Y0216200D03*
X0272000Y0216200D03*
X0274600Y0216200D03*
X0274600Y0223800D03*
X0269400Y0223800D03*
X0269400Y0235200D03*
X0272000Y0235200D03*
X0274600Y0235200D03*
X0274600Y0242800D03*
X0269400Y0242800D03*
D39*
X0250560Y0281000D03*
X0245440Y0281000D03*
X0210560Y0225000D03*
X0205440Y0225000D03*
X0124560Y0183000D03*
X0119440Y0183000D03*
X0119440Y0175000D03*
X0124560Y0175000D03*
X0124560Y0168000D03*
X0119440Y0168000D03*
X0106560Y0168000D03*
X0101440Y0168000D03*
X0101440Y0175000D03*
X0106560Y0175000D03*
X0106560Y0183000D03*
X0101440Y0183000D03*
D81*
X0240820Y0322470D03*
X0240820Y0331530D03*
D172*
X0219170Y0327000D03*
D147*
X0227000Y0299560D03*
X0227000Y0294440D03*
X0219000Y0257560D03*
X0219000Y0252440D03*
X0249000Y0252440D03*
X0249000Y0257560D03*
X0262000Y0269440D03*
X0262000Y0274560D03*
X0268000Y0274560D03*
X0268000Y0269440D03*
X0269000Y0294440D03*
X0269000Y0299560D03*
X0259000Y0238560D03*
X0259000Y0233440D03*
X0259000Y0223560D03*
X0259000Y0218440D03*
X0255000Y0096560D03*
X0255000Y0091440D03*
X0274000Y0091440D03*
X0274000Y0096560D03*
D116*
X0182000Y0171000D03*
X0182000Y0181000D03*
X0228000Y0252000D03*
X0238000Y0252000D03*
D171*
X0168000Y0230820D03*
X0163000Y0230820D03*
X0158000Y0230820D03*
X0153000Y0230820D03*
X0148000Y0230820D03*
X0143000Y0230820D03*
X0138000Y0230820D03*
X0133000Y0230820D03*
X0128000Y0230820D03*
X0123000Y0230820D03*
X0118000Y0230820D03*
X0113000Y0230820D03*
X0108000Y0230820D03*
X0103000Y0230820D03*
X0103000Y0193180D03*
X0108000Y0193180D03*
X0113000Y0193180D03*
X0118000Y0193180D03*
X0123000Y0193180D03*
X0128000Y0193180D03*
X0133000Y0193180D03*
X0138000Y0193180D03*
X0143000Y0193180D03*
X0148000Y0193180D03*
X0153000Y0193180D03*
X0158000Y0193180D03*
X0163000Y0193180D03*
X0168000Y0193180D03*
D109*
X0255170Y0063580D02*
X0260320Y0063580D01*
X0259910Y0035840D02*
X0259910Y0030690D01*
X0244570Y0020270D02*
X0239420Y0020270D01*
X0231560Y0042890D02*
X0231560Y0048040D01*
X0222120Y0048400D02*
X0222120Y0053550D01*
X0224820Y0351430D02*
X0219670Y0351430D01*
X0220080Y0379170D02*
X0220080Y0384320D01*
X0235420Y0394730D02*
X0240570Y0394730D01*
X0248430Y0372110D02*
X0248430Y0366960D01*
X0257880Y0366600D02*
X0257880Y0361450D01*
D112*
X0195000Y0233000D03*
D170*
X0135800Y0089000D03*
X0133300Y0089000D03*
X0130700Y0089000D03*
X0128200Y0089000D03*
X0128200Y0079000D03*
X0130700Y0079000D03*
X0133300Y0079000D03*
X0135800Y0079000D03*
D127*
X0137000Y0102200D02*
X0137000Y0107800D01*
X0127000Y0107800D02*
X0127000Y0102200D01*
D173*
X0126000Y0266830D03*
X0116000Y0266830D03*
X0106000Y0266830D03*
X0096000Y0266830D03*
X0096000Y0295170D03*
X0106000Y0295170D03*
X0116000Y0295170D03*
X0126000Y0295170D03*
X0126000Y0311830D03*
X0116000Y0311830D03*
X0106000Y0311830D03*
X0096000Y0311830D03*
X0096000Y0340170D03*
X0106000Y0340170D03*
X0116000Y0340170D03*
X0126000Y0340170D03*
X0071000Y0341170D03*
X0061000Y0341170D03*
X0051000Y0341170D03*
X0041000Y0341170D03*
X0041000Y0312830D03*
X0051000Y0312830D03*
X0051000Y0295170D03*
X0041000Y0295170D03*
X0041000Y0266830D03*
X0051000Y0266830D03*
X0061000Y0266830D03*
X0071000Y0266830D03*
X0071000Y0295170D03*
X0061000Y0295170D03*
X0061000Y0312830D03*
X0071000Y0312830D03*
D131*
X0156000Y0155000D03*
X0167000Y0155000D03*
X0258000Y0252000D03*
X0266000Y0252000D03*
X0266000Y0260000D03*
X0258000Y0260000D03*
D126*
X0070190Y0069310D03*
X0070190Y0052300D03*
D145*
X0071300Y0083800D03*
X0054300Y0083800D03*
D175*
X0219000Y0214250D03*
X0219000Y0216750D03*
X0219000Y0219250D03*
X0219000Y0221750D03*
X0219000Y0224250D03*
X0219000Y0226750D03*
X0219000Y0229250D03*
X0219000Y0231750D03*
X0219000Y0234250D03*
X0219000Y0236750D03*
X0219000Y0239250D03*
X0219000Y0241750D03*
X0249000Y0241750D03*
X0249000Y0239250D03*
X0249000Y0236750D03*
X0249000Y0234250D03*
X0249000Y0231750D03*
X0249000Y0229250D03*
X0249000Y0226750D03*
X0249000Y0224250D03*
X0249000Y0221750D03*
X0249000Y0219250D03*
X0249000Y0216750D03*
X0249000Y0214250D03*
D18*
X0212000Y0212240D03*
X0212000Y0218150D03*
X0254850Y0105000D03*
X0260750Y0105000D03*
X0268240Y0105000D03*
X0274150Y0105000D03*
D177*
X0077510Y0243000D03*
X0065700Y0243000D03*
D176*
X0081860Y0172390D03*
X0039740Y0172390D03*
D96*
X0044000Y0060910D03*
X0055820Y0060910D03*
X0055820Y0049100D03*
X0062280Y0355180D03*
X0074090Y0355180D03*
X0074090Y0366990D03*
X0085900Y0366990D03*
X0085900Y0355180D03*
X0097710Y0355180D03*
X0097710Y0366990D03*
D71*
X0062280Y0366990D03*
X0044000Y0049100D03*
D68*
X0027000Y0055000D03*
X0070740Y0384000D03*
X0089250Y0384000D03*
D127*
X0199000Y0034000D03*
D40*
X0199000Y0024000D03*
X0189000Y0024000D03*
X0189000Y0034000D03*
X0179000Y0034000D03*
X0179000Y0024000D03*
X0169000Y0024000D03*
X0169000Y0034000D03*
X0159000Y0034000D03*
X0159000Y0024000D03*
X0149000Y0024000D03*
X0149000Y0034000D03*
X0139000Y0034000D03*
X0139000Y0024000D03*
X0129000Y0024000D03*
X0129000Y0034000D03*
X0119000Y0034000D03*
X0119000Y0024000D03*
X0109000Y0024000D03*
X0109000Y0034000D03*
X0099000Y0034000D03*
X0099000Y0024000D03*
X0089000Y0024000D03*
X0089000Y0034000D03*
X0079000Y0034000D03*
X0079000Y0024000D03*
D144*
X0105000Y0056000D03*
X0101000Y0065000D03*
X0087000Y0079000D03*
X0130000Y0073000D03*
X0132000Y0048000D03*
X0174000Y0158000D03*
X0155000Y0187000D03*
X0164000Y0218000D03*
X0178000Y0240000D03*
X0183000Y0245000D03*
X0164000Y0247000D03*
X0143000Y0247000D03*
X0137000Y0237000D03*
X0132000Y0242000D03*
X0118000Y0237000D03*
X0123000Y0218000D03*
X0124000Y0213000D03*
X0132000Y0223000D03*
X0143000Y0224000D03*
X0134000Y0203000D03*
X0115000Y0217000D03*
X0110000Y0187000D03*
X0111000Y0179000D03*
X0071000Y0260000D03*
X0071000Y0306000D03*
X0076000Y0335000D03*
X0063000Y0348000D03*
X0116000Y0277000D03*
X0126000Y0305000D03*
X0164000Y0277000D03*
X0222000Y0192000D03*
X0226000Y0188000D03*
X0252000Y0207000D03*
X0258000Y0212000D03*
X0264000Y0206000D03*
X0269000Y0206000D03*
X0269000Y0211000D03*
X0274000Y0200000D03*
X0262000Y0188000D03*
X0259000Y0201000D03*
X0254000Y0231000D03*
X0253000Y0241000D03*
X0253000Y0246000D03*
X0263000Y0264000D03*
X0272000Y0260000D03*
X0275000Y0252000D03*
X0273000Y0271000D03*
X0273000Y0284000D03*
X0262000Y0285000D03*
X0244000Y0303000D03*
X0269000Y0230000D03*
X0010000Y0409250D02*
G75*
%LPD*%
D142*
X0025000Y0424250D03*
X0270000Y0424250D03*
X0265000Y0629250D03*
X0025000Y0629250D03*
D48*
X0138500Y0570850D03*
X0138500Y0568350D03*
X0138500Y0565750D03*
X0138500Y0563250D03*
X0138500Y0560650D03*
X0138500Y0558050D03*
X0138500Y0555550D03*
X0138500Y0552950D03*
X0138500Y0550450D03*
X0138500Y0547850D03*
X0138500Y0545250D03*
X0138500Y0542750D03*
X0138500Y0540150D03*
X0138500Y0537650D03*
X0161500Y0537650D03*
X0161500Y0540150D03*
X0161500Y0542750D03*
X0161500Y0545250D03*
X0161500Y0547850D03*
X0161500Y0550450D03*
X0161500Y0552950D03*
X0161500Y0555550D03*
X0161500Y0558050D03*
X0161500Y0560650D03*
X0161500Y0563250D03*
X0161500Y0565750D03*
X0161500Y0568350D03*
X0161500Y0570850D03*
D140*
X0089700Y0536750D03*
X0089700Y0531750D03*
X0089700Y0526750D03*
X0089700Y0521750D03*
X0089700Y0506750D03*
X0089700Y0501750D03*
X0089700Y0496750D03*
X0089700Y0491750D03*
X0070300Y0491750D03*
X0070300Y0496750D03*
X0070300Y0501750D03*
X0070300Y0506750D03*
X0070300Y0521750D03*
X0070300Y0526750D03*
X0070300Y0531750D03*
X0070300Y0536750D03*
D20*
X0075000Y0484250D03*
X0085000Y0484250D03*
X0085000Y0454250D03*
X0075000Y0454250D03*
X0193030Y0543190D03*
X0223030Y0543190D03*
D22*
X0203700Y0603850D03*
X0200000Y0603850D03*
X0196300Y0603850D03*
X0196300Y0614650D03*
X0203700Y0614650D03*
D36*
X0220280Y0574250D03*
X0179730Y0574250D03*
D50*
X0155000Y0600900D03*
X0155000Y0607600D03*
X0196660Y0624250D03*
X0203350Y0624250D03*
X0090000Y0620900D03*
X0090000Y0627600D03*
D130*
X0215000Y0612450D03*
X0215000Y0606050D03*
D145*
X0083270Y0568500D03*
X0083660Y0555120D03*
X0066660Y0555120D03*
X0066260Y0568500D03*
D44*
X0186180Y0511810D03*
X0186180Y0506810D03*
X0186180Y0501810D03*
X0186180Y0496810D03*
X0186180Y0491810D03*
X0186180Y0486810D03*
X0186180Y0481810D03*
X0186180Y0476810D03*
X0186180Y0471810D03*
X0186180Y0466810D03*
X0186180Y0461810D03*
X0186180Y0456810D03*
X0186180Y0451810D03*
X0186180Y0446810D03*
X0223820Y0446810D03*
X0223820Y0451810D03*
X0223820Y0456810D03*
X0223820Y0461810D03*
X0223820Y0466810D03*
X0223820Y0471810D03*
X0223820Y0476810D03*
X0223820Y0481810D03*
X0223820Y0486810D03*
X0223820Y0491810D03*
X0223820Y0496810D03*
X0223820Y0501810D03*
X0223820Y0506810D03*
X0223820Y0511810D03*
D58*
X0151490Y0463320D03*
X0151490Y0460770D03*
X0151490Y0458210D03*
X0151490Y0455650D03*
X0151490Y0453090D03*
X0151490Y0450530D03*
X0151490Y0447970D03*
X0151490Y0445410D03*
X0151490Y0442850D03*
X0151490Y0440290D03*
X0151490Y0437730D03*
X0151490Y0435180D03*
X0128510Y0435180D03*
X0128510Y0437730D03*
X0128510Y0440290D03*
X0128510Y0442850D03*
X0128510Y0445410D03*
X0128510Y0447970D03*
X0128510Y0450530D03*
X0128510Y0453090D03*
X0128510Y0455650D03*
X0128510Y0458210D03*
X0128510Y0460770D03*
X0128510Y0463320D03*
D136*
X0140080Y0449330D03*
D57*
X0130240Y0509010D03*
X0130240Y0514210D03*
X0122040Y0514210D03*
X0122040Y0511610D03*
X0122040Y0509010D03*
X0196200Y0526650D03*
X0196200Y0529250D03*
X0196200Y0531850D03*
X0203800Y0531850D03*
X0203800Y0526650D03*
X0216200Y0526650D03*
X0216200Y0531850D03*
X0223800Y0531850D03*
X0223800Y0529250D03*
X0223800Y0526650D03*
D137*
X0131410Y0611750D03*
X0131410Y0616750D03*
X0131410Y0621750D03*
X0131410Y0626750D03*
X0110410Y0626750D03*
X0110410Y0621750D03*
X0110410Y0616750D03*
X0110410Y0611750D03*
D134*
X0120910Y0619250D03*
D109*
X0053520Y0479130D02*
X0048370Y0479130D01*
X0048010Y0469680D02*
X0042860Y0469680D01*
X0020240Y0461820D02*
X0020240Y0456680D01*
X0030660Y0441340D02*
X0035810Y0441340D01*
X0063550Y0440930D02*
X0063550Y0446080D01*
D18*
X0075000Y0447400D03*
X0075000Y0441490D03*
D71*
X0042010Y0498340D03*
X0042010Y0543340D03*
X0042010Y0588340D03*
D96*
X0053820Y0588340D03*
X0053820Y0600160D03*
X0042010Y0600160D03*
X0042010Y0555160D03*
X0053820Y0555160D03*
X0053820Y0543340D03*
X0053820Y0510160D03*
X0042010Y0510160D03*
X0053820Y0498340D03*
X0238150Y0447280D03*
X0249960Y0447280D03*
X0247990Y0589250D03*
X0236180Y0589250D03*
D68*
X0265000Y0589250D03*
X0266970Y0447280D03*
X0025000Y0504250D03*
X0025000Y0549250D03*
X0025000Y0594250D03*
D39*
X0101930Y0568700D03*
X0107050Y0568700D03*
X0107050Y0562790D03*
X0101930Y0562790D03*
X0101930Y0556890D03*
X0107050Y0556890D03*
X0117680Y0556890D03*
X0122800Y0556890D03*
X0122800Y0562790D03*
X0117680Y0562790D03*
X0117680Y0568700D03*
X0122800Y0568700D03*
X0232440Y0554250D03*
X0237560Y0554250D03*
X0237560Y0549250D03*
X0232440Y0549250D03*
X0117560Y0468190D03*
X0112440Y0468190D03*
X0102560Y0468190D03*
X0097440Y0468190D03*
X0099180Y0419090D03*
X0094060Y0419090D03*
X0107840Y0419090D03*
X0112950Y0419090D03*
D30*
X0118270Y0435040D03*
X0118270Y0442520D03*
X0110400Y0507870D03*
X0110400Y0515350D03*
X0185000Y0535350D03*
X0185000Y0542830D03*
D54*
X0141890Y0517120D03*
X0141890Y0506100D03*
X0080000Y0618740D03*
X0080000Y0629760D03*
D10*
X0117920Y0598310D03*
X0124610Y0598310D03*
X0111850Y0482120D03*
X0104370Y0482120D03*
X0102320Y0460430D03*
X0094840Y0460430D03*
X0094840Y0448620D03*
X0102320Y0448620D03*
X0102320Y0438780D03*
X0094840Y0438780D03*
X0094840Y0426970D03*
X0102320Y0426970D03*
X0136660Y0474250D03*
X0143350Y0474250D03*
X0165710Y0456490D03*
X0173190Y0456490D03*
X0173190Y0444680D03*
X0165710Y0444680D03*
X0165710Y0432870D03*
X0173190Y0432870D03*
X0173190Y0419090D03*
X0165710Y0419090D03*
D147*
X0234770Y0472440D03*
X0239770Y0472440D03*
X0244770Y0472440D03*
X0244770Y0477560D03*
X0239770Y0477560D03*
X0234770Y0477560D03*
X0234770Y0487440D03*
X0239770Y0487440D03*
X0244770Y0487440D03*
X0244770Y0492560D03*
X0239770Y0492560D03*
X0234770Y0492560D03*
D28*
X0145000Y0600900D03*
X0145000Y0607600D03*
X0145000Y0615900D03*
X0145000Y0622600D03*
D132*
X0065000Y0629250D03*
X0065000Y0589250D03*
D127*
X0270910Y0478340D03*
D40*
X0260910Y0478340D03*
X0260910Y0488340D03*
X0270910Y0488340D03*
X0270910Y0498340D03*
X0260910Y0498340D03*
X0260910Y0508340D03*
X0270910Y0508340D03*
X0270910Y0518340D03*
X0260910Y0518340D03*
X0260910Y0528340D03*
X0270910Y0528340D03*
X0270910Y0538340D03*
X0260910Y0538340D03*
X0260910Y0548340D03*
X0270910Y0548340D03*
D117*
X0179920Y0605430D03*
X0179920Y0629920D03*
D87*
X0122210Y0539170D03*
X0116300Y0507680D03*
X0126140Y0476180D03*
X0155670Y0503740D03*
D144*
X0130080Y0497830D03*
X0104490Y0507680D03*
X0096620Y0497830D03*
X0082840Y0501770D03*
X0076930Y0503740D03*
X0082840Y0511610D03*
X0076930Y0513580D03*
X0067090Y0515550D03*
X0082840Y0527360D03*
X0098580Y0531300D03*
X0106460Y0531300D03*
X0120240Y0523420D03*
X0112360Y0562790D03*
X0118270Y0574600D03*
X0126140Y0582480D03*
X0128110Y0568700D03*
X0069060Y0541140D03*
X0063150Y0537200D03*
X0049370Y0503740D03*
X0067090Y0486020D03*
X0114330Y0474210D03*
X0122210Y0462400D03*
X0122210Y0448620D03*
X0124180Y0432870D03*
X0108430Y0425000D03*
X0155670Y0430900D03*
X0163550Y0450590D03*
X0169450Y0462400D03*
X0163550Y0468310D03*
X0157640Y0462400D03*
X0179290Y0454530D03*
X0198980Y0462400D03*
X0198980Y0468310D03*
X0204880Y0474210D03*
X0212760Y0476180D03*
X0216700Y0486020D03*
X0216700Y0495860D03*
X0230470Y0482080D03*
X0236380Y0482080D03*
X0242290Y0482080D03*
X0248190Y0482080D03*
X0254100Y0480120D03*
X0248190Y0468310D03*
X0242290Y0468310D03*
X0236380Y0466340D03*
X0242290Y0454530D03*
X0261970Y0468310D03*
X0252130Y0497830D03*
X0246220Y0497830D03*
X0240320Y0497830D03*
X0230470Y0517520D03*
X0238350Y0525390D03*
X0220630Y0535230D03*
X0210790Y0531300D03*
X0200950Y0521450D03*
X0197010Y0507680D03*
X0179290Y0482080D03*
X0179290Y0476180D03*
X0232440Y0543110D03*
X0242290Y0543110D03*
X0242290Y0554920D03*
X0230470Y0566730D03*
X0104490Y0623820D03*
X0094650Y0631690D03*
X0010000Y0645810D02*
G75*
%LPD*%
D142*
X0021810Y0657620D03*
X0021810Y0795410D03*
X0273780Y0795410D03*
X0273780Y0661560D03*
D48*
X0101500Y0724210D03*
X0101500Y0726710D03*
X0101500Y0729310D03*
X0101500Y0731810D03*
X0101500Y0734410D03*
X0101500Y0737010D03*
X0101500Y0739510D03*
X0101500Y0742110D03*
X0101500Y0744610D03*
X0101500Y0747210D03*
X0101500Y0749810D03*
X0101500Y0752310D03*
X0101500Y0754910D03*
X0101500Y0757410D03*
X0078500Y0757410D03*
X0078500Y0754910D03*
X0078500Y0752310D03*
X0078500Y0749810D03*
X0078500Y0747210D03*
X0078500Y0744610D03*
X0078500Y0742110D03*
X0078500Y0739510D03*
X0078500Y0737010D03*
X0078500Y0734410D03*
X0078500Y0731810D03*
X0078500Y0729310D03*
X0078500Y0726710D03*
X0078500Y0724210D03*
D105*
X0144600Y0724510D03*
X0144600Y0720810D03*
X0144600Y0717110D03*
X0155400Y0717110D03*
X0155400Y0724510D03*
X0155400Y0762110D03*
X0144600Y0762110D03*
X0144600Y0765810D03*
X0144600Y0769510D03*
X0155400Y0769510D03*
X0155400Y0674510D03*
X0144600Y0674510D03*
X0144600Y0670810D03*
X0144600Y0667110D03*
X0155400Y0667110D03*
D36*
X0179720Y0675810D03*
X0220280Y0675810D03*
X0220280Y0720810D03*
X0179720Y0720810D03*
X0179720Y0765810D03*
X0220280Y0765810D03*
D28*
X0165000Y0769150D03*
X0165000Y0762460D03*
X0165000Y0724150D03*
X0165000Y0717460D03*
X0165000Y0674150D03*
X0165000Y0667460D03*
X0063350Y0745810D03*
X0056650Y0745810D03*
X0053350Y0775810D03*
X0046650Y0775810D03*
D130*
X0120000Y0769010D03*
X0120000Y0762610D03*
X0120000Y0724010D03*
X0120000Y0717610D03*
X0121060Y0674010D03*
X0121060Y0667610D03*
D140*
X0094700Y0668310D03*
X0094700Y0673310D03*
X0094700Y0678310D03*
X0094700Y0683310D03*
X0075300Y0683310D03*
X0075300Y0678310D03*
X0075300Y0673310D03*
X0075300Y0668310D03*
D126*
X0059800Y0674510D03*
X0059800Y0657500D03*
D145*
X0048310Y0660610D03*
X0031300Y0660610D03*
D137*
X0024500Y0738310D03*
X0024500Y0743310D03*
X0024500Y0748310D03*
X0024500Y0753310D03*
X0045500Y0753310D03*
X0045500Y0748310D03*
X0045500Y0743310D03*
X0045500Y0738310D03*
D134*
X0035000Y0745810D03*
D88*
X0035510Y0775810D03*
X0024490Y0775810D03*
D50*
X0042520Y0761120D03*
X0049210Y0761120D03*
X0057950Y0761120D03*
X0064650Y0761120D03*
D10*
X0063350Y0735810D03*
X0056650Y0735810D03*
D132*
X0060000Y0719740D03*
X0020000Y0719740D03*
D20*
X0070000Y0705810D03*
X0070000Y0695810D03*
X0100000Y0695810D03*
X0100000Y0705810D03*
D71*
X0047010Y0684900D03*
X0247990Y0732620D03*
D96*
X0236180Y0732620D03*
X0236180Y0720810D03*
X0247990Y0720810D03*
X0247990Y0709000D03*
X0236180Y0709000D03*
X0058820Y0696710D03*
X0047010Y0696710D03*
X0058820Y0684900D03*
D68*
X0030000Y0690810D03*
X0265000Y0720810D03*
D59*
X0143820Y0745730D03*
X0119330Y0745730D03*
X0119330Y0790730D03*
X0143820Y0790730D03*
X0144880Y0690730D03*
X0120390Y0690730D03*
D39*
X0099530Y0770810D03*
X0094410Y0770810D03*
X0094410Y0775810D03*
X0099530Y0775810D03*
X0099530Y0780810D03*
X0094410Y0780810D03*
X0082560Y0780810D03*
X0082560Y0775810D03*
X0077440Y0775810D03*
X0077440Y0780810D03*
X0077440Y0770810D03*
X0082560Y0770810D03*
D144*
X0078900Y0761950D03*
X0084800Y0752110D03*
X0094650Y0748170D03*
X0084800Y0746200D03*
X0063150Y0756040D03*
X0053310Y0765890D03*
X0035590Y0765890D03*
X0027720Y0758010D03*
X0086770Y0779670D03*
X0094650Y0761950D03*
X0126140Y0761950D03*
X0137950Y0767850D03*
X0137950Y0779670D03*
X0137950Y0734390D03*
X0137950Y0722580D03*
X0132050Y0716670D03*
X0086770Y0710770D03*
X0080870Y0704860D03*
X0202910Y0724550D03*
X0230470Y0712740D03*
X0230470Y0696990D03*
M02*
