G75*
G70*
%OFA0B0*%
%FSLAX25Y25*%
%IPPOS*%
%LPD*%
%AMOC8*
5,1,8,0,0,1.08239X$1,22.5*
%
%ADD110C,0.05950*%
%ADD113OC8,0.09300*%
%ADD118C,0.06000*%
%ADD122C,0.06540*%
%ADD125C,0.09860*%
%ADD128C,0.06400*%
%ADD133C,0.07400*%
%ADD143C,0.13400*%
%ADD145C,0.04800*%
%ADD20OC8,0.06000*%
%ADD41OC8,0.06400*%
%ADD62OC8,0.10800*%
%ADD70C,0.12610*%
%ADD73R,0.06820X0.06820*%
%ADD97C,0.06820*%
X0010000Y0010000D02*
G75*
%LPD*%
D143*
X0273000Y0022000D03*
X0274000Y0391000D03*
X0022000Y0391000D03*
X0022000Y0022000D03*
D20*
X0026000Y0104000D03*
X0026000Y0114000D03*
X0049000Y0102000D03*
X0049000Y0132000D03*
X0086000Y0108000D03*
X0096000Y0108000D03*
X0114000Y0074000D03*
X0128000Y0074000D03*
X0128000Y0054000D03*
X0114000Y0054000D03*
X0096000Y0056000D03*
X0086000Y0056000D03*
X0241000Y0145000D03*
X0251000Y0145000D03*
X0251000Y0155000D03*
X0241000Y0155000D03*
X0261000Y0154000D03*
X0262000Y0145000D03*
X0272000Y0145000D03*
X0271000Y0154000D03*
X0266000Y0082000D03*
X0266000Y0072000D03*
X0254000Y0072000D03*
X0254000Y0082000D03*
X0250000Y0315000D03*
X0260000Y0315000D03*
D62*
X0155500Y0130000D03*
X0155500Y0090000D03*
X0225500Y0110000D03*
D133*
X0064000Y0098000D03*
X0064000Y0138000D03*
D122*
X0154220Y0366460D02*
X0154220Y0372200D01*
X0164060Y0372200D02*
X0164060Y0366460D01*
X0171940Y0366460D02*
X0171940Y0372200D01*
X0181780Y0372200D02*
X0181780Y0366460D01*
D125*
X0193870Y0380000D03*
X0142130Y0380000D03*
D118*
X0138000Y0345600D02*
X0138000Y0340400D01*
X0138000Y0315600D02*
X0138000Y0310400D01*
X0138000Y0300600D02*
X0138000Y0295400D01*
X0138000Y0270600D02*
X0138000Y0265400D01*
X0071000Y0265400D02*
X0071000Y0270600D01*
X0071000Y0295400D02*
X0071000Y0300600D01*
X0071000Y0307400D02*
X0071000Y0312600D01*
X0071000Y0337400D02*
X0071000Y0342600D01*
D118*
X0182000Y0175000D03*
X0182000Y0165000D03*
X0207000Y0242000D03*
X0217000Y0242000D03*
D110*
X0219680Y0351430D02*
X0224830Y0351430D01*
X0220090Y0379170D02*
X0220090Y0384320D01*
X0235430Y0394730D02*
X0240570Y0394730D01*
X0248430Y0372110D02*
X0248430Y0366960D01*
X0257880Y0366600D02*
X0257880Y0361450D01*
X0260320Y0063580D02*
X0255170Y0063580D01*
X0259910Y0035840D02*
X0259910Y0030690D01*
X0244570Y0020270D02*
X0239430Y0020270D01*
X0231570Y0042890D02*
X0231570Y0048040D01*
X0222120Y0048400D02*
X0222120Y0053550D01*
D113*
X0185000Y0239000D03*
D128*
X0134000Y0130800D02*
X0134000Y0125200D01*
X0124000Y0125200D02*
X0124000Y0130800D01*
D97*
X0055820Y0060910D03*
X0055820Y0049100D03*
X0044010Y0060910D03*
X0062280Y0355180D03*
X0074090Y0355180D03*
X0074090Y0366990D03*
X0085910Y0366990D03*
X0085910Y0355180D03*
X0097720Y0355180D03*
X0097720Y0366990D03*
D73*
X0062280Y0366990D03*
X0044010Y0049100D03*
D70*
X0027000Y0055000D03*
X0070750Y0384000D03*
X0089250Y0384000D03*
D128*
X0199000Y0034000D03*
D41*
X0199000Y0024000D03*
X0189000Y0024000D03*
X0179000Y0024000D03*
X0179000Y0034000D03*
X0189000Y0034000D03*
X0169000Y0034000D03*
X0169000Y0024000D03*
X0159000Y0024000D03*
X0159000Y0034000D03*
X0149000Y0034000D03*
X0149000Y0024000D03*
X0139000Y0024000D03*
X0129000Y0024000D03*
X0129000Y0034000D03*
X0139000Y0034000D03*
X0119000Y0034000D03*
X0119000Y0024000D03*
X0109000Y0024000D03*
X0109000Y0034000D03*
X0099000Y0034000D03*
X0099000Y0024000D03*
X0089000Y0024000D03*
X0089000Y0034000D03*
X0079000Y0034000D03*
X0079000Y0024000D03*
D145*
X0088320Y0065360D03*
X0124750Y0115620D03*
X0114970Y0156830D03*
X0110940Y0163000D03*
X0112930Y0170590D03*
X0108000Y0177400D03*
X0143000Y0196480D03*
X0152170Y0194570D03*
X0148000Y0217260D03*
X0164320Y0232280D03*
X0171590Y0234030D03*
X0155790Y0246260D03*
X0134780Y0246540D03*
X0083480Y0243590D03*
X0033000Y0346720D03*
X0223000Y0224000D03*
X0223000Y0214000D03*
X0225940Y0199810D03*
X0229260Y0193230D03*
X0223080Y0170590D03*
X0250680Y0197430D03*
X0257400Y0193520D03*
X0265680Y0208070D03*
X0273090Y0221110D03*
X0264490Y0238860D03*
X0276180Y0249180D03*
X0242460Y0296100D03*
X0232310Y0234890D03*
X0274400Y0194120D03*
X0010000Y0409250D02*
G75*
%LPD*%
D143*
X0022090Y0422310D03*
X0273930Y0421310D03*
X0272870Y0627280D03*
X0022060Y0628280D03*
D20*
X0097500Y0519250D03*
X0097500Y0504250D03*
X0127500Y0504250D03*
X0127500Y0519250D03*
X0192500Y0544250D03*
X0222500Y0544250D03*
D110*
X0064070Y0446080D02*
X0064070Y0440930D01*
X0036330Y0441340D02*
X0031180Y0441340D01*
X0020760Y0456680D02*
X0020760Y0461820D01*
X0043390Y0469680D02*
X0048540Y0469680D01*
X0048900Y0479130D02*
X0054050Y0479130D01*
D73*
X0042000Y0498340D03*
X0042000Y0543340D03*
X0042000Y0588340D03*
D97*
X0053810Y0588340D03*
X0053810Y0600160D03*
X0042000Y0600160D03*
X0042000Y0555160D03*
X0053810Y0555160D03*
X0053810Y0543340D03*
X0053810Y0510160D03*
X0042000Y0510160D03*
X0053810Y0498340D03*
X0238680Y0446750D03*
X0250490Y0446750D03*
X0252990Y0604250D03*
X0241180Y0604250D03*
D70*
X0270000Y0604250D03*
X0267500Y0446750D03*
X0025000Y0504250D03*
X0025000Y0549250D03*
X0025000Y0594250D03*
D133*
X0065000Y0589250D03*
X0065000Y0629250D03*
D128*
X0272500Y0484250D03*
D41*
X0262500Y0484250D03*
X0262500Y0494250D03*
X0272500Y0494250D03*
X0272500Y0504250D03*
X0272500Y0514250D03*
X0272500Y0524250D03*
X0262500Y0524250D03*
X0262500Y0514250D03*
X0262500Y0504250D03*
X0262500Y0534250D03*
X0272500Y0534250D03*
X0272500Y0544250D03*
X0272500Y0554250D03*
X0262500Y0554250D03*
X0262500Y0544250D03*
D145*
X0247100Y0547840D03*
X0247020Y0553430D03*
X0215990Y0535580D03*
X0235720Y0520830D03*
X0208860Y0507470D03*
X0204940Y0510620D03*
X0242500Y0484220D03*
X0242500Y0469710D03*
X0237840Y0466700D03*
X0219900Y0476130D03*
X0180530Y0439490D03*
X0153950Y0458700D03*
X0153260Y0465790D03*
X0159410Y0476340D03*
X0133000Y0456250D03*
X0139200Y0450250D03*
X0129800Y0445250D03*
X0134200Y0439250D03*
X0119080Y0430540D03*
X0115670Y0444790D03*
X0111400Y0450740D03*
X0106360Y0456590D03*
X0118530Y0462820D03*
X0109290Y0475060D03*
X0092500Y0471750D03*
X0080230Y0492110D03*
X0080230Y0511310D03*
X0127000Y0565810D03*
X0126530Y0575500D03*
X0125840Y0593230D03*
X0079530Y0575790D03*
X0152190Y0554220D03*
X0167460Y0564850D03*
X0208920Y0610300D03*
X0151460Y0451580D03*
X0099480Y0429960D03*
X0010000Y0645810D02*
G75*
%LPD*%
D143*
X0021810Y0657620D03*
X0132050Y0734390D03*
X0023780Y0821010D03*
X0273780Y0821010D03*
X0273780Y0661560D03*
D133*
X0060000Y0720810D03*
X0020000Y0720810D03*
D20*
X0072500Y0715810D03*
X0085000Y0715810D03*
X0085000Y0685810D03*
X0072500Y0685810D03*
D73*
X0047010Y0684900D03*
X0250490Y0742620D03*
D97*
X0238680Y0742620D03*
X0238680Y0730810D03*
X0250490Y0730810D03*
X0250490Y0719000D03*
X0238680Y0719000D03*
X0058820Y0696720D03*
X0047010Y0696720D03*
X0058820Y0684900D03*
D70*
X0030000Y0690810D03*
X0267500Y0730810D03*
D145*
X0213100Y0757800D03*
X0193830Y0743450D03*
X0181670Y0774600D03*
X0205440Y0782260D03*
X0127500Y0800470D03*
X0123100Y0786110D03*
X0109160Y0786710D03*
X0104940Y0798960D03*
M02*
