%
T01C0.023800
X26200Y18800
X25900Y20100
X26400Y20600
X26900Y20600
X26900Y21100
X25800Y21200
X25200Y20700
X25400Y23100
X25300Y24100
X25300Y24600
X26300Y26400
X27200Y26000
X27500Y25200
X27300Y27100
X27300Y28400
X26200Y28500
X24400Y30300
X26900Y23000
X27400Y20000
X22600Y18800
X22200Y19200
X18300Y24500
X17800Y24000
X16400Y24700
X16400Y21800
X15500Y18700
X13400Y20300
X12400Y21300
X12300Y21800
X11500Y21700
X11800Y23700
X13200Y24200
X13700Y23700
X14300Y24700
X14300Y22400
X13200Y22300
X11000Y18700
X11100Y17900
X7100Y26000
X7100Y30600
X7600Y33500
X6300Y34800
X11600Y27700
X12600Y30500
X16400Y27700
X17400Y15800
X13000Y7300
X13200Y4800
X10500Y5600
X10100Y6500
X8700Y7900
X10646Y53130
X9858Y53130
X8284Y52736
X6709Y51555
X7693Y51358
X8284Y51161
X7693Y50374
X8284Y50177
X9662Y49783
X10449Y50768
X12024Y52342
X13008Y49783
X11433Y47421
X12221Y46240
X12221Y44862
X12418Y43287
X10843Y42500
X15567Y43090
X16355Y45059
X16945Y46240
X16355Y46831
X15764Y46240
X17929Y45453
X19898Y46240
X19898Y46831
X20488Y47421
X21276Y47618
X21670Y48602
X21670Y49586
X23047Y48208
X23638Y48208
X24229Y48208
X24819Y48208
X25410Y48012
X24819Y46831
X24229Y46831
X23638Y46634
X24229Y45453
X26197Y46831
X25213Y49783
X24622Y49783
X24032Y49783
X23047Y51752
X23835Y52539
X22063Y53523
X21079Y53130
X20095Y52145
X19701Y50768
X17929Y48208
X17929Y47618
X23244Y54311
X24229Y54311
X24229Y55492
X23047Y56673
X12811Y56870
X11827Y57460
X12614Y58248
X11236Y56279
X6906Y54114
X6315Y53720
X4937Y50374
X6709Y48602
X10449Y62382
X9465Y63169
X11630Y50768
X12614Y47618
X15567Y50374
X12221Y53917
X8087Y70486
X8677Y71077
X13205Y71667
X13795Y72258
X13795Y73439
X9465Y74817
X8480Y74620
X8480Y75211
X7890Y76195
X9465Y76195
X8677Y77967
X5331Y76589
X6315Y75604
X3559Y76589
X2772Y75801
X12614Y76195
X13795Y76785
X13795Y77967
X20291Y72455
X23047Y71274
X23047Y69699
T02C0.031750
X26000Y31500
X25000Y31500
X23800Y25200
X22800Y25200
X18200Y18100
X18200Y17100
X24100Y15500
X24100Y14500
X25100Y14500
X25100Y15500
X26100Y15400
X26200Y14500
X27200Y14500
X27100Y15400
X26600Y8200
X26600Y7200
X25400Y7200
X25400Y8200
X13800Y26600
X13800Y29600
X13800Y31100
X13800Y34100
X8300Y34200
X8300Y31200
X8300Y29500
X8300Y26500
X4900Y12700
X4900Y9700
X2600Y10400
X2600Y11400
X8500Y5600
X9500Y5600
X11100Y5000
X12200Y4900
X12200Y6900
X11100Y7000
X9700Y10800
X8700Y10800
X22212Y5098
X23156Y4547
X24200Y2027
X25991Y3326
X25774Y6358
X22225Y35143
X22008Y38174
X23800Y39473
X24843Y36954
X25788Y36402
X7500Y45425
X8500Y45425
X8500Y48425
X7500Y48425
X19303Y54319
X22303Y54319
X5095Y47913
X4544Y46968
X2024Y45925
X3323Y44134
X6355Y44350
X10000Y69581
X10000Y70581
X7000Y70581
X7000Y69581
T03C0.036700
X15422Y36933
X16406Y36933
X17193Y36933
X18178Y36933
X12700Y10500
X13700Y10500
X13900Y3400
X13900Y2400
X14900Y2400
X14900Y3400
X15900Y3400
X15900Y2400
X16900Y2400
X16900Y3400
X17900Y3400
X17900Y2400
X18900Y2400
X18900Y3400
X19900Y3400
X19900Y2400
X12900Y2400
X12900Y3400
X11900Y3400
X11900Y2400
X10900Y2400
X10900Y3400
X9900Y3400
X9900Y2400
X8900Y2400
X8900Y3400
X7900Y3400
X7900Y2400
X26091Y53834
X27091Y53834
X27091Y52834
X26091Y52834
X26091Y51834
X27091Y51834
X27091Y50834
X26091Y50834
X26091Y49834
X27091Y49834
X27091Y48834
X26091Y48834
X26091Y47834
X27091Y47834
X27091Y54834
X26091Y54834
T04C0.042100
X6400Y9800
X6400Y13800
X15550Y13000
X15550Y9000
X22550Y11000
X9771Y36699
X8590Y36699
X8590Y35518
X9771Y35518
X7409Y35518
X7409Y36699
X6228Y36699
X6228Y35518
X5582Y6091
X5582Y4910
X4400Y4910
X4400Y6091
X6500Y58925
X6500Y62925
X24799Y58925
X23618Y58925
X5382Y58834
X4201Y58834
X4201Y60016
X5382Y60016
X5382Y55516
X4201Y55516
X4201Y54334
X5382Y54334
X5382Y51016
X4201Y51016
X4201Y49834
X5382Y49834
X23815Y44728
X24996Y44728
X6000Y71974
X2000Y71974
X5882Y69671
X4701Y69671
X4701Y68490
X5882Y68490
X23618Y70900
X24799Y70900
X24799Y72081
X23618Y72081
X23618Y73262
X24799Y73262
T05C0.052000
X19500Y23300
T06C0.090600
X19386Y38000
X14213Y38000
T07C0.118100
X8925Y38400
X7074Y38400
X2700Y5500
X2500Y59425
X2500Y54925
X2500Y50425
X26500Y58925
X26697Y44728
X3000Y69081
X26500Y72081
T08C0.126000
X27300Y2200
X27400Y39100
X2200Y39100
X2200Y2200
X2500Y42425
X27000Y42425
X26500Y62925
X2500Y62925
X2181Y65762
X2181Y79541
X27378Y79541
X27378Y66156
M30
