%
T01C0.023800
X10646Y45326
X9858Y45326
X8284Y44932
X6709Y43751
X7693Y43554
X8284Y43357
X7693Y42570
X8284Y42373
X9662Y41979
X10449Y42964
X12024Y44538
X13008Y41979
X11433Y39617
X12221Y38436
X12221Y37058
X12418Y35483
X10843Y34696
X15567Y35286
X16355Y37255
X16945Y38436
X16355Y39027
X15764Y38436
X17929Y37649
X19898Y38436
X19898Y39027
X20488Y39617
X21276Y39814
X21670Y40798
X21670Y41782
X23047Y40404
X23638Y40404
X24229Y40404
X24819Y40404
X25410Y40208
X24819Y39027
X24229Y39027
X23638Y38830
X24229Y37649
X26197Y39027
X25213Y41979
X24622Y41979
X24032Y41979
X23047Y43948
X23835Y44735
X22063Y45719
X21079Y45326
X20095Y44341
X19701Y42964
X17929Y40404
X17929Y39814
X23244Y46507
X24229Y46507
X24229Y47688
X23047Y48869
X12811Y49066
X11827Y49656
X12614Y50444
X11236Y48475
X6906Y46310
X6315Y45916
X4937Y42570
X6709Y40798
X10449Y54578
X9465Y55365
X11630Y42964
X15567Y42570
X12614Y39814
X12221Y46113
X3165Y59533
X8283Y59533
X8677Y60123
X10646Y63470
X13795Y64454
X13992Y63470
X16945Y63470
X20094Y64848
X13992Y67997
X13402Y68588
X13795Y68982
X11433Y68588
X10843Y67604
X9465Y68588
X8480Y68194
X8480Y67604
X6512Y67407
X8480Y66226
X5724Y68785
X4346Y68785
X4150Y69769
X1984Y68391
X2575Y68194
X8677Y70360
X13795Y70753
X13795Y66226
X17142Y58942
T02C0.031750
X31500Y3600
X31500Y4600
X25200Y5800
X25200Y6800
X18100Y11400
X17100Y11400
X15500Y5500
X14500Y5500
X14500Y4500
X15500Y4500
X15400Y3500
X14500Y3400
X15400Y2500
X14500Y2400
X8200Y3000
X7200Y3000
X7200Y4200
X8200Y4200
X6900Y17400
X7000Y18500
X5000Y18500
X4900Y17400
X5600Y20100
X5600Y21100
X10800Y20900
X10800Y19900
X9700Y24700
X9800Y26700
X8800Y26700
X12700Y24700
X26600Y21200
X29600Y21200
X31100Y21200
X34100Y21200
X34100Y15800
X31100Y15800
X29700Y15800
X26700Y15800
X3326Y3609
X2027Y5400
X4547Y6443
X5098Y7388
X6358Y3825
X35143Y7375
X38174Y7592
X39473Y5800
X36954Y4757
X36402Y3812
X7500Y37621
X8500Y37621
X8500Y40621
X7500Y40621
X19303Y46515
X22303Y46515
X5095Y40109
X4544Y39164
X2024Y38121
X3323Y36330
X6355Y36546
X10000Y61777
X10000Y62777
X7000Y62777
X7000Y61777
T03C0.036700
X36933Y11422
X36933Y12406
X36933Y13194
X36933Y14178
X10500Y15900
X10500Y16900
X3400Y16700
X2400Y16700
X2400Y17700
X3400Y17700
X3400Y18700
X2400Y18700
X2400Y19700
X3400Y19700
X3400Y20700
X2400Y20700
X2400Y21700
X3400Y21700
X3400Y15700
X2400Y15700
X2400Y14700
X3400Y14700
X3400Y13700
X2400Y13700
X2400Y12700
X3400Y12700
X3400Y11700
X2400Y11700
X2400Y10700
X3400Y10700
X3400Y9700
X2400Y9700
X26091Y46030
X27091Y46030
X27091Y47030
X26091Y47030
X26091Y45030
X27091Y45030
X27091Y44030
X26091Y44030
X26091Y43030
X27091Y43030
X27091Y42030
X26091Y42030
X26091Y41030
X27091Y41030
X27091Y40030
X26091Y40030
T04C0.042100
X9800Y23200
X13800Y23200
X13000Y14050
X9000Y14050
X11000Y7050
X36699Y19829
X35518Y19829
X35518Y21010
X35518Y22191
X36699Y22191
X36699Y21010
X36699Y23372
X35518Y23372
X6091Y24018
X6091Y25199
X4910Y25199
X4910Y24018
X6500Y51121
X6500Y55121
X24996Y36924
X23815Y36924
X5382Y42030
X4201Y42030
X4201Y43212
X5382Y43212
X5382Y46530
X4201Y46530
X4201Y47712
X5382Y47712
X5382Y51030
X4201Y51030
X4201Y52212
X5382Y52212
X23618Y51121
X24799Y51121
X6000Y63777
X2000Y63777
X5882Y61868
X4701Y61868
X4701Y60686
X5882Y60686
X23618Y63096
X24799Y63096
X24799Y64277
X23618Y64277
X23618Y65458
X24799Y65458
T05C0.052000
X22500Y10300
T06C0.090600
X38000Y10214
X38000Y15387
T07C0.118100
X38400Y20675
X38400Y22525
X5500Y26900
X2500Y51621
X2500Y47121
X2500Y42621
X26697Y36924
X26500Y51121
X3000Y61277
X26500Y64277
T08C0.126000
X2200Y2200
X2200Y27100
X39000Y27200
X39200Y2300
X2500Y34621
X27000Y34621
X26500Y55121
X2500Y55121
X2181Y57958
X2181Y71738
X26591Y71738
X26591Y57958
M30
