G75*
G70*
%OFA0B0*%
%FSLAX25Y25*%
%IPPOS*%
%LPD*%
%AMOC8*
5,1,8,0,0,1.08239X$1,22.5*
%
%ADD105C,0.00000*%
X0010000Y0010000D02*
G75*
%LPD*%
D105*
X0286000Y0010000D02*
X0010040Y0010000D01*
X0010000Y0403000D01*
X0286000Y0403000D01*
X0286000Y0010000D01*
X0273000Y0015700D02*
X0272500Y0015720D01*
X0272000Y0015780D01*
X0271510Y0015880D01*
X0271030Y0016020D01*
X0270560Y0016190D01*
X0270110Y0016400D01*
X0269670Y0016650D01*
X0269260Y0016930D01*
X0268870Y0017250D01*
X0268500Y0017590D01*
X0268160Y0017960D01*
X0267860Y0018360D01*
X0267590Y0018780D01*
X0267350Y0019220D01*
X0267140Y0019680D01*
X0266980Y0020150D01*
X0266850Y0020630D01*
X0266760Y0021130D01*
X0266710Y0021620D01*
X0266700Y0022130D01*
X0266730Y0022630D01*
X0266800Y0023120D01*
X0266910Y0023610D01*
X0267060Y0024090D01*
X0267240Y0024550D01*
X0267460Y0025000D01*
X0267720Y0025430D01*
X0268010Y0025840D01*
X0268330Y0026230D01*
X0268680Y0026590D01*
X0269060Y0026910D01*
X0269460Y0027210D01*
X0269890Y0027480D01*
X0270330Y0027710D01*
X0270790Y0027900D01*
X0271270Y0028060D01*
X0271760Y0028180D01*
X0272250Y0028260D01*
X0272750Y0028300D01*
X0273250Y0028300D01*
X0273750Y0028260D01*
X0274240Y0028180D01*
X0274730Y0028060D01*
X0275210Y0027900D01*
X0275670Y0027710D01*
X0276110Y0027480D01*
X0276540Y0027210D01*
X0276940Y0026910D01*
X0277320Y0026590D01*
X0277670Y0026230D01*
X0277990Y0025840D01*
X0278280Y0025430D01*
X0278540Y0025000D01*
X0278760Y0024550D01*
X0278940Y0024090D01*
X0279090Y0023610D01*
X0279200Y0023120D01*
X0279270Y0022630D01*
X0279300Y0022130D01*
X0279290Y0021620D01*
X0279240Y0021130D01*
X0279150Y0020630D01*
X0279020Y0020150D01*
X0278860Y0019680D01*
X0278650Y0019220D01*
X0278410Y0018780D01*
X0278140Y0018360D01*
X0277840Y0017960D01*
X0277500Y0017590D01*
X0277130Y0017250D01*
X0276740Y0016930D01*
X0276330Y0016650D01*
X0275890Y0016400D01*
X0275440Y0016190D01*
X0274970Y0016020D01*
X0274490Y0015880D01*
X0274000Y0015780D01*
X0273500Y0015720D01*
X0273000Y0015700D01*
X0193870Y0375470D02*
X0193450Y0375490D01*
X0193030Y0375550D01*
X0192610Y0375650D01*
X0192210Y0375780D01*
X0191820Y0375960D01*
X0191450Y0376170D01*
X0191110Y0376410D01*
X0190780Y0376690D01*
X0190480Y0376990D01*
X0190220Y0377320D01*
X0189980Y0377670D01*
X0189780Y0378050D01*
X0189620Y0378440D01*
X0189490Y0378840D01*
X0189400Y0379260D01*
X0189350Y0379680D01*
X0189340Y0380110D01*
X0189370Y0380530D01*
X0189440Y0380950D01*
X0189550Y0381360D01*
X0189700Y0381760D01*
X0189880Y0382140D01*
X0190100Y0382510D01*
X0190350Y0382850D01*
X0190630Y0383170D01*
X0190940Y0383450D01*
X0191280Y0383710D01*
X0191640Y0383940D01*
X0192010Y0384130D01*
X0192410Y0384290D01*
X0192820Y0384410D01*
X0193230Y0384490D01*
X0193660Y0384530D01*
X0194080Y0384530D01*
X0194510Y0384490D01*
X0194920Y0384410D01*
X0195330Y0384290D01*
X0195730Y0384130D01*
X0196100Y0383940D01*
X0196460Y0383710D01*
X0196800Y0383450D01*
X0197110Y0383170D01*
X0197390Y0382850D01*
X0197640Y0382510D01*
X0197860Y0382140D01*
X0198040Y0381760D01*
X0198190Y0381360D01*
X0198300Y0380950D01*
X0198370Y0380530D01*
X0198400Y0380110D01*
X0198390Y0379680D01*
X0198340Y0379260D01*
X0198250Y0378840D01*
X0198120Y0378440D01*
X0197960Y0378050D01*
X0197760Y0377670D01*
X0197520Y0377320D01*
X0197260Y0376990D01*
X0196960Y0376690D01*
X0196630Y0376410D01*
X0196290Y0376170D01*
X0195920Y0375960D01*
X0195530Y0375780D01*
X0195130Y0375650D01*
X0194710Y0375550D01*
X0194290Y0375490D01*
X0193870Y0375470D01*
X0142130Y0375470D02*
X0141710Y0375490D01*
X0141290Y0375550D01*
X0140870Y0375650D01*
X0140470Y0375780D01*
X0140080Y0375960D01*
X0139710Y0376170D01*
X0139370Y0376410D01*
X0139040Y0376690D01*
X0138740Y0376990D01*
X0138480Y0377320D01*
X0138240Y0377670D01*
X0138040Y0378050D01*
X0137880Y0378440D01*
X0137750Y0378840D01*
X0137660Y0379260D01*
X0137610Y0379680D01*
X0137600Y0380110D01*
X0137630Y0380530D01*
X0137700Y0380950D01*
X0137810Y0381360D01*
X0137960Y0381760D01*
X0138140Y0382140D01*
X0138360Y0382510D01*
X0138610Y0382850D01*
X0138890Y0383170D01*
X0139200Y0383450D01*
X0139540Y0383710D01*
X0139900Y0383940D01*
X0140270Y0384130D01*
X0140670Y0384290D01*
X0141080Y0384410D01*
X0141490Y0384490D01*
X0141920Y0384530D01*
X0142340Y0384530D01*
X0142770Y0384490D01*
X0143180Y0384410D01*
X0143590Y0384290D01*
X0143990Y0384130D01*
X0144360Y0383940D01*
X0144720Y0383710D01*
X0145060Y0383450D01*
X0145370Y0383170D01*
X0145650Y0382850D01*
X0145900Y0382510D01*
X0146120Y0382140D01*
X0146300Y0381760D01*
X0146450Y0381360D01*
X0146560Y0380950D01*
X0146630Y0380530D01*
X0146660Y0380110D01*
X0146650Y0379680D01*
X0146600Y0379260D01*
X0146510Y0378840D01*
X0146380Y0378440D01*
X0146220Y0378050D01*
X0146020Y0377670D01*
X0145780Y0377320D01*
X0145520Y0376990D01*
X0145220Y0376690D01*
X0144890Y0376410D01*
X0144550Y0376170D01*
X0144180Y0375960D01*
X0143790Y0375780D01*
X0143390Y0375650D01*
X0142970Y0375550D01*
X0142550Y0375490D01*
X0142130Y0375470D01*
X0089250Y0378090D02*
X0088770Y0378110D01*
X0088290Y0378170D01*
X0087820Y0378270D01*
X0087360Y0378400D01*
X0086910Y0378580D01*
X0086470Y0378780D01*
X0086050Y0379030D01*
X0085660Y0379310D01*
X0085290Y0379610D01*
X0084950Y0379950D01*
X0084630Y0380320D01*
X0084340Y0380700D01*
X0084090Y0381110D01*
X0083870Y0381540D01*
X0083690Y0381990D01*
X0083550Y0382450D01*
X0083440Y0382920D01*
X0083370Y0383400D01*
X0083340Y0383880D01*
X0083350Y0384360D01*
X0083400Y0384840D01*
X0083490Y0385320D01*
X0083610Y0385780D01*
X0083780Y0386230D01*
X0083980Y0386670D01*
X0084210Y0387090D01*
X0084480Y0387490D01*
X0084780Y0387870D01*
X0085110Y0388220D01*
X0085470Y0388540D01*
X0085850Y0388840D01*
X0086260Y0389100D01*
X0086690Y0389320D01*
X0087130Y0389520D01*
X0087580Y0389670D01*
X0088050Y0389790D01*
X0088530Y0389870D01*
X0089010Y0389910D01*
X0089490Y0389910D01*
X0089970Y0389870D01*
X0090450Y0389790D01*
X0090920Y0389670D01*
X0091370Y0389520D01*
X0091810Y0389320D01*
X0092240Y0389100D01*
X0092650Y0388840D01*
X0093030Y0388540D01*
X0093390Y0388220D01*
X0093720Y0387870D01*
X0094020Y0387490D01*
X0094290Y0387090D01*
X0094520Y0386670D01*
X0094720Y0386230D01*
X0094890Y0385780D01*
X0095010Y0385320D01*
X0095100Y0384840D01*
X0095150Y0384360D01*
X0095160Y0383880D01*
X0095130Y0383400D01*
X0095060Y0382920D01*
X0094950Y0382450D01*
X0094810Y0381990D01*
X0094630Y0381540D01*
X0094410Y0381110D01*
X0094160Y0380700D01*
X0093870Y0380320D01*
X0093550Y0379950D01*
X0093210Y0379610D01*
X0092840Y0379310D01*
X0092450Y0379030D01*
X0092030Y0378780D01*
X0091590Y0378580D01*
X0091140Y0378400D01*
X0090680Y0378270D01*
X0090210Y0378170D01*
X0089730Y0378110D01*
X0089250Y0378090D01*
X0070750Y0378090D02*
X0070270Y0378110D01*
X0069790Y0378170D01*
X0069320Y0378270D01*
X0068860Y0378400D01*
X0068410Y0378580D01*
X0067970Y0378780D01*
X0067550Y0379030D01*
X0067160Y0379310D01*
X0066790Y0379610D01*
X0066450Y0379950D01*
X0066130Y0380320D01*
X0065840Y0380700D01*
X0065590Y0381110D01*
X0065370Y0381540D01*
X0065190Y0381990D01*
X0065050Y0382450D01*
X0064940Y0382920D01*
X0064870Y0383400D01*
X0064840Y0383880D01*
X0064850Y0384360D01*
X0064900Y0384840D01*
X0064990Y0385320D01*
X0065110Y0385780D01*
X0065280Y0386230D01*
X0065480Y0386670D01*
X0065710Y0387090D01*
X0065980Y0387490D01*
X0066280Y0387870D01*
X0066610Y0388220D01*
X0066970Y0388540D01*
X0067350Y0388840D01*
X0067760Y0389100D01*
X0068190Y0389320D01*
X0068630Y0389520D01*
X0069080Y0389670D01*
X0069550Y0389790D01*
X0070030Y0389870D01*
X0070510Y0389910D01*
X0070990Y0389910D01*
X0071470Y0389870D01*
X0071950Y0389790D01*
X0072420Y0389670D01*
X0072870Y0389520D01*
X0073310Y0389320D01*
X0073740Y0389100D01*
X0074150Y0388840D01*
X0074530Y0388540D01*
X0074890Y0388220D01*
X0075220Y0387870D01*
X0075520Y0387490D01*
X0075790Y0387090D01*
X0076020Y0386670D01*
X0076220Y0386230D01*
X0076390Y0385780D01*
X0076510Y0385320D01*
X0076600Y0384840D01*
X0076650Y0384360D01*
X0076660Y0383880D01*
X0076630Y0383400D01*
X0076560Y0382920D01*
X0076450Y0382450D01*
X0076310Y0381990D01*
X0076130Y0381540D01*
X0075910Y0381110D01*
X0075660Y0380700D01*
X0075370Y0380320D01*
X0075050Y0379950D01*
X0074710Y0379610D01*
X0074340Y0379310D01*
X0073950Y0379030D01*
X0073530Y0378780D01*
X0073090Y0378580D01*
X0072640Y0378400D01*
X0072180Y0378270D01*
X0071710Y0378170D01*
X0071230Y0378110D01*
X0070750Y0378090D01*
X0022000Y0384700D02*
X0021500Y0384720D01*
X0021000Y0384780D01*
X0020510Y0384880D01*
X0020030Y0385020D01*
X0019560Y0385190D01*
X0019110Y0385400D01*
X0018670Y0385650D01*
X0018260Y0385930D01*
X0017870Y0386250D01*
X0017500Y0386590D01*
X0017160Y0386960D01*
X0016860Y0387360D01*
X0016590Y0387780D01*
X0016350Y0388220D01*
X0016140Y0388680D01*
X0015980Y0389150D01*
X0015850Y0389630D01*
X0015760Y0390130D01*
X0015710Y0390620D01*
X0015700Y0391130D01*
X0015730Y0391630D01*
X0015800Y0392120D01*
X0015910Y0392610D01*
X0016060Y0393090D01*
X0016240Y0393550D01*
X0016460Y0394000D01*
X0016720Y0394430D01*
X0017010Y0394840D01*
X0017330Y0395230D01*
X0017680Y0395590D01*
X0018060Y0395910D01*
X0018460Y0396210D01*
X0018890Y0396480D01*
X0019330Y0396710D01*
X0019790Y0396900D01*
X0020270Y0397060D01*
X0020760Y0397180D01*
X0021250Y0397260D01*
X0021750Y0397300D01*
X0022250Y0397300D01*
X0022750Y0397260D01*
X0023240Y0397180D01*
X0023730Y0397060D01*
X0024210Y0396900D01*
X0024670Y0396710D01*
X0025110Y0396480D01*
X0025540Y0396210D01*
X0025940Y0395910D01*
X0026320Y0395590D01*
X0026670Y0395230D01*
X0026990Y0394840D01*
X0027280Y0394430D01*
X0027540Y0394000D01*
X0027760Y0393550D01*
X0027940Y0393090D01*
X0028090Y0392610D01*
X0028200Y0392120D01*
X0028270Y0391630D01*
X0028300Y0391130D01*
X0028290Y0390620D01*
X0028240Y0390130D01*
X0028150Y0389630D01*
X0028020Y0389150D01*
X0027860Y0388680D01*
X0027650Y0388220D01*
X0027410Y0387780D01*
X0027140Y0387360D01*
X0026840Y0386960D01*
X0026500Y0386590D01*
X0026130Y0386250D01*
X0025740Y0385930D01*
X0025330Y0385650D01*
X0024890Y0385400D01*
X0024440Y0385190D01*
X0023970Y0385020D01*
X0023490Y0384880D01*
X0023000Y0384780D01*
X0022500Y0384720D01*
X0022000Y0384700D01*
X0027000Y0049090D02*
X0026520Y0049110D01*
X0026040Y0049170D01*
X0025570Y0049270D01*
X0025110Y0049400D01*
X0024660Y0049580D01*
X0024220Y0049780D01*
X0023800Y0050030D01*
X0023410Y0050310D01*
X0023040Y0050610D01*
X0022700Y0050950D01*
X0022380Y0051320D01*
X0022090Y0051700D01*
X0021840Y0052110D01*
X0021620Y0052540D01*
X0021440Y0052990D01*
X0021300Y0053450D01*
X0021190Y0053920D01*
X0021120Y0054400D01*
X0021090Y0054880D01*
X0021100Y0055360D01*
X0021150Y0055840D01*
X0021240Y0056320D01*
X0021360Y0056780D01*
X0021530Y0057230D01*
X0021730Y0057670D01*
X0021960Y0058090D01*
X0022230Y0058490D01*
X0022530Y0058870D01*
X0022860Y0059220D01*
X0023220Y0059540D01*
X0023600Y0059840D01*
X0024010Y0060100D01*
X0024440Y0060320D01*
X0024880Y0060520D01*
X0025330Y0060670D01*
X0025800Y0060790D01*
X0026280Y0060870D01*
X0026760Y0060910D01*
X0027240Y0060910D01*
X0027720Y0060870D01*
X0028200Y0060790D01*
X0028670Y0060670D01*
X0029120Y0060520D01*
X0029560Y0060320D01*
X0029990Y0060100D01*
X0030400Y0059840D01*
X0030780Y0059540D01*
X0031140Y0059220D01*
X0031470Y0058870D01*
X0031770Y0058490D01*
X0032040Y0058090D01*
X0032270Y0057670D01*
X0032470Y0057230D01*
X0032640Y0056780D01*
X0032760Y0056320D01*
X0032850Y0055840D01*
X0032900Y0055360D01*
X0032910Y0054880D01*
X0032880Y0054400D01*
X0032810Y0053920D01*
X0032700Y0053450D01*
X0032560Y0052990D01*
X0032380Y0052540D01*
X0032160Y0052110D01*
X0031910Y0051700D01*
X0031620Y0051320D01*
X0031300Y0050950D01*
X0030960Y0050610D01*
X0030590Y0050310D01*
X0030200Y0050030D01*
X0029780Y0049780D01*
X0029340Y0049580D01*
X0028890Y0049400D01*
X0028430Y0049270D01*
X0027960Y0049170D01*
X0027480Y0049110D01*
X0027000Y0049090D01*
X0022000Y0015700D02*
X0021500Y0015720D01*
X0021000Y0015780D01*
X0020510Y0015880D01*
X0020030Y0016020D01*
X0019560Y0016190D01*
X0019110Y0016400D01*
X0018670Y0016650D01*
X0018260Y0016930D01*
X0017870Y0017250D01*
X0017500Y0017590D01*
X0017160Y0017960D01*
X0016860Y0018360D01*
X0016590Y0018780D01*
X0016350Y0019220D01*
X0016140Y0019680D01*
X0015980Y0020150D01*
X0015850Y0020630D01*
X0015760Y0021130D01*
X0015710Y0021620D01*
X0015700Y0022130D01*
X0015730Y0022630D01*
X0015800Y0023120D01*
X0015910Y0023610D01*
X0016060Y0024090D01*
X0016240Y0024550D01*
X0016460Y0025000D01*
X0016720Y0025430D01*
X0017010Y0025840D01*
X0017330Y0026230D01*
X0017680Y0026590D01*
X0018060Y0026910D01*
X0018460Y0027210D01*
X0018890Y0027480D01*
X0019330Y0027710D01*
X0019790Y0027900D01*
X0020270Y0028060D01*
X0020760Y0028180D01*
X0021250Y0028260D01*
X0021750Y0028300D01*
X0022250Y0028300D01*
X0022750Y0028260D01*
X0023240Y0028180D01*
X0023730Y0028060D01*
X0024210Y0027900D01*
X0024670Y0027710D01*
X0025110Y0027480D01*
X0025540Y0027210D01*
X0025940Y0026910D01*
X0026320Y0026590D01*
X0026670Y0026230D01*
X0026990Y0025840D01*
X0027280Y0025430D01*
X0027540Y0025000D01*
X0027760Y0024550D01*
X0027940Y0024090D01*
X0028090Y0023610D01*
X0028200Y0023120D01*
X0028270Y0022630D01*
X0028300Y0022130D01*
X0028290Y0021620D01*
X0028240Y0021130D01*
X0028150Y0020630D01*
X0028020Y0020150D01*
X0027860Y0019680D01*
X0027650Y0019220D01*
X0027410Y0018780D01*
X0027140Y0018360D01*
X0026840Y0017960D01*
X0026500Y0017590D01*
X0026130Y0017250D01*
X0025740Y0016930D01*
X0025330Y0016650D01*
X0024890Y0016400D01*
X0024440Y0016190D01*
X0023970Y0016020D01*
X0023490Y0015880D01*
X0023000Y0015780D01*
X0022500Y0015720D01*
X0022000Y0015700D01*
X0274000Y0384700D02*
X0273500Y0384720D01*
X0273000Y0384780D01*
X0272510Y0384880D01*
X0272030Y0385020D01*
X0271560Y0385190D01*
X0271110Y0385400D01*
X0270670Y0385650D01*
X0270260Y0385930D01*
X0269870Y0386250D01*
X0269500Y0386590D01*
X0269160Y0386960D01*
X0268860Y0387360D01*
X0268590Y0387780D01*
X0268350Y0388220D01*
X0268140Y0388680D01*
X0267980Y0389150D01*
X0267850Y0389630D01*
X0267760Y0390130D01*
X0267710Y0390620D01*
X0267700Y0391130D01*
X0267730Y0391630D01*
X0267800Y0392120D01*
X0267910Y0392610D01*
X0268060Y0393090D01*
X0268240Y0393550D01*
X0268460Y0394000D01*
X0268720Y0394430D01*
X0269010Y0394840D01*
X0269330Y0395230D01*
X0269680Y0395590D01*
X0270060Y0395910D01*
X0270460Y0396210D01*
X0270890Y0396480D01*
X0271330Y0396710D01*
X0271790Y0396900D01*
X0272270Y0397060D01*
X0272760Y0397180D01*
X0273250Y0397260D01*
X0273750Y0397300D01*
X0274250Y0397300D01*
X0274750Y0397260D01*
X0275240Y0397180D01*
X0275730Y0397060D01*
X0276210Y0396900D01*
X0276670Y0396710D01*
X0277110Y0396480D01*
X0277540Y0396210D01*
X0277940Y0395910D01*
X0278320Y0395590D01*
X0278670Y0395230D01*
X0278990Y0394840D01*
X0279280Y0394430D01*
X0279540Y0394000D01*
X0279760Y0393550D01*
X0279940Y0393090D01*
X0280090Y0392610D01*
X0280200Y0392120D01*
X0280270Y0391630D01*
X0280300Y0391130D01*
X0280290Y0390620D01*
X0280240Y0390130D01*
X0280150Y0389630D01*
X0280020Y0389150D01*
X0279860Y0388680D01*
X0279650Y0388220D01*
X0279410Y0387780D01*
X0279140Y0387360D01*
X0278840Y0386960D01*
X0278500Y0386590D01*
X0278130Y0386250D01*
X0277740Y0385930D01*
X0277330Y0385650D01*
X0276890Y0385400D01*
X0276440Y0385190D01*
X0275970Y0385020D01*
X0275490Y0384880D01*
X0275000Y0384780D01*
X0274500Y0384720D01*
X0274000Y0384700D01*
X0010000Y0409250D02*
G75*
%LPD*%
D105*
X0010000Y0409250D02*
X0010000Y0639560D01*
X0285590Y0639560D01*
X0285590Y0409250D01*
X0010000Y0409250D01*
X0015790Y0422310D02*
X0015810Y0422810D01*
X0015870Y0423310D01*
X0015970Y0423800D01*
X0016110Y0424280D01*
X0016280Y0424750D01*
X0016490Y0425200D01*
X0016740Y0425640D01*
X0017020Y0426050D01*
X0017340Y0426440D01*
X0017680Y0426810D01*
X0018050Y0427150D01*
X0018450Y0427450D01*
X0018870Y0427720D01*
X0019310Y0427960D01*
X0019770Y0428170D01*
X0020240Y0428330D01*
X0020720Y0428460D01*
X0021220Y0428550D01*
X0021710Y0428600D01*
X0022220Y0428610D01*
X0022720Y0428580D01*
X0023210Y0428510D01*
X0023700Y0428400D01*
X0024180Y0428250D01*
X0024640Y0428070D01*
X0025090Y0427850D01*
X0025520Y0427590D01*
X0025930Y0427300D01*
X0026320Y0426980D01*
X0026680Y0426630D01*
X0027000Y0426250D01*
X0027300Y0425850D01*
X0027570Y0425420D01*
X0027800Y0424980D01*
X0027990Y0424520D01*
X0028150Y0424040D01*
X0028270Y0423550D01*
X0028350Y0423060D01*
X0028390Y0422560D01*
X0028390Y0422060D01*
X0028350Y0421560D01*
X0028270Y0421070D01*
X0028150Y0420580D01*
X0027990Y0420100D01*
X0027800Y0419640D01*
X0027570Y0419200D01*
X0027300Y0418770D01*
X0027000Y0418370D01*
X0026680Y0417990D01*
X0026320Y0417640D01*
X0025930Y0417320D01*
X0025520Y0417030D01*
X0025090Y0416770D01*
X0024640Y0416550D01*
X0024180Y0416370D01*
X0023700Y0416220D01*
X0023210Y0416110D01*
X0022720Y0416040D01*
X0022220Y0416010D01*
X0021710Y0416020D01*
X0021220Y0416070D01*
X0020720Y0416160D01*
X0020240Y0416290D01*
X0019770Y0416450D01*
X0019310Y0416660D01*
X0018870Y0416900D01*
X0018450Y0417170D01*
X0018050Y0417470D01*
X0017680Y0417810D01*
X0017340Y0418180D01*
X0017020Y0418570D01*
X0016740Y0418980D01*
X0016490Y0419420D01*
X0016280Y0419870D01*
X0016110Y0420340D01*
X0015970Y0420820D01*
X0015870Y0421310D01*
X0015810Y0421810D01*
X0015790Y0422310D01*
X0019090Y0504250D02*
X0019110Y0504730D01*
X0019170Y0505210D01*
X0019270Y0505680D01*
X0019400Y0506140D01*
X0019580Y0506590D01*
X0019780Y0507030D01*
X0020030Y0507450D01*
X0020310Y0507840D01*
X0020610Y0508210D01*
X0020950Y0508550D01*
X0021320Y0508870D01*
X0021700Y0509160D01*
X0022110Y0509410D01*
X0022540Y0509630D01*
X0022990Y0509810D01*
X0023450Y0509950D01*
X0023920Y0510060D01*
X0024400Y0510130D01*
X0024880Y0510160D01*
X0025360Y0510150D01*
X0025840Y0510100D01*
X0026320Y0510010D01*
X0026780Y0509890D01*
X0027230Y0509720D01*
X0027670Y0509520D01*
X0028090Y0509290D01*
X0028490Y0509020D01*
X0028870Y0508720D01*
X0029220Y0508390D01*
X0029540Y0508030D01*
X0029840Y0507650D01*
X0030100Y0507240D01*
X0030320Y0506810D01*
X0030520Y0506370D01*
X0030670Y0505920D01*
X0030790Y0505450D01*
X0030870Y0504970D01*
X0030910Y0504490D01*
X0030910Y0504010D01*
X0030870Y0503530D01*
X0030790Y0503050D01*
X0030670Y0502580D01*
X0030520Y0502130D01*
X0030320Y0501690D01*
X0030100Y0501260D01*
X0029840Y0500850D01*
X0029540Y0500470D01*
X0029220Y0500110D01*
X0028870Y0499780D01*
X0028490Y0499480D01*
X0028090Y0499210D01*
X0027670Y0498980D01*
X0027230Y0498780D01*
X0026780Y0498610D01*
X0026320Y0498490D01*
X0025840Y0498400D01*
X0025360Y0498350D01*
X0024880Y0498340D01*
X0024400Y0498370D01*
X0023920Y0498440D01*
X0023450Y0498550D01*
X0022990Y0498690D01*
X0022540Y0498870D01*
X0022110Y0499090D01*
X0021700Y0499340D01*
X0021320Y0499630D01*
X0020950Y0499950D01*
X0020610Y0500290D01*
X0020310Y0500660D01*
X0020030Y0501050D01*
X0019780Y0501470D01*
X0019580Y0501910D01*
X0019400Y0502360D01*
X0019270Y0502820D01*
X0019170Y0503290D01*
X0019110Y0503770D01*
X0019090Y0504250D01*
X0019090Y0549250D02*
X0019110Y0549730D01*
X0019170Y0550210D01*
X0019270Y0550680D01*
X0019400Y0551140D01*
X0019580Y0551590D01*
X0019780Y0552030D01*
X0020030Y0552450D01*
X0020310Y0552840D01*
X0020610Y0553210D01*
X0020950Y0553550D01*
X0021320Y0553870D01*
X0021700Y0554160D01*
X0022110Y0554410D01*
X0022540Y0554630D01*
X0022990Y0554810D01*
X0023450Y0554950D01*
X0023920Y0555060D01*
X0024400Y0555130D01*
X0024880Y0555160D01*
X0025360Y0555150D01*
X0025840Y0555100D01*
X0026320Y0555010D01*
X0026780Y0554890D01*
X0027230Y0554720D01*
X0027670Y0554520D01*
X0028090Y0554290D01*
X0028490Y0554020D01*
X0028870Y0553720D01*
X0029220Y0553390D01*
X0029540Y0553030D01*
X0029840Y0552650D01*
X0030100Y0552240D01*
X0030320Y0551810D01*
X0030520Y0551370D01*
X0030670Y0550920D01*
X0030790Y0550450D01*
X0030870Y0549970D01*
X0030910Y0549490D01*
X0030910Y0549010D01*
X0030870Y0548530D01*
X0030790Y0548050D01*
X0030670Y0547580D01*
X0030520Y0547130D01*
X0030320Y0546690D01*
X0030100Y0546260D01*
X0029840Y0545850D01*
X0029540Y0545470D01*
X0029220Y0545110D01*
X0028870Y0544780D01*
X0028490Y0544480D01*
X0028090Y0544210D01*
X0027670Y0543980D01*
X0027230Y0543780D01*
X0026780Y0543610D01*
X0026320Y0543490D01*
X0025840Y0543400D01*
X0025360Y0543350D01*
X0024880Y0543340D01*
X0024400Y0543370D01*
X0023920Y0543440D01*
X0023450Y0543550D01*
X0022990Y0543690D01*
X0022540Y0543870D01*
X0022110Y0544090D01*
X0021700Y0544340D01*
X0021320Y0544630D01*
X0020950Y0544950D01*
X0020610Y0545290D01*
X0020310Y0545660D01*
X0020030Y0546050D01*
X0019780Y0546470D01*
X0019580Y0546910D01*
X0019400Y0547360D01*
X0019270Y0547820D01*
X0019170Y0548290D01*
X0019110Y0548770D01*
X0019090Y0549250D01*
X0019090Y0594250D02*
X0019110Y0594730D01*
X0019170Y0595210D01*
X0019270Y0595680D01*
X0019400Y0596140D01*
X0019580Y0596590D01*
X0019780Y0597030D01*
X0020030Y0597450D01*
X0020310Y0597840D01*
X0020610Y0598210D01*
X0020950Y0598550D01*
X0021320Y0598870D01*
X0021700Y0599160D01*
X0022110Y0599410D01*
X0022540Y0599630D01*
X0022990Y0599810D01*
X0023450Y0599950D01*
X0023920Y0600060D01*
X0024400Y0600130D01*
X0024880Y0600160D01*
X0025360Y0600150D01*
X0025840Y0600100D01*
X0026320Y0600010D01*
X0026780Y0599890D01*
X0027230Y0599720D01*
X0027670Y0599520D01*
X0028090Y0599290D01*
X0028490Y0599020D01*
X0028870Y0598720D01*
X0029220Y0598390D01*
X0029540Y0598030D01*
X0029840Y0597650D01*
X0030100Y0597240D01*
X0030320Y0596810D01*
X0030520Y0596370D01*
X0030670Y0595920D01*
X0030790Y0595450D01*
X0030870Y0594970D01*
X0030910Y0594490D01*
X0030910Y0594010D01*
X0030870Y0593530D01*
X0030790Y0593050D01*
X0030670Y0592580D01*
X0030520Y0592130D01*
X0030320Y0591690D01*
X0030100Y0591260D01*
X0029840Y0590850D01*
X0029540Y0590470D01*
X0029220Y0590110D01*
X0028870Y0589780D01*
X0028490Y0589480D01*
X0028090Y0589210D01*
X0027670Y0588980D01*
X0027230Y0588780D01*
X0026780Y0588610D01*
X0026320Y0588490D01*
X0025840Y0588400D01*
X0025360Y0588350D01*
X0024880Y0588340D01*
X0024400Y0588370D01*
X0023920Y0588440D01*
X0023450Y0588550D01*
X0022990Y0588690D01*
X0022540Y0588870D01*
X0022110Y0589090D01*
X0021700Y0589340D01*
X0021320Y0589630D01*
X0020950Y0589950D01*
X0020610Y0590290D01*
X0020310Y0590660D01*
X0020030Y0591050D01*
X0019780Y0591470D01*
X0019580Y0591910D01*
X0019400Y0592360D01*
X0019270Y0592820D01*
X0019170Y0593290D01*
X0019110Y0593770D01*
X0019090Y0594250D01*
X0015760Y0628280D02*
X0015780Y0628780D01*
X0015840Y0629280D01*
X0015940Y0629770D01*
X0016080Y0630250D01*
X0016250Y0630720D01*
X0016460Y0631170D01*
X0016710Y0631610D01*
X0016990Y0632020D01*
X0017310Y0632410D01*
X0017650Y0632780D01*
X0018020Y0633120D01*
X0018420Y0633420D01*
X0018840Y0633690D01*
X0019280Y0633930D01*
X0019740Y0634140D01*
X0020210Y0634300D01*
X0020690Y0634430D01*
X0021190Y0634520D01*
X0021680Y0634570D01*
X0022190Y0634580D01*
X0022690Y0634550D01*
X0023180Y0634480D01*
X0023670Y0634370D01*
X0024150Y0634220D01*
X0024610Y0634040D01*
X0025060Y0633820D01*
X0025490Y0633560D01*
X0025900Y0633270D01*
X0026290Y0632950D01*
X0026650Y0632600D01*
X0026970Y0632220D01*
X0027270Y0631820D01*
X0027540Y0631390D01*
X0027770Y0630950D01*
X0027960Y0630490D01*
X0028120Y0630010D01*
X0028240Y0629520D01*
X0028320Y0629030D01*
X0028360Y0628530D01*
X0028360Y0628030D01*
X0028320Y0627530D01*
X0028240Y0627040D01*
X0028120Y0626550D01*
X0027960Y0626070D01*
X0027770Y0625610D01*
X0027540Y0625170D01*
X0027270Y0624740D01*
X0026970Y0624340D01*
X0026650Y0623960D01*
X0026290Y0623610D01*
X0025900Y0623290D01*
X0025490Y0623000D01*
X0025060Y0622740D01*
X0024610Y0622520D01*
X0024150Y0622340D01*
X0023670Y0622190D01*
X0023180Y0622080D01*
X0022690Y0622010D01*
X0022190Y0621980D01*
X0021680Y0621990D01*
X0021190Y0622040D01*
X0020690Y0622130D01*
X0020210Y0622260D01*
X0019740Y0622420D01*
X0019280Y0622630D01*
X0018840Y0622870D01*
X0018420Y0623140D01*
X0018020Y0623440D01*
X0017650Y0623780D01*
X0017310Y0624150D01*
X0016990Y0624540D01*
X0016710Y0624950D01*
X0016460Y0625390D01*
X0016250Y0625840D01*
X0016080Y0626310D01*
X0015940Y0626790D01*
X0015840Y0627280D01*
X0015780Y0627780D01*
X0015760Y0628280D01*
X0261590Y0446750D02*
X0261610Y0447230D01*
X0261670Y0447710D01*
X0261770Y0448180D01*
X0261900Y0448640D01*
X0262080Y0449090D01*
X0262280Y0449530D01*
X0262530Y0449950D01*
X0262810Y0450340D01*
X0263110Y0450710D01*
X0263450Y0451050D01*
X0263820Y0451370D01*
X0264200Y0451660D01*
X0264610Y0451910D01*
X0265040Y0452130D01*
X0265490Y0452310D01*
X0265950Y0452450D01*
X0266420Y0452560D01*
X0266900Y0452630D01*
X0267380Y0452660D01*
X0267860Y0452650D01*
X0268340Y0452600D01*
X0268820Y0452510D01*
X0269280Y0452390D01*
X0269730Y0452220D01*
X0270170Y0452020D01*
X0270590Y0451790D01*
X0270990Y0451520D01*
X0271370Y0451220D01*
X0271720Y0450890D01*
X0272040Y0450530D01*
X0272340Y0450150D01*
X0272600Y0449740D01*
X0272820Y0449310D01*
X0273020Y0448870D01*
X0273170Y0448420D01*
X0273290Y0447950D01*
X0273370Y0447470D01*
X0273410Y0446990D01*
X0273410Y0446510D01*
X0273370Y0446030D01*
X0273290Y0445550D01*
X0273170Y0445080D01*
X0273020Y0444630D01*
X0272820Y0444190D01*
X0272600Y0443760D01*
X0272340Y0443350D01*
X0272040Y0442970D01*
X0271720Y0442610D01*
X0271370Y0442280D01*
X0270990Y0441980D01*
X0270590Y0441710D01*
X0270170Y0441480D01*
X0269730Y0441280D01*
X0269280Y0441110D01*
X0268820Y0440990D01*
X0268340Y0440900D01*
X0267860Y0440850D01*
X0267380Y0440840D01*
X0266900Y0440870D01*
X0266420Y0440940D01*
X0265950Y0441050D01*
X0265490Y0441190D01*
X0265040Y0441370D01*
X0264610Y0441590D01*
X0264200Y0441840D01*
X0263820Y0442130D01*
X0263450Y0442450D01*
X0263110Y0442790D01*
X0262810Y0443160D01*
X0262530Y0443550D01*
X0262280Y0443970D01*
X0262080Y0444410D01*
X0261900Y0444860D01*
X0261770Y0445320D01*
X0261670Y0445790D01*
X0261610Y0446270D01*
X0261590Y0446750D01*
X0267630Y0421310D02*
X0267650Y0421810D01*
X0267710Y0422310D01*
X0267810Y0422800D01*
X0267950Y0423280D01*
X0268120Y0423750D01*
X0268330Y0424200D01*
X0268580Y0424640D01*
X0268860Y0425050D01*
X0269180Y0425440D01*
X0269520Y0425810D01*
X0269890Y0426150D01*
X0270290Y0426450D01*
X0270710Y0426720D01*
X0271150Y0426960D01*
X0271610Y0427170D01*
X0272080Y0427330D01*
X0272560Y0427460D01*
X0273060Y0427550D01*
X0273550Y0427600D01*
X0274060Y0427610D01*
X0274560Y0427580D01*
X0275050Y0427510D01*
X0275540Y0427400D01*
X0276020Y0427250D01*
X0276480Y0427070D01*
X0276930Y0426850D01*
X0277360Y0426590D01*
X0277770Y0426300D01*
X0278160Y0425980D01*
X0278520Y0425630D01*
X0278840Y0425250D01*
X0279140Y0424850D01*
X0279410Y0424420D01*
X0279640Y0423980D01*
X0279830Y0423520D01*
X0279990Y0423040D01*
X0280110Y0422550D01*
X0280190Y0422060D01*
X0280230Y0421560D01*
X0280230Y0421060D01*
X0280190Y0420560D01*
X0280110Y0420070D01*
X0279990Y0419580D01*
X0279830Y0419100D01*
X0279640Y0418640D01*
X0279410Y0418200D01*
X0279140Y0417770D01*
X0278840Y0417370D01*
X0278520Y0416990D01*
X0278160Y0416640D01*
X0277770Y0416320D01*
X0277360Y0416030D01*
X0276930Y0415770D01*
X0276480Y0415550D01*
X0276020Y0415370D01*
X0275540Y0415220D01*
X0275050Y0415110D01*
X0274560Y0415040D01*
X0274060Y0415010D01*
X0273550Y0415020D01*
X0273060Y0415070D01*
X0272560Y0415160D01*
X0272080Y0415290D01*
X0271610Y0415450D01*
X0271150Y0415660D01*
X0270710Y0415900D01*
X0270290Y0416170D01*
X0269890Y0416470D01*
X0269520Y0416810D01*
X0269180Y0417180D01*
X0268860Y0417570D01*
X0268580Y0417980D01*
X0268330Y0418420D01*
X0268120Y0418870D01*
X0267950Y0419340D01*
X0267810Y0419820D01*
X0267710Y0420310D01*
X0267650Y0420810D01*
X0267630Y0421310D01*
X0264090Y0604250D02*
X0264110Y0604730D01*
X0264170Y0605210D01*
X0264270Y0605680D01*
X0264400Y0606140D01*
X0264580Y0606590D01*
X0264780Y0607030D01*
X0265030Y0607450D01*
X0265310Y0607840D01*
X0265610Y0608210D01*
X0265950Y0608550D01*
X0266320Y0608870D01*
X0266700Y0609160D01*
X0267110Y0609410D01*
X0267540Y0609630D01*
X0267990Y0609810D01*
X0268450Y0609950D01*
X0268920Y0610060D01*
X0269400Y0610130D01*
X0269880Y0610160D01*
X0270360Y0610150D01*
X0270840Y0610100D01*
X0271320Y0610010D01*
X0271780Y0609890D01*
X0272230Y0609720D01*
X0272670Y0609520D01*
X0273090Y0609290D01*
X0273490Y0609020D01*
X0273870Y0608720D01*
X0274220Y0608390D01*
X0274540Y0608030D01*
X0274840Y0607650D01*
X0275100Y0607240D01*
X0275320Y0606810D01*
X0275520Y0606370D01*
X0275670Y0605920D01*
X0275790Y0605450D01*
X0275870Y0604970D01*
X0275910Y0604490D01*
X0275910Y0604010D01*
X0275870Y0603530D01*
X0275790Y0603050D01*
X0275670Y0602580D01*
X0275520Y0602130D01*
X0275320Y0601690D01*
X0275100Y0601260D01*
X0274840Y0600850D01*
X0274540Y0600470D01*
X0274220Y0600110D01*
X0273870Y0599780D01*
X0273490Y0599480D01*
X0273090Y0599210D01*
X0272670Y0598980D01*
X0272230Y0598780D01*
X0271780Y0598610D01*
X0271320Y0598490D01*
X0270840Y0598400D01*
X0270360Y0598350D01*
X0269880Y0598340D01*
X0269400Y0598370D01*
X0268920Y0598440D01*
X0268450Y0598550D01*
X0267990Y0598690D01*
X0267540Y0598870D01*
X0267110Y0599090D01*
X0266700Y0599340D01*
X0266320Y0599630D01*
X0265950Y0599950D01*
X0265610Y0600290D01*
X0265310Y0600660D01*
X0265030Y0601050D01*
X0264780Y0601470D01*
X0264580Y0601910D01*
X0264400Y0602360D01*
X0264270Y0602820D01*
X0264170Y0603290D01*
X0264110Y0603770D01*
X0264090Y0604250D01*
X0266570Y0627280D02*
X0266590Y0627780D01*
X0266650Y0628280D01*
X0266750Y0628770D01*
X0266890Y0629250D01*
X0267060Y0629720D01*
X0267270Y0630170D01*
X0267520Y0630610D01*
X0267800Y0631020D01*
X0268120Y0631410D01*
X0268460Y0631780D01*
X0268830Y0632120D01*
X0269230Y0632420D01*
X0269650Y0632690D01*
X0270090Y0632930D01*
X0270550Y0633140D01*
X0271020Y0633300D01*
X0271500Y0633430D01*
X0272000Y0633520D01*
X0272490Y0633570D01*
X0273000Y0633580D01*
X0273500Y0633550D01*
X0273990Y0633480D01*
X0274480Y0633370D01*
X0274960Y0633220D01*
X0275420Y0633040D01*
X0275870Y0632820D01*
X0276300Y0632560D01*
X0276710Y0632270D01*
X0277100Y0631950D01*
X0277460Y0631600D01*
X0277780Y0631220D01*
X0278080Y0630820D01*
X0278350Y0630390D01*
X0278580Y0629950D01*
X0278770Y0629490D01*
X0278930Y0629010D01*
X0279050Y0628520D01*
X0279130Y0628030D01*
X0279170Y0627530D01*
X0279170Y0627030D01*
X0279130Y0626530D01*
X0279050Y0626040D01*
X0278930Y0625550D01*
X0278770Y0625070D01*
X0278580Y0624610D01*
X0278350Y0624170D01*
X0278080Y0623740D01*
X0277780Y0623340D01*
X0277460Y0622960D01*
X0277100Y0622610D01*
X0276710Y0622290D01*
X0276300Y0622000D01*
X0275870Y0621740D01*
X0275420Y0621520D01*
X0274960Y0621340D01*
X0274480Y0621190D01*
X0273990Y0621080D01*
X0273500Y0621010D01*
X0273000Y0620980D01*
X0272490Y0620990D01*
X0272000Y0621040D01*
X0271500Y0621130D01*
X0271020Y0621260D01*
X0270550Y0621420D01*
X0270090Y0621630D01*
X0269650Y0621870D01*
X0269230Y0622140D01*
X0268830Y0622440D01*
X0268460Y0622780D01*
X0268120Y0623150D01*
X0267800Y0623540D01*
X0267520Y0623950D01*
X0267270Y0624390D01*
X0267060Y0624840D01*
X0266890Y0625310D01*
X0266750Y0625790D01*
X0266650Y0626280D01*
X0266590Y0626780D01*
X0266570Y0627280D01*
X0010000Y0645810D02*
G75*
%LPD*%
D105*
X0010000Y0645810D02*
X0010000Y0832820D01*
X0285590Y0832820D01*
X0285590Y0645810D01*
X0010000Y0645810D01*
X0015510Y0657620D02*
X0015530Y0658120D01*
X0015590Y0658620D01*
X0015690Y0659110D01*
X0015830Y0659590D01*
X0016000Y0660060D01*
X0016210Y0660510D01*
X0016460Y0660950D01*
X0016740Y0661360D01*
X0017060Y0661750D01*
X0017400Y0662120D01*
X0017770Y0662460D01*
X0018170Y0662760D01*
X0018590Y0663030D01*
X0019030Y0663270D01*
X0019490Y0663480D01*
X0019960Y0663640D01*
X0020440Y0663770D01*
X0020940Y0663860D01*
X0021430Y0663910D01*
X0021940Y0663920D01*
X0022440Y0663890D01*
X0022930Y0663820D01*
X0023420Y0663710D01*
X0023900Y0663560D01*
X0024360Y0663380D01*
X0024810Y0663160D01*
X0025240Y0662900D01*
X0025650Y0662610D01*
X0026040Y0662290D01*
X0026400Y0661940D01*
X0026720Y0661560D01*
X0027020Y0661160D01*
X0027290Y0660730D01*
X0027520Y0660290D01*
X0027710Y0659830D01*
X0027870Y0659350D01*
X0027990Y0658860D01*
X0028070Y0658370D01*
X0028110Y0657870D01*
X0028110Y0657370D01*
X0028070Y0656870D01*
X0027990Y0656380D01*
X0027870Y0655890D01*
X0027710Y0655410D01*
X0027520Y0654950D01*
X0027290Y0654510D01*
X0027020Y0654080D01*
X0026720Y0653680D01*
X0026400Y0653300D01*
X0026040Y0652950D01*
X0025650Y0652630D01*
X0025240Y0652340D01*
X0024810Y0652080D01*
X0024360Y0651860D01*
X0023900Y0651680D01*
X0023420Y0651530D01*
X0022930Y0651420D01*
X0022440Y0651350D01*
X0021940Y0651320D01*
X0021430Y0651330D01*
X0020940Y0651380D01*
X0020440Y0651470D01*
X0019960Y0651600D01*
X0019490Y0651760D01*
X0019030Y0651970D01*
X0018590Y0652210D01*
X0018170Y0652480D01*
X0017770Y0652780D01*
X0017400Y0653120D01*
X0017060Y0653490D01*
X0016740Y0653880D01*
X0016460Y0654290D01*
X0016210Y0654730D01*
X0016000Y0655180D01*
X0015830Y0655650D01*
X0015690Y0656130D01*
X0015590Y0656620D01*
X0015530Y0657120D01*
X0015510Y0657620D01*
X0024090Y0690810D02*
X0024110Y0691290D01*
X0024170Y0691770D01*
X0024270Y0692240D01*
X0024400Y0692700D01*
X0024580Y0693150D01*
X0024780Y0693590D01*
X0025030Y0694010D01*
X0025310Y0694400D01*
X0025610Y0694770D01*
X0025950Y0695110D01*
X0026320Y0695430D01*
X0026700Y0695720D01*
X0027110Y0695970D01*
X0027540Y0696190D01*
X0027990Y0696370D01*
X0028450Y0696510D01*
X0028920Y0696620D01*
X0029400Y0696690D01*
X0029880Y0696720D01*
X0030360Y0696710D01*
X0030840Y0696660D01*
X0031320Y0696570D01*
X0031780Y0696450D01*
X0032230Y0696280D01*
X0032670Y0696080D01*
X0033090Y0695850D01*
X0033490Y0695580D01*
X0033870Y0695280D01*
X0034220Y0694950D01*
X0034540Y0694590D01*
X0034840Y0694210D01*
X0035100Y0693800D01*
X0035320Y0693370D01*
X0035520Y0692930D01*
X0035670Y0692480D01*
X0035790Y0692010D01*
X0035870Y0691530D01*
X0035910Y0691050D01*
X0035910Y0690570D01*
X0035870Y0690090D01*
X0035790Y0689610D01*
X0035670Y0689140D01*
X0035520Y0688690D01*
X0035320Y0688250D01*
X0035100Y0687820D01*
X0034840Y0687410D01*
X0034540Y0687030D01*
X0034220Y0686670D01*
X0033870Y0686340D01*
X0033490Y0686040D01*
X0033090Y0685770D01*
X0032670Y0685540D01*
X0032230Y0685340D01*
X0031780Y0685170D01*
X0031320Y0685050D01*
X0030840Y0684960D01*
X0030360Y0684910D01*
X0029880Y0684900D01*
X0029400Y0684930D01*
X0028920Y0685000D01*
X0028450Y0685110D01*
X0027990Y0685250D01*
X0027540Y0685430D01*
X0027110Y0685650D01*
X0026700Y0685900D01*
X0026320Y0686190D01*
X0025950Y0686510D01*
X0025610Y0686850D01*
X0025310Y0687220D01*
X0025030Y0687610D01*
X0024780Y0688030D01*
X0024580Y0688470D01*
X0024400Y0688920D01*
X0024270Y0689380D01*
X0024170Y0689850D01*
X0024110Y0690330D01*
X0024090Y0690810D01*
X0125750Y0734390D02*
X0125770Y0734890D01*
X0125830Y0735390D01*
X0125930Y0735880D01*
X0126070Y0736360D01*
X0126240Y0736830D01*
X0126450Y0737280D01*
X0126700Y0737720D01*
X0126980Y0738130D01*
X0127300Y0738520D01*
X0127640Y0738890D01*
X0128010Y0739230D01*
X0128410Y0739530D01*
X0128830Y0739800D01*
X0129270Y0740040D01*
X0129730Y0740250D01*
X0130200Y0740410D01*
X0130680Y0740540D01*
X0131180Y0740630D01*
X0131670Y0740680D01*
X0132180Y0740690D01*
X0132680Y0740660D01*
X0133170Y0740590D01*
X0133660Y0740480D01*
X0134140Y0740330D01*
X0134600Y0740150D01*
X0135050Y0739930D01*
X0135480Y0739670D01*
X0135890Y0739380D01*
X0136280Y0739060D01*
X0136640Y0738710D01*
X0136960Y0738330D01*
X0137260Y0737930D01*
X0137530Y0737500D01*
X0137760Y0737060D01*
X0137950Y0736600D01*
X0138110Y0736120D01*
X0138230Y0735630D01*
X0138310Y0735140D01*
X0138350Y0734640D01*
X0138350Y0734140D01*
X0138310Y0733640D01*
X0138230Y0733150D01*
X0138110Y0732660D01*
X0137950Y0732180D01*
X0137760Y0731720D01*
X0137530Y0731280D01*
X0137260Y0730850D01*
X0136960Y0730450D01*
X0136640Y0730070D01*
X0136280Y0729720D01*
X0135890Y0729400D01*
X0135480Y0729110D01*
X0135050Y0728850D01*
X0134600Y0728630D01*
X0134140Y0728450D01*
X0133660Y0728300D01*
X0133170Y0728190D01*
X0132680Y0728120D01*
X0132180Y0728090D01*
X0131670Y0728100D01*
X0131180Y0728150D01*
X0130680Y0728240D01*
X0130200Y0728370D01*
X0129730Y0728530D01*
X0129270Y0728740D01*
X0128830Y0728980D01*
X0128410Y0729250D01*
X0128010Y0729550D01*
X0127640Y0729890D01*
X0127300Y0730260D01*
X0126980Y0730650D01*
X0126700Y0731060D01*
X0126450Y0731500D01*
X0126240Y0731950D01*
X0126070Y0732420D01*
X0125930Y0732900D01*
X0125830Y0733390D01*
X0125770Y0733890D01*
X0125750Y0734390D01*
X0017480Y0821010D02*
X0017500Y0821510D01*
X0017560Y0822010D01*
X0017660Y0822500D01*
X0017800Y0822980D01*
X0017970Y0823450D01*
X0018180Y0823900D01*
X0018430Y0824340D01*
X0018710Y0824750D01*
X0019030Y0825140D01*
X0019370Y0825510D01*
X0019740Y0825850D01*
X0020140Y0826150D01*
X0020560Y0826420D01*
X0021000Y0826660D01*
X0021460Y0826870D01*
X0021930Y0827030D01*
X0022410Y0827160D01*
X0022910Y0827250D01*
X0023400Y0827300D01*
X0023910Y0827310D01*
X0024410Y0827280D01*
X0024900Y0827210D01*
X0025390Y0827100D01*
X0025870Y0826950D01*
X0026330Y0826770D01*
X0026780Y0826550D01*
X0027210Y0826290D01*
X0027620Y0826000D01*
X0028010Y0825680D01*
X0028370Y0825330D01*
X0028690Y0824950D01*
X0028990Y0824550D01*
X0029260Y0824120D01*
X0029490Y0823680D01*
X0029680Y0823220D01*
X0029840Y0822740D01*
X0029960Y0822250D01*
X0030040Y0821760D01*
X0030080Y0821260D01*
X0030080Y0820760D01*
X0030040Y0820260D01*
X0029960Y0819770D01*
X0029840Y0819280D01*
X0029680Y0818800D01*
X0029490Y0818340D01*
X0029260Y0817900D01*
X0028990Y0817470D01*
X0028690Y0817070D01*
X0028370Y0816690D01*
X0028010Y0816340D01*
X0027620Y0816020D01*
X0027210Y0815730D01*
X0026780Y0815470D01*
X0026330Y0815250D01*
X0025870Y0815070D01*
X0025390Y0814920D01*
X0024900Y0814810D01*
X0024410Y0814740D01*
X0023910Y0814710D01*
X0023400Y0814720D01*
X0022910Y0814770D01*
X0022410Y0814860D01*
X0021930Y0814990D01*
X0021460Y0815150D01*
X0021000Y0815360D01*
X0020560Y0815600D01*
X0020140Y0815870D01*
X0019740Y0816170D01*
X0019370Y0816510D01*
X0019030Y0816880D01*
X0018710Y0817270D01*
X0018430Y0817680D01*
X0018180Y0818120D01*
X0017970Y0818570D01*
X0017800Y0819040D01*
X0017660Y0819520D01*
X0017560Y0820010D01*
X0017500Y0820510D01*
X0017480Y0821010D01*
X0261590Y0730810D02*
X0261610Y0731290D01*
X0261670Y0731770D01*
X0261770Y0732240D01*
X0261900Y0732700D01*
X0262080Y0733150D01*
X0262280Y0733590D01*
X0262530Y0734010D01*
X0262810Y0734400D01*
X0263110Y0734770D01*
X0263450Y0735110D01*
X0263820Y0735430D01*
X0264200Y0735720D01*
X0264610Y0735970D01*
X0265040Y0736190D01*
X0265490Y0736370D01*
X0265950Y0736510D01*
X0266420Y0736620D01*
X0266900Y0736690D01*
X0267380Y0736720D01*
X0267860Y0736710D01*
X0268340Y0736660D01*
X0268820Y0736570D01*
X0269280Y0736450D01*
X0269730Y0736280D01*
X0270170Y0736080D01*
X0270590Y0735850D01*
X0270990Y0735580D01*
X0271370Y0735280D01*
X0271720Y0734950D01*
X0272040Y0734590D01*
X0272340Y0734210D01*
X0272600Y0733800D01*
X0272820Y0733370D01*
X0273020Y0732930D01*
X0273170Y0732480D01*
X0273290Y0732010D01*
X0273370Y0731530D01*
X0273410Y0731050D01*
X0273410Y0730570D01*
X0273370Y0730090D01*
X0273290Y0729610D01*
X0273170Y0729140D01*
X0273020Y0728690D01*
X0272820Y0728250D01*
X0272600Y0727820D01*
X0272340Y0727410D01*
X0272040Y0727030D01*
X0271720Y0726670D01*
X0271370Y0726340D01*
X0270990Y0726040D01*
X0270590Y0725770D01*
X0270170Y0725540D01*
X0269730Y0725340D01*
X0269280Y0725170D01*
X0268820Y0725050D01*
X0268340Y0724960D01*
X0267860Y0724910D01*
X0267380Y0724900D01*
X0266900Y0724930D01*
X0266420Y0725000D01*
X0265950Y0725110D01*
X0265490Y0725250D01*
X0265040Y0725430D01*
X0264610Y0725650D01*
X0264200Y0725900D01*
X0263820Y0726190D01*
X0263450Y0726510D01*
X0263110Y0726850D01*
X0262810Y0727220D01*
X0262530Y0727610D01*
X0262280Y0728030D01*
X0262080Y0728470D01*
X0261900Y0728920D01*
X0261770Y0729380D01*
X0261670Y0729850D01*
X0261610Y0730330D01*
X0261590Y0730810D01*
X0267480Y0661560D02*
X0267500Y0662060D01*
X0267560Y0662560D01*
X0267660Y0663050D01*
X0267800Y0663530D01*
X0267970Y0664000D01*
X0268180Y0664450D01*
X0268430Y0664890D01*
X0268710Y0665300D01*
X0269030Y0665690D01*
X0269370Y0666060D01*
X0269740Y0666400D01*
X0270140Y0666700D01*
X0270560Y0666970D01*
X0271000Y0667210D01*
X0271460Y0667420D01*
X0271930Y0667580D01*
X0272410Y0667710D01*
X0272910Y0667800D01*
X0273400Y0667850D01*
X0273910Y0667860D01*
X0274410Y0667830D01*
X0274900Y0667760D01*
X0275390Y0667650D01*
X0275870Y0667500D01*
X0276330Y0667320D01*
X0276780Y0667100D01*
X0277210Y0666840D01*
X0277620Y0666550D01*
X0278010Y0666230D01*
X0278370Y0665880D01*
X0278690Y0665500D01*
X0278990Y0665100D01*
X0279260Y0664670D01*
X0279490Y0664230D01*
X0279680Y0663770D01*
X0279840Y0663290D01*
X0279960Y0662800D01*
X0280040Y0662310D01*
X0280080Y0661810D01*
X0280080Y0661310D01*
X0280040Y0660810D01*
X0279960Y0660320D01*
X0279840Y0659830D01*
X0279680Y0659350D01*
X0279490Y0658890D01*
X0279260Y0658450D01*
X0278990Y0658020D01*
X0278690Y0657620D01*
X0278370Y0657240D01*
X0278010Y0656890D01*
X0277620Y0656570D01*
X0277210Y0656280D01*
X0276780Y0656020D01*
X0276330Y0655800D01*
X0275870Y0655620D01*
X0275390Y0655470D01*
X0274900Y0655360D01*
X0274410Y0655290D01*
X0273910Y0655260D01*
X0273400Y0655270D01*
X0272910Y0655320D01*
X0272410Y0655410D01*
X0271930Y0655540D01*
X0271460Y0655700D01*
X0271000Y0655910D01*
X0270560Y0656150D01*
X0270140Y0656420D01*
X0269740Y0656720D01*
X0269370Y0657060D01*
X0269030Y0657430D01*
X0268710Y0657820D01*
X0268430Y0658230D01*
X0268180Y0658670D01*
X0267970Y0659120D01*
X0267800Y0659590D01*
X0267660Y0660070D01*
X0267560Y0660560D01*
X0267500Y0661060D01*
X0267480Y0661560D01*
X0267480Y0821010D02*
X0267500Y0821510D01*
X0267560Y0822010D01*
X0267660Y0822500D01*
X0267800Y0822980D01*
X0267970Y0823450D01*
X0268180Y0823900D01*
X0268430Y0824340D01*
X0268710Y0824750D01*
X0269030Y0825140D01*
X0269370Y0825510D01*
X0269740Y0825850D01*
X0270140Y0826150D01*
X0270560Y0826420D01*
X0271000Y0826660D01*
X0271460Y0826870D01*
X0271930Y0827030D01*
X0272410Y0827160D01*
X0272910Y0827250D01*
X0273400Y0827300D01*
X0273910Y0827310D01*
X0274410Y0827280D01*
X0274900Y0827210D01*
X0275390Y0827100D01*
X0275870Y0826950D01*
X0276330Y0826770D01*
X0276780Y0826550D01*
X0277210Y0826290D01*
X0277620Y0826000D01*
X0278010Y0825680D01*
X0278370Y0825330D01*
X0278690Y0824950D01*
X0278990Y0824550D01*
X0279260Y0824120D01*
X0279490Y0823680D01*
X0279680Y0823220D01*
X0279840Y0822740D01*
X0279960Y0822250D01*
X0280040Y0821760D01*
X0280080Y0821260D01*
X0280080Y0820760D01*
X0280040Y0820260D01*
X0279960Y0819770D01*
X0279840Y0819280D01*
X0279680Y0818800D01*
X0279490Y0818340D01*
X0279260Y0817900D01*
X0278990Y0817470D01*
X0278690Y0817070D01*
X0278370Y0816690D01*
X0278010Y0816340D01*
X0277620Y0816020D01*
X0277210Y0815730D01*
X0276780Y0815470D01*
X0276330Y0815250D01*
X0275870Y0815070D01*
X0275390Y0814920D01*
X0274900Y0814810D01*
X0274410Y0814740D01*
X0273910Y0814710D01*
X0273400Y0814720D01*
X0272910Y0814770D01*
X0272410Y0814860D01*
X0271930Y0814990D01*
X0271460Y0815150D01*
X0271000Y0815360D01*
X0270560Y0815600D01*
X0270140Y0815870D01*
X0269740Y0816170D01*
X0269370Y0816510D01*
X0269030Y0816880D01*
X0268710Y0817270D01*
X0268430Y0817680D01*
X0268180Y0818120D01*
X0267970Y0818570D01*
X0267800Y0819040D01*
X0267660Y0819520D01*
X0267560Y0820010D01*
X0267500Y0820510D01*
X0267480Y0821010D01*
M02*
