%
T01C0.024000
X22308Y17059
X22926Y19323
X22594Y19981
X22300Y21400
X22300Y22400
X23231Y23489
X25068Y19743
X25740Y19352
X26568Y20807
X27309Y22111
X26449Y23886
X27618Y24918
X24246Y29610
X27440Y19412
X17159Y23403
X16432Y23228
X15579Y24626
X14800Y21726
X14300Y19648
X15217Y19457
X13478Y24654
X10800Y17740
X11293Y17059
X11094Y16300
X11497Y15683
X12475Y11562
X8832Y6536
X8348Y24359
X3300Y34672
X9250Y47175
X10929Y47506
X11853Y46282
X10636Y45659
X11140Y45074
X11567Y44479
X12980Y44525
X13420Y43925
X13920Y45025
X13300Y45625
X15146Y45158
X15395Y45870
X15326Y46579
X15941Y47634
X20494Y51062
X20886Y50747
X23572Y52083
X21599Y53558
X24710Y54784
X24702Y55343
X20892Y61030
X16746Y56485
X15219Y55422
X12700Y56581
X12653Y57550
X12584Y59323
X7953Y57579
X8023Y51131
X8023Y49211
X9948Y42996
X11908Y43054
X18053Y43949
X21990Y47613
X23784Y46670
X24250Y46971
X24250Y48422
X19383Y74345
X21310Y75780
X18167Y77460
X20544Y78226
X12750Y80047
X12310Y78611
X10916Y78671
X10494Y79896
T02C0.031750
X25400Y7200
X25400Y8200
X26600Y8200
X26600Y7200
X26200Y14500
X26100Y15400
X27100Y15400
X27200Y14500
X25100Y14500
X24100Y14500
X24100Y15500
X25100Y15500
X21700Y24200
X20700Y24200
X18200Y17500
X18200Y16500
X12800Y7400
X11400Y7400
X11400Y5400
X12800Y5400
X9600Y5600
X8600Y5600
X8600Y10800
X9600Y10800
X4900Y10200
X4900Y13200
X2600Y11400
X2600Y10400
X7100Y26800
X7100Y29800
X7100Y31000
X7100Y34000
X13800Y34300
X13800Y31300
X13800Y29800
X13800Y26800
X25000Y31500
X26000Y31500
X22009Y38174
X23800Y39473
X24843Y36954
X25788Y36402
X22225Y35143
X25775Y6358
X25991Y3326
X24200Y2027
X23157Y4547
X22212Y5098
X9750Y50425
X9750Y51925
X12750Y51925
X12750Y50425
X19250Y54425
X22250Y54425
X6407Y44350
X3376Y44134
X2076Y45925
X4596Y46968
X5147Y47913
X8500Y71581
X7250Y71581
X7250Y68581
X8500Y68581
T03C0.036700
X15422Y36933
X16406Y36933
X17194Y36933
X18178Y36933
X13400Y12800
X12400Y12800
X12900Y3400
X12900Y2400
X13900Y2400
X13900Y3400
X14900Y3400
X14900Y2400
X15900Y2400
X16900Y2400
X16900Y3400
X15900Y3400
X17900Y3400
X17900Y2400
X18900Y2400
X18900Y3400
X19900Y3400
X19900Y2400
X11900Y2400
X10900Y2400
X10900Y3400
X11900Y3400
X9900Y3400
X9900Y2400
X8900Y2400
X8900Y3400
X7900Y3400
X7900Y2400
X26250Y54425
X27250Y54425
X27250Y53425
X26250Y53425
X26250Y52425
X27250Y52425
X27250Y51425
X27250Y50425
X27250Y49425
X26250Y49425
X26250Y50425
X26250Y51425
X26250Y48425
X27250Y48425
X27250Y55425
X26250Y55425
T04C0.042100
X6400Y9800
X6400Y13800
X15550Y13000
X15550Y9000
X22550Y11000
X9772Y36699
X9772Y35518
X8591Y35518
X8591Y36699
X7409Y36699
X7409Y35518
X6228Y35518
X6228Y36699
X5582Y6091
X5582Y4910
X4401Y4910
X4401Y6091
X6500Y58925
X6500Y62925
X25299Y60425
X24118Y60425
X5381Y60016
X4200Y60016
X4200Y58834
X5381Y58834
X5381Y55516
X4200Y55516
X4200Y54334
X5381Y54334
X5381Y51016
X4200Y51016
X4200Y49834
X5381Y49834
X23868Y44675
X25049Y44675
X6000Y72081
X2000Y72081
X5882Y68490
X4701Y68490
X4701Y69672
X5882Y69672
X23868Y71900
X25049Y71900
X25049Y73081
X23868Y73081
X23868Y74262
X25049Y74262
T05C0.052000
X18500Y23900
T06C0.090600
X19387Y38000
X14213Y38000
T07C0.118100
X8925Y38400
X7075Y38400
X2700Y5500
X2500Y59425
X2500Y54925
X2500Y50425
X26750Y44675
X27000Y60425
X3000Y69081
X26750Y73081
T08C0.126000
X27300Y2200
X27400Y39100
X2200Y39100
X2200Y2200
X2209Y42231
X27393Y42131
X27287Y62728
X2206Y62828
X2181Y65762
X13205Y73439
X2378Y82101
X27378Y82101
X27378Y66156
M30
