G75*
G70*
%OFA0B0*%
%FSLAX25Y25*%
%IPPOS*%
%LPD*%
%AMOC8*
5,1,8,0,0,1.08239X$1,22.5*
%
%ADD150C,0.00100*%
D150*
X0102460Y0449260D02*
X0110460Y0457260D01*
X0110460Y0449260D02*
X0102460Y0457260D01*
X0102460Y0453260D02*
X0110460Y0453260D01*
X0094580Y0449260D02*
X0102580Y0457260D01*
X0102580Y0449260D02*
X0094580Y0457260D01*
X0094580Y0453260D02*
X0102580Y0453260D01*
X0078840Y0445320D02*
X0086840Y0453320D01*
X0086840Y0445320D02*
X0078840Y0453320D01*
X0078840Y0449320D02*
X0086840Y0449320D01*
X0063090Y0433510D02*
X0071090Y0441510D01*
X0071090Y0433510D02*
X0063090Y0441510D01*
X0063090Y0437510D02*
X0071090Y0437510D01*
X0072930Y0431540D02*
X0080930Y0439540D01*
X0080930Y0431540D02*
X0072930Y0439540D01*
X0072930Y0435540D02*
X0080930Y0435540D01*
X0078840Y0429570D02*
X0086840Y0437570D01*
X0086840Y0429570D02*
X0078840Y0437570D01*
X0078840Y0433570D02*
X0086840Y0433570D01*
X0072930Y0421700D02*
X0080930Y0429700D01*
X0080930Y0421700D02*
X0072930Y0429700D01*
X0072930Y0425700D02*
X0080930Y0425700D01*
X0078840Y0419730D02*
X0086840Y0427730D01*
X0086840Y0419730D02*
X0078840Y0427730D01*
X0078840Y0423730D02*
X0086840Y0423730D01*
X0092620Y0415790D02*
X0100620Y0423790D01*
X0100620Y0415790D02*
X0092620Y0423790D01*
X0092620Y0419790D02*
X0100620Y0419790D01*
X0100490Y0425640D02*
X0108490Y0433640D01*
X0108490Y0425640D02*
X0100490Y0433640D01*
X0100490Y0429640D02*
X0108490Y0429640D01*
X0116240Y0441380D02*
X0124240Y0449380D01*
X0124240Y0441380D02*
X0116240Y0449380D01*
X0116240Y0445380D02*
X0124240Y0445380D01*
X0126080Y0415790D02*
X0134080Y0423790D01*
X0134080Y0415790D02*
X0126080Y0423790D01*
X0126080Y0419790D02*
X0134080Y0419790D01*
X0110330Y0392170D02*
X0118330Y0400170D01*
X0118330Y0392170D02*
X0110330Y0400170D01*
X0110330Y0396170D02*
X0118330Y0396170D01*
X0118210Y0380360D02*
X0126210Y0388360D01*
X0126210Y0380360D02*
X0118210Y0388360D01*
X0118210Y0384360D02*
X0126210Y0384360D01*
X0118210Y0366580D02*
X0126210Y0374580D01*
X0126210Y0366580D02*
X0118210Y0374580D01*
X0118210Y0370580D02*
X0126210Y0370580D01*
X0120180Y0350830D02*
X0128180Y0358830D01*
X0128180Y0350830D02*
X0120180Y0358830D01*
X0120180Y0354830D02*
X0128180Y0354830D01*
X0104430Y0342960D02*
X0112430Y0350960D01*
X0112430Y0342960D02*
X0104430Y0350960D01*
X0104430Y0346960D02*
X0112430Y0346960D01*
X0151670Y0348860D02*
X0159670Y0356860D01*
X0159670Y0348860D02*
X0151670Y0356860D01*
X0151670Y0352860D02*
X0159670Y0352860D01*
X0159550Y0368550D02*
X0167550Y0376550D01*
X0167550Y0368550D02*
X0159550Y0376550D01*
X0159550Y0372550D02*
X0167550Y0372550D01*
X0165450Y0380360D02*
X0173450Y0388360D01*
X0173450Y0380360D02*
X0165450Y0388360D01*
X0165450Y0384360D02*
X0173450Y0384360D01*
X0159550Y0386270D02*
X0167550Y0394270D01*
X0167550Y0386270D02*
X0159550Y0394270D01*
X0159550Y0390270D02*
X0167550Y0390270D01*
X0153640Y0380360D02*
X0161640Y0388360D01*
X0161640Y0380360D02*
X0153640Y0388360D01*
X0153640Y0384360D02*
X0161640Y0384360D01*
X0175290Y0372490D02*
X0183290Y0380490D01*
X0183290Y0372490D02*
X0175290Y0380490D01*
X0175290Y0376490D02*
X0183290Y0376490D01*
X0194980Y0380360D02*
X0202980Y0388360D01*
X0202980Y0380360D02*
X0194980Y0388360D01*
X0194980Y0384360D02*
X0202980Y0384360D01*
X0194980Y0386270D02*
X0202980Y0394270D01*
X0202980Y0386270D02*
X0194980Y0394270D01*
X0194980Y0390270D02*
X0202980Y0390270D01*
X0200880Y0392170D02*
X0208880Y0400170D01*
X0208880Y0392170D02*
X0200880Y0400170D01*
X0200880Y0396170D02*
X0208880Y0396170D01*
X0208760Y0394140D02*
X0216760Y0402140D01*
X0216760Y0394140D02*
X0208760Y0402140D01*
X0208760Y0398140D02*
X0216760Y0398140D01*
X0212700Y0403980D02*
X0220700Y0411980D01*
X0220700Y0403980D02*
X0212700Y0411980D01*
X0212700Y0407980D02*
X0220700Y0407980D01*
X0212700Y0413820D02*
X0220700Y0421820D01*
X0220700Y0413820D02*
X0212700Y0421820D01*
X0212700Y0417820D02*
X0220700Y0417820D01*
X0226470Y0400040D02*
X0234470Y0408040D01*
X0234470Y0400040D02*
X0226470Y0408040D01*
X0226470Y0404040D02*
X0234470Y0404040D01*
X0232380Y0400040D02*
X0240380Y0408040D01*
X0240380Y0400040D02*
X0232380Y0408040D01*
X0232380Y0404040D02*
X0240380Y0404040D01*
X0238290Y0400040D02*
X0246290Y0408040D01*
X0246290Y0400040D02*
X0238290Y0408040D01*
X0238290Y0404040D02*
X0246290Y0404040D01*
X0244190Y0400040D02*
X0252190Y0408040D01*
X0252190Y0400040D02*
X0244190Y0408040D01*
X0244190Y0404040D02*
X0252190Y0404040D01*
X0250100Y0398080D02*
X0258100Y0406080D01*
X0258100Y0398080D02*
X0250100Y0406080D01*
X0250100Y0402080D02*
X0258100Y0402080D01*
X0244190Y0386270D02*
X0252190Y0394270D01*
X0252190Y0386270D02*
X0244190Y0394270D01*
X0244190Y0390270D02*
X0252190Y0390270D01*
X0238290Y0386270D02*
X0246290Y0394270D01*
X0246290Y0386270D02*
X0238290Y0394270D01*
X0238290Y0390270D02*
X0246290Y0390270D01*
X0232380Y0384300D02*
X0240380Y0392300D01*
X0240380Y0384300D02*
X0232380Y0392300D01*
X0232380Y0388300D02*
X0240380Y0388300D01*
X0238290Y0372490D02*
X0246290Y0380490D01*
X0246290Y0372490D02*
X0238290Y0380490D01*
X0238290Y0376490D02*
X0246290Y0376490D01*
X0257970Y0386270D02*
X0265970Y0394270D01*
X0265970Y0386270D02*
X0257970Y0394270D01*
X0257970Y0390270D02*
X0265970Y0390270D01*
X0248130Y0415790D02*
X0256130Y0423790D01*
X0256130Y0415790D02*
X0248130Y0423790D01*
X0248130Y0419790D02*
X0256130Y0419790D01*
X0242220Y0415790D02*
X0250220Y0423790D01*
X0250220Y0415790D02*
X0242220Y0423790D01*
X0242220Y0419790D02*
X0250220Y0419790D01*
X0236320Y0415790D02*
X0244320Y0423790D01*
X0244320Y0415790D02*
X0236320Y0423790D01*
X0236320Y0419790D02*
X0244320Y0419790D01*
X0226470Y0435480D02*
X0234470Y0443480D01*
X0234470Y0435480D02*
X0226470Y0443480D01*
X0226470Y0439480D02*
X0234470Y0439480D01*
X0234350Y0443350D02*
X0242350Y0451350D01*
X0242350Y0443350D02*
X0234350Y0451350D01*
X0234350Y0447350D02*
X0242350Y0447350D01*
X0216630Y0453190D02*
X0224630Y0461190D01*
X0224630Y0453190D02*
X0216630Y0461190D01*
X0216630Y0457190D02*
X0224630Y0457190D01*
X0206790Y0449260D02*
X0214790Y0457260D01*
X0214790Y0449260D02*
X0206790Y0457260D01*
X0206790Y0453260D02*
X0214790Y0453260D01*
X0196950Y0439410D02*
X0204950Y0447410D01*
X0204950Y0439410D02*
X0196950Y0447410D01*
X0196950Y0443410D02*
X0204950Y0443410D01*
X0193010Y0425640D02*
X0201010Y0433640D01*
X0201010Y0425640D02*
X0193010Y0433640D01*
X0193010Y0429640D02*
X0201010Y0429640D01*
X0175290Y0400040D02*
X0183290Y0408040D01*
X0183290Y0400040D02*
X0175290Y0408040D01*
X0175290Y0404040D02*
X0183290Y0404040D01*
X0175290Y0394140D02*
X0183290Y0402140D01*
X0183290Y0394140D02*
X0175290Y0402140D01*
X0175290Y0398140D02*
X0183290Y0398140D01*
X0228440Y0461070D02*
X0236440Y0469070D01*
X0236440Y0461070D02*
X0228440Y0469070D01*
X0228440Y0465070D02*
X0236440Y0465070D01*
X0238290Y0461070D02*
X0246290Y0469070D01*
X0246290Y0461070D02*
X0238290Y0469070D01*
X0238290Y0465070D02*
X0246290Y0465070D01*
X0238290Y0472880D02*
X0246290Y0480880D01*
X0246290Y0472880D02*
X0238290Y0480880D01*
X0238290Y0476880D02*
X0246290Y0476880D01*
X0226470Y0484690D02*
X0234470Y0492690D01*
X0234470Y0484690D02*
X0226470Y0492690D01*
X0226470Y0488690D02*
X0234470Y0488690D01*
X0124110Y0486660D02*
X0132110Y0494660D01*
X0132110Y0486660D02*
X0124110Y0494660D01*
X0124110Y0490660D02*
X0132110Y0490660D01*
X0114270Y0492560D02*
X0122270Y0500560D01*
X0122270Y0492560D02*
X0114270Y0500560D01*
X0114270Y0496560D02*
X0122270Y0496560D01*
X0122140Y0500440D02*
X0130140Y0508440D01*
X0130140Y0500440D02*
X0122140Y0508440D01*
X0122140Y0504440D02*
X0130140Y0504440D01*
X0108360Y0480750D02*
X0116360Y0488750D01*
X0116360Y0480750D02*
X0108360Y0488750D01*
X0108360Y0484750D02*
X0116360Y0484750D01*
X0065060Y0459100D02*
X0073060Y0467100D01*
X0073060Y0459100D02*
X0065060Y0467100D01*
X0065060Y0463100D02*
X0073060Y0463100D01*
X0059150Y0455160D02*
X0067150Y0463160D01*
X0067150Y0455160D02*
X0059150Y0463160D01*
X0059150Y0459160D02*
X0067150Y0459160D01*
X0045370Y0421700D02*
X0053370Y0429700D01*
X0053370Y0421700D02*
X0045370Y0429700D01*
X0045370Y0425700D02*
X0053370Y0425700D01*
X0063090Y0403980D02*
X0071090Y0411980D01*
X0071090Y0403980D02*
X0063090Y0411980D01*
X0063090Y0407980D02*
X0071090Y0407980D01*
X0100490Y0541780D02*
X0108490Y0549780D01*
X0108490Y0541780D02*
X0100490Y0549780D01*
X0100490Y0545780D02*
X0108490Y0545780D01*
X0090650Y0549650D02*
X0098650Y0557650D01*
X0098650Y0549650D02*
X0090650Y0557650D01*
X0090650Y0553650D02*
X0098650Y0553650D01*
X0112300Y0425640D02*
X0120300Y0433640D01*
X0120300Y0425640D02*
X0112300Y0433640D01*
X0112300Y0429640D02*
X0120300Y0429640D01*
X0151670Y0421700D02*
X0159670Y0429700D01*
X0159670Y0421700D02*
X0151670Y0429700D01*
X0151670Y0425700D02*
X0159670Y0425700D01*
X0122140Y0394140D02*
X0130140Y0402140D01*
X0130140Y0394140D02*
X0122140Y0402140D01*
X0122140Y0398140D02*
X0130140Y0398140D01*
X0118210Y0457130D02*
X0126210Y0465130D01*
X0126210Y0457130D02*
X0118210Y0465130D01*
X0118210Y0461130D02*
X0126210Y0461130D01*
X0027650Y0591330D02*
X0035650Y0599330D01*
X0035650Y0591330D02*
X0027650Y0599330D01*
X0027650Y0595330D02*
X0035650Y0595330D01*
X0078830Y0591330D02*
X0086830Y0599330D01*
X0086830Y0591330D02*
X0078830Y0599330D01*
X0078830Y0595330D02*
X0086830Y0595330D01*
X0082770Y0597230D02*
X0090770Y0605230D01*
X0090770Y0597230D02*
X0082770Y0605230D01*
X0082770Y0601230D02*
X0090770Y0601230D01*
X0102460Y0630700D02*
X0110460Y0638700D01*
X0110460Y0630700D02*
X0102460Y0638700D01*
X0102460Y0634700D02*
X0110460Y0634700D01*
X0133950Y0640540D02*
X0141950Y0648540D01*
X0141950Y0640540D02*
X0133950Y0648540D01*
X0133950Y0644540D02*
X0141950Y0644540D01*
X0135920Y0630700D02*
X0143920Y0638700D01*
X0143920Y0630700D02*
X0135920Y0638700D01*
X0135920Y0634700D02*
X0143920Y0634700D01*
X0165450Y0630700D02*
X0173450Y0638700D01*
X0173450Y0630700D02*
X0165450Y0638700D01*
X0165450Y0634700D02*
X0173450Y0634700D01*
X0196940Y0644480D02*
X0204940Y0652480D01*
X0204940Y0644480D02*
X0196940Y0652480D01*
X0196940Y0648480D02*
X0204940Y0648480D01*
X0135920Y0675970D02*
X0143920Y0683970D01*
X0143920Y0675970D02*
X0135920Y0683970D01*
X0135920Y0679970D02*
X0143920Y0679970D01*
X0130020Y0681880D02*
X0138020Y0689880D01*
X0138020Y0681880D02*
X0130020Y0689880D01*
X0130020Y0685880D02*
X0138020Y0685880D01*
X0133950Y0685820D02*
X0141950Y0693820D01*
X0141950Y0685820D02*
X0133950Y0693820D01*
X0133950Y0689820D02*
X0141950Y0689820D01*
X0110330Y0681880D02*
X0118330Y0689880D01*
X0118330Y0681880D02*
X0110330Y0689880D01*
X0110330Y0685880D02*
X0118330Y0685880D01*
X0104430Y0672040D02*
X0112430Y0680040D01*
X0112430Y0672040D02*
X0104430Y0680040D01*
X0104430Y0676040D02*
X0112430Y0676040D01*
X0090650Y0681880D02*
X0098650Y0689880D01*
X0098650Y0681880D02*
X0090650Y0689880D01*
X0090650Y0685880D02*
X0098650Y0685880D01*
X0080800Y0677940D02*
X0088800Y0685940D01*
X0088800Y0677940D02*
X0080800Y0685940D01*
X0080800Y0681940D02*
X0088800Y0681940D01*
X0080800Y0672040D02*
X0088800Y0680040D01*
X0088800Y0672040D02*
X0080800Y0680040D01*
X0080800Y0676040D02*
X0088800Y0676040D01*
X0061120Y0670070D02*
X0069120Y0678070D01*
X0069120Y0670070D02*
X0061120Y0678070D01*
X0061120Y0674070D02*
X0069120Y0674070D01*
X0080800Y0658260D02*
X0088800Y0666260D01*
X0088800Y0658260D02*
X0080800Y0666260D01*
X0080800Y0662260D02*
X0088800Y0662260D01*
X0053240Y0683850D02*
X0061240Y0691850D01*
X0061240Y0683850D02*
X0053240Y0691850D01*
X0053240Y0687850D02*
X0061240Y0687850D01*
X0039460Y0683850D02*
X0047460Y0691850D01*
X0047460Y0683850D02*
X0039460Y0691850D01*
X0039460Y0687850D02*
X0047460Y0687850D01*
X0037500Y0693690D02*
X0045500Y0701690D01*
X0045500Y0693690D02*
X0037500Y0701690D01*
X0037500Y0697690D02*
X0045500Y0697690D01*
X0015840Y0679910D02*
X0023840Y0687910D01*
X0023840Y0679910D02*
X0015840Y0687910D01*
X0015840Y0683910D02*
X0023840Y0683910D01*
X0021750Y0677940D02*
X0029750Y0685940D01*
X0029750Y0677940D02*
X0021750Y0685940D01*
X0021750Y0681940D02*
X0029750Y0681940D01*
X0082770Y0699600D02*
X0090770Y0707600D01*
X0090770Y0699600D02*
X0082770Y0707600D01*
X0082770Y0703600D02*
X0090770Y0703600D01*
X0133950Y0703530D02*
X0141950Y0711530D01*
X0141950Y0703530D02*
X0133950Y0711530D01*
X0133950Y0707530D02*
X0141950Y0707530D01*
X0133950Y0658260D02*
X0141950Y0666260D01*
X0141950Y0658260D02*
X0133950Y0666260D01*
X0133950Y0662260D02*
X0141950Y0662260D01*
X0167420Y0585420D02*
X0175420Y0593420D01*
X0175420Y0585420D02*
X0167420Y0593420D01*
X0167420Y0589420D02*
X0175420Y0589420D01*
X0315000Y0036000D02*
X0311000Y0036000D01*
X0315000Y0036000D02*
X0319000Y0040000D01*
X0319000Y0032000D01*
X0315000Y0036000D01*
X0315000Y0046000D02*
X0311000Y0046000D01*
X0315000Y0046000D02*
X0319000Y0050000D01*
X0319000Y0042000D01*
X0315000Y0046000D01*
X0252000Y0058000D02*
X0248000Y0058000D01*
X0252000Y0058000D02*
X0256000Y0062000D01*
X0256000Y0054000D01*
X0252000Y0058000D01*
X0252000Y0068000D02*
X0248000Y0068000D01*
X0252000Y0068000D02*
X0256000Y0072000D01*
X0256000Y0064000D01*
X0252000Y0068000D01*
X0181000Y0114000D02*
X0177000Y0114000D01*
X0181000Y0114000D02*
X0185000Y0118000D01*
X0185000Y0110000D01*
X0181000Y0114000D01*
X0171000Y0114000D02*
X0167000Y0114000D01*
X0171000Y0114000D02*
X0175000Y0118000D01*
X0175000Y0110000D01*
X0171000Y0114000D01*
X0155000Y0055000D02*
X0151000Y0055000D01*
X0155000Y0055000D02*
X0159000Y0059000D01*
X0159000Y0051000D01*
X0155000Y0055000D01*
X0145000Y0055000D02*
X0141000Y0055000D01*
X0145000Y0055000D02*
X0149000Y0059000D01*
X0149000Y0051000D01*
X0145000Y0055000D01*
X0145000Y0045000D02*
X0141000Y0045000D01*
X0145000Y0045000D02*
X0149000Y0049000D01*
X0149000Y0041000D01*
X0145000Y0045000D01*
X0155000Y0045000D02*
X0151000Y0045000D01*
X0155000Y0045000D02*
X0159000Y0049000D01*
X0159000Y0041000D01*
X0155000Y0045000D01*
X0154000Y0035000D02*
X0150000Y0035000D01*
X0154000Y0035000D02*
X0158000Y0039000D01*
X0158000Y0031000D01*
X0154000Y0035000D01*
X0145000Y0034000D02*
X0141000Y0034000D01*
X0145000Y0034000D02*
X0149000Y0038000D01*
X0149000Y0030000D01*
X0145000Y0034000D01*
X0154000Y0025000D02*
X0150000Y0025000D01*
X0154000Y0025000D02*
X0158000Y0029000D01*
X0158000Y0021000D01*
X0154000Y0025000D01*
X0145000Y0024000D02*
X0141000Y0024000D01*
X0145000Y0024000D02*
X0149000Y0028000D01*
X0149000Y0020000D01*
X0145000Y0024000D01*
X0082000Y0030000D02*
X0078000Y0030000D01*
X0082000Y0030000D02*
X0086000Y0034000D01*
X0086000Y0026000D01*
X0082000Y0030000D01*
X0072000Y0030000D02*
X0068000Y0030000D01*
X0072000Y0030000D02*
X0076000Y0034000D01*
X0076000Y0026000D01*
X0072000Y0030000D01*
X0072000Y0042000D02*
X0068000Y0042000D01*
X0072000Y0042000D02*
X0076000Y0046000D01*
X0076000Y0038000D01*
X0072000Y0042000D01*
X0082000Y0042000D02*
X0078000Y0042000D01*
X0082000Y0042000D02*
X0086000Y0046000D01*
X0086000Y0038000D01*
X0082000Y0042000D01*
X0069000Y0174000D02*
X0065000Y0174000D01*
X0069000Y0174000D02*
X0073000Y0178000D01*
X0073000Y0170000D01*
X0069000Y0174000D01*
X0070000Y0185000D02*
X0066000Y0185000D01*
X0070000Y0185000D02*
X0074000Y0189000D01*
X0074000Y0181000D01*
X0070000Y0185000D01*
X0050000Y0185000D02*
X0046000Y0185000D01*
X0050000Y0185000D02*
X0054000Y0189000D01*
X0054000Y0181000D01*
X0050000Y0185000D01*
X0049000Y0174000D02*
X0045000Y0174000D01*
X0049000Y0174000D02*
X0053000Y0178000D01*
X0053000Y0170000D01*
X0049000Y0174000D01*
X0056000Y0201000D02*
X0052000Y0201000D01*
X0056000Y0201000D02*
X0060000Y0205000D01*
X0060000Y0197000D01*
X0056000Y0201000D01*
X0056000Y0211000D02*
X0052000Y0211000D01*
X0056000Y0211000D02*
X0060000Y0215000D01*
X0060000Y0207000D01*
X0056000Y0211000D01*
X0108000Y0209000D02*
X0104000Y0209000D01*
X0108000Y0209000D02*
X0112000Y0213000D01*
X0112000Y0205000D01*
X0108000Y0209000D01*
X0108000Y0199000D02*
X0104000Y0199000D01*
X0108000Y0199000D02*
X0112000Y0203000D01*
X0112000Y0195000D01*
X0108000Y0199000D01*
X0097000Y0247000D02*
X0093000Y0247000D01*
X0097000Y0247000D02*
X0101000Y0251000D01*
X0101000Y0243000D01*
X0097000Y0247000D01*
X0098000Y0267000D02*
X0094000Y0267000D01*
X0098000Y0267000D02*
X0102000Y0271000D01*
X0102000Y0263000D01*
X0098000Y0267000D01*
X0088000Y0267000D02*
X0084000Y0267000D01*
X0088000Y0267000D02*
X0092000Y0271000D01*
X0092000Y0263000D01*
X0088000Y0267000D01*
X0127000Y0247000D02*
X0123000Y0247000D01*
X0127000Y0247000D02*
X0131000Y0251000D01*
X0131000Y0243000D01*
X0127000Y0247000D01*
X0266000Y0212000D02*
X0262000Y0212000D01*
X0266000Y0212000D02*
X0270000Y0216000D01*
X0270000Y0208000D01*
X0266000Y0212000D01*
X0296000Y0212000D02*
X0292000Y0212000D01*
X0296000Y0212000D02*
X0300000Y0216000D01*
X0300000Y0208000D01*
X0296000Y0212000D01*
X0311000Y0212000D02*
X0307000Y0212000D01*
X0311000Y0212000D02*
X0315000Y0216000D01*
X0315000Y0208000D01*
X0311000Y0212000D01*
X0341000Y0212000D02*
X0337000Y0212000D01*
X0341000Y0212000D02*
X0345000Y0216000D01*
X0345000Y0208000D01*
X0341000Y0212000D01*
X0341000Y0158000D02*
X0337000Y0158000D01*
X0341000Y0158000D02*
X0345000Y0162000D01*
X0345000Y0154000D01*
X0341000Y0158000D01*
X0311000Y0158000D02*
X0307000Y0158000D01*
X0311000Y0158000D02*
X0315000Y0162000D01*
X0315000Y0154000D01*
X0311000Y0158000D01*
X0297000Y0158000D02*
X0293000Y0158000D01*
X0297000Y0158000D02*
X0301000Y0162000D01*
X0301000Y0154000D01*
X0297000Y0158000D01*
X0267000Y0158000D02*
X0263000Y0158000D01*
X0267000Y0158000D02*
X0271000Y0162000D01*
X0271000Y0154000D01*
X0267000Y0158000D01*
X0033260Y0036090D02*
X0029260Y0036090D01*
X0033260Y0036090D02*
X0037260Y0040090D01*
X0037260Y0032090D01*
X0033260Y0036090D01*
X0020270Y0054000D02*
X0016270Y0054000D01*
X0020270Y0054000D02*
X0024270Y0058000D01*
X0024270Y0050000D01*
X0020270Y0054000D01*
X0045470Y0064430D02*
X0041470Y0064430D01*
X0045470Y0064430D02*
X0049470Y0068430D01*
X0049470Y0060430D01*
X0045470Y0064430D01*
X0050980Y0073880D02*
X0046980Y0073880D01*
X0050980Y0073880D02*
X0054980Y0077880D01*
X0054980Y0069880D01*
X0050980Y0073880D01*
X0063580Y0038250D02*
X0059580Y0038250D01*
X0063580Y0038250D02*
X0067580Y0042250D01*
X0067580Y0034250D01*
X0063580Y0038250D01*
X0351430Y0073750D02*
X0347430Y0073750D01*
X0351430Y0073750D02*
X0355430Y0077750D01*
X0355430Y0069750D01*
X0351430Y0073750D01*
X0381740Y0075920D02*
X0377740Y0075920D01*
X0381740Y0075920D02*
X0385740Y0079920D01*
X0385740Y0071920D01*
X0381740Y0075920D01*
X0394730Y0058000D02*
X0390730Y0058000D01*
X0394730Y0058000D02*
X0398730Y0062000D01*
X0398730Y0054000D01*
X0394730Y0058000D01*
X0369540Y0047570D02*
X0365540Y0047570D01*
X0369540Y0047570D02*
X0373540Y0051570D01*
X0373540Y0043570D01*
X0369540Y0047570D01*
X0364020Y0038120D02*
X0360020Y0038120D01*
X0364020Y0038120D02*
X0368020Y0042120D01*
X0368020Y0034120D01*
X0364020Y0038120D01*
X0075000Y0376210D02*
X0071000Y0376210D01*
X0075000Y0376210D02*
X0079000Y0380210D01*
X0079000Y0372210D01*
X0075000Y0376210D01*
X0085000Y0376210D02*
X0081000Y0376210D01*
X0085000Y0376210D02*
X0089000Y0380210D01*
X0089000Y0372210D01*
X0085000Y0376210D01*
X0085000Y0406210D02*
X0081000Y0406210D01*
X0085000Y0406210D02*
X0089000Y0410210D01*
X0089000Y0402210D01*
X0085000Y0406210D01*
X0075000Y0406210D02*
X0071000Y0406210D01*
X0075000Y0406210D02*
X0079000Y0410210D01*
X0079000Y0402210D01*
X0075000Y0406210D01*
X0193030Y0465150D02*
X0189030Y0465150D01*
X0193030Y0465150D02*
X0197030Y0469150D01*
X0197030Y0461150D01*
X0193030Y0465150D01*
X0223030Y0465150D02*
X0219030Y0465150D01*
X0223030Y0465150D02*
X0227030Y0469150D01*
X0227030Y0461150D01*
X0223030Y0465150D01*
X0050950Y0401090D02*
X0046950Y0401090D01*
X0050950Y0401090D02*
X0054950Y0405090D01*
X0054950Y0397090D01*
X0050950Y0401090D01*
X0045440Y0391640D02*
X0041440Y0391640D01*
X0045440Y0391640D02*
X0049440Y0395640D01*
X0049440Y0387640D01*
X0045440Y0391640D01*
X0020240Y0381210D02*
X0016240Y0381210D01*
X0020240Y0381210D02*
X0024240Y0385210D01*
X0024240Y0377210D01*
X0020240Y0381210D01*
X0033230Y0363300D02*
X0029230Y0363300D01*
X0033230Y0363300D02*
X0037230Y0367300D01*
X0037230Y0359300D01*
X0033230Y0363300D01*
X0063550Y0365460D02*
X0059550Y0365460D01*
X0063550Y0365460D02*
X0067550Y0369460D01*
X0067550Y0361460D01*
X0063550Y0365460D01*
X0100000Y0617770D02*
X0096000Y0617770D01*
X0100000Y0617770D02*
X0104000Y0621770D01*
X0104000Y0613770D01*
X0100000Y0617770D01*
X0100000Y0627770D02*
X0096000Y0627770D01*
X0100000Y0627770D02*
X0104000Y0631770D01*
X0104000Y0623770D01*
X0100000Y0627770D01*
X0070000Y0627770D02*
X0066000Y0627770D01*
X0070000Y0627770D02*
X0074000Y0631770D01*
X0074000Y0623770D01*
X0070000Y0627770D01*
X0070000Y0617770D02*
X0066000Y0617770D01*
X0070000Y0617770D02*
X0074000Y0621770D01*
X0074000Y0613770D01*
X0070000Y0617770D01*
X0369330Y0114220D02*
X0373330Y0114220D01*
X0369330Y0114220D02*
X0365330Y0118220D01*
X0365330Y0110220D01*
X0369330Y0114220D01*
X0369330Y0124060D02*
X0373330Y0124060D01*
X0369330Y0124060D02*
X0365330Y0128060D01*
X0365330Y0120060D01*
X0369330Y0124060D01*
X0369330Y0131940D02*
X0373330Y0131940D01*
X0369330Y0131940D02*
X0365330Y0135940D01*
X0365330Y0127940D01*
X0369330Y0131940D01*
X0369330Y0141780D02*
X0373330Y0141780D01*
X0369330Y0141780D02*
X0365330Y0145780D01*
X0365330Y0137780D01*
X0369330Y0141780D01*
X0105000Y0159000D02*
X0109000Y0159000D01*
X0105000Y0159000D02*
X0101000Y0163000D01*
X0101000Y0155000D01*
X0105000Y0159000D01*
X0105000Y0169000D02*
X0109000Y0169000D01*
X0105000Y0169000D02*
X0101000Y0173000D01*
X0101000Y0165000D01*
X0105000Y0169000D01*
X0034000Y0167000D02*
X0038000Y0167000D01*
X0034000Y0167000D02*
X0030000Y0171000D01*
X0030000Y0163000D01*
X0034000Y0167000D01*
X0024000Y0167000D02*
X0028000Y0167000D01*
X0024000Y0167000D02*
X0020000Y0171000D01*
X0020000Y0163000D01*
X0024000Y0167000D01*
X0024000Y0177000D02*
X0028000Y0177000D01*
X0024000Y0177000D02*
X0020000Y0181000D01*
X0020000Y0173000D01*
X0024000Y0177000D01*
X0034000Y0177000D02*
X0038000Y0177000D01*
X0034000Y0177000D02*
X0030000Y0181000D01*
X0030000Y0173000D01*
X0034000Y0177000D01*
X0034000Y0187000D02*
X0038000Y0187000D01*
X0034000Y0187000D02*
X0030000Y0191000D01*
X0030000Y0183000D01*
X0034000Y0187000D01*
X0024000Y0187000D02*
X0028000Y0187000D01*
X0024000Y0187000D02*
X0020000Y0191000D01*
X0020000Y0183000D01*
X0024000Y0187000D01*
X0024000Y0197000D02*
X0028000Y0197000D01*
X0024000Y0197000D02*
X0020000Y0201000D01*
X0020000Y0193000D01*
X0024000Y0197000D01*
X0034000Y0197000D02*
X0038000Y0197000D01*
X0034000Y0197000D02*
X0030000Y0201000D01*
X0030000Y0193000D01*
X0034000Y0197000D01*
X0034000Y0207000D02*
X0038000Y0207000D01*
X0034000Y0207000D02*
X0030000Y0211000D01*
X0030000Y0203000D01*
X0034000Y0207000D01*
X0024000Y0207000D02*
X0028000Y0207000D01*
X0024000Y0207000D02*
X0020000Y0211000D01*
X0020000Y0203000D01*
X0024000Y0207000D01*
X0024000Y0217000D02*
X0028000Y0217000D01*
X0024000Y0217000D02*
X0020000Y0221000D01*
X0020000Y0213000D01*
X0024000Y0217000D01*
X0034000Y0217000D02*
X0038000Y0217000D01*
X0034000Y0217000D02*
X0030000Y0221000D01*
X0030000Y0213000D01*
X0034000Y0217000D01*
X0034000Y0157000D02*
X0038000Y0157000D01*
X0034000Y0157000D02*
X0030000Y0161000D01*
X0030000Y0153000D01*
X0034000Y0157000D01*
X0024000Y0157000D02*
X0028000Y0157000D01*
X0024000Y0157000D02*
X0020000Y0161000D01*
X0020000Y0153000D01*
X0024000Y0157000D01*
X0024000Y0147000D02*
X0028000Y0147000D01*
X0024000Y0147000D02*
X0020000Y0151000D01*
X0020000Y0143000D01*
X0024000Y0147000D01*
X0034000Y0147000D02*
X0038000Y0147000D01*
X0034000Y0147000D02*
X0030000Y0151000D01*
X0030000Y0143000D01*
X0034000Y0147000D01*
X0034000Y0137000D02*
X0038000Y0137000D01*
X0034000Y0137000D02*
X0030000Y0141000D01*
X0030000Y0133000D01*
X0034000Y0137000D01*
X0024000Y0137000D02*
X0028000Y0137000D01*
X0024000Y0137000D02*
X0020000Y0141000D01*
X0020000Y0133000D01*
X0024000Y0137000D01*
X0024000Y0127000D02*
X0028000Y0127000D01*
X0024000Y0127000D02*
X0020000Y0131000D01*
X0020000Y0123000D01*
X0024000Y0127000D01*
X0034000Y0127000D02*
X0038000Y0127000D01*
X0034000Y0127000D02*
X0030000Y0131000D01*
X0030000Y0123000D01*
X0034000Y0127000D01*
X0034000Y0117000D02*
X0038000Y0117000D01*
X0034000Y0117000D02*
X0030000Y0121000D01*
X0030000Y0113000D01*
X0034000Y0117000D01*
X0024000Y0117000D02*
X0028000Y0117000D01*
X0024000Y0117000D02*
X0020000Y0121000D01*
X0020000Y0113000D01*
X0024000Y0117000D01*
X0024000Y0107000D02*
X0028000Y0107000D01*
X0024000Y0107000D02*
X0020000Y0111000D01*
X0020000Y0103000D01*
X0024000Y0107000D01*
X0034000Y0107000D02*
X0038000Y0107000D01*
X0034000Y0107000D02*
X0030000Y0111000D01*
X0030000Y0103000D01*
X0034000Y0107000D01*
X0034000Y0097000D02*
X0038000Y0097000D01*
X0034000Y0097000D02*
X0030000Y0101000D01*
X0030000Y0093000D01*
X0034000Y0097000D01*
X0024000Y0097000D02*
X0028000Y0097000D01*
X0024000Y0097000D02*
X0020000Y0101000D01*
X0020000Y0093000D01*
X0024000Y0097000D01*
X0260910Y0460300D02*
X0264910Y0460300D01*
X0260910Y0460300D02*
X0256910Y0464300D01*
X0256910Y0456300D01*
X0260910Y0460300D01*
X0270910Y0460300D02*
X0274910Y0460300D01*
X0270910Y0460300D02*
X0266910Y0464300D01*
X0266910Y0456300D01*
X0270910Y0460300D01*
X0270910Y0470300D02*
X0274910Y0470300D01*
X0270910Y0470300D02*
X0266910Y0474300D01*
X0266910Y0466300D01*
X0270910Y0470300D01*
X0260910Y0470300D02*
X0264910Y0470300D01*
X0260910Y0470300D02*
X0256910Y0474300D01*
X0256910Y0466300D01*
X0260910Y0470300D01*
X0260910Y0450300D02*
X0264910Y0450300D01*
X0260910Y0450300D02*
X0256910Y0454300D01*
X0256910Y0446300D01*
X0260910Y0450300D01*
X0270910Y0450300D02*
X0274910Y0450300D01*
X0270910Y0450300D02*
X0266910Y0454300D01*
X0266910Y0446300D01*
X0270910Y0450300D01*
X0270910Y0440300D02*
X0274910Y0440300D01*
X0270910Y0440300D02*
X0266910Y0444300D01*
X0266910Y0436300D01*
X0270910Y0440300D01*
X0260910Y0440300D02*
X0264910Y0440300D01*
X0260910Y0440300D02*
X0256910Y0444300D01*
X0256910Y0436300D01*
X0260910Y0440300D01*
X0260910Y0430300D02*
X0264910Y0430300D01*
X0260910Y0430300D02*
X0256910Y0434300D01*
X0256910Y0426300D01*
X0260910Y0430300D01*
X0270910Y0430300D02*
X0274910Y0430300D01*
X0270910Y0430300D02*
X0266910Y0434300D01*
X0266910Y0426300D01*
X0270910Y0430300D01*
X0270910Y0420300D02*
X0274910Y0420300D01*
X0270910Y0420300D02*
X0266910Y0424300D01*
X0266910Y0416300D01*
X0270910Y0420300D01*
X0260910Y0420300D02*
X0264910Y0420300D01*
X0260910Y0420300D02*
X0256910Y0424300D01*
X0256910Y0416300D01*
X0260910Y0420300D01*
X0260910Y0410300D02*
X0264910Y0410300D01*
X0260910Y0410300D02*
X0256910Y0414300D01*
X0256910Y0406300D01*
X0260910Y0410300D01*
X0270910Y0410300D02*
X0274910Y0410300D01*
X0270910Y0410300D02*
X0266910Y0414300D01*
X0266910Y0406300D01*
X0270910Y0410300D01*
X0270910Y0400300D02*
X0274910Y0400300D01*
X0270910Y0400300D02*
X0266910Y0404300D01*
X0266910Y0396300D01*
X0270910Y0400300D01*
X0260910Y0400300D02*
X0264910Y0400300D01*
X0260910Y0400300D02*
X0256910Y0404300D01*
X0256910Y0396300D01*
X0260910Y0400300D01*
X0094000Y0232000D02*
X0102000Y0232000D01*
X0098000Y0228000D02*
X0098000Y0236000D01*
X0094100Y0232000D02*
X0094120Y0232390D01*
X0094180Y0232790D01*
X0094280Y0233170D01*
X0094420Y0233540D01*
X0094590Y0233890D01*
X0094800Y0234230D01*
X0095040Y0234540D01*
X0095310Y0234830D01*
X0095610Y0235080D01*
X0095940Y0235310D01*
X0096280Y0235500D01*
X0096650Y0235660D01*
X0097020Y0235780D01*
X0097410Y0235860D01*
X0097800Y0235890D01*
X0098200Y0235890D01*
X0098590Y0235860D01*
X0098980Y0235780D01*
X0099350Y0235660D01*
X0099720Y0235500D01*
X0100060Y0235310D01*
X0100390Y0235080D01*
X0100690Y0234830D01*
X0100960Y0234540D01*
X0101200Y0234230D01*
X0101410Y0233890D01*
X0101580Y0233540D01*
X0101720Y0233170D01*
X0101820Y0232790D01*
X0101880Y0232390D01*
X0101900Y0232000D01*
X0101880Y0231610D01*
X0101820Y0231210D01*
X0101720Y0230830D01*
X0101580Y0230460D01*
X0101410Y0230110D01*
X0101200Y0229770D01*
X0100960Y0229460D01*
X0100690Y0229170D01*
X0100390Y0228920D01*
X0100060Y0228690D01*
X0099720Y0228500D01*
X0099350Y0228340D01*
X0098980Y0228220D01*
X0098590Y0228140D01*
X0098200Y0228110D01*
X0097800Y0228110D01*
X0097410Y0228140D01*
X0097020Y0228220D01*
X0096650Y0228340D01*
X0096280Y0228500D01*
X0095940Y0228690D01*
X0095610Y0228920D01*
X0095310Y0229170D01*
X0095040Y0229460D01*
X0094800Y0229770D01*
X0094590Y0230110D01*
X0094420Y0230460D01*
X0094280Y0230830D01*
X0094180Y0231210D01*
X0094120Y0231610D01*
X0094100Y0232000D01*
X0134000Y0232000D02*
X0142000Y0232000D01*
X0138000Y0228000D02*
X0138000Y0236000D01*
X0134100Y0232000D02*
X0134120Y0232390D01*
X0134180Y0232790D01*
X0134280Y0233170D01*
X0134420Y0233540D01*
X0134590Y0233890D01*
X0134800Y0234230D01*
X0135040Y0234540D01*
X0135310Y0234830D01*
X0135610Y0235080D01*
X0135940Y0235310D01*
X0136280Y0235500D01*
X0136650Y0235660D01*
X0137020Y0235780D01*
X0137410Y0235860D01*
X0137800Y0235890D01*
X0138200Y0235890D01*
X0138590Y0235860D01*
X0138980Y0235780D01*
X0139350Y0235660D01*
X0139720Y0235500D01*
X0140060Y0235310D01*
X0140390Y0235080D01*
X0140690Y0234830D01*
X0140960Y0234540D01*
X0141200Y0234230D01*
X0141410Y0233890D01*
X0141580Y0233540D01*
X0141720Y0233170D01*
X0141820Y0232790D01*
X0141880Y0232390D01*
X0141900Y0232000D01*
X0141880Y0231610D01*
X0141820Y0231210D01*
X0141720Y0230830D01*
X0141580Y0230460D01*
X0141410Y0230110D01*
X0141200Y0229770D01*
X0140960Y0229460D01*
X0140690Y0229170D01*
X0140390Y0228920D01*
X0140060Y0228690D01*
X0139720Y0228500D01*
X0139350Y0228340D01*
X0138980Y0228220D01*
X0138590Y0228140D01*
X0138200Y0228110D01*
X0137800Y0228110D01*
X0137410Y0228140D01*
X0137020Y0228220D01*
X0136650Y0228340D01*
X0136280Y0228500D01*
X0135940Y0228690D01*
X0135610Y0228920D01*
X0135310Y0229170D01*
X0135040Y0229460D01*
X0134800Y0229770D01*
X0134590Y0230110D01*
X0134420Y0230460D01*
X0134280Y0230830D01*
X0134180Y0231210D01*
X0134120Y0231610D01*
X0134100Y0232000D01*
X0126000Y0140500D02*
X0134000Y0140500D01*
X0130000Y0136500D02*
X0130000Y0144500D01*
X0126100Y0140500D02*
X0126120Y0140890D01*
X0126180Y0141290D01*
X0126280Y0141670D01*
X0126420Y0142040D01*
X0126590Y0142390D01*
X0126800Y0142730D01*
X0127040Y0143040D01*
X0127310Y0143330D01*
X0127610Y0143580D01*
X0127940Y0143810D01*
X0128280Y0144000D01*
X0128650Y0144160D01*
X0129020Y0144280D01*
X0129410Y0144360D01*
X0129800Y0144390D01*
X0130200Y0144390D01*
X0130590Y0144360D01*
X0130980Y0144280D01*
X0131350Y0144160D01*
X0131720Y0144000D01*
X0132060Y0143810D01*
X0132390Y0143580D01*
X0132690Y0143330D01*
X0132960Y0143040D01*
X0133200Y0142730D01*
X0133410Y0142390D01*
X0133580Y0142040D01*
X0133720Y0141670D01*
X0133820Y0141290D01*
X0133880Y0140890D01*
X0133900Y0140500D01*
X0133880Y0140110D01*
X0133820Y0139710D01*
X0133720Y0139330D01*
X0133580Y0138960D01*
X0133410Y0138610D01*
X0133200Y0138270D01*
X0132960Y0137960D01*
X0132690Y0137670D01*
X0132390Y0137420D01*
X0132060Y0137190D01*
X0131720Y0137000D01*
X0131350Y0136840D01*
X0130980Y0136720D01*
X0130590Y0136640D01*
X0130200Y0136610D01*
X0129800Y0136610D01*
X0129410Y0136640D01*
X0129020Y0136720D01*
X0128650Y0136840D01*
X0128280Y0137000D01*
X0127940Y0137190D01*
X0127610Y0137420D01*
X0127310Y0137670D01*
X0127040Y0137960D01*
X0126800Y0138270D01*
X0126590Y0138610D01*
X0126420Y0138960D01*
X0126280Y0139330D01*
X0126180Y0139710D01*
X0126120Y0140110D01*
X0126100Y0140500D01*
X0086000Y0140500D02*
X0094000Y0140500D01*
X0090000Y0136500D02*
X0090000Y0144500D01*
X0086100Y0140500D02*
X0086120Y0140890D01*
X0086180Y0141290D01*
X0086280Y0141670D01*
X0086420Y0142040D01*
X0086590Y0142390D01*
X0086800Y0142730D01*
X0087040Y0143040D01*
X0087310Y0143330D01*
X0087610Y0143580D01*
X0087940Y0143810D01*
X0088280Y0144000D01*
X0088650Y0144160D01*
X0089020Y0144280D01*
X0089410Y0144360D01*
X0089800Y0144390D01*
X0090200Y0144390D01*
X0090590Y0144360D01*
X0090980Y0144280D01*
X0091350Y0144160D01*
X0091720Y0144000D01*
X0092060Y0143810D01*
X0092390Y0143580D01*
X0092690Y0143330D01*
X0092960Y0143040D01*
X0093200Y0142730D01*
X0093410Y0142390D01*
X0093580Y0142040D01*
X0093720Y0141670D01*
X0093820Y0141290D01*
X0093880Y0140890D01*
X0093900Y0140500D01*
X0093880Y0140110D01*
X0093820Y0139710D01*
X0093720Y0139330D01*
X0093580Y0138960D01*
X0093410Y0138610D01*
X0093200Y0138270D01*
X0092960Y0137960D01*
X0092690Y0137670D01*
X0092390Y0137420D01*
X0092060Y0137190D01*
X0091720Y0137000D01*
X0091350Y0136840D01*
X0090980Y0136720D01*
X0090590Y0136640D01*
X0090200Y0136610D01*
X0089800Y0136610D01*
X0089410Y0136640D01*
X0089020Y0136720D01*
X0088650Y0136840D01*
X0088280Y0137000D01*
X0087940Y0137190D01*
X0087610Y0137420D01*
X0087310Y0137670D01*
X0087040Y0137960D01*
X0086800Y0138270D01*
X0086590Y0138610D01*
X0086420Y0138960D01*
X0086280Y0139330D01*
X0086180Y0139710D01*
X0086120Y0140110D01*
X0086100Y0140500D01*
X0106000Y0070500D02*
X0114000Y0070500D01*
X0110000Y0066500D02*
X0110000Y0074500D01*
X0106100Y0070500D02*
X0106120Y0070890D01*
X0106180Y0071290D01*
X0106280Y0071670D01*
X0106420Y0072040D01*
X0106590Y0072390D01*
X0106800Y0072730D01*
X0107040Y0073040D01*
X0107310Y0073330D01*
X0107610Y0073580D01*
X0107940Y0073810D01*
X0108280Y0074000D01*
X0108650Y0074160D01*
X0109020Y0074280D01*
X0109410Y0074360D01*
X0109800Y0074390D01*
X0110200Y0074390D01*
X0110590Y0074360D01*
X0110980Y0074280D01*
X0111350Y0074160D01*
X0111720Y0074000D01*
X0112060Y0073810D01*
X0112390Y0073580D01*
X0112690Y0073330D01*
X0112960Y0073040D01*
X0113200Y0072730D01*
X0113410Y0072390D01*
X0113580Y0072040D01*
X0113720Y0071670D01*
X0113820Y0071290D01*
X0113880Y0070890D01*
X0113900Y0070500D01*
X0113880Y0070110D01*
X0113820Y0069710D01*
X0113720Y0069330D01*
X0113580Y0068960D01*
X0113410Y0068610D01*
X0113200Y0068270D01*
X0112960Y0067960D01*
X0112690Y0067670D01*
X0112390Y0067420D01*
X0112060Y0067190D01*
X0111720Y0067000D01*
X0111350Y0066840D01*
X0110980Y0066720D01*
X0110590Y0066640D01*
X0110200Y0066610D01*
X0109800Y0066610D01*
X0109410Y0066640D01*
X0109020Y0066720D01*
X0108650Y0066840D01*
X0108280Y0067000D01*
X0107940Y0067190D01*
X0107610Y0067420D01*
X0107310Y0067670D01*
X0107040Y0067960D01*
X0106800Y0068270D01*
X0106590Y0068610D01*
X0106420Y0068960D01*
X0106280Y0069330D01*
X0106180Y0069710D01*
X0106120Y0070110D01*
X0106100Y0070500D01*
X0362990Y0198290D02*
X0370990Y0198290D01*
X0366990Y0194290D02*
X0366990Y0202290D01*
X0363090Y0198290D02*
X0363110Y0198680D01*
X0363170Y0199080D01*
X0363270Y0199460D01*
X0363410Y0199830D01*
X0363580Y0200180D01*
X0363790Y0200520D01*
X0364030Y0200830D01*
X0364300Y0201120D01*
X0364600Y0201370D01*
X0364930Y0201600D01*
X0365270Y0201790D01*
X0365640Y0201950D01*
X0366010Y0202070D01*
X0366400Y0202150D01*
X0366790Y0202180D01*
X0367190Y0202180D01*
X0367580Y0202150D01*
X0367970Y0202070D01*
X0368340Y0201950D01*
X0368710Y0201790D01*
X0369050Y0201600D01*
X0369380Y0201370D01*
X0369680Y0201120D01*
X0369950Y0200830D01*
X0370190Y0200520D01*
X0370400Y0200180D01*
X0370570Y0199830D01*
X0370710Y0199460D01*
X0370810Y0199080D01*
X0370870Y0198680D01*
X0370890Y0198290D01*
X0370870Y0197900D01*
X0370810Y0197500D01*
X0370710Y0197120D01*
X0370570Y0196750D01*
X0370400Y0196400D01*
X0370190Y0196060D01*
X0369950Y0195750D01*
X0369680Y0195460D01*
X0369380Y0195210D01*
X0369050Y0194980D01*
X0368710Y0194790D01*
X0368340Y0194630D01*
X0367970Y0194510D01*
X0367580Y0194430D01*
X0367190Y0194400D01*
X0366790Y0194400D01*
X0366400Y0194430D01*
X0366010Y0194510D01*
X0365640Y0194630D01*
X0365270Y0194790D01*
X0364930Y0194980D01*
X0364600Y0195210D01*
X0364300Y0195460D01*
X0364030Y0195750D01*
X0363790Y0196060D01*
X0363580Y0196400D01*
X0363410Y0196750D01*
X0363270Y0197120D01*
X0363170Y0197500D01*
X0363110Y0197900D01*
X0363090Y0198290D01*
X0351180Y0198290D02*
X0359180Y0198290D01*
X0355180Y0194290D02*
X0355180Y0202290D01*
X0351280Y0198290D02*
X0351300Y0198680D01*
X0351360Y0199080D01*
X0351460Y0199460D01*
X0351600Y0199830D01*
X0351770Y0200180D01*
X0351980Y0200520D01*
X0352220Y0200830D01*
X0352490Y0201120D01*
X0352790Y0201370D01*
X0353120Y0201600D01*
X0353460Y0201790D01*
X0353830Y0201950D01*
X0354200Y0202070D01*
X0354590Y0202150D01*
X0354980Y0202180D01*
X0355380Y0202180D01*
X0355770Y0202150D01*
X0356160Y0202070D01*
X0356530Y0201950D01*
X0356900Y0201790D01*
X0357240Y0201600D01*
X0357570Y0201370D01*
X0357870Y0201120D01*
X0358140Y0200830D01*
X0358380Y0200520D01*
X0358590Y0200180D01*
X0358760Y0199830D01*
X0358900Y0199460D01*
X0359000Y0199080D01*
X0359060Y0198680D01*
X0359080Y0198290D01*
X0359060Y0197900D01*
X0359000Y0197500D01*
X0358900Y0197120D01*
X0358760Y0196750D01*
X0358590Y0196400D01*
X0358380Y0196060D01*
X0358140Y0195750D01*
X0357870Y0195460D01*
X0357570Y0195210D01*
X0357240Y0194980D01*
X0356900Y0194790D01*
X0356530Y0194630D01*
X0356160Y0194510D01*
X0355770Y0194430D01*
X0355380Y0194400D01*
X0354980Y0194400D01*
X0354590Y0194430D01*
X0354200Y0194510D01*
X0353830Y0194630D01*
X0353460Y0194790D01*
X0353120Y0194980D01*
X0352790Y0195210D01*
X0352490Y0195460D01*
X0352220Y0195750D01*
X0351980Y0196060D01*
X0351770Y0196400D01*
X0351600Y0196750D01*
X0351460Y0197120D01*
X0351360Y0197500D01*
X0351300Y0197900D01*
X0351280Y0198290D01*
X0351180Y0210100D02*
X0359180Y0210100D01*
X0355180Y0206100D02*
X0355180Y0214100D01*
X0351280Y0210100D02*
X0351300Y0210490D01*
X0351360Y0210890D01*
X0351460Y0211270D01*
X0351600Y0211640D01*
X0351770Y0211990D01*
X0351980Y0212330D01*
X0352220Y0212640D01*
X0352490Y0212930D01*
X0352790Y0213180D01*
X0353120Y0213410D01*
X0353460Y0213600D01*
X0353830Y0213760D01*
X0354200Y0213880D01*
X0354590Y0213960D01*
X0354980Y0213990D01*
X0355380Y0213990D01*
X0355770Y0213960D01*
X0356160Y0213880D01*
X0356530Y0213760D01*
X0356900Y0213600D01*
X0357240Y0213410D01*
X0357570Y0213180D01*
X0357870Y0212930D01*
X0358140Y0212640D01*
X0358380Y0212330D01*
X0358590Y0211990D01*
X0358760Y0211640D01*
X0358900Y0211270D01*
X0359000Y0210890D01*
X0359060Y0210490D01*
X0359080Y0210100D01*
X0359060Y0209710D01*
X0359000Y0209310D01*
X0358900Y0208930D01*
X0358760Y0208560D01*
X0358590Y0208210D01*
X0358380Y0207870D01*
X0358140Y0207560D01*
X0357870Y0207270D01*
X0357570Y0207020D01*
X0357240Y0206790D01*
X0356900Y0206600D01*
X0356530Y0206440D01*
X0356160Y0206320D01*
X0355770Y0206240D01*
X0355380Y0206210D01*
X0354980Y0206210D01*
X0354590Y0206240D01*
X0354200Y0206320D01*
X0353830Y0206440D01*
X0353460Y0206600D01*
X0353120Y0206790D01*
X0352790Y0207020D01*
X0352490Y0207270D01*
X0352220Y0207560D01*
X0351980Y0207870D01*
X0351770Y0208210D01*
X0351600Y0208560D01*
X0351460Y0208930D01*
X0351360Y0209310D01*
X0351300Y0209710D01*
X0351280Y0210100D01*
X0351180Y0221910D02*
X0359180Y0221910D01*
X0355180Y0217910D02*
X0355180Y0225910D01*
X0351280Y0221910D02*
X0351300Y0222300D01*
X0351360Y0222700D01*
X0351460Y0223080D01*
X0351600Y0223450D01*
X0351770Y0223800D01*
X0351980Y0224140D01*
X0352220Y0224450D01*
X0352490Y0224740D01*
X0352790Y0224990D01*
X0353120Y0225220D01*
X0353460Y0225410D01*
X0353830Y0225570D01*
X0354200Y0225690D01*
X0354590Y0225770D01*
X0354980Y0225800D01*
X0355380Y0225800D01*
X0355770Y0225770D01*
X0356160Y0225690D01*
X0356530Y0225570D01*
X0356900Y0225410D01*
X0357240Y0225220D01*
X0357570Y0224990D01*
X0357870Y0224740D01*
X0358140Y0224450D01*
X0358380Y0224140D01*
X0358590Y0223800D01*
X0358760Y0223450D01*
X0358900Y0223080D01*
X0359000Y0222700D01*
X0359060Y0222300D01*
X0359080Y0221910D01*
X0359060Y0221520D01*
X0359000Y0221120D01*
X0358900Y0220740D01*
X0358760Y0220370D01*
X0358590Y0220020D01*
X0358380Y0219680D01*
X0358140Y0219370D01*
X0357870Y0219080D01*
X0357570Y0218830D01*
X0357240Y0218600D01*
X0356900Y0218410D01*
X0356530Y0218250D01*
X0356160Y0218130D01*
X0355770Y0218050D01*
X0355380Y0218020D01*
X0354980Y0218020D01*
X0354590Y0218050D01*
X0354200Y0218130D01*
X0353830Y0218250D01*
X0353460Y0218410D01*
X0353120Y0218600D01*
X0352790Y0218830D01*
X0352490Y0219080D01*
X0352220Y0219370D01*
X0351980Y0219680D01*
X0351770Y0220020D01*
X0351600Y0220370D01*
X0351460Y0220740D01*
X0351360Y0221120D01*
X0351300Y0221520D01*
X0351280Y0221910D01*
X0362990Y0221910D02*
X0370990Y0221910D01*
X0366990Y0217910D02*
X0366990Y0225910D01*
X0363090Y0221910D02*
X0363110Y0222300D01*
X0363170Y0222700D01*
X0363270Y0223080D01*
X0363410Y0223450D01*
X0363580Y0223800D01*
X0363790Y0224140D01*
X0364030Y0224450D01*
X0364300Y0224740D01*
X0364600Y0224990D01*
X0364930Y0225220D01*
X0365270Y0225410D01*
X0365640Y0225570D01*
X0366010Y0225690D01*
X0366400Y0225770D01*
X0366790Y0225800D01*
X0367190Y0225800D01*
X0367580Y0225770D01*
X0367970Y0225690D01*
X0368340Y0225570D01*
X0368710Y0225410D01*
X0369050Y0225220D01*
X0369380Y0224990D01*
X0369680Y0224740D01*
X0369950Y0224450D01*
X0370190Y0224140D01*
X0370400Y0223800D01*
X0370570Y0223450D01*
X0370710Y0223080D01*
X0370810Y0222700D01*
X0370870Y0222300D01*
X0370890Y0221910D01*
X0370870Y0221520D01*
X0370810Y0221120D01*
X0370710Y0220740D01*
X0370570Y0220370D01*
X0370400Y0220020D01*
X0370190Y0219680D01*
X0369950Y0219370D01*
X0369680Y0219080D01*
X0369380Y0218830D01*
X0369050Y0218600D01*
X0368710Y0218410D01*
X0368340Y0218250D01*
X0367970Y0218130D01*
X0367580Y0218050D01*
X0367190Y0218020D01*
X0366790Y0218020D01*
X0366400Y0218050D01*
X0366010Y0218130D01*
X0365640Y0218250D01*
X0365270Y0218410D01*
X0364930Y0218600D01*
X0364600Y0218830D01*
X0364300Y0219080D01*
X0364030Y0219370D01*
X0363790Y0219680D01*
X0363580Y0220020D01*
X0363410Y0220370D01*
X0363270Y0220740D01*
X0363170Y0221120D01*
X0363110Y0221520D01*
X0363090Y0221910D01*
X0362990Y0210100D02*
X0370990Y0210100D01*
X0366990Y0206100D02*
X0366990Y0214100D01*
X0363090Y0210100D02*
X0363110Y0210490D01*
X0363170Y0210890D01*
X0363270Y0211270D01*
X0363410Y0211640D01*
X0363580Y0211990D01*
X0363790Y0212330D01*
X0364030Y0212640D01*
X0364300Y0212930D01*
X0364600Y0213180D01*
X0364930Y0213410D01*
X0365270Y0213600D01*
X0365640Y0213760D01*
X0366010Y0213880D01*
X0366400Y0213960D01*
X0366790Y0213990D01*
X0367190Y0213990D01*
X0367580Y0213960D01*
X0367970Y0213880D01*
X0368340Y0213760D01*
X0368710Y0213600D01*
X0369050Y0213410D01*
X0369380Y0213180D01*
X0369680Y0212930D01*
X0369950Y0212640D01*
X0370190Y0212330D01*
X0370400Y0211990D01*
X0370570Y0211640D01*
X0370710Y0211270D01*
X0370810Y0210890D01*
X0370870Y0210490D01*
X0370890Y0210100D01*
X0370870Y0209710D01*
X0370810Y0209310D01*
X0370710Y0208930D01*
X0370570Y0208560D01*
X0370400Y0208210D01*
X0370190Y0207870D01*
X0369950Y0207560D01*
X0369680Y0207270D01*
X0369380Y0207020D01*
X0369050Y0206790D01*
X0368710Y0206600D01*
X0368340Y0206440D01*
X0367970Y0206320D01*
X0367580Y0206240D01*
X0367190Y0206210D01*
X0366790Y0206210D01*
X0366400Y0206240D01*
X0366010Y0206320D01*
X0365640Y0206440D01*
X0365270Y0206600D01*
X0364930Y0206790D01*
X0364600Y0207020D01*
X0364300Y0207270D01*
X0364030Y0207560D01*
X0363790Y0207870D01*
X0363580Y0208210D01*
X0363410Y0208560D01*
X0363270Y0208930D01*
X0363170Y0209310D01*
X0363110Y0209710D01*
X0363090Y0210100D01*
X0362990Y0233720D02*
X0370990Y0233720D01*
X0366990Y0229720D02*
X0366990Y0237720D01*
X0363090Y0233720D02*
X0363110Y0234110D01*
X0363170Y0234510D01*
X0363270Y0234890D01*
X0363410Y0235260D01*
X0363580Y0235610D01*
X0363790Y0235950D01*
X0364030Y0236260D01*
X0364300Y0236550D01*
X0364600Y0236800D01*
X0364930Y0237030D01*
X0365270Y0237220D01*
X0365640Y0237380D01*
X0366010Y0237500D01*
X0366400Y0237580D01*
X0366790Y0237610D01*
X0367190Y0237610D01*
X0367580Y0237580D01*
X0367970Y0237500D01*
X0368340Y0237380D01*
X0368710Y0237220D01*
X0369050Y0237030D01*
X0369380Y0236800D01*
X0369680Y0236550D01*
X0369950Y0236260D01*
X0370190Y0235950D01*
X0370400Y0235610D01*
X0370570Y0235260D01*
X0370710Y0234890D01*
X0370810Y0234510D01*
X0370870Y0234110D01*
X0370890Y0233720D01*
X0370870Y0233330D01*
X0370810Y0232930D01*
X0370710Y0232550D01*
X0370570Y0232180D01*
X0370400Y0231830D01*
X0370190Y0231490D01*
X0369950Y0231180D01*
X0369680Y0230890D01*
X0369380Y0230640D01*
X0369050Y0230410D01*
X0368710Y0230220D01*
X0368340Y0230060D01*
X0367970Y0229940D01*
X0367580Y0229860D01*
X0367190Y0229830D01*
X0366790Y0229830D01*
X0366400Y0229860D01*
X0366010Y0229940D01*
X0365640Y0230060D01*
X0365270Y0230220D01*
X0364930Y0230410D01*
X0364600Y0230640D01*
X0364300Y0230890D01*
X0364030Y0231180D01*
X0363790Y0231490D01*
X0363580Y0231830D01*
X0363410Y0232180D01*
X0363270Y0232550D01*
X0363170Y0232930D01*
X0363110Y0233330D01*
X0363090Y0233720D01*
X0351180Y0233720D02*
X0359180Y0233720D01*
X0355180Y0229720D02*
X0355180Y0237720D01*
X0351280Y0233720D02*
X0351300Y0234110D01*
X0351360Y0234510D01*
X0351460Y0234890D01*
X0351600Y0235260D01*
X0351770Y0235610D01*
X0351980Y0235950D01*
X0352220Y0236260D01*
X0352490Y0236550D01*
X0352790Y0236800D01*
X0353120Y0237030D01*
X0353460Y0237220D01*
X0353830Y0237380D01*
X0354200Y0237500D01*
X0354590Y0237580D01*
X0354980Y0237610D01*
X0355380Y0237610D01*
X0355770Y0237580D01*
X0356160Y0237500D01*
X0356530Y0237380D01*
X0356900Y0237220D01*
X0357240Y0237030D01*
X0357570Y0236800D01*
X0357870Y0236550D01*
X0358140Y0236260D01*
X0358380Y0235950D01*
X0358590Y0235610D01*
X0358760Y0235260D01*
X0358900Y0234890D01*
X0359000Y0234510D01*
X0359060Y0234110D01*
X0359080Y0233720D01*
X0359060Y0233330D01*
X0359000Y0232930D01*
X0358900Y0232550D01*
X0358760Y0232180D01*
X0358590Y0231830D01*
X0358380Y0231490D01*
X0358140Y0231180D01*
X0357870Y0230890D01*
X0357570Y0230640D01*
X0357240Y0230410D01*
X0356900Y0230220D01*
X0356530Y0230060D01*
X0356160Y0229940D01*
X0355770Y0229860D01*
X0355380Y0229830D01*
X0354980Y0229830D01*
X0354590Y0229860D01*
X0354200Y0229940D01*
X0353830Y0230060D01*
X0353460Y0230220D01*
X0353120Y0230410D01*
X0352790Y0230640D01*
X0352490Y0230890D01*
X0352220Y0231180D01*
X0351980Y0231490D01*
X0351770Y0231830D01*
X0351600Y0232180D01*
X0351460Y0232550D01*
X0351360Y0232930D01*
X0351300Y0233330D01*
X0351280Y0233720D01*
X0056910Y0240180D02*
X0064910Y0240180D01*
X0060910Y0236180D02*
X0060910Y0244180D01*
X0057010Y0240180D02*
X0057030Y0240570D01*
X0057090Y0240970D01*
X0057190Y0241350D01*
X0057330Y0241720D01*
X0057500Y0242070D01*
X0057710Y0242410D01*
X0057950Y0242720D01*
X0058220Y0243010D01*
X0058520Y0243260D01*
X0058850Y0243490D01*
X0059190Y0243680D01*
X0059560Y0243840D01*
X0059930Y0243960D01*
X0060320Y0244040D01*
X0060710Y0244070D01*
X0061110Y0244070D01*
X0061500Y0244040D01*
X0061890Y0243960D01*
X0062260Y0243840D01*
X0062630Y0243680D01*
X0062970Y0243490D01*
X0063300Y0243260D01*
X0063600Y0243010D01*
X0063870Y0242720D01*
X0064110Y0242410D01*
X0064320Y0242070D01*
X0064490Y0241720D01*
X0064630Y0241350D01*
X0064730Y0240970D01*
X0064790Y0240570D01*
X0064810Y0240180D01*
X0064790Y0239790D01*
X0064730Y0239390D01*
X0064630Y0239010D01*
X0064490Y0238640D01*
X0064320Y0238290D01*
X0064110Y0237950D01*
X0063870Y0237640D01*
X0063600Y0237350D01*
X0063300Y0237100D01*
X0062970Y0236870D01*
X0062630Y0236680D01*
X0062260Y0236520D01*
X0061890Y0236400D01*
X0061500Y0236320D01*
X0061110Y0236290D01*
X0060710Y0236290D01*
X0060320Y0236320D01*
X0059930Y0236400D01*
X0059560Y0236520D01*
X0059190Y0236680D01*
X0058850Y0236870D01*
X0058520Y0237100D01*
X0058220Y0237350D01*
X0057950Y0237640D01*
X0057710Y0237950D01*
X0057500Y0238290D01*
X0057330Y0238640D01*
X0057190Y0239010D01*
X0057090Y0239390D01*
X0057030Y0239790D01*
X0057010Y0240180D01*
X0056910Y0251990D02*
X0064910Y0251990D01*
X0060910Y0247990D02*
X0060910Y0255990D01*
X0057010Y0251990D02*
X0057030Y0252380D01*
X0057090Y0252780D01*
X0057190Y0253160D01*
X0057330Y0253530D01*
X0057500Y0253880D01*
X0057710Y0254220D01*
X0057950Y0254530D01*
X0058220Y0254820D01*
X0058520Y0255070D01*
X0058850Y0255300D01*
X0059190Y0255490D01*
X0059560Y0255650D01*
X0059930Y0255770D01*
X0060320Y0255850D01*
X0060710Y0255880D01*
X0061110Y0255880D01*
X0061500Y0255850D01*
X0061890Y0255770D01*
X0062260Y0255650D01*
X0062630Y0255490D01*
X0062970Y0255300D01*
X0063300Y0255070D01*
X0063600Y0254820D01*
X0063870Y0254530D01*
X0064110Y0254220D01*
X0064320Y0253880D01*
X0064490Y0253530D01*
X0064630Y0253160D01*
X0064730Y0252780D01*
X0064790Y0252380D01*
X0064810Y0251990D01*
X0064790Y0251600D01*
X0064730Y0251200D01*
X0064630Y0250820D01*
X0064490Y0250450D01*
X0064320Y0250100D01*
X0064110Y0249760D01*
X0063870Y0249450D01*
X0063600Y0249160D01*
X0063300Y0248910D01*
X0062970Y0248680D01*
X0062630Y0248490D01*
X0062260Y0248330D01*
X0061890Y0248210D01*
X0061500Y0248130D01*
X0061110Y0248100D01*
X0060710Y0248100D01*
X0060320Y0248130D01*
X0059930Y0248210D01*
X0059560Y0248330D01*
X0059190Y0248490D01*
X0058850Y0248680D01*
X0058520Y0248910D01*
X0058220Y0249160D01*
X0057950Y0249450D01*
X0057710Y0249760D01*
X0057500Y0250100D01*
X0057330Y0250450D01*
X0057190Y0250820D01*
X0057090Y0251200D01*
X0057030Y0251600D01*
X0057010Y0251990D01*
X0045100Y0251990D02*
X0053100Y0251990D01*
X0049100Y0247990D02*
X0049100Y0255990D01*
X0045200Y0251990D02*
X0045220Y0252380D01*
X0045280Y0252780D01*
X0045380Y0253160D01*
X0045520Y0253530D01*
X0045690Y0253880D01*
X0045900Y0254220D01*
X0046140Y0254530D01*
X0046410Y0254820D01*
X0046710Y0255070D01*
X0047040Y0255300D01*
X0047380Y0255490D01*
X0047750Y0255650D01*
X0048120Y0255770D01*
X0048510Y0255850D01*
X0048900Y0255880D01*
X0049300Y0255880D01*
X0049690Y0255850D01*
X0050080Y0255770D01*
X0050450Y0255650D01*
X0050820Y0255490D01*
X0051160Y0255300D01*
X0051490Y0255070D01*
X0051790Y0254820D01*
X0052060Y0254530D01*
X0052300Y0254220D01*
X0052510Y0253880D01*
X0052680Y0253530D01*
X0052820Y0253160D01*
X0052920Y0252780D01*
X0052980Y0252380D01*
X0053000Y0251990D01*
X0052980Y0251600D01*
X0052920Y0251200D01*
X0052820Y0250820D01*
X0052680Y0250450D01*
X0052510Y0250100D01*
X0052300Y0249760D01*
X0052060Y0249450D01*
X0051790Y0249160D01*
X0051490Y0248910D01*
X0051160Y0248680D01*
X0050820Y0248490D01*
X0050450Y0248330D01*
X0050080Y0248210D01*
X0049690Y0248130D01*
X0049300Y0248100D01*
X0048900Y0248100D01*
X0048510Y0248130D01*
X0048120Y0248210D01*
X0047750Y0248330D01*
X0047380Y0248490D01*
X0047040Y0248680D01*
X0046710Y0248910D01*
X0046410Y0249160D01*
X0046140Y0249450D01*
X0045900Y0249760D01*
X0045690Y0250100D01*
X0045520Y0250450D01*
X0045380Y0250820D01*
X0045280Y0251200D01*
X0045220Y0251600D01*
X0045200Y0251990D01*
X0045100Y0240180D02*
X0053100Y0240180D01*
X0049100Y0236180D02*
X0049100Y0244180D01*
X0045200Y0240180D02*
X0045220Y0240570D01*
X0045280Y0240970D01*
X0045380Y0241350D01*
X0045520Y0241720D01*
X0045690Y0242070D01*
X0045900Y0242410D01*
X0046140Y0242720D01*
X0046410Y0243010D01*
X0046710Y0243260D01*
X0047040Y0243490D01*
X0047380Y0243680D01*
X0047750Y0243840D01*
X0048120Y0243960D01*
X0048510Y0244040D01*
X0048900Y0244070D01*
X0049300Y0244070D01*
X0049690Y0244040D01*
X0050080Y0243960D01*
X0050450Y0243840D01*
X0050820Y0243680D01*
X0051160Y0243490D01*
X0051490Y0243260D01*
X0051790Y0243010D01*
X0052060Y0242720D01*
X0052300Y0242410D01*
X0052510Y0242070D01*
X0052680Y0241720D01*
X0052820Y0241350D01*
X0052920Y0240970D01*
X0052980Y0240570D01*
X0053000Y0240180D01*
X0052980Y0239790D01*
X0052920Y0239390D01*
X0052820Y0239010D01*
X0052680Y0238640D01*
X0052510Y0238290D01*
X0052300Y0237950D01*
X0052060Y0237640D01*
X0051790Y0237350D01*
X0051490Y0237100D01*
X0051160Y0236870D01*
X0050820Y0236680D01*
X0050450Y0236520D01*
X0050080Y0236400D01*
X0049690Y0236320D01*
X0049300Y0236290D01*
X0048900Y0236290D01*
X0048510Y0236320D01*
X0048120Y0236400D01*
X0047750Y0236520D01*
X0047380Y0236680D01*
X0047040Y0236870D01*
X0046710Y0237100D01*
X0046410Y0237350D01*
X0046140Y0237640D01*
X0045900Y0237950D01*
X0045690Y0238290D01*
X0045520Y0238640D01*
X0045380Y0239010D01*
X0045280Y0239390D01*
X0045220Y0239790D01*
X0045200Y0240180D01*
X0061000Y0511210D02*
X0069000Y0511210D01*
X0065000Y0507210D02*
X0065000Y0515210D01*
X0061100Y0511210D02*
X0061120Y0511600D01*
X0061180Y0512000D01*
X0061280Y0512380D01*
X0061420Y0512750D01*
X0061590Y0513100D01*
X0061800Y0513440D01*
X0062040Y0513750D01*
X0062310Y0514040D01*
X0062610Y0514290D01*
X0062940Y0514520D01*
X0063280Y0514710D01*
X0063650Y0514870D01*
X0064020Y0514990D01*
X0064410Y0515070D01*
X0064800Y0515100D01*
X0065200Y0515100D01*
X0065590Y0515070D01*
X0065980Y0514990D01*
X0066350Y0514870D01*
X0066720Y0514710D01*
X0067060Y0514520D01*
X0067390Y0514290D01*
X0067690Y0514040D01*
X0067960Y0513750D01*
X0068200Y0513440D01*
X0068410Y0513100D01*
X0068580Y0512750D01*
X0068720Y0512380D01*
X0068820Y0512000D01*
X0068880Y0511600D01*
X0068900Y0511210D01*
X0068880Y0510820D01*
X0068820Y0510420D01*
X0068720Y0510040D01*
X0068580Y0509670D01*
X0068410Y0509320D01*
X0068200Y0508980D01*
X0067960Y0508670D01*
X0067690Y0508380D01*
X0067390Y0508130D01*
X0067060Y0507900D01*
X0066720Y0507710D01*
X0066350Y0507550D01*
X0065980Y0507430D01*
X0065590Y0507350D01*
X0065200Y0507320D01*
X0064800Y0507320D01*
X0064410Y0507350D01*
X0064020Y0507430D01*
X0063650Y0507550D01*
X0063280Y0507710D01*
X0062940Y0507900D01*
X0062610Y0508130D01*
X0062310Y0508380D01*
X0062040Y0508670D01*
X0061800Y0508980D01*
X0061590Y0509320D01*
X0061420Y0509670D01*
X0061280Y0510040D01*
X0061180Y0510420D01*
X0061120Y0510820D01*
X0061100Y0511210D01*
X0061000Y0551210D02*
X0069000Y0551210D01*
X0065000Y0547210D02*
X0065000Y0555210D01*
X0061100Y0551210D02*
X0061120Y0551600D01*
X0061180Y0552000D01*
X0061280Y0552380D01*
X0061420Y0552750D01*
X0061590Y0553100D01*
X0061800Y0553440D01*
X0062040Y0553750D01*
X0062310Y0554040D01*
X0062610Y0554290D01*
X0062940Y0554520D01*
X0063280Y0554710D01*
X0063650Y0554870D01*
X0064020Y0554990D01*
X0064410Y0555070D01*
X0064800Y0555100D01*
X0065200Y0555100D01*
X0065590Y0555070D01*
X0065980Y0554990D01*
X0066350Y0554870D01*
X0066720Y0554710D01*
X0067060Y0554520D01*
X0067390Y0554290D01*
X0067690Y0554040D01*
X0067960Y0553750D01*
X0068200Y0553440D01*
X0068410Y0553100D01*
X0068580Y0552750D01*
X0068720Y0552380D01*
X0068820Y0552000D01*
X0068880Y0551600D01*
X0068900Y0551210D01*
X0068880Y0550820D01*
X0068820Y0550420D01*
X0068720Y0550040D01*
X0068580Y0549670D01*
X0068410Y0549320D01*
X0068200Y0548980D01*
X0067960Y0548670D01*
X0067690Y0548380D01*
X0067390Y0548130D01*
X0067060Y0547900D01*
X0066720Y0547710D01*
X0066350Y0547550D01*
X0065980Y0547430D01*
X0065590Y0547350D01*
X0065200Y0547320D01*
X0064800Y0547320D01*
X0064410Y0547350D01*
X0064020Y0547430D01*
X0063650Y0547550D01*
X0063280Y0547710D01*
X0062940Y0547900D01*
X0062610Y0548130D01*
X0062310Y0548380D01*
X0062040Y0548670D01*
X0061800Y0548980D01*
X0061590Y0549320D01*
X0061420Y0549670D01*
X0061280Y0550040D01*
X0061180Y0550420D01*
X0061120Y0550820D01*
X0061100Y0551210D01*
X0245960Y0369240D02*
X0253960Y0369240D01*
X0249960Y0365240D02*
X0249960Y0373240D01*
X0246060Y0369240D02*
X0246080Y0369630D01*
X0246140Y0370030D01*
X0246240Y0370410D01*
X0246380Y0370780D01*
X0246550Y0371130D01*
X0246760Y0371470D01*
X0247000Y0371780D01*
X0247270Y0372070D01*
X0247570Y0372320D01*
X0247900Y0372550D01*
X0248240Y0372740D01*
X0248610Y0372900D01*
X0248980Y0373020D01*
X0249370Y0373100D01*
X0249760Y0373130D01*
X0250160Y0373130D01*
X0250550Y0373100D01*
X0250940Y0373020D01*
X0251310Y0372900D01*
X0251680Y0372740D01*
X0252020Y0372550D01*
X0252350Y0372320D01*
X0252650Y0372070D01*
X0252920Y0371780D01*
X0253160Y0371470D01*
X0253370Y0371130D01*
X0253540Y0370780D01*
X0253680Y0370410D01*
X0253780Y0370030D01*
X0253840Y0369630D01*
X0253860Y0369240D01*
X0253840Y0368850D01*
X0253780Y0368450D01*
X0253680Y0368070D01*
X0253540Y0367700D01*
X0253370Y0367350D01*
X0253160Y0367010D01*
X0252920Y0366700D01*
X0252650Y0366410D01*
X0252350Y0366160D01*
X0252020Y0365930D01*
X0251680Y0365740D01*
X0251310Y0365580D01*
X0250940Y0365460D01*
X0250550Y0365380D01*
X0250160Y0365350D01*
X0249760Y0365350D01*
X0249370Y0365380D01*
X0248980Y0365460D01*
X0248610Y0365580D01*
X0248240Y0365740D01*
X0247900Y0365930D01*
X0247570Y0366160D01*
X0247270Y0366410D01*
X0247000Y0366700D01*
X0246760Y0367010D01*
X0246550Y0367350D01*
X0246380Y0367700D01*
X0246240Y0368070D01*
X0246140Y0368450D01*
X0246080Y0368850D01*
X0246060Y0369240D01*
X0234150Y0369240D02*
X0242150Y0369240D01*
X0238150Y0365240D02*
X0238150Y0373240D01*
X0234250Y0369240D02*
X0234270Y0369630D01*
X0234330Y0370030D01*
X0234430Y0370410D01*
X0234570Y0370780D01*
X0234740Y0371130D01*
X0234950Y0371470D01*
X0235190Y0371780D01*
X0235460Y0372070D01*
X0235760Y0372320D01*
X0236090Y0372550D01*
X0236430Y0372740D01*
X0236800Y0372900D01*
X0237170Y0373020D01*
X0237560Y0373100D01*
X0237950Y0373130D01*
X0238350Y0373130D01*
X0238740Y0373100D01*
X0239130Y0373020D01*
X0239500Y0372900D01*
X0239870Y0372740D01*
X0240210Y0372550D01*
X0240540Y0372320D01*
X0240840Y0372070D01*
X0241110Y0371780D01*
X0241350Y0371470D01*
X0241560Y0371130D01*
X0241730Y0370780D01*
X0241870Y0370410D01*
X0241970Y0370030D01*
X0242030Y0369630D01*
X0242050Y0369240D01*
X0242030Y0368850D01*
X0241970Y0368450D01*
X0241870Y0368070D01*
X0241730Y0367700D01*
X0241560Y0367350D01*
X0241350Y0367010D01*
X0241110Y0366700D01*
X0240840Y0366410D01*
X0240540Y0366160D01*
X0240210Y0365930D01*
X0239870Y0365740D01*
X0239500Y0365580D01*
X0239130Y0365460D01*
X0238740Y0365380D01*
X0238350Y0365350D01*
X0237950Y0365350D01*
X0237560Y0365380D01*
X0237170Y0365460D01*
X0236800Y0365580D01*
X0236430Y0365740D01*
X0236090Y0365930D01*
X0235760Y0366160D01*
X0235460Y0366410D01*
X0235190Y0366700D01*
X0234950Y0367010D01*
X0234740Y0367350D01*
X0234570Y0367700D01*
X0234430Y0368070D01*
X0234330Y0368450D01*
X0234270Y0368850D01*
X0234250Y0369240D01*
X0049820Y0420300D02*
X0057820Y0420300D01*
X0053820Y0416300D02*
X0053820Y0424300D01*
X0049920Y0420300D02*
X0049940Y0420690D01*
X0050000Y0421090D01*
X0050100Y0421470D01*
X0050240Y0421840D01*
X0050410Y0422190D01*
X0050620Y0422530D01*
X0050860Y0422840D01*
X0051130Y0423130D01*
X0051430Y0423380D01*
X0051760Y0423610D01*
X0052100Y0423800D01*
X0052470Y0423960D01*
X0052840Y0424080D01*
X0053230Y0424160D01*
X0053620Y0424190D01*
X0054020Y0424190D01*
X0054410Y0424160D01*
X0054800Y0424080D01*
X0055170Y0423960D01*
X0055540Y0423800D01*
X0055880Y0423610D01*
X0056210Y0423380D01*
X0056510Y0423130D01*
X0056780Y0422840D01*
X0057020Y0422530D01*
X0057230Y0422190D01*
X0057400Y0421840D01*
X0057540Y0421470D01*
X0057640Y0421090D01*
X0057700Y0420690D01*
X0057720Y0420300D01*
X0057700Y0419910D01*
X0057640Y0419510D01*
X0057540Y0419130D01*
X0057400Y0418760D01*
X0057230Y0418410D01*
X0057020Y0418070D01*
X0056780Y0417760D01*
X0056510Y0417470D01*
X0056210Y0417220D01*
X0055880Y0416990D01*
X0055540Y0416800D01*
X0055170Y0416640D01*
X0054800Y0416520D01*
X0054410Y0416440D01*
X0054020Y0416410D01*
X0053620Y0416410D01*
X0053230Y0416440D01*
X0052840Y0416520D01*
X0052470Y0416640D01*
X0052100Y0416800D01*
X0051760Y0416990D01*
X0051430Y0417220D01*
X0051130Y0417470D01*
X0050860Y0417760D01*
X0050620Y0418070D01*
X0050410Y0418410D01*
X0050240Y0418760D01*
X0050100Y0419130D01*
X0050000Y0419510D01*
X0049940Y0419910D01*
X0049920Y0420300D01*
X0038010Y0420300D02*
X0046010Y0420300D01*
X0042010Y0416300D02*
X0042010Y0424300D01*
X0038110Y0420300D02*
X0038130Y0420690D01*
X0038190Y0421090D01*
X0038290Y0421470D01*
X0038430Y0421840D01*
X0038600Y0422190D01*
X0038810Y0422530D01*
X0039050Y0422840D01*
X0039320Y0423130D01*
X0039620Y0423380D01*
X0039950Y0423610D01*
X0040290Y0423800D01*
X0040660Y0423960D01*
X0041030Y0424080D01*
X0041420Y0424160D01*
X0041810Y0424190D01*
X0042210Y0424190D01*
X0042600Y0424160D01*
X0042990Y0424080D01*
X0043360Y0423960D01*
X0043730Y0423800D01*
X0044070Y0423610D01*
X0044400Y0423380D01*
X0044700Y0423130D01*
X0044970Y0422840D01*
X0045210Y0422530D01*
X0045420Y0422190D01*
X0045590Y0421840D01*
X0045730Y0421470D01*
X0045830Y0421090D01*
X0045890Y0420690D01*
X0045910Y0420300D01*
X0045890Y0419910D01*
X0045830Y0419510D01*
X0045730Y0419130D01*
X0045590Y0418760D01*
X0045420Y0418410D01*
X0045210Y0418070D01*
X0044970Y0417760D01*
X0044700Y0417470D01*
X0044400Y0417220D01*
X0044070Y0416990D01*
X0043730Y0416800D01*
X0043360Y0416640D01*
X0042990Y0416520D01*
X0042600Y0416440D01*
X0042210Y0416410D01*
X0041810Y0416410D01*
X0041420Y0416440D01*
X0041030Y0416520D01*
X0040660Y0416640D01*
X0040290Y0416800D01*
X0039950Y0416990D01*
X0039620Y0417220D01*
X0039320Y0417470D01*
X0039050Y0417760D01*
X0038810Y0418070D01*
X0038600Y0418410D01*
X0038430Y0418760D01*
X0038290Y0419130D01*
X0038190Y0419510D01*
X0038130Y0419910D01*
X0038110Y0420300D01*
X0038010Y0432120D02*
X0046010Y0432120D01*
X0042010Y0428120D02*
X0042010Y0436120D01*
X0038110Y0432120D02*
X0038130Y0432510D01*
X0038190Y0432910D01*
X0038290Y0433290D01*
X0038430Y0433660D01*
X0038600Y0434010D01*
X0038810Y0434350D01*
X0039050Y0434660D01*
X0039320Y0434950D01*
X0039620Y0435200D01*
X0039950Y0435430D01*
X0040290Y0435620D01*
X0040660Y0435780D01*
X0041030Y0435900D01*
X0041420Y0435980D01*
X0041810Y0436010D01*
X0042210Y0436010D01*
X0042600Y0435980D01*
X0042990Y0435900D01*
X0043360Y0435780D01*
X0043730Y0435620D01*
X0044070Y0435430D01*
X0044400Y0435200D01*
X0044700Y0434950D01*
X0044970Y0434660D01*
X0045210Y0434350D01*
X0045420Y0434010D01*
X0045590Y0433660D01*
X0045730Y0433290D01*
X0045830Y0432910D01*
X0045890Y0432510D01*
X0045910Y0432120D01*
X0045890Y0431730D01*
X0045830Y0431330D01*
X0045730Y0430950D01*
X0045590Y0430580D01*
X0045420Y0430230D01*
X0045210Y0429890D01*
X0044970Y0429580D01*
X0044700Y0429290D01*
X0044400Y0429040D01*
X0044070Y0428810D01*
X0043730Y0428620D01*
X0043360Y0428460D01*
X0042990Y0428340D01*
X0042600Y0428260D01*
X0042210Y0428230D01*
X0041810Y0428230D01*
X0041420Y0428260D01*
X0041030Y0428340D01*
X0040660Y0428460D01*
X0040290Y0428620D01*
X0039950Y0428810D01*
X0039620Y0429040D01*
X0039320Y0429290D01*
X0039050Y0429580D01*
X0038810Y0429890D01*
X0038600Y0430230D01*
X0038430Y0430580D01*
X0038290Y0430950D01*
X0038190Y0431330D01*
X0038130Y0431730D01*
X0038110Y0432120D01*
X0049820Y0432120D02*
X0057820Y0432120D01*
X0053820Y0428120D02*
X0053820Y0436120D01*
X0049920Y0432120D02*
X0049940Y0432510D01*
X0050000Y0432910D01*
X0050100Y0433290D01*
X0050240Y0433660D01*
X0050410Y0434010D01*
X0050620Y0434350D01*
X0050860Y0434660D01*
X0051130Y0434950D01*
X0051430Y0435200D01*
X0051760Y0435430D01*
X0052100Y0435620D01*
X0052470Y0435780D01*
X0052840Y0435900D01*
X0053230Y0435980D01*
X0053620Y0436010D01*
X0054020Y0436010D01*
X0054410Y0435980D01*
X0054800Y0435900D01*
X0055170Y0435780D01*
X0055540Y0435620D01*
X0055880Y0435430D01*
X0056210Y0435200D01*
X0056510Y0434950D01*
X0056780Y0434660D01*
X0057020Y0434350D01*
X0057230Y0434010D01*
X0057400Y0433660D01*
X0057540Y0433290D01*
X0057640Y0432910D01*
X0057700Y0432510D01*
X0057720Y0432120D01*
X0057700Y0431730D01*
X0057640Y0431330D01*
X0057540Y0430950D01*
X0057400Y0430580D01*
X0057230Y0430230D01*
X0057020Y0429890D01*
X0056780Y0429580D01*
X0056510Y0429290D01*
X0056210Y0429040D01*
X0055880Y0428810D01*
X0055540Y0428620D01*
X0055170Y0428460D01*
X0054800Y0428340D01*
X0054410Y0428260D01*
X0054020Y0428230D01*
X0053620Y0428230D01*
X0053230Y0428260D01*
X0052840Y0428340D01*
X0052470Y0428460D01*
X0052100Y0428620D01*
X0051760Y0428810D01*
X0051430Y0429040D01*
X0051130Y0429290D01*
X0050860Y0429580D01*
X0050620Y0429890D01*
X0050410Y0430230D01*
X0050240Y0430580D01*
X0050100Y0430950D01*
X0050000Y0431330D01*
X0049940Y0431730D01*
X0049920Y0432120D01*
X0049820Y0465300D02*
X0057820Y0465300D01*
X0053820Y0461300D02*
X0053820Y0469300D01*
X0049920Y0465300D02*
X0049940Y0465690D01*
X0050000Y0466090D01*
X0050100Y0466470D01*
X0050240Y0466840D01*
X0050410Y0467190D01*
X0050620Y0467530D01*
X0050860Y0467840D01*
X0051130Y0468130D01*
X0051430Y0468380D01*
X0051760Y0468610D01*
X0052100Y0468800D01*
X0052470Y0468960D01*
X0052840Y0469080D01*
X0053230Y0469160D01*
X0053620Y0469190D01*
X0054020Y0469190D01*
X0054410Y0469160D01*
X0054800Y0469080D01*
X0055170Y0468960D01*
X0055540Y0468800D01*
X0055880Y0468610D01*
X0056210Y0468380D01*
X0056510Y0468130D01*
X0056780Y0467840D01*
X0057020Y0467530D01*
X0057230Y0467190D01*
X0057400Y0466840D01*
X0057540Y0466470D01*
X0057640Y0466090D01*
X0057700Y0465690D01*
X0057720Y0465300D01*
X0057700Y0464910D01*
X0057640Y0464510D01*
X0057540Y0464130D01*
X0057400Y0463760D01*
X0057230Y0463410D01*
X0057020Y0463070D01*
X0056780Y0462760D01*
X0056510Y0462470D01*
X0056210Y0462220D01*
X0055880Y0461990D01*
X0055540Y0461800D01*
X0055170Y0461640D01*
X0054800Y0461520D01*
X0054410Y0461440D01*
X0054020Y0461410D01*
X0053620Y0461410D01*
X0053230Y0461440D01*
X0052840Y0461520D01*
X0052470Y0461640D01*
X0052100Y0461800D01*
X0051760Y0461990D01*
X0051430Y0462220D01*
X0051130Y0462470D01*
X0050860Y0462760D01*
X0050620Y0463070D01*
X0050410Y0463410D01*
X0050240Y0463760D01*
X0050100Y0464130D01*
X0050000Y0464510D01*
X0049940Y0464910D01*
X0049920Y0465300D01*
X0038010Y0465300D02*
X0046010Y0465300D01*
X0042010Y0461300D02*
X0042010Y0469300D01*
X0038110Y0465300D02*
X0038130Y0465690D01*
X0038190Y0466090D01*
X0038290Y0466470D01*
X0038430Y0466840D01*
X0038600Y0467190D01*
X0038810Y0467530D01*
X0039050Y0467840D01*
X0039320Y0468130D01*
X0039620Y0468380D01*
X0039950Y0468610D01*
X0040290Y0468800D01*
X0040660Y0468960D01*
X0041030Y0469080D01*
X0041420Y0469160D01*
X0041810Y0469190D01*
X0042210Y0469190D01*
X0042600Y0469160D01*
X0042990Y0469080D01*
X0043360Y0468960D01*
X0043730Y0468800D01*
X0044070Y0468610D01*
X0044400Y0468380D01*
X0044700Y0468130D01*
X0044970Y0467840D01*
X0045210Y0467530D01*
X0045420Y0467190D01*
X0045590Y0466840D01*
X0045730Y0466470D01*
X0045830Y0466090D01*
X0045890Y0465690D01*
X0045910Y0465300D01*
X0045890Y0464910D01*
X0045830Y0464510D01*
X0045730Y0464130D01*
X0045590Y0463760D01*
X0045420Y0463410D01*
X0045210Y0463070D01*
X0044970Y0462760D01*
X0044700Y0462470D01*
X0044400Y0462220D01*
X0044070Y0461990D01*
X0043730Y0461800D01*
X0043360Y0461640D01*
X0042990Y0461520D01*
X0042600Y0461440D01*
X0042210Y0461410D01*
X0041810Y0461410D01*
X0041420Y0461440D01*
X0041030Y0461520D01*
X0040660Y0461640D01*
X0040290Y0461800D01*
X0039950Y0461990D01*
X0039620Y0462220D01*
X0039320Y0462470D01*
X0039050Y0462760D01*
X0038810Y0463070D01*
X0038600Y0463410D01*
X0038430Y0463760D01*
X0038290Y0464130D01*
X0038190Y0464510D01*
X0038130Y0464910D01*
X0038110Y0465300D01*
X0038010Y0477120D02*
X0046010Y0477120D01*
X0042010Y0473120D02*
X0042010Y0481120D01*
X0038110Y0477120D02*
X0038130Y0477510D01*
X0038190Y0477910D01*
X0038290Y0478290D01*
X0038430Y0478660D01*
X0038600Y0479010D01*
X0038810Y0479350D01*
X0039050Y0479660D01*
X0039320Y0479950D01*
X0039620Y0480200D01*
X0039950Y0480430D01*
X0040290Y0480620D01*
X0040660Y0480780D01*
X0041030Y0480900D01*
X0041420Y0480980D01*
X0041810Y0481010D01*
X0042210Y0481010D01*
X0042600Y0480980D01*
X0042990Y0480900D01*
X0043360Y0480780D01*
X0043730Y0480620D01*
X0044070Y0480430D01*
X0044400Y0480200D01*
X0044700Y0479950D01*
X0044970Y0479660D01*
X0045210Y0479350D01*
X0045420Y0479010D01*
X0045590Y0478660D01*
X0045730Y0478290D01*
X0045830Y0477910D01*
X0045890Y0477510D01*
X0045910Y0477120D01*
X0045890Y0476730D01*
X0045830Y0476330D01*
X0045730Y0475950D01*
X0045590Y0475580D01*
X0045420Y0475230D01*
X0045210Y0474890D01*
X0044970Y0474580D01*
X0044700Y0474290D01*
X0044400Y0474040D01*
X0044070Y0473810D01*
X0043730Y0473620D01*
X0043360Y0473460D01*
X0042990Y0473340D01*
X0042600Y0473260D01*
X0042210Y0473230D01*
X0041810Y0473230D01*
X0041420Y0473260D01*
X0041030Y0473340D01*
X0040660Y0473460D01*
X0040290Y0473620D01*
X0039950Y0473810D01*
X0039620Y0474040D01*
X0039320Y0474290D01*
X0039050Y0474580D01*
X0038810Y0474890D01*
X0038600Y0475230D01*
X0038430Y0475580D01*
X0038290Y0475950D01*
X0038190Y0476330D01*
X0038130Y0476730D01*
X0038110Y0477120D01*
X0049820Y0477120D02*
X0057820Y0477120D01*
X0053820Y0473120D02*
X0053820Y0481120D01*
X0049920Y0477120D02*
X0049940Y0477510D01*
X0050000Y0477910D01*
X0050100Y0478290D01*
X0050240Y0478660D01*
X0050410Y0479010D01*
X0050620Y0479350D01*
X0050860Y0479660D01*
X0051130Y0479950D01*
X0051430Y0480200D01*
X0051760Y0480430D01*
X0052100Y0480620D01*
X0052470Y0480780D01*
X0052840Y0480900D01*
X0053230Y0480980D01*
X0053620Y0481010D01*
X0054020Y0481010D01*
X0054410Y0480980D01*
X0054800Y0480900D01*
X0055170Y0480780D01*
X0055540Y0480620D01*
X0055880Y0480430D01*
X0056210Y0480200D01*
X0056510Y0479950D01*
X0056780Y0479660D01*
X0057020Y0479350D01*
X0057230Y0479010D01*
X0057400Y0478660D01*
X0057540Y0478290D01*
X0057640Y0477910D01*
X0057700Y0477510D01*
X0057720Y0477120D01*
X0057700Y0476730D01*
X0057640Y0476330D01*
X0057540Y0475950D01*
X0057400Y0475580D01*
X0057230Y0475230D01*
X0057020Y0474890D01*
X0056780Y0474580D01*
X0056510Y0474290D01*
X0056210Y0474040D01*
X0055880Y0473810D01*
X0055540Y0473620D01*
X0055170Y0473460D01*
X0054800Y0473340D01*
X0054410Y0473260D01*
X0054020Y0473230D01*
X0053620Y0473230D01*
X0053230Y0473260D01*
X0052840Y0473340D01*
X0052470Y0473460D01*
X0052100Y0473620D01*
X0051760Y0473810D01*
X0051430Y0474040D01*
X0051130Y0474290D01*
X0050860Y0474580D01*
X0050620Y0474890D01*
X0050410Y0475230D01*
X0050240Y0475580D01*
X0050100Y0475950D01*
X0050000Y0476330D01*
X0049940Y0476730D01*
X0049920Y0477120D01*
X0049820Y0510300D02*
X0057820Y0510300D01*
X0053820Y0506300D02*
X0053820Y0514300D01*
X0049920Y0510300D02*
X0049940Y0510690D01*
X0050000Y0511090D01*
X0050100Y0511470D01*
X0050240Y0511840D01*
X0050410Y0512190D01*
X0050620Y0512530D01*
X0050860Y0512840D01*
X0051130Y0513130D01*
X0051430Y0513380D01*
X0051760Y0513610D01*
X0052100Y0513800D01*
X0052470Y0513960D01*
X0052840Y0514080D01*
X0053230Y0514160D01*
X0053620Y0514190D01*
X0054020Y0514190D01*
X0054410Y0514160D01*
X0054800Y0514080D01*
X0055170Y0513960D01*
X0055540Y0513800D01*
X0055880Y0513610D01*
X0056210Y0513380D01*
X0056510Y0513130D01*
X0056780Y0512840D01*
X0057020Y0512530D01*
X0057230Y0512190D01*
X0057400Y0511840D01*
X0057540Y0511470D01*
X0057640Y0511090D01*
X0057700Y0510690D01*
X0057720Y0510300D01*
X0057700Y0509910D01*
X0057640Y0509510D01*
X0057540Y0509130D01*
X0057400Y0508760D01*
X0057230Y0508410D01*
X0057020Y0508070D01*
X0056780Y0507760D01*
X0056510Y0507470D01*
X0056210Y0507220D01*
X0055880Y0506990D01*
X0055540Y0506800D01*
X0055170Y0506640D01*
X0054800Y0506520D01*
X0054410Y0506440D01*
X0054020Y0506410D01*
X0053620Y0506410D01*
X0053230Y0506440D01*
X0052840Y0506520D01*
X0052470Y0506640D01*
X0052100Y0506800D01*
X0051760Y0506990D01*
X0051430Y0507220D01*
X0051130Y0507470D01*
X0050860Y0507760D01*
X0050620Y0508070D01*
X0050410Y0508410D01*
X0050240Y0508760D01*
X0050100Y0509130D01*
X0050000Y0509510D01*
X0049940Y0509910D01*
X0049920Y0510300D01*
X0038010Y0510300D02*
X0046010Y0510300D01*
X0042010Y0506300D02*
X0042010Y0514300D01*
X0038110Y0510300D02*
X0038130Y0510690D01*
X0038190Y0511090D01*
X0038290Y0511470D01*
X0038430Y0511840D01*
X0038600Y0512190D01*
X0038810Y0512530D01*
X0039050Y0512840D01*
X0039320Y0513130D01*
X0039620Y0513380D01*
X0039950Y0513610D01*
X0040290Y0513800D01*
X0040660Y0513960D01*
X0041030Y0514080D01*
X0041420Y0514160D01*
X0041810Y0514190D01*
X0042210Y0514190D01*
X0042600Y0514160D01*
X0042990Y0514080D01*
X0043360Y0513960D01*
X0043730Y0513800D01*
X0044070Y0513610D01*
X0044400Y0513380D01*
X0044700Y0513130D01*
X0044970Y0512840D01*
X0045210Y0512530D01*
X0045420Y0512190D01*
X0045590Y0511840D01*
X0045730Y0511470D01*
X0045830Y0511090D01*
X0045890Y0510690D01*
X0045910Y0510300D01*
X0045890Y0509910D01*
X0045830Y0509510D01*
X0045730Y0509130D01*
X0045590Y0508760D01*
X0045420Y0508410D01*
X0045210Y0508070D01*
X0044970Y0507760D01*
X0044700Y0507470D01*
X0044400Y0507220D01*
X0044070Y0506990D01*
X0043730Y0506800D01*
X0043360Y0506640D01*
X0042990Y0506520D01*
X0042600Y0506440D01*
X0042210Y0506410D01*
X0041810Y0506410D01*
X0041420Y0506440D01*
X0041030Y0506520D01*
X0040660Y0506640D01*
X0040290Y0506800D01*
X0039950Y0506990D01*
X0039620Y0507220D01*
X0039320Y0507470D01*
X0039050Y0507760D01*
X0038810Y0508070D01*
X0038600Y0508410D01*
X0038430Y0508760D01*
X0038290Y0509130D01*
X0038190Y0509510D01*
X0038130Y0509910D01*
X0038110Y0510300D01*
X0038010Y0522120D02*
X0046010Y0522120D01*
X0042010Y0518120D02*
X0042010Y0526120D01*
X0038110Y0522120D02*
X0038130Y0522510D01*
X0038190Y0522910D01*
X0038290Y0523290D01*
X0038430Y0523660D01*
X0038600Y0524010D01*
X0038810Y0524350D01*
X0039050Y0524660D01*
X0039320Y0524950D01*
X0039620Y0525200D01*
X0039950Y0525430D01*
X0040290Y0525620D01*
X0040660Y0525780D01*
X0041030Y0525900D01*
X0041420Y0525980D01*
X0041810Y0526010D01*
X0042210Y0526010D01*
X0042600Y0525980D01*
X0042990Y0525900D01*
X0043360Y0525780D01*
X0043730Y0525620D01*
X0044070Y0525430D01*
X0044400Y0525200D01*
X0044700Y0524950D01*
X0044970Y0524660D01*
X0045210Y0524350D01*
X0045420Y0524010D01*
X0045590Y0523660D01*
X0045730Y0523290D01*
X0045830Y0522910D01*
X0045890Y0522510D01*
X0045910Y0522120D01*
X0045890Y0521730D01*
X0045830Y0521330D01*
X0045730Y0520950D01*
X0045590Y0520580D01*
X0045420Y0520230D01*
X0045210Y0519890D01*
X0044970Y0519580D01*
X0044700Y0519290D01*
X0044400Y0519040D01*
X0044070Y0518810D01*
X0043730Y0518620D01*
X0043360Y0518460D01*
X0042990Y0518340D01*
X0042600Y0518260D01*
X0042210Y0518230D01*
X0041810Y0518230D01*
X0041420Y0518260D01*
X0041030Y0518340D01*
X0040660Y0518460D01*
X0040290Y0518620D01*
X0039950Y0518810D01*
X0039620Y0519040D01*
X0039320Y0519290D01*
X0039050Y0519580D01*
X0038810Y0519890D01*
X0038600Y0520230D01*
X0038430Y0520580D01*
X0038290Y0520950D01*
X0038190Y0521330D01*
X0038130Y0521730D01*
X0038110Y0522120D01*
X0049820Y0522120D02*
X0057820Y0522120D01*
X0053820Y0518120D02*
X0053820Y0526120D01*
X0049920Y0522120D02*
X0049940Y0522510D01*
X0050000Y0522910D01*
X0050100Y0523290D01*
X0050240Y0523660D01*
X0050410Y0524010D01*
X0050620Y0524350D01*
X0050860Y0524660D01*
X0051130Y0524950D01*
X0051430Y0525200D01*
X0051760Y0525430D01*
X0052100Y0525620D01*
X0052470Y0525780D01*
X0052840Y0525900D01*
X0053230Y0525980D01*
X0053620Y0526010D01*
X0054020Y0526010D01*
X0054410Y0525980D01*
X0054800Y0525900D01*
X0055170Y0525780D01*
X0055540Y0525620D01*
X0055880Y0525430D01*
X0056210Y0525200D01*
X0056510Y0524950D01*
X0056780Y0524660D01*
X0057020Y0524350D01*
X0057230Y0524010D01*
X0057400Y0523660D01*
X0057540Y0523290D01*
X0057640Y0522910D01*
X0057700Y0522510D01*
X0057720Y0522120D01*
X0057700Y0521730D01*
X0057640Y0521330D01*
X0057540Y0520950D01*
X0057400Y0520580D01*
X0057230Y0520230D01*
X0057020Y0519890D01*
X0056780Y0519580D01*
X0056510Y0519290D01*
X0056210Y0519040D01*
X0055880Y0518810D01*
X0055540Y0518620D01*
X0055170Y0518460D01*
X0054800Y0518340D01*
X0054410Y0518260D01*
X0054020Y0518230D01*
X0053620Y0518230D01*
X0053230Y0518260D01*
X0052840Y0518340D01*
X0052470Y0518460D01*
X0052100Y0518620D01*
X0051760Y0518810D01*
X0051430Y0519040D01*
X0051130Y0519290D01*
X0050860Y0519580D01*
X0050620Y0519890D01*
X0050410Y0520230D01*
X0050240Y0520580D01*
X0050100Y0520950D01*
X0050000Y0521330D01*
X0049940Y0521730D01*
X0049920Y0522120D01*
X0232180Y0511210D02*
X0240180Y0511210D01*
X0236180Y0507210D02*
X0236180Y0515210D01*
X0232280Y0511210D02*
X0232300Y0511600D01*
X0232360Y0512000D01*
X0232460Y0512380D01*
X0232600Y0512750D01*
X0232770Y0513100D01*
X0232980Y0513440D01*
X0233220Y0513750D01*
X0233490Y0514040D01*
X0233790Y0514290D01*
X0234120Y0514520D01*
X0234460Y0514710D01*
X0234830Y0514870D01*
X0235200Y0514990D01*
X0235590Y0515070D01*
X0235980Y0515100D01*
X0236380Y0515100D01*
X0236770Y0515070D01*
X0237160Y0514990D01*
X0237530Y0514870D01*
X0237900Y0514710D01*
X0238240Y0514520D01*
X0238570Y0514290D01*
X0238870Y0514040D01*
X0239140Y0513750D01*
X0239380Y0513440D01*
X0239590Y0513100D01*
X0239760Y0512750D01*
X0239900Y0512380D01*
X0240000Y0512000D01*
X0240060Y0511600D01*
X0240080Y0511210D01*
X0240060Y0510820D01*
X0240000Y0510420D01*
X0239900Y0510040D01*
X0239760Y0509670D01*
X0239590Y0509320D01*
X0239380Y0508980D01*
X0239140Y0508670D01*
X0238870Y0508380D01*
X0238570Y0508130D01*
X0238240Y0507900D01*
X0237900Y0507710D01*
X0237530Y0507550D01*
X0237160Y0507430D01*
X0236770Y0507350D01*
X0236380Y0507320D01*
X0235980Y0507320D01*
X0235590Y0507350D01*
X0235200Y0507430D01*
X0234830Y0507550D01*
X0234460Y0507710D01*
X0234120Y0507900D01*
X0233790Y0508130D01*
X0233490Y0508380D01*
X0233220Y0508670D01*
X0232980Y0508980D01*
X0232770Y0509320D01*
X0232600Y0509670D01*
X0232460Y0510040D01*
X0232360Y0510420D01*
X0232300Y0510820D01*
X0232280Y0511210D01*
X0243990Y0511210D02*
X0251990Y0511210D01*
X0247990Y0507210D02*
X0247990Y0515210D01*
X0244090Y0511210D02*
X0244110Y0511600D01*
X0244170Y0512000D01*
X0244270Y0512380D01*
X0244410Y0512750D01*
X0244580Y0513100D01*
X0244790Y0513440D01*
X0245030Y0513750D01*
X0245300Y0514040D01*
X0245600Y0514290D01*
X0245930Y0514520D01*
X0246270Y0514710D01*
X0246640Y0514870D01*
X0247010Y0514990D01*
X0247400Y0515070D01*
X0247790Y0515100D01*
X0248190Y0515100D01*
X0248580Y0515070D01*
X0248970Y0514990D01*
X0249340Y0514870D01*
X0249710Y0514710D01*
X0250050Y0514520D01*
X0250380Y0514290D01*
X0250680Y0514040D01*
X0250950Y0513750D01*
X0251190Y0513440D01*
X0251400Y0513100D01*
X0251570Y0512750D01*
X0251710Y0512380D01*
X0251810Y0512000D01*
X0251870Y0511600D01*
X0251890Y0511210D01*
X0251870Y0510820D01*
X0251810Y0510420D01*
X0251710Y0510040D01*
X0251570Y0509670D01*
X0251400Y0509320D01*
X0251190Y0508980D01*
X0250950Y0508670D01*
X0250680Y0508380D01*
X0250380Y0508130D01*
X0250050Y0507900D01*
X0249710Y0507710D01*
X0249340Y0507550D01*
X0248970Y0507430D01*
X0248580Y0507350D01*
X0248190Y0507320D01*
X0247790Y0507320D01*
X0247400Y0507350D01*
X0247010Y0507430D01*
X0246640Y0507550D01*
X0246270Y0507710D01*
X0245930Y0507900D01*
X0245600Y0508130D01*
X0245300Y0508380D01*
X0245030Y0508670D01*
X0244790Y0508980D01*
X0244580Y0509320D01*
X0244410Y0509670D01*
X0244270Y0510040D01*
X0244170Y0510420D01*
X0244110Y0510820D01*
X0244090Y0511210D01*
X0056000Y0637770D02*
X0064000Y0637770D01*
X0060000Y0633770D02*
X0060000Y0641770D01*
X0056100Y0637770D02*
X0056120Y0638160D01*
X0056180Y0638560D01*
X0056280Y0638940D01*
X0056420Y0639310D01*
X0056590Y0639660D01*
X0056800Y0640000D01*
X0057040Y0640310D01*
X0057310Y0640600D01*
X0057610Y0640850D01*
X0057940Y0641080D01*
X0058280Y0641270D01*
X0058650Y0641430D01*
X0059020Y0641550D01*
X0059410Y0641630D01*
X0059800Y0641660D01*
X0060200Y0641660D01*
X0060590Y0641630D01*
X0060980Y0641550D01*
X0061350Y0641430D01*
X0061720Y0641270D01*
X0062060Y0641080D01*
X0062390Y0640850D01*
X0062690Y0640600D01*
X0062960Y0640310D01*
X0063200Y0640000D01*
X0063410Y0639660D01*
X0063580Y0639310D01*
X0063720Y0638940D01*
X0063820Y0638560D01*
X0063880Y0638160D01*
X0063900Y0637770D01*
X0063880Y0637380D01*
X0063820Y0636980D01*
X0063720Y0636600D01*
X0063580Y0636230D01*
X0063410Y0635880D01*
X0063200Y0635540D01*
X0062960Y0635230D01*
X0062690Y0634940D01*
X0062390Y0634690D01*
X0062060Y0634460D01*
X0061720Y0634270D01*
X0061350Y0634110D01*
X0060980Y0633990D01*
X0060590Y0633910D01*
X0060200Y0633880D01*
X0059800Y0633880D01*
X0059410Y0633910D01*
X0059020Y0633990D01*
X0058650Y0634110D01*
X0058280Y0634270D01*
X0057940Y0634460D01*
X0057610Y0634690D01*
X0057310Y0634940D01*
X0057040Y0635230D01*
X0056800Y0635540D01*
X0056590Y0635880D01*
X0056420Y0636230D01*
X0056280Y0636600D01*
X0056180Y0636980D01*
X0056120Y0637380D01*
X0056100Y0637770D01*
X0016000Y0637770D02*
X0024000Y0637770D01*
X0020000Y0633770D02*
X0020000Y0641770D01*
X0016100Y0637770D02*
X0016120Y0638160D01*
X0016180Y0638560D01*
X0016280Y0638940D01*
X0016420Y0639310D01*
X0016590Y0639660D01*
X0016800Y0640000D01*
X0017040Y0640310D01*
X0017310Y0640600D01*
X0017610Y0640850D01*
X0017940Y0641080D01*
X0018280Y0641270D01*
X0018650Y0641430D01*
X0019020Y0641550D01*
X0019410Y0641630D01*
X0019800Y0641660D01*
X0020200Y0641660D01*
X0020590Y0641630D01*
X0020980Y0641550D01*
X0021350Y0641430D01*
X0021720Y0641270D01*
X0022060Y0641080D01*
X0022390Y0640850D01*
X0022690Y0640600D01*
X0022960Y0640310D01*
X0023200Y0640000D01*
X0023410Y0639660D01*
X0023580Y0639310D01*
X0023720Y0638940D01*
X0023820Y0638560D01*
X0023880Y0638160D01*
X0023900Y0637770D01*
X0023880Y0637380D01*
X0023820Y0636980D01*
X0023720Y0636600D01*
X0023580Y0636230D01*
X0023410Y0635880D01*
X0023200Y0635540D01*
X0022960Y0635230D01*
X0022690Y0634940D01*
X0022390Y0634690D01*
X0022060Y0634460D01*
X0021720Y0634270D01*
X0021350Y0634110D01*
X0020980Y0633990D01*
X0020590Y0633910D01*
X0020200Y0633880D01*
X0019800Y0633880D01*
X0019410Y0633910D01*
X0019020Y0633990D01*
X0018650Y0634110D01*
X0018280Y0634270D01*
X0017940Y0634460D01*
X0017610Y0634690D01*
X0017310Y0634940D01*
X0017040Y0635230D01*
X0016800Y0635540D01*
X0016590Y0635880D01*
X0016420Y0636230D01*
X0016280Y0636600D01*
X0016180Y0636980D01*
X0016120Y0637380D01*
X0016100Y0637770D01*
X0054820Y0618680D02*
X0062820Y0618680D01*
X0058820Y0614680D02*
X0058820Y0622680D01*
X0054920Y0618680D02*
X0054940Y0619070D01*
X0055000Y0619470D01*
X0055100Y0619850D01*
X0055240Y0620220D01*
X0055410Y0620570D01*
X0055620Y0620910D01*
X0055860Y0621220D01*
X0056130Y0621510D01*
X0056430Y0621760D01*
X0056760Y0621990D01*
X0057100Y0622180D01*
X0057470Y0622340D01*
X0057840Y0622460D01*
X0058230Y0622540D01*
X0058620Y0622570D01*
X0059020Y0622570D01*
X0059410Y0622540D01*
X0059800Y0622460D01*
X0060170Y0622340D01*
X0060540Y0622180D01*
X0060880Y0621990D01*
X0061210Y0621760D01*
X0061510Y0621510D01*
X0061780Y0621220D01*
X0062020Y0620910D01*
X0062230Y0620570D01*
X0062400Y0620220D01*
X0062540Y0619850D01*
X0062640Y0619470D01*
X0062700Y0619070D01*
X0062720Y0618680D01*
X0062700Y0618290D01*
X0062640Y0617890D01*
X0062540Y0617510D01*
X0062400Y0617140D01*
X0062230Y0616790D01*
X0062020Y0616450D01*
X0061780Y0616140D01*
X0061510Y0615850D01*
X0061210Y0615600D01*
X0060880Y0615370D01*
X0060540Y0615180D01*
X0060170Y0615020D01*
X0059800Y0614900D01*
X0059410Y0614820D01*
X0059020Y0614790D01*
X0058620Y0614790D01*
X0058230Y0614820D01*
X0057840Y0614900D01*
X0057470Y0615020D01*
X0057100Y0615180D01*
X0056760Y0615370D01*
X0056430Y0615600D01*
X0056130Y0615850D01*
X0055860Y0616140D01*
X0055620Y0616450D01*
X0055410Y0616790D01*
X0055240Y0617140D01*
X0055100Y0617510D01*
X0055000Y0617890D01*
X0054940Y0618290D01*
X0054920Y0618680D01*
X0043010Y0618680D02*
X0051010Y0618680D01*
X0047010Y0614680D02*
X0047010Y0622680D01*
X0043110Y0618680D02*
X0043130Y0619070D01*
X0043190Y0619470D01*
X0043290Y0619850D01*
X0043430Y0620220D01*
X0043600Y0620570D01*
X0043810Y0620910D01*
X0044050Y0621220D01*
X0044320Y0621510D01*
X0044620Y0621760D01*
X0044950Y0621990D01*
X0045290Y0622180D01*
X0045660Y0622340D01*
X0046030Y0622460D01*
X0046420Y0622540D01*
X0046810Y0622570D01*
X0047210Y0622570D01*
X0047600Y0622540D01*
X0047990Y0622460D01*
X0048360Y0622340D01*
X0048730Y0622180D01*
X0049070Y0621990D01*
X0049400Y0621760D01*
X0049700Y0621510D01*
X0049970Y0621220D01*
X0050210Y0620910D01*
X0050420Y0620570D01*
X0050590Y0620220D01*
X0050730Y0619850D01*
X0050830Y0619470D01*
X0050890Y0619070D01*
X0050910Y0618680D01*
X0050890Y0618290D01*
X0050830Y0617890D01*
X0050730Y0617510D01*
X0050590Y0617140D01*
X0050420Y0616790D01*
X0050210Y0616450D01*
X0049970Y0616140D01*
X0049700Y0615850D01*
X0049400Y0615600D01*
X0049070Y0615370D01*
X0048730Y0615180D01*
X0048360Y0615020D01*
X0047990Y0614900D01*
X0047600Y0614820D01*
X0047210Y0614790D01*
X0046810Y0614790D01*
X0046420Y0614820D01*
X0046030Y0614900D01*
X0045660Y0615020D01*
X0045290Y0615180D01*
X0044950Y0615370D01*
X0044620Y0615600D01*
X0044320Y0615850D01*
X0044050Y0616140D01*
X0043810Y0616450D01*
X0043600Y0616790D01*
X0043430Y0617140D01*
X0043290Y0617510D01*
X0043190Y0617890D01*
X0043130Y0618290D01*
X0043110Y0618680D01*
X0043010Y0606860D02*
X0051010Y0606860D01*
X0047010Y0602860D02*
X0047010Y0610860D01*
X0043110Y0606860D02*
X0043130Y0607250D01*
X0043190Y0607650D01*
X0043290Y0608030D01*
X0043430Y0608400D01*
X0043600Y0608750D01*
X0043810Y0609090D01*
X0044050Y0609400D01*
X0044320Y0609690D01*
X0044620Y0609940D01*
X0044950Y0610170D01*
X0045290Y0610360D01*
X0045660Y0610520D01*
X0046030Y0610640D01*
X0046420Y0610720D01*
X0046810Y0610750D01*
X0047210Y0610750D01*
X0047600Y0610720D01*
X0047990Y0610640D01*
X0048360Y0610520D01*
X0048730Y0610360D01*
X0049070Y0610170D01*
X0049400Y0609940D01*
X0049700Y0609690D01*
X0049970Y0609400D01*
X0050210Y0609090D01*
X0050420Y0608750D01*
X0050590Y0608400D01*
X0050730Y0608030D01*
X0050830Y0607650D01*
X0050890Y0607250D01*
X0050910Y0606860D01*
X0050890Y0606470D01*
X0050830Y0606070D01*
X0050730Y0605690D01*
X0050590Y0605320D01*
X0050420Y0604970D01*
X0050210Y0604630D01*
X0049970Y0604320D01*
X0049700Y0604030D01*
X0049400Y0603780D01*
X0049070Y0603550D01*
X0048730Y0603360D01*
X0048360Y0603200D01*
X0047990Y0603080D01*
X0047600Y0603000D01*
X0047210Y0602970D01*
X0046810Y0602970D01*
X0046420Y0603000D01*
X0046030Y0603080D01*
X0045660Y0603200D01*
X0045290Y0603360D01*
X0044950Y0603550D01*
X0044620Y0603780D01*
X0044320Y0604030D01*
X0044050Y0604320D01*
X0043810Y0604630D01*
X0043600Y0604970D01*
X0043430Y0605320D01*
X0043290Y0605690D01*
X0043190Y0606070D01*
X0043130Y0606470D01*
X0043110Y0606860D01*
X0054820Y0606860D02*
X0062820Y0606860D01*
X0058820Y0602860D02*
X0058820Y0610860D01*
X0054920Y0606860D02*
X0054940Y0607250D01*
X0055000Y0607650D01*
X0055100Y0608030D01*
X0055240Y0608400D01*
X0055410Y0608750D01*
X0055620Y0609090D01*
X0055860Y0609400D01*
X0056130Y0609690D01*
X0056430Y0609940D01*
X0056760Y0610170D01*
X0057100Y0610360D01*
X0057470Y0610520D01*
X0057840Y0610640D01*
X0058230Y0610720D01*
X0058620Y0610750D01*
X0059020Y0610750D01*
X0059410Y0610720D01*
X0059800Y0610640D01*
X0060170Y0610520D01*
X0060540Y0610360D01*
X0060880Y0610170D01*
X0061210Y0609940D01*
X0061510Y0609690D01*
X0061780Y0609400D01*
X0062020Y0609090D01*
X0062230Y0608750D01*
X0062400Y0608400D01*
X0062540Y0608030D01*
X0062640Y0607650D01*
X0062700Y0607250D01*
X0062720Y0606860D01*
X0062700Y0606470D01*
X0062640Y0606070D01*
X0062540Y0605690D01*
X0062400Y0605320D01*
X0062230Y0604970D01*
X0062020Y0604630D01*
X0061780Y0604320D01*
X0061510Y0604030D01*
X0061210Y0603780D01*
X0060880Y0603550D01*
X0060540Y0603360D01*
X0060170Y0603200D01*
X0059800Y0603080D01*
X0059410Y0603000D01*
X0059020Y0602970D01*
X0058620Y0602970D01*
X0058230Y0603000D01*
X0057840Y0603080D01*
X0057470Y0603200D01*
X0057100Y0603360D01*
X0056760Y0603550D01*
X0056430Y0603780D01*
X0056130Y0604030D01*
X0055860Y0604320D01*
X0055620Y0604630D01*
X0055410Y0604970D01*
X0055240Y0605320D01*
X0055100Y0605690D01*
X0055000Y0606070D01*
X0054940Y0606470D01*
X0054920Y0606860D01*
X0232180Y0630960D02*
X0240180Y0630960D01*
X0236180Y0626960D02*
X0236180Y0634960D01*
X0232280Y0630960D02*
X0232300Y0631350D01*
X0232360Y0631750D01*
X0232460Y0632130D01*
X0232600Y0632500D01*
X0232770Y0632850D01*
X0232980Y0633190D01*
X0233220Y0633500D01*
X0233490Y0633790D01*
X0233790Y0634040D01*
X0234120Y0634270D01*
X0234460Y0634460D01*
X0234830Y0634620D01*
X0235200Y0634740D01*
X0235590Y0634820D01*
X0235980Y0634850D01*
X0236380Y0634850D01*
X0236770Y0634820D01*
X0237160Y0634740D01*
X0237530Y0634620D01*
X0237900Y0634460D01*
X0238240Y0634270D01*
X0238570Y0634040D01*
X0238870Y0633790D01*
X0239140Y0633500D01*
X0239380Y0633190D01*
X0239590Y0632850D01*
X0239760Y0632500D01*
X0239900Y0632130D01*
X0240000Y0631750D01*
X0240060Y0631350D01*
X0240080Y0630960D01*
X0240060Y0630570D01*
X0240000Y0630170D01*
X0239900Y0629790D01*
X0239760Y0629420D01*
X0239590Y0629070D01*
X0239380Y0628730D01*
X0239140Y0628420D01*
X0238870Y0628130D01*
X0238570Y0627880D01*
X0238240Y0627650D01*
X0237900Y0627460D01*
X0237530Y0627300D01*
X0237160Y0627180D01*
X0236770Y0627100D01*
X0236380Y0627070D01*
X0235980Y0627070D01*
X0235590Y0627100D01*
X0235200Y0627180D01*
X0234830Y0627300D01*
X0234460Y0627460D01*
X0234120Y0627650D01*
X0233790Y0627880D01*
X0233490Y0628130D01*
X0233220Y0628420D01*
X0232980Y0628730D01*
X0232770Y0629070D01*
X0232600Y0629420D01*
X0232460Y0629790D01*
X0232360Y0630170D01*
X0232300Y0630570D01*
X0232280Y0630960D01*
X0243990Y0630960D02*
X0251990Y0630960D01*
X0247990Y0626960D02*
X0247990Y0634960D01*
X0244090Y0630960D02*
X0244110Y0631350D01*
X0244170Y0631750D01*
X0244270Y0632130D01*
X0244410Y0632500D01*
X0244580Y0632850D01*
X0244790Y0633190D01*
X0245030Y0633500D01*
X0245300Y0633790D01*
X0245600Y0634040D01*
X0245930Y0634270D01*
X0246270Y0634460D01*
X0246640Y0634620D01*
X0247010Y0634740D01*
X0247400Y0634820D01*
X0247790Y0634850D01*
X0248190Y0634850D01*
X0248580Y0634820D01*
X0248970Y0634740D01*
X0249340Y0634620D01*
X0249710Y0634460D01*
X0250050Y0634270D01*
X0250380Y0634040D01*
X0250680Y0633790D01*
X0250950Y0633500D01*
X0251190Y0633190D01*
X0251400Y0632850D01*
X0251570Y0632500D01*
X0251710Y0632130D01*
X0251810Y0631750D01*
X0251870Y0631350D01*
X0251890Y0630960D01*
X0251870Y0630570D01*
X0251810Y0630170D01*
X0251710Y0629790D01*
X0251570Y0629420D01*
X0251400Y0629070D01*
X0251190Y0628730D01*
X0250950Y0628420D01*
X0250680Y0628130D01*
X0250380Y0627880D01*
X0250050Y0627650D01*
X0249710Y0627460D01*
X0249340Y0627300D01*
X0248970Y0627180D01*
X0248580Y0627100D01*
X0248190Y0627070D01*
X0247790Y0627070D01*
X0247400Y0627100D01*
X0247010Y0627180D01*
X0246640Y0627300D01*
X0246270Y0627460D01*
X0245930Y0627650D01*
X0245600Y0627880D01*
X0245300Y0628130D01*
X0245030Y0628420D01*
X0244790Y0628730D01*
X0244580Y0629070D01*
X0244410Y0629420D01*
X0244270Y0629790D01*
X0244170Y0630170D01*
X0244110Y0630570D01*
X0244090Y0630960D01*
X0243990Y0642770D02*
X0251990Y0642770D01*
X0247990Y0638770D02*
X0247990Y0646770D01*
X0244090Y0642770D02*
X0244110Y0643160D01*
X0244170Y0643560D01*
X0244270Y0643940D01*
X0244410Y0644310D01*
X0244580Y0644660D01*
X0244790Y0645000D01*
X0245030Y0645310D01*
X0245300Y0645600D01*
X0245600Y0645850D01*
X0245930Y0646080D01*
X0246270Y0646270D01*
X0246640Y0646430D01*
X0247010Y0646550D01*
X0247400Y0646630D01*
X0247790Y0646660D01*
X0248190Y0646660D01*
X0248580Y0646630D01*
X0248970Y0646550D01*
X0249340Y0646430D01*
X0249710Y0646270D01*
X0250050Y0646080D01*
X0250380Y0645850D01*
X0250680Y0645600D01*
X0250950Y0645310D01*
X0251190Y0645000D01*
X0251400Y0644660D01*
X0251570Y0644310D01*
X0251710Y0643940D01*
X0251810Y0643560D01*
X0251870Y0643160D01*
X0251890Y0642770D01*
X0251870Y0642380D01*
X0251810Y0641980D01*
X0251710Y0641600D01*
X0251570Y0641230D01*
X0251400Y0640880D01*
X0251190Y0640540D01*
X0250950Y0640230D01*
X0250680Y0639940D01*
X0250380Y0639690D01*
X0250050Y0639460D01*
X0249710Y0639270D01*
X0249340Y0639110D01*
X0248970Y0638990D01*
X0248580Y0638910D01*
X0248190Y0638880D01*
X0247790Y0638880D01*
X0247400Y0638910D01*
X0247010Y0638990D01*
X0246640Y0639110D01*
X0246270Y0639270D01*
X0245930Y0639460D01*
X0245600Y0639690D01*
X0245300Y0639940D01*
X0245030Y0640230D01*
X0244790Y0640540D01*
X0244580Y0640880D01*
X0244410Y0641230D01*
X0244270Y0641600D01*
X0244170Y0641980D01*
X0244110Y0642380D01*
X0244090Y0642770D01*
X0232180Y0642770D02*
X0240180Y0642770D01*
X0236180Y0638770D02*
X0236180Y0646770D01*
X0232280Y0642770D02*
X0232300Y0643160D01*
X0232360Y0643560D01*
X0232460Y0643940D01*
X0232600Y0644310D01*
X0232770Y0644660D01*
X0232980Y0645000D01*
X0233220Y0645310D01*
X0233490Y0645600D01*
X0233790Y0645850D01*
X0234120Y0646080D01*
X0234460Y0646270D01*
X0234830Y0646430D01*
X0235200Y0646550D01*
X0235590Y0646630D01*
X0235980Y0646660D01*
X0236380Y0646660D01*
X0236770Y0646630D01*
X0237160Y0646550D01*
X0237530Y0646430D01*
X0237900Y0646270D01*
X0238240Y0646080D01*
X0238570Y0645850D01*
X0238870Y0645600D01*
X0239140Y0645310D01*
X0239380Y0645000D01*
X0239590Y0644660D01*
X0239760Y0644310D01*
X0239900Y0643940D01*
X0240000Y0643560D01*
X0240060Y0643160D01*
X0240080Y0642770D01*
X0240060Y0642380D01*
X0240000Y0641980D01*
X0239900Y0641600D01*
X0239760Y0641230D01*
X0239590Y0640880D01*
X0239380Y0640540D01*
X0239140Y0640230D01*
X0238870Y0639940D01*
X0238570Y0639690D01*
X0238240Y0639460D01*
X0237900Y0639270D01*
X0237530Y0639110D01*
X0237160Y0638990D01*
X0236770Y0638910D01*
X0236380Y0638880D01*
X0235980Y0638880D01*
X0235590Y0638910D01*
X0235200Y0638990D01*
X0234830Y0639110D01*
X0234460Y0639270D01*
X0234120Y0639460D01*
X0233790Y0639690D01*
X0233490Y0639940D01*
X0233220Y0640230D01*
X0232980Y0640540D01*
X0232770Y0640880D01*
X0232600Y0641230D01*
X0232460Y0641600D01*
X0232360Y0641980D01*
X0232300Y0642380D01*
X0232280Y0642770D01*
X0232180Y0654580D02*
X0240180Y0654580D01*
X0236180Y0650580D02*
X0236180Y0658580D01*
X0232280Y0654580D02*
X0232300Y0654970D01*
X0232360Y0655370D01*
X0232460Y0655750D01*
X0232600Y0656120D01*
X0232770Y0656470D01*
X0232980Y0656810D01*
X0233220Y0657120D01*
X0233490Y0657410D01*
X0233790Y0657660D01*
X0234120Y0657890D01*
X0234460Y0658080D01*
X0234830Y0658240D01*
X0235200Y0658360D01*
X0235590Y0658440D01*
X0235980Y0658470D01*
X0236380Y0658470D01*
X0236770Y0658440D01*
X0237160Y0658360D01*
X0237530Y0658240D01*
X0237900Y0658080D01*
X0238240Y0657890D01*
X0238570Y0657660D01*
X0238870Y0657410D01*
X0239140Y0657120D01*
X0239380Y0656810D01*
X0239590Y0656470D01*
X0239760Y0656120D01*
X0239900Y0655750D01*
X0240000Y0655370D01*
X0240060Y0654970D01*
X0240080Y0654580D01*
X0240060Y0654190D01*
X0240000Y0653790D01*
X0239900Y0653410D01*
X0239760Y0653040D01*
X0239590Y0652690D01*
X0239380Y0652350D01*
X0239140Y0652040D01*
X0238870Y0651750D01*
X0238570Y0651500D01*
X0238240Y0651270D01*
X0237900Y0651080D01*
X0237530Y0650920D01*
X0237160Y0650800D01*
X0236770Y0650720D01*
X0236380Y0650690D01*
X0235980Y0650690D01*
X0235590Y0650720D01*
X0235200Y0650800D01*
X0234830Y0650920D01*
X0234460Y0651080D01*
X0234120Y0651270D01*
X0233790Y0651500D01*
X0233490Y0651750D01*
X0233220Y0652040D01*
X0232980Y0652350D01*
X0232770Y0652690D01*
X0232600Y0653040D01*
X0232460Y0653410D01*
X0232360Y0653790D01*
X0232300Y0654190D01*
X0232280Y0654580D01*
X0243990Y0654580D02*
X0251990Y0654580D01*
X0247990Y0650580D02*
X0247990Y0658580D01*
X0244090Y0654580D02*
X0244110Y0654970D01*
X0244170Y0655370D01*
X0244270Y0655750D01*
X0244410Y0656120D01*
X0244580Y0656470D01*
X0244790Y0656810D01*
X0245030Y0657120D01*
X0245300Y0657410D01*
X0245600Y0657660D01*
X0245930Y0657890D01*
X0246270Y0658080D01*
X0246640Y0658240D01*
X0247010Y0658360D01*
X0247400Y0658440D01*
X0247790Y0658470D01*
X0248190Y0658470D01*
X0248580Y0658440D01*
X0248970Y0658360D01*
X0249340Y0658240D01*
X0249710Y0658080D01*
X0250050Y0657890D01*
X0250380Y0657660D01*
X0250680Y0657410D01*
X0250950Y0657120D01*
X0251190Y0656810D01*
X0251400Y0656470D01*
X0251570Y0656120D01*
X0251710Y0655750D01*
X0251810Y0655370D01*
X0251870Y0654970D01*
X0251890Y0654580D01*
X0251870Y0654190D01*
X0251810Y0653790D01*
X0251710Y0653410D01*
X0251570Y0653040D01*
X0251400Y0652690D01*
X0251190Y0652350D01*
X0250950Y0652040D01*
X0250680Y0651750D01*
X0250380Y0651500D01*
X0250050Y0651270D01*
X0249710Y0651080D01*
X0249340Y0650920D01*
X0248970Y0650800D01*
X0248580Y0650720D01*
X0248190Y0650690D01*
X0247790Y0650690D01*
X0247400Y0650720D01*
X0247010Y0650800D01*
X0246640Y0650920D01*
X0246270Y0651080D01*
X0245930Y0651270D01*
X0245600Y0651500D01*
X0245300Y0651750D01*
X0245030Y0652040D01*
X0244790Y0652350D01*
X0244580Y0652690D01*
X0244410Y0653040D01*
X0244270Y0653410D01*
X0244170Y0653790D01*
X0244110Y0654190D01*
X0244090Y0654580D01*
X0221000Y0103000D02*
X0229000Y0103000D01*
X0225000Y0099000D02*
X0225000Y0107000D01*
X0221100Y0103000D02*
X0221120Y0103390D01*
X0221180Y0103790D01*
X0221280Y0104170D01*
X0221420Y0104540D01*
X0221590Y0104890D01*
X0221800Y0105230D01*
X0222040Y0105540D01*
X0222310Y0105830D01*
X0222610Y0106080D01*
X0222940Y0106310D01*
X0223280Y0106500D01*
X0223650Y0106660D01*
X0224020Y0106780D01*
X0224410Y0106860D01*
X0224800Y0106890D01*
X0225200Y0106890D01*
X0225590Y0106860D01*
X0225980Y0106780D01*
X0226350Y0106660D01*
X0226720Y0106500D01*
X0227060Y0106310D01*
X0227390Y0106080D01*
X0227690Y0105830D01*
X0227960Y0105540D01*
X0228200Y0105230D01*
X0228410Y0104890D01*
X0228580Y0104540D01*
X0228720Y0104170D01*
X0228820Y0103790D01*
X0228880Y0103390D01*
X0228900Y0103000D01*
X0228880Y0102610D01*
X0228820Y0102210D01*
X0228720Y0101830D01*
X0228580Y0101460D01*
X0228410Y0101110D01*
X0228200Y0100770D01*
X0227960Y0100460D01*
X0227690Y0100170D01*
X0227390Y0099920D01*
X0227060Y0099690D01*
X0226720Y0099500D01*
X0226350Y0099340D01*
X0225980Y0099220D01*
X0225590Y0099140D01*
X0225200Y0099110D01*
X0224800Y0099110D01*
X0224410Y0099140D01*
X0224020Y0099220D01*
X0223650Y0099340D01*
X0223280Y0099500D01*
X0222940Y0099690D01*
X0222610Y0099920D01*
X0222310Y0100170D01*
X0222040Y0100460D01*
X0221800Y0100770D01*
X0221590Y0101110D01*
X0221420Y0101460D01*
X0221280Y0101830D01*
X0221180Y0102210D01*
X0221120Y0102610D01*
X0221100Y0103000D01*
X0223050Y0103000D02*
X0223070Y0103280D01*
X0223130Y0103560D01*
X0223230Y0103830D01*
X0223370Y0104080D01*
X0223550Y0104300D01*
X0223750Y0104500D01*
X0223980Y0104660D01*
X0224240Y0104790D01*
X0224510Y0104890D01*
X0224790Y0104940D01*
X0225070Y0104950D01*
X0225350Y0104920D01*
X0225630Y0104850D01*
X0225890Y0104730D01*
X0226130Y0104590D01*
X0226350Y0104400D01*
X0226540Y0104190D01*
X0226700Y0103950D01*
X0226820Y0103700D01*
X0226900Y0103420D01*
X0226940Y0103140D01*
X0226940Y0102860D01*
X0226900Y0102580D01*
X0226820Y0102300D01*
X0226700Y0102050D01*
X0226540Y0101810D01*
X0226350Y0101600D01*
X0226130Y0101410D01*
X0225890Y0101270D01*
X0225630Y0101150D01*
X0225350Y0101080D01*
X0225070Y0101050D01*
X0224790Y0101060D01*
X0224510Y0101110D01*
X0224240Y0101210D01*
X0223980Y0101340D01*
X0223750Y0101500D01*
X0223550Y0101700D01*
X0223370Y0101920D01*
X0223230Y0102170D01*
X0223130Y0102440D01*
X0223070Y0102720D01*
X0223050Y0103000D01*
X0376000Y0102140D02*
X0384000Y0102140D01*
X0380000Y0106140D01*
X0380000Y0098140D01*
X0376000Y0102140D01*
X0376000Y0153870D02*
X0384000Y0153870D01*
X0380000Y0157870D01*
X0380000Y0149870D01*
X0376000Y0153870D01*
X0380000Y0206750D02*
X0388000Y0206750D01*
X0384000Y0202750D02*
X0384000Y0210750D01*
X0380100Y0210650D02*
X0387900Y0210650D01*
X0387900Y0202850D01*
X0380100Y0202850D01*
X0380100Y0210650D01*
X0380000Y0225250D02*
X0388000Y0225250D01*
X0384000Y0221250D02*
X0384000Y0229250D01*
X0380100Y0229150D02*
X0387900Y0229150D01*
X0387900Y0221350D01*
X0380100Y0221350D01*
X0380100Y0229150D01*
X0051000Y0269000D02*
X0059000Y0269000D01*
X0055000Y0265000D02*
X0055000Y0273000D01*
X0051100Y0272900D02*
X0058900Y0272900D01*
X0058900Y0265100D01*
X0051100Y0265100D01*
X0051100Y0272900D01*
X0021000Y0516210D02*
X0029000Y0516210D01*
X0025000Y0512210D02*
X0025000Y0520210D01*
X0021100Y0520110D02*
X0028900Y0520110D01*
X0028900Y0512310D01*
X0021100Y0512310D01*
X0021100Y0520110D01*
X0021000Y0471210D02*
X0029000Y0471210D01*
X0025000Y0467210D02*
X0025000Y0475210D01*
X0021100Y0475110D02*
X0028900Y0475110D01*
X0028900Y0467310D01*
X0021100Y0467310D01*
X0021100Y0475110D01*
X0021000Y0426210D02*
X0029000Y0426210D01*
X0025000Y0422210D02*
X0025000Y0430210D01*
X0021100Y0430110D02*
X0028900Y0430110D01*
X0028900Y0422310D01*
X0021100Y0422310D01*
X0021100Y0430110D01*
X0262970Y0369240D02*
X0270970Y0369240D01*
X0266970Y0365240D02*
X0266970Y0373240D01*
X0263070Y0373140D02*
X0270870Y0373140D01*
X0270870Y0365340D01*
X0263070Y0365340D01*
X0263070Y0373140D01*
X0261000Y0511210D02*
X0269000Y0511210D01*
X0265000Y0507210D02*
X0265000Y0515210D01*
X0261100Y0515110D02*
X0268900Y0515110D01*
X0268900Y0507310D01*
X0261100Y0507310D01*
X0261100Y0515110D01*
X0026000Y0612770D02*
X0034000Y0612770D01*
X0030000Y0608770D02*
X0030000Y0616770D01*
X0026100Y0616670D02*
X0033900Y0616670D01*
X0033900Y0608870D01*
X0026100Y0608870D01*
X0026100Y0616670D01*
X0261000Y0642770D02*
X0269000Y0642770D01*
X0265000Y0638770D02*
X0265000Y0646770D01*
X0261100Y0646670D02*
X0268900Y0646670D01*
X0268900Y0638870D01*
X0261100Y0638870D01*
X0261100Y0646670D01*
X0018000Y0022000D02*
X0026000Y0022000D01*
X0022000Y0018000D02*
X0022000Y0026000D01*
X0018000Y0271000D02*
X0026000Y0271000D01*
X0022000Y0267000D02*
X0022000Y0275000D01*
X0386000Y0272000D02*
X0394000Y0272000D01*
X0390000Y0268000D02*
X0390000Y0276000D01*
X0388000Y0023000D02*
X0396000Y0023000D01*
X0392000Y0019000D02*
X0392000Y0027000D01*
X0021000Y0346210D02*
X0029000Y0346210D01*
X0025000Y0342210D02*
X0025000Y0350210D01*
X0266000Y0346210D02*
X0274000Y0346210D01*
X0270000Y0342210D02*
X0270000Y0350210D01*
X0261000Y0551210D02*
X0269000Y0551210D01*
X0265000Y0547210D02*
X0265000Y0555210D01*
X0021000Y0551210D02*
X0029000Y0551210D01*
X0025000Y0547210D02*
X0025000Y0555210D01*
X0017810Y0579580D02*
X0025810Y0579580D01*
X0021810Y0575580D02*
X0021810Y0583580D01*
X0017810Y0717380D02*
X0025810Y0717380D01*
X0021810Y0713380D02*
X0021810Y0721380D01*
X0261910Y0717380D02*
X0269910Y0717380D01*
X0265910Y0713380D02*
X0265910Y0721380D01*
X0261910Y0579580D02*
X0269910Y0579580D01*
X0265910Y0575580D02*
X0265910Y0583580D01*
X0010000Y0010000D02*
X0403700Y0010000D01*
X0403700Y0729190D01*
X0010000Y0729190D01*
X0010000Y0010000D01*
X0449700Y0013500D02*
X0457700Y0013500D01*
X0453700Y0009500D02*
X0453700Y0017500D01*
X0465200Y0010000D02*
X0464200Y0011000D01*
X0468200Y0015000D01*
X0468200Y0011000D01*
X0467200Y0010000D01*
X0465200Y0010000D01*
X0464200Y0011000D02*
X0464200Y0015000D01*
X0465200Y0016000D01*
X0467200Y0016000D01*
X0468200Y0015000D01*
X0471700Y0011000D02*
X0472700Y0011000D01*
X0472700Y0010000D01*
X0471700Y0010000D01*
X0471700Y0011000D01*
X0477200Y0015000D02*
X0478200Y0016000D01*
X0478200Y0010000D01*
X0477200Y0010000D02*
X0479200Y0010000D01*
X0482200Y0010000D02*
X0486200Y0014000D01*
X0486200Y0015000D01*
X0485200Y0016000D01*
X0483200Y0016000D01*
X0482200Y0015000D01*
X0482200Y0010000D02*
X0486200Y0010000D01*
X0488200Y0013000D02*
X0488200Y0011000D01*
X0489200Y0010000D01*
X0491200Y0010000D01*
X0492200Y0011000D01*
X0492200Y0012000D01*
X0491200Y0013000D01*
X0488200Y0013000D01*
X0490200Y0015000D01*
X0492200Y0016000D01*
X0497700Y0015000D02*
X0496700Y0014000D01*
X0497700Y0015000D02*
X0497700Y0017000D01*
X0495700Y0017000D02*
X0495700Y0015000D01*
X0494700Y0014000D01*
X0449700Y0024000D02*
X0457700Y0024000D01*
X0453700Y0020000D02*
X0453700Y0028000D01*
X0449800Y0027900D02*
X0457600Y0027900D01*
X0457600Y0020100D01*
X0449800Y0020100D01*
X0449800Y0027900D01*
X0465200Y0020500D02*
X0464200Y0021500D01*
X0468200Y0025500D01*
X0468200Y0021500D01*
X0467200Y0020500D01*
X0465200Y0020500D01*
X0464200Y0021500D02*
X0464200Y0025500D01*
X0465200Y0026500D01*
X0467200Y0026500D01*
X0468200Y0025500D01*
X0471700Y0021500D02*
X0472700Y0021500D01*
X0472700Y0020500D01*
X0471700Y0020500D01*
X0471700Y0021500D01*
X0477200Y0025500D02*
X0478200Y0026500D01*
X0478200Y0020500D01*
X0477200Y0020500D02*
X0479200Y0020500D01*
X0483200Y0025500D02*
X0484200Y0026500D01*
X0484200Y0020500D01*
X0483200Y0020500D02*
X0485200Y0020500D01*
X0488200Y0021500D02*
X0488200Y0022500D01*
X0489200Y0023500D01*
X0491200Y0023500D01*
X0492200Y0022500D01*
X0492200Y0021500D01*
X0491200Y0020500D01*
X0489200Y0020500D01*
X0488200Y0021500D01*
X0489200Y0023500D02*
X0488200Y0024500D01*
X0488200Y0025500D01*
X0489200Y0026500D01*
X0491200Y0026500D01*
X0492200Y0025500D01*
X0492200Y0024500D01*
X0491200Y0023500D01*
X0497700Y0025500D02*
X0496700Y0024500D01*
X0497700Y0025500D02*
X0497700Y0027500D01*
X0495700Y0027500D02*
X0495700Y0025500D01*
X0494700Y0024500D01*
X0449700Y0034500D02*
X0457700Y0034500D01*
X0453700Y0038500D01*
X0453700Y0030500D01*
X0449700Y0034500D01*
X0465200Y0031000D02*
X0464200Y0032000D01*
X0468200Y0036000D01*
X0468200Y0032000D01*
X0467200Y0031000D01*
X0465200Y0031000D01*
X0464200Y0032000D02*
X0464200Y0036000D01*
X0465200Y0037000D01*
X0467200Y0037000D01*
X0468200Y0036000D01*
X0471700Y0032000D02*
X0472700Y0032000D01*
X0472700Y0031000D01*
X0471700Y0031000D01*
X0471700Y0032000D01*
X0477200Y0031000D02*
X0476200Y0032000D01*
X0480200Y0036000D01*
X0480200Y0032000D01*
X0479200Y0031000D01*
X0477200Y0031000D01*
X0476200Y0032000D02*
X0476200Y0036000D01*
X0477200Y0037000D01*
X0479200Y0037000D01*
X0480200Y0036000D01*
X0482200Y0035000D02*
X0483200Y0034000D01*
X0486200Y0034000D01*
X0486200Y0032000D02*
X0486200Y0036000D01*
X0485200Y0037000D01*
X0483200Y0037000D01*
X0482200Y0036000D01*
X0482200Y0035000D01*
X0482200Y0032000D02*
X0483200Y0031000D01*
X0485200Y0031000D01*
X0486200Y0032000D01*
X0489200Y0036000D02*
X0490200Y0037000D01*
X0490200Y0031000D01*
X0489200Y0031000D02*
X0491200Y0031000D01*
X0497700Y0036000D02*
X0496700Y0035000D01*
X0497700Y0036000D02*
X0497700Y0038000D01*
X0495700Y0038000D02*
X0495700Y0036000D01*
X0494700Y0035000D01*
X0449700Y0045000D02*
X0457700Y0045000D01*
X0453700Y0041000D02*
X0453700Y0049000D01*
X0449800Y0045000D02*
X0449820Y0045390D01*
X0449880Y0045790D01*
X0449980Y0046170D01*
X0450120Y0046540D01*
X0450290Y0046890D01*
X0450500Y0047230D01*
X0450740Y0047540D01*
X0451010Y0047830D01*
X0451310Y0048080D01*
X0451640Y0048310D01*
X0451980Y0048500D01*
X0452350Y0048660D01*
X0452720Y0048780D01*
X0453110Y0048860D01*
X0453500Y0048890D01*
X0453900Y0048890D01*
X0454290Y0048860D01*
X0454680Y0048780D01*
X0455050Y0048660D01*
X0455420Y0048500D01*
X0455760Y0048310D01*
X0456090Y0048080D01*
X0456390Y0047830D01*
X0456660Y0047540D01*
X0456900Y0047230D01*
X0457110Y0046890D01*
X0457280Y0046540D01*
X0457420Y0046170D01*
X0457520Y0045790D01*
X0457580Y0045390D01*
X0457600Y0045000D01*
X0457580Y0044610D01*
X0457520Y0044210D01*
X0457420Y0043830D01*
X0457280Y0043460D01*
X0457110Y0043110D01*
X0456900Y0042770D01*
X0456660Y0042460D01*
X0456390Y0042170D01*
X0456090Y0041920D01*
X0455760Y0041690D01*
X0455420Y0041500D01*
X0455050Y0041340D01*
X0454680Y0041220D01*
X0454290Y0041140D01*
X0453900Y0041110D01*
X0453500Y0041110D01*
X0453110Y0041140D01*
X0452720Y0041220D01*
X0452350Y0041340D01*
X0451980Y0041500D01*
X0451640Y0041690D01*
X0451310Y0041920D01*
X0451010Y0042170D01*
X0450740Y0042460D01*
X0450500Y0042770D01*
X0450290Y0043110D01*
X0450120Y0043460D01*
X0449980Y0043830D01*
X0449880Y0044210D01*
X0449820Y0044610D01*
X0449800Y0045000D01*
X0451750Y0045000D02*
X0451770Y0045280D01*
X0451830Y0045560D01*
X0451930Y0045830D01*
X0452070Y0046080D01*
X0452250Y0046300D01*
X0452450Y0046500D01*
X0452680Y0046660D01*
X0452940Y0046790D01*
X0453210Y0046890D01*
X0453490Y0046940D01*
X0453770Y0046950D01*
X0454050Y0046920D01*
X0454330Y0046850D01*
X0454590Y0046730D01*
X0454830Y0046590D01*
X0455050Y0046400D01*
X0455240Y0046190D01*
X0455400Y0045950D01*
X0455520Y0045700D01*
X0455600Y0045420D01*
X0455640Y0045140D01*
X0455640Y0044860D01*
X0455600Y0044580D01*
X0455520Y0044300D01*
X0455400Y0044050D01*
X0455240Y0043810D01*
X0455050Y0043600D01*
X0454830Y0043410D01*
X0454590Y0043270D01*
X0454330Y0043150D01*
X0454050Y0043080D01*
X0453770Y0043050D01*
X0453490Y0043060D01*
X0453210Y0043110D01*
X0452940Y0043210D01*
X0452680Y0043340D01*
X0452450Y0043500D01*
X0452250Y0043700D01*
X0452070Y0043920D01*
X0451930Y0044170D01*
X0451830Y0044440D01*
X0451770Y0044720D01*
X0451750Y0045000D01*
X0465200Y0041500D02*
X0464200Y0042500D01*
X0468200Y0046500D01*
X0468200Y0042500D01*
X0467200Y0041500D01*
X0465200Y0041500D01*
X0464200Y0042500D02*
X0464200Y0046500D01*
X0465200Y0047500D01*
X0467200Y0047500D01*
X0468200Y0046500D01*
X0471700Y0042500D02*
X0472700Y0042500D01*
X0472700Y0041500D01*
X0471700Y0041500D01*
X0471700Y0042500D01*
X0477200Y0041500D02*
X0476200Y0042500D01*
X0480200Y0046500D01*
X0480200Y0042500D01*
X0479200Y0041500D01*
X0477200Y0041500D01*
X0476200Y0042500D02*
X0476200Y0046500D01*
X0477200Y0047500D01*
X0479200Y0047500D01*
X0480200Y0046500D01*
X0482200Y0044500D02*
X0484200Y0045500D01*
X0485200Y0045500D01*
X0486200Y0044500D01*
X0486200Y0042500D01*
X0485200Y0041500D01*
X0483200Y0041500D01*
X0482200Y0042500D01*
X0482200Y0044500D02*
X0482200Y0047500D01*
X0486200Y0047500D01*
X0488200Y0041500D02*
X0492200Y0045500D01*
X0492200Y0046500D01*
X0491200Y0047500D01*
X0489200Y0047500D01*
X0488200Y0046500D01*
X0488200Y0041500D02*
X0492200Y0041500D01*
X0497700Y0046500D02*
X0496700Y0045500D01*
X0497700Y0046500D02*
X0497700Y0048500D01*
X0495700Y0048500D02*
X0495700Y0046500D01*
X0494700Y0045500D01*
X0449700Y0055500D02*
X0457700Y0055500D01*
X0453700Y0051500D02*
X0453700Y0059500D01*
X0449800Y0055500D02*
X0449820Y0055890D01*
X0449880Y0056290D01*
X0449980Y0056670D01*
X0450120Y0057040D01*
X0450290Y0057390D01*
X0450500Y0057730D01*
X0450740Y0058040D01*
X0451010Y0058330D01*
X0451310Y0058580D01*
X0451640Y0058810D01*
X0451980Y0059000D01*
X0452350Y0059160D01*
X0452720Y0059280D01*
X0453110Y0059360D01*
X0453500Y0059390D01*
X0453900Y0059390D01*
X0454290Y0059360D01*
X0454680Y0059280D01*
X0455050Y0059160D01*
X0455420Y0059000D01*
X0455760Y0058810D01*
X0456090Y0058580D01*
X0456390Y0058330D01*
X0456660Y0058040D01*
X0456900Y0057730D01*
X0457110Y0057390D01*
X0457280Y0057040D01*
X0457420Y0056670D01*
X0457520Y0056290D01*
X0457580Y0055890D01*
X0457600Y0055500D01*
X0457580Y0055110D01*
X0457520Y0054710D01*
X0457420Y0054330D01*
X0457280Y0053960D01*
X0457110Y0053610D01*
X0456900Y0053270D01*
X0456660Y0052960D01*
X0456390Y0052670D01*
X0456090Y0052420D01*
X0455760Y0052190D01*
X0455420Y0052000D01*
X0455050Y0051840D01*
X0454680Y0051720D01*
X0454290Y0051640D01*
X0453900Y0051610D01*
X0453500Y0051610D01*
X0453110Y0051640D01*
X0452720Y0051720D01*
X0452350Y0051840D01*
X0451980Y0052000D01*
X0451640Y0052190D01*
X0451310Y0052420D01*
X0451010Y0052670D01*
X0450740Y0052960D01*
X0450500Y0053270D01*
X0450290Y0053610D01*
X0450120Y0053960D01*
X0449980Y0054330D01*
X0449880Y0054710D01*
X0449820Y0055110D01*
X0449800Y0055500D01*
X0465200Y0052000D02*
X0464200Y0053000D01*
X0468200Y0057000D01*
X0468200Y0053000D01*
X0467200Y0052000D01*
X0465200Y0052000D01*
X0464200Y0053000D02*
X0464200Y0057000D01*
X0465200Y0058000D01*
X0467200Y0058000D01*
X0468200Y0057000D01*
X0471700Y0053000D02*
X0472700Y0053000D01*
X0472700Y0052000D01*
X0471700Y0052000D01*
X0471700Y0053000D01*
X0477200Y0052000D02*
X0476200Y0053000D01*
X0480200Y0057000D01*
X0480200Y0053000D01*
X0479200Y0052000D01*
X0477200Y0052000D01*
X0476200Y0053000D02*
X0476200Y0057000D01*
X0477200Y0058000D01*
X0479200Y0058000D01*
X0480200Y0057000D01*
X0482200Y0055000D02*
X0486200Y0055000D01*
X0485200Y0052000D02*
X0485200Y0058000D01*
X0482200Y0055000D01*
X0488200Y0052000D02*
X0492200Y0056000D01*
X0492200Y0057000D01*
X0491200Y0058000D01*
X0489200Y0058000D01*
X0488200Y0057000D01*
X0488200Y0052000D02*
X0492200Y0052000D01*
X0497700Y0057000D02*
X0496700Y0056000D01*
X0497700Y0057000D02*
X0497700Y0059000D01*
X0495700Y0059000D02*
X0495700Y0057000D01*
X0494700Y0056000D01*
X0453700Y0066000D02*
X0457700Y0066000D01*
X0453700Y0066000D02*
X0449700Y0070000D01*
X0449700Y0062000D01*
X0453700Y0066000D01*
X0465200Y0062500D02*
X0464200Y0063500D01*
X0468200Y0067500D01*
X0468200Y0063500D01*
X0467200Y0062500D01*
X0465200Y0062500D01*
X0464200Y0063500D02*
X0464200Y0067500D01*
X0465200Y0068500D01*
X0467200Y0068500D01*
X0468200Y0067500D01*
X0471700Y0063500D02*
X0472700Y0063500D01*
X0472700Y0062500D01*
X0471700Y0062500D01*
X0471700Y0063500D01*
X0477200Y0062500D02*
X0476200Y0063500D01*
X0480200Y0067500D01*
X0480200Y0063500D01*
X0479200Y0062500D01*
X0477200Y0062500D01*
X0476200Y0063500D02*
X0476200Y0067500D01*
X0477200Y0068500D01*
X0479200Y0068500D01*
X0480200Y0067500D01*
X0482200Y0063500D02*
X0483200Y0062500D01*
X0485200Y0062500D01*
X0486200Y0063500D01*
X0486200Y0064500D01*
X0485200Y0065500D01*
X0484200Y0065500D01*
X0485200Y0065500D02*
X0486200Y0066500D01*
X0486200Y0067500D01*
X0485200Y0068500D01*
X0483200Y0068500D01*
X0482200Y0067500D01*
X0488200Y0068500D02*
X0492200Y0068500D01*
X0492200Y0067500D01*
X0488200Y0063500D01*
X0488200Y0062500D01*
X0497700Y0067500D02*
X0496700Y0066500D01*
X0497700Y0067500D02*
X0497700Y0069500D01*
X0495700Y0069500D02*
X0495700Y0067500D01*
X0494700Y0066500D01*
X0453700Y0076500D02*
X0449700Y0076500D01*
X0453700Y0076500D02*
X0457700Y0080500D01*
X0457700Y0072500D01*
X0453700Y0076500D01*
X0465200Y0073000D02*
X0464200Y0074000D01*
X0468200Y0078000D01*
X0468200Y0074000D01*
X0467200Y0073000D01*
X0465200Y0073000D01*
X0464200Y0074000D02*
X0464200Y0078000D01*
X0465200Y0079000D01*
X0467200Y0079000D01*
X0468200Y0078000D01*
X0471700Y0074000D02*
X0472700Y0074000D01*
X0472700Y0073000D01*
X0471700Y0073000D01*
X0471700Y0074000D01*
X0477200Y0073000D02*
X0476200Y0074000D01*
X0480200Y0078000D01*
X0480200Y0074000D01*
X0479200Y0073000D01*
X0477200Y0073000D01*
X0476200Y0074000D02*
X0476200Y0078000D01*
X0477200Y0079000D01*
X0479200Y0079000D01*
X0480200Y0078000D01*
X0482200Y0074000D02*
X0483200Y0073000D01*
X0485200Y0073000D01*
X0486200Y0074000D01*
X0486200Y0075000D01*
X0485200Y0076000D01*
X0484200Y0076000D01*
X0485200Y0076000D02*
X0486200Y0077000D01*
X0486200Y0078000D01*
X0485200Y0079000D01*
X0483200Y0079000D01*
X0482200Y0078000D01*
X0488200Y0073000D02*
X0492200Y0077000D01*
X0492200Y0078000D01*
X0491200Y0079000D01*
X0489200Y0079000D01*
X0488200Y0078000D01*
X0488200Y0073000D02*
X0492200Y0073000D01*
X0497700Y0078000D02*
X0496700Y0077000D01*
X0497700Y0078000D02*
X0497700Y0080000D01*
X0495700Y0080000D02*
X0495700Y0078000D01*
X0494700Y0077000D01*
X0449700Y0083000D02*
X0457700Y0091000D01*
X0457700Y0083000D02*
X0449700Y0091000D01*
X0449700Y0087000D02*
X0457700Y0087000D01*
X0465200Y0083500D02*
X0464200Y0084500D01*
X0468200Y0088500D01*
X0468200Y0084500D01*
X0467200Y0083500D01*
X0465200Y0083500D01*
X0464200Y0084500D02*
X0464200Y0088500D01*
X0465200Y0089500D01*
X0467200Y0089500D01*
X0468200Y0088500D01*
X0471700Y0084500D02*
X0472700Y0084500D01*
X0472700Y0083500D01*
X0471700Y0083500D01*
X0471700Y0084500D01*
X0477200Y0083500D02*
X0476200Y0084500D01*
X0480200Y0088500D01*
X0480200Y0084500D01*
X0479200Y0083500D01*
X0477200Y0083500D01*
X0476200Y0084500D02*
X0476200Y0088500D01*
X0477200Y0089500D01*
X0479200Y0089500D01*
X0480200Y0088500D01*
X0482200Y0083500D02*
X0486200Y0087500D01*
X0486200Y0088500D01*
X0485200Y0089500D01*
X0483200Y0089500D01*
X0482200Y0088500D01*
X0482200Y0083500D02*
X0486200Y0083500D01*
X0488200Y0086500D02*
X0492200Y0086500D01*
X0491200Y0083500D02*
X0491200Y0089500D01*
X0488200Y0086500D01*
X0497700Y0088500D02*
X0496700Y0087500D01*
X0497700Y0088500D02*
X0497700Y0090500D01*
X0495700Y0090500D02*
X0495700Y0088500D01*
X0494700Y0087500D01*
X0010000Y0741690D02*
X0010000Y0756690D01*
X0017500Y0752940D02*
X0010000Y0749190D01*
X0017500Y0745440D01*
X0010000Y0749190D02*
X0022500Y0749190D01*
X0403700Y0756690D02*
X0403700Y0741690D01*
X0396200Y0745440D02*
X0403700Y0749190D01*
X0396200Y0752940D01*
X0403700Y0749190D02*
X0391200Y0749190D01*
X0416200Y0729190D02*
X0431200Y0729190D01*
X0427450Y0721690D02*
X0423700Y0729190D01*
X0419950Y0721690D01*
X0423700Y0729190D02*
X0423700Y0716690D01*
X0431200Y0010000D02*
X0416200Y0010000D01*
X0419950Y0017500D02*
X0423700Y0010000D01*
X0427450Y0017500D01*
X0423700Y0010000D02*
X0423700Y0022500D01*
X0199850Y0746690D02*
X0200850Y0745690D01*
X0202850Y0745690D01*
X0203850Y0746690D01*
X0203850Y0747690D01*
X0202850Y0748690D01*
X0201850Y0748690D01*
X0202850Y0748690D02*
X0203850Y0749690D01*
X0203850Y0750690D01*
X0202850Y0751690D01*
X0200850Y0751690D01*
X0199850Y0750690D01*
X0207350Y0746690D02*
X0208350Y0746690D01*
X0208350Y0745690D01*
X0207350Y0745690D01*
X0207350Y0746690D01*
X0211850Y0749690D02*
X0212850Y0748690D01*
X0215850Y0748690D01*
X0215850Y0746690D02*
X0215850Y0750690D01*
X0214850Y0751690D01*
X0212850Y0751690D01*
X0211850Y0750690D01*
X0211850Y0749690D01*
X0211850Y0746690D02*
X0212850Y0745690D01*
X0214850Y0745690D01*
X0215850Y0746690D01*
X0217850Y0746690D02*
X0218850Y0745690D01*
X0220850Y0745690D01*
X0221850Y0746690D01*
X0221850Y0747690D01*
X0220850Y0748690D01*
X0219850Y0748690D01*
X0220850Y0748690D02*
X0221850Y0749690D01*
X0221850Y0750690D01*
X0220850Y0751690D01*
X0218850Y0751690D01*
X0217850Y0750690D01*
X0223850Y0751690D02*
X0227850Y0751690D01*
X0227850Y0750690D01*
X0223850Y0746690D01*
X0223850Y0745690D01*
X0233350Y0750690D02*
X0232350Y0749690D01*
X0233350Y0750690D02*
X0233350Y0752690D01*
X0231350Y0752690D02*
X0231350Y0750690D01*
X0230350Y0749690D01*
X0010000Y0749190D02*
X0189350Y0749190D01*
X0244350Y0749190D02*
X0403700Y0749190D01*
X0426200Y0396595D02*
X0426200Y0392595D01*
X0425200Y0392595D01*
X0421200Y0396595D01*
X0420200Y0396595D01*
X0421200Y0389095D02*
X0421200Y0388095D01*
X0420200Y0388095D01*
X0420200Y0389095D01*
X0421200Y0389095D01*
X0425200Y0383595D02*
X0426200Y0382595D01*
X0420200Y0382595D01*
X0420200Y0383595D02*
X0420200Y0381595D01*
X0424200Y0378595D02*
X0423200Y0377595D01*
X0423200Y0374595D01*
X0421200Y0374595D02*
X0425200Y0374595D01*
X0426200Y0375595D01*
X0426200Y0377595D01*
X0425200Y0378595D01*
X0424200Y0378595D01*
X0421200Y0378595D02*
X0420200Y0377595D01*
X0420200Y0375595D01*
X0421200Y0374595D01*
X0420200Y0372595D02*
X0424200Y0368595D01*
X0425200Y0368595D01*
X0426200Y0369595D01*
X0426200Y0371595D01*
X0425200Y0372595D01*
X0420200Y0372595D02*
X0420200Y0368595D01*
X0425200Y0363095D02*
X0424200Y0364095D01*
X0425200Y0363095D02*
X0427200Y0363095D01*
X0427200Y0365095D02*
X0425200Y0365095D01*
X0424200Y0366095D01*
X0423700Y0729190D02*
X0423700Y0407095D01*
X0423700Y0352095D02*
X0423700Y0010000D01*
M02*
