G75*
G70*
%OFA0B0*%
%FSLAX24Y24*%
%IPPOS*%
%LPD*%
%AMOC8*
5,1,8,0,0,1.08239X$1,22.5*
%
%ADD10R,0.0580X0.0140*%
%ADD11R,0.0780X0.0220*%
%ADD12OC8,0.0520*%
%ADD13R,0.0220X0.0520*%
%ADD14R,0.1181X0.1102*%
%ADD15R,0.0394X0.0433*%
%ADD16R,0.0570X0.0360*%
%ADD17R,0.0472X0.0598*%
%ADD18R,0.0669X0.0256*%
%ADD19R,0.0390X0.0120*%
%ADD20R,0.1600X0.3000*%
%ADD21R,0.0460X0.0140*%
%ADD22R,0.0630X0.0210*%
%ADD23R,0.0900X0.0900*%
%ADD24C,0.0515*%
%ADD25R,0.0315X0.0315*%
%ADD26R,0.0602X0.0602*%
%ADD27C,0.0602*%
%ADD28R,0.0276X0.0354*%
%ADD29R,0.0591X0.0512*%
%ADD30R,0.0709X0.0630*%
%ADD31R,0.0512X0.0591*%
%ADD32R,0.0354X0.0276*%
%ADD33R,0.0433X0.0394*%
%ADD34C,0.0660*%
%ADD35C,0.0560*%
%ADD36OC8,0.0560*%
%ADD37R,0.1260X0.0598*%
%ADD38C,0.0100*%
%ADD39C,0.0400*%
%ADD40C,0.0300*%
%ADD41C,0.0150*%
D10*
X014079Y012990D03*
X014079Y013240D03*
X014079Y013500D03*
X014079Y013750D03*
X014079Y014010D03*
X014079Y014270D03*
X014079Y014520D03*
X014079Y014780D03*
X014079Y015030D03*
X014079Y015290D03*
X014079Y015550D03*
X014079Y015800D03*
X014079Y016060D03*
X014079Y016310D03*
X016379Y016310D03*
X016379Y016060D03*
X016379Y015800D03*
X016379Y015550D03*
X016379Y015290D03*
X016379Y015030D03*
X016379Y014780D03*
X016379Y014520D03*
X016379Y014270D03*
X016379Y014010D03*
X016379Y013750D03*
X016379Y013500D03*
X016379Y013240D03*
X016379Y012990D03*
D11*
X008949Y012900D03*
X008949Y012400D03*
X008949Y011900D03*
X008949Y010400D03*
X008949Y009900D03*
X008949Y009400D03*
X008949Y008900D03*
X007009Y008900D03*
X007009Y009400D03*
X007009Y009900D03*
X007009Y010400D03*
X007009Y011900D03*
X007009Y012400D03*
X007009Y012900D03*
X007009Y013400D03*
X008949Y013400D03*
D12*
X009979Y011150D03*
X009979Y009650D03*
X012979Y009650D03*
X012979Y011150D03*
X019479Y013650D03*
X022479Y013650D03*
D13*
X020599Y019610D03*
X020229Y019610D03*
X019859Y019610D03*
X019859Y020690D03*
X020599Y020690D03*
D14*
X022256Y016650D03*
X018201Y016650D03*
D15*
X015729Y019315D03*
X015729Y019985D03*
X019894Y021650D03*
X020563Y021650D03*
X009229Y021315D03*
X009229Y021985D03*
D16*
X021729Y020470D03*
X021729Y019830D03*
D17*
X008809Y016880D03*
X008849Y015420D03*
X007148Y015420D03*
X007109Y016880D03*
D18*
X019097Y010400D03*
X019097Y009900D03*
X019097Y009400D03*
X019097Y008900D03*
X019097Y008400D03*
X019097Y007900D03*
X019097Y007400D03*
X019097Y006900D03*
X019097Y006400D03*
X019097Y005900D03*
X019097Y005400D03*
X019097Y004900D03*
X019097Y004400D03*
X019097Y003900D03*
X022860Y003900D03*
X022860Y004400D03*
X022860Y004900D03*
X022860Y005400D03*
X022860Y005900D03*
X022860Y006400D03*
X022860Y006900D03*
X022860Y007400D03*
X022860Y007900D03*
X022860Y008400D03*
X022860Y008900D03*
X022860Y009400D03*
X022860Y009900D03*
X022860Y010400D03*
D19*
X014877Y005557D03*
X014877Y005302D03*
X014877Y005046D03*
X014877Y004790D03*
X014877Y004534D03*
X014877Y004278D03*
X014877Y004022D03*
X014877Y003766D03*
X014877Y003510D03*
X014877Y003254D03*
X014877Y002998D03*
X014877Y002743D03*
X012580Y002743D03*
X012580Y002998D03*
X012580Y003254D03*
X012580Y003510D03*
X012580Y003766D03*
X012580Y004022D03*
X012580Y004278D03*
X012580Y004534D03*
X012580Y004790D03*
X012580Y005046D03*
X012580Y005302D03*
X012580Y005557D03*
D20*
X013736Y004158D03*
D21*
X015069Y009890D03*
X015069Y010150D03*
X015069Y010410D03*
X015889Y010410D03*
X015889Y009890D03*
X019599Y011890D03*
X019599Y012150D03*
X019599Y012410D03*
X020359Y012410D03*
X020359Y011890D03*
X021599Y011890D03*
X021599Y012410D03*
X022359Y012410D03*
X022359Y012150D03*
X022359Y011890D03*
D22*
X013279Y020400D03*
X013279Y020900D03*
X013279Y021400D03*
X013279Y021900D03*
X011179Y021900D03*
X011179Y021400D03*
X011179Y020900D03*
X011179Y020400D03*
D23*
X012229Y021150D03*
D24*
X005634Y007138D02*
X005119Y007138D01*
X005083Y006193D02*
X004568Y006193D01*
X002305Y005407D02*
X002305Y004893D01*
X003347Y003359D02*
X003862Y003359D01*
X006636Y003318D02*
X006636Y003833D01*
D25*
X006544Y002400D03*
X005953Y002400D03*
D26*
X004429Y009059D03*
X004429Y013559D03*
X004429Y018059D03*
D27*
X005610Y018059D03*
X005610Y019241D03*
X004429Y019241D03*
X004429Y014741D03*
X005610Y014741D03*
X005610Y013559D03*
X005610Y010241D03*
X004429Y010241D03*
X005610Y009059D03*
X024097Y003900D03*
X025278Y003900D03*
X025528Y019650D03*
X024347Y019650D03*
D28*
X024484Y014650D03*
X023973Y014650D03*
X023973Y014150D03*
X024484Y014150D03*
X012484Y015650D03*
X011973Y015650D03*
X011973Y016400D03*
X012484Y016400D03*
X012484Y017150D03*
X011973Y017150D03*
X010984Y017150D03*
X010473Y017150D03*
X010473Y016400D03*
X010984Y016400D03*
X010984Y015650D03*
X010473Y015650D03*
X010484Y006400D03*
X009973Y006400D03*
X008984Y006400D03*
X008473Y006400D03*
X008473Y000900D03*
X008984Y000900D03*
X009973Y000900D03*
X010484Y000900D03*
D29*
X010979Y002776D03*
X010979Y003524D03*
X013979Y009776D03*
X013979Y010524D03*
X018229Y012776D03*
X018229Y013524D03*
D30*
X017229Y010701D03*
X017229Y009599D03*
X008229Y021099D03*
X008229Y022201D03*
D31*
X012144Y019150D03*
X012813Y019150D03*
X010853Y007400D03*
X010105Y007400D03*
X009103Y005400D03*
X008355Y005400D03*
X008355Y004150D03*
X009103Y004150D03*
X009103Y002900D03*
X008355Y002900D03*
X008355Y001650D03*
X009103Y001650D03*
X013394Y006650D03*
X014063Y006650D03*
X016605Y005400D03*
X017353Y005400D03*
X017353Y004150D03*
X016605Y004150D03*
X016605Y002900D03*
X017353Y002900D03*
X017353Y001650D03*
X016605Y001650D03*
D32*
X023979Y006644D03*
X024479Y006644D03*
X024979Y006644D03*
X024979Y007156D03*
X024479Y007156D03*
X023979Y007156D03*
X023979Y008144D03*
X024479Y008144D03*
X024979Y008144D03*
X024979Y008656D03*
X024479Y008656D03*
X023979Y008656D03*
D33*
X014729Y019315D03*
X014729Y019985D03*
X014729Y020815D03*
X014729Y021485D03*
D34*
X006729Y022150D03*
X006729Y018150D03*
D35*
X027479Y007650D03*
D36*
X026479Y007650D03*
X026479Y008650D03*
X027479Y008650D03*
X027479Y009650D03*
X027479Y010650D03*
X027479Y011650D03*
X026479Y011650D03*
X026479Y010650D03*
X026479Y009650D03*
X026479Y012650D03*
X027479Y012650D03*
X027479Y013650D03*
X027479Y014650D03*
X026479Y014650D03*
X026479Y013650D03*
D37*
X018221Y019768D03*
X018221Y022217D03*
D38*
X001679Y021282D02*
X001679Y002224D01*
X001775Y002320D01*
X002021Y002463D01*
X002296Y002536D01*
X002580Y002536D01*
X002855Y002463D01*
X003101Y002320D01*
X003302Y002119D01*
X003444Y001873D01*
X003518Y001598D01*
X003518Y001314D01*
X003444Y001039D01*
X003302Y000793D01*
X003109Y000600D01*
X008248Y000600D01*
X008243Y000603D01*
X008215Y000631D01*
X008195Y000665D01*
X008185Y000703D01*
X008185Y000881D01*
X008454Y000881D01*
X008454Y000919D01*
X008185Y000919D01*
X008185Y001097D01*
X008195Y001135D01*
X003470Y001135D01*
X003496Y001234D02*
X008009Y001234D01*
X008007Y001235D02*
X008041Y001215D01*
X008079Y001205D01*
X008256Y001205D01*
X008243Y001197D01*
X008215Y001169D01*
X008195Y001135D01*
X008185Y001037D02*
X003443Y001037D01*
X003386Y000938D02*
X008185Y000938D01*
X008185Y000840D02*
X003329Y000840D01*
X003250Y000741D02*
X008185Y000741D01*
X008208Y000643D02*
X003151Y000643D01*
X003518Y001332D02*
X007949Y001332D01*
X007949Y001335D02*
X007959Y001297D01*
X007979Y001263D01*
X008007Y001235D01*
X007949Y001335D02*
X007949Y001600D01*
X008305Y001600D01*
X008405Y001600D01*
X008405Y001227D01*
X008315Y001227D01*
X008305Y001224D01*
X008305Y001600D01*
X008305Y001700D01*
X008305Y002095D01*
X008079Y002095D01*
X008041Y002085D01*
X008007Y002065D01*
X007979Y002037D01*
X007959Y002003D01*
X007949Y001965D01*
X007949Y001700D01*
X008305Y001700D01*
X008405Y001700D01*
X008405Y002095D01*
X008630Y002095D01*
X008668Y002085D01*
X008703Y002065D01*
X008729Y002039D01*
X008785Y002095D01*
X009421Y002095D01*
X009509Y002007D01*
X009509Y001850D01*
X009523Y001850D01*
X009827Y002153D01*
X009827Y002290D01*
X009880Y002419D01*
X009978Y002517D01*
X010107Y002571D01*
X010246Y002571D01*
X010375Y002517D01*
X010473Y002419D01*
X010527Y002290D01*
X010527Y002151D01*
X010473Y002022D01*
X010375Y001924D01*
X010246Y001871D01*
X010109Y001871D01*
X009689Y001450D01*
X009509Y001450D01*
X009509Y001293D01*
X009480Y001264D01*
X009890Y001264D01*
X010697Y002071D01*
X010768Y002071D01*
X011068Y002370D01*
X011029Y002370D01*
X011029Y002726D01*
X011029Y002826D01*
X011424Y002826D01*
X011424Y003052D01*
X011414Y003090D01*
X011394Y003124D01*
X011368Y003150D01*
X011424Y003206D01*
X011424Y003241D01*
X011511Y003154D01*
X011852Y003154D01*
X011424Y002726D01*
X011029Y002726D01*
X010929Y002726D01*
X010929Y002370D01*
X010664Y002370D01*
X010625Y002380D01*
X010591Y002400D01*
X010563Y002428D01*
X010544Y002462D01*
X010533Y002500D01*
X010533Y002726D01*
X010929Y002726D01*
X010929Y002826D01*
X010533Y002826D01*
X010533Y003052D01*
X010544Y003090D01*
X010563Y003124D01*
X010589Y003150D01*
X010533Y003206D01*
X010533Y003642D01*
X009709Y002817D01*
X009591Y002700D01*
X009509Y002700D01*
X009509Y002543D01*
X009421Y002455D01*
X008785Y002455D01*
X008729Y002511D01*
X008703Y002485D01*
X008668Y002465D01*
X008630Y002455D01*
X008405Y002455D01*
X008405Y002850D01*
X008305Y002850D01*
X008305Y002455D01*
X008079Y002455D01*
X008041Y002465D01*
X008007Y002485D01*
X007979Y002513D01*
X007959Y002547D01*
X007949Y002585D01*
X007949Y002850D01*
X008305Y002850D01*
X008305Y002950D01*
X008305Y003345D01*
X008079Y003345D01*
X008041Y003335D01*
X008007Y003315D01*
X007979Y003287D01*
X007959Y003253D01*
X007949Y003215D01*
X007949Y002950D01*
X008305Y002950D01*
X008405Y002950D01*
X008405Y003345D01*
X008630Y003345D01*
X008668Y003335D01*
X008703Y003315D01*
X008729Y003289D01*
X008785Y003345D01*
X009421Y003345D01*
X009509Y003257D01*
X009509Y003183D01*
X010276Y003950D01*
X009509Y003950D01*
X009509Y003793D01*
X009421Y003705D01*
X008785Y003705D01*
X008729Y003761D01*
X008703Y003735D01*
X008668Y003715D01*
X008630Y003705D01*
X008405Y003705D01*
X008405Y004100D01*
X008305Y004100D01*
X008305Y003705D01*
X008079Y003705D01*
X008041Y003715D01*
X008007Y003735D01*
X007979Y003763D01*
X007959Y003797D01*
X007949Y003835D01*
X007949Y004100D01*
X008305Y004100D01*
X008305Y004200D01*
X008305Y004595D01*
X008079Y004595D01*
X008041Y004585D01*
X008007Y004565D01*
X007979Y004537D01*
X007959Y004503D01*
X007949Y004465D01*
X007949Y004200D01*
X008305Y004200D01*
X008405Y004200D01*
X008405Y004595D01*
X008630Y004595D01*
X008668Y004585D01*
X008703Y004565D01*
X008729Y004539D01*
X008785Y004595D01*
X009421Y004595D01*
X009509Y004507D01*
X009509Y004350D01*
X010642Y004350D01*
X010827Y004534D01*
X010795Y004534D01*
X010667Y004587D01*
X010568Y004686D01*
X010515Y004815D01*
X010515Y004954D01*
X010568Y005082D01*
X010667Y005181D01*
X010713Y005200D01*
X009509Y005200D01*
X009509Y005043D01*
X009421Y004955D01*
X008785Y004955D01*
X008729Y005011D01*
X008703Y004985D01*
X008668Y004965D01*
X008630Y004955D01*
X008405Y004955D01*
X008405Y005350D01*
X008305Y005350D01*
X008305Y004955D01*
X008079Y004955D01*
X008041Y004965D01*
X008007Y004985D01*
X007979Y005013D01*
X007959Y005047D01*
X007949Y005085D01*
X007949Y005350D01*
X008305Y005350D01*
X008305Y005450D01*
X008305Y005845D01*
X008079Y005845D01*
X008041Y005835D01*
X008007Y005815D01*
X007979Y005787D01*
X007959Y005753D01*
X007949Y005715D01*
X007949Y005450D01*
X008305Y005450D01*
X008405Y005450D01*
X008405Y005845D01*
X008630Y005845D01*
X008668Y005835D01*
X008703Y005815D01*
X008729Y005789D01*
X008785Y005845D01*
X009421Y005845D01*
X009509Y005757D01*
X009509Y005600D01*
X011629Y005600D01*
X011732Y005497D01*
X011732Y005577D01*
X011785Y005705D01*
X011884Y005804D01*
X012012Y005857D01*
X012152Y005857D01*
X012280Y005804D01*
X012327Y005757D01*
X012327Y005757D01*
X012365Y005767D01*
X012580Y005767D01*
X012580Y005557D01*
X012204Y005933D01*
X008473Y005933D01*
X008473Y006400D01*
X008492Y006381D02*
X008492Y006073D01*
X008630Y006073D01*
X008668Y006083D01*
X008703Y006103D01*
X008729Y006129D01*
X008785Y006073D01*
X009184Y006073D01*
X009248Y006136D01*
X009280Y006103D01*
X009409Y006050D01*
X009548Y006050D01*
X009677Y006103D01*
X009710Y006136D01*
X009773Y006073D01*
X010173Y006073D01*
X010229Y006129D01*
X010285Y006073D01*
X010684Y006073D01*
X010772Y006161D01*
X010772Y006181D01*
X011741Y006181D01*
X011858Y006299D01*
X013061Y007502D01*
X013374Y007502D01*
X013780Y007095D01*
X013745Y007095D01*
X013725Y007075D01*
X013708Y007085D01*
X013670Y007095D01*
X013444Y007095D01*
X013444Y006700D01*
X013344Y006700D01*
X013344Y007095D01*
X013118Y007095D01*
X013080Y007085D01*
X013046Y007065D01*
X013018Y007037D01*
X012998Y007003D01*
X012988Y006965D01*
X012988Y006700D01*
X013344Y006700D01*
X013344Y006600D01*
X013444Y006600D01*
X013444Y006205D01*
X013670Y006205D01*
X013708Y006215D01*
X013725Y006225D01*
X013745Y006205D01*
X014381Y006205D01*
X014469Y006293D01*
X014469Y007007D01*
X014381Y007095D01*
X014263Y007095D01*
X014263Y007178D01*
X014146Y007295D01*
X013539Y007902D01*
X013179Y007902D01*
X013179Y009270D01*
X013358Y009450D01*
X013490Y009450D01*
X013533Y009493D01*
X013533Y009458D01*
X013621Y009370D01*
X014336Y009370D01*
X014424Y009458D01*
X014424Y009493D01*
X014447Y009470D01*
X015481Y009470D01*
X015599Y009587D01*
X015681Y009670D01*
X016181Y009670D01*
X016269Y009758D01*
X016269Y010022D01*
X016181Y010110D01*
X015596Y010110D01*
X015576Y010090D01*
X015449Y010090D01*
X015449Y010150D01*
X015449Y010210D01*
X015576Y010210D01*
X015596Y010190D01*
X016181Y010190D01*
X016201Y010210D01*
X016516Y010210D01*
X016633Y010327D01*
X016724Y010418D01*
X016724Y010324D01*
X016812Y010236D01*
X017645Y010236D01*
X017733Y010324D01*
X017733Y011078D01*
X017645Y011166D01*
X016812Y011166D01*
X016724Y011078D01*
X016724Y010901D01*
X016641Y010901D01*
X016524Y010784D01*
X016350Y010610D01*
X016201Y010610D01*
X016181Y010630D01*
X015681Y010630D01*
X015299Y011013D01*
X015181Y011130D01*
X013389Y011130D01*
X013389Y011320D01*
X013335Y011374D01*
X013439Y011477D01*
X015081Y013119D01*
X015081Y015169D01*
X015739Y015827D01*
X015739Y015220D01*
X015516Y014997D01*
X015379Y014997D01*
X015250Y014944D01*
X015152Y014846D01*
X015098Y014717D01*
X015098Y014578D01*
X015152Y014449D01*
X015250Y014351D01*
X015379Y014297D01*
X015518Y014297D01*
X015647Y014351D01*
X015745Y014449D01*
X015798Y014578D01*
X015798Y014715D01*
X015939Y014855D01*
X015939Y012858D01*
X016026Y012770D01*
X016731Y012770D01*
X016819Y012858D01*
X016819Y014912D01*
X016813Y014918D01*
X016819Y014940D01*
X016819Y015030D01*
X016692Y015030D01*
X016599Y015030D01*
X016379Y015030D01*
X016819Y015030D01*
X016819Y013741D01*
X017783Y012776D01*
X018229Y012776D01*
X018229Y012370D01*
X018669Y011930D01*
X018669Y011890D01*
X019219Y011890D01*
X019219Y011800D01*
X019229Y011762D01*
X019249Y011728D01*
X019276Y011700D01*
X019311Y011680D01*
X019349Y011670D01*
X019599Y011670D01*
X019848Y011670D01*
X019886Y011680D01*
X019921Y011700D01*
X019949Y011728D01*
X019968Y011762D01*
X019979Y011800D01*
X019979Y011890D01*
X019979Y011980D01*
X019971Y012010D01*
X019979Y012018D01*
X019979Y012542D01*
X019979Y012278D01*
X020066Y012190D01*
X020636Y012190D01*
X020656Y012170D01*
X020736Y012090D01*
X020671Y012090D01*
X020651Y012110D01*
X020066Y012110D01*
X019979Y012022D01*
X019979Y011758D01*
X020066Y011670D01*
X020651Y011670D01*
X020663Y011683D01*
X020876Y011470D01*
X022116Y011470D01*
X021671Y011025D01*
X021554Y010908D01*
X021554Y010193D01*
X021447Y010086D01*
X021412Y010170D01*
X021313Y010269D01*
X021185Y010322D01*
X021073Y010322D01*
X021073Y010356D01*
X021019Y010485D01*
X020921Y010583D01*
X020792Y010637D01*
X020653Y010637D01*
X020524Y010583D01*
X020428Y010487D01*
X019778Y010487D01*
X019664Y010600D01*
X019571Y010600D01*
X019493Y010678D01*
X018700Y010678D01*
X018612Y010590D01*
X018612Y010210D01*
X018672Y010150D01*
X018612Y010090D01*
X018612Y009710D01*
X018672Y009650D01*
X018612Y009590D01*
X018612Y009210D01*
X018672Y009150D01*
X018612Y009090D01*
X018612Y008710D01*
X018672Y008650D01*
X018612Y008590D01*
X018612Y008210D01*
X018672Y008150D01*
X018612Y008090D01*
X018612Y007710D01*
X018672Y007650D01*
X018612Y007590D01*
X018612Y007210D01*
X018672Y007150D01*
X018612Y007090D01*
X018612Y006710D01*
X018672Y006650D01*
X018612Y006590D01*
X018612Y006210D01*
X018673Y006149D01*
X018670Y006148D01*
X018642Y006120D01*
X018622Y006086D01*
X018612Y006048D01*
X018612Y005914D01*
X019083Y005914D01*
X019083Y005886D01*
X018612Y005886D01*
X018612Y005752D01*
X018622Y005714D01*
X018642Y005680D01*
X018670Y005652D01*
X018673Y005651D01*
X018612Y005590D01*
X018612Y005210D01*
X018672Y005150D01*
X018661Y005139D01*
X017690Y006110D01*
X016370Y006110D01*
X016370Y006564D01*
X016467Y006661D01*
X016520Y006789D01*
X016520Y006929D01*
X016467Y007057D01*
X016368Y007156D01*
X016240Y007209D01*
X016100Y007209D01*
X015972Y007156D01*
X015873Y007057D01*
X015820Y006929D01*
X015820Y006789D01*
X015873Y006661D01*
X015970Y006564D01*
X015970Y005993D01*
X015889Y005912D01*
X015852Y006002D01*
X015753Y006101D01*
X015624Y006154D01*
X015485Y006154D01*
X015357Y006101D01*
X015258Y006002D01*
X015205Y005873D01*
X015205Y005823D01*
X015142Y005760D01*
X015134Y005767D01*
X014639Y005767D01*
X014629Y005778D01*
X014594Y005798D01*
X014556Y005808D01*
X013786Y005808D01*
X013786Y004208D01*
X013686Y004208D01*
X013686Y005808D01*
X012917Y005808D01*
X012879Y005798D01*
X012844Y005778D01*
X012826Y005759D01*
X012795Y005767D01*
X012580Y005767D01*
X012580Y005557D01*
X012925Y005557D01*
X013296Y005929D01*
X013296Y006107D01*
X013394Y006205D01*
X013394Y006650D01*
X013344Y006651D02*
X012210Y006651D01*
X012112Y006553D02*
X012988Y006553D01*
X012988Y006600D02*
X012988Y006335D01*
X012998Y006297D01*
X013018Y006263D01*
X013046Y006235D01*
X013080Y006215D01*
X013118Y006205D01*
X013344Y006205D01*
X013344Y006600D01*
X012988Y006600D01*
X012988Y006454D02*
X012013Y006454D01*
X011915Y006356D02*
X012988Y006356D01*
X013024Y006257D02*
X011816Y006257D01*
X011858Y006299D02*
X011858Y006299D01*
X011658Y006381D02*
X012979Y007702D01*
X012979Y009650D01*
X013407Y009650D01*
X013533Y009776D01*
X013979Y009776D01*
X014424Y009776D01*
X014530Y009670D01*
X015399Y009670D01*
X015509Y009780D01*
X015509Y009890D01*
X015889Y009890D01*
X016192Y010099D02*
X018620Y010099D01*
X018625Y010197D02*
X016188Y010197D01*
X016269Y010000D02*
X016751Y010000D01*
X016754Y010006D02*
X016734Y009972D01*
X016724Y009934D01*
X016724Y009649D01*
X017179Y009649D01*
X017179Y010064D01*
X016855Y010064D01*
X016816Y010054D01*
X016782Y010034D01*
X016754Y010006D01*
X016724Y009902D02*
X016269Y009902D01*
X016269Y009803D02*
X016724Y009803D01*
X016724Y009705D02*
X016215Y009705D01*
X016724Y009549D02*
X016724Y009264D01*
X016734Y009226D01*
X016754Y009192D01*
X016782Y009164D01*
X016816Y009144D01*
X016855Y009134D01*
X017179Y009134D01*
X017179Y009549D01*
X017279Y009549D01*
X017279Y009649D01*
X017733Y009649D01*
X017733Y009934D01*
X017723Y009972D01*
X017703Y010006D01*
X017675Y010034D01*
X017641Y010054D01*
X017603Y010064D01*
X017279Y010064D01*
X017279Y009649D01*
X017179Y009649D01*
X017179Y009549D01*
X016724Y009549D01*
X016724Y009508D02*
X015519Y009508D01*
X015617Y009606D02*
X017179Y009606D01*
X017229Y009599D02*
X017229Y010064D01*
X017482Y010064D01*
X018669Y011251D01*
X018669Y011890D01*
X019019Y012067D02*
X019136Y011950D01*
X019219Y011950D01*
X019219Y011890D01*
X019599Y011890D01*
X019979Y011890D01*
X019599Y011890D01*
X019599Y011890D01*
X019599Y011670D01*
X019599Y011890D01*
X019599Y011890D01*
X019219Y011890D01*
X019599Y011890D01*
X019599Y011890D01*
X019599Y011872D02*
X019599Y011872D01*
X019599Y011773D02*
X019599Y011773D01*
X019599Y011675D02*
X019599Y011675D01*
X019865Y011675D02*
X020062Y011675D01*
X019979Y011773D02*
X019971Y011773D01*
X019979Y011872D02*
X019979Y011872D01*
X019979Y011970D02*
X019979Y011970D01*
X019979Y012069D02*
X020025Y012069D01*
X019979Y012167D02*
X020659Y012167D01*
X020739Y012370D02*
X020739Y012410D01*
X020406Y012410D01*
X020359Y012410D01*
X020406Y012410D02*
X020406Y013318D01*
X019430Y014294D01*
X018888Y014294D01*
X016873Y016310D01*
X016379Y016310D01*
X015939Y016310D01*
X014881Y015252D01*
X014881Y013202D01*
X013239Y011560D01*
X012979Y011560D01*
X012979Y011150D01*
X012569Y011150D01*
X010319Y013400D01*
X010173Y013400D01*
X010173Y016656D01*
X010243Y016727D01*
X012484Y016727D01*
X012484Y016400D01*
X012484Y016727D02*
X012696Y016939D01*
X012484Y017150D01*
X012696Y016939D02*
X012786Y016849D01*
X012786Y016849D01*
X012860Y016775D01*
X012882Y016775D01*
X013261Y017191D02*
X017460Y017191D01*
X017460Y017263D02*
X017460Y016319D01*
X017153Y016627D01*
X017036Y016744D01*
X015776Y016744D01*
X014519Y015486D01*
X014519Y015550D01*
X014519Y015640D01*
X014513Y015662D01*
X014519Y015668D01*
X014519Y016442D01*
X014431Y016530D01*
X013839Y016530D01*
X013839Y016613D01*
X012891Y017560D01*
X012774Y017677D01*
X012165Y017677D01*
X011965Y017477D01*
X011773Y017477D01*
X011697Y017402D01*
X011260Y017402D01*
X011184Y017477D01*
X010785Y017477D01*
X010729Y017421D01*
X010703Y017447D01*
X010668Y017467D01*
X010630Y017477D01*
X010492Y017477D01*
X010492Y017169D01*
X010454Y017169D01*
X010454Y017477D01*
X010315Y017477D01*
X010277Y017467D01*
X010243Y017447D01*
X010215Y017419D01*
X010195Y017385D01*
X010185Y017347D01*
X010185Y017169D01*
X010454Y017169D01*
X010454Y017131D01*
X010185Y017131D01*
X010185Y016953D01*
X010192Y016927D01*
X010160Y016927D01*
X010090Y016856D01*
X009973Y016739D01*
X009973Y013600D01*
X009461Y013600D01*
X009401Y013660D01*
X008763Y013660D01*
X009318Y014215D01*
X009435Y014332D01*
X009435Y015866D01*
X009349Y015952D01*
X009232Y016069D01*
X008589Y016069D01*
X007578Y017080D01*
X007495Y017080D01*
X007495Y017242D01*
X007407Y017330D01*
X006810Y017330D01*
X006722Y017242D01*
X006722Y017163D01*
X006368Y017517D01*
X006368Y017832D01*
X006457Y017743D01*
X006633Y017670D01*
X006824Y017670D01*
X007000Y017743D01*
X007136Y017878D01*
X007209Y018055D01*
X007209Y018245D01*
X007136Y018422D01*
X007000Y018557D01*
X006824Y018630D01*
X006633Y018630D01*
X006457Y018557D01*
X006322Y018422D01*
X006281Y018325D01*
X006251Y018355D01*
X005850Y018757D01*
X005196Y018757D01*
X004858Y019095D01*
X004881Y019151D01*
X004881Y019330D01*
X004812Y019496D01*
X004685Y019623D01*
X004519Y019692D01*
X004340Y019692D01*
X004174Y019623D01*
X004047Y019496D01*
X003978Y019330D01*
X003978Y019151D01*
X004047Y018985D01*
X004174Y018858D01*
X004340Y018789D01*
X004519Y018789D01*
X004575Y018812D01*
X004913Y018474D01*
X005030Y018357D01*
X005270Y018357D01*
X005228Y018315D01*
X005159Y018149D01*
X005159Y017970D01*
X005228Y017804D01*
X005355Y017677D01*
X005410Y017654D01*
X005410Y017545D01*
X006607Y016348D01*
X006724Y016231D01*
X006827Y016231D01*
X007198Y015860D01*
X007198Y015470D01*
X007098Y015470D01*
X007098Y015869D01*
X006892Y015869D01*
X006854Y015859D01*
X006820Y015839D01*
X006792Y015811D01*
X006772Y015777D01*
X006762Y015739D01*
X006762Y015470D01*
X007098Y015470D01*
X007098Y015370D01*
X006762Y015370D01*
X006762Y015101D01*
X006772Y015063D01*
X006792Y015028D01*
X006820Y015000D01*
X006854Y014981D01*
X006892Y014970D01*
X007098Y014970D01*
X007098Y015370D01*
X007198Y015370D01*
X007198Y015470D01*
X007534Y015470D01*
X007534Y015524D01*
X007748Y015310D01*
X007532Y015094D01*
X007534Y015101D01*
X007534Y015370D01*
X007198Y015370D01*
X007198Y014970D01*
X007404Y014970D01*
X007411Y014972D01*
X006386Y013947D01*
X006269Y013830D01*
X006269Y012817D01*
X006386Y012700D01*
X006496Y012700D01*
X006546Y012650D01*
X006469Y012572D01*
X006469Y012228D01*
X006552Y012145D01*
X006526Y012130D01*
X006499Y012102D01*
X006479Y012068D01*
X006469Y012030D01*
X006469Y011905D01*
X007004Y011905D01*
X007004Y011895D01*
X007014Y011895D01*
X007014Y011640D01*
X007349Y011640D01*
X007349Y010660D01*
X006556Y010660D01*
X006524Y010627D01*
X006256Y010895D01*
X005084Y010895D01*
X005084Y014369D01*
X004967Y014486D01*
X004858Y014595D01*
X004881Y014651D01*
X004881Y014830D01*
X004812Y014996D01*
X004685Y015123D01*
X004519Y015192D01*
X004340Y015192D01*
X004174Y015123D01*
X004047Y014996D01*
X003978Y014830D01*
X003978Y014651D01*
X004047Y014485D01*
X004174Y014358D01*
X004340Y014289D01*
X004519Y014289D01*
X004575Y014312D01*
X004684Y014203D01*
X004684Y014011D01*
X004066Y014011D01*
X003978Y013923D01*
X003978Y013196D01*
X004066Y013108D01*
X004684Y013108D01*
X004684Y010778D01*
X004575Y010669D01*
X004519Y010692D01*
X004340Y010692D01*
X004174Y010623D01*
X004047Y010496D01*
X003978Y010330D01*
X003978Y010151D01*
X004047Y009985D01*
X004174Y009858D01*
X004340Y009789D01*
X004519Y009789D01*
X004685Y009858D01*
X004812Y009985D01*
X004881Y010151D01*
X004881Y010330D01*
X004858Y010386D01*
X004967Y010495D01*
X005238Y010495D01*
X005225Y010477D01*
X005192Y010414D01*
X005170Y010346D01*
X005162Y010291D01*
X005560Y010291D01*
X005560Y010191D01*
X005162Y010191D01*
X005170Y010135D01*
X005192Y010067D01*
X005225Y010004D01*
X005266Y009947D01*
X005317Y009896D01*
X005374Y009855D01*
X005437Y009822D01*
X005505Y009800D01*
X005560Y009792D01*
X005560Y010191D01*
X005660Y010191D01*
X005660Y009792D01*
X005716Y009800D01*
X005784Y009822D01*
X005847Y009855D01*
X005904Y009896D01*
X005955Y009947D01*
X005996Y010004D01*
X006029Y010067D01*
X006051Y010135D01*
X006059Y010191D01*
X005660Y010191D01*
X005660Y010291D01*
X006059Y010291D01*
X006051Y010346D01*
X006029Y010414D01*
X005996Y010477D01*
X005983Y010495D01*
X006090Y010495D01*
X006269Y010317D01*
X006386Y010200D01*
X006496Y010200D01*
X006546Y010150D01*
X006469Y010072D01*
X006469Y009728D01*
X006546Y009650D01*
X006469Y009572D01*
X006469Y009228D01*
X006552Y009145D01*
X006526Y009130D01*
X006499Y009102D01*
X006479Y009068D01*
X006469Y009030D01*
X006469Y008905D01*
X007004Y008905D01*
X007004Y008895D01*
X006469Y008895D01*
X006469Y008840D01*
X006113Y008840D01*
X006039Y008914D01*
X006062Y008970D01*
X006062Y009149D01*
X005993Y009315D01*
X005866Y009442D01*
X005700Y009511D01*
X005521Y009511D01*
X005355Y009442D01*
X005228Y009315D01*
X005159Y009149D01*
X005159Y009064D01*
X004963Y009259D01*
X004881Y009259D01*
X004881Y009423D01*
X004793Y009511D01*
X004066Y009511D01*
X003978Y009423D01*
X003978Y008696D01*
X004066Y008608D01*
X004793Y008608D01*
X004881Y008696D01*
X004881Y008777D01*
X005421Y008236D01*
X007957Y008236D01*
X008053Y008139D01*
X008182Y008086D01*
X008321Y008086D01*
X008450Y008139D01*
X008547Y008236D01*
X011026Y008236D01*
X011143Y008353D01*
X012569Y009779D01*
X012569Y009480D01*
X012779Y009270D01*
X012779Y007785D01*
X011575Y006581D01*
X011474Y006581D01*
X011508Y006662D01*
X011508Y006801D01*
X011454Y006930D01*
X011356Y007028D01*
X011259Y007069D01*
X011259Y007757D01*
X011171Y007845D01*
X010535Y007845D01*
X010479Y007789D01*
X010423Y007845D01*
X009787Y007845D01*
X009699Y007757D01*
X009699Y007600D01*
X009616Y007600D01*
X009499Y007483D01*
X009354Y007338D01*
X005992Y007338D01*
X005979Y007369D01*
X005865Y007484D01*
X005715Y007546D01*
X005038Y007546D01*
X004888Y007484D01*
X004773Y007369D01*
X004711Y007219D01*
X004711Y007057D01*
X004773Y006907D01*
X004888Y006793D01*
X005038Y006731D01*
X005715Y006731D01*
X005841Y006783D01*
X005841Y003127D01*
X005958Y003010D01*
X006292Y002676D01*
X006244Y002627D01*
X006231Y002650D01*
X006203Y002678D01*
X006168Y002697D01*
X006130Y002707D01*
X005982Y002707D01*
X005982Y002429D01*
X005924Y002429D01*
X005924Y002707D01*
X005776Y002707D01*
X005738Y002697D01*
X005703Y002678D01*
X005675Y002650D01*
X005656Y002615D01*
X005646Y002577D01*
X005646Y002429D01*
X005924Y002429D01*
X005924Y002371D01*
X005982Y002371D01*
X005982Y002093D01*
X006130Y002093D01*
X006168Y002103D01*
X006203Y002122D01*
X006231Y002150D01*
X006244Y002173D01*
X006324Y002093D01*
X006763Y002093D01*
X006851Y002180D01*
X006851Y002620D01*
X006763Y002707D01*
X006744Y002707D01*
X006744Y002790D01*
X006624Y002910D01*
X006717Y002910D01*
X006867Y002972D01*
X006982Y003087D01*
X007044Y003237D01*
X007044Y003914D01*
X006982Y004063D01*
X006867Y004178D01*
X006717Y004240D01*
X006555Y004240D01*
X006405Y004178D01*
X006291Y004063D01*
X006241Y003944D01*
X006241Y006938D01*
X009520Y006938D01*
X009699Y007117D01*
X009699Y007043D01*
X009787Y006955D01*
X010423Y006955D01*
X010479Y007011D01*
X010535Y006955D01*
X010653Y006955D01*
X010653Y006872D01*
X010770Y006755D01*
X010808Y006755D01*
X010808Y006662D01*
X010833Y006600D01*
X010772Y006600D01*
X010772Y006639D01*
X010684Y006727D01*
X010285Y006727D01*
X010229Y006671D01*
X010173Y006727D01*
X009773Y006727D01*
X009710Y006664D01*
X009677Y006697D01*
X009548Y006750D01*
X009409Y006750D01*
X009280Y006697D01*
X009248Y006664D01*
X009184Y006727D01*
X008785Y006727D01*
X008729Y006671D01*
X008703Y006697D01*
X008668Y006717D01*
X008630Y006727D01*
X008492Y006727D01*
X008492Y006419D01*
X008454Y006419D01*
X008454Y006727D01*
X008315Y006727D01*
X008277Y006717D01*
X008243Y006697D01*
X008215Y006669D01*
X008195Y006635D01*
X008185Y006597D01*
X008185Y006419D01*
X008454Y006419D01*
X008454Y006381D01*
X008492Y006381D01*
X008492Y006356D02*
X008454Y006356D01*
X008454Y006381D02*
X008454Y006073D01*
X008315Y006073D01*
X008277Y006083D01*
X008243Y006103D01*
X008215Y006131D01*
X008195Y006165D01*
X008185Y006203D01*
X008185Y006381D01*
X008454Y006381D01*
X008454Y006454D02*
X008492Y006454D01*
X008492Y006553D02*
X008454Y006553D01*
X008454Y006651D02*
X008492Y006651D01*
X008204Y006651D02*
X006241Y006651D01*
X006241Y006553D02*
X008185Y006553D01*
X008185Y006454D02*
X006241Y006454D01*
X006241Y006356D02*
X008185Y006356D01*
X008185Y006257D02*
X006241Y006257D01*
X006241Y006159D02*
X008199Y006159D01*
X008454Y006159D02*
X008492Y006159D01*
X008492Y006257D02*
X008454Y006257D01*
X008442Y005933D02*
X008473Y005933D01*
X008442Y005933D02*
X008355Y005845D01*
X008355Y005400D01*
X008355Y004150D01*
X008355Y002900D01*
X008355Y002455D01*
X009916Y002455D01*
X010237Y002776D01*
X010533Y002776D01*
X010979Y002776D01*
X011029Y002810D02*
X011507Y002810D01*
X011424Y002908D02*
X011606Y002908D01*
X011704Y003007D02*
X011424Y003007D01*
X011405Y003105D02*
X011803Y003105D01*
X011941Y003354D02*
X011594Y003354D01*
X011424Y003524D01*
X010979Y003524D01*
X010533Y003499D02*
X010390Y003499D01*
X010292Y003401D02*
X010533Y003401D01*
X010533Y003302D02*
X010193Y003302D01*
X010095Y003204D02*
X010536Y003204D01*
X010552Y003105D02*
X009996Y003105D01*
X009898Y003007D02*
X010533Y003007D01*
X010533Y002908D02*
X009799Y002908D01*
X009701Y002810D02*
X010929Y002810D01*
X010929Y002711D02*
X011029Y002711D01*
X011029Y002613D02*
X010929Y002613D01*
X010929Y002514D02*
X011029Y002514D01*
X011029Y002416D02*
X010929Y002416D01*
X011015Y002317D02*
X010516Y002317D01*
X010527Y002219D02*
X010916Y002219D01*
X010818Y002120D02*
X010514Y002120D01*
X010473Y002022D02*
X010648Y002022D01*
X010549Y001923D02*
X010373Y001923D01*
X010451Y001825D02*
X010063Y001825D01*
X009965Y001726D02*
X010352Y001726D01*
X010254Y001628D02*
X009866Y001628D01*
X009768Y001529D02*
X010155Y001529D01*
X010057Y001431D02*
X009509Y001431D01*
X009509Y001332D02*
X009958Y001332D01*
X009973Y001064D02*
X009973Y000900D01*
X009973Y001064D02*
X009436Y001064D01*
X009272Y000900D01*
X008984Y000900D01*
X008473Y000900D02*
X008473Y001227D01*
X008355Y001345D01*
X008355Y001650D01*
X007949Y001650D01*
X006703Y001650D01*
X005953Y002400D01*
X005645Y002400D01*
X003560Y004485D01*
X002305Y004485D01*
X002305Y005150D01*
X002277Y005174D02*
X001679Y005174D01*
X001679Y005272D02*
X001898Y005272D01*
X001898Y005179D02*
X002277Y005179D01*
X002277Y005815D01*
X002273Y005815D01*
X002210Y005805D01*
X002149Y005785D01*
X002092Y005756D01*
X002040Y005718D01*
X001995Y005673D01*
X001957Y005621D01*
X001928Y005564D01*
X001908Y005503D01*
X001898Y005440D01*
X001898Y005179D01*
X001898Y005121D02*
X001898Y004860D01*
X001908Y004797D01*
X001928Y004736D01*
X001957Y004679D01*
X001995Y004627D01*
X002040Y004582D01*
X002092Y004544D01*
X002149Y004515D01*
X002210Y004495D01*
X002273Y004485D01*
X002277Y004485D01*
X002277Y005121D01*
X002334Y005121D01*
X002334Y004485D01*
X002337Y004485D01*
X002401Y004495D01*
X002462Y004515D01*
X002519Y004544D01*
X002571Y004582D01*
X002616Y004627D01*
X002654Y004679D01*
X002683Y004736D01*
X002703Y004797D01*
X002713Y004860D01*
X002713Y005121D01*
X002334Y005121D01*
X002334Y005179D01*
X002277Y005179D01*
X002277Y005121D01*
X001898Y005121D01*
X001898Y005075D02*
X001679Y005075D01*
X001679Y004977D02*
X001898Y004977D01*
X001898Y004878D02*
X001679Y004878D01*
X001679Y004780D02*
X001914Y004780D01*
X001956Y004681D02*
X001679Y004681D01*
X001679Y004583D02*
X002039Y004583D01*
X002277Y004583D02*
X002334Y004583D01*
X002334Y004681D02*
X002277Y004681D01*
X002277Y004780D02*
X002334Y004780D01*
X002334Y004878D02*
X002277Y004878D01*
X002277Y004977D02*
X002334Y004977D01*
X002334Y005075D02*
X002277Y005075D01*
X002334Y005174D02*
X005841Y005174D01*
X005841Y005272D02*
X002713Y005272D01*
X002713Y005179D02*
X002713Y005440D01*
X002703Y005503D01*
X002683Y005564D01*
X002654Y005621D01*
X002616Y005673D01*
X002571Y005718D01*
X002519Y005756D01*
X002462Y005785D01*
X002401Y005805D01*
X002337Y005815D01*
X002334Y005815D01*
X002334Y005179D01*
X002713Y005179D01*
X002713Y005075D02*
X005841Y005075D01*
X005841Y004977D02*
X002713Y004977D01*
X002713Y004878D02*
X005841Y004878D01*
X005841Y004780D02*
X002697Y004780D01*
X002655Y004681D02*
X005841Y004681D01*
X005841Y004583D02*
X002572Y004583D01*
X002334Y005272D02*
X002277Y005272D01*
X002277Y005371D02*
X002334Y005371D01*
X002334Y005469D02*
X002277Y005469D01*
X002277Y005568D02*
X002334Y005568D01*
X002334Y005666D02*
X002277Y005666D01*
X002277Y005765D02*
X002334Y005765D01*
X002502Y005765D02*
X005841Y005765D01*
X005841Y005863D02*
X005328Y005863D01*
X005313Y005848D02*
X005428Y005962D01*
X005490Y006112D01*
X005490Y006274D01*
X005428Y006424D01*
X005313Y006539D01*
X005164Y006601D01*
X004487Y006601D01*
X004337Y006539D01*
X004222Y006424D01*
X004160Y006274D01*
X004160Y006112D01*
X004222Y005962D01*
X004337Y005848D01*
X004487Y005786D01*
X005164Y005786D01*
X005313Y005848D01*
X005427Y005962D02*
X005841Y005962D01*
X005841Y006060D02*
X005468Y006060D01*
X005490Y006159D02*
X005841Y006159D01*
X005841Y006257D02*
X005490Y006257D01*
X005456Y006356D02*
X005841Y006356D01*
X005841Y006454D02*
X005398Y006454D01*
X005280Y006553D02*
X005841Y006553D01*
X005841Y006651D02*
X001679Y006651D01*
X001679Y006553D02*
X004370Y006553D01*
X004252Y006454D02*
X001679Y006454D01*
X001679Y006356D02*
X004194Y006356D01*
X004160Y006257D02*
X001679Y006257D01*
X001679Y006159D02*
X004160Y006159D01*
X004182Y006060D02*
X001679Y006060D01*
X001679Y005962D02*
X004223Y005962D01*
X004322Y005863D02*
X001679Y005863D01*
X001679Y005765D02*
X002109Y005765D01*
X001990Y005666D02*
X001679Y005666D01*
X001679Y005568D02*
X001930Y005568D01*
X001903Y005469D02*
X001679Y005469D01*
X001679Y005371D02*
X001898Y005371D01*
X002621Y005666D02*
X005841Y005666D01*
X005841Y005568D02*
X002681Y005568D01*
X002708Y005469D02*
X005841Y005469D01*
X005841Y005371D02*
X002713Y005371D01*
X001679Y004484D02*
X005841Y004484D01*
X005841Y004386D02*
X001679Y004386D01*
X001679Y004287D02*
X005841Y004287D01*
X005841Y004189D02*
X001679Y004189D01*
X001679Y004090D02*
X005841Y004090D01*
X005841Y003992D02*
X001679Y003992D01*
X001679Y003893D02*
X005841Y003893D01*
X005841Y003795D02*
X001679Y003795D01*
X001679Y003696D02*
X003108Y003696D01*
X003116Y003704D02*
X003002Y003589D01*
X002940Y003440D01*
X002940Y003278D01*
X003002Y003128D01*
X003116Y003013D01*
X003266Y002951D01*
X003943Y002951D01*
X004093Y003013D01*
X004207Y003128D01*
X004270Y003278D01*
X004270Y003440D01*
X004207Y003589D01*
X004093Y003704D01*
X003943Y003766D01*
X003266Y003766D01*
X003116Y003704D01*
X003010Y003598D02*
X001679Y003598D01*
X001679Y003499D02*
X002964Y003499D01*
X002940Y003401D02*
X001679Y003401D01*
X001679Y003302D02*
X002940Y003302D01*
X002970Y003204D02*
X001679Y003204D01*
X001679Y003105D02*
X003024Y003105D01*
X003132Y003007D02*
X001679Y003007D01*
X001679Y002908D02*
X006060Y002908D01*
X005962Y003007D02*
X004077Y003007D01*
X004185Y003105D02*
X005863Y003105D01*
X005841Y003204D02*
X004239Y003204D01*
X004270Y003302D02*
X005841Y003302D01*
X005841Y003401D02*
X004270Y003401D01*
X004245Y003499D02*
X005841Y003499D01*
X005841Y003598D02*
X004199Y003598D01*
X004101Y003696D02*
X005841Y003696D01*
X006241Y003992D02*
X006261Y003992D01*
X006241Y004090D02*
X006317Y004090D01*
X006241Y004189D02*
X006430Y004189D01*
X006241Y004287D02*
X007949Y004287D01*
X007949Y004386D02*
X006241Y004386D01*
X006241Y004484D02*
X007954Y004484D01*
X008036Y004583D02*
X006241Y004583D01*
X006241Y004681D02*
X010573Y004681D01*
X010529Y004780D02*
X006241Y004780D01*
X006241Y004878D02*
X010515Y004878D01*
X010524Y004977D02*
X009442Y004977D01*
X009509Y005075D02*
X010565Y005075D01*
X010659Y005174D02*
X009509Y005174D01*
X009509Y005400D02*
X009103Y005400D01*
X009509Y005400D02*
X011546Y005400D01*
X011901Y005046D01*
X012580Y005046D01*
X012580Y005302D02*
X012235Y005302D01*
X012235Y005354D01*
X012082Y005507D01*
X012320Y005765D02*
X012354Y005765D01*
X012580Y005765D02*
X012580Y005765D01*
X012580Y005666D02*
X012580Y005666D01*
X012580Y005568D02*
X012580Y005568D01*
X012580Y005557D02*
X012580Y005557D01*
X012806Y005765D02*
X012831Y005765D01*
X013296Y005929D02*
X013296Y005929D01*
X013657Y005567D01*
X013736Y005567D01*
X013736Y005557D01*
X013736Y004158D01*
X013736Y003810D01*
X013601Y003674D01*
X014532Y002743D01*
X014877Y002743D01*
X014877Y002743D01*
X014877Y002533D01*
X014663Y002533D01*
X014632Y002541D01*
X014629Y002538D01*
X014594Y002518D01*
X014556Y002508D01*
X013786Y002508D01*
X013786Y004108D01*
X013686Y004108D01*
X013686Y002508D01*
X012917Y002508D01*
X012879Y002518D01*
X012844Y002538D01*
X012843Y002539D01*
X012837Y002533D01*
X012378Y002533D01*
X012432Y002479D01*
X014828Y002479D01*
X014882Y002533D01*
X014877Y002533D01*
X014877Y002743D01*
X014877Y002711D02*
X014877Y002711D01*
X014877Y002613D02*
X014877Y002613D01*
X014864Y002514D02*
X014579Y002514D01*
X014911Y002279D02*
X015222Y002590D01*
X015222Y003254D01*
X014877Y003254D01*
X014877Y003510D02*
X015252Y003510D01*
X015431Y003332D01*
X015431Y001650D01*
X010907Y001650D01*
X010484Y001227D01*
X010484Y000900D01*
X010772Y000938D02*
X026617Y000938D01*
X026616Y000939D02*
X026758Y000693D01*
X026851Y000600D01*
X010712Y000600D01*
X010772Y000661D01*
X010772Y001139D01*
X010726Y001186D01*
X010990Y001450D01*
X016199Y001450D01*
X016199Y001293D01*
X016287Y001205D01*
X016405Y001205D01*
X016405Y001122D01*
X016522Y001005D01*
X019960Y001005D01*
X020077Y001122D01*
X022376Y003420D01*
X022557Y003239D01*
X024378Y003239D01*
X024495Y003356D01*
X024863Y003724D01*
X024895Y003644D01*
X025022Y003518D01*
X025188Y003449D01*
X025368Y003449D01*
X025533Y003518D01*
X025660Y003644D01*
X025729Y003810D01*
X025729Y003990D01*
X025660Y004156D01*
X025533Y004282D01*
X025368Y004351D01*
X025188Y004351D01*
X025022Y004282D01*
X024895Y004156D01*
X024887Y004136D01*
X024887Y004414D01*
X026679Y006205D01*
X026679Y007242D01*
X027343Y007242D01*
X027314Y007252D02*
X027378Y007231D01*
X027439Y007221D01*
X027439Y007610D01*
X027519Y007610D01*
X027519Y007690D01*
X027908Y007690D01*
X027898Y007751D01*
X027877Y007815D01*
X027846Y007875D01*
X027807Y007930D01*
X027759Y007978D01*
X027704Y008018D01*
X027644Y008048D01*
X027579Y008069D01*
X027519Y008079D01*
X027519Y007690D01*
X027439Y007690D01*
X027439Y008079D01*
X027378Y008069D01*
X027314Y008048D01*
X027253Y008018D01*
X027198Y007978D01*
X027151Y007930D01*
X027111Y007875D01*
X027080Y007815D01*
X027059Y007751D01*
X027050Y007690D01*
X027439Y007690D01*
X027439Y007610D01*
X027050Y007610D01*
X027059Y007549D01*
X027080Y007485D01*
X027111Y007425D01*
X027151Y007370D01*
X027198Y007322D01*
X027253Y007282D01*
X027314Y007252D01*
X027439Y007242D02*
X027519Y007242D01*
X027519Y007221D02*
X027579Y007231D01*
X027644Y007252D01*
X027704Y007282D01*
X027759Y007322D01*
X027807Y007370D01*
X027846Y007425D01*
X027877Y007485D01*
X027898Y007549D01*
X027908Y007610D01*
X027519Y007610D01*
X027519Y007221D01*
X027614Y007242D02*
X028338Y007242D01*
X028338Y007144D02*
X026679Y007144D01*
X026679Y007242D02*
X026909Y007472D01*
X026909Y007828D01*
X026657Y008080D01*
X026300Y008080D01*
X026049Y007828D01*
X026049Y007472D01*
X026279Y007242D01*
X026279Y006371D01*
X024604Y004697D01*
X024487Y004580D01*
X024487Y004136D01*
X024479Y004156D01*
X024352Y004282D01*
X024186Y004351D01*
X024079Y004351D01*
X025506Y005778D01*
X025506Y007612D01*
X025389Y007729D01*
X025240Y007878D01*
X025306Y007944D01*
X025306Y008344D01*
X025250Y008400D01*
X025276Y008426D01*
X025296Y008460D01*
X025306Y008498D01*
X025306Y008637D01*
X024997Y008637D01*
X024997Y008675D01*
X024960Y008675D01*
X024960Y008944D01*
X024782Y008944D01*
X024744Y008933D01*
X024729Y008925D01*
X024714Y008933D01*
X024675Y008944D01*
X024497Y008944D01*
X024497Y008675D01*
X024460Y008675D01*
X024460Y008944D01*
X024282Y008944D01*
X024244Y008933D01*
X024229Y008925D01*
X024214Y008933D01*
X024175Y008944D01*
X024012Y008944D01*
X025519Y010450D01*
X026070Y010450D01*
X026300Y010220D01*
X026657Y010220D01*
X026909Y010472D01*
X026909Y010828D01*
X026717Y011020D01*
X026767Y011020D01*
X027061Y011315D01*
X027134Y011387D01*
X027300Y011220D01*
X027657Y011220D01*
X027909Y011472D01*
X027909Y011828D01*
X027731Y012005D01*
X028110Y012384D01*
X028110Y014918D01*
X027993Y015035D01*
X027438Y015590D01*
X023099Y015590D01*
X022899Y015390D01*
X022899Y012621D01*
X022689Y012410D01*
X022359Y012410D01*
X022739Y012410D01*
X022739Y012500D01*
X022728Y012538D01*
X022709Y012572D01*
X022681Y012600D01*
X022646Y012620D01*
X022608Y012630D01*
X022359Y012630D01*
X022359Y012410D01*
X022359Y012410D01*
X022739Y012410D01*
X022739Y012350D01*
X022821Y012350D01*
X022939Y012233D01*
X022939Y011948D01*
X023023Y012032D01*
X023023Y014917D01*
X023578Y015473D01*
X023695Y015590D01*
X027438Y015590D01*
X028125Y014903D01*
X028125Y010674D01*
X027670Y010220D01*
X027424Y010220D01*
X026944Y009740D01*
X026944Y008214D01*
X025747Y008214D01*
X025306Y008656D01*
X024979Y008656D01*
X024479Y008656D01*
X023979Y008656D01*
X023997Y008675D02*
X024306Y008675D01*
X024460Y008675D01*
X024460Y008637D01*
X023997Y008637D01*
X023997Y008675D01*
X024084Y009015D02*
X026235Y009015D01*
X026300Y009080D02*
X026049Y008828D01*
X026049Y008472D01*
X026300Y008220D01*
X026657Y008220D01*
X026909Y008472D01*
X026909Y008828D01*
X026657Y009080D01*
X026300Y009080D01*
X026300Y009220D02*
X026657Y009220D01*
X026909Y009472D01*
X026909Y009828D01*
X026657Y010080D01*
X026300Y010080D01*
X026049Y009828D01*
X026049Y009472D01*
X026300Y009220D01*
X026210Y009311D02*
X024379Y009311D01*
X024478Y009409D02*
X026111Y009409D01*
X026049Y009508D02*
X024576Y009508D01*
X024675Y009606D02*
X026049Y009606D01*
X026049Y009705D02*
X024773Y009705D01*
X024872Y009803D02*
X026049Y009803D01*
X026122Y009902D02*
X024970Y009902D01*
X025069Y010000D02*
X026220Y010000D01*
X026225Y010296D02*
X025364Y010296D01*
X025463Y010394D02*
X026126Y010394D01*
X026479Y010650D02*
X025436Y010650D01*
X023345Y008559D01*
X023345Y007400D01*
X022860Y007400D01*
X022860Y006900D02*
X022281Y006900D01*
X022219Y006838D01*
X021376Y006400D02*
X019097Y006400D01*
X019521Y006149D02*
X019571Y006200D01*
X021293Y006200D01*
X022176Y005317D01*
X022176Y003786D01*
X019794Y001405D01*
X017759Y001405D01*
X017759Y001600D01*
X017403Y001600D01*
X017403Y001700D01*
X017759Y001700D01*
X017759Y001965D01*
X017748Y002003D01*
X017729Y002037D01*
X017701Y002065D01*
X017666Y002085D01*
X017628Y002095D01*
X017403Y002095D01*
X017403Y001700D01*
X017303Y001700D01*
X017303Y002095D01*
X017077Y002095D01*
X017039Y002085D01*
X017005Y002065D01*
X016979Y002039D01*
X016923Y002095D01*
X016287Y002095D01*
X016199Y002007D01*
X016199Y001850D01*
X015631Y001850D01*
X015631Y003185D01*
X015999Y002817D01*
X016116Y002700D01*
X016199Y002700D01*
X016199Y002543D01*
X016287Y002455D01*
X016923Y002455D01*
X016979Y002511D01*
X017005Y002485D01*
X017039Y002465D01*
X017077Y002455D01*
X017303Y002455D01*
X017303Y002850D01*
X017403Y002850D01*
X017403Y002950D01*
X017759Y002950D01*
X017759Y003215D01*
X017748Y003253D01*
X017729Y003287D01*
X017701Y003315D01*
X017666Y003335D01*
X017628Y003345D01*
X017403Y003345D01*
X017403Y002950D01*
X017303Y002950D01*
X017303Y003345D01*
X017077Y003345D01*
X017039Y003335D01*
X017005Y003315D01*
X016979Y003289D01*
X016923Y003345D01*
X016287Y003345D01*
X016199Y003257D01*
X016199Y003183D01*
X015559Y003822D01*
X016154Y003822D01*
X016199Y003867D01*
X016199Y003793D01*
X016287Y003705D01*
X016923Y003705D01*
X016979Y003761D01*
X017005Y003735D01*
X017039Y003715D01*
X017077Y003705D01*
X017303Y003705D01*
X017303Y004100D01*
X017403Y004100D01*
X017403Y004200D01*
X017759Y004200D01*
X017759Y004465D01*
X017748Y004503D01*
X017729Y004537D01*
X017701Y004565D01*
X017666Y004585D01*
X017628Y004595D01*
X017403Y004595D01*
X017403Y004200D01*
X017303Y004200D01*
X017303Y004595D01*
X017077Y004595D01*
X017039Y004585D01*
X017005Y004565D01*
X016979Y004539D01*
X016923Y004595D01*
X016287Y004595D01*
X016199Y004507D01*
X016199Y004350D01*
X016116Y004350D01*
X015988Y004222D01*
X015687Y004222D01*
X015725Y004313D01*
X015725Y004453D01*
X015687Y004545D01*
X015852Y004545D01*
X016274Y004967D01*
X016287Y004955D01*
X016923Y004955D01*
X016979Y005011D01*
X017005Y004985D01*
X017039Y004965D01*
X017077Y004955D01*
X017303Y004955D01*
X017303Y005350D01*
X017403Y005350D01*
X017403Y005450D01*
X017759Y005450D01*
X017759Y005476D01*
X018412Y004822D01*
X018412Y004817D01*
X018529Y004700D01*
X018622Y004700D01*
X018672Y004650D01*
X018622Y004600D01*
X018529Y004600D01*
X018082Y004153D01*
X018082Y003469D01*
X017985Y003372D01*
X017932Y003243D01*
X017932Y003104D01*
X017985Y002975D01*
X018084Y002877D01*
X018213Y002824D01*
X018352Y002824D01*
X018480Y002877D01*
X018579Y002975D01*
X018632Y003104D01*
X018632Y003243D01*
X018579Y003372D01*
X018482Y003469D01*
X018482Y003987D01*
X018658Y004164D01*
X018672Y004150D01*
X018612Y004090D01*
X018585Y004090D01*
X018612Y004090D02*
X018612Y003710D01*
X018700Y003622D01*
X019493Y003622D01*
X019581Y003710D01*
X019581Y004090D01*
X022176Y004090D01*
X022176Y003992D02*
X019581Y003992D01*
X019581Y004090D02*
X019521Y004150D01*
X019581Y004210D01*
X019581Y004590D01*
X019521Y004650D01*
X019581Y004710D01*
X019581Y005090D01*
X019521Y005150D01*
X019581Y005210D01*
X019581Y005590D01*
X019521Y005651D01*
X019523Y005652D01*
X019551Y005680D01*
X019571Y005714D01*
X019581Y005752D01*
X019581Y005886D01*
X019111Y005886D01*
X019111Y005914D01*
X019581Y005914D01*
X019581Y006048D01*
X019571Y006086D01*
X019551Y006120D01*
X019523Y006148D01*
X019521Y006149D01*
X019530Y006159D02*
X021334Y006159D01*
X021433Y006060D02*
X019578Y006060D01*
X019581Y005962D02*
X021531Y005962D01*
X021630Y005863D02*
X019581Y005863D01*
X019581Y005900D02*
X019097Y005900D01*
X018612Y005900D01*
X016824Y007688D01*
X015895Y007688D01*
X013774Y005567D01*
X013736Y005567D01*
X013686Y005568D02*
X013786Y005568D01*
X013786Y005666D02*
X013686Y005666D01*
X013686Y005765D02*
X013786Y005765D01*
X013786Y005469D02*
X013686Y005469D01*
X013686Y005371D02*
X013786Y005371D01*
X013786Y005272D02*
X013686Y005272D01*
X013686Y005174D02*
X013786Y005174D01*
X013786Y005075D02*
X013686Y005075D01*
X013686Y004977D02*
X013786Y004977D01*
X013786Y004878D02*
X013686Y004878D01*
X013686Y004780D02*
X013786Y004780D01*
X013786Y004681D02*
X013686Y004681D01*
X013686Y004583D02*
X013786Y004583D01*
X013786Y004484D02*
X013686Y004484D01*
X013686Y004386D02*
X013786Y004386D01*
X013786Y004287D02*
X013686Y004287D01*
X013686Y004090D02*
X013786Y004090D01*
X013786Y003992D02*
X013686Y003992D01*
X013686Y003893D02*
X013786Y003893D01*
X013786Y003795D02*
X013686Y003795D01*
X013686Y003696D02*
X013786Y003696D01*
X013786Y003598D02*
X013686Y003598D01*
X013686Y003499D02*
X013786Y003499D01*
X013786Y003401D02*
X013686Y003401D01*
X013686Y003302D02*
X013786Y003302D01*
X013786Y003204D02*
X013686Y003204D01*
X013686Y003105D02*
X013786Y003105D01*
X013786Y003007D02*
X013686Y003007D01*
X013686Y002908D02*
X013786Y002908D01*
X013786Y002810D02*
X013686Y002810D01*
X013686Y002711D02*
X013786Y002711D01*
X013786Y002613D02*
X013686Y002613D01*
X013686Y002514D02*
X013786Y002514D01*
X012894Y002514D02*
X012396Y002514D01*
X012137Y002279D02*
X014911Y002279D01*
X015631Y002317D02*
X020707Y002317D01*
X020805Y002416D02*
X015631Y002416D01*
X015631Y002514D02*
X016227Y002514D01*
X016199Y002613D02*
X015631Y002613D01*
X015631Y002711D02*
X016105Y002711D01*
X016006Y002810D02*
X015631Y002810D01*
X015631Y002908D02*
X015908Y002908D01*
X015809Y003007D02*
X015631Y003007D01*
X015631Y003105D02*
X015711Y003105D01*
X015981Y003401D02*
X018014Y003401D01*
X017957Y003302D02*
X017714Y003302D01*
X017759Y003204D02*
X017932Y003204D01*
X017932Y003105D02*
X017759Y003105D01*
X017759Y003007D02*
X017973Y003007D01*
X018053Y002908D02*
X017403Y002908D01*
X017353Y002900D02*
X017556Y002900D01*
X017759Y002900D01*
X017835Y002824D01*
X018700Y002824D01*
X019581Y003705D01*
X019581Y005900D01*
X019581Y005765D02*
X021728Y005765D01*
X021827Y005666D02*
X019537Y005666D01*
X019581Y005568D02*
X021925Y005568D01*
X022024Y005469D02*
X019581Y005469D01*
X019581Y005371D02*
X022122Y005371D01*
X022176Y005272D02*
X019581Y005272D01*
X019545Y005174D02*
X022176Y005174D01*
X022176Y005075D02*
X019581Y005075D01*
X019581Y004977D02*
X022176Y004977D01*
X022176Y004878D02*
X019581Y004878D01*
X019581Y004780D02*
X022176Y004780D01*
X022176Y004681D02*
X019552Y004681D01*
X019581Y004583D02*
X022176Y004583D01*
X022176Y004484D02*
X019581Y004484D01*
X019581Y004386D02*
X022176Y004386D01*
X022176Y004287D02*
X019581Y004287D01*
X019560Y004189D02*
X022176Y004189D01*
X022176Y003893D02*
X019581Y003893D01*
X019581Y003795D02*
X022176Y003795D01*
X022086Y003696D02*
X019567Y003696D01*
X019097Y004400D02*
X018612Y004400D01*
X018282Y004070D01*
X018282Y003174D01*
X018608Y003302D02*
X021692Y003302D01*
X021790Y003401D02*
X018550Y003401D01*
X018482Y003499D02*
X021889Y003499D01*
X021987Y003598D02*
X018482Y003598D01*
X018482Y003696D02*
X018626Y003696D01*
X018612Y003795D02*
X018482Y003795D01*
X018482Y003893D02*
X018612Y003893D01*
X018612Y003992D02*
X018486Y003992D01*
X018216Y004287D02*
X017759Y004287D01*
X017759Y004386D02*
X018315Y004386D01*
X018413Y004484D02*
X017753Y004484D01*
X017671Y004583D02*
X018512Y004583D01*
X018641Y004681D02*
X015988Y004681D01*
X015890Y004583D02*
X016274Y004583D01*
X016199Y004484D02*
X015712Y004484D01*
X015725Y004386D02*
X016199Y004386D01*
X016053Y004287D02*
X015714Y004287D01*
X015375Y004383D02*
X015222Y004383D01*
X015222Y004278D01*
X014877Y004278D01*
X014877Y004534D02*
X015172Y004534D01*
X015222Y004484D01*
X015222Y004383D01*
X015268Y004745D02*
X015769Y004745D01*
X016199Y005174D01*
X016199Y005400D01*
X016605Y005400D01*
X016944Y004977D02*
X017019Y004977D01*
X017303Y004977D02*
X017403Y004977D01*
X017403Y004955D02*
X017628Y004955D01*
X017666Y004965D01*
X017701Y004985D01*
X017729Y005013D01*
X017748Y005047D01*
X017759Y005085D01*
X017759Y005350D01*
X017403Y005350D01*
X017403Y004955D01*
X017403Y005075D02*
X017303Y005075D01*
X017303Y005174D02*
X017403Y005174D01*
X017403Y005272D02*
X017303Y005272D01*
X017353Y005400D02*
X017353Y004150D01*
X017353Y003103D01*
X017556Y002900D01*
X017403Y002850D02*
X017759Y002850D01*
X017759Y002585D01*
X017748Y002547D01*
X017729Y002513D01*
X017701Y002485D01*
X017666Y002465D01*
X017628Y002455D01*
X017403Y002455D01*
X017403Y002850D01*
X017403Y002810D02*
X017303Y002810D01*
X017303Y002711D02*
X017403Y002711D01*
X017403Y002613D02*
X017303Y002613D01*
X017303Y002514D02*
X017403Y002514D01*
X017729Y002514D02*
X020904Y002514D01*
X021002Y002613D02*
X017759Y002613D01*
X017759Y002711D02*
X021101Y002711D01*
X021199Y002810D02*
X017759Y002810D01*
X017403Y003007D02*
X017303Y003007D01*
X017303Y003105D02*
X017403Y003105D01*
X017403Y003204D02*
X017303Y003204D01*
X017303Y003302D02*
X017403Y003302D01*
X017403Y003705D02*
X017628Y003705D01*
X017666Y003715D01*
X017701Y003735D01*
X017729Y003763D01*
X017748Y003797D01*
X017759Y003835D01*
X017759Y004100D01*
X017403Y004100D01*
X017403Y003705D01*
X017403Y003795D02*
X017303Y003795D01*
X017303Y003893D02*
X017403Y003893D01*
X017403Y003992D02*
X017303Y003992D01*
X017303Y004090D02*
X017403Y004090D01*
X017403Y004189D02*
X018118Y004189D01*
X018082Y004090D02*
X017759Y004090D01*
X017759Y003992D02*
X018082Y003992D01*
X018082Y003893D02*
X017759Y003893D01*
X017747Y003795D02*
X018082Y003795D01*
X018082Y003696D02*
X015685Y003696D01*
X015587Y003795D02*
X016199Y003795D01*
X016071Y004022D02*
X016199Y004150D01*
X016605Y004150D01*
X016071Y004022D02*
X014877Y004022D01*
X014877Y003766D02*
X015332Y003766D01*
X016199Y002900D01*
X016605Y002900D01*
X016199Y003204D02*
X016178Y003204D01*
X016243Y003302D02*
X016079Y003302D01*
X015882Y003499D02*
X018082Y003499D01*
X018082Y003598D02*
X015784Y003598D01*
X016966Y003302D02*
X016991Y003302D01*
X017353Y002900D02*
X017353Y002095D01*
X017353Y001650D01*
X017403Y001628D02*
X020017Y001628D01*
X020116Y001726D02*
X017759Y001726D01*
X017759Y001825D02*
X020214Y001825D01*
X020313Y001923D02*
X017759Y001923D01*
X017738Y002022D02*
X020411Y002022D01*
X020510Y002120D02*
X015631Y002120D01*
X015631Y002022D02*
X016213Y002022D01*
X016199Y001923D02*
X015631Y001923D01*
X015631Y002219D02*
X020608Y002219D01*
X020878Y001923D02*
X026702Y001923D01*
X026758Y002019D02*
X026616Y001773D01*
X026542Y001498D01*
X026542Y001214D01*
X026616Y000939D01*
X026590Y001037D02*
X019992Y001037D01*
X020090Y001135D02*
X026564Y001135D01*
X026542Y001234D02*
X020189Y001234D01*
X020287Y001332D02*
X026542Y001332D01*
X026542Y001431D02*
X020386Y001431D01*
X020484Y001529D02*
X026551Y001529D01*
X026577Y001628D02*
X020583Y001628D01*
X020681Y001726D02*
X026603Y001726D01*
X026646Y001825D02*
X020780Y001825D01*
X020977Y002022D02*
X026760Y002022D01*
X026758Y002019D02*
X026959Y002220D01*
X027205Y002363D01*
X027480Y002436D01*
X027764Y002436D01*
X028039Y002363D01*
X028285Y002220D01*
X028338Y002168D01*
X028338Y021248D01*
X028179Y021089D01*
X027933Y020947D01*
X027658Y020873D01*
X027374Y020873D01*
X027099Y020947D01*
X026853Y021089D01*
X026652Y021290D01*
X026510Y021536D01*
X026436Y021811D01*
X026436Y022095D01*
X026510Y022370D01*
X026652Y022616D01*
X026767Y022731D01*
X013134Y022731D01*
X013196Y022706D01*
X013561Y022341D01*
X013692Y022471D01*
X013802Y022517D01*
X017441Y022517D01*
X017441Y022578D01*
X017529Y022666D01*
X018913Y022666D01*
X019001Y022578D01*
X019001Y022517D01*
X019160Y022517D01*
X019271Y022471D01*
X019355Y022387D01*
X019510Y022232D01*
X019770Y022232D01*
X019825Y022287D01*
X019909Y022371D01*
X020019Y022417D01*
X020945Y022417D01*
X021055Y022371D01*
X021899Y021527D01*
X021983Y021443D01*
X022029Y021333D01*
X022029Y020800D01*
X022076Y020800D01*
X022164Y020712D01*
X022164Y020228D01*
X022080Y020145D01*
X022106Y020130D01*
X022134Y020102D01*
X022153Y020068D01*
X022164Y020030D01*
X022164Y019870D01*
X021769Y019870D01*
X021769Y019790D01*
X022164Y019790D01*
X022164Y019630D01*
X022153Y019592D01*
X022134Y019558D01*
X022106Y019530D01*
X022071Y019510D01*
X022033Y019500D01*
X021769Y019500D01*
X021769Y019790D01*
X021689Y019790D01*
X021689Y019500D01*
X021424Y019500D01*
X021386Y019510D01*
X021351Y019530D01*
X021324Y019558D01*
X021304Y019592D01*
X021294Y019630D01*
X021294Y019790D01*
X021689Y019790D01*
X021689Y019870D01*
X021294Y019870D01*
X021294Y019948D01*
X021190Y019905D01*
X021051Y019905D01*
X020923Y019958D01*
X020851Y020030D01*
X020505Y020030D01*
X020374Y020162D01*
X020374Y020333D01*
X020339Y020368D01*
X020339Y021012D01*
X020374Y021047D01*
X020374Y021130D01*
X020338Y021165D01*
X020338Y021283D01*
X020304Y021283D01*
X020229Y021359D01*
X020194Y021324D01*
X020194Y021176D01*
X020159Y021090D01*
X020159Y020630D01*
X020119Y020534D01*
X020119Y020368D01*
X020031Y020280D01*
X019686Y020280D01*
X019599Y020368D01*
X019599Y020534D01*
X019559Y020630D01*
X019559Y021260D01*
X019588Y021331D01*
X019547Y021371D01*
X019547Y021632D01*
X019326Y021632D01*
X019216Y021677D01*
X019001Y021893D01*
X019001Y021856D01*
X018913Y021768D01*
X017529Y021768D01*
X017441Y021856D01*
X017441Y021917D01*
X013986Y021917D01*
X013827Y021758D01*
X013815Y021730D01*
X013731Y021646D01*
X013684Y021626D01*
X013744Y021567D01*
X013744Y021233D01*
X013661Y021150D01*
X013711Y021100D01*
X014360Y021100D01*
X014374Y021086D01*
X014442Y021155D01*
X014420Y021168D01*
X014392Y021196D01*
X014372Y021230D01*
X014362Y021268D01*
X014362Y021436D01*
X014680Y021436D01*
X014680Y021533D01*
X014362Y021533D01*
X014362Y021701D01*
X014372Y021739D01*
X014392Y021774D01*
X014420Y021802D01*
X014454Y021821D01*
X014492Y021831D01*
X014680Y021831D01*
X014680Y021533D01*
X014777Y021533D01*
X015095Y021533D01*
X015095Y021701D01*
X015085Y021739D01*
X015065Y021774D01*
X015037Y021802D01*
X015003Y021821D01*
X014965Y021831D01*
X014777Y021831D01*
X014777Y021533D01*
X014777Y021436D01*
X015095Y021436D01*
X015095Y021268D01*
X015085Y021230D01*
X015065Y021196D01*
X015037Y021168D01*
X015015Y021155D01*
X015095Y021074D01*
X015095Y020556D01*
X015007Y020469D01*
X014929Y020469D01*
X014929Y020331D01*
X015007Y020331D01*
X015095Y020244D01*
X015382Y020244D01*
X015382Y020263D02*
X015382Y020185D01*
X015095Y020185D01*
X015095Y020244D01*
X014929Y020343D02*
X015461Y020343D01*
X015470Y020351D02*
X015382Y020263D01*
X015470Y020351D02*
X015988Y020351D01*
X016075Y020263D01*
X016075Y019706D01*
X016019Y019650D01*
X016075Y019594D01*
X016075Y019037D01*
X015988Y018949D01*
X015828Y018949D01*
X015811Y018932D01*
X015196Y018932D01*
X015083Y019044D01*
X015007Y018969D01*
X014450Y018969D01*
X014362Y019056D01*
X014362Y019115D01*
X014279Y019115D01*
X014222Y019173D01*
X013219Y019173D01*
X013219Y018793D01*
X013131Y018705D01*
X013127Y018705D01*
X013163Y018618D01*
X013163Y018479D01*
X013110Y018350D01*
X013011Y018252D01*
X012883Y018198D01*
X012744Y018198D01*
X012615Y018252D01*
X012517Y018350D01*
X012463Y018479D01*
X012463Y018618D01*
X012499Y018705D01*
X012495Y018705D01*
X012475Y018725D01*
X012458Y018715D01*
X012420Y018705D01*
X012194Y018705D01*
X012194Y019100D01*
X012094Y019100D01*
X012094Y018705D01*
X011868Y018705D01*
X011830Y018715D01*
X011796Y018735D01*
X011768Y018763D01*
X011748Y018797D01*
X011738Y018835D01*
X011738Y019100D01*
X012094Y019100D01*
X012094Y019200D01*
X012094Y019595D01*
X011868Y019595D01*
X011830Y019585D01*
X011796Y019565D01*
X011768Y019537D01*
X011748Y019503D01*
X011738Y019465D01*
X011738Y019200D01*
X012094Y019200D01*
X012194Y019200D01*
X012194Y019595D01*
X012420Y019595D01*
X012458Y019585D01*
X012475Y019575D01*
X012495Y019595D01*
X013131Y019595D01*
X013154Y019573D01*
X013544Y019573D01*
X013544Y020145D01*
X012901Y020145D01*
X012814Y020233D01*
X012814Y020567D01*
X012896Y020650D01*
X012829Y020718D01*
X012829Y020680D01*
X012818Y020642D01*
X012799Y020608D01*
X012771Y020580D01*
X012736Y020560D01*
X012698Y020550D01*
X012279Y020550D01*
X012279Y021100D01*
X012279Y021200D01*
X012829Y021200D01*
X012829Y021218D01*
X012896Y021150D01*
X012829Y021082D01*
X012829Y021100D01*
X012279Y021100D01*
X012179Y021100D01*
X012179Y020550D01*
X011759Y020550D01*
X011721Y020560D01*
X011686Y020580D01*
X011659Y020608D01*
X011639Y020642D01*
X011629Y020680D01*
X011629Y020729D01*
X011614Y020703D01*
X011586Y020675D01*
X011551Y020655D01*
X011551Y020655D01*
X011556Y020655D01*
X011644Y020567D01*
X011644Y020233D01*
X011556Y020145D01*
X011347Y020145D01*
X011238Y020100D01*
X007828Y020100D01*
X007718Y020146D01*
X007108Y020756D01*
X007023Y020840D01*
X006978Y020950D01*
X006978Y021555D01*
X006964Y021555D01*
X006854Y021600D01*
X006784Y021670D01*
X006633Y021670D01*
X006457Y021743D01*
X006322Y021878D01*
X006249Y022055D01*
X006249Y022245D01*
X006322Y022422D01*
X006457Y022557D01*
X006633Y022630D01*
X006824Y022630D01*
X007000Y022557D01*
X007136Y022422D01*
X007209Y022245D01*
X007209Y022210D01*
X007370Y022371D01*
X007454Y022456D01*
X007565Y022501D01*
X007724Y022501D01*
X007724Y022578D01*
X007812Y022666D01*
X008269Y022666D01*
X008309Y022706D01*
X008371Y022731D01*
X003284Y022731D01*
X003299Y022716D01*
X003441Y022470D01*
X003515Y022195D01*
X003515Y021911D01*
X003441Y021636D01*
X003299Y021390D01*
X003098Y021189D01*
X002852Y021047D01*
X002577Y020973D01*
X002293Y020973D01*
X002018Y021047D01*
X001772Y021189D01*
X001679Y021282D01*
X001679Y021229D02*
X001732Y021229D01*
X001679Y021131D02*
X001873Y021131D01*
X001679Y021032D02*
X002073Y021032D01*
X001679Y020934D02*
X006985Y020934D01*
X006978Y021032D02*
X002797Y021032D01*
X002997Y021131D02*
X006978Y021131D01*
X006978Y021229D02*
X003138Y021229D01*
X003237Y021328D02*
X006978Y021328D01*
X006978Y021426D02*
X003320Y021426D01*
X003377Y021525D02*
X006978Y021525D01*
X006831Y021623D02*
X003434Y021623D01*
X003464Y021722D02*
X006509Y021722D01*
X006380Y021820D02*
X003490Y021820D01*
X003515Y021919D02*
X006305Y021919D01*
X006264Y022017D02*
X003515Y022017D01*
X003515Y022116D02*
X006249Y022116D01*
X006249Y022214D02*
X003510Y022214D01*
X003483Y022313D02*
X006276Y022313D01*
X006317Y022411D02*
X003457Y022411D01*
X003418Y022510D02*
X006409Y022510D01*
X006580Y022608D02*
X003361Y022608D01*
X003305Y022707D02*
X008311Y022707D01*
X007754Y022608D02*
X006877Y022608D01*
X007048Y022510D02*
X007724Y022510D01*
X007410Y022411D02*
X007140Y022411D01*
X007181Y022313D02*
X007311Y022313D01*
X007213Y022214D02*
X007209Y022214D01*
X007667Y021820D02*
X007728Y021820D01*
X007724Y021824D02*
X007812Y021736D01*
X008645Y021736D01*
X008733Y021824D01*
X008733Y022151D01*
X008882Y022151D01*
X008882Y021706D01*
X008938Y021650D01*
X008912Y021624D01*
X008892Y021590D01*
X008882Y021552D01*
X008882Y021364D01*
X009180Y021364D01*
X009180Y021267D01*
X008882Y021267D01*
X008882Y021079D01*
X008892Y021041D01*
X008912Y021007D01*
X008940Y020979D01*
X008974Y020959D01*
X009012Y020949D01*
X009180Y020949D01*
X009180Y021267D01*
X009277Y021267D01*
X009277Y021364D01*
X009575Y021364D01*
X009575Y021552D01*
X009565Y021590D01*
X009545Y021624D01*
X009519Y021650D01*
X009573Y021704D01*
X009577Y021700D01*
X010746Y021700D01*
X010796Y021650D01*
X010714Y021567D01*
X010714Y021233D01*
X010801Y021145D01*
X010807Y021145D01*
X010806Y021145D01*
X010771Y021125D01*
X010744Y021097D01*
X010724Y021063D01*
X010714Y021025D01*
X010714Y020903D01*
X011176Y020903D01*
X011176Y020897D01*
X010714Y020897D01*
X010714Y020775D01*
X010724Y020737D01*
X010744Y020703D01*
X010746Y020700D01*
X008708Y020700D01*
X008723Y020726D01*
X008733Y020764D01*
X008733Y021049D01*
X008279Y021049D01*
X008279Y021149D01*
X008733Y021149D01*
X008733Y021434D01*
X008723Y021472D01*
X008703Y021506D01*
X008675Y021534D01*
X008641Y021554D01*
X008603Y021564D01*
X008279Y021564D01*
X008279Y021149D01*
X008179Y021149D01*
X008179Y021564D01*
X007855Y021564D01*
X007816Y021554D01*
X007782Y021534D01*
X007754Y021506D01*
X007734Y021472D01*
X007724Y021434D01*
X007724Y021149D01*
X008179Y021149D01*
X008179Y021049D01*
X007724Y021049D01*
X007724Y020988D01*
X007578Y021134D01*
X007578Y021730D01*
X007724Y021877D01*
X007724Y021824D01*
X007578Y021722D02*
X008882Y021722D01*
X008882Y021820D02*
X008729Y021820D01*
X008733Y021919D02*
X008882Y021919D01*
X008882Y022017D02*
X008733Y022017D01*
X008733Y022116D02*
X008882Y022116D01*
X009229Y021985D02*
X009575Y021985D01*
X009660Y021900D01*
X011179Y021900D01*
X011559Y022151D02*
X012898Y022151D01*
X012814Y022067D01*
X012814Y021733D01*
X012896Y021650D01*
X012829Y021582D01*
X012829Y021620D01*
X012818Y021658D01*
X012799Y021692D01*
X012771Y021720D01*
X012736Y021740D01*
X012698Y021750D01*
X012279Y021750D01*
X012279Y021200D01*
X012179Y021200D01*
X012179Y021750D01*
X011759Y021750D01*
X011721Y021740D01*
X011686Y021720D01*
X011659Y021692D01*
X011639Y021658D01*
X011629Y021620D01*
X011629Y021582D01*
X011561Y021650D01*
X011644Y021733D01*
X011644Y022067D01*
X011559Y022151D01*
X011595Y022116D02*
X012862Y022116D01*
X012814Y022017D02*
X011644Y022017D01*
X011644Y021919D02*
X012814Y021919D01*
X012814Y021820D02*
X011644Y021820D01*
X011632Y021722D02*
X011689Y021722D01*
X011629Y021623D02*
X011588Y021623D01*
X011629Y021218D02*
X011629Y021200D01*
X012179Y021200D01*
X012179Y021100D01*
X011629Y021100D01*
X011629Y021071D01*
X011614Y021097D01*
X011586Y021125D01*
X011551Y021145D01*
X011556Y021145D01*
X011629Y021218D01*
X011576Y021131D02*
X012179Y021131D01*
X012229Y021150D02*
X011811Y020733D01*
X011644Y020900D01*
X011179Y020900D01*
X009991Y020900D01*
X009575Y021315D01*
X009229Y021315D01*
X008882Y021315D01*
X008882Y021248D01*
X008733Y021099D01*
X008229Y021099D01*
X008279Y021131D02*
X008882Y021131D01*
X008882Y021229D02*
X008733Y021229D01*
X008733Y021328D02*
X009180Y021328D01*
X009277Y021328D02*
X010714Y021328D01*
X010714Y021426D02*
X009575Y021426D01*
X009575Y021525D02*
X010714Y021525D01*
X010770Y021623D02*
X009546Y021623D01*
X009575Y021267D02*
X009277Y021267D01*
X009277Y020949D01*
X009445Y020949D01*
X009483Y020959D01*
X009518Y020979D01*
X009545Y021007D01*
X009565Y021041D01*
X009575Y021079D01*
X009575Y021267D01*
X009575Y021229D02*
X010717Y021229D01*
X010781Y021131D02*
X009575Y021131D01*
X009560Y021032D02*
X010716Y021032D01*
X010714Y020934D02*
X008733Y020934D01*
X008733Y021032D02*
X008897Y021032D01*
X008733Y020835D02*
X010714Y020835D01*
X010724Y020737D02*
X008726Y020737D01*
X009180Y021032D02*
X009277Y021032D01*
X009277Y021131D02*
X009180Y021131D01*
X009180Y021229D02*
X009277Y021229D01*
X008882Y021426D02*
X008733Y021426D01*
X008684Y021525D02*
X008882Y021525D01*
X008911Y021623D02*
X007578Y021623D01*
X007578Y021525D02*
X007773Y021525D01*
X007724Y021426D02*
X007578Y021426D01*
X007578Y021328D02*
X007724Y021328D01*
X007724Y021229D02*
X007578Y021229D01*
X007581Y021131D02*
X008179Y021131D01*
X008179Y021229D02*
X008279Y021229D01*
X008279Y021328D02*
X008179Y021328D01*
X008179Y021426D02*
X008279Y021426D01*
X008279Y021525D02*
X008179Y021525D01*
X007724Y021032D02*
X007680Y021032D01*
X007225Y020638D02*
X001679Y020638D01*
X001679Y020540D02*
X007324Y020540D01*
X007422Y020441D02*
X001679Y020441D01*
X001679Y020343D02*
X007521Y020343D01*
X007619Y020244D02*
X001679Y020244D01*
X001679Y020146D02*
X007718Y020146D01*
X007127Y020737D02*
X001679Y020737D01*
X001679Y020835D02*
X007028Y020835D01*
X005866Y019623D02*
X005700Y019692D01*
X005521Y019692D01*
X005355Y019623D01*
X005228Y019496D01*
X005159Y019330D01*
X005159Y019151D01*
X005228Y018985D01*
X005355Y018858D01*
X005521Y018789D01*
X005700Y018789D01*
X005866Y018858D01*
X005993Y018985D01*
X006062Y019151D01*
X006062Y019330D01*
X005993Y019496D01*
X005866Y019623D01*
X005794Y019653D02*
X013544Y019653D01*
X013544Y019752D02*
X001679Y019752D01*
X001679Y019850D02*
X013544Y019850D01*
X013544Y019949D02*
X001679Y019949D01*
X001679Y020047D02*
X013544Y020047D01*
X013744Y020400D02*
X013279Y020400D01*
X012901Y020146D02*
X011556Y020146D01*
X011644Y020244D02*
X012814Y020244D01*
X012814Y020343D02*
X011644Y020343D01*
X011644Y020441D02*
X012814Y020441D01*
X012814Y020540D02*
X011644Y020540D01*
X011641Y020638D02*
X011573Y020638D01*
X011811Y020733D02*
X011941Y020603D01*
X011941Y019150D01*
X012144Y019150D01*
X012094Y019161D02*
X006062Y019161D01*
X006062Y019259D02*
X011738Y019259D01*
X011738Y019358D02*
X006050Y019358D01*
X006010Y019456D02*
X011738Y019456D01*
X011785Y019555D02*
X005935Y019555D01*
X006025Y019062D02*
X011738Y019062D01*
X011738Y019150D02*
X011738Y018743D01*
X010473Y017477D01*
X010473Y017150D01*
X010185Y017150D01*
X009915Y016880D01*
X009196Y016880D01*
X008809Y016880D01*
X008258Y016880D01*
X008182Y016804D01*
X008058Y016600D02*
X008423Y016600D01*
X008423Y016561D02*
X008433Y016523D01*
X008453Y016489D01*
X008481Y016461D01*
X008515Y016441D01*
X008553Y016431D01*
X008759Y016431D01*
X008759Y016830D01*
X008859Y016830D01*
X008859Y016431D01*
X009065Y016431D01*
X009103Y016441D01*
X009138Y016461D01*
X009166Y016489D01*
X009185Y016523D01*
X009196Y016561D01*
X009196Y016830D01*
X008859Y016830D01*
X008859Y016930D01*
X009196Y016930D01*
X009196Y017199D01*
X009185Y017237D01*
X009166Y017272D01*
X009138Y017300D01*
X009103Y017319D01*
X009065Y017330D01*
X008859Y017330D01*
X008859Y016930D01*
X008759Y016930D01*
X008759Y016830D01*
X008423Y016830D01*
X008423Y016561D01*
X008446Y016501D02*
X008157Y016501D01*
X008255Y016403D02*
X009973Y016403D01*
X009973Y016501D02*
X009172Y016501D01*
X009196Y016600D02*
X009973Y016600D01*
X009973Y016698D02*
X009196Y016698D01*
X009196Y016797D02*
X010030Y016797D01*
X010128Y016895D02*
X008859Y016895D01*
X008859Y016797D02*
X008759Y016797D01*
X008759Y016895D02*
X007763Y016895D01*
X007861Y016797D02*
X008423Y016797D01*
X008423Y016698D02*
X007960Y016698D01*
X007664Y016994D02*
X008423Y016994D01*
X008423Y016930D02*
X008423Y017199D01*
X008433Y017237D01*
X008453Y017272D01*
X008481Y017300D01*
X008515Y017319D01*
X008553Y017330D01*
X008759Y017330D01*
X008759Y016930D01*
X008423Y016930D01*
X008423Y017092D02*
X007495Y017092D01*
X007495Y017191D02*
X008423Y017191D01*
X008470Y017289D02*
X007447Y017289D01*
X007495Y016880D02*
X007109Y016880D01*
X006722Y016880D01*
X006168Y017434D01*
X006168Y018155D01*
X005767Y018557D01*
X005113Y018557D01*
X004429Y019241D01*
X004105Y019555D02*
X003243Y019555D01*
X003130Y019620D02*
X003367Y019483D01*
X003561Y019289D01*
X003698Y019052D01*
X003769Y018787D01*
X003769Y018513D01*
X003698Y018248D01*
X003561Y018011D01*
X003367Y017817D01*
X003130Y017680D01*
X002866Y017609D01*
X002592Y017609D01*
X002327Y017680D01*
X002090Y017817D01*
X001896Y018011D01*
X001759Y018248D01*
X001688Y018513D01*
X001688Y018787D01*
X001759Y019052D01*
X001896Y019289D01*
X002090Y019483D01*
X002327Y019620D01*
X002592Y019691D01*
X002866Y019691D01*
X003130Y019620D01*
X003006Y019653D02*
X004246Y019653D01*
X004030Y019456D02*
X003394Y019456D01*
X003493Y019358D02*
X003989Y019358D01*
X003978Y019259D02*
X003578Y019259D01*
X003635Y019161D02*
X003978Y019161D01*
X004015Y019062D02*
X003692Y019062D01*
X003722Y018964D02*
X004068Y018964D01*
X004167Y018865D02*
X003748Y018865D01*
X003769Y018767D02*
X004621Y018767D01*
X004719Y018668D02*
X003769Y018668D01*
X003769Y018570D02*
X004818Y018570D01*
X004788Y018500D02*
X004750Y018511D01*
X004479Y018511D01*
X004479Y018109D01*
X004379Y018109D01*
X004379Y018009D01*
X004479Y018009D01*
X004479Y017608D01*
X004750Y017608D01*
X004788Y017618D01*
X004823Y017638D01*
X004851Y017666D01*
X004870Y017700D01*
X004881Y017739D01*
X004881Y018009D01*
X004479Y018009D01*
X004479Y018109D01*
X004881Y018109D01*
X004881Y018380D01*
X004870Y018419D01*
X004851Y018453D01*
X004823Y018481D01*
X004788Y018500D01*
X004832Y018471D02*
X004916Y018471D01*
X004881Y018373D02*
X005015Y018373D01*
X004881Y018274D02*
X005211Y018274D01*
X005170Y018176D02*
X004881Y018176D01*
X004881Y017979D02*
X005159Y017979D01*
X005159Y018077D02*
X004479Y018077D01*
X004479Y017979D02*
X004379Y017979D01*
X004379Y018009D02*
X004379Y017608D01*
X004108Y017608D01*
X004070Y017618D01*
X004036Y017638D01*
X004008Y017666D01*
X003988Y017700D01*
X003978Y017739D01*
X003978Y018009D01*
X004379Y018009D01*
X004379Y018077D02*
X003599Y018077D01*
X003656Y018176D02*
X003978Y018176D01*
X003978Y018109D02*
X004379Y018109D01*
X004379Y018511D01*
X004108Y018511D01*
X004070Y018500D01*
X004036Y018481D01*
X004008Y018453D01*
X003988Y018419D01*
X003978Y018380D01*
X003978Y018109D01*
X003978Y017979D02*
X003529Y017979D01*
X003430Y017880D02*
X003978Y017880D01*
X003978Y017782D02*
X003305Y017782D01*
X003135Y017683D02*
X003998Y017683D01*
X004379Y017683D02*
X004479Y017683D01*
X004479Y017782D02*
X004379Y017782D01*
X004379Y017880D02*
X004479Y017880D01*
X004479Y018176D02*
X004379Y018176D01*
X004379Y018274D02*
X004479Y018274D01*
X004479Y018373D02*
X004379Y018373D01*
X004379Y018471D02*
X004479Y018471D01*
X004026Y018471D02*
X003758Y018471D01*
X003731Y018373D02*
X003978Y018373D01*
X003978Y018274D02*
X003705Y018274D01*
X004881Y017880D02*
X005196Y017880D01*
X005250Y017782D02*
X004881Y017782D01*
X004860Y017683D02*
X005349Y017683D01*
X005410Y017585D02*
X001679Y017585D01*
X001679Y017683D02*
X002322Y017683D01*
X002152Y017782D02*
X001679Y017782D01*
X001679Y017880D02*
X002027Y017880D01*
X001928Y017979D02*
X001679Y017979D01*
X001679Y018077D02*
X001858Y018077D01*
X001801Y018176D02*
X001679Y018176D01*
X001679Y018274D02*
X001752Y018274D01*
X001726Y018373D02*
X001679Y018373D01*
X001679Y018471D02*
X001699Y018471D01*
X001688Y018570D02*
X001679Y018570D01*
X001679Y018668D02*
X001688Y018668D01*
X001679Y018767D02*
X001688Y018767D01*
X001679Y018865D02*
X001709Y018865D01*
X001735Y018964D02*
X001679Y018964D01*
X001679Y019062D02*
X001765Y019062D01*
X001822Y019161D02*
X001679Y019161D01*
X001679Y019259D02*
X001879Y019259D01*
X001965Y019358D02*
X001679Y019358D01*
X001679Y019456D02*
X002063Y019456D01*
X002214Y019555D02*
X001679Y019555D01*
X001679Y019653D02*
X002452Y019653D01*
X004613Y019653D02*
X005427Y019653D01*
X005286Y019555D02*
X004753Y019555D01*
X004828Y019456D02*
X005211Y019456D01*
X005171Y019358D02*
X004869Y019358D01*
X004881Y019259D02*
X005159Y019259D01*
X005159Y019161D02*
X004881Y019161D01*
X004891Y019062D02*
X005196Y019062D01*
X005249Y018964D02*
X004989Y018964D01*
X005088Y018865D02*
X005348Y018865D01*
X005186Y018767D02*
X011766Y018767D01*
X011738Y018743D02*
X012628Y017852D01*
X014519Y017852D01*
X014519Y015600D01*
X014469Y015550D01*
X014079Y015550D01*
X014519Y015550D01*
X014079Y015550D01*
X014079Y015550D01*
X014079Y015290D01*
X014079Y015290D01*
X013859Y015290D01*
X013639Y015290D01*
X013639Y015200D01*
X013647Y015170D01*
X013639Y015162D01*
X013639Y013108D01*
X013645Y013102D01*
X013639Y013080D01*
X013639Y012990D01*
X013639Y012900D01*
X013649Y012862D01*
X013669Y012828D01*
X013696Y012800D01*
X013731Y012780D01*
X013769Y012770D01*
X014079Y012770D01*
X014166Y012770D01*
X013156Y011760D01*
X012896Y011760D01*
X012779Y011643D01*
X012779Y011530D01*
X012625Y011376D01*
X010401Y013600D01*
X010373Y013600D01*
X010373Y015323D01*
X010454Y015323D01*
X010454Y015631D01*
X010492Y015631D01*
X010492Y015323D01*
X010630Y015323D01*
X010668Y015333D01*
X010703Y015353D01*
X010729Y015379D01*
X010785Y015323D01*
X011184Y015323D01*
X011251Y015389D01*
X011353Y015286D01*
X011773Y015286D01*
X011773Y015240D01*
X011890Y015123D01*
X012056Y015123D01*
X013078Y015123D01*
X013244Y015123D01*
X013639Y015517D01*
X013639Y015460D01*
X013649Y015422D01*
X013650Y015420D01*
X013649Y015418D01*
X013639Y015380D01*
X013639Y015290D01*
X014079Y015290D01*
X014079Y015510D01*
X014079Y015550D01*
X014079Y015550D01*
X013859Y015330D01*
X013859Y015290D01*
X013639Y015290D02*
X014079Y015290D01*
X014079Y015290D01*
X014079Y015319D02*
X014079Y015319D01*
X014079Y015418D02*
X014079Y015418D01*
X014079Y015516D02*
X014079Y015516D01*
X014079Y015800D02*
X013639Y015800D01*
X013161Y015323D01*
X011973Y015323D01*
X011973Y015486D01*
X011973Y015650D01*
X011973Y015486D02*
X011436Y015486D01*
X011272Y015650D01*
X010984Y015650D01*
X011272Y015850D02*
X011272Y015889D01*
X011184Y015977D01*
X010785Y015977D01*
X010729Y015921D01*
X010703Y015947D01*
X010668Y015967D01*
X010630Y015977D01*
X010492Y015977D01*
X010492Y015669D01*
X010454Y015669D01*
X010454Y015977D01*
X010373Y015977D01*
X010373Y016073D01*
X010454Y016073D01*
X010454Y016381D01*
X010492Y016381D01*
X010492Y016073D01*
X010630Y016073D01*
X010668Y016083D01*
X010703Y016103D01*
X010729Y016129D01*
X010785Y016073D01*
X011184Y016073D01*
X011251Y016139D01*
X011353Y016036D01*
X011890Y016036D01*
X011949Y015977D01*
X011773Y015977D01*
X011685Y015889D01*
X011685Y015686D01*
X011519Y015686D01*
X011355Y015850D01*
X011272Y015850D01*
X011252Y015910D02*
X011706Y015910D01*
X011685Y015812D02*
X011394Y015812D01*
X011492Y015713D02*
X011685Y015713D01*
X011918Y016009D02*
X010373Y016009D01*
X010454Y016107D02*
X010492Y016107D01*
X010492Y016206D02*
X010454Y016206D01*
X010454Y016304D02*
X010492Y016304D01*
X010473Y016400D02*
X010473Y015650D01*
X010473Y015323D01*
X010678Y015117D01*
X013466Y015117D01*
X013466Y013163D01*
X013639Y012990D01*
X014079Y012990D01*
X014079Y012770D01*
X014079Y012990D01*
X014079Y012990D01*
X013639Y012990D01*
X014079Y012990D01*
X014079Y012990D01*
X014079Y012955D02*
X014079Y012955D01*
X014079Y012857D02*
X014079Y012857D01*
X014154Y012758D02*
X011243Y012758D01*
X011145Y012857D02*
X013652Y012857D01*
X013639Y012955D02*
X011046Y012955D01*
X010948Y013054D02*
X013639Y013054D01*
X013639Y013152D02*
X010849Y013152D01*
X010751Y013251D02*
X013639Y013251D01*
X013639Y013349D02*
X010652Y013349D01*
X010554Y013448D02*
X013639Y013448D01*
X013639Y013546D02*
X010455Y013546D01*
X010373Y013645D02*
X013639Y013645D01*
X013639Y013743D02*
X010373Y013743D01*
X010373Y013842D02*
X013639Y013842D01*
X013639Y013940D02*
X010373Y013940D01*
X010373Y014039D02*
X013639Y014039D01*
X013639Y014137D02*
X010373Y014137D01*
X010373Y014236D02*
X013639Y014236D01*
X013639Y014334D02*
X010373Y014334D01*
X010373Y014433D02*
X013639Y014433D01*
X013639Y014531D02*
X010373Y014531D01*
X010373Y014630D02*
X013639Y014630D01*
X013639Y014728D02*
X010373Y014728D01*
X010373Y014827D02*
X013639Y014827D01*
X013639Y014925D02*
X010373Y014925D01*
X010373Y015024D02*
X013639Y015024D01*
X013639Y015122D02*
X010373Y015122D01*
X010373Y015221D02*
X011792Y015221D01*
X011320Y015319D02*
X010373Y015319D01*
X010454Y015418D02*
X010492Y015418D01*
X010492Y015516D02*
X010454Y015516D01*
X010454Y015615D02*
X010492Y015615D01*
X010492Y015713D02*
X010454Y015713D01*
X010454Y015812D02*
X010492Y015812D01*
X010492Y015910D02*
X010454Y015910D01*
X010707Y016107D02*
X010750Y016107D01*
X010984Y016400D02*
X011272Y016400D01*
X011436Y016236D01*
X011973Y016236D01*
X011973Y016400D01*
X011973Y016236D02*
X012157Y016052D01*
X012681Y016052D01*
X012784Y016156D01*
X013074Y016156D01*
X013170Y016060D01*
X014079Y016060D01*
X014079Y016310D02*
X013639Y016310D01*
X013639Y016530D01*
X012691Y017477D01*
X012248Y017477D01*
X011973Y017202D01*
X011973Y017150D01*
X011973Y017202D02*
X011324Y017202D01*
X011272Y017150D01*
X010984Y017150D01*
X010492Y017191D02*
X010454Y017191D01*
X010454Y017289D02*
X010492Y017289D01*
X010492Y017388D02*
X010454Y017388D01*
X010197Y017388D02*
X006498Y017388D01*
X006399Y017486D02*
X011974Y017486D01*
X012073Y017585D02*
X006368Y017585D01*
X006368Y017683D02*
X006602Y017683D01*
X006418Y017782D02*
X006368Y017782D01*
X006856Y017683D02*
X017996Y017683D01*
X017996Y017585D02*
X012867Y017585D01*
X012965Y017486D02*
X017993Y017486D01*
X017996Y017489D02*
X017976Y017469D01*
X017976Y017351D01*
X017548Y017351D01*
X017460Y017263D01*
X017486Y017289D02*
X013162Y017289D01*
X013064Y017388D02*
X017976Y017388D01*
X017996Y017489D02*
X017996Y019319D01*
X017529Y019319D01*
X017441Y019407D01*
X017441Y020129D01*
X017529Y020217D01*
X018913Y020217D01*
X019001Y020129D01*
X019001Y020061D01*
X019209Y020270D01*
X019952Y020270D01*
X020084Y020138D01*
X020084Y020016D01*
X020099Y020020D01*
X020224Y020020D01*
X020224Y019615D01*
X020234Y019615D01*
X020234Y020020D01*
X020358Y020020D01*
X020396Y020010D01*
X020409Y020003D01*
X020426Y020020D01*
X020771Y020020D01*
X020859Y019932D01*
X020859Y019288D01*
X020799Y019228D01*
X020799Y017594D01*
X019070Y015866D01*
X018953Y015749D01*
X017717Y015749D01*
X018971Y014494D01*
X019513Y014494D01*
X019630Y014377D01*
X020606Y013401D01*
X020606Y012630D01*
X020651Y012630D01*
X020671Y012610D01*
X020821Y012610D01*
X020939Y012493D01*
X020939Y012453D01*
X021019Y012373D01*
X021019Y012883D01*
X021136Y013000D01*
X021869Y013733D01*
X021869Y013733D01*
X021986Y013850D01*
X022099Y013850D01*
X022309Y014060D01*
X022648Y014060D01*
X022889Y013820D01*
X022889Y013480D01*
X022648Y013240D01*
X022309Y013240D01*
X022125Y013424D01*
X021834Y013133D01*
X021897Y013133D01*
X022026Y013080D01*
X022124Y012981D01*
X022178Y012853D01*
X022178Y012713D01*
X022143Y012630D01*
X022359Y012630D01*
X022359Y012410D01*
X022359Y012410D01*
X021979Y012410D01*
X021979Y012350D01*
X021979Y012350D01*
X021979Y012467D01*
X021979Y012410D01*
X022359Y012410D01*
X022359Y012410D01*
X022359Y012463D02*
X022359Y012463D01*
X022359Y012561D02*
X022359Y012561D01*
X022155Y012660D02*
X023023Y012660D01*
X023023Y012758D02*
X022178Y012758D01*
X022176Y012857D02*
X023023Y012857D01*
X023023Y012955D02*
X022135Y012955D01*
X022052Y013054D02*
X023023Y013054D01*
X023023Y013152D02*
X021853Y013152D01*
X021952Y013251D02*
X022298Y013251D01*
X022200Y013349D02*
X022050Y013349D01*
X022069Y013650D02*
X022479Y013650D01*
X022889Y013645D02*
X023023Y013645D01*
X023023Y013743D02*
X022889Y013743D01*
X022867Y013842D02*
X023023Y013842D01*
X023023Y013940D02*
X022768Y013940D01*
X022670Y014039D02*
X023023Y014039D01*
X023023Y014137D02*
X019870Y014137D01*
X019968Y014039D02*
X022287Y014039D01*
X022189Y013940D02*
X020067Y013940D01*
X020165Y013842D02*
X021977Y013842D01*
X021879Y013743D02*
X020264Y013743D01*
X020362Y013645D02*
X021780Y013645D01*
X021682Y013546D02*
X020461Y013546D01*
X020559Y013448D02*
X021583Y013448D01*
X021485Y013349D02*
X020606Y013349D01*
X020606Y013251D02*
X021386Y013251D01*
X021288Y013152D02*
X020606Y013152D01*
X020606Y013054D02*
X021189Y013054D01*
X021091Y012955D02*
X020606Y012955D01*
X020606Y012857D02*
X021019Y012857D01*
X021019Y012758D02*
X020606Y012758D01*
X020606Y012660D02*
X021019Y012660D01*
X021019Y012561D02*
X020870Y012561D01*
X020939Y012463D02*
X021019Y012463D01*
X021219Y012278D02*
X021346Y012150D01*
X022359Y012150D01*
X022739Y012150D01*
X022739Y011758D01*
X022451Y011470D01*
X022399Y011470D01*
X021754Y010825D01*
X021754Y010111D01*
X021043Y009400D01*
X019097Y009400D01*
X018612Y009409D02*
X017733Y009409D01*
X017733Y009311D02*
X018612Y009311D01*
X018612Y009212D02*
X017715Y009212D01*
X017723Y009226D02*
X017733Y009264D01*
X017733Y009549D01*
X017279Y009549D01*
X017279Y009134D01*
X017603Y009134D01*
X017641Y009144D01*
X017675Y009164D01*
X017703Y009192D01*
X017723Y009226D01*
X017733Y009508D02*
X018612Y009508D01*
X018628Y009606D02*
X017279Y009606D01*
X017229Y009599D02*
X017229Y008092D01*
X016824Y007688D01*
X016380Y007144D02*
X018665Y007144D01*
X018612Y007242D02*
X014199Y007242D01*
X014263Y007144D02*
X015960Y007144D01*
X015868Y007045D02*
X014432Y007045D01*
X014469Y006947D02*
X015827Y006947D01*
X015820Y006848D02*
X014469Y006848D01*
X014469Y006750D02*
X015837Y006750D01*
X015883Y006651D02*
X014469Y006651D01*
X014469Y006553D02*
X015970Y006553D01*
X015970Y006454D02*
X014469Y006454D01*
X014469Y006356D02*
X015970Y006356D01*
X015970Y006257D02*
X014434Y006257D01*
X014063Y006650D02*
X014063Y007095D01*
X013456Y007702D01*
X012979Y007702D01*
X012779Y007833D02*
X011183Y007833D01*
X011259Y007735D02*
X012728Y007735D01*
X012630Y007636D02*
X011259Y007636D01*
X011259Y007538D02*
X012531Y007538D01*
X012433Y007439D02*
X011259Y007439D01*
X011259Y007341D02*
X012334Y007341D01*
X012236Y007242D02*
X011259Y007242D01*
X011259Y007144D02*
X012137Y007144D01*
X012039Y007045D02*
X011315Y007045D01*
X011438Y006947D02*
X011940Y006947D01*
X011842Y006848D02*
X011488Y006848D01*
X011508Y006750D02*
X011743Y006750D01*
X011645Y006651D02*
X011503Y006651D01*
X011658Y006381D02*
X010791Y006381D01*
X010772Y006400D01*
X010484Y006400D01*
X010761Y006651D02*
X010812Y006651D01*
X010808Y006750D02*
X009549Y006750D01*
X009408Y006750D02*
X006241Y006750D01*
X006241Y006848D02*
X010676Y006848D01*
X010653Y006947D02*
X009528Y006947D01*
X009626Y007045D02*
X009699Y007045D01*
X009437Y007138D02*
X009699Y007400D01*
X010105Y007400D01*
X009699Y007636D02*
X001679Y007636D01*
X001679Y007538D02*
X005018Y007538D01*
X004843Y007439D02*
X001679Y007439D01*
X001679Y007341D02*
X004761Y007341D01*
X004721Y007242D02*
X001679Y007242D01*
X001679Y007144D02*
X004711Y007144D01*
X004716Y007045D02*
X001679Y007045D01*
X001679Y006947D02*
X004757Y006947D01*
X004833Y006848D02*
X001679Y006848D01*
X001679Y006750D02*
X004992Y006750D01*
X005376Y007138D02*
X006041Y007138D01*
X006041Y003210D01*
X006544Y002708D01*
X006544Y002400D01*
X006851Y002416D02*
X009879Y002416D01*
X009838Y002317D02*
X006851Y002317D01*
X006851Y002219D02*
X009827Y002219D01*
X009793Y002120D02*
X006791Y002120D01*
X006851Y002514D02*
X007978Y002514D01*
X007949Y002613D02*
X006851Y002613D01*
X006744Y002711D02*
X007949Y002711D01*
X007949Y002810D02*
X006724Y002810D01*
X006626Y002908D02*
X008305Y002908D01*
X008305Y002810D02*
X008405Y002810D01*
X008405Y002711D02*
X008305Y002711D01*
X008305Y002613D02*
X008405Y002613D01*
X008405Y002514D02*
X008305Y002514D01*
X008355Y002455D02*
X008355Y002095D01*
X008355Y001650D01*
X008305Y001628D02*
X003510Y001628D01*
X003518Y001529D02*
X007949Y001529D01*
X007949Y001431D02*
X003518Y001431D01*
X003484Y001726D02*
X007949Y001726D01*
X007949Y001825D02*
X003457Y001825D01*
X003416Y001923D02*
X007949Y001923D01*
X007969Y002022D02*
X003359Y002022D01*
X003302Y002120D02*
X005708Y002120D01*
X005703Y002122D02*
X005738Y002103D01*
X005776Y002093D01*
X005924Y002093D01*
X005924Y002371D01*
X005646Y002371D01*
X005646Y002223D01*
X005656Y002185D01*
X005675Y002150D01*
X005703Y002122D01*
X005647Y002219D02*
X003203Y002219D01*
X003105Y002317D02*
X005646Y002317D01*
X005646Y002514D02*
X002663Y002514D01*
X002936Y002416D02*
X005924Y002416D01*
X005924Y002514D02*
X005982Y002514D01*
X005982Y002613D02*
X005924Y002613D01*
X005655Y002613D02*
X001679Y002613D01*
X001679Y002711D02*
X006257Y002711D01*
X006159Y002810D02*
X001679Y002810D01*
X001679Y002514D02*
X002213Y002514D01*
X001940Y002416D02*
X001679Y002416D01*
X001679Y002317D02*
X001771Y002317D01*
X005924Y002317D02*
X005982Y002317D01*
X005982Y002219D02*
X005924Y002219D01*
X005924Y002120D02*
X005982Y002120D01*
X006198Y002120D02*
X006296Y002120D01*
X006901Y003007D02*
X007949Y003007D01*
X007949Y003105D02*
X006989Y003105D01*
X007030Y003204D02*
X007949Y003204D01*
X007993Y003302D02*
X007044Y003302D01*
X007044Y003401D02*
X009726Y003401D01*
X009825Y003499D02*
X007044Y003499D01*
X007044Y003598D02*
X009923Y003598D01*
X010022Y003696D02*
X007044Y003696D01*
X007044Y003795D02*
X007960Y003795D01*
X007949Y003893D02*
X007044Y003893D01*
X007011Y003992D02*
X007949Y003992D01*
X007949Y004090D02*
X006955Y004090D01*
X006842Y004189D02*
X008305Y004189D01*
X008305Y004287D02*
X008405Y004287D01*
X008405Y004386D02*
X008305Y004386D01*
X008305Y004484D02*
X008405Y004484D01*
X008405Y004583D02*
X008305Y004583D01*
X008673Y004583D02*
X008772Y004583D01*
X008763Y004977D02*
X008688Y004977D01*
X008405Y004977D02*
X008305Y004977D01*
X008305Y005075D02*
X008405Y005075D01*
X008405Y005174D02*
X008305Y005174D01*
X008305Y005272D02*
X008405Y005272D01*
X008305Y005371D02*
X006241Y005371D01*
X006241Y005469D02*
X007949Y005469D01*
X007949Y005568D02*
X006241Y005568D01*
X006241Y005666D02*
X007949Y005666D01*
X007965Y005765D02*
X006241Y005765D01*
X006241Y005863D02*
X015205Y005863D01*
X015241Y005962D02*
X006241Y005962D01*
X006241Y006060D02*
X009385Y006060D01*
X009572Y006060D02*
X015316Y006060D01*
X015469Y005804D02*
X015222Y005557D01*
X014877Y005557D01*
X014877Y005302D02*
X015336Y005302D01*
X015479Y005445D01*
X015704Y005445D01*
X016170Y005910D01*
X017607Y005910D01*
X018612Y004905D01*
X018612Y004900D01*
X019097Y004900D01*
X018648Y005174D02*
X018626Y005174D01*
X018612Y005272D02*
X018528Y005272D01*
X018612Y005371D02*
X018429Y005371D01*
X018331Y005469D02*
X018612Y005469D01*
X018612Y005568D02*
X018232Y005568D01*
X018134Y005666D02*
X018656Y005666D01*
X018612Y005765D02*
X018035Y005765D01*
X017937Y005863D02*
X018612Y005863D01*
X018612Y005962D02*
X017838Y005962D01*
X017740Y006060D02*
X018615Y006060D01*
X018663Y006159D02*
X016370Y006159D01*
X016370Y006257D02*
X018612Y006257D01*
X018612Y006356D02*
X016370Y006356D01*
X016370Y006454D02*
X018612Y006454D01*
X018612Y006553D02*
X016370Y006553D01*
X016457Y006651D02*
X018671Y006651D01*
X018612Y006750D02*
X016504Y006750D01*
X016520Y006848D02*
X018612Y006848D01*
X018612Y006947D02*
X016513Y006947D01*
X016472Y007045D02*
X018612Y007045D01*
X018612Y007341D02*
X014101Y007341D01*
X014002Y007439D02*
X018612Y007439D01*
X018612Y007538D02*
X013904Y007538D01*
X013805Y007636D02*
X018658Y007636D01*
X018612Y007735D02*
X013707Y007735D01*
X013608Y007833D02*
X018612Y007833D01*
X018612Y007932D02*
X013179Y007932D01*
X013179Y008030D02*
X018612Y008030D01*
X018650Y008129D02*
X013179Y008129D01*
X013179Y008227D02*
X018612Y008227D01*
X018612Y008326D02*
X013179Y008326D01*
X013179Y008424D02*
X018612Y008424D01*
X018612Y008523D02*
X013179Y008523D01*
X013179Y008621D02*
X018643Y008621D01*
X018612Y008720D02*
X013179Y008720D01*
X013179Y008818D02*
X018612Y008818D01*
X018612Y008917D02*
X013179Y008917D01*
X013179Y009015D02*
X018612Y009015D01*
X018635Y009114D02*
X013179Y009114D01*
X013179Y009212D02*
X016743Y009212D01*
X016724Y009311D02*
X013219Y009311D01*
X013317Y009409D02*
X013582Y009409D01*
X013341Y009867D02*
X013148Y010060D01*
X012850Y010060D01*
X013520Y010730D01*
X013533Y010730D01*
X013533Y010574D01*
X013929Y010574D01*
X013929Y010474D01*
X013533Y010474D01*
X013533Y010248D01*
X013544Y010210D01*
X013563Y010176D01*
X013589Y010150D01*
X013533Y010094D01*
X013533Y009976D01*
X013450Y009976D01*
X013341Y009867D01*
X013307Y009902D02*
X013376Y009902D01*
X013533Y010000D02*
X013208Y010000D01*
X012987Y010197D02*
X013551Y010197D01*
X013538Y010099D02*
X012888Y010099D01*
X013085Y010296D02*
X013533Y010296D01*
X013533Y010394D02*
X013184Y010394D01*
X013282Y010493D02*
X013929Y010493D01*
X013979Y010524D02*
X014424Y010524D01*
X014424Y010415D01*
X014689Y010150D01*
X014689Y010060D01*
X014697Y010030D01*
X014689Y010022D01*
X014689Y009870D01*
X014613Y009870D01*
X014507Y009976D01*
X014424Y009976D01*
X014424Y010094D01*
X014368Y010150D01*
X014394Y010176D01*
X014414Y010210D01*
X014424Y010248D01*
X014424Y010474D01*
X014029Y010474D01*
X014029Y010574D01*
X014424Y010574D01*
X014424Y010730D01*
X015016Y010730D01*
X015116Y010630D01*
X014776Y010630D01*
X014689Y010542D01*
X014689Y010278D01*
X014697Y010270D01*
X014689Y010240D01*
X014689Y010150D01*
X015069Y010150D01*
X015449Y010150D01*
X015069Y010150D01*
X015069Y010150D01*
X017142Y010150D01*
X017229Y010064D01*
X017179Y010000D02*
X017279Y010000D01*
X017279Y009902D02*
X017179Y009902D01*
X017179Y009803D02*
X017279Y009803D01*
X017279Y009705D02*
X017179Y009705D01*
X017179Y009508D02*
X017279Y009508D01*
X017279Y009409D02*
X017179Y009409D01*
X017179Y009311D02*
X017279Y009311D01*
X017279Y009212D02*
X017179Y009212D01*
X016724Y009409D02*
X014375Y009409D01*
X014581Y009902D02*
X014689Y009902D01*
X014689Y010000D02*
X014424Y010000D01*
X014419Y010099D02*
X014689Y010099D01*
X014689Y010150D02*
X015069Y010150D01*
X015069Y010150D01*
X014689Y010150D01*
X014689Y010197D02*
X014406Y010197D01*
X014424Y010296D02*
X014689Y010296D01*
X014689Y010394D02*
X014424Y010394D01*
X014424Y010591D02*
X014737Y010591D01*
X014689Y010493D02*
X014029Y010493D01*
X014424Y010690D02*
X015056Y010690D01*
X015099Y010930D02*
X013437Y010930D01*
X010943Y008436D01*
X008252Y008436D01*
X005504Y008436D01*
X004881Y009059D01*
X004429Y009059D01*
X004881Y009311D02*
X005226Y009311D01*
X005185Y009212D02*
X005011Y009212D01*
X005109Y009114D02*
X005159Y009114D01*
X005322Y009409D02*
X004881Y009409D01*
X004796Y009508D02*
X005513Y009508D01*
X005708Y009508D02*
X006469Y009508D01*
X006469Y009409D02*
X005899Y009409D01*
X005995Y009311D02*
X006469Y009311D01*
X006484Y009212D02*
X006036Y009212D01*
X006062Y009114D02*
X006510Y009114D01*
X006469Y009015D02*
X006062Y009015D01*
X006040Y008917D02*
X006469Y008917D01*
X006469Y008900D02*
X005610Y009758D01*
X005610Y010241D01*
X005560Y010197D02*
X004881Y010197D01*
X004881Y010296D02*
X005162Y010296D01*
X005186Y010394D02*
X004866Y010394D01*
X004964Y010493D02*
X005236Y010493D01*
X005182Y010099D02*
X004859Y010099D01*
X004818Y010000D02*
X005228Y010000D01*
X005311Y009902D02*
X004728Y009902D01*
X004552Y009803D02*
X005497Y009803D01*
X005560Y009803D02*
X005660Y009803D01*
X005724Y009803D02*
X006469Y009803D01*
X006469Y009902D02*
X005910Y009902D01*
X005993Y010000D02*
X006469Y010000D01*
X006495Y010099D02*
X006039Y010099D01*
X006059Y010296D02*
X006290Y010296D01*
X006192Y010394D02*
X006035Y010394D01*
X005985Y010493D02*
X006093Y010493D01*
X006173Y010695D02*
X006469Y010400D01*
X007009Y010400D01*
X007349Y010690D02*
X006462Y010690D01*
X006363Y010788D02*
X007349Y010788D01*
X007349Y010887D02*
X006265Y010887D01*
X006173Y010695D02*
X004884Y010695D01*
X004884Y014286D01*
X004429Y014741D01*
X004841Y014925D02*
X005198Y014925D01*
X005192Y014914D02*
X005170Y014846D01*
X005162Y014791D01*
X005560Y014791D01*
X005560Y014691D01*
X005162Y014691D01*
X005170Y014635D01*
X005192Y014567D01*
X005225Y014504D01*
X005266Y014447D01*
X005317Y014396D01*
X005374Y014355D01*
X005437Y014322D01*
X005505Y014300D01*
X005560Y014292D01*
X005560Y014691D01*
X005660Y014691D01*
X005660Y014292D01*
X005716Y014300D01*
X005784Y014322D01*
X005847Y014355D01*
X005904Y014396D01*
X005955Y014447D01*
X005996Y014504D01*
X006029Y014567D01*
X006051Y014635D01*
X006059Y014691D01*
X005660Y014691D01*
X005660Y014791D01*
X005560Y014791D01*
X005560Y015189D01*
X005505Y015181D01*
X005437Y015159D01*
X005374Y015126D01*
X005317Y015085D01*
X005266Y015034D01*
X005225Y014977D01*
X005192Y014914D01*
X005167Y014827D02*
X004881Y014827D01*
X004881Y014728D02*
X005560Y014728D01*
X005610Y014741D02*
X006082Y014741D01*
X006082Y012286D01*
X006469Y011900D01*
X007009Y011900D01*
X007004Y011895D02*
X007004Y011640D01*
X006599Y011640D01*
X006561Y011650D01*
X006526Y011670D01*
X006499Y011698D01*
X006479Y011732D01*
X006469Y011770D01*
X006469Y011895D01*
X007004Y011895D01*
X007004Y011872D02*
X007014Y011872D01*
X007004Y011773D02*
X007014Y011773D01*
X007004Y011675D02*
X007014Y011675D01*
X007349Y011576D02*
X005084Y011576D01*
X005084Y011478D02*
X007349Y011478D01*
X007349Y011379D02*
X005084Y011379D01*
X005084Y011281D02*
X007349Y011281D01*
X007349Y011182D02*
X005084Y011182D01*
X005084Y011084D02*
X007349Y011084D01*
X007349Y010985D02*
X005084Y010985D01*
X004684Y010985D02*
X001679Y010985D01*
X001679Y010887D02*
X004684Y010887D01*
X004684Y010788D02*
X001679Y010788D01*
X001679Y010690D02*
X002588Y010690D01*
X002592Y010691D02*
X002327Y010620D01*
X002090Y010483D01*
X001896Y010289D01*
X001759Y010052D01*
X001688Y009787D01*
X001688Y009513D01*
X001759Y009248D01*
X001896Y009011D01*
X002090Y008817D01*
X002327Y008680D01*
X002592Y008609D01*
X002866Y008609D01*
X003130Y008680D01*
X003367Y008817D01*
X003561Y009011D01*
X003698Y009248D01*
X003769Y009513D01*
X003769Y009787D01*
X003698Y010052D01*
X003561Y010289D01*
X003367Y010483D01*
X003130Y010620D01*
X002866Y010691D01*
X002592Y010691D01*
X002869Y010690D02*
X004334Y010690D01*
X004524Y010690D02*
X004596Y010690D01*
X004884Y010695D02*
X004429Y010241D01*
X004130Y009902D02*
X003738Y009902D01*
X003712Y010000D02*
X004041Y010000D01*
X004000Y010099D02*
X003671Y010099D01*
X003614Y010197D02*
X003978Y010197D01*
X003978Y010296D02*
X003555Y010296D01*
X003456Y010394D02*
X004005Y010394D01*
X004045Y010493D02*
X003350Y010493D01*
X003180Y010591D02*
X004142Y010591D01*
X004684Y011084D02*
X001679Y011084D01*
X001679Y011182D02*
X004684Y011182D01*
X004684Y011281D02*
X001679Y011281D01*
X001679Y011379D02*
X004684Y011379D01*
X004684Y011478D02*
X001679Y011478D01*
X001679Y011576D02*
X004684Y011576D01*
X004684Y011675D02*
X001679Y011675D01*
X001679Y011773D02*
X004684Y011773D01*
X004684Y011872D02*
X001679Y011872D01*
X001679Y011970D02*
X004684Y011970D01*
X004684Y012069D02*
X001679Y012069D01*
X001679Y012167D02*
X004684Y012167D01*
X004684Y012266D02*
X001679Y012266D01*
X001679Y012364D02*
X004684Y012364D01*
X004684Y012463D02*
X001679Y012463D01*
X001679Y012561D02*
X004684Y012561D01*
X004684Y012660D02*
X001679Y012660D01*
X001679Y012758D02*
X004684Y012758D01*
X004684Y012857D02*
X001679Y012857D01*
X001679Y012955D02*
X004684Y012955D01*
X004684Y013054D02*
X001679Y013054D01*
X001679Y013152D02*
X002433Y013152D01*
X002327Y013180D02*
X002592Y013109D01*
X002866Y013109D01*
X003130Y013180D01*
X003367Y013317D01*
X003561Y013511D01*
X003698Y013748D01*
X003769Y014013D01*
X003769Y014287D01*
X003698Y014552D01*
X003561Y014789D01*
X003367Y014983D01*
X003130Y015120D01*
X002866Y015191D01*
X002592Y015191D01*
X002327Y015120D01*
X002090Y014983D01*
X001896Y014789D01*
X001759Y014552D01*
X001688Y014287D01*
X001688Y014013D01*
X001759Y013748D01*
X001896Y013511D01*
X002090Y013317D01*
X002327Y013180D01*
X002205Y013251D02*
X001679Y013251D01*
X001679Y013349D02*
X002058Y013349D01*
X001959Y013448D02*
X001679Y013448D01*
X001679Y013546D02*
X001876Y013546D01*
X001819Y013645D02*
X001679Y013645D01*
X001679Y013743D02*
X001762Y013743D01*
X001734Y013842D02*
X001679Y013842D01*
X001679Y013940D02*
X001708Y013940D01*
X001688Y014039D02*
X001679Y014039D01*
X001679Y014137D02*
X001688Y014137D01*
X001679Y014236D02*
X001688Y014236D01*
X001679Y014334D02*
X001701Y014334D01*
X001679Y014433D02*
X001727Y014433D01*
X001753Y014531D02*
X001679Y014531D01*
X001679Y014630D02*
X001804Y014630D01*
X001861Y014728D02*
X001679Y014728D01*
X001679Y014827D02*
X001934Y014827D01*
X002032Y014925D02*
X001679Y014925D01*
X001679Y015024D02*
X002160Y015024D01*
X002336Y015122D02*
X001679Y015122D01*
X001679Y015221D02*
X006762Y015221D01*
X006762Y015319D02*
X001679Y015319D01*
X001679Y015418D02*
X007098Y015418D01*
X007148Y015420D02*
X006762Y015420D01*
X006082Y014741D01*
X006059Y014791D02*
X006051Y014846D01*
X006029Y014914D01*
X005996Y014977D01*
X005955Y015034D01*
X005904Y015085D01*
X005847Y015126D01*
X005784Y015159D01*
X005716Y015181D01*
X005660Y015189D01*
X005660Y014791D01*
X006059Y014791D01*
X006054Y014827D02*
X007265Y014827D01*
X007363Y014925D02*
X006023Y014925D01*
X005963Y015024D02*
X006796Y015024D01*
X006762Y015122D02*
X005853Y015122D01*
X005660Y015122D02*
X005560Y015122D01*
X005560Y015024D02*
X005660Y015024D01*
X005660Y014925D02*
X005560Y014925D01*
X005560Y014827D02*
X005660Y014827D01*
X005660Y014728D02*
X007166Y014728D01*
X007068Y014630D02*
X006049Y014630D01*
X006010Y014531D02*
X006969Y014531D01*
X006871Y014433D02*
X005941Y014433D01*
X005806Y014334D02*
X006772Y014334D01*
X006674Y014236D02*
X005084Y014236D01*
X005084Y014334D02*
X005414Y014334D01*
X005560Y014334D02*
X005660Y014334D01*
X005660Y014433D02*
X005560Y014433D01*
X005560Y014531D02*
X005660Y014531D01*
X005660Y014630D02*
X005560Y014630D01*
X005280Y014433D02*
X005020Y014433D01*
X004922Y014531D02*
X005211Y014531D01*
X005172Y014630D02*
X004872Y014630D01*
X004784Y015024D02*
X005258Y015024D01*
X005368Y015122D02*
X004686Y015122D01*
X004173Y015122D02*
X003121Y015122D01*
X003297Y015024D02*
X004074Y015024D01*
X004017Y014925D02*
X003425Y014925D01*
X003524Y014827D02*
X003978Y014827D01*
X003978Y014728D02*
X003596Y014728D01*
X003653Y014630D02*
X003987Y014630D01*
X004028Y014531D02*
X003704Y014531D01*
X003730Y014433D02*
X004099Y014433D01*
X004232Y014334D02*
X003757Y014334D01*
X003769Y014236D02*
X004652Y014236D01*
X004684Y014137D02*
X003769Y014137D01*
X003769Y014039D02*
X004684Y014039D01*
X005084Y014039D02*
X006477Y014039D01*
X006575Y014137D02*
X005084Y014137D01*
X005084Y013940D02*
X005353Y013940D01*
X005355Y013942D02*
X005228Y013815D01*
X005159Y013649D01*
X005159Y013470D01*
X005228Y013304D01*
X005355Y013177D01*
X005521Y013108D01*
X005700Y013108D01*
X005866Y013177D01*
X005993Y013304D01*
X006062Y013470D01*
X006062Y013649D01*
X005993Y013815D01*
X005866Y013942D01*
X005700Y014011D01*
X005521Y014011D01*
X005355Y013942D01*
X005254Y013842D02*
X005084Y013842D01*
X005084Y013743D02*
X005198Y013743D01*
X005159Y013645D02*
X005084Y013645D01*
X005084Y013546D02*
X005159Y013546D01*
X005168Y013448D02*
X005084Y013448D01*
X005084Y013349D02*
X005209Y013349D01*
X005281Y013251D02*
X005084Y013251D01*
X005084Y013152D02*
X005415Y013152D01*
X005084Y013054D02*
X006269Y013054D01*
X006269Y013152D02*
X005806Y013152D01*
X005940Y013251D02*
X006269Y013251D01*
X006269Y013349D02*
X006012Y013349D01*
X006052Y013448D02*
X006269Y013448D01*
X006269Y013546D02*
X006062Y013546D01*
X006062Y013645D02*
X006269Y013645D01*
X006269Y013743D02*
X006023Y013743D01*
X005966Y013842D02*
X006280Y013842D01*
X006378Y013940D02*
X005868Y013940D01*
X006469Y013747D02*
X006469Y012900D01*
X007009Y012900D01*
X007549Y012900D01*
X007549Y012670D01*
X007279Y012400D01*
X007009Y012400D01*
X007279Y012400D02*
X007549Y012400D01*
X007549Y009900D01*
X007009Y009900D01*
X007549Y009900D02*
X007549Y009670D01*
X007279Y009400D01*
X007009Y009400D01*
X007009Y008900D02*
X006469Y008900D01*
X006030Y008640D02*
X007464Y008640D01*
X008409Y009585D01*
X008409Y009900D01*
X008949Y009900D01*
X008949Y010400D02*
X008409Y010400D01*
X008364Y010356D01*
X008252Y010356D01*
X009219Y011130D02*
X010390Y009959D01*
X010390Y009479D01*
X009811Y008900D01*
X009489Y008900D01*
X009489Y009400D01*
X008949Y009400D01*
X008949Y008900D02*
X009489Y008900D01*
X009979Y009650D02*
X009979Y010087D01*
X007896Y012170D01*
X007896Y013053D01*
X007549Y013400D01*
X007009Y013400D01*
X006469Y013747D02*
X008031Y015310D01*
X008141Y015420D01*
X008462Y015420D01*
X008849Y015420D01*
X009235Y015784D02*
X009149Y015869D01*
X008506Y015869D01*
X007495Y016880D01*
X006910Y016431D02*
X008031Y015310D01*
X007739Y015319D02*
X007534Y015319D01*
X007534Y015221D02*
X007659Y015221D01*
X007560Y015122D02*
X007534Y015122D01*
X007198Y015122D02*
X007098Y015122D01*
X007098Y015024D02*
X007198Y015024D01*
X007198Y015221D02*
X007098Y015221D01*
X007098Y015319D02*
X007198Y015319D01*
X007198Y015418D02*
X007641Y015418D01*
X007542Y015516D02*
X007534Y015516D01*
X007198Y015516D02*
X007098Y015516D01*
X007098Y015615D02*
X007198Y015615D01*
X007198Y015713D02*
X007098Y015713D01*
X007098Y015812D02*
X007198Y015812D01*
X007148Y015910D02*
X001679Y015910D01*
X001679Y015812D02*
X006792Y015812D01*
X006762Y015713D02*
X001679Y015713D01*
X001679Y015615D02*
X006762Y015615D01*
X006762Y015516D02*
X001679Y015516D01*
X001679Y016009D02*
X007050Y016009D01*
X006951Y016107D02*
X001679Y016107D01*
X001679Y016206D02*
X006853Y016206D01*
X006651Y016304D02*
X001679Y016304D01*
X001679Y016403D02*
X006553Y016403D01*
X006454Y016501D02*
X001679Y016501D01*
X001679Y016600D02*
X006356Y016600D01*
X006257Y016698D02*
X001679Y016698D01*
X001679Y016797D02*
X006159Y016797D01*
X006060Y016895D02*
X001679Y016895D01*
X001679Y016994D02*
X005962Y016994D01*
X005863Y017092D02*
X001679Y017092D01*
X001679Y017191D02*
X005765Y017191D01*
X005666Y017289D02*
X001679Y017289D01*
X001679Y017388D02*
X005568Y017388D01*
X005469Y017486D02*
X001679Y017486D01*
X005610Y017628D02*
X006807Y016431D01*
X006910Y016431D01*
X006722Y017191D02*
X006695Y017191D01*
X006770Y017289D02*
X006596Y017289D01*
X007039Y017782D02*
X017996Y017782D01*
X017996Y017880D02*
X007136Y017880D01*
X007177Y017979D02*
X017996Y017979D01*
X017996Y018077D02*
X007209Y018077D01*
X007209Y018176D02*
X017996Y018176D01*
X017996Y018274D02*
X013034Y018274D01*
X013119Y018373D02*
X017996Y018373D01*
X017996Y018471D02*
X013160Y018471D01*
X013163Y018570D02*
X017996Y018570D01*
X017996Y018668D02*
X013142Y018668D01*
X013193Y018767D02*
X017996Y018767D01*
X017996Y018865D02*
X013219Y018865D01*
X013219Y018964D02*
X015164Y018964D01*
X015278Y019132D02*
X015095Y019315D01*
X014729Y019315D01*
X014362Y019315D01*
X014305Y019373D01*
X013744Y019373D01*
X013744Y020400D01*
X013279Y020900D02*
X014277Y020900D01*
X014362Y020815D01*
X014729Y020815D01*
X014729Y020332D01*
X014729Y019985D01*
X015382Y019985D01*
X015729Y019985D01*
X016023Y019653D02*
X017441Y019653D01*
X017441Y019555D02*
X016075Y019555D01*
X016075Y019456D02*
X017441Y019456D01*
X017490Y019358D02*
X016075Y019358D01*
X016075Y019259D02*
X017996Y019259D01*
X017996Y019161D02*
X016075Y019161D01*
X016075Y019062D02*
X017996Y019062D01*
X017996Y018964D02*
X016002Y018964D01*
X016078Y019019D02*
X016078Y020270D01*
X019979Y020270D01*
X020229Y020020D01*
X020229Y019970D01*
X020229Y019610D01*
X020234Y019605D02*
X020234Y019200D01*
X020358Y019200D01*
X020396Y019210D01*
X020399Y019211D01*
X020399Y017760D01*
X018942Y016303D01*
X018942Y017263D01*
X018854Y017351D01*
X018446Y017351D01*
X018446Y019319D01*
X018913Y019319D01*
X019001Y019407D01*
X019001Y019543D01*
X019119Y019543D01*
X019396Y019820D01*
X019599Y019820D01*
X019599Y019288D01*
X019686Y019200D01*
X020031Y019200D01*
X020048Y019217D01*
X020061Y019210D01*
X020099Y019200D01*
X020224Y019200D01*
X020224Y019605D01*
X020234Y019605D01*
X020234Y019653D02*
X020224Y019653D01*
X020224Y019555D02*
X020234Y019555D01*
X020224Y019456D02*
X020234Y019456D01*
X020224Y019358D02*
X020234Y019358D01*
X020224Y019259D02*
X020234Y019259D01*
X020399Y019161D02*
X018446Y019161D01*
X018446Y019259D02*
X019627Y019259D01*
X019599Y019358D02*
X018951Y019358D01*
X019001Y019456D02*
X019599Y019456D01*
X019599Y019555D02*
X019130Y019555D01*
X019229Y019653D02*
X019599Y019653D01*
X019599Y019752D02*
X019327Y019752D01*
X019085Y020146D02*
X018985Y020146D01*
X019183Y020244D02*
X016075Y020244D01*
X016078Y020270D02*
X016078Y020502D01*
X015095Y021485D01*
X014729Y021485D01*
X014777Y021525D02*
X019547Y021525D01*
X019547Y021623D02*
X015095Y021623D01*
X015090Y021722D02*
X019172Y021722D01*
X019073Y021820D02*
X018965Y021820D01*
X019429Y022313D02*
X019851Y022313D01*
X020006Y022411D02*
X019331Y022411D01*
X019178Y022510D02*
X026590Y022510D01*
X026647Y022608D02*
X018971Y022608D01*
X019547Y021426D02*
X015095Y021426D01*
X015095Y021328D02*
X019587Y021328D01*
X019559Y021229D02*
X015084Y021229D01*
X015039Y021131D02*
X019559Y021131D01*
X019559Y021032D02*
X015095Y021032D01*
X015095Y020934D02*
X019559Y020934D01*
X019559Y020835D02*
X015095Y020835D01*
X015095Y020737D02*
X019559Y020737D01*
X019559Y020638D02*
X015095Y020638D01*
X015078Y020540D02*
X019596Y020540D01*
X019599Y020441D02*
X014929Y020441D01*
X014418Y021131D02*
X013680Y021131D01*
X013740Y021229D02*
X014373Y021229D01*
X014362Y021328D02*
X013744Y021328D01*
X013744Y021426D02*
X014362Y021426D01*
X014362Y021623D02*
X013688Y021623D01*
X013744Y021525D02*
X014680Y021525D01*
X014680Y021623D02*
X014777Y021623D01*
X014777Y021722D02*
X014680Y021722D01*
X014680Y021820D02*
X014777Y021820D01*
X015005Y021820D02*
X017476Y021820D01*
X017471Y022608D02*
X013294Y022608D01*
X013392Y022510D02*
X013784Y022510D01*
X013631Y022411D02*
X013491Y022411D01*
X013194Y022707D02*
X026742Y022707D01*
X026533Y022411D02*
X020958Y022411D01*
X021113Y022313D02*
X026494Y022313D01*
X026468Y022214D02*
X021212Y022214D01*
X021310Y022116D02*
X026441Y022116D01*
X026436Y022017D02*
X021409Y022017D01*
X021507Y021919D02*
X026436Y021919D01*
X026436Y021820D02*
X021606Y021820D01*
X021704Y021722D02*
X026460Y021722D01*
X026486Y021623D02*
X021803Y021623D01*
X021901Y021525D02*
X026516Y021525D01*
X026573Y021426D02*
X021990Y021426D01*
X022029Y021328D02*
X026630Y021328D01*
X026713Y021229D02*
X022029Y021229D01*
X022029Y021131D02*
X026811Y021131D01*
X026952Y021032D02*
X022029Y021032D01*
X022029Y020934D02*
X027149Y020934D01*
X027092Y020691D02*
X026827Y020620D01*
X026590Y020483D01*
X026396Y020289D01*
X026259Y020052D01*
X026188Y019787D01*
X026188Y019513D01*
X026259Y019248D01*
X026396Y019011D01*
X026590Y018817D01*
X026827Y018680D01*
X027092Y018609D01*
X027366Y018609D01*
X027630Y018680D01*
X027867Y018817D01*
X028061Y019011D01*
X028198Y019248D01*
X028269Y019513D01*
X028269Y019787D01*
X028198Y020052D01*
X028061Y020289D01*
X027867Y020483D01*
X027630Y020620D01*
X027366Y020691D01*
X027092Y020691D01*
X026896Y020638D02*
X022164Y020638D01*
X022164Y020540D02*
X026688Y020540D01*
X026548Y020441D02*
X022164Y020441D01*
X022164Y020343D02*
X026450Y020343D01*
X026370Y020244D02*
X022164Y020244D01*
X022081Y020146D02*
X026313Y020146D01*
X026258Y020047D02*
X025748Y020047D01*
X025783Y020032D02*
X025618Y020101D01*
X025438Y020101D01*
X025272Y020032D01*
X025145Y019906D01*
X025077Y019740D01*
X025077Y019560D01*
X025145Y019394D01*
X025272Y019268D01*
X025438Y019199D01*
X025618Y019199D01*
X025783Y019268D01*
X025910Y019394D01*
X025979Y019560D01*
X025979Y019740D01*
X025910Y019906D01*
X025783Y020032D01*
X025867Y019949D02*
X026231Y019949D01*
X026205Y019850D02*
X025933Y019850D01*
X025974Y019752D02*
X026188Y019752D01*
X026188Y019653D02*
X025979Y019653D01*
X025977Y019555D02*
X026188Y019555D01*
X026203Y019456D02*
X025936Y019456D01*
X025873Y019358D02*
X026230Y019358D01*
X026256Y019259D02*
X025763Y019259D01*
X025293Y019259D02*
X024582Y019259D01*
X024602Y019268D02*
X024729Y019394D01*
X024798Y019560D01*
X024798Y019740D01*
X024729Y019906D01*
X024602Y020032D01*
X024436Y020101D01*
X024257Y020101D01*
X024091Y020032D01*
X023964Y019906D01*
X023896Y019740D01*
X023896Y019560D01*
X023962Y019400D01*
X022031Y017469D01*
X022031Y017351D01*
X021603Y017351D01*
X021516Y017263D01*
X021516Y016037D01*
X021603Y015949D01*
X022909Y015949D01*
X022997Y016037D01*
X022997Y017263D01*
X022909Y017351D01*
X022549Y017351D01*
X024397Y019199D01*
X024436Y019199D01*
X024602Y019268D01*
X024692Y019358D02*
X025182Y019358D01*
X025120Y019456D02*
X024755Y019456D01*
X024796Y019555D02*
X025079Y019555D01*
X025077Y019653D02*
X024798Y019653D01*
X024793Y019752D02*
X025082Y019752D01*
X025122Y019850D02*
X024752Y019850D01*
X024686Y019949D02*
X025188Y019949D01*
X025307Y020047D02*
X024567Y020047D01*
X024126Y020047D02*
X022159Y020047D01*
X022164Y019949D02*
X024007Y019949D01*
X023941Y019850D02*
X021769Y019850D01*
X021729Y019830D02*
X021729Y019500D01*
X021504Y019275D01*
X021504Y016032D01*
X022146Y015390D01*
X022899Y015390D01*
X023227Y015122D02*
X018343Y015122D01*
X018245Y015221D02*
X023326Y015221D01*
X023424Y015319D02*
X018146Y015319D01*
X018048Y015418D02*
X023523Y015418D01*
X023621Y015516D02*
X017949Y015516D01*
X017851Y015615D02*
X028338Y015615D01*
X028338Y015713D02*
X017752Y015713D01*
X017548Y015949D02*
X016953Y016544D01*
X015859Y016544D01*
X014519Y015204D01*
X014519Y015030D01*
X014079Y015030D01*
X013639Y015221D02*
X013342Y015221D01*
X013440Y015319D02*
X013639Y015319D01*
X013639Y015290D02*
X013466Y015117D01*
X013539Y015418D02*
X013649Y015418D01*
X013637Y015516D02*
X013639Y015516D01*
X012929Y015806D02*
X012928Y015806D01*
X012772Y015650D01*
X012484Y015650D01*
X011282Y016107D02*
X011219Y016107D01*
X009973Y016107D02*
X008551Y016107D01*
X008452Y016206D02*
X009973Y016206D01*
X009973Y016304D02*
X008354Y016304D01*
X008759Y016501D02*
X008859Y016501D01*
X008859Y016600D02*
X008759Y016600D01*
X008759Y016698D02*
X008859Y016698D01*
X008859Y016994D02*
X008759Y016994D01*
X008759Y017092D02*
X008859Y017092D01*
X008859Y017191D02*
X008759Y017191D01*
X008759Y017289D02*
X008859Y017289D01*
X009148Y017289D02*
X010185Y017289D01*
X010185Y017191D02*
X009196Y017191D01*
X009196Y017092D02*
X010185Y017092D01*
X010185Y016994D02*
X009196Y016994D01*
X009293Y016009D02*
X009973Y016009D01*
X009973Y015910D02*
X009391Y015910D01*
X009435Y015812D02*
X009973Y015812D01*
X009973Y015713D02*
X009435Y015713D01*
X009435Y015615D02*
X009973Y015615D01*
X009973Y015516D02*
X009435Y015516D01*
X009435Y015418D02*
X009973Y015418D01*
X009973Y015319D02*
X009435Y015319D01*
X009435Y015221D02*
X009973Y015221D01*
X009973Y015122D02*
X009435Y015122D01*
X009435Y015024D02*
X009973Y015024D01*
X009973Y014925D02*
X009435Y014925D01*
X009435Y014827D02*
X009973Y014827D01*
X009973Y014728D02*
X009435Y014728D01*
X009435Y014630D02*
X009973Y014630D01*
X009973Y014531D02*
X009435Y014531D01*
X009435Y014433D02*
X009973Y014433D01*
X009973Y014334D02*
X009435Y014334D01*
X009338Y014236D02*
X009973Y014236D01*
X009973Y014137D02*
X009240Y014137D01*
X009141Y014039D02*
X009973Y014039D01*
X009973Y013940D02*
X009043Y013940D01*
X008944Y013842D02*
X009973Y013842D01*
X009973Y013743D02*
X008846Y013743D01*
X008949Y013400D02*
X009309Y013400D01*
X010173Y013400D01*
X009973Y013645D02*
X009416Y013645D01*
X009489Y012900D02*
X008949Y012900D01*
X008949Y012400D02*
X008679Y012400D01*
X008409Y012400D01*
X008409Y013589D01*
X009235Y014415D01*
X009235Y015784D01*
X007197Y018274D02*
X012593Y018274D01*
X012507Y018373D02*
X007156Y018373D01*
X007086Y018471D02*
X012466Y018471D01*
X012463Y018570D02*
X006970Y018570D01*
X006487Y018570D02*
X006037Y018570D01*
X005938Y018668D02*
X012484Y018668D01*
X012194Y018767D02*
X012094Y018767D01*
X012094Y018865D02*
X012194Y018865D01*
X012194Y018964D02*
X012094Y018964D01*
X012094Y019062D02*
X012194Y019062D01*
X012194Y019259D02*
X012094Y019259D01*
X012094Y019358D02*
X012194Y019358D01*
X012194Y019456D02*
X012094Y019456D01*
X012094Y019555D02*
X012194Y019555D01*
X011941Y019150D02*
X011738Y019150D01*
X011738Y018964D02*
X005972Y018964D01*
X005873Y018865D02*
X011738Y018865D01*
X012813Y019150D02*
X012813Y019373D01*
X013744Y019373D01*
X014234Y019161D02*
X013219Y019161D01*
X013219Y019062D02*
X014362Y019062D01*
X015278Y019132D02*
X015729Y019132D01*
X015729Y019315D01*
X016078Y019019D02*
X014911Y017852D01*
X014519Y017852D01*
X013556Y016895D02*
X017460Y016895D01*
X017460Y016797D02*
X013655Y016797D01*
X013753Y016698D02*
X015730Y016698D01*
X015632Y016600D02*
X013839Y016600D01*
X013458Y016994D02*
X017460Y016994D01*
X017460Y017092D02*
X013359Y017092D01*
X014460Y016501D02*
X015533Y016501D01*
X015435Y016403D02*
X014519Y016403D01*
X014519Y016304D02*
X015336Y016304D01*
X015238Y016206D02*
X014519Y016206D01*
X014519Y016107D02*
X015139Y016107D01*
X015041Y016009D02*
X014519Y016009D01*
X014519Y015910D02*
X014942Y015910D01*
X014844Y015812D02*
X014519Y015812D01*
X014519Y015713D02*
X014745Y015713D01*
X014647Y015615D02*
X014519Y015615D01*
X014519Y015516D02*
X014548Y015516D01*
X015132Y015221D02*
X015739Y015221D01*
X015739Y015319D02*
X015230Y015319D01*
X015329Y015418D02*
X015739Y015418D01*
X015739Y015516D02*
X015427Y015516D01*
X015526Y015615D02*
X015739Y015615D01*
X015739Y015713D02*
X015624Y015713D01*
X015723Y015812D02*
X015739Y015812D01*
X015939Y015800D02*
X015939Y015138D01*
X015448Y014647D01*
X015118Y014531D02*
X015081Y014531D01*
X015081Y014433D02*
X015168Y014433D01*
X015081Y014334D02*
X015290Y014334D01*
X015081Y014236D02*
X015939Y014236D01*
X015939Y014334D02*
X015606Y014334D01*
X015728Y014433D02*
X015939Y014433D01*
X015939Y014531D02*
X015779Y014531D01*
X015798Y014630D02*
X015939Y014630D01*
X015939Y014728D02*
X015812Y014728D01*
X015910Y014827D02*
X015939Y014827D01*
X015640Y015122D02*
X015081Y015122D01*
X015081Y015024D02*
X015542Y015024D01*
X015231Y014925D02*
X015081Y014925D01*
X015081Y014827D02*
X015144Y014827D01*
X015103Y014728D02*
X015081Y014728D01*
X015081Y014630D02*
X015098Y014630D01*
X015081Y014137D02*
X015939Y014137D01*
X015939Y014039D02*
X015081Y014039D01*
X015081Y013940D02*
X015939Y013940D01*
X015939Y013842D02*
X015081Y013842D01*
X015081Y013743D02*
X015939Y013743D01*
X015939Y013645D02*
X015081Y013645D01*
X015081Y013546D02*
X015939Y013546D01*
X015939Y013448D02*
X015081Y013448D01*
X015081Y013349D02*
X015939Y013349D01*
X015939Y013251D02*
X015081Y013251D01*
X015081Y013152D02*
X015939Y013152D01*
X015939Y013054D02*
X015015Y013054D01*
X014916Y012955D02*
X015939Y012955D01*
X015940Y012857D02*
X014818Y012857D01*
X014719Y012758D02*
X018179Y012758D01*
X018179Y012726D02*
X017783Y012726D01*
X017783Y012500D01*
X017794Y012462D01*
X017813Y012428D01*
X017841Y012400D01*
X017875Y012380D01*
X017914Y012370D01*
X018179Y012370D01*
X018179Y012726D01*
X018279Y012726D01*
X018279Y012826D01*
X018674Y012826D01*
X018674Y013052D01*
X018664Y013090D01*
X018644Y013124D01*
X018618Y013150D01*
X018674Y013206D01*
X018674Y013241D01*
X018725Y013190D01*
X019019Y012897D01*
X019019Y012067D01*
X019019Y012069D02*
X014030Y012069D01*
X014128Y012167D02*
X019019Y012167D01*
X019019Y012266D02*
X014227Y012266D01*
X014325Y012364D02*
X019019Y012364D01*
X019019Y012463D02*
X018664Y012463D01*
X018664Y012462D02*
X018674Y012500D01*
X018674Y012726D01*
X018279Y012726D01*
X018279Y012370D01*
X018544Y012370D01*
X018582Y012380D01*
X018616Y012400D01*
X018644Y012428D01*
X018664Y012462D01*
X018674Y012561D02*
X019019Y012561D01*
X019019Y012660D02*
X018674Y012660D01*
X018674Y012857D02*
X019019Y012857D01*
X019019Y012758D02*
X018279Y012758D01*
X018279Y012660D02*
X018179Y012660D01*
X018179Y012726D02*
X018179Y012826D01*
X017783Y012826D01*
X017783Y013052D01*
X017794Y013090D01*
X017813Y013124D01*
X017839Y013150D01*
X017783Y013206D01*
X017783Y013842D01*
X017871Y013930D01*
X018586Y013930D01*
X018674Y013842D01*
X018674Y013724D01*
X018757Y013724D01*
X018808Y013673D01*
X018869Y013733D01*
X018986Y013850D01*
X019099Y013850D01*
X019309Y014060D01*
X019381Y014060D01*
X019347Y014094D01*
X018806Y014094D01*
X017306Y015594D01*
X017272Y015512D01*
X017173Y015413D01*
X017045Y015360D01*
X016906Y015360D01*
X016814Y015398D01*
X016819Y015380D01*
X016819Y015290D01*
X016379Y015290D01*
X016819Y015290D01*
X016819Y015156D01*
X016692Y015030D01*
X016819Y015030D02*
X016819Y015120D01*
X016808Y015158D01*
X016807Y015160D01*
X016808Y015162D01*
X016819Y015200D01*
X016819Y015290D01*
X016379Y015290D01*
X016379Y015290D01*
X016379Y015070D01*
X016379Y015030D01*
X016379Y015030D01*
X016819Y015030D01*
X016819Y015024D02*
X017876Y015024D01*
X017778Y015122D02*
X016818Y015122D01*
X016819Y015221D02*
X017679Y015221D01*
X017581Y015319D02*
X016819Y015319D01*
X017178Y015418D02*
X017482Y015418D01*
X017384Y015516D02*
X017274Y015516D01*
X016975Y015710D02*
X016819Y015866D01*
X016819Y016060D01*
X016379Y016060D01*
X016379Y015800D02*
X015939Y015800D01*
X016379Y015550D02*
X016379Y015290D01*
X016379Y015290D01*
X016379Y015290D01*
X016379Y015330D01*
X016379Y015550D01*
X016379Y015550D01*
X016379Y015290D01*
X016379Y015030D01*
X016379Y015030D01*
X016379Y015122D02*
X016379Y015122D01*
X016379Y015221D02*
X016379Y015221D01*
X016379Y015319D02*
X016379Y015319D01*
X016379Y015418D02*
X016379Y015418D01*
X016379Y015516D02*
X016379Y015516D01*
X016815Y014925D02*
X017975Y014925D01*
X018073Y014827D02*
X016819Y014827D01*
X016819Y014728D02*
X018172Y014728D01*
X018270Y014630D02*
X016819Y014630D01*
X016819Y014531D02*
X018369Y014531D01*
X018467Y014433D02*
X016819Y014433D01*
X016819Y014334D02*
X018566Y014334D01*
X018664Y014236D02*
X016819Y014236D01*
X016819Y014137D02*
X018763Y014137D01*
X018674Y013842D02*
X018977Y013842D01*
X018879Y013743D02*
X018674Y013743D01*
X018674Y013524D02*
X018229Y013524D01*
X018674Y013524D02*
X018808Y013390D01*
X019069Y013650D01*
X019479Y013650D01*
X019757Y013349D02*
X020092Y013349D01*
X019994Y013448D02*
X019856Y013448D01*
X019889Y013480D02*
X019889Y013553D01*
X020206Y013235D01*
X020206Y012630D01*
X020066Y012630D01*
X019979Y012542D01*
X019891Y012630D01*
X019419Y012630D01*
X019419Y013062D01*
X019091Y013390D01*
X019125Y013424D01*
X019309Y013240D01*
X019648Y013240D01*
X019889Y013480D01*
X019889Y013546D02*
X019895Y013546D01*
X019659Y013251D02*
X020191Y013251D01*
X020206Y013152D02*
X019329Y013152D01*
X019298Y013251D02*
X019230Y013251D01*
X019200Y013349D02*
X019132Y013349D01*
X018808Y013390D02*
X019219Y012979D01*
X019219Y012150D01*
X019599Y012150D01*
X019979Y012266D02*
X019991Y012266D01*
X019979Y012364D02*
X019979Y012364D01*
X019979Y012463D02*
X019979Y012463D01*
X019960Y012561D02*
X019997Y012561D01*
X020206Y012660D02*
X019419Y012660D01*
X019419Y012758D02*
X020206Y012758D01*
X020206Y012857D02*
X019419Y012857D01*
X019419Y012955D02*
X020206Y012955D01*
X020206Y013054D02*
X019419Y013054D01*
X018960Y012955D02*
X018674Y012955D01*
X018673Y013054D02*
X018862Y013054D01*
X018763Y013152D02*
X018620Y013152D01*
X017837Y013152D02*
X016819Y013152D01*
X016819Y013054D02*
X017784Y013054D01*
X017783Y012955D02*
X016819Y012955D01*
X016817Y012857D02*
X017783Y012857D01*
X017783Y012660D02*
X014621Y012660D01*
X014522Y012561D02*
X017783Y012561D01*
X017793Y012463D02*
X014424Y012463D01*
X014055Y012660D02*
X011342Y012660D01*
X011440Y012561D02*
X013957Y012561D01*
X013858Y012463D02*
X011539Y012463D01*
X011637Y012364D02*
X013760Y012364D01*
X013661Y012266D02*
X011736Y012266D01*
X011834Y012167D02*
X013563Y012167D01*
X013464Y012069D02*
X011933Y012069D01*
X012031Y011970D02*
X013366Y011970D01*
X013267Y011872D02*
X012130Y011872D01*
X012228Y011773D02*
X013169Y011773D01*
X013439Y011478D02*
X020868Y011478D01*
X020770Y011576D02*
X013537Y011576D01*
X013636Y011675D02*
X019332Y011675D01*
X019226Y011773D02*
X013734Y011773D01*
X013833Y011872D02*
X019219Y011872D01*
X019116Y011970D02*
X013931Y011970D01*
X013340Y011379D02*
X022025Y011379D01*
X021926Y011281D02*
X013389Y011281D01*
X013389Y011182D02*
X021828Y011182D01*
X021729Y011084D02*
X017728Y011084D01*
X017733Y010985D02*
X021631Y010985D01*
X021554Y010887D02*
X017733Y010887D01*
X017733Y010788D02*
X021554Y010788D01*
X021554Y010690D02*
X017733Y010690D01*
X017733Y010591D02*
X018613Y010591D01*
X018612Y010493D02*
X017733Y010493D01*
X017733Y010394D02*
X018612Y010394D01*
X018612Y010296D02*
X017704Y010296D01*
X017229Y010701D02*
X016724Y010701D01*
X016433Y010410D01*
X015889Y010410D01*
X015509Y010410D01*
X015509Y010520D01*
X015099Y010930D01*
X015228Y011084D02*
X016730Y011084D01*
X016724Y010985D02*
X015326Y010985D01*
X015425Y010887D02*
X016627Y010887D01*
X016528Y010788D02*
X015523Y010788D01*
X015622Y010690D02*
X016430Y010690D01*
X016700Y010394D02*
X016724Y010394D01*
X016753Y010296D02*
X016601Y010296D01*
X015589Y010197D02*
X015449Y010197D01*
X015449Y010099D02*
X015585Y010099D01*
X013533Y010591D02*
X013381Y010591D01*
X013479Y010690D02*
X013533Y010690D01*
X012628Y011379D02*
X012622Y011379D01*
X012524Y011478D02*
X012726Y011478D01*
X012779Y011576D02*
X012425Y011576D01*
X012327Y011675D02*
X012810Y011675D01*
X012569Y009705D02*
X012494Y009705D01*
X012569Y009606D02*
X012396Y009606D01*
X012297Y009508D02*
X012569Y009508D01*
X012640Y009409D02*
X012199Y009409D01*
X012100Y009311D02*
X012738Y009311D01*
X012779Y009212D02*
X012002Y009212D01*
X011903Y009114D02*
X012779Y009114D01*
X012779Y009015D02*
X011805Y009015D01*
X011706Y008917D02*
X012779Y008917D01*
X012779Y008818D02*
X011608Y008818D01*
X011509Y008720D02*
X012779Y008720D01*
X012779Y008621D02*
X011411Y008621D01*
X011312Y008523D02*
X012779Y008523D01*
X012779Y008424D02*
X011214Y008424D01*
X011115Y008326D02*
X012779Y008326D01*
X012779Y008227D02*
X008538Y008227D01*
X008424Y008129D02*
X012779Y008129D01*
X012779Y008030D02*
X001679Y008030D01*
X001679Y007932D02*
X012779Y007932D01*
X012998Y007439D02*
X013437Y007439D01*
X013535Y007341D02*
X012900Y007341D01*
X012801Y007242D02*
X013634Y007242D01*
X013732Y007144D02*
X012703Y007144D01*
X012604Y007045D02*
X013026Y007045D01*
X012988Y006947D02*
X012506Y006947D01*
X012407Y006848D02*
X012988Y006848D01*
X012988Y006750D02*
X012309Y006750D01*
X013344Y006750D02*
X013444Y006750D01*
X013444Y006848D02*
X013344Y006848D01*
X013344Y006947D02*
X013444Y006947D01*
X013444Y007045D02*
X013344Y007045D01*
X013344Y006553D02*
X013444Y006553D01*
X013444Y006454D02*
X013344Y006454D01*
X013344Y006356D02*
X013444Y006356D01*
X013444Y006257D02*
X013344Y006257D01*
X011844Y005765D02*
X009501Y005765D01*
X009509Y005666D02*
X011769Y005666D01*
X011732Y005568D02*
X011662Y005568D01*
X011562Y004884D02*
X010865Y004884D01*
X010678Y004583D02*
X009433Y004583D01*
X009509Y004484D02*
X010776Y004484D01*
X010678Y004386D02*
X009509Y004386D01*
X009509Y004150D02*
X009103Y004150D01*
X009509Y004150D02*
X010725Y004150D01*
X011224Y004649D01*
X011514Y004649D01*
X011629Y004534D01*
X012580Y004534D01*
X012580Y004790D02*
X011656Y004790D01*
X011562Y004884D01*
X011369Y004299D02*
X011390Y004278D01*
X012580Y004278D01*
X012580Y004022D02*
X012235Y004022D01*
X012193Y004064D01*
X011629Y004064D01*
X011514Y003949D01*
X010557Y003949D01*
X009509Y002900D01*
X009103Y002900D01*
X009509Y002613D02*
X010533Y002613D01*
X010533Y002711D02*
X009602Y002711D01*
X009480Y002514D02*
X009975Y002514D01*
X010177Y002221D02*
X009606Y001650D01*
X009509Y001650D01*
X009103Y001650D01*
X009509Y001923D02*
X009596Y001923D01*
X009695Y002022D02*
X009494Y002022D01*
X010378Y002514D02*
X010533Y002514D01*
X010576Y002416D02*
X010475Y002416D01*
X010780Y001871D02*
X009973Y001064D01*
X010772Y001037D02*
X016490Y001037D01*
X016405Y001135D02*
X010772Y001135D01*
X010774Y001234D02*
X016258Y001234D01*
X016199Y001332D02*
X010872Y001332D01*
X010971Y001431D02*
X016199Y001431D01*
X016199Y001650D02*
X016605Y001650D01*
X016605Y001205D01*
X019877Y001205D01*
X022376Y003703D01*
X022640Y003439D01*
X024295Y003439D01*
X024687Y003831D01*
X024687Y004497D01*
X026479Y006288D01*
X026479Y007650D01*
X026777Y007341D02*
X027180Y007341D01*
X027103Y007439D02*
X026876Y007439D01*
X026909Y007538D02*
X027063Y007538D01*
X026909Y007636D02*
X027439Y007636D01*
X027479Y007650D02*
X026944Y008185D01*
X026944Y008214D01*
X026762Y008326D02*
X027195Y008326D01*
X027096Y008424D02*
X026861Y008424D01*
X026909Y008523D02*
X027049Y008523D01*
X027049Y008472D02*
X027300Y008220D01*
X027657Y008220D01*
X027909Y008472D01*
X027909Y008828D01*
X027657Y009080D01*
X027300Y009080D01*
X027049Y008828D01*
X027049Y008472D01*
X027049Y008621D02*
X026909Y008621D01*
X026909Y008720D02*
X027049Y008720D01*
X027049Y008818D02*
X026909Y008818D01*
X026820Y008917D02*
X027137Y008917D01*
X027235Y009015D02*
X026722Y009015D01*
X026747Y009311D02*
X027210Y009311D01*
X027300Y009220D02*
X027657Y009220D01*
X027909Y009472D01*
X027909Y009828D01*
X027657Y010080D01*
X027300Y010080D01*
X027049Y009828D01*
X027049Y009472D01*
X027300Y009220D01*
X027111Y009409D02*
X026846Y009409D01*
X026909Y009508D02*
X027049Y009508D01*
X027049Y009606D02*
X026909Y009606D01*
X026909Y009705D02*
X027049Y009705D01*
X027049Y009803D02*
X026909Y009803D01*
X026835Y009902D02*
X027122Y009902D01*
X027220Y010000D02*
X026737Y010000D01*
X026732Y010296D02*
X027225Y010296D01*
X027300Y010220D02*
X027657Y010220D01*
X027909Y010472D01*
X027909Y010828D01*
X027657Y011080D01*
X027300Y011080D01*
X027049Y010828D01*
X027049Y010472D01*
X027300Y010220D01*
X027126Y010394D02*
X026831Y010394D01*
X026909Y010493D02*
X027049Y010493D01*
X027049Y010591D02*
X026909Y010591D01*
X026909Y010690D02*
X027049Y010690D01*
X027049Y010788D02*
X026909Y010788D01*
X026850Y010887D02*
X027107Y010887D01*
X027205Y010985D02*
X026752Y010985D01*
X026830Y011084D02*
X028338Y011084D01*
X028338Y011182D02*
X026929Y011182D01*
X027027Y011281D02*
X027240Y011281D01*
X027141Y011379D02*
X027126Y011379D01*
X026979Y011515D02*
X026979Y012150D01*
X027479Y012650D01*
X027910Y012467D02*
X027523Y012080D01*
X027479Y012080D01*
X027479Y011650D01*
X027909Y011675D02*
X028338Y011675D01*
X028338Y011773D02*
X027909Y011773D01*
X027865Y011872D02*
X028338Y011872D01*
X028338Y011970D02*
X027767Y011970D01*
X027794Y012069D02*
X028338Y012069D01*
X028338Y012167D02*
X027893Y012167D01*
X027991Y012266D02*
X028338Y012266D01*
X028338Y012364D02*
X028090Y012364D01*
X028110Y012463D02*
X028338Y012463D01*
X028338Y012561D02*
X028110Y012561D01*
X028110Y012660D02*
X028338Y012660D01*
X028338Y012758D02*
X028110Y012758D01*
X028110Y012857D02*
X028338Y012857D01*
X028338Y012955D02*
X028110Y012955D01*
X028110Y013054D02*
X028338Y013054D01*
X028338Y013152D02*
X028110Y013152D01*
X028110Y013251D02*
X028338Y013251D01*
X028338Y013349D02*
X028110Y013349D01*
X028110Y013448D02*
X028338Y013448D01*
X028338Y013546D02*
X028110Y013546D01*
X028110Y013645D02*
X028338Y013645D01*
X028338Y013743D02*
X028110Y013743D01*
X028110Y013842D02*
X028338Y013842D01*
X028338Y013940D02*
X028110Y013940D01*
X028110Y014039D02*
X028338Y014039D01*
X028338Y014137D02*
X028110Y014137D01*
X028110Y014236D02*
X028338Y014236D01*
X028338Y014334D02*
X028110Y014334D01*
X028110Y014433D02*
X028338Y014433D01*
X028338Y014531D02*
X028110Y014531D01*
X028110Y014630D02*
X028338Y014630D01*
X028338Y014728D02*
X028110Y014728D01*
X028110Y014827D02*
X028338Y014827D01*
X028338Y014925D02*
X028103Y014925D01*
X028004Y015024D02*
X028338Y015024D01*
X028338Y015122D02*
X027906Y015122D01*
X027807Y015221D02*
X028338Y015221D01*
X028338Y015319D02*
X027709Y015319D01*
X027610Y015418D02*
X028338Y015418D01*
X028338Y015516D02*
X027512Y015516D01*
X027355Y015390D02*
X027910Y014835D01*
X027910Y012467D01*
X027909Y011576D02*
X028338Y011576D01*
X028338Y011478D02*
X027909Y011478D01*
X027816Y011379D02*
X028338Y011379D01*
X028338Y011281D02*
X027717Y011281D01*
X027752Y010985D02*
X028338Y010985D01*
X028338Y010887D02*
X027850Y010887D01*
X027909Y010788D02*
X028338Y010788D01*
X028338Y010690D02*
X027909Y010690D01*
X027909Y010591D02*
X028338Y010591D01*
X028338Y010493D02*
X027909Y010493D01*
X027831Y010394D02*
X028338Y010394D01*
X028338Y010296D02*
X027732Y010296D01*
X027737Y010000D02*
X028338Y010000D01*
X028338Y009902D02*
X027835Y009902D01*
X027909Y009803D02*
X028338Y009803D01*
X028338Y009705D02*
X027909Y009705D01*
X027909Y009606D02*
X028338Y009606D01*
X028338Y009508D02*
X027909Y009508D01*
X027846Y009409D02*
X028338Y009409D01*
X028338Y009311D02*
X027747Y009311D01*
X027722Y009015D02*
X028338Y009015D01*
X028338Y008917D02*
X027820Y008917D01*
X027909Y008818D02*
X028338Y008818D01*
X028338Y008720D02*
X027909Y008720D01*
X027909Y008621D02*
X028338Y008621D01*
X028338Y008523D02*
X027909Y008523D01*
X027861Y008424D02*
X028338Y008424D01*
X028338Y008326D02*
X027762Y008326D01*
X027664Y008227D02*
X028338Y008227D01*
X028338Y008129D02*
X025306Y008129D01*
X025306Y008227D02*
X026293Y008227D01*
X026195Y008326D02*
X025306Y008326D01*
X025274Y008424D02*
X026096Y008424D01*
X026049Y008523D02*
X025306Y008523D01*
X025306Y008621D02*
X026049Y008621D01*
X026049Y008720D02*
X025306Y008720D01*
X025306Y008675D02*
X025306Y008813D01*
X025296Y008852D01*
X025276Y008886D01*
X025248Y008914D01*
X025214Y008933D01*
X025175Y008944D01*
X024997Y008944D01*
X024997Y008675D01*
X025306Y008675D01*
X025305Y008818D02*
X026049Y008818D01*
X026137Y008917D02*
X025243Y008917D01*
X024997Y008917D02*
X024960Y008917D01*
X024960Y008818D02*
X024997Y008818D01*
X024997Y008720D02*
X024960Y008720D01*
X024960Y008675D02*
X024960Y008637D01*
X024651Y008637D01*
X024497Y008637D01*
X024497Y008675D01*
X024960Y008675D01*
X024497Y008720D02*
X024460Y008720D01*
X024460Y008818D02*
X024497Y008818D01*
X024497Y008917D02*
X024460Y008917D01*
X024182Y009114D02*
X028338Y009114D01*
X028338Y009212D02*
X024281Y009212D01*
X023345Y009400D02*
X026165Y012220D01*
X026479Y012220D01*
X026479Y012650D01*
X026479Y013220D02*
X026479Y013650D01*
X026479Y013220D02*
X026411Y013220D01*
X024509Y011318D01*
X024509Y011239D01*
X023670Y010400D01*
X023345Y010400D01*
X022860Y010400D01*
X022506Y010721D02*
X023708Y010721D01*
X024238Y011251D01*
X024238Y012046D01*
X026280Y014088D01*
X026656Y014088D01*
X027049Y013695D01*
X027049Y013650D01*
X027479Y013650D01*
X027479Y014650D02*
X027049Y014650D01*
X027049Y014695D01*
X026554Y015190D01*
X023899Y015190D01*
X023685Y014976D01*
X023685Y014150D01*
X023973Y014150D01*
X024484Y014150D02*
X024772Y014150D01*
X024914Y014009D01*
X024939Y014009D01*
X024931Y014568D02*
X024854Y014568D01*
X024772Y014650D01*
X024484Y014650D01*
X023973Y014650D02*
X023973Y014977D01*
X025721Y014977D01*
X026049Y014650D01*
X026479Y014650D01*
X027355Y015390D02*
X023778Y015390D01*
X023223Y014835D01*
X023223Y011949D01*
X022466Y011192D01*
X022411Y011192D01*
X021954Y010735D01*
X021954Y008322D01*
X022376Y007900D01*
X022860Y007900D01*
X022860Y008400D02*
X022376Y008400D01*
X022176Y008600D01*
X022176Y010674D01*
X022494Y010992D01*
X023484Y010992D01*
X023801Y011308D01*
X022961Y011970D02*
X022939Y011970D01*
X022939Y012069D02*
X023023Y012069D01*
X023023Y012167D02*
X022939Y012167D01*
X022906Y012266D02*
X023023Y012266D01*
X023023Y012364D02*
X022739Y012364D01*
X022739Y012463D02*
X023023Y012463D01*
X023023Y012561D02*
X022715Y012561D01*
X021979Y012467D02*
X021979Y012467D01*
X021979Y012463D02*
X021979Y012463D01*
X021979Y012364D02*
X021979Y012364D01*
X021599Y012410D02*
X021599Y012554D01*
X021828Y012783D01*
X021219Y012800D02*
X021219Y012278D01*
X021219Y011890D02*
X020739Y012370D01*
X020739Y011890D02*
X020359Y011890D01*
X020655Y011675D02*
X020671Y011675D01*
X020739Y011890D02*
X020959Y011670D01*
X022139Y011670D01*
X022359Y011890D01*
X021599Y011890D02*
X021219Y011890D01*
X021219Y012800D02*
X022069Y013650D01*
X022659Y013251D02*
X023023Y013251D01*
X023023Y013349D02*
X022757Y013349D01*
X022856Y013448D02*
X023023Y013448D01*
X023023Y013546D02*
X022889Y013546D01*
X023023Y014236D02*
X019771Y014236D01*
X019673Y014334D02*
X023023Y014334D01*
X023023Y014433D02*
X019574Y014433D01*
X019287Y014039D02*
X016819Y014039D01*
X016819Y013940D02*
X019189Y013940D01*
X018934Y014531D02*
X023023Y014531D01*
X023023Y014630D02*
X018836Y014630D01*
X018737Y014728D02*
X023023Y014728D01*
X023023Y014827D02*
X018639Y014827D01*
X018540Y014925D02*
X023030Y014925D01*
X023129Y015024D02*
X018442Y015024D01*
X019016Y015812D02*
X028338Y015812D01*
X028338Y015910D02*
X019114Y015910D01*
X019213Y016009D02*
X021544Y016009D01*
X021516Y016107D02*
X019311Y016107D01*
X019410Y016206D02*
X021516Y016206D01*
X021516Y016304D02*
X019508Y016304D01*
X019607Y016403D02*
X021516Y016403D01*
X021516Y016501D02*
X019705Y016501D01*
X019804Y016600D02*
X021516Y016600D01*
X021516Y016698D02*
X019902Y016698D01*
X020001Y016797D02*
X021516Y016797D01*
X021516Y016895D02*
X020099Y016895D01*
X020198Y016994D02*
X021516Y016994D01*
X021516Y017092D02*
X020296Y017092D01*
X020395Y017191D02*
X021516Y017191D01*
X021541Y017289D02*
X020493Y017289D01*
X020592Y017388D02*
X022031Y017388D01*
X022048Y017486D02*
X020690Y017486D01*
X020789Y017585D02*
X022146Y017585D01*
X022245Y017683D02*
X020799Y017683D01*
X020799Y017782D02*
X022343Y017782D01*
X022442Y017880D02*
X020799Y017880D01*
X020799Y017979D02*
X022540Y017979D01*
X022639Y018077D02*
X020799Y018077D01*
X020799Y018176D02*
X022737Y018176D01*
X022836Y018274D02*
X020799Y018274D01*
X020799Y018373D02*
X022934Y018373D01*
X023033Y018471D02*
X020799Y018471D01*
X020799Y018570D02*
X023131Y018570D01*
X023230Y018668D02*
X020799Y018668D01*
X020799Y018767D02*
X023328Y018767D01*
X023427Y018865D02*
X020799Y018865D01*
X020799Y018964D02*
X023525Y018964D01*
X023624Y019062D02*
X020799Y019062D01*
X020799Y019161D02*
X023722Y019161D01*
X023821Y019259D02*
X020830Y019259D01*
X020859Y019358D02*
X023919Y019358D01*
X023939Y019456D02*
X020859Y019456D01*
X020859Y019555D02*
X021327Y019555D01*
X021294Y019653D02*
X020859Y019653D01*
X020859Y019752D02*
X021294Y019752D01*
X021294Y019830D02*
X021729Y019830D01*
X021689Y019850D02*
X020859Y019850D01*
X020842Y019949D02*
X020946Y019949D01*
X021002Y019830D02*
X020811Y020020D01*
X020229Y020020D01*
X020224Y019949D02*
X020234Y019949D01*
X020224Y019850D02*
X020234Y019850D01*
X020224Y019752D02*
X020234Y019752D01*
X020084Y020047D02*
X020488Y020047D01*
X020390Y020146D02*
X020076Y020146D01*
X019978Y020244D02*
X020374Y020244D01*
X020364Y020343D02*
X020093Y020343D01*
X020119Y020441D02*
X020339Y020441D01*
X020339Y020540D02*
X020121Y020540D01*
X020159Y020638D02*
X020339Y020638D01*
X020339Y020737D02*
X020159Y020737D01*
X020159Y020835D02*
X020339Y020835D01*
X020339Y020934D02*
X020159Y020934D01*
X020159Y021032D02*
X020359Y021032D01*
X020373Y021131D02*
X020175Y021131D01*
X020194Y021229D02*
X020338Y021229D01*
X020260Y021328D02*
X020197Y021328D01*
X019624Y020343D02*
X015996Y020343D01*
X016075Y020146D02*
X017457Y020146D01*
X017441Y020047D02*
X016075Y020047D01*
X016075Y019949D02*
X017441Y019949D01*
X017441Y019850D02*
X016075Y019850D01*
X016075Y019752D02*
X017441Y019752D01*
X018446Y019062D02*
X020399Y019062D01*
X020399Y018964D02*
X018446Y018964D01*
X018446Y018865D02*
X020399Y018865D01*
X020399Y018767D02*
X018446Y018767D01*
X018446Y018668D02*
X020399Y018668D01*
X020399Y018570D02*
X018446Y018570D01*
X018446Y018471D02*
X020399Y018471D01*
X020399Y018373D02*
X018446Y018373D01*
X018446Y018274D02*
X020399Y018274D01*
X020399Y018176D02*
X018446Y018176D01*
X018446Y018077D02*
X020399Y018077D01*
X020399Y017979D02*
X018446Y017979D01*
X018446Y017880D02*
X020399Y017880D01*
X020399Y017782D02*
X018446Y017782D01*
X018446Y017683D02*
X020322Y017683D01*
X020223Y017585D02*
X018446Y017585D01*
X018446Y017486D02*
X020125Y017486D01*
X020026Y017388D02*
X018446Y017388D01*
X018916Y017289D02*
X019928Y017289D01*
X019829Y017191D02*
X018942Y017191D01*
X018942Y017092D02*
X019731Y017092D01*
X019632Y016994D02*
X018942Y016994D01*
X018942Y016895D02*
X019534Y016895D01*
X019435Y016797D02*
X018942Y016797D01*
X018942Y016698D02*
X019337Y016698D01*
X019238Y016600D02*
X018942Y016600D01*
X018942Y016501D02*
X019140Y016501D01*
X019041Y016403D02*
X018942Y016403D01*
X018942Y016304D02*
X018943Y016304D01*
X018870Y015949D02*
X017548Y015949D01*
X017460Y016403D02*
X017377Y016403D01*
X017460Y016501D02*
X017279Y016501D01*
X017180Y016600D02*
X017460Y016600D01*
X017460Y016698D02*
X017082Y016698D01*
X018870Y015949D02*
X020599Y017677D01*
X020599Y019610D01*
X021002Y019830D02*
X021294Y019830D01*
X021689Y019752D02*
X021769Y019752D01*
X021769Y019653D02*
X021689Y019653D01*
X021689Y019555D02*
X021769Y019555D01*
X022130Y019555D02*
X023898Y019555D01*
X023896Y019653D02*
X022164Y019653D01*
X022164Y019752D02*
X023900Y019752D01*
X024359Y019161D02*
X026310Y019161D01*
X026367Y019062D02*
X024260Y019062D01*
X024162Y018964D02*
X026443Y018964D01*
X026542Y018865D02*
X024063Y018865D01*
X023965Y018767D02*
X026678Y018767D01*
X026873Y018668D02*
X023866Y018668D01*
X023768Y018570D02*
X028338Y018570D01*
X028338Y018668D02*
X027584Y018668D01*
X027779Y018767D02*
X028338Y018767D01*
X028338Y018865D02*
X027915Y018865D01*
X028014Y018964D02*
X028338Y018964D01*
X028338Y019062D02*
X028091Y019062D01*
X028148Y019161D02*
X028338Y019161D01*
X028338Y019259D02*
X028201Y019259D01*
X028227Y019358D02*
X028338Y019358D01*
X028338Y019456D02*
X028254Y019456D01*
X028269Y019555D02*
X028338Y019555D01*
X028338Y019653D02*
X028269Y019653D01*
X028269Y019752D02*
X028338Y019752D01*
X028338Y019850D02*
X028252Y019850D01*
X028226Y019949D02*
X028338Y019949D01*
X028338Y020047D02*
X028199Y020047D01*
X028144Y020146D02*
X028338Y020146D01*
X028338Y020244D02*
X028087Y020244D01*
X028008Y020343D02*
X028338Y020343D01*
X028338Y020441D02*
X027909Y020441D01*
X027769Y020540D02*
X028338Y020540D01*
X028338Y020638D02*
X027562Y020638D01*
X027883Y020934D02*
X028338Y020934D01*
X028338Y021032D02*
X028080Y021032D01*
X028221Y021131D02*
X028338Y021131D01*
X028338Y021229D02*
X028319Y021229D01*
X028338Y020835D02*
X022029Y020835D01*
X022139Y020737D02*
X028338Y020737D01*
X028338Y018471D02*
X023669Y018471D01*
X023571Y018373D02*
X028338Y018373D01*
X028338Y018274D02*
X023472Y018274D01*
X023374Y018176D02*
X028338Y018176D01*
X028338Y018077D02*
X023275Y018077D01*
X023177Y017979D02*
X028338Y017979D01*
X028338Y017880D02*
X023078Y017880D01*
X022980Y017782D02*
X028338Y017782D01*
X028338Y017683D02*
X022881Y017683D01*
X022783Y017585D02*
X028338Y017585D01*
X028338Y017486D02*
X022684Y017486D01*
X022586Y017388D02*
X028338Y017388D01*
X028338Y017289D02*
X022971Y017289D01*
X022997Y017191D02*
X028338Y017191D01*
X028338Y017092D02*
X022997Y017092D01*
X022997Y016994D02*
X028338Y016994D01*
X028338Y016895D02*
X022997Y016895D01*
X022997Y016797D02*
X028338Y016797D01*
X028338Y016698D02*
X022997Y016698D01*
X022997Y016600D02*
X028338Y016600D01*
X028338Y016501D02*
X022997Y016501D01*
X022997Y016403D02*
X028338Y016403D01*
X028338Y016304D02*
X022997Y016304D01*
X022997Y016206D02*
X028338Y016206D01*
X028338Y016107D02*
X022997Y016107D01*
X022969Y016009D02*
X028338Y016009D01*
X026979Y011515D02*
X026684Y011220D01*
X025665Y011220D01*
X023345Y008900D01*
X022860Y008900D01*
X022860Y009400D02*
X023345Y009400D01*
X022860Y009900D02*
X022376Y009900D01*
X022376Y010591D01*
X022506Y010721D01*
X021554Y010591D02*
X020902Y010591D01*
X021012Y010493D02*
X021554Y010493D01*
X021554Y010394D02*
X021057Y010394D01*
X021248Y010296D02*
X021554Y010296D01*
X021554Y010197D02*
X021385Y010197D01*
X021442Y010099D02*
X021459Y010099D01*
X021115Y009972D02*
X021043Y009900D01*
X019581Y009900D01*
X019097Y009900D01*
X018612Y009902D02*
X017733Y009902D01*
X017733Y009803D02*
X018612Y009803D01*
X018617Y009705D02*
X017733Y009705D01*
X017706Y010000D02*
X018612Y010000D01*
X019097Y010400D02*
X019581Y010400D01*
X019695Y010287D01*
X020723Y010287D01*
X020543Y010591D02*
X019673Y010591D01*
X019772Y010493D02*
X020434Y010493D01*
X018279Y012463D02*
X018179Y012463D01*
X018179Y012561D02*
X018279Y012561D01*
X017783Y013251D02*
X016819Y013251D01*
X016819Y013349D02*
X017783Y013349D01*
X017783Y013448D02*
X016819Y013448D01*
X016819Y013546D02*
X017783Y013546D01*
X017783Y013645D02*
X016819Y013645D01*
X016819Y013743D02*
X017783Y013743D01*
X017783Y013842D02*
X016819Y013842D01*
X012813Y018548D02*
X012813Y019150D01*
X012816Y020638D02*
X012885Y020638D01*
X012877Y021131D02*
X012279Y021131D01*
X012279Y021229D02*
X012179Y021229D01*
X012179Y021328D02*
X012279Y021328D01*
X012279Y021426D02*
X012179Y021426D01*
X012179Y021525D02*
X012279Y021525D01*
X012279Y021623D02*
X012179Y021623D01*
X012179Y021722D02*
X012279Y021722D01*
X012768Y021722D02*
X012825Y021722D01*
X012828Y021623D02*
X012870Y021623D01*
X012279Y021032D02*
X012179Y021032D01*
X012179Y020934D02*
X012279Y020934D01*
X012279Y020835D02*
X012179Y020835D01*
X012179Y020737D02*
X012279Y020737D01*
X012279Y020638D02*
X012179Y020638D01*
X011551Y021145D02*
X011551Y021145D01*
X013807Y021722D02*
X014367Y021722D01*
X014452Y021820D02*
X013889Y021820D01*
X006371Y018471D02*
X006135Y018471D01*
X006234Y018373D02*
X006301Y018373D01*
X005610Y018059D02*
X005610Y017628D01*
X003995Y013940D02*
X003750Y013940D01*
X003723Y013842D02*
X003978Y013842D01*
X003978Y013743D02*
X003695Y013743D01*
X003638Y013645D02*
X003978Y013645D01*
X003978Y013546D02*
X003581Y013546D01*
X003498Y013448D02*
X003978Y013448D01*
X003978Y013349D02*
X003399Y013349D01*
X003252Y013251D02*
X003978Y013251D01*
X004022Y013152D02*
X003024Y013152D01*
X005084Y012955D02*
X006269Y012955D01*
X006269Y012857D02*
X005084Y012857D01*
X005084Y012758D02*
X006328Y012758D01*
X006537Y012660D02*
X005084Y012660D01*
X005084Y012561D02*
X006469Y012561D01*
X006469Y012463D02*
X005084Y012463D01*
X005084Y012364D02*
X006469Y012364D01*
X006469Y012266D02*
X005084Y012266D01*
X005084Y012167D02*
X006529Y012167D01*
X006479Y012069D02*
X005084Y012069D01*
X005084Y011970D02*
X006469Y011970D01*
X006469Y011872D02*
X005084Y011872D01*
X005084Y011773D02*
X006469Y011773D01*
X006522Y011675D02*
X005084Y011675D01*
X005660Y010197D02*
X006499Y010197D01*
X006492Y009705D02*
X003769Y009705D01*
X003765Y009803D02*
X004307Y009803D01*
X004063Y009508D02*
X003768Y009508D01*
X003769Y009606D02*
X006502Y009606D01*
X005660Y009902D02*
X005560Y009902D01*
X005560Y010000D02*
X005660Y010000D01*
X005660Y010099D02*
X005560Y010099D01*
X005610Y009059D02*
X006030Y008640D01*
X005332Y008326D02*
X001679Y008326D01*
X001679Y008424D02*
X005233Y008424D01*
X005135Y008523D02*
X001679Y008523D01*
X001679Y008621D02*
X002548Y008621D01*
X002259Y008720D02*
X001679Y008720D01*
X001679Y008818D02*
X002089Y008818D01*
X001990Y008917D02*
X001679Y008917D01*
X001679Y009015D02*
X001894Y009015D01*
X001837Y009114D02*
X001679Y009114D01*
X001679Y009212D02*
X001780Y009212D01*
X001742Y009311D02*
X001679Y009311D01*
X001679Y009409D02*
X001716Y009409D01*
X001690Y009508D02*
X001679Y009508D01*
X001679Y009606D02*
X001688Y009606D01*
X001679Y009705D02*
X001688Y009705D01*
X001679Y009803D02*
X001692Y009803D01*
X001679Y009902D02*
X001719Y009902D01*
X001745Y010000D02*
X001679Y010000D01*
X001679Y010099D02*
X001786Y010099D01*
X001843Y010197D02*
X001679Y010197D01*
X001679Y010296D02*
X001903Y010296D01*
X002001Y010394D02*
X001679Y010394D01*
X001679Y010493D02*
X002107Y010493D01*
X002277Y010591D02*
X001679Y010591D01*
X003741Y009409D02*
X003978Y009409D01*
X003978Y009311D02*
X003715Y009311D01*
X003677Y009212D02*
X003978Y009212D01*
X003978Y009114D02*
X003620Y009114D01*
X003564Y009015D02*
X003978Y009015D01*
X003978Y008917D02*
X003467Y008917D01*
X003368Y008818D02*
X003978Y008818D01*
X003978Y008720D02*
X003198Y008720D01*
X002909Y008621D02*
X004053Y008621D01*
X004805Y008621D02*
X005036Y008621D01*
X004938Y008720D02*
X004881Y008720D01*
X005734Y007538D02*
X009553Y007538D01*
X009455Y007439D02*
X005909Y007439D01*
X005991Y007341D02*
X009356Y007341D01*
X009437Y007138D02*
X006041Y007138D01*
X005841Y006750D02*
X005760Y006750D01*
X006241Y005272D02*
X007949Y005272D01*
X007949Y005174D02*
X006241Y005174D01*
X006241Y005075D02*
X007951Y005075D01*
X008021Y004977D02*
X006241Y004977D01*
X008305Y005469D02*
X008405Y005469D01*
X008405Y005568D02*
X008305Y005568D01*
X008305Y005666D02*
X008405Y005666D01*
X008405Y005765D02*
X008305Y005765D01*
X008984Y006400D02*
X009479Y006400D01*
X009685Y006400D01*
X009973Y006400D01*
X010770Y006159D02*
X015970Y006159D01*
X015970Y006060D02*
X015794Y006060D01*
X015868Y005962D02*
X015938Y005962D01*
X016170Y005910D02*
X016170Y006859D01*
X015555Y005804D02*
X015469Y005804D01*
X015147Y005765D02*
X015137Y005765D01*
X014877Y005046D02*
X015575Y005046D01*
X015624Y005095D01*
X015268Y004745D02*
X015222Y004790D01*
X014877Y004790D01*
X016087Y004780D02*
X018450Y004780D01*
X018356Y004878D02*
X016185Y004878D01*
X016935Y004583D02*
X017034Y004583D01*
X017303Y004583D02*
X017403Y004583D01*
X017403Y004484D02*
X017303Y004484D01*
X017303Y004386D02*
X017403Y004386D01*
X017403Y004287D02*
X017303Y004287D01*
X017686Y004977D02*
X018258Y004977D01*
X018159Y005075D02*
X017756Y005075D01*
X017759Y005174D02*
X018061Y005174D01*
X017962Y005272D02*
X017759Y005272D01*
X017864Y005371D02*
X017403Y005371D01*
X017759Y005469D02*
X017765Y005469D01*
X018632Y003204D02*
X021593Y003204D01*
X021495Y003105D02*
X018632Y003105D01*
X018592Y003007D02*
X021396Y003007D01*
X021298Y002908D02*
X018512Y002908D01*
X017403Y002022D02*
X017303Y002022D01*
X017303Y001923D02*
X017403Y001923D01*
X017403Y001825D02*
X017303Y001825D01*
X017303Y001726D02*
X017403Y001726D01*
X017759Y001529D02*
X019919Y001529D01*
X019820Y001431D02*
X017759Y001431D01*
X016199Y001650D02*
X015431Y001650D01*
X013601Y003674D02*
X012925Y002998D01*
X012875Y002998D01*
X012702Y002998D01*
X012580Y002998D01*
X012786Y002998D01*
X012786Y002998D01*
X012580Y002998D01*
X012580Y002998D01*
X012580Y003254D02*
X012235Y003254D01*
X010851Y001871D01*
X010780Y001871D01*
X010772Y000840D02*
X026674Y000840D01*
X026731Y000741D02*
X010772Y000741D01*
X010754Y000643D02*
X026809Y000643D01*
X026859Y002120D02*
X021075Y002120D01*
X021174Y002219D02*
X026957Y002219D01*
X027126Y002317D02*
X021272Y002317D01*
X021371Y002416D02*
X027403Y002416D01*
X027842Y002416D02*
X028338Y002416D01*
X028338Y002514D02*
X021469Y002514D01*
X021568Y002613D02*
X028338Y002613D01*
X028338Y002711D02*
X021666Y002711D01*
X021765Y002810D02*
X028338Y002810D01*
X028338Y002908D02*
X027297Y002908D01*
X027380Y002930D02*
X027617Y003067D01*
X027811Y003261D01*
X027948Y003498D01*
X028019Y003763D01*
X028019Y004037D01*
X027948Y004302D01*
X027811Y004539D01*
X027617Y004733D01*
X027380Y004870D01*
X027116Y004941D01*
X026842Y004941D01*
X026577Y004870D01*
X026340Y004733D01*
X026146Y004539D01*
X026009Y004302D01*
X025938Y004037D01*
X025938Y003763D01*
X026009Y003498D01*
X026146Y003261D01*
X026340Y003067D01*
X026577Y002930D01*
X026842Y002859D01*
X027116Y002859D01*
X027380Y002930D01*
X027512Y003007D02*
X028338Y003007D01*
X028338Y003105D02*
X027655Y003105D01*
X027754Y003204D02*
X028338Y003204D01*
X028338Y003302D02*
X027835Y003302D01*
X027892Y003401D02*
X028338Y003401D01*
X028338Y003499D02*
X027948Y003499D01*
X027975Y003598D02*
X028338Y003598D01*
X028338Y003696D02*
X028001Y003696D01*
X028019Y003795D02*
X028338Y003795D01*
X028338Y003893D02*
X028019Y003893D01*
X028019Y003992D02*
X028338Y003992D01*
X028338Y004090D02*
X028005Y004090D01*
X027979Y004189D02*
X028338Y004189D01*
X028338Y004287D02*
X027952Y004287D01*
X027900Y004386D02*
X028338Y004386D01*
X028338Y004484D02*
X027843Y004484D01*
X027768Y004583D02*
X028338Y004583D01*
X028338Y004681D02*
X027669Y004681D01*
X027536Y004780D02*
X028338Y004780D01*
X028338Y004878D02*
X027349Y004878D01*
X026608Y004878D02*
X025351Y004878D01*
X025253Y004780D02*
X026421Y004780D01*
X026288Y004681D02*
X025154Y004681D01*
X025056Y004583D02*
X026190Y004583D01*
X026114Y004484D02*
X024957Y004484D01*
X024887Y004386D02*
X026057Y004386D01*
X026005Y004287D02*
X025522Y004287D01*
X025627Y004189D02*
X025979Y004189D01*
X025952Y004090D02*
X025687Y004090D01*
X025728Y003992D02*
X025938Y003992D01*
X025938Y003893D02*
X025729Y003893D01*
X025722Y003795D02*
X025938Y003795D01*
X025956Y003696D02*
X025682Y003696D01*
X025613Y003598D02*
X025982Y003598D01*
X026009Y003499D02*
X025489Y003499D01*
X025067Y003499D02*
X024638Y003499D01*
X024539Y003401D02*
X026065Y003401D01*
X026122Y003302D02*
X024441Y003302D01*
X024736Y003598D02*
X024942Y003598D01*
X024874Y003696D02*
X024835Y003696D01*
X024887Y004189D02*
X024928Y004189D01*
X024887Y004287D02*
X025033Y004287D01*
X024487Y004287D02*
X024341Y004287D01*
X024446Y004189D02*
X024487Y004189D01*
X024487Y004386D02*
X024114Y004386D01*
X024212Y004484D02*
X024487Y004484D01*
X024490Y004583D02*
X024311Y004583D01*
X024409Y004681D02*
X024589Y004681D01*
X024508Y004780D02*
X024687Y004780D01*
X024606Y004878D02*
X024786Y004878D01*
X024705Y004977D02*
X024884Y004977D01*
X024803Y005075D02*
X024983Y005075D01*
X024902Y005174D02*
X025081Y005174D01*
X025000Y005272D02*
X025180Y005272D01*
X025099Y005371D02*
X025278Y005371D01*
X025197Y005469D02*
X025377Y005469D01*
X025296Y005568D02*
X025475Y005568D01*
X025394Y005666D02*
X025574Y005666D01*
X025493Y005765D02*
X025672Y005765D01*
X025771Y005863D02*
X025506Y005863D01*
X025506Y005962D02*
X025869Y005962D01*
X025968Y006060D02*
X025506Y006060D01*
X025506Y006159D02*
X026066Y006159D01*
X026165Y006257D02*
X025506Y006257D01*
X025506Y006356D02*
X026263Y006356D01*
X026279Y006454D02*
X025506Y006454D01*
X025506Y006553D02*
X026279Y006553D01*
X026279Y006651D02*
X025506Y006651D01*
X025506Y006750D02*
X026279Y006750D01*
X026279Y006848D02*
X025506Y006848D01*
X025506Y006947D02*
X026279Y006947D01*
X026279Y007045D02*
X025506Y007045D01*
X025506Y007144D02*
X026279Y007144D01*
X026278Y007242D02*
X025506Y007242D01*
X025506Y007341D02*
X026180Y007341D01*
X026081Y007439D02*
X025506Y007439D01*
X025506Y007538D02*
X026049Y007538D01*
X026049Y007636D02*
X025482Y007636D01*
X025383Y007735D02*
X026049Y007735D01*
X026053Y007833D02*
X025285Y007833D01*
X025293Y007932D02*
X026152Y007932D01*
X026250Y008030D02*
X025306Y008030D01*
X024979Y008144D02*
X024979Y007856D01*
X025306Y007529D01*
X025306Y007156D01*
X024979Y007156D01*
X025306Y007156D02*
X025306Y005861D01*
X023345Y003900D01*
X022860Y003900D01*
X022860Y004400D02*
X023345Y004400D01*
X024013Y005067D01*
X024013Y005895D01*
X024479Y006196D02*
X024479Y006644D01*
X024151Y006644D01*
X023979Y006644D01*
X024479Y006644D02*
X024651Y006644D01*
X024979Y006644D01*
X024479Y007156D02*
X024479Y007647D01*
X024479Y008144D01*
X023979Y008144D02*
X023979Y007856D01*
X023979Y007156D01*
X023651Y007156D01*
X023651Y005206D01*
X023345Y004900D01*
X022860Y004900D01*
X022860Y005400D02*
X022376Y005400D01*
X022376Y005400D01*
X021376Y006400D01*
X022376Y005400D02*
X022376Y003703D01*
X022356Y003401D02*
X022396Y003401D01*
X022494Y003302D02*
X022257Y003302D01*
X022159Y003204D02*
X026204Y003204D01*
X026302Y003105D02*
X022060Y003105D01*
X021962Y003007D02*
X026445Y003007D01*
X026660Y002908D02*
X021863Y002908D01*
X025450Y004977D02*
X028338Y004977D01*
X028338Y005075D02*
X025548Y005075D01*
X025647Y005174D02*
X028338Y005174D01*
X028338Y005272D02*
X025745Y005272D01*
X025844Y005371D02*
X028338Y005371D01*
X028338Y005469D02*
X025942Y005469D01*
X026041Y005568D02*
X028338Y005568D01*
X028338Y005666D02*
X026139Y005666D01*
X026238Y005765D02*
X028338Y005765D01*
X028338Y005863D02*
X026336Y005863D01*
X026435Y005962D02*
X028338Y005962D01*
X028338Y006060D02*
X026533Y006060D01*
X026632Y006159D02*
X028338Y006159D01*
X028338Y006257D02*
X026679Y006257D01*
X026679Y006356D02*
X028338Y006356D01*
X028338Y006454D02*
X026679Y006454D01*
X026679Y006553D02*
X028338Y006553D01*
X028338Y006651D02*
X026679Y006651D01*
X026679Y006750D02*
X028338Y006750D01*
X028338Y006848D02*
X026679Y006848D01*
X026679Y006947D02*
X028338Y006947D01*
X028338Y007045D02*
X026679Y007045D01*
X026909Y007735D02*
X027057Y007735D01*
X027089Y007833D02*
X026904Y007833D01*
X026805Y007932D02*
X027152Y007932D01*
X027277Y008030D02*
X026707Y008030D01*
X026664Y008227D02*
X027293Y008227D01*
X027439Y008030D02*
X027519Y008030D01*
X027519Y007932D02*
X027439Y007932D01*
X027439Y007833D02*
X027519Y007833D01*
X027519Y007735D02*
X027439Y007735D01*
X027519Y007636D02*
X028338Y007636D01*
X028338Y007538D02*
X027894Y007538D01*
X027854Y007439D02*
X028338Y007439D01*
X028338Y007341D02*
X027777Y007341D01*
X027519Y007341D02*
X027439Y007341D01*
X027439Y007439D02*
X027519Y007439D01*
X027519Y007538D02*
X027439Y007538D01*
X027901Y007735D02*
X028338Y007735D01*
X028338Y007833D02*
X027868Y007833D01*
X027805Y007932D02*
X028338Y007932D01*
X028338Y008030D02*
X027680Y008030D01*
X028338Y010099D02*
X025167Y010099D01*
X025266Y010197D02*
X028338Y010197D01*
X028338Y002317D02*
X028118Y002317D01*
X028287Y002219D02*
X028338Y002219D01*
X012580Y003510D02*
X012235Y003510D01*
X012097Y003510D01*
X011941Y003354D01*
X011796Y003704D02*
X011858Y003766D01*
X012235Y003766D01*
X012580Y003766D01*
X011462Y003204D02*
X011421Y003204D01*
X010533Y003598D02*
X010489Y003598D01*
X010219Y003893D02*
X009509Y003893D01*
X009509Y003795D02*
X010120Y003795D01*
X009628Y003302D02*
X009464Y003302D01*
X009509Y003204D02*
X009529Y003204D01*
X008741Y003302D02*
X008716Y003302D01*
X008405Y003302D02*
X008305Y003302D01*
X008305Y003204D02*
X008405Y003204D01*
X008405Y003105D02*
X008305Y003105D01*
X008305Y003007D02*
X008405Y003007D01*
X008405Y003795D02*
X008305Y003795D01*
X008305Y003893D02*
X008405Y003893D01*
X008405Y003992D02*
X008305Y003992D01*
X008305Y004090D02*
X008405Y004090D01*
X008405Y002022D02*
X008305Y002022D01*
X008305Y001923D02*
X008405Y001923D01*
X008405Y001825D02*
X008305Y001825D01*
X008305Y001726D02*
X008405Y001726D01*
X008405Y001529D02*
X008305Y001529D01*
X008305Y001431D02*
X008405Y001431D01*
X008405Y001332D02*
X008305Y001332D01*
X008305Y001234D02*
X008405Y001234D01*
X011158Y006731D02*
X010934Y006955D01*
X010853Y006955D01*
X010853Y007400D01*
X010522Y007833D02*
X010435Y007833D01*
X009774Y007833D02*
X001679Y007833D01*
X001679Y007735D02*
X009699Y007735D01*
X008080Y008129D02*
X001679Y008129D01*
X001679Y008227D02*
X007966Y008227D01*
X009219Y011130D02*
X009219Y011900D01*
X008949Y011900D01*
X008949Y012130D01*
X008679Y012400D01*
X009489Y012900D02*
X009979Y012410D01*
X009979Y011150D01*
D39*
X008252Y010356D03*
X008252Y008436D03*
X009479Y006400D03*
X011158Y006731D03*
X012082Y005507D03*
X010865Y004884D03*
X011369Y004299D03*
X011796Y003704D03*
X013209Y003750D03*
X013649Y003150D03*
X014149Y004250D03*
X013529Y004850D03*
X015375Y004383D03*
X015624Y005095D03*
X015555Y005804D03*
X016170Y006859D03*
X020723Y010287D03*
X021115Y009972D03*
X023801Y011308D03*
X021828Y012783D03*
X024939Y014009D03*
X024931Y014568D03*
X021121Y020255D03*
X016975Y015710D03*
X015448Y014647D03*
X012929Y015806D03*
X012882Y016775D03*
X012813Y018548D03*
X008182Y016804D03*
X022219Y006838D03*
X024013Y005895D03*
X024479Y006196D03*
X024479Y007647D03*
X018282Y003174D03*
X012137Y002279D03*
X010177Y002221D03*
D40*
X011179Y020400D02*
X007888Y020400D01*
X007278Y021010D01*
X007278Y021855D01*
X007024Y021855D01*
X006729Y022150D01*
X007278Y021855D02*
X007624Y022201D01*
X008229Y022201D01*
X008479Y022451D01*
X013026Y022451D01*
X013561Y021917D01*
X013561Y021900D01*
X013279Y021900D01*
X013561Y021917D02*
X013861Y022217D01*
X018221Y022217D01*
X019101Y022217D01*
X019386Y021932D01*
X019894Y021932D01*
X019894Y021924D01*
X019894Y021650D01*
X019894Y021235D01*
X019859Y021200D01*
X019859Y020690D01*
X019894Y021932D02*
X020079Y022117D01*
X020885Y022117D01*
X021729Y021273D01*
X021729Y020470D01*
D41*
X021121Y020255D02*
X020599Y020255D01*
X020599Y020690D01*
X020599Y021125D01*
X020599Y021223D01*
X020563Y021258D01*
X020563Y021650D01*
X019859Y020045D02*
X019303Y020045D01*
X019026Y019768D01*
X018221Y019768D01*
X018221Y017396D01*
X018201Y017376D01*
X018201Y016650D01*
X019859Y019610D02*
X019859Y020045D01*
X022256Y017376D02*
X024347Y019467D01*
X024347Y019650D01*
X022256Y017376D02*
X022256Y016650D01*
M02*
