G75*
G70*
%OFA0B0*%
%FSLAX24Y24*%
%IPPOS*%
%LPD*%
%AMOC8*
5,1,8,0,0,1.08239X$1,22.5*
%
%ADD10R,0.0580X0.0140*%
%ADD11R,0.0780X0.0220*%
%ADD12OC8,0.0520*%
%ADD13R,0.0220X0.0520*%
%ADD14R,0.1181X0.1102*%
%ADD15R,0.0394X0.0433*%
%ADD16R,0.0570X0.0360*%
%ADD17R,0.0472X0.0598*%
%ADD18R,0.0669X0.0256*%
%ADD19R,0.0390X0.0120*%
%ADD20R,0.1811X0.3150*%
%ADD21R,0.0460X0.0140*%
%ADD22R,0.0630X0.0210*%
%ADD23R,0.0900X0.0900*%
%ADD24C,0.0515*%
%ADD25R,0.0315X0.0315*%
%ADD26R,0.0602X0.0602*%
%ADD27C,0.0602*%
%ADD28R,0.0276X0.0354*%
%ADD29R,0.0591X0.0512*%
%ADD30R,0.0709X0.0630*%
%ADD31R,0.0512X0.0591*%
%ADD32R,0.0354X0.0276*%
%ADD33R,0.0433X0.0394*%
%ADD34C,0.0660*%
%ADD35C,0.0560*%
%ADD36OC8,0.0560*%
%ADD37R,0.1260X0.0598*%
%ADD38R,0.0396X0.0396*%
%ADD39C,0.0320*%
%ADD40C,0.0300*%
%ADD41C,0.0100*%
%ADD42C,0.0400*%
D10*
X016270Y013100D03*
X016270Y013350D03*
X016270Y013610D03*
X016270Y013860D03*
X016270Y014120D03*
X016270Y014380D03*
X016270Y014630D03*
X016270Y014890D03*
X016270Y015140D03*
X016270Y015400D03*
X016270Y015660D03*
X016270Y015910D03*
X016270Y016170D03*
X016270Y016420D03*
X018570Y016420D03*
X018570Y016170D03*
X018570Y015910D03*
X018570Y015660D03*
X018570Y015400D03*
X018570Y015140D03*
X018570Y014890D03*
X018570Y014630D03*
X018570Y014380D03*
X018570Y014120D03*
X018570Y013860D03*
X018570Y013610D03*
X018570Y013350D03*
X018570Y013100D03*
D11*
X011390Y013010D03*
X011390Y012510D03*
X011390Y012010D03*
X011390Y011510D03*
X011390Y010010D03*
X011390Y009510D03*
X011390Y009010D03*
X011390Y008510D03*
X009450Y008510D03*
X009450Y009010D03*
X009450Y009510D03*
X009450Y010010D03*
X009450Y011510D03*
X009450Y012010D03*
X009450Y012510D03*
X009450Y013010D03*
D12*
X009920Y007760D03*
X010920Y007760D03*
X010920Y004760D03*
X009920Y004760D03*
X021723Y013654D03*
X024723Y013654D03*
D13*
X022790Y019720D03*
X022420Y019720D03*
X022050Y019720D03*
X022050Y020800D03*
X022790Y020800D03*
D14*
X024448Y016760D03*
X020393Y016760D03*
D15*
X017920Y019425D03*
X017920Y020095D03*
X022086Y021760D03*
X022755Y021760D03*
X011420Y021425D03*
X011420Y022095D03*
D16*
X023920Y020580D03*
X023920Y019940D03*
D17*
X010747Y016185D03*
X010786Y014847D03*
X009086Y014847D03*
X009046Y016185D03*
D18*
X021038Y010516D03*
X021038Y010016D03*
X021038Y009516D03*
X021038Y009016D03*
X021038Y008516D03*
X021038Y008016D03*
X021038Y007516D03*
X021038Y007016D03*
X021038Y006516D03*
X021038Y006016D03*
X021038Y005516D03*
X021038Y005016D03*
X021038Y004516D03*
X021038Y004016D03*
X024802Y004016D03*
X024802Y004516D03*
X024802Y005016D03*
X024802Y005516D03*
X024802Y006016D03*
X024802Y006516D03*
X024802Y007016D03*
X024802Y007516D03*
X024802Y008016D03*
X024802Y008516D03*
X024802Y009016D03*
X024802Y009516D03*
X024802Y010016D03*
X024802Y010516D03*
D19*
X017569Y005667D03*
X017569Y005412D03*
X017569Y005156D03*
X017569Y004900D03*
X017569Y004644D03*
X017569Y004388D03*
X017569Y004132D03*
X017569Y003876D03*
X017569Y003620D03*
X017569Y003364D03*
X017569Y003108D03*
X017569Y002853D03*
X015271Y002853D03*
X015271Y003108D03*
X015271Y003364D03*
X015271Y003620D03*
X015271Y003876D03*
X015271Y004132D03*
X015271Y004388D03*
X015271Y004644D03*
X015271Y004900D03*
X015271Y005156D03*
X015271Y005412D03*
X015271Y005667D03*
D20*
X016428Y004268D03*
D21*
X015444Y010236D03*
X015444Y010756D03*
X014624Y010756D03*
X014624Y010496D03*
X014624Y010236D03*
X022040Y012000D03*
X022040Y012260D03*
X022040Y012520D03*
X022800Y012520D03*
X022800Y012000D03*
X024040Y012000D03*
X024040Y012520D03*
X024800Y012520D03*
X024800Y012260D03*
X024800Y012000D03*
D22*
X015561Y020510D03*
X015561Y021010D03*
X015561Y021510D03*
X015561Y022010D03*
X013461Y022010D03*
X013461Y021510D03*
X013461Y021010D03*
X013461Y020510D03*
D23*
X014511Y021260D03*
D24*
X007772Y007248D02*
X007257Y007248D01*
X007221Y006303D02*
X006706Y006303D01*
X004444Y005517D02*
X004444Y005003D01*
X005486Y003469D02*
X006001Y003469D01*
X008775Y003428D02*
X008775Y003943D01*
D25*
X009920Y004075D03*
X009920Y003484D03*
D26*
X006621Y009169D03*
X006621Y013669D03*
X006621Y018169D03*
D27*
X007802Y018169D03*
X007802Y019351D03*
X006621Y019351D03*
X006621Y014851D03*
X007802Y014851D03*
X007802Y013669D03*
X007802Y010351D03*
X006621Y010351D03*
X007802Y009169D03*
X026235Y004063D03*
X027416Y004063D03*
X027219Y018260D03*
X026038Y018260D03*
D28*
X026176Y014760D03*
X025664Y014760D03*
X025664Y014260D03*
X026176Y014260D03*
X014700Y015024D03*
X014188Y015024D03*
X014188Y015614D03*
X014700Y015614D03*
X014700Y016205D03*
X014188Y016205D03*
X013125Y016205D03*
X012613Y016205D03*
X012613Y015614D03*
X013125Y015614D03*
X013125Y015024D03*
X012613Y015024D03*
X012676Y006154D03*
X012164Y006154D03*
X013664Y006154D03*
X014176Y006154D03*
X013715Y001244D03*
X013204Y001244D03*
X012338Y001244D03*
X011826Y001244D03*
D29*
X014247Y002839D03*
X014247Y003587D03*
X013460Y010122D03*
X013460Y010870D03*
X020920Y012870D03*
X020920Y013618D03*
D30*
X016609Y011047D03*
X016609Y009945D03*
X010420Y021209D03*
X010420Y022311D03*
D31*
X014212Y019166D03*
X014881Y019166D03*
X013605Y007547D03*
X012857Y007547D03*
X012652Y005378D03*
X011904Y005378D03*
X011904Y004197D03*
X012652Y004197D03*
X012652Y003213D03*
X011904Y003213D03*
X011904Y002032D03*
X012652Y002032D03*
X016086Y006760D03*
X016755Y006760D03*
X018991Y004984D03*
X019739Y004984D03*
X019739Y003803D03*
X018991Y003803D03*
X018991Y002622D03*
X019739Y002622D03*
X019739Y001244D03*
X018991Y001244D03*
D32*
X025897Y006579D03*
X026397Y006579D03*
X026897Y006579D03*
X026897Y007091D03*
X026397Y007091D03*
X025897Y007091D03*
X025897Y008079D03*
X026397Y008079D03*
X026897Y008079D03*
X026897Y008591D03*
X026397Y008591D03*
X025897Y008591D03*
D33*
X016920Y019425D03*
X016920Y020095D03*
X016920Y020925D03*
X016920Y021595D03*
D34*
X008920Y022260D03*
X008920Y018260D03*
D35*
X029511Y007169D03*
D36*
X028511Y007169D03*
X028511Y008169D03*
X029511Y008169D03*
X029511Y009169D03*
X028511Y009169D03*
X028511Y010169D03*
X029511Y010169D03*
X029511Y011169D03*
X028511Y011169D03*
X028511Y012169D03*
X029511Y012169D03*
X029511Y013169D03*
X028511Y013169D03*
X028511Y014169D03*
X029511Y014169D03*
D37*
X020412Y019878D03*
X020412Y022327D03*
D38*
X014641Y013252D03*
X014050Y010103D03*
X015034Y006953D03*
X017987Y009709D03*
D39*
X003980Y004773D02*
X003980Y002503D01*
X004190Y002712D01*
X004461Y002869D01*
X004764Y002950D01*
X005077Y002950D01*
X005380Y002869D01*
X005651Y002712D01*
X005872Y002491D01*
X006029Y002219D01*
X006110Y001917D01*
X006110Y001603D01*
X006029Y001301D01*
X005872Y001029D01*
X005663Y000820D01*
X011605Y000820D01*
X011565Y000837D01*
X011522Y000865D01*
X011486Y000901D01*
X011458Y000944D01*
X011438Y000991D01*
X011428Y001041D01*
X011428Y001244D01*
X011826Y001244D01*
X011826Y001244D01*
X011428Y001244D01*
X011428Y001447D01*
X011438Y001497D01*
X011458Y001545D01*
X011464Y001554D01*
X011447Y001571D01*
X011418Y001613D01*
X011399Y001661D01*
X011389Y001711D01*
X011389Y002032D01*
X011904Y002032D01*
X011904Y002032D01*
X011389Y002032D01*
X011389Y002353D01*
X011399Y002403D01*
X011418Y002450D01*
X011431Y002469D01*
X011245Y002655D01*
X011201Y002761D01*
X011201Y003093D01*
X010318Y003976D01*
X010318Y003870D01*
X010287Y003796D01*
X010308Y003765D01*
X010328Y003718D01*
X010338Y003667D01*
X010338Y003484D01*
X009920Y003484D01*
X009920Y003484D01*
X009920Y003067D01*
X009737Y003067D01*
X009687Y003077D01*
X009640Y003097D01*
X009597Y003125D01*
X009561Y003161D01*
X009532Y003204D01*
X009513Y003251D01*
X009503Y003301D01*
X009503Y003484D01*
X009920Y003484D01*
X009920Y003484D01*
X009920Y003067D01*
X010103Y003067D01*
X010154Y003077D01*
X010201Y003097D01*
X010243Y003125D01*
X010280Y003161D01*
X010308Y003204D01*
X010328Y003251D01*
X010338Y003301D01*
X010338Y003484D01*
X009920Y003484D01*
X009503Y003484D01*
X009503Y003667D01*
X009513Y003718D01*
X009532Y003765D01*
X009553Y003796D01*
X009523Y003870D01*
X009523Y004180D01*
X009161Y004542D01*
X009080Y004623D01*
X009080Y004623D01*
X007654Y006049D01*
X007643Y006022D01*
X007503Y005882D01*
X007320Y005806D01*
X006607Y005806D01*
X006424Y005882D01*
X006284Y006022D01*
X006209Y006204D01*
X006209Y006402D01*
X006284Y006585D01*
X006424Y006725D01*
X006607Y006801D01*
X007037Y006801D01*
X006975Y006826D01*
X006835Y006966D01*
X006760Y007149D01*
X006760Y007347D01*
X006835Y007530D01*
X006975Y007670D01*
X007158Y007746D01*
X007871Y007746D01*
X008054Y007670D01*
X008194Y007530D01*
X008270Y007347D01*
X008270Y007149D01*
X008194Y006966D01*
X008054Y006826D01*
X007871Y006751D01*
X007844Y006751D01*
X007844Y006679D01*
X009326Y005198D01*
X011796Y007668D01*
X011746Y007647D01*
X011420Y007647D01*
X011420Y007553D01*
X011127Y007260D01*
X010713Y007260D01*
X010523Y007450D01*
X010318Y007450D01*
X010127Y007260D01*
X009713Y007260D01*
X009420Y007553D01*
X009420Y007606D01*
X009378Y007564D01*
X009216Y007497D01*
X009041Y007497D01*
X008880Y007564D01*
X008756Y007688D01*
X008689Y007850D01*
X008689Y007967D01*
X007993Y008663D01*
X007910Y008628D01*
X007694Y008628D01*
X007496Y008711D01*
X007343Y008863D01*
X007261Y009062D01*
X007261Y009272D01*
X007162Y009313D01*
X007162Y008821D01*
X007126Y008732D01*
X007058Y008665D01*
X006970Y008628D01*
X006272Y008628D01*
X006184Y008665D01*
X006116Y008732D01*
X006080Y008821D01*
X006080Y009518D01*
X006116Y009607D01*
X006184Y009674D01*
X006272Y009711D01*
X006477Y009711D01*
X006477Y009767D01*
X006497Y009816D01*
X006314Y009892D01*
X006162Y010044D01*
X006080Y010243D01*
X006080Y010458D01*
X006114Y010542D01*
X005930Y010726D01*
X005886Y010832D01*
X005886Y013632D01*
X005841Y013554D01*
X005627Y013339D01*
X005364Y013188D01*
X005072Y013109D01*
X004769Y013109D01*
X004476Y013188D01*
X004214Y013339D01*
X004000Y013554D01*
X003980Y013587D01*
X003980Y010433D01*
X004000Y010466D01*
X004214Y010681D01*
X004476Y010832D01*
X004769Y010911D01*
X005072Y010911D01*
X005364Y010832D01*
X005627Y010681D01*
X005841Y010466D01*
X005992Y010204D01*
X006071Y009911D01*
X006071Y009609D01*
X005992Y009316D01*
X005841Y009054D01*
X005627Y008839D01*
X005364Y008688D01*
X005072Y008609D01*
X004769Y008609D01*
X004476Y008688D01*
X004214Y008839D01*
X004000Y009054D01*
X003980Y009087D01*
X003980Y005747D01*
X004001Y005789D01*
X004049Y005855D01*
X004107Y005912D01*
X004173Y005960D01*
X004245Y005997D01*
X004323Y006022D01*
X004403Y006035D01*
X004444Y006035D01*
X004444Y005260D01*
X004961Y005260D01*
X004444Y005260D01*
X004444Y005260D01*
X004444Y005260D01*
X004444Y004485D01*
X004485Y004485D01*
X004565Y004498D01*
X004642Y004523D01*
X004715Y004560D01*
X004781Y004608D01*
X004839Y004665D01*
X004886Y004731D01*
X004923Y004804D01*
X004949Y004881D01*
X004961Y004962D01*
X004961Y005260D01*
X004961Y005558D01*
X004949Y005639D01*
X004923Y005716D01*
X004886Y005789D01*
X004839Y005855D01*
X004781Y005912D01*
X004715Y005960D01*
X004642Y005997D01*
X004565Y006022D01*
X004485Y006035D01*
X004444Y006035D01*
X004444Y005260D01*
X004444Y005260D01*
X004444Y004485D01*
X004403Y004485D01*
X004323Y004498D01*
X004245Y004523D01*
X004173Y004560D01*
X004107Y004608D01*
X004049Y004665D01*
X004001Y004731D01*
X003980Y004773D01*
X003980Y004719D02*
X004010Y004719D01*
X003980Y004401D02*
X008580Y004401D01*
X008493Y004364D02*
X008353Y004224D01*
X008277Y004042D01*
X008277Y003329D01*
X008353Y003146D01*
X008493Y003006D01*
X008676Y002930D01*
X008873Y002930D01*
X009056Y003006D01*
X009196Y003146D01*
X009272Y003329D01*
X009272Y004042D01*
X009196Y004224D01*
X009056Y004364D01*
X008873Y004440D01*
X008676Y004440D01*
X008493Y004364D01*
X008294Y004082D02*
X003980Y004082D01*
X003980Y003764D02*
X005077Y003764D01*
X005064Y003750D02*
X004988Y003568D01*
X004988Y003370D01*
X005064Y003187D01*
X005204Y003047D01*
X005387Y002971D01*
X006099Y002971D01*
X006282Y003047D01*
X006422Y003187D01*
X006498Y003370D01*
X006498Y003568D01*
X006422Y003750D01*
X006282Y003890D01*
X006099Y003966D01*
X005387Y003966D01*
X005204Y003890D01*
X005064Y003750D01*
X004988Y003445D02*
X003980Y003445D01*
X003980Y003127D02*
X005124Y003127D01*
X005485Y002808D02*
X011201Y002808D01*
X011411Y002490D02*
X005873Y002490D01*
X006042Y002171D02*
X011389Y002171D01*
X011389Y001853D02*
X006110Y001853D01*
X006092Y001534D02*
X011453Y001534D01*
X011428Y001216D02*
X005980Y001216D01*
X005740Y000897D02*
X011490Y000897D01*
X011167Y003127D02*
X010245Y003127D01*
X009920Y003127D02*
X009920Y003127D01*
X009920Y003445D02*
X009920Y003445D01*
X009920Y003484D02*
X009920Y003484D01*
X009503Y003445D02*
X009272Y003445D01*
X009272Y003764D02*
X009532Y003764D01*
X009523Y004082D02*
X009255Y004082D01*
X009303Y004401D02*
X008969Y004401D01*
X008984Y004719D02*
X004877Y004719D01*
X004961Y005038D02*
X008666Y005038D01*
X008347Y005356D02*
X004961Y005356D01*
X004444Y005356D02*
X004444Y005356D01*
X004444Y005038D02*
X004444Y005038D01*
X004444Y004719D02*
X004444Y004719D01*
X004444Y005675D02*
X004444Y005675D01*
X004444Y005993D02*
X004444Y005993D01*
X004650Y005993D02*
X006313Y005993D01*
X006209Y006312D02*
X003980Y006312D01*
X003980Y005993D02*
X004237Y005993D01*
X004937Y005675D02*
X008029Y005675D01*
X007710Y005993D02*
X007614Y005993D01*
X008212Y006312D02*
X010440Y006312D01*
X010121Y005993D02*
X008530Y005993D01*
X008849Y005675D02*
X009803Y005675D01*
X009484Y005356D02*
X009167Y005356D01*
X010168Y005220D02*
X012202Y007253D01*
X012361Y007253D01*
X012361Y007204D01*
X012398Y007116D01*
X012465Y007049D01*
X012554Y007012D01*
X013161Y007012D01*
X013231Y007041D01*
X013302Y007012D01*
X013487Y007012D01*
X013480Y007005D01*
X013413Y006844D01*
X013413Y006669D01*
X013457Y006562D01*
X013391Y006534D01*
X013323Y006467D01*
X013318Y006456D01*
X013022Y006456D01*
X013017Y006467D01*
X012950Y006534D01*
X012862Y006571D01*
X012491Y006571D01*
X012441Y006550D01*
X012425Y006561D01*
X012378Y006581D01*
X012328Y006591D01*
X012164Y006591D01*
X012001Y006591D01*
X011951Y006581D01*
X011903Y006561D01*
X011861Y006533D01*
X011825Y006497D01*
X011796Y006454D01*
X011776Y006407D01*
X011767Y006356D01*
X011767Y006154D01*
X012164Y006154D01*
X012164Y006154D01*
X012164Y006591D01*
X012164Y006154D01*
X012164Y006154D01*
X011767Y006154D01*
X011767Y005951D01*
X011770Y005933D01*
X011623Y005933D01*
X011573Y005923D01*
X011525Y005904D01*
X011483Y005875D01*
X011447Y005839D01*
X011418Y005797D01*
X011399Y005749D01*
X011389Y005699D01*
X011389Y005378D01*
X011389Y005057D01*
X011399Y005007D01*
X011411Y004976D01*
X011127Y005260D01*
X010713Y005260D01*
X010420Y004967D01*
X010168Y005220D01*
X010304Y005356D02*
X011389Y005356D01*
X011389Y005378D02*
X011904Y005378D01*
X011904Y005378D01*
X011389Y005378D01*
X011392Y005038D02*
X011350Y005038D01*
X011420Y004957D02*
X011447Y004917D01*
X011483Y004881D01*
X011525Y004852D01*
X011573Y004833D01*
X011623Y004823D01*
X011904Y004823D01*
X011904Y005378D01*
X011904Y005378D01*
X011904Y004823D01*
X012186Y004823D01*
X012236Y004833D01*
X012284Y004852D01*
X012300Y004863D01*
X012349Y004843D01*
X012917Y004843D01*
X012902Y004837D01*
X012797Y004732D01*
X012349Y004732D01*
X012300Y004712D01*
X012284Y004723D01*
X012236Y004742D01*
X012186Y004752D01*
X011904Y004752D01*
X011623Y004752D01*
X011573Y004742D01*
X011525Y004723D01*
X011483Y004694D01*
X011447Y004658D01*
X011420Y004619D01*
X011420Y004957D01*
X011420Y004719D02*
X011520Y004719D01*
X011389Y004522D02*
X011389Y004518D01*
X011389Y004197D01*
X011389Y003876D01*
X011399Y003826D01*
X011418Y003779D01*
X011447Y003736D01*
X011478Y003705D01*
X011447Y003674D01*
X011444Y003670D01*
X010854Y004260D01*
X011127Y004260D01*
X011389Y004522D01*
X011389Y004401D02*
X011268Y004401D01*
X011389Y004197D02*
X011904Y004197D01*
X011389Y004197D01*
X011389Y004082D02*
X011032Y004082D01*
X011350Y003764D02*
X011428Y003764D01*
X011904Y003764D02*
X011904Y003764D01*
X011904Y003768D02*
X011904Y003213D01*
X011904Y003213D01*
X011904Y004197D01*
X011904Y004197D01*
X011904Y004197D01*
X011904Y003768D01*
X011904Y003445D02*
X011904Y003445D01*
X011904Y004082D02*
X011904Y004082D01*
X011904Y004197D02*
X011904Y004752D01*
X011904Y004197D01*
X011904Y004197D01*
X011904Y004401D02*
X011904Y004401D01*
X011904Y004719D02*
X011904Y004719D01*
X011904Y005038D02*
X011904Y005038D01*
X011904Y005356D02*
X011904Y005356D01*
X011389Y005675D02*
X010623Y005675D01*
X010941Y005993D02*
X011767Y005993D01*
X011767Y006312D02*
X011260Y006312D01*
X011578Y006630D02*
X013429Y006630D01*
X013457Y006949D02*
X011897Y006949D01*
X011395Y007267D02*
X011134Y007267D01*
X011077Y006949D02*
X008176Y006949D01*
X008270Y007267D02*
X009706Y007267D01*
X010134Y007267D02*
X010706Y007267D01*
X010758Y006630D02*
X007893Y006630D01*
X008138Y007586D02*
X008858Y007586D01*
X008689Y007904D02*
X003980Y007904D01*
X003980Y007586D02*
X006891Y007586D01*
X006760Y007267D02*
X003980Y007267D01*
X003980Y006949D02*
X006853Y006949D01*
X006329Y006630D02*
X003980Y006630D01*
X003980Y008223D02*
X008433Y008223D01*
X008115Y008541D02*
X003980Y008541D01*
X003980Y008860D02*
X004194Y008860D01*
X005647Y008860D02*
X006080Y008860D01*
X006080Y009178D02*
X005913Y009178D01*
X006041Y009497D02*
X006080Y009497D01*
X006071Y009815D02*
X006497Y009815D01*
X006125Y010134D02*
X006011Y010134D01*
X006080Y010452D02*
X005849Y010452D01*
X005912Y010771D02*
X005471Y010771D01*
X005886Y011089D02*
X003980Y011089D01*
X003980Y011408D02*
X005886Y011408D01*
X005886Y011726D02*
X003980Y011726D01*
X003980Y012045D02*
X005886Y012045D01*
X005886Y012363D02*
X003980Y012363D01*
X003980Y012682D02*
X005886Y012682D01*
X005886Y013000D02*
X003980Y013000D01*
X003980Y013319D02*
X004250Y013319D01*
X005591Y013319D02*
X005886Y013319D01*
X006071Y014344D02*
X006071Y014411D01*
X005992Y014704D01*
X005841Y014966D01*
X005627Y015181D01*
X005364Y015332D01*
X005072Y015411D01*
X004769Y015411D01*
X004476Y015332D01*
X004214Y015181D01*
X004000Y014966D01*
X003980Y014933D01*
X003980Y018087D01*
X004000Y018054D01*
X004214Y017839D01*
X004476Y017688D01*
X004769Y017609D01*
X005072Y017609D01*
X005364Y017688D01*
X005627Y017839D01*
X005841Y018054D01*
X005992Y018316D01*
X006071Y018609D01*
X006071Y018911D01*
X005992Y019204D01*
X005841Y019466D01*
X005627Y019681D01*
X005364Y019832D01*
X005072Y019911D01*
X004769Y019911D01*
X004476Y019832D01*
X004214Y019681D01*
X004000Y019466D01*
X003980Y019433D01*
X003980Y021517D01*
X004190Y021308D01*
X004461Y021151D01*
X004764Y021070D01*
X005077Y021070D01*
X005380Y021151D01*
X005651Y021308D01*
X005872Y021529D01*
X006029Y021801D01*
X006110Y022103D01*
X006110Y022417D01*
X006029Y022719D01*
X006022Y022731D01*
X008586Y022731D01*
X008437Y022583D01*
X008350Y022373D01*
X008350Y022147D01*
X008437Y021937D01*
X008542Y021832D01*
X008542Y021442D01*
X008601Y021299D01*
X008711Y021189D01*
X009695Y020205D01*
X009839Y020146D01*
X013322Y020146D01*
X013401Y020117D01*
X013556Y020124D01*
X013644Y020165D01*
X013823Y020165D01*
X013912Y020202D01*
X013979Y020269D01*
X014016Y020357D01*
X014016Y020554D01*
X014035Y020550D01*
X014446Y020550D01*
X014446Y021195D01*
X014576Y021195D01*
X014576Y020550D01*
X014986Y020550D01*
X015006Y020554D01*
X015006Y020357D01*
X015042Y020269D01*
X015110Y020202D01*
X015198Y020165D01*
X015335Y020165D01*
X015335Y019644D01*
X015292Y019644D01*
X015273Y019664D01*
X015184Y019701D01*
X014577Y019701D01*
X014572Y019699D01*
X014543Y019711D01*
X014493Y019721D01*
X014212Y019721D01*
X014212Y019166D01*
X014212Y019166D01*
X014212Y019721D01*
X013930Y019721D01*
X013880Y019711D01*
X013832Y019691D01*
X013790Y019663D01*
X013754Y019627D01*
X013725Y019584D01*
X013706Y019537D01*
X013696Y019486D01*
X013696Y019166D01*
X014212Y019166D01*
X014212Y019166D01*
X014212Y019165D02*
X014212Y018610D01*
X014351Y018610D01*
X014351Y017229D01*
X014335Y017235D01*
X014159Y017235D01*
X013998Y017168D01*
X013874Y017045D01*
X013807Y016883D01*
X013807Y016708D01*
X013874Y016546D01*
X013874Y016546D01*
X013847Y016518D01*
X013837Y016495D01*
X013476Y016495D01*
X013466Y016518D01*
X013399Y016586D01*
X013310Y016622D01*
X012939Y016622D01*
X012890Y016602D01*
X012874Y016612D01*
X012827Y016632D01*
X012777Y016642D01*
X012613Y016642D01*
X012450Y016642D01*
X012399Y016632D01*
X012352Y016612D01*
X012310Y016584D01*
X012273Y016548D01*
X012245Y016505D01*
X012225Y016458D01*
X012215Y016408D01*
X012215Y016205D01*
X012613Y016205D01*
X012613Y016642D01*
X012613Y016205D01*
X012613Y016205D01*
X012613Y016205D01*
X012215Y016205D01*
X012215Y016002D01*
X012225Y015952D01*
X012243Y015910D01*
X012225Y015867D01*
X012215Y015817D01*
X012215Y015614D01*
X012215Y015412D01*
X012225Y015361D01*
X012243Y015319D01*
X012225Y015277D01*
X012215Y015227D01*
X012215Y015024D01*
X012613Y015024D01*
X012613Y015177D01*
X012613Y015614D01*
X012613Y015614D01*
X012215Y015614D01*
X012613Y015614D01*
X012613Y015614D01*
X012613Y015024D01*
X012613Y015024D01*
X012613Y015024D01*
X012215Y015024D01*
X012215Y014821D01*
X012225Y014771D01*
X012245Y014723D01*
X012273Y014681D01*
X012310Y014645D01*
X012352Y014616D01*
X012399Y014597D01*
X012450Y014587D01*
X012613Y014587D01*
X012613Y015024D01*
X012613Y015024D01*
X012613Y014587D01*
X012777Y014587D01*
X012827Y014597D01*
X012874Y014616D01*
X012890Y014627D01*
X012939Y014607D01*
X013310Y014607D01*
X013399Y014643D01*
X013466Y014711D01*
X013476Y014734D01*
X013837Y014734D01*
X013847Y014711D01*
X013914Y014643D01*
X014002Y014607D01*
X014010Y014607D01*
X012749Y013345D01*
X011863Y013345D01*
X011828Y013360D01*
X010994Y013360D01*
X010994Y014307D01*
X011070Y014307D01*
X011159Y014344D01*
X011226Y014411D01*
X011263Y014500D01*
X011263Y015194D01*
X011226Y015282D01*
X011159Y015349D01*
X011070Y015386D01*
X010994Y015386D01*
X010994Y015475D01*
X010950Y015582D01*
X010905Y015626D01*
X011009Y015626D01*
X011059Y015636D01*
X011106Y015656D01*
X011149Y015684D01*
X011185Y015720D01*
X011214Y015763D01*
X011233Y015810D01*
X011243Y015860D01*
X011243Y016185D01*
X012215Y016185D01*
X012225Y015867D02*
X011243Y015867D01*
X011243Y016185D02*
X010747Y016185D01*
X010747Y016185D01*
X011243Y016185D01*
X011243Y016510D01*
X011233Y016560D01*
X011214Y016608D01*
X011185Y016650D01*
X011149Y016686D01*
X011106Y016715D01*
X011059Y016734D01*
X011009Y016744D01*
X010747Y016744D01*
X010485Y016744D01*
X010435Y016734D01*
X010388Y016715D01*
X010345Y016686D01*
X010309Y016650D01*
X010280Y016608D01*
X010261Y016560D01*
X010251Y016510D01*
X010251Y016281D01*
X008841Y017690D01*
X009034Y017690D01*
X009243Y017777D01*
X009403Y017937D01*
X009490Y018147D01*
X009490Y018373D01*
X009403Y018583D01*
X009243Y018743D01*
X009034Y018830D01*
X008807Y018830D01*
X008721Y018794D01*
X008323Y019193D01*
X008343Y019243D01*
X008343Y019458D01*
X008261Y019657D01*
X008109Y019809D01*
X007910Y019892D01*
X007694Y019892D01*
X007496Y019809D01*
X007343Y019657D01*
X007261Y019458D01*
X007261Y019243D01*
X007343Y019044D01*
X007496Y018892D01*
X007694Y018809D01*
X007886Y018809D01*
X008038Y018658D01*
X007910Y018711D01*
X007694Y018711D01*
X007496Y018628D01*
X007450Y018583D01*
X007450Y018822D01*
X007406Y018928D01*
X007141Y019193D01*
X007162Y019243D01*
X007162Y019458D01*
X007080Y019657D01*
X006928Y019809D01*
X006729Y019892D01*
X006513Y019892D01*
X006314Y019809D01*
X006162Y019657D01*
X006080Y019458D01*
X006080Y019243D01*
X006162Y019044D01*
X006314Y018892D01*
X006513Y018809D01*
X006705Y018809D01*
X006784Y018731D01*
X006621Y018731D01*
X006294Y018731D01*
X006244Y018721D01*
X006197Y018701D01*
X006154Y018673D01*
X006118Y018636D01*
X006089Y018594D01*
X006070Y018546D01*
X006060Y018496D01*
X006060Y018169D01*
X006060Y017843D01*
X006070Y017792D01*
X006089Y017745D01*
X006118Y017703D01*
X006154Y017666D01*
X006197Y017638D01*
X006244Y017618D01*
X006294Y017608D01*
X006621Y017608D01*
X006948Y017608D01*
X006998Y017618D01*
X007045Y017638D01*
X007071Y017655D01*
X008248Y016478D01*
X008248Y015191D01*
X008230Y015216D01*
X008168Y015279D01*
X008096Y015331D01*
X008018Y015371D01*
X007934Y015398D01*
X007846Y015412D01*
X007802Y015412D01*
X007758Y015412D01*
X007671Y015398D01*
X007587Y015371D01*
X007508Y015331D01*
X007437Y015279D01*
X007374Y015216D01*
X007322Y015145D01*
X007282Y015066D01*
X007255Y014982D01*
X007241Y014895D01*
X007241Y014851D01*
X007802Y014851D01*
X007802Y015412D01*
X007802Y014851D01*
X007802Y014851D01*
X007802Y014851D01*
X007241Y014851D01*
X007241Y014806D01*
X007255Y014719D01*
X007282Y014635D01*
X007322Y014556D01*
X007374Y014485D01*
X007437Y014423D01*
X007508Y014371D01*
X007587Y014330D01*
X007671Y014303D01*
X007758Y014289D01*
X007802Y014289D01*
X007802Y014851D01*
X007802Y014851D01*
X007802Y014289D01*
X007846Y014289D01*
X007934Y014303D01*
X008018Y014330D01*
X008096Y014371D01*
X008168Y014423D01*
X008230Y014485D01*
X008265Y014533D01*
X008292Y014466D01*
X008374Y014384D01*
X009006Y013752D01*
X008953Y013698D01*
X008886Y013536D01*
X008886Y013469D01*
X008823Y013495D01*
X008648Y013495D01*
X008486Y013428D01*
X008362Y013305D01*
X008295Y013143D01*
X008295Y012968D01*
X008362Y012806D01*
X008486Y012682D01*
X008648Y012615D01*
X008820Y012615D01*
X008820Y012352D01*
X008857Y012264D01*
X008861Y012260D01*
X008857Y012256D01*
X008820Y012168D01*
X008820Y011852D01*
X008852Y011776D01*
X008830Y011743D01*
X008810Y011696D01*
X008800Y011646D01*
X008800Y011629D01*
X008238Y012191D01*
X008238Y013340D01*
X008261Y013363D01*
X008343Y013562D01*
X008343Y013777D01*
X008261Y013976D01*
X008109Y014128D01*
X007910Y014211D01*
X007694Y014211D01*
X007496Y014128D01*
X007343Y013976D01*
X007261Y013777D01*
X007261Y013562D01*
X007343Y013363D01*
X007496Y013211D01*
X007658Y013143D01*
X007658Y012181D01*
X007603Y012235D01*
X007603Y012235D01*
X007521Y012317D01*
X007057Y012782D01*
X007057Y013164D01*
X007058Y013165D01*
X007126Y013232D01*
X007162Y013321D01*
X007162Y014018D01*
X007126Y014107D01*
X007058Y014174D01*
X006970Y014211D01*
X006757Y014211D01*
X006816Y014269D01*
X006854Y014361D01*
X006928Y014392D01*
X007080Y014544D01*
X007162Y014743D01*
X007162Y014958D01*
X007080Y015157D01*
X006928Y015309D01*
X006729Y015392D01*
X006513Y015392D01*
X006314Y015309D01*
X006162Y015157D01*
X006080Y014958D01*
X006080Y014743D01*
X006162Y014544D01*
X006216Y014490D01*
X006071Y014344D01*
X006022Y014593D02*
X006142Y014593D01*
X006080Y014911D02*
X005873Y014911D01*
X005542Y015230D02*
X006235Y015230D01*
X007007Y015230D02*
X007387Y015230D01*
X007243Y014911D02*
X007162Y014911D01*
X007100Y014593D02*
X007304Y014593D01*
X007802Y014593D02*
X007802Y014593D01*
X007802Y014911D02*
X007802Y014911D01*
X007802Y015230D02*
X007802Y015230D01*
X008217Y015230D02*
X008248Y015230D01*
X008248Y015548D02*
X003980Y015548D01*
X003980Y015867D02*
X008248Y015867D01*
X008248Y016185D02*
X003980Y016185D01*
X003980Y016504D02*
X008223Y016504D01*
X007905Y016822D02*
X003980Y016822D01*
X003980Y017141D02*
X007586Y017141D01*
X007268Y017459D02*
X003980Y017459D01*
X003980Y017778D02*
X004321Y017778D01*
X005520Y017778D02*
X006076Y017778D01*
X006060Y018096D02*
X005865Y018096D01*
X006060Y018169D02*
X006621Y018169D01*
X006621Y017608D01*
X006621Y018169D01*
X006621Y018169D01*
X006621Y018169D01*
X006060Y018169D01*
X006060Y018415D02*
X006019Y018415D01*
X006071Y018733D02*
X006781Y018733D01*
X006621Y018731D02*
X006621Y018169D01*
X006621Y018731D01*
X006621Y018415D02*
X006621Y018415D01*
X006621Y018169D02*
X006621Y018169D01*
X006621Y018096D02*
X006621Y018096D01*
X006621Y017778D02*
X006621Y017778D01*
X007450Y018733D02*
X007962Y018733D01*
X008464Y019052D02*
X013696Y019052D01*
X013696Y019166D02*
X013696Y018845D01*
X013706Y018794D01*
X013725Y018747D01*
X013754Y018704D01*
X013790Y018668D01*
X013832Y018640D01*
X013880Y018620D01*
X013930Y018610D01*
X014212Y018610D01*
X014212Y019165D01*
X014212Y019165D01*
X014212Y019166D02*
X013696Y019166D01*
X013696Y019370D02*
X008343Y019370D01*
X008229Y019689D02*
X013828Y019689D01*
X014212Y019689D02*
X014212Y019689D01*
X014212Y019370D02*
X014212Y019370D01*
X014212Y019052D02*
X014212Y019052D01*
X014212Y018733D02*
X014212Y018733D01*
X014351Y018415D02*
X009473Y018415D01*
X009253Y018733D02*
X013735Y018733D01*
X014351Y018096D02*
X009469Y018096D01*
X009244Y017778D02*
X014351Y017778D01*
X014351Y017459D02*
X009072Y017459D01*
X009391Y017141D02*
X013970Y017141D01*
X013807Y016822D02*
X009709Y016822D01*
X010028Y016504D02*
X010251Y016504D01*
X010747Y016504D02*
X010747Y016504D01*
X010747Y016744D02*
X010747Y016185D01*
X010747Y016185D01*
X010747Y016744D01*
X011243Y016504D02*
X012244Y016504D01*
X012613Y016504D02*
X012613Y016504D01*
X012613Y016205D02*
X012613Y015614D01*
X012613Y016051D01*
X012613Y016205D01*
X012613Y016205D01*
X012613Y016185D02*
X012613Y016185D01*
X012613Y015867D02*
X012613Y015867D01*
X012613Y015614D02*
X012613Y015614D01*
X012613Y015548D02*
X012613Y015548D01*
X012215Y015548D02*
X010963Y015548D01*
X011248Y015230D02*
X012216Y015230D01*
X012215Y014911D02*
X011263Y014911D01*
X011263Y014593D02*
X012420Y014593D01*
X012613Y014593D02*
X012613Y014593D01*
X012806Y014593D02*
X013996Y014593D01*
X013678Y014274D02*
X010994Y014274D01*
X010994Y013956D02*
X013359Y013956D01*
X013041Y013637D02*
X010994Y013637D01*
X010414Y013637D02*
X009724Y013637D01*
X009699Y013698D02*
X009766Y013536D01*
X009766Y013361D01*
X009765Y013360D01*
X009888Y013360D01*
X009976Y013323D01*
X010044Y013256D01*
X010080Y013168D01*
X010080Y012852D01*
X010073Y012835D01*
X010414Y013175D01*
X010414Y014344D01*
X010347Y014411D01*
X010310Y014500D01*
X010310Y015194D01*
X010347Y015282D01*
X010388Y015323D01*
X009522Y016189D01*
X009522Y015838D01*
X009486Y015750D01*
X009418Y015683D01*
X009330Y015646D01*
X008828Y015646D01*
X008828Y015406D01*
X009086Y015406D01*
X009086Y014847D01*
X009582Y014847D01*
X009582Y015171D01*
X009572Y015222D01*
X009552Y015269D01*
X009524Y015312D01*
X009488Y015348D01*
X009445Y015376D01*
X009398Y015396D01*
X009347Y015406D01*
X009086Y015406D01*
X009086Y014847D01*
X009086Y014847D01*
X009086Y014847D01*
X009582Y014847D01*
X009582Y014522D01*
X009572Y014472D01*
X009552Y014424D01*
X009524Y014382D01*
X009488Y014345D01*
X009445Y014317D01*
X009398Y014297D01*
X009347Y014287D01*
X009291Y014287D01*
X009572Y014007D01*
X009616Y013900D01*
X009616Y013781D01*
X009699Y013698D01*
X009593Y013956D02*
X010414Y013956D01*
X010414Y014274D02*
X009305Y014274D01*
X009582Y014593D02*
X010310Y014593D01*
X010310Y014911D02*
X009582Y014911D01*
X009569Y015230D02*
X010325Y015230D01*
X010163Y015548D02*
X008828Y015548D01*
X009086Y015230D02*
X009086Y015230D01*
X009086Y014911D02*
X009086Y014911D01*
X008484Y014274D02*
X006818Y014274D01*
X007162Y013956D02*
X007335Y013956D01*
X007261Y013637D02*
X007162Y013637D01*
X007161Y013319D02*
X007388Y013319D01*
X007658Y013000D02*
X007057Y013000D01*
X007157Y012682D02*
X007658Y012682D01*
X007658Y012363D02*
X007475Y012363D01*
X007521Y012317D02*
X007521Y012317D01*
X008238Y012363D02*
X008820Y012363D01*
X008820Y012045D02*
X008384Y012045D01*
X008703Y011726D02*
X008823Y011726D01*
X007929Y011089D02*
X007647Y011089D01*
X007671Y010898D02*
X007647Y010890D01*
X007647Y011371D01*
X008768Y010250D01*
X008842Y010220D01*
X008832Y010196D01*
X008342Y010196D01*
X008349Y010219D01*
X008363Y010306D01*
X008363Y010351D01*
X008363Y010395D01*
X008349Y010482D01*
X008322Y010566D01*
X008282Y010645D01*
X008230Y010716D01*
X008168Y010779D01*
X008096Y010831D01*
X008018Y010871D01*
X007934Y010898D01*
X007846Y010912D01*
X007802Y010912D01*
X007758Y010912D01*
X007671Y010898D01*
X007802Y010912D02*
X007802Y010351D01*
X007802Y010351D01*
X007802Y010912D01*
X007802Y010771D02*
X007802Y010771D01*
X007802Y010452D02*
X007802Y010452D01*
X007802Y010351D02*
X008363Y010351D01*
X007802Y010351D01*
X007802Y010351D01*
X008354Y010452D02*
X008566Y010452D01*
X008248Y010771D02*
X008176Y010771D01*
X010045Y009252D02*
X010081Y009266D01*
X010083Y009269D01*
X010201Y009269D01*
X010309Y009314D01*
X010331Y009263D01*
X010454Y009139D01*
X010616Y009072D01*
X010760Y009072D01*
X010760Y008852D01*
X010797Y008764D01*
X010801Y008760D01*
X010797Y008756D01*
X010760Y008668D01*
X010760Y008352D01*
X010797Y008264D01*
X010801Y008260D01*
X010713Y008260D01*
X010483Y008030D01*
X010357Y008030D01*
X010127Y008260D01*
X010059Y008260D01*
X010071Y008277D01*
X010090Y008324D01*
X010100Y008374D01*
X010100Y008510D01*
X010100Y008646D01*
X010090Y008696D01*
X010071Y008743D01*
X010049Y008776D01*
X010080Y008852D01*
X010080Y009168D01*
X010045Y009252D01*
X010076Y009178D02*
X010415Y009178D01*
X010080Y008860D02*
X010760Y008860D01*
X010760Y008541D02*
X010100Y008541D01*
X010100Y008510D02*
X009450Y008510D01*
X009450Y008510D01*
X010100Y008510D01*
X010165Y008223D02*
X010676Y008223D01*
X011420Y007586D02*
X011714Y007586D01*
X012164Y006312D02*
X012164Y006312D01*
X010491Y005038D02*
X010350Y005038D01*
X010420Y004967D02*
X010420Y004694D01*
X010420Y004694D01*
X010420Y004967D01*
X010420Y004719D02*
X010420Y004719D01*
X010309Y003764D02*
X010530Y003764D01*
X010338Y003445D02*
X010849Y003445D01*
X009595Y003127D02*
X009177Y003127D01*
X008372Y003127D02*
X006362Y003127D01*
X006498Y003445D02*
X008277Y003445D01*
X008277Y003764D02*
X006409Y003764D01*
X004356Y002808D02*
X003980Y002808D01*
X009399Y007586D02*
X009420Y007586D01*
X007347Y008860D02*
X007162Y008860D01*
X007162Y009178D02*
X007261Y009178D01*
X004369Y010771D02*
X003980Y010771D01*
X003980Y010452D02*
X003991Y010452D01*
X008238Y012682D02*
X008488Y012682D01*
X008295Y013000D02*
X008238Y013000D01*
X008238Y013319D02*
X008376Y013319D01*
X008343Y013637D02*
X008927Y013637D01*
X008803Y013956D02*
X008269Y013956D01*
X009981Y013319D02*
X010414Y013319D01*
X010238Y013000D02*
X010080Y013000D01*
X012613Y014911D02*
X012613Y014911D01*
X012613Y015230D02*
X012613Y015230D01*
X014179Y013956D02*
X015740Y013956D01*
X015740Y013978D02*
X015740Y013742D01*
X015743Y013735D01*
X015740Y013728D01*
X015740Y013492D01*
X015745Y013480D01*
X015740Y013468D01*
X015740Y013270D01*
X015730Y013246D01*
X015720Y013196D01*
X015720Y013100D01*
X015720Y013004D01*
X015730Y012954D01*
X015750Y012907D01*
X015778Y012864D01*
X015814Y012828D01*
X015857Y012800D01*
X015904Y012780D01*
X015955Y012770D01*
X016270Y012770D01*
X016270Y013040D01*
X016270Y013040D01*
X016270Y012770D01*
X016586Y012770D01*
X016636Y012780D01*
X016683Y012800D01*
X016726Y012828D01*
X016762Y012864D01*
X016791Y012907D01*
X016810Y012954D01*
X016820Y013004D01*
X016820Y013100D01*
X016720Y013100D01*
X016820Y013100D01*
X016820Y013196D01*
X016810Y013246D01*
X016800Y013270D01*
X016800Y013468D01*
X016795Y013480D01*
X016800Y013492D01*
X016800Y013728D01*
X016797Y013735D01*
X016800Y013742D01*
X016800Y013978D01*
X016795Y013990D01*
X016800Y014002D01*
X016800Y014238D01*
X016795Y014250D01*
X016800Y014262D01*
X016800Y014498D01*
X016797Y014505D01*
X016800Y014512D01*
X016800Y014748D01*
X016795Y014760D01*
X016800Y014772D01*
X016800Y015008D01*
X016797Y015015D01*
X016800Y015022D01*
X016800Y015230D01*
X016810Y015254D01*
X016820Y015304D01*
X016820Y015400D01*
X016738Y015400D01*
X016820Y015400D01*
X016820Y015496D01*
X016813Y015530D01*
X016820Y015564D01*
X016820Y015660D01*
X016738Y015660D01*
X016738Y015660D01*
X016820Y015660D01*
X016820Y015756D01*
X016810Y015806D01*
X016800Y015830D01*
X016800Y016028D01*
X016795Y016040D01*
X016800Y016052D01*
X016800Y016288D01*
X016797Y016295D01*
X016800Y016302D01*
X016800Y016538D01*
X016764Y016626D01*
X016696Y016693D01*
X016608Y016730D01*
X016297Y016730D01*
X015474Y017553D01*
X015474Y017670D01*
X015407Y017832D01*
X015284Y017956D01*
X015122Y018023D01*
X014947Y018023D01*
X014931Y018016D01*
X014931Y018630D01*
X015184Y018630D01*
X015273Y018667D01*
X015340Y018734D01*
X015377Y018822D01*
X015377Y019064D01*
X016528Y019064D01*
X016568Y019025D01*
X016656Y018989D01*
X017184Y018989D01*
X017273Y019025D01*
X017312Y019064D01*
X017528Y019064D01*
X017587Y019005D01*
X017676Y018969D01*
X017963Y018969D01*
X018091Y018841D01*
X018091Y016640D01*
X018077Y016626D01*
X018040Y016538D01*
X018040Y016302D01*
X018043Y016295D01*
X018040Y016288D01*
X018040Y016052D01*
X018045Y016040D01*
X018040Y016028D01*
X018040Y015830D01*
X018030Y015806D01*
X018020Y015756D01*
X018020Y015660D01*
X018020Y015564D01*
X018027Y015530D01*
X018020Y015496D01*
X018020Y015400D01*
X018020Y015304D01*
X018027Y015270D01*
X018020Y015236D01*
X018020Y015140D01*
X018020Y015044D01*
X018030Y014994D01*
X018040Y014970D01*
X018040Y014772D01*
X018045Y014760D01*
X018040Y014748D01*
X018040Y014512D01*
X018043Y014505D01*
X018040Y014498D01*
X018040Y014262D01*
X018045Y014250D01*
X018040Y014238D01*
X018040Y014002D01*
X018045Y013990D01*
X018040Y013978D01*
X018040Y013742D01*
X018043Y013735D01*
X018040Y013728D01*
X018040Y013492D01*
X018045Y013480D01*
X018040Y013468D01*
X018040Y013232D01*
X018043Y013225D01*
X018040Y013218D01*
X018040Y012982D01*
X018077Y012894D01*
X018144Y012827D01*
X018232Y012790D01*
X018908Y012790D01*
X018996Y012827D01*
X019064Y012894D01*
X019100Y012982D01*
X019100Y013218D01*
X019097Y013225D01*
X019100Y013232D01*
X019100Y013468D01*
X019095Y013480D01*
X019100Y013492D01*
X019100Y013728D01*
X019097Y013735D01*
X019100Y013742D01*
X019100Y013978D01*
X019095Y013990D01*
X019100Y014002D01*
X019100Y014238D01*
X019095Y014250D01*
X019100Y014262D01*
X019100Y014498D01*
X019097Y014505D01*
X019100Y014512D01*
X019100Y014748D01*
X019095Y014760D01*
X019100Y014772D01*
X019100Y014970D01*
X019110Y014994D01*
X019120Y015044D01*
X019120Y015140D01*
X019038Y015140D01*
X019120Y015140D01*
X019120Y015236D01*
X019113Y015270D01*
X019120Y015304D01*
X019120Y015400D01*
X019038Y015400D01*
X019038Y015400D01*
X019120Y015400D01*
X019120Y015496D01*
X019113Y015530D01*
X019120Y015564D01*
X019120Y015660D01*
X019038Y015660D01*
X019038Y015660D01*
X019120Y015660D01*
X019120Y015718D01*
X019666Y015718D01*
X019666Y007289D01*
X019710Y007182D01*
X019791Y007101D01*
X019909Y006983D01*
X019909Y006865D01*
X019916Y006849D01*
X019701Y006849D01*
X019595Y006805D01*
X019513Y006723D01*
X019164Y006375D01*
X019148Y006415D01*
X019065Y006498D01*
X019065Y009963D01*
X019020Y010070D01*
X018939Y010152D01*
X016380Y012711D01*
X016273Y012755D01*
X013398Y012755D01*
X013315Y012838D01*
X013153Y012905D01*
X013129Y012905D01*
X014805Y014581D01*
X014830Y014607D01*
X014885Y014607D01*
X014973Y014643D01*
X015041Y014711D01*
X015078Y014799D01*
X015078Y015249D01*
X015048Y015319D01*
X015078Y015389D01*
X015078Y015792D01*
X015144Y015765D01*
X015319Y015765D01*
X015480Y015832D01*
X015563Y015915D01*
X015740Y015915D01*
X015740Y015830D01*
X015730Y015806D01*
X015720Y015756D01*
X015720Y015660D01*
X015720Y015564D01*
X015727Y015530D01*
X015720Y015496D01*
X015720Y015400D01*
X015720Y015304D01*
X015730Y015254D01*
X015740Y015230D01*
X015740Y015022D01*
X015743Y015015D01*
X015740Y015008D01*
X015740Y014772D01*
X015745Y014760D01*
X015740Y014748D01*
X015740Y014512D01*
X015743Y014505D01*
X015740Y014498D01*
X015740Y014262D01*
X015745Y014250D01*
X015740Y014238D01*
X015740Y014002D01*
X015745Y013990D01*
X015740Y013978D01*
X015740Y014274D02*
X014498Y014274D01*
X014816Y014593D02*
X015740Y014593D01*
X015740Y014911D02*
X015078Y014911D01*
X015078Y015230D02*
X015740Y015230D01*
X015720Y015400D02*
X015803Y015400D01*
X015803Y015400D01*
X015720Y015400D01*
X015723Y015548D02*
X015078Y015548D01*
X015515Y015867D02*
X015740Y015867D01*
X015720Y015660D02*
X015803Y015660D01*
X015803Y015660D01*
X015720Y015660D01*
X016270Y015600D02*
X016270Y015450D01*
X016270Y015450D01*
X016270Y015600D01*
X016270Y015600D01*
X016270Y015548D02*
X016270Y015548D01*
X016738Y015400D02*
X016738Y015400D01*
X016817Y015548D02*
X018023Y015548D01*
X018020Y015660D02*
X018103Y015660D01*
X018103Y015660D01*
X018020Y015660D01*
X018040Y015867D02*
X016800Y015867D01*
X016800Y016185D02*
X018040Y016185D01*
X018040Y016504D02*
X016800Y016504D01*
X016205Y016822D02*
X018091Y016822D01*
X018091Y017141D02*
X015887Y017141D01*
X015568Y017459D02*
X018091Y017459D01*
X018091Y017778D02*
X015430Y017778D01*
X014931Y018096D02*
X018091Y018096D01*
X018091Y018415D02*
X014931Y018415D01*
X015339Y018733D02*
X018091Y018733D01*
X017541Y019052D02*
X017299Y019052D01*
X016541Y019052D02*
X015377Y019052D01*
X015335Y019689D02*
X015214Y019689D01*
X015335Y020007D02*
X003980Y020007D01*
X003980Y019689D02*
X004227Y019689D01*
X003980Y020326D02*
X009575Y020326D01*
X009256Y020644D02*
X003980Y020644D01*
X003980Y020963D02*
X008938Y020963D01*
X008619Y021281D02*
X005604Y021281D01*
X005913Y021600D02*
X008542Y021600D01*
X008456Y021918D02*
X006060Y021918D01*
X006110Y022237D02*
X008350Y022237D01*
X008425Y022555D02*
X006073Y022555D01*
X004236Y021281D02*
X003980Y021281D01*
X005613Y019689D02*
X006194Y019689D01*
X006080Y019370D02*
X005897Y019370D01*
X006033Y019052D02*
X006159Y019052D01*
X007162Y019370D02*
X007261Y019370D01*
X007375Y019689D02*
X007048Y019689D01*
X007283Y019052D02*
X007340Y019052D01*
X009722Y021281D02*
X009806Y021281D01*
X009806Y021209D02*
X010420Y021209D01*
X010420Y021209D01*
X009806Y021209D01*
X009806Y021549D01*
X009816Y021600D01*
X009835Y021647D01*
X009864Y021690D01*
X009900Y021726D01*
X009943Y021754D01*
X009983Y021771D01*
X009930Y021793D01*
X009862Y021860D01*
X009839Y021917D01*
X009384Y021917D01*
X009322Y021856D01*
X009322Y021681D01*
X009806Y021198D01*
X009806Y021209D01*
X009816Y021600D02*
X009404Y021600D01*
X011035Y021030D02*
X011035Y020926D01*
X011888Y020926D01*
X011888Y021991D01*
X011919Y022064D01*
X011857Y022064D01*
X011857Y021830D01*
X011837Y021781D01*
X011847Y021765D01*
X011867Y021718D01*
X011877Y021667D01*
X011877Y021425D01*
X011877Y021183D01*
X011867Y021133D01*
X011847Y021086D01*
X011819Y021043D01*
X011783Y021007D01*
X011740Y020978D01*
X011693Y020959D01*
X011643Y020949D01*
X011420Y020949D01*
X011420Y021425D01*
X011420Y021425D01*
X011420Y020949D01*
X011198Y020949D01*
X011148Y020959D01*
X011100Y020978D01*
X011058Y021007D01*
X011035Y021030D01*
X011035Y020963D02*
X011139Y020963D01*
X011420Y020963D02*
X011420Y020963D01*
X011702Y020963D02*
X011888Y020963D01*
X011877Y021281D02*
X011888Y021281D01*
X011877Y021425D02*
X011420Y021425D01*
X011420Y021425D01*
X011877Y021425D01*
X011877Y021600D02*
X011888Y021600D01*
X011888Y021918D02*
X011857Y021918D01*
X011420Y021281D02*
X011420Y021281D01*
X012668Y021281D02*
X012771Y021281D01*
X012782Y021277D02*
X012939Y021277D01*
X012940Y021275D01*
X012915Y021238D01*
X012896Y021191D01*
X012886Y021141D01*
X012886Y021010D01*
X012886Y020926D01*
X012668Y020926D01*
X012668Y021324D01*
X012782Y021277D01*
X012886Y021010D02*
X013461Y021010D01*
X012886Y021010D01*
X012886Y020963D02*
X012668Y020963D01*
X013461Y021010D02*
X013461Y021010D01*
X014003Y020326D02*
X015019Y020326D01*
X014576Y020644D02*
X014446Y020644D01*
X014446Y020963D02*
X014576Y020963D01*
X014576Y021325D02*
X014446Y021325D01*
X014446Y021970D01*
X014035Y021970D01*
X014016Y021966D01*
X014016Y022114D01*
X014873Y022114D01*
X015006Y021981D01*
X015006Y021966D01*
X014986Y021970D01*
X014576Y021970D01*
X014576Y021325D01*
X014576Y021600D02*
X014446Y021600D01*
X014446Y021918D02*
X014576Y021918D01*
X016092Y021720D02*
X016116Y021663D01*
X016116Y021357D01*
X016079Y021269D01*
X016070Y021260D01*
X016079Y021251D01*
X016092Y021219D01*
X016484Y021219D01*
X016494Y021243D01*
X016473Y021275D01*
X016454Y021322D01*
X016444Y021372D01*
X016444Y021595D01*
X016920Y021595D01*
X016920Y021595D01*
X016444Y021595D01*
X016444Y021720D01*
X016092Y021720D01*
X016116Y021600D02*
X016444Y021600D01*
X016471Y021281D02*
X016084Y021281D01*
X016920Y021595D02*
X016920Y021595D01*
X017397Y021595D01*
X017397Y021720D01*
X020230Y021720D01*
X020373Y021780D01*
X020381Y021788D01*
X021090Y021788D01*
X021178Y021824D01*
X021246Y021892D01*
X021256Y021917D01*
X021649Y021917D01*
X021649Y021496D01*
X021685Y021408D01*
X021731Y021362D01*
X021731Y021182D01*
X021700Y021108D01*
X021700Y020973D01*
X021671Y020919D01*
X021654Y020765D01*
X021698Y020616D01*
X021700Y020613D01*
X021700Y020492D01*
X021737Y020404D01*
X021804Y020337D01*
X021892Y020300D01*
X022208Y020300D01*
X022296Y020337D01*
X022364Y020404D01*
X022400Y020492D01*
X022400Y020627D01*
X022424Y020670D01*
X022439Y020632D01*
X022440Y020629D01*
X022440Y020492D01*
X022477Y020404D01*
X022544Y020337D01*
X022632Y020300D01*
X022734Y020300D01*
X022814Y020220D01*
X022632Y020220D01*
X022631Y020220D01*
X022606Y020230D01*
X022556Y020240D01*
X022420Y020240D01*
X022285Y020240D01*
X022234Y020230D01*
X022209Y020220D01*
X022208Y020220D01*
X021892Y020220D01*
X021804Y020183D01*
X021737Y020116D01*
X021705Y020038D01*
X021282Y020038D01*
X021282Y020225D01*
X021246Y020313D01*
X021178Y020381D01*
X021090Y020417D01*
X019735Y020417D01*
X019646Y020381D01*
X019579Y020313D01*
X019542Y020225D01*
X019542Y019531D01*
X019579Y019443D01*
X019646Y019375D01*
X019735Y019339D01*
X020256Y019339D01*
X020256Y017551D01*
X019754Y017551D01*
X019666Y017515D01*
X019599Y017447D01*
X019562Y017359D01*
X019562Y016298D01*
X019288Y016298D01*
X019217Y016369D01*
X019136Y016451D01*
X019100Y016465D01*
X019100Y016538D01*
X019064Y016626D01*
X018996Y016693D01*
X018908Y016730D01*
X018671Y016730D01*
X018671Y019018D01*
X018627Y019125D01*
X018357Y019395D01*
X018357Y019690D01*
X018328Y019760D01*
X018357Y019830D01*
X018357Y020359D01*
X018321Y020447D01*
X018253Y020515D01*
X018165Y020551D01*
X017676Y020551D01*
X017587Y020515D01*
X017520Y020447D01*
X017514Y020432D01*
X017336Y020432D01*
X017293Y020475D01*
X017293Y020545D01*
X017340Y020593D01*
X017377Y020681D01*
X017377Y021170D01*
X017346Y021243D01*
X017367Y021275D01*
X017387Y021322D01*
X017397Y021372D01*
X017397Y021595D01*
X016920Y021595D01*
X017397Y021600D02*
X021649Y021600D01*
X021731Y021281D02*
X017370Y021281D01*
X017377Y020963D02*
X021695Y020963D01*
X021689Y020644D02*
X017362Y020644D01*
X018357Y020326D02*
X019591Y020326D01*
X019542Y020007D02*
X018357Y020007D01*
X018357Y019689D02*
X019542Y019689D01*
X019660Y019370D02*
X018382Y019370D01*
X018657Y019052D02*
X020256Y019052D01*
X020256Y018733D02*
X018671Y018733D01*
X018671Y018415D02*
X020256Y018415D01*
X020256Y018096D02*
X018671Y018096D01*
X018671Y017778D02*
X020256Y017778D01*
X020836Y017778D02*
X025055Y017778D01*
X024829Y017551D02*
X023809Y017551D01*
X023721Y017515D01*
X023654Y017447D01*
X023617Y017359D01*
X023617Y016298D01*
X021223Y016298D01*
X021223Y017359D01*
X021187Y017447D01*
X021119Y017515D01*
X021031Y017551D01*
X020836Y017551D01*
X020836Y019339D01*
X021090Y019339D01*
X021178Y019375D01*
X021246Y019443D01*
X021252Y019458D01*
X021700Y019458D01*
X021700Y019412D01*
X021737Y019324D01*
X021804Y019257D01*
X021892Y019220D01*
X022208Y019220D01*
X022209Y019220D01*
X022234Y019210D01*
X022285Y019200D01*
X022420Y019200D01*
X022420Y019720D01*
X022420Y020240D01*
X022420Y019720D01*
X022420Y019720D01*
X022420Y019720D01*
X022420Y019200D01*
X022556Y019200D01*
X022606Y019210D01*
X022631Y019220D01*
X022632Y019220D01*
X022948Y019220D01*
X023036Y019257D01*
X023104Y019324D01*
X023140Y019412D01*
X023140Y019894D01*
X023209Y019825D01*
X023209Y019494D01*
X023253Y019387D01*
X024041Y018600D01*
X024122Y018518D01*
X024229Y018474D01*
X025541Y018474D01*
X025497Y018368D01*
X025497Y018219D01*
X024829Y017551D01*
X025278Y017180D02*
X025850Y017752D01*
X025931Y017719D01*
X026146Y017719D01*
X026345Y017801D01*
X026497Y017953D01*
X026579Y018152D01*
X026579Y018368D01*
X026540Y018462D01*
X026678Y018324D01*
X026678Y018152D01*
X026761Y017953D01*
X026913Y017801D01*
X027112Y017719D01*
X027327Y017719D01*
X027526Y017801D01*
X027678Y017953D01*
X027761Y018152D01*
X027761Y018368D01*
X027678Y018567D01*
X027526Y018719D01*
X027327Y018801D01*
X027112Y018801D01*
X027048Y018775D01*
X026813Y019010D01*
X026706Y019054D01*
X024406Y019054D01*
X023960Y019500D01*
X024231Y019500D01*
X024281Y019510D01*
X024328Y019530D01*
X024371Y019558D01*
X024407Y019594D01*
X024436Y019637D01*
X024455Y019684D01*
X024465Y019734D01*
X024465Y019940D01*
X024465Y020146D01*
X024455Y020196D01*
X024436Y020243D01*
X024414Y020276D01*
X024445Y020352D01*
X024445Y020808D01*
X024409Y020896D01*
X024341Y020963D01*
X024283Y020988D01*
X024283Y021597D01*
X024223Y021741D01*
X023436Y022528D01*
X023326Y022638D01*
X023183Y022697D01*
X021273Y022697D01*
X021258Y022731D01*
X027818Y022731D01*
X027811Y022719D01*
X027730Y022417D01*
X027730Y022103D01*
X027811Y021801D01*
X027968Y021529D01*
X028190Y021308D01*
X028461Y021151D01*
X028764Y021070D01*
X029077Y021070D01*
X029380Y021151D01*
X029651Y021308D01*
X029872Y021529D01*
X030029Y021801D01*
X030110Y022103D01*
X030110Y022417D01*
X030029Y022719D01*
X030022Y022731D01*
X030419Y022731D01*
X030419Y002409D01*
X030372Y002491D01*
X030151Y002712D01*
X029880Y002869D01*
X029577Y002950D01*
X029408Y002950D01*
X029561Y002991D01*
X029824Y003142D01*
X030038Y003357D01*
X030189Y003619D01*
X030268Y003912D01*
X030268Y004215D01*
X030189Y004507D01*
X030038Y004770D01*
X029824Y004984D01*
X029561Y005135D01*
X029269Y005214D01*
X028966Y005214D01*
X028673Y005135D01*
X028411Y004984D01*
X028196Y004770D01*
X028045Y004507D01*
X027967Y004215D01*
X027967Y003912D01*
X028045Y003619D01*
X028196Y003357D01*
X028411Y003142D01*
X028673Y002991D01*
X028966Y002913D01*
X029124Y002913D01*
X028961Y002869D01*
X028690Y002712D01*
X028468Y002491D01*
X028311Y002219D01*
X028230Y001917D01*
X028230Y001603D01*
X028311Y001301D01*
X028468Y001029D01*
X028677Y000820D01*
X020222Y000820D01*
X020225Y000826D01*
X020245Y000873D01*
X020255Y000923D01*
X020255Y001244D01*
X019739Y001244D01*
X019739Y001244D01*
X019739Y001800D01*
X019458Y001800D01*
X019407Y001790D01*
X019360Y001770D01*
X019344Y001759D01*
X019295Y001780D01*
X018687Y001780D01*
X018671Y001773D01*
X018671Y002094D01*
X018687Y002087D01*
X019295Y002087D01*
X019344Y002107D01*
X019360Y002097D01*
X019407Y002077D01*
X019458Y002067D01*
X019739Y002067D01*
X019739Y002622D01*
X019739Y002622D01*
X019739Y002067D01*
X020021Y002067D01*
X020071Y002077D01*
X020118Y002097D01*
X020161Y002125D01*
X020197Y002161D01*
X020225Y002204D01*
X020245Y002251D01*
X020255Y002301D01*
X020255Y002622D01*
X019739Y002622D01*
X019739Y002622D01*
X019739Y003177D01*
X019458Y003177D01*
X019407Y003167D01*
X019360Y003148D01*
X019344Y003137D01*
X019295Y003157D01*
X018687Y003157D01*
X018671Y003151D01*
X018671Y003270D01*
X018669Y003276D01*
X018687Y003268D01*
X019295Y003268D01*
X019344Y003288D01*
X019360Y003278D01*
X019407Y003258D01*
X019458Y003248D01*
X019739Y003248D01*
X019739Y003803D01*
X019739Y003803D01*
X019739Y003248D01*
X020021Y003248D01*
X020071Y003258D01*
X020118Y003278D01*
X020161Y003306D01*
X020197Y003342D01*
X020225Y003385D01*
X020245Y003432D01*
X020255Y003482D01*
X020255Y003684D01*
X020694Y003245D01*
X020776Y003164D01*
X020882Y003120D01*
X026706Y003120D01*
X026813Y003164D01*
X027211Y003562D01*
X027309Y003522D01*
X027524Y003522D01*
X027723Y003604D01*
X027875Y003757D01*
X027957Y003956D01*
X027957Y004171D01*
X027875Y004370D01*
X027723Y004522D01*
X027524Y004604D01*
X027466Y004604D01*
X028587Y005726D01*
X028705Y005726D01*
X028866Y005792D01*
X028990Y005916D01*
X029057Y006078D01*
X029057Y006253D01*
X028990Y006415D01*
X028939Y006466D01*
X029856Y006466D01*
X029962Y006510D01*
X030159Y006707D01*
X030241Y006789D01*
X030285Y006895D01*
X030285Y010751D01*
X030241Y010857D01*
X030031Y011067D01*
X030031Y011385D01*
X029746Y011669D01*
X030031Y011954D01*
X030031Y012385D01*
X029746Y012669D01*
X030031Y012954D01*
X030031Y013385D01*
X029746Y013669D01*
X030031Y013954D01*
X030031Y014385D01*
X029726Y014689D01*
X029295Y014689D01*
X029011Y014405D01*
X028726Y014689D01*
X028377Y014689D01*
X027207Y015860D01*
X027100Y015904D01*
X026394Y015904D01*
X026287Y015860D01*
X026206Y015779D01*
X025604Y015177D01*
X025479Y015177D01*
X025391Y015141D01*
X025323Y015073D01*
X025287Y014985D01*
X025287Y014535D01*
X025297Y014510D01*
X025287Y014485D01*
X025287Y014035D01*
X025323Y013947D01*
X025333Y013937D01*
X025291Y013895D01*
X025224Y013733D01*
X025224Y013709D01*
X025223Y013709D01*
X025223Y013861D01*
X024930Y014154D01*
X024516Y014154D01*
X024223Y013861D01*
X024223Y013599D01*
X023529Y012905D01*
X023411Y012905D01*
X023250Y012838D01*
X023186Y012774D01*
X023166Y012793D01*
X023078Y012830D01*
X022522Y012830D01*
X022434Y012793D01*
X022420Y012779D01*
X022406Y012793D01*
X022318Y012830D01*
X021820Y012830D01*
X021820Y013154D01*
X021930Y013154D01*
X022223Y013447D01*
X022223Y013861D01*
X021930Y014154D01*
X021516Y014154D01*
X021396Y014033D01*
X021351Y014078D01*
X021263Y014114D01*
X020577Y014114D01*
X020489Y014078D01*
X020421Y014010D01*
X020385Y013922D01*
X020385Y013315D01*
X020405Y013265D01*
X020395Y013249D01*
X020375Y013202D01*
X020365Y013152D01*
X020365Y012870D01*
X020365Y012589D01*
X020375Y012538D01*
X020395Y012491D01*
X020423Y012449D01*
X020459Y012412D01*
X020502Y012384D01*
X020549Y012364D01*
X020599Y012354D01*
X020920Y012354D01*
X020920Y012870D01*
X020920Y012870D01*
X020365Y012870D01*
X020920Y012870D01*
X020920Y012870D01*
X020920Y012354D01*
X021241Y012354D01*
X021261Y012358D01*
X021285Y012300D01*
X021366Y012219D01*
X021550Y012035D01*
X021550Y012000D01*
X021550Y011904D01*
X021560Y011854D01*
X021580Y011807D01*
X021608Y011764D01*
X021644Y011728D01*
X021687Y011700D01*
X021734Y011680D01*
X021785Y011670D01*
X022040Y011670D01*
X022040Y011950D01*
X022040Y011950D01*
X022040Y011670D01*
X022117Y011670D01*
X022075Y011568D01*
X022075Y011393D01*
X022142Y011231D01*
X022225Y011148D01*
X022225Y010536D01*
X022209Y010543D01*
X022033Y010543D01*
X021872Y010476D01*
X021789Y010393D01*
X021613Y010393D01*
X021613Y010692D01*
X021576Y010780D01*
X021509Y010847D01*
X021421Y010884D01*
X020656Y010884D01*
X020568Y010847D01*
X020500Y010780D01*
X020464Y010692D01*
X020464Y010627D01*
X020246Y010409D01*
X020246Y015718D01*
X025135Y015718D01*
X025218Y015635D01*
X025380Y015568D01*
X025555Y015568D01*
X025717Y015635D01*
X025840Y015759D01*
X025907Y015921D01*
X025907Y016096D01*
X025840Y016257D01*
X025717Y016381D01*
X025555Y016448D01*
X025380Y016448D01*
X025278Y016406D01*
X025278Y017180D01*
X025278Y017141D02*
X028653Y017141D01*
X028769Y017109D02*
X028476Y017188D01*
X028214Y017339D01*
X028000Y017554D01*
X027848Y017816D01*
X027770Y018109D01*
X027770Y018411D01*
X027848Y018704D01*
X028000Y018966D01*
X028214Y019181D01*
X028476Y019332D01*
X028769Y019411D01*
X029072Y019411D01*
X029364Y019332D01*
X029627Y019181D01*
X029841Y018966D01*
X029992Y018704D01*
X030071Y018411D01*
X030071Y018109D01*
X029992Y017816D01*
X029841Y017554D01*
X029627Y017339D01*
X029364Y017188D01*
X029072Y017109D01*
X028769Y017109D01*
X029188Y017141D02*
X030419Y017141D01*
X030419Y016822D02*
X025278Y016822D01*
X025278Y016504D02*
X030419Y016504D01*
X030419Y016185D02*
X025870Y016185D01*
X025885Y015867D02*
X026303Y015867D01*
X025975Y015548D02*
X020246Y015548D01*
X020246Y015230D02*
X025657Y015230D01*
X025287Y014911D02*
X020246Y014911D01*
X020246Y014593D02*
X025287Y014593D01*
X025287Y014274D02*
X020246Y014274D01*
X020246Y013956D02*
X020399Y013956D01*
X020385Y013637D02*
X020246Y013637D01*
X020246Y013319D02*
X020385Y013319D01*
X020365Y013000D02*
X020246Y013000D01*
X020246Y012682D02*
X020365Y012682D01*
X020246Y012363D02*
X020556Y012363D01*
X020920Y012363D02*
X020920Y012363D01*
X020920Y012682D02*
X020920Y012682D01*
X021541Y012045D02*
X020246Y012045D01*
X020246Y011726D02*
X021648Y011726D01*
X021616Y012000D02*
X021550Y012000D01*
X021616Y012000D01*
X021616Y012000D01*
X022040Y011726D02*
X022040Y011726D01*
X022075Y011408D02*
X020246Y011408D01*
X020246Y011089D02*
X022225Y011089D01*
X022225Y010771D02*
X021580Y010771D01*
X021613Y010452D02*
X021848Y010452D01*
X020496Y010771D02*
X020246Y010771D01*
X020246Y010452D02*
X020289Y010452D01*
X019666Y010452D02*
X018638Y010452D01*
X018320Y010771D02*
X019666Y010771D01*
X019666Y011089D02*
X018001Y011089D01*
X017683Y011408D02*
X019666Y011408D01*
X019666Y011726D02*
X017364Y011726D01*
X017046Y012045D02*
X019666Y012045D01*
X019666Y012363D02*
X016727Y012363D01*
X016409Y012682D02*
X019666Y012682D01*
X019666Y013000D02*
X019100Y013000D01*
X019100Y013319D02*
X019666Y013319D01*
X019666Y013637D02*
X019100Y013637D01*
X019100Y013956D02*
X019666Y013956D01*
X019666Y014274D02*
X019100Y014274D01*
X019100Y014593D02*
X019666Y014593D01*
X019666Y014911D02*
X019100Y014911D01*
X019038Y015140D02*
X019038Y015140D01*
X019120Y015230D02*
X019666Y015230D01*
X019666Y015548D02*
X019117Y015548D01*
X019038Y015400D02*
X019038Y015400D01*
X018570Y015400D02*
X018570Y015600D01*
X018570Y015600D01*
X018570Y015400D01*
X018570Y015400D01*
X018570Y015400D01*
X018570Y015200D01*
X018570Y015200D01*
X018570Y015330D01*
X018570Y015400D01*
X018570Y015548D02*
X018570Y015548D01*
X018570Y015230D02*
X018570Y015230D01*
X018103Y015140D02*
X018020Y015140D01*
X018103Y015140D01*
X018103Y015140D01*
X018020Y015230D02*
X016800Y015230D01*
X016800Y014911D02*
X018040Y014911D01*
X018040Y014593D02*
X016800Y014593D01*
X016800Y014274D02*
X018040Y014274D01*
X018040Y013956D02*
X016800Y013956D01*
X016800Y013637D02*
X018040Y013637D01*
X018040Y013319D02*
X016800Y013319D01*
X016720Y013100D02*
X016720Y013100D01*
X016819Y013000D02*
X018040Y013000D01*
X016270Y013000D02*
X016270Y013000D01*
X015821Y013100D02*
X015720Y013100D01*
X015821Y013100D01*
X015821Y013100D01*
X015721Y013000D02*
X013224Y013000D01*
X013542Y013319D02*
X015740Y013319D01*
X015740Y013637D02*
X013861Y013637D01*
X013398Y012175D02*
X016095Y012175D01*
X016668Y011602D01*
X016207Y011602D01*
X016119Y011566D01*
X016051Y011498D01*
X016015Y011410D01*
X016015Y010983D01*
X015857Y010983D01*
X015810Y011030D01*
X015722Y011066D01*
X015465Y011066D01*
X014884Y011647D01*
X014884Y011765D01*
X014817Y011927D01*
X014693Y012050D01*
X014531Y012117D01*
X014356Y012117D01*
X014195Y012050D01*
X014071Y011927D01*
X014004Y011765D01*
X014004Y011590D01*
X014071Y011428D01*
X014195Y011304D01*
X014356Y011237D01*
X014474Y011237D01*
X014645Y011066D01*
X014347Y011066D01*
X014258Y011030D01*
X014191Y010962D01*
X014154Y010874D01*
X014154Y010666D01*
X014144Y010642D01*
X014134Y010592D01*
X014134Y010496D01*
X014134Y010401D01*
X014144Y010350D01*
X014154Y010326D01*
X014154Y010118D01*
X014191Y010030D01*
X014258Y009963D01*
X014347Y009926D01*
X014645Y009926D01*
X014345Y009627D01*
X013995Y009977D01*
X013995Y010426D01*
X013974Y010475D01*
X013985Y010491D01*
X014005Y010538D01*
X014015Y010589D01*
X014015Y010870D01*
X013460Y010870D01*
X013460Y010870D01*
X014015Y010870D01*
X014015Y011152D01*
X014005Y011202D01*
X013985Y011249D01*
X013957Y011292D01*
X013921Y011328D01*
X013878Y011357D01*
X013831Y011376D01*
X013780Y011386D01*
X013460Y011386D01*
X013460Y010870D01*
X013460Y010870D01*
X013460Y011386D01*
X013139Y011386D01*
X013088Y011376D01*
X013041Y011357D01*
X012999Y011328D01*
X012962Y011292D01*
X012962Y011292D01*
X012962Y012031D01*
X012978Y012025D01*
X013153Y012025D01*
X013315Y012092D01*
X013398Y012175D01*
X013201Y012045D02*
X014189Y012045D01*
X014004Y011726D02*
X012962Y011726D01*
X012962Y011408D02*
X014091Y011408D01*
X014015Y011089D02*
X014622Y011089D01*
X014154Y010771D02*
X014015Y010771D01*
X014134Y010496D02*
X014245Y010496D01*
X014134Y010496D01*
X014134Y010452D02*
X013984Y010452D01*
X014245Y010496D02*
X014245Y010496D01*
X014245Y010496D01*
X014154Y010134D02*
X013995Y010134D01*
X014157Y009815D02*
X014534Y009815D01*
X014854Y009315D02*
X014988Y009181D01*
X014988Y009206D01*
X015055Y009368D01*
X015179Y009491D01*
X015341Y009558D01*
X015516Y009558D01*
X015677Y009491D01*
X015760Y009408D01*
X016119Y009408D01*
X016089Y009428D01*
X016053Y009464D01*
X016024Y009507D01*
X016005Y009554D01*
X015995Y009604D01*
X015995Y009945D01*
X016609Y009945D01*
X016609Y009945D01*
X015995Y009945D01*
X015995Y010286D01*
X016005Y010336D01*
X016024Y010383D01*
X016038Y010403D01*
X015894Y010403D01*
X015914Y010354D01*
X015914Y010118D01*
X015878Y010030D01*
X015810Y009963D01*
X015722Y009926D01*
X015465Y009926D01*
X014854Y009315D01*
X015035Y009497D02*
X015191Y009497D01*
X015354Y009815D02*
X015995Y009815D01*
X016031Y009497D02*
X015665Y009497D01*
X015914Y010134D02*
X015995Y010134D01*
X016609Y009945D02*
X017224Y009945D01*
X017224Y010286D01*
X017214Y010336D01*
X017194Y010383D01*
X017165Y010426D01*
X017129Y010462D01*
X017087Y010490D01*
X017047Y010507D01*
X017099Y010529D01*
X017167Y010596D01*
X017204Y010685D01*
X017204Y011067D01*
X018485Y009786D01*
X018485Y009408D01*
X017100Y009408D01*
X017129Y009428D01*
X017165Y009464D01*
X017194Y009507D01*
X017214Y009554D01*
X017224Y009604D01*
X017224Y009945D01*
X016609Y009945D01*
X016609Y009945D01*
X017224Y009815D02*
X018455Y009815D01*
X018485Y009497D02*
X017187Y009497D01*
X017224Y010134D02*
X018137Y010134D01*
X017818Y010452D02*
X017139Y010452D01*
X017204Y010771D02*
X017500Y010771D01*
X016544Y011726D02*
X014884Y011726D01*
X015124Y011408D02*
X016015Y011408D01*
X016015Y011089D02*
X015442Y011089D01*
X014699Y012045D02*
X016226Y012045D01*
X013460Y011089D02*
X013460Y011089D01*
X014537Y008812D02*
X016034Y007315D01*
X015804Y007315D01*
X015754Y007305D01*
X015707Y007286D01*
X015664Y007257D01*
X015628Y007221D01*
X015599Y007178D01*
X015580Y007131D01*
X015570Y007081D01*
X015570Y006760D01*
X015570Y006439D01*
X015580Y006389D01*
X015599Y006342D01*
X015628Y006299D01*
X015664Y006263D01*
X015707Y006234D01*
X015754Y006215D01*
X015804Y006205D01*
X016086Y006205D01*
X016367Y006205D01*
X016417Y006215D01*
X016446Y006227D01*
X016451Y006225D01*
X017058Y006225D01*
X017147Y006261D01*
X017214Y006329D01*
X017251Y006417D01*
X017251Y006466D01*
X017473Y006466D01*
X017975Y005965D01*
X017935Y005948D01*
X017909Y005922D01*
X017900Y005931D01*
X017812Y005967D01*
X017563Y005967D01*
X017536Y006008D01*
X017499Y006045D01*
X017457Y006073D01*
X017409Y006093D01*
X017359Y006103D01*
X016588Y006103D01*
X016588Y004428D01*
X016268Y004428D01*
X016268Y006103D01*
X015497Y006103D01*
X015447Y006093D01*
X015399Y006073D01*
X015357Y006045D01*
X015321Y006008D01*
X015307Y005987D01*
X015271Y005987D01*
X015051Y005987D01*
X015001Y005977D01*
X014953Y005958D01*
X014911Y005929D01*
X014910Y005928D01*
X014890Y005948D01*
X014728Y006015D01*
X014554Y006015D01*
X014554Y006379D01*
X014537Y006419D01*
X014537Y008812D01*
X014537Y008541D02*
X014808Y008541D01*
X014537Y008223D02*
X015126Y008223D01*
X015445Y007904D02*
X014537Y007904D01*
X014537Y007586D02*
X015763Y007586D01*
X015679Y007267D02*
X014537Y007267D01*
X014537Y006949D02*
X015570Y006949D01*
X015570Y006760D02*
X016086Y006760D01*
X016086Y006205D01*
X016086Y006760D01*
X016086Y006760D01*
X015570Y006760D01*
X015570Y006630D02*
X014537Y006630D01*
X014554Y006312D02*
X015619Y006312D01*
X015310Y005993D02*
X014781Y005993D01*
X015271Y005987D02*
X015271Y005913D01*
X015271Y005913D01*
X015271Y005987D01*
X016086Y006312D02*
X016086Y006312D01*
X016268Y005993D02*
X016588Y005993D01*
X016588Y005675D02*
X016268Y005675D01*
X016268Y005356D02*
X016588Y005356D01*
X016588Y005038D02*
X016268Y005038D01*
X016268Y004719D02*
X016588Y004719D01*
X017546Y005993D02*
X017946Y005993D01*
X017628Y006312D02*
X017197Y006312D01*
X016086Y006630D02*
X016086Y006630D01*
X016086Y006760D02*
X016086Y006760D01*
X019065Y006630D02*
X019419Y006630D01*
X019065Y006949D02*
X019909Y006949D01*
X019675Y007267D02*
X019065Y007267D01*
X019065Y007586D02*
X019666Y007586D01*
X019666Y007904D02*
X019065Y007904D01*
X019065Y008223D02*
X019666Y008223D01*
X019666Y008541D02*
X019065Y008541D01*
X019065Y008860D02*
X019666Y008860D01*
X019666Y009178D02*
X019065Y009178D01*
X019065Y009497D02*
X019666Y009497D01*
X019666Y009815D02*
X019065Y009815D01*
X018957Y010134D02*
X019666Y010134D01*
X021820Y013000D02*
X023624Y013000D01*
X023943Y013319D02*
X022095Y013319D01*
X022223Y013637D02*
X024223Y013637D01*
X024318Y013956D02*
X022129Y013956D01*
X025129Y013956D02*
X025319Y013956D01*
X027519Y015548D02*
X030419Y015548D01*
X030419Y015867D02*
X027191Y015867D01*
X027837Y015230D02*
X030419Y015230D01*
X030419Y014911D02*
X028156Y014911D01*
X028823Y014593D02*
X029198Y014593D01*
X029823Y014593D02*
X030419Y014593D01*
X030419Y014274D02*
X030031Y014274D01*
X030031Y013956D02*
X030419Y013956D01*
X030419Y013637D02*
X029779Y013637D01*
X030031Y013319D02*
X030419Y013319D01*
X030419Y013000D02*
X030031Y013000D01*
X029758Y012682D02*
X030419Y012682D01*
X030419Y012363D02*
X030031Y012363D01*
X030031Y012045D02*
X030419Y012045D01*
X030419Y011726D02*
X029803Y011726D01*
X030008Y011408D02*
X030419Y011408D01*
X030419Y011089D02*
X030031Y011089D01*
X030277Y010771D02*
X030419Y010771D01*
X030419Y010452D02*
X030285Y010452D01*
X030285Y010134D02*
X030419Y010134D01*
X030419Y009815D02*
X030285Y009815D01*
X030285Y009497D02*
X030419Y009497D01*
X030419Y009178D02*
X030285Y009178D01*
X030285Y008860D02*
X030419Y008860D01*
X030419Y008541D02*
X030285Y008541D01*
X030285Y008223D02*
X030419Y008223D01*
X030419Y007904D02*
X030285Y007904D01*
X030285Y007586D02*
X030419Y007586D01*
X030419Y007267D02*
X030285Y007267D01*
X030285Y006949D02*
X030419Y006949D01*
X030419Y006630D02*
X030082Y006630D01*
X030419Y006312D02*
X029033Y006312D01*
X029022Y005993D02*
X030419Y005993D01*
X030419Y005675D02*
X028536Y005675D01*
X028218Y005356D02*
X030419Y005356D01*
X030419Y005038D02*
X029731Y005038D01*
X030067Y004719D02*
X030419Y004719D01*
X030419Y004401D02*
X030218Y004401D01*
X030268Y004082D02*
X030419Y004082D01*
X030419Y003764D02*
X030228Y003764D01*
X030089Y003445D02*
X030419Y003445D01*
X030419Y003127D02*
X029796Y003127D01*
X029985Y002808D02*
X030419Y002808D01*
X030419Y002490D02*
X030373Y002490D01*
X028856Y002808D02*
X020255Y002808D01*
X020255Y002943D02*
X020255Y002622D01*
X019739Y002622D01*
X019739Y002622D01*
X019739Y003177D01*
X020021Y003177D01*
X020071Y003167D01*
X020118Y003148D01*
X020161Y003119D01*
X020197Y003083D01*
X020225Y003041D01*
X020245Y002993D01*
X020255Y002943D01*
X020150Y003127D02*
X020866Y003127D01*
X020494Y003445D02*
X020248Y003445D01*
X019739Y003445D02*
X019739Y003445D01*
X019739Y003127D02*
X019739Y003127D01*
X019739Y002808D02*
X019739Y002808D01*
X019739Y002490D02*
X019739Y002490D01*
X019739Y002171D02*
X019739Y002171D01*
X020204Y002171D02*
X028298Y002171D01*
X028467Y002490D02*
X020255Y002490D01*
X020071Y001790D02*
X020021Y001800D01*
X019739Y001800D01*
X019739Y001244D01*
X019739Y001244D01*
X020255Y001244D01*
X020255Y001565D01*
X020245Y001615D01*
X020225Y001663D01*
X020197Y001705D01*
X020161Y001741D01*
X020118Y001770D01*
X020071Y001790D01*
X020255Y001534D02*
X028249Y001534D01*
X028230Y001853D02*
X018671Y001853D01*
X019739Y001534D02*
X019739Y001534D01*
X020255Y001216D02*
X028361Y001216D01*
X028600Y000897D02*
X020250Y000897D01*
X019739Y003764D02*
X019739Y003764D01*
X020464Y005674D02*
X020317Y005821D01*
X020210Y005865D01*
X019697Y005865D01*
X019614Y005948D01*
X019574Y005965D01*
X019879Y006269D01*
X020475Y006269D01*
X020473Y006267D01*
X020454Y006220D01*
X020444Y006169D01*
X020444Y006016D01*
X021038Y006016D01*
X021038Y006016D01*
X020444Y006016D01*
X020444Y005862D01*
X020454Y005812D01*
X020473Y005765D01*
X020486Y005746D01*
X020464Y005692D01*
X020464Y005674D01*
X020463Y005675D02*
X020464Y005675D01*
X020444Y005993D02*
X019603Y005993D01*
X021038Y006016D02*
X021633Y006016D01*
X021633Y006169D01*
X021623Y006220D01*
X021603Y006267D01*
X021591Y006286D01*
X021613Y006340D01*
X021613Y006428D01*
X021924Y006740D01*
X022109Y006555D01*
X022069Y006539D01*
X021945Y006415D01*
X021878Y006253D01*
X021878Y006136D01*
X021633Y005891D01*
X021633Y006016D01*
X021038Y006016D01*
X021038Y006016D01*
X021633Y005993D02*
X021735Y005993D01*
X021601Y006312D02*
X021902Y006312D01*
X021815Y006630D02*
X022034Y006630D01*
X025897Y008591D02*
X025897Y008591D01*
X026334Y008591D01*
X026397Y008591D01*
X026897Y008591D01*
X027334Y008591D01*
X027334Y008754D01*
X027328Y008782D01*
X027338Y008791D01*
X027384Y008745D01*
X027545Y008678D01*
X027720Y008678D01*
X027882Y008745D01*
X028006Y008869D01*
X028026Y008919D01*
X028275Y008669D01*
X027991Y008385D01*
X027991Y007954D01*
X028009Y007936D01*
X027860Y007787D01*
X027742Y007787D01*
X027633Y007742D01*
X027612Y007793D01*
X027488Y007916D01*
X027332Y007981D01*
X027332Y008130D01*
X027334Y008183D01*
X027332Y008187D01*
X027332Y008192D01*
X027314Y008236D01*
X027314Y008264D01*
X027293Y008314D01*
X027304Y008330D01*
X027324Y008377D01*
X027334Y008427D01*
X027334Y008591D01*
X026897Y008591D01*
X026897Y008591D01*
X026897Y008591D01*
X026459Y008591D01*
X026397Y008591D01*
X026397Y008591D01*
X026397Y008591D01*
X025897Y008591D01*
X027334Y008541D02*
X028147Y008541D01*
X028085Y008860D02*
X027996Y008860D01*
X027991Y008223D02*
X027319Y008223D01*
X027501Y007904D02*
X027977Y007904D01*
X027899Y005038D02*
X028504Y005038D01*
X028167Y004719D02*
X027581Y004719D01*
X027844Y004401D02*
X028016Y004401D01*
X027967Y004082D02*
X027957Y004082D01*
X028006Y003764D02*
X027878Y003764D01*
X028145Y003445D02*
X027094Y003445D01*
X026723Y003127D02*
X028438Y003127D01*
X018103Y015400D02*
X018020Y015400D01*
X018103Y015400D01*
X018103Y015400D01*
X018103Y015400D01*
X019100Y016504D02*
X019562Y016504D01*
X019562Y016822D02*
X018671Y016822D01*
X018671Y017141D02*
X019562Y017141D01*
X019611Y017459D02*
X018671Y017459D01*
X020836Y018096D02*
X025374Y018096D01*
X025517Y018415D02*
X020836Y018415D01*
X020836Y018733D02*
X023907Y018733D01*
X023589Y019052D02*
X020836Y019052D01*
X021165Y019370D02*
X021718Y019370D01*
X022420Y019370D02*
X022420Y019370D01*
X022420Y019689D02*
X022420Y019689D01*
X022420Y020007D02*
X022420Y020007D01*
X022270Y020326D02*
X022571Y020326D01*
X022434Y020644D02*
X022409Y020644D01*
X021831Y020326D02*
X021233Y020326D01*
X023140Y019689D02*
X023209Y019689D01*
X023270Y019370D02*
X023123Y019370D01*
X023920Y019940D02*
X023920Y019940D01*
X024465Y019940D01*
X023920Y019940D01*
X024465Y020007D02*
X030419Y020007D01*
X030419Y019689D02*
X024456Y019689D01*
X024090Y019370D02*
X028617Y019370D01*
X029223Y019370D02*
X030419Y019370D01*
X030419Y019052D02*
X029756Y019052D01*
X029976Y018733D02*
X030419Y018733D01*
X030419Y018415D02*
X030070Y018415D01*
X030067Y018096D02*
X030419Y018096D01*
X030419Y017778D02*
X029970Y017778D01*
X029746Y017459D02*
X030419Y017459D01*
X028094Y017459D02*
X025557Y017459D01*
X026288Y017778D02*
X026970Y017778D01*
X026702Y018096D02*
X026556Y018096D01*
X026560Y018415D02*
X026588Y018415D01*
X026712Y019052D02*
X028085Y019052D01*
X027865Y018733D02*
X027492Y018733D01*
X027741Y018415D02*
X027770Y018415D01*
X027773Y018096D02*
X027737Y018096D01*
X027870Y017778D02*
X027469Y017778D01*
X030419Y020326D02*
X024434Y020326D01*
X024445Y020644D02*
X030419Y020644D01*
X030419Y020963D02*
X024342Y020963D01*
X024283Y021281D02*
X028236Y021281D01*
X027928Y021600D02*
X024282Y021600D01*
X024046Y021918D02*
X027780Y021918D01*
X027730Y022237D02*
X023728Y022237D01*
X023409Y022555D02*
X027767Y022555D01*
X029604Y021281D02*
X030419Y021281D01*
X030419Y021600D02*
X029913Y021600D01*
X030060Y021918D02*
X030419Y021918D01*
X030419Y022237D02*
X030110Y022237D01*
X030073Y022555D02*
X030419Y022555D01*
X023666Y017459D02*
X021175Y017459D01*
X021223Y017141D02*
X023617Y017141D01*
X023617Y016822D02*
X021223Y016822D01*
X021223Y016504D02*
X023617Y016504D01*
X013841Y016504D02*
X013472Y016504D01*
X009845Y015867D02*
X009522Y015867D01*
X009522Y016185D02*
X009526Y016185D01*
X004298Y015230D02*
X003980Y015230D01*
X012289Y004719D02*
X012317Y004719D01*
D40*
X012278Y020536D02*
X009916Y020536D01*
X008932Y021520D01*
X008932Y022110D01*
X008920Y022260D01*
X008932Y022307D01*
X010310Y022307D01*
X010420Y022311D01*
X012278Y021914D02*
X012869Y022504D01*
X015034Y022504D01*
X015428Y022110D01*
X015561Y022010D01*
X015625Y022110D01*
X020152Y022110D01*
X020349Y022307D01*
X020412Y022327D01*
X020546Y022307D01*
X022121Y022307D01*
X022121Y021914D01*
X022086Y021760D01*
X022121Y021717D01*
X022121Y020929D01*
X022050Y020800D01*
X022121Y022307D02*
X023105Y022307D01*
X023893Y021520D01*
X023893Y020732D01*
X023920Y020580D01*
X013461Y020510D02*
X013460Y020536D01*
X012278Y020536D01*
X012278Y021914D01*
D41*
X012869Y021717D02*
X013066Y021914D01*
X013460Y021914D01*
X013461Y022010D01*
X011885Y022504D02*
X011491Y022110D01*
X011420Y022095D01*
X014641Y018961D02*
X014838Y019158D01*
X014881Y019166D01*
X015034Y019354D01*
X015625Y019354D01*
X015625Y020536D01*
X015561Y020510D01*
X015625Y020929D02*
X015561Y021010D01*
X015625Y020929D02*
X016806Y020929D01*
X016920Y020925D01*
X017003Y020732D01*
X017003Y020142D01*
X016920Y020095D01*
X017003Y020142D02*
X017790Y020142D01*
X017920Y020095D01*
X017920Y019425D02*
X017790Y019354D01*
X017003Y019354D01*
X016920Y019425D01*
X016806Y019354D01*
X015625Y019354D01*
X014641Y018961D02*
X014641Y016205D01*
X014700Y016205D01*
X014641Y016205D02*
X014641Y015614D01*
X014700Y015614D01*
X014641Y015614D02*
X014641Y015024D01*
X014700Y015024D01*
X014641Y015024D02*
X014641Y014827D01*
X012869Y013055D01*
X012672Y013055D01*
X012672Y010890D01*
X013460Y010103D01*
X013460Y010122D01*
X013656Y009906D01*
X011688Y007937D01*
X011097Y007937D01*
X010920Y007760D01*
X010901Y007740D01*
X010113Y007740D01*
X009920Y007760D01*
X009129Y007937D02*
X007948Y009118D01*
X007802Y009169D01*
X007357Y009709D02*
X007554Y009906D01*
X009326Y009906D01*
X009450Y010010D01*
X009450Y009510D02*
X009523Y009512D01*
X009916Y009512D01*
X010113Y009709D01*
X010113Y010103D02*
X009719Y010496D01*
X008932Y010496D01*
X007357Y012071D01*
X007357Y010299D01*
X006767Y009709D01*
X006767Y009315D01*
X006621Y009169D01*
X006621Y010351D02*
X006570Y010496D01*
X006176Y010890D01*
X006176Y014040D01*
X006570Y014433D01*
X006570Y014827D01*
X006621Y014851D01*
X006621Y013669D02*
X006767Y013646D01*
X006767Y012662D01*
X007357Y012071D01*
X007948Y012071D02*
X009129Y010890D01*
X010113Y010693D02*
X010113Y011677D01*
X009719Y012071D01*
X009450Y012010D01*
X009523Y012071D01*
X009523Y012268D01*
X009719Y012071D01*
X010704Y013055D01*
X010704Y014827D01*
X010786Y014847D01*
X010704Y015024D01*
X010704Y015417D01*
X007948Y018173D01*
X007802Y018169D01*
X007160Y017977D02*
X007160Y018764D01*
X006767Y019158D01*
X006621Y019351D01*
X007802Y019351D02*
X007948Y019158D01*
X008735Y018370D01*
X008920Y018260D01*
X008538Y016599D02*
X007160Y017977D01*
X008538Y016599D02*
X008538Y014630D01*
X009326Y013843D01*
X009326Y013449D01*
X009326Y013055D02*
X008735Y013055D01*
X009326Y013055D02*
X009450Y013010D01*
X009450Y012510D02*
X009523Y012465D01*
X009523Y012268D01*
X010704Y012071D02*
X011294Y012071D01*
X011390Y012010D01*
X011491Y012071D01*
X011491Y011480D01*
X011390Y011510D01*
X011294Y011480D01*
X010704Y010890D01*
X010704Y010496D01*
X011294Y010103D02*
X010113Y010103D01*
X009523Y009512D02*
X009523Y009118D01*
X009450Y009010D01*
X010704Y009512D02*
X011294Y009512D01*
X011390Y009510D01*
X011491Y009118D02*
X011390Y009010D01*
X011491Y008921D01*
X011491Y008528D01*
X011390Y008510D01*
X011491Y009118D02*
X012082Y009118D01*
X011390Y010010D02*
X011491Y010103D01*
X012869Y010103D01*
X013460Y010103D02*
X013656Y009906D01*
X014247Y009315D01*
X014247Y009118D01*
X014444Y009315D01*
X016609Y007150D01*
X016609Y006953D01*
X016755Y006760D01*
X016806Y006756D01*
X017593Y006756D01*
X018775Y005575D01*
X018184Y004984D01*
X017987Y004984D01*
X017987Y004394D01*
X017593Y004394D01*
X017569Y004388D01*
X017593Y004394D02*
X017593Y004591D01*
X017569Y004644D01*
X017987Y004394D02*
X017987Y003606D01*
X018381Y003213D01*
X018381Y001244D01*
X014444Y001244D01*
X013460Y002229D01*
X013066Y002229D01*
X012869Y002032D01*
X012652Y002032D01*
X013263Y001835D02*
X013263Y001244D01*
X013204Y001244D01*
X012338Y001244D01*
X012278Y001244D01*
X013656Y001244D02*
X013715Y001244D01*
X014444Y001244D01*
X014050Y002229D02*
X017790Y002229D01*
X017987Y002425D01*
X017987Y003213D01*
X017790Y003410D01*
X017593Y003410D01*
X017569Y003364D01*
X017593Y003606D02*
X017569Y003620D01*
X017593Y003606D02*
X017987Y003606D01*
X018775Y004394D02*
X019956Y004394D01*
X020940Y003410D01*
X026649Y003410D01*
X027239Y004000D01*
X027416Y004063D01*
X026845Y004000D02*
X026845Y004394D01*
X028617Y006166D01*
X028617Y006756D02*
X029798Y006756D01*
X029995Y006953D01*
X029995Y010693D01*
X029601Y011087D01*
X029511Y011169D01*
X029011Y011087D02*
X029011Y011677D01*
X029404Y012071D01*
X029511Y012169D01*
X029011Y012662D02*
X029404Y013055D01*
X029511Y013169D01*
X029011Y013646D02*
X029404Y014040D01*
X029511Y014169D01*
X029011Y013646D02*
X026649Y013646D01*
X026176Y014260D02*
X026058Y014236D01*
X026058Y012465D01*
X023696Y010103D01*
X023696Y007543D01*
X022908Y006756D01*
X023696Y006953D02*
X024680Y006953D01*
X024802Y007016D01*
X024802Y007516D02*
X024877Y007543D01*
X025467Y007543D01*
X026058Y007543D02*
X026058Y007150D01*
X025897Y007091D01*
X026058Y007543D02*
X026058Y008134D01*
X025897Y008079D01*
X026397Y008079D02*
X026452Y008134D01*
X026452Y007543D01*
X026649Y007543D01*
X026452Y007543D02*
X026452Y007150D01*
X026397Y007091D01*
X026897Y007091D02*
X027042Y007150D01*
X027042Y007543D01*
X027239Y007543D01*
X027042Y007543D02*
X027042Y008134D01*
X026897Y008079D01*
X027830Y007347D02*
X028617Y008134D01*
X028511Y008169D01*
X028511Y007169D02*
X028420Y007150D01*
X027830Y006559D01*
X027042Y006559D01*
X026897Y006579D01*
X026845Y006559D01*
X026452Y006559D01*
X026397Y006579D01*
X026255Y006559D01*
X026058Y006559D01*
X025897Y006579D01*
X026058Y006559D02*
X025074Y005575D01*
X024877Y005575D01*
X024802Y005516D01*
X024680Y005575D01*
X023499Y005575D01*
X021924Y007150D01*
X023302Y008528D01*
X023302Y012071D01*
X022908Y012465D01*
X022800Y012520D01*
X022040Y012260D02*
X021924Y012268D01*
X021727Y012268D01*
X021530Y012465D01*
X021530Y013646D01*
X021723Y013654D01*
X021530Y013646D02*
X020940Y013646D01*
X020920Y013618D01*
X022515Y011480D02*
X022515Y009906D01*
X022121Y009512D01*
X021137Y009512D01*
X021038Y009516D01*
X021038Y010016D02*
X021137Y010103D01*
X022121Y010103D01*
X021038Y010516D02*
X020940Y010496D01*
X020743Y010496D01*
X020349Y010103D01*
X020349Y007543D01*
X019956Y007347D02*
X019956Y016008D01*
X025467Y016008D01*
X026452Y015614D02*
X027042Y015614D01*
X028420Y014236D01*
X028511Y014169D01*
X028511Y013169D02*
X028420Y013055D01*
X025861Y010496D01*
X024877Y010496D01*
X024802Y010516D01*
X024877Y010103D02*
X024802Y010016D01*
X024877Y010103D02*
X025861Y010103D01*
X028420Y012662D01*
X029011Y012662D01*
X028511Y012169D02*
X028420Y012071D01*
X025861Y009512D01*
X024877Y009512D01*
X024802Y009516D01*
X024802Y009016D02*
X024680Y008921D01*
X024090Y008921D01*
X024802Y008516D02*
X024877Y008528D01*
X025271Y008528D01*
X027830Y011087D01*
X028420Y011087D01*
X028511Y011169D01*
X028617Y010693D02*
X029011Y011087D01*
X028617Y010693D02*
X028027Y010693D01*
X026452Y009118D01*
X027042Y009118D02*
X028027Y010103D01*
X028420Y010103D01*
X028511Y010169D01*
X028223Y009709D02*
X029011Y009709D01*
X029404Y010103D01*
X029511Y010169D01*
X028223Y009709D02*
X027633Y009118D01*
X025467Y011087D02*
X026255Y011874D01*
X025271Y012465D02*
X025271Y013252D01*
X024877Y013646D01*
X024723Y013654D01*
X024680Y013646D01*
X023499Y012465D01*
X024040Y012520D02*
X024090Y012465D01*
X024483Y012858D01*
X024800Y012260D02*
X024877Y012268D01*
X025074Y012268D01*
X025271Y012465D01*
X025664Y013646D02*
X025664Y014260D01*
X025664Y014760D02*
X025664Y014827D01*
X026452Y015614D01*
X026649Y014827D02*
X026255Y014827D01*
X026176Y014760D01*
X024448Y016760D02*
X025861Y018173D01*
X026038Y018260D01*
X026649Y018764D02*
X027042Y018370D01*
X027219Y018260D01*
X026649Y018764D02*
X024286Y018764D01*
X023499Y019551D01*
X023499Y019945D01*
X022712Y020732D01*
X022790Y020800D01*
X022712Y020929D01*
X022712Y021717D01*
X022755Y021760D01*
X020546Y019748D02*
X020412Y019878D01*
X020546Y019748D02*
X020546Y016795D01*
X020393Y016760D01*
X019956Y016008D02*
X019168Y016008D01*
X018971Y016205D01*
X018578Y016205D01*
X018570Y016170D01*
X018570Y016420D02*
X018381Y016402D01*
X018381Y018961D01*
X017987Y019354D01*
X017920Y019425D01*
X020546Y019748D02*
X022121Y019748D01*
X022050Y019720D01*
X016270Y016420D02*
X016215Y016402D01*
X015034Y017583D01*
X014247Y016795D02*
X014247Y016205D01*
X014188Y016205D01*
X013125Y016205D01*
X013066Y016205D01*
X013066Y015614D02*
X013125Y015614D01*
X013656Y015614D01*
X014188Y015614D01*
X014247Y015614D01*
X014247Y015024D02*
X014188Y015024D01*
X013125Y015024D01*
X013066Y015024D01*
X015231Y016205D02*
X016215Y016205D01*
X016270Y016170D01*
X012672Y013055D02*
X011491Y013055D01*
X011390Y013010D01*
X011390Y012510D02*
X011491Y012465D01*
X012278Y012465D01*
X013066Y012465D02*
X016215Y012465D01*
X018775Y009906D01*
X018775Y009118D01*
X015428Y009118D01*
X014444Y009315D02*
X015428Y010299D01*
X015444Y010236D01*
X015428Y010693D02*
X015444Y010756D01*
X015625Y010693D01*
X016412Y010693D01*
X016609Y010890D01*
X016609Y011047D01*
X015428Y010693D02*
X014444Y011677D01*
X011390Y010010D02*
X011294Y010103D01*
X014247Y009118D02*
X014247Y006166D01*
X014176Y006154D01*
X013664Y006154D02*
X013656Y006166D01*
X012672Y006166D01*
X012676Y006154D01*
X012672Y005378D02*
X012652Y005378D01*
X012672Y005378D02*
X012869Y005181D01*
X015231Y005181D01*
X015271Y005156D01*
X015231Y005378D02*
X014838Y005378D01*
X014641Y005575D01*
X015231Y005378D02*
X015271Y005412D01*
X015271Y004644D02*
X015231Y004591D01*
X013066Y004591D01*
X012672Y004197D01*
X012652Y004197D01*
X011491Y003213D02*
X011491Y002819D01*
X011688Y002622D01*
X013656Y002622D01*
X014050Y002229D01*
X014838Y002622D02*
X014838Y003213D01*
X015034Y003410D01*
X015231Y003410D01*
X015271Y003364D01*
X015231Y003606D02*
X015271Y003620D01*
X015231Y003606D02*
X014247Y003606D01*
X014247Y003587D01*
X014641Y004197D02*
X014838Y004394D01*
X015231Y004394D01*
X015271Y004388D01*
X017569Y005156D02*
X017593Y005181D01*
X017790Y005181D01*
X017987Y004984D01*
X017987Y005378D02*
X017593Y005378D01*
X017569Y005412D01*
X017987Y005378D02*
X018184Y005575D01*
X018775Y005575D02*
X019759Y006559D01*
X020940Y006559D01*
X021038Y006516D01*
X021137Y006559D01*
X021334Y006559D01*
X021924Y007150D01*
X022318Y006166D02*
X021530Y005378D01*
X021530Y005181D01*
X021334Y004984D01*
X021137Y004984D01*
X021038Y005016D01*
X020940Y004984D01*
X020743Y004984D01*
X020152Y005575D01*
X019365Y005575D01*
X018775Y006166D02*
X018775Y009118D01*
X019956Y007347D02*
X020349Y006953D01*
X022318Y005575D02*
X024286Y003606D01*
X026452Y003606D01*
X026845Y004000D01*
X026649Y004788D02*
X028617Y006756D01*
X027239Y006166D02*
X025074Y004000D01*
X024877Y004000D01*
X024802Y004016D01*
X024802Y004516D02*
X024877Y004591D01*
X025271Y004591D01*
X026649Y005969D01*
X026649Y006166D01*
X026058Y005969D02*
X025074Y004984D01*
X024877Y004984D01*
X024802Y005016D01*
X024680Y007937D02*
X024090Y007937D01*
X024680Y007937D02*
X024802Y008016D01*
X020743Y004394D02*
X020349Y004788D01*
X020743Y004394D02*
X020940Y004394D01*
X021038Y004516D01*
X018991Y001244D02*
X018381Y001244D01*
X011491Y003213D02*
X010113Y004591D01*
X009920Y004760D01*
X009916Y004197D02*
X009326Y004788D01*
X012082Y007543D01*
X012672Y007543D01*
X012857Y007547D01*
X013605Y007547D02*
X013656Y007543D01*
X013853Y007347D01*
X013853Y006756D01*
X009916Y004197D02*
X009920Y004075D01*
X009326Y004788D02*
X007554Y006559D01*
X007554Y007150D01*
X007515Y007248D01*
X007948Y012071D02*
X007948Y013646D01*
X007802Y013669D01*
X008932Y016205D02*
X009046Y016185D01*
X008932Y016205D02*
X008538Y016599D01*
D42*
X009326Y013449D03*
X008735Y013055D03*
X010704Y012071D03*
X012278Y012465D03*
X013066Y012465D03*
X014444Y011677D03*
X012869Y010103D03*
X012082Y009118D03*
X010704Y009512D03*
X010113Y009709D03*
X010704Y010496D03*
X010113Y010693D03*
X009129Y010890D03*
X007357Y009709D03*
X009129Y007937D03*
X013853Y006756D03*
X014641Y005575D03*
X014641Y004197D03*
X014838Y002622D03*
X013263Y001835D03*
X017987Y002425D03*
X018775Y004394D03*
X019365Y005575D03*
X018775Y006166D03*
X018184Y005575D03*
X020349Y004788D03*
X022318Y005575D03*
X022318Y006166D03*
X022908Y006756D03*
X023696Y006953D03*
X024090Y007937D03*
X024090Y008921D03*
X025467Y007543D03*
X026058Y007543D03*
X026649Y007543D03*
X027239Y007543D03*
X027830Y007347D03*
X027239Y006166D03*
X026649Y006166D03*
X026058Y005969D03*
X026649Y004788D03*
X028617Y006166D03*
X027633Y009118D03*
X027042Y009118D03*
X026452Y009118D03*
X025467Y011087D03*
X026255Y011874D03*
X024483Y012858D03*
X023499Y012465D03*
X022515Y011480D03*
X022121Y010103D03*
X020349Y007543D03*
X020349Y006953D03*
X015428Y009118D03*
X013656Y015614D03*
X014247Y016795D03*
X015034Y017583D03*
X015231Y016205D03*
X012869Y021717D03*
X011885Y022504D03*
X025467Y016008D03*
X026649Y014827D03*
X026649Y013646D03*
X025664Y013646D03*
M02*
