G75*
G70*
%OFA0B0*%
%FSLAX24Y24*%
%IPPOS*%
%LPD*%
%AMOC8*
5,1,8,0,0,1.08239X$1,22.5*
%
%ADD10C,0.0000*%
D10*
X003420Y000180D02*
X003420Y023211D01*
X030586Y023211D01*
X030586Y000180D01*
X003420Y000180D01*
X004290Y001680D02*
X004292Y001730D01*
X004298Y001780D01*
X004308Y001829D01*
X004322Y001877D01*
X004339Y001924D01*
X004360Y001969D01*
X004385Y002013D01*
X004413Y002054D01*
X004445Y002093D01*
X004479Y002130D01*
X004516Y002164D01*
X004556Y002194D01*
X004598Y002221D01*
X004642Y002245D01*
X004688Y002266D01*
X004735Y002282D01*
X004783Y002295D01*
X004833Y002304D01*
X004882Y002309D01*
X004933Y002310D01*
X004983Y002307D01*
X005032Y002300D01*
X005081Y002289D01*
X005129Y002274D01*
X005175Y002256D01*
X005220Y002234D01*
X005263Y002208D01*
X005304Y002179D01*
X005343Y002147D01*
X005379Y002112D01*
X005411Y002074D01*
X005441Y002034D01*
X005468Y001991D01*
X005491Y001947D01*
X005510Y001901D01*
X005526Y001853D01*
X005538Y001804D01*
X005546Y001755D01*
X005550Y001705D01*
X005550Y001655D01*
X005546Y001605D01*
X005538Y001556D01*
X005526Y001507D01*
X005510Y001459D01*
X005491Y001413D01*
X005468Y001369D01*
X005441Y001326D01*
X005411Y001286D01*
X005379Y001248D01*
X005343Y001213D01*
X005304Y001181D01*
X005263Y001152D01*
X005220Y001126D01*
X005175Y001104D01*
X005129Y001086D01*
X005081Y001071D01*
X005032Y001060D01*
X004983Y001053D01*
X004933Y001050D01*
X004882Y001051D01*
X004833Y001056D01*
X004783Y001065D01*
X004735Y001078D01*
X004688Y001094D01*
X004642Y001115D01*
X004598Y001139D01*
X004556Y001166D01*
X004516Y001196D01*
X004479Y001230D01*
X004445Y001267D01*
X004413Y001306D01*
X004385Y001347D01*
X004360Y001391D01*
X004339Y001436D01*
X004322Y001483D01*
X004308Y001531D01*
X004298Y001580D01*
X004292Y001630D01*
X004290Y001680D01*
X004329Y009680D02*
X004331Y009728D01*
X004337Y009776D01*
X004347Y009823D01*
X004360Y009869D01*
X004378Y009914D01*
X004398Y009958D01*
X004423Y010000D01*
X004451Y010039D01*
X004481Y010076D01*
X004515Y010110D01*
X004552Y010142D01*
X004590Y010171D01*
X004631Y010196D01*
X004674Y010218D01*
X004719Y010236D01*
X004765Y010250D01*
X004812Y010261D01*
X004860Y010268D01*
X004908Y010271D01*
X004956Y010270D01*
X005004Y010265D01*
X005052Y010256D01*
X005098Y010244D01*
X005143Y010227D01*
X005187Y010207D01*
X005229Y010184D01*
X005269Y010157D01*
X005307Y010127D01*
X005342Y010094D01*
X005374Y010058D01*
X005404Y010020D01*
X005430Y009979D01*
X005452Y009936D01*
X005472Y009892D01*
X005487Y009847D01*
X005499Y009800D01*
X005507Y009752D01*
X005511Y009704D01*
X005511Y009656D01*
X005507Y009608D01*
X005499Y009560D01*
X005487Y009513D01*
X005472Y009468D01*
X005452Y009424D01*
X005430Y009381D01*
X005404Y009340D01*
X005374Y009302D01*
X005342Y009266D01*
X005307Y009233D01*
X005269Y009203D01*
X005229Y009176D01*
X005187Y009153D01*
X005143Y009133D01*
X005098Y009116D01*
X005052Y009104D01*
X005004Y009095D01*
X004956Y009090D01*
X004908Y009089D01*
X004860Y009092D01*
X004812Y009099D01*
X004765Y009110D01*
X004719Y009124D01*
X004674Y009142D01*
X004631Y009164D01*
X004590Y009189D01*
X004552Y009218D01*
X004515Y009250D01*
X004481Y009284D01*
X004451Y009321D01*
X004423Y009360D01*
X004398Y009402D01*
X004378Y009446D01*
X004360Y009491D01*
X004347Y009537D01*
X004337Y009584D01*
X004331Y009632D01*
X004329Y009680D01*
X004329Y014180D02*
X004331Y014228D01*
X004337Y014276D01*
X004347Y014323D01*
X004360Y014369D01*
X004378Y014414D01*
X004398Y014458D01*
X004423Y014500D01*
X004451Y014539D01*
X004481Y014576D01*
X004515Y014610D01*
X004552Y014642D01*
X004590Y014671D01*
X004631Y014696D01*
X004674Y014718D01*
X004719Y014736D01*
X004765Y014750D01*
X004812Y014761D01*
X004860Y014768D01*
X004908Y014771D01*
X004956Y014770D01*
X005004Y014765D01*
X005052Y014756D01*
X005098Y014744D01*
X005143Y014727D01*
X005187Y014707D01*
X005229Y014684D01*
X005269Y014657D01*
X005307Y014627D01*
X005342Y014594D01*
X005374Y014558D01*
X005404Y014520D01*
X005430Y014479D01*
X005452Y014436D01*
X005472Y014392D01*
X005487Y014347D01*
X005499Y014300D01*
X005507Y014252D01*
X005511Y014204D01*
X005511Y014156D01*
X005507Y014108D01*
X005499Y014060D01*
X005487Y014013D01*
X005472Y013968D01*
X005452Y013924D01*
X005430Y013881D01*
X005404Y013840D01*
X005374Y013802D01*
X005342Y013766D01*
X005307Y013733D01*
X005269Y013703D01*
X005229Y013676D01*
X005187Y013653D01*
X005143Y013633D01*
X005098Y013616D01*
X005052Y013604D01*
X005004Y013595D01*
X004956Y013590D01*
X004908Y013589D01*
X004860Y013592D01*
X004812Y013599D01*
X004765Y013610D01*
X004719Y013624D01*
X004674Y013642D01*
X004631Y013664D01*
X004590Y013689D01*
X004552Y013718D01*
X004515Y013750D01*
X004481Y013784D01*
X004451Y013821D01*
X004423Y013860D01*
X004398Y013902D01*
X004378Y013946D01*
X004360Y013991D01*
X004347Y014037D01*
X004337Y014084D01*
X004331Y014132D01*
X004329Y014180D01*
X004329Y018680D02*
X004331Y018728D01*
X004337Y018776D01*
X004347Y018823D01*
X004360Y018869D01*
X004378Y018914D01*
X004398Y018958D01*
X004423Y019000D01*
X004451Y019039D01*
X004481Y019076D01*
X004515Y019110D01*
X004552Y019142D01*
X004590Y019171D01*
X004631Y019196D01*
X004674Y019218D01*
X004719Y019236D01*
X004765Y019250D01*
X004812Y019261D01*
X004860Y019268D01*
X004908Y019271D01*
X004956Y019270D01*
X005004Y019265D01*
X005052Y019256D01*
X005098Y019244D01*
X005143Y019227D01*
X005187Y019207D01*
X005229Y019184D01*
X005269Y019157D01*
X005307Y019127D01*
X005342Y019094D01*
X005374Y019058D01*
X005404Y019020D01*
X005430Y018979D01*
X005452Y018936D01*
X005472Y018892D01*
X005487Y018847D01*
X005499Y018800D01*
X005507Y018752D01*
X005511Y018704D01*
X005511Y018656D01*
X005507Y018608D01*
X005499Y018560D01*
X005487Y018513D01*
X005472Y018468D01*
X005452Y018424D01*
X005430Y018381D01*
X005404Y018340D01*
X005374Y018302D01*
X005342Y018266D01*
X005307Y018233D01*
X005269Y018203D01*
X005229Y018176D01*
X005187Y018153D01*
X005143Y018133D01*
X005098Y018116D01*
X005052Y018104D01*
X005004Y018095D01*
X004956Y018090D01*
X004908Y018089D01*
X004860Y018092D01*
X004812Y018099D01*
X004765Y018110D01*
X004719Y018124D01*
X004674Y018142D01*
X004631Y018164D01*
X004590Y018189D01*
X004552Y018218D01*
X004515Y018250D01*
X004481Y018284D01*
X004451Y018321D01*
X004423Y018360D01*
X004398Y018402D01*
X004378Y018446D01*
X004360Y018491D01*
X004347Y018537D01*
X004337Y018584D01*
X004331Y018632D01*
X004329Y018680D01*
X004290Y022180D02*
X004292Y022230D01*
X004298Y022280D01*
X004308Y022329D01*
X004322Y022377D01*
X004339Y022424D01*
X004360Y022469D01*
X004385Y022513D01*
X004413Y022554D01*
X004445Y022593D01*
X004479Y022630D01*
X004516Y022664D01*
X004556Y022694D01*
X004598Y022721D01*
X004642Y022745D01*
X004688Y022766D01*
X004735Y022782D01*
X004783Y022795D01*
X004833Y022804D01*
X004882Y022809D01*
X004933Y022810D01*
X004983Y022807D01*
X005032Y022800D01*
X005081Y022789D01*
X005129Y022774D01*
X005175Y022756D01*
X005220Y022734D01*
X005263Y022708D01*
X005304Y022679D01*
X005343Y022647D01*
X005379Y022612D01*
X005411Y022574D01*
X005441Y022534D01*
X005468Y022491D01*
X005491Y022447D01*
X005510Y022401D01*
X005526Y022353D01*
X005538Y022304D01*
X005546Y022255D01*
X005550Y022205D01*
X005550Y022155D01*
X005546Y022105D01*
X005538Y022056D01*
X005526Y022007D01*
X005510Y021959D01*
X005491Y021913D01*
X005468Y021869D01*
X005441Y021826D01*
X005411Y021786D01*
X005379Y021748D01*
X005343Y021713D01*
X005304Y021681D01*
X005263Y021652D01*
X005220Y021626D01*
X005175Y021604D01*
X005129Y021586D01*
X005081Y021571D01*
X005032Y021560D01*
X004983Y021553D01*
X004933Y021550D01*
X004882Y021551D01*
X004833Y021556D01*
X004783Y021565D01*
X004735Y021578D01*
X004688Y021594D01*
X004642Y021615D01*
X004598Y021639D01*
X004556Y021666D01*
X004516Y021696D01*
X004479Y021730D01*
X004445Y021767D01*
X004413Y021806D01*
X004385Y021847D01*
X004360Y021891D01*
X004339Y021936D01*
X004322Y021983D01*
X004308Y022031D01*
X004298Y022080D01*
X004292Y022130D01*
X004290Y022180D01*
X028290Y022180D02*
X028292Y022230D01*
X028298Y022280D01*
X028308Y022329D01*
X028322Y022377D01*
X028339Y022424D01*
X028360Y022469D01*
X028385Y022513D01*
X028413Y022554D01*
X028445Y022593D01*
X028479Y022630D01*
X028516Y022664D01*
X028556Y022694D01*
X028598Y022721D01*
X028642Y022745D01*
X028688Y022766D01*
X028735Y022782D01*
X028783Y022795D01*
X028833Y022804D01*
X028882Y022809D01*
X028933Y022810D01*
X028983Y022807D01*
X029032Y022800D01*
X029081Y022789D01*
X029129Y022774D01*
X029175Y022756D01*
X029220Y022734D01*
X029263Y022708D01*
X029304Y022679D01*
X029343Y022647D01*
X029379Y022612D01*
X029411Y022574D01*
X029441Y022534D01*
X029468Y022491D01*
X029491Y022447D01*
X029510Y022401D01*
X029526Y022353D01*
X029538Y022304D01*
X029546Y022255D01*
X029550Y022205D01*
X029550Y022155D01*
X029546Y022105D01*
X029538Y022056D01*
X029526Y022007D01*
X029510Y021959D01*
X029491Y021913D01*
X029468Y021869D01*
X029441Y021826D01*
X029411Y021786D01*
X029379Y021748D01*
X029343Y021713D01*
X029304Y021681D01*
X029263Y021652D01*
X029220Y021626D01*
X029175Y021604D01*
X029129Y021586D01*
X029081Y021571D01*
X029032Y021560D01*
X028983Y021553D01*
X028933Y021550D01*
X028882Y021551D01*
X028833Y021556D01*
X028783Y021565D01*
X028735Y021578D01*
X028688Y021594D01*
X028642Y021615D01*
X028598Y021639D01*
X028556Y021666D01*
X028516Y021696D01*
X028479Y021730D01*
X028445Y021767D01*
X028413Y021806D01*
X028385Y021847D01*
X028360Y021891D01*
X028339Y021936D01*
X028322Y021983D01*
X028308Y022031D01*
X028298Y022080D01*
X028292Y022130D01*
X028290Y022180D01*
X028329Y018180D02*
X028331Y018228D01*
X028337Y018276D01*
X028347Y018323D01*
X028360Y018369D01*
X028378Y018414D01*
X028398Y018458D01*
X028423Y018500D01*
X028451Y018539D01*
X028481Y018576D01*
X028515Y018610D01*
X028552Y018642D01*
X028590Y018671D01*
X028631Y018696D01*
X028674Y018718D01*
X028719Y018736D01*
X028765Y018750D01*
X028812Y018761D01*
X028860Y018768D01*
X028908Y018771D01*
X028956Y018770D01*
X029004Y018765D01*
X029052Y018756D01*
X029098Y018744D01*
X029143Y018727D01*
X029187Y018707D01*
X029229Y018684D01*
X029269Y018657D01*
X029307Y018627D01*
X029342Y018594D01*
X029374Y018558D01*
X029404Y018520D01*
X029430Y018479D01*
X029452Y018436D01*
X029472Y018392D01*
X029487Y018347D01*
X029499Y018300D01*
X029507Y018252D01*
X029511Y018204D01*
X029511Y018156D01*
X029507Y018108D01*
X029499Y018060D01*
X029487Y018013D01*
X029472Y017968D01*
X029452Y017924D01*
X029430Y017881D01*
X029404Y017840D01*
X029374Y017802D01*
X029342Y017766D01*
X029307Y017733D01*
X029269Y017703D01*
X029229Y017676D01*
X029187Y017653D01*
X029143Y017633D01*
X029098Y017616D01*
X029052Y017604D01*
X029004Y017595D01*
X028956Y017590D01*
X028908Y017589D01*
X028860Y017592D01*
X028812Y017599D01*
X028765Y017610D01*
X028719Y017624D01*
X028674Y017642D01*
X028631Y017664D01*
X028590Y017689D01*
X028552Y017718D01*
X028515Y017750D01*
X028481Y017784D01*
X028451Y017821D01*
X028423Y017860D01*
X028398Y017902D01*
X028378Y017946D01*
X028360Y017991D01*
X028347Y018037D01*
X028337Y018084D01*
X028331Y018132D01*
X028329Y018180D01*
X028526Y003983D02*
X028528Y004031D01*
X028534Y004079D01*
X028544Y004126D01*
X028557Y004172D01*
X028575Y004217D01*
X028595Y004261D01*
X028620Y004303D01*
X028648Y004342D01*
X028678Y004379D01*
X028712Y004413D01*
X028749Y004445D01*
X028787Y004474D01*
X028828Y004499D01*
X028871Y004521D01*
X028916Y004539D01*
X028962Y004553D01*
X029009Y004564D01*
X029057Y004571D01*
X029105Y004574D01*
X029153Y004573D01*
X029201Y004568D01*
X029249Y004559D01*
X029295Y004547D01*
X029340Y004530D01*
X029384Y004510D01*
X029426Y004487D01*
X029466Y004460D01*
X029504Y004430D01*
X029539Y004397D01*
X029571Y004361D01*
X029601Y004323D01*
X029627Y004282D01*
X029649Y004239D01*
X029669Y004195D01*
X029684Y004150D01*
X029696Y004103D01*
X029704Y004055D01*
X029708Y004007D01*
X029708Y003959D01*
X029704Y003911D01*
X029696Y003863D01*
X029684Y003816D01*
X029669Y003771D01*
X029649Y003727D01*
X029627Y003684D01*
X029601Y003643D01*
X029571Y003605D01*
X029539Y003569D01*
X029504Y003536D01*
X029466Y003506D01*
X029426Y003479D01*
X029384Y003456D01*
X029340Y003436D01*
X029295Y003419D01*
X029249Y003407D01*
X029201Y003398D01*
X029153Y003393D01*
X029105Y003392D01*
X029057Y003395D01*
X029009Y003402D01*
X028962Y003413D01*
X028916Y003427D01*
X028871Y003445D01*
X028828Y003467D01*
X028787Y003492D01*
X028749Y003521D01*
X028712Y003553D01*
X028678Y003587D01*
X028648Y003624D01*
X028620Y003663D01*
X028595Y003705D01*
X028575Y003749D01*
X028557Y003794D01*
X028544Y003840D01*
X028534Y003887D01*
X028528Y003935D01*
X028526Y003983D01*
X028790Y001680D02*
X028792Y001730D01*
X028798Y001780D01*
X028808Y001829D01*
X028822Y001877D01*
X028839Y001924D01*
X028860Y001969D01*
X028885Y002013D01*
X028913Y002054D01*
X028945Y002093D01*
X028979Y002130D01*
X029016Y002164D01*
X029056Y002194D01*
X029098Y002221D01*
X029142Y002245D01*
X029188Y002266D01*
X029235Y002282D01*
X029283Y002295D01*
X029333Y002304D01*
X029382Y002309D01*
X029433Y002310D01*
X029483Y002307D01*
X029532Y002300D01*
X029581Y002289D01*
X029629Y002274D01*
X029675Y002256D01*
X029720Y002234D01*
X029763Y002208D01*
X029804Y002179D01*
X029843Y002147D01*
X029879Y002112D01*
X029911Y002074D01*
X029941Y002034D01*
X029968Y001991D01*
X029991Y001947D01*
X030010Y001901D01*
X030026Y001853D01*
X030038Y001804D01*
X030046Y001755D01*
X030050Y001705D01*
X030050Y001655D01*
X030046Y001605D01*
X030038Y001556D01*
X030026Y001507D01*
X030010Y001459D01*
X029991Y001413D01*
X029968Y001369D01*
X029941Y001326D01*
X029911Y001286D01*
X029879Y001248D01*
X029843Y001213D01*
X029804Y001181D01*
X029763Y001152D01*
X029720Y001126D01*
X029675Y001104D01*
X029629Y001086D01*
X029581Y001071D01*
X029532Y001060D01*
X029483Y001053D01*
X029433Y001050D01*
X029382Y001051D01*
X029333Y001056D01*
X029283Y001065D01*
X029235Y001078D01*
X029188Y001094D01*
X029142Y001115D01*
X029098Y001139D01*
X029056Y001166D01*
X029016Y001196D01*
X028979Y001230D01*
X028945Y001267D01*
X028913Y001306D01*
X028885Y001347D01*
X028860Y001391D01*
X028839Y001436D01*
X028822Y001483D01*
X028808Y001531D01*
X028798Y001580D01*
X028792Y001630D01*
X028790Y001680D01*
M02*
