%
M48
M72
T01C0.0240
T02C0.0315
T03C0.0320
T04C0.0360
T05C0.0402
T06C0.0440
T07C0.1181
T08C0.1260
%
T01
X9479Y6400
X11158Y6731
X12082Y5507
X10865Y4884
X11369Y4299
X11796Y3704
X13209Y3750
X13649Y3150
X14149Y4250
X13529Y4850
X15375Y4383
X15624Y5095
X15555Y5804
X16170Y6859
X20723Y10287
X21115Y9972
X23801Y11308
X21828Y12783
X24939Y14009
X24931Y14568
X21121Y20255
X16975Y15710
X15448Y14647
X12929Y15806
X12882Y16775
X12813Y18548
X8182Y16804
X8252Y10356
X8252Y8436
X10177Y2221
X12137Y2279
X18282Y3174
X22219Y6838
X24013Y5895
X24479Y6196
X24479Y7647
T02
X6636Y3575
X3605Y3359
X2305Y5150
X4825Y6193
X5376Y7138
T03
X9979Y9650
X9979Y11150
X12979Y11150
X12979Y9650
X19479Y13650
X22479Y13650
T04
X26479Y13650
X27479Y13650
X27479Y12650
X26479Y12650
X26479Y11650
X27479Y11650
X27479Y10650
X27479Y9650
X27479Y8650
X26479Y8650
X26479Y9650
X26479Y10650
X26479Y7650
X27479Y7650
X27479Y14650
X26479Y14650
T05
X25528Y19650
X24347Y19650
X5610Y19241
X4429Y19241
X4429Y18059
X5610Y18059
X5610Y14741
X4429Y14741
X4429Y13559
X5610Y13559
X5610Y10241
X4429Y10241
X4429Y9059
X5610Y9059
X24097Y3900
X25278Y3900
T06
X6729Y18150
X6729Y22150
T07
X2729Y18650
X2729Y14150
X2729Y9650
X26979Y3900
X27229Y19650
T08
X2438Y1456
X27622Y1356
X27516Y21953
X2435Y22053
M30
