G75*
G70*
%OFA0B0*%
%FSLAX24Y24*%
%IPPOS*%
%LPD*%
%AMOC8*
5,1,8,0,0,1.08239X$1,22.5*
%
%ADD10OC8,0.0520*%
%ADD11C,0.0515*%
%ADD12R,0.0602X0.0602*%
%ADD13C,0.0602*%
%ADD14C,0.0660*%
%ADD15C,0.0560*%
%ADD16OC8,0.0560*%
%ADD17R,0.0396X0.0396*%
%ADD18C,0.0320*%
%ADD19C,0.0100*%
%ADD20C,0.0400*%
D10*
X009920Y004760D03*
X010920Y004760D03*
X010920Y007760D03*
X009920Y007760D03*
X021723Y013654D03*
X024723Y013654D03*
D11*
X008775Y003943D02*
X008775Y003428D01*
X006001Y003469D02*
X005486Y003469D01*
X004444Y005003D02*
X004444Y005517D01*
X006706Y006303D02*
X007221Y006303D01*
X007257Y007248D02*
X007772Y007248D01*
D12*
X006621Y009169D03*
X006621Y013669D03*
X006621Y018169D03*
D13*
X007802Y018169D03*
X007802Y019351D03*
X006621Y019351D03*
X006621Y014851D03*
X007802Y014851D03*
X007802Y013669D03*
X007802Y010351D03*
X006621Y010351D03*
X007802Y009169D03*
X026235Y004063D03*
X027416Y004063D03*
X027219Y018260D03*
X026038Y018260D03*
D14*
X008920Y018260D03*
X008920Y022260D03*
D15*
X029511Y007169D03*
D16*
X028511Y007169D03*
X028511Y008169D03*
X029511Y008169D03*
X029511Y009169D03*
X028511Y009169D03*
X028511Y010169D03*
X029511Y010169D03*
X029511Y011169D03*
X028511Y011169D03*
X028511Y012169D03*
X029511Y012169D03*
X029511Y013169D03*
X028511Y013169D03*
X028511Y014169D03*
X029511Y014169D03*
D17*
X017987Y009709D03*
X015034Y006953D03*
X014050Y010103D03*
X014641Y013252D03*
D18*
X003980Y004773D02*
X003980Y002503D01*
X004190Y002712D01*
X004461Y002869D01*
X004764Y002950D01*
X005077Y002950D01*
X005380Y002869D01*
X005651Y002712D01*
X005872Y002491D01*
X006029Y002219D01*
X006110Y001917D01*
X006110Y001603D01*
X006029Y001301D01*
X005872Y001029D01*
X005663Y000820D01*
X028677Y000820D01*
X028468Y001029D01*
X028311Y001301D01*
X028230Y001603D01*
X028230Y001917D01*
X028311Y002219D01*
X028468Y002491D01*
X028690Y002712D01*
X028961Y002869D01*
X029124Y002913D01*
X028966Y002913D01*
X028673Y002991D01*
X028411Y003142D01*
X028196Y003357D01*
X028045Y003619D01*
X027967Y003912D01*
X027967Y004215D01*
X028045Y004507D01*
X028196Y004770D01*
X028411Y004984D01*
X028673Y005135D01*
X028966Y005214D01*
X029269Y005214D01*
X029561Y005135D01*
X029824Y004984D01*
X030038Y004770D01*
X030189Y004507D01*
X030268Y004215D01*
X030268Y003912D01*
X030189Y003619D01*
X030038Y003357D01*
X029824Y003142D01*
X029561Y002991D01*
X029408Y002950D01*
X029577Y002950D01*
X029880Y002869D01*
X030151Y002712D01*
X030372Y002491D01*
X030419Y002409D01*
X030419Y022731D01*
X030022Y022731D01*
X030029Y022719D01*
X030110Y022417D01*
X030110Y022103D01*
X030029Y021801D01*
X029872Y021529D01*
X029651Y021308D01*
X029380Y021151D01*
X029077Y021070D01*
X028764Y021070D01*
X028461Y021151D01*
X028190Y021308D01*
X027968Y021529D01*
X027811Y021801D01*
X027730Y022103D01*
X027730Y022417D01*
X027811Y022719D01*
X027818Y022731D01*
X012267Y022731D01*
X012325Y022592D01*
X012325Y022474D01*
X012683Y022116D01*
X012782Y022157D01*
X012957Y022157D01*
X013118Y022090D01*
X013242Y021966D01*
X013309Y021804D01*
X013309Y021629D01*
X013242Y021467D01*
X013118Y021344D01*
X012957Y021277D01*
X012782Y021277D01*
X012620Y021344D01*
X012496Y021467D01*
X012485Y021494D01*
X012426Y021552D01*
X011915Y022064D01*
X011797Y022064D01*
X011636Y022131D01*
X011512Y022255D01*
X011445Y022417D01*
X011445Y022592D01*
X011503Y022731D01*
X009255Y022731D01*
X009403Y022583D01*
X009490Y022373D01*
X009490Y022147D01*
X009403Y021937D01*
X009243Y021777D01*
X009034Y021690D01*
X008807Y021690D01*
X008597Y021777D01*
X008437Y021937D01*
X008350Y022147D01*
X008350Y022373D01*
X008437Y022583D01*
X008586Y022731D01*
X006022Y022731D01*
X006029Y022719D01*
X006110Y022417D01*
X006110Y022103D01*
X006029Y021801D01*
X005872Y021529D01*
X005651Y021308D01*
X005380Y021151D01*
X005077Y021070D01*
X004764Y021070D01*
X004461Y021151D01*
X004190Y021308D01*
X003980Y021517D01*
X003980Y019433D01*
X004000Y019466D01*
X004214Y019681D01*
X004476Y019832D01*
X004769Y019911D01*
X005072Y019911D01*
X005364Y019832D01*
X005627Y019681D01*
X005841Y019466D01*
X005992Y019204D01*
X006071Y018911D01*
X006071Y018609D01*
X005992Y018316D01*
X005841Y018054D01*
X005627Y017839D01*
X005364Y017688D01*
X005072Y017609D01*
X004769Y017609D01*
X004476Y017688D01*
X004214Y017839D01*
X004000Y018054D01*
X003980Y018087D01*
X003980Y014933D01*
X004000Y014966D01*
X004214Y015181D01*
X004476Y015332D01*
X004769Y015411D01*
X005072Y015411D01*
X005364Y015332D01*
X005627Y015181D01*
X005841Y014966D01*
X005992Y014704D01*
X006071Y014411D01*
X006071Y014109D01*
X005992Y013816D01*
X005841Y013554D01*
X005627Y013339D01*
X005364Y013188D01*
X005072Y013109D01*
X004769Y013109D01*
X004476Y013188D01*
X004214Y013339D01*
X004000Y013554D01*
X003980Y013587D01*
X003980Y010433D01*
X004000Y010466D01*
X004214Y010681D01*
X004476Y010832D01*
X004769Y010911D01*
X005072Y010911D01*
X005364Y010832D01*
X005627Y010681D01*
X005841Y010466D01*
X005992Y010204D01*
X006071Y009911D01*
X006071Y009609D01*
X005992Y009316D01*
X005841Y009054D01*
X005627Y008839D01*
X005364Y008688D01*
X005072Y008609D01*
X004769Y008609D01*
X004476Y008688D01*
X004214Y008839D01*
X004000Y009054D01*
X003980Y009087D01*
X003980Y005747D01*
X004001Y005789D01*
X004049Y005855D01*
X004107Y005912D01*
X004173Y005960D01*
X004245Y005997D01*
X004323Y006022D01*
X004403Y006035D01*
X004444Y006035D01*
X004444Y005260D01*
X004961Y005260D01*
X004444Y005260D01*
X004444Y005260D01*
X004444Y005260D01*
X004444Y004485D01*
X004485Y004485D01*
X004565Y004498D01*
X004642Y004523D01*
X004715Y004560D01*
X004781Y004608D01*
X004839Y004665D01*
X004886Y004731D01*
X004923Y004804D01*
X004949Y004881D01*
X004961Y004962D01*
X004961Y005260D01*
X004961Y005558D01*
X004949Y005639D01*
X004923Y005716D01*
X004886Y005789D01*
X004839Y005855D01*
X004781Y005912D01*
X004715Y005960D01*
X004642Y005997D01*
X004565Y006022D01*
X004485Y006035D01*
X004444Y006035D01*
X004444Y005260D01*
X004444Y005260D01*
X004444Y004485D01*
X004403Y004485D01*
X004323Y004498D01*
X004245Y004523D01*
X004173Y004560D01*
X004107Y004608D01*
X004049Y004665D01*
X004001Y004731D01*
X003980Y004773D01*
X003980Y004719D02*
X004010Y004719D01*
X003980Y004401D02*
X008580Y004401D01*
X008493Y004364D02*
X008353Y004224D01*
X008277Y004042D01*
X008277Y003329D01*
X008353Y003146D01*
X008493Y003006D01*
X008676Y002930D01*
X008873Y002930D01*
X009056Y003006D01*
X009196Y003146D01*
X009272Y003329D01*
X009272Y004042D01*
X009196Y004224D01*
X009056Y004364D01*
X008873Y004440D01*
X008676Y004440D01*
X008493Y004364D01*
X008294Y004082D02*
X003980Y004082D01*
X003980Y003764D02*
X005077Y003764D01*
X005064Y003750D02*
X004988Y003568D01*
X004988Y003370D01*
X005064Y003187D01*
X005204Y003047D01*
X005387Y002971D01*
X006099Y002971D01*
X006282Y003047D01*
X006422Y003187D01*
X006498Y003370D01*
X006498Y003568D01*
X006422Y003750D01*
X006282Y003890D01*
X006099Y003966D01*
X005387Y003966D01*
X005204Y003890D01*
X005064Y003750D01*
X004988Y003445D02*
X003980Y003445D01*
X003980Y003127D02*
X005124Y003127D01*
X005485Y002808D02*
X014438Y002808D01*
X014465Y002871D02*
X014398Y002710D01*
X014398Y002592D01*
X013930Y002125D01*
X013595Y002125D01*
X013512Y002208D01*
X013350Y002275D01*
X013175Y002275D01*
X013013Y002208D01*
X012890Y002084D01*
X012823Y001922D01*
X012823Y001747D01*
X012890Y001586D01*
X013013Y001462D01*
X013175Y001395D01*
X013350Y001395D01*
X013512Y001462D01*
X013595Y001545D01*
X014108Y001545D01*
X014214Y001589D01*
X014296Y001671D01*
X014808Y002182D01*
X014925Y002182D01*
X015087Y002249D01*
X015211Y002373D01*
X015278Y002535D01*
X015278Y002710D01*
X015211Y002871D01*
X015087Y002995D01*
X014925Y003062D01*
X014750Y003062D01*
X014588Y002995D01*
X014465Y002871D01*
X014295Y002490D02*
X005873Y002490D01*
X006042Y002171D02*
X012977Y002171D01*
X012823Y001853D02*
X006110Y001853D01*
X006092Y001534D02*
X012941Y001534D01*
X013584Y001534D02*
X028249Y001534D01*
X028230Y001853D02*
X014478Y001853D01*
X014796Y002171D02*
X017619Y002171D01*
X017614Y002176D02*
X017738Y002052D01*
X017900Y001985D01*
X018075Y001985D01*
X018236Y002052D01*
X018360Y002176D01*
X018427Y002338D01*
X018427Y002455D01*
X020319Y004348D01*
X020437Y004348D01*
X020599Y004415D01*
X020722Y004538D01*
X020789Y004700D01*
X020789Y004875D01*
X020722Y005037D01*
X020639Y005120D01*
X020639Y006621D01*
X020722Y006704D01*
X020739Y006744D01*
X021878Y005605D01*
X021878Y005487D01*
X021945Y005326D01*
X022069Y005202D01*
X022230Y005135D01*
X022405Y005135D01*
X022567Y005202D01*
X022691Y005326D01*
X022758Y005487D01*
X022758Y005662D01*
X022691Y005824D01*
X022645Y005870D01*
X022691Y005916D01*
X022758Y006078D01*
X022758Y006195D01*
X022879Y006316D01*
X022996Y006316D01*
X023158Y006383D01*
X023281Y006507D01*
X023348Y006669D01*
X023348Y006678D01*
X023447Y006580D01*
X023608Y006513D01*
X023783Y006513D01*
X023945Y006580D01*
X024069Y006704D01*
X024136Y006865D01*
X024136Y006890D01*
X026209Y004817D01*
X026209Y004700D01*
X026248Y004604D01*
X026128Y004604D01*
X025929Y004522D01*
X025776Y004370D01*
X025694Y004171D01*
X025694Y003956D01*
X025776Y003757D01*
X025929Y003604D01*
X026128Y003522D01*
X026343Y003522D01*
X026542Y003604D01*
X026694Y003757D01*
X026776Y003956D01*
X026776Y004171D01*
X026703Y004348D01*
X026736Y004348D01*
X026898Y004415D01*
X027022Y004538D01*
X027089Y004700D01*
X027089Y004875D01*
X027022Y005037D01*
X026898Y005161D01*
X026736Y005228D01*
X026619Y005228D01*
X026267Y005579D01*
X026307Y005596D01*
X026431Y005719D01*
X026452Y005771D01*
X026561Y005726D01*
X026736Y005726D01*
X026898Y005792D01*
X026944Y005839D01*
X026990Y005792D01*
X027152Y005726D01*
X027327Y005726D01*
X027488Y005792D01*
X027612Y005916D01*
X027679Y006078D01*
X027679Y006253D01*
X027612Y006415D01*
X027529Y006498D01*
X027529Y007025D01*
X027540Y007014D01*
X027540Y006895D01*
X027584Y006789D01*
X027665Y006707D01*
X028177Y006195D01*
X028177Y006078D01*
X028244Y005916D01*
X028368Y005792D01*
X028530Y005726D01*
X028705Y005726D01*
X028866Y005792D01*
X028990Y005916D01*
X029057Y006078D01*
X029057Y006253D01*
X028990Y006415D01*
X028866Y006539D01*
X028705Y006606D01*
X028587Y006606D01*
X028543Y006649D01*
X028726Y006649D01*
X029020Y006943D01*
X029049Y006886D01*
X029099Y006818D01*
X029159Y006758D01*
X029228Y006708D01*
X029303Y006669D01*
X029384Y006643D01*
X029468Y006629D01*
X029511Y006629D01*
X029553Y006629D01*
X029637Y006643D01*
X029718Y006669D01*
X029794Y006708D01*
X029863Y006758D01*
X029923Y006818D01*
X029973Y006886D01*
X030011Y006962D01*
X030037Y007043D01*
X030051Y007127D01*
X030051Y007169D01*
X029511Y007169D01*
X029511Y006629D01*
X029511Y007169D01*
X029511Y007169D01*
X029511Y007169D01*
X030051Y007169D01*
X030051Y007212D01*
X030037Y007296D01*
X030011Y007377D01*
X029973Y007452D01*
X029923Y007521D01*
X029863Y007581D01*
X029794Y007631D01*
X029737Y007660D01*
X030031Y007954D01*
X030031Y008385D01*
X029746Y008669D01*
X030031Y008954D01*
X030031Y009385D01*
X029746Y009669D01*
X030031Y009954D01*
X030031Y010385D01*
X029746Y010669D01*
X030031Y010954D01*
X030031Y011385D01*
X029746Y011669D01*
X030031Y011954D01*
X030031Y012385D01*
X029746Y012669D01*
X030031Y012954D01*
X030031Y013385D01*
X029746Y013669D01*
X030031Y013954D01*
X030031Y014385D01*
X029726Y014689D01*
X029295Y014689D01*
X029011Y014405D01*
X028726Y014689D01*
X028295Y014689D01*
X027991Y014385D01*
X027991Y013954D01*
X028275Y013669D01*
X027991Y013385D01*
X027991Y012954D01*
X028275Y012669D01*
X027991Y012385D01*
X027991Y011954D01*
X028275Y011669D01*
X027991Y011385D01*
X027991Y010954D01*
X028275Y010669D01*
X027991Y010385D01*
X027991Y010155D01*
X026574Y011571D01*
X026628Y011625D01*
X026695Y011787D01*
X026695Y011962D01*
X026628Y012123D01*
X026504Y012247D01*
X026342Y012314D01*
X026167Y012314D01*
X026006Y012247D01*
X025882Y012123D01*
X025815Y011962D01*
X025815Y011937D01*
X024923Y012829D01*
X024923Y012946D01*
X024856Y013108D01*
X024810Y013154D01*
X024930Y013154D01*
X025223Y013447D01*
X025223Y013861D01*
X024930Y014154D01*
X024516Y014154D01*
X024223Y013861D01*
X024223Y013447D01*
X024379Y013291D01*
X024234Y013231D01*
X024110Y013108D01*
X024043Y012946D01*
X024043Y012771D01*
X024110Y012609D01*
X024234Y012485D01*
X024396Y012418D01*
X024513Y012418D01*
X025405Y011527D01*
X025380Y011527D01*
X025218Y011460D01*
X025094Y011336D01*
X025027Y011174D01*
X025027Y011057D01*
X024363Y010393D01*
X022453Y010393D01*
X022370Y010476D01*
X022209Y010543D01*
X022033Y010543D01*
X021872Y010476D01*
X021748Y010352D01*
X021681Y010190D01*
X021681Y010015D01*
X021748Y009853D01*
X021872Y009730D01*
X022033Y009663D01*
X022209Y009663D01*
X022370Y009730D01*
X022453Y009813D01*
X024426Y009813D01*
X024541Y009813D01*
X024647Y009857D01*
X025438Y010647D01*
X025555Y010647D01*
X025717Y010714D01*
X025840Y010838D01*
X025907Y010999D01*
X025907Y011024D01*
X027130Y009802D01*
X024032Y009802D01*
X023925Y009758D01*
X023844Y009676D01*
X023450Y009283D01*
X023406Y009176D01*
X023406Y007285D01*
X023323Y007202D01*
X023256Y007040D01*
X023256Y007031D01*
X023158Y007129D01*
X022996Y007196D01*
X022821Y007196D01*
X022659Y007129D01*
X022535Y007005D01*
X022468Y006844D01*
X022468Y006726D01*
X022348Y006606D01*
X022230Y006606D01*
X022069Y006539D01*
X021945Y006415D01*
X021928Y006375D01*
X020789Y007514D01*
X020789Y007631D01*
X020722Y007793D01*
X020599Y007916D01*
X020437Y007983D01*
X020262Y007983D01*
X020100Y007916D01*
X019976Y007793D01*
X019909Y007631D01*
X019909Y007456D01*
X019976Y007294D01*
X020022Y007248D01*
X019976Y007202D01*
X019909Y007040D01*
X019909Y006865D01*
X019976Y006704D01*
X020059Y006621D01*
X020059Y005120D01*
X019976Y005037D01*
X019909Y004875D01*
X019909Y004758D01*
X018017Y002865D01*
X017900Y002865D01*
X017738Y002798D01*
X017614Y002675D01*
X017547Y002513D01*
X017547Y002338D01*
X017614Y002176D01*
X017547Y002490D02*
X015259Y002490D01*
X015237Y002808D02*
X017761Y002808D01*
X018278Y003127D02*
X009177Y003127D01*
X009272Y003445D02*
X018597Y003445D01*
X018915Y003764D02*
X014744Y003764D01*
X014728Y003757D02*
X014890Y003824D01*
X015014Y003948D01*
X015081Y004109D01*
X015081Y004285D01*
X015014Y004446D01*
X014931Y004529D01*
X014931Y005042D01*
X014887Y005149D01*
X014850Y005185D01*
X014890Y005202D01*
X014973Y005285D01*
X017473Y005285D01*
X018335Y004424D01*
X018335Y004306D01*
X018402Y004145D01*
X018525Y004021D01*
X018687Y003954D01*
X018862Y003954D01*
X019024Y004021D01*
X019148Y004145D01*
X019215Y004306D01*
X019215Y004481D01*
X019148Y004643D01*
X019024Y004767D01*
X018862Y004834D01*
X018745Y004834D01*
X018393Y005185D01*
X018433Y005202D01*
X018516Y005285D01*
X019033Y005285D01*
X019116Y005202D01*
X019278Y005135D01*
X019453Y005135D01*
X019614Y005202D01*
X019738Y005326D01*
X019805Y005487D01*
X019805Y005662D01*
X019738Y005824D01*
X019614Y005948D01*
X019453Y006015D01*
X019278Y006015D01*
X019170Y005970D01*
X019215Y006078D01*
X019215Y006253D01*
X019148Y006415D01*
X019024Y006539D01*
X018862Y006606D01*
X018687Y006606D01*
X018525Y006539D01*
X018402Y006415D01*
X018335Y006253D01*
X018335Y006078D01*
X018379Y005970D01*
X018272Y006015D01*
X018096Y006015D01*
X017935Y005948D01*
X017811Y005824D01*
X017794Y005784D01*
X017758Y005821D01*
X017651Y005865D01*
X014973Y005865D01*
X014890Y005948D01*
X014728Y006015D01*
X014553Y006015D01*
X014391Y005948D01*
X014268Y005824D01*
X014251Y005784D01*
X014143Y005892D01*
X014143Y006424D01*
X014226Y006507D01*
X014293Y006669D01*
X014293Y006844D01*
X014226Y007005D01*
X014103Y007129D01*
X013941Y007196D01*
X013916Y007196D01*
X015398Y008678D01*
X015516Y008678D01*
X015677Y008745D01*
X015801Y008869D01*
X015868Y009031D01*
X015868Y009206D01*
X015801Y009368D01*
X015677Y009491D01*
X015516Y009558D01*
X015341Y009558D01*
X015179Y009491D01*
X015055Y009368D01*
X014988Y009206D01*
X014988Y009088D01*
X011144Y005244D01*
X011127Y005260D01*
X010713Y005260D01*
X010420Y004967D01*
X010127Y005260D01*
X010051Y005260D01*
X009025Y006286D01*
X009025Y007504D01*
X009041Y007497D01*
X009216Y007497D01*
X009378Y007564D01*
X009420Y007606D01*
X009420Y007553D01*
X009713Y007260D01*
X010127Y007260D01*
X010420Y007553D01*
X010420Y007967D01*
X010127Y008260D01*
X009862Y008260D01*
X010277Y008676D01*
X010359Y008757D01*
X010674Y009072D01*
X010791Y009072D01*
X010953Y009139D01*
X011077Y009263D01*
X011144Y009424D01*
X011144Y009599D01*
X011111Y009679D01*
X011642Y009148D01*
X011642Y009031D01*
X011709Y008869D01*
X011832Y008745D01*
X011994Y008678D01*
X012169Y008678D01*
X012331Y008745D01*
X012455Y008869D01*
X012522Y009031D01*
X012522Y009206D01*
X012455Y009368D01*
X012331Y009491D01*
X012169Y009558D01*
X012052Y009558D01*
X011144Y010466D01*
X011144Y010584D01*
X011077Y010745D01*
X010953Y010869D01*
X010791Y010936D01*
X010616Y010936D01*
X010507Y010891D01*
X010486Y010942D01*
X010362Y011066D01*
X010201Y011133D01*
X010026Y011133D01*
X009864Y011066D01*
X009740Y010942D01*
X009673Y010781D01*
X009673Y010606D01*
X009740Y010444D01*
X009823Y010361D01*
X009823Y010041D01*
X009740Y009958D01*
X009673Y009796D01*
X009673Y009772D01*
X009419Y010026D01*
X009419Y010558D01*
X009502Y010641D01*
X009569Y010802D01*
X009569Y010977D01*
X009502Y011139D01*
X009378Y011263D01*
X009216Y011330D01*
X009041Y011330D01*
X009025Y011323D01*
X009025Y012723D01*
X009108Y012806D01*
X009175Y012968D01*
X009175Y013035D01*
X009238Y013009D01*
X009356Y013009D01*
X010264Y012101D01*
X010264Y011984D01*
X010331Y011822D01*
X010454Y011698D01*
X010616Y011631D01*
X010791Y011631D01*
X010953Y011698D01*
X011077Y011822D01*
X011144Y011984D01*
X011144Y012159D01*
X011077Y012320D01*
X010953Y012444D01*
X010791Y012511D01*
X010674Y012511D01*
X009766Y013419D01*
X009766Y013536D01*
X009699Y013698D01*
X009575Y013822D01*
X009413Y013889D01*
X009238Y013889D01*
X009076Y013822D01*
X008953Y013698D01*
X008886Y013536D01*
X008886Y013469D01*
X008823Y013495D01*
X008648Y013495D01*
X008486Y013428D01*
X008362Y013305D01*
X008295Y013143D01*
X008295Y012968D01*
X008362Y012806D01*
X008445Y012723D01*
X008445Y006108D01*
X008489Y006001D01*
X009472Y005019D01*
X009420Y004967D01*
X009420Y004553D01*
X009713Y004260D01*
X010127Y004260D01*
X010420Y004553D01*
X010420Y004967D01*
X010420Y004553D01*
X010713Y004260D01*
X011127Y004260D01*
X011420Y004553D01*
X011420Y004700D01*
X013413Y006693D01*
X013413Y006669D01*
X013480Y006507D01*
X013563Y006424D01*
X013563Y005714D01*
X013607Y005608D01*
X014351Y004864D01*
X014351Y004529D01*
X014268Y004446D01*
X014201Y004285D01*
X014201Y004109D01*
X014268Y003948D01*
X014391Y003824D01*
X014553Y003757D01*
X014728Y003757D01*
X014537Y003764D02*
X009272Y003764D01*
X009255Y004082D02*
X014212Y004082D01*
X014249Y004401D02*
X011268Y004401D01*
X011439Y004719D02*
X014351Y004719D01*
X014177Y005038D02*
X011757Y005038D01*
X012076Y005356D02*
X013859Y005356D01*
X013580Y005675D02*
X012394Y005675D01*
X012713Y005993D02*
X013563Y005993D01*
X013563Y006312D02*
X013031Y006312D01*
X013350Y006630D02*
X013429Y006630D01*
X012848Y006949D02*
X009025Y006949D01*
X009025Y007267D02*
X009706Y007267D01*
X010134Y007267D02*
X010706Y007267D01*
X010713Y007260D02*
X011127Y007260D01*
X011420Y007553D01*
X011420Y007967D01*
X011127Y008260D01*
X010713Y008260D01*
X010420Y007967D01*
X010420Y007553D01*
X010713Y007260D01*
X011134Y007267D02*
X013167Y007267D01*
X013485Y007586D02*
X011420Y007586D01*
X011420Y007904D02*
X013804Y007904D01*
X014122Y008223D02*
X011165Y008223D01*
X010676Y008223D02*
X010165Y008223D01*
X010420Y007904D02*
X010420Y007904D01*
X010420Y007586D02*
X010420Y007586D01*
X009420Y007586D02*
X009399Y007586D01*
X008445Y007586D02*
X008138Y007586D01*
X008194Y007530D02*
X008054Y007670D01*
X007871Y007746D01*
X007158Y007746D01*
X006975Y007670D01*
X006835Y007530D01*
X006760Y007347D01*
X006760Y007149D01*
X006835Y006966D01*
X006975Y006826D01*
X007037Y006801D01*
X006607Y006801D01*
X006424Y006725D01*
X006284Y006585D01*
X006209Y006402D01*
X006209Y006204D01*
X006284Y006022D01*
X006424Y005882D01*
X006607Y005806D01*
X007320Y005806D01*
X007503Y005882D01*
X007643Y006022D01*
X007718Y006204D01*
X007718Y006402D01*
X007643Y006585D01*
X007503Y006725D01*
X007441Y006751D01*
X007871Y006751D01*
X008054Y006826D01*
X008194Y006966D01*
X008270Y007149D01*
X008270Y007347D01*
X008194Y007530D01*
X008270Y007267D02*
X008445Y007267D01*
X008445Y006949D02*
X008176Y006949D01*
X008445Y006630D02*
X007598Y006630D01*
X007718Y006312D02*
X008445Y006312D01*
X008498Y005993D02*
X007614Y005993D01*
X006853Y006949D02*
X003980Y006949D01*
X003980Y007267D02*
X006760Y007267D01*
X006891Y007586D02*
X003980Y007586D01*
X003980Y007904D02*
X008445Y007904D01*
X008445Y008223D02*
X003980Y008223D01*
X003980Y008541D02*
X008445Y008541D01*
X008445Y008860D02*
X008258Y008860D01*
X008261Y008863D02*
X008343Y009062D01*
X008343Y009277D01*
X008261Y009476D01*
X008109Y009628D01*
X007910Y009711D01*
X007797Y009711D01*
X007797Y009789D01*
X007802Y009789D01*
X007802Y010351D01*
X007802Y010912D01*
X007758Y010912D01*
X007671Y010898D01*
X007587Y010871D01*
X007508Y010831D01*
X007437Y010779D01*
X007374Y010716D01*
X007322Y010645D01*
X007282Y010566D01*
X007255Y010482D01*
X007241Y010395D01*
X007241Y010351D01*
X007802Y010351D01*
X007802Y010351D01*
X007802Y010912D01*
X007846Y010912D01*
X007934Y010898D01*
X008018Y010871D01*
X008096Y010831D01*
X008168Y010779D01*
X008230Y010716D01*
X008282Y010645D01*
X008322Y010566D01*
X008349Y010482D01*
X008363Y010395D01*
X008363Y010351D01*
X007802Y010351D01*
X007802Y010351D01*
X007802Y010351D01*
X007241Y010351D01*
X007241Y010306D01*
X007254Y010222D01*
X007162Y010314D01*
X007162Y010458D01*
X007080Y010657D01*
X006928Y010809D01*
X006729Y010892D01*
X006513Y010892D01*
X006314Y010809D01*
X006162Y010657D01*
X006080Y010458D01*
X006080Y010243D01*
X006162Y010044D01*
X006314Y009892D01*
X006513Y009809D01*
X006729Y009809D01*
X006812Y009844D01*
X006917Y009739D01*
X006917Y009711D01*
X006272Y009711D01*
X006184Y009674D01*
X006116Y009607D01*
X006080Y009518D01*
X006080Y008821D01*
X006116Y008732D01*
X006184Y008665D01*
X006272Y008628D01*
X006970Y008628D01*
X007058Y008665D01*
X007126Y008732D01*
X007162Y008821D01*
X007162Y009313D01*
X007261Y009272D01*
X007261Y009062D01*
X007343Y008863D01*
X007496Y008711D01*
X007694Y008628D01*
X007910Y008628D01*
X008109Y008711D01*
X008261Y008863D01*
X008343Y009178D02*
X008445Y009178D01*
X008445Y009497D02*
X008240Y009497D01*
X008445Y009815D02*
X007970Y009815D01*
X007934Y009803D02*
X008018Y009830D01*
X008096Y009871D01*
X008168Y009923D01*
X008230Y009985D01*
X008282Y010056D01*
X008322Y010135D01*
X008349Y010219D01*
X008363Y010306D01*
X008363Y010351D01*
X007802Y010351D01*
X007802Y010351D01*
X007802Y009789D01*
X007846Y009789D01*
X007934Y009803D01*
X007802Y009815D02*
X007802Y009815D01*
X007802Y010134D02*
X007802Y010134D01*
X007802Y010452D02*
X007802Y010452D01*
X007802Y010771D02*
X007802Y010771D01*
X007428Y010771D02*
X006966Y010771D01*
X007162Y010452D02*
X007250Y010452D01*
X006841Y009815D02*
X006742Y009815D01*
X006500Y009815D02*
X006071Y009815D01*
X006080Y009497D02*
X006041Y009497D01*
X006080Y009178D02*
X005913Y009178D01*
X006080Y008860D02*
X005647Y008860D01*
X007162Y008860D02*
X007347Y008860D01*
X007261Y009178D02*
X007162Y009178D01*
X006125Y010134D02*
X006011Y010134D01*
X006080Y010452D02*
X005849Y010452D01*
X005471Y010771D02*
X006276Y010771D01*
X008176Y010771D02*
X008445Y010771D01*
X008445Y010452D02*
X008354Y010452D01*
X008321Y010134D02*
X008445Y010134D01*
X009419Y010134D02*
X009823Y010134D01*
X009737Y010452D02*
X009419Y010452D01*
X009556Y010771D02*
X009673Y010771D01*
X009523Y011089D02*
X009919Y011089D01*
X010307Y011089D02*
X013445Y011089D01*
X013764Y011408D02*
X009025Y011408D01*
X009025Y011726D02*
X010426Y011726D01*
X010264Y012045D02*
X009025Y012045D01*
X009025Y012363D02*
X010002Y012363D01*
X010503Y012682D02*
X011892Y012682D01*
X011905Y012714D02*
X011838Y012552D01*
X011838Y012377D01*
X011905Y012215D01*
X012029Y012092D01*
X012191Y012025D01*
X012366Y012025D01*
X012528Y012092D01*
X012611Y012175D01*
X012734Y012175D01*
X012817Y012092D01*
X012978Y012025D01*
X013153Y012025D01*
X013315Y012092D01*
X013439Y012215D01*
X013506Y012377D01*
X013506Y012552D01*
X013439Y012714D01*
X013315Y012838D01*
X013153Y012905D01*
X012978Y012905D01*
X012817Y012838D01*
X012734Y012755D01*
X012611Y012755D01*
X012528Y012838D01*
X012366Y012905D01*
X012191Y012905D01*
X012029Y012838D01*
X011905Y012714D01*
X011844Y012363D02*
X011034Y012363D01*
X011144Y012045D02*
X012143Y012045D01*
X012414Y012045D02*
X012931Y012045D01*
X013201Y012045D02*
X014189Y012045D01*
X014195Y012050D02*
X014071Y011927D01*
X014004Y011765D01*
X014004Y011647D01*
X012899Y010543D01*
X012782Y010543D01*
X012620Y010476D01*
X012496Y010352D01*
X012429Y010190D01*
X012429Y010015D01*
X012496Y009853D01*
X012620Y009730D01*
X012782Y009663D01*
X012957Y009663D01*
X013118Y009730D01*
X013242Y009853D01*
X013309Y010015D01*
X013309Y010132D01*
X014414Y011237D01*
X014531Y011237D01*
X014693Y011304D01*
X014817Y011428D01*
X014884Y011590D01*
X014884Y011765D01*
X014817Y011927D01*
X014693Y012050D01*
X014531Y012117D01*
X014356Y012117D01*
X014195Y012050D01*
X014004Y011726D02*
X010981Y011726D01*
X011052Y010771D02*
X013127Y010771D01*
X013629Y010452D02*
X021848Y010452D01*
X021681Y010134D02*
X013310Y010134D01*
X013204Y009815D02*
X021786Y009815D01*
X022394Y010452D02*
X024423Y010452D01*
X024741Y010771D02*
X013947Y010771D01*
X014266Y011089D02*
X022310Y011089D01*
X022265Y011107D02*
X022427Y011040D01*
X022602Y011040D01*
X022764Y011107D01*
X022888Y011231D01*
X022955Y011393D01*
X022955Y011510D01*
X023469Y012025D01*
X023586Y012025D01*
X023748Y012092D01*
X023872Y012215D01*
X023939Y012377D01*
X023939Y012552D01*
X023872Y012714D01*
X023748Y012838D01*
X023586Y012905D01*
X023411Y012905D01*
X023250Y012838D01*
X023126Y012714D01*
X023059Y012552D01*
X023059Y012435D01*
X022545Y011920D01*
X022427Y011920D01*
X022265Y011853D01*
X022142Y011730D01*
X022075Y011568D01*
X022075Y011393D01*
X022142Y011231D01*
X022265Y011107D01*
X022075Y011408D02*
X014796Y011408D01*
X014884Y011726D02*
X022140Y011726D01*
X022669Y012045D02*
X014699Y012045D01*
X013500Y012363D02*
X022987Y012363D01*
X023112Y012682D02*
X013452Y012682D01*
X012596Y010452D02*
X011158Y010452D01*
X011477Y010134D02*
X012429Y010134D01*
X012534Y009815D02*
X011795Y009815D01*
X011293Y009497D02*
X011144Y009497D01*
X010992Y009178D02*
X011612Y009178D01*
X011718Y008860D02*
X010461Y008860D01*
X010143Y008541D02*
X014441Y008541D01*
X014759Y008860D02*
X012445Y008860D01*
X012522Y009178D02*
X014988Y009178D01*
X015191Y009497D02*
X012318Y009497D01*
X014624Y007904D02*
X020088Y007904D01*
X019909Y007586D02*
X014305Y007586D01*
X013987Y007267D02*
X020004Y007267D01*
X019909Y006949D02*
X014250Y006949D01*
X014277Y006630D02*
X020050Y006630D01*
X020059Y006312D02*
X019190Y006312D01*
X019179Y005993D02*
X019225Y005993D01*
X019506Y005993D02*
X020059Y005993D01*
X020059Y005675D02*
X019800Y005675D01*
X019751Y005356D02*
X020059Y005356D01*
X019977Y005038D02*
X018541Y005038D01*
X018039Y004719D02*
X014931Y004719D01*
X014931Y005038D02*
X017721Y005038D01*
X018335Y004401D02*
X015033Y004401D01*
X015069Y004082D02*
X018464Y004082D01*
X019085Y004082D02*
X019234Y004082D01*
X019215Y004401D02*
X019552Y004401D01*
X019871Y004719D02*
X019072Y004719D01*
X020054Y004082D02*
X025694Y004082D01*
X025807Y004401D02*
X020565Y004401D01*
X020789Y004719D02*
X026209Y004719D01*
X025988Y005038D02*
X020722Y005038D01*
X020639Y005356D02*
X021932Y005356D01*
X021808Y005675D02*
X020639Y005675D01*
X020639Y005993D02*
X021490Y005993D01*
X021171Y006312D02*
X020639Y006312D01*
X020649Y006630D02*
X020853Y006630D01*
X021354Y006949D02*
X022512Y006949D01*
X022372Y006630D02*
X021673Y006630D01*
X021036Y007267D02*
X023388Y007267D01*
X023406Y007586D02*
X020789Y007586D01*
X020611Y007904D02*
X023406Y007904D01*
X023406Y008223D02*
X014942Y008223D01*
X015261Y008541D02*
X023406Y008541D01*
X023406Y008860D02*
X015792Y008860D01*
X015868Y009178D02*
X023407Y009178D01*
X023664Y009497D02*
X015665Y009497D01*
X012530Y006630D02*
X009025Y006630D01*
X009025Y006312D02*
X012211Y006312D01*
X011893Y005993D02*
X009318Y005993D01*
X009636Y005675D02*
X011574Y005675D01*
X011256Y005356D02*
X009955Y005356D01*
X009453Y005038D02*
X004961Y005038D01*
X004961Y005356D02*
X009135Y005356D01*
X008816Y005675D02*
X004937Y005675D01*
X004650Y005993D02*
X006313Y005993D01*
X006209Y006312D02*
X003980Y006312D01*
X003980Y005993D02*
X004237Y005993D01*
X004444Y005993D02*
X004444Y005993D01*
X004444Y005675D02*
X004444Y005675D01*
X004444Y005356D02*
X004444Y005356D01*
X004444Y005038D02*
X004444Y005038D01*
X004444Y004719D02*
X004444Y004719D01*
X004877Y004719D02*
X009420Y004719D01*
X009573Y004401D02*
X008969Y004401D01*
X008277Y003764D02*
X006409Y003764D01*
X006498Y003445D02*
X008277Y003445D01*
X008372Y003127D02*
X006362Y003127D01*
X004356Y002808D02*
X003980Y002808D01*
X005980Y001216D02*
X028361Y001216D01*
X028600Y000897D02*
X005740Y000897D01*
X010268Y004401D02*
X010573Y004401D01*
X010420Y004719D02*
X010420Y004719D01*
X010350Y005038D02*
X010491Y005038D01*
X014143Y005993D02*
X014500Y005993D01*
X014781Y005993D02*
X018043Y005993D01*
X018325Y005993D02*
X018370Y005993D01*
X018359Y006312D02*
X014143Y006312D01*
X009681Y009815D02*
X009630Y009815D01*
X008445Y011089D02*
X003980Y011089D01*
X003980Y011408D02*
X008445Y011408D01*
X008445Y011726D02*
X003980Y011726D01*
X003980Y012045D02*
X008445Y012045D01*
X008445Y012363D02*
X003980Y012363D01*
X003980Y012682D02*
X008445Y012682D01*
X009025Y012682D02*
X009683Y012682D01*
X009365Y013000D02*
X009175Y013000D01*
X008927Y013637D02*
X008343Y013637D01*
X008343Y013562D02*
X008261Y013363D01*
X008109Y013211D01*
X007910Y013128D01*
X007694Y013128D01*
X007496Y013211D01*
X007343Y013363D01*
X007261Y013562D01*
X007261Y013777D01*
X007343Y013976D01*
X007496Y014128D01*
X007694Y014211D01*
X007910Y014211D01*
X008109Y014128D01*
X008261Y013976D01*
X008343Y013777D01*
X008343Y013562D01*
X008376Y013319D02*
X008217Y013319D01*
X008295Y013000D02*
X003980Y013000D01*
X003980Y013319D02*
X004250Y013319D01*
X005591Y013319D02*
X006081Y013319D01*
X006080Y013321D02*
X006116Y013232D01*
X006184Y013165D01*
X006272Y013128D01*
X006970Y013128D01*
X007058Y013165D01*
X007126Y013232D01*
X007162Y013321D01*
X007162Y014018D01*
X007126Y014107D01*
X007058Y014174D01*
X006970Y014211D01*
X006272Y014211D01*
X006184Y014174D01*
X006116Y014107D01*
X006080Y014018D01*
X006080Y013321D01*
X006080Y013637D02*
X005889Y013637D01*
X006030Y013956D02*
X006080Y013956D01*
X006071Y014274D02*
X027991Y014274D01*
X027991Y013956D02*
X026961Y013956D01*
X027022Y013895D02*
X026898Y014019D01*
X026736Y014086D01*
X026561Y014086D01*
X026399Y014019D01*
X026316Y013936D01*
X025997Y013936D01*
X025914Y014019D01*
X025752Y014086D01*
X025577Y014086D01*
X025415Y014019D01*
X025291Y013895D01*
X025224Y013733D01*
X025224Y013558D01*
X025291Y013397D01*
X025415Y013273D01*
X025577Y013206D01*
X025752Y013206D01*
X025914Y013273D01*
X025997Y013356D01*
X026316Y013356D01*
X026399Y013273D01*
X026561Y013206D01*
X026736Y013206D01*
X026898Y013273D01*
X027022Y013397D01*
X027089Y013558D01*
X027089Y013733D01*
X027022Y013895D01*
X027089Y013637D02*
X028243Y013637D01*
X027991Y013319D02*
X026943Y013319D01*
X026354Y013319D02*
X025959Y013319D01*
X025369Y013319D02*
X025095Y013319D01*
X025223Y013637D02*
X025224Y013637D01*
X025129Y013956D02*
X025352Y013956D01*
X025977Y013956D02*
X026336Y013956D01*
X026561Y014387D02*
X026399Y014454D01*
X026276Y014578D01*
X026209Y014739D01*
X026209Y014857D01*
X025497Y015568D01*
X025380Y015568D01*
X025218Y015635D01*
X025094Y015759D01*
X025027Y015921D01*
X025027Y016096D01*
X025094Y016257D01*
X025218Y016381D01*
X025380Y016448D01*
X025555Y016448D01*
X025717Y016381D01*
X025840Y016257D01*
X025907Y016096D01*
X025907Y015978D01*
X026619Y015267D01*
X026736Y015267D01*
X026898Y015200D01*
X027022Y015076D01*
X027089Y014914D01*
X027089Y014739D01*
X027022Y014578D01*
X026898Y014454D01*
X026736Y014387D01*
X026561Y014387D01*
X026269Y014593D02*
X008300Y014593D01*
X008282Y014556D02*
X008322Y014635D01*
X008349Y014719D01*
X008363Y014806D01*
X008363Y014851D01*
X008363Y014895D01*
X008349Y014982D01*
X008322Y015066D01*
X008282Y015145D01*
X008230Y015216D01*
X008168Y015279D01*
X008096Y015331D01*
X008018Y015371D01*
X007934Y015398D01*
X007846Y015412D01*
X007802Y015412D01*
X007758Y015412D01*
X007671Y015398D01*
X007587Y015371D01*
X007508Y015331D01*
X007437Y015279D01*
X007374Y015216D01*
X007322Y015145D01*
X007282Y015066D01*
X007255Y014982D01*
X007241Y014895D01*
X007241Y014851D01*
X007802Y014851D01*
X007802Y015412D01*
X007802Y014851D01*
X007802Y014851D01*
X007802Y014851D01*
X008363Y014851D01*
X007802Y014851D01*
X007802Y014851D01*
X007241Y014851D01*
X007241Y014806D01*
X007255Y014719D01*
X007282Y014635D01*
X007322Y014556D01*
X007374Y014485D01*
X007437Y014423D01*
X007508Y014371D01*
X007587Y014330D01*
X007671Y014303D01*
X007758Y014289D01*
X007802Y014289D01*
X007802Y014851D01*
X007802Y014851D01*
X007802Y014289D01*
X007846Y014289D01*
X007934Y014303D01*
X008018Y014330D01*
X008096Y014371D01*
X008168Y014423D01*
X008230Y014485D01*
X008282Y014556D01*
X008361Y014911D02*
X026154Y014911D01*
X025836Y015230D02*
X013877Y015230D01*
X013906Y015241D02*
X013989Y015324D01*
X014698Y015324D01*
X014805Y015368D01*
X014887Y015450D01*
X015201Y015765D01*
X015319Y015765D01*
X015480Y015832D01*
X015604Y015956D01*
X015671Y016117D01*
X015671Y016292D01*
X015604Y016454D01*
X015480Y016578D01*
X015319Y016645D01*
X015144Y016645D01*
X014982Y016578D01*
X014858Y016454D01*
X014791Y016292D01*
X014791Y016175D01*
X014521Y015904D01*
X013989Y015904D01*
X013906Y015987D01*
X013744Y016054D01*
X013569Y016054D01*
X013407Y015987D01*
X013283Y015864D01*
X013216Y015702D01*
X013216Y015527D01*
X013283Y015365D01*
X013407Y015241D01*
X013569Y015174D01*
X013744Y015174D01*
X013906Y015241D01*
X013436Y015230D02*
X008217Y015230D01*
X007802Y015230D02*
X007802Y015230D01*
X007802Y014911D02*
X007802Y014911D01*
X007387Y015230D02*
X007007Y015230D01*
X007080Y015157D02*
X006928Y015309D01*
X006729Y015392D01*
X006513Y015392D01*
X006314Y015309D01*
X006162Y015157D01*
X006080Y014958D01*
X006080Y014743D01*
X006162Y014544D01*
X006314Y014392D01*
X006513Y014309D01*
X006729Y014309D01*
X006928Y014392D01*
X007080Y014544D01*
X007162Y014743D01*
X007162Y014958D01*
X007080Y015157D01*
X007162Y014911D02*
X007243Y014911D01*
X007304Y014593D02*
X007100Y014593D01*
X007162Y013956D02*
X007335Y013956D01*
X007261Y013637D02*
X007162Y013637D01*
X007161Y013319D02*
X007388Y013319D01*
X008269Y013956D02*
X021318Y013956D01*
X021223Y013861D02*
X021223Y013447D01*
X021516Y013154D01*
X021930Y013154D01*
X022223Y013447D01*
X022223Y013861D01*
X021930Y014154D01*
X021516Y014154D01*
X021223Y013861D01*
X021223Y013637D02*
X009724Y013637D01*
X009866Y013319D02*
X021351Y013319D01*
X022095Y013319D02*
X024351Y013319D01*
X024223Y013637D02*
X022223Y013637D01*
X022129Y013956D02*
X024318Y013956D01*
X024066Y013000D02*
X010185Y013000D01*
X007802Y014593D02*
X007802Y014593D01*
X006142Y014593D02*
X006022Y014593D01*
X006080Y014911D02*
X005873Y014911D01*
X005542Y015230D02*
X006235Y015230D01*
X004298Y015230D02*
X003980Y015230D01*
X003980Y015548D02*
X013216Y015548D01*
X013286Y015867D02*
X003980Y015867D01*
X003980Y016185D02*
X014791Y016185D01*
X014496Y016422D02*
X014620Y016546D01*
X014687Y016708D01*
X014687Y016825D01*
X015005Y017143D01*
X015122Y017143D01*
X015284Y017210D01*
X015407Y017334D01*
X015474Y017495D01*
X015474Y017670D01*
X015407Y017832D01*
X015284Y017956D01*
X015122Y018023D01*
X014947Y018023D01*
X014785Y017956D01*
X014661Y017832D01*
X014594Y017670D01*
X014594Y017553D01*
X014277Y017235D01*
X014159Y017235D01*
X013998Y017168D01*
X013874Y017045D01*
X013807Y016883D01*
X013807Y016708D01*
X013874Y016546D01*
X013998Y016422D01*
X014159Y016355D01*
X014335Y016355D01*
X014496Y016422D01*
X014577Y016504D02*
X014908Y016504D01*
X014687Y016822D02*
X030419Y016822D01*
X030419Y016504D02*
X015555Y016504D01*
X015671Y016185D02*
X025065Y016185D01*
X025050Y015867D02*
X015515Y015867D01*
X014984Y015548D02*
X025517Y015548D01*
X026019Y015867D02*
X030419Y015867D01*
X030419Y016185D02*
X025870Y016185D01*
X026338Y015548D02*
X030419Y015548D01*
X030419Y015230D02*
X026826Y015230D01*
X027089Y014911D02*
X030419Y014911D01*
X030419Y014593D02*
X029823Y014593D01*
X030031Y014274D02*
X030419Y014274D01*
X030419Y013956D02*
X030031Y013956D01*
X029779Y013637D02*
X030419Y013637D01*
X030419Y013319D02*
X030031Y013319D01*
X030031Y013000D02*
X030419Y013000D01*
X030419Y012682D02*
X029758Y012682D01*
X030031Y012363D02*
X030419Y012363D01*
X030419Y012045D02*
X030031Y012045D01*
X029803Y011726D02*
X030419Y011726D01*
X030419Y011408D02*
X030008Y011408D01*
X030031Y011089D02*
X030419Y011089D01*
X030419Y010771D02*
X029847Y010771D01*
X029964Y010452D02*
X030419Y010452D01*
X030419Y010134D02*
X030031Y010134D01*
X029892Y009815D02*
X030419Y009815D01*
X030419Y009497D02*
X029919Y009497D01*
X030031Y009178D02*
X030419Y009178D01*
X030419Y008860D02*
X029936Y008860D01*
X029875Y008541D02*
X030419Y008541D01*
X030419Y008223D02*
X030031Y008223D01*
X029981Y007904D02*
X030419Y007904D01*
X030419Y007586D02*
X029857Y007586D01*
X030042Y007267D02*
X030419Y007267D01*
X030419Y006949D02*
X030004Y006949D01*
X030419Y006630D02*
X029557Y006630D01*
X029511Y006630D02*
X029511Y006630D01*
X029465Y006630D02*
X028563Y006630D01*
X029033Y006312D02*
X030419Y006312D01*
X030419Y005993D02*
X029022Y005993D01*
X028212Y005993D02*
X027644Y005993D01*
X027655Y006312D02*
X028061Y006312D01*
X027742Y006630D02*
X027529Y006630D01*
X027529Y006949D02*
X027540Y006949D01*
X026386Y005675D02*
X030419Y005675D01*
X030419Y005356D02*
X026490Y005356D01*
X027021Y005038D02*
X028504Y005038D01*
X028167Y004719D02*
X027089Y004719D01*
X027110Y004522D02*
X026957Y004370D01*
X026875Y004171D01*
X026875Y003956D01*
X026957Y003757D01*
X027110Y003604D01*
X027309Y003522D01*
X027524Y003522D01*
X027723Y003604D01*
X027875Y003757D01*
X027957Y003956D01*
X027957Y004171D01*
X027875Y004370D01*
X027723Y004522D01*
X027524Y004604D01*
X027309Y004604D01*
X027110Y004522D01*
X026988Y004401D02*
X026864Y004401D01*
X026875Y004082D02*
X026776Y004082D01*
X026697Y003764D02*
X026955Y003764D01*
X027878Y003764D02*
X028006Y003764D01*
X028145Y003445D02*
X019417Y003445D01*
X019735Y003764D02*
X025774Y003764D01*
X025670Y005356D02*
X022703Y005356D01*
X022753Y005675D02*
X025351Y005675D01*
X025033Y005993D02*
X022723Y005993D01*
X022874Y006312D02*
X024714Y006312D01*
X024396Y006630D02*
X023995Y006630D01*
X023396Y006630D02*
X023332Y006630D01*
X024547Y009815D02*
X027116Y009815D01*
X026798Y010134D02*
X024924Y010134D01*
X025243Y010452D02*
X026479Y010452D01*
X026161Y010771D02*
X025773Y010771D01*
X025027Y011089D02*
X022719Y011089D01*
X022955Y011408D02*
X025166Y011408D01*
X025205Y011726D02*
X023170Y011726D01*
X023634Y012045D02*
X024887Y012045D01*
X024568Y012363D02*
X023933Y012363D01*
X023885Y012682D02*
X024080Y012682D01*
X024901Y013000D02*
X027991Y013000D01*
X028263Y012682D02*
X025070Y012682D01*
X025389Y012363D02*
X027991Y012363D01*
X027991Y012045D02*
X026661Y012045D01*
X026670Y011726D02*
X028219Y011726D01*
X028013Y011408D02*
X026738Y011408D01*
X027056Y011089D02*
X027991Y011089D01*
X028174Y010771D02*
X027375Y010771D01*
X027693Y010452D02*
X028058Y010452D01*
X025849Y012045D02*
X025707Y012045D01*
X027028Y014593D02*
X028198Y014593D01*
X028823Y014593D02*
X029198Y014593D01*
X029072Y017109D02*
X028769Y017109D01*
X028476Y017188D01*
X028214Y017339D01*
X028000Y017554D01*
X027848Y017816D01*
X027770Y018109D01*
X027770Y018411D01*
X027848Y018704D01*
X028000Y018966D01*
X028214Y019181D01*
X028476Y019332D01*
X028769Y019411D01*
X029072Y019411D01*
X029364Y019332D01*
X029627Y019181D01*
X029841Y018966D01*
X029992Y018704D01*
X030071Y018411D01*
X030071Y018109D01*
X029992Y017816D01*
X029841Y017554D01*
X029627Y017339D01*
X029364Y017188D01*
X029072Y017109D01*
X029188Y017141D02*
X030419Y017141D01*
X030419Y017459D02*
X029746Y017459D01*
X029970Y017778D02*
X030419Y017778D01*
X030419Y018096D02*
X030067Y018096D01*
X030070Y018415D02*
X030419Y018415D01*
X030419Y018733D02*
X029976Y018733D01*
X029756Y019052D02*
X030419Y019052D01*
X030419Y019370D02*
X029223Y019370D01*
X028617Y019370D02*
X008343Y019370D01*
X008343Y019458D02*
X008261Y019657D01*
X008109Y019809D01*
X007910Y019892D01*
X007694Y019892D01*
X007496Y019809D01*
X007343Y019657D01*
X007261Y019458D01*
X007261Y019243D01*
X007343Y019044D01*
X007496Y018892D01*
X007694Y018809D01*
X007910Y018809D01*
X008109Y018892D01*
X008261Y019044D01*
X008343Y019243D01*
X008343Y019458D01*
X008229Y019689D02*
X030419Y019689D01*
X030419Y020007D02*
X003980Y020007D01*
X003980Y019689D02*
X004227Y019689D01*
X003980Y020326D02*
X030419Y020326D01*
X030419Y020644D02*
X003980Y020644D01*
X003980Y020963D02*
X030419Y020963D01*
X030419Y021281D02*
X029604Y021281D01*
X029913Y021600D02*
X030419Y021600D01*
X030419Y021918D02*
X030060Y021918D01*
X030110Y022237D02*
X030419Y022237D01*
X030419Y022555D02*
X030073Y022555D01*
X028236Y021281D02*
X012967Y021281D01*
X012771Y021281D02*
X005604Y021281D01*
X005913Y021600D02*
X012379Y021600D01*
X012061Y021918D02*
X009384Y021918D01*
X009490Y022237D02*
X011530Y022237D01*
X011445Y022555D02*
X009415Y022555D01*
X008456Y021918D02*
X006060Y021918D01*
X006110Y022237D02*
X008350Y022237D01*
X008425Y022555D02*
X006073Y022555D01*
X004236Y021281D02*
X003980Y021281D01*
X005613Y019689D02*
X006194Y019689D01*
X006162Y019657D02*
X006080Y019458D01*
X006080Y019243D01*
X006162Y019044D01*
X006314Y018892D01*
X006513Y018809D01*
X006729Y018809D01*
X006928Y018892D01*
X007080Y019044D01*
X007162Y019243D01*
X007162Y019458D01*
X007080Y019657D01*
X006928Y019809D01*
X006729Y019892D01*
X006513Y019892D01*
X006314Y019809D01*
X006162Y019657D01*
X006080Y019370D02*
X005897Y019370D01*
X006033Y019052D02*
X006159Y019052D01*
X006071Y018733D02*
X008587Y018733D01*
X008597Y018743D02*
X008437Y018583D01*
X008350Y018373D01*
X008350Y018147D01*
X008437Y017937D01*
X008597Y017777D01*
X008807Y017690D01*
X009034Y017690D01*
X009243Y017777D01*
X009403Y017937D01*
X009490Y018147D01*
X009490Y018373D01*
X009403Y018583D01*
X009243Y018743D01*
X009034Y018830D01*
X008807Y018830D01*
X008597Y018743D01*
X008367Y018415D02*
X008286Y018415D01*
X008261Y018476D02*
X008109Y018628D01*
X007910Y018711D01*
X007694Y018711D01*
X007496Y018628D01*
X007343Y018476D01*
X007261Y018277D01*
X007261Y018062D01*
X007343Y017863D01*
X007496Y017711D01*
X007694Y017628D01*
X007910Y017628D01*
X008109Y017711D01*
X008261Y017863D01*
X008343Y018062D01*
X008343Y018277D01*
X008261Y018476D01*
X008343Y018096D02*
X008371Y018096D01*
X008176Y017778D02*
X008597Y017778D01*
X009244Y017778D02*
X014639Y017778D01*
X014500Y017459D02*
X003980Y017459D01*
X003980Y017778D02*
X004321Y017778D01*
X003980Y017141D02*
X013970Y017141D01*
X013807Y016822D02*
X003980Y016822D01*
X003980Y016504D02*
X013917Y016504D01*
X015002Y017141D02*
X028653Y017141D01*
X028094Y017459D02*
X015459Y017459D01*
X015430Y017778D02*
X025789Y017778D01*
X025732Y017801D02*
X025931Y017719D01*
X026146Y017719D01*
X026345Y017801D01*
X026497Y017953D01*
X026579Y018152D01*
X026579Y018368D01*
X026497Y018567D01*
X026345Y018719D01*
X026146Y018801D01*
X025931Y018801D01*
X025732Y018719D01*
X025580Y018567D01*
X025497Y018368D01*
X025497Y018152D01*
X025580Y017953D01*
X025732Y017801D01*
X025520Y018096D02*
X009469Y018096D01*
X009473Y018415D02*
X025517Y018415D01*
X025766Y018733D02*
X009253Y018733D01*
X008264Y019052D02*
X028085Y019052D01*
X027865Y018733D02*
X027492Y018733D01*
X027526Y018719D02*
X027327Y018801D01*
X027112Y018801D01*
X026913Y018719D01*
X026761Y018567D01*
X026678Y018368D01*
X026678Y018152D01*
X026761Y017953D01*
X026913Y017801D01*
X027112Y017719D01*
X027327Y017719D01*
X027526Y017801D01*
X027678Y017953D01*
X027761Y018152D01*
X027761Y018368D01*
X027678Y018567D01*
X027526Y018719D01*
X027741Y018415D02*
X027770Y018415D01*
X027773Y018096D02*
X027737Y018096D01*
X027870Y017778D02*
X027469Y017778D01*
X026970Y017778D02*
X026288Y017778D01*
X026556Y018096D02*
X026702Y018096D01*
X026698Y018415D02*
X026560Y018415D01*
X026311Y018733D02*
X026947Y018733D01*
X027928Y021600D02*
X013297Y021600D01*
X013262Y021918D02*
X027780Y021918D01*
X027730Y022237D02*
X012562Y022237D01*
X012325Y022555D02*
X027767Y022555D01*
X007375Y019689D02*
X007048Y019689D01*
X007162Y019370D02*
X007261Y019370D01*
X007340Y019052D02*
X007083Y019052D01*
X006998Y018721D02*
X006948Y018731D01*
X006621Y018731D01*
X006294Y018731D01*
X006244Y018721D01*
X006197Y018701D01*
X006154Y018673D01*
X006118Y018636D01*
X006089Y018594D01*
X006070Y018546D01*
X006060Y018496D01*
X006060Y018169D01*
X006060Y017843D01*
X006070Y017792D01*
X006089Y017745D01*
X006118Y017703D01*
X006154Y017666D01*
X006197Y017638D01*
X006244Y017618D01*
X006294Y017608D01*
X006621Y017608D01*
X006948Y017608D01*
X006998Y017618D01*
X007045Y017638D01*
X007088Y017666D01*
X007124Y017703D01*
X007153Y017745D01*
X007172Y017792D01*
X007182Y017843D01*
X007182Y018169D01*
X006621Y018169D01*
X006621Y017608D01*
X006621Y018169D01*
X006621Y018169D01*
X006060Y018169D01*
X006621Y018169D01*
X006621Y018169D01*
X006621Y018169D01*
X007182Y018169D01*
X007182Y018496D01*
X007172Y018546D01*
X007153Y018594D01*
X007124Y018636D01*
X007088Y018673D01*
X007045Y018701D01*
X006998Y018721D01*
X007182Y018415D02*
X007318Y018415D01*
X007261Y018096D02*
X007182Y018096D01*
X007166Y017778D02*
X007429Y017778D01*
X006621Y017778D02*
X006621Y017778D01*
X006621Y018096D02*
X006621Y018096D01*
X006621Y018169D02*
X006621Y018731D01*
X006621Y018169D01*
X006621Y018169D01*
X006621Y018415D02*
X006621Y018415D01*
X006060Y018415D02*
X006019Y018415D01*
X006060Y018096D02*
X005865Y018096D01*
X006076Y017778D02*
X005520Y017778D01*
X004369Y010771D02*
X003980Y010771D01*
X003980Y010452D02*
X003991Y010452D01*
X003980Y008860D02*
X004194Y008860D01*
X003980Y006630D02*
X006329Y006630D01*
X013549Y002171D02*
X013976Y002171D01*
X018355Y002171D02*
X028298Y002171D01*
X028467Y002490D02*
X018461Y002490D01*
X018780Y002808D02*
X028856Y002808D01*
X028438Y003127D02*
X019098Y003127D01*
X027844Y004401D02*
X028016Y004401D01*
X027967Y004082D02*
X027957Y004082D01*
X029731Y005038D02*
X030419Y005038D01*
X030419Y004719D02*
X030067Y004719D01*
X030218Y004401D02*
X030419Y004401D01*
X030419Y004082D02*
X030268Y004082D01*
X030228Y003764D02*
X030419Y003764D01*
X030419Y003445D02*
X030089Y003445D01*
X029796Y003127D02*
X030419Y003127D01*
X030419Y002808D02*
X029985Y002808D01*
X030373Y002490D02*
X030419Y002490D01*
X029511Y006949D02*
X029511Y006949D01*
D19*
X028617Y006166D02*
X027830Y006953D01*
X027830Y007347D01*
X027239Y007543D02*
X027239Y006166D01*
X026649Y006166D02*
X026649Y007543D01*
X026058Y007543D02*
X026058Y005969D01*
X026649Y004788D02*
X024090Y007347D01*
X024090Y007937D01*
X024090Y008921D02*
X026255Y008921D01*
X026452Y009118D01*
X027042Y009118D02*
X025467Y007543D01*
X023696Y006953D02*
X023696Y009118D01*
X024090Y009512D01*
X027239Y009512D01*
X027633Y009118D01*
X028027Y009315D02*
X028420Y009315D01*
X028511Y009169D01*
X028027Y009315D02*
X024483Y012858D01*
X023499Y012465D02*
X022515Y011480D01*
X022121Y010103D02*
X024483Y010103D01*
X025467Y011087D01*
X026255Y011480D02*
X026255Y011874D01*
X026255Y011480D02*
X028027Y009709D01*
X029011Y009709D01*
X029404Y009315D01*
X029511Y009169D01*
X026649Y013646D02*
X025664Y013646D01*
X026649Y014827D02*
X025467Y016008D01*
X015428Y009118D02*
X011097Y004788D01*
X010920Y004760D01*
X010113Y004788D02*
X009920Y004760D01*
X010113Y004788D02*
X008735Y006166D01*
X008735Y013055D01*
X009326Y013449D02*
X010704Y012071D01*
X012278Y012465D02*
X013066Y012465D01*
X014444Y011677D02*
X012869Y010103D01*
X012082Y009118D02*
X010704Y010496D01*
X010113Y010693D02*
X010113Y009709D01*
X010704Y009512D02*
X010113Y008921D01*
X009129Y009906D01*
X009129Y010890D01*
X007357Y009709D02*
X006767Y010299D01*
X006621Y010351D01*
X009129Y007937D02*
X010113Y008921D01*
X013853Y006756D02*
X013853Y005772D01*
X014641Y004984D01*
X014641Y004197D01*
X014641Y005575D02*
X017593Y005575D01*
X018775Y004394D01*
X018775Y005575D02*
X018184Y005575D01*
X018775Y005575D02*
X018775Y006166D01*
X018775Y005575D02*
X019365Y005575D01*
X020349Y004788D02*
X020349Y006953D01*
X020349Y007543D02*
X022318Y005575D01*
X022318Y006166D02*
X022908Y006756D01*
X020349Y004788D02*
X017987Y002425D01*
X014838Y002622D02*
X014050Y001835D01*
X013263Y001835D01*
X013656Y015614D02*
X014641Y015614D01*
X015231Y016205D01*
X014247Y016795D02*
X015034Y017583D01*
X012869Y021717D02*
X012672Y021717D01*
X011885Y022504D01*
D20*
X011885Y022504D03*
X012869Y021717D03*
X015034Y017583D03*
X014247Y016795D03*
X015231Y016205D03*
X013656Y015614D03*
X013066Y012465D03*
X012278Y012465D03*
X010704Y012071D03*
X009129Y010890D03*
X010113Y010693D03*
X010704Y010496D03*
X010113Y009709D03*
X010704Y009512D03*
X012082Y009118D03*
X012869Y010103D03*
X014444Y011677D03*
X015428Y009118D03*
X013853Y006756D03*
X014641Y005575D03*
X014641Y004197D03*
X014838Y002622D03*
X013263Y001835D03*
X017987Y002425D03*
X018775Y004394D03*
X019365Y005575D03*
X018775Y006166D03*
X018184Y005575D03*
X020349Y004788D03*
X022318Y005575D03*
X022318Y006166D03*
X022908Y006756D03*
X023696Y006953D03*
X024090Y007937D03*
X024090Y008921D03*
X025467Y007543D03*
X026058Y007543D03*
X026649Y007543D03*
X027239Y007543D03*
X027830Y007347D03*
X027239Y006166D03*
X026649Y006166D03*
X026058Y005969D03*
X026649Y004788D03*
X028617Y006166D03*
X027633Y009118D03*
X027042Y009118D03*
X026452Y009118D03*
X025467Y011087D03*
X026255Y011874D03*
X024483Y012858D03*
X023499Y012465D03*
X022515Y011480D03*
X022121Y010103D03*
X020349Y007543D03*
X020349Y006953D03*
X025664Y013646D03*
X026649Y013646D03*
X026649Y014827D03*
X025467Y016008D03*
X009326Y013449D03*
X008735Y013055D03*
X007357Y009709D03*
X009129Y007937D03*
M02*
