%
M48
M72
T01C0.0236
T02C0.0240
T03C0.0315
T04C0.0320
T05C0.0360
T06C0.0402
T07C0.0440
T08C0.1181
T09C0.1260
%
T01
X14050Y10103
X15034Y6953
X17987Y9709
X14641Y13252
T02
X13066Y12465
X12278Y12465
X10704Y12071
X9129Y10890
X10113Y10693
X10704Y10496
X10113Y9709
X10704Y9512
X12082Y9118
X12869Y10103
X14444Y11677
X15428Y9118
X13853Y6756
X14641Y5575
X14641Y4197
X14838Y2622
X13263Y1835
X17987Y2425
X18775Y4394
X19365Y5575
X18775Y6166
X18184Y5575
X20349Y4788
X22318Y5575
X22318Y6166
X22908Y6756
X23696Y6953
X24090Y7937
X24090Y8921
X25467Y7543
X26058Y7543
X26649Y7543
X27239Y7543
X27830Y7347
X27239Y6166
X26649Y6166
X26058Y5969
X26649Y4788
X28617Y6166
X27633Y9118
X27042Y9118
X26452Y9118
X25467Y11087
X26255Y11874
X24483Y12858
X23499Y12465
X22515Y11480
X22121Y10103
X20349Y7543
X20349Y6953
X25664Y13646
X26649Y13646
X26649Y14827
X25467Y16008
X15231Y16205
X14247Y16795
X15034Y17583
X13656Y15614
X9326Y13449
X8735Y13055
X7357Y9709
X9129Y7937
X12869Y21717
X11885Y22504
T03
X7515Y7248
X6964Y6303
X4444Y5260
X5743Y3469
X8775Y3685
T04
X9920Y4760
X10920Y4760
X10920Y7760
X9920Y7760
X21723Y13654
X24723Y13654
T05
X28511Y13169
X29511Y13169
X29511Y12169
X28511Y12169
X28511Y11169
X29511Y11169
X29511Y10169
X28511Y10169
X28511Y9169
X29511Y9169
X29511Y8169
X28511Y8169
X28511Y7169
X29511Y7169
X29511Y14169
X28511Y14169
T06
X27219Y18260
X26038Y18260
X7802Y18169
X6621Y18169
X6621Y19351
X7802Y19351
X7802Y14851
X6621Y14851
X6621Y13669
X7802Y13669
X7802Y10351
X6621Y10351
X6621Y9169
X7802Y9169
X26235Y4063
X27416Y4063
T07
X8920Y18260
X8920Y22260
T08
X4920Y18760
X4920Y14260
X4920Y9760
X28920Y18260
X29117Y4063
T09
X4920Y1760
X29420Y1760
X28920Y22260
X4920Y22260
M30
