G75*
G70*
%OFA0B0*%
%FSLAX24Y24*%
%IPPOS*%
%LPD*%
%AMOC8*
5,1,8,0,0,1.08239X$1,22.5*
%
%ADD10C,0.0660*%
%ADD11OC8,0.0520*%
%ADD12R,0.0602X0.0602*%
%ADD13C,0.0602*%
%ADD14C,0.0100*%
%ADD15C,0.0400*%
%ADD16R,0.0357X0.0357*%
%ADD17R,0.0396X0.0396*%
%ADD18C,0.0160*%
D10*
X001133Y007674D03*
X005133Y007674D03*
D11*
X006479Y007206D03*
X007660Y007206D03*
X007660Y004206D03*
X006479Y004206D03*
D12*
X003881Y004103D03*
X024176Y009859D03*
D13*
X022995Y009859D03*
X022995Y008678D03*
X024176Y008678D03*
X024176Y007497D03*
X022995Y007497D03*
X005062Y005284D03*
X003881Y005284D03*
X005062Y004103D03*
D14*
X006086Y004603D02*
X006479Y004209D01*
X006479Y004206D01*
X006086Y004603D02*
X006086Y013816D01*
X005219Y013894D02*
X002778Y016335D01*
X002739Y016335D01*
X003330Y013580D02*
X001519Y011769D01*
X006479Y011296D02*
X007267Y011296D01*
X007739Y014052D02*
X007739Y007753D01*
X008054Y007438D01*
X008054Y004603D01*
X007660Y004209D01*
X007660Y004206D01*
X008211Y001217D02*
X008369Y001060D01*
X010101Y001060D01*
X015062Y000981D02*
X008211Y007831D01*
X008211Y015627D01*
X008448Y015863D01*
X008605Y015391D02*
X009235Y016020D01*
X018369Y016020D01*
X022778Y011611D01*
X022778Y010902D01*
X022700Y010509D02*
X021991Y011217D01*
X021991Y011847D01*
X020416Y013422D01*
X020416Y013501D01*
X020023Y013894D02*
X020023Y010981D01*
X023015Y007989D01*
X023645Y007989D01*
X024117Y007517D01*
X024176Y007497D01*
X022995Y009859D02*
X024826Y011690D01*
X025928Y013580D02*
X022857Y010509D01*
X022700Y010509D01*
X025928Y013580D02*
X025967Y013580D01*
X017109Y014131D02*
X014117Y014131D01*
X012621Y015627D01*
X009786Y015627D01*
X010337Y014052D02*
X011519Y015233D01*
X012542Y015233D01*
X011991Y014839D02*
X011361Y014209D01*
X010967Y014209D01*
X010337Y014052D02*
X008605Y014052D01*
X012582Y012359D02*
X012581Y012338D01*
X013802Y015627D02*
X015613Y015627D01*
X019078Y004524D02*
X019078Y003737D01*
X016794Y001454D01*
X016558Y000981D02*
X015062Y000981D01*
D15*
X016558Y000981D03*
X016794Y001454D03*
X010101Y001060D03*
X008211Y001217D03*
X022778Y010902D03*
X021991Y011847D03*
X020416Y013501D03*
X020023Y013894D03*
X017109Y014131D03*
X015613Y015627D03*
X013802Y015627D03*
X012542Y015233D03*
X011991Y014839D03*
X010967Y014209D03*
X009786Y015627D03*
X008605Y015391D03*
X008448Y015863D03*
X008605Y014052D03*
X007739Y014052D03*
X006086Y013816D03*
X005219Y013894D03*
X003330Y013580D03*
X001519Y011769D03*
X006479Y011296D03*
X007267Y011296D03*
X024826Y011690D03*
D16*
X002739Y016335D03*
D17*
X004314Y012202D03*
X015337Y012398D03*
X025967Y013580D03*
X019078Y004524D03*
X011400Y001965D03*
D18*
X002249Y000693D02*
X002230Y000674D01*
X016359Y000674D01*
X016354Y000676D01*
X016259Y000771D01*
X014975Y000771D01*
X008264Y007482D01*
X008264Y004516D01*
X008080Y004332D01*
X008080Y004032D01*
X007834Y003786D01*
X007486Y003786D01*
X007240Y004032D01*
X007240Y004379D01*
X007486Y004626D01*
X007779Y004626D01*
X007844Y004690D01*
X007844Y006795D01*
X007834Y006786D01*
X007486Y006786D01*
X007240Y007032D01*
X007240Y007379D01*
X007486Y007626D01*
X007569Y007626D01*
X007529Y007666D01*
X007529Y011049D01*
X007471Y010991D01*
X007338Y010936D01*
X007195Y010936D01*
X007063Y010991D01*
X006967Y011086D01*
X006778Y011086D01*
X006683Y010991D01*
X006551Y010936D01*
X006408Y010936D01*
X006296Y010982D01*
X006296Y007616D01*
X006305Y007626D01*
X006653Y007626D01*
X006899Y007379D01*
X006899Y007032D01*
X006653Y006786D01*
X006305Y006786D01*
X006296Y006795D01*
X006296Y004690D01*
X006360Y004626D01*
X006653Y004626D01*
X006899Y004379D01*
X006899Y004032D01*
X006653Y003786D01*
X006305Y003786D01*
X006059Y004032D01*
X006059Y004332D01*
X005876Y004516D01*
X005876Y013517D01*
X005780Y013612D01*
X005726Y013744D01*
X005726Y013887D01*
X005780Y014020D01*
X005882Y014121D01*
X006014Y014176D01*
X006157Y014176D01*
X006289Y014121D01*
X006391Y014020D01*
X006446Y013887D01*
X006446Y013744D01*
X006391Y013612D01*
X006296Y013517D01*
X006296Y011610D01*
X006408Y011656D01*
X006551Y011656D01*
X006683Y011601D01*
X006778Y011506D01*
X006967Y011506D01*
X007063Y011601D01*
X007195Y011656D01*
X007338Y011656D01*
X007471Y011601D01*
X007529Y011543D01*
X007529Y013753D01*
X007434Y013848D01*
X007379Y013980D01*
X007379Y014124D01*
X007434Y014256D01*
X007535Y014357D01*
X007667Y014412D01*
X007811Y014412D01*
X007943Y014357D01*
X008001Y014299D01*
X008001Y015714D01*
X008088Y015800D01*
X008088Y015935D01*
X008143Y016067D01*
X008244Y016168D01*
X008376Y016223D01*
X008519Y016223D01*
X008652Y016168D01*
X008753Y016067D01*
X008808Y015935D01*
X008808Y015890D01*
X009148Y016230D01*
X018456Y016230D01*
X018579Y016107D01*
X022988Y011698D01*
X022988Y011201D01*
X023084Y011106D01*
X023138Y010974D01*
X023138Y010831D01*
X023084Y010698D01*
X022982Y010597D01*
X022850Y010542D01*
X022707Y010542D01*
X022575Y010597D01*
X022473Y010698D01*
X022418Y010831D01*
X022418Y010974D01*
X022473Y011106D01*
X022568Y011201D01*
X022568Y011524D01*
X020349Y013743D01*
X020328Y013691D01*
X020233Y013595D01*
X020233Y011068D01*
X022534Y008767D01*
X022534Y008770D01*
X022604Y008939D01*
X022734Y009069D01*
X022903Y009139D01*
X023087Y009139D01*
X023256Y009069D01*
X023386Y008939D01*
X023456Y008770D01*
X023456Y008586D01*
X023386Y008417D01*
X023256Y008287D01*
X023087Y008217D01*
X023084Y008217D01*
X023102Y008199D01*
X023732Y008199D01*
X024005Y007925D01*
X024084Y007958D01*
X024268Y007958D01*
X024437Y007888D01*
X024567Y007758D01*
X024637Y007589D01*
X024637Y007405D01*
X024567Y007236D01*
X024437Y007106D01*
X024268Y007036D01*
X024084Y007036D01*
X023915Y007106D01*
X023785Y007236D01*
X023715Y007405D01*
X023715Y007589D01*
X023725Y007612D01*
X023558Y007779D01*
X023365Y007779D01*
X023386Y007758D01*
X023456Y007589D01*
X023456Y007405D01*
X023386Y007236D01*
X023256Y007106D01*
X023087Y007036D01*
X022903Y007036D01*
X022734Y007106D01*
X022604Y007236D01*
X022534Y007405D01*
X022534Y007589D01*
X022604Y007758D01*
X022734Y007888D01*
X022794Y007913D01*
X019813Y010894D01*
X019813Y013595D01*
X019717Y013691D01*
X019663Y013823D01*
X019663Y013966D01*
X019717Y014098D01*
X019819Y014200D01*
X019871Y014221D01*
X018282Y015810D01*
X012734Y015810D01*
X012831Y015714D01*
X014204Y014341D01*
X016810Y014341D01*
X016905Y014436D01*
X017038Y014491D01*
X017181Y014491D01*
X017313Y014436D01*
X017414Y014335D01*
X017469Y014202D01*
X017469Y014059D01*
X017414Y013927D01*
X017313Y013826D01*
X017181Y013771D01*
X017038Y013771D01*
X016905Y013826D01*
X016810Y013921D01*
X014030Y013921D01*
X012869Y015082D01*
X012847Y015029D01*
X012746Y014928D01*
X012614Y014873D01*
X012471Y014873D01*
X012345Y014925D01*
X012351Y014911D01*
X012351Y014768D01*
X012296Y014635D01*
X012195Y014534D01*
X012063Y014479D01*
X011928Y014479D01*
X011571Y014122D01*
X011571Y014122D01*
X011448Y013999D01*
X011267Y013999D01*
X011171Y013904D01*
X011039Y013849D01*
X010896Y013849D01*
X010763Y013904D01*
X010662Y014006D01*
X010640Y014058D01*
X010424Y013842D01*
X008904Y013842D01*
X008809Y013747D01*
X008677Y013692D01*
X008534Y013692D01*
X008421Y013738D01*
X008421Y007918D01*
X009031Y007309D01*
X008770Y007918D01*
X008770Y007918D01*
X008615Y008669D01*
X008615Y009435D01*
X008770Y010186D01*
X008770Y010186D01*
X009072Y010891D01*
X009072Y010891D01*
X009510Y011520D01*
X009510Y011520D01*
X010066Y012048D01*
X010066Y012048D01*
X010716Y012454D01*
X010716Y012454D01*
X011435Y012720D01*
X011435Y012720D01*
X012193Y012836D01*
X012193Y012836D01*
X012958Y012797D01*
X012958Y012797D01*
X013701Y012605D01*
X013701Y012605D01*
X014389Y012267D01*
X014389Y012267D01*
X014995Y011798D01*
X014995Y011798D01*
X014995Y011798D01*
X015494Y011216D01*
X015866Y010546D01*
X015866Y010546D01*
X016096Y009815D01*
X016173Y009052D01*
X016096Y008289D01*
X016096Y008289D01*
X015866Y007558D01*
X015866Y007558D01*
X015494Y006888D01*
X015494Y006888D01*
X014995Y006306D01*
X014995Y006306D01*
X014995Y006306D01*
X014389Y005837D01*
X014389Y005837D01*
X013701Y005499D01*
X013701Y005499D01*
X012958Y005307D01*
X012958Y005307D01*
X012193Y005268D01*
X012193Y005268D01*
X011435Y005384D01*
X011435Y005384D01*
X010716Y005650D01*
X010716Y005650D01*
X010646Y005694D01*
X015149Y001191D01*
X016259Y001191D01*
X016354Y001286D01*
X016486Y001341D01*
X016630Y001341D01*
X016762Y001286D01*
X016863Y001185D01*
X016918Y001053D01*
X016918Y000909D01*
X016863Y000777D01*
X016762Y000676D01*
X016757Y000674D01*
X026355Y000674D01*
X026130Y000734D01*
X025876Y000880D01*
X025670Y001087D01*
X025524Y001340D01*
X025448Y001622D01*
X025448Y001915D01*
X025524Y002197D01*
X025670Y002450D01*
X025876Y002657D01*
X026130Y002803D01*
X026412Y002878D01*
X026704Y002878D01*
X026986Y002803D01*
X027239Y002657D01*
X027259Y002637D01*
X027259Y016845D01*
X027239Y016825D01*
X026986Y016679D01*
X026704Y016603D01*
X026412Y016603D01*
X026130Y016679D01*
X025876Y016825D01*
X025670Y017032D01*
X025524Y017285D01*
X025448Y017567D01*
X025448Y017860D01*
X025524Y018142D01*
X025670Y018395D01*
X025689Y018414D01*
X002427Y018414D01*
X002446Y018395D01*
X002592Y018142D01*
X002668Y017860D01*
X002668Y017567D01*
X002592Y017285D01*
X002446Y017032D01*
X002239Y016825D01*
X001986Y016679D01*
X001704Y016603D01*
X001412Y016603D01*
X001130Y016679D01*
X000876Y016825D01*
X000670Y017032D01*
X000660Y017049D01*
X000660Y007813D01*
X000717Y007952D01*
X000855Y008089D01*
X001035Y008164D01*
X001230Y008164D01*
X001410Y008089D01*
X001548Y007952D01*
X001623Y007771D01*
X001623Y007577D01*
X001548Y007396D01*
X001410Y007259D01*
X001230Y007184D01*
X001035Y007184D01*
X000855Y007259D01*
X000717Y007396D01*
X000660Y007535D01*
X000660Y002243D01*
X000680Y002263D01*
X000933Y002409D01*
X001215Y002485D01*
X001507Y002485D01*
X001790Y002409D01*
X002043Y002263D01*
X002249Y002056D01*
X002395Y001803D01*
X002471Y001521D01*
X002471Y001229D01*
X002395Y000946D01*
X002249Y000693D01*
X002327Y000828D02*
X014918Y000828D01*
X014760Y000986D02*
X002406Y000986D01*
X002449Y001145D02*
X014601Y001145D01*
X014443Y001303D02*
X002471Y001303D01*
X002471Y001462D02*
X014284Y001462D01*
X014126Y001620D02*
X002444Y001620D01*
X002402Y001779D02*
X013967Y001779D01*
X013809Y001937D02*
X002318Y001937D01*
X002210Y002096D02*
X013650Y002096D01*
X013492Y002254D02*
X002051Y002254D01*
X001776Y002413D02*
X013333Y002413D01*
X013175Y002571D02*
X000660Y002571D01*
X000660Y002413D02*
X000946Y002413D01*
X000671Y002254D02*
X000660Y002254D01*
X000660Y002730D02*
X013016Y002730D01*
X012858Y002888D02*
X000660Y002888D01*
X000660Y003047D02*
X012699Y003047D01*
X012541Y003205D02*
X000660Y003205D01*
X000660Y003364D02*
X012382Y003364D01*
X012224Y003522D02*
X000660Y003522D01*
X000660Y003681D02*
X001824Y003681D01*
X001767Y003696D02*
X002039Y003623D01*
X002321Y003623D01*
X002593Y003696D01*
X002837Y003837D01*
X003037Y004036D01*
X003178Y004280D01*
X003251Y004553D01*
X003251Y004835D01*
X003178Y005107D01*
X003037Y005351D01*
X002837Y005550D01*
X002593Y005691D01*
X002321Y005764D01*
X002039Y005764D01*
X001767Y005691D01*
X001523Y005550D01*
X001323Y005351D01*
X001182Y005107D01*
X001109Y004835D01*
X001109Y004553D01*
X001182Y004280D01*
X001323Y004036D01*
X001523Y003837D01*
X001767Y003696D01*
X001521Y003839D02*
X000660Y003839D01*
X000660Y003998D02*
X001362Y003998D01*
X001254Y004156D02*
X000660Y004156D01*
X000660Y004315D02*
X001173Y004315D01*
X001131Y004473D02*
X000660Y004473D01*
X000660Y004632D02*
X001109Y004632D01*
X001109Y004790D02*
X000660Y004790D01*
X000660Y004949D02*
X001140Y004949D01*
X001183Y005107D02*
X000660Y005107D01*
X000660Y005266D02*
X001274Y005266D01*
X001397Y005424D02*
X000660Y005424D01*
X000660Y005583D02*
X001579Y005583D01*
X001953Y005741D02*
X000660Y005741D01*
X000660Y005900D02*
X005876Y005900D01*
X005876Y006058D02*
X000660Y006058D01*
X000660Y006217D02*
X005876Y006217D01*
X005876Y006375D02*
X000660Y006375D01*
X000660Y006534D02*
X005876Y006534D01*
X005876Y006692D02*
X000660Y006692D01*
X000660Y006851D02*
X005876Y006851D01*
X005876Y007009D02*
X000660Y007009D01*
X000660Y007168D02*
X005876Y007168D01*
X005876Y007326D02*
X005478Y007326D01*
X005410Y007259D02*
X005548Y007396D01*
X005623Y007577D01*
X005623Y007771D01*
X005548Y007952D01*
X005410Y008089D01*
X005230Y008164D01*
X005035Y008164D01*
X004855Y008089D01*
X004717Y007952D01*
X004643Y007771D01*
X004643Y007577D01*
X004717Y007396D01*
X004855Y007259D01*
X005035Y007184D01*
X005230Y007184D01*
X005410Y007259D01*
X005585Y007485D02*
X005876Y007485D01*
X005876Y007643D02*
X005623Y007643D01*
X005610Y007802D02*
X005876Y007802D01*
X005876Y007960D02*
X005540Y007960D01*
X005340Y008119D02*
X005876Y008119D01*
X005876Y008277D02*
X000660Y008277D01*
X000660Y008119D02*
X000926Y008119D01*
X000726Y007960D02*
X000660Y007960D01*
X000660Y007485D02*
X000681Y007485D01*
X000660Y007326D02*
X000788Y007326D01*
X001478Y007326D02*
X004788Y007326D01*
X004681Y007485D02*
X001585Y007485D01*
X001623Y007643D02*
X004643Y007643D01*
X004655Y007802D02*
X001610Y007802D01*
X001540Y007960D02*
X004726Y007960D01*
X004926Y008119D02*
X001340Y008119D01*
X000660Y008436D02*
X005876Y008436D01*
X005876Y008594D02*
X000660Y008594D01*
X000660Y008753D02*
X005876Y008753D01*
X005876Y008911D02*
X000660Y008911D01*
X000660Y009070D02*
X005876Y009070D01*
X005876Y009228D02*
X000660Y009228D01*
X000660Y009387D02*
X005876Y009387D01*
X005876Y009545D02*
X000660Y009545D01*
X000660Y009704D02*
X005876Y009704D01*
X005876Y009862D02*
X000660Y009862D01*
X000660Y010021D02*
X005876Y010021D01*
X005876Y010179D02*
X000660Y010179D01*
X000660Y010338D02*
X005876Y010338D01*
X005876Y010496D02*
X000660Y010496D01*
X000660Y010655D02*
X005876Y010655D01*
X005876Y010813D02*
X000660Y010813D01*
X000660Y010972D02*
X005876Y010972D01*
X005876Y011130D02*
X000660Y011130D01*
X000660Y011289D02*
X005876Y011289D01*
X005876Y011447D02*
X001684Y011447D01*
X001723Y011463D02*
X001590Y011409D01*
X001447Y011409D01*
X001315Y011463D01*
X001213Y011565D01*
X001159Y011697D01*
X001159Y011840D01*
X001213Y011972D01*
X001315Y012074D01*
X001447Y012129D01*
X001582Y012129D01*
X002970Y013517D01*
X002970Y013651D01*
X003024Y013783D01*
X003126Y013885D01*
X003258Y013940D01*
X003401Y013940D01*
X003534Y013885D01*
X003635Y013783D01*
X003690Y013651D01*
X003690Y013508D01*
X003635Y013376D01*
X003534Y013274D01*
X003401Y013220D01*
X003267Y013220D01*
X001879Y011832D01*
X001879Y011697D01*
X001824Y011565D01*
X001723Y011463D01*
X001841Y011606D02*
X005876Y011606D01*
X005876Y011764D02*
X001879Y011764D01*
X001970Y011923D02*
X005876Y011923D01*
X005876Y012081D02*
X002128Y012081D01*
X002287Y012240D02*
X005876Y012240D01*
X005876Y012398D02*
X002445Y012398D01*
X002604Y012557D02*
X005876Y012557D01*
X005876Y012715D02*
X002762Y012715D01*
X002921Y012874D02*
X005876Y012874D01*
X005876Y013032D02*
X003079Y013032D01*
X003238Y013191D02*
X005876Y013191D01*
X005876Y013349D02*
X003608Y013349D01*
X003690Y013508D02*
X005876Y013508D01*
X005758Y013666D02*
X003683Y013666D01*
X003594Y013825D02*
X005726Y013825D01*
X005765Y013983D02*
X000660Y013983D01*
X000660Y013825D02*
X003066Y013825D01*
X002976Y013666D02*
X000660Y013666D01*
X000660Y013508D02*
X002961Y013508D01*
X002802Y013349D02*
X000660Y013349D01*
X000660Y013191D02*
X002644Y013191D01*
X002485Y013032D02*
X000660Y013032D01*
X000660Y012874D02*
X002327Y012874D01*
X002168Y012715D02*
X000660Y012715D01*
X000660Y012557D02*
X002010Y012557D01*
X001851Y012398D02*
X000660Y012398D01*
X000660Y012240D02*
X001693Y012240D01*
X001333Y012081D02*
X000660Y012081D01*
X000660Y011923D02*
X001193Y011923D01*
X001159Y011764D02*
X000660Y011764D01*
X000660Y011606D02*
X001196Y011606D01*
X001354Y011447D02*
X000660Y011447D01*
X000660Y014142D02*
X005932Y014142D01*
X006239Y014142D02*
X007387Y014142D01*
X007379Y013983D02*
X006406Y013983D01*
X006446Y013825D02*
X007457Y013825D01*
X007529Y013666D02*
X006413Y013666D01*
X006296Y013508D02*
X007529Y013508D01*
X007529Y013349D02*
X006296Y013349D01*
X006296Y013191D02*
X007529Y013191D01*
X007529Y013032D02*
X006296Y013032D01*
X006296Y012874D02*
X007529Y012874D01*
X007529Y012715D02*
X006296Y012715D01*
X006296Y012557D02*
X007529Y012557D01*
X007529Y012398D02*
X006296Y012398D01*
X006296Y012240D02*
X007529Y012240D01*
X007529Y012081D02*
X006296Y012081D01*
X006296Y011923D02*
X007529Y011923D01*
X007529Y011764D02*
X006296Y011764D01*
X006672Y011606D02*
X007073Y011606D01*
X007460Y011606D02*
X007529Y011606D01*
X007529Y010972D02*
X007424Y010972D01*
X007529Y010813D02*
X006296Y010813D01*
X006296Y010655D02*
X007529Y010655D01*
X007529Y010496D02*
X006296Y010496D01*
X006296Y010338D02*
X007529Y010338D01*
X007529Y010179D02*
X006296Y010179D01*
X006296Y010021D02*
X007529Y010021D01*
X007529Y009862D02*
X006296Y009862D01*
X006296Y009704D02*
X007529Y009704D01*
X007529Y009545D02*
X006296Y009545D01*
X006296Y009387D02*
X007529Y009387D01*
X007529Y009228D02*
X006296Y009228D01*
X006296Y009070D02*
X007529Y009070D01*
X007529Y008911D02*
X006296Y008911D01*
X006296Y008753D02*
X007529Y008753D01*
X007529Y008594D02*
X006296Y008594D01*
X006296Y008436D02*
X007529Y008436D01*
X007529Y008277D02*
X006296Y008277D01*
X006296Y008119D02*
X007529Y008119D01*
X007529Y007960D02*
X006296Y007960D01*
X006296Y007802D02*
X007529Y007802D01*
X007552Y007643D02*
X006296Y007643D01*
X006794Y007485D02*
X007346Y007485D01*
X007240Y007326D02*
X006899Y007326D01*
X006899Y007168D02*
X007240Y007168D01*
X007263Y007009D02*
X006877Y007009D01*
X006718Y006851D02*
X007421Y006851D01*
X007844Y006692D02*
X006296Y006692D01*
X006296Y006534D02*
X007844Y006534D01*
X007844Y006375D02*
X006296Y006375D01*
X006296Y006217D02*
X007844Y006217D01*
X007844Y006058D02*
X006296Y006058D01*
X006296Y005900D02*
X007844Y005900D01*
X007844Y005741D02*
X006296Y005741D01*
X006296Y005583D02*
X007844Y005583D01*
X007844Y005424D02*
X006296Y005424D01*
X006296Y005266D02*
X007844Y005266D01*
X007844Y005107D02*
X006296Y005107D01*
X006296Y004949D02*
X007844Y004949D01*
X007844Y004790D02*
X006296Y004790D01*
X006354Y004632D02*
X007786Y004632D01*
X007334Y004473D02*
X006805Y004473D01*
X006899Y004315D02*
X007240Y004315D01*
X007240Y004156D02*
X006899Y004156D01*
X006865Y003998D02*
X007274Y003998D01*
X007433Y003839D02*
X006707Y003839D01*
X006252Y003839D02*
X005450Y003839D01*
X005453Y003842D02*
X005523Y004011D01*
X005523Y004195D01*
X005453Y004364D01*
X005323Y004494D01*
X005154Y004564D01*
X004970Y004564D01*
X004801Y004494D01*
X004671Y004364D01*
X004601Y004195D01*
X004601Y004011D01*
X004671Y003842D01*
X004801Y003712D01*
X004970Y003642D01*
X005154Y003642D01*
X005323Y003712D01*
X005453Y003842D01*
X005517Y003998D02*
X006093Y003998D01*
X006059Y004156D02*
X005523Y004156D01*
X005473Y004315D02*
X006059Y004315D01*
X005918Y004473D02*
X005344Y004473D01*
X005876Y004632D02*
X003251Y004632D01*
X003251Y004790D02*
X005876Y004790D01*
X005876Y004949D02*
X005379Y004949D01*
X005323Y004893D02*
X005453Y005023D01*
X005523Y005193D01*
X005523Y005376D01*
X005453Y005545D01*
X005323Y005675D01*
X005154Y005745D01*
X004970Y005745D01*
X004801Y005675D01*
X004671Y005545D01*
X004601Y005376D01*
X004601Y005193D01*
X004671Y005023D01*
X004801Y004893D01*
X004970Y004823D01*
X005154Y004823D01*
X005323Y004893D01*
X005488Y005107D02*
X005876Y005107D01*
X005876Y005266D02*
X005523Y005266D01*
X005503Y005424D02*
X005876Y005424D01*
X005876Y005583D02*
X005416Y005583D01*
X005164Y005741D02*
X005876Y005741D01*
X004960Y005741D02*
X003983Y005741D01*
X003973Y005745D02*
X003789Y005745D01*
X003620Y005675D01*
X003490Y005545D01*
X003420Y005376D01*
X003420Y005193D01*
X003490Y005023D01*
X003620Y004893D01*
X003789Y004823D01*
X003973Y004823D01*
X004142Y004893D01*
X004272Y005023D01*
X004342Y005193D01*
X004342Y005376D01*
X004272Y005545D01*
X004142Y005675D01*
X003973Y005745D01*
X003779Y005741D02*
X002407Y005741D01*
X002781Y005583D02*
X003527Y005583D01*
X003440Y005424D02*
X002963Y005424D01*
X003086Y005266D02*
X003420Y005266D01*
X003455Y005107D02*
X003177Y005107D01*
X003220Y004949D02*
X003564Y004949D01*
X003556Y004584D02*
X003510Y004572D01*
X003469Y004548D01*
X003436Y004515D01*
X003412Y004474D01*
X003400Y004428D01*
X003400Y004124D01*
X003860Y004124D01*
X003860Y004584D01*
X003556Y004584D01*
X003412Y004473D02*
X003229Y004473D01*
X003187Y004315D02*
X003400Y004315D01*
X003400Y004156D02*
X003106Y004156D01*
X002998Y003998D02*
X003400Y003998D01*
X003400Y004083D02*
X003400Y003778D01*
X003412Y003732D01*
X003436Y003691D01*
X003469Y003658D01*
X003510Y003634D01*
X003556Y003622D01*
X003860Y003622D01*
X003860Y004083D01*
X003400Y004083D01*
X003400Y003839D02*
X002839Y003839D01*
X002536Y003681D02*
X003446Y003681D01*
X003860Y003681D02*
X003901Y003681D01*
X003901Y003622D02*
X004206Y003622D01*
X004251Y003634D01*
X004292Y003658D01*
X004326Y003691D01*
X004350Y003732D01*
X004362Y003778D01*
X004362Y004083D01*
X003901Y004083D01*
X003901Y004124D01*
X003860Y004124D01*
X003860Y004083D01*
X003901Y004083D01*
X003901Y003622D01*
X003901Y003839D02*
X003860Y003839D01*
X003860Y003998D02*
X003901Y003998D01*
X003901Y004124D02*
X004362Y004124D01*
X004362Y004428D01*
X004350Y004474D01*
X004326Y004515D01*
X004292Y004548D01*
X004251Y004572D01*
X004206Y004584D01*
X003901Y004584D01*
X003901Y004124D01*
X003901Y004156D02*
X003860Y004156D01*
X003860Y004315D02*
X003901Y004315D01*
X003901Y004473D02*
X003860Y004473D01*
X004350Y004473D02*
X004780Y004473D01*
X004650Y004315D02*
X004362Y004315D01*
X004362Y004156D02*
X004601Y004156D01*
X004606Y003998D02*
X004362Y003998D01*
X004362Y003839D02*
X004674Y003839D01*
X004877Y003681D02*
X004315Y003681D01*
X005247Y003681D02*
X012065Y003681D01*
X011907Y003839D02*
X007888Y003839D01*
X008046Y003998D02*
X011748Y003998D01*
X011590Y004156D02*
X008080Y004156D01*
X008080Y004315D02*
X011431Y004315D01*
X011273Y004473D02*
X008221Y004473D01*
X008264Y004632D02*
X011114Y004632D01*
X010956Y004790D02*
X008264Y004790D01*
X008264Y004949D02*
X010797Y004949D01*
X010639Y005107D02*
X008264Y005107D01*
X008264Y005266D02*
X010480Y005266D01*
X010322Y005424D02*
X008264Y005424D01*
X008264Y005583D02*
X010163Y005583D01*
X010005Y005741D02*
X008264Y005741D01*
X008264Y005900D02*
X009846Y005900D01*
X009688Y006058D02*
X008264Y006058D01*
X008264Y006217D02*
X009529Y006217D01*
X009371Y006375D02*
X008264Y006375D01*
X008264Y006534D02*
X009212Y006534D01*
X009054Y006692D02*
X008264Y006692D01*
X008264Y006851D02*
X008895Y006851D01*
X008737Y007009D02*
X008264Y007009D01*
X008264Y007168D02*
X008578Y007168D01*
X008420Y007326D02*
X008264Y007326D01*
X008697Y007643D02*
X008888Y007643D01*
X008855Y007485D02*
X008956Y007485D01*
X009014Y007326D02*
X009024Y007326D01*
X008820Y007802D02*
X008538Y007802D01*
X008421Y007960D02*
X008761Y007960D01*
X008728Y008119D02*
X008421Y008119D01*
X008421Y008277D02*
X008696Y008277D01*
X008663Y008436D02*
X008421Y008436D01*
X008421Y008594D02*
X008631Y008594D01*
X008615Y008753D02*
X008421Y008753D01*
X008421Y008911D02*
X008615Y008911D01*
X008615Y009070D02*
X008421Y009070D01*
X008421Y009228D02*
X008615Y009228D01*
X008615Y009387D02*
X008421Y009387D01*
X008421Y009545D02*
X008638Y009545D01*
X008671Y009704D02*
X008421Y009704D01*
X008421Y009862D02*
X008703Y009862D01*
X008736Y010021D02*
X008421Y010021D01*
X008421Y010179D02*
X008768Y010179D01*
X008835Y010338D02*
X008421Y010338D01*
X008421Y010496D02*
X008903Y010496D01*
X008971Y010655D02*
X008421Y010655D01*
X008421Y010813D02*
X009039Y010813D01*
X009128Y010972D02*
X008421Y010972D01*
X008421Y011130D02*
X009239Y011130D01*
X009349Y011289D02*
X008421Y011289D01*
X008421Y011447D02*
X009459Y011447D01*
X009600Y011606D02*
X008421Y011606D01*
X008421Y011764D02*
X009767Y011764D01*
X009934Y011923D02*
X008421Y011923D01*
X008421Y012081D02*
X010119Y012081D01*
X010373Y012240D02*
X008421Y012240D01*
X008421Y012398D02*
X010627Y012398D01*
X010995Y012557D02*
X008421Y012557D01*
X008421Y012715D02*
X011423Y012715D01*
X011250Y013983D02*
X013968Y013983D01*
X013809Y014142D02*
X011590Y014142D01*
X011749Y014300D02*
X013651Y014300D01*
X013492Y014459D02*
X011907Y014459D01*
X012278Y014617D02*
X013334Y014617D01*
X013175Y014776D02*
X012351Y014776D01*
X012752Y014934D02*
X013017Y014934D01*
X013293Y015251D02*
X018841Y015251D01*
X018683Y015410D02*
X013135Y015410D01*
X012976Y015568D02*
X018524Y015568D01*
X018366Y015727D02*
X012818Y015727D01*
X013452Y015093D02*
X019000Y015093D01*
X019158Y014934D02*
X013610Y014934D01*
X013769Y014776D02*
X019317Y014776D01*
X019475Y014617D02*
X013927Y014617D01*
X014086Y014459D02*
X016960Y014459D01*
X017258Y014459D02*
X019634Y014459D01*
X019792Y014300D02*
X017429Y014300D01*
X017469Y014142D02*
X019761Y014142D01*
X019670Y013983D02*
X017438Y013983D01*
X017311Y013825D02*
X019663Y013825D01*
X019742Y013666D02*
X008421Y013666D01*
X008421Y013508D02*
X019813Y013508D01*
X019813Y013349D02*
X008421Y013349D01*
X008421Y013191D02*
X019813Y013191D01*
X019813Y013032D02*
X008421Y013032D01*
X008421Y012874D02*
X019813Y012874D01*
X019813Y012715D02*
X013274Y012715D01*
X013799Y012557D02*
X019813Y012557D01*
X019813Y012398D02*
X014122Y012398D01*
X014424Y012240D02*
X019813Y012240D01*
X019813Y012081D02*
X014629Y012081D01*
X014834Y011923D02*
X019813Y011923D01*
X019813Y011764D02*
X015024Y011764D01*
X015160Y011606D02*
X019813Y011606D01*
X019813Y011447D02*
X015296Y011447D01*
X015432Y011289D02*
X019813Y011289D01*
X019813Y011130D02*
X015542Y011130D01*
X015630Y010972D02*
X019813Y010972D01*
X019893Y010813D02*
X015718Y010813D01*
X015806Y010655D02*
X020052Y010655D01*
X020210Y010496D02*
X015882Y010496D01*
X015932Y010338D02*
X020369Y010338D01*
X020527Y010179D02*
X015982Y010179D01*
X016031Y010021D02*
X020686Y010021D01*
X020844Y009862D02*
X016081Y009862D01*
X016107Y009704D02*
X021003Y009704D01*
X021161Y009545D02*
X016123Y009545D01*
X016139Y009387D02*
X021320Y009387D01*
X021478Y009228D02*
X016156Y009228D01*
X016172Y009070D02*
X021637Y009070D01*
X021795Y008911D02*
X016159Y008911D01*
X016143Y008753D02*
X021954Y008753D01*
X022112Y008594D02*
X016127Y008594D01*
X016111Y008436D02*
X022271Y008436D01*
X022429Y008277D02*
X016092Y008277D01*
X016042Y008119D02*
X022588Y008119D01*
X022746Y007960D02*
X015993Y007960D01*
X015943Y007802D02*
X022648Y007802D01*
X022556Y007643D02*
X015893Y007643D01*
X015826Y007485D02*
X022534Y007485D01*
X022566Y007326D02*
X015738Y007326D01*
X015650Y007168D02*
X022672Y007168D01*
X023318Y007168D02*
X023853Y007168D01*
X023748Y007326D02*
X023423Y007326D01*
X023456Y007485D02*
X023715Y007485D01*
X023693Y007643D02*
X023434Y007643D01*
X023812Y008119D02*
X024964Y008119D01*
X025020Y008021D02*
X025220Y007821D01*
X025464Y007680D01*
X025736Y007607D01*
X026018Y007607D01*
X026290Y007680D01*
X026534Y007821D01*
X026734Y008021D01*
X026874Y008265D01*
X026947Y008537D01*
X026947Y008819D01*
X026874Y009091D01*
X026734Y009335D01*
X026534Y009535D01*
X026290Y009676D01*
X026018Y009749D01*
X025736Y009749D01*
X025464Y009676D01*
X025220Y009535D01*
X025020Y009335D01*
X024879Y009091D01*
X024806Y008819D01*
X024806Y008537D01*
X024879Y008265D01*
X025020Y008021D01*
X025081Y007960D02*
X023970Y007960D01*
X024084Y008217D02*
X024268Y008217D01*
X024437Y008287D01*
X024567Y008417D01*
X024637Y008586D01*
X024637Y008770D01*
X024567Y008939D01*
X024437Y009069D01*
X024268Y009139D01*
X024084Y009139D01*
X023915Y009069D01*
X023785Y008939D01*
X023715Y008770D01*
X023715Y008586D01*
X023785Y008417D01*
X023915Y008287D01*
X024084Y008217D01*
X023938Y008277D02*
X023233Y008277D01*
X023394Y008436D02*
X023777Y008436D01*
X023715Y008594D02*
X023456Y008594D01*
X023456Y008753D02*
X023715Y008753D01*
X023774Y008911D02*
X023398Y008911D01*
X023254Y009070D02*
X023917Y009070D01*
X024435Y009070D02*
X024874Y009070D01*
X024831Y008911D02*
X024579Y008911D01*
X024637Y008753D02*
X024806Y008753D01*
X024806Y008594D02*
X024637Y008594D01*
X024575Y008436D02*
X024833Y008436D01*
X024876Y008277D02*
X024414Y008277D01*
X024523Y007802D02*
X025253Y007802D01*
X025602Y007643D02*
X024615Y007643D01*
X024637Y007485D02*
X027259Y007485D01*
X027259Y007643D02*
X026151Y007643D01*
X026500Y007802D02*
X027259Y007802D01*
X027259Y007960D02*
X026673Y007960D01*
X026790Y008119D02*
X027259Y008119D01*
X027259Y008277D02*
X026878Y008277D01*
X026920Y008436D02*
X027259Y008436D01*
X027259Y008594D02*
X026947Y008594D01*
X026947Y008753D02*
X027259Y008753D01*
X027259Y008911D02*
X026923Y008911D01*
X026880Y009070D02*
X027259Y009070D01*
X027259Y009228D02*
X026795Y009228D01*
X026682Y009387D02*
X027259Y009387D01*
X027259Y009545D02*
X026516Y009545D01*
X026185Y009704D02*
X027259Y009704D01*
X027259Y009862D02*
X024637Y009862D01*
X024637Y009704D02*
X025569Y009704D01*
X025238Y009545D02*
X024637Y009545D01*
X024637Y009492D02*
X024637Y010227D01*
X024544Y010320D01*
X023809Y010320D01*
X023715Y010227D01*
X023715Y009492D01*
X023809Y009398D01*
X024544Y009398D01*
X024637Y009492D01*
X024958Y009228D02*
X022072Y009228D01*
X021914Y009387D02*
X025072Y009387D01*
X024637Y010021D02*
X027259Y010021D01*
X027259Y010179D02*
X024637Y010179D01*
X024088Y010655D02*
X027259Y010655D01*
X027259Y010813D02*
X024246Y010813D01*
X024405Y010972D02*
X027259Y010972D01*
X027259Y011130D02*
X024563Y011130D01*
X024722Y011289D02*
X027259Y011289D01*
X027259Y011447D02*
X025092Y011447D01*
X025131Y011486D02*
X025186Y011618D01*
X025186Y011761D01*
X025131Y011894D01*
X025030Y011995D01*
X024897Y012050D01*
X024754Y012050D01*
X024622Y011995D01*
X024520Y011894D01*
X024466Y011761D01*
X024466Y011627D01*
X023138Y010299D01*
X023087Y010320D01*
X022903Y010320D01*
X022734Y010250D01*
X022604Y010120D01*
X022534Y009951D01*
X022534Y009767D01*
X022604Y009598D01*
X022734Y009468D01*
X022903Y009398D01*
X023087Y009398D01*
X023256Y009468D01*
X023386Y009598D01*
X023456Y009767D01*
X023456Y009951D01*
X023435Y010002D01*
X024763Y011330D01*
X024897Y011330D01*
X025030Y011385D01*
X025131Y011486D01*
X025181Y011606D02*
X027259Y011606D01*
X027259Y011764D02*
X025184Y011764D01*
X025102Y011923D02*
X027259Y011923D01*
X027259Y012081D02*
X022605Y012081D01*
X022764Y011923D02*
X024550Y011923D01*
X024467Y011764D02*
X022922Y011764D01*
X022988Y011606D02*
X024445Y011606D01*
X024286Y011447D02*
X022988Y011447D01*
X022988Y011289D02*
X024128Y011289D01*
X023969Y011130D02*
X023060Y011130D01*
X023138Y010972D02*
X023811Y010972D01*
X023652Y010813D02*
X023131Y010813D01*
X023040Y010655D02*
X023494Y010655D01*
X023335Y010496D02*
X020804Y010496D01*
X020646Y010655D02*
X022517Y010655D01*
X022426Y010813D02*
X020487Y010813D01*
X020329Y010972D02*
X022418Y010972D01*
X022497Y011130D02*
X020233Y011130D01*
X020233Y011289D02*
X022568Y011289D01*
X022568Y011447D02*
X020233Y011447D01*
X020233Y011606D02*
X022487Y011606D01*
X022328Y011764D02*
X020233Y011764D01*
X020233Y011923D02*
X022170Y011923D01*
X022011Y012081D02*
X020233Y012081D01*
X020233Y012240D02*
X021853Y012240D01*
X021694Y012398D02*
X020233Y012398D01*
X020233Y012557D02*
X021536Y012557D01*
X021377Y012715D02*
X020233Y012715D01*
X020233Y012874D02*
X021219Y012874D01*
X021060Y013032D02*
X020233Y013032D01*
X020233Y013191D02*
X020902Y013191D01*
X020743Y013349D02*
X020233Y013349D01*
X020233Y013508D02*
X020585Y013508D01*
X020426Y013666D02*
X020303Y013666D01*
X020703Y013983D02*
X027259Y013983D01*
X027259Y013825D02*
X020862Y013825D01*
X021020Y013666D02*
X027259Y013666D01*
X027259Y013508D02*
X021179Y013508D01*
X021337Y013349D02*
X027259Y013349D01*
X027259Y013191D02*
X021496Y013191D01*
X021654Y013032D02*
X027259Y013032D01*
X027259Y012874D02*
X021813Y012874D01*
X021971Y012715D02*
X027259Y012715D01*
X027259Y012557D02*
X022130Y012557D01*
X022288Y012398D02*
X027259Y012398D01*
X027259Y012240D02*
X022447Y012240D01*
X023929Y010496D02*
X027259Y010496D01*
X027259Y010338D02*
X023771Y010338D01*
X023715Y010179D02*
X023612Y010179D01*
X023715Y010021D02*
X023454Y010021D01*
X023456Y009862D02*
X023715Y009862D01*
X023715Y009704D02*
X023430Y009704D01*
X023333Y009545D02*
X023715Y009545D01*
X023177Y010338D02*
X020963Y010338D01*
X021121Y010179D02*
X022663Y010179D01*
X022563Y010021D02*
X021280Y010021D01*
X021438Y009862D02*
X022534Y009862D01*
X022560Y009704D02*
X021597Y009704D01*
X021755Y009545D02*
X022657Y009545D01*
X022736Y009070D02*
X022231Y009070D01*
X022389Y008911D02*
X022592Y008911D01*
X024605Y007326D02*
X027259Y007326D01*
X027259Y007168D02*
X024499Y007168D01*
X027259Y007009D02*
X015562Y007009D01*
X015463Y006851D02*
X027259Y006851D01*
X027259Y006692D02*
X015327Y006692D01*
X015191Y006534D02*
X027259Y006534D01*
X027259Y006375D02*
X015055Y006375D01*
X014880Y006217D02*
X027259Y006217D01*
X027259Y006058D02*
X014675Y006058D01*
X014470Y005900D02*
X027259Y005900D01*
X027259Y005741D02*
X014194Y005741D01*
X013871Y005583D02*
X027259Y005583D01*
X027259Y005424D02*
X013412Y005424D01*
X011867Y004473D02*
X027259Y004473D01*
X027259Y004315D02*
X012025Y004315D01*
X012184Y004156D02*
X027259Y004156D01*
X027259Y003998D02*
X012342Y003998D01*
X012501Y003839D02*
X027259Y003839D01*
X027259Y003681D02*
X012659Y003681D01*
X012818Y003522D02*
X027259Y003522D01*
X027259Y003364D02*
X012976Y003364D01*
X013135Y003205D02*
X027259Y003205D01*
X027259Y003047D02*
X013293Y003047D01*
X013452Y002888D02*
X027259Y002888D01*
X027259Y002730D02*
X027113Y002730D01*
X026003Y002730D02*
X013610Y002730D01*
X013769Y002571D02*
X025791Y002571D01*
X025648Y002413D02*
X013927Y002413D01*
X014086Y002254D02*
X025557Y002254D01*
X025497Y002096D02*
X014244Y002096D01*
X014403Y001937D02*
X025454Y001937D01*
X025448Y001779D02*
X014561Y001779D01*
X014720Y001620D02*
X025449Y001620D01*
X025491Y001462D02*
X014878Y001462D01*
X015037Y001303D02*
X016395Y001303D01*
X016721Y001303D02*
X025545Y001303D01*
X025636Y001145D02*
X016880Y001145D01*
X016918Y000986D02*
X025771Y000986D01*
X025968Y000828D02*
X016884Y000828D01*
X011708Y004632D02*
X027259Y004632D01*
X027259Y004790D02*
X011550Y004790D01*
X011391Y004949D02*
X027259Y004949D01*
X027259Y005107D02*
X011233Y005107D01*
X011074Y005266D02*
X027259Y005266D01*
X016907Y013825D02*
X008887Y013825D01*
X008001Y014300D02*
X008000Y014300D01*
X008001Y014459D02*
X000660Y014459D01*
X000660Y014617D02*
X008001Y014617D01*
X008001Y014776D02*
X000660Y014776D01*
X000660Y014934D02*
X008001Y014934D01*
X008001Y015093D02*
X000660Y015093D01*
X000660Y015251D02*
X008001Y015251D01*
X008001Y015410D02*
X000660Y015410D01*
X000660Y015568D02*
X008001Y015568D01*
X008014Y015727D02*
X000660Y015727D01*
X000660Y015885D02*
X008088Y015885D01*
X008133Y016044D02*
X000660Y016044D01*
X000660Y016202D02*
X008326Y016202D01*
X008569Y016202D02*
X009120Y016202D01*
X008961Y016044D02*
X008763Y016044D01*
X007478Y014300D02*
X000660Y014300D01*
X000660Y016361D02*
X027259Y016361D01*
X027259Y016519D02*
X000660Y016519D01*
X000660Y016678D02*
X001135Y016678D01*
X000865Y016836D02*
X000660Y016836D01*
X000660Y016995D02*
X000707Y016995D01*
X001981Y016678D02*
X026135Y016678D01*
X025865Y016836D02*
X002250Y016836D01*
X002409Y016995D02*
X025707Y016995D01*
X025600Y017153D02*
X002516Y017153D01*
X002599Y017312D02*
X025517Y017312D01*
X025474Y017470D02*
X002642Y017470D01*
X002668Y017629D02*
X025448Y017629D01*
X025448Y017787D02*
X002668Y017787D01*
X002645Y017946D02*
X025471Y017946D01*
X025514Y018104D02*
X002602Y018104D01*
X002522Y018263D02*
X025593Y018263D01*
X027250Y016836D02*
X027259Y016836D01*
X027259Y016678D02*
X026981Y016678D01*
X027259Y016202D02*
X018484Y016202D01*
X018643Y016044D02*
X027259Y016044D01*
X027259Y015885D02*
X018801Y015885D01*
X018960Y015727D02*
X027259Y015727D01*
X027259Y015568D02*
X019118Y015568D01*
X019277Y015410D02*
X027259Y015410D01*
X027259Y015251D02*
X019435Y015251D01*
X019594Y015093D02*
X027259Y015093D01*
X027259Y014934D02*
X019752Y014934D01*
X019911Y014776D02*
X027259Y014776D01*
X027259Y014617D02*
X020069Y014617D01*
X020228Y014459D02*
X027259Y014459D01*
X027259Y014300D02*
X020386Y014300D01*
X020545Y014142D02*
X027259Y014142D01*
X011327Y005424D02*
X010916Y005424D01*
X010899Y005583D02*
X010757Y005583D01*
X004745Y004949D02*
X004197Y004949D01*
X004307Y005107D02*
X004636Y005107D01*
X004601Y005266D02*
X004342Y005266D01*
X004322Y005424D02*
X004621Y005424D01*
X004708Y005583D02*
X004235Y005583D01*
X006296Y010972D02*
X006322Y010972D01*
X006637Y010972D02*
X007109Y010972D01*
X010566Y013983D02*
X010685Y013983D01*
M02*
