G75*
G70*
%OFA0B0*%
%FSLAX24Y24*%
%IPPOS*%
%LPD*%
%AMOC8*
5,1,8,0,0,1.08239X$1,22.5*
%
%ADD10C,0.0000*%
D10*
X000180Y000194D02*
X000180Y018894D01*
X027739Y018894D01*
X027739Y000194D01*
X000180Y000194D01*
X000731Y001375D02*
X000733Y001425D01*
X000739Y001475D01*
X000749Y001524D01*
X000763Y001572D01*
X000780Y001619D01*
X000801Y001664D01*
X000826Y001708D01*
X000854Y001749D01*
X000886Y001788D01*
X000920Y001825D01*
X000957Y001859D01*
X000997Y001889D01*
X001039Y001916D01*
X001083Y001940D01*
X001129Y001961D01*
X001176Y001977D01*
X001224Y001990D01*
X001274Y001999D01*
X001323Y002004D01*
X001374Y002005D01*
X001424Y002002D01*
X001473Y001995D01*
X001522Y001984D01*
X001570Y001969D01*
X001616Y001951D01*
X001661Y001929D01*
X001704Y001903D01*
X001745Y001874D01*
X001784Y001842D01*
X001820Y001807D01*
X001852Y001769D01*
X001882Y001729D01*
X001909Y001686D01*
X001932Y001642D01*
X001951Y001596D01*
X001967Y001548D01*
X001979Y001499D01*
X001987Y001450D01*
X001991Y001400D01*
X001991Y001350D01*
X001987Y001300D01*
X001979Y001251D01*
X001967Y001202D01*
X001951Y001154D01*
X001932Y001108D01*
X001909Y001064D01*
X001882Y001021D01*
X001852Y000981D01*
X001820Y000943D01*
X001784Y000908D01*
X001745Y000876D01*
X001704Y000847D01*
X001661Y000821D01*
X001616Y000799D01*
X001570Y000781D01*
X001522Y000766D01*
X001473Y000755D01*
X001424Y000748D01*
X001374Y000745D01*
X001323Y000746D01*
X001274Y000751D01*
X001224Y000760D01*
X001176Y000773D01*
X001129Y000789D01*
X001083Y000810D01*
X001039Y000834D01*
X000997Y000861D01*
X000957Y000891D01*
X000920Y000925D01*
X000886Y000962D01*
X000854Y001001D01*
X000826Y001042D01*
X000801Y001086D01*
X000780Y001131D01*
X000763Y001178D01*
X000749Y001226D01*
X000739Y001275D01*
X000733Y001325D01*
X000731Y001375D01*
X001589Y004694D02*
X001591Y004742D01*
X001597Y004790D01*
X001607Y004837D01*
X001620Y004883D01*
X001638Y004928D01*
X001658Y004972D01*
X001683Y005014D01*
X001711Y005053D01*
X001741Y005090D01*
X001775Y005124D01*
X001812Y005156D01*
X001850Y005185D01*
X001891Y005210D01*
X001934Y005232D01*
X001979Y005250D01*
X002025Y005264D01*
X002072Y005275D01*
X002120Y005282D01*
X002168Y005285D01*
X002216Y005284D01*
X002264Y005279D01*
X002312Y005270D01*
X002358Y005258D01*
X002403Y005241D01*
X002447Y005221D01*
X002489Y005198D01*
X002529Y005171D01*
X002567Y005141D01*
X002602Y005108D01*
X002634Y005072D01*
X002664Y005034D01*
X002690Y004993D01*
X002712Y004950D01*
X002732Y004906D01*
X002747Y004861D01*
X002759Y004814D01*
X002767Y004766D01*
X002771Y004718D01*
X002771Y004670D01*
X002767Y004622D01*
X002759Y004574D01*
X002747Y004527D01*
X002732Y004482D01*
X002712Y004438D01*
X002690Y004395D01*
X002664Y004354D01*
X002634Y004316D01*
X002602Y004280D01*
X002567Y004247D01*
X002529Y004217D01*
X002489Y004190D01*
X002447Y004167D01*
X002403Y004147D01*
X002358Y004130D01*
X002312Y004118D01*
X002264Y004109D01*
X002216Y004104D01*
X002168Y004103D01*
X002120Y004106D01*
X002072Y004113D01*
X002025Y004124D01*
X001979Y004138D01*
X001934Y004156D01*
X001891Y004178D01*
X001850Y004203D01*
X001812Y004232D01*
X001775Y004264D01*
X001741Y004298D01*
X001711Y004335D01*
X001683Y004374D01*
X001658Y004416D01*
X001638Y004460D01*
X001620Y004505D01*
X001607Y004551D01*
X001597Y004598D01*
X001591Y004646D01*
X001589Y004694D01*
X011755Y009052D02*
X011757Y009102D01*
X011763Y009152D01*
X011773Y009201D01*
X011787Y009249D01*
X011804Y009296D01*
X011825Y009341D01*
X011850Y009385D01*
X011878Y009426D01*
X011910Y009465D01*
X011944Y009502D01*
X011981Y009536D01*
X012021Y009566D01*
X012063Y009593D01*
X012107Y009617D01*
X012153Y009638D01*
X012200Y009654D01*
X012248Y009667D01*
X012298Y009676D01*
X012347Y009681D01*
X012398Y009682D01*
X012448Y009679D01*
X012497Y009672D01*
X012546Y009661D01*
X012594Y009646D01*
X012640Y009628D01*
X012685Y009606D01*
X012728Y009580D01*
X012769Y009551D01*
X012808Y009519D01*
X012844Y009484D01*
X012876Y009446D01*
X012906Y009406D01*
X012933Y009363D01*
X012956Y009319D01*
X012975Y009273D01*
X012991Y009225D01*
X013003Y009176D01*
X013011Y009127D01*
X013015Y009077D01*
X013015Y009027D01*
X013011Y008977D01*
X013003Y008928D01*
X012991Y008879D01*
X012975Y008831D01*
X012956Y008785D01*
X012933Y008741D01*
X012906Y008698D01*
X012876Y008658D01*
X012844Y008620D01*
X012808Y008585D01*
X012769Y008553D01*
X012728Y008524D01*
X012685Y008498D01*
X012640Y008476D01*
X012594Y008458D01*
X012546Y008443D01*
X012497Y008432D01*
X012448Y008425D01*
X012398Y008422D01*
X012347Y008423D01*
X012298Y008428D01*
X012248Y008437D01*
X012200Y008450D01*
X012153Y008466D01*
X012107Y008487D01*
X012063Y008511D01*
X012021Y008538D01*
X011981Y008568D01*
X011944Y008602D01*
X011910Y008639D01*
X011878Y008678D01*
X011850Y008719D01*
X011825Y008763D01*
X011804Y008808D01*
X011787Y008855D01*
X011773Y008903D01*
X011763Y008952D01*
X011757Y009002D01*
X011755Y009052D01*
X000928Y017713D02*
X000930Y017763D01*
X000936Y017813D01*
X000946Y017862D01*
X000960Y017910D01*
X000977Y017957D01*
X000998Y018002D01*
X001023Y018046D01*
X001051Y018087D01*
X001083Y018126D01*
X001117Y018163D01*
X001154Y018197D01*
X001194Y018227D01*
X001236Y018254D01*
X001280Y018278D01*
X001326Y018299D01*
X001373Y018315D01*
X001421Y018328D01*
X001471Y018337D01*
X001520Y018342D01*
X001571Y018343D01*
X001621Y018340D01*
X001670Y018333D01*
X001719Y018322D01*
X001767Y018307D01*
X001813Y018289D01*
X001858Y018267D01*
X001901Y018241D01*
X001942Y018212D01*
X001981Y018180D01*
X002017Y018145D01*
X002049Y018107D01*
X002079Y018067D01*
X002106Y018024D01*
X002129Y017980D01*
X002148Y017934D01*
X002164Y017886D01*
X002176Y017837D01*
X002184Y017788D01*
X002188Y017738D01*
X002188Y017688D01*
X002184Y017638D01*
X002176Y017589D01*
X002164Y017540D01*
X002148Y017492D01*
X002129Y017446D01*
X002106Y017402D01*
X002079Y017359D01*
X002049Y017319D01*
X002017Y017281D01*
X001981Y017246D01*
X001942Y017214D01*
X001901Y017185D01*
X001858Y017159D01*
X001813Y017137D01*
X001767Y017119D01*
X001719Y017104D01*
X001670Y017093D01*
X001621Y017086D01*
X001571Y017083D01*
X001520Y017084D01*
X001471Y017089D01*
X001421Y017098D01*
X001373Y017111D01*
X001326Y017127D01*
X001280Y017148D01*
X001236Y017172D01*
X001194Y017199D01*
X001154Y017229D01*
X001117Y017263D01*
X001083Y017300D01*
X001051Y017339D01*
X001023Y017380D01*
X000998Y017424D01*
X000977Y017469D01*
X000960Y017516D01*
X000946Y017564D01*
X000936Y017613D01*
X000930Y017663D01*
X000928Y017713D01*
X025286Y008678D02*
X025288Y008726D01*
X025294Y008774D01*
X025304Y008821D01*
X025317Y008867D01*
X025335Y008912D01*
X025355Y008956D01*
X025380Y008998D01*
X025408Y009037D01*
X025438Y009074D01*
X025472Y009108D01*
X025509Y009140D01*
X025547Y009169D01*
X025588Y009194D01*
X025631Y009216D01*
X025676Y009234D01*
X025722Y009248D01*
X025769Y009259D01*
X025817Y009266D01*
X025865Y009269D01*
X025913Y009268D01*
X025961Y009263D01*
X026009Y009254D01*
X026055Y009242D01*
X026100Y009225D01*
X026144Y009205D01*
X026186Y009182D01*
X026226Y009155D01*
X026264Y009125D01*
X026299Y009092D01*
X026331Y009056D01*
X026361Y009018D01*
X026387Y008977D01*
X026409Y008934D01*
X026429Y008890D01*
X026444Y008845D01*
X026456Y008798D01*
X026464Y008750D01*
X026468Y008702D01*
X026468Y008654D01*
X026464Y008606D01*
X026456Y008558D01*
X026444Y008511D01*
X026429Y008466D01*
X026409Y008422D01*
X026387Y008379D01*
X026361Y008338D01*
X026331Y008300D01*
X026299Y008264D01*
X026264Y008231D01*
X026226Y008201D01*
X026186Y008174D01*
X026144Y008151D01*
X026100Y008131D01*
X026055Y008114D01*
X026009Y008102D01*
X025961Y008093D01*
X025913Y008088D01*
X025865Y008087D01*
X025817Y008090D01*
X025769Y008097D01*
X025722Y008108D01*
X025676Y008122D01*
X025631Y008140D01*
X025588Y008162D01*
X025547Y008187D01*
X025509Y008216D01*
X025472Y008248D01*
X025438Y008282D01*
X025408Y008319D01*
X025380Y008358D01*
X025355Y008400D01*
X025335Y008444D01*
X025317Y008489D01*
X025304Y008535D01*
X025294Y008582D01*
X025288Y008630D01*
X025286Y008678D01*
X025928Y001769D02*
X025930Y001819D01*
X025936Y001869D01*
X025946Y001918D01*
X025960Y001966D01*
X025977Y002013D01*
X025998Y002058D01*
X026023Y002102D01*
X026051Y002143D01*
X026083Y002182D01*
X026117Y002219D01*
X026154Y002253D01*
X026194Y002283D01*
X026236Y002310D01*
X026280Y002334D01*
X026326Y002355D01*
X026373Y002371D01*
X026421Y002384D01*
X026471Y002393D01*
X026520Y002398D01*
X026571Y002399D01*
X026621Y002396D01*
X026670Y002389D01*
X026719Y002378D01*
X026767Y002363D01*
X026813Y002345D01*
X026858Y002323D01*
X026901Y002297D01*
X026942Y002268D01*
X026981Y002236D01*
X027017Y002201D01*
X027049Y002163D01*
X027079Y002123D01*
X027106Y002080D01*
X027129Y002036D01*
X027148Y001990D01*
X027164Y001942D01*
X027176Y001893D01*
X027184Y001844D01*
X027188Y001794D01*
X027188Y001744D01*
X027184Y001694D01*
X027176Y001645D01*
X027164Y001596D01*
X027148Y001548D01*
X027129Y001502D01*
X027106Y001458D01*
X027079Y001415D01*
X027049Y001375D01*
X027017Y001337D01*
X026981Y001302D01*
X026942Y001270D01*
X026901Y001241D01*
X026858Y001215D01*
X026813Y001193D01*
X026767Y001175D01*
X026719Y001160D01*
X026670Y001149D01*
X026621Y001142D01*
X026571Y001139D01*
X026520Y001140D01*
X026471Y001145D01*
X026421Y001154D01*
X026373Y001167D01*
X026326Y001183D01*
X026280Y001204D01*
X026236Y001228D01*
X026194Y001255D01*
X026154Y001285D01*
X026117Y001319D01*
X026083Y001356D01*
X026051Y001395D01*
X026023Y001436D01*
X025998Y001480D01*
X025977Y001525D01*
X025960Y001572D01*
X025946Y001620D01*
X025936Y001669D01*
X025930Y001719D01*
X025928Y001769D01*
X025928Y017713D02*
X025930Y017763D01*
X025936Y017813D01*
X025946Y017862D01*
X025960Y017910D01*
X025977Y017957D01*
X025998Y018002D01*
X026023Y018046D01*
X026051Y018087D01*
X026083Y018126D01*
X026117Y018163D01*
X026154Y018197D01*
X026194Y018227D01*
X026236Y018254D01*
X026280Y018278D01*
X026326Y018299D01*
X026373Y018315D01*
X026421Y018328D01*
X026471Y018337D01*
X026520Y018342D01*
X026571Y018343D01*
X026621Y018340D01*
X026670Y018333D01*
X026719Y018322D01*
X026767Y018307D01*
X026813Y018289D01*
X026858Y018267D01*
X026901Y018241D01*
X026942Y018212D01*
X026981Y018180D01*
X027017Y018145D01*
X027049Y018107D01*
X027079Y018067D01*
X027106Y018024D01*
X027129Y017980D01*
X027148Y017934D01*
X027164Y017886D01*
X027176Y017837D01*
X027184Y017788D01*
X027188Y017738D01*
X027188Y017688D01*
X027184Y017638D01*
X027176Y017589D01*
X027164Y017540D01*
X027148Y017492D01*
X027129Y017446D01*
X027106Y017402D01*
X027079Y017359D01*
X027049Y017319D01*
X027017Y017281D01*
X026981Y017246D01*
X026942Y017214D01*
X026901Y017185D01*
X026858Y017159D01*
X026813Y017137D01*
X026767Y017119D01*
X026719Y017104D01*
X026670Y017093D01*
X026621Y017086D01*
X026571Y017083D01*
X026520Y017084D01*
X026471Y017089D01*
X026421Y017098D01*
X026373Y017111D01*
X026326Y017127D01*
X026280Y017148D01*
X026236Y017172D01*
X026194Y017199D01*
X026154Y017229D01*
X026117Y017263D01*
X026083Y017300D01*
X026051Y017339D01*
X026023Y017380D01*
X025998Y017424D01*
X025977Y017469D01*
X025960Y017516D01*
X025946Y017564D01*
X025936Y017613D01*
X025930Y017663D01*
X025928Y017713D01*
M02*
