G75*
G70*
%OFA0B0*%
%FSLAX24Y24*%
%IPPOS*%
%LPD*%
%AMOC8*
5,1,8,0,0,1.08239X$1,22.5*
%
%ADD10C,0.0051*%
%ADD11C,0.0060*%
%ADD12R,0.0580X0.0140*%
%ADD13R,0.0520X0.0220*%
%ADD14R,0.1181X0.1102*%
%ADD15R,0.0433X0.0394*%
%ADD16R,0.0570X0.0360*%
%ADD17R,0.0780X0.0220*%
%ADD18R,0.0598X0.0472*%
%ADD19R,0.0472X0.0598*%
%ADD20R,0.0630X0.0210*%
%ADD21R,0.0900X0.0900*%
%ADD22R,0.0630X0.0709*%
%ADD23R,0.0394X0.0433*%
%ADD24R,0.0512X0.0591*%
%ADD25C,0.0660*%
%ADD26OC8,0.0520*%
%ADD27R,0.0602X0.0602*%
%ADD28C,0.0602*%
%ADD29R,0.0598X0.1260*%
%ADD30R,0.0276X0.0354*%
%ADD31C,0.0320*%
%ADD32C,0.0100*%
%ADD33C,0.0300*%
%ADD34C,0.0400*%
D10*
X000260Y000126D02*
X000260Y001681D01*
X000260Y000893D02*
X001284Y000996D01*
X001284Y001019D02*
X001284Y000768D01*
X000260Y000893D01*
X001284Y000791D01*
X001284Y000842D02*
X000260Y000893D01*
X001284Y000944D01*
X001284Y001019D02*
X000260Y000893D01*
X027819Y000893D01*
X026795Y000791D01*
X026795Y000768D02*
X027819Y000893D01*
X026795Y000996D01*
X026795Y001019D02*
X026795Y000768D01*
X026795Y000842D02*
X027819Y000893D01*
X026795Y000944D01*
X026795Y001019D02*
X027819Y000893D01*
X027819Y000126D02*
X027819Y001681D01*
X030752Y001681D01*
X029984Y001681D02*
X030087Y002704D01*
X030110Y002704D02*
X029984Y001681D01*
X029882Y002704D01*
X029859Y002704D02*
X030110Y002704D01*
X030036Y002704D02*
X029984Y001681D01*
X029933Y002704D01*
X029859Y002704D02*
X029984Y001681D01*
X029984Y017822D01*
X030087Y016799D01*
X030110Y016799D02*
X029984Y017822D01*
X029882Y016799D01*
X029859Y016799D02*
X030110Y016799D01*
X030036Y016799D02*
X029984Y017822D01*
X029933Y016799D01*
X029859Y016799D02*
X029984Y017822D01*
X030752Y017822D02*
X027819Y017822D01*
D11*
X029728Y010294D02*
X029728Y009867D01*
X029728Y010081D02*
X029088Y010081D01*
X029301Y009867D01*
X029408Y009650D02*
X029408Y009223D01*
X029088Y009543D01*
X029728Y009543D01*
X014582Y001683D02*
X014582Y001256D01*
X014476Y001149D01*
X014262Y001149D01*
X014155Y001256D01*
X014582Y001683D01*
X014476Y001790D01*
X014262Y001790D01*
X014155Y001683D01*
X014155Y001256D01*
X013938Y001683D02*
X013511Y001256D01*
X013511Y001149D01*
X013511Y001790D02*
X013938Y001790D01*
X013938Y001683D01*
D12*
X009410Y009521D03*
X009410Y009771D03*
X009410Y010031D03*
X009410Y010281D03*
X009410Y010541D03*
X009410Y010801D03*
X009410Y011051D03*
X009410Y011311D03*
X009410Y011561D03*
X009410Y011821D03*
X009410Y012081D03*
X009410Y012331D03*
X009410Y012591D03*
X009410Y012841D03*
X007110Y012841D03*
X007110Y012591D03*
X007110Y012331D03*
X007110Y012081D03*
X007110Y011821D03*
X007110Y011561D03*
X007110Y011311D03*
X007110Y011051D03*
X007110Y010801D03*
X007110Y010541D03*
X007110Y010281D03*
X007110Y010031D03*
X007110Y009771D03*
X007110Y009521D03*
D13*
X013720Y009551D03*
X013720Y009181D03*
X013720Y008811D03*
X014800Y008811D03*
X014800Y009551D03*
X014800Y013311D03*
X013720Y013311D03*
X013720Y013681D03*
X013720Y014051D03*
X014800Y014051D03*
X014800Y004551D03*
X013720Y004551D03*
X013720Y004181D03*
X013720Y003811D03*
X014800Y003811D03*
D14*
X017232Y004681D03*
X021288Y004681D03*
X021288Y009181D03*
X017232Y009181D03*
X017232Y013681D03*
X021288Y013681D03*
D15*
X015760Y014015D03*
X015760Y013346D03*
X015760Y009515D03*
X015760Y008846D03*
X015760Y004515D03*
X015760Y003846D03*
X005595Y011681D03*
X004925Y011681D03*
X004595Y014681D03*
X003925Y014681D03*
D16*
X011260Y014001D03*
X011260Y013361D03*
X011260Y009501D03*
X011260Y008861D03*
X011366Y004501D03*
X011366Y003861D03*
D17*
X008730Y003931D03*
X008730Y004431D03*
X008730Y004931D03*
X008730Y005431D03*
X006790Y005431D03*
X006790Y004931D03*
X006790Y004431D03*
X006790Y003931D03*
D18*
X005240Y004551D03*
X005240Y002850D03*
D19*
X004091Y003161D03*
X002390Y003161D03*
D20*
X001710Y010931D03*
X001710Y011431D03*
X001710Y011931D03*
X001710Y012431D03*
X003810Y012431D03*
X003810Y011931D03*
X003810Y011431D03*
X003810Y010931D03*
D21*
X002760Y011681D03*
D22*
X002811Y014681D03*
X001709Y014681D03*
D23*
X003512Y013212D03*
X004181Y013212D03*
X005055Y013212D03*
X005725Y013212D03*
D24*
X005595Y010681D03*
X004925Y010681D03*
D25*
X005260Y009074D03*
X001260Y009074D03*
D26*
X006260Y007681D03*
X006260Y006681D03*
X009260Y006681D03*
X009260Y007681D03*
D27*
X003961Y005590D03*
X024059Y010362D03*
D28*
X022878Y010362D03*
X022878Y009181D03*
X024059Y009181D03*
X024059Y008000D03*
X022878Y008000D03*
X005142Y006771D03*
X003961Y006771D03*
X005142Y005590D03*
D29*
X011299Y006173D03*
X013748Y006173D03*
X013642Y011673D03*
X011193Y011673D03*
X011193Y016173D03*
X013642Y016173D03*
D30*
X009213Y015181D03*
X008701Y015181D03*
X008701Y014681D03*
X009213Y014681D03*
X009213Y014181D03*
X008701Y014181D03*
X007516Y014181D03*
X007004Y014181D03*
X007004Y014681D03*
X007004Y015181D03*
X007516Y015181D03*
X007516Y014681D03*
D31*
X007004Y014681D02*
X007004Y015181D01*
X007004Y015618D01*
X006841Y015618D01*
X006790Y015608D01*
X006743Y015588D01*
X006701Y015560D01*
X006664Y015524D01*
X006636Y015481D01*
X006616Y015434D01*
X006606Y015383D01*
X006606Y015181D01*
X007004Y015181D01*
X007004Y015181D01*
X007004Y015618D01*
X007167Y015618D01*
X007218Y015608D01*
X007265Y015588D01*
X007281Y015577D01*
X007330Y015598D01*
X007701Y015598D01*
X007790Y015561D01*
X007798Y015553D01*
X008419Y015553D01*
X008427Y015561D01*
X008515Y015598D01*
X008886Y015598D01*
X008957Y015569D01*
X009027Y015598D01*
X009398Y015598D01*
X009486Y015561D01*
X009554Y015494D01*
X009591Y015406D01*
X009591Y015159D01*
X009605Y015124D01*
X009605Y015116D01*
X009608Y015108D01*
X009605Y015059D01*
X009605Y014719D01*
X009609Y014708D01*
X009605Y014662D01*
X009605Y014334D01*
X009606Y014331D01*
X009605Y014276D01*
X009605Y014221D01*
X009604Y014219D01*
X009604Y014216D01*
X009591Y014185D01*
X009591Y014176D01*
X009604Y014146D01*
X009604Y014143D01*
X009605Y014140D01*
X009605Y014085D01*
X009606Y014030D01*
X009605Y014028D01*
X009605Y013151D01*
X009748Y013151D01*
X009836Y013114D01*
X009903Y013047D01*
X009940Y012958D01*
X009940Y012723D01*
X009937Y012716D01*
X009940Y012708D01*
X009940Y012601D01*
X009963Y012601D01*
X010070Y012556D01*
X010152Y012475D01*
X010196Y012368D01*
X010196Y005757D01*
X010152Y005650D01*
X009360Y004859D01*
X009360Y004773D01*
X009323Y004685D01*
X009319Y004681D01*
X009323Y004677D01*
X009360Y004588D01*
X009360Y004273D01*
X009323Y004185D01*
X009319Y004181D01*
X009323Y004177D01*
X009360Y004088D01*
X009360Y003773D01*
X009323Y003685D01*
X009256Y003617D01*
X009168Y003581D01*
X009039Y003581D01*
X009029Y003577D01*
X008979Y003556D01*
X008976Y003556D01*
X008972Y003555D01*
X008918Y003556D01*
X008864Y003556D01*
X008860Y003557D01*
X008857Y003558D01*
X008822Y003573D01*
X008782Y003556D01*
X008773Y003556D01*
X008764Y003553D01*
X008715Y003556D01*
X007664Y003556D01*
X007592Y003485D01*
X007511Y003403D01*
X007404Y003359D01*
X005320Y003359D01*
X005214Y003403D01*
X004230Y004388D01*
X004148Y004469D01*
X004104Y004576D01*
X004104Y005029D01*
X003961Y005029D01*
X003961Y005590D01*
X003961Y005590D01*
X003961Y005029D01*
X003634Y005029D01*
X003584Y005039D01*
X003536Y005059D01*
X003494Y005087D01*
X003458Y005123D01*
X003429Y005166D01*
X003410Y005213D01*
X003400Y005263D01*
X003400Y005590D01*
X003961Y005590D01*
X003961Y005590D01*
X003961Y006151D01*
X004041Y006151D01*
X003962Y006230D01*
X003853Y006230D01*
X003654Y006312D01*
X003502Y006465D01*
X003420Y006664D01*
X003420Y006879D01*
X003502Y007078D01*
X003654Y007230D01*
X003853Y007312D01*
X004068Y007312D01*
X004267Y007230D01*
X004420Y007078D01*
X004502Y006879D01*
X004502Y006664D01*
X004457Y006555D01*
X004640Y006373D01*
X004684Y006266D01*
X004684Y005897D01*
X004835Y006049D01*
X005034Y006131D01*
X005250Y006131D01*
X005448Y006049D01*
X005601Y005897D01*
X005683Y005698D01*
X005683Y005483D01*
X005601Y005284D01*
X005471Y005154D01*
X005471Y005027D01*
X005587Y005027D01*
X005675Y004990D01*
X005743Y004923D01*
X005780Y004835D01*
X005780Y004727D01*
X006179Y004727D01*
X006160Y004773D01*
X006160Y005088D01*
X006197Y005177D01*
X006201Y005181D01*
X006197Y005185D01*
X006160Y005273D01*
X006160Y005588D01*
X006197Y005677D01*
X006264Y005744D01*
X006352Y005781D01*
X006466Y005781D01*
X006466Y006088D01*
X006373Y006181D01*
X006053Y006181D01*
X005760Y006474D01*
X005760Y006888D01*
X006053Y007181D01*
X006467Y007181D01*
X006583Y007296D01*
X007014Y007296D01*
X007097Y007213D01*
X007259Y007146D01*
X007434Y007146D01*
X007596Y007213D01*
X007720Y007337D01*
X007784Y007493D01*
X008760Y007493D01*
X008760Y007474D01*
X009025Y007208D01*
X009025Y007153D01*
X008760Y006888D01*
X008760Y006654D01*
X008676Y006569D01*
X008631Y006463D01*
X008631Y005781D01*
X008292Y005781D01*
X008204Y005744D01*
X008137Y005677D01*
X008100Y005588D01*
X008100Y005273D01*
X008137Y005185D01*
X008141Y005181D01*
X008137Y005177D01*
X008100Y005088D01*
X008100Y004773D01*
X008137Y004685D01*
X008141Y004681D01*
X008137Y004677D01*
X008100Y004588D01*
X008100Y004273D01*
X008137Y004185D01*
X008141Y004181D01*
X008137Y004177D01*
X008120Y004136D01*
X007486Y004136D01*
X007431Y004113D01*
X007430Y004117D01*
X007410Y004164D01*
X007388Y004197D01*
X007420Y004273D01*
X007420Y004588D01*
X007383Y004677D01*
X007379Y004681D01*
X007383Y004685D01*
X007420Y004773D01*
X007420Y005088D01*
X007383Y005177D01*
X007379Y005181D01*
X007383Y005185D01*
X007420Y005273D01*
X007420Y005588D01*
X007383Y005677D01*
X007316Y005744D01*
X007228Y005781D01*
X007046Y005781D01*
X007046Y006266D01*
X007002Y006373D01*
X006760Y006614D01*
X006760Y006888D01*
X006467Y007181D01*
X006053Y007181D01*
X005760Y007474D01*
X005760Y007888D01*
X006053Y008181D01*
X006467Y008181D01*
X006760Y007888D01*
X006760Y007876D01*
X007014Y007876D01*
X007097Y007959D01*
X007137Y007976D01*
X005762Y009351D01*
X005830Y009188D01*
X005830Y008961D01*
X005743Y008752D01*
X005583Y008591D01*
X005571Y008586D01*
X005571Y007107D01*
X005601Y007078D01*
X005683Y006879D01*
X005683Y006664D01*
X005601Y006465D01*
X005448Y006312D01*
X005250Y006230D01*
X005034Y006230D01*
X004835Y006312D01*
X004683Y006465D01*
X004601Y006664D01*
X004601Y006879D01*
X004683Y007078D01*
X004791Y007186D01*
X004791Y008737D01*
X004777Y008752D01*
X004690Y008961D01*
X004690Y009188D01*
X004777Y009397D01*
X004937Y009558D01*
X005147Y009644D01*
X005373Y009644D01*
X005536Y009577D01*
X004968Y010145D01*
X004622Y010145D01*
X004533Y010182D01*
X004466Y010249D01*
X004429Y010338D01*
X004429Y010643D01*
X004281Y010643D01*
X004261Y010622D01*
X004173Y010586D01*
X003447Y010586D01*
X003359Y010622D01*
X003292Y010690D01*
X003255Y010778D01*
X003255Y010975D01*
X003236Y010971D01*
X002825Y010971D01*
X002825Y011616D01*
X002695Y011616D01*
X002695Y010971D01*
X002284Y010971D01*
X002265Y010975D01*
X002265Y010778D01*
X002228Y010690D01*
X002161Y010622D01*
X002073Y010586D01*
X002028Y010586D01*
X002028Y009280D01*
X001969Y009137D01*
X001830Y008998D01*
X001830Y008961D01*
X001743Y008752D01*
X001583Y008591D01*
X001373Y008504D01*
X001147Y008504D01*
X000937Y008591D01*
X000820Y008708D01*
X000820Y003877D01*
X000982Y003971D01*
X001284Y004052D01*
X001598Y004052D01*
X001900Y003971D01*
X002172Y003814D01*
X002285Y003700D01*
X002674Y003700D01*
X002762Y003664D01*
X002830Y003596D01*
X002866Y003508D01*
X002866Y002814D01*
X002830Y002726D01*
X002762Y002658D01*
X002674Y002622D01*
X002609Y002622D01*
X002550Y002403D01*
X002457Y002241D01*
X013098Y002241D01*
X013108Y002249D01*
X013131Y002263D01*
X013155Y002275D01*
X013181Y002284D01*
X013207Y002290D01*
X013234Y002293D01*
X014845Y002293D01*
X014872Y002290D01*
X014898Y002284D01*
X014924Y002275D01*
X014948Y002263D01*
X014971Y002249D01*
X014981Y002241D01*
X026016Y002241D01*
X025907Y002303D01*
X025686Y002525D01*
X025529Y002796D01*
X025448Y003099D01*
X025448Y003412D01*
X025529Y003715D01*
X025686Y003986D01*
X025907Y004208D01*
X026179Y004364D01*
X026481Y004445D01*
X026795Y004445D01*
X027097Y004364D01*
X027259Y004271D01*
X027259Y015626D01*
X027097Y015533D01*
X026795Y015451D01*
X026481Y015451D01*
X026179Y015533D01*
X025907Y015689D01*
X025686Y015911D01*
X025529Y016182D01*
X025448Y016485D01*
X025448Y016798D01*
X025529Y017101D01*
X025623Y017262D01*
X002457Y017262D01*
X002550Y017101D01*
X002631Y016798D01*
X002631Y016485D01*
X002550Y016182D01*
X002488Y016074D01*
X002685Y016272D01*
X002795Y016381D01*
X002938Y016441D01*
X010654Y016441D01*
X010654Y016850D01*
X010690Y016939D01*
X010758Y017006D01*
X010846Y017043D01*
X011540Y017043D01*
X011628Y017006D01*
X011696Y016939D01*
X011732Y016850D01*
X011732Y015495D01*
X011696Y015407D01*
X011674Y015385D01*
X011674Y014866D01*
X012662Y014866D01*
X012615Y014979D01*
X012615Y015154D01*
X012682Y015316D01*
X012765Y015399D01*
X012765Y015715D01*
X012809Y015821D01*
X013103Y016115D01*
X013103Y016850D01*
X013139Y016939D01*
X013207Y017006D01*
X013295Y017043D01*
X013989Y017043D01*
X014077Y017006D01*
X014145Y016939D01*
X014181Y016850D01*
X014181Y016341D01*
X014491Y016341D01*
X014598Y016297D01*
X014679Y016215D01*
X014679Y016215D01*
X016482Y014412D01*
X016506Y014435D01*
X016594Y014472D01*
X017871Y014472D01*
X017959Y014435D01*
X018026Y014368D01*
X018063Y014280D01*
X018063Y013082D01*
X018026Y012994D01*
X017959Y012926D01*
X017871Y012890D01*
X016627Y012890D01*
X019521Y009995D01*
X019639Y009995D01*
X019801Y009928D01*
X019924Y009804D01*
X019941Y009764D01*
X020290Y010113D01*
X020371Y010194D01*
X020478Y010238D01*
X022343Y010238D01*
X022337Y010254D01*
X022337Y010469D01*
X022344Y010486D01*
X021077Y011753D01*
X021033Y011859D01*
X021033Y012890D01*
X020649Y012890D01*
X020561Y012926D01*
X020494Y012994D01*
X020457Y013082D01*
X020457Y014280D01*
X020494Y014368D01*
X020561Y014435D01*
X020649Y014472D01*
X021926Y014472D01*
X022014Y014435D01*
X022082Y014368D01*
X022118Y014280D01*
X022118Y013082D01*
X022082Y012994D01*
X022014Y012926D01*
X021926Y012890D01*
X021613Y012890D01*
X021613Y012037D01*
X022754Y010896D01*
X022770Y010903D01*
X022986Y010903D01*
X023185Y010821D01*
X023337Y010668D01*
X023419Y010469D01*
X023419Y010289D01*
X023518Y010388D01*
X023518Y010711D01*
X023555Y010799D01*
X023622Y010866D01*
X023710Y010903D01*
X024408Y010903D01*
X024496Y010866D01*
X024564Y010799D01*
X024600Y010711D01*
X024600Y010013D01*
X024564Y009925D01*
X024496Y009857D01*
X024408Y009821D01*
X023771Y009821D01*
X023456Y009506D01*
X023349Y009462D01*
X023348Y009462D01*
X023419Y009288D01*
X023419Y009108D01*
X023518Y009207D01*
X023518Y009288D01*
X023600Y009487D01*
X023753Y009639D01*
X023952Y009722D01*
X024167Y009722D01*
X024366Y009639D01*
X024518Y009487D01*
X024600Y009288D01*
X024600Y009073D01*
X024518Y008874D01*
X024366Y008722D01*
X024167Y008640D01*
X023952Y008640D01*
X023824Y008693D01*
X023456Y008325D01*
X023349Y008280D01*
X023348Y008280D01*
X023419Y008107D01*
X023419Y007927D01*
X023518Y008026D01*
X023518Y008107D01*
X023600Y008306D01*
X023753Y008458D01*
X023952Y008541D01*
X024167Y008541D01*
X024366Y008458D01*
X024518Y008306D01*
X024600Y008107D01*
X024600Y007892D01*
X024518Y007693D01*
X024366Y007541D01*
X024167Y007458D01*
X023952Y007458D01*
X023824Y007511D01*
X022865Y006553D01*
X022759Y006509D01*
X022639Y006509D01*
X022556Y006426D01*
X022395Y006359D01*
X022220Y006359D01*
X022058Y006426D01*
X021934Y006550D01*
X021867Y006711D01*
X021867Y006736D01*
X021613Y006482D01*
X021613Y005472D01*
X021926Y005472D01*
X022014Y005435D01*
X022082Y005368D01*
X022118Y005280D01*
X022118Y004082D01*
X022082Y003994D01*
X022014Y003926D01*
X021926Y003890D01*
X020649Y003890D01*
X020561Y003926D01*
X020494Y003994D01*
X020457Y004082D01*
X020457Y005280D01*
X020494Y005368D01*
X020561Y005435D01*
X020649Y005472D01*
X021033Y005472D01*
X021033Y006660D01*
X021054Y006710D01*
X017944Y003600D01*
X017837Y003556D01*
X016198Y003556D01*
X016180Y003513D01*
X016112Y003446D01*
X016024Y003409D01*
X015496Y003409D01*
X015408Y003446D01*
X015340Y003513D01*
X015322Y003556D01*
X015255Y003556D01*
X015196Y003497D01*
X015108Y003461D01*
X014626Y003461D01*
X014626Y003375D01*
X014567Y003231D01*
X014457Y003122D01*
X014314Y003062D01*
X012584Y003062D01*
X012441Y003122D01*
X011911Y003652D01*
X011901Y003605D01*
X011882Y003558D01*
X011853Y003515D01*
X011817Y003479D01*
X011774Y003450D01*
X011727Y003431D01*
X011677Y003421D01*
X011366Y003421D01*
X011366Y003861D01*
X011366Y003861D01*
X010821Y003861D01*
X010821Y004066D01*
X010831Y004117D01*
X010851Y004164D01*
X010873Y004197D01*
X010841Y004273D01*
X010841Y004728D01*
X010878Y004817D01*
X010894Y004832D01*
X010894Y005327D01*
X010864Y005339D01*
X010797Y005407D01*
X010760Y005495D01*
X010760Y006850D01*
X010797Y006939D01*
X010864Y007006D01*
X010952Y007043D01*
X011090Y007043D01*
X011090Y008254D01*
X011150Y008398D01*
X011173Y008421D01*
X010949Y008421D01*
X010899Y008431D01*
X010852Y008450D01*
X010809Y008479D01*
X010773Y008515D01*
X010745Y008558D01*
X010725Y008605D01*
X010715Y008655D01*
X010715Y008861D01*
X011260Y008861D01*
X011260Y008861D01*
X010715Y008861D01*
X010715Y009066D01*
X010725Y009117D01*
X010745Y009164D01*
X010767Y009197D01*
X010735Y009273D01*
X010735Y009728D01*
X010772Y009817D01*
X010839Y009884D01*
X010894Y009907D01*
X010894Y010803D01*
X010846Y010803D01*
X010758Y010839D01*
X010690Y010907D01*
X010654Y010995D01*
X010654Y012350D01*
X010690Y012439D01*
X010697Y012445D01*
X010697Y012543D01*
X010472Y012767D01*
X010362Y012877D01*
X010303Y013020D01*
X010303Y013766D01*
X010362Y013909D01*
X010763Y014310D01*
X010767Y014319D01*
X010818Y014365D01*
X010866Y014413D01*
X010875Y014417D01*
X010882Y014423D01*
X010894Y014427D01*
X010894Y015303D01*
X010846Y015303D01*
X010758Y015339D01*
X010690Y015407D01*
X010654Y015495D01*
X010654Y015661D01*
X003177Y015661D01*
X002812Y015295D01*
X003152Y015295D01*
X003202Y015285D01*
X003249Y015265D01*
X003292Y015237D01*
X003328Y015201D01*
X003357Y015158D01*
X003376Y015111D01*
X003386Y015061D01*
X003386Y014681D01*
X002811Y014681D01*
X002811Y014681D01*
X003386Y014681D01*
X003386Y014666D01*
X003469Y014748D01*
X003469Y014925D01*
X003505Y015014D01*
X003573Y015081D01*
X003661Y015118D01*
X004190Y015118D01*
X004239Y015097D01*
X004255Y015108D01*
X004302Y015128D01*
X004353Y015138D01*
X004595Y015138D01*
X004595Y014681D01*
X005071Y014681D01*
X005071Y014903D01*
X005061Y014953D01*
X005042Y015001D01*
X005013Y015043D01*
X004977Y015080D01*
X004934Y015108D01*
X004887Y015128D01*
X004837Y015138D01*
X004595Y015138D01*
X004595Y014681D01*
X004595Y014681D01*
X004595Y014681D01*
X005071Y014681D01*
X005071Y014458D01*
X005061Y014408D01*
X005042Y014361D01*
X005013Y014318D01*
X004977Y014282D01*
X004934Y014253D01*
X004887Y014234D01*
X004837Y014224D01*
X004595Y014224D01*
X004595Y014681D01*
X004595Y014681D01*
X004595Y014224D01*
X004353Y014224D01*
X004302Y014234D01*
X004255Y014253D01*
X004239Y014264D01*
X004190Y014244D01*
X003784Y014244D01*
X003259Y013718D01*
X003259Y013683D01*
X003290Y013689D01*
X003512Y013689D01*
X003512Y013212D01*
X003512Y013212D01*
X003512Y013689D01*
X003734Y013689D01*
X003785Y013679D01*
X003832Y013659D01*
X003863Y013638D01*
X003937Y013669D01*
X004151Y013669D01*
X004151Y013776D01*
X004218Y013938D01*
X004341Y014062D01*
X004503Y014129D01*
X004678Y014129D01*
X004840Y014062D01*
X004964Y013938D01*
X005031Y013776D01*
X005031Y013669D01*
X005145Y013669D01*
X005411Y013934D01*
X005517Y013979D01*
X006606Y013979D01*
X006606Y014181D01*
X007004Y014181D01*
X007004Y014618D01*
X007004Y014681D01*
X007004Y014744D01*
X007004Y015181D01*
X007004Y015181D01*
X006606Y015181D01*
X006606Y014978D01*
X006616Y014931D01*
X006606Y014883D01*
X006606Y014681D01*
X007004Y014681D01*
X007004Y014681D01*
X007004Y014681D01*
X006606Y014681D01*
X006606Y014478D01*
X006616Y014431D01*
X006606Y014383D01*
X006606Y014181D01*
X007004Y014181D01*
X007004Y014181D01*
X007004Y014681D01*
X007004Y014681D01*
X007004Y014739D02*
X007004Y014739D01*
X006606Y014739D02*
X005071Y014739D01*
X005064Y014421D02*
X006614Y014421D01*
X007004Y014421D02*
X007004Y014421D01*
X007004Y014181D02*
X007004Y014181D01*
X006606Y014102D02*
X004742Y014102D01*
X004440Y014102D02*
X003643Y014102D01*
X003324Y013784D02*
X004154Y013784D01*
X003512Y013465D02*
X003512Y013465D01*
X002437Y012731D02*
X002825Y012344D01*
X002825Y011746D01*
X002695Y011746D01*
X002695Y012391D01*
X002284Y012391D01*
X002265Y012387D01*
X002265Y012522D01*
X002281Y012528D01*
X002405Y012652D01*
X002437Y012731D01*
X002265Y012510D02*
X002659Y012510D01*
X002695Y012191D02*
X002825Y012191D01*
X002825Y011873D02*
X002695Y011873D01*
X002695Y011554D02*
X002825Y011554D01*
X002825Y011236D02*
X002695Y011236D01*
X002265Y010917D02*
X003255Y010917D01*
X003416Y010599D02*
X002104Y010599D01*
X002028Y010280D02*
X004453Y010280D01*
X004429Y010599D02*
X004204Y010599D01*
X005152Y009962D02*
X002028Y009962D01*
X002028Y009643D02*
X005144Y009643D01*
X005376Y009643D02*
X005470Y009643D01*
X005773Y009325D02*
X005789Y009325D01*
X005830Y009006D02*
X006107Y009006D01*
X006426Y008688D02*
X005679Y008688D01*
X005571Y008369D02*
X006744Y008369D01*
X006597Y008051D02*
X007063Y008051D01*
X007548Y008386D02*
X006725Y009209D01*
X006744Y009201D01*
X006794Y009191D01*
X007110Y009191D01*
X007426Y009191D01*
X007476Y009201D01*
X007523Y009220D01*
X007566Y009249D01*
X007602Y009285D01*
X007630Y009328D01*
X007650Y009375D01*
X007660Y009425D01*
X007660Y009521D01*
X007660Y009616D01*
X007650Y009667D01*
X007640Y009691D01*
X007640Y009888D01*
X007635Y009901D01*
X007640Y009913D01*
X007640Y010148D01*
X007637Y010156D01*
X007640Y010163D01*
X007640Y010398D01*
X007635Y010411D01*
X007640Y010423D01*
X007640Y010658D01*
X007635Y010671D01*
X007640Y010683D01*
X007640Y010918D01*
X007637Y010926D01*
X007640Y010933D01*
X007640Y011036D01*
X008192Y011036D01*
X008298Y011081D01*
X008380Y011162D01*
X008695Y011477D01*
X008812Y011477D01*
X008860Y011497D01*
X008860Y011465D01*
X008870Y011415D01*
X008880Y011391D01*
X008880Y011193D01*
X008885Y011181D01*
X008880Y011168D01*
X008880Y010933D01*
X008883Y010926D01*
X008880Y010918D01*
X008880Y010683D01*
X008885Y010671D01*
X008880Y010658D01*
X008880Y010423D01*
X008885Y010411D01*
X008880Y010398D01*
X008880Y010163D01*
X008883Y010156D01*
X008880Y010148D01*
X008880Y009913D01*
X008885Y009901D01*
X008880Y009888D01*
X008880Y009653D01*
X008883Y009646D01*
X008880Y009638D01*
X008880Y009403D01*
X008917Y009315D01*
X008984Y009247D01*
X009072Y009211D01*
X009616Y009211D01*
X009616Y008467D01*
X008269Y008467D01*
X008186Y008550D01*
X008025Y008617D01*
X007850Y008617D01*
X007688Y008550D01*
X007564Y008426D01*
X007548Y008386D01*
X007246Y008688D02*
X009616Y008688D01*
X009616Y009006D02*
X006927Y009006D01*
X007110Y009191D02*
X007110Y009461D01*
X007110Y009191D01*
X007110Y009325D02*
X007110Y009325D01*
X007110Y009461D02*
X007110Y009461D01*
X007559Y009521D02*
X007559Y009521D01*
X007660Y009521D01*
X007559Y009521D01*
X007655Y009643D02*
X008882Y009643D01*
X008880Y009962D02*
X007640Y009962D01*
X007640Y010280D02*
X008880Y010280D01*
X008880Y010599D02*
X007640Y010599D01*
X007640Y010917D02*
X008880Y010917D01*
X008880Y011236D02*
X008453Y011236D01*
X009410Y011621D02*
X009410Y011821D01*
X009410Y012021D01*
X009410Y012021D01*
X009410Y011821D01*
X009410Y011821D01*
X009410Y011751D01*
X009410Y011621D01*
X009410Y011621D01*
X009410Y011821D02*
X009410Y011821D01*
X009410Y011873D02*
X009410Y011873D01*
X010196Y011873D02*
X010654Y011873D01*
X010654Y012191D02*
X010196Y012191D01*
X010117Y012510D02*
X010697Y012510D01*
X010411Y012828D02*
X009940Y012828D01*
X009757Y013147D02*
X010303Y013147D01*
X010303Y013465D02*
X009605Y013465D01*
X009605Y013784D02*
X010310Y013784D01*
X010555Y014102D02*
X009605Y014102D01*
X009605Y014421D02*
X010879Y014421D01*
X010894Y014739D02*
X009605Y014739D01*
X009605Y015058D02*
X010894Y015058D01*
X010721Y015376D02*
X009591Y015376D01*
X011674Y015376D02*
X012743Y015376D01*
X012765Y015695D02*
X011732Y015695D01*
X011732Y016013D02*
X013001Y016013D01*
X013103Y016332D02*
X011732Y016332D01*
X011732Y016650D02*
X013103Y016650D01*
X013169Y016969D02*
X011666Y016969D01*
X010720Y016969D02*
X002585Y016969D01*
X002631Y016650D02*
X010654Y016650D01*
X011674Y015058D02*
X012615Y015058D01*
X014220Y013941D02*
X014323Y013838D01*
X014337Y013805D01*
X014404Y013737D01*
X014492Y013701D01*
X014532Y013701D01*
X014553Y013692D01*
X014594Y013692D01*
X014704Y013672D01*
X014738Y013661D01*
X014492Y013661D01*
X014404Y013624D01*
X014337Y013557D01*
X014300Y013468D01*
X014300Y013153D01*
X014337Y013065D01*
X014404Y012997D01*
X014492Y012961D01*
X015108Y012961D01*
X015196Y012997D01*
X015204Y013005D01*
X015348Y013005D01*
X015408Y012946D01*
X015496Y012909D01*
X015787Y012909D01*
X019111Y009585D01*
X019111Y009467D01*
X019178Y009305D01*
X019302Y009182D01*
X019342Y009165D01*
X018841Y008664D01*
X018063Y008664D01*
X018063Y009780D01*
X018026Y009868D01*
X017959Y009935D01*
X017871Y009972D01*
X016594Y009972D01*
X016506Y009935D01*
X016469Y009898D01*
X014679Y011688D01*
X014598Y011769D01*
X014491Y011813D01*
X014181Y011813D01*
X014181Y012350D01*
X014145Y012439D01*
X014077Y012506D01*
X013989Y012543D01*
X013295Y012543D01*
X013207Y012506D01*
X013139Y012439D01*
X013103Y012350D01*
X013103Y011587D01*
X012809Y011294D01*
X012765Y011187D01*
X012765Y010871D01*
X012682Y010788D01*
X012615Y010626D01*
X012615Y010451D01*
X012662Y010338D01*
X011674Y010338D01*
X011674Y010885D01*
X011696Y010907D01*
X011732Y010995D01*
X011732Y012350D01*
X011696Y012439D01*
X011628Y012506D01*
X011540Y012543D01*
X011477Y012543D01*
X011477Y012782D01*
X011419Y012921D01*
X011571Y012921D01*
X011617Y012930D01*
X011625Y012922D01*
X011787Y012855D01*
X011962Y012855D01*
X012123Y012922D01*
X012206Y013005D01*
X013316Y013005D01*
X013324Y012997D01*
X013412Y012961D01*
X014028Y012961D01*
X014116Y012997D01*
X014183Y013065D01*
X014220Y013153D01*
X014220Y013468D01*
X014220Y013470D01*
X014230Y013495D01*
X014240Y013545D01*
X014240Y013681D01*
X014240Y013816D01*
X014230Y013867D01*
X014220Y013892D01*
X014220Y013893D01*
X014220Y013941D01*
X014240Y013784D02*
X014358Y013784D01*
X014240Y013681D02*
X013720Y013681D01*
X013720Y013681D01*
X014240Y013681D01*
X014220Y013465D02*
X014300Y013465D01*
X014303Y013147D02*
X014217Y013147D01*
X014069Y012510D02*
X016186Y012510D01*
X015868Y012828D02*
X011458Y012828D01*
X011620Y012510D02*
X013215Y012510D01*
X013103Y012191D02*
X011732Y012191D01*
X011732Y011873D02*
X013103Y011873D01*
X013070Y011554D02*
X011732Y011554D01*
X011732Y011236D02*
X012785Y011236D01*
X012765Y010917D02*
X011700Y010917D01*
X011674Y010599D02*
X012615Y010599D01*
X010894Y010599D02*
X010196Y010599D01*
X010196Y010917D02*
X010686Y010917D01*
X010654Y011236D02*
X010196Y011236D01*
X010196Y011554D02*
X010654Y011554D01*
X010894Y010280D02*
X010196Y010280D01*
X010196Y009962D02*
X010894Y009962D01*
X010735Y009643D02*
X010196Y009643D01*
X010196Y009325D02*
X010735Y009325D01*
X010715Y009006D02*
X010196Y009006D01*
X010196Y008688D02*
X010715Y008688D01*
X011138Y008369D02*
X010196Y008369D01*
X010196Y008051D02*
X011090Y008051D01*
X011090Y007732D02*
X010196Y007732D01*
X010196Y007414D02*
X011090Y007414D01*
X011090Y007095D02*
X010196Y007095D01*
X010196Y006777D02*
X010760Y006777D01*
X010760Y006458D02*
X010196Y006458D01*
X010196Y006140D02*
X010760Y006140D01*
X010760Y005821D02*
X010196Y005821D01*
X010004Y005503D02*
X010760Y005503D01*
X010894Y005184D02*
X009685Y005184D01*
X009367Y004866D02*
X010894Y004866D01*
X010841Y004547D02*
X009360Y004547D01*
X009342Y004229D02*
X010860Y004229D01*
X010821Y003910D02*
X009360Y003910D01*
X009194Y003592D02*
X010837Y003592D01*
X010831Y003605D02*
X010851Y003558D01*
X010879Y003515D01*
X010916Y003479D01*
X010958Y003450D01*
X011005Y003431D01*
X011056Y003421D01*
X011366Y003421D01*
X011366Y003861D01*
X010821Y003861D01*
X010821Y003655D01*
X010831Y003605D01*
X011366Y003592D02*
X011366Y003592D01*
X011366Y003861D02*
X011366Y003861D01*
X011896Y003592D02*
X011971Y003592D01*
X012289Y003273D02*
X005720Y003273D01*
X005705Y003288D02*
X005663Y003317D01*
X005615Y003336D01*
X005565Y003346D01*
X005240Y003346D01*
X004915Y003346D01*
X004865Y003336D01*
X004818Y003317D01*
X004775Y003288D01*
X004739Y003252D01*
X004711Y003209D01*
X004691Y003162D01*
X004681Y003112D01*
X004681Y002850D01*
X005240Y002850D01*
X004681Y002850D01*
X004681Y002588D01*
X004691Y002538D01*
X004711Y002491D01*
X004739Y002448D01*
X004775Y002412D01*
X004818Y002383D01*
X004865Y002364D01*
X004915Y002354D01*
X005240Y002354D01*
X005240Y002850D01*
X005240Y002850D01*
X005240Y002850D01*
X005240Y003346D01*
X005240Y002850D01*
X005240Y002850D01*
X005240Y002354D01*
X005565Y002354D01*
X005615Y002364D01*
X005663Y002383D01*
X005705Y002412D01*
X005741Y002448D01*
X005770Y002491D01*
X005790Y002538D01*
X005800Y002588D01*
X005800Y002850D01*
X005800Y003112D01*
X005790Y003162D01*
X005770Y003209D01*
X005741Y003252D01*
X005705Y003288D01*
X005800Y002955D02*
X025487Y002955D01*
X025448Y003273D02*
X014584Y003273D01*
X013720Y004181D02*
X013200Y004181D01*
X013720Y004181D01*
X013720Y004181D01*
X013200Y004181D02*
X013200Y004045D01*
X013210Y003995D01*
X013220Y003970D01*
X013220Y003968D01*
X013220Y003842D01*
X012823Y003842D01*
X011859Y004807D01*
X011855Y004817D01*
X011794Y004877D01*
X011794Y004879D01*
X011788Y004883D01*
X011787Y004884D01*
X011787Y004884D01*
X011746Y004920D01*
X011701Y004964D01*
X011687Y004970D01*
X011676Y004980D01*
X011674Y004981D01*
X011674Y005314D01*
X011735Y005339D01*
X011802Y005407D01*
X011839Y005495D01*
X011839Y006042D01*
X011847Y006055D01*
X011855Y006094D01*
X011870Y006131D01*
X011870Y006169D01*
X011878Y006207D01*
X011870Y006246D01*
X011870Y008015D01*
X012095Y008240D01*
X012205Y008350D01*
X012222Y008392D01*
X012377Y008327D01*
X012552Y008327D01*
X012714Y008394D01*
X012797Y008477D01*
X013372Y008477D01*
X013412Y008461D01*
X014028Y008461D01*
X014116Y008497D01*
X014183Y008565D01*
X014220Y008653D01*
X014220Y008968D01*
X014220Y008970D01*
X014230Y008995D01*
X014240Y009045D01*
X014240Y009181D01*
X014240Y009316D01*
X014230Y009367D01*
X014220Y009392D01*
X014220Y009393D01*
X014220Y009413D01*
X014351Y009282D01*
X014401Y009229D01*
X014406Y009227D01*
X014409Y009224D01*
X014477Y009196D01*
X014543Y009167D01*
X014548Y009167D01*
X014553Y009165D01*
X014625Y009165D01*
X014748Y009162D01*
X014752Y009161D01*
X014492Y009161D01*
X014404Y009124D01*
X014337Y009057D01*
X014300Y008968D01*
X014300Y008653D01*
X014337Y008565D01*
X014404Y008497D01*
X014492Y008461D01*
X015108Y008461D01*
X015148Y008477D01*
X015376Y008477D01*
X015408Y008446D01*
X015496Y008409D01*
X016024Y008409D01*
X016112Y008446D01*
X016114Y008448D01*
X016353Y008209D01*
X016434Y008128D01*
X016541Y008084D01*
X019018Y008084D01*
X019125Y008128D01*
X020457Y009460D01*
X020457Y008582D01*
X020494Y008494D01*
X020561Y008426D01*
X020649Y008390D01*
X021867Y008390D01*
X021867Y008344D01*
X018063Y004539D01*
X018063Y005280D01*
X018026Y005368D01*
X017959Y005435D01*
X017871Y005472D01*
X016594Y005472D01*
X016506Y005435D01*
X016438Y005368D01*
X016402Y005280D01*
X016402Y005120D01*
X016325Y005120D01*
X016254Y005191D01*
X016172Y005273D01*
X016066Y005317D01*
X014133Y005317D01*
X014133Y005318D01*
X014183Y005339D01*
X014251Y005407D01*
X014287Y005495D01*
X014287Y006850D01*
X014251Y006939D01*
X014183Y007006D01*
X014095Y007043D01*
X013401Y007043D01*
X013313Y007006D01*
X013246Y006939D01*
X013209Y006850D01*
X013209Y005495D01*
X013246Y005407D01*
X013313Y005339D01*
X013401Y005303D01*
X013553Y005303D01*
X013553Y004901D01*
X013412Y004901D01*
X013324Y004864D01*
X013257Y004797D01*
X013220Y004708D01*
X013220Y004393D01*
X013220Y004392D01*
X013210Y004367D01*
X013200Y004316D01*
X013200Y004181D01*
X013200Y004229D02*
X012437Y004229D01*
X012118Y004547D02*
X013220Y004547D01*
X013328Y004866D02*
X011806Y004866D01*
X011674Y005184D02*
X013553Y005184D01*
X013209Y005503D02*
X011839Y005503D01*
X011839Y005821D02*
X013209Y005821D01*
X013209Y006140D02*
X011870Y006140D01*
X011870Y006458D02*
X013209Y006458D01*
X013209Y006777D02*
X011870Y006777D01*
X011870Y007095D02*
X020619Y007095D01*
X020937Y007414D02*
X011870Y007414D01*
X011870Y007732D02*
X021256Y007732D01*
X021574Y008051D02*
X011906Y008051D01*
X012213Y008369D02*
X012276Y008369D01*
X012653Y008369D02*
X016193Y008369D01*
X018063Y008688D02*
X018865Y008688D01*
X019183Y009006D02*
X018063Y009006D01*
X018063Y009325D02*
X019170Y009325D01*
X019053Y009643D02*
X018063Y009643D01*
X017895Y009962D02*
X018734Y009962D01*
X018416Y010280D02*
X016086Y010280D01*
X016405Y009962D02*
X016570Y009962D01*
X015768Y010599D02*
X018097Y010599D01*
X017779Y010917D02*
X015449Y010917D01*
X015131Y011236D02*
X017460Y011236D01*
X017142Y011554D02*
X014812Y011554D01*
X014181Y011873D02*
X016823Y011873D01*
X016505Y012191D02*
X014181Y012191D01*
X016688Y012828D02*
X021033Y012828D01*
X021033Y012510D02*
X017006Y012510D01*
X017325Y012191D02*
X021033Y012191D01*
X021613Y012191D02*
X027259Y012191D01*
X027259Y011873D02*
X021777Y011873D01*
X022096Y011554D02*
X027259Y011554D01*
X027259Y011236D02*
X022414Y011236D01*
X022733Y010917D02*
X027259Y010917D01*
X027259Y010599D02*
X024600Y010599D01*
X024600Y010280D02*
X025418Y010280D01*
X025316Y010253D02*
X025054Y010101D01*
X024839Y009887D01*
X024688Y009625D01*
X024609Y009332D01*
X024609Y009029D01*
X024688Y008737D01*
X024839Y008474D01*
X025054Y008260D01*
X025316Y008109D01*
X025609Y008030D01*
X025911Y008030D01*
X026204Y008109D01*
X026466Y008260D01*
X026681Y008474D01*
X026832Y008737D01*
X026911Y009029D01*
X026911Y009332D01*
X026832Y009625D01*
X026681Y009887D01*
X026466Y010101D01*
X026204Y010253D01*
X025911Y010331D01*
X025609Y010331D01*
X025316Y010253D01*
X024914Y009962D02*
X024579Y009962D01*
X024698Y009643D02*
X024357Y009643D01*
X024585Y009325D02*
X024609Y009325D01*
X024616Y009006D02*
X024573Y009006D01*
X024716Y008688D02*
X024283Y008688D01*
X023835Y008688D02*
X023819Y008688D01*
X023663Y008369D02*
X023500Y008369D01*
X023518Y008051D02*
X023419Y008051D01*
X023726Y007414D02*
X027259Y007414D01*
X027259Y007732D02*
X024534Y007732D01*
X024600Y008051D02*
X025532Y008051D01*
X025988Y008051D02*
X027259Y008051D01*
X027259Y008369D02*
X026576Y008369D01*
X026804Y008688D02*
X027259Y008688D01*
X027259Y009006D02*
X026904Y009006D01*
X026911Y009325D02*
X027259Y009325D01*
X027259Y009643D02*
X026822Y009643D01*
X026606Y009962D02*
X027259Y009962D01*
X027259Y010280D02*
X026102Y010280D01*
X023762Y009643D02*
X023593Y009643D01*
X023533Y009325D02*
X023404Y009325D01*
X024455Y008369D02*
X024944Y008369D01*
X023407Y007095D02*
X027259Y007095D01*
X027259Y006777D02*
X023089Y006777D01*
X022589Y006458D02*
X027259Y006458D01*
X027259Y006140D02*
X021613Y006140D01*
X021613Y005821D02*
X027259Y005821D01*
X027259Y005503D02*
X021613Y005503D01*
X021033Y005503D02*
X019846Y005503D01*
X019528Y005184D02*
X020457Y005184D01*
X020457Y004866D02*
X019209Y004866D01*
X018891Y004547D02*
X020457Y004547D01*
X020457Y004229D02*
X018572Y004229D01*
X018254Y003910D02*
X020599Y003910D01*
X021976Y003910D02*
X025642Y003910D01*
X025496Y003592D02*
X017923Y003592D01*
X018063Y004547D02*
X018071Y004547D01*
X018063Y004866D02*
X018389Y004866D01*
X018708Y005184D02*
X018063Y005184D01*
X019026Y005503D02*
X014287Y005503D01*
X014287Y005821D02*
X019345Y005821D01*
X019663Y006140D02*
X014287Y006140D01*
X014287Y006458D02*
X019982Y006458D01*
X020300Y006777D02*
X014287Y006777D01*
X016261Y005184D02*
X016402Y005184D01*
X013220Y003910D02*
X012755Y003910D01*
X008631Y005821D02*
X007046Y005821D01*
X007046Y006140D02*
X008631Y006140D01*
X008631Y006458D02*
X006916Y006458D01*
X006760Y006777D02*
X008760Y006777D01*
X008967Y007095D02*
X006553Y007095D01*
X005967Y007095D02*
X005583Y007095D01*
X005571Y007414D02*
X005820Y007414D01*
X005760Y007732D02*
X005571Y007732D01*
X005571Y008051D02*
X005923Y008051D01*
X004791Y008051D02*
X000820Y008051D01*
X000820Y008369D02*
X004791Y008369D01*
X004791Y008688D02*
X001679Y008688D01*
X001838Y009006D02*
X004690Y009006D01*
X004747Y009325D02*
X002028Y009325D01*
X000841Y008688D02*
X000820Y008688D01*
X000820Y007732D02*
X004791Y007732D01*
X004791Y007414D02*
X000820Y007414D01*
X000820Y007095D02*
X001547Y007095D01*
X001554Y007101D02*
X001339Y006887D01*
X001188Y006625D01*
X001109Y006332D01*
X001109Y006029D01*
X001188Y005737D01*
X001339Y005474D01*
X001554Y005260D01*
X001816Y005109D01*
X002109Y005030D01*
X002411Y005030D01*
X002704Y005109D01*
X002966Y005260D01*
X003181Y005474D01*
X003332Y005737D01*
X003411Y006029D01*
X003411Y006332D01*
X003332Y006625D01*
X003181Y006887D01*
X002966Y007101D01*
X002704Y007253D01*
X002411Y007331D01*
X002109Y007331D01*
X001816Y007253D01*
X001554Y007101D01*
X001276Y006777D02*
X000820Y006777D01*
X000820Y006458D02*
X001143Y006458D01*
X001109Y006140D02*
X000820Y006140D01*
X000820Y005821D02*
X001165Y005821D01*
X001323Y005503D02*
X000820Y005503D01*
X000820Y005184D02*
X001685Y005184D01*
X000820Y004866D02*
X004104Y004866D01*
X004116Y004547D02*
X000820Y004547D01*
X000820Y004229D02*
X004388Y004229D01*
X004707Y003910D02*
X002005Y003910D01*
X002831Y003592D02*
X003630Y003592D01*
X003624Y003583D02*
X003604Y003536D01*
X003594Y003486D01*
X003594Y003161D01*
X003594Y002836D01*
X003604Y002786D01*
X003624Y002739D01*
X003653Y002696D01*
X003689Y002660D01*
X003731Y002631D01*
X003779Y002612D01*
X003829Y002602D01*
X004091Y002602D01*
X004353Y002602D01*
X004403Y002612D01*
X004450Y002631D01*
X004493Y002660D01*
X004529Y002696D01*
X004557Y002739D01*
X004577Y002786D01*
X004587Y002836D01*
X004587Y003161D01*
X004091Y003161D01*
X004091Y003161D01*
X004587Y003161D01*
X004587Y003486D01*
X004577Y003536D01*
X004557Y003583D01*
X004529Y003626D01*
X004493Y003662D01*
X004450Y003691D01*
X004403Y003710D01*
X004353Y003720D01*
X004091Y003720D01*
X004091Y003161D01*
X004091Y002602D01*
X004091Y003161D01*
X004091Y003161D01*
X004091Y003161D01*
X004091Y003720D01*
X003829Y003720D01*
X003779Y003710D01*
X003731Y003691D01*
X003689Y003662D01*
X003653Y003626D01*
X003624Y003583D01*
X003594Y003273D02*
X002866Y003273D01*
X002866Y002955D02*
X003594Y002955D01*
X003594Y003161D02*
X004091Y003161D01*
X004091Y003161D01*
X003594Y003161D01*
X004091Y003273D02*
X004091Y003273D01*
X004091Y003592D02*
X004091Y003592D01*
X004552Y003592D02*
X005025Y003592D01*
X005240Y003273D02*
X005240Y003273D01*
X004760Y003273D02*
X004587Y003273D01*
X004587Y002955D02*
X004681Y002955D01*
X005240Y002955D02*
X005240Y002955D01*
X005240Y002850D02*
X005800Y002850D01*
X005240Y002850D01*
X005240Y002850D01*
X005240Y002636D02*
X005240Y002636D01*
X004681Y002636D02*
X004457Y002636D01*
X004091Y002636D02*
X004091Y002636D01*
X003724Y002636D02*
X002709Y002636D01*
X002501Y002318D02*
X025893Y002318D01*
X025622Y002636D02*
X005800Y002636D01*
X004091Y002955D02*
X004091Y002955D01*
X005767Y004866D02*
X006160Y004866D01*
X006197Y005184D02*
X005501Y005184D01*
X005683Y005503D02*
X006160Y005503D01*
X006466Y005821D02*
X005632Y005821D01*
X006414Y006140D02*
X004684Y006140D01*
X004690Y006458D02*
X004554Y006458D01*
X004601Y006777D02*
X004502Y006777D01*
X004402Y007095D02*
X004700Y007095D01*
X005683Y006777D02*
X005760Y006777D01*
X005775Y006458D02*
X005594Y006458D01*
X003961Y006151D02*
X003961Y005590D01*
X003961Y005590D01*
X003400Y005590D01*
X003400Y005917D01*
X003410Y005967D01*
X003429Y006014D01*
X003458Y006057D01*
X003494Y006093D01*
X003536Y006122D01*
X003584Y006141D01*
X003634Y006151D01*
X003961Y006151D01*
X003961Y006140D02*
X003961Y006140D01*
X003961Y005821D02*
X003961Y005821D01*
X003580Y006140D02*
X003411Y006140D01*
X003400Y005821D02*
X003355Y005821D01*
X003400Y005503D02*
X003197Y005503D01*
X003422Y005184D02*
X002835Y005184D01*
X003961Y005184D02*
X003961Y005184D01*
X003961Y005503D02*
X003961Y005503D01*
X003508Y006458D02*
X003377Y006458D01*
X003420Y006777D02*
X003244Y006777D01*
X002973Y007095D02*
X003519Y007095D01*
X005808Y010125D02*
X006578Y009355D01*
X006570Y009375D01*
X006560Y009425D01*
X006560Y009521D01*
X006661Y009521D01*
X006560Y009521D01*
X006560Y009616D01*
X006570Y009667D01*
X006580Y009691D01*
X006580Y009888D01*
X006585Y009901D01*
X006580Y009913D01*
X006580Y010148D01*
X006583Y010156D01*
X006580Y010163D01*
X006580Y010398D01*
X006585Y010411D01*
X006580Y010423D01*
X006580Y010658D01*
X006585Y010671D01*
X006580Y010683D01*
X006580Y010918D01*
X006583Y010926D01*
X006580Y010933D01*
X006580Y011168D01*
X006585Y011181D01*
X006580Y011193D01*
X006580Y011428D01*
X006583Y011436D01*
X006580Y011443D01*
X006580Y011651D01*
X006570Y011675D01*
X006560Y011725D01*
X006560Y011821D01*
X006642Y011821D01*
X006642Y011821D01*
X006560Y011821D01*
X006560Y011916D01*
X006567Y011951D01*
X006560Y011985D01*
X006560Y012081D01*
X006642Y012081D01*
X006560Y012081D01*
X006560Y012176D01*
X006570Y012227D01*
X006580Y012251D01*
X006580Y012448D01*
X006585Y012461D01*
X006580Y012473D01*
X006580Y012708D01*
X006583Y012716D01*
X006580Y012723D01*
X006580Y012958D01*
X006617Y013047D01*
X006684Y013114D01*
X006739Y013137D01*
X006710Y013207D01*
X006710Y013382D01*
X006716Y013399D01*
X006161Y013399D01*
X006161Y012948D01*
X006125Y012860D01*
X006062Y012797D01*
X006062Y011752D01*
X006067Y011727D01*
X006062Y011695D01*
X006062Y011662D01*
X006052Y011639D01*
X006051Y011634D01*
X006051Y011436D01*
X006015Y011348D01*
X005947Y011280D01*
X005859Y011244D01*
X005330Y011244D01*
X005274Y011267D01*
X005274Y011228D01*
X005313Y011236D01*
X005595Y011236D01*
X005595Y010681D01*
X006111Y010681D01*
X006111Y011002D01*
X006101Y011052D01*
X006081Y011099D01*
X006053Y011142D01*
X006016Y011178D01*
X005974Y011206D01*
X005926Y011226D01*
X005876Y011236D01*
X005595Y011236D01*
X005595Y010681D01*
X005595Y010681D01*
X005595Y010681D01*
X006111Y010681D01*
X006111Y010360D01*
X006101Y010310D01*
X006081Y010262D01*
X006053Y010220D01*
X006016Y010183D01*
X005974Y010155D01*
X005926Y010135D01*
X005876Y010125D01*
X005808Y010125D01*
X005972Y009962D02*
X006580Y009962D01*
X006580Y010280D02*
X006088Y010280D01*
X006111Y010599D02*
X006580Y010599D01*
X006580Y010917D02*
X006111Y010917D01*
X005595Y010917D02*
X005595Y010917D01*
X005595Y011236D02*
X005595Y011236D01*
X005878Y011236D02*
X006580Y011236D01*
X006580Y011554D02*
X006051Y011554D01*
X006062Y011873D02*
X006560Y011873D01*
X006642Y012081D02*
X006642Y012081D01*
X006563Y012191D02*
X006062Y012191D01*
X006062Y012510D02*
X006580Y012510D01*
X006580Y012828D02*
X006093Y012828D01*
X006161Y013147D02*
X006735Y013147D01*
X005260Y013784D02*
X005028Y013784D01*
X004595Y014421D02*
X004595Y014421D01*
X004595Y014739D02*
X004595Y014739D01*
X004595Y015058D02*
X004595Y015058D01*
X004999Y015058D02*
X006606Y015058D01*
X007004Y015058D02*
X007004Y015058D01*
X007004Y015181D02*
X007004Y015181D01*
X007004Y015376D02*
X007004Y015376D01*
X006606Y015376D02*
X002893Y015376D01*
X003386Y015058D02*
X003550Y015058D01*
X003460Y014739D02*
X003386Y014739D01*
X002745Y016332D02*
X002590Y016332D01*
X007110Y012021D02*
X007110Y012021D01*
X007110Y011871D01*
X007110Y012021D01*
X007110Y011873D02*
X007110Y011873D01*
X007110Y011871D02*
X007110Y011871D01*
X005312Y011236D02*
X005274Y011236D01*
X006290Y009643D02*
X006565Y009643D01*
X006661Y009521D02*
X006661Y009521D01*
X007629Y009325D02*
X008912Y009325D01*
X008820Y007414D02*
X007751Y007414D01*
X007420Y005503D02*
X008100Y005503D01*
X008137Y005184D02*
X007383Y005184D01*
X007420Y004866D02*
X008100Y004866D01*
X008100Y004547D02*
X007420Y004547D01*
X007402Y004229D02*
X008118Y004229D01*
X000877Y003910D02*
X000820Y003910D01*
X013720Y009181D02*
X013720Y009181D01*
X014240Y009181D01*
X013720Y009181D01*
X014238Y009325D02*
X014309Y009325D01*
X014316Y009006D02*
X014232Y009006D01*
X014220Y008688D02*
X014300Y008688D01*
X018280Y011236D02*
X021594Y011236D01*
X021276Y011554D02*
X017962Y011554D01*
X017643Y011873D02*
X021033Y011873D01*
X021613Y012510D02*
X027259Y012510D01*
X027259Y012828D02*
X021613Y012828D01*
X022118Y013147D02*
X027259Y013147D01*
X027259Y013465D02*
X022118Y013465D01*
X022118Y013784D02*
X027259Y013784D01*
X027259Y014102D02*
X022118Y014102D01*
X022029Y014421D02*
X027259Y014421D01*
X027259Y014739D02*
X016155Y014739D01*
X016473Y014421D02*
X016491Y014421D01*
X015836Y015058D02*
X027259Y015058D01*
X027259Y015376D02*
X015518Y015376D01*
X015199Y015695D02*
X025902Y015695D01*
X025627Y016013D02*
X014881Y016013D01*
X014513Y016332D02*
X025489Y016332D01*
X025448Y016650D02*
X014181Y016650D01*
X014115Y016969D02*
X025494Y016969D01*
X020546Y014421D02*
X017974Y014421D01*
X018063Y014102D02*
X020457Y014102D01*
X020457Y013784D02*
X018063Y013784D01*
X018063Y013465D02*
X020457Y013465D01*
X020457Y013147D02*
X018063Y013147D01*
X018599Y010917D02*
X021913Y010917D01*
X022231Y010599D02*
X018917Y010599D01*
X019236Y010280D02*
X022337Y010280D01*
X023366Y010599D02*
X023518Y010599D01*
X020457Y009325D02*
X020322Y009325D01*
X020457Y009006D02*
X020004Y009006D01*
X019685Y008688D02*
X020457Y008688D01*
X019366Y008369D02*
X021867Y008369D01*
X020139Y009962D02*
X019719Y009962D01*
X020802Y006458D02*
X021033Y006458D01*
X021613Y006458D02*
X022026Y006458D01*
X021033Y006140D02*
X020483Y006140D01*
X020165Y005821D02*
X021033Y005821D01*
X022118Y005184D02*
X027259Y005184D01*
X027259Y004866D02*
X022118Y004866D01*
X022118Y004547D02*
X027259Y004547D01*
X025944Y004229D02*
X022118Y004229D01*
D32*
X021288Y004681D02*
X021323Y004830D01*
X021323Y006602D01*
X022701Y007980D01*
X022878Y008000D01*
X022307Y008374D02*
X017780Y003846D01*
X015760Y003846D01*
X014827Y003846D01*
X014800Y003811D01*
X013843Y004633D02*
X013720Y004551D01*
X013843Y004633D02*
X013843Y005027D01*
X016008Y005027D01*
X016205Y004830D01*
X017189Y004830D01*
X017232Y004681D01*
X013843Y005027D02*
X013843Y006011D01*
X013748Y006173D01*
X016205Y008767D02*
X016599Y008374D01*
X018961Y008374D01*
X020536Y009948D01*
X022504Y009948D01*
X022701Y009752D01*
X023291Y009752D01*
X023882Y010342D01*
X024059Y010362D01*
X022878Y010362D02*
X021323Y011917D01*
X021323Y013492D01*
X021288Y013681D01*
X017232Y013681D02*
X017189Y013689D01*
X016795Y013689D01*
X014433Y016051D01*
X013646Y016051D01*
X013642Y016173D01*
X013449Y016051D01*
X013055Y015657D01*
X013055Y015067D01*
X013252Y014082D02*
X013055Y013885D01*
X013252Y014082D02*
X013646Y014082D01*
X013720Y014051D01*
X013720Y013311D02*
X013646Y013295D01*
X011874Y013295D01*
X009906Y012311D02*
X009906Y008177D01*
X007937Y008177D01*
X007740Y007783D02*
X004984Y010539D01*
X004925Y010681D01*
X004984Y010933D01*
X004000Y010933D01*
X003810Y010931D01*
X004000Y011326D02*
X003810Y011431D01*
X004000Y011326D02*
X004394Y011720D01*
X004394Y012507D01*
X004197Y012704D01*
X004197Y013098D01*
X004181Y013212D01*
X004197Y013295D01*
X004591Y013689D01*
X005055Y013212D02*
X005181Y013295D01*
X005575Y013689D01*
X007347Y013689D01*
X008134Y012901D01*
X009315Y012901D01*
X009410Y012841D01*
X009315Y012901D02*
X009315Y014082D01*
X009213Y014181D01*
X009315Y014279D01*
X009315Y014673D01*
X009213Y014681D01*
X009315Y014673D02*
X009315Y015067D01*
X009213Y015181D01*
X008725Y015263D02*
X008701Y015181D01*
X008725Y015263D02*
X007937Y015263D01*
X007937Y015067D01*
X007937Y015263D02*
X007543Y015263D01*
X007516Y015181D01*
X007516Y014681D02*
X007543Y014673D01*
X008725Y014673D01*
X008701Y014681D01*
X008725Y014279D02*
X008701Y014181D01*
X008725Y014082D01*
X008725Y013295D01*
X008725Y014279D02*
X007543Y014279D01*
X007516Y014181D01*
X007150Y014673D02*
X007004Y014673D01*
X007150Y013295D02*
X007150Y012901D01*
X007110Y012841D01*
X007110Y012331D02*
X007150Y012311D01*
X007740Y012311D01*
X008134Y011326D02*
X008725Y011917D01*
X009410Y012331D02*
X009512Y012311D01*
X009906Y012311D01*
X008134Y011326D02*
X007150Y011326D01*
X007110Y011311D01*
X007150Y011523D02*
X007110Y011561D01*
X007150Y011523D02*
X007543Y011523D01*
X007740Y011720D01*
X005772Y011720D02*
X005595Y011681D01*
X005772Y011720D02*
X005772Y012704D01*
X005575Y012704D01*
X005772Y012704D02*
X005772Y013098D01*
X005725Y013212D01*
X005055Y013212D02*
X004984Y013098D01*
X004984Y011720D01*
X004925Y011681D01*
X004984Y011523D01*
X004984Y010933D01*
X004984Y010736D01*
X004925Y010681D01*
X002032Y012901D02*
X001638Y012507D01*
X001710Y012431D01*
X002819Y013689D02*
X003803Y014673D01*
X003925Y014681D01*
X013055Y011130D02*
X013055Y010539D01*
X013055Y011130D02*
X013449Y011523D01*
X013642Y011673D01*
X013646Y011523D01*
X014433Y011523D01*
X016599Y009358D01*
X017189Y009358D01*
X017232Y009181D01*
X016205Y008767D02*
X015811Y008767D01*
X015760Y008846D01*
X015614Y008767D01*
X014827Y008767D01*
X014800Y008811D01*
X013720Y008811D02*
X013646Y008767D01*
X012465Y008767D01*
X013055Y009358D02*
X013252Y009555D01*
X013646Y009555D01*
X013720Y009551D01*
X009906Y008177D02*
X009906Y005815D01*
X008921Y004830D01*
X008730Y004931D01*
X008730Y005431D02*
X008921Y005421D01*
X008921Y006405D01*
X009118Y006602D01*
X009260Y006681D01*
X009315Y006799D01*
X009315Y007586D01*
X009260Y007681D01*
X009118Y007783D01*
X007740Y007783D01*
X007347Y007586D02*
X006362Y007586D01*
X006260Y007681D01*
X006260Y006681D02*
X006362Y006602D01*
X006756Y006208D01*
X006756Y005421D01*
X006790Y005431D01*
X006790Y004931D02*
X006953Y004830D01*
X006953Y004437D01*
X006790Y004431D01*
X006756Y004437D01*
X005378Y004437D01*
X005240Y004551D01*
X005181Y004633D01*
X005181Y005421D01*
X005142Y005590D01*
X004394Y006208D02*
X004000Y006602D01*
X003961Y006771D01*
X004394Y006208D02*
X004394Y004633D01*
X005378Y003649D01*
X007347Y003649D01*
X007543Y003846D01*
X008725Y003846D01*
X008730Y003931D01*
X008921Y003846D01*
X008921Y004437D01*
X008730Y004431D01*
X015760Y013346D02*
X019551Y009555D01*
X021288Y009181D02*
X021323Y009161D01*
X022110Y009161D01*
X022701Y008570D01*
X023291Y008570D01*
X023882Y009161D01*
X024059Y009181D01*
X024059Y008000D02*
X023882Y007980D01*
X022701Y006799D01*
X022307Y006799D01*
X015760Y013346D02*
X015614Y013295D01*
X014827Y013295D01*
X014800Y013311D01*
D33*
X014800Y014051D02*
X014630Y014082D01*
X014236Y014476D01*
X011284Y014476D01*
X011284Y014082D01*
X011260Y014001D01*
X011087Y014082D01*
X010693Y013689D01*
X010693Y013098D01*
X011087Y012704D01*
X011087Y011720D01*
X011193Y011673D01*
X011284Y011523D01*
X011284Y009948D01*
X011874Y009948D01*
X011874Y008570D01*
X011480Y008177D01*
X011480Y006208D01*
X011299Y006173D01*
X011284Y006011D01*
X011284Y004633D01*
X011366Y004501D01*
X011480Y004633D01*
X012662Y003452D01*
X014236Y003452D01*
X014236Y004240D01*
X014630Y004633D01*
X014800Y004551D01*
X014827Y004633D01*
X015614Y004633D01*
X015760Y004515D01*
X015760Y009515D02*
X015614Y009555D01*
X014827Y009555D01*
X014800Y009551D01*
X014630Y009555D01*
X014236Y009948D01*
X011874Y009948D01*
X011284Y009948D02*
X011284Y009555D01*
X011260Y009501D01*
X005260Y009074D02*
X005181Y008964D01*
X005181Y006799D01*
X005142Y006771D01*
X001638Y009358D02*
X001441Y009161D01*
X001260Y009074D01*
X001638Y009358D02*
X001638Y010933D01*
X001710Y010931D01*
X001638Y010933D02*
X001441Y010933D01*
X001047Y011326D01*
X001047Y012901D01*
X001933Y013787D01*
X003213Y012507D01*
X003803Y012507D01*
X003810Y012431D01*
X001933Y013787D02*
X001835Y013885D01*
X001835Y014673D01*
X001709Y014681D01*
X001835Y014870D01*
X003016Y016051D01*
X011087Y016051D01*
X011193Y016173D01*
X011284Y016051D01*
X011284Y014476D01*
X014800Y014051D02*
X014827Y014082D01*
X015614Y014082D01*
X015760Y014015D01*
D34*
X013055Y013885D03*
X011874Y013295D03*
X013055Y015067D03*
X008725Y013295D03*
X007740Y012311D03*
X008725Y011917D03*
X007740Y011720D03*
X005575Y012704D03*
X004591Y013689D03*
X002819Y013689D03*
X002032Y012901D03*
X007150Y013295D03*
X007937Y015067D03*
X013055Y010539D03*
X013055Y009358D03*
X012465Y008767D03*
X007937Y008177D03*
X007347Y007586D03*
X019551Y009555D03*
X022307Y008374D03*
X022307Y006799D03*
M02*
