G75*
G70*
%OFA0B0*%
%FSLAX24Y24*%
%IPPOS*%
%LPD*%
%AMOC8*
5,1,8,0,0,1.08239X$1,22.5*
%
%ADD10C,0.1340*%
%ADD11C,0.0740*%
%ADD12OC8,0.0600*%
%ADD13R,0.0682X0.0682*%
%ADD14C,0.0682*%
%ADD15C,0.1261*%
%ADD16C,0.0480*%
D10*
X001441Y002862D03*
X001441Y016641D03*
X026638Y016641D03*
X026638Y003256D03*
D11*
X005260Y009074D03*
X001260Y009074D03*
D12*
X006260Y007681D03*
X006260Y006681D03*
X009260Y006681D03*
X009260Y007681D03*
D13*
X003961Y005590D03*
X024059Y010362D03*
D14*
X022878Y010362D03*
X022878Y009181D03*
X024059Y009181D03*
X024059Y008000D03*
X022878Y008000D03*
X005142Y006771D03*
X003961Y006771D03*
X005142Y005590D03*
D15*
X002260Y006181D03*
X025760Y009181D03*
D16*
X022307Y008374D03*
X022307Y006799D03*
X019551Y009555D03*
X013055Y009358D03*
X012465Y008767D03*
X013055Y010539D03*
X008725Y011917D03*
X007740Y011720D03*
X007740Y012311D03*
X007150Y013295D03*
X008725Y013295D03*
X007937Y015067D03*
X004591Y013689D03*
X005575Y012704D03*
X002819Y013689D03*
X002032Y012901D03*
X007937Y008177D03*
X007347Y007586D03*
X011874Y013295D03*
X013055Y013885D03*
X013055Y015067D03*
M02*
