%
M48
M72
T01C0.0240
T02C0.0320
T03C0.0402
T04C0.0440
T05C0.1181
T06C0.1260
%
T01
X17935Y11572
X18857Y9881
X19712Y13841
X19695Y14565
X11682Y15760
X10317Y15266
X10847Y14451
X9744Y14248
T02
X7650Y7150
X6400Y7150
X6400Y4150
X7650Y4150
T03
X5032Y4059
X3851Y4059
X3851Y5241
X5032Y5241
X23018Y7469
X24199Y7469
X24199Y8650
X23018Y8650
X23018Y9831
X24199Y9831
T04
X5150Y7650
X1150Y7650
T05
X2150Y4650
X25900Y8650
T06
X1331Y1331
X12355Y9008
X1528Y17670
X26528Y17670
X26528Y1725
M30
