G75*
G70*
%OFA0B0*%
%FSLAX24Y24*%
%IPPOS*%
%LPD*%
%AMOC8*
5,1,8,0,0,1.08239X$1,22.5*
%
%ADD10C,0.1340*%
%ADD11R,0.1300X0.1700*%
%ADD12R,0.2000X0.1300*%
%ADD13R,0.0500X0.0180*%
%ADD14R,0.0860X0.0300*%
%ADD15OC8,0.0600*%
%ADD16R,0.0220X0.0660*%
%ADD17R,0.0290X0.0860*%
%ADD18R,0.0600X0.0300*%
%ADD19R,0.0220X0.0540*%
%ADD20R,0.0300X0.0860*%
%ADD21C,0.0740*%
%ADD22R,0.0474X0.0474*%
%ADD23R,0.0671X0.0592*%
%ADD24R,0.0789X0.0710*%
%ADD25R,0.0789X0.1025*%
%ADD26C,0.0654*%
%ADD27C,0.0986*%
%ADD28C,0.0600*%
%ADD29R,0.0540X0.0220*%
%ADD30R,0.0434X0.0356*%
%ADD31R,0.0592X0.0592*%
%ADD32R,0.0867X0.0592*%
%ADD33R,0.0592X0.0671*%
%ADD34R,0.0356X0.0434*%
%ADD35C,0.0600*%
%ADD36R,0.0749X0.0336*%
%ADD37C,0.0595*%
%ADD38OC8,0.0930*%
%ADD39R,0.0600X0.0250*%
%ADD40C,0.0640*%
%ADD41R,0.0867X0.0474*%
%ADD42R,0.0356X0.0356*%
%ADD43R,0.0552X0.0678*%
%ADD44R,0.0678X0.0552*%
%ADD45R,0.0200X0.0320*%
%ADD46R,0.0395X0.0395*%
%ADD47R,0.1261X0.0671*%
%ADD48R,0.2206X0.1655*%
%ADD49C,0.0682*%
%ADD50R,0.0682X0.0682*%
%ADD51C,0.1261*%
%ADD52C,0.0640*%
%ADD53OC8,0.0640*%
%ADD54OC8,0.1080*%
%ADD55C,0.0480*%
D10*
X004617Y001450D03*
X041517Y001350D03*
X041517Y026550D03*
X004617Y026550D03*
D11*
X019367Y011900D03*
D12*
X028217Y007600D03*
D13*
X009377Y013250D03*
X009377Y013450D03*
X009377Y013650D03*
X009377Y013850D03*
X008257Y013850D03*
X008257Y013650D03*
X008257Y013450D03*
X008257Y013250D03*
D14*
X009647Y018900D03*
X009647Y019400D03*
X009647Y019900D03*
X009647Y020400D03*
X011587Y020400D03*
X011587Y019900D03*
X011587Y019400D03*
X011587Y018900D03*
D15*
X013217Y019150D03*
X013217Y020150D03*
X009817Y017650D03*
X009817Y016550D03*
X007817Y016550D03*
X007817Y017650D03*
X008017Y019150D03*
X008017Y020150D03*
X012617Y023850D03*
X015617Y023850D03*
X013817Y026150D03*
X012817Y026150D03*
X016917Y004650D03*
X017817Y004550D03*
X016917Y003650D03*
X017817Y003550D03*
X017817Y002650D03*
X016917Y002550D03*
X016917Y001550D03*
X017817Y001650D03*
X010617Y002150D03*
X009617Y002150D03*
X009617Y003350D03*
X010617Y003350D03*
X033917Y003750D03*
X033917Y002750D03*
D16*
X032887Y002800D03*
X032627Y002800D03*
X032377Y002800D03*
X032117Y002800D03*
X031857Y002800D03*
X031607Y002800D03*
X031347Y002800D03*
X031347Y005100D03*
X031607Y005100D03*
X031857Y005100D03*
X032117Y005100D03*
X032377Y005100D03*
X032627Y005100D03*
X032887Y005100D03*
D17*
X019667Y007180D03*
X019167Y007180D03*
X018667Y007180D03*
X018167Y007180D03*
X018167Y009120D03*
X018667Y009120D03*
X019167Y009120D03*
X019667Y009120D03*
D18*
X027117Y011950D03*
X027917Y012350D03*
X027117Y012750D03*
X027117Y014050D03*
X027917Y014450D03*
X027117Y014850D03*
X027117Y016150D03*
X027917Y016550D03*
X027117Y016950D03*
X027117Y018150D03*
X027917Y018550D03*
X027117Y018950D03*
D19*
X029857Y010560D03*
X030377Y010560D03*
X030377Y009740D03*
X030117Y009740D03*
X029857Y009740D03*
X034857Y009740D03*
X035117Y009740D03*
X035377Y009740D03*
X035377Y010560D03*
X034857Y010560D03*
D20*
X025367Y021580D03*
X024867Y021580D03*
X024367Y021580D03*
X023867Y021580D03*
X023867Y023520D03*
X024367Y023520D03*
X024867Y023520D03*
X025367Y023520D03*
D21*
X016217Y022350D03*
X012217Y022350D03*
D22*
X031317Y011850D03*
D23*
X031317Y010624D03*
X031317Y009876D03*
X028817Y009876D03*
X028817Y010624D03*
X033917Y010624D03*
X033917Y009876D03*
X036417Y009876D03*
X036417Y010624D03*
X025617Y004924D03*
X024617Y004924D03*
X024617Y004176D03*
X025617Y004176D03*
X022117Y007176D03*
X022117Y007924D03*
X023017Y022176D03*
X023017Y022924D03*
X026417Y023776D03*
X026417Y024524D03*
D24*
X027617Y024701D03*
X027617Y023599D03*
D25*
X025314Y024750D03*
X023720Y024750D03*
D26*
X039063Y013328D02*
X039637Y013328D01*
X039637Y012344D02*
X039063Y012344D01*
X039063Y011556D02*
X039637Y011556D01*
X039637Y010572D02*
X039063Y010572D01*
D27*
X040417Y009363D03*
X040417Y014537D03*
D28*
X037077Y015350D02*
X036557Y015350D01*
X034077Y015350D02*
X033557Y015350D01*
X032277Y015350D02*
X031757Y015350D01*
X029277Y015350D02*
X028757Y015350D01*
X028757Y021750D02*
X029277Y021750D01*
X031757Y021750D02*
X032277Y021750D01*
X033557Y021750D02*
X034077Y021750D01*
X036557Y021750D02*
X037077Y021750D01*
D29*
X021097Y003510D03*
X021097Y002990D03*
X020337Y002990D03*
X020337Y003250D03*
X020337Y003510D03*
X020337Y001810D03*
X020337Y001550D03*
X020337Y001290D03*
X021097Y001290D03*
X021097Y001810D03*
X023237Y001810D03*
X023237Y001550D03*
X023237Y001290D03*
X023997Y001290D03*
X023997Y001810D03*
X026037Y001810D03*
X026037Y001550D03*
X026037Y001290D03*
X026797Y001290D03*
X026797Y001810D03*
D30*
X030517Y003694D03*
X030517Y004206D03*
X019417Y016294D03*
X019417Y016806D03*
X018717Y016806D03*
X018717Y016294D03*
X018017Y016294D03*
X018017Y016806D03*
X018017Y018094D03*
X018717Y018094D03*
X018717Y018606D03*
X018017Y018606D03*
X019417Y018606D03*
X019417Y018094D03*
D31*
X034664Y004667D03*
X035570Y004667D03*
D32*
X035117Y006833D03*
D33*
X029991Y002150D03*
X029243Y002150D03*
X029243Y001150D03*
X029991Y001150D03*
X012191Y001350D03*
X011443Y001350D03*
X011443Y003250D03*
X012191Y003250D03*
D34*
X023561Y010450D03*
X024073Y010450D03*
X026661Y008950D03*
X027173Y008950D03*
X027213Y006130D03*
X026701Y006130D03*
X031861Y006050D03*
X032373Y006050D03*
X032273Y001750D03*
X031761Y001750D03*
D35*
X026617Y007050D03*
X026617Y008050D03*
X019917Y010550D03*
X018917Y010550D03*
D36*
X021235Y011950D03*
X021235Y012450D03*
X021235Y012950D03*
X021235Y013450D03*
X021235Y013950D03*
X021235Y014450D03*
X021235Y014950D03*
X021235Y015450D03*
X021235Y015950D03*
X021235Y016450D03*
X021235Y016950D03*
X021235Y017450D03*
X021235Y017950D03*
X021235Y018450D03*
X024999Y018450D03*
X024999Y017950D03*
X024999Y017450D03*
X024999Y016950D03*
X024999Y016450D03*
X024999Y015950D03*
X024999Y015450D03*
X024999Y014950D03*
X024999Y014450D03*
X024999Y013950D03*
X024999Y013450D03*
X024999Y012950D03*
X024999Y012450D03*
X024999Y011950D03*
D37*
X037560Y006782D02*
X037560Y006267D01*
X040334Y006741D02*
X040849Y006741D01*
X041890Y005207D02*
X041890Y004693D01*
X039628Y003907D02*
X039113Y003907D01*
X039077Y002962D02*
X038562Y002962D01*
X008775Y002718D02*
X008775Y003233D01*
X006001Y002759D02*
X005486Y002759D01*
X004444Y004293D02*
X004444Y004807D01*
X006706Y005593D02*
X007221Y005593D01*
X007257Y006538D02*
X007772Y006538D01*
D38*
X022317Y010450D03*
D39*
X012517Y016770D03*
X012517Y017020D03*
X012517Y017280D03*
X012517Y017530D03*
X011517Y017530D03*
X011517Y017280D03*
X011517Y017020D03*
X011517Y016770D03*
D40*
X014637Y016750D02*
X015197Y016750D01*
X015197Y017750D02*
X014637Y017750D01*
D41*
X029100Y017550D03*
X029100Y016550D03*
X031934Y016550D03*
X031934Y017550D03*
X031934Y018550D03*
X031934Y019550D03*
X033900Y019550D03*
X033900Y018550D03*
X033900Y017550D03*
X033900Y016550D03*
X036734Y016550D03*
X036734Y017550D03*
X036734Y018550D03*
X036734Y019550D03*
X036734Y022950D03*
X036734Y023950D03*
X036734Y024950D03*
X036734Y025950D03*
X033900Y025950D03*
X033900Y024950D03*
X033900Y023950D03*
X033900Y022950D03*
X031934Y022950D03*
X031934Y023950D03*
X031934Y024950D03*
X031934Y025950D03*
X029100Y025950D03*
X029100Y024950D03*
X029100Y023950D03*
X029100Y022950D03*
X029100Y019550D03*
X029100Y018550D03*
D42*
X009317Y014850D03*
X008217Y014850D03*
X022417Y001950D03*
X025217Y001950D03*
X028317Y001950D03*
X028317Y001150D03*
D43*
X009348Y021730D03*
X007647Y021730D03*
D44*
X010797Y021619D03*
X010797Y023320D03*
D45*
X023042Y008950D03*
X023292Y008950D03*
X023542Y008950D03*
X023792Y008950D03*
X024042Y008950D03*
X024292Y008950D03*
X024542Y008950D03*
X024792Y008950D03*
X025042Y008950D03*
X025292Y008950D03*
X025542Y008950D03*
X025792Y008950D03*
X025792Y005950D03*
X025542Y005950D03*
X025292Y005950D03*
X025042Y005950D03*
X024792Y005950D03*
X024542Y005950D03*
X024292Y005950D03*
X024042Y005950D03*
X023792Y005950D03*
X023542Y005950D03*
X023292Y005950D03*
X023042Y005950D03*
D46*
X024102Y009650D03*
X024693Y009650D03*
X012917Y003265D03*
X012917Y002674D03*
X012917Y001926D03*
X012917Y001335D03*
D47*
X026717Y020999D03*
X026717Y022180D03*
D48*
X019656Y020563D03*
X019656Y024776D03*
D49*
X008508Y024349D03*
X008508Y023168D03*
X007327Y023168D03*
X037935Y022522D03*
X037935Y021341D03*
X039116Y021341D03*
X039116Y020159D03*
X037935Y020159D03*
X037935Y018978D03*
X039116Y018978D03*
D50*
X039116Y022522D03*
X007327Y024349D03*
D51*
X007917Y026050D03*
X040817Y021675D03*
X040817Y019825D03*
D52*
X005817Y008850D03*
D53*
X004817Y008850D03*
X004817Y009850D03*
X004817Y010850D03*
X005817Y010850D03*
X005817Y009850D03*
X005817Y011850D03*
X004817Y011850D03*
X004817Y012850D03*
X005817Y012850D03*
X005817Y013850D03*
X004817Y013850D03*
X004817Y014850D03*
X004817Y015850D03*
X005817Y015850D03*
X005817Y014850D03*
X005817Y016850D03*
X004817Y016850D03*
X004817Y017850D03*
X005817Y017850D03*
X005817Y018850D03*
X004817Y018850D03*
X004817Y019850D03*
X005817Y019850D03*
X005817Y020850D03*
X004817Y020850D03*
D54*
X012417Y015341D03*
X013409Y015325D03*
X012917Y004744D03*
D55*
X019676Y001153D03*
X021276Y002614D03*
X022645Y003587D03*
X023142Y002180D03*
X022011Y001304D03*
X024953Y001310D03*
X027328Y001170D03*
X025398Y003612D03*
X026429Y005313D03*
X024705Y005528D03*
X022570Y005833D03*
X021026Y007176D03*
X017398Y010182D03*
X016400Y010669D03*
X023368Y014923D03*
X024364Y015560D03*
X022370Y016351D03*
X024364Y017450D03*
X024020Y017950D03*
X026219Y018823D03*
X027917Y019016D03*
X028407Y016218D03*
X027795Y012773D03*
X026198Y012850D03*
X025652Y012404D03*
X024364Y012607D03*
X023855Y012542D03*
X028193Y010624D03*
X033221Y010511D03*
X032023Y004502D03*
X031862Y003485D03*
X033216Y002344D03*
X020074Y016865D03*
X019895Y017403D03*
X020254Y018450D03*
X018597Y017450D03*
X010855Y017530D03*
X008950Y019915D03*
M02*
