G75*
G70*
%OFA0B0*%
%FSLAX24Y24*%
%IPPOS*%
%LPD*%
%AMOC8*
5,1,8,0,0,1.08239X$1,22.5*
%
%ADD10OC8,0.0520*%
%ADD11OC8,0.1000*%
%ADD12C,0.0660*%
%ADD13C,0.0574*%
%ADD14C,0.0520*%
%ADD15C,0.0520*%
%ADD16C,0.0515*%
%ADD17OC8,0.0850*%
%ADD18C,0.0560*%
%ADD19C,0.0602*%
%ADD20R,0.0602X0.0602*%
%ADD21C,0.0560*%
%ADD22OC8,0.0560*%
%ADD23C,0.0400*%
%ADD24C,0.0079*%
%ADD25C,0.0300*%
%ADD26C,0.0060*%
D10*
X009617Y002300D03*
X010617Y002300D03*
X010617Y003500D03*
X009617Y003500D03*
X016917Y003800D03*
X017917Y003800D03*
X017917Y004800D03*
X016917Y004800D03*
X016917Y002700D03*
X017817Y002800D03*
X017817Y001800D03*
X016917Y001700D03*
X033917Y002900D03*
X033917Y003900D03*
X013217Y019200D03*
X013217Y020200D03*
X009417Y017550D03*
X009417Y016550D03*
X007417Y016550D03*
X007417Y017550D03*
X008017Y019400D03*
X008017Y020400D03*
X012617Y024000D03*
X015617Y024000D03*
X013817Y026300D03*
X012817Y026300D03*
D11*
X011417Y013350D03*
X015417Y013350D03*
X013417Y006350D03*
D12*
X012217Y022500D03*
X016217Y022500D03*
D13*
X039063Y013478D02*
X039637Y013478D01*
X039637Y012494D02*
X039063Y012494D01*
X039063Y011706D02*
X039637Y011706D01*
X039637Y010722D02*
X039063Y010722D01*
D14*
X036927Y015050D02*
X036407Y015050D01*
X033927Y015050D02*
X033407Y015050D01*
X032427Y015050D02*
X031907Y015050D01*
X029427Y015050D02*
X028907Y015050D01*
X028907Y021800D02*
X029427Y021800D01*
X031907Y021800D02*
X032427Y021800D01*
X033157Y021800D02*
X033677Y021800D01*
X036157Y021800D02*
X036677Y021800D01*
D15*
X020517Y010700D03*
X019517Y010700D03*
X027617Y006100D03*
X027617Y005100D03*
D16*
X037560Y006417D02*
X037560Y006932D01*
X040334Y006891D02*
X040849Y006891D01*
X041890Y005357D02*
X041890Y004843D01*
X039628Y004057D02*
X039113Y004057D01*
X039077Y003112D02*
X038562Y003112D01*
X008775Y002868D02*
X008775Y003383D01*
X006001Y002909D02*
X005486Y002909D01*
X004444Y004443D02*
X004444Y004957D01*
X006706Y005743D02*
X007221Y005743D01*
X007257Y006688D02*
X007772Y006688D01*
D17*
X025717Y009400D03*
D18*
X014697Y015450D02*
X014137Y015450D01*
X014137Y016450D02*
X014697Y016450D01*
D19*
X008508Y023318D03*
X007327Y023318D03*
X008508Y024499D03*
X037935Y022672D03*
X037935Y021491D03*
X039116Y021491D03*
X039116Y020309D03*
X037935Y020309D03*
X037935Y019128D03*
X039116Y019128D03*
D20*
X039116Y022672D03*
X007327Y024499D03*
D21*
X005817Y009000D03*
D22*
X004817Y009000D03*
X004817Y010000D03*
X005817Y010000D03*
X005817Y011000D03*
X004817Y011000D03*
X004817Y012000D03*
X005817Y012000D03*
X005817Y013000D03*
X004817Y013000D03*
X004817Y014000D03*
X005817Y014000D03*
X005817Y015000D03*
X004817Y015000D03*
X004817Y016000D03*
X005817Y016000D03*
X005817Y017000D03*
X004817Y017000D03*
X004817Y018000D03*
X005817Y018000D03*
X005817Y019000D03*
X004817Y019000D03*
X004817Y020000D03*
X004817Y021000D03*
X005817Y021000D03*
X005817Y020000D03*
D23*
X012465Y017316D03*
X007928Y015481D03*
X018543Y011209D03*
X018478Y009779D03*
X020785Y007675D03*
X022083Y009395D03*
X024686Y011059D03*
X026094Y012048D03*
X024379Y013600D03*
X020613Y013847D03*
X020014Y017017D03*
X020279Y018541D03*
X026892Y020547D03*
X036909Y025570D03*
X032689Y004677D03*
X031834Y004599D03*
X030530Y002700D03*
X028417Y001880D03*
X027185Y002239D03*
X026708Y003188D03*
X025188Y001971D03*
X023537Y002318D03*
X023016Y001903D03*
X022955Y001411D03*
X021612Y003048D03*
X019723Y001410D03*
X024355Y003566D03*
D24*
X024355Y013576D01*
X024379Y013600D01*
X026094Y012048D02*
X026094Y010339D01*
X031834Y004599D01*
X032689Y004677D02*
X030712Y002700D01*
X030530Y002700D01*
X028417Y001880D02*
X028031Y001494D01*
X023425Y001494D01*
X023016Y001903D01*
X022955Y001411D02*
X022955Y001410D01*
X019723Y001410D01*
X018827Y001410D01*
X017817Y002421D01*
X017817Y002800D01*
X017817Y003179D01*
X017727Y003269D01*
X017727Y003800D01*
X017917Y003800D01*
X017727Y003800D02*
X017228Y004299D01*
X016087Y004299D01*
X014036Y006350D01*
X013417Y006350D01*
X009617Y003879D02*
X008149Y005347D01*
X008149Y006688D01*
X007515Y006688D01*
X009617Y003879D02*
X009617Y003500D01*
X018478Y009779D02*
X015527Y012731D01*
X015417Y012731D01*
X015417Y013350D01*
X018543Y011209D02*
X018543Y010389D01*
X020785Y008147D01*
X020785Y007675D01*
X021612Y008925D02*
X022083Y009395D01*
X021612Y008925D02*
X021612Y003048D01*
X023537Y002318D02*
X024203Y001652D01*
X025838Y001652D01*
X026708Y002522D01*
X026902Y002522D01*
X027185Y002239D01*
X026708Y002522D02*
X026708Y003188D01*
X025188Y001971D02*
X024686Y002474D01*
X024686Y011059D01*
X020613Y013847D02*
X017145Y017316D01*
X012465Y017316D01*
X012838Y019200D02*
X012081Y019956D01*
X007926Y019956D01*
X007638Y020245D01*
X007638Y022448D01*
X008508Y023318D01*
X007327Y023318D02*
X007327Y020331D01*
X007878Y019779D01*
X008017Y019779D01*
X008017Y019400D01*
X007417Y017550D02*
X007417Y017171D01*
X007928Y016660D01*
X007928Y015481D01*
X012838Y019200D02*
X013217Y019200D01*
X020014Y017017D02*
X020279Y017282D01*
X020279Y018541D01*
X012617Y024000D02*
X012617Y024379D01*
X013817Y025579D01*
X013817Y026300D01*
X036909Y025570D02*
X037132Y025346D01*
X037132Y021695D01*
X037927Y020900D01*
X038526Y020900D01*
X039116Y020309D01*
D25*
X003967Y004268D02*
X003967Y002587D01*
X004162Y002700D01*
X004462Y002780D01*
X004772Y002780D01*
X005041Y002708D01*
X004998Y002812D01*
X004998Y003006D01*
X005072Y003185D01*
X005209Y003322D01*
X005389Y003396D01*
X006097Y003396D01*
X006277Y003322D01*
X006414Y003185D01*
X006488Y003006D01*
X006488Y002812D01*
X006414Y002633D01*
X006277Y002495D01*
X006097Y002421D01*
X005465Y002421D01*
X005561Y002324D01*
X005717Y002055D01*
X005797Y001755D01*
X005797Y001445D01*
X005717Y001145D01*
X005561Y000876D01*
X005536Y000850D01*
X040530Y000850D01*
X040418Y001045D01*
X040337Y001345D01*
X040337Y001655D01*
X040418Y001955D01*
X040573Y002224D01*
X040793Y002444D01*
X041062Y002600D01*
X041362Y002680D01*
X041672Y002680D01*
X041972Y002600D01*
X042167Y002487D01*
X042167Y004416D01*
X042156Y004408D01*
X042085Y004372D01*
X042009Y004348D01*
X041930Y004335D01*
X041890Y004335D01*
X041890Y005100D01*
X041383Y005100D01*
X041383Y004803D01*
X041395Y004724D01*
X041420Y004648D01*
X041456Y004577D01*
X041503Y004512D01*
X041560Y004455D01*
X041624Y004408D01*
X041695Y004372D01*
X041771Y004348D01*
X041850Y004335D01*
X041890Y004335D01*
X041890Y005100D01*
X041890Y005100D01*
X041383Y005100D01*
X041383Y005397D01*
X041395Y005476D01*
X041420Y005552D01*
X041456Y005623D01*
X041503Y005688D01*
X041560Y005745D01*
X041624Y005792D01*
X041695Y005828D01*
X041771Y005852D01*
X041850Y005865D01*
X041890Y005865D01*
X041890Y005100D01*
X041890Y005100D01*
X041890Y005100D01*
X041890Y005865D01*
X041930Y005865D01*
X042009Y005852D01*
X042085Y005828D01*
X042156Y005792D01*
X042167Y005784D01*
X042167Y025713D01*
X041972Y025600D01*
X041672Y025520D01*
X041362Y025520D01*
X041062Y025600D01*
X040793Y025756D01*
X040573Y025976D01*
X040418Y026245D01*
X040337Y026545D01*
X040337Y026855D01*
X040418Y027155D01*
X040530Y027350D01*
X005606Y027346D01*
X005717Y027155D01*
X005797Y026855D01*
X005797Y026545D01*
X005717Y026245D01*
X005561Y025976D01*
X005342Y025756D01*
X005072Y025600D01*
X004772Y025520D01*
X004462Y025520D01*
X004162Y025600D01*
X003967Y025713D01*
X003967Y005132D01*
X003974Y005152D01*
X004010Y005223D01*
X004057Y005288D01*
X004113Y005345D01*
X004178Y005392D01*
X004249Y005428D01*
X004325Y005452D01*
X004404Y005465D01*
X004444Y005465D01*
X004444Y004700D01*
X004951Y004700D01*
X004951Y004997D01*
X004939Y005076D01*
X008040Y005076D01*
X007921Y005195D02*
X009270Y003846D01*
X009135Y003711D01*
X009051Y003796D01*
X008872Y003870D01*
X008678Y003870D01*
X008498Y003796D01*
X008361Y003659D01*
X008287Y003480D01*
X008287Y002771D01*
X008361Y002592D01*
X008498Y002454D01*
X008678Y002380D01*
X008872Y002380D01*
X009051Y002454D01*
X009188Y002592D01*
X009262Y002771D01*
X009262Y003162D01*
X009414Y003010D01*
X009820Y003010D01*
X010107Y003297D01*
X010107Y003703D01*
X009886Y003924D01*
X009886Y003933D01*
X009845Y004032D01*
X008418Y005459D01*
X008418Y006742D01*
X008377Y006841D01*
X008302Y006917D01*
X008203Y006958D01*
X008188Y006958D01*
X008185Y006964D01*
X008048Y007101D01*
X007869Y007176D01*
X007160Y007176D01*
X006981Y007101D01*
X006844Y006964D01*
X006770Y006785D01*
X006770Y006591D01*
X006844Y006412D01*
X006981Y006275D01*
X007088Y006231D01*
X006609Y006231D01*
X006430Y006157D01*
X006293Y006019D01*
X006219Y005840D01*
X006219Y005646D01*
X006293Y005467D01*
X006430Y005330D01*
X006609Y005256D01*
X007318Y005256D01*
X007497Y005330D01*
X007634Y005467D01*
X007708Y005646D01*
X007708Y005840D01*
X007634Y006019D01*
X007497Y006157D01*
X007391Y006201D01*
X007869Y006201D01*
X007880Y006205D01*
X007880Y005294D01*
X007921Y005195D01*
X007880Y005375D02*
X007542Y005375D01*
X007708Y005673D02*
X007880Y005673D01*
X007880Y005972D02*
X007654Y005972D01*
X008418Y005972D02*
X012735Y005972D01*
X012667Y006039D02*
X013106Y005600D01*
X013417Y005600D01*
X013417Y006350D01*
X012667Y006350D01*
X012667Y006039D01*
X012667Y006270D02*
X008418Y006270D01*
X008418Y006569D02*
X012667Y006569D01*
X012667Y006661D02*
X012667Y006350D01*
X013417Y006350D01*
X013417Y006350D01*
X013417Y006350D01*
X013417Y007100D01*
X013106Y007100D01*
X012667Y006661D01*
X012873Y006867D02*
X008351Y006867D01*
X007894Y007166D02*
X021343Y007166D01*
X021343Y007464D02*
X021163Y007464D01*
X021150Y007431D02*
X021215Y007589D01*
X021215Y007760D01*
X021150Y007918D01*
X021054Y008014D01*
X021054Y008093D01*
X021054Y008200D01*
X021013Y008299D01*
X018812Y010501D01*
X018812Y010871D01*
X018907Y010966D01*
X018973Y011124D01*
X018973Y011295D01*
X018907Y011453D01*
X018786Y011574D01*
X018628Y011639D01*
X018457Y011639D01*
X018299Y011574D01*
X018178Y011453D01*
X018113Y011295D01*
X018113Y011124D01*
X018178Y010966D01*
X018273Y010871D01*
X018273Y010365D01*
X015869Y012769D01*
X016147Y013048D01*
X016147Y013652D01*
X015719Y014080D01*
X015115Y014080D01*
X014687Y013652D01*
X014687Y013048D01*
X015115Y012620D01*
X015171Y012620D01*
X015189Y012578D01*
X015264Y012502D01*
X015363Y012461D01*
X015415Y012461D01*
X018048Y009828D01*
X018048Y009694D01*
X018113Y009536D01*
X018234Y009415D01*
X018392Y009349D01*
X018563Y009349D01*
X018721Y009415D01*
X018842Y009536D01*
X018893Y009658D01*
X020516Y008035D01*
X020516Y008014D01*
X020421Y007918D01*
X020355Y007760D01*
X020355Y007589D01*
X020421Y007431D01*
X020542Y007310D01*
X020700Y007245D01*
X020871Y007245D01*
X021029Y007310D01*
X021150Y007431D01*
X021214Y007763D02*
X021343Y007763D01*
X021343Y008061D02*
X021054Y008061D01*
X020953Y008360D02*
X021343Y008360D01*
X021343Y008658D02*
X020655Y008658D01*
X020356Y008957D02*
X021343Y008957D01*
X021343Y008978D02*
X021343Y003386D01*
X021247Y003291D01*
X021182Y003133D01*
X021182Y002962D01*
X021247Y002804D01*
X021368Y002683D01*
X021526Y002618D01*
X021697Y002618D01*
X021856Y002683D01*
X021976Y002804D01*
X022042Y002962D01*
X022042Y003133D01*
X021976Y003291D01*
X021881Y003386D01*
X021881Y008813D01*
X022034Y008965D01*
X022168Y008965D01*
X022326Y009031D01*
X022447Y009152D01*
X022513Y009310D01*
X022513Y009481D01*
X022447Y009639D01*
X022326Y009760D01*
X022168Y009825D01*
X021997Y009825D01*
X021839Y009760D01*
X021718Y009639D01*
X021653Y009481D01*
X021653Y009346D01*
X021384Y009077D01*
X021343Y008978D01*
X021561Y009255D02*
X020058Y009255D01*
X019759Y009554D02*
X021683Y009554D01*
X022025Y008957D02*
X024086Y008957D01*
X024086Y009255D02*
X022490Y009255D01*
X022483Y009554D02*
X024086Y009554D01*
X024086Y009852D02*
X019461Y009852D01*
X018997Y009554D02*
X018850Y009554D01*
X019296Y009255D02*
X006263Y009255D01*
X006249Y009289D02*
X006106Y009432D01*
X005967Y009490D01*
X006028Y009490D01*
X006327Y009789D01*
X006327Y010211D01*
X006038Y010500D01*
X006327Y010789D01*
X006327Y011211D01*
X006038Y011500D01*
X006327Y011789D01*
X006327Y012211D01*
X006038Y012500D01*
X006327Y012789D01*
X006327Y013211D01*
X006038Y013500D01*
X006327Y013789D01*
X006327Y014211D01*
X006038Y014500D01*
X006327Y014789D01*
X006327Y015211D01*
X006038Y015500D01*
X006327Y015789D01*
X006327Y016211D01*
X006038Y016500D01*
X006327Y016789D01*
X006327Y017211D01*
X006038Y017500D01*
X006327Y017789D01*
X006327Y018211D01*
X006038Y018500D01*
X006327Y018789D01*
X006327Y019211D01*
X006038Y019500D01*
X006327Y019789D01*
X006327Y020211D01*
X006038Y020500D01*
X006327Y020789D01*
X006327Y021211D01*
X006028Y021510D01*
X005606Y021510D01*
X005317Y021221D01*
X005028Y021510D01*
X004606Y021510D01*
X004307Y021211D01*
X004307Y020789D01*
X004596Y020500D01*
X004307Y020211D01*
X004307Y019789D01*
X004596Y019500D01*
X004307Y019211D01*
X004307Y018789D01*
X004596Y018500D01*
X004307Y018211D01*
X004307Y017789D01*
X004596Y017500D01*
X004307Y017211D01*
X004307Y016789D01*
X004596Y016500D01*
X004307Y016211D01*
X004307Y015789D01*
X004596Y015500D01*
X004307Y015211D01*
X004307Y014789D01*
X004596Y014500D01*
X004307Y014211D01*
X004307Y013789D01*
X004596Y013500D01*
X004307Y013211D01*
X004307Y012789D01*
X004596Y012500D01*
X004307Y012211D01*
X004307Y011789D01*
X004582Y011514D01*
X004287Y011220D01*
X004287Y011000D01*
X004287Y010780D01*
X004582Y010486D01*
X004307Y010211D01*
X004307Y009789D01*
X004596Y009500D01*
X004307Y009211D01*
X004307Y008789D01*
X004606Y008490D01*
X005028Y008490D01*
X005327Y008789D01*
X005327Y008850D01*
X005385Y008711D01*
X005528Y008568D01*
X005716Y008490D01*
X005919Y008490D01*
X006106Y008568D01*
X006249Y008711D01*
X006327Y008899D01*
X006327Y009101D01*
X006249Y009289D01*
X006092Y009554D02*
X018106Y009554D01*
X018024Y009852D02*
X006327Y009852D01*
X006327Y010151D02*
X017726Y010151D01*
X017427Y010449D02*
X006089Y010449D01*
X006286Y010748D02*
X017129Y010748D01*
X016830Y011046D02*
X006327Y011046D01*
X006194Y011345D02*
X016532Y011345D01*
X016233Y011643D02*
X006181Y011643D01*
X006327Y011942D02*
X015935Y011942D01*
X015636Y012240D02*
X006298Y012240D01*
X006077Y012539D02*
X015228Y012539D01*
X014898Y012837D02*
X011936Y012837D01*
X012147Y013048D02*
X011719Y012620D01*
X011115Y012620D01*
X010687Y013048D01*
X010687Y013652D01*
X011115Y014080D01*
X011719Y014080D01*
X012147Y013652D01*
X012147Y013048D01*
X012147Y013136D02*
X014687Y013136D01*
X014687Y013434D02*
X012147Y013434D01*
X012067Y013733D02*
X014767Y013733D01*
X015066Y014031D02*
X011768Y014031D01*
X011066Y014031D02*
X006327Y014031D01*
X006271Y013733D02*
X010767Y013733D01*
X010687Y013434D02*
X006104Y013434D01*
X006327Y013136D02*
X010687Y013136D01*
X010898Y012837D02*
X006327Y012837D01*
X004557Y012539D02*
X003967Y012539D01*
X003967Y012837D02*
X004307Y012837D01*
X004307Y013136D02*
X003967Y013136D01*
X003967Y013434D02*
X004530Y013434D01*
X004363Y013733D02*
X003967Y013733D01*
X003967Y014031D02*
X004307Y014031D01*
X004425Y014330D02*
X003967Y014330D01*
X003967Y014628D02*
X004468Y014628D01*
X004307Y014927D02*
X003967Y014927D01*
X003967Y015225D02*
X004321Y015225D01*
X004572Y015524D02*
X003967Y015524D01*
X003967Y015822D02*
X004307Y015822D01*
X004307Y016121D02*
X003967Y016121D01*
X003967Y016419D02*
X004515Y016419D01*
X004378Y016718D02*
X003967Y016718D01*
X003967Y017016D02*
X004307Y017016D01*
X004410Y017315D02*
X003967Y017315D01*
X003967Y017613D02*
X004483Y017613D01*
X004307Y017912D02*
X003967Y017912D01*
X003967Y018210D02*
X004307Y018210D01*
X004587Y018509D02*
X003967Y018509D01*
X003967Y018807D02*
X004307Y018807D01*
X004307Y019106D02*
X003967Y019106D01*
X003967Y019404D02*
X004500Y019404D01*
X004393Y019703D02*
X003967Y019703D01*
X003967Y020001D02*
X004307Y020001D01*
X004395Y020300D02*
X003967Y020300D01*
X003967Y020598D02*
X004498Y020598D01*
X004307Y020897D02*
X003967Y020897D01*
X003967Y021195D02*
X004307Y021195D01*
X004589Y021494D02*
X003967Y021494D01*
X003967Y021792D02*
X007057Y021792D01*
X007057Y021494D02*
X006045Y021494D01*
X006327Y021195D02*
X007057Y021195D01*
X007057Y020897D02*
X006327Y020897D01*
X006136Y020598D02*
X007057Y020598D01*
X007057Y020300D02*
X006239Y020300D01*
X006327Y020001D02*
X007275Y020001D01*
X007098Y020178D02*
X007057Y020277D01*
X007057Y022855D01*
X007026Y022868D01*
X006876Y023017D01*
X006795Y023212D01*
X006795Y023424D01*
X006876Y023619D01*
X007026Y023768D01*
X007221Y023849D01*
X007432Y023849D01*
X007627Y023768D01*
X007777Y023619D01*
X007858Y023424D01*
X007858Y023212D01*
X007777Y023017D01*
X007627Y022868D01*
X007596Y022855D01*
X007596Y022787D01*
X007989Y023181D01*
X007976Y023212D01*
X007976Y023424D01*
X008057Y023619D01*
X008207Y023768D01*
X008402Y023849D01*
X008613Y023849D01*
X008809Y023768D01*
X008958Y023619D01*
X009039Y023424D01*
X009039Y023212D01*
X008958Y023017D01*
X008809Y022868D01*
X008613Y022787D01*
X008402Y022787D01*
X008370Y022800D01*
X007907Y022337D01*
X007907Y020890D01*
X008220Y020890D01*
X008330Y020780D01*
X008367Y020780D01*
X008475Y020824D01*
X012862Y020824D01*
X012895Y020904D01*
X014706Y022715D01*
X014813Y022822D01*
X014953Y022880D01*
X015237Y022880D01*
X015237Y023687D01*
X015127Y023797D01*
X015127Y024203D01*
X015414Y024490D01*
X015820Y024490D01*
X016107Y024203D01*
X016107Y023797D01*
X015997Y023687D01*
X015997Y023015D01*
X016106Y023060D01*
X016328Y023060D01*
X016534Y022975D01*
X016692Y022817D01*
X016777Y022611D01*
X016777Y022389D01*
X036863Y022389D01*
X036775Y022290D02*
X036060Y022290D01*
X035879Y022215D01*
X035742Y022078D01*
X035667Y021897D01*
X035667Y021703D01*
X035742Y021522D01*
X035879Y021385D01*
X036060Y021310D01*
X036775Y021310D01*
X036955Y021385D01*
X037008Y021438D01*
X037671Y020775D01*
X037634Y020760D01*
X037485Y020610D01*
X037404Y020415D01*
X037404Y020204D01*
X037485Y020009D01*
X037634Y019859D01*
X037830Y019778D01*
X038041Y019778D01*
X038236Y019859D01*
X038385Y020009D01*
X038466Y020204D01*
X038466Y020415D01*
X038385Y020610D01*
X038365Y020631D01*
X038414Y020631D01*
X038598Y020447D01*
X038585Y020415D01*
X038585Y020204D01*
X038666Y020009D01*
X038815Y019859D01*
X039011Y019778D01*
X039222Y019778D01*
X039417Y019859D01*
X039567Y020009D01*
X039647Y020204D01*
X039647Y020415D01*
X039567Y020610D01*
X039417Y020760D01*
X039222Y020841D01*
X039011Y020841D01*
X038979Y020828D01*
X038754Y021053D01*
X038678Y021128D01*
X038579Y021169D01*
X038365Y021169D01*
X038385Y021190D01*
X038466Y021385D01*
X038466Y021596D01*
X038385Y021791D01*
X038236Y021941D01*
X038041Y022022D01*
X037830Y022022D01*
X037634Y021941D01*
X037485Y021791D01*
X037465Y021743D01*
X037402Y021806D01*
X037402Y025400D01*
X037361Y025499D01*
X037339Y025521D01*
X037339Y025655D01*
X037273Y025813D01*
X037152Y025934D01*
X036994Y026000D01*
X036823Y026000D01*
X036665Y025934D01*
X036544Y025813D01*
X036479Y025655D01*
X036479Y025484D01*
X036544Y025326D01*
X036665Y025205D01*
X036823Y025140D01*
X036863Y025140D01*
X036863Y022253D01*
X036775Y022290D01*
X036863Y022688D02*
X016746Y022688D01*
X016777Y022389D02*
X016692Y022183D01*
X016534Y022025D01*
X016328Y021940D01*
X016106Y021940D01*
X015900Y022025D01*
X015805Y022120D01*
X015186Y022120D01*
X013597Y020531D01*
X013597Y020513D01*
X013707Y020403D01*
X013707Y019997D01*
X013420Y019710D01*
X013014Y019710D01*
X012727Y019997D01*
X012727Y020064D01*
X012354Y020064D01*
X012871Y019547D01*
X013014Y019690D01*
X013420Y019690D01*
X013707Y019403D01*
X013707Y018997D01*
X013420Y018710D01*
X013014Y018710D01*
X012793Y018931D01*
X012784Y018931D01*
X012685Y018972D01*
X011970Y019687D01*
X008423Y019687D01*
X008507Y019603D01*
X008507Y019197D01*
X008220Y018910D01*
X007814Y018910D01*
X007527Y019197D01*
X007527Y019603D01*
X007600Y019676D01*
X007098Y020178D01*
X007574Y019703D02*
X006241Y019703D01*
X006134Y019404D02*
X007527Y019404D01*
X007619Y019106D02*
X006327Y019106D01*
X006327Y018807D02*
X012917Y018807D01*
X012551Y019106D02*
X008416Y019106D01*
X008507Y019404D02*
X012253Y019404D01*
X012716Y019703D02*
X026512Y019703D01*
X026512Y019404D02*
X013706Y019404D01*
X013707Y019106D02*
X026617Y019106D01*
X026570Y019153D02*
X026677Y019046D01*
X035323Y010400D01*
X035462Y010342D01*
X038712Y010342D01*
X038770Y010284D01*
X038960Y010205D01*
X039691Y010205D01*
X039567Y010081D01*
X039414Y009713D01*
X039414Y009314D01*
X039567Y008945D01*
X039849Y008663D01*
X040218Y008511D01*
X040617Y008511D01*
X040985Y008663D01*
X041267Y008945D01*
X041420Y009314D01*
X041420Y009713D01*
X041267Y010081D01*
X040985Y010363D01*
X040617Y010516D01*
X040218Y010516D01*
X040089Y010463D01*
X040154Y010619D01*
X040154Y010825D01*
X040075Y011015D01*
X039930Y011160D01*
X039800Y011214D01*
X039930Y011268D01*
X040075Y011413D01*
X040154Y011603D01*
X040154Y011809D01*
X040075Y011999D01*
X039975Y012100D01*
X040075Y012201D01*
X040154Y012391D01*
X040154Y012597D01*
X040075Y012787D01*
X039930Y012932D01*
X039827Y012975D01*
X039843Y012980D01*
X039919Y013019D01*
X039987Y013068D01*
X040047Y013128D01*
X040096Y013196D01*
X040135Y013272D01*
X040161Y013352D01*
X040174Y013436D01*
X040174Y013478D01*
X040174Y013520D01*
X040161Y013604D01*
X040135Y013684D01*
X040113Y013727D01*
X040218Y013684D01*
X040617Y013684D01*
X040985Y013837D01*
X041267Y014119D01*
X041420Y014487D01*
X041420Y014886D01*
X041267Y015255D01*
X040985Y015537D01*
X040617Y015689D01*
X040218Y015689D01*
X039849Y015537D01*
X039567Y015255D01*
X039414Y014886D01*
X039414Y014487D01*
X039567Y014119D01*
X039671Y014015D01*
X039350Y014015D01*
X039021Y014015D01*
X038937Y014002D01*
X038857Y013976D01*
X038782Y013937D01*
X038713Y013888D01*
X038654Y013828D01*
X038604Y013759D01*
X038565Y013684D01*
X038539Y013604D01*
X038526Y013520D01*
X038526Y013478D01*
X039350Y013478D01*
X039350Y013478D01*
X039350Y014015D01*
X039350Y013478D01*
X039350Y013478D01*
X038526Y013478D01*
X038526Y013436D01*
X038539Y013352D01*
X038565Y013272D01*
X038604Y013196D01*
X038654Y013128D01*
X038713Y013068D01*
X038782Y013019D01*
X038857Y012980D01*
X038874Y012975D01*
X038770Y012932D01*
X038625Y012787D01*
X038546Y012597D01*
X038546Y012391D01*
X038625Y012201D01*
X038726Y012100D01*
X038625Y011999D01*
X038546Y011809D01*
X038546Y011603D01*
X038625Y011413D01*
X038770Y011268D01*
X038900Y011214D01*
X038770Y011160D01*
X038712Y011102D01*
X035695Y011102D01*
X032237Y014560D01*
X032525Y014560D01*
X032705Y014635D01*
X032842Y014772D01*
X032917Y014953D01*
X032917Y015147D01*
X032842Y015328D01*
X032705Y015465D01*
X032547Y015531D01*
X032547Y021319D01*
X032705Y021385D01*
X032792Y021472D01*
X032879Y021385D01*
X033060Y021310D01*
X033775Y021310D01*
X033955Y021385D01*
X034092Y021522D01*
X034167Y021703D01*
X034167Y021897D01*
X034092Y022078D01*
X033955Y022215D01*
X033775Y022290D01*
X033060Y022290D01*
X032879Y022215D01*
X032792Y022128D01*
X032705Y022215D01*
X032525Y022290D01*
X031810Y022290D01*
X031629Y022215D01*
X031492Y022078D01*
X031417Y021897D01*
X031417Y021703D01*
X031492Y021522D01*
X031629Y021385D01*
X031787Y021319D01*
X031787Y015531D01*
X031629Y015465D01*
X031492Y015328D01*
X031485Y015312D01*
X027272Y019526D01*
X027272Y020341D01*
X027322Y020462D01*
X027322Y020633D01*
X027256Y020791D01*
X027135Y020912D01*
X026977Y020977D01*
X026806Y020977D01*
X026648Y020912D01*
X026527Y020791D01*
X026462Y020633D01*
X026462Y020462D01*
X026512Y020341D01*
X026512Y019293D01*
X026570Y019153D01*
X026892Y019368D02*
X026892Y020547D01*
X027322Y020598D02*
X031787Y020598D01*
X031787Y020300D02*
X027272Y020300D01*
X027272Y020001D02*
X031787Y020001D01*
X031787Y019703D02*
X027272Y019703D01*
X027393Y019404D02*
X031787Y019404D01*
X031787Y019106D02*
X027692Y019106D01*
X027990Y018807D02*
X031787Y018807D01*
X031787Y018509D02*
X028289Y018509D01*
X028587Y018210D02*
X031787Y018210D01*
X031787Y017912D02*
X028886Y017912D01*
X029184Y017613D02*
X031787Y017613D01*
X031787Y017315D02*
X029483Y017315D01*
X029781Y017016D02*
X031787Y017016D01*
X031787Y016718D02*
X030080Y016718D01*
X030378Y016419D02*
X031787Y016419D01*
X031787Y016121D02*
X030677Y016121D01*
X030975Y015822D02*
X031787Y015822D01*
X031770Y015524D02*
X031274Y015524D01*
X030796Y014927D02*
X029906Y014927D01*
X029917Y014953D02*
X029917Y015147D01*
X029842Y015328D01*
X029705Y015465D01*
X029525Y015540D01*
X028810Y015540D01*
X028629Y015465D01*
X028492Y015328D01*
X028417Y015147D01*
X028417Y014953D01*
X028492Y014772D01*
X028629Y014635D01*
X028810Y014560D01*
X029525Y014560D01*
X029705Y014635D01*
X029842Y014772D01*
X029917Y014953D01*
X029885Y015225D02*
X030498Y015225D01*
X030199Y015524D02*
X029564Y015524D01*
X029901Y015822D02*
X019020Y015822D01*
X019318Y015524D02*
X028770Y015524D01*
X028449Y015225D02*
X019617Y015225D01*
X019915Y014927D02*
X028428Y014927D01*
X028645Y014628D02*
X020214Y014628D01*
X020512Y014330D02*
X031393Y014330D01*
X031095Y014628D02*
X029689Y014628D01*
X031692Y014031D02*
X021003Y014031D01*
X020978Y014091D02*
X021043Y013933D01*
X021043Y013762D01*
X020978Y013604D01*
X020857Y013483D01*
X020699Y013417D01*
X020528Y013417D01*
X020370Y013483D01*
X020249Y013604D01*
X020183Y013762D01*
X020183Y013896D01*
X017033Y017046D01*
X012804Y017046D01*
X012709Y016951D01*
X012551Y016886D01*
X012380Y016886D01*
X012222Y016951D01*
X012101Y017072D01*
X012035Y017230D01*
X012035Y017401D01*
X012101Y017559D01*
X012222Y017680D01*
X012380Y017746D01*
X012551Y017746D01*
X012709Y017680D01*
X012804Y017585D01*
X017199Y017585D01*
X017298Y017544D01*
X020564Y014277D01*
X020699Y014277D01*
X020857Y014212D01*
X020978Y014091D01*
X021031Y013733D02*
X023968Y013733D01*
X023949Y013686D02*
X023949Y013514D01*
X024014Y013356D01*
X024086Y013285D01*
X024086Y003905D01*
X023990Y003810D01*
X023925Y003652D01*
X023925Y003481D01*
X023990Y003323D01*
X024111Y003202D01*
X024269Y003136D01*
X024416Y003136D01*
X024416Y002420D01*
X024457Y002321D01*
X024758Y002020D01*
X024758Y001921D01*
X024314Y001921D01*
X023967Y002269D01*
X023967Y002403D01*
X023902Y002561D01*
X023781Y002682D01*
X023623Y002748D01*
X023452Y002748D01*
X023293Y002682D01*
X023173Y002561D01*
X023107Y002403D01*
X023107Y002331D01*
X023102Y002333D01*
X022931Y002333D01*
X022773Y002268D01*
X022652Y002147D01*
X022586Y001989D01*
X022586Y001818D01*
X022652Y001660D01*
X022773Y001539D01*
X022931Y001473D01*
X023065Y001473D01*
X023273Y001266D01*
X023372Y001225D01*
X028085Y001225D01*
X028184Y001266D01*
X028260Y001342D01*
X028368Y001450D01*
X028503Y001450D01*
X028661Y001516D01*
X028782Y001636D01*
X028847Y001795D01*
X028847Y001966D01*
X028782Y002124D01*
X028661Y002245D01*
X028503Y002310D01*
X028332Y002310D01*
X028173Y002245D01*
X028053Y002124D01*
X027987Y001966D01*
X027987Y001831D01*
X027920Y001764D01*
X026331Y001764D01*
X026755Y002188D01*
X026755Y002153D01*
X026821Y001995D01*
X026942Y001874D01*
X027100Y001809D01*
X027271Y001809D01*
X027429Y001874D01*
X027550Y001995D01*
X027615Y002153D01*
X027615Y002324D01*
X027550Y002482D01*
X027429Y002603D01*
X027271Y002669D01*
X027136Y002669D01*
X027055Y002750D01*
X026978Y002782D01*
X026978Y002849D01*
X027073Y002944D01*
X027138Y003102D01*
X027138Y003273D01*
X027073Y003432D01*
X026952Y003552D01*
X026794Y003618D01*
X026623Y003618D01*
X026465Y003552D01*
X026344Y003432D01*
X026278Y003273D01*
X026278Y003102D01*
X026344Y002944D01*
X026439Y002849D01*
X026439Y002633D01*
X025727Y001921D01*
X025618Y001921D01*
X025618Y002057D01*
X025553Y002215D01*
X025432Y002336D01*
X025273Y002401D01*
X025139Y002401D01*
X024955Y002585D01*
X024955Y010720D01*
X025050Y010815D01*
X025116Y010974D01*
X025116Y011145D01*
X025050Y011303D01*
X024929Y011424D01*
X024771Y011489D01*
X024624Y011489D01*
X024624Y013237D01*
X024744Y013356D01*
X024809Y013514D01*
X024809Y013686D01*
X024744Y013844D01*
X024623Y013965D01*
X024465Y014030D01*
X024293Y014030D01*
X024135Y013965D01*
X024014Y013844D01*
X023949Y013686D01*
X023982Y013434D02*
X020739Y013434D01*
X020488Y013434D02*
X016147Y013434D01*
X016147Y013136D02*
X024086Y013136D01*
X024086Y012837D02*
X015936Y012837D01*
X016100Y012539D02*
X024086Y012539D01*
X024086Y012240D02*
X016398Y012240D01*
X016697Y011942D02*
X024086Y011942D01*
X024086Y011643D02*
X016995Y011643D01*
X017294Y011345D02*
X018133Y011345D01*
X018145Y011046D02*
X017592Y011046D01*
X017891Y010748D02*
X018273Y010748D01*
X018273Y010449D02*
X018189Y010449D01*
X018864Y010449D02*
X019091Y010449D01*
X019102Y010422D02*
X019239Y010285D01*
X019420Y010210D01*
X019615Y010210D01*
X019795Y010285D01*
X019932Y010422D01*
X020007Y010603D01*
X020007Y010797D01*
X019932Y010978D01*
X019795Y011115D01*
X019615Y011190D01*
X019420Y011190D01*
X019239Y011115D01*
X019102Y010978D01*
X019027Y010797D01*
X019027Y010603D01*
X019102Y010422D01*
X019162Y010151D02*
X024086Y010151D01*
X024086Y010449D02*
X020943Y010449D01*
X020932Y010422D02*
X021007Y010603D01*
X021007Y010797D01*
X020932Y010978D01*
X020795Y011115D01*
X020615Y011190D01*
X020420Y011190D01*
X020239Y011115D01*
X020102Y010978D01*
X020027Y010797D01*
X020027Y010603D01*
X020102Y010422D01*
X020239Y010285D01*
X020420Y010210D01*
X020615Y010210D01*
X020795Y010285D01*
X020932Y010422D01*
X021007Y010748D02*
X024086Y010748D01*
X024086Y011046D02*
X020864Y011046D01*
X020170Y011046D02*
X019864Y011046D01*
X020007Y010748D02*
X020027Y010748D01*
X020091Y010449D02*
X019943Y010449D01*
X019027Y010748D02*
X018812Y010748D01*
X018941Y011046D02*
X019170Y011046D01*
X018952Y011345D02*
X024086Y011345D01*
X024624Y011643D02*
X025825Y011643D01*
X025825Y011709D02*
X025825Y010286D01*
X025866Y010187D01*
X031404Y004648D01*
X031404Y004514D01*
X031470Y004355D01*
X031591Y004235D01*
X031749Y004169D01*
X031800Y004169D01*
X030719Y003088D01*
X030616Y003130D01*
X030445Y003130D01*
X030287Y003065D01*
X030166Y002944D01*
X030100Y002786D01*
X030100Y002615D01*
X030166Y002457D01*
X030287Y002336D01*
X030445Y002270D01*
X030616Y002270D01*
X030774Y002336D01*
X030895Y002457D01*
X030927Y002535D01*
X032640Y004247D01*
X032775Y004247D01*
X032933Y004313D01*
X033054Y004434D01*
X033119Y004592D01*
X033119Y004763D01*
X033054Y004921D01*
X032933Y005042D01*
X032775Y005107D01*
X032604Y005107D01*
X032446Y005042D01*
X032325Y004921D01*
X032259Y004763D01*
X032259Y004697D01*
X032199Y004843D01*
X032078Y004964D01*
X031920Y005029D01*
X031785Y005029D01*
X026363Y010451D01*
X026363Y011709D01*
X026459Y011804D01*
X026524Y011962D01*
X026524Y012133D01*
X026459Y012291D01*
X026338Y012412D01*
X026180Y012478D01*
X026009Y012478D01*
X025851Y012412D01*
X025730Y012291D01*
X025664Y012133D01*
X025664Y011962D01*
X025730Y011804D01*
X025825Y011709D01*
X025673Y011942D02*
X024624Y011942D01*
X024624Y012240D02*
X025708Y012240D01*
X026480Y012240D02*
X033483Y012240D01*
X033781Y011942D02*
X026516Y011942D01*
X026363Y011643D02*
X034080Y011643D01*
X034378Y011345D02*
X026363Y011345D01*
X026363Y011046D02*
X034677Y011046D01*
X034975Y010748D02*
X026363Y010748D01*
X026365Y010449D02*
X035274Y010449D01*
X035538Y010722D02*
X026892Y019368D01*
X026916Y018807D02*
X020621Y018807D01*
X020643Y018784D02*
X020522Y018905D01*
X020364Y018971D01*
X020193Y018971D01*
X020035Y018905D01*
X019914Y018784D01*
X019849Y018626D01*
X019849Y018455D01*
X019914Y018297D01*
X020010Y018202D01*
X020010Y017447D01*
X019928Y017447D01*
X019770Y017381D01*
X019649Y017260D01*
X019584Y017102D01*
X019584Y016931D01*
X019649Y016773D01*
X019770Y016652D01*
X019928Y016587D01*
X020099Y016587D01*
X020257Y016652D01*
X020378Y016773D01*
X020444Y016931D01*
X020444Y017066D01*
X020507Y017130D01*
X020548Y017229D01*
X020548Y018202D01*
X020643Y018297D01*
X020709Y018455D01*
X020709Y018626D01*
X020643Y018784D01*
X020709Y018509D02*
X027214Y018509D01*
X027513Y018210D02*
X020556Y018210D01*
X020548Y017912D02*
X027811Y017912D01*
X028110Y017613D02*
X020548Y017613D01*
X020548Y017315D02*
X028408Y017315D01*
X028707Y017016D02*
X020444Y017016D01*
X020322Y016718D02*
X029005Y016718D01*
X029304Y016419D02*
X018423Y016419D01*
X018721Y016121D02*
X029602Y016121D01*
X032167Y015050D02*
X032167Y021800D01*
X031787Y021195D02*
X014261Y021195D01*
X014559Y021494D02*
X028521Y021494D01*
X028492Y021522D02*
X028629Y021385D01*
X028810Y021310D01*
X029525Y021310D01*
X029705Y021385D01*
X029842Y021522D01*
X029917Y021703D01*
X029917Y021897D01*
X029842Y022078D01*
X029705Y022215D01*
X029525Y022290D01*
X028810Y022290D01*
X028629Y022215D01*
X028492Y022078D01*
X028417Y021897D01*
X028417Y021703D01*
X028492Y021522D01*
X028417Y021792D02*
X014858Y021792D01*
X015156Y022091D02*
X015835Y022091D01*
X015617Y022500D02*
X015617Y023511D01*
X015617Y024000D01*
X016107Y023882D02*
X036863Y023882D01*
X036863Y024180D02*
X016107Y024180D01*
X015832Y024479D02*
X036863Y024479D01*
X036863Y024777D02*
X013396Y024777D01*
X013097Y024479D02*
X015403Y024479D01*
X015127Y024180D02*
X013107Y024180D01*
X013107Y024203D02*
X012964Y024346D01*
X013970Y025351D01*
X014045Y025427D01*
X014086Y025526D01*
X014086Y025876D01*
X014307Y026097D01*
X014307Y026503D01*
X014020Y026790D01*
X013614Y026790D01*
X013327Y026503D01*
X013327Y026097D01*
X013548Y025876D01*
X013548Y025691D01*
X012389Y024532D01*
X012348Y024433D01*
X012348Y024424D01*
X012127Y024203D01*
X012127Y023797D01*
X012414Y023510D01*
X012820Y023510D01*
X013107Y023797D01*
X013107Y024203D01*
X013107Y023882D02*
X015127Y023882D01*
X015237Y023583D02*
X012893Y023583D01*
X012341Y023583D02*
X011671Y023583D01*
X011373Y023882D02*
X012127Y023882D01*
X012127Y024180D02*
X011074Y024180D01*
X010776Y024479D02*
X012367Y024479D01*
X012634Y024777D02*
X010477Y024777D01*
X010433Y024821D02*
X010293Y024879D01*
X008879Y024879D01*
X008809Y024950D01*
X008613Y025030D01*
X008402Y025030D01*
X008207Y024950D01*
X008057Y024800D01*
X007976Y024605D01*
X007976Y024394D01*
X008057Y024198D01*
X008207Y024049D01*
X008402Y023968D01*
X008613Y023968D01*
X008809Y024049D01*
X008879Y024119D01*
X010060Y024119D01*
X011657Y022523D01*
X011657Y022389D01*
X007959Y022389D01*
X007907Y022091D02*
X011835Y022091D01*
X011900Y022025D02*
X012106Y021940D01*
X012328Y021940D01*
X012534Y022025D01*
X012692Y022183D01*
X012777Y022389D01*
X014380Y022389D01*
X014678Y022688D02*
X012746Y022688D01*
X012777Y022611D02*
X012692Y022817D01*
X012534Y022975D01*
X012328Y023060D01*
X012194Y023060D01*
X010433Y024821D01*
X010218Y024499D02*
X012217Y022500D01*
X012600Y022091D02*
X014081Y022091D01*
X013783Y021792D02*
X007907Y021792D01*
X007907Y021494D02*
X013484Y021494D01*
X013186Y021195D02*
X007907Y021195D01*
X007907Y020897D02*
X012892Y020897D01*
X013217Y020689D02*
X015028Y022500D01*
X015617Y022500D01*
X016217Y022500D01*
X016600Y022091D02*
X028505Y022091D01*
X029830Y022091D02*
X031505Y022091D01*
X031417Y021792D02*
X029917Y021792D01*
X029814Y021494D02*
X031521Y021494D01*
X031787Y020897D02*
X027151Y020897D01*
X026633Y020897D02*
X013962Y020897D01*
X013664Y020598D02*
X026462Y020598D01*
X026512Y020300D02*
X013707Y020300D01*
X013707Y020001D02*
X026512Y020001D01*
X032547Y020001D02*
X037492Y020001D01*
X037404Y020300D02*
X032547Y020300D01*
X032547Y020598D02*
X037480Y020598D01*
X037550Y020897D02*
X032547Y020897D01*
X032547Y021195D02*
X037251Y021195D01*
X037416Y021792D02*
X037485Y021792D01*
X037402Y022091D02*
X039707Y022091D01*
X039677Y021975D02*
X039677Y021675D01*
X039754Y021385D01*
X039904Y021125D01*
X040117Y020913D01*
X040138Y020900D01*
X040117Y020887D01*
X039904Y020675D01*
X039754Y020415D01*
X039677Y020125D01*
X039677Y019825D01*
X039754Y019535D01*
X039904Y019274D01*
X040117Y019062D01*
X040377Y018912D01*
X040667Y018834D01*
X040967Y018834D01*
X041257Y018912D01*
X041517Y019062D01*
X041730Y019274D01*
X041880Y019535D01*
X041958Y019825D01*
X041958Y020125D01*
X041880Y020415D01*
X041730Y020675D01*
X041517Y020887D01*
X041496Y020900D01*
X041517Y020913D01*
X041730Y021125D01*
X041880Y021385D01*
X041958Y021675D01*
X041958Y021975D01*
X041880Y022265D01*
X041730Y022526D01*
X041517Y022738D01*
X041257Y022888D01*
X040967Y022966D01*
X040667Y022966D01*
X040377Y022888D01*
X040117Y022738D01*
X039904Y022526D01*
X039754Y022265D01*
X039677Y021975D01*
X039677Y021792D02*
X039566Y021792D01*
X039567Y021791D02*
X039417Y021941D01*
X039222Y022022D01*
X039011Y022022D01*
X038815Y021941D01*
X038666Y021791D01*
X038585Y021596D01*
X038585Y021385D01*
X038666Y021190D01*
X038815Y021040D01*
X039011Y020959D01*
X039222Y020959D01*
X039417Y021040D01*
X039567Y021190D01*
X039647Y021385D01*
X039647Y021596D01*
X039567Y021791D01*
X039647Y021494D02*
X039725Y021494D01*
X039864Y021195D02*
X039569Y021195D01*
X040132Y020897D02*
X038910Y020897D01*
X038664Y021195D02*
X038388Y021195D01*
X038466Y021494D02*
X038585Y021494D01*
X038667Y021792D02*
X038385Y021792D01*
X038236Y022221D02*
X038385Y022371D01*
X038466Y022566D01*
X038466Y022777D01*
X038385Y022973D01*
X038236Y023122D01*
X038041Y023203D01*
X037830Y023203D01*
X037634Y023122D01*
X037485Y022973D01*
X037404Y022777D01*
X037404Y022566D01*
X037485Y022371D01*
X037634Y022221D01*
X037830Y022140D01*
X038041Y022140D01*
X038236Y022221D01*
X038393Y022389D02*
X038585Y022389D01*
X038585Y022275D02*
X038720Y022140D01*
X039513Y022140D01*
X039647Y022275D01*
X039647Y023068D01*
X039513Y023203D01*
X038720Y023203D01*
X038585Y023068D01*
X038585Y022275D01*
X038585Y022688D02*
X038466Y022688D01*
X038372Y022986D02*
X038585Y022986D01*
X039647Y022986D02*
X042167Y022986D01*
X042167Y022688D02*
X041568Y022688D01*
X041809Y022389D02*
X042167Y022389D01*
X042167Y022091D02*
X041927Y022091D01*
X041958Y021792D02*
X042167Y021792D01*
X042167Y021494D02*
X041909Y021494D01*
X041770Y021195D02*
X042167Y021195D01*
X042167Y020897D02*
X041502Y020897D01*
X041774Y020598D02*
X042167Y020598D01*
X042167Y020300D02*
X041911Y020300D01*
X041958Y020001D02*
X042167Y020001D01*
X042167Y019703D02*
X041925Y019703D01*
X041805Y019404D02*
X042167Y019404D01*
X042167Y019106D02*
X041561Y019106D01*
X042167Y018807D02*
X039546Y018807D01*
X039567Y018827D02*
X039647Y019023D01*
X039647Y019234D01*
X039567Y019429D01*
X039417Y019579D01*
X039222Y019660D01*
X039011Y019660D01*
X038815Y019579D01*
X038666Y019429D01*
X038585Y019234D01*
X038585Y019023D01*
X038666Y018827D01*
X038815Y018678D01*
X039011Y018597D01*
X039222Y018597D01*
X039417Y018678D01*
X039567Y018827D01*
X039647Y019106D02*
X040073Y019106D01*
X039830Y019404D02*
X039577Y019404D01*
X039709Y019703D02*
X032547Y019703D01*
X032547Y019404D02*
X037474Y019404D01*
X037485Y019429D02*
X037404Y019234D01*
X037404Y019023D01*
X037485Y018827D01*
X037634Y018678D01*
X037830Y018597D01*
X038041Y018597D01*
X038236Y018678D01*
X038385Y018827D01*
X038466Y019023D01*
X038466Y019234D01*
X038385Y019429D01*
X038236Y019579D01*
X038041Y019660D01*
X037830Y019660D01*
X037634Y019579D01*
X037485Y019429D01*
X037404Y019106D02*
X032547Y019106D01*
X032547Y018807D02*
X037505Y018807D01*
X038365Y018807D02*
X038686Y018807D01*
X038585Y019106D02*
X038466Y019106D01*
X038396Y019404D02*
X038656Y019404D01*
X038674Y020001D02*
X038378Y020001D01*
X038466Y020300D02*
X038585Y020300D01*
X038447Y020598D02*
X038391Y020598D01*
X039572Y020598D02*
X039860Y020598D01*
X039723Y020300D02*
X039647Y020300D01*
X039677Y020001D02*
X039559Y020001D01*
X042167Y018509D02*
X032547Y018509D01*
X032547Y018210D02*
X042167Y018210D01*
X042167Y017912D02*
X032547Y017912D01*
X032547Y017613D02*
X042167Y017613D01*
X042167Y017315D02*
X032547Y017315D01*
X032547Y017016D02*
X042167Y017016D01*
X042167Y016718D02*
X032547Y016718D01*
X032547Y016419D02*
X042167Y016419D01*
X042167Y016121D02*
X032547Y016121D01*
X032547Y015822D02*
X042167Y015822D01*
X042167Y015524D02*
X040998Y015524D01*
X041279Y015225D02*
X042167Y015225D01*
X042167Y014927D02*
X041403Y014927D01*
X041420Y014628D02*
X042167Y014628D01*
X042167Y014330D02*
X041355Y014330D01*
X041180Y014031D02*
X042167Y014031D01*
X042167Y013733D02*
X040734Y013733D01*
X040174Y013478D02*
X039350Y013478D01*
X039350Y013478D01*
X040174Y013478D01*
X040174Y013434D02*
X042167Y013434D01*
X042167Y013136D02*
X040052Y013136D01*
X040025Y012837D02*
X042167Y012837D01*
X042167Y012539D02*
X040154Y012539D01*
X040092Y012240D02*
X042167Y012240D01*
X042167Y011942D02*
X040099Y011942D01*
X040154Y011643D02*
X042167Y011643D01*
X042167Y011345D02*
X040007Y011345D01*
X040044Y011046D02*
X042167Y011046D01*
X042167Y010748D02*
X040154Y010748D01*
X040779Y010449D02*
X042167Y010449D01*
X042167Y010151D02*
X041198Y010151D01*
X041362Y009852D02*
X042167Y009852D01*
X042167Y009554D02*
X041420Y009554D01*
X041395Y009255D02*
X042167Y009255D01*
X042167Y008957D02*
X041272Y008957D01*
X040972Y008658D02*
X042167Y008658D01*
X042167Y008360D02*
X028455Y008360D01*
X028156Y008658D02*
X039862Y008658D01*
X039562Y008957D02*
X027858Y008957D01*
X027559Y009255D02*
X039439Y009255D01*
X039414Y009554D02*
X027261Y009554D01*
X026962Y009852D02*
X039472Y009852D01*
X039636Y010151D02*
X026664Y010151D01*
X026372Y009671D02*
X025988Y010055D01*
X025446Y010055D01*
X025062Y009671D01*
X025062Y009129D01*
X025446Y008745D01*
X025988Y008745D01*
X026372Y009129D01*
X026372Y009671D01*
X026372Y009554D02*
X026499Y009554D01*
X026372Y009255D02*
X026797Y009255D01*
X027096Y008957D02*
X026200Y008957D01*
X025234Y008957D02*
X024955Y008957D01*
X024955Y009255D02*
X025062Y009255D01*
X025062Y009554D02*
X024955Y009554D01*
X024955Y009852D02*
X025243Y009852D01*
X024955Y010151D02*
X025902Y010151D01*
X025825Y010449D02*
X024955Y010449D01*
X024982Y010748D02*
X025825Y010748D01*
X025825Y011046D02*
X025116Y011046D01*
X025008Y011345D02*
X025825Y011345D01*
X024624Y012539D02*
X033184Y012539D01*
X032886Y012837D02*
X024624Y012837D01*
X024624Y013136D02*
X032587Y013136D01*
X032289Y013434D02*
X024776Y013434D01*
X024790Y013733D02*
X031990Y013733D01*
X032468Y014330D02*
X039480Y014330D01*
X039414Y014628D02*
X037189Y014628D01*
X037205Y014635D02*
X037342Y014772D01*
X037417Y014953D01*
X037417Y015147D01*
X037342Y015328D01*
X037205Y015465D01*
X037025Y015540D01*
X036310Y015540D01*
X036129Y015465D01*
X035992Y015328D01*
X035917Y015147D01*
X035917Y014953D01*
X035992Y014772D01*
X036129Y014635D01*
X036310Y014560D01*
X037025Y014560D01*
X037205Y014635D01*
X037406Y014927D02*
X039431Y014927D01*
X039555Y015225D02*
X037385Y015225D01*
X037064Y015524D02*
X039836Y015524D01*
X039655Y014031D02*
X032766Y014031D01*
X033065Y013733D02*
X038590Y013733D01*
X038526Y013434D02*
X033363Y013434D01*
X033662Y013136D02*
X038648Y013136D01*
X038675Y012837D02*
X033960Y012837D01*
X034259Y012539D02*
X038546Y012539D01*
X038609Y012240D02*
X034557Y012240D01*
X034856Y011942D02*
X038601Y011942D01*
X038546Y011643D02*
X035154Y011643D01*
X035453Y011345D02*
X038694Y011345D01*
X039350Y010722D02*
X035538Y010722D01*
X039350Y013733D02*
X039350Y013733D01*
X036145Y014628D02*
X034189Y014628D01*
X034205Y014635D02*
X034342Y014772D01*
X034417Y014953D01*
X034417Y015147D01*
X034342Y015328D01*
X034205Y015465D01*
X034025Y015540D01*
X033310Y015540D01*
X033129Y015465D01*
X032992Y015328D01*
X032917Y015147D01*
X032917Y014953D01*
X032992Y014772D01*
X033129Y014635D01*
X033310Y014560D01*
X034025Y014560D01*
X034205Y014635D01*
X034406Y014927D02*
X035928Y014927D01*
X035949Y015225D02*
X034385Y015225D01*
X034064Y015524D02*
X036270Y015524D01*
X033270Y015524D02*
X032564Y015524D01*
X032885Y015225D02*
X032949Y015225D01*
X032928Y014927D02*
X032906Y014927D01*
X032689Y014628D02*
X033145Y014628D01*
X026200Y009852D02*
X026191Y009852D01*
X027394Y008658D02*
X024955Y008658D01*
X024955Y008360D02*
X027693Y008360D01*
X027991Y008061D02*
X024955Y008061D01*
X024955Y007763D02*
X028290Y007763D01*
X028588Y007464D02*
X024955Y007464D01*
X024955Y007166D02*
X028887Y007166D01*
X029185Y006867D02*
X024955Y006867D01*
X024955Y006569D02*
X027468Y006569D01*
X027520Y006590D02*
X027339Y006515D01*
X027202Y006378D01*
X027127Y006197D01*
X027127Y006003D01*
X027202Y005822D01*
X027339Y005685D01*
X027520Y005610D01*
X027715Y005610D01*
X027895Y005685D01*
X028032Y005822D01*
X028107Y006003D01*
X028107Y006197D01*
X028032Y006378D01*
X027895Y006515D01*
X027715Y006590D01*
X027520Y006590D01*
X027766Y006569D02*
X029484Y006569D01*
X029782Y006270D02*
X028077Y006270D01*
X028094Y005972D02*
X030081Y005972D01*
X030379Y005673D02*
X027867Y005673D01*
X027895Y005515D02*
X027715Y005590D01*
X027520Y005590D01*
X027339Y005515D01*
X027202Y005378D01*
X027127Y005197D01*
X027127Y005003D01*
X027202Y004822D01*
X027339Y004685D01*
X027520Y004610D01*
X027715Y004610D01*
X027895Y004685D01*
X028032Y004822D01*
X028107Y005003D01*
X028107Y005197D01*
X028032Y005378D01*
X027895Y005515D01*
X028034Y005375D02*
X030678Y005375D01*
X030976Y005076D02*
X028107Y005076D01*
X027988Y004778D02*
X031275Y004778D01*
X031419Y004479D02*
X024955Y004479D01*
X024955Y004181D02*
X031721Y004181D01*
X031513Y003882D02*
X024955Y003882D01*
X024955Y003584D02*
X026540Y003584D01*
X026877Y003584D02*
X031214Y003584D01*
X030916Y003285D02*
X027133Y003285D01*
X027090Y002987D02*
X030209Y002987D01*
X030100Y002688D02*
X027117Y002688D01*
X027589Y002390D02*
X030233Y002390D01*
X030828Y002390D02*
X040738Y002390D01*
X040496Y002091D02*
X028795Y002091D01*
X028846Y001793D02*
X040374Y001793D01*
X040337Y001494D02*
X028609Y001494D01*
X027949Y001793D02*
X026360Y001793D01*
X026658Y002091D02*
X026781Y002091D01*
X027590Y002091D02*
X028039Y002091D01*
X026439Y002688D02*
X024955Y002688D01*
X024955Y002987D02*
X026326Y002987D01*
X026283Y003285D02*
X024955Y003285D01*
X024416Y002987D02*
X022042Y002987D01*
X021979Y003285D02*
X024028Y003285D01*
X023925Y003584D02*
X021881Y003584D01*
X021881Y003882D02*
X024062Y003882D01*
X024086Y004181D02*
X021881Y004181D01*
X021881Y004479D02*
X024086Y004479D01*
X024086Y004778D02*
X021881Y004778D01*
X021881Y005076D02*
X024086Y005076D01*
X024086Y005375D02*
X021881Y005375D01*
X021881Y005673D02*
X024086Y005673D01*
X024086Y005972D02*
X021881Y005972D01*
X021881Y006270D02*
X024086Y006270D01*
X024086Y006569D02*
X021881Y006569D01*
X021881Y006867D02*
X024086Y006867D01*
X024086Y007166D02*
X021881Y007166D01*
X021881Y007464D02*
X024086Y007464D01*
X024086Y007763D02*
X021881Y007763D01*
X021881Y008061D02*
X024086Y008061D01*
X024086Y008360D02*
X021881Y008360D01*
X021881Y008658D02*
X024086Y008658D01*
X021343Y006867D02*
X013961Y006867D01*
X014167Y006661D02*
X013728Y007100D01*
X013417Y007100D01*
X013417Y006350D01*
X013417Y006350D01*
X013417Y005600D01*
X013728Y005600D01*
X014167Y006039D01*
X014167Y006350D01*
X014167Y006661D01*
X014167Y006569D02*
X021343Y006569D01*
X021343Y006270D02*
X014167Y006270D01*
X014167Y006350D02*
X013417Y006350D01*
X014167Y006350D01*
X014099Y005972D02*
X021343Y005972D01*
X021343Y005673D02*
X013801Y005673D01*
X013417Y005673D02*
X013417Y005673D01*
X013417Y005972D02*
X013417Y005972D01*
X013417Y006270D02*
X013417Y006270D01*
X013417Y006350D02*
X013417Y006350D01*
X013417Y006569D02*
X013417Y006569D01*
X013417Y006867D02*
X013417Y006867D01*
X013033Y005673D02*
X008418Y005673D01*
X008503Y005375D02*
X021343Y005375D01*
X021343Y005076D02*
X018334Y005076D01*
X018407Y005003D02*
X018120Y005290D01*
X017714Y005290D01*
X017427Y005003D01*
X017427Y004597D01*
X017714Y004310D01*
X018120Y004310D01*
X018407Y004597D01*
X018407Y005003D01*
X018407Y004778D02*
X021343Y004778D01*
X021343Y004479D02*
X018289Y004479D01*
X018128Y004310D02*
X018427Y004011D01*
X018427Y003800D01*
X017917Y003800D01*
X017407Y003800D01*
X017407Y003589D01*
X017686Y003310D01*
X017606Y003310D01*
X017307Y003011D01*
X017307Y003003D01*
X017177Y003133D01*
X017177Y003367D01*
X017407Y003597D01*
X017407Y004003D01*
X017120Y004290D01*
X016714Y004290D01*
X016427Y004003D01*
X016427Y003597D01*
X016657Y003367D01*
X016657Y003133D01*
X016427Y002903D01*
X016427Y002497D01*
X016714Y002210D01*
X017120Y002210D01*
X017403Y002493D01*
X017606Y002290D01*
X017817Y002290D01*
X017817Y002800D01*
X017817Y002800D01*
X017817Y003290D01*
X017817Y003290D01*
X017817Y002800D01*
X017817Y002800D01*
X017817Y002290D01*
X018028Y002290D01*
X018327Y002589D01*
X018327Y002800D01*
X018327Y003011D01*
X018048Y003290D01*
X018128Y003290D01*
X018427Y003589D01*
X018427Y003800D01*
X017917Y003800D01*
X017917Y003800D01*
X017407Y003800D01*
X017407Y004011D01*
X017706Y004310D01*
X017917Y004310D01*
X017917Y003800D01*
X017917Y003800D01*
X017917Y004310D01*
X018128Y004310D01*
X018258Y004181D02*
X021343Y004181D01*
X021343Y003882D02*
X018427Y003882D01*
X018422Y003584D02*
X021343Y003584D01*
X021245Y003285D02*
X018053Y003285D01*
X017817Y003285D02*
X017817Y003285D01*
X017581Y003285D02*
X017177Y003285D01*
X017394Y003584D02*
X017412Y003584D01*
X017407Y003882D02*
X017407Y003882D01*
X017576Y004181D02*
X017230Y004181D01*
X017120Y004310D02*
X016714Y004310D01*
X016427Y004597D01*
X016427Y005003D01*
X016714Y005290D01*
X017120Y005290D01*
X017407Y005003D01*
X017407Y004597D01*
X017120Y004310D01*
X017289Y004479D02*
X017545Y004479D01*
X017427Y004778D02*
X017407Y004778D01*
X017334Y005076D02*
X017500Y005076D01*
X016500Y005076D02*
X008801Y005076D01*
X009100Y004778D02*
X016427Y004778D01*
X016545Y004479D02*
X009398Y004479D01*
X009697Y004181D02*
X016605Y004181D01*
X016427Y003882D02*
X010928Y003882D01*
X010820Y003990D02*
X011107Y003703D01*
X011107Y003297D01*
X010820Y003010D01*
X010414Y003010D01*
X010127Y003297D01*
X010127Y003703D01*
X010414Y003990D01*
X010820Y003990D01*
X010306Y003882D02*
X009928Y003882D01*
X010107Y003584D02*
X010127Y003584D01*
X010139Y003285D02*
X010095Y003285D01*
X009820Y002790D02*
X009414Y002790D01*
X009127Y002503D01*
X009127Y002097D01*
X009414Y001810D01*
X009820Y001810D01*
X010107Y002097D01*
X010107Y002503D01*
X009820Y002790D01*
X009922Y002688D02*
X010312Y002688D01*
X010414Y002790D02*
X010127Y002503D01*
X010127Y002097D01*
X010414Y001810D01*
X010820Y001810D01*
X011107Y002097D01*
X011107Y002503D01*
X010820Y002790D01*
X010414Y002790D01*
X010127Y002390D02*
X010107Y002390D01*
X010101Y002091D02*
X010133Y002091D01*
X011101Y002091D02*
X016615Y002091D01*
X016714Y002190D02*
X016427Y001903D01*
X016427Y001497D01*
X016714Y001210D01*
X017120Y001210D01*
X017407Y001497D01*
X017407Y001517D01*
X017614Y001310D01*
X018020Y001310D01*
X018307Y001597D01*
X018307Y002003D01*
X018020Y002290D01*
X017614Y002290D01*
X017327Y002003D01*
X017327Y001983D01*
X017120Y002190D01*
X016714Y002190D01*
X016535Y002390D02*
X011107Y002390D01*
X010922Y002688D02*
X016427Y002688D01*
X016511Y002987D02*
X009262Y002987D01*
X009228Y002688D02*
X009312Y002688D01*
X009127Y002390D02*
X008894Y002390D01*
X008655Y002390D02*
X005496Y002390D01*
X005696Y002091D02*
X009133Y002091D01*
X008321Y002688D02*
X006437Y002688D01*
X006488Y002987D02*
X008287Y002987D01*
X008287Y003285D02*
X006314Y003285D01*
X005173Y003285D02*
X003967Y003285D01*
X003967Y002987D02*
X004998Y002987D01*
X004142Y002688D02*
X003967Y002688D01*
X003967Y003584D02*
X008330Y003584D01*
X008935Y004181D02*
X004880Y004181D01*
X004878Y004177D02*
X004914Y004248D01*
X004939Y004324D01*
X004951Y004403D01*
X004951Y004700D01*
X004444Y004700D01*
X004444Y004700D01*
X004444Y004700D01*
X004444Y003935D01*
X004484Y003935D01*
X004563Y003948D01*
X004639Y003972D01*
X004710Y004008D01*
X004774Y004055D01*
X004831Y004112D01*
X004878Y004177D01*
X004951Y004479D02*
X008637Y004479D01*
X008338Y004778D02*
X004951Y004778D01*
X004939Y005076D02*
X004914Y005152D01*
X004878Y005223D01*
X004831Y005288D01*
X004774Y005345D01*
X004710Y005392D01*
X004639Y005428D01*
X004563Y005452D01*
X004484Y005465D01*
X004444Y005465D01*
X004444Y004700D01*
X004444Y004700D01*
X004444Y003935D01*
X004404Y003935D01*
X004325Y003948D01*
X004249Y003972D01*
X004178Y004008D01*
X004113Y004055D01*
X004057Y004112D01*
X004010Y004177D01*
X003974Y004248D01*
X003967Y004268D01*
X003967Y004181D02*
X004008Y004181D01*
X003967Y003882D02*
X009234Y003882D01*
X011107Y003584D02*
X016441Y003584D01*
X016657Y003285D02*
X011095Y003285D01*
X006385Y005375D02*
X004733Y005375D01*
X004444Y005375D02*
X004444Y005375D01*
X004154Y005375D02*
X003967Y005375D01*
X003967Y005673D02*
X006219Y005673D01*
X006273Y005972D02*
X003967Y005972D01*
X003967Y006270D02*
X006993Y006270D01*
X006779Y006569D02*
X003967Y006569D01*
X003967Y006867D02*
X006804Y006867D01*
X007136Y007166D02*
X003967Y007166D01*
X003967Y007464D02*
X020407Y007464D01*
X020356Y007763D02*
X003967Y007763D01*
X003967Y008061D02*
X020490Y008061D01*
X020191Y008360D02*
X003967Y008360D01*
X003967Y008658D02*
X004438Y008658D01*
X004307Y008957D02*
X003967Y008957D01*
X003967Y009255D02*
X004351Y009255D01*
X004542Y009554D02*
X003967Y009554D01*
X003967Y009852D02*
X004307Y009852D01*
X004307Y010151D02*
X003967Y010151D01*
X003967Y010449D02*
X004545Y010449D01*
X004320Y010748D02*
X003967Y010748D01*
X003967Y011046D02*
X004287Y011046D01*
X004287Y011000D02*
X004817Y011000D01*
X004287Y011000D01*
X004412Y011345D02*
X003967Y011345D01*
X003967Y011643D02*
X004453Y011643D01*
X004307Y011942D02*
X003967Y011942D01*
X003967Y012240D02*
X004336Y012240D01*
X004817Y011000D02*
X004817Y011000D01*
X006327Y008957D02*
X019594Y008957D01*
X019893Y008658D02*
X006196Y008658D01*
X005438Y008658D02*
X005196Y008658D01*
X004444Y005076D02*
X004444Y005076D01*
X004444Y004778D02*
X004444Y004778D01*
X004444Y004479D02*
X004444Y004479D01*
X004444Y004181D02*
X004444Y004181D01*
X005787Y001793D02*
X016427Y001793D01*
X016430Y001494D02*
X005797Y001494D01*
X005730Y001196D02*
X040377Y001196D01*
X040503Y000897D02*
X005574Y000897D01*
X017219Y002091D02*
X017415Y002091D01*
X017506Y002390D02*
X017300Y002390D01*
X017817Y002390D02*
X017817Y002390D01*
X017817Y002688D02*
X017817Y002688D01*
X017817Y002800D02*
X017817Y002800D01*
X018327Y002800D01*
X017817Y002800D01*
X017817Y002987D02*
X017817Y002987D01*
X018327Y002987D02*
X021182Y002987D01*
X021364Y002688D02*
X018327Y002688D01*
X018128Y002390D02*
X023107Y002390D01*
X023308Y002688D02*
X021860Y002688D01*
X022629Y002091D02*
X018219Y002091D01*
X018307Y001793D02*
X022597Y001793D01*
X022881Y001494D02*
X018204Y001494D01*
X017430Y001494D02*
X017404Y001494D01*
X017917Y003800D02*
X017917Y003800D01*
X017917Y003882D02*
X017917Y003882D01*
X017917Y004181D02*
X017917Y004181D01*
X023766Y002688D02*
X024416Y002688D01*
X024429Y002390D02*
X023967Y002390D01*
X024145Y002091D02*
X024687Y002091D01*
X025302Y002390D02*
X026195Y002390D01*
X025896Y002091D02*
X025604Y002091D01*
X024955Y004778D02*
X027247Y004778D01*
X027127Y005076D02*
X024955Y005076D01*
X024955Y005375D02*
X027200Y005375D01*
X027367Y005673D02*
X024955Y005673D01*
X024955Y005972D02*
X027140Y005972D01*
X027157Y006270D02*
X024955Y006270D01*
X028753Y008061D02*
X042167Y008061D01*
X042167Y007763D02*
X029052Y007763D01*
X029350Y007464D02*
X042167Y007464D01*
X042167Y007166D02*
X041263Y007166D01*
X041262Y007167D02*
X041125Y007305D01*
X040946Y007379D01*
X040237Y007379D01*
X040057Y007305D01*
X039920Y007167D01*
X039846Y006988D01*
X039846Y006794D01*
X039920Y006615D01*
X040057Y006478D01*
X040237Y006404D01*
X040946Y006404D01*
X041125Y006478D01*
X041262Y006615D01*
X041336Y006794D01*
X041336Y006988D01*
X041262Y007167D01*
X041336Y006867D02*
X042167Y006867D01*
X042167Y006569D02*
X041215Y006569D01*
X042167Y006270D02*
X038026Y006270D01*
X038047Y006320D02*
X038047Y007029D01*
X037973Y007208D01*
X037836Y007346D01*
X037657Y007420D01*
X037463Y007420D01*
X037283Y007346D01*
X037146Y007208D01*
X037072Y007029D01*
X037072Y006320D01*
X037146Y006141D01*
X037283Y006004D01*
X037463Y005930D01*
X037657Y005930D01*
X037836Y006004D01*
X037973Y006141D01*
X038047Y006320D01*
X038047Y006569D02*
X039967Y006569D01*
X039846Y006867D02*
X038047Y006867D01*
X037991Y007166D02*
X039920Y007166D01*
X041492Y005673D02*
X031141Y005673D01*
X030843Y005972D02*
X037362Y005972D01*
X037757Y005972D02*
X042167Y005972D01*
X041890Y005673D02*
X041890Y005673D01*
X041890Y005375D02*
X041890Y005375D01*
X041890Y005076D02*
X041890Y005076D01*
X041383Y005076D02*
X032850Y005076D01*
X032528Y005076D02*
X031738Y005076D01*
X031440Y005375D02*
X041383Y005375D01*
X041387Y004778D02*
X033113Y004778D01*
X033072Y004479D02*
X038859Y004479D01*
X038837Y004470D02*
X038700Y004333D01*
X038626Y004154D01*
X038626Y003960D01*
X038700Y003781D01*
X038837Y003643D01*
X038944Y003599D01*
X038465Y003599D01*
X038286Y003525D01*
X038149Y003388D01*
X038074Y003209D01*
X038074Y003015D01*
X038149Y002836D01*
X038286Y002699D01*
X038465Y002624D01*
X039174Y002624D01*
X039353Y002699D01*
X039490Y002836D01*
X039564Y003015D01*
X039564Y003209D01*
X039490Y003388D01*
X039353Y003525D01*
X039246Y003569D01*
X039725Y003569D01*
X039904Y003643D01*
X040041Y003781D01*
X040116Y003960D01*
X040116Y004154D01*
X040041Y004333D01*
X039904Y004470D01*
X039725Y004544D01*
X039016Y004544D01*
X038837Y004470D01*
X038637Y004181D02*
X034330Y004181D01*
X034407Y004103D02*
X034120Y004390D01*
X033714Y004390D01*
X033427Y004103D01*
X033427Y003697D01*
X033714Y003410D01*
X034120Y003410D01*
X034407Y003697D01*
X034407Y004103D01*
X034407Y003882D02*
X038658Y003882D01*
X038427Y003584D02*
X034294Y003584D01*
X034120Y003390D02*
X033714Y003390D01*
X033427Y003103D01*
X033427Y002697D01*
X033714Y002410D01*
X034120Y002410D01*
X034407Y002697D01*
X034407Y003103D01*
X034120Y003390D01*
X034225Y003285D02*
X038106Y003285D01*
X038086Y002987D02*
X034407Y002987D01*
X034398Y002688D02*
X038311Y002688D01*
X039328Y002688D02*
X042167Y002688D01*
X042167Y002987D02*
X039553Y002987D01*
X039533Y003285D02*
X042167Y003285D01*
X042167Y003584D02*
X039760Y003584D01*
X040083Y003882D02*
X042167Y003882D01*
X042167Y004181D02*
X040104Y004181D01*
X039882Y004479D02*
X041536Y004479D01*
X041890Y004479D02*
X041890Y004479D01*
X041890Y004778D02*
X041890Y004778D01*
X037093Y006270D02*
X030544Y006270D01*
X030246Y006569D02*
X037072Y006569D01*
X037072Y006867D02*
X029947Y006867D01*
X029649Y007166D02*
X037129Y007166D01*
X033505Y004181D02*
X032573Y004181D01*
X032275Y003882D02*
X033427Y003882D01*
X033541Y003584D02*
X031976Y003584D01*
X031678Y003285D02*
X033609Y003285D01*
X033427Y002987D02*
X031379Y002987D01*
X031081Y002688D02*
X033436Y002688D01*
X032265Y004778D02*
X032226Y004778D01*
X020195Y013733D02*
X016067Y013733D01*
X015768Y014031D02*
X020049Y014031D01*
X019750Y014330D02*
X006209Y014330D01*
X006166Y014628D02*
X019452Y014628D01*
X019153Y014927D02*
X006327Y014927D01*
X006313Y015225D02*
X007576Y015225D01*
X007563Y015237D02*
X007684Y015117D01*
X007842Y015051D01*
X008013Y015051D01*
X008171Y015117D01*
X008292Y015237D01*
X008358Y015396D01*
X008358Y015567D01*
X008292Y015725D01*
X008197Y015820D01*
X008197Y016714D01*
X008156Y016813D01*
X008080Y016888D01*
X007764Y017204D01*
X007907Y017347D01*
X007907Y017753D01*
X007620Y018040D01*
X007214Y018040D01*
X006927Y017753D01*
X006927Y017347D01*
X007148Y017126D01*
X007148Y017117D01*
X007189Y017018D01*
X007190Y017016D01*
X006327Y017016D01*
X006256Y016718D02*
X006927Y016718D01*
X006927Y016753D02*
X006927Y016347D01*
X007214Y016060D01*
X007620Y016060D01*
X007658Y016098D01*
X007658Y015820D01*
X007563Y015725D01*
X007498Y015567D01*
X007498Y015396D01*
X007563Y015237D01*
X007498Y015524D02*
X006062Y015524D01*
X006327Y015822D02*
X007658Y015822D01*
X008197Y015822D02*
X013788Y015822D01*
X013848Y015882D02*
X013705Y015739D01*
X013627Y015551D01*
X013627Y015349D01*
X013705Y015161D01*
X013848Y015018D01*
X014036Y014940D01*
X014799Y014940D01*
X014986Y015018D01*
X015129Y015161D01*
X015207Y015349D01*
X015207Y015551D01*
X015129Y015739D01*
X014986Y015882D01*
X014845Y015941D01*
X014901Y015959D01*
X014975Y015997D01*
X015042Y016046D01*
X015101Y016105D01*
X015150Y016172D01*
X015188Y016247D01*
X015214Y016326D01*
X015227Y016408D01*
X015227Y016450D01*
X015227Y016492D01*
X015214Y016574D01*
X015188Y016653D01*
X015150Y016728D01*
X015101Y016795D01*
X015042Y016854D01*
X014975Y016903D01*
X014901Y016941D01*
X014821Y016967D01*
X014739Y016980D01*
X014417Y016980D01*
X014095Y016980D01*
X014013Y016967D01*
X013934Y016941D01*
X013859Y016903D01*
X013792Y016854D01*
X013733Y016795D01*
X013684Y016728D01*
X013646Y016653D01*
X013620Y016574D01*
X013607Y016492D01*
X013607Y016450D01*
X014417Y016450D01*
X013607Y016450D01*
X013607Y016408D01*
X013620Y016326D01*
X013646Y016247D01*
X013684Y016172D01*
X013733Y016105D01*
X013792Y016046D01*
X013859Y015997D01*
X013934Y015959D01*
X013989Y015941D01*
X013848Y015882D01*
X013721Y016121D02*
X009681Y016121D01*
X009620Y016060D02*
X009907Y016347D01*
X009907Y016753D01*
X009677Y016983D01*
X009677Y017117D01*
X009907Y017347D01*
X009907Y017753D01*
X009620Y018040D01*
X009214Y018040D01*
X008927Y017753D01*
X008927Y017347D01*
X009157Y017117D01*
X009157Y016983D01*
X008927Y016753D01*
X008927Y016347D01*
X009214Y016060D01*
X009620Y016060D01*
X009907Y016419D02*
X013607Y016419D01*
X013679Y016718D02*
X009907Y016718D01*
X009677Y017016D02*
X012157Y017016D01*
X012035Y017315D02*
X009875Y017315D01*
X009907Y017613D02*
X012155Y017613D01*
X012776Y017613D02*
X020010Y017613D01*
X020010Y017912D02*
X009749Y017912D01*
X009086Y017912D02*
X007749Y017912D01*
X007907Y017613D02*
X008927Y017613D01*
X008960Y017315D02*
X007875Y017315D01*
X007953Y017016D02*
X009157Y017016D01*
X008927Y016718D02*
X008195Y016718D01*
X008197Y016419D02*
X008927Y016419D01*
X009154Y016121D02*
X008197Y016121D01*
X008358Y015524D02*
X013627Y015524D01*
X013678Y015225D02*
X008280Y015225D01*
X007154Y016121D02*
X006327Y016121D01*
X006119Y016419D02*
X006927Y016419D01*
X006927Y016753D02*
X007190Y017016D01*
X006960Y017315D02*
X006224Y017315D01*
X006151Y017613D02*
X006927Y017613D01*
X007086Y017912D02*
X006327Y017912D01*
X006327Y018210D02*
X020001Y018210D01*
X019849Y018509D02*
X006047Y018509D01*
X008017Y020400D02*
X008506Y020400D01*
X008550Y020444D01*
X013217Y020444D01*
X013217Y020200D01*
X013217Y020444D02*
X013217Y020689D01*
X012727Y020001D02*
X012418Y020001D01*
X013517Y018807D02*
X019937Y018807D01*
X019703Y017315D02*
X017527Y017315D01*
X017826Y017016D02*
X019584Y017016D01*
X019705Y016718D02*
X018124Y016718D01*
X017661Y016419D02*
X015227Y016419D01*
X015227Y016450D02*
X014417Y016450D01*
X014417Y016450D01*
X014417Y016980D01*
X014417Y016450D01*
X014417Y016450D01*
X015227Y016450D01*
X015156Y016718D02*
X017362Y016718D01*
X017064Y017016D02*
X012774Y017016D01*
X014417Y016718D02*
X014417Y016718D01*
X014417Y016450D02*
X014417Y016450D01*
X015113Y016121D02*
X017959Y016121D01*
X018258Y015822D02*
X015046Y015822D01*
X015207Y015524D02*
X018556Y015524D01*
X018855Y015225D02*
X015156Y015225D01*
X005589Y021494D02*
X005045Y021494D01*
X003967Y022091D02*
X007057Y022091D01*
X007057Y022389D02*
X003967Y022389D01*
X003967Y022688D02*
X007057Y022688D01*
X006907Y022986D02*
X003967Y022986D01*
X003967Y023285D02*
X006795Y023285D01*
X006861Y023583D02*
X003967Y023583D01*
X003967Y023882D02*
X010298Y023882D01*
X010597Y023583D02*
X008973Y023583D01*
X009039Y023285D02*
X010895Y023285D01*
X011194Y022986D02*
X008927Y022986D01*
X008258Y022688D02*
X011492Y022688D01*
X011657Y022389D02*
X011742Y022183D01*
X011900Y022025D01*
X012777Y022389D02*
X012777Y022611D01*
X012507Y022986D02*
X015237Y022986D01*
X015237Y023285D02*
X011970Y023285D01*
X010218Y024499D02*
X008508Y024499D01*
X008076Y024180D02*
X007878Y024180D01*
X007878Y024173D02*
X007878Y024499D01*
X007327Y024499D01*
X007327Y024499D01*
X007327Y023948D01*
X007652Y023948D01*
X007701Y023958D01*
X007746Y023976D01*
X007787Y024004D01*
X007822Y024039D01*
X007849Y024080D01*
X007868Y024125D01*
X007878Y024173D01*
X007878Y024479D02*
X007976Y024479D01*
X007878Y024499D02*
X007878Y024825D01*
X007868Y024873D01*
X007849Y024919D01*
X007822Y024960D01*
X007787Y024995D01*
X007746Y025022D01*
X007701Y025041D01*
X007652Y025050D01*
X007327Y025050D01*
X007327Y024499D01*
X007327Y024499D01*
X007878Y024499D01*
X007878Y024777D02*
X008048Y024777D01*
X008067Y025059D02*
X007767Y025059D01*
X007477Y025137D01*
X007217Y025287D01*
X007004Y025500D01*
X006854Y025760D01*
X006777Y026050D01*
X006777Y026350D01*
X006854Y026640D01*
X007004Y026900D01*
X007217Y027113D01*
X007477Y027263D01*
X007767Y027341D01*
X008067Y027341D01*
X008357Y027263D01*
X008617Y027113D01*
X008830Y026900D01*
X008980Y026640D01*
X009058Y026350D01*
X009058Y026050D01*
X008980Y025760D01*
X008830Y025500D01*
X008617Y025287D01*
X008357Y025137D01*
X008067Y025059D01*
X008127Y025076D02*
X012932Y025076D01*
X013231Y025374D02*
X008704Y025374D01*
X008930Y025673D02*
X013529Y025673D01*
X013453Y025971D02*
X013209Y025971D01*
X013327Y026089D02*
X013327Y026300D01*
X013327Y026511D01*
X013028Y026810D01*
X012817Y026810D01*
X012606Y026810D01*
X012307Y026511D01*
X012307Y026300D01*
X012307Y026089D01*
X012606Y025790D01*
X012817Y025790D01*
X012817Y026300D01*
X012307Y026300D01*
X012817Y026300D01*
X012817Y026300D01*
X012817Y026300D01*
X012817Y026810D01*
X012817Y026300D01*
X012817Y026300D01*
X012817Y025790D01*
X013028Y025790D01*
X013327Y026089D01*
X013327Y026270D02*
X013327Y026270D01*
X013327Y026300D02*
X012817Y026300D01*
X013327Y026300D01*
X013270Y026568D02*
X013392Y026568D01*
X014242Y026568D02*
X040337Y026568D01*
X040340Y026867D02*
X008849Y026867D01*
X008999Y026568D02*
X012364Y026568D01*
X012307Y026270D02*
X009058Y026270D01*
X009036Y025971D02*
X012425Y025971D01*
X012817Y025971D02*
X012817Y025971D01*
X012817Y026270D02*
X012817Y026270D01*
X012817Y026300D02*
X012817Y026300D01*
X012817Y026568D02*
X012817Y026568D01*
X014181Y025971D02*
X036754Y025971D01*
X037064Y025971D02*
X040577Y025971D01*
X040411Y026270D02*
X014307Y026270D01*
X014086Y025673D02*
X036486Y025673D01*
X036524Y025374D02*
X013993Y025374D01*
X013694Y025076D02*
X036863Y025076D01*
X037402Y025076D02*
X042167Y025076D01*
X042167Y025374D02*
X037402Y025374D01*
X037332Y025673D02*
X040937Y025673D01*
X042097Y025673D02*
X042167Y025673D01*
X042167Y024777D02*
X037402Y024777D01*
X037402Y024479D02*
X042167Y024479D01*
X042167Y024180D02*
X037402Y024180D01*
X037402Y023882D02*
X042167Y023882D01*
X042167Y023583D02*
X037402Y023583D01*
X037402Y023285D02*
X042167Y023285D01*
X040066Y022688D02*
X039647Y022688D01*
X039647Y022389D02*
X039826Y022389D01*
X037477Y022389D02*
X037402Y022389D01*
X037402Y022688D02*
X037404Y022688D01*
X037402Y022986D02*
X037498Y022986D01*
X036863Y022986D02*
X016507Y022986D01*
X015997Y023285D02*
X036863Y023285D01*
X036863Y023583D02*
X015997Y023583D01*
X008527Y027165D02*
X040423Y027165D01*
X035755Y022091D02*
X034080Y022091D01*
X034167Y021792D02*
X035667Y021792D01*
X035771Y021494D02*
X034064Y021494D01*
X008042Y023583D02*
X007792Y023583D01*
X007858Y023285D02*
X007976Y023285D01*
X007795Y022986D02*
X007746Y022986D01*
X007327Y023948D02*
X007001Y023948D01*
X006952Y023958D01*
X006907Y023976D01*
X006866Y024004D01*
X006831Y024039D01*
X006804Y024080D01*
X006785Y024125D01*
X006775Y024173D01*
X006775Y024499D01*
X007326Y024499D01*
X007326Y024499D01*
X007327Y024499D02*
X007327Y023948D01*
X007327Y024180D02*
X007327Y024180D01*
X007327Y024479D02*
X007327Y024479D01*
X007326Y024499D02*
X006775Y024499D01*
X006775Y024825D01*
X006785Y024873D01*
X006804Y024919D01*
X006831Y024960D01*
X006866Y024995D01*
X006907Y025022D01*
X006952Y025041D01*
X007001Y025050D01*
X007327Y025050D01*
X007327Y024499D01*
X007327Y024499D01*
X007327Y024777D02*
X007327Y024777D01*
X006775Y024777D02*
X003967Y024777D01*
X003967Y024479D02*
X006775Y024479D01*
X006775Y024180D02*
X003967Y024180D01*
X003967Y025076D02*
X007707Y025076D01*
X007130Y025374D02*
X003967Y025374D01*
X003967Y025673D02*
X004037Y025673D01*
X005197Y025673D02*
X006905Y025673D01*
X006798Y025971D02*
X005557Y025971D01*
X005723Y026270D02*
X006777Y026270D01*
X006835Y026568D02*
X005797Y026568D01*
X005794Y026867D02*
X006985Y026867D01*
X007307Y027165D02*
X005711Y027165D01*
D26*
X009417Y017550D02*
X009417Y016550D01*
X016917Y003800D02*
X016917Y002700D01*
M02*
