G75*
G70*
%OFA0B0*%
%FSLAX24Y24*%
%IPPOS*%
%LPD*%
%AMOC8*
5,1,8,0,0,1.08239X$1,22.5*
%
%ADD10C,0.0000*%
D10*
X003417Y001521D02*
X003417Y033017D01*
X042787Y033017D01*
X042787Y001521D01*
X003417Y001521D01*
X003987Y002721D02*
X003989Y002771D01*
X003995Y002821D01*
X004005Y002870D01*
X004019Y002918D01*
X004036Y002965D01*
X004057Y003010D01*
X004082Y003054D01*
X004110Y003095D01*
X004142Y003134D01*
X004176Y003171D01*
X004213Y003205D01*
X004253Y003235D01*
X004295Y003262D01*
X004339Y003286D01*
X004385Y003307D01*
X004432Y003323D01*
X004480Y003336D01*
X004530Y003345D01*
X004579Y003350D01*
X004630Y003351D01*
X004680Y003348D01*
X004729Y003341D01*
X004778Y003330D01*
X004826Y003315D01*
X004872Y003297D01*
X004917Y003275D01*
X004960Y003249D01*
X005001Y003220D01*
X005040Y003188D01*
X005076Y003153D01*
X005108Y003115D01*
X005138Y003075D01*
X005165Y003032D01*
X005188Y002988D01*
X005207Y002942D01*
X005223Y002894D01*
X005235Y002845D01*
X005243Y002796D01*
X005247Y002746D01*
X005247Y002696D01*
X005243Y002646D01*
X005235Y002597D01*
X005223Y002548D01*
X005207Y002500D01*
X005188Y002454D01*
X005165Y002410D01*
X005138Y002367D01*
X005108Y002327D01*
X005076Y002289D01*
X005040Y002254D01*
X005001Y002222D01*
X004960Y002193D01*
X004917Y002167D01*
X004872Y002145D01*
X004826Y002127D01*
X004778Y002112D01*
X004729Y002101D01*
X004680Y002094D01*
X004630Y002091D01*
X004579Y002092D01*
X004530Y002097D01*
X004480Y002106D01*
X004432Y002119D01*
X004385Y002135D01*
X004339Y002156D01*
X004295Y002180D01*
X004253Y002207D01*
X004213Y002237D01*
X004176Y002271D01*
X004142Y002308D01*
X004110Y002347D01*
X004082Y002388D01*
X004057Y002432D01*
X004036Y002477D01*
X004019Y002524D01*
X004005Y002572D01*
X003995Y002621D01*
X003989Y002671D01*
X003987Y002721D01*
X007326Y027421D02*
X007328Y027469D01*
X007334Y027517D01*
X007344Y027564D01*
X007357Y027610D01*
X007375Y027655D01*
X007395Y027699D01*
X007420Y027741D01*
X007448Y027780D01*
X007478Y027817D01*
X007512Y027851D01*
X007549Y027883D01*
X007587Y027912D01*
X007628Y027937D01*
X007671Y027959D01*
X007716Y027977D01*
X007762Y027991D01*
X007809Y028002D01*
X007857Y028009D01*
X007905Y028012D01*
X007953Y028011D01*
X008001Y028006D01*
X008049Y027997D01*
X008095Y027985D01*
X008140Y027968D01*
X008184Y027948D01*
X008226Y027925D01*
X008266Y027898D01*
X008304Y027868D01*
X008339Y027835D01*
X008371Y027799D01*
X008401Y027761D01*
X008427Y027720D01*
X008449Y027677D01*
X008469Y027633D01*
X008484Y027588D01*
X008496Y027541D01*
X008504Y027493D01*
X008508Y027445D01*
X008508Y027397D01*
X008504Y027349D01*
X008496Y027301D01*
X008484Y027254D01*
X008469Y027209D01*
X008449Y027165D01*
X008427Y027122D01*
X008401Y027081D01*
X008371Y027043D01*
X008339Y027007D01*
X008304Y026974D01*
X008266Y026944D01*
X008226Y026917D01*
X008184Y026894D01*
X008140Y026874D01*
X008095Y026857D01*
X008049Y026845D01*
X008001Y026836D01*
X007953Y026831D01*
X007905Y026830D01*
X007857Y026833D01*
X007809Y026840D01*
X007762Y026851D01*
X007716Y026865D01*
X007671Y026883D01*
X007628Y026905D01*
X007587Y026930D01*
X007549Y026959D01*
X007512Y026991D01*
X007478Y027025D01*
X007448Y027062D01*
X007420Y027101D01*
X007395Y027143D01*
X007375Y027187D01*
X007357Y027232D01*
X007344Y027278D01*
X007334Y027325D01*
X007328Y027373D01*
X007326Y027421D01*
X003987Y027621D02*
X003989Y027671D01*
X003995Y027721D01*
X004005Y027770D01*
X004019Y027818D01*
X004036Y027865D01*
X004057Y027910D01*
X004082Y027954D01*
X004110Y027995D01*
X004142Y028034D01*
X004176Y028071D01*
X004213Y028105D01*
X004253Y028135D01*
X004295Y028162D01*
X004339Y028186D01*
X004385Y028207D01*
X004432Y028223D01*
X004480Y028236D01*
X004530Y028245D01*
X004579Y028250D01*
X004630Y028251D01*
X004680Y028248D01*
X004729Y028241D01*
X004778Y028230D01*
X004826Y028215D01*
X004872Y028197D01*
X004917Y028175D01*
X004960Y028149D01*
X005001Y028120D01*
X005040Y028088D01*
X005076Y028053D01*
X005108Y028015D01*
X005138Y027975D01*
X005165Y027932D01*
X005188Y027888D01*
X005207Y027842D01*
X005223Y027794D01*
X005235Y027745D01*
X005243Y027696D01*
X005247Y027646D01*
X005247Y027596D01*
X005243Y027546D01*
X005235Y027497D01*
X005223Y027448D01*
X005207Y027400D01*
X005188Y027354D01*
X005165Y027310D01*
X005138Y027267D01*
X005108Y027227D01*
X005076Y027189D01*
X005040Y027154D01*
X005001Y027122D01*
X004960Y027093D01*
X004917Y027067D01*
X004872Y027045D01*
X004826Y027027D01*
X004778Y027012D01*
X004729Y027001D01*
X004680Y026994D01*
X004630Y026991D01*
X004579Y026992D01*
X004530Y026997D01*
X004480Y027006D01*
X004432Y027019D01*
X004385Y027035D01*
X004339Y027056D01*
X004295Y027080D01*
X004253Y027107D01*
X004213Y027137D01*
X004176Y027171D01*
X004142Y027208D01*
X004110Y027247D01*
X004082Y027288D01*
X004057Y027332D01*
X004036Y027377D01*
X004019Y027424D01*
X004005Y027472D01*
X003995Y027521D01*
X003989Y027571D01*
X003987Y027621D01*
X039964Y015908D02*
X039966Y015950D01*
X039972Y015992D01*
X039982Y016034D01*
X039995Y016074D01*
X040013Y016113D01*
X040034Y016150D01*
X040058Y016184D01*
X040086Y016217D01*
X040116Y016247D01*
X040149Y016273D01*
X040184Y016297D01*
X040222Y016317D01*
X040261Y016333D01*
X040301Y016346D01*
X040343Y016355D01*
X040385Y016360D01*
X040428Y016361D01*
X040470Y016358D01*
X040512Y016351D01*
X040553Y016340D01*
X040593Y016325D01*
X040631Y016307D01*
X040668Y016285D01*
X040702Y016260D01*
X040734Y016232D01*
X040762Y016201D01*
X040788Y016167D01*
X040811Y016131D01*
X040830Y016094D01*
X040846Y016054D01*
X040858Y016013D01*
X040866Y015972D01*
X040870Y015929D01*
X040870Y015887D01*
X040866Y015844D01*
X040858Y015803D01*
X040846Y015762D01*
X040830Y015722D01*
X040811Y015685D01*
X040788Y015649D01*
X040762Y015615D01*
X040734Y015584D01*
X040702Y015556D01*
X040668Y015531D01*
X040631Y015509D01*
X040593Y015491D01*
X040553Y015476D01*
X040512Y015465D01*
X040470Y015458D01*
X040428Y015455D01*
X040385Y015456D01*
X040343Y015461D01*
X040301Y015470D01*
X040261Y015483D01*
X040222Y015499D01*
X040184Y015519D01*
X040149Y015543D01*
X040116Y015569D01*
X040086Y015599D01*
X040058Y015632D01*
X040034Y015666D01*
X040013Y015703D01*
X039995Y015742D01*
X039982Y015782D01*
X039972Y015824D01*
X039966Y015866D01*
X039964Y015908D01*
X039964Y010735D02*
X039966Y010777D01*
X039972Y010819D01*
X039982Y010861D01*
X039995Y010901D01*
X040013Y010940D01*
X040034Y010977D01*
X040058Y011011D01*
X040086Y011044D01*
X040116Y011074D01*
X040149Y011100D01*
X040184Y011124D01*
X040222Y011144D01*
X040261Y011160D01*
X040301Y011173D01*
X040343Y011182D01*
X040385Y011187D01*
X040428Y011188D01*
X040470Y011185D01*
X040512Y011178D01*
X040553Y011167D01*
X040593Y011152D01*
X040631Y011134D01*
X040668Y011112D01*
X040702Y011087D01*
X040734Y011059D01*
X040762Y011028D01*
X040788Y010994D01*
X040811Y010958D01*
X040830Y010921D01*
X040846Y010881D01*
X040858Y010840D01*
X040866Y010799D01*
X040870Y010756D01*
X040870Y010714D01*
X040866Y010671D01*
X040858Y010630D01*
X040846Y010589D01*
X040830Y010549D01*
X040811Y010512D01*
X040788Y010476D01*
X040762Y010442D01*
X040734Y010411D01*
X040702Y010383D01*
X040668Y010358D01*
X040631Y010336D01*
X040593Y010318D01*
X040553Y010303D01*
X040512Y010292D01*
X040470Y010285D01*
X040428Y010282D01*
X040385Y010283D01*
X040343Y010288D01*
X040301Y010297D01*
X040261Y010310D01*
X040222Y010326D01*
X040184Y010346D01*
X040149Y010370D01*
X040116Y010396D01*
X040086Y010426D01*
X040058Y010459D01*
X040034Y010493D01*
X040013Y010530D01*
X039995Y010569D01*
X039982Y010609D01*
X039972Y010651D01*
X039966Y010693D01*
X039964Y010735D01*
X040987Y002821D02*
X040989Y002871D01*
X040995Y002921D01*
X041005Y002970D01*
X041019Y003018D01*
X041036Y003065D01*
X041057Y003110D01*
X041082Y003154D01*
X041110Y003195D01*
X041142Y003234D01*
X041176Y003271D01*
X041213Y003305D01*
X041253Y003335D01*
X041295Y003362D01*
X041339Y003386D01*
X041385Y003407D01*
X041432Y003423D01*
X041480Y003436D01*
X041530Y003445D01*
X041579Y003450D01*
X041630Y003451D01*
X041680Y003448D01*
X041729Y003441D01*
X041778Y003430D01*
X041826Y003415D01*
X041872Y003397D01*
X041917Y003375D01*
X041960Y003349D01*
X042001Y003320D01*
X042040Y003288D01*
X042076Y003253D01*
X042108Y003215D01*
X042138Y003175D01*
X042165Y003132D01*
X042188Y003088D01*
X042207Y003042D01*
X042223Y002994D01*
X042235Y002945D01*
X042243Y002896D01*
X042247Y002846D01*
X042247Y002796D01*
X042243Y002746D01*
X042235Y002697D01*
X042223Y002648D01*
X042207Y002600D01*
X042188Y002554D01*
X042165Y002510D01*
X042138Y002467D01*
X042108Y002427D01*
X042076Y002389D01*
X042040Y002354D01*
X042001Y002322D01*
X041960Y002293D01*
X041917Y002267D01*
X041872Y002245D01*
X041826Y002227D01*
X041778Y002212D01*
X041729Y002201D01*
X041680Y002194D01*
X041630Y002191D01*
X041579Y002192D01*
X041530Y002197D01*
X041480Y002206D01*
X041432Y002219D01*
X041385Y002235D01*
X041339Y002256D01*
X041295Y002280D01*
X041253Y002307D01*
X041213Y002337D01*
X041176Y002371D01*
X041142Y002408D01*
X041110Y002447D01*
X041082Y002488D01*
X041057Y002532D01*
X041036Y002577D01*
X041019Y002624D01*
X041005Y002672D01*
X040995Y002721D01*
X040989Y002771D01*
X040987Y002821D01*
X040226Y021196D02*
X040228Y021244D01*
X040234Y021292D01*
X040244Y021339D01*
X040257Y021385D01*
X040275Y021430D01*
X040295Y021474D01*
X040320Y021516D01*
X040348Y021555D01*
X040378Y021592D01*
X040412Y021626D01*
X040449Y021658D01*
X040487Y021687D01*
X040528Y021712D01*
X040571Y021734D01*
X040616Y021752D01*
X040662Y021766D01*
X040709Y021777D01*
X040757Y021784D01*
X040805Y021787D01*
X040853Y021786D01*
X040901Y021781D01*
X040949Y021772D01*
X040995Y021760D01*
X041040Y021743D01*
X041084Y021723D01*
X041126Y021700D01*
X041166Y021673D01*
X041204Y021643D01*
X041239Y021610D01*
X041271Y021574D01*
X041301Y021536D01*
X041327Y021495D01*
X041349Y021452D01*
X041369Y021408D01*
X041384Y021363D01*
X041396Y021316D01*
X041404Y021268D01*
X041408Y021220D01*
X041408Y021172D01*
X041404Y021124D01*
X041396Y021076D01*
X041384Y021029D01*
X041369Y020984D01*
X041349Y020940D01*
X041327Y020897D01*
X041301Y020856D01*
X041271Y020818D01*
X041239Y020782D01*
X041204Y020749D01*
X041166Y020719D01*
X041126Y020692D01*
X041084Y020669D01*
X041040Y020649D01*
X040995Y020632D01*
X040949Y020620D01*
X040901Y020611D01*
X040853Y020606D01*
X040805Y020605D01*
X040757Y020608D01*
X040709Y020615D01*
X040662Y020626D01*
X040616Y020640D01*
X040571Y020658D01*
X040528Y020680D01*
X040487Y020705D01*
X040449Y020734D01*
X040412Y020766D01*
X040378Y020800D01*
X040348Y020837D01*
X040320Y020876D01*
X040295Y020918D01*
X040275Y020962D01*
X040257Y021007D01*
X040244Y021053D01*
X040234Y021100D01*
X040228Y021148D01*
X040226Y021196D01*
X040226Y023046D02*
X040228Y023094D01*
X040234Y023142D01*
X040244Y023189D01*
X040257Y023235D01*
X040275Y023280D01*
X040295Y023324D01*
X040320Y023366D01*
X040348Y023405D01*
X040378Y023442D01*
X040412Y023476D01*
X040449Y023508D01*
X040487Y023537D01*
X040528Y023562D01*
X040571Y023584D01*
X040616Y023602D01*
X040662Y023616D01*
X040709Y023627D01*
X040757Y023634D01*
X040805Y023637D01*
X040853Y023636D01*
X040901Y023631D01*
X040949Y023622D01*
X040995Y023610D01*
X041040Y023593D01*
X041084Y023573D01*
X041126Y023550D01*
X041166Y023523D01*
X041204Y023493D01*
X041239Y023460D01*
X041271Y023424D01*
X041301Y023386D01*
X041327Y023345D01*
X041349Y023302D01*
X041369Y023258D01*
X041384Y023213D01*
X041396Y023166D01*
X041404Y023118D01*
X041408Y023070D01*
X041408Y023022D01*
X041404Y022974D01*
X041396Y022926D01*
X041384Y022879D01*
X041369Y022834D01*
X041349Y022790D01*
X041327Y022747D01*
X041301Y022706D01*
X041271Y022668D01*
X041239Y022632D01*
X041204Y022599D01*
X041166Y022569D01*
X041126Y022542D01*
X041084Y022519D01*
X041040Y022499D01*
X040995Y022482D01*
X040949Y022470D01*
X040901Y022461D01*
X040853Y022456D01*
X040805Y022455D01*
X040757Y022458D01*
X040709Y022465D01*
X040662Y022476D01*
X040616Y022490D01*
X040571Y022508D01*
X040528Y022530D01*
X040487Y022555D01*
X040449Y022584D01*
X040412Y022616D01*
X040378Y022650D01*
X040348Y022687D01*
X040320Y022726D01*
X040295Y022768D01*
X040275Y022812D01*
X040257Y022857D01*
X040244Y022903D01*
X040234Y022950D01*
X040228Y022998D01*
X040226Y023046D01*
X040787Y027721D02*
X040789Y027771D01*
X040795Y027821D01*
X040805Y027870D01*
X040819Y027918D01*
X040836Y027965D01*
X040857Y028010D01*
X040882Y028054D01*
X040910Y028095D01*
X040942Y028134D01*
X040976Y028171D01*
X041013Y028205D01*
X041053Y028235D01*
X041095Y028262D01*
X041139Y028286D01*
X041185Y028307D01*
X041232Y028323D01*
X041280Y028336D01*
X041330Y028345D01*
X041379Y028350D01*
X041430Y028351D01*
X041480Y028348D01*
X041529Y028341D01*
X041578Y028330D01*
X041626Y028315D01*
X041672Y028297D01*
X041717Y028275D01*
X041760Y028249D01*
X041801Y028220D01*
X041840Y028188D01*
X041876Y028153D01*
X041908Y028115D01*
X041938Y028075D01*
X041965Y028032D01*
X041988Y027988D01*
X042007Y027942D01*
X042023Y027894D01*
X042035Y027845D01*
X042043Y027796D01*
X042047Y027746D01*
X042047Y027696D01*
X042043Y027646D01*
X042035Y027597D01*
X042023Y027548D01*
X042007Y027500D01*
X041988Y027454D01*
X041965Y027410D01*
X041938Y027367D01*
X041908Y027327D01*
X041876Y027289D01*
X041840Y027254D01*
X041801Y027222D01*
X041760Y027193D01*
X041717Y027167D01*
X041672Y027145D01*
X041626Y027127D01*
X041578Y027112D01*
X041529Y027101D01*
X041480Y027094D01*
X041430Y027091D01*
X041379Y027092D01*
X041330Y027097D01*
X041280Y027106D01*
X041232Y027119D01*
X041185Y027135D01*
X041139Y027156D01*
X041095Y027180D01*
X041053Y027207D01*
X041013Y027237D01*
X040976Y027271D01*
X040942Y027308D01*
X040910Y027347D01*
X040882Y027388D01*
X040857Y027432D01*
X040836Y027477D01*
X040819Y027524D01*
X040805Y027572D01*
X040795Y027621D01*
X040789Y027671D01*
X040787Y027721D01*
M02*
