G75*
G70*
%OFA0B0*%
%FSLAX24Y24*%
%IPPOS*%
%LPD*%
%AMOC8*
5,1,8,0,0,1.08239X$1,22.5*
%
%ADD10C,0.1340*%
%ADD11R,0.0500X0.0180*%
%ADD12R,0.0860X0.0300*%
%ADD13OC8,0.0600*%
%ADD14R,0.0220X0.0660*%
%ADD15OC8,0.1080*%
%ADD16R,0.0290X0.0860*%
%ADD17R,0.0600X0.0300*%
%ADD18R,0.0220X0.0540*%
%ADD19R,0.0300X0.0860*%
%ADD20C,0.0740*%
%ADD21R,0.0474X0.0474*%
%ADD22R,0.0671X0.0592*%
%ADD23R,0.0789X0.0710*%
%ADD24R,0.0789X0.1025*%
%ADD25C,0.0654*%
%ADD26C,0.0986*%
%ADD27C,0.0600*%
%ADD28R,0.0540X0.0220*%
%ADD29R,0.0434X0.0356*%
%ADD30R,0.0592X0.0592*%
%ADD31R,0.0867X0.0592*%
%ADD32R,0.0356X0.0434*%
%ADD33C,0.0600*%
%ADD34R,0.0749X0.0336*%
%ADD35C,0.0595*%
%ADD36OC8,0.0930*%
%ADD37R,0.0600X0.0250*%
%ADD38C,0.0640*%
%ADD39R,0.0867X0.0474*%
%ADD40R,0.0356X0.0356*%
%ADD41R,0.0552X0.0678*%
%ADD42R,0.0678X0.0552*%
%ADD43R,0.0200X0.0320*%
%ADD44R,0.0395X0.0395*%
%ADD45R,0.1261X0.0671*%
%ADD46R,0.2206X0.1655*%
%ADD47C,0.0682*%
%ADD48R,0.0682X0.0682*%
%ADD49C,0.1261*%
%ADD50C,0.0640*%
%ADD51OC8,0.0640*%
D10*
X004617Y002721D03*
X004617Y027621D03*
X041417Y027721D03*
X041617Y002821D03*
D11*
X008877Y016521D03*
X008877Y016721D03*
X008877Y016921D03*
X008877Y017121D03*
X007757Y017121D03*
X007757Y016921D03*
X007757Y016721D03*
X007757Y016521D03*
D12*
X009647Y020271D03*
X009647Y020771D03*
X009647Y021271D03*
X009647Y021771D03*
X011587Y021771D03*
X011587Y021271D03*
X011587Y020771D03*
X011587Y020271D03*
D13*
X013217Y020421D03*
X013217Y021421D03*
X009417Y019021D03*
X009317Y017921D03*
X007417Y019021D03*
X007317Y017921D03*
X008017Y020621D03*
X008017Y021621D03*
X012117Y025221D03*
X012217Y027221D03*
X011217Y027221D03*
X015117Y025221D03*
X016917Y006021D03*
X017917Y006021D03*
X017917Y005021D03*
X016917Y005021D03*
X017817Y004021D03*
X016917Y003921D03*
X017817Y003021D03*
X016917Y002921D03*
X010617Y003521D03*
X009617Y003521D03*
X009617Y004721D03*
X010617Y004721D03*
X033917Y005121D03*
X033917Y004121D03*
D14*
X032887Y004171D03*
X032627Y004171D03*
X032377Y004171D03*
X032117Y004171D03*
X031857Y004171D03*
X031607Y004171D03*
X031347Y004171D03*
X031347Y006471D03*
X031607Y006471D03*
X031857Y006471D03*
X032117Y006471D03*
X032377Y006471D03*
X032627Y006471D03*
X032887Y006471D03*
D15*
X015417Y014571D03*
X011417Y014571D03*
X013417Y007571D03*
D16*
X018867Y008551D03*
X019367Y008551D03*
X019867Y008551D03*
X020367Y008551D03*
X020367Y010491D03*
X019867Y010491D03*
X019367Y010491D03*
X018867Y010491D03*
D17*
X027117Y014721D03*
X027117Y015521D03*
X027917Y015121D03*
X027117Y016621D03*
X027117Y017421D03*
X027917Y017021D03*
X027117Y018221D03*
X027117Y019021D03*
X027917Y018621D03*
X027117Y020321D03*
X027117Y021121D03*
X027917Y020721D03*
D18*
X029557Y010131D03*
X030077Y010131D03*
X030077Y009311D03*
X029817Y009311D03*
X029557Y009311D03*
D19*
X024967Y022951D03*
X024467Y022951D03*
X023967Y022951D03*
X023467Y022951D03*
X023467Y024891D03*
X023967Y024891D03*
X024467Y024891D03*
X024967Y024891D03*
D20*
X016217Y023721D03*
X012217Y023721D03*
D21*
X028317Y022421D03*
D22*
X026417Y025147D03*
X026417Y025895D03*
X022817Y024395D03*
X022817Y023647D03*
X031017Y010195D03*
X031017Y009447D03*
D23*
X028517Y009270D03*
X028517Y010372D03*
X027617Y025070D03*
X027617Y026172D03*
D24*
X024814Y026121D03*
X023220Y026121D03*
D25*
X039063Y014699D02*
X039637Y014699D01*
X039637Y013715D02*
X039063Y013715D01*
X039063Y012927D02*
X039637Y012927D01*
X039637Y011943D02*
X039063Y011943D01*
D26*
X040417Y010735D03*
X040417Y015908D03*
D27*
X036777Y016321D02*
X036257Y016321D01*
X033777Y016321D02*
X033257Y016321D01*
X032377Y016321D02*
X031857Y016321D01*
X029377Y016321D02*
X028857Y016321D01*
X028757Y021721D02*
X029277Y021721D01*
X031757Y021721D02*
X032277Y021721D01*
X033257Y021721D02*
X033777Y021721D01*
X036257Y021721D02*
X036777Y021721D01*
D28*
X021797Y004881D03*
X021797Y004361D03*
X021037Y004361D03*
X021037Y004621D03*
X021037Y004881D03*
X021037Y003181D03*
X021037Y002921D03*
X021037Y002661D03*
X021797Y002661D03*
X021797Y003181D03*
X024037Y003181D03*
X024037Y002921D03*
X024037Y002661D03*
X024797Y002661D03*
X024797Y003181D03*
X025937Y003181D03*
X025937Y002921D03*
X025937Y002661D03*
X026697Y002661D03*
X026697Y003181D03*
D29*
X030517Y005065D03*
X030517Y005577D03*
X024917Y009065D03*
X024917Y009577D03*
X020717Y017665D03*
X020717Y018177D03*
X019917Y018177D03*
X019917Y017665D03*
X019217Y017665D03*
X019217Y018177D03*
X019217Y019465D03*
X019917Y019465D03*
X019917Y019977D03*
X019217Y019977D03*
X020717Y019977D03*
X020717Y019465D03*
D30*
X034664Y006039D03*
X035570Y006039D03*
D31*
X035117Y008204D03*
D32*
X032373Y007421D03*
X031861Y007421D03*
X028173Y008221D03*
X027661Y008221D03*
X027661Y005221D03*
X028173Y005221D03*
X029361Y003921D03*
X029873Y003921D03*
X029873Y003321D03*
X029361Y003321D03*
X031861Y003221D03*
X032373Y003221D03*
X026273Y004221D03*
X025761Y004221D03*
X024773Y004221D03*
X024261Y004221D03*
X012073Y004621D03*
X011561Y004621D03*
X011561Y002721D03*
X012073Y002721D03*
D33*
X019517Y011921D03*
X020517Y011921D03*
X027617Y007321D03*
X027617Y006321D03*
D34*
X025499Y013321D03*
X025499Y013821D03*
X025499Y014321D03*
X025499Y014821D03*
X025499Y015321D03*
X025499Y015821D03*
X025499Y016321D03*
X025499Y016821D03*
X025499Y017321D03*
X025499Y017821D03*
X025499Y018321D03*
X025499Y018821D03*
X025499Y019321D03*
X025499Y019821D03*
X021735Y019821D03*
X021735Y019321D03*
X021735Y018821D03*
X021735Y018321D03*
X021735Y017821D03*
X021735Y017321D03*
X021735Y016821D03*
X021735Y016321D03*
X021735Y015821D03*
X021735Y015321D03*
X021735Y014821D03*
X021735Y014321D03*
X021735Y013821D03*
X021735Y013321D03*
D35*
X008775Y004604D02*
X008775Y004089D01*
X006001Y004130D02*
X005486Y004130D01*
X004444Y005664D02*
X004444Y006179D01*
X006706Y006964D02*
X007221Y006964D01*
X007257Y007909D02*
X007772Y007909D01*
X037560Y008153D02*
X037560Y007639D01*
X040334Y008113D02*
X040849Y008113D01*
X041890Y006579D02*
X041890Y006064D01*
X039628Y005278D02*
X039113Y005278D01*
X039077Y004333D02*
X038562Y004333D01*
D36*
X024917Y010821D03*
D37*
X011317Y016541D03*
X011317Y016791D03*
X011317Y017051D03*
X011317Y017301D03*
X010317Y017301D03*
X010317Y017051D03*
X010317Y016791D03*
X010317Y016541D03*
D38*
X012637Y016421D02*
X013197Y016421D01*
X013197Y017421D02*
X012637Y017421D01*
D39*
X029100Y017521D03*
X029100Y018521D03*
X029100Y019521D03*
X029100Y020521D03*
X031934Y020521D03*
X031934Y019521D03*
X031934Y018521D03*
X031934Y017521D03*
X033600Y017721D03*
X033600Y018721D03*
X033600Y019721D03*
X033600Y020721D03*
X031834Y022821D03*
X031834Y023821D03*
X031834Y024821D03*
X031834Y025821D03*
X033200Y025921D03*
X033200Y024921D03*
X033200Y023921D03*
X033200Y022921D03*
X036034Y022921D03*
X036034Y023921D03*
X036034Y024921D03*
X036034Y025921D03*
X029000Y025821D03*
X029000Y024821D03*
X029000Y023821D03*
X029000Y022821D03*
X036434Y020721D03*
X036434Y019721D03*
X036434Y018721D03*
X036434Y017721D03*
D40*
X028517Y004421D03*
X028517Y003821D03*
X027517Y003821D03*
X027517Y004421D03*
X017917Y011421D03*
X017917Y012221D03*
D41*
X009348Y023101D03*
X007647Y023101D03*
D42*
X010797Y022990D03*
X010797Y024691D03*
D43*
X023842Y008221D03*
X024092Y008221D03*
X024342Y008221D03*
X024592Y008221D03*
X024842Y008221D03*
X025092Y008221D03*
X025342Y008221D03*
X025592Y008221D03*
X025842Y008221D03*
X026092Y008221D03*
X026342Y008221D03*
X026592Y008221D03*
X026592Y005221D03*
X026342Y005221D03*
X026092Y005221D03*
X025842Y005221D03*
X025592Y005221D03*
X025342Y005221D03*
X025092Y005221D03*
X024842Y005221D03*
X024592Y005221D03*
X024342Y005221D03*
X024092Y005221D03*
X023842Y005221D03*
D44*
X023641Y008921D03*
X024232Y008921D03*
X012917Y004636D03*
X012917Y004046D03*
X012917Y003297D03*
X012917Y002706D03*
D45*
X026717Y022370D03*
X026717Y023551D03*
D46*
X019656Y021935D03*
X019656Y026147D03*
D47*
X008508Y025720D03*
X008508Y024539D03*
X007327Y024539D03*
X037935Y023893D03*
X037935Y022712D03*
X039116Y022712D03*
X039116Y021531D03*
X037935Y021531D03*
X037935Y020350D03*
X039116Y020350D03*
D48*
X039116Y023893D03*
X007327Y025720D03*
D49*
X007917Y027421D03*
X040817Y023046D03*
X040817Y021196D03*
D50*
X005817Y010221D03*
D51*
X004817Y010221D03*
X004817Y011221D03*
X005817Y011221D03*
X005817Y012221D03*
X004817Y012221D03*
X004817Y013221D03*
X005817Y013221D03*
X005817Y014221D03*
X004817Y014221D03*
X004817Y015221D03*
X005817Y015221D03*
X005817Y016221D03*
X004817Y016221D03*
X004817Y017221D03*
X005817Y017221D03*
X005817Y018221D03*
X004817Y018221D03*
X004817Y019221D03*
X005817Y019221D03*
X005817Y020221D03*
X004817Y020221D03*
X004817Y021221D03*
X005817Y021221D03*
X005817Y022221D03*
X004817Y022221D03*
M02*
