%
M48
M72
T01C0.0315
T02C0.0320
T03C0.0360
T04C0.0374
T05C0.0402
T06C0.0440
T07C0.0520
T08C0.0906
T09C0.1181
T10C0.1260
%
T01
X5743Y4130
X4444Y5921
X6964Y6964
X7515Y7909
X8775Y4346
X37560Y7896
X40591Y8113
X41890Y6321
X39371Y5278
X38819Y4333
T02
X33917Y4121
X33917Y5121
X27617Y6321
X27617Y7321
X20517Y11921
X19517Y11921
X17917Y6021
X16917Y6021
X16917Y5021
X17917Y5021
X17817Y4021
X16917Y3921
X17817Y3021
X16917Y2921
X10617Y3521
X9617Y3521
X9617Y4721
X10617Y4721
X9317Y17921
X9417Y19021
X7417Y19021
X7317Y17921
X8017Y20621
X8017Y21621
X13217Y21421
X13217Y20421
X12117Y25221
X12217Y27221
X11217Y27221
X15117Y25221
X29017Y21721
X32017Y21721
X33517Y21721
X36517Y21721
X36517Y16321
X33517Y16321
X32117Y16321
X29117Y16321
T03
X12917Y16421
X12917Y17421
X5817Y17221
X4817Y17221
X4817Y18221
X5817Y18221
X5817Y19221
X4817Y19221
X4817Y20221
X5817Y20221
X5817Y21221
X4817Y21221
X4817Y22221
X5817Y22221
X5817Y16221
X4817Y16221
X4817Y15221
X5817Y15221
X5817Y14221
X4817Y14221
X4817Y13221
X5817Y13221
X5817Y12221
X4817Y12221
X4817Y11221
X5817Y11221
X5817Y10221
X4817Y10221
T04
X39350Y11943
X39350Y12927
X39350Y13715
X39350Y14699
T05
X39116Y20350
X37935Y20350
X37935Y21531
X37935Y22712
X39116Y22712
X39116Y21531
X39116Y23893
X37935Y23893
X8508Y24539
X8508Y25720
X7327Y25720
X7327Y24539
T06
X12217Y23721
X16217Y23721
X15417Y14571
X11417Y14571
X13417Y7571
T07
X24917Y10821
T08
X40417Y10735
X40417Y15908
T09
X40817Y21196
X40817Y23046
X7917Y27421
T10
X4617Y2721
X4617Y27621
X41417Y27721
X41617Y2821
M30
