G75*
G70*
%OFA0B0*%
%FSLAX24Y24*%
%IPPOS*%
%LPD*%
%AMOC8*
5,1,8,0,0,1.08239X$1,22.5*
%
%ADD10C,0.1340*%
%ADD11R,0.0500X0.0180*%
%ADD12R,0.0860X0.0300*%
%ADD13OC8,0.0600*%
%ADD14R,0.0220X0.0660*%
%ADD15OC8,0.1080*%
%ADD16R,0.0290X0.0860*%
%ADD17R,0.0600X0.0300*%
%ADD18R,0.0220X0.0540*%
%ADD19R,0.0300X0.0860*%
%ADD20C,0.0740*%
%ADD21R,0.0474X0.0474*%
%ADD22R,0.0671X0.0592*%
%ADD23R,0.0789X0.0710*%
%ADD24R,0.0789X0.1025*%
%ADD25C,0.0654*%
%ADD26C,0.0986*%
%ADD27C,0.0600*%
%ADD28R,0.0540X0.0220*%
%ADD29R,0.0434X0.0356*%
%ADD30R,0.0592X0.0592*%
%ADD31R,0.0867X0.0592*%
%ADD32R,0.0356X0.0434*%
%ADD33C,0.0600*%
%ADD34R,0.0749X0.0336*%
%ADD35C,0.0595*%
%ADD36OC8,0.0930*%
%ADD37R,0.0600X0.0250*%
%ADD38C,0.0640*%
%ADD39R,0.0867X0.0474*%
%ADD40R,0.0356X0.0356*%
%ADD41R,0.0552X0.0678*%
%ADD42R,0.0678X0.0552*%
%ADD43R,0.0200X0.0320*%
%ADD44R,0.0395X0.0395*%
%ADD45R,0.1261X0.0671*%
%ADD46R,0.2206X0.1655*%
%ADD47C,0.0682*%
%ADD48R,0.0682X0.0682*%
%ADD49C,0.1261*%
%ADD50C,0.0640*%
%ADD51OC8,0.0640*%
%ADD52C,0.0480*%
D10*
X004617Y001450D03*
X041517Y001350D03*
X041517Y026550D03*
X004617Y026550D03*
D11*
X008257Y013850D03*
X008257Y013650D03*
X008257Y013450D03*
X008257Y013250D03*
X009377Y013250D03*
X009377Y013450D03*
X009377Y013650D03*
X009377Y013850D03*
D12*
X009647Y018900D03*
X009647Y019400D03*
X009647Y019900D03*
X009647Y020400D03*
X011587Y020400D03*
X011587Y019900D03*
X011587Y019400D03*
X011587Y018900D03*
D13*
X013217Y019150D03*
X013217Y020150D03*
X009817Y017350D03*
X009817Y015950D03*
X007817Y015950D03*
X007817Y017350D03*
X008017Y019150D03*
X008017Y020150D03*
X012617Y023850D03*
X015617Y023850D03*
X013817Y026150D03*
X012817Y026150D03*
X016917Y004650D03*
X016917Y003650D03*
X017917Y003650D03*
X017917Y004650D03*
X017817Y002650D03*
X016917Y002550D03*
X016917Y001550D03*
X017817Y001650D03*
X010617Y002150D03*
X009617Y002150D03*
X009617Y003350D03*
X010617Y003350D03*
X033917Y003750D03*
X033917Y002750D03*
D14*
X032887Y002800D03*
X032627Y002800D03*
X032377Y002800D03*
X032117Y002800D03*
X031857Y002800D03*
X031607Y002800D03*
X031347Y002800D03*
X031347Y005100D03*
X031607Y005100D03*
X031857Y005100D03*
X032117Y005100D03*
X032377Y005100D03*
X032627Y005100D03*
X032887Y005100D03*
D15*
X015417Y013200D03*
X011417Y013200D03*
X013417Y006200D03*
D16*
X018167Y007180D03*
X018667Y007180D03*
X019167Y007180D03*
X019667Y007180D03*
X019667Y009120D03*
X019167Y009120D03*
X018667Y009120D03*
X018167Y009120D03*
D17*
X027117Y011950D03*
X027917Y012350D03*
X027117Y012750D03*
X027117Y014050D03*
X027917Y014450D03*
X027117Y014850D03*
X027117Y016150D03*
X027917Y016550D03*
X027117Y016950D03*
X027117Y018150D03*
X027917Y018550D03*
X027117Y018950D03*
D18*
X030957Y010160D03*
X031477Y010160D03*
X031477Y009340D03*
X031217Y009340D03*
X030957Y009340D03*
D19*
X025367Y021580D03*
X024867Y021580D03*
X024367Y021580D03*
X023867Y021580D03*
X023867Y023520D03*
X024367Y023520D03*
X024867Y023520D03*
X025367Y023520D03*
D20*
X016217Y022350D03*
X012217Y022350D03*
D21*
X032417Y011450D03*
D22*
X032417Y010224D03*
X032417Y009476D03*
X023017Y022176D03*
X023017Y022924D03*
X026417Y023776D03*
X026417Y024524D03*
D23*
X027617Y024701D03*
X027617Y023599D03*
X029917Y010601D03*
X029917Y009499D03*
D24*
X025314Y024750D03*
X023720Y024750D03*
D25*
X039063Y013328D02*
X039637Y013328D01*
X039637Y012344D02*
X039063Y012344D01*
X039063Y011556D02*
X039637Y011556D01*
X039637Y010572D02*
X039063Y010572D01*
D26*
X040417Y009363D03*
X040417Y014537D03*
D27*
X036977Y014950D02*
X036457Y014950D01*
X033977Y014950D02*
X033457Y014950D01*
X032477Y014950D02*
X031957Y014950D01*
X029477Y014950D02*
X028957Y014950D01*
X028957Y021650D02*
X029477Y021650D01*
X031957Y021650D02*
X032477Y021650D01*
X033157Y021650D02*
X033677Y021650D01*
X036157Y021650D02*
X036677Y021650D01*
D28*
X021097Y003510D03*
X021097Y002990D03*
X020337Y002990D03*
X020337Y003250D03*
X020337Y003510D03*
X020337Y001810D03*
X020337Y001550D03*
X020337Y001290D03*
X021097Y001290D03*
X021097Y001810D03*
X023237Y001810D03*
X023237Y001550D03*
X023237Y001290D03*
X023997Y001290D03*
X023997Y001810D03*
X026037Y001810D03*
X026037Y001550D03*
X026037Y001290D03*
X026797Y001290D03*
X026797Y001810D03*
D29*
X030517Y003694D03*
X030517Y004206D03*
X025317Y004294D03*
X025317Y004806D03*
X022417Y006594D03*
X022417Y007106D03*
X025317Y009694D03*
X025317Y010206D03*
X019517Y016294D03*
X019517Y016806D03*
X018717Y016806D03*
X018717Y016294D03*
X018017Y016294D03*
X018017Y016806D03*
X018017Y018094D03*
X018717Y018094D03*
X018717Y018606D03*
X018017Y018606D03*
X019517Y018606D03*
X019517Y018094D03*
D30*
X034664Y004667D03*
X035570Y004667D03*
D31*
X035117Y006833D03*
D32*
X032373Y006050D03*
X031861Y006050D03*
X027213Y006130D03*
X026701Y006130D03*
X026661Y008950D03*
X027173Y008950D03*
X029361Y001950D03*
X029873Y001950D03*
X029873Y001150D03*
X029361Y001150D03*
X031861Y001850D03*
X032373Y001850D03*
X012073Y001350D03*
X011561Y001350D03*
X011561Y003250D03*
X012073Y003250D03*
D33*
X018917Y010550D03*
X019917Y010550D03*
X026617Y008050D03*
X026617Y007050D03*
D34*
X024999Y011950D03*
X024999Y012450D03*
X024999Y012950D03*
X024999Y013450D03*
X024999Y013950D03*
X024999Y014450D03*
X024999Y014950D03*
X024999Y015450D03*
X024999Y015950D03*
X024999Y016450D03*
X024999Y016950D03*
X024999Y017450D03*
X024999Y017950D03*
X024999Y018450D03*
X021235Y018450D03*
X021235Y017950D03*
X021235Y017450D03*
X021235Y016950D03*
X021235Y016450D03*
X021235Y015950D03*
X021235Y015450D03*
X021235Y014950D03*
X021235Y014450D03*
X021235Y013950D03*
X021235Y013450D03*
X021235Y012950D03*
X021235Y012450D03*
X021235Y011950D03*
D35*
X007772Y006538D02*
X007257Y006538D01*
X007221Y005593D02*
X006706Y005593D01*
X004444Y004807D02*
X004444Y004293D01*
X005486Y002759D02*
X006001Y002759D01*
X008775Y002718D02*
X008775Y003233D01*
X037560Y006267D02*
X037560Y006782D01*
X040334Y006741D02*
X040849Y006741D01*
X041890Y005207D02*
X041890Y004693D01*
X039628Y003907D02*
X039113Y003907D01*
X039077Y002962D02*
X038562Y002962D01*
D36*
X026317Y010250D03*
D37*
X012517Y015470D03*
X012517Y015720D03*
X012517Y015980D03*
X012517Y016230D03*
X011517Y016230D03*
X011517Y015980D03*
X011517Y015720D03*
X011517Y015470D03*
D38*
X014937Y015350D02*
X015497Y015350D01*
X015497Y016350D02*
X014937Y016350D01*
D39*
X029100Y016150D03*
X029100Y017150D03*
X029100Y018150D03*
X029100Y019150D03*
X031934Y019150D03*
X031934Y018150D03*
X031934Y017150D03*
X031934Y016150D03*
X033900Y016150D03*
X033900Y017150D03*
X033900Y018150D03*
X033900Y019150D03*
X036734Y019150D03*
X036734Y018150D03*
X036734Y017150D03*
X036734Y016150D03*
X036534Y022950D03*
X036534Y023950D03*
X036534Y024950D03*
X036534Y025950D03*
X033700Y025950D03*
X033700Y024950D03*
X033700Y023950D03*
X033700Y022950D03*
X031934Y022950D03*
X031934Y023950D03*
X031934Y024950D03*
X031934Y025950D03*
X029100Y025950D03*
X029100Y024950D03*
X029100Y023950D03*
X029100Y022950D03*
D40*
X017917Y013150D03*
X017917Y012050D03*
X022617Y001950D03*
X025417Y001950D03*
X028617Y001950D03*
X028617Y001150D03*
D41*
X009348Y021730D03*
X007647Y021730D03*
D42*
X010797Y021619D03*
X010797Y023320D03*
D43*
X023042Y008950D03*
X023292Y008950D03*
X023542Y008950D03*
X023792Y008950D03*
X024042Y008950D03*
X024292Y008950D03*
X024542Y008950D03*
X024792Y008950D03*
X025042Y008950D03*
X025292Y008950D03*
X025542Y008950D03*
X025792Y008950D03*
X025792Y005950D03*
X025542Y005950D03*
X025292Y005950D03*
X025042Y005950D03*
X024792Y005950D03*
X024542Y005950D03*
X024292Y005950D03*
X024042Y005950D03*
X023792Y005950D03*
X023542Y005950D03*
X023292Y005950D03*
X023042Y005950D03*
D44*
X024041Y009750D03*
X024632Y009750D03*
X012917Y003265D03*
X012917Y002674D03*
X012917Y001926D03*
X012917Y001335D03*
D45*
X026717Y020999D03*
X026717Y022180D03*
D46*
X019656Y020563D03*
X019656Y024776D03*
D47*
X008508Y024349D03*
X008508Y023168D03*
X007327Y023168D03*
X037935Y022522D03*
X037935Y021341D03*
X039116Y021341D03*
X039116Y020159D03*
X037935Y020159D03*
X037935Y018978D03*
X039116Y018978D03*
D48*
X039116Y022522D03*
X007327Y024349D03*
D49*
X007917Y026050D03*
X040817Y021675D03*
X040817Y019825D03*
D50*
X005817Y008850D03*
D51*
X004817Y008850D03*
X004817Y009850D03*
X004817Y010850D03*
X005817Y010850D03*
X005817Y009850D03*
X005817Y011850D03*
X004817Y011850D03*
X004817Y012850D03*
X005817Y012850D03*
X005817Y013850D03*
X004817Y013850D03*
X004817Y014850D03*
X004817Y015850D03*
X005817Y015850D03*
X005817Y014850D03*
X005817Y016850D03*
X004817Y016850D03*
X004817Y017850D03*
X005817Y017850D03*
X005817Y018850D03*
X004817Y018850D03*
X004817Y019850D03*
X005817Y019850D03*
X005817Y020850D03*
X004817Y020850D03*
D52*
X008953Y019918D03*
X013979Y016275D03*
X018100Y017253D03*
X018717Y017656D03*
X019476Y017457D03*
X020157Y017950D03*
X022065Y014450D03*
X021874Y013533D03*
X024143Y013950D03*
X025645Y012318D03*
X025820Y011591D03*
X027043Y013171D03*
X027071Y015272D03*
X026776Y020402D03*
X037089Y025450D03*
X024817Y006450D03*
X023817Y006450D03*
X022398Y006156D03*
X021740Y005824D03*
X019476Y006442D03*
X022160Y003682D03*
X021769Y003010D03*
X023224Y002182D03*
X024528Y001441D03*
X026303Y002301D03*
X027335Y001132D03*
X032027Y004504D03*
X025906Y005519D03*
X021829Y001310D03*
M02*
