%
M48
M72
T01C0.0240
T02C0.0315
T03C0.0320
T04C0.0360
T05C0.0374
T06C0.0402
T07C0.0440
T08C0.0520
T09C0.0906
T10C0.1181
T11C0.1260
%
T01
X16400Y10669
X17398Y10182
X21026Y7176
X22570Y5833
X24705Y5528
X26429Y5313
X25398Y3612
X23142Y2180
X22011Y1304
X21276Y2614
X22645Y3587
X24953Y1310
X27328Y1170
X31862Y3485
X32023Y4502
X33216Y2344
X33221Y10511
X28193Y10624
X25652Y12404
X26198Y12850
X27795Y12773
X24364Y12607
X23855Y12542
X23368Y14923
X24364Y15560
X22370Y16351
X24364Y17450
X24020Y17950
X26219Y18823
X27917Y19016
X28407Y16218
X20074Y16865
X19895Y17403
X20254Y18450
X18597Y17450
X10855Y17530
X8950Y19915
X19676Y1153
T02
X8775Y2975
X5743Y2759
X4444Y4550
X6964Y5593
X7515Y6538
X37560Y6525
X40591Y6741
X41890Y4950
X39371Y3907
X38819Y2962
T03
X33917Y2750
X33917Y3750
X26617Y7050
X26617Y8050
X19917Y10550
X18917Y10550
X17817Y4550
X16917Y4650
X16917Y3650
X17817Y3550
X17817Y2650
X16917Y2550
X16917Y1550
X17817Y1650
X10617Y2150
X9617Y2150
X9617Y3350
X10617Y3350
X29017Y15350
X32017Y15350
X33817Y15350
X36817Y15350
X36817Y21750
X33817Y21750
X32017Y21750
X29017Y21750
X15617Y23850
X12617Y23850
X12817Y26150
X13817Y26150
X13217Y20150
X13217Y19150
X9817Y17650
X9817Y16550
X7817Y16550
X7817Y17650
X8017Y19150
X8017Y20150
T04
X5817Y19850
X4817Y19850
X4817Y18850
X5817Y18850
X5817Y17850
X4817Y17850
X4817Y16850
X5817Y16850
X5817Y15850
X4817Y15850
X4817Y14850
X5817Y14850
X5817Y13850
X4817Y13850
X4817Y12850
X4817Y11850
X5817Y11850
X5817Y12850
X5817Y10850
X4817Y10850
X4817Y9850
X5817Y9850
X5817Y8850
X4817Y8850
X14917Y16750
X14917Y17750
X5817Y20850
X4817Y20850
T05
X39350Y13328
X39350Y12344
X39350Y11556
X39350Y10572
T06
X39116Y18978
X37935Y18978
X37935Y20159
X39116Y20159
X39116Y21341
X37935Y21341
X37935Y22522
X39116Y22522
X8508Y23168
X7327Y23168
X7327Y24349
X8508Y24349
T07
X12217Y22350
X16217Y22350
X13409Y15325
X12417Y15341
X12917Y4744
T08
X22317Y10450
T09
X40417Y9363
X40417Y14537
T10
X40817Y19825
X40817Y21675
X7917Y26050
T11
X4617Y1450
X41517Y1350
X41517Y26550
X4617Y26550
M30
