G75*
G70*
%OFA0B0*%
%FSLAX24Y24*%
%IPPOS*%
%LPD*%
%AMOC8*
5,1,8,0,0,1.08239X$1,22.5*
%
%ADD10OC8,0.0520*%
%ADD11C,0.0660*%
%ADD12C,0.0574*%
%ADD13C,0.0520*%
%ADD14C,0.0520*%
%ADD15C,0.0515*%
%ADD16OC8,0.0850*%
%ADD17C,0.0560*%
%ADD18C,0.0602*%
%ADD19R,0.0602X0.0602*%
%ADD20C,0.0560*%
%ADD21OC8,0.0560*%
%ADD22OC8,0.1000*%
%ADD23C,0.0100*%
%ADD24C,0.0400*%
%ADD25C,0.0300*%
D10*
X009617Y002150D03*
X010617Y002150D03*
X010617Y003350D03*
X009617Y003350D03*
X016917Y003650D03*
X017817Y003550D03*
X017817Y002650D03*
X016917Y002550D03*
X016917Y001550D03*
X017817Y001650D03*
X017817Y004550D03*
X016917Y004650D03*
X033917Y003750D03*
X033917Y002750D03*
X009817Y016550D03*
X009817Y017650D03*
X007817Y017650D03*
X007817Y016550D03*
X008017Y019150D03*
X008017Y020150D03*
X013217Y020150D03*
X013217Y019150D03*
X012617Y023850D03*
X015617Y023850D03*
X013817Y026150D03*
X012817Y026150D03*
D11*
X012217Y022350D03*
X016217Y022350D03*
D12*
X039063Y013328D02*
X039637Y013328D01*
X039637Y012344D02*
X039063Y012344D01*
X039063Y011556D02*
X039637Y011556D01*
X039637Y010572D02*
X039063Y010572D01*
D13*
X037077Y015350D02*
X036557Y015350D01*
X034077Y015350D02*
X033557Y015350D01*
X032277Y015350D02*
X031757Y015350D01*
X029277Y015350D02*
X028757Y015350D01*
X028757Y021750D02*
X029277Y021750D01*
X031757Y021750D02*
X032277Y021750D01*
X033557Y021750D02*
X034077Y021750D01*
X036557Y021750D02*
X037077Y021750D01*
D14*
X019917Y010550D03*
X018917Y010550D03*
X026617Y008050D03*
X026617Y007050D03*
D15*
X037560Y006782D02*
X037560Y006267D01*
X040334Y006741D02*
X040849Y006741D01*
X041890Y005207D02*
X041890Y004693D01*
X039628Y003907D02*
X039113Y003907D01*
X039077Y002962D02*
X038562Y002962D01*
X008775Y002718D02*
X008775Y003233D01*
X006001Y002759D02*
X005486Y002759D01*
X004444Y004293D02*
X004444Y004807D01*
X006706Y005593D02*
X007221Y005593D01*
X007257Y006538D02*
X007772Y006538D01*
D16*
X022317Y010450D03*
D17*
X015197Y016750D02*
X014637Y016750D01*
X014637Y017750D02*
X015197Y017750D01*
D18*
X008508Y023168D03*
X007327Y023168D03*
X008508Y024349D03*
X037935Y022522D03*
X037935Y021341D03*
X039116Y021341D03*
X039116Y020159D03*
X037935Y020159D03*
X037935Y018978D03*
X039116Y018978D03*
D19*
X039116Y022522D03*
X007327Y024349D03*
D20*
X005817Y008850D03*
D21*
X004817Y008850D03*
X004817Y009850D03*
X004817Y010850D03*
X005817Y010850D03*
X005817Y009850D03*
X005817Y011850D03*
X004817Y011850D03*
X004817Y012850D03*
X005817Y012850D03*
X005817Y013850D03*
X004817Y013850D03*
X004817Y014850D03*
X004817Y015850D03*
X005817Y015850D03*
X005817Y014850D03*
X005817Y016850D03*
X004817Y016850D03*
X004817Y017850D03*
X005817Y017850D03*
X005817Y018850D03*
X004817Y018850D03*
X004817Y019850D03*
X005817Y019850D03*
X005817Y020850D03*
X004817Y020850D03*
D22*
X012417Y015341D03*
X013409Y015325D03*
X012917Y004744D03*
D23*
X003954Y002314D02*
X003867Y002227D01*
X003867Y025773D01*
X003954Y025686D01*
X004200Y025544D01*
X004475Y025470D01*
X004759Y025470D01*
X005034Y025544D01*
X005280Y025686D01*
X005481Y025887D01*
X005623Y026133D01*
X005697Y026408D01*
X005697Y026692D01*
X005623Y026967D01*
X005481Y027213D01*
X005398Y027296D01*
X040740Y027300D01*
X040653Y027213D01*
X040511Y026967D01*
X040437Y026692D01*
X040437Y026408D01*
X040511Y026133D01*
X040653Y025887D01*
X040854Y025686D01*
X041100Y025544D01*
X041375Y025470D01*
X041659Y025470D01*
X041934Y025544D01*
X042180Y025686D01*
X042267Y025773D01*
X042267Y005366D01*
X042239Y005421D01*
X042201Y005473D01*
X042156Y005518D01*
X042104Y005556D01*
X042047Y005585D01*
X041986Y005605D01*
X041922Y005615D01*
X041919Y005615D01*
X041919Y004979D01*
X041862Y004979D01*
X041862Y005615D01*
X041858Y005615D01*
X041795Y005605D01*
X041734Y005585D01*
X041677Y005556D01*
X041625Y005518D01*
X041579Y005473D01*
X041542Y005421D01*
X041513Y005364D01*
X041493Y005303D01*
X041483Y005240D01*
X041483Y004979D01*
X041862Y004979D01*
X041862Y004921D01*
X041919Y004921D01*
X041919Y004285D01*
X041922Y004285D01*
X041986Y004295D01*
X042047Y004315D01*
X042104Y004344D01*
X042156Y004382D01*
X042201Y004427D01*
X042239Y004479D01*
X042267Y004534D01*
X042267Y002127D01*
X042180Y002214D01*
X041934Y002356D01*
X041659Y002430D01*
X041375Y002430D01*
X041100Y002356D01*
X040854Y002214D01*
X040653Y002013D01*
X040511Y001767D01*
X040437Y001492D01*
X040437Y001208D01*
X040511Y000933D01*
X040653Y000687D01*
X040740Y000600D01*
X022717Y000600D01*
X022728Y000611D01*
X029271Y000611D01*
X029389Y000728D01*
X031795Y003135D01*
X031932Y003135D01*
X032060Y003188D01*
X032159Y003286D01*
X032212Y003415D01*
X032212Y003552D01*
X033421Y004761D01*
X033421Y010216D01*
X033518Y010313D01*
X033571Y010442D01*
X033571Y010581D01*
X033518Y010710D01*
X033419Y010808D01*
X033291Y010861D01*
X033151Y010861D01*
X033023Y010808D01*
X032924Y010710D01*
X032871Y010581D01*
X032871Y010442D01*
X032924Y010313D01*
X033021Y010216D01*
X033021Y004926D01*
X031929Y003835D01*
X031792Y003835D01*
X031664Y003781D01*
X031565Y003683D01*
X031512Y003554D01*
X031512Y003417D01*
X029106Y001011D01*
X027641Y001011D01*
X027678Y001100D01*
X027678Y001239D01*
X027624Y001368D01*
X027526Y001466D01*
X027397Y001520D01*
X027258Y001520D01*
X027240Y001512D01*
X027240Y011028D01*
X027844Y010424D01*
X027898Y010424D01*
X027995Y010327D01*
X028123Y010274D01*
X028263Y010274D01*
X028391Y010327D01*
X028490Y010426D01*
X028527Y010515D01*
X031823Y007219D01*
X031823Y004797D01*
X031727Y004700D01*
X031673Y004571D01*
X031673Y004432D01*
X031727Y004304D01*
X031825Y004205D01*
X031954Y004152D01*
X032093Y004152D01*
X032222Y004205D01*
X032320Y004304D01*
X032373Y004432D01*
X032373Y004571D01*
X032320Y004700D01*
X032223Y004797D01*
X032223Y007384D01*
X026674Y012933D01*
X026557Y013050D01*
X026493Y013050D01*
X026397Y013147D01*
X026268Y013200D01*
X026129Y013200D01*
X026000Y013147D01*
X025902Y013049D01*
X025862Y012954D01*
X024823Y012954D01*
X024593Y013184D01*
X024564Y013213D01*
X024564Y015265D01*
X024660Y015362D01*
X024714Y015490D01*
X024714Y015629D01*
X024660Y015758D01*
X024562Y015857D01*
X024481Y015890D01*
X026419Y017828D01*
X026419Y018528D01*
X026516Y018625D01*
X026569Y018753D01*
X026569Y018893D01*
X026516Y019021D01*
X026417Y019120D01*
X026289Y019173D01*
X026150Y019173D01*
X026021Y019120D01*
X025922Y019021D01*
X025869Y018893D01*
X025869Y018753D01*
X025922Y018625D01*
X026019Y018528D01*
X026019Y017993D01*
X023299Y015273D01*
X023298Y015273D01*
X023170Y015220D01*
X023071Y015121D01*
X023018Y014993D01*
X023018Y014854D01*
X023071Y014725D01*
X023170Y014626D01*
X023298Y014573D01*
X023438Y014573D01*
X023566Y014626D01*
X023665Y014725D01*
X023718Y014854D01*
X023718Y014993D01*
X023679Y015087D01*
X024034Y015442D01*
X024067Y015362D01*
X024164Y015265D01*
X024164Y013301D01*
X023836Y013301D01*
X020944Y010409D01*
X020826Y010292D01*
X020826Y010027D01*
X017713Y010027D01*
X017748Y010113D01*
X017748Y010249D01*
X024447Y016948D01*
X024564Y017065D01*
X024564Y017155D01*
X024661Y017252D01*
X024714Y017380D01*
X024714Y017520D01*
X024661Y017648D01*
X024562Y017747D01*
X024434Y017800D01*
X024337Y017800D01*
X024370Y017880D01*
X025906Y017880D01*
X025807Y017782D02*
X024478Y017782D01*
X024370Y017880D02*
X024370Y018020D01*
X024317Y018148D01*
X024218Y018247D01*
X024090Y018300D01*
X023950Y018300D01*
X023822Y018247D01*
X023723Y018148D01*
X023670Y018020D01*
X023670Y017883D01*
X023468Y017681D01*
X023468Y017232D01*
X022702Y016465D01*
X022667Y016549D01*
X022569Y016648D01*
X022440Y016701D01*
X022301Y016701D01*
X022172Y016648D01*
X022075Y016551D01*
X020229Y016551D01*
X020272Y016569D01*
X020371Y016667D01*
X020424Y016796D01*
X020424Y016933D01*
X020454Y016962D01*
X020454Y018155D01*
X020551Y018252D01*
X020604Y018380D01*
X020604Y018520D01*
X020551Y018648D01*
X020452Y018747D01*
X020323Y018800D01*
X020184Y018800D01*
X020056Y018747D01*
X019957Y018648D01*
X019904Y018520D01*
X019904Y018380D01*
X019957Y018252D01*
X020054Y018155D01*
X020054Y017716D01*
X019964Y017753D01*
X019825Y017753D01*
X019696Y017699D01*
X019647Y017650D01*
X018892Y017650D01*
X018795Y017747D01*
X018667Y017800D01*
X018527Y017800D01*
X018399Y017747D01*
X018300Y017648D01*
X018247Y017520D01*
X018247Y017380D01*
X018300Y017252D01*
X018399Y017153D01*
X018527Y017100D01*
X018667Y017100D01*
X018795Y017153D01*
X018892Y017250D01*
X019579Y017250D01*
X019598Y017204D01*
X019696Y017106D01*
X019784Y017070D01*
X019778Y017064D01*
X019724Y016935D01*
X019724Y016796D01*
X019778Y016667D01*
X019876Y016569D01*
X019919Y016551D01*
X016914Y016551D01*
X016062Y017403D01*
X015945Y017520D01*
X015561Y017520D01*
X015565Y017525D01*
X015596Y017585D01*
X015616Y017649D01*
X015626Y017710D01*
X014957Y017710D01*
X014957Y017790D01*
X014877Y017790D01*
X014877Y017710D01*
X014208Y017710D01*
X014218Y017649D01*
X014239Y017585D01*
X014269Y017525D01*
X014273Y017520D01*
X011205Y017520D01*
X011205Y017600D01*
X011152Y017728D01*
X011053Y017827D01*
X010925Y017880D01*
X010785Y017880D01*
X010657Y017827D01*
X010558Y017728D01*
X010505Y017600D01*
X010505Y017460D01*
X010558Y017332D01*
X010657Y017233D01*
X010785Y017180D01*
X010922Y017180D01*
X010982Y017120D01*
X014406Y017120D01*
X014393Y017115D01*
X014273Y016994D01*
X014207Y016836D01*
X014207Y016664D01*
X014273Y016506D01*
X014393Y016385D01*
X014552Y016320D01*
X015283Y016320D01*
X015441Y016385D01*
X015562Y016506D01*
X015627Y016664D01*
X015627Y016836D01*
X015562Y016994D01*
X015441Y017115D01*
X015428Y017120D01*
X015779Y017120D01*
X016748Y016151D01*
X022075Y016151D01*
X022172Y016054D01*
X022256Y016019D01*
X017106Y010869D01*
X016695Y010869D01*
X016598Y010966D01*
X016470Y011019D01*
X016331Y011019D01*
X016202Y010966D01*
X016103Y010868D01*
X016067Y010778D01*
X012154Y014691D01*
X012686Y014691D01*
X012905Y014910D01*
X013140Y014675D01*
X013678Y014675D01*
X014059Y015056D01*
X014059Y015594D01*
X013678Y015975D01*
X013140Y015975D01*
X012921Y015756D01*
X012686Y015991D01*
X012148Y015991D01*
X011767Y015610D01*
X011767Y015078D01*
X010427Y016418D01*
X010427Y016633D01*
X010310Y016750D01*
X010197Y016750D01*
X010017Y016930D01*
X010017Y017270D01*
X010227Y017480D01*
X010227Y017820D01*
X009987Y018060D01*
X009647Y018060D01*
X009407Y017820D01*
X009407Y017480D01*
X009617Y017270D01*
X009617Y016930D01*
X009407Y016720D01*
X009407Y016380D01*
X009647Y016140D01*
X009987Y016140D01*
X010063Y016216D01*
X016535Y009744D01*
X016653Y009627D01*
X020826Y009627D01*
X020826Y007471D01*
X020730Y007374D01*
X020676Y007246D01*
X020676Y007106D01*
X020730Y006978D01*
X020828Y006879D01*
X020957Y006826D01*
X021096Y006826D01*
X021225Y006879D01*
X021323Y006978D01*
X021376Y007106D01*
X021376Y007246D01*
X021323Y007374D01*
X021226Y007471D01*
X021226Y010126D01*
X021742Y010642D01*
X021742Y010212D01*
X022079Y009875D01*
X022555Y009875D01*
X022892Y010212D01*
X022892Y010688D01*
X022555Y011025D01*
X022125Y011025D01*
X023525Y012425D01*
X023559Y012343D01*
X023655Y012247D01*
X023655Y007200D01*
X022638Y006183D01*
X022501Y006183D01*
X022372Y006129D01*
X022274Y006031D01*
X022220Y005902D01*
X022220Y005763D01*
X022274Y005634D01*
X022372Y005536D01*
X022501Y005483D01*
X022640Y005483D01*
X022769Y005536D01*
X022867Y005634D01*
X022920Y005763D01*
X022920Y005900D01*
X024055Y007035D01*
X024055Y012247D01*
X024142Y012334D01*
X024164Y012312D01*
X024164Y005883D01*
X021391Y003111D01*
X021391Y002945D01*
X021346Y002964D01*
X021206Y002964D01*
X021078Y002911D01*
X020979Y002812D01*
X020926Y002684D01*
X020926Y002544D01*
X020979Y002416D01*
X021078Y002317D01*
X021206Y002264D01*
X021346Y002264D01*
X021391Y002283D01*
X021391Y001641D01*
X021661Y001371D01*
X021661Y001234D01*
X021715Y001105D01*
X021813Y001007D01*
X021854Y000990D01*
X019379Y000990D01*
X018090Y002279D01*
X018026Y002279D01*
X018227Y002480D01*
X018227Y002620D01*
X017847Y002620D01*
X017847Y002680D01*
X017787Y002680D01*
X017787Y003060D01*
X017647Y003060D01*
X017407Y002820D01*
X017407Y002750D01*
X017297Y002750D01*
X017117Y002930D01*
X017117Y003270D01*
X017327Y003480D01*
X017327Y003820D01*
X017087Y004060D01*
X016747Y004060D01*
X016507Y003820D01*
X016507Y003480D01*
X016717Y003270D01*
X016717Y002930D01*
X016507Y002720D01*
X016507Y002380D01*
X016747Y002140D01*
X017087Y002140D01*
X017271Y002324D01*
X017591Y002004D01*
X017407Y001820D01*
X017407Y001480D01*
X017647Y001240D01*
X017987Y001240D01*
X018227Y001480D01*
X018227Y001576D01*
X019096Y000707D01*
X019203Y000600D01*
X005294Y000600D01*
X005481Y000787D01*
X005623Y001033D01*
X005697Y001308D01*
X005697Y001592D01*
X005623Y001867D01*
X005481Y002113D01*
X005280Y002314D01*
X005034Y002456D01*
X004759Y002530D01*
X004475Y002530D01*
X004200Y002456D01*
X003954Y002314D01*
X003959Y002317D02*
X003867Y002317D01*
X003867Y002416D02*
X004130Y002416D01*
X003867Y002514D02*
X004415Y002514D01*
X004819Y002514D02*
X005154Y002514D01*
X005140Y002528D02*
X005255Y002413D01*
X005405Y002351D01*
X006082Y002351D01*
X006231Y002413D01*
X006346Y002528D01*
X006408Y002678D01*
X006408Y002840D01*
X006346Y002989D01*
X006231Y003104D01*
X006082Y003166D01*
X005405Y003166D01*
X005255Y003104D01*
X005140Y002989D01*
X005078Y002840D01*
X005078Y002678D01*
X005140Y002528D01*
X005105Y002613D02*
X003867Y002613D01*
X003867Y002711D02*
X005078Y002711D01*
X005078Y002810D02*
X003867Y002810D01*
X003867Y002908D02*
X005106Y002908D01*
X005157Y003007D02*
X003867Y003007D01*
X003867Y003105D02*
X005257Y003105D01*
X006229Y003105D02*
X008367Y003105D01*
X008367Y003007D02*
X006329Y003007D01*
X006380Y002908D02*
X008367Y002908D01*
X008367Y002810D02*
X006408Y002810D01*
X006408Y002711D02*
X008367Y002711D01*
X008367Y002637D02*
X008429Y002487D01*
X008544Y002372D01*
X008693Y002310D01*
X008856Y002310D01*
X009005Y002372D01*
X009120Y002487D01*
X009182Y002637D01*
X009182Y003314D01*
X009120Y003463D01*
X009005Y003578D01*
X008856Y003640D01*
X008693Y003640D01*
X008544Y003578D01*
X008429Y003463D01*
X008367Y003314D01*
X008367Y002637D01*
X008377Y002613D02*
X006381Y002613D01*
X006332Y002514D02*
X008418Y002514D01*
X008500Y002416D02*
X006234Y002416D01*
X005534Y002022D02*
X009207Y002022D01*
X009207Y001980D02*
X009447Y001740D01*
X009787Y001740D01*
X010027Y001980D01*
X010027Y002320D01*
X009787Y002560D01*
X009447Y002560D01*
X009207Y002320D01*
X009207Y001980D01*
X009264Y001923D02*
X005591Y001923D01*
X005635Y001825D02*
X009363Y001825D01*
X009207Y002120D02*
X005474Y002120D01*
X005376Y002219D02*
X009207Y002219D01*
X009207Y002317D02*
X008872Y002317D01*
X008677Y002317D02*
X005275Y002317D01*
X005252Y002416D02*
X005105Y002416D01*
X005661Y001726D02*
X016513Y001726D01*
X016507Y001720D02*
X016507Y001380D01*
X016747Y001140D01*
X017087Y001140D01*
X017327Y001380D01*
X017327Y001720D01*
X017087Y001960D01*
X016747Y001960D01*
X016507Y001720D01*
X016507Y001628D02*
X005688Y001628D01*
X005697Y001529D02*
X016507Y001529D01*
X016507Y001431D02*
X005697Y001431D01*
X005697Y001332D02*
X016555Y001332D01*
X016654Y001234D02*
X005677Y001234D01*
X005651Y001135D02*
X018668Y001135D01*
X018570Y001234D02*
X017180Y001234D01*
X017279Y001332D02*
X017555Y001332D01*
X017457Y001431D02*
X017327Y001431D01*
X017327Y001529D02*
X017407Y001529D01*
X017407Y001628D02*
X017327Y001628D01*
X017321Y001726D02*
X017407Y001726D01*
X017412Y001825D02*
X017222Y001825D01*
X017124Y001923D02*
X017510Y001923D01*
X017573Y002022D02*
X011027Y002022D01*
X011027Y001980D02*
X010787Y001740D01*
X010447Y001740D01*
X010207Y001980D01*
X010207Y002320D01*
X010447Y002560D01*
X010787Y002560D01*
X011027Y002320D01*
X011027Y001980D01*
X010970Y001923D02*
X016710Y001923D01*
X016612Y001825D02*
X010871Y001825D01*
X011027Y002120D02*
X017474Y002120D01*
X017376Y002219D02*
X017165Y002219D01*
X017264Y002317D02*
X017277Y002317D01*
X017327Y002550D02*
X017098Y002550D01*
X016917Y002550D01*
X016917Y003650D01*
X016507Y003696D02*
X010851Y003696D01*
X010787Y003760D02*
X010447Y003760D01*
X010207Y003520D01*
X010207Y003180D01*
X010447Y002940D01*
X010787Y002940D01*
X011027Y003180D01*
X011027Y003520D01*
X010787Y003760D01*
X010949Y003598D02*
X016507Y003598D01*
X016507Y003499D02*
X011027Y003499D01*
X011027Y003401D02*
X016587Y003401D01*
X016685Y003302D02*
X011027Y003302D01*
X011027Y003204D02*
X016717Y003204D01*
X016717Y003105D02*
X010952Y003105D01*
X010853Y003007D02*
X016717Y003007D01*
X016695Y002908D02*
X009182Y002908D01*
X009182Y002810D02*
X016597Y002810D01*
X016507Y002711D02*
X009182Y002711D01*
X009172Y002613D02*
X016507Y002613D01*
X016507Y002514D02*
X010833Y002514D01*
X010931Y002416D02*
X016507Y002416D01*
X016570Y002317D02*
X011027Y002317D01*
X011027Y002219D02*
X016669Y002219D01*
X017327Y002550D02*
X017798Y002079D01*
X018007Y002079D01*
X019296Y000790D01*
X022624Y000790D01*
X022645Y000811D01*
X029189Y000811D01*
X031862Y003485D01*
X033221Y004843D01*
X033221Y010511D01*
X033551Y010394D02*
X038664Y010394D01*
X038693Y010325D02*
X038626Y010485D01*
X038626Y010659D01*
X038693Y010820D01*
X038816Y010943D01*
X038976Y011009D01*
X039724Y011009D01*
X039885Y010943D01*
X040008Y010820D01*
X040074Y010659D01*
X040074Y010485D01*
X040008Y010325D01*
X039885Y010202D01*
X039724Y010135D01*
X038976Y010135D01*
X038816Y010202D01*
X038693Y010325D01*
X038722Y010296D02*
X033500Y010296D01*
X033421Y010197D02*
X038827Y010197D01*
X038626Y010493D02*
X033571Y010493D01*
X033567Y010591D02*
X038626Y010591D01*
X038639Y010690D02*
X033526Y010690D01*
X033439Y010788D02*
X038680Y010788D01*
X038760Y010887D02*
X028721Y010887D01*
X028623Y010985D02*
X038918Y010985D01*
X038976Y011119D02*
X038816Y011186D01*
X038693Y011309D01*
X038626Y011469D01*
X038626Y011643D01*
X038693Y011804D01*
X038816Y011927D01*
X038872Y011950D01*
X038816Y011973D01*
X038693Y012096D01*
X038626Y012257D01*
X038626Y012431D01*
X038693Y012591D01*
X038816Y012714D01*
X038976Y012781D01*
X039724Y012781D01*
X039885Y012714D01*
X040008Y012591D01*
X040074Y012431D01*
X040074Y012257D01*
X040008Y012096D01*
X039885Y011973D01*
X039829Y011950D01*
X039885Y011927D01*
X040008Y011804D01*
X040074Y011643D01*
X040074Y011469D01*
X040008Y011309D01*
X039885Y011186D01*
X039724Y011119D01*
X038976Y011119D01*
X038825Y011182D02*
X028426Y011182D01*
X028524Y011084D02*
X042267Y011084D01*
X042267Y011182D02*
X039876Y011182D01*
X039979Y011281D02*
X042267Y011281D01*
X042267Y011379D02*
X040037Y011379D01*
X040074Y011478D02*
X042267Y011478D01*
X042267Y011576D02*
X040074Y011576D01*
X040061Y011675D02*
X042267Y011675D01*
X042267Y011773D02*
X040020Y011773D01*
X039940Y011872D02*
X042267Y011872D01*
X042267Y011970D02*
X039877Y011970D01*
X039980Y012069D02*
X042267Y012069D01*
X042267Y012167D02*
X040037Y012167D01*
X040074Y012266D02*
X042267Y012266D01*
X042267Y012364D02*
X040074Y012364D01*
X040061Y012463D02*
X042267Y012463D01*
X042267Y012561D02*
X040020Y012561D01*
X039939Y012660D02*
X042267Y012660D01*
X042267Y012758D02*
X039779Y012758D01*
X039739Y012902D02*
X039672Y012891D01*
X039394Y012891D01*
X039394Y013284D01*
X039394Y013371D01*
X040073Y013371D01*
X040063Y013430D01*
X040042Y013496D01*
X040011Y013557D01*
X039970Y013613D01*
X039922Y013661D01*
X039866Y013702D01*
X039805Y013733D01*
X039739Y013754D01*
X039672Y013765D01*
X039394Y013765D01*
X039394Y013371D01*
X039307Y013371D01*
X039307Y013284D01*
X039394Y013284D01*
X040073Y013284D01*
X040063Y013226D01*
X040042Y013160D01*
X040011Y013099D01*
X039970Y013043D01*
X039922Y012995D01*
X039866Y012954D01*
X039805Y012923D01*
X039739Y012902D01*
X039867Y012955D02*
X042267Y012955D01*
X042267Y012857D02*
X028139Y012857D01*
X028145Y012842D02*
X028091Y012971D01*
X027995Y013068D01*
X027995Y018292D01*
X031354Y021652D01*
X031409Y021518D01*
X031525Y021402D01*
X031676Y021340D01*
X031717Y021340D01*
X031717Y015760D01*
X031676Y015760D01*
X031525Y015698D01*
X031409Y015582D01*
X031347Y015432D01*
X031347Y015423D01*
X030469Y016301D01*
X030352Y016418D01*
X028702Y016418D01*
X028605Y016515D01*
X028476Y016568D01*
X028337Y016568D01*
X028209Y016515D01*
X028110Y016416D01*
X028057Y016288D01*
X028057Y016149D01*
X028110Y016020D01*
X028209Y015921D01*
X028337Y015868D01*
X028476Y015868D01*
X028605Y015921D01*
X028702Y016018D01*
X030186Y016018D01*
X031464Y014740D01*
X033900Y014740D01*
X034017Y014857D01*
X034017Y014940D01*
X034159Y014940D01*
X034309Y015002D01*
X034425Y015118D01*
X034487Y015268D01*
X034487Y015432D01*
X034425Y015582D01*
X034309Y015698D01*
X034159Y015760D01*
X033476Y015760D01*
X033325Y015698D01*
X033209Y015582D01*
X033147Y015432D01*
X033147Y015268D01*
X033200Y015140D01*
X032634Y015140D01*
X032687Y015268D01*
X032687Y015432D01*
X032625Y015582D01*
X032509Y015698D01*
X032359Y015760D01*
X032317Y015760D01*
X032317Y021340D01*
X032359Y021340D01*
X032509Y021402D01*
X032625Y021518D01*
X032687Y021668D01*
X032687Y021832D01*
X032634Y021960D01*
X033200Y021960D01*
X033147Y021832D01*
X033147Y021668D01*
X033209Y021518D01*
X033325Y021402D01*
X033476Y021340D01*
X034159Y021340D01*
X034309Y021402D01*
X034425Y021518D01*
X034487Y021668D01*
X034487Y021832D01*
X034425Y021982D01*
X034309Y022098D01*
X034159Y022160D01*
X034017Y022160D01*
X034017Y022243D01*
X033900Y022360D01*
X031497Y022360D01*
X031380Y022243D01*
X029217Y020080D01*
X029217Y021340D01*
X029359Y021340D01*
X029509Y021402D01*
X029625Y021518D01*
X029687Y021668D01*
X029687Y021832D01*
X029625Y021982D01*
X029509Y022098D01*
X029359Y022160D01*
X028676Y022160D01*
X028525Y022098D01*
X028409Y021982D01*
X028347Y021832D01*
X028347Y021668D01*
X028409Y021518D01*
X028525Y021402D01*
X028676Y021340D01*
X028817Y021340D01*
X028817Y020198D01*
X027984Y019366D01*
X027847Y019366D01*
X027719Y019312D01*
X027620Y019214D01*
X027567Y019085D01*
X027567Y018946D01*
X027620Y018817D01*
X027719Y018719D01*
X027815Y018679D01*
X027595Y018458D01*
X027595Y013068D01*
X027498Y012971D01*
X027445Y012842D01*
X027445Y012703D01*
X027498Y012574D01*
X027596Y012476D01*
X027725Y012423D01*
X027864Y012423D01*
X027993Y012476D01*
X028091Y012574D01*
X028145Y012703D01*
X028145Y012842D01*
X028145Y012758D02*
X038921Y012758D01*
X038961Y012902D02*
X039029Y012891D01*
X039307Y012891D01*
X039307Y013284D01*
X038628Y013284D01*
X038637Y013226D01*
X038658Y013160D01*
X038689Y013099D01*
X038730Y013043D01*
X038778Y012995D01*
X038834Y012954D01*
X038895Y012923D01*
X038961Y012902D01*
X038833Y012955D02*
X028098Y012955D01*
X028009Y013054D02*
X038722Y013054D01*
X038662Y013152D02*
X027995Y013152D01*
X027995Y013251D02*
X038633Y013251D01*
X038628Y013371D02*
X039307Y013371D01*
X039307Y013765D01*
X039029Y013765D01*
X038961Y013754D01*
X038895Y013733D01*
X038834Y013702D01*
X038778Y013661D01*
X038730Y013613D01*
X038689Y013557D01*
X038658Y013496D01*
X038637Y013430D01*
X038628Y013371D01*
X038642Y013448D02*
X027995Y013448D01*
X027995Y013546D02*
X038684Y013546D01*
X038762Y013645D02*
X027995Y013645D01*
X027995Y013743D02*
X038926Y013743D01*
X039307Y013743D02*
X039394Y013743D01*
X039394Y013645D02*
X039307Y013645D01*
X039307Y013546D02*
X039394Y013546D01*
X039394Y013448D02*
X039307Y013448D01*
X039307Y013349D02*
X027995Y013349D01*
X027595Y013349D02*
X024564Y013349D01*
X024564Y013251D02*
X027595Y013251D01*
X027595Y013152D02*
X026385Y013152D01*
X026490Y013054D02*
X027581Y013054D01*
X027491Y012955D02*
X026653Y012955D01*
X026751Y012857D02*
X027451Y012857D01*
X027445Y012758D02*
X026850Y012758D01*
X026948Y012660D02*
X027463Y012660D01*
X027511Y012561D02*
X027047Y012561D01*
X027145Y012463D02*
X027629Y012463D01*
X027961Y012463D02*
X038639Y012463D01*
X038626Y012364D02*
X027244Y012364D01*
X027342Y012266D02*
X038626Y012266D01*
X038663Y012167D02*
X027441Y012167D01*
X027539Y012069D02*
X038720Y012069D01*
X038823Y011970D02*
X027638Y011970D01*
X027736Y011872D02*
X038760Y011872D01*
X038680Y011773D02*
X027835Y011773D01*
X027933Y011675D02*
X038639Y011675D01*
X038626Y011576D02*
X028032Y011576D01*
X028130Y011478D02*
X038626Y011478D01*
X038664Y011379D02*
X028229Y011379D01*
X028327Y011281D02*
X038721Y011281D01*
X039782Y010985D02*
X042267Y010985D01*
X042267Y010887D02*
X039941Y010887D01*
X040021Y010788D02*
X042267Y010788D01*
X042267Y010690D02*
X040061Y010690D01*
X040074Y010591D02*
X042267Y010591D01*
X042267Y010493D02*
X040074Y010493D01*
X040036Y010394D02*
X042267Y010394D01*
X042267Y010296D02*
X039979Y010296D01*
X040071Y010197D02*
X039874Y010197D01*
X039906Y010129D02*
X039652Y009875D01*
X039514Y009543D01*
X039514Y009184D01*
X039652Y008852D01*
X039906Y008598D01*
X040237Y008461D01*
X040597Y008461D01*
X040928Y008598D01*
X041182Y008852D01*
X041320Y009184D01*
X041320Y009543D01*
X041182Y009875D01*
X040928Y010129D01*
X040597Y010266D01*
X040237Y010266D01*
X039906Y010129D01*
X039876Y010099D02*
X033421Y010099D01*
X033421Y010000D02*
X039777Y010000D01*
X039679Y009902D02*
X033421Y009902D01*
X033421Y009803D02*
X039622Y009803D01*
X039581Y009705D02*
X033421Y009705D01*
X033421Y009606D02*
X039540Y009606D01*
X039514Y009508D02*
X033421Y009508D01*
X033421Y009409D02*
X039514Y009409D01*
X039514Y009311D02*
X033421Y009311D01*
X033421Y009212D02*
X039514Y009212D01*
X039543Y009114D02*
X033421Y009114D01*
X033421Y009015D02*
X039584Y009015D01*
X039625Y008917D02*
X033421Y008917D01*
X033421Y008818D02*
X039686Y008818D01*
X039784Y008720D02*
X033421Y008720D01*
X033421Y008621D02*
X039883Y008621D01*
X040088Y008523D02*
X033421Y008523D01*
X033421Y008424D02*
X042267Y008424D01*
X042267Y008326D02*
X033421Y008326D01*
X033421Y008227D02*
X042267Y008227D01*
X042267Y008129D02*
X033421Y008129D01*
X033421Y008030D02*
X042267Y008030D01*
X042267Y007932D02*
X033421Y007932D01*
X033421Y007833D02*
X042267Y007833D01*
X042267Y007735D02*
X033421Y007735D01*
X033421Y007636D02*
X042267Y007636D01*
X042267Y007538D02*
X033421Y007538D01*
X033421Y007439D02*
X042267Y007439D01*
X042267Y007341D02*
X033421Y007341D01*
X033421Y007242D02*
X042267Y007242D01*
X042267Y007144D02*
X040942Y007144D01*
X040930Y007149D02*
X041079Y007087D01*
X041194Y006972D01*
X041256Y006822D01*
X041256Y006660D01*
X041194Y006511D01*
X041079Y006396D01*
X040930Y006334D01*
X040253Y006334D01*
X040103Y006396D01*
X039988Y006511D01*
X039926Y006660D01*
X039926Y006822D01*
X039988Y006972D01*
X040103Y007087D01*
X040253Y007149D01*
X040930Y007149D01*
X041121Y007045D02*
X042267Y007045D01*
X042267Y006947D02*
X041205Y006947D01*
X041245Y006848D02*
X042267Y006848D01*
X042267Y006750D02*
X041256Y006750D01*
X041252Y006651D02*
X042267Y006651D01*
X042267Y006553D02*
X041211Y006553D01*
X041137Y006454D02*
X042267Y006454D01*
X042267Y006356D02*
X040982Y006356D01*
X040200Y006356D02*
X037967Y006356D01*
X037967Y006454D02*
X040045Y006454D01*
X039971Y006553D02*
X037967Y006553D01*
X037967Y006651D02*
X039930Y006651D01*
X039926Y006750D02*
X037967Y006750D01*
X037967Y006848D02*
X039937Y006848D01*
X039978Y006947D02*
X037933Y006947D01*
X037905Y007013D02*
X037967Y006863D01*
X037967Y006186D01*
X037905Y006037D01*
X037790Y005922D01*
X037641Y005860D01*
X037479Y005860D01*
X037329Y005922D01*
X037214Y006037D01*
X037152Y006186D01*
X037152Y006863D01*
X037214Y007013D01*
X037329Y007128D01*
X037479Y007190D01*
X037641Y007190D01*
X037790Y007128D01*
X037905Y007013D01*
X037873Y007045D02*
X040061Y007045D01*
X040240Y007144D02*
X037752Y007144D01*
X037367Y007144D02*
X033421Y007144D01*
X033421Y007045D02*
X037246Y007045D01*
X037187Y006947D02*
X033421Y006947D01*
X033421Y006848D02*
X037152Y006848D01*
X037152Y006750D02*
X033421Y006750D01*
X033421Y006651D02*
X037152Y006651D01*
X037152Y006553D02*
X033421Y006553D01*
X033421Y006454D02*
X037152Y006454D01*
X037152Y006356D02*
X033421Y006356D01*
X033421Y006257D02*
X037152Y006257D01*
X037164Y006159D02*
X033421Y006159D01*
X033421Y006060D02*
X037204Y006060D01*
X037289Y005962D02*
X033421Y005962D01*
X033421Y005863D02*
X037471Y005863D01*
X037648Y005863D02*
X042267Y005863D01*
X042267Y005765D02*
X033421Y005765D01*
X033421Y005666D02*
X042267Y005666D01*
X042267Y005568D02*
X042081Y005568D01*
X042204Y005469D02*
X042267Y005469D01*
X042265Y005371D02*
X042267Y005371D01*
X041919Y005371D02*
X041862Y005371D01*
X041862Y005469D02*
X041919Y005469D01*
X041919Y005568D02*
X041862Y005568D01*
X041699Y005568D02*
X033421Y005568D01*
X033421Y005469D02*
X041577Y005469D01*
X041516Y005371D02*
X033421Y005371D01*
X033421Y005272D02*
X041488Y005272D01*
X041483Y005174D02*
X033421Y005174D01*
X033421Y005075D02*
X041483Y005075D01*
X041483Y004921D02*
X041483Y004660D01*
X041493Y004597D01*
X041513Y004536D01*
X041542Y004479D01*
X041579Y004427D01*
X041625Y004382D01*
X041677Y004344D01*
X041734Y004315D01*
X041795Y004295D01*
X041858Y004285D01*
X041862Y004285D01*
X041862Y004921D01*
X041483Y004921D01*
X041483Y004878D02*
X033421Y004878D01*
X033421Y004780D02*
X041483Y004780D01*
X041483Y004681D02*
X033341Y004681D01*
X033243Y004583D02*
X041498Y004583D01*
X041539Y004484D02*
X033144Y004484D01*
X033046Y004386D02*
X041621Y004386D01*
X041862Y004386D02*
X041919Y004386D01*
X041919Y004484D02*
X041862Y004484D01*
X041862Y004583D02*
X041919Y004583D01*
X041919Y004681D02*
X041862Y004681D01*
X041862Y004780D02*
X041919Y004780D01*
X041919Y004878D02*
X041862Y004878D01*
X041862Y004977D02*
X033421Y004977D01*
X033021Y004977D02*
X032223Y004977D01*
X032223Y005075D02*
X033021Y005075D01*
X033021Y005174D02*
X032223Y005174D01*
X032223Y005272D02*
X033021Y005272D01*
X033021Y005371D02*
X032223Y005371D01*
X032223Y005469D02*
X033021Y005469D01*
X033021Y005568D02*
X032223Y005568D01*
X032223Y005666D02*
X033021Y005666D01*
X033021Y005765D02*
X032223Y005765D01*
X032223Y005863D02*
X033021Y005863D01*
X033021Y005962D02*
X032223Y005962D01*
X032223Y006060D02*
X033021Y006060D01*
X033021Y006159D02*
X032223Y006159D01*
X032223Y006257D02*
X033021Y006257D01*
X033021Y006356D02*
X032223Y006356D01*
X032223Y006454D02*
X033021Y006454D01*
X033021Y006553D02*
X032223Y006553D01*
X032223Y006651D02*
X033021Y006651D01*
X033021Y006750D02*
X032223Y006750D01*
X032223Y006848D02*
X033021Y006848D01*
X033021Y006947D02*
X032223Y006947D01*
X032223Y007045D02*
X033021Y007045D01*
X033021Y007144D02*
X032223Y007144D01*
X032223Y007242D02*
X033021Y007242D01*
X033021Y007341D02*
X032223Y007341D01*
X032169Y007439D02*
X033021Y007439D01*
X033021Y007538D02*
X032070Y007538D01*
X031972Y007636D02*
X033021Y007636D01*
X033021Y007735D02*
X031873Y007735D01*
X031775Y007833D02*
X033021Y007833D01*
X033021Y007932D02*
X031676Y007932D01*
X031578Y008030D02*
X033021Y008030D01*
X033021Y008129D02*
X031479Y008129D01*
X031381Y008227D02*
X033021Y008227D01*
X033021Y008326D02*
X031282Y008326D01*
X031184Y008424D02*
X033021Y008424D01*
X033021Y008523D02*
X031085Y008523D01*
X030987Y008621D02*
X033021Y008621D01*
X033021Y008720D02*
X030888Y008720D01*
X030790Y008818D02*
X033021Y008818D01*
X033021Y008917D02*
X030691Y008917D01*
X030593Y009015D02*
X033021Y009015D01*
X033021Y009114D02*
X030494Y009114D01*
X030396Y009212D02*
X033021Y009212D01*
X033021Y009311D02*
X030297Y009311D01*
X030199Y009409D02*
X033021Y009409D01*
X033021Y009508D02*
X030100Y009508D01*
X030002Y009606D02*
X033021Y009606D01*
X033021Y009705D02*
X029903Y009705D01*
X029805Y009803D02*
X033021Y009803D01*
X033021Y009902D02*
X029706Y009902D01*
X029608Y010000D02*
X033021Y010000D01*
X033021Y010099D02*
X029509Y010099D01*
X029411Y010197D02*
X033021Y010197D01*
X032942Y010296D02*
X029312Y010296D01*
X029214Y010394D02*
X032891Y010394D01*
X032871Y010493D02*
X029115Y010493D01*
X029017Y010591D02*
X032875Y010591D01*
X032916Y010690D02*
X028918Y010690D01*
X028820Y010788D02*
X033003Y010788D01*
X030322Y008720D02*
X027240Y008720D01*
X027240Y008818D02*
X030224Y008818D01*
X030125Y008917D02*
X027240Y008917D01*
X027240Y009015D02*
X030027Y009015D01*
X029928Y009114D02*
X027240Y009114D01*
X027240Y009212D02*
X029830Y009212D01*
X029731Y009311D02*
X027240Y009311D01*
X027240Y009409D02*
X029633Y009409D01*
X029534Y009508D02*
X027240Y009508D01*
X027240Y009606D02*
X029436Y009606D01*
X029337Y009705D02*
X027240Y009705D01*
X027240Y009803D02*
X029239Y009803D01*
X029140Y009902D02*
X027240Y009902D01*
X027240Y010000D02*
X029042Y010000D01*
X028943Y010099D02*
X027240Y010099D01*
X027240Y010197D02*
X028845Y010197D01*
X028746Y010296D02*
X028315Y010296D01*
X028458Y010394D02*
X028648Y010394D01*
X028549Y010493D02*
X028517Y010493D01*
X028193Y010624D02*
X027927Y010624D01*
X025797Y012754D01*
X024740Y012754D01*
X024393Y013101D01*
X024364Y013101D01*
X024364Y015560D01*
X024607Y015812D02*
X027595Y015812D01*
X027595Y015910D02*
X024502Y015910D01*
X024600Y016009D02*
X027595Y016009D01*
X027595Y016107D02*
X024699Y016107D01*
X024797Y016206D02*
X027595Y016206D01*
X027595Y016304D02*
X024896Y016304D01*
X024994Y016403D02*
X027595Y016403D01*
X027595Y016501D02*
X025093Y016501D01*
X025191Y016600D02*
X027595Y016600D01*
X027595Y016698D02*
X025290Y016698D01*
X025388Y016797D02*
X027595Y016797D01*
X027595Y016895D02*
X025487Y016895D01*
X025585Y016994D02*
X027595Y016994D01*
X027595Y017092D02*
X025684Y017092D01*
X025782Y017191D02*
X027595Y017191D01*
X027595Y017289D02*
X025881Y017289D01*
X025979Y017388D02*
X027595Y017388D01*
X027595Y017486D02*
X026078Y017486D01*
X026176Y017585D02*
X027595Y017585D01*
X027595Y017683D02*
X026275Y017683D01*
X026373Y017782D02*
X027595Y017782D01*
X027595Y017880D02*
X026419Y017880D01*
X026419Y017979D02*
X027595Y017979D01*
X027595Y018077D02*
X026419Y018077D01*
X026419Y018176D02*
X027595Y018176D01*
X027595Y018274D02*
X026419Y018274D01*
X026419Y018373D02*
X027595Y018373D01*
X027608Y018471D02*
X026419Y018471D01*
X026461Y018570D02*
X027706Y018570D01*
X027805Y018668D02*
X026534Y018668D01*
X026569Y018767D02*
X027671Y018767D01*
X027601Y018865D02*
X026569Y018865D01*
X026540Y018964D02*
X027567Y018964D01*
X027567Y019062D02*
X026475Y019062D01*
X026319Y019161D02*
X027598Y019161D01*
X027666Y019259D02*
X013627Y019259D01*
X013627Y019320D02*
X013387Y019560D01*
X013047Y019560D01*
X012864Y019376D01*
X008942Y023297D01*
X008890Y023424D01*
X008763Y023551D01*
X008597Y023619D01*
X008418Y023619D01*
X008252Y023551D01*
X008125Y023424D01*
X008056Y023258D01*
X008056Y023078D01*
X008125Y022913D01*
X008252Y022786D01*
X008418Y022717D01*
X008597Y022717D01*
X008763Y022786D01*
X008826Y022848D01*
X012724Y018950D01*
X012837Y018950D01*
X013047Y018740D01*
X013387Y018740D01*
X013627Y018980D01*
X013627Y019320D01*
X013589Y019358D02*
X027828Y019358D01*
X028075Y019456D02*
X013491Y019456D01*
X013392Y019555D02*
X028173Y019555D01*
X028272Y019653D02*
X012587Y019653D01*
X012685Y019555D02*
X013042Y019555D01*
X012943Y019456D02*
X012784Y019456D01*
X012807Y019150D02*
X008789Y023168D01*
X008508Y023168D01*
X008819Y023495D02*
X010648Y023495D01*
X010550Y023593D02*
X008661Y023593D01*
X008355Y023593D02*
X007480Y023593D01*
X007416Y023619D02*
X007237Y023619D01*
X007071Y023551D01*
X006944Y023424D01*
X006875Y023258D01*
X006875Y023078D01*
X006944Y022913D01*
X007071Y022786D01*
X007127Y022763D01*
X007127Y020168D01*
X007244Y020051D01*
X007791Y019504D01*
X007607Y019320D01*
X007607Y018980D01*
X007847Y018740D01*
X008187Y018740D01*
X008427Y018980D01*
X008427Y019320D01*
X008217Y019530D01*
X008217Y019643D01*
X008120Y019740D01*
X008187Y019740D01*
X008427Y019980D01*
X008427Y020320D01*
X008187Y020560D01*
X007847Y020560D01*
X007607Y020320D01*
X007607Y020253D01*
X007527Y020333D01*
X007527Y022763D01*
X007582Y022786D01*
X007709Y022913D01*
X007778Y023078D01*
X007778Y023258D01*
X007709Y023424D01*
X007582Y023551D01*
X007416Y023619D01*
X007173Y023593D02*
X003867Y023593D01*
X003867Y023495D02*
X007015Y023495D01*
X006933Y023396D02*
X003867Y023396D01*
X003867Y023298D02*
X006892Y023298D01*
X006875Y023199D02*
X003867Y023199D01*
X003867Y023101D02*
X006875Y023101D01*
X006907Y023002D02*
X003867Y023002D01*
X003867Y022904D02*
X006953Y022904D01*
X007051Y022805D02*
X003867Y022805D01*
X003867Y022707D02*
X007127Y022707D01*
X007127Y022608D02*
X003867Y022608D01*
X003867Y022510D02*
X007127Y022510D01*
X007127Y022411D02*
X003867Y022411D01*
X003867Y022313D02*
X007127Y022313D01*
X007127Y022214D02*
X003867Y022214D01*
X003867Y022116D02*
X007127Y022116D01*
X007127Y022017D02*
X003867Y022017D01*
X003867Y021919D02*
X007127Y021919D01*
X007127Y021820D02*
X003867Y021820D01*
X003867Y021722D02*
X007127Y021722D01*
X007127Y021623D02*
X003867Y021623D01*
X003867Y021525D02*
X007127Y021525D01*
X007127Y021426D02*
X003867Y021426D01*
X003867Y021328D02*
X007127Y021328D01*
X007127Y021229D02*
X006046Y021229D01*
X005995Y021280D02*
X005639Y021280D01*
X005387Y021028D01*
X005387Y020672D01*
X005639Y020420D01*
X005995Y020420D01*
X006247Y020672D01*
X006247Y021028D01*
X005995Y021280D01*
X006145Y021131D02*
X007127Y021131D01*
X007127Y021032D02*
X006243Y021032D01*
X006247Y020934D02*
X007127Y020934D01*
X007127Y020835D02*
X006247Y020835D01*
X006247Y020737D02*
X007127Y020737D01*
X007127Y020638D02*
X006213Y020638D01*
X006115Y020540D02*
X007127Y020540D01*
X007127Y020441D02*
X006016Y020441D01*
X005995Y020280D02*
X005639Y020280D01*
X005387Y020028D01*
X005387Y019672D01*
X005639Y019420D01*
X005995Y019420D01*
X006247Y019672D01*
X006247Y020028D01*
X005995Y020280D01*
X006031Y020244D02*
X007127Y020244D01*
X007127Y020343D02*
X003867Y020343D01*
X003867Y020441D02*
X004618Y020441D01*
X004639Y020420D02*
X004995Y020420D01*
X005247Y020672D01*
X005247Y021028D01*
X004995Y021280D01*
X004639Y021280D01*
X004387Y021028D01*
X004387Y020672D01*
X004639Y020420D01*
X004639Y020280D02*
X004387Y020028D01*
X004387Y019672D01*
X004639Y019420D01*
X004995Y019420D01*
X005247Y019672D01*
X005247Y020028D01*
X004995Y020280D01*
X004639Y020280D01*
X004603Y020244D02*
X003867Y020244D01*
X003867Y020146D02*
X004504Y020146D01*
X004406Y020047D02*
X003867Y020047D01*
X003867Y019949D02*
X004387Y019949D01*
X004387Y019850D02*
X003867Y019850D01*
X003867Y019752D02*
X004387Y019752D01*
X004406Y019653D02*
X003867Y019653D01*
X003867Y019555D02*
X004504Y019555D01*
X004603Y019456D02*
X003867Y019456D01*
X003867Y019358D02*
X007645Y019358D01*
X007607Y019259D02*
X006016Y019259D01*
X005995Y019280D02*
X005639Y019280D01*
X005387Y019028D01*
X005387Y018672D01*
X005639Y018420D01*
X005995Y018420D01*
X006247Y018672D01*
X006247Y019028D01*
X005995Y019280D01*
X006115Y019161D02*
X007607Y019161D01*
X007607Y019062D02*
X006213Y019062D01*
X006247Y018964D02*
X007624Y018964D01*
X007722Y018865D02*
X006247Y018865D01*
X006247Y018767D02*
X007821Y018767D01*
X008213Y018767D02*
X008750Y018767D01*
X008750Y018865D02*
X008312Y018865D01*
X008410Y018964D02*
X008750Y018964D01*
X008750Y019062D02*
X008427Y019062D01*
X008427Y019161D02*
X008750Y019161D01*
X008750Y019259D02*
X008427Y019259D01*
X008389Y019358D02*
X008750Y019358D01*
X008750Y019456D02*
X008291Y019456D01*
X008217Y019555D02*
X008750Y019555D01*
X008750Y019620D02*
X008750Y018175D01*
X008227Y017653D01*
X008227Y017820D01*
X007987Y018060D01*
X007647Y018060D01*
X007407Y017820D01*
X007407Y017480D01*
X007647Y017240D01*
X007814Y017240D01*
X007734Y017160D01*
X007617Y017043D01*
X007617Y016930D01*
X007407Y016720D01*
X007407Y016380D01*
X007647Y016140D01*
X007987Y016140D01*
X008227Y016380D01*
X008227Y016720D01*
X008043Y016904D01*
X009032Y017892D01*
X009149Y018010D01*
X009149Y019620D01*
X009246Y019716D01*
X009299Y019845D01*
X009299Y019984D01*
X009246Y020113D01*
X009148Y020211D01*
X009019Y020265D01*
X008880Y020265D01*
X008751Y020211D01*
X008653Y020113D01*
X008600Y019984D01*
X008600Y019845D01*
X008653Y019716D01*
X008750Y019620D01*
X008716Y019653D02*
X008207Y019653D01*
X008198Y019752D02*
X008638Y019752D01*
X008600Y019850D02*
X008297Y019850D01*
X008395Y019949D02*
X008600Y019949D01*
X008626Y020047D02*
X008427Y020047D01*
X008427Y020146D02*
X008685Y020146D01*
X008830Y020244D02*
X008427Y020244D01*
X008404Y020343D02*
X011332Y020343D01*
X011233Y020441D02*
X008306Y020441D01*
X008207Y020540D02*
X011135Y020540D01*
X011036Y020638D02*
X007527Y020638D01*
X007527Y020540D02*
X007827Y020540D01*
X007728Y020441D02*
X007527Y020441D01*
X007527Y020343D02*
X007630Y020343D01*
X007327Y020251D02*
X007327Y023168D01*
X007746Y023002D02*
X008088Y023002D01*
X008056Y023101D02*
X007778Y023101D01*
X007778Y023199D02*
X008056Y023199D01*
X008073Y023298D02*
X007761Y023298D01*
X007720Y023396D02*
X008114Y023396D01*
X008196Y023495D02*
X007638Y023495D01*
X007647Y023898D02*
X007377Y023898D01*
X007377Y024299D01*
X007377Y024399D01*
X007778Y024399D01*
X007778Y024670D01*
X007767Y024708D01*
X007748Y024742D01*
X007720Y024770D01*
X007686Y024790D01*
X007647Y024800D01*
X007377Y024800D01*
X007377Y024399D01*
X007277Y024399D01*
X007277Y024800D01*
X007006Y024800D01*
X006967Y024790D01*
X006933Y024770D01*
X006905Y024742D01*
X006886Y024708D01*
X006875Y024670D01*
X006875Y024399D01*
X007277Y024399D01*
X007277Y024299D01*
X007377Y024299D01*
X007778Y024299D01*
X007778Y024028D01*
X007767Y023990D01*
X007748Y023956D01*
X007720Y023928D01*
X007686Y023908D01*
X007647Y023898D01*
X007766Y023987D02*
X008232Y023987D01*
X008252Y023967D02*
X008418Y023898D01*
X008597Y023898D01*
X008763Y023967D01*
X008846Y024049D01*
X010094Y024049D01*
X011737Y022406D01*
X011737Y022255D01*
X011810Y022078D01*
X011945Y021943D01*
X012122Y021870D01*
X012313Y021870D01*
X012489Y021943D01*
X012624Y022078D01*
X012697Y022255D01*
X012697Y022445D01*
X012624Y022622D01*
X012489Y022757D01*
X012313Y022830D01*
X012161Y022830D01*
X010388Y024604D01*
X010278Y024649D01*
X008846Y024649D01*
X008763Y024732D01*
X008597Y024800D01*
X008418Y024800D01*
X008252Y024732D01*
X008125Y024605D01*
X008056Y024439D01*
X008056Y024259D01*
X008125Y024094D01*
X008252Y023967D01*
X008133Y024086D02*
X007778Y024086D01*
X007778Y024184D02*
X008088Y024184D01*
X008056Y024283D02*
X007778Y024283D01*
X007778Y024480D02*
X008073Y024480D01*
X008056Y024381D02*
X007377Y024381D01*
X007377Y024283D02*
X007277Y024283D01*
X007277Y024299D02*
X007277Y023898D01*
X007006Y023898D01*
X006967Y023908D01*
X006933Y023928D01*
X006905Y023956D01*
X006886Y023990D01*
X006875Y024028D01*
X006875Y024299D01*
X007277Y024299D01*
X007277Y024381D02*
X003867Y024381D01*
X003867Y024283D02*
X006875Y024283D01*
X006875Y024184D02*
X003867Y024184D01*
X003867Y024086D02*
X006875Y024086D01*
X006887Y023987D02*
X003867Y023987D01*
X003867Y023889D02*
X010254Y023889D01*
X010156Y023987D02*
X008784Y023987D01*
X008902Y023396D02*
X010747Y023396D01*
X010845Y023298D02*
X008942Y023298D01*
X009041Y023199D02*
X010944Y023199D01*
X011042Y023101D02*
X009139Y023101D01*
X009238Y023002D02*
X011141Y023002D01*
X011239Y022904D02*
X009336Y022904D01*
X009435Y022805D02*
X011338Y022805D01*
X011436Y022707D02*
X009533Y022707D01*
X009632Y022608D02*
X011535Y022608D01*
X011633Y022510D02*
X009730Y022510D01*
X009829Y022411D02*
X011732Y022411D01*
X011737Y022313D02*
X009927Y022313D01*
X010026Y022214D02*
X011754Y022214D01*
X011795Y022116D02*
X010124Y022116D01*
X010223Y022017D02*
X011871Y022017D01*
X012004Y021919D02*
X010321Y021919D01*
X010420Y021820D02*
X014973Y021820D01*
X015071Y021919D02*
X012430Y021919D01*
X012563Y022017D02*
X015170Y022017D01*
X015268Y022116D02*
X012639Y022116D01*
X012680Y022214D02*
X015367Y022214D01*
X015465Y022313D02*
X012697Y022313D01*
X012697Y022411D02*
X015564Y022411D01*
X015662Y022510D02*
X012671Y022510D01*
X012630Y022608D02*
X015761Y022608D01*
X015772Y022619D02*
X013603Y020450D01*
X013497Y020450D01*
X013387Y020560D01*
X013047Y020560D01*
X012807Y020320D01*
X012807Y019980D01*
X013047Y019740D01*
X013387Y019740D01*
X013497Y019850D01*
X013787Y019850D01*
X028469Y019850D01*
X028567Y019949D02*
X013950Y019949D01*
X013981Y019980D02*
X015945Y021943D01*
X016122Y021870D01*
X016313Y021870D01*
X016489Y021943D01*
X016624Y022078D01*
X016697Y022255D01*
X016697Y022445D01*
X016624Y022622D01*
X016489Y022757D01*
X016372Y022805D01*
X016372Y022945D01*
X016326Y023055D01*
X016242Y023139D01*
X015917Y023464D01*
X015917Y023570D01*
X016027Y023680D01*
X016027Y024020D01*
X015787Y024260D01*
X015447Y024260D01*
X015207Y024020D01*
X015207Y023680D01*
X015317Y023570D01*
X015317Y023280D01*
X015363Y023170D01*
X015447Y023086D01*
X015447Y023086D01*
X015772Y022761D01*
X015772Y022619D01*
X015772Y022707D02*
X012539Y022707D01*
X012373Y022805D02*
X015728Y022805D01*
X015629Y022904D02*
X012088Y022904D01*
X011989Y023002D02*
X015531Y023002D01*
X015432Y023101D02*
X011891Y023101D01*
X011792Y023199D02*
X015351Y023199D01*
X015317Y023298D02*
X011694Y023298D01*
X011595Y023396D02*
X015317Y023396D01*
X015317Y023495D02*
X012841Y023495D01*
X012787Y023440D02*
X013027Y023680D01*
X013027Y024020D01*
X012843Y024204D01*
X013900Y025260D01*
X014017Y025377D01*
X014017Y025770D01*
X014227Y025980D01*
X014227Y026320D01*
X013987Y026560D01*
X013647Y026560D01*
X013407Y026320D01*
X013407Y025980D01*
X013617Y025770D01*
X013617Y025543D01*
X012417Y024343D01*
X012417Y024230D01*
X012207Y024020D01*
X012207Y023680D01*
X012447Y023440D01*
X012787Y023440D01*
X012940Y023593D02*
X015294Y023593D01*
X015207Y023692D02*
X013027Y023692D01*
X013027Y023790D02*
X015207Y023790D01*
X015207Y023889D02*
X013027Y023889D01*
X013027Y023987D02*
X015207Y023987D01*
X015273Y024086D02*
X012961Y024086D01*
X012863Y024184D02*
X015371Y024184D01*
X015863Y024184D02*
X042267Y024184D01*
X042267Y024086D02*
X015961Y024086D01*
X016027Y023987D02*
X042267Y023987D01*
X042267Y023889D02*
X016027Y023889D01*
X016027Y023790D02*
X042267Y023790D01*
X042267Y023692D02*
X016027Y023692D01*
X015940Y023593D02*
X042267Y023593D01*
X042267Y023495D02*
X015917Y023495D01*
X015985Y023396D02*
X042267Y023396D01*
X042267Y023298D02*
X016084Y023298D01*
X016182Y023199D02*
X042267Y023199D01*
X042267Y023101D02*
X016281Y023101D01*
X016348Y023002D02*
X042267Y023002D01*
X042267Y022904D02*
X039549Y022904D01*
X039567Y022885D02*
X039480Y022973D01*
X038753Y022973D01*
X038665Y022885D01*
X038665Y022158D01*
X038753Y022070D01*
X039480Y022070D01*
X039567Y022158D01*
X039567Y022885D01*
X039567Y022805D02*
X042267Y022805D01*
X042267Y022707D02*
X040988Y022707D01*
X040954Y022716D02*
X040680Y022716D01*
X040415Y022645D01*
X040178Y022508D01*
X039984Y022314D01*
X039847Y022077D01*
X039777Y021812D01*
X039777Y021538D01*
X039847Y021274D01*
X039984Y021036D01*
X040178Y020843D01*
X040338Y020750D01*
X040178Y020657D01*
X039984Y020464D01*
X039847Y020226D01*
X039777Y019962D01*
X039777Y019688D01*
X039847Y019423D01*
X039984Y019186D01*
X040178Y018992D01*
X040415Y018855D01*
X040680Y018784D01*
X040954Y018784D01*
X041219Y018855D01*
X041456Y018992D01*
X041650Y019186D01*
X041787Y019423D01*
X041858Y019688D01*
X041858Y019962D01*
X041787Y020226D01*
X041650Y020464D01*
X041456Y020657D01*
X041296Y020750D01*
X041456Y020843D01*
X041650Y021036D01*
X041787Y021274D01*
X041858Y021538D01*
X041858Y021812D01*
X041787Y022077D01*
X041650Y022314D01*
X041456Y022508D01*
X041219Y022645D01*
X040954Y022716D01*
X040646Y022707D02*
X039567Y022707D01*
X039567Y022608D02*
X040352Y022608D01*
X040181Y022510D02*
X039567Y022510D01*
X039567Y022411D02*
X040081Y022411D01*
X039984Y022313D02*
X039567Y022313D01*
X039567Y022214D02*
X039927Y022214D01*
X039870Y022116D02*
X039525Y022116D01*
X039831Y022017D02*
X037390Y022017D01*
X037425Y021982D02*
X037309Y022098D01*
X037159Y022160D01*
X036476Y022160D01*
X036325Y022098D01*
X036209Y021982D01*
X036147Y021832D01*
X036147Y021668D01*
X036209Y021518D01*
X036325Y021402D01*
X036476Y021340D01*
X037159Y021340D01*
X037309Y021402D01*
X037425Y021518D01*
X037487Y021668D01*
X037487Y021832D01*
X037425Y021982D01*
X037451Y021919D02*
X039805Y021919D01*
X039779Y021820D02*
X037487Y021820D01*
X037487Y021722D02*
X037678Y021722D01*
X037680Y021723D02*
X037553Y021596D01*
X037484Y021430D01*
X037484Y021251D01*
X037553Y021085D01*
X037680Y020958D01*
X037845Y020889D01*
X038025Y020889D01*
X038191Y020958D01*
X038318Y021085D01*
X038386Y021251D01*
X038386Y021430D01*
X038318Y021596D01*
X038191Y021723D01*
X038025Y021792D01*
X037845Y021792D01*
X037680Y021723D01*
X037580Y021623D02*
X037468Y021623D01*
X037427Y021525D02*
X037523Y021525D01*
X037484Y021426D02*
X037333Y021426D01*
X037484Y021328D02*
X032317Y021328D01*
X032317Y021229D02*
X037493Y021229D01*
X037534Y021131D02*
X032317Y021131D01*
X032317Y021032D02*
X037606Y021032D01*
X037739Y020934D02*
X032317Y020934D01*
X032317Y020835D02*
X040191Y020835D01*
X040087Y020934D02*
X039313Y020934D01*
X039372Y020958D02*
X039499Y021085D01*
X039567Y021251D01*
X039567Y021430D01*
X039499Y021596D01*
X039372Y021723D01*
X039206Y021792D01*
X039027Y021792D01*
X038861Y021723D01*
X038734Y021596D01*
X038665Y021430D01*
X038665Y021251D01*
X038734Y021085D01*
X038861Y020958D01*
X039027Y020889D01*
X039206Y020889D01*
X039372Y020958D01*
X039446Y021032D02*
X039989Y021032D01*
X039930Y021131D02*
X039518Y021131D01*
X039558Y021229D02*
X039873Y021229D01*
X039833Y021328D02*
X039567Y021328D01*
X039567Y021426D02*
X039807Y021426D01*
X039780Y021525D02*
X039528Y021525D01*
X039472Y021623D02*
X039777Y021623D01*
X039777Y021722D02*
X039373Y021722D01*
X038859Y021722D02*
X038192Y021722D01*
X038291Y021623D02*
X038761Y021623D01*
X038704Y021525D02*
X038347Y021525D01*
X038386Y021426D02*
X038665Y021426D01*
X038665Y021328D02*
X038386Y021328D01*
X038377Y021229D02*
X038674Y021229D01*
X038715Y021131D02*
X038337Y021131D01*
X038265Y021032D02*
X038787Y021032D01*
X038920Y020934D02*
X038132Y020934D01*
X038025Y020611D02*
X037845Y020611D01*
X037680Y020542D01*
X037553Y020415D01*
X037484Y020249D01*
X037484Y020070D01*
X037553Y019904D01*
X037680Y019777D01*
X037845Y019708D01*
X038025Y019708D01*
X038191Y019777D01*
X038318Y019904D01*
X038386Y020070D01*
X038386Y020249D01*
X038318Y020415D01*
X038191Y020542D01*
X038025Y020611D01*
X038193Y020540D02*
X038858Y020540D01*
X038861Y020542D02*
X038734Y020415D01*
X038665Y020249D01*
X038665Y020070D01*
X038734Y019904D01*
X038861Y019777D01*
X039027Y019708D01*
X039206Y019708D01*
X039372Y019777D01*
X039499Y019904D01*
X039567Y020070D01*
X039567Y020249D01*
X039499Y020415D01*
X039372Y020542D01*
X039206Y020611D01*
X039027Y020611D01*
X038861Y020542D01*
X038760Y020441D02*
X038292Y020441D01*
X038348Y020343D02*
X038704Y020343D01*
X038665Y020244D02*
X038386Y020244D01*
X038386Y020146D02*
X038665Y020146D01*
X038674Y020047D02*
X038377Y020047D01*
X038336Y019949D02*
X038715Y019949D01*
X038788Y019850D02*
X038264Y019850D01*
X038129Y019752D02*
X038922Y019752D01*
X039027Y019430D02*
X038861Y019361D01*
X038734Y019234D01*
X038665Y019068D01*
X038665Y018889D01*
X038734Y018723D01*
X038861Y018596D01*
X039027Y018527D01*
X039206Y018527D01*
X039372Y018596D01*
X039499Y018723D01*
X039567Y018889D01*
X039567Y019068D01*
X039499Y019234D01*
X039372Y019361D01*
X039206Y019430D01*
X039027Y019430D01*
X038857Y019358D02*
X038194Y019358D01*
X038191Y019361D02*
X038025Y019430D01*
X037845Y019430D01*
X037680Y019361D01*
X037553Y019234D01*
X037484Y019068D01*
X037484Y018889D01*
X037553Y018723D01*
X037680Y018596D01*
X037845Y018527D01*
X038025Y018527D01*
X038191Y018596D01*
X038318Y018723D01*
X038386Y018889D01*
X038386Y019068D01*
X038318Y019234D01*
X038191Y019361D01*
X038293Y019259D02*
X038759Y019259D01*
X038703Y019161D02*
X038348Y019161D01*
X038386Y019062D02*
X038665Y019062D01*
X038665Y018964D02*
X038386Y018964D01*
X038377Y018865D02*
X038675Y018865D01*
X038716Y018767D02*
X038336Y018767D01*
X038263Y018668D02*
X038789Y018668D01*
X038924Y018570D02*
X038127Y018570D01*
X037743Y018570D02*
X032317Y018570D01*
X032317Y018668D02*
X037607Y018668D01*
X037535Y018767D02*
X032317Y018767D01*
X032317Y018865D02*
X037494Y018865D01*
X037484Y018964D02*
X032317Y018964D01*
X032317Y019062D02*
X037484Y019062D01*
X037522Y019161D02*
X032317Y019161D01*
X032317Y019259D02*
X037578Y019259D01*
X037676Y019358D02*
X032317Y019358D01*
X032317Y019456D02*
X039839Y019456D01*
X039812Y019555D02*
X032317Y019555D01*
X032317Y019653D02*
X039786Y019653D01*
X039777Y019752D02*
X039311Y019752D01*
X039445Y019850D02*
X039777Y019850D01*
X039777Y019949D02*
X039517Y019949D01*
X039558Y020047D02*
X039799Y020047D01*
X039826Y020146D02*
X039567Y020146D01*
X039567Y020244D02*
X039858Y020244D01*
X039914Y020343D02*
X039529Y020343D01*
X039473Y020441D02*
X039971Y020441D01*
X040060Y020540D02*
X039374Y020540D01*
X040159Y020638D02*
X032317Y020638D01*
X032317Y020540D02*
X037677Y020540D01*
X037579Y020441D02*
X032317Y020441D01*
X032317Y020343D02*
X037523Y020343D01*
X037484Y020244D02*
X032317Y020244D01*
X032317Y020146D02*
X037484Y020146D01*
X037493Y020047D02*
X032317Y020047D01*
X032317Y019949D02*
X037534Y019949D01*
X037607Y019850D02*
X032317Y019850D01*
X032317Y019752D02*
X037741Y019752D01*
X039375Y019358D02*
X039885Y019358D01*
X039942Y019259D02*
X039474Y019259D01*
X039529Y019161D02*
X040010Y019161D01*
X040108Y019062D02*
X039567Y019062D01*
X039567Y018964D02*
X040228Y018964D01*
X040398Y018865D02*
X039558Y018865D01*
X039517Y018767D02*
X042267Y018767D01*
X042267Y018865D02*
X041236Y018865D01*
X041406Y018964D02*
X042267Y018964D01*
X042267Y019062D02*
X041526Y019062D01*
X041624Y019161D02*
X042267Y019161D01*
X042267Y019259D02*
X041692Y019259D01*
X041749Y019358D02*
X042267Y019358D01*
X042267Y019456D02*
X041796Y019456D01*
X041822Y019555D02*
X042267Y019555D01*
X042267Y019653D02*
X041848Y019653D01*
X041858Y019752D02*
X042267Y019752D01*
X042267Y019850D02*
X041858Y019850D01*
X041858Y019949D02*
X042267Y019949D01*
X042267Y020047D02*
X041835Y020047D01*
X041808Y020146D02*
X042267Y020146D01*
X042267Y020244D02*
X041777Y020244D01*
X041720Y020343D02*
X042267Y020343D01*
X042267Y020441D02*
X041663Y020441D01*
X041574Y020540D02*
X042267Y020540D01*
X042267Y020638D02*
X041475Y020638D01*
X041319Y020737D02*
X042267Y020737D01*
X042267Y020835D02*
X041443Y020835D01*
X041547Y020934D02*
X042267Y020934D01*
X042267Y021032D02*
X041645Y021032D01*
X041704Y021131D02*
X042267Y021131D01*
X042267Y021229D02*
X041761Y021229D01*
X041801Y021328D02*
X042267Y021328D01*
X042267Y021426D02*
X041828Y021426D01*
X041854Y021525D02*
X042267Y021525D01*
X042267Y021623D02*
X041858Y021623D01*
X041858Y021722D02*
X042267Y021722D01*
X042267Y021820D02*
X041856Y021820D01*
X041829Y021919D02*
X042267Y021919D01*
X042267Y022017D02*
X041803Y022017D01*
X041764Y022116D02*
X042267Y022116D01*
X042267Y022214D02*
X041707Y022214D01*
X041651Y022313D02*
X042267Y022313D01*
X042267Y022411D02*
X041553Y022411D01*
X041453Y022510D02*
X042267Y022510D01*
X042267Y022608D02*
X041282Y022608D01*
X042267Y024283D02*
X012922Y024283D01*
X013021Y024381D02*
X042267Y024381D01*
X042267Y024480D02*
X013119Y024480D01*
X013218Y024578D02*
X042267Y024578D01*
X042267Y024677D02*
X013316Y024677D01*
X013415Y024775D02*
X042267Y024775D01*
X042267Y024874D02*
X013513Y024874D01*
X013612Y024972D02*
X042267Y024972D01*
X042267Y025071D02*
X013710Y025071D01*
X013809Y025169D02*
X042267Y025169D01*
X042267Y025268D02*
X013907Y025268D01*
X014006Y025366D02*
X042267Y025366D01*
X042267Y025465D02*
X014017Y025465D01*
X014017Y025563D02*
X041067Y025563D01*
X040896Y025662D02*
X014017Y025662D01*
X014017Y025760D02*
X040780Y025760D01*
X040681Y025859D02*
X014105Y025859D01*
X014204Y025957D02*
X040612Y025957D01*
X040556Y026056D02*
X014227Y026056D01*
X014227Y026154D02*
X040505Y026154D01*
X040479Y026253D02*
X014227Y026253D01*
X014196Y026351D02*
X040452Y026351D01*
X040437Y026450D02*
X014097Y026450D01*
X013999Y026548D02*
X040437Y026548D01*
X040437Y026647D02*
X008774Y026647D01*
X008750Y026689D02*
X008556Y026883D01*
X008319Y027020D01*
X008054Y027091D01*
X007780Y027091D01*
X007515Y027020D01*
X007278Y026883D01*
X007084Y026689D01*
X006947Y026452D01*
X006877Y026187D01*
X006877Y025913D01*
X006947Y025648D01*
X007084Y025411D01*
X007278Y025217D01*
X007515Y025080D01*
X007780Y025009D01*
X008054Y025009D01*
X008319Y025080D01*
X008556Y025217D01*
X008750Y025411D01*
X008887Y025648D01*
X008958Y025913D01*
X008958Y026187D01*
X008887Y026452D01*
X008750Y026689D01*
X008694Y026745D02*
X040451Y026745D01*
X040478Y026844D02*
X008595Y026844D01*
X008453Y026942D02*
X040504Y026942D01*
X040553Y027041D02*
X008241Y027041D01*
X007594Y027041D02*
X005581Y027041D01*
X005630Y026942D02*
X007381Y026942D01*
X007239Y026844D02*
X005656Y026844D01*
X005683Y026745D02*
X007141Y026745D01*
X007060Y026647D02*
X005697Y026647D01*
X005697Y026548D02*
X007003Y026548D01*
X006947Y026450D02*
X005697Y026450D01*
X005682Y026351D02*
X006920Y026351D01*
X006894Y026253D02*
X005655Y026253D01*
X005629Y026154D02*
X006877Y026154D01*
X006877Y026056D02*
X005579Y026056D01*
X005522Y025957D02*
X006877Y025957D01*
X006891Y025859D02*
X005453Y025859D01*
X005354Y025760D02*
X006917Y025760D01*
X006944Y025662D02*
X005238Y025662D01*
X005067Y025563D02*
X006997Y025563D01*
X007054Y025465D02*
X003867Y025465D01*
X003867Y025563D02*
X004167Y025563D01*
X003996Y025662D02*
X003867Y025662D01*
X003867Y025760D02*
X003880Y025760D01*
X003867Y025366D02*
X007129Y025366D01*
X007228Y025268D02*
X003867Y025268D01*
X003867Y025169D02*
X007362Y025169D01*
X007552Y025071D02*
X003867Y025071D01*
X003867Y024972D02*
X013046Y024972D01*
X012948Y024874D02*
X003867Y024874D01*
X003867Y024775D02*
X006941Y024775D01*
X006877Y024677D02*
X003867Y024677D01*
X003867Y024578D02*
X006875Y024578D01*
X006875Y024480D02*
X003867Y024480D01*
X003867Y023790D02*
X010353Y023790D01*
X010451Y023692D02*
X003867Y023692D01*
X007277Y023987D02*
X007377Y023987D01*
X007377Y024086D02*
X007277Y024086D01*
X007277Y024184D02*
X007377Y024184D01*
X007377Y024480D02*
X007277Y024480D01*
X007277Y024578D02*
X007377Y024578D01*
X007377Y024677D02*
X007277Y024677D01*
X007277Y024775D02*
X007377Y024775D01*
X007712Y024775D02*
X008357Y024775D01*
X008197Y024677D02*
X007776Y024677D01*
X007778Y024578D02*
X008114Y024578D01*
X008659Y024775D02*
X012849Y024775D01*
X012751Y024677D02*
X008818Y024677D01*
X008472Y025169D02*
X013243Y025169D01*
X013145Y025071D02*
X008282Y025071D01*
X008606Y025268D02*
X013342Y025268D01*
X013440Y025366D02*
X008705Y025366D01*
X008781Y025465D02*
X013539Y025465D01*
X013617Y025563D02*
X008837Y025563D01*
X008890Y025662D02*
X013617Y025662D01*
X013617Y025760D02*
X013007Y025760D01*
X012987Y025740D02*
X013227Y025980D01*
X013227Y026120D01*
X012847Y026120D01*
X012847Y025740D01*
X012987Y025740D01*
X012847Y025760D02*
X012787Y025760D01*
X012787Y025740D02*
X012787Y026120D01*
X012407Y026120D01*
X012407Y025980D01*
X012647Y025740D01*
X012787Y025740D01*
X012787Y025859D02*
X012847Y025859D01*
X012847Y025957D02*
X012787Y025957D01*
X012787Y026056D02*
X012847Y026056D01*
X012847Y026120D02*
X012787Y026120D01*
X012787Y026180D01*
X012407Y026180D01*
X012407Y026320D01*
X012647Y026560D01*
X012787Y026560D01*
X012787Y026180D01*
X012847Y026180D01*
X012847Y026560D01*
X012987Y026560D01*
X013227Y026320D01*
X013227Y026180D01*
X012847Y026180D01*
X012847Y026120D01*
X012847Y026154D02*
X013407Y026154D01*
X013407Y026056D02*
X013227Y026056D01*
X013204Y025957D02*
X013430Y025957D01*
X013529Y025859D02*
X013105Y025859D01*
X013227Y026253D02*
X013407Y026253D01*
X013438Y026351D02*
X013196Y026351D01*
X013097Y026450D02*
X013537Y026450D01*
X013635Y026548D02*
X012999Y026548D01*
X012847Y026548D02*
X012787Y026548D01*
X012787Y026450D02*
X012847Y026450D01*
X012847Y026351D02*
X012787Y026351D01*
X012787Y026253D02*
X012847Y026253D01*
X012787Y026154D02*
X008958Y026154D01*
X008958Y026056D02*
X012407Y026056D01*
X012430Y025957D02*
X008958Y025957D01*
X008943Y025859D02*
X012529Y025859D01*
X012627Y025760D02*
X008917Y025760D01*
X008940Y026253D02*
X012407Y026253D01*
X012438Y026351D02*
X008914Y026351D01*
X008887Y026450D02*
X012537Y026450D01*
X012635Y026548D02*
X008831Y026548D01*
X010413Y024578D02*
X012652Y024578D01*
X012554Y024480D02*
X010512Y024480D01*
X010610Y024381D02*
X012455Y024381D01*
X012417Y024283D02*
X010709Y024283D01*
X010807Y024184D02*
X012371Y024184D01*
X012273Y024086D02*
X010906Y024086D01*
X011004Y023987D02*
X012207Y023987D01*
X012207Y023889D02*
X011103Y023889D01*
X011201Y023790D02*
X012207Y023790D01*
X012207Y023692D02*
X011300Y023692D01*
X011398Y023593D02*
X012294Y023593D01*
X012393Y023495D02*
X011497Y023495D01*
X012617Y023850D02*
X012617Y024260D01*
X013817Y025460D01*
X013817Y026150D01*
X016372Y022904D02*
X037679Y022904D01*
X037680Y022904D02*
X037553Y022777D01*
X037484Y022611D01*
X037484Y022432D01*
X037553Y022266D01*
X037680Y022139D01*
X037845Y022070D01*
X038025Y022070D01*
X038191Y022139D01*
X038318Y022266D01*
X038386Y022432D01*
X038386Y022611D01*
X038318Y022777D01*
X038191Y022904D01*
X038025Y022973D01*
X037845Y022973D01*
X037680Y022904D01*
X037581Y022805D02*
X016373Y022805D01*
X016539Y022707D02*
X037523Y022707D01*
X037484Y022608D02*
X016630Y022608D01*
X016671Y022510D02*
X037484Y022510D01*
X037493Y022411D02*
X016697Y022411D01*
X016697Y022313D02*
X031449Y022313D01*
X031351Y022214D02*
X016680Y022214D01*
X016639Y022116D02*
X028568Y022116D01*
X028444Y022017D02*
X016563Y022017D01*
X016430Y021919D02*
X028383Y021919D01*
X028347Y021820D02*
X015821Y021820D01*
X015723Y021722D02*
X028347Y021722D01*
X028366Y021623D02*
X015624Y021623D01*
X015526Y021525D02*
X028407Y021525D01*
X028501Y021426D02*
X015427Y021426D01*
X015329Y021328D02*
X028817Y021328D01*
X028817Y021229D02*
X015230Y021229D01*
X015132Y021131D02*
X028817Y021131D01*
X028817Y021032D02*
X015033Y021032D01*
X014935Y020934D02*
X028817Y020934D01*
X028817Y020835D02*
X014836Y020835D01*
X014738Y020737D02*
X028817Y020737D01*
X028817Y020638D02*
X014639Y020638D01*
X014541Y020540D02*
X028817Y020540D01*
X028817Y020441D02*
X014442Y020441D01*
X014344Y020343D02*
X028817Y020343D01*
X028817Y020244D02*
X014245Y020244D01*
X014147Y020146D02*
X028764Y020146D01*
X028666Y020047D02*
X014048Y020047D01*
X013981Y019980D02*
X013981Y019980D01*
X013897Y019896D01*
X013787Y019850D01*
X013398Y019752D02*
X028370Y019752D01*
X029017Y020116D02*
X027917Y019016D01*
X028272Y018570D02*
X031717Y018570D01*
X031717Y018668D02*
X028370Y018668D01*
X028469Y018767D02*
X031717Y018767D01*
X031717Y018865D02*
X028567Y018865D01*
X028666Y018964D02*
X031717Y018964D01*
X031717Y019062D02*
X028764Y019062D01*
X028863Y019161D02*
X031717Y019161D01*
X031717Y019259D02*
X028961Y019259D01*
X029060Y019358D02*
X031717Y019358D01*
X031717Y019456D02*
X029158Y019456D01*
X029257Y019555D02*
X031717Y019555D01*
X031717Y019653D02*
X029355Y019653D01*
X029454Y019752D02*
X031717Y019752D01*
X031717Y019850D02*
X029552Y019850D01*
X029651Y019949D02*
X031717Y019949D01*
X031717Y020047D02*
X029749Y020047D01*
X029848Y020146D02*
X031717Y020146D01*
X031717Y020244D02*
X029946Y020244D01*
X030045Y020343D02*
X031717Y020343D01*
X031717Y020441D02*
X030143Y020441D01*
X030242Y020540D02*
X031717Y020540D01*
X031717Y020638D02*
X030340Y020638D01*
X030439Y020737D02*
X031717Y020737D01*
X031717Y020835D02*
X030537Y020835D01*
X030636Y020934D02*
X031717Y020934D01*
X031717Y021032D02*
X030734Y021032D01*
X030833Y021131D02*
X031717Y021131D01*
X031717Y021229D02*
X030931Y021229D01*
X031030Y021328D02*
X031717Y021328D01*
X031501Y021426D02*
X031128Y021426D01*
X031227Y021525D02*
X031407Y021525D01*
X031366Y021623D02*
X031325Y021623D01*
X031055Y021919D02*
X029651Y021919D01*
X029687Y021820D02*
X030957Y021820D01*
X030858Y021722D02*
X029687Y021722D01*
X029668Y021623D02*
X030760Y021623D01*
X030661Y021525D02*
X029627Y021525D01*
X029533Y021426D02*
X030563Y021426D01*
X030464Y021328D02*
X029217Y021328D01*
X029217Y021229D02*
X030366Y021229D01*
X030267Y021131D02*
X029217Y021131D01*
X029217Y021032D02*
X030169Y021032D01*
X030070Y020934D02*
X029217Y020934D01*
X029217Y020835D02*
X029972Y020835D01*
X029873Y020737D02*
X029217Y020737D01*
X029217Y020638D02*
X029775Y020638D01*
X029676Y020540D02*
X029217Y020540D01*
X029217Y020441D02*
X029578Y020441D01*
X029479Y020343D02*
X029217Y020343D01*
X029217Y020244D02*
X029381Y020244D01*
X029282Y020146D02*
X029217Y020146D01*
X029017Y020116D02*
X029017Y021750D01*
X029466Y022116D02*
X031252Y022116D01*
X031154Y022017D02*
X029590Y022017D01*
X031580Y022160D02*
X033817Y022160D01*
X033817Y021750D01*
X034266Y022116D02*
X036368Y022116D01*
X036244Y022017D02*
X034390Y022017D01*
X034451Y021919D02*
X036183Y021919D01*
X036147Y021820D02*
X034487Y021820D01*
X034487Y021722D02*
X036147Y021722D01*
X036166Y021623D02*
X034468Y021623D01*
X034427Y021525D02*
X036207Y021525D01*
X036301Y021426D02*
X034333Y021426D01*
X034017Y022214D02*
X037605Y022214D01*
X037533Y022313D02*
X033947Y022313D01*
X033183Y021919D02*
X032651Y021919D01*
X032687Y021820D02*
X033147Y021820D01*
X033147Y021722D02*
X032687Y021722D01*
X032668Y021623D02*
X033166Y021623D01*
X033207Y021525D02*
X032627Y021525D01*
X032533Y021426D02*
X033301Y021426D01*
X032317Y020737D02*
X040315Y020737D01*
X038708Y022116D02*
X038134Y022116D01*
X038266Y022214D02*
X038665Y022214D01*
X038665Y022313D02*
X038337Y022313D01*
X038378Y022411D02*
X038665Y022411D01*
X038665Y022510D02*
X038386Y022510D01*
X038386Y022608D02*
X038665Y022608D01*
X038665Y022707D02*
X038347Y022707D01*
X038290Y022805D02*
X038665Y022805D01*
X038684Y022904D02*
X038191Y022904D01*
X037737Y022116D02*
X037266Y022116D01*
X039444Y018668D02*
X042267Y018668D01*
X042267Y018570D02*
X039308Y018570D01*
X042267Y018471D02*
X032317Y018471D01*
X032317Y018373D02*
X042267Y018373D01*
X042267Y018274D02*
X032317Y018274D01*
X032317Y018176D02*
X042267Y018176D01*
X042267Y018077D02*
X032317Y018077D01*
X032317Y017979D02*
X042267Y017979D01*
X042267Y017880D02*
X032317Y017880D01*
X032317Y017782D02*
X042267Y017782D01*
X042267Y017683D02*
X032317Y017683D01*
X032317Y017585D02*
X042267Y017585D01*
X042267Y017486D02*
X032317Y017486D01*
X032317Y017388D02*
X042267Y017388D01*
X042267Y017289D02*
X032317Y017289D01*
X032317Y017191D02*
X042267Y017191D01*
X042267Y017092D02*
X032317Y017092D01*
X032317Y016994D02*
X042267Y016994D01*
X042267Y016895D02*
X032317Y016895D01*
X032317Y016797D02*
X042267Y016797D01*
X042267Y016698D02*
X032317Y016698D01*
X032317Y016600D02*
X042267Y016600D01*
X042267Y016501D02*
X032317Y016501D01*
X032317Y016403D02*
X042267Y016403D01*
X042267Y016304D02*
X032317Y016304D01*
X032317Y016206D02*
X042267Y016206D01*
X042267Y016107D02*
X032317Y016107D01*
X032317Y016009D02*
X042267Y016009D01*
X042267Y015910D02*
X032317Y015910D01*
X032317Y015812D02*
X042267Y015812D01*
X042267Y015713D02*
X037272Y015713D01*
X037309Y015698D02*
X037159Y015760D01*
X036476Y015760D01*
X036325Y015698D01*
X036209Y015582D01*
X036147Y015432D01*
X036147Y015268D01*
X036209Y015118D01*
X036325Y015002D01*
X036476Y014940D01*
X037159Y014940D01*
X037309Y015002D01*
X037425Y015118D01*
X037487Y015268D01*
X037487Y015432D01*
X037425Y015582D01*
X037309Y015698D01*
X037392Y015615D02*
X042267Y015615D01*
X042267Y015516D02*
X037452Y015516D01*
X037487Y015418D02*
X040185Y015418D01*
X040237Y015439D02*
X039906Y015302D01*
X039652Y015048D01*
X039514Y014716D01*
X039514Y014357D01*
X039652Y014025D01*
X039906Y013771D01*
X040237Y013634D01*
X040597Y013634D01*
X040928Y013771D01*
X041182Y014025D01*
X041320Y014357D01*
X041320Y014716D01*
X041182Y015048D01*
X040928Y015302D01*
X040597Y015439D01*
X040237Y015439D01*
X039947Y015319D02*
X037487Y015319D01*
X037467Y015221D02*
X039824Y015221D01*
X039726Y015122D02*
X037426Y015122D01*
X037330Y015024D02*
X039642Y015024D01*
X039601Y014925D02*
X034017Y014925D01*
X033986Y014827D02*
X039560Y014827D01*
X039519Y014728D02*
X027995Y014728D01*
X027995Y014630D02*
X039514Y014630D01*
X039514Y014531D02*
X027995Y014531D01*
X027995Y014433D02*
X039514Y014433D01*
X039524Y014334D02*
X027995Y014334D01*
X027995Y014236D02*
X039565Y014236D01*
X039605Y014137D02*
X027995Y014137D01*
X027995Y014039D02*
X039646Y014039D01*
X039737Y013940D02*
X027995Y013940D01*
X027995Y013842D02*
X039835Y013842D01*
X039774Y013743D02*
X039974Y013743D01*
X039939Y013645D02*
X040212Y013645D01*
X040016Y013546D02*
X042267Y013546D01*
X042267Y013448D02*
X040058Y013448D01*
X040067Y013251D02*
X042267Y013251D01*
X042267Y013349D02*
X039394Y013349D01*
X039394Y013251D02*
X039307Y013251D01*
X039307Y013152D02*
X039394Y013152D01*
X039394Y013054D02*
X039307Y013054D01*
X039307Y012955D02*
X039394Y012955D01*
X039978Y013054D02*
X042267Y013054D01*
X042267Y013152D02*
X040038Y013152D01*
X040622Y013645D02*
X042267Y013645D01*
X042267Y013743D02*
X040860Y013743D01*
X040999Y013842D02*
X042267Y013842D01*
X042267Y013940D02*
X041097Y013940D01*
X041188Y014039D02*
X042267Y014039D01*
X042267Y014137D02*
X041229Y014137D01*
X041269Y014236D02*
X042267Y014236D01*
X042267Y014334D02*
X041310Y014334D01*
X041320Y014433D02*
X042267Y014433D01*
X042267Y014531D02*
X041320Y014531D01*
X041320Y014630D02*
X042267Y014630D01*
X042267Y014728D02*
X041315Y014728D01*
X041274Y014827D02*
X042267Y014827D01*
X042267Y014925D02*
X041233Y014925D01*
X041193Y015024D02*
X042267Y015024D01*
X042267Y015122D02*
X041108Y015122D01*
X041010Y015221D02*
X042267Y015221D01*
X042267Y015319D02*
X040887Y015319D01*
X040649Y015418D02*
X042267Y015418D01*
X038761Y012660D02*
X028127Y012660D01*
X028078Y012561D02*
X038680Y012561D01*
X040763Y010197D02*
X042267Y010197D01*
X042267Y010099D02*
X040959Y010099D01*
X041057Y010000D02*
X042267Y010000D01*
X042267Y009902D02*
X041156Y009902D01*
X041212Y009803D02*
X042267Y009803D01*
X042267Y009705D02*
X041253Y009705D01*
X041294Y009606D02*
X042267Y009606D01*
X042267Y009508D02*
X041320Y009508D01*
X041320Y009409D02*
X042267Y009409D01*
X042267Y009311D02*
X041320Y009311D01*
X041320Y009212D02*
X042267Y009212D01*
X042267Y009114D02*
X041291Y009114D01*
X041250Y009015D02*
X042267Y009015D01*
X042267Y008917D02*
X041209Y008917D01*
X041148Y008818D02*
X042267Y008818D01*
X042267Y008720D02*
X041050Y008720D01*
X040951Y008621D02*
X042267Y008621D01*
X042267Y008523D02*
X040746Y008523D01*
X042267Y006257D02*
X037967Y006257D01*
X037956Y006159D02*
X042267Y006159D01*
X042267Y006060D02*
X037915Y006060D01*
X037830Y005962D02*
X042267Y005962D01*
X041919Y005272D02*
X041862Y005272D01*
X041862Y005174D02*
X041919Y005174D01*
X041919Y005075D02*
X041862Y005075D01*
X042241Y004484D02*
X042267Y004484D01*
X042267Y004386D02*
X042160Y004386D01*
X042267Y004287D02*
X041935Y004287D01*
X041919Y004287D02*
X041862Y004287D01*
X041846Y004287D02*
X039775Y004287D01*
X039709Y004314D02*
X039859Y004252D01*
X039974Y004138D01*
X040036Y003988D01*
X040036Y003826D01*
X039974Y003676D01*
X039859Y003561D01*
X039709Y003499D01*
X039032Y003499D01*
X038882Y003561D01*
X038768Y003676D01*
X038706Y003826D01*
X038706Y003988D01*
X038768Y004138D01*
X038882Y004252D01*
X039032Y004314D01*
X039709Y004314D01*
X039923Y004189D02*
X042267Y004189D01*
X042267Y004090D02*
X039993Y004090D01*
X040034Y003992D02*
X042267Y003992D01*
X042267Y003893D02*
X040036Y003893D01*
X040023Y003795D02*
X042267Y003795D01*
X042267Y003696D02*
X039982Y003696D01*
X039895Y003598D02*
X042267Y003598D01*
X042267Y003499D02*
X034246Y003499D01*
X034327Y003580D02*
X034087Y003340D01*
X033747Y003340D01*
X033507Y003580D01*
X033507Y003920D01*
X033747Y004160D01*
X034087Y004160D01*
X034327Y003920D01*
X034327Y003580D01*
X034327Y003598D02*
X038846Y003598D01*
X038759Y003696D02*
X034327Y003696D01*
X034327Y003795D02*
X038719Y003795D01*
X038706Y003893D02*
X034327Y003893D01*
X034255Y003992D02*
X038707Y003992D01*
X038748Y004090D02*
X034157Y004090D01*
X033677Y004090D02*
X032750Y004090D01*
X032652Y003992D02*
X033579Y003992D01*
X033507Y003893D02*
X032553Y003893D01*
X032455Y003795D02*
X033507Y003795D01*
X033507Y003696D02*
X032356Y003696D01*
X032258Y003598D02*
X033507Y003598D01*
X033588Y003499D02*
X032212Y003499D01*
X032206Y003401D02*
X033687Y003401D01*
X033747Y003160D02*
X033537Y002950D01*
X033424Y002950D01*
X033307Y002833D01*
X033307Y002718D01*
X033283Y002694D01*
X033146Y002694D01*
X033018Y002640D01*
X032919Y002542D01*
X032866Y002413D01*
X032866Y002274D01*
X032919Y002146D01*
X033018Y002047D01*
X033146Y001994D01*
X033286Y001994D01*
X033414Y002047D01*
X033513Y002146D01*
X033566Y002274D01*
X033566Y002411D01*
X033621Y002466D01*
X033747Y002340D01*
X034087Y002340D01*
X034327Y002580D01*
X034327Y002920D01*
X034087Y003160D01*
X033747Y003160D01*
X033692Y003105D02*
X031765Y003105D01*
X031667Y003007D02*
X033594Y003007D01*
X033382Y002908D02*
X031568Y002908D01*
X031470Y002810D02*
X033307Y002810D01*
X033300Y002711D02*
X031371Y002711D01*
X031273Y002613D02*
X032990Y002613D01*
X032908Y002514D02*
X031174Y002514D01*
X031076Y002416D02*
X032867Y002416D01*
X032866Y002317D02*
X030977Y002317D01*
X030879Y002219D02*
X032889Y002219D01*
X032945Y002120D02*
X030780Y002120D01*
X030682Y002022D02*
X033080Y002022D01*
X033353Y002022D02*
X040661Y002022D01*
X040601Y001923D02*
X030583Y001923D01*
X030485Y001825D02*
X040544Y001825D01*
X040500Y001726D02*
X030386Y001726D01*
X030288Y001628D02*
X040473Y001628D01*
X040447Y001529D02*
X030189Y001529D01*
X030091Y001431D02*
X040437Y001431D01*
X040437Y001332D02*
X029992Y001332D01*
X029894Y001234D02*
X040437Y001234D01*
X040457Y001135D02*
X029795Y001135D01*
X029697Y001037D02*
X040483Y001037D01*
X040509Y000938D02*
X029598Y000938D01*
X029500Y000840D02*
X040565Y000840D01*
X040622Y000741D02*
X029401Y000741D01*
X029303Y000643D02*
X040697Y000643D01*
X040760Y002120D02*
X033487Y002120D01*
X033543Y002219D02*
X040862Y002219D01*
X041032Y002317D02*
X033566Y002317D01*
X033571Y002416D02*
X033672Y002416D01*
X033507Y002635D02*
X033216Y002344D01*
X033507Y002635D02*
X033507Y002750D01*
X033917Y002750D01*
X034327Y002711D02*
X038236Y002711D01*
X038216Y002731D02*
X038331Y002616D01*
X038481Y002554D01*
X039158Y002554D01*
X039308Y002616D01*
X039422Y002731D01*
X039484Y002881D01*
X039484Y003043D01*
X039422Y003193D01*
X039308Y003307D01*
X039158Y003369D01*
X038481Y003369D01*
X038331Y003307D01*
X038216Y003193D01*
X038154Y003043D01*
X038154Y002881D01*
X038216Y002731D01*
X038184Y002810D02*
X034327Y002810D01*
X034327Y002908D02*
X038154Y002908D01*
X038154Y003007D02*
X034240Y003007D01*
X034142Y003105D02*
X038180Y003105D01*
X038227Y003204D02*
X032076Y003204D01*
X032165Y003302D02*
X038326Y003302D01*
X038340Y002613D02*
X034327Y002613D01*
X034261Y002514D02*
X042267Y002514D01*
X042267Y002416D02*
X041713Y002416D01*
X042002Y002317D02*
X042267Y002317D01*
X042267Y002219D02*
X042173Y002219D01*
X042267Y002613D02*
X039298Y002613D01*
X039402Y002711D02*
X042267Y002711D01*
X042267Y002810D02*
X039455Y002810D01*
X039484Y002908D02*
X042267Y002908D01*
X042267Y003007D02*
X039484Y003007D01*
X039459Y003105D02*
X042267Y003105D01*
X042267Y003204D02*
X039411Y003204D01*
X039313Y003302D02*
X042267Y003302D01*
X042267Y003401D02*
X034147Y003401D01*
X032947Y004287D02*
X038966Y004287D01*
X038819Y004189D02*
X032849Y004189D01*
X032480Y004386D02*
X032354Y004386D01*
X032373Y004484D02*
X032579Y004484D01*
X032677Y004583D02*
X032369Y004583D01*
X032328Y004681D02*
X032776Y004681D01*
X032874Y004780D02*
X032241Y004780D01*
X032223Y004878D02*
X032973Y004878D01*
X032382Y004287D02*
X032303Y004287D01*
X032283Y004189D02*
X032181Y004189D01*
X032185Y004090D02*
X027240Y004090D01*
X027240Y003992D02*
X032086Y003992D01*
X031988Y003893D02*
X027240Y003893D01*
X027240Y003795D02*
X031696Y003795D01*
X031578Y003696D02*
X027240Y003696D01*
X027240Y003598D02*
X031530Y003598D01*
X031512Y003499D02*
X027240Y003499D01*
X027240Y003401D02*
X031495Y003401D01*
X031397Y003302D02*
X027240Y003302D01*
X027240Y003204D02*
X031298Y003204D01*
X031200Y003105D02*
X027240Y003105D01*
X027240Y003007D02*
X031101Y003007D01*
X031003Y002908D02*
X027240Y002908D01*
X027240Y002810D02*
X030904Y002810D01*
X030806Y002711D02*
X027240Y002711D01*
X027240Y002613D02*
X030707Y002613D01*
X030609Y002514D02*
X027240Y002514D01*
X027240Y002416D02*
X030510Y002416D01*
X030412Y002317D02*
X027240Y002317D01*
X027240Y002219D02*
X030313Y002219D01*
X030215Y002120D02*
X027240Y002120D01*
X027240Y002022D02*
X030116Y002022D01*
X030018Y001923D02*
X027240Y001923D01*
X027240Y001825D02*
X029919Y001825D01*
X029821Y001726D02*
X027240Y001726D01*
X027240Y001628D02*
X029722Y001628D01*
X029624Y001529D02*
X027240Y001529D01*
X027187Y001310D02*
X027040Y001310D01*
X027040Y011016D01*
X025652Y012404D01*
X026198Y012850D02*
X026474Y012850D01*
X032023Y007301D01*
X032023Y004502D01*
X031673Y004484D02*
X027240Y004484D01*
X027240Y004386D02*
X031693Y004386D01*
X031743Y004287D02*
X027240Y004287D01*
X027240Y004189D02*
X031865Y004189D01*
X031678Y004583D02*
X027240Y004583D01*
X027240Y004681D02*
X031719Y004681D01*
X031806Y004780D02*
X027240Y004780D01*
X027240Y004878D02*
X031823Y004878D01*
X031823Y004977D02*
X027240Y004977D01*
X027240Y005075D02*
X031823Y005075D01*
X031823Y005174D02*
X027240Y005174D01*
X027240Y005272D02*
X031823Y005272D01*
X031823Y005371D02*
X027240Y005371D01*
X027240Y005469D02*
X031823Y005469D01*
X031823Y005568D02*
X027240Y005568D01*
X027240Y005666D02*
X031823Y005666D01*
X031823Y005765D02*
X027240Y005765D01*
X027240Y005863D02*
X031823Y005863D01*
X031823Y005962D02*
X027240Y005962D01*
X027240Y006060D02*
X031823Y006060D01*
X031823Y006159D02*
X027240Y006159D01*
X027240Y006257D02*
X031823Y006257D01*
X031823Y006356D02*
X027240Y006356D01*
X027240Y006454D02*
X031823Y006454D01*
X031823Y006553D02*
X027240Y006553D01*
X027240Y006651D02*
X031823Y006651D01*
X031823Y006750D02*
X027240Y006750D01*
X027240Y006848D02*
X031823Y006848D01*
X031823Y006947D02*
X027240Y006947D01*
X027240Y007045D02*
X031823Y007045D01*
X031823Y007144D02*
X027240Y007144D01*
X027240Y007242D02*
X031800Y007242D01*
X031701Y007341D02*
X027240Y007341D01*
X027240Y007439D02*
X031603Y007439D01*
X031504Y007538D02*
X027240Y007538D01*
X027240Y007636D02*
X031406Y007636D01*
X031307Y007735D02*
X027240Y007735D01*
X027240Y007833D02*
X031209Y007833D01*
X031110Y007932D02*
X027240Y007932D01*
X027240Y008030D02*
X031012Y008030D01*
X030913Y008129D02*
X027240Y008129D01*
X027240Y008227D02*
X030815Y008227D01*
X030716Y008326D02*
X027240Y008326D01*
X027240Y008424D02*
X030618Y008424D01*
X030519Y008523D02*
X027240Y008523D01*
X027240Y008621D02*
X030421Y008621D01*
X028071Y010296D02*
X027240Y010296D01*
X027240Y010394D02*
X027928Y010394D01*
X027775Y010493D02*
X027240Y010493D01*
X027240Y010591D02*
X027677Y010591D01*
X027578Y010690D02*
X027240Y010690D01*
X027240Y010788D02*
X027480Y010788D01*
X027381Y010887D02*
X027240Y010887D01*
X027240Y010985D02*
X027283Y010985D01*
X027795Y012773D02*
X027795Y018375D01*
X031580Y022160D01*
X026120Y019161D02*
X013627Y019161D01*
X013627Y019062D02*
X025963Y019062D01*
X025899Y018964D02*
X013610Y018964D01*
X013512Y018865D02*
X025869Y018865D01*
X025869Y018767D02*
X020404Y018767D01*
X020531Y018668D02*
X025904Y018668D01*
X025978Y018570D02*
X020583Y018570D01*
X020604Y018471D02*
X026019Y018471D01*
X026019Y018373D02*
X020601Y018373D01*
X020560Y018274D02*
X023888Y018274D01*
X023751Y018176D02*
X020474Y018176D01*
X020454Y018077D02*
X023694Y018077D01*
X023670Y017979D02*
X020454Y017979D01*
X020454Y017880D02*
X023667Y017880D01*
X023569Y017782D02*
X020454Y017782D01*
X020454Y017683D02*
X023470Y017683D01*
X023468Y017585D02*
X020454Y017585D01*
X020454Y017486D02*
X023468Y017486D01*
X023468Y017388D02*
X020454Y017388D01*
X020454Y017289D02*
X023468Y017289D01*
X023427Y017191D02*
X020454Y017191D01*
X020454Y017092D02*
X023329Y017092D01*
X023230Y016994D02*
X020454Y016994D01*
X020424Y016895D02*
X023132Y016895D01*
X023033Y016797D02*
X020424Y016797D01*
X020384Y016698D02*
X022294Y016698D01*
X022447Y016698D02*
X022935Y016698D01*
X022836Y016600D02*
X022617Y016600D01*
X022687Y016501D02*
X022738Y016501D01*
X022370Y016351D02*
X016831Y016351D01*
X015862Y017320D01*
X011065Y017320D01*
X010855Y017530D01*
X011098Y017782D02*
X014877Y017782D01*
X014877Y017790D02*
X014208Y017790D01*
X014218Y017851D01*
X014239Y017915D01*
X014269Y017975D01*
X014309Y018030D01*
X014357Y018078D01*
X014412Y018118D01*
X014472Y018148D01*
X014536Y018169D01*
X014603Y018180D01*
X014877Y018180D01*
X014877Y017790D01*
X014957Y017790D02*
X014957Y018180D01*
X015231Y018180D01*
X015298Y018169D01*
X015362Y018148D01*
X015422Y018118D01*
X015477Y018078D01*
X015525Y018030D01*
X015565Y017975D01*
X015596Y017915D01*
X015616Y017851D01*
X015626Y017790D01*
X014957Y017790D01*
X014957Y017782D02*
X018483Y017782D01*
X018335Y017683D02*
X015622Y017683D01*
X015595Y017585D02*
X018274Y017585D01*
X018247Y017486D02*
X015979Y017486D01*
X016077Y017388D02*
X018247Y017388D01*
X018285Y017289D02*
X016176Y017289D01*
X016274Y017191D02*
X018361Y017191D01*
X018597Y017450D02*
X019847Y017450D01*
X019895Y017403D01*
X019730Y017092D02*
X016373Y017092D01*
X016471Y016994D02*
X019748Y016994D01*
X019724Y016895D02*
X016570Y016895D01*
X016668Y016797D02*
X019724Y016797D01*
X019765Y016698D02*
X016767Y016698D01*
X016865Y016600D02*
X019845Y016600D01*
X020074Y016865D02*
X020254Y017045D01*
X020254Y018450D01*
X019925Y018570D02*
X009149Y018570D01*
X009149Y018668D02*
X019977Y018668D01*
X020103Y018767D02*
X013413Y018767D01*
X013021Y018767D02*
X009149Y018767D01*
X009149Y018865D02*
X012922Y018865D01*
X012711Y018964D02*
X009149Y018964D01*
X009149Y019062D02*
X012612Y019062D01*
X012514Y019161D02*
X009149Y019161D01*
X009149Y019259D02*
X012415Y019259D01*
X012317Y019358D02*
X009149Y019358D01*
X009149Y019456D02*
X012218Y019456D01*
X012120Y019555D02*
X009149Y019555D01*
X009183Y019653D02*
X012021Y019653D01*
X011923Y019752D02*
X009261Y019752D01*
X009299Y019850D02*
X011824Y019850D01*
X011726Y019949D02*
X009299Y019949D01*
X009273Y020047D02*
X011627Y020047D01*
X011529Y020146D02*
X009214Y020146D01*
X009069Y020244D02*
X011430Y020244D01*
X011700Y020540D02*
X013027Y020540D01*
X012928Y020441D02*
X011799Y020441D01*
X011897Y020343D02*
X012830Y020343D01*
X012807Y020244D02*
X011996Y020244D01*
X012094Y020146D02*
X012807Y020146D01*
X012807Y020047D02*
X012193Y020047D01*
X012291Y019949D02*
X012839Y019949D01*
X012937Y019850D02*
X012390Y019850D01*
X012488Y019752D02*
X013036Y019752D01*
X013217Y019150D02*
X012807Y019150D01*
X014272Y017979D02*
X010068Y017979D01*
X010167Y017880D02*
X014227Y017880D01*
X014212Y017683D02*
X011170Y017683D01*
X011205Y017585D02*
X014239Y017585D01*
X014371Y017092D02*
X010017Y017092D01*
X010017Y016994D02*
X014273Y016994D01*
X014232Y016895D02*
X010052Y016895D01*
X010150Y016797D02*
X014207Y016797D01*
X014207Y016698D02*
X010362Y016698D01*
X010427Y016600D02*
X014234Y016600D01*
X014278Y016501D02*
X010427Y016501D01*
X010442Y016403D02*
X014376Y016403D01*
X013842Y015812D02*
X022048Y015812D01*
X022147Y015910D02*
X013744Y015910D01*
X013941Y015713D02*
X021950Y015713D01*
X021851Y015615D02*
X014039Y015615D01*
X014059Y015516D02*
X021753Y015516D01*
X021654Y015418D02*
X014059Y015418D01*
X014059Y015319D02*
X021556Y015319D01*
X021457Y015221D02*
X014059Y015221D01*
X014059Y015122D02*
X021359Y015122D01*
X021260Y015024D02*
X014027Y015024D01*
X013928Y014925D02*
X021162Y014925D01*
X021063Y014827D02*
X013830Y014827D01*
X013731Y014728D02*
X020965Y014728D01*
X020866Y014630D02*
X012215Y014630D01*
X012314Y014531D02*
X020768Y014531D01*
X020669Y014433D02*
X012412Y014433D01*
X012511Y014334D02*
X020571Y014334D01*
X020472Y014236D02*
X012609Y014236D01*
X012708Y014137D02*
X020374Y014137D01*
X020275Y014039D02*
X012806Y014039D01*
X012905Y013940D02*
X020177Y013940D01*
X020078Y013842D02*
X013003Y013842D01*
X013102Y013743D02*
X019980Y013743D01*
X019881Y013645D02*
X013200Y013645D01*
X013299Y013546D02*
X019783Y013546D01*
X019684Y013448D02*
X013397Y013448D01*
X013496Y013349D02*
X019586Y013349D01*
X019487Y013251D02*
X013594Y013251D01*
X013693Y013152D02*
X019389Y013152D01*
X019290Y013054D02*
X013791Y013054D01*
X013890Y012955D02*
X019192Y012955D01*
X019093Y012857D02*
X013988Y012857D01*
X014087Y012758D02*
X018995Y012758D01*
X018896Y012660D02*
X014185Y012660D01*
X014284Y012561D02*
X018798Y012561D01*
X018699Y012463D02*
X014382Y012463D01*
X014481Y012364D02*
X018601Y012364D01*
X018502Y012266D02*
X014579Y012266D01*
X014678Y012167D02*
X018404Y012167D01*
X018305Y012069D02*
X014776Y012069D01*
X014875Y011970D02*
X018207Y011970D01*
X018108Y011872D02*
X014973Y011872D01*
X015072Y011773D02*
X018010Y011773D01*
X017911Y011675D02*
X015170Y011675D01*
X015269Y011576D02*
X017813Y011576D01*
X017714Y011478D02*
X015367Y011478D01*
X015466Y011379D02*
X017616Y011379D01*
X017517Y011281D02*
X015564Y011281D01*
X015663Y011182D02*
X017419Y011182D01*
X017320Y011084D02*
X015761Y011084D01*
X015860Y010985D02*
X016248Y010985D01*
X016122Y010887D02*
X015958Y010887D01*
X016057Y010788D02*
X016070Y010788D01*
X016400Y010669D02*
X017189Y010669D01*
X023668Y017149D01*
X023668Y017598D01*
X024020Y017950D01*
X024152Y018274D02*
X026019Y018274D01*
X026019Y018176D02*
X024289Y018176D01*
X024346Y018077D02*
X026019Y018077D01*
X026004Y017979D02*
X024370Y017979D01*
X024626Y017683D02*
X025709Y017683D01*
X025610Y017585D02*
X024687Y017585D01*
X024714Y017486D02*
X025512Y017486D01*
X025413Y017388D02*
X024714Y017388D01*
X024676Y017289D02*
X025315Y017289D01*
X025216Y017191D02*
X024600Y017191D01*
X024564Y017092D02*
X025118Y017092D01*
X025019Y016994D02*
X024492Y016994D01*
X024394Y016895D02*
X024921Y016895D01*
X024822Y016797D02*
X024295Y016797D01*
X024197Y016698D02*
X024724Y016698D01*
X024625Y016600D02*
X024098Y016600D01*
X024000Y016501D02*
X024527Y016501D01*
X024428Y016403D02*
X023901Y016403D01*
X023803Y016304D02*
X024330Y016304D01*
X024231Y016206D02*
X023704Y016206D01*
X023606Y016107D02*
X024133Y016107D01*
X024034Y016009D02*
X023507Y016009D01*
X023409Y015910D02*
X023936Y015910D01*
X023837Y015812D02*
X023310Y015812D01*
X023212Y015713D02*
X023739Y015713D01*
X023640Y015615D02*
X023113Y015615D01*
X023015Y015516D02*
X023542Y015516D01*
X023443Y015418D02*
X022916Y015418D01*
X022818Y015319D02*
X023345Y015319D01*
X023171Y015221D02*
X022719Y015221D01*
X022621Y015122D02*
X023072Y015122D01*
X023031Y015024D02*
X022522Y015024D01*
X022424Y014925D02*
X023018Y014925D01*
X023029Y014827D02*
X022325Y014827D01*
X022227Y014728D02*
X023070Y014728D01*
X023167Y014630D02*
X022128Y014630D01*
X022030Y014531D02*
X024164Y014531D01*
X024164Y014433D02*
X021931Y014433D01*
X021833Y014334D02*
X024164Y014334D01*
X024164Y014236D02*
X021734Y014236D01*
X021636Y014137D02*
X024164Y014137D01*
X024164Y014039D02*
X021537Y014039D01*
X021439Y013940D02*
X024164Y013940D01*
X024164Y013842D02*
X021340Y013842D01*
X021242Y013743D02*
X024164Y013743D01*
X024164Y013645D02*
X021143Y013645D01*
X021045Y013546D02*
X024164Y013546D01*
X024164Y013448D02*
X020946Y013448D01*
X020848Y013349D02*
X024164Y013349D01*
X024364Y013101D02*
X023919Y013101D01*
X021026Y010209D01*
X021026Y009827D01*
X021026Y007176D01*
X020702Y007045D02*
X003867Y007045D01*
X003867Y006947D02*
X020761Y006947D01*
X020904Y006848D02*
X008039Y006848D01*
X008003Y006884D02*
X008118Y006769D01*
X008130Y006738D01*
X008263Y006738D01*
X008380Y006621D01*
X008380Y005280D01*
X009817Y003843D01*
X009817Y003730D01*
X010027Y003520D01*
X010027Y003180D01*
X009787Y002940D01*
X009447Y002940D01*
X009207Y003180D01*
X009207Y003520D01*
X009391Y003704D01*
X007980Y005115D01*
X007980Y006183D01*
X007853Y006131D01*
X007176Y006131D01*
X007026Y006193D01*
X006912Y006307D01*
X006850Y006457D01*
X006850Y006619D01*
X006912Y006769D01*
X007026Y006884D01*
X007176Y006946D01*
X007853Y006946D01*
X008003Y006884D01*
X008126Y006750D02*
X023204Y006750D01*
X023303Y006848D02*
X021149Y006848D01*
X021292Y006947D02*
X023401Y006947D01*
X023500Y007045D02*
X021351Y007045D01*
X021376Y007144D02*
X023598Y007144D01*
X023655Y007242D02*
X021376Y007242D01*
X021337Y007341D02*
X023655Y007341D01*
X023655Y007439D02*
X021258Y007439D01*
X021226Y007538D02*
X023655Y007538D01*
X023655Y007636D02*
X021226Y007636D01*
X021226Y007735D02*
X023655Y007735D01*
X023655Y007833D02*
X021226Y007833D01*
X021226Y007932D02*
X023655Y007932D01*
X023655Y008030D02*
X021226Y008030D01*
X021226Y008129D02*
X023655Y008129D01*
X023655Y008227D02*
X021226Y008227D01*
X021226Y008326D02*
X023655Y008326D01*
X023655Y008424D02*
X021226Y008424D01*
X021226Y008523D02*
X023655Y008523D01*
X023655Y008621D02*
X021226Y008621D01*
X021226Y008720D02*
X023655Y008720D01*
X023655Y008818D02*
X021226Y008818D01*
X021226Y008917D02*
X023655Y008917D01*
X023655Y009015D02*
X021226Y009015D01*
X021226Y009114D02*
X023655Y009114D01*
X023655Y009212D02*
X021226Y009212D01*
X021226Y009311D02*
X023655Y009311D01*
X023655Y009409D02*
X021226Y009409D01*
X021226Y009508D02*
X023655Y009508D01*
X023655Y009606D02*
X021226Y009606D01*
X021226Y009705D02*
X023655Y009705D01*
X023655Y009803D02*
X021226Y009803D01*
X021226Y009902D02*
X022052Y009902D01*
X021954Y010000D02*
X021226Y010000D01*
X021226Y010099D02*
X021855Y010099D01*
X021757Y010197D02*
X021297Y010197D01*
X021396Y010296D02*
X021742Y010296D01*
X021742Y010394D02*
X021494Y010394D01*
X021593Y010493D02*
X021742Y010493D01*
X021742Y010591D02*
X021691Y010591D01*
X021421Y010887D02*
X020160Y010887D01*
X020149Y010898D02*
X019999Y010960D01*
X019836Y010960D01*
X019685Y010898D01*
X019569Y010782D01*
X019507Y010632D01*
X019507Y010468D01*
X019569Y010318D01*
X019685Y010202D01*
X019836Y010140D01*
X019999Y010140D01*
X020149Y010202D01*
X020265Y010318D01*
X020327Y010468D01*
X020327Y010632D01*
X020265Y010782D01*
X020149Y010898D01*
X020259Y010788D02*
X021323Y010788D01*
X021224Y010690D02*
X020303Y010690D01*
X020327Y010591D02*
X021126Y010591D01*
X021027Y010493D02*
X020327Y010493D01*
X020296Y010394D02*
X020929Y010394D01*
X020830Y010296D02*
X020242Y010296D01*
X020136Y010197D02*
X020826Y010197D01*
X020826Y010099D02*
X017742Y010099D01*
X017748Y010197D02*
X018698Y010197D01*
X018685Y010202D02*
X018836Y010140D01*
X018999Y010140D01*
X019149Y010202D01*
X019265Y010318D01*
X019327Y010468D01*
X019327Y010632D01*
X019265Y010782D01*
X019149Y010898D01*
X018999Y010960D01*
X018836Y010960D01*
X018685Y010898D01*
X018569Y010782D01*
X018507Y010632D01*
X018507Y010468D01*
X018569Y010318D01*
X018685Y010202D01*
X018592Y010296D02*
X017794Y010296D01*
X017893Y010394D02*
X018538Y010394D01*
X018507Y010493D02*
X017991Y010493D01*
X018090Y010591D02*
X018507Y010591D01*
X018531Y010690D02*
X018188Y010690D01*
X018287Y010788D02*
X018575Y010788D01*
X018674Y010887D02*
X018385Y010887D01*
X018484Y010985D02*
X021520Y010985D01*
X021618Y011084D02*
X018582Y011084D01*
X018681Y011182D02*
X021717Y011182D01*
X021815Y011281D02*
X018779Y011281D01*
X018878Y011379D02*
X021914Y011379D01*
X022012Y011478D02*
X018976Y011478D01*
X019075Y011576D02*
X022111Y011576D01*
X022209Y011675D02*
X019173Y011675D01*
X019272Y011773D02*
X022308Y011773D01*
X022406Y011872D02*
X019370Y011872D01*
X019469Y011970D02*
X022505Y011970D01*
X022603Y012069D02*
X019567Y012069D01*
X019666Y012167D02*
X022702Y012167D01*
X022800Y012266D02*
X019764Y012266D01*
X019863Y012364D02*
X022899Y012364D01*
X022997Y012463D02*
X019961Y012463D01*
X020060Y012561D02*
X023096Y012561D01*
X023194Y012660D02*
X020158Y012660D01*
X020257Y012758D02*
X023293Y012758D01*
X023391Y012857D02*
X020355Y012857D01*
X020454Y012955D02*
X023490Y012955D01*
X023588Y013054D02*
X020552Y013054D01*
X020651Y013152D02*
X023687Y013152D01*
X023785Y013251D02*
X020749Y013251D01*
X022873Y011773D02*
X023655Y011773D01*
X023655Y011675D02*
X022775Y011675D01*
X022676Y011576D02*
X023655Y011576D01*
X023655Y011478D02*
X022578Y011478D01*
X022479Y011379D02*
X023655Y011379D01*
X023655Y011281D02*
X022381Y011281D01*
X022282Y011182D02*
X023655Y011182D01*
X023655Y011084D02*
X022184Y011084D01*
X022595Y010985D02*
X023655Y010985D01*
X023655Y010887D02*
X022694Y010887D01*
X022792Y010788D02*
X023655Y010788D01*
X023655Y010690D02*
X022891Y010690D01*
X022892Y010591D02*
X023655Y010591D01*
X023655Y010493D02*
X022892Y010493D01*
X022892Y010394D02*
X023655Y010394D01*
X023655Y010296D02*
X022892Y010296D01*
X022877Y010197D02*
X023655Y010197D01*
X023655Y010099D02*
X022779Y010099D01*
X022680Y010000D02*
X023655Y010000D01*
X023655Y009902D02*
X022582Y009902D01*
X024055Y009902D02*
X024164Y009902D01*
X024164Y010000D02*
X024055Y010000D01*
X024055Y010099D02*
X024164Y010099D01*
X024164Y010197D02*
X024055Y010197D01*
X024055Y010296D02*
X024164Y010296D01*
X024164Y010394D02*
X024055Y010394D01*
X024055Y010493D02*
X024164Y010493D01*
X024164Y010591D02*
X024055Y010591D01*
X024055Y010690D02*
X024164Y010690D01*
X024164Y010788D02*
X024055Y010788D01*
X024055Y010887D02*
X024164Y010887D01*
X024164Y010985D02*
X024055Y010985D01*
X024055Y011084D02*
X024164Y011084D01*
X024164Y011182D02*
X024055Y011182D01*
X024055Y011281D02*
X024164Y011281D01*
X024164Y011379D02*
X024055Y011379D01*
X024055Y011478D02*
X024164Y011478D01*
X024164Y011576D02*
X024055Y011576D01*
X024055Y011675D02*
X024164Y011675D01*
X024164Y011773D02*
X024055Y011773D01*
X024055Y011872D02*
X024164Y011872D01*
X024164Y011970D02*
X024055Y011970D01*
X024055Y012069D02*
X024164Y012069D01*
X024164Y012167D02*
X024055Y012167D01*
X024074Y012266D02*
X024164Y012266D01*
X023855Y012542D02*
X023855Y007118D01*
X022570Y005833D01*
X022245Y005962D02*
X008380Y005962D01*
X008380Y006060D02*
X022303Y006060D01*
X022442Y006159D02*
X008380Y006159D01*
X008380Y006257D02*
X022712Y006257D01*
X022810Y006356D02*
X008380Y006356D01*
X008380Y006454D02*
X022909Y006454D01*
X023007Y006553D02*
X008380Y006553D01*
X008350Y006651D02*
X023106Y006651D01*
X023376Y006356D02*
X024164Y006356D01*
X024164Y006454D02*
X023475Y006454D01*
X023573Y006553D02*
X024164Y006553D01*
X024164Y006651D02*
X023672Y006651D01*
X023770Y006750D02*
X024164Y006750D01*
X024164Y006848D02*
X023869Y006848D01*
X023967Y006947D02*
X024164Y006947D01*
X024164Y007045D02*
X024055Y007045D01*
X024055Y007144D02*
X024164Y007144D01*
X024164Y007242D02*
X024055Y007242D01*
X024055Y007341D02*
X024164Y007341D01*
X024164Y007439D02*
X024055Y007439D01*
X024055Y007538D02*
X024164Y007538D01*
X024164Y007636D02*
X024055Y007636D01*
X024055Y007735D02*
X024164Y007735D01*
X024164Y007833D02*
X024055Y007833D01*
X024055Y007932D02*
X024164Y007932D01*
X024164Y008030D02*
X024055Y008030D01*
X024055Y008129D02*
X024164Y008129D01*
X024164Y008227D02*
X024055Y008227D01*
X024055Y008326D02*
X024164Y008326D01*
X024164Y008424D02*
X024055Y008424D01*
X024055Y008523D02*
X024164Y008523D01*
X024164Y008621D02*
X024055Y008621D01*
X024055Y008720D02*
X024164Y008720D01*
X024164Y008818D02*
X024055Y008818D01*
X024055Y008917D02*
X024164Y008917D01*
X024164Y009015D02*
X024055Y009015D01*
X024055Y009114D02*
X024164Y009114D01*
X024164Y009212D02*
X024055Y009212D01*
X024055Y009311D02*
X024164Y009311D01*
X024164Y009409D02*
X024055Y009409D01*
X024055Y009508D02*
X024164Y009508D01*
X024164Y009606D02*
X024055Y009606D01*
X024055Y009705D02*
X024164Y009705D01*
X024164Y009803D02*
X024055Y009803D01*
X021026Y009827D02*
X016735Y009827D01*
X010227Y016335D01*
X010227Y016550D01*
X009817Y016550D01*
X009817Y016960D01*
X009817Y017650D01*
X009407Y017683D02*
X008823Y017683D01*
X008921Y017782D02*
X009407Y017782D01*
X009467Y017880D02*
X009020Y017880D01*
X009118Y017979D02*
X009566Y017979D01*
X009149Y018077D02*
X014356Y018077D01*
X014575Y018176D02*
X009149Y018176D01*
X009149Y018274D02*
X019948Y018274D01*
X019907Y018373D02*
X009149Y018373D01*
X009149Y018471D02*
X019904Y018471D01*
X020033Y018176D02*
X015259Y018176D01*
X015478Y018077D02*
X020054Y018077D01*
X020054Y017979D02*
X015563Y017979D01*
X015607Y017880D02*
X020054Y017880D01*
X020054Y017782D02*
X018711Y017782D01*
X018859Y017683D02*
X019680Y017683D01*
X019612Y017191D02*
X018832Y017191D01*
X020303Y016600D02*
X022124Y016600D01*
X022119Y016107D02*
X010738Y016107D01*
X010836Y016009D02*
X022245Y016009D01*
X023368Y015059D02*
X023368Y014923D01*
X023368Y015059D02*
X026219Y017910D01*
X026219Y018823D01*
X027995Y018274D02*
X031717Y018274D01*
X031717Y018176D02*
X027995Y018176D01*
X027995Y018077D02*
X031717Y018077D01*
X031717Y017979D02*
X027995Y017979D01*
X027995Y017880D02*
X031717Y017880D01*
X031717Y017782D02*
X027995Y017782D01*
X027995Y017683D02*
X031717Y017683D01*
X031717Y017585D02*
X027995Y017585D01*
X027995Y017486D02*
X031717Y017486D01*
X031717Y017388D02*
X027995Y017388D01*
X027995Y017289D02*
X031717Y017289D01*
X031717Y017191D02*
X027995Y017191D01*
X027995Y017092D02*
X031717Y017092D01*
X031717Y016994D02*
X027995Y016994D01*
X027995Y016895D02*
X031717Y016895D01*
X031717Y016797D02*
X027995Y016797D01*
X027995Y016698D02*
X031717Y016698D01*
X031717Y016600D02*
X027995Y016600D01*
X027995Y016501D02*
X028195Y016501D01*
X028104Y016403D02*
X027995Y016403D01*
X027995Y016304D02*
X028064Y016304D01*
X028057Y016206D02*
X027995Y016206D01*
X027995Y016107D02*
X028074Y016107D01*
X028121Y016009D02*
X027995Y016009D01*
X027995Y015910D02*
X028236Y015910D01*
X027995Y015812D02*
X030393Y015812D01*
X030294Y015910D02*
X028578Y015910D01*
X028692Y016009D02*
X030196Y016009D01*
X030269Y016218D02*
X028407Y016218D01*
X028619Y016501D02*
X031717Y016501D01*
X031717Y016403D02*
X030367Y016403D01*
X030466Y016304D02*
X031717Y016304D01*
X031717Y016206D02*
X030564Y016206D01*
X030663Y016107D02*
X031717Y016107D01*
X031717Y016009D02*
X030761Y016009D01*
X030860Y015910D02*
X031717Y015910D01*
X031717Y015812D02*
X030958Y015812D01*
X031057Y015713D02*
X031562Y015713D01*
X031442Y015615D02*
X031155Y015615D01*
X031254Y015516D02*
X031382Y015516D01*
X030984Y015221D02*
X029667Y015221D01*
X029687Y015268D02*
X029687Y015432D01*
X029625Y015582D01*
X029509Y015698D01*
X029359Y015760D01*
X028676Y015760D01*
X028525Y015698D01*
X028409Y015582D01*
X028347Y015432D01*
X028347Y015268D01*
X028409Y015118D01*
X028525Y015002D01*
X028676Y014940D01*
X029359Y014940D01*
X029509Y015002D01*
X029625Y015118D01*
X029687Y015268D01*
X029687Y015319D02*
X030885Y015319D01*
X030787Y015418D02*
X029687Y015418D01*
X029652Y015516D02*
X030688Y015516D01*
X030590Y015615D02*
X029592Y015615D01*
X029472Y015713D02*
X030491Y015713D01*
X030269Y016218D02*
X031547Y014940D01*
X033817Y014940D01*
X033817Y015350D01*
X033242Y015615D02*
X032592Y015615D01*
X032652Y015516D02*
X033182Y015516D01*
X033147Y015418D02*
X032687Y015418D01*
X032687Y015319D02*
X033147Y015319D01*
X033167Y015221D02*
X032667Y015221D01*
X032472Y015713D02*
X033362Y015713D01*
X034272Y015713D02*
X036362Y015713D01*
X036242Y015615D02*
X034392Y015615D01*
X034452Y015516D02*
X036182Y015516D01*
X036147Y015418D02*
X034487Y015418D01*
X034487Y015319D02*
X036147Y015319D01*
X036167Y015221D02*
X034467Y015221D01*
X034426Y015122D02*
X036208Y015122D01*
X036304Y015024D02*
X034330Y015024D01*
X031378Y014827D02*
X027995Y014827D01*
X027995Y014925D02*
X031279Y014925D01*
X031181Y015024D02*
X029530Y015024D01*
X029626Y015122D02*
X031082Y015122D01*
X028562Y015713D02*
X027995Y015713D01*
X027995Y015615D02*
X028442Y015615D01*
X028382Y015516D02*
X027995Y015516D01*
X027995Y015418D02*
X028347Y015418D01*
X028347Y015319D02*
X027995Y015319D01*
X027995Y015221D02*
X028367Y015221D01*
X028408Y015122D02*
X027995Y015122D01*
X027995Y015024D02*
X028504Y015024D01*
X027595Y015024D02*
X024564Y015024D01*
X024564Y015122D02*
X027595Y015122D01*
X027595Y015221D02*
X024564Y015221D01*
X024618Y015319D02*
X027595Y015319D01*
X027595Y015418D02*
X024684Y015418D01*
X024714Y015516D02*
X027595Y015516D01*
X027595Y015615D02*
X024714Y015615D01*
X024679Y015713D02*
X027595Y015713D01*
X027595Y014925D02*
X024564Y014925D01*
X024564Y014827D02*
X027595Y014827D01*
X027595Y014728D02*
X024564Y014728D01*
X024564Y014630D02*
X027595Y014630D01*
X027595Y014531D02*
X024564Y014531D01*
X024564Y014433D02*
X027595Y014433D01*
X027595Y014334D02*
X024564Y014334D01*
X024564Y014236D02*
X027595Y014236D01*
X027595Y014137D02*
X024564Y014137D01*
X024564Y014039D02*
X027595Y014039D01*
X027595Y013940D02*
X024564Y013940D01*
X024564Y013842D02*
X027595Y013842D01*
X027595Y013743D02*
X024564Y013743D01*
X024564Y013645D02*
X027595Y013645D01*
X027595Y013546D02*
X024564Y013546D01*
X024564Y013448D02*
X027595Y013448D01*
X026012Y013152D02*
X024625Y013152D01*
X024723Y013054D02*
X025906Y013054D01*
X025863Y012955D02*
X024822Y012955D01*
X024740Y012754D02*
X024740Y005546D01*
X024723Y005528D01*
X024705Y005528D01*
X024723Y005528D02*
X024723Y004288D01*
X025398Y003612D01*
X026429Y004148D02*
X026429Y005313D01*
X026429Y004148D02*
X024461Y002180D01*
X023142Y002180D01*
X022011Y001304D02*
X021591Y001724D01*
X021591Y002614D01*
X021276Y002614D01*
X021591Y002614D02*
X021591Y003028D01*
X024364Y005800D01*
X024364Y012607D01*
X023636Y012266D02*
X023366Y012266D01*
X023464Y012364D02*
X023550Y012364D01*
X023655Y012167D02*
X023267Y012167D01*
X023169Y012069D02*
X023655Y012069D01*
X023655Y011970D02*
X023070Y011970D01*
X022972Y011872D02*
X023655Y011872D01*
X020826Y009606D02*
X006181Y009606D01*
X006247Y009672D02*
X005995Y009420D01*
X005639Y009420D01*
X005387Y009672D01*
X005387Y010028D01*
X005639Y010280D01*
X005995Y010280D01*
X006247Y010028D01*
X006247Y009672D01*
X006247Y009705D02*
X016575Y009705D01*
X016476Y009803D02*
X006247Y009803D01*
X006247Y009902D02*
X016378Y009902D01*
X016279Y010000D02*
X006247Y010000D01*
X006177Y010099D02*
X016181Y010099D01*
X016082Y010197D02*
X006078Y010197D01*
X005995Y010420D02*
X005639Y010420D01*
X005387Y010672D01*
X005387Y011028D01*
X005639Y011280D01*
X005995Y011280D01*
X006247Y011028D01*
X006247Y010672D01*
X005995Y010420D01*
X006068Y010493D02*
X015787Y010493D01*
X015688Y010591D02*
X006166Y010591D01*
X006247Y010690D02*
X015590Y010690D01*
X015491Y010788D02*
X006247Y010788D01*
X006247Y010887D02*
X015393Y010887D01*
X015294Y010985D02*
X006247Y010985D01*
X006192Y011084D02*
X015196Y011084D01*
X015097Y011182D02*
X006093Y011182D01*
X005995Y011420D02*
X005639Y011420D01*
X005387Y011672D01*
X005387Y012028D01*
X005639Y012280D01*
X005995Y012280D01*
X006247Y012028D01*
X006247Y011672D01*
X005995Y011420D01*
X006053Y011478D02*
X014802Y011478D01*
X014703Y011576D02*
X006151Y011576D01*
X006247Y011675D02*
X014605Y011675D01*
X014506Y011773D02*
X006247Y011773D01*
X006247Y011872D02*
X014408Y011872D01*
X014309Y011970D02*
X006247Y011970D01*
X006207Y012069D02*
X014211Y012069D01*
X014112Y012167D02*
X006108Y012167D01*
X006010Y012266D02*
X014014Y012266D01*
X013915Y012364D02*
X003867Y012364D01*
X003867Y012266D02*
X004624Y012266D01*
X004639Y012280D02*
X004387Y012028D01*
X004387Y011672D01*
X004639Y011420D01*
X004995Y011420D01*
X005247Y011672D01*
X005247Y012028D01*
X004995Y012280D01*
X004639Y012280D01*
X004639Y012420D02*
X004995Y012420D01*
X005247Y012672D01*
X005247Y013028D01*
X004995Y013280D01*
X004639Y013280D01*
X004387Y013028D01*
X004387Y012672D01*
X004639Y012420D01*
X004596Y012463D02*
X003867Y012463D01*
X003867Y012561D02*
X004498Y012561D01*
X004399Y012660D02*
X003867Y012660D01*
X003867Y012758D02*
X004387Y012758D01*
X004387Y012857D02*
X003867Y012857D01*
X003867Y012955D02*
X004387Y012955D01*
X004412Y013054D02*
X003867Y013054D01*
X003867Y013152D02*
X004511Y013152D01*
X004609Y013251D02*
X003867Y013251D01*
X003867Y013349D02*
X012930Y013349D01*
X012832Y013448D02*
X006023Y013448D01*
X005995Y013420D02*
X005639Y013420D01*
X005387Y013672D01*
X005387Y014028D01*
X005639Y014280D01*
X005995Y014280D01*
X006247Y014028D01*
X006247Y013672D01*
X005995Y013420D01*
X005995Y013280D02*
X005639Y013280D01*
X005387Y013028D01*
X005387Y012672D01*
X005639Y012420D01*
X005995Y012420D01*
X006247Y012672D01*
X006247Y013028D01*
X005995Y013280D01*
X006025Y013251D02*
X013029Y013251D01*
X013127Y013152D02*
X006123Y013152D01*
X006222Y013054D02*
X013226Y013054D01*
X013324Y012955D02*
X006247Y012955D01*
X006247Y012857D02*
X013423Y012857D01*
X013521Y012758D02*
X006247Y012758D01*
X006235Y012660D02*
X013620Y012660D01*
X013718Y012561D02*
X006136Y012561D01*
X006038Y012463D02*
X013817Y012463D01*
X012733Y013546D02*
X006121Y013546D01*
X006220Y013645D02*
X012635Y013645D01*
X012536Y013743D02*
X006247Y013743D01*
X006247Y013842D02*
X012438Y013842D01*
X012339Y013940D02*
X006247Y013940D01*
X006237Y014039D02*
X012241Y014039D01*
X012142Y014137D02*
X006138Y014137D01*
X006040Y014236D02*
X012044Y014236D01*
X011945Y014334D02*
X003867Y014334D01*
X003867Y014236D02*
X004594Y014236D01*
X004639Y014280D02*
X004387Y014028D01*
X004387Y013672D01*
X004639Y013420D01*
X004995Y013420D01*
X005247Y013672D01*
X005247Y014028D01*
X004995Y014280D01*
X004639Y014280D01*
X004639Y014420D02*
X004995Y014420D01*
X005247Y014672D01*
X005247Y015028D01*
X004995Y015280D01*
X004639Y015280D01*
X004387Y015028D01*
X004387Y014672D01*
X004639Y014420D01*
X004626Y014433D02*
X003867Y014433D01*
X003867Y014531D02*
X004528Y014531D01*
X004429Y014630D02*
X003867Y014630D01*
X003867Y014728D02*
X004387Y014728D01*
X004387Y014827D02*
X003867Y014827D01*
X003867Y014925D02*
X004387Y014925D01*
X004387Y015024D02*
X003867Y015024D01*
X003867Y015122D02*
X004481Y015122D01*
X004579Y015221D02*
X003867Y015221D01*
X003867Y015319D02*
X010960Y015319D01*
X010862Y015418D02*
X003867Y015418D01*
X003867Y015516D02*
X004543Y015516D01*
X004639Y015420D02*
X004995Y015420D01*
X005247Y015672D01*
X005247Y016028D01*
X004995Y016280D01*
X004639Y016280D01*
X004387Y016028D01*
X004387Y015672D01*
X004639Y015420D01*
X004444Y015615D02*
X003867Y015615D01*
X003867Y015713D02*
X004387Y015713D01*
X004387Y015812D02*
X003867Y015812D01*
X003867Y015910D02*
X004387Y015910D01*
X004387Y016009D02*
X003867Y016009D01*
X003867Y016107D02*
X004466Y016107D01*
X004564Y016206D02*
X003867Y016206D01*
X003867Y016304D02*
X007483Y016304D01*
X007407Y016403D02*
X003867Y016403D01*
X003867Y016501D02*
X004558Y016501D01*
X004639Y016420D02*
X004995Y016420D01*
X005247Y016672D01*
X005247Y017028D01*
X004995Y017280D01*
X004639Y017280D01*
X004387Y017028D01*
X004387Y016672D01*
X004639Y016420D01*
X004459Y016600D02*
X003867Y016600D01*
X003867Y016698D02*
X004387Y016698D01*
X004387Y016797D02*
X003867Y016797D01*
X003867Y016895D02*
X004387Y016895D01*
X004387Y016994D02*
X003867Y016994D01*
X003867Y017092D02*
X004451Y017092D01*
X004549Y017191D02*
X003867Y017191D01*
X003867Y017289D02*
X007598Y017289D01*
X007500Y017388D02*
X003867Y017388D01*
X003867Y017486D02*
X004573Y017486D01*
X004639Y017420D02*
X004995Y017420D01*
X005247Y017672D01*
X005247Y018028D01*
X004995Y018280D01*
X004639Y018280D01*
X004387Y018028D01*
X004387Y017672D01*
X004639Y017420D01*
X004474Y017585D02*
X003867Y017585D01*
X003867Y017683D02*
X004387Y017683D01*
X004387Y017782D02*
X003867Y017782D01*
X003867Y017880D02*
X004387Y017880D01*
X004387Y017979D02*
X003867Y017979D01*
X003867Y018077D02*
X004436Y018077D01*
X004534Y018176D02*
X003867Y018176D01*
X003867Y018274D02*
X004633Y018274D01*
X004639Y018420D02*
X004995Y018420D01*
X005247Y018672D01*
X005247Y019028D01*
X004995Y019280D01*
X004639Y019280D01*
X004387Y019028D01*
X004387Y018672D01*
X004639Y018420D01*
X004588Y018471D02*
X003867Y018471D01*
X003867Y018373D02*
X008750Y018373D01*
X008750Y018471D02*
X006046Y018471D01*
X006145Y018570D02*
X008750Y018570D01*
X008750Y018668D02*
X006243Y018668D01*
X005995Y018280D02*
X005639Y018280D01*
X005387Y018028D01*
X005387Y017672D01*
X005639Y017420D01*
X005995Y017420D01*
X006247Y017672D01*
X006247Y018028D01*
X005995Y018280D01*
X006001Y018274D02*
X008750Y018274D01*
X008750Y018176D02*
X006100Y018176D01*
X006198Y018077D02*
X008651Y018077D01*
X008553Y017979D02*
X008068Y017979D01*
X008167Y017880D02*
X008454Y017880D01*
X008356Y017782D02*
X008227Y017782D01*
X008227Y017683D02*
X008257Y017683D01*
X008527Y017388D02*
X009500Y017388D01*
X009407Y017486D02*
X008626Y017486D01*
X008724Y017585D02*
X009407Y017585D01*
X009598Y017289D02*
X008429Y017289D01*
X008330Y017191D02*
X009617Y017191D01*
X009617Y017092D02*
X008232Y017092D01*
X008133Y016994D02*
X009617Y016994D01*
X009582Y016895D02*
X008052Y016895D01*
X008150Y016797D02*
X009484Y016797D01*
X009407Y016698D02*
X008227Y016698D01*
X008227Y016600D02*
X009407Y016600D01*
X009407Y016501D02*
X008227Y016501D01*
X008227Y016403D02*
X009407Y016403D01*
X009483Y016304D02*
X008151Y016304D01*
X008052Y016206D02*
X009582Y016206D01*
X010052Y016206D02*
X010074Y016206D01*
X010172Y016107D02*
X006168Y016107D01*
X006247Y016028D02*
X005995Y016280D01*
X005639Y016280D01*
X005387Y016028D01*
X005387Y015672D01*
X005639Y015420D01*
X005995Y015420D01*
X006247Y015672D01*
X006247Y016028D01*
X006247Y016009D02*
X010271Y016009D01*
X010369Y015910D02*
X006247Y015910D01*
X006247Y015812D02*
X010468Y015812D01*
X010566Y015713D02*
X006247Y015713D01*
X006190Y015615D02*
X010665Y015615D01*
X010763Y015516D02*
X006091Y015516D01*
X005995Y015280D02*
X005639Y015280D01*
X005387Y015028D01*
X005387Y014672D01*
X005639Y014420D01*
X005995Y014420D01*
X006247Y014672D01*
X006247Y015028D01*
X005995Y015280D01*
X006055Y015221D02*
X011059Y015221D01*
X011157Y015122D02*
X006153Y015122D01*
X006247Y015024D02*
X011256Y015024D01*
X011354Y014925D02*
X006247Y014925D01*
X006247Y014827D02*
X011453Y014827D01*
X011551Y014728D02*
X006247Y014728D01*
X006205Y014630D02*
X011650Y014630D01*
X011748Y014531D02*
X006106Y014531D01*
X006008Y014433D02*
X011847Y014433D01*
X011767Y015122D02*
X011723Y015122D01*
X011767Y015221D02*
X011624Y015221D01*
X011526Y015319D02*
X011767Y015319D01*
X011767Y015418D02*
X011427Y015418D01*
X011329Y015516D02*
X011767Y015516D01*
X011771Y015615D02*
X011230Y015615D01*
X011132Y015713D02*
X011870Y015713D01*
X011968Y015812D02*
X011033Y015812D01*
X010935Y015910D02*
X012067Y015910D01*
X012767Y015910D02*
X013075Y015910D01*
X012976Y015812D02*
X012866Y015812D01*
X012822Y014827D02*
X012989Y014827D01*
X013087Y014728D02*
X012723Y014728D01*
X010639Y016206D02*
X016693Y016206D01*
X016595Y016304D02*
X010541Y016304D01*
X010760Y017191D02*
X010017Y017191D01*
X010036Y017289D02*
X010601Y017289D01*
X010535Y017388D02*
X010134Y017388D01*
X010227Y017486D02*
X010505Y017486D01*
X010505Y017585D02*
X010227Y017585D01*
X010227Y017683D02*
X010539Y017683D01*
X010611Y017782D02*
X010227Y017782D01*
X008950Y018092D02*
X008950Y019915D01*
X008017Y019560D02*
X008017Y019150D01*
X008017Y019560D02*
X007327Y020251D01*
X007149Y020146D02*
X006130Y020146D01*
X006228Y020047D02*
X007247Y020047D01*
X007346Y019949D02*
X006247Y019949D01*
X006247Y019850D02*
X007444Y019850D01*
X007543Y019752D02*
X006247Y019752D01*
X006228Y019653D02*
X007641Y019653D01*
X007740Y019555D02*
X006130Y019555D01*
X006031Y019456D02*
X007743Y019456D01*
X007527Y020737D02*
X010938Y020737D01*
X010839Y020835D02*
X007527Y020835D01*
X007527Y020934D02*
X010741Y020934D01*
X010642Y021032D02*
X007527Y021032D01*
X007527Y021131D02*
X010544Y021131D01*
X010445Y021229D02*
X007527Y021229D01*
X007527Y021328D02*
X010347Y021328D01*
X010248Y021426D02*
X007527Y021426D01*
X007527Y021525D02*
X010150Y021525D01*
X010051Y021623D02*
X007527Y021623D01*
X007527Y021722D02*
X009953Y021722D01*
X009854Y021820D02*
X007527Y021820D01*
X007527Y021919D02*
X009756Y021919D01*
X009657Y022017D02*
X007527Y022017D01*
X007527Y022116D02*
X009559Y022116D01*
X009460Y022214D02*
X007527Y022214D01*
X007527Y022313D02*
X009362Y022313D01*
X009263Y022411D02*
X007527Y022411D01*
X007527Y022510D02*
X009165Y022510D01*
X009066Y022608D02*
X007527Y022608D01*
X007527Y022707D02*
X008968Y022707D01*
X008869Y022805D02*
X008783Y022805D01*
X008233Y022805D02*
X007602Y022805D01*
X007700Y022904D02*
X008134Y022904D01*
X010518Y021722D02*
X014874Y021722D01*
X014776Y021623D02*
X010617Y021623D01*
X010715Y021525D02*
X014677Y021525D01*
X014579Y021426D02*
X010814Y021426D01*
X010912Y021328D02*
X014480Y021328D01*
X014382Y021229D02*
X011011Y021229D01*
X011109Y021131D02*
X014283Y021131D01*
X014185Y021032D02*
X011208Y021032D01*
X011306Y020934D02*
X014086Y020934D01*
X013988Y020835D02*
X011405Y020835D01*
X011503Y020737D02*
X013889Y020737D01*
X013791Y020638D02*
X011602Y020638D01*
X013407Y020540D02*
X013692Y020540D01*
X015920Y021919D02*
X016004Y021919D01*
X015945Y021943D02*
X015945Y021943D01*
X014957Y018176D02*
X014877Y018176D01*
X014877Y018077D02*
X014957Y018077D01*
X014957Y017979D02*
X014877Y017979D01*
X014877Y017880D02*
X014957Y017880D01*
X015463Y017092D02*
X015807Y017092D01*
X015905Y016994D02*
X015562Y016994D01*
X015602Y016895D02*
X016004Y016895D01*
X016102Y016797D02*
X015627Y016797D01*
X015627Y016698D02*
X016201Y016698D01*
X016299Y016600D02*
X015600Y016600D01*
X015556Y016501D02*
X016398Y016501D01*
X016496Y016403D02*
X015458Y016403D01*
X008950Y018092D02*
X007817Y016960D01*
X007817Y016550D01*
X007407Y016501D02*
X006076Y016501D01*
X005995Y016420D02*
X006247Y016672D01*
X006247Y017028D01*
X005995Y017280D01*
X005639Y017280D01*
X005387Y017028D01*
X005387Y016672D01*
X005639Y016420D01*
X005995Y016420D01*
X006070Y016206D02*
X007582Y016206D01*
X007407Y016600D02*
X006175Y016600D01*
X006247Y016698D02*
X007407Y016698D01*
X007484Y016797D02*
X006247Y016797D01*
X006247Y016895D02*
X007582Y016895D01*
X007617Y016994D02*
X006247Y016994D01*
X006183Y017092D02*
X007666Y017092D01*
X007765Y017191D02*
X006085Y017191D01*
X006061Y017486D02*
X007407Y017486D01*
X007407Y017585D02*
X006160Y017585D01*
X006247Y017683D02*
X007407Y017683D01*
X007407Y017782D02*
X006247Y017782D01*
X006247Y017880D02*
X007467Y017880D01*
X007566Y017979D02*
X006247Y017979D01*
X005633Y018274D02*
X005001Y018274D01*
X005100Y018176D02*
X005534Y018176D01*
X005436Y018077D02*
X005198Y018077D01*
X005247Y017979D02*
X005387Y017979D01*
X005387Y017880D02*
X005247Y017880D01*
X005247Y017782D02*
X005387Y017782D01*
X005387Y017683D02*
X005247Y017683D01*
X005160Y017585D02*
X005474Y017585D01*
X005573Y017486D02*
X005061Y017486D01*
X005085Y017191D02*
X005549Y017191D01*
X005451Y017092D02*
X005183Y017092D01*
X005247Y016994D02*
X005387Y016994D01*
X005387Y016895D02*
X005247Y016895D01*
X005247Y016797D02*
X005387Y016797D01*
X005387Y016698D02*
X005247Y016698D01*
X005175Y016600D02*
X005459Y016600D01*
X005558Y016501D02*
X005076Y016501D01*
X005070Y016206D02*
X005564Y016206D01*
X005466Y016107D02*
X005168Y016107D01*
X005247Y016009D02*
X005387Y016009D01*
X005387Y015910D02*
X005247Y015910D01*
X005247Y015812D02*
X005387Y015812D01*
X005387Y015713D02*
X005247Y015713D01*
X005190Y015615D02*
X005444Y015615D01*
X005543Y015516D02*
X005091Y015516D01*
X005055Y015221D02*
X005579Y015221D01*
X005481Y015122D02*
X005153Y015122D01*
X005247Y015024D02*
X005387Y015024D01*
X005387Y014925D02*
X005247Y014925D01*
X005247Y014827D02*
X005387Y014827D01*
X005387Y014728D02*
X005247Y014728D01*
X005205Y014630D02*
X005429Y014630D01*
X005528Y014531D02*
X005106Y014531D01*
X005008Y014433D02*
X005626Y014433D01*
X005594Y014236D02*
X005040Y014236D01*
X005138Y014137D02*
X005496Y014137D01*
X005397Y014039D02*
X005237Y014039D01*
X005247Y013940D02*
X005387Y013940D01*
X005387Y013842D02*
X005247Y013842D01*
X005247Y013743D02*
X005387Y013743D01*
X005414Y013645D02*
X005220Y013645D01*
X005121Y013546D02*
X005513Y013546D01*
X005611Y013448D02*
X005023Y013448D01*
X005025Y013251D02*
X005609Y013251D01*
X005511Y013152D02*
X005123Y013152D01*
X005222Y013054D02*
X005412Y013054D01*
X005387Y012955D02*
X005247Y012955D01*
X005247Y012857D02*
X005387Y012857D01*
X005387Y012758D02*
X005247Y012758D01*
X005235Y012660D02*
X005399Y012660D01*
X005498Y012561D02*
X005136Y012561D01*
X005038Y012463D02*
X005596Y012463D01*
X005624Y012266D02*
X005010Y012266D01*
X005108Y012167D02*
X005526Y012167D01*
X005427Y012069D02*
X005207Y012069D01*
X005247Y011970D02*
X005387Y011970D01*
X005387Y011872D02*
X005247Y011872D01*
X005247Y011773D02*
X005387Y011773D01*
X005387Y011675D02*
X005247Y011675D01*
X005151Y011576D02*
X005483Y011576D01*
X005581Y011478D02*
X005053Y011478D01*
X004995Y011280D02*
X004857Y011280D01*
X004857Y010890D01*
X004777Y010890D01*
X004777Y010810D01*
X004387Y010810D01*
X004387Y010672D01*
X004639Y010420D01*
X004777Y010420D01*
X004777Y010810D01*
X004857Y010810D01*
X004857Y010420D01*
X004995Y010420D01*
X005247Y010672D01*
X005247Y010810D01*
X004857Y010810D01*
X004857Y010890D01*
X005247Y010890D01*
X005247Y011028D01*
X004995Y011280D01*
X005093Y011182D02*
X005541Y011182D01*
X005442Y011084D02*
X005192Y011084D01*
X005247Y010985D02*
X005387Y010985D01*
X005387Y010887D02*
X004857Y010887D01*
X004777Y010887D02*
X003867Y010887D01*
X003867Y010985D02*
X004387Y010985D01*
X004387Y011028D02*
X004387Y010890D01*
X004777Y010890D01*
X004777Y011280D01*
X004639Y011280D01*
X004387Y011028D01*
X004442Y011084D02*
X003867Y011084D01*
X003867Y011182D02*
X004541Y011182D01*
X004777Y011182D02*
X004857Y011182D01*
X004857Y011084D02*
X004777Y011084D01*
X004777Y010985D02*
X004857Y010985D01*
X004857Y010788D02*
X004777Y010788D01*
X004777Y010690D02*
X004857Y010690D01*
X004857Y010591D02*
X004777Y010591D01*
X004777Y010493D02*
X004857Y010493D01*
X005068Y010493D02*
X005566Y010493D01*
X005468Y010591D02*
X005166Y010591D01*
X005247Y010690D02*
X005387Y010690D01*
X005387Y010788D02*
X005247Y010788D01*
X004566Y010493D02*
X003867Y010493D01*
X003867Y010591D02*
X004468Y010591D01*
X004387Y010690D02*
X003867Y010690D01*
X003867Y010788D02*
X004387Y010788D01*
X003867Y010394D02*
X015885Y010394D01*
X015984Y010296D02*
X003867Y010296D01*
X003867Y010197D02*
X004556Y010197D01*
X004639Y010280D02*
X004387Y010028D01*
X004387Y009672D01*
X004639Y009420D01*
X004995Y009420D01*
X005247Y009672D01*
X005247Y010028D01*
X004995Y010280D01*
X004639Y010280D01*
X004457Y010099D02*
X003867Y010099D01*
X003867Y010000D02*
X004387Y010000D01*
X004387Y009902D02*
X003867Y009902D01*
X003867Y009803D02*
X004387Y009803D01*
X004387Y009705D02*
X003867Y009705D01*
X003867Y009606D02*
X004453Y009606D01*
X004551Y009508D02*
X003867Y009508D01*
X003867Y009409D02*
X020826Y009409D01*
X020826Y009311D02*
X003867Y009311D01*
X003867Y009212D02*
X004571Y009212D01*
X004639Y009280D02*
X004387Y009028D01*
X004387Y008672D01*
X004639Y008420D01*
X004995Y008420D01*
X005247Y008672D01*
X005247Y009028D01*
X004995Y009280D01*
X004639Y009280D01*
X004472Y009114D02*
X003867Y009114D01*
X003867Y009015D02*
X004387Y009015D01*
X004387Y008917D02*
X003867Y008917D01*
X003867Y008818D02*
X004387Y008818D01*
X004387Y008720D02*
X003867Y008720D01*
X003867Y008621D02*
X004438Y008621D01*
X004536Y008523D02*
X003867Y008523D01*
X003867Y008424D02*
X004635Y008424D01*
X004999Y008424D02*
X005722Y008424D01*
X005732Y008420D02*
X005903Y008420D01*
X006061Y008485D01*
X006182Y008606D01*
X006247Y008764D01*
X006247Y008936D01*
X006182Y009094D01*
X006061Y009215D01*
X005903Y009280D01*
X005732Y009280D01*
X005573Y009215D01*
X005453Y009094D01*
X005387Y008936D01*
X005387Y008764D01*
X005453Y008606D01*
X005573Y008485D01*
X005732Y008420D01*
X005912Y008424D02*
X020826Y008424D01*
X020826Y008326D02*
X003867Y008326D01*
X003867Y008227D02*
X020826Y008227D01*
X020826Y008129D02*
X003867Y008129D01*
X003867Y008030D02*
X020826Y008030D01*
X020826Y007932D02*
X003867Y007932D01*
X003867Y007833D02*
X020826Y007833D01*
X020826Y007735D02*
X003867Y007735D01*
X003867Y007636D02*
X020826Y007636D01*
X020826Y007538D02*
X003867Y007538D01*
X003867Y007439D02*
X020794Y007439D01*
X020716Y007341D02*
X003867Y007341D01*
X003867Y007242D02*
X020676Y007242D01*
X020676Y007144D02*
X003867Y007144D01*
X003867Y006848D02*
X006991Y006848D01*
X006904Y006750D02*
X003867Y006750D01*
X003867Y006651D02*
X006863Y006651D01*
X006850Y006553D02*
X003867Y006553D01*
X003867Y006454D02*
X006851Y006454D01*
X006892Y006356D02*
X003867Y006356D01*
X003867Y006257D02*
X006962Y006257D01*
X007109Y006159D02*
X003867Y006159D01*
X003867Y006060D02*
X007980Y006060D01*
X007980Y005962D02*
X007397Y005962D01*
X007452Y005939D02*
X007302Y006001D01*
X006625Y006001D01*
X006475Y005939D01*
X006361Y005824D01*
X006299Y005674D01*
X006299Y005512D01*
X006361Y005362D01*
X006475Y005248D01*
X006625Y005186D01*
X007302Y005186D01*
X007452Y005248D01*
X007566Y005362D01*
X007628Y005512D01*
X007628Y005674D01*
X007566Y005824D01*
X007452Y005939D01*
X007528Y005863D02*
X007980Y005863D01*
X007980Y005765D02*
X007591Y005765D01*
X007628Y005666D02*
X007980Y005666D01*
X007980Y005568D02*
X007628Y005568D01*
X007611Y005469D02*
X007980Y005469D01*
X007980Y005371D02*
X007570Y005371D01*
X007476Y005272D02*
X007980Y005272D01*
X007980Y005174D02*
X004623Y005174D01*
X004600Y005185D02*
X004539Y005205D01*
X004476Y005215D01*
X004473Y005215D01*
X004473Y004579D01*
X004851Y004579D01*
X004851Y004840D01*
X004841Y004903D01*
X004821Y004964D01*
X004792Y005021D01*
X004755Y005073D01*
X004709Y005118D01*
X004657Y005156D01*
X004600Y005185D01*
X004473Y005174D02*
X004415Y005174D01*
X004415Y005215D02*
X004412Y005215D01*
X004348Y005205D01*
X004287Y005185D01*
X004230Y005156D01*
X004178Y005118D01*
X004133Y005073D01*
X004095Y005021D01*
X004066Y004964D01*
X004046Y004903D01*
X004036Y004840D01*
X004036Y004579D01*
X004415Y004579D01*
X004415Y005215D01*
X004415Y005075D02*
X004473Y005075D01*
X004473Y004977D02*
X004415Y004977D01*
X004415Y004878D02*
X004473Y004878D01*
X004473Y004780D02*
X004415Y004780D01*
X004415Y004681D02*
X004473Y004681D01*
X004473Y004583D02*
X004415Y004583D01*
X004415Y004579D02*
X004473Y004579D01*
X004473Y004521D01*
X004851Y004521D01*
X004851Y004260D01*
X004841Y004197D01*
X004821Y004136D01*
X004792Y004079D01*
X004755Y004027D01*
X004709Y003982D01*
X004657Y003944D01*
X004600Y003915D01*
X004539Y003895D01*
X004476Y003885D01*
X004473Y003885D01*
X004473Y004521D01*
X004415Y004521D01*
X004415Y003885D01*
X004412Y003885D01*
X004348Y003895D01*
X004287Y003915D01*
X004230Y003944D01*
X004178Y003982D01*
X004133Y004027D01*
X004095Y004079D01*
X004066Y004136D01*
X004046Y004197D01*
X004036Y004260D01*
X004036Y004521D01*
X004415Y004521D01*
X004415Y004579D01*
X004415Y004484D02*
X004473Y004484D01*
X004473Y004386D02*
X004415Y004386D01*
X004415Y004287D02*
X004473Y004287D01*
X004473Y004189D02*
X004415Y004189D01*
X004415Y004090D02*
X004473Y004090D01*
X004473Y003992D02*
X004415Y003992D01*
X004415Y003893D02*
X004473Y003893D01*
X004526Y003893D02*
X009201Y003893D01*
X009103Y003992D02*
X004719Y003992D01*
X004798Y004090D02*
X009004Y004090D01*
X008906Y004189D02*
X004838Y004189D01*
X004851Y004287D02*
X008807Y004287D01*
X008709Y004386D02*
X004851Y004386D01*
X004851Y004484D02*
X008610Y004484D01*
X008512Y004583D02*
X004851Y004583D01*
X004851Y004681D02*
X008413Y004681D01*
X008315Y004780D02*
X004851Y004780D01*
X004845Y004878D02*
X008216Y004878D01*
X008118Y004977D02*
X004815Y004977D01*
X004753Y005075D02*
X008019Y005075D01*
X008180Y005197D02*
X009617Y003760D01*
X009617Y003350D01*
X009207Y003302D02*
X009182Y003302D01*
X009182Y003204D02*
X009207Y003204D01*
X009182Y003105D02*
X009282Y003105D01*
X009381Y003007D02*
X009182Y003007D01*
X009207Y003401D02*
X009146Y003401D01*
X009084Y003499D02*
X009207Y003499D01*
X009285Y003598D02*
X008959Y003598D01*
X008591Y003598D02*
X003867Y003598D01*
X003867Y003696D02*
X009383Y003696D01*
X009300Y003795D02*
X003867Y003795D01*
X003867Y003893D02*
X004361Y003893D01*
X004169Y003992D02*
X003867Y003992D01*
X003867Y004090D02*
X004090Y004090D01*
X004049Y004189D02*
X003867Y004189D01*
X003867Y004287D02*
X004036Y004287D01*
X004036Y004386D02*
X003867Y004386D01*
X003867Y004484D02*
X004036Y004484D01*
X004036Y004583D02*
X003867Y004583D01*
X003867Y004681D02*
X004036Y004681D01*
X004036Y004780D02*
X003867Y004780D01*
X003867Y004878D02*
X004042Y004878D01*
X004073Y004977D02*
X003867Y004977D01*
X003867Y005075D02*
X004135Y005075D01*
X004265Y005174D02*
X003867Y005174D01*
X003867Y005272D02*
X006451Y005272D01*
X006357Y005371D02*
X003867Y005371D01*
X003867Y005469D02*
X006316Y005469D01*
X006299Y005568D02*
X003867Y005568D01*
X003867Y005666D02*
X006299Y005666D01*
X006336Y005765D02*
X003867Y005765D01*
X003867Y005863D02*
X006399Y005863D01*
X006530Y005962D02*
X003867Y005962D01*
X007515Y006538D02*
X008180Y006538D01*
X008180Y005197D01*
X008388Y005272D02*
X012525Y005272D01*
X012427Y005174D02*
X008486Y005174D01*
X008585Y005075D02*
X012328Y005075D01*
X012267Y005014D02*
X012267Y004794D01*
X012867Y004794D01*
X012867Y004694D01*
X012967Y004694D01*
X012967Y004094D01*
X013186Y004094D01*
X013567Y004475D01*
X013567Y004694D01*
X012967Y004694D01*
X012967Y004794D01*
X013567Y004794D01*
X013567Y005014D01*
X013186Y005394D01*
X012967Y005394D01*
X012967Y004794D01*
X012867Y004794D01*
X012867Y005394D01*
X012648Y005394D01*
X012267Y005014D01*
X012267Y004977D02*
X008683Y004977D01*
X008782Y004878D02*
X012267Y004878D01*
X012267Y004694D02*
X012267Y004475D01*
X012648Y004094D01*
X012867Y004094D01*
X012867Y004694D01*
X012267Y004694D01*
X012267Y004681D02*
X008979Y004681D01*
X009077Y004583D02*
X012267Y004583D01*
X012267Y004484D02*
X009176Y004484D01*
X009274Y004386D02*
X012357Y004386D01*
X012455Y004287D02*
X009373Y004287D01*
X009471Y004189D02*
X012554Y004189D01*
X012867Y004189D02*
X012967Y004189D01*
X012967Y004287D02*
X012867Y004287D01*
X012867Y004386D02*
X012967Y004386D01*
X012967Y004484D02*
X012867Y004484D01*
X012867Y004583D02*
X012967Y004583D01*
X012967Y004681D02*
X012867Y004681D01*
X012917Y004744D02*
X013567Y004744D01*
X014126Y004185D01*
X016972Y004185D01*
X017407Y003750D01*
X017407Y003550D01*
X017817Y003550D01*
X017787Y003580D02*
X017787Y003520D01*
X017407Y003520D01*
X017407Y003380D01*
X017647Y003140D01*
X017787Y003140D01*
X017787Y003520D01*
X017847Y003520D01*
X017847Y003140D01*
X017987Y003140D01*
X018227Y003380D01*
X018227Y003520D01*
X017847Y003520D01*
X017847Y003580D01*
X017787Y003580D01*
X017407Y003580D01*
X017407Y003720D01*
X017647Y003960D01*
X017787Y003960D01*
X017787Y003580D01*
X017787Y003598D02*
X017847Y003598D01*
X017847Y003580D02*
X017847Y003960D01*
X017987Y003960D01*
X018227Y003720D01*
X018227Y003580D01*
X017847Y003580D01*
X017847Y003499D02*
X017787Y003499D01*
X017787Y003401D02*
X017847Y003401D01*
X017847Y003302D02*
X017787Y003302D01*
X017787Y003204D02*
X017847Y003204D01*
X017847Y003060D02*
X017847Y002680D01*
X018227Y002680D01*
X018227Y002820D01*
X017987Y003060D01*
X017847Y003060D01*
X017847Y003007D02*
X017787Y003007D01*
X017787Y002908D02*
X017847Y002908D01*
X017847Y002810D02*
X017787Y002810D01*
X017787Y002711D02*
X017847Y002711D01*
X017817Y002650D02*
X018227Y002650D01*
X018227Y002602D01*
X019676Y001153D01*
X019333Y001037D02*
X021783Y001037D01*
X021702Y001135D02*
X019234Y001135D01*
X019136Y001234D02*
X021661Y001234D01*
X021661Y001332D02*
X019037Y001332D01*
X018939Y001431D02*
X021602Y001431D01*
X021503Y001529D02*
X018840Y001529D01*
X018742Y001628D02*
X021405Y001628D01*
X021391Y001726D02*
X018643Y001726D01*
X018545Y001825D02*
X021391Y001825D01*
X021391Y001923D02*
X018446Y001923D01*
X018348Y002022D02*
X021391Y002022D01*
X021391Y002120D02*
X018249Y002120D01*
X018151Y002219D02*
X021391Y002219D01*
X021079Y002317D02*
X018064Y002317D01*
X018162Y002416D02*
X020980Y002416D01*
X020939Y002514D02*
X018227Y002514D01*
X018227Y002613D02*
X020926Y002613D01*
X020937Y002711D02*
X018227Y002711D01*
X018227Y002810D02*
X020978Y002810D01*
X021075Y002908D02*
X018139Y002908D01*
X018040Y003007D02*
X021391Y003007D01*
X021391Y003105D02*
X017117Y003105D01*
X017117Y003007D02*
X017594Y003007D01*
X017495Y002908D02*
X017139Y002908D01*
X017237Y002810D02*
X017407Y002810D01*
X017584Y003204D02*
X017117Y003204D01*
X017149Y003302D02*
X017485Y003302D01*
X017407Y003401D02*
X017247Y003401D01*
X017327Y003499D02*
X017407Y003499D01*
X017407Y003598D02*
X017327Y003598D01*
X017327Y003696D02*
X017407Y003696D01*
X017482Y003795D02*
X017327Y003795D01*
X017254Y003893D02*
X017580Y003893D01*
X017787Y003893D02*
X017847Y003893D01*
X017847Y003795D02*
X017787Y003795D01*
X017787Y003696D02*
X017847Y003696D01*
X018054Y003893D02*
X022174Y003893D01*
X022272Y003992D02*
X017155Y003992D01*
X017087Y004240D02*
X016747Y004240D01*
X016507Y004480D01*
X016507Y004820D01*
X016747Y005060D01*
X017087Y005060D01*
X017327Y004820D01*
X017327Y004480D01*
X017087Y004240D01*
X017134Y004287D02*
X017500Y004287D01*
X017407Y004380D02*
X017647Y004140D01*
X017987Y004140D01*
X018227Y004380D01*
X018227Y004720D01*
X017987Y004960D01*
X017647Y004960D01*
X017407Y004720D01*
X017407Y004380D01*
X017407Y004386D02*
X017232Y004386D01*
X017327Y004484D02*
X017407Y004484D01*
X017407Y004583D02*
X017327Y004583D01*
X017327Y004681D02*
X017407Y004681D01*
X017467Y004780D02*
X017327Y004780D01*
X017269Y004878D02*
X017565Y004878D01*
X017170Y004977D02*
X023257Y004977D01*
X023356Y005075D02*
X013506Y005075D01*
X013567Y004977D02*
X016664Y004977D01*
X016565Y004878D02*
X013567Y004878D01*
X013567Y004681D02*
X016507Y004681D01*
X016507Y004583D02*
X013567Y004583D01*
X013567Y004484D02*
X016507Y004484D01*
X016602Y004386D02*
X013477Y004386D01*
X013379Y004287D02*
X016700Y004287D01*
X016679Y003992D02*
X009668Y003992D01*
X009570Y004090D02*
X022371Y004090D01*
X022469Y004189D02*
X018035Y004189D01*
X018134Y004287D02*
X022568Y004287D01*
X022666Y004386D02*
X018227Y004386D01*
X018227Y004484D02*
X022765Y004484D01*
X022863Y004583D02*
X018227Y004583D01*
X018227Y004681D02*
X022962Y004681D01*
X023060Y004780D02*
X018167Y004780D01*
X018069Y004878D02*
X023159Y004878D01*
X023454Y005174D02*
X013407Y005174D01*
X013309Y005272D02*
X023553Y005272D01*
X023651Y005371D02*
X013210Y005371D01*
X012967Y005371D02*
X012867Y005371D01*
X012867Y005272D02*
X012967Y005272D01*
X012967Y005174D02*
X012867Y005174D01*
X012867Y005075D02*
X012967Y005075D01*
X012967Y004977D02*
X012867Y004977D01*
X012867Y004878D02*
X012967Y004878D01*
X012967Y004780D02*
X016507Y004780D01*
X017599Y004189D02*
X013280Y004189D01*
X012867Y004780D02*
X008880Y004780D01*
X008380Y005371D02*
X012624Y005371D01*
X010383Y003696D02*
X009851Y003696D01*
X009817Y003795D02*
X016507Y003795D01*
X016580Y003893D02*
X009767Y003893D01*
X009949Y003598D02*
X010285Y003598D01*
X010207Y003499D02*
X010027Y003499D01*
X010027Y003401D02*
X010207Y003401D01*
X010207Y003302D02*
X010027Y003302D01*
X010027Y003204D02*
X010207Y003204D01*
X010282Y003105D02*
X009952Y003105D01*
X009853Y003007D02*
X010381Y003007D01*
X010401Y002514D02*
X009833Y002514D01*
X009931Y002416D02*
X010303Y002416D01*
X010207Y002317D02*
X010027Y002317D01*
X010027Y002219D02*
X010207Y002219D01*
X010207Y002120D02*
X010027Y002120D01*
X010027Y002022D02*
X010207Y002022D01*
X010264Y001923D02*
X009970Y001923D01*
X009871Y001825D02*
X010363Y001825D01*
X009401Y002514D02*
X009131Y002514D01*
X009049Y002416D02*
X009303Y002416D01*
X008367Y003204D02*
X003867Y003204D01*
X003867Y003302D02*
X008367Y003302D01*
X008403Y003401D02*
X003867Y003401D01*
X003867Y003499D02*
X008465Y003499D01*
X008380Y005469D02*
X023750Y005469D01*
X023848Y005568D02*
X022800Y005568D01*
X022880Y005666D02*
X023947Y005666D01*
X024045Y005765D02*
X022920Y005765D01*
X022920Y005863D02*
X024144Y005863D01*
X024164Y005962D02*
X022982Y005962D01*
X023081Y006060D02*
X024164Y006060D01*
X024164Y006159D02*
X023179Y006159D01*
X023278Y006257D02*
X024164Y006257D01*
X022341Y005568D02*
X008380Y005568D01*
X008380Y005666D02*
X022261Y005666D01*
X022220Y005765D02*
X008380Y005765D01*
X008380Y005863D02*
X022220Y005863D01*
X022075Y003795D02*
X018152Y003795D01*
X018227Y003696D02*
X021977Y003696D01*
X021878Y003598D02*
X018227Y003598D01*
X018227Y003499D02*
X021780Y003499D01*
X021681Y003401D02*
X018227Y003401D01*
X018149Y003302D02*
X021583Y003302D01*
X021484Y003204D02*
X018050Y003204D01*
X018227Y001529D02*
X018274Y001529D01*
X018177Y001431D02*
X018373Y001431D01*
X018471Y001332D02*
X018079Y001332D01*
X018767Y001037D02*
X005624Y001037D01*
X005568Y000938D02*
X018865Y000938D01*
X018964Y000840D02*
X005512Y000840D01*
X005435Y000741D02*
X019062Y000741D01*
X019161Y000643D02*
X005337Y000643D01*
X007920Y006159D02*
X007980Y006159D01*
X006098Y008523D02*
X020826Y008523D01*
X020826Y008621D02*
X006188Y008621D01*
X006228Y008720D02*
X020826Y008720D01*
X020826Y008818D02*
X006247Y008818D01*
X006247Y008917D02*
X020826Y008917D01*
X020826Y009015D02*
X006214Y009015D01*
X006162Y009114D02*
X020826Y009114D01*
X020826Y009212D02*
X006063Y009212D01*
X006083Y009508D02*
X020826Y009508D01*
X019698Y010197D02*
X019136Y010197D01*
X019242Y010296D02*
X019592Y010296D01*
X019538Y010394D02*
X019296Y010394D01*
X019327Y010493D02*
X019507Y010493D01*
X019507Y010591D02*
X019327Y010591D01*
X019303Y010690D02*
X019531Y010690D01*
X019575Y010788D02*
X019259Y010788D01*
X019160Y010887D02*
X019674Y010887D01*
X017398Y010182D02*
X024364Y017148D01*
X024364Y017450D01*
X024044Y015418D02*
X024009Y015418D01*
X023911Y015319D02*
X024109Y015319D01*
X024164Y015221D02*
X023812Y015221D01*
X023714Y015122D02*
X024164Y015122D01*
X024164Y015024D02*
X023705Y015024D01*
X023718Y014925D02*
X024164Y014925D01*
X024164Y014827D02*
X023707Y014827D01*
X023666Y014728D02*
X024164Y014728D01*
X024164Y014630D02*
X023569Y014630D01*
X028075Y018373D02*
X031717Y018373D01*
X031717Y018471D02*
X028173Y018471D01*
X017222Y010985D02*
X016553Y010985D01*
X016678Y010887D02*
X017123Y010887D01*
X014999Y011281D02*
X003867Y011281D01*
X003867Y011379D02*
X014900Y011379D01*
X005556Y010197D02*
X005078Y010197D01*
X005177Y010099D02*
X005457Y010099D01*
X005387Y010000D02*
X005247Y010000D01*
X005247Y009902D02*
X005387Y009902D01*
X005387Y009803D02*
X005247Y009803D01*
X005247Y009705D02*
X005387Y009705D01*
X005453Y009606D02*
X005181Y009606D01*
X005083Y009508D02*
X005551Y009508D01*
X005571Y009212D02*
X005063Y009212D01*
X005162Y009114D02*
X005472Y009114D01*
X005420Y009015D02*
X005247Y009015D01*
X005247Y008917D02*
X005387Y008917D01*
X005387Y008818D02*
X005247Y008818D01*
X005247Y008720D02*
X005406Y008720D01*
X005446Y008621D02*
X005196Y008621D01*
X005098Y008523D02*
X005536Y008523D01*
X004581Y011478D02*
X003867Y011478D01*
X003867Y011576D02*
X004483Y011576D01*
X004387Y011675D02*
X003867Y011675D01*
X003867Y011773D02*
X004387Y011773D01*
X004387Y011872D02*
X003867Y011872D01*
X003867Y011970D02*
X004387Y011970D01*
X004427Y012069D02*
X003867Y012069D01*
X003867Y012167D02*
X004526Y012167D01*
X004611Y013448D02*
X003867Y013448D01*
X003867Y013546D02*
X004513Y013546D01*
X004414Y013645D02*
X003867Y013645D01*
X003867Y013743D02*
X004387Y013743D01*
X004387Y013842D02*
X003867Y013842D01*
X003867Y013940D02*
X004387Y013940D01*
X004397Y014039D02*
X003867Y014039D01*
X003867Y014137D02*
X004496Y014137D01*
X005046Y018471D02*
X005588Y018471D01*
X005489Y018570D02*
X005145Y018570D01*
X005243Y018668D02*
X005391Y018668D01*
X005387Y018767D02*
X005247Y018767D01*
X005247Y018865D02*
X005387Y018865D01*
X005387Y018964D02*
X005247Y018964D01*
X005213Y019062D02*
X005421Y019062D01*
X005519Y019161D02*
X005115Y019161D01*
X005016Y019259D02*
X005618Y019259D01*
X005603Y019456D02*
X005031Y019456D01*
X005130Y019555D02*
X005504Y019555D01*
X005406Y019653D02*
X005228Y019653D01*
X005247Y019752D02*
X005387Y019752D01*
X005387Y019850D02*
X005247Y019850D01*
X005247Y019949D02*
X005387Y019949D01*
X005406Y020047D02*
X005228Y020047D01*
X005130Y020146D02*
X005504Y020146D01*
X005603Y020244D02*
X005031Y020244D01*
X005016Y020441D02*
X005618Y020441D01*
X005519Y020540D02*
X005115Y020540D01*
X005213Y020638D02*
X005421Y020638D01*
X005387Y020737D02*
X005247Y020737D01*
X005247Y020835D02*
X005387Y020835D01*
X005387Y020934D02*
X005247Y020934D01*
X005243Y021032D02*
X005391Y021032D01*
X005490Y021131D02*
X005145Y021131D01*
X005046Y021229D02*
X005588Y021229D01*
X004588Y021229D02*
X003867Y021229D01*
X003867Y021131D02*
X004490Y021131D01*
X004391Y021032D02*
X003867Y021032D01*
X003867Y020934D02*
X004387Y020934D01*
X004387Y020835D02*
X003867Y020835D01*
X003867Y020737D02*
X004387Y020737D01*
X004421Y020638D02*
X003867Y020638D01*
X003867Y020540D02*
X004519Y020540D01*
X004618Y019259D02*
X003867Y019259D01*
X003867Y019161D02*
X004519Y019161D01*
X004421Y019062D02*
X003867Y019062D01*
X003867Y018964D02*
X004387Y018964D01*
X004387Y018865D02*
X003867Y018865D01*
X003867Y018767D02*
X004387Y018767D01*
X004391Y018668D02*
X003867Y018668D01*
X003867Y018570D02*
X004489Y018570D01*
X005524Y027139D02*
X040610Y027139D01*
X040677Y027238D02*
X005457Y027238D01*
X041967Y025563D02*
X042267Y025563D01*
X042267Y025662D02*
X042138Y025662D01*
X042254Y025760D02*
X042267Y025760D01*
X022645Y003587D02*
X022645Y000811D01*
X024953Y001310D02*
X027040Y001310D01*
X027187Y001310D02*
X027328Y001170D01*
X027651Y001037D02*
X029131Y001037D01*
X029230Y001135D02*
X027678Y001135D01*
X027678Y001234D02*
X029328Y001234D01*
X029427Y001332D02*
X027639Y001332D01*
X027562Y001431D02*
X029525Y001431D01*
X034162Y002416D02*
X041321Y002416D01*
D24*
X033216Y002344D03*
X031862Y003485D03*
X032023Y004502D03*
X026429Y005313D03*
X024705Y005528D03*
X022570Y005833D03*
X021026Y007176D03*
X017398Y010182D03*
X016400Y010669D03*
X023368Y014923D03*
X024364Y015560D03*
X022370Y016351D03*
X024364Y017450D03*
X024020Y017950D03*
X026219Y018823D03*
X027917Y019016D03*
X028407Y016218D03*
X027795Y012773D03*
X026198Y012850D03*
X025652Y012404D03*
X024364Y012607D03*
X023855Y012542D03*
X028193Y010624D03*
X033221Y010511D03*
X025398Y003612D03*
X023142Y002180D03*
X022011Y001304D03*
X021276Y002614D03*
X022645Y003587D03*
X024953Y001310D03*
X027328Y001170D03*
X019676Y001153D03*
X020074Y016865D03*
X019895Y017403D03*
X020254Y018450D03*
X018597Y017450D03*
X010855Y017530D03*
X008950Y019915D03*
D25*
X012217Y022350D02*
X010218Y024349D01*
X008508Y024349D01*
X013217Y020150D02*
X013727Y020150D01*
X016072Y022495D01*
X016217Y022350D01*
X016072Y022495D02*
X016072Y022495D01*
X016072Y022885D01*
X015617Y023340D01*
X015617Y023850D01*
X032017Y021750D02*
X032017Y015350D01*
M02*
