%
M48
M72
T01C0.0240
T02C0.0315
T03C0.0320
T04C0.0360
T05C0.0374
T06C0.0402
T07C0.0440
T08C0.0520
T09C0.0906
T10C0.1181
T11C0.1260
%
T01
X18196Y10594
X17627Y12473
X23502Y13922
X23684Y14627
X26665Y15203
X26915Y13174
X25637Y12362
X24362Y12798
X28229Y11032
X28235Y9498
X25957Y5515
X21757Y2932
X23418Y2181
X24479Y1539
X21786Y1357
X20560Y4538
X20903Y5688
X27868Y1193
X28647Y2478
X32002Y4502
X20497Y17329
X19720Y17406
X20285Y18205
X17967Y17280
X24351Y17450
X24335Y17966
X26606Y20394
X36889Y25400
X8694Y19790
X8183Y14534
T02
X7515Y6538
X6964Y5593
X4444Y4550
X5743Y2759
X8775Y2975
X37560Y6525
X40591Y6741
X41890Y4950
X39371Y3907
X38819Y2962
T03
X33917Y2750
X33917Y3750
X26617Y7050
X26617Y8050
X20517Y10550
X19517Y10550
X17917Y4650
X16917Y4650
X16917Y3650
X17917Y3650
X17817Y2650
X16917Y2550
X16917Y1550
X17817Y1650
X10617Y2150
X9617Y2150
X9617Y3350
X10617Y3350
X29167Y14900
X32167Y14900
X33667Y14900
X36667Y14900
X36417Y21650
X33417Y21650
X32167Y21650
X29167Y21650
X15617Y23850
X12617Y23850
X12817Y26150
X13817Y26150
X8017Y20250
X8017Y19250
X7817Y17350
X7817Y15950
X9817Y15950
X9817Y17350
X13217Y19050
X13217Y20050
T04
X15217Y16300
X15217Y15300
X5817Y14850
X4817Y14850
X4817Y15850
X5817Y15850
X5817Y16850
X4817Y16850
X4817Y17850
X5817Y17850
X5817Y18850
X4817Y18850
X4817Y19850
X5817Y19850
X5817Y20850
X4817Y20850
X4817Y13850
X5817Y13850
X5817Y12850
X4817Y12850
X4817Y11850
X5817Y11850
X5817Y10850
X4817Y10850
X4817Y9850
X5817Y9850
X5817Y8850
X4817Y8850
T05
X39350Y10572
X39350Y11556
X39350Y12344
X39350Y13328
T06
X39116Y18978
X37935Y18978
X37935Y20159
X39116Y20159
X39116Y21341
X37935Y21341
X37935Y22522
X39116Y22522
X8508Y23168
X7327Y23168
X7327Y24349
X8508Y24349
T07
X12217Y22350
X16217Y22350
X15417Y13200
X11417Y13200
X13417Y6200
T08
X26317Y10250
T09
X40417Y9363
X40417Y14537
T10
X40817Y19825
X40817Y21675
X7917Y26050
T11
X4617Y1450
X41517Y1350
X41517Y26550
X4617Y26550
M30
