G75*
G70*
%OFA0B0*%
%FSLAX25Y25*%
%IPPOS*%
%LPD*%
%AMOC8*
5,1,8,0,0,1.08239X$1,22.5*
%
%ADD10R,0.05920X0.06710*%
%ADD106R,0.06000X0.03000*%
%ADD110C,0.05950*%
%ADD113OC8,0.09300*%
%ADD114R,0.06000X0.02500*%
%ADD117C,0.06000*%
%ADD118R,0.13400X0.06780*%
%ADD121C,0.06540*%
%ADD124C,0.09860*%
%ADD126R,0.06780X0.05520*%
%ADD127C,0.06400*%
%ADD128R,0.02200X0.06600*%
%ADD130R,0.06500X0.04400*%
%ADD131R,0.03560X0.03560*%
%ADD132C,0.07400*%
%ADD133R,0.03000X0.08600*%
%ADD134R,0.09800X0.09800*%
%ADD136R,0.18910X0.32300*%
%ADD137R,0.07100X0.02900*%
%ADD140R,0.08600X0.03000*%
%ADD142C,0.13400*%
%ADD144C,0.04800*%
%ADD145R,0.05520X0.06780*%
%ADD147R,0.04340X0.03560*%
%ADD148R,0.05000X0.01800*%
%ADD18R,0.03950X0.03950*%
%ADD20OC8,0.06000*%
%ADD22R,0.03000X0.06000*%
%ADD26R,0.04740X0.04740*%
%ADD28R,0.05130X0.04740*%
%ADD30R,0.06710X0.05920*%
%ADD36R,0.12610X0.11820*%
%ADD39R,0.03560X0.04340*%
%ADD40OC8,0.06400*%
%ADD43R,0.02000X0.03200*%
%ADD44R,0.07490X0.03360*%
%ADD49R,0.06600X0.02200*%
%ADD51R,0.04740X0.05130*%
%ADD55R,0.07890X0.07100*%
%ADD58R,0.05400X0.02200*%
%ADD59R,0.04700X0.02000*%
%ADD60R,0.06780X0.13400*%
%ADD61OC8,0.10800*%
%ADD67R,0.08670X0.04740*%
%ADD69C,0.12610*%
%ADD71R,0.08670X0.05920*%
%ADD72R,0.06820X0.06820*%
%ADD74R,0.07890X0.10250*%
%ADD75R,0.02200X0.05400*%
%ADD82R,0.05920X0.05920*%
%ADD88R,0.04760X0.04760*%
%ADD89R,0.07100X0.07890*%
%ADD91R,0.02900X0.08600*%
%ADD96R,0.22060X0.16550*%
%ADD97C,0.06820*%
%ADD99R,0.12610X0.06710*%
X0010000Y0010000D02*
G75*
%LPD*%
D142*
X0022000Y0022000D03*
X0022000Y0271000D03*
X0390000Y0272000D03*
X0392000Y0023000D03*
D148*
X0064600Y0160000D03*
X0064600Y0162000D03*
X0064600Y0164000D03*
X0064600Y0166000D03*
X0053400Y0166000D03*
X0053400Y0164000D03*
X0053400Y0162000D03*
X0053400Y0160000D03*
D140*
X0072300Y0197500D03*
X0072300Y0202500D03*
X0072300Y0207500D03*
X0072300Y0212500D03*
X0091700Y0212500D03*
X0091700Y0207500D03*
X0091700Y0202500D03*
X0091700Y0197500D03*
D20*
X0108000Y0199000D03*
X0108000Y0209000D03*
X0070000Y0185000D03*
X0069000Y0174000D03*
X0050000Y0185000D03*
X0049000Y0174000D03*
X0056000Y0201000D03*
X0056000Y0211000D03*
X0097000Y0247000D03*
X0098000Y0267000D03*
X0088000Y0267000D03*
X0127000Y0247000D03*
X0145000Y0055000D03*
X0155000Y0055000D03*
X0155000Y0045000D03*
X0145000Y0045000D03*
X0154000Y0035000D03*
X0145000Y0034000D03*
X0154000Y0025000D03*
X0145000Y0024000D03*
X0082000Y0030000D03*
X0072000Y0030000D03*
X0072000Y0042000D03*
X0082000Y0042000D03*
X0315000Y0046000D03*
X0315000Y0036000D03*
D128*
X0304700Y0036500D03*
X0302100Y0036500D03*
X0299600Y0036500D03*
X0297000Y0036500D03*
X0294400Y0036500D03*
X0291900Y0036500D03*
X0289300Y0036500D03*
X0289300Y0059500D03*
X0291900Y0059500D03*
X0294400Y0059500D03*
X0297000Y0059500D03*
X0299600Y0059500D03*
X0302100Y0059500D03*
X0304700Y0059500D03*
D61*
X0130000Y0140500D03*
X0090000Y0140500D03*
X0110000Y0070500D03*
D91*
X0164500Y0080300D03*
X0169500Y0080300D03*
X0174500Y0080300D03*
X0179500Y0080300D03*
X0179500Y0099700D03*
X0174500Y0099700D03*
X0169500Y0099700D03*
X0164500Y0099700D03*
D106*
X0247000Y0142000D03*
X0247000Y0150000D03*
X0255000Y0146000D03*
X0247000Y0161000D03*
X0247000Y0169000D03*
X0255000Y0165000D03*
X0247000Y0177000D03*
X0247000Y0185000D03*
X0255000Y0181000D03*
X0247000Y0198000D03*
X0247000Y0206000D03*
X0255000Y0202000D03*
D75*
X0271400Y0096100D03*
X0276600Y0096100D03*
X0276600Y0087900D03*
X0274000Y0087900D03*
X0271400Y0087900D03*
D133*
X0225500Y0224300D03*
X0220500Y0224300D03*
X0215500Y0224300D03*
X0210500Y0224300D03*
X0210500Y0243700D03*
X0215500Y0243700D03*
X0220500Y0243700D03*
X0225500Y0243700D03*
D132*
X0138000Y0232000D03*
X0098000Y0232000D03*
D26*
X0259000Y0219000D03*
D30*
X0240000Y0246260D03*
X0240000Y0253740D03*
X0204000Y0238740D03*
X0204000Y0231260D03*
X0286000Y0096740D03*
X0286000Y0089260D03*
D55*
X0261000Y0087490D03*
X0261000Y0098510D03*
X0252000Y0245490D03*
X0252000Y0256510D03*
D74*
X0223970Y0256000D03*
X0208030Y0256000D03*
D121*
X0366460Y0141780D02*
X0372200Y0141780D01*
X0372200Y0131940D02*
X0366460Y0131940D01*
X0366460Y0124060D02*
X0372200Y0124060D01*
X0372200Y0114220D02*
X0366460Y0114220D01*
D124*
X0380000Y0102140D03*
X0380000Y0153870D03*
D117*
X0343600Y0158000D02*
X0338400Y0158000D01*
X0313600Y0158000D02*
X0308400Y0158000D01*
X0299600Y0158000D02*
X0294400Y0158000D01*
X0269600Y0158000D02*
X0264400Y0158000D01*
X0263400Y0212000D02*
X0268600Y0212000D01*
X0293400Y0212000D02*
X0298600Y0212000D01*
X0308400Y0212000D02*
X0313600Y0212000D01*
X0338400Y0212000D02*
X0343600Y0212000D01*
D58*
X0193800Y0043600D03*
X0193800Y0038400D03*
X0186200Y0038400D03*
X0186200Y0041000D03*
X0186200Y0043600D03*
X0186200Y0026600D03*
X0186200Y0024000D03*
X0186200Y0021400D03*
X0193800Y0021400D03*
X0193800Y0026600D03*
X0216200Y0026600D03*
X0216200Y0024000D03*
X0216200Y0021400D03*
X0223800Y0021400D03*
X0223800Y0026600D03*
X0235200Y0026600D03*
X0235200Y0024000D03*
X0235200Y0021400D03*
X0242800Y0021400D03*
X0242800Y0026600D03*
D147*
X0281000Y0045440D03*
X0281000Y0050560D03*
X0225000Y0085440D03*
X0225000Y0090560D03*
X0183000Y0171440D03*
X0183000Y0176560D03*
X0175000Y0176560D03*
X0175000Y0171440D03*
X0168000Y0171440D03*
X0168000Y0176560D03*
X0168000Y0189440D03*
X0175000Y0189440D03*
X0175000Y0194560D03*
X0168000Y0194560D03*
X0183000Y0194560D03*
X0183000Y0189440D03*
D82*
X0322470Y0055180D03*
X0331530Y0055180D03*
D71*
X0327000Y0076830D03*
D39*
X0299560Y0069000D03*
X0294440Y0069000D03*
X0257560Y0077000D03*
X0252440Y0077000D03*
X0252440Y0047000D03*
X0257560Y0047000D03*
X0269440Y0034000D03*
X0274560Y0034000D03*
X0274560Y0028000D03*
X0269440Y0028000D03*
X0294440Y0027000D03*
X0299560Y0027000D03*
X0238560Y0037000D03*
X0233440Y0037000D03*
X0223560Y0037000D03*
X0218440Y0037000D03*
X0096560Y0041000D03*
X0091440Y0041000D03*
X0091440Y0022000D03*
X0096560Y0022000D03*
D117*
X0171000Y0114000D03*
X0181000Y0114000D03*
X0252000Y0068000D03*
X0252000Y0058000D03*
D44*
X0230820Y0128000D03*
X0230820Y0133000D03*
X0230820Y0138000D03*
X0230820Y0143000D03*
X0230820Y0148000D03*
X0230820Y0153000D03*
X0230820Y0158000D03*
X0230820Y0163000D03*
X0230820Y0168000D03*
X0230820Y0173000D03*
X0230820Y0178000D03*
X0230820Y0183000D03*
X0230820Y0188000D03*
X0230820Y0193000D03*
X0193180Y0193000D03*
X0193180Y0188000D03*
X0193180Y0183000D03*
X0193180Y0178000D03*
X0193180Y0173000D03*
X0193180Y0168000D03*
X0193180Y0163000D03*
X0193180Y0158000D03*
X0193180Y0153000D03*
X0193180Y0148000D03*
X0193180Y0143000D03*
X0193180Y0138000D03*
X0193180Y0133000D03*
X0193180Y0128000D03*
D110*
X0063580Y0040830D02*
X0063580Y0035680D01*
X0035840Y0036090D02*
X0030690Y0036090D01*
X0020270Y0051430D02*
X0020270Y0056580D01*
X0042890Y0064430D02*
X0048040Y0064430D01*
X0048400Y0073880D02*
X0053550Y0073880D01*
X0351430Y0076320D02*
X0351430Y0071180D01*
X0379170Y0075920D02*
X0384320Y0075920D01*
X0394730Y0060580D02*
X0394730Y0055430D01*
X0372110Y0047570D02*
X0366960Y0047570D01*
X0366600Y0038120D02*
X0361450Y0038120D01*
D113*
X0225000Y0103000D03*
D114*
X0089000Y0160200D03*
X0089000Y0162700D03*
X0089000Y0165300D03*
X0089000Y0167800D03*
X0079000Y0167800D03*
X0079000Y0165300D03*
X0079000Y0162700D03*
X0079000Y0160200D03*
D127*
X0102200Y0159000D02*
X0107800Y0159000D01*
X0107800Y0169000D02*
X0102200Y0169000D01*
D67*
X0266830Y0170000D03*
X0266830Y0180000D03*
X0266830Y0190000D03*
X0266830Y0200000D03*
X0295170Y0200000D03*
X0295170Y0190000D03*
X0295170Y0180000D03*
X0295170Y0170000D03*
X0311830Y0172000D03*
X0311830Y0182000D03*
X0311830Y0192000D03*
X0311830Y0202000D03*
X0294170Y0223000D03*
X0294170Y0233000D03*
X0294170Y0243000D03*
X0294170Y0253000D03*
X0307830Y0254000D03*
X0307830Y0244000D03*
X0307830Y0234000D03*
X0307830Y0224000D03*
X0336170Y0224000D03*
X0336170Y0234000D03*
X0336170Y0244000D03*
X0336170Y0254000D03*
X0265830Y0253000D03*
X0265830Y0243000D03*
X0265830Y0233000D03*
X0265830Y0223000D03*
X0340170Y0202000D03*
X0340170Y0192000D03*
X0340170Y0182000D03*
X0340170Y0172000D03*
D131*
X0261000Y0039000D03*
X0261000Y0033000D03*
X0251000Y0033000D03*
X0251000Y0039000D03*
X0155000Y0109000D03*
X0155000Y0117000D03*
D145*
X0069310Y0225800D03*
X0052300Y0225800D03*
D126*
X0083800Y0224690D03*
X0083800Y0241700D03*
D43*
X0214250Y0077000D03*
X0216750Y0077000D03*
X0219250Y0077000D03*
X0221750Y0077000D03*
X0224250Y0077000D03*
X0226750Y0077000D03*
X0229250Y0077000D03*
X0231750Y0077000D03*
X0234250Y0077000D03*
X0236750Y0077000D03*
X0239250Y0077000D03*
X0241750Y0077000D03*
X0241750Y0047000D03*
X0239250Y0047000D03*
X0236750Y0047000D03*
X0234250Y0047000D03*
X0231750Y0047000D03*
X0229250Y0047000D03*
X0226750Y0047000D03*
X0224250Y0047000D03*
X0221750Y0047000D03*
X0219250Y0047000D03*
X0216750Y0047000D03*
X0214250Y0047000D03*
D18*
X0212240Y0084000D03*
X0218150Y0084000D03*
X0105000Y0041150D03*
X0105000Y0035250D03*
X0105000Y0027760D03*
X0105000Y0021850D03*
D99*
X0243000Y0218490D03*
X0243000Y0230300D03*
D96*
X0172390Y0214140D03*
X0172390Y0256260D03*
D97*
X0060910Y0251990D03*
X0060910Y0240180D03*
X0049100Y0240180D03*
X0355180Y0233720D03*
X0355180Y0221910D03*
X0366990Y0221910D03*
X0366990Y0210100D03*
X0355180Y0210100D03*
X0355180Y0198290D03*
X0366990Y0198290D03*
D72*
X0366990Y0233720D03*
X0049100Y0251990D03*
D69*
X0055000Y0269000D03*
X0384000Y0225250D03*
X0384000Y0206750D03*
D127*
X0034000Y0097000D03*
D40*
X0024000Y0097000D03*
X0024000Y0107000D03*
X0034000Y0107000D03*
X0034000Y0117000D03*
X0024000Y0117000D03*
X0024000Y0127000D03*
X0034000Y0127000D03*
X0034000Y0137000D03*
X0024000Y0137000D03*
X0024000Y0147000D03*
X0034000Y0147000D03*
X0034000Y0157000D03*
X0024000Y0157000D03*
X0024000Y0167000D03*
X0034000Y0167000D03*
X0034000Y0177000D03*
X0024000Y0177000D03*
X0024000Y0187000D03*
X0034000Y0187000D03*
X0034000Y0197000D03*
X0024000Y0197000D03*
X0024000Y0207000D03*
X0034000Y0207000D03*
X0034000Y0217000D03*
X0024000Y0217000D03*
X0010000Y0331210D02*
G75*
%LPD*%
D142*
X0025000Y0346210D03*
X0270000Y0346210D03*
X0265000Y0551210D03*
X0025000Y0551210D03*
D49*
X0138500Y0492810D03*
X0138500Y0490310D03*
X0138500Y0487710D03*
X0138500Y0485210D03*
X0138500Y0482610D03*
X0138500Y0480010D03*
X0138500Y0477510D03*
X0138500Y0474910D03*
X0138500Y0472410D03*
X0138500Y0469810D03*
X0138500Y0467210D03*
X0138500Y0464710D03*
X0138500Y0462110D03*
X0138500Y0459610D03*
X0161500Y0459610D03*
X0161500Y0462110D03*
X0161500Y0464710D03*
X0161500Y0467210D03*
X0161500Y0469810D03*
X0161500Y0472410D03*
X0161500Y0474910D03*
X0161500Y0477510D03*
X0161500Y0480010D03*
X0161500Y0482610D03*
X0161500Y0485210D03*
X0161500Y0487710D03*
X0161500Y0490310D03*
X0161500Y0492810D03*
D140*
X0089700Y0458710D03*
X0089700Y0453710D03*
X0089700Y0448710D03*
X0089700Y0443710D03*
X0070300Y0443710D03*
X0070300Y0448710D03*
X0070300Y0453710D03*
X0070300Y0458710D03*
X0070300Y0428710D03*
X0070300Y0423710D03*
X0070300Y0418710D03*
X0070300Y0413710D03*
X0089700Y0413710D03*
X0089700Y0418710D03*
X0089700Y0423710D03*
X0089700Y0428710D03*
D20*
X0085000Y0406210D03*
X0075000Y0406210D03*
X0075000Y0376210D03*
X0085000Y0376210D03*
X0193030Y0465150D03*
X0223030Y0465150D03*
D22*
X0203700Y0525810D03*
X0200000Y0525810D03*
X0196300Y0525810D03*
X0196300Y0536610D03*
X0203700Y0536610D03*
D36*
X0220280Y0496210D03*
X0179730Y0496210D03*
D51*
X0155000Y0522860D03*
X0155000Y0529560D03*
X0196660Y0546210D03*
X0203350Y0546210D03*
X0090000Y0542860D03*
X0090000Y0549560D03*
D130*
X0215000Y0534410D03*
X0215000Y0528010D03*
D145*
X0083270Y0490460D03*
X0066260Y0490460D03*
X0066660Y0477080D03*
X0083660Y0477080D03*
D44*
X0186180Y0433770D03*
X0186180Y0428770D03*
X0186180Y0423770D03*
X0186180Y0418770D03*
X0186180Y0413770D03*
X0186180Y0408770D03*
X0186180Y0403770D03*
X0186180Y0398770D03*
X0186180Y0393770D03*
X0186180Y0388770D03*
X0186180Y0383770D03*
X0186180Y0378770D03*
X0186180Y0373770D03*
X0186180Y0368770D03*
X0223820Y0368770D03*
X0223820Y0373770D03*
X0223820Y0378770D03*
X0223820Y0383770D03*
X0223820Y0388770D03*
X0223820Y0393770D03*
X0223820Y0398770D03*
X0223820Y0403770D03*
X0223820Y0408770D03*
X0223820Y0413770D03*
X0223820Y0418770D03*
X0223820Y0423770D03*
X0223820Y0428770D03*
X0223820Y0433770D03*
D59*
X0151490Y0385280D03*
X0151490Y0382730D03*
X0151490Y0380170D03*
X0151490Y0377610D03*
X0151490Y0375050D03*
X0151490Y0372490D03*
X0151490Y0369930D03*
X0151490Y0367370D03*
X0151490Y0364810D03*
X0151490Y0362250D03*
X0151490Y0359690D03*
X0151490Y0357140D03*
X0128510Y0357140D03*
X0128510Y0359690D03*
X0128510Y0362250D03*
X0128510Y0364810D03*
X0128510Y0367370D03*
X0128510Y0369930D03*
X0128510Y0372490D03*
X0128510Y0375050D03*
X0128510Y0377610D03*
X0128510Y0380170D03*
X0128510Y0382730D03*
X0128510Y0385280D03*
D136*
X0140080Y0371290D03*
D58*
X0130240Y0430970D03*
X0130240Y0436170D03*
X0122040Y0436170D03*
X0122040Y0433570D03*
X0122040Y0430970D03*
X0196200Y0448610D03*
X0196200Y0451210D03*
X0196200Y0453810D03*
X0203800Y0453810D03*
X0203800Y0448610D03*
X0216200Y0448610D03*
X0216200Y0453810D03*
X0223800Y0453810D03*
X0223800Y0451210D03*
X0223800Y0448610D03*
D137*
X0131410Y0533710D03*
X0131410Y0538710D03*
X0131410Y0543710D03*
X0131410Y0548710D03*
X0110410Y0548710D03*
X0110410Y0543710D03*
X0110410Y0538710D03*
X0110410Y0533710D03*
D134*
X0120910Y0541210D03*
D110*
X0053520Y0401090D02*
X0048370Y0401090D01*
X0048010Y0391640D02*
X0042860Y0391640D01*
X0020240Y0383780D02*
X0020240Y0378640D01*
X0030660Y0363300D02*
X0035810Y0363300D01*
X0063550Y0362890D02*
X0063550Y0368040D01*
D18*
X0075000Y0369360D03*
X0075000Y0363450D03*
D72*
X0042010Y0420300D03*
X0042010Y0465300D03*
X0042010Y0510300D03*
D97*
X0053820Y0510300D03*
X0053820Y0522120D03*
X0042010Y0522120D03*
X0042010Y0477120D03*
X0053820Y0477120D03*
X0053820Y0465300D03*
X0053820Y0432120D03*
X0042010Y0432120D03*
X0053820Y0420300D03*
X0236180Y0511210D03*
X0247990Y0511210D03*
X0249960Y0369240D03*
X0238150Y0369240D03*
D69*
X0266970Y0369240D03*
X0265000Y0511210D03*
X0025000Y0516210D03*
X0025000Y0471210D03*
X0025000Y0426210D03*
D39*
X0097440Y0390150D03*
X0102560Y0390150D03*
X0112440Y0390150D03*
X0117560Y0390150D03*
X0112950Y0341050D03*
X0107840Y0341050D03*
X0099180Y0341050D03*
X0094060Y0341050D03*
X0232440Y0471210D03*
X0232440Y0476210D03*
X0237560Y0476210D03*
X0237560Y0471210D03*
X0122800Y0478850D03*
X0117680Y0478850D03*
X0117680Y0484750D03*
X0122800Y0484750D03*
X0122800Y0490660D03*
X0117680Y0490660D03*
X0107050Y0490660D03*
X0101930Y0490660D03*
X0101930Y0484750D03*
X0107050Y0484750D03*
X0107050Y0478850D03*
X0101930Y0478850D03*
D30*
X0110400Y0437310D03*
X0110400Y0429830D03*
X0185000Y0457310D03*
X0185000Y0464790D03*
X0118270Y0364480D03*
X0118270Y0357000D03*
D55*
X0141890Y0428060D03*
X0141890Y0439080D03*
X0080000Y0540700D03*
X0080000Y0551720D03*
D10*
X0117920Y0520270D03*
X0124610Y0520270D03*
X0111850Y0404080D03*
X0104370Y0404080D03*
X0102320Y0382390D03*
X0094840Y0382390D03*
X0094840Y0370580D03*
X0102320Y0370580D03*
X0102320Y0360740D03*
X0094840Y0360740D03*
X0094840Y0348930D03*
X0102320Y0348930D03*
X0136660Y0396210D03*
X0143350Y0396210D03*
X0165710Y0378450D03*
X0173190Y0378450D03*
X0173190Y0366640D03*
X0165710Y0366640D03*
X0165710Y0354830D03*
X0173190Y0354830D03*
X0173190Y0341050D03*
X0165710Y0341050D03*
D147*
X0234770Y0394400D03*
X0239770Y0394400D03*
X0244770Y0394400D03*
X0244770Y0399520D03*
X0239770Y0399520D03*
X0234770Y0399520D03*
X0234770Y0409400D03*
X0239770Y0409400D03*
X0244770Y0409400D03*
X0244770Y0414520D03*
X0239770Y0414520D03*
X0234770Y0414520D03*
D28*
X0145000Y0522860D03*
X0145000Y0529560D03*
X0145000Y0537860D03*
X0145000Y0544560D03*
D132*
X0065000Y0551210D03*
X0065000Y0511210D03*
D127*
X0270910Y0400300D03*
D40*
X0260910Y0400300D03*
X0260910Y0410300D03*
X0270910Y0410300D03*
X0270910Y0420300D03*
X0260910Y0420300D03*
X0260910Y0430300D03*
X0270910Y0430300D03*
X0270910Y0440300D03*
X0260910Y0440300D03*
X0260910Y0450300D03*
X0270910Y0450300D03*
X0270910Y0460300D03*
X0260910Y0460300D03*
X0260910Y0470300D03*
X0270910Y0470300D03*
D118*
X0179920Y0527390D03*
X0179920Y0551880D03*
D88*
X0122210Y0461130D03*
X0116300Y0429640D03*
X0155670Y0425700D03*
X0126140Y0398140D03*
D144*
X0114330Y0396170D03*
X0122210Y0384360D03*
X0122210Y0370580D03*
X0124180Y0354830D03*
X0108430Y0346960D03*
X0155670Y0352860D03*
X0163550Y0372550D03*
X0169450Y0384360D03*
X0163550Y0390270D03*
X0157640Y0384360D03*
X0179290Y0376490D03*
X0198980Y0384360D03*
X0198980Y0390270D03*
X0204880Y0396170D03*
X0212760Y0398140D03*
X0216700Y0407980D03*
X0216700Y0417820D03*
X0230470Y0404040D03*
X0236380Y0404040D03*
X0242290Y0404040D03*
X0248190Y0404040D03*
X0254100Y0402080D03*
X0248190Y0390270D03*
X0242290Y0390270D03*
X0236380Y0388300D03*
X0242290Y0376490D03*
X0261970Y0390270D03*
X0252130Y0419790D03*
X0246220Y0419790D03*
X0240320Y0419790D03*
X0230470Y0439480D03*
X0238350Y0447350D03*
X0220630Y0457190D03*
X0210790Y0453260D03*
X0200950Y0443410D03*
X0197010Y0429640D03*
X0179290Y0404040D03*
X0179290Y0398140D03*
X0130080Y0419790D03*
X0104490Y0429640D03*
X0096620Y0419790D03*
X0082840Y0423730D03*
X0076930Y0425700D03*
X0082840Y0433570D03*
X0076930Y0435540D03*
X0067090Y0437510D03*
X0082840Y0449320D03*
X0098580Y0453260D03*
X0106460Y0453260D03*
X0120240Y0445380D03*
X0069060Y0463100D03*
X0063150Y0459160D03*
X0049370Y0425700D03*
X0067090Y0407980D03*
X0112360Y0484750D03*
X0118270Y0496560D03*
X0126140Y0504440D03*
X0128110Y0490660D03*
X0104490Y0545780D03*
X0094650Y0553650D03*
X0230470Y0488690D03*
X0242290Y0476880D03*
X0242290Y0465070D03*
X0232440Y0465070D03*
X0010000Y0567770D02*
G75*
%LPD*%
D142*
X0021810Y0579580D03*
X0021810Y0717380D03*
X0265910Y0717380D03*
X0265910Y0579580D03*
D49*
X0101500Y0646170D03*
X0101500Y0648670D03*
X0101500Y0651270D03*
X0101500Y0653770D03*
X0101500Y0656370D03*
X0101500Y0658970D03*
X0101500Y0661470D03*
X0101500Y0664070D03*
X0101500Y0666570D03*
X0101500Y0669170D03*
X0101500Y0671770D03*
X0101500Y0674270D03*
X0101500Y0676870D03*
X0101500Y0679370D03*
X0078500Y0679370D03*
X0078500Y0676870D03*
X0078500Y0674270D03*
X0078500Y0671770D03*
X0078500Y0669170D03*
X0078500Y0666570D03*
X0078500Y0664070D03*
X0078500Y0661470D03*
X0078500Y0658970D03*
X0078500Y0656370D03*
X0078500Y0653770D03*
X0078500Y0651270D03*
X0078500Y0648670D03*
X0078500Y0646170D03*
D106*
X0144600Y0646470D03*
X0144600Y0642770D03*
X0144600Y0639070D03*
X0155400Y0639070D03*
X0155400Y0646470D03*
X0155400Y0684070D03*
X0144600Y0684070D03*
X0144600Y0687770D03*
X0144600Y0691470D03*
X0155400Y0691470D03*
X0155400Y0596470D03*
X0144600Y0596470D03*
X0144600Y0592770D03*
X0144600Y0589070D03*
X0155400Y0589070D03*
D36*
X0179720Y0597770D03*
X0220280Y0597770D03*
X0220280Y0642770D03*
X0179720Y0642770D03*
X0179720Y0687770D03*
X0220280Y0687770D03*
D28*
X0165000Y0684420D03*
X0165000Y0691120D03*
X0165000Y0646120D03*
X0165000Y0639420D03*
X0165000Y0596120D03*
X0165000Y0589420D03*
X0063350Y0667770D03*
X0056650Y0667770D03*
X0053350Y0697770D03*
X0046650Y0697770D03*
D130*
X0120000Y0690970D03*
X0120000Y0684570D03*
X0120000Y0645970D03*
X0120000Y0639570D03*
X0125000Y0595970D03*
X0125000Y0589570D03*
D140*
X0094700Y0590270D03*
X0094700Y0595270D03*
X0094700Y0600270D03*
X0094700Y0605270D03*
X0075300Y0605270D03*
X0075300Y0600270D03*
X0075300Y0595270D03*
X0075300Y0590270D03*
D126*
X0059800Y0596470D03*
X0059800Y0579460D03*
D145*
X0048310Y0582570D03*
X0031300Y0582570D03*
D137*
X0024500Y0660270D03*
X0024500Y0665270D03*
X0024500Y0670270D03*
X0024500Y0675270D03*
X0045500Y0675270D03*
X0045500Y0670270D03*
X0045500Y0665270D03*
X0045500Y0660270D03*
D134*
X0035000Y0667770D03*
D89*
X0035510Y0697770D03*
X0024490Y0697770D03*
D51*
X0041650Y0682770D03*
X0048350Y0682770D03*
X0061650Y0682770D03*
X0068350Y0682770D03*
D10*
X0063350Y0657770D03*
X0056650Y0657770D03*
D132*
X0060000Y0637770D03*
X0020000Y0637770D03*
D20*
X0070000Y0627770D03*
X0070000Y0617770D03*
X0100000Y0617770D03*
X0100000Y0627770D03*
D72*
X0047010Y0606860D03*
X0247990Y0654580D03*
D97*
X0236180Y0654580D03*
X0236180Y0642770D03*
X0247990Y0642770D03*
X0247990Y0630960D03*
X0236180Y0630960D03*
X0058820Y0618680D03*
X0047010Y0618680D03*
X0058820Y0606860D03*
D69*
X0030000Y0612770D03*
X0265000Y0642770D03*
D60*
X0148820Y0612690D03*
X0124330Y0612690D03*
X0119330Y0667690D03*
X0143820Y0667690D03*
X0143820Y0712690D03*
X0119330Y0712690D03*
D39*
X0097560Y0702770D03*
X0092440Y0702770D03*
X0092440Y0697770D03*
X0097560Y0697770D03*
X0097560Y0692770D03*
X0092440Y0692770D03*
X0082560Y0692770D03*
X0077440Y0692770D03*
X0077440Y0697770D03*
X0082560Y0697770D03*
X0082560Y0702770D03*
X0077440Y0702770D03*
D144*
X0086770Y0703600D03*
X0094650Y0685880D03*
X0084800Y0681940D03*
X0084800Y0676040D03*
X0065120Y0674070D03*
X0084800Y0662260D03*
X0108430Y0676040D03*
X0114330Y0685880D03*
X0134020Y0685880D03*
X0137950Y0689820D03*
X0139920Y0679970D03*
X0137950Y0662260D03*
X0137950Y0644540D03*
X0139920Y0634700D03*
X0169450Y0634700D03*
X0200940Y0648480D03*
X0106460Y0634700D03*
X0086770Y0601230D03*
X0082830Y0595330D03*
X0031650Y0595330D03*
X0171420Y0589420D03*
X0025750Y0681940D03*
X0019840Y0683910D03*
X0043460Y0687850D03*
X0057240Y0687850D03*
X0041500Y0697690D03*
X0137950Y0707530D03*
M02*
