G75*
G70*
%OFA0B0*%
%FSLAX25Y25*%
%IPPOS*%
%LPD*%
%AMOC8*
5,1,8,0,0,1.08239X$1,22.5*
%
%ADD104OC8,0.05200*%
%ADD118C,0.01000*%
%ADD129OC8,0.08500*%
%ADD14C,0.05600*%
%ADD146C,0.05740*%
%ADD34C,0.05150*%
%ADD42C,0.06600*%
%ADD47C,0.06020*%
%ADD52OC8,0.05600*%
%ADD55R,0.06020X0.06020*%
%ADD65R,0.03960X0.03960*%
%ADD76C,0.05200*%
%ADD77C,0.04000*%
%ADD84OC8,0.10000*%
%ADD99C,0.03200*%
X0010000Y0010000D02*
G75*
%LPD*%
D104*
X0266000Y0072000D03*
X0266000Y0082000D03*
X0254000Y0082000D03*
X0254000Y0072000D03*
X0251000Y0145000D03*
X0251000Y0155000D03*
X0241000Y0155000D03*
X0241000Y0145000D03*
X0262000Y0145000D03*
X0261000Y0154000D03*
X0271000Y0154000D03*
X0272000Y0145000D03*
X0260000Y0315000D03*
X0250000Y0315000D03*
X0097000Y0108000D03*
X0087000Y0108000D03*
X0111000Y0070000D03*
X0122000Y0069000D03*
X0122000Y0049000D03*
X0111000Y0050000D03*
X0095000Y0056000D03*
X0085000Y0056000D03*
X0049000Y0097000D03*
X0049000Y0127000D03*
X0026000Y0114000D03*
X0026000Y0104000D03*
D84*
X0155500Y0090000D03*
X0155500Y0130000D03*
X0225500Y0110000D03*
D42*
X0064000Y0098000D03*
X0064000Y0138000D03*
D146*
X0154220Y0366460D02*
X0154220Y0372200D01*
X0164060Y0372200D02*
X0164060Y0366460D01*
X0171930Y0366460D02*
X0171930Y0372200D01*
X0181780Y0372200D02*
X0181780Y0366460D01*
D76*
X0138000Y0343600D02*
X0138000Y0338400D01*
X0138000Y0313600D02*
X0138000Y0308400D01*
X0138000Y0298600D02*
X0138000Y0293400D01*
X0138000Y0268600D02*
X0138000Y0263400D01*
X0083000Y0262400D02*
X0083000Y0267600D01*
X0083000Y0292400D02*
X0083000Y0297600D01*
X0083000Y0309400D02*
X0083000Y0314600D01*
X0083000Y0339400D02*
X0083000Y0344600D01*
D76*
X0182000Y0181000D03*
X0182000Y0171000D03*
X0228000Y0252000D03*
X0238000Y0252000D03*
D34*
X0224820Y0351430D02*
X0219670Y0351430D01*
X0220080Y0379170D02*
X0220080Y0384320D01*
X0235420Y0394730D02*
X0240570Y0394730D01*
X0248430Y0372110D02*
X0248430Y0366960D01*
X0257880Y0366600D02*
X0257880Y0361450D01*
X0260320Y0063580D02*
X0255170Y0063580D01*
X0259910Y0035840D02*
X0259910Y0030690D01*
X0244570Y0020270D02*
X0239420Y0020270D01*
X0231560Y0042890D02*
X0231560Y0048040D01*
X0222120Y0048400D02*
X0222120Y0053550D01*
D129*
X0195000Y0233000D03*
D14*
X0137000Y0107800D02*
X0137000Y0102200D01*
X0127000Y0102200D02*
X0127000Y0107800D01*
D47*
X0055820Y0060910D03*
X0055820Y0049100D03*
X0044000Y0060910D03*
X0062280Y0355180D03*
X0074090Y0355180D03*
X0074090Y0366990D03*
X0085900Y0366990D03*
X0085900Y0355180D03*
X0097710Y0355180D03*
X0097710Y0366990D03*
D55*
X0062280Y0366990D03*
X0044000Y0049100D03*
D14*
X0199000Y0034000D03*
D52*
X0199000Y0024000D03*
X0189000Y0024000D03*
X0189000Y0034000D03*
X0179000Y0034000D03*
X0179000Y0024000D03*
X0169000Y0024000D03*
X0169000Y0034000D03*
X0159000Y0034000D03*
X0159000Y0024000D03*
X0149000Y0024000D03*
X0149000Y0034000D03*
X0139000Y0034000D03*
X0139000Y0024000D03*
X0129000Y0024000D03*
X0129000Y0034000D03*
X0119000Y0034000D03*
X0119000Y0024000D03*
X0109000Y0024000D03*
X0109000Y0034000D03*
X0099000Y0034000D03*
X0099000Y0024000D03*
X0089000Y0024000D03*
X0089000Y0034000D03*
X0079000Y0034000D03*
X0079000Y0024000D03*
D99*
X0280300Y0031520D02*
X0280400Y0031430D01*
X0280400Y0213300D01*
X0273400Y0206300D01*
X0273400Y0205130D01*
X0273090Y0204390D01*
X0273120Y0204400D01*
X0274870Y0204400D01*
X0276490Y0203730D01*
X0277730Y0202490D01*
X0278400Y0200880D01*
X0278400Y0199130D01*
X0277730Y0197510D01*
X0276490Y0196270D01*
X0274870Y0195600D01*
X0273700Y0195600D01*
X0267640Y0189540D01*
X0266570Y0189100D01*
X0266300Y0189100D01*
X0266400Y0188880D01*
X0266400Y0187130D01*
X0265730Y0185510D01*
X0264490Y0184270D01*
X0262870Y0183600D01*
X0261120Y0183600D01*
X0259500Y0184270D01*
X0258670Y0185100D01*
X0229320Y0185100D01*
X0228490Y0184270D01*
X0226870Y0183600D01*
X0225120Y0183600D01*
X0223500Y0184270D01*
X0222270Y0185510D01*
X0221600Y0187130D01*
X0221600Y0187600D01*
X0221120Y0187600D01*
X0219500Y0188270D01*
X0218270Y0189510D01*
X0217600Y0191130D01*
X0217600Y0192880D01*
X0218270Y0194490D01*
X0219500Y0195730D01*
X0221120Y0196400D01*
X0222870Y0196400D01*
X0224490Y0195730D01*
X0225320Y0194900D01*
X0264800Y0194900D01*
X0269600Y0199700D01*
X0269600Y0200880D01*
X0269900Y0201610D01*
X0269870Y0201600D01*
X0268700Y0201600D01*
X0265640Y0198540D01*
X0264570Y0198100D01*
X0262320Y0198100D01*
X0261490Y0197270D01*
X0259870Y0196600D01*
X0258120Y0196600D01*
X0256500Y0197270D01*
X0255270Y0198510D01*
X0254600Y0200130D01*
X0254600Y0201880D01*
X0255270Y0203490D01*
X0256500Y0204730D01*
X0258120Y0205400D01*
X0259600Y0205400D01*
X0259600Y0206300D01*
X0258300Y0207600D01*
X0257700Y0207600D01*
X0256400Y0206300D01*
X0256400Y0206130D01*
X0255730Y0204510D01*
X0254490Y0203270D01*
X0252870Y0202600D01*
X0251120Y0202600D01*
X0249500Y0203270D01*
X0248270Y0204510D01*
X0247600Y0206130D01*
X0247600Y0207880D01*
X0248270Y0209490D01*
X0249500Y0210730D01*
X0251120Y0211400D01*
X0252870Y0211400D01*
X0253170Y0211280D01*
X0253600Y0211700D01*
X0253600Y0212880D01*
X0254270Y0214490D01*
X0255500Y0215730D01*
X0257120Y0216400D01*
X0258870Y0216400D01*
X0260490Y0215730D01*
X0261730Y0214490D01*
X0262400Y0212880D01*
X0262400Y0211700D01*
X0263700Y0210400D01*
X0264600Y0210400D01*
X0264600Y0211880D01*
X0265270Y0213490D01*
X0266100Y0214320D01*
X0266100Y0223800D01*
X0258400Y0231500D01*
X0258400Y0230130D01*
X0257730Y0228510D01*
X0256490Y0227270D01*
X0254870Y0226600D01*
X0253120Y0226600D01*
X0251500Y0227270D01*
X0250270Y0228510D01*
X0249600Y0230130D01*
X0249600Y0231880D01*
X0250010Y0232880D01*
X0236350Y0246540D01*
X0235540Y0247360D01*
X0235410Y0247660D01*
X0235160Y0247760D01*
X0233760Y0249170D01*
X0233000Y0251010D01*
X0233000Y0253000D01*
X0232240Y0254830D01*
X0230830Y0256240D01*
X0228990Y0257000D01*
X0227000Y0257000D01*
X0225160Y0256240D01*
X0223760Y0254830D01*
X0223000Y0253000D01*
X0223000Y0251010D01*
X0223760Y0249170D01*
X0225160Y0247760D01*
X0227000Y0247000D01*
X0228990Y0247000D01*
X0230830Y0247760D01*
X0232240Y0249170D01*
X0233000Y0251010D01*
X0233000Y0253000D01*
X0233760Y0254830D01*
X0235160Y0256240D01*
X0237000Y0257000D01*
X0238990Y0257000D01*
X0240830Y0256240D01*
X0242240Y0254830D01*
X0243000Y0253000D01*
X0243000Y0251010D01*
X0242240Y0249170D01*
X0242080Y0249020D01*
X0248780Y0242320D01*
X0249270Y0243490D01*
X0249270Y0243500D01*
X0249270Y0243510D01*
X0248600Y0245130D01*
X0248600Y0246880D01*
X0249270Y0248490D01*
X0250500Y0249730D01*
X0252120Y0250400D01*
X0253870Y0250400D01*
X0255490Y0249730D01*
X0256730Y0248490D01*
X0257400Y0246880D01*
X0257400Y0245700D01*
X0268700Y0234400D01*
X0269870Y0234400D01*
X0271490Y0233730D01*
X0272730Y0232490D01*
X0273400Y0230880D01*
X0273400Y0229130D01*
X0272730Y0227510D01*
X0271570Y0226360D01*
X0271900Y0225580D01*
X0271900Y0214320D01*
X0272560Y0213660D01*
X0278100Y0219200D01*
X0278100Y0248880D01*
X0277490Y0248270D01*
X0275870Y0247600D01*
X0274120Y0247600D01*
X0272500Y0248270D01*
X0271270Y0249510D01*
X0270600Y0251130D01*
X0270600Y0252300D01*
X0263300Y0259600D01*
X0262120Y0259600D01*
X0260500Y0260270D01*
X0259270Y0261510D01*
X0258600Y0263130D01*
X0258600Y0264880D01*
X0259270Y0266490D01*
X0260500Y0267730D01*
X0262120Y0268400D01*
X0263870Y0268400D01*
X0265490Y0267730D01*
X0266730Y0266490D01*
X0267400Y0264880D01*
X0267400Y0263700D01*
X0268440Y0262660D01*
X0269500Y0263730D01*
X0271120Y0264400D01*
X0272870Y0264400D01*
X0274490Y0263730D01*
X0275730Y0262490D01*
X0276400Y0260880D01*
X0276400Y0259700D01*
X0280400Y0255700D01*
X0280400Y0380960D01*
X0278590Y0379910D01*
X0275560Y0379100D01*
X0272430Y0379100D01*
X0269400Y0379910D01*
X0266690Y0381480D01*
X0264480Y0383690D01*
X0262910Y0386410D01*
X0262100Y0389430D01*
X0262100Y0392570D01*
X0262910Y0395590D01*
X0263950Y0397400D01*
X0245020Y0397400D01*
X0245370Y0396720D01*
X0245620Y0395940D01*
X0245750Y0395140D01*
X0245750Y0394730D01*
X0238000Y0394730D01*
X0238000Y0394730D01*
X0238000Y0389560D01*
X0240980Y0389560D01*
X0241780Y0389690D01*
X0242560Y0389940D01*
X0243280Y0390310D01*
X0243940Y0390790D01*
X0244520Y0391360D01*
X0245000Y0392020D01*
X0245370Y0392750D01*
X0245620Y0393520D01*
X0245750Y0394330D01*
X0245750Y0394730D01*
X0238000Y0394730D01*
X0238000Y0394730D01*
X0238000Y0389560D01*
X0235010Y0389560D01*
X0234210Y0389690D01*
X0233440Y0389940D01*
X0232710Y0390310D01*
X0232050Y0390790D01*
X0231480Y0391360D01*
X0231000Y0392020D01*
X0230630Y0392750D01*
X0230370Y0393520D01*
X0230250Y0394330D01*
X0230250Y0394730D01*
X0238000Y0394730D01*
X0238000Y0394730D01*
X0230250Y0394730D01*
X0230250Y0395140D01*
X0230370Y0395940D01*
X0230630Y0396720D01*
X0230970Y0397400D01*
X0032040Y0397400D01*
X0033090Y0395590D01*
X0033900Y0392570D01*
X0033900Y0389430D01*
X0033090Y0386410D01*
X0031520Y0383690D01*
X0029300Y0381480D01*
X0026590Y0379910D01*
X0023560Y0379100D01*
X0020430Y0379100D01*
X0017400Y0379910D01*
X0015600Y0380950D01*
X0015630Y0057040D01*
X0016280Y0059440D01*
X0017790Y0062070D01*
X0019930Y0064210D01*
X0022560Y0065720D01*
X0025480Y0066510D01*
X0028510Y0066510D01*
X0031440Y0065720D01*
X0034060Y0064210D01*
X0036200Y0062070D01*
X0037720Y0059440D01*
X0038500Y0056520D01*
X0038500Y0053490D01*
X0037720Y0050560D01*
X0036200Y0047940D01*
X0034060Y0045790D01*
X0031440Y0044280D01*
X0028510Y0043500D01*
X0025480Y0043500D01*
X0022560Y0044280D01*
X0019930Y0045790D01*
X0017790Y0047940D01*
X0016280Y0050560D01*
X0015630Y0052960D01*
X0015630Y0032070D01*
X0017400Y0033090D01*
X0020430Y0033900D01*
X0023560Y0033900D01*
X0026590Y0033090D01*
X0029300Y0031520D01*
X0031520Y0029310D01*
X0033090Y0026590D01*
X0033900Y0023570D01*
X0033900Y0020430D01*
X0033090Y0017410D01*
X0032040Y0015600D01*
X0237180Y0015600D01*
X0236710Y0015840D01*
X0236050Y0016320D01*
X0235480Y0016900D01*
X0235000Y0017560D01*
X0234630Y0018280D01*
X0234370Y0019060D01*
X0234250Y0019860D01*
X0234250Y0020270D01*
X0242000Y0020270D01*
X0249750Y0020270D01*
X0249750Y0020680D01*
X0249620Y0021480D01*
X0249370Y0022250D01*
X0249000Y0022980D01*
X0248520Y0023640D01*
X0247940Y0024220D01*
X0247280Y0024690D01*
X0246560Y0025060D01*
X0245780Y0025320D01*
X0244980Y0025440D01*
X0242000Y0025440D01*
X0242000Y0020270D01*
X0242000Y0020270D01*
X0242000Y0020270D01*
X0249750Y0020270D01*
X0249750Y0019860D01*
X0249620Y0019060D01*
X0249370Y0018280D01*
X0249000Y0017560D01*
X0248520Y0016900D01*
X0247940Y0016320D01*
X0247280Y0015840D01*
X0246810Y0015600D01*
X0262950Y0015600D01*
X0261910Y0017410D01*
X0261100Y0020430D01*
X0261100Y0023570D01*
X0261770Y0026070D01*
X0260900Y0025710D01*
X0258920Y0025710D01*
X0257090Y0026470D01*
X0255690Y0027870D01*
X0254940Y0029700D01*
X0254940Y0036820D01*
X0255690Y0038650D01*
X0257090Y0040050D01*
X0258920Y0040810D01*
X0260900Y0040810D01*
X0262730Y0040050D01*
X0264130Y0038650D01*
X0264890Y0036820D01*
X0264890Y0030720D01*
X0265690Y0031520D01*
X0268400Y0033090D01*
X0271430Y0033900D01*
X0274560Y0033900D01*
X0277590Y0033090D01*
X0280300Y0031520D01*
X0279630Y0031910D02*
X0279630Y0212530D01*
X0276440Y0209340D02*
X0276440Y0203750D01*
X0273260Y0204400D02*
X0273260Y0204790D01*
X0266890Y0199790D02*
X0266890Y0196990D01*
X0263700Y0198100D02*
X0263700Y0194900D01*
X0266890Y0189230D02*
X0266890Y0156960D01*
X0266140Y0156210D02*
X0263150Y0159200D01*
X0261000Y0159200D01*
X0261000Y0154000D01*
X0261000Y0154000D01*
X0261000Y0159200D01*
X0258840Y0159200D01*
X0256200Y0156550D01*
X0256200Y0157150D01*
X0253150Y0160200D01*
X0251000Y0160200D01*
X0251000Y0155000D01*
X0251000Y0155000D01*
X0251000Y0160200D01*
X0248840Y0160200D01*
X0245860Y0157210D01*
X0243070Y0160000D01*
X0238930Y0160000D01*
X0236000Y0157070D01*
X0236000Y0152930D01*
X0238930Y0150000D01*
X0243070Y0150000D01*
X0245860Y0152790D01*
X0248780Y0149860D01*
X0246000Y0147070D01*
X0246000Y0142930D01*
X0248930Y0140000D01*
X0253070Y0140000D01*
X0256000Y0142930D01*
X0256000Y0147070D01*
X0253210Y0149860D01*
X0255800Y0152450D01*
X0255800Y0151850D01*
X0258780Y0148860D01*
X0257000Y0147070D01*
X0257000Y0142930D01*
X0259930Y0140000D01*
X0264070Y0140000D01*
X0267000Y0142930D01*
X0269930Y0140000D01*
X0274070Y0140000D01*
X0277000Y0142930D01*
X0277000Y0147070D01*
X0274070Y0150000D01*
X0274070Y0150000D01*
X0276000Y0151930D01*
X0276000Y0156070D01*
X0273070Y0159000D01*
X0268930Y0159000D01*
X0266140Y0156210D01*
X0263700Y0158650D02*
X0263700Y0183940D01*
X0260520Y0183850D02*
X0260520Y0159200D01*
X0257330Y0157690D02*
X0257330Y0185100D01*
X0254150Y0185100D02*
X0254150Y0159200D01*
X0250960Y0160200D02*
X0250960Y0185100D01*
X0247780Y0185100D02*
X0247780Y0159130D01*
X0244590Y0158480D02*
X0244590Y0185100D01*
X0241410Y0185100D02*
X0241410Y0160000D01*
X0238220Y0159300D02*
X0238220Y0185100D01*
X0235040Y0185100D02*
X0235040Y0051600D01*
X0234380Y0052260D02*
X0232550Y0053010D01*
X0230570Y0053010D01*
X0228750Y0052260D01*
X0227350Y0050860D01*
X0227090Y0050240D01*
X0227090Y0054540D01*
X0226330Y0056370D01*
X0224930Y0057770D01*
X0223100Y0058530D01*
X0221130Y0058530D01*
X0219300Y0057770D01*
X0217900Y0056370D01*
X0217140Y0054540D01*
X0217140Y0047410D01*
X0217900Y0045580D01*
X0219300Y0044180D01*
X0221130Y0043430D01*
X0223100Y0043430D01*
X0224930Y0044180D01*
X0226330Y0045580D01*
X0226590Y0046200D01*
X0226590Y0041900D01*
X0227350Y0040070D01*
X0228750Y0038670D01*
X0230570Y0037920D01*
X0232550Y0037920D01*
X0234380Y0038670D01*
X0235780Y0040070D01*
X0236540Y0041900D01*
X0236540Y0049030D01*
X0235780Y0050860D01*
X0234380Y0052260D01*
X0231850Y0053010D02*
X0231850Y0105610D01*
X0233100Y0106850D02*
X0228640Y0102400D01*
X0225500Y0102400D01*
X0225500Y0110000D01*
X0225500Y0110000D01*
X0233100Y0110000D01*
X0233100Y0106850D01*
X0233100Y0110000D02*
X0233100Y0113150D01*
X0228640Y0117600D01*
X0225500Y0117600D01*
X0225500Y0110000D01*
X0233100Y0110000D01*
X0231850Y0110000D02*
X0231850Y0110000D01*
X0228670Y0110000D02*
X0228670Y0110000D01*
X0225500Y0110000D02*
X0225500Y0110000D01*
X0225500Y0110000D01*
X0225500Y0102400D01*
X0222350Y0102400D01*
X0217900Y0106850D01*
X0217900Y0110000D01*
X0225500Y0110000D01*
X0225500Y0117600D01*
X0222350Y0117600D01*
X0217900Y0113150D01*
X0217900Y0110000D01*
X0225500Y0110000D01*
X0225500Y0110000D01*
X0225480Y0110000D02*
X0225480Y0110000D01*
X0222300Y0110000D02*
X0222300Y0110000D01*
X0219110Y0110000D02*
X0219110Y0110000D01*
X0219110Y0105640D02*
X0219110Y0057580D01*
X0222300Y0058530D02*
X0222300Y0102450D01*
X0225480Y0102400D02*
X0225480Y0057220D01*
X0228670Y0052180D02*
X0228670Y0102420D01*
X0231850Y0114390D02*
X0231850Y0185100D01*
X0228670Y0184450D02*
X0228670Y0117580D01*
X0225480Y0117600D02*
X0225480Y0183600D01*
X0222300Y0185480D02*
X0222300Y0117550D01*
X0219110Y0114360D02*
X0219110Y0188660D01*
X0219110Y0195340D02*
X0219110Y0346450D01*
X0218680Y0346450D02*
X0216860Y0347210D01*
X0215460Y0348610D01*
X0214700Y0350440D01*
X0214700Y0352420D01*
X0215460Y0354240D01*
X0216860Y0355640D01*
X0218680Y0356400D01*
X0225810Y0356400D01*
X0227640Y0355640D01*
X0229040Y0354240D01*
X0229800Y0352420D01*
X0229800Y0350440D01*
X0229040Y0348610D01*
X0227640Y0347210D01*
X0225810Y0346450D01*
X0218680Y0346450D01*
X0215930Y0348140D02*
X0215930Y0015600D01*
X0219110Y0015600D02*
X0219110Y0044370D01*
X0222300Y0043430D02*
X0222300Y0015600D01*
X0225480Y0015600D02*
X0225480Y0044730D01*
X0228670Y0038750D02*
X0228670Y0015600D01*
X0231850Y0015600D02*
X0231850Y0037920D01*
X0235040Y0039330D02*
X0235040Y0023040D01*
X0235000Y0022980D02*
X0234630Y0022250D01*
X0234370Y0021480D01*
X0234250Y0020680D01*
X0234250Y0020270D01*
X0242000Y0020270D01*
X0242000Y0025440D01*
X0239010Y0025440D01*
X0238210Y0025320D01*
X0237440Y0025060D01*
X0236710Y0024690D01*
X0236050Y0024220D01*
X0235480Y0023640D01*
X0235000Y0022980D01*
X0235040Y0020270D02*
X0235040Y0020270D01*
X0235040Y0017500D02*
X0235040Y0015600D01*
X0238220Y0020270D02*
X0238220Y0020270D01*
X0241410Y0020270D02*
X0241410Y0020270D01*
X0242000Y0020270D02*
X0242000Y0020270D01*
X0244590Y0020270D02*
X0244590Y0020270D01*
X0247780Y0020270D02*
X0247780Y0020270D01*
X0247780Y0024340D02*
X0247780Y0141150D01*
X0246000Y0142930D02*
X0246000Y0147070D01*
X0243070Y0150000D01*
X0238930Y0150000D01*
X0236000Y0147070D01*
X0236000Y0142930D01*
X0238930Y0140000D01*
X0243070Y0140000D01*
X0246000Y0142930D01*
X0244590Y0141520D02*
X0244590Y0025440D01*
X0241410Y0025440D02*
X0241410Y0140000D01*
X0238220Y0140700D02*
X0238220Y0025320D01*
X0247780Y0016200D02*
X0247780Y0015600D01*
X0250960Y0015600D02*
X0250960Y0060750D01*
X0250950Y0060760D02*
X0252350Y0059360D01*
X0254180Y0058600D01*
X0261310Y0058600D01*
X0263140Y0059360D01*
X0264540Y0060760D01*
X0265290Y0062590D01*
X0265290Y0064560D01*
X0264540Y0066390D01*
X0263930Y0067000D01*
X0268070Y0067000D01*
X0271000Y0069930D01*
X0271000Y0074070D01*
X0268070Y0077000D01*
X0271000Y0079930D01*
X0271000Y0084070D01*
X0268070Y0087000D01*
X0263930Y0087000D01*
X0261000Y0084070D01*
X0261000Y0079930D01*
X0263930Y0077000D01*
X0268070Y0077000D01*
X0263930Y0077000D01*
X0261000Y0074070D01*
X0261000Y0069930D01*
X0263130Y0067800D01*
X0261310Y0068550D01*
X0257620Y0068550D01*
X0259000Y0069930D01*
X0259000Y0074070D01*
X0256070Y0077000D01*
X0251930Y0077000D01*
X0249000Y0074070D01*
X0249000Y0069930D01*
X0251740Y0067180D01*
X0250950Y0066390D01*
X0250200Y0064560D01*
X0250200Y0062590D01*
X0250950Y0060760D01*
X0254150Y0058610D02*
X0254150Y0015600D01*
X0257330Y0015600D02*
X0257330Y0026370D01*
X0260520Y0025710D02*
X0260520Y0015600D01*
X0266890Y0032210D02*
X0266890Y0067000D01*
X0270070Y0069000D02*
X0270070Y0033540D01*
X0273260Y0033900D02*
X0273260Y0140000D01*
X0270070Y0140000D02*
X0270070Y0085000D01*
X0266890Y0087000D02*
X0266890Y0142820D01*
X0267000Y0142930D02*
X0267000Y0147070D01*
X0267000Y0142930D01*
X0267000Y0147070D02*
X0268930Y0149000D01*
X0268930Y0149000D01*
X0266140Y0151790D01*
X0264210Y0149860D01*
X0267000Y0147070D01*
X0266890Y0147180D02*
X0266890Y0151040D01*
X0270070Y0159000D02*
X0270070Y0191970D01*
X0273260Y0195160D02*
X0273260Y0158810D01*
X0276440Y0147630D02*
X0276440Y0196250D01*
X0273260Y0214360D02*
X0273260Y0228790D01*
X0273260Y0231210D02*
X0273260Y0247960D01*
X0276440Y0247840D02*
X0276440Y0217550D01*
X0263700Y0210400D02*
X0263700Y0226190D01*
X0260520Y0229380D02*
X0260520Y0215700D01*
X0257330Y0216400D02*
X0257330Y0228110D01*
X0254150Y0226600D02*
X0254150Y0214200D01*
X0250960Y0211330D02*
X0250960Y0227810D01*
X0247780Y0235120D02*
X0247780Y0208310D01*
X0247780Y0205690D02*
X0247780Y0194900D01*
X0250960Y0194900D02*
X0250960Y0202670D01*
X0254150Y0203130D02*
X0254150Y0194900D01*
X0257330Y0194900D02*
X0257330Y0196930D01*
X0260520Y0196870D02*
X0260520Y0194900D01*
X0257330Y0205070D02*
X0257330Y0207230D01*
X0244590Y0194900D02*
X0244590Y0238300D01*
X0241410Y0241490D02*
X0241410Y0194900D01*
X0238220Y0194900D02*
X0238220Y0244670D01*
X0235040Y0247890D02*
X0235040Y0194900D01*
X0231850Y0194900D02*
X0231850Y0248780D01*
X0228670Y0247000D02*
X0228670Y0194900D01*
X0225480Y0194900D02*
X0225480Y0247630D01*
X0225480Y0256370D02*
X0225480Y0346450D01*
X0222300Y0346450D02*
X0222300Y0196400D01*
X0197750Y0226350D02*
X0201650Y0230250D01*
X0201650Y0235760D01*
X0197750Y0239650D01*
X0192240Y0239650D01*
X0188350Y0235760D01*
X0188350Y0230250D01*
X0192240Y0226350D01*
X0197750Y0226350D01*
X0196820Y0226350D02*
X0196820Y0038730D01*
X0196050Y0038410D02*
X0194590Y0036950D01*
X0194200Y0036000D01*
X0194200Y0036150D01*
X0191150Y0039200D01*
X0186840Y0039200D01*
X0184000Y0036350D01*
X0181150Y0039200D01*
X0176840Y0039200D01*
X0174000Y0036350D01*
X0171150Y0039200D01*
X0166840Y0039200D01*
X0164000Y0036350D01*
X0161150Y0039200D01*
X0156840Y0039200D01*
X0154000Y0036350D01*
X0151150Y0039200D01*
X0146840Y0039200D01*
X0144000Y0036350D01*
X0141150Y0039200D01*
X0136840Y0039200D01*
X0134000Y0036350D01*
X0131150Y0039200D01*
X0126840Y0039200D01*
X0124000Y0036350D01*
X0121150Y0039200D01*
X0116840Y0039200D01*
X0114000Y0036350D01*
X0111150Y0039200D01*
X0106840Y0039200D01*
X0104000Y0036350D01*
X0101150Y0039200D01*
X0096840Y0039200D01*
X0094000Y0036350D01*
X0091150Y0039200D01*
X0086840Y0039200D01*
X0084000Y0036350D01*
X0081150Y0039200D01*
X0076840Y0039200D01*
X0073800Y0036150D01*
X0073800Y0031850D01*
X0076640Y0029000D01*
X0073800Y0026150D01*
X0073800Y0021850D01*
X0076840Y0018800D01*
X0081150Y0018800D01*
X0084000Y0021650D01*
X0086840Y0018800D01*
X0091150Y0018800D01*
X0094000Y0021650D01*
X0096840Y0018800D01*
X0101150Y0018800D01*
X0104000Y0021650D01*
X0106840Y0018800D01*
X0111150Y0018800D01*
X0114000Y0021650D01*
X0116840Y0018800D01*
X0121150Y0018800D01*
X0124000Y0021650D01*
X0126840Y0018800D01*
X0131150Y0018800D01*
X0134000Y0021650D01*
X0136840Y0018800D01*
X0141150Y0018800D01*
X0144000Y0021650D01*
X0146840Y0018800D01*
X0151150Y0018800D01*
X0154000Y0021650D01*
X0156840Y0018800D01*
X0161150Y0018800D01*
X0164000Y0021650D01*
X0166840Y0018800D01*
X0171150Y0018800D01*
X0173860Y0021510D01*
X0176760Y0018600D01*
X0179000Y0018600D01*
X0181230Y0018600D01*
X0184140Y0021510D01*
X0186840Y0018800D01*
X0191150Y0018800D01*
X0194000Y0021650D01*
X0196840Y0018800D01*
X0201150Y0018800D01*
X0204200Y0021850D01*
X0204200Y0026150D01*
X0201150Y0029200D01*
X0201000Y0029200D01*
X0201940Y0029590D01*
X0203410Y0031060D01*
X0204200Y0032970D01*
X0204200Y0035030D01*
X0203410Y0036950D01*
X0201940Y0038410D01*
X0200030Y0039200D01*
X0197960Y0039200D01*
X0196050Y0038410D01*
X0193630Y0036720D02*
X0193630Y0226350D01*
X0190450Y0228150D02*
X0190450Y0039200D01*
X0187260Y0039200D02*
X0187260Y0243800D01*
X0187400Y0244130D02*
X0187400Y0245880D01*
X0186730Y0247490D01*
X0185490Y0248730D01*
X0183870Y0249400D01*
X0182120Y0249400D01*
X0180500Y0248730D01*
X0179270Y0247490D01*
X0178600Y0245880D01*
X0178600Y0244700D01*
X0178300Y0244400D01*
X0177120Y0244400D01*
X0175500Y0243730D01*
X0174270Y0242490D01*
X0173600Y0240880D01*
X0173600Y0239130D01*
X0174270Y0237510D01*
X0175500Y0236270D01*
X0177120Y0235600D01*
X0178870Y0235600D01*
X0180490Y0236270D01*
X0181730Y0237510D01*
X0182400Y0239130D01*
X0182400Y0240300D01*
X0182700Y0240600D01*
X0183870Y0240600D01*
X0185490Y0241270D01*
X0186730Y0242510D01*
X0187400Y0244130D01*
X0187260Y0246200D02*
X0187260Y0372280D01*
X0187050Y0372490D02*
X0187640Y0371900D01*
X0189950Y0370560D01*
X0192530Y0369870D01*
X0195200Y0369870D01*
X0197770Y0370560D01*
X0200080Y0371900D01*
X0201970Y0373780D01*
X0203300Y0376090D01*
X0203990Y0378670D01*
X0203990Y0381330D01*
X0203300Y0383910D01*
X0201970Y0386220D01*
X0200080Y0388100D01*
X0197770Y0389440D01*
X0195200Y0390130D01*
X0192530Y0390130D01*
X0189950Y0389440D01*
X0187640Y0388100D01*
X0185760Y0386220D01*
X0184430Y0383910D01*
X0183740Y0381330D01*
X0183740Y0378670D01*
X0184210Y0376900D01*
X0182820Y0377470D01*
X0180730Y0377470D01*
X0178790Y0376670D01*
X0177310Y0375190D01*
X0176860Y0374090D01*
X0176400Y0375190D01*
X0174920Y0376670D01*
X0172980Y0377470D01*
X0170890Y0377470D01*
X0168950Y0376670D01*
X0168000Y0375720D01*
X0167050Y0376670D01*
X0165110Y0377470D01*
X0163010Y0377470D01*
X0161070Y0376670D01*
X0159590Y0375190D01*
X0159250Y0374370D01*
X0158900Y0375070D01*
X0158390Y0375760D01*
X0157780Y0376370D01*
X0157080Y0376880D01*
X0156320Y0377270D01*
X0155500Y0377540D01*
X0154650Y0377670D01*
X0154220Y0377670D01*
X0154220Y0369330D01*
X0154220Y0360990D01*
X0154650Y0360990D01*
X0155500Y0361130D01*
X0156320Y0361390D01*
X0157080Y0361780D01*
X0157780Y0362290D01*
X0158390Y0362900D01*
X0158900Y0363590D01*
X0159250Y0364300D01*
X0159590Y0363480D01*
X0161070Y0361990D01*
X0163010Y0361190D01*
X0165110Y0361190D01*
X0167050Y0361990D01*
X0168000Y0362950D01*
X0168950Y0361990D01*
X0170890Y0361190D01*
X0172980Y0361190D01*
X0174920Y0361990D01*
X0176400Y0363480D01*
X0176860Y0364570D01*
X0177310Y0363480D01*
X0178790Y0361990D01*
X0180730Y0361190D01*
X0182820Y0361190D01*
X0184760Y0361990D01*
X0186240Y0363480D01*
X0187050Y0365410D01*
X0187050Y0372490D01*
X0190450Y0370430D02*
X0190450Y0237860D01*
X0193630Y0239650D02*
X0193630Y0369870D01*
X0196820Y0370310D02*
X0196820Y0239650D01*
X0200000Y0237400D02*
X0200000Y0371850D01*
X0203190Y0375890D02*
X0203190Y0037160D01*
X0200000Y0039200D02*
X0200000Y0228600D01*
X0184080Y0240690D02*
X0184080Y0185550D01*
X0184830Y0185240D02*
X0182990Y0186000D01*
X0181000Y0186000D01*
X0179160Y0185240D01*
X0177760Y0183830D01*
X0177000Y0182000D01*
X0177000Y0180010D01*
X0177760Y0178170D01*
X0179160Y0176760D01*
X0181000Y0176000D01*
X0179160Y0175240D01*
X0177760Y0173830D01*
X0177000Y0172000D01*
X0177000Y0170010D01*
X0177760Y0168170D01*
X0179160Y0166760D01*
X0181000Y0166000D01*
X0182990Y0166000D01*
X0184830Y0166760D01*
X0186240Y0168170D01*
X0187000Y0170010D01*
X0187000Y0172000D01*
X0186240Y0173830D01*
X0184830Y0175240D01*
X0182990Y0176000D01*
X0181000Y0176000D01*
X0182990Y0176000D01*
X0184830Y0176760D01*
X0186240Y0178170D01*
X0187000Y0180010D01*
X0187000Y0182000D01*
X0186240Y0183830D01*
X0184830Y0185240D01*
X0180890Y0185950D02*
X0180890Y0236670D01*
X0177710Y0235600D02*
X0177710Y0183710D01*
X0177710Y0178290D02*
X0177710Y0173710D01*
X0180890Y0175950D02*
X0180890Y0176050D01*
X0184080Y0176450D02*
X0184080Y0175550D01*
X0184080Y0166450D02*
X0184080Y0036430D01*
X0180890Y0039200D02*
X0180890Y0166050D01*
X0177710Y0168290D02*
X0177710Y0160510D01*
X0177730Y0160490D02*
X0176490Y0161730D01*
X0174870Y0162400D01*
X0173700Y0162400D01*
X0153060Y0183040D01*
X0154120Y0182600D01*
X0155870Y0182600D01*
X0157490Y0183270D01*
X0158730Y0184510D01*
X0159400Y0186130D01*
X0159400Y0187880D01*
X0158730Y0189490D01*
X0157490Y0190730D01*
X0155870Y0191400D01*
X0154700Y0191400D01*
X0127400Y0218700D01*
X0127400Y0218880D01*
X0126730Y0220490D01*
X0125490Y0221730D01*
X0123870Y0222400D01*
X0122120Y0222400D01*
X0120500Y0221730D01*
X0119270Y0220490D01*
X0118790Y0219340D01*
X0118730Y0219490D01*
X0117490Y0220730D01*
X0115870Y0221400D01*
X0114120Y0221400D01*
X0112500Y0220730D01*
X0111270Y0219490D01*
X0110600Y0217880D01*
X0110600Y0216130D01*
X0111270Y0214510D01*
X0112500Y0213270D01*
X0114120Y0212600D01*
X0115300Y0212600D01*
X0169600Y0158300D01*
X0169600Y0157130D01*
X0170270Y0155510D01*
X0171500Y0154270D01*
X0173120Y0153600D01*
X0174870Y0153600D01*
X0176490Y0154270D01*
X0177730Y0155510D01*
X0178400Y0157130D01*
X0178400Y0158880D01*
X0177730Y0160490D01*
X0174520Y0162400D02*
X0174520Y0237250D01*
X0174520Y0242750D02*
X0174520Y0361830D01*
X0171340Y0361190D02*
X0171340Y0164760D01*
X0168150Y0167950D02*
X0168150Y0216530D01*
X0168400Y0217130D02*
X0168400Y0218880D01*
X0167730Y0220490D01*
X0166900Y0221320D01*
X0166900Y0243680D01*
X0167730Y0244510D01*
X0168400Y0246130D01*
X0168400Y0247880D01*
X0167730Y0249490D01*
X0166490Y0250730D01*
X0164870Y0251400D01*
X0163120Y0251400D01*
X0161500Y0250730D01*
X0160270Y0249490D01*
X0159600Y0247880D01*
X0159600Y0246130D01*
X0160270Y0244510D01*
X0161100Y0243680D01*
X0161100Y0221320D01*
X0160270Y0220490D01*
X0159600Y0218880D01*
X0159600Y0217130D01*
X0160270Y0215510D01*
X0161500Y0214270D01*
X0163120Y0213600D01*
X0164870Y0213600D01*
X0166490Y0214270D01*
X0167730Y0215510D01*
X0168400Y0217130D01*
X0168150Y0219470D02*
X0168150Y0245530D01*
X0168150Y0248470D02*
X0168150Y0275530D01*
X0168400Y0276130D02*
X0167730Y0274510D01*
X0166490Y0273270D01*
X0164870Y0272600D01*
X0163120Y0272600D01*
X0161500Y0273270D01*
X0160270Y0274510D01*
X0159600Y0276130D01*
X0159600Y0277880D01*
X0160270Y0279490D01*
X0161100Y0280320D01*
X0161100Y0283800D01*
X0140760Y0304130D01*
X0139230Y0303500D01*
X0140830Y0302840D01*
X0142240Y0301430D01*
X0143000Y0299600D01*
X0143000Y0292410D01*
X0142240Y0290570D01*
X0140830Y0289160D01*
X0138990Y0288400D01*
X0137000Y0288400D01*
X0135160Y0289160D01*
X0133760Y0290570D01*
X0133000Y0292410D01*
X0133000Y0299600D01*
X0133760Y0301430D01*
X0135160Y0302840D01*
X0136760Y0303500D01*
X0135160Y0304160D01*
X0133760Y0305570D01*
X0133000Y0307410D01*
X0133000Y0307900D01*
X0130400Y0305300D01*
X0130400Y0304130D01*
X0129730Y0302510D01*
X0128490Y0301270D01*
X0126870Y0300600D01*
X0125120Y0300600D01*
X0123500Y0301270D01*
X0122270Y0302510D01*
X0121600Y0304130D01*
X0121600Y0305880D01*
X0122270Y0307490D01*
X0123500Y0308730D01*
X0125120Y0309400D01*
X0126300Y0309400D01*
X0129540Y0312640D01*
X0130350Y0313460D01*
X0131420Y0313900D01*
X0133000Y0313900D01*
X0133000Y0314600D01*
X0133760Y0316430D01*
X0135160Y0317840D01*
X0137000Y0318600D01*
X0138990Y0318600D01*
X0140830Y0317840D01*
X0142240Y0316430D01*
X0143000Y0314600D01*
X0143000Y0310100D01*
X0166460Y0286640D01*
X0166900Y0285580D01*
X0166900Y0284420D01*
X0166900Y0280320D01*
X0167730Y0279490D01*
X0168400Y0277880D01*
X0168400Y0276130D01*
X0168150Y0278470D02*
X0168150Y0362790D01*
X0164970Y0361190D02*
X0164970Y0288130D01*
X0161780Y0291320D02*
X0161780Y0361700D01*
X0158600Y0363180D02*
X0158600Y0294500D01*
X0155410Y0297690D02*
X0155410Y0361110D01*
X0154220Y0360990D02*
X0154220Y0369330D01*
X0154220Y0369330D01*
X0154220Y0369330D01*
X0148750Y0369330D01*
X0148750Y0366030D01*
X0148880Y0365180D01*
X0149150Y0364360D01*
X0149540Y0363590D01*
X0150050Y0362900D01*
X0150650Y0362290D01*
X0151350Y0361780D01*
X0152120Y0361390D01*
X0152940Y0361130D01*
X0153790Y0360990D01*
X0154220Y0360990D01*
X0152230Y0361360D02*
X0152230Y0300870D01*
X0149040Y0304060D02*
X0149040Y0364690D01*
X0149040Y0369330D02*
X0149040Y0369330D01*
X0148750Y0369330D02*
X0154220Y0369330D01*
X0154220Y0369330D01*
X0154220Y0377670D01*
X0153790Y0377670D01*
X0152940Y0377540D01*
X0152120Y0377270D01*
X0151850Y0377130D01*
X0152260Y0378670D01*
X0152260Y0381330D01*
X0151570Y0383910D01*
X0150230Y0386220D01*
X0148350Y0388100D01*
X0146040Y0389440D01*
X0143460Y0390130D01*
X0140800Y0390130D01*
X0138220Y0389440D01*
X0135910Y0388100D01*
X0134030Y0386220D01*
X0132690Y0383910D01*
X0132000Y0381330D01*
X0132000Y0378670D01*
X0132690Y0376090D01*
X0134030Y0373780D01*
X0135910Y0371900D01*
X0138220Y0370560D01*
X0140800Y0369870D01*
X0143460Y0369870D01*
X0146040Y0370560D01*
X0148350Y0371900D01*
X0148750Y0372290D01*
X0148750Y0369330D01*
X0145860Y0370510D02*
X0145860Y0307240D01*
X0142670Y0302220D02*
X0142670Y0300380D01*
X0145860Y0299040D02*
X0145860Y0250360D01*
X0145490Y0250730D02*
X0143870Y0251400D01*
X0142120Y0251400D01*
X0140500Y0250730D01*
X0139270Y0249490D01*
X0138600Y0247880D01*
X0138600Y0246130D01*
X0139270Y0244510D01*
X0140100Y0243680D01*
X0140100Y0240120D01*
X0139490Y0240730D01*
X0137870Y0241400D01*
X0136700Y0241400D01*
X0136400Y0241700D01*
X0136400Y0242880D01*
X0135730Y0244490D01*
X0134490Y0245730D01*
X0132870Y0246400D01*
X0131120Y0246400D01*
X0129500Y0245730D01*
X0128270Y0244490D01*
X0127600Y0242880D01*
X0127600Y0241130D01*
X0128270Y0239510D01*
X0129500Y0238270D01*
X0131120Y0237600D01*
X0132300Y0237600D01*
X0132600Y0237300D01*
X0132600Y0236130D01*
X0133270Y0234510D01*
X0134500Y0233270D01*
X0136120Y0232600D01*
X0137870Y0232600D01*
X0139490Y0233270D01*
X0140100Y0233880D01*
X0140100Y0227320D01*
X0139270Y0226490D01*
X0138600Y0224880D01*
X0138600Y0223130D01*
X0139270Y0221510D01*
X0140500Y0220270D01*
X0142120Y0219600D01*
X0143870Y0219600D01*
X0145490Y0220270D01*
X0146730Y0221510D01*
X0147400Y0223130D01*
X0147400Y0224880D01*
X0146730Y0226490D01*
X0145900Y0227320D01*
X0145900Y0243680D01*
X0146730Y0244510D01*
X0147400Y0246130D01*
X0147400Y0247880D01*
X0146730Y0249490D01*
X0145490Y0250730D01*
X0142670Y0251400D02*
X0142670Y0261620D01*
X0143000Y0262410D02*
X0142240Y0260570D01*
X0140830Y0259160D01*
X0138990Y0258400D01*
X0137000Y0258400D01*
X0135160Y0259160D01*
X0133760Y0260570D01*
X0133000Y0262410D01*
X0133000Y0269600D01*
X0133760Y0271430D01*
X0135160Y0272840D01*
X0137000Y0273600D01*
X0138990Y0273600D01*
X0140830Y0272840D01*
X0142240Y0271430D01*
X0143000Y0269600D01*
X0143000Y0262410D01*
X0139490Y0258610D02*
X0139490Y0249710D01*
X0139490Y0244290D02*
X0139490Y0240730D01*
X0136300Y0243110D02*
X0136300Y0258690D01*
X0133120Y0262120D02*
X0133120Y0246300D01*
X0129930Y0245910D02*
X0129930Y0303000D01*
X0126750Y0300600D02*
X0126750Y0232350D01*
X0129930Y0229170D02*
X0129930Y0238090D01*
X0133120Y0234870D02*
X0133120Y0227300D01*
X0132870Y0227400D02*
X0131700Y0227400D01*
X0122400Y0236700D01*
X0122400Y0237880D01*
X0121730Y0239490D01*
X0120490Y0240730D01*
X0118870Y0241400D01*
X0117120Y0241400D01*
X0115500Y0240730D01*
X0114270Y0239490D01*
X0113600Y0237880D01*
X0113600Y0236130D01*
X0114270Y0234510D01*
X0115500Y0233270D01*
X0117120Y0232600D01*
X0118300Y0232600D01*
X0127600Y0223300D01*
X0127600Y0222130D01*
X0128270Y0220510D01*
X0129500Y0219270D01*
X0131120Y0218600D01*
X0132870Y0218600D01*
X0134490Y0219270D01*
X0135730Y0220510D01*
X0136400Y0222130D01*
X0136400Y0223880D01*
X0135730Y0225490D01*
X0134490Y0226730D01*
X0132870Y0227400D01*
X0136300Y0224110D02*
X0136300Y0232600D01*
X0139490Y0233270D02*
X0139490Y0226710D01*
X0139490Y0221290D02*
X0139490Y0206610D01*
X0142670Y0203430D02*
X0142670Y0219600D01*
X0145860Y0220640D02*
X0145860Y0200240D01*
X0149040Y0197060D02*
X0149040Y0295850D01*
X0152230Y0292670D02*
X0152230Y0193870D01*
X0155410Y0191400D02*
X0155410Y0289480D01*
X0158600Y0286300D02*
X0158600Y0189620D01*
X0158600Y0184380D02*
X0158600Y0177500D01*
X0161780Y0174320D02*
X0161780Y0214160D01*
X0164970Y0213640D02*
X0164970Y0171130D01*
X0161780Y0166110D02*
X0161780Y0134180D01*
X0162900Y0133070D02*
X0158560Y0137400D01*
X0152430Y0137400D01*
X0148100Y0133070D01*
X0148100Y0126940D01*
X0152430Y0122600D01*
X0158560Y0122600D01*
X0162900Y0126940D01*
X0162900Y0133070D01*
X0158600Y0137370D02*
X0158600Y0169300D01*
X0155410Y0172480D02*
X0155410Y0137400D01*
X0152230Y0137200D02*
X0152230Y0175670D01*
X0149040Y0178850D02*
X0149040Y0134010D01*
X0149040Y0125990D02*
X0149040Y0094010D01*
X0148100Y0093070D02*
X0152430Y0097400D01*
X0158560Y0097400D01*
X0162900Y0093070D01*
X0162900Y0086940D01*
X0158560Y0082600D01*
X0152430Y0082600D01*
X0148100Y0086940D01*
X0148100Y0093070D01*
X0152230Y0097200D02*
X0152230Y0122810D01*
X0155410Y0122600D02*
X0155410Y0097400D01*
X0158600Y0097370D02*
X0158600Y0122640D01*
X0161780Y0125820D02*
X0161780Y0094180D01*
X0161780Y0085820D02*
X0161780Y0038570D01*
X0158600Y0039200D02*
X0158600Y0082640D01*
X0155410Y0082600D02*
X0155410Y0037770D01*
X0152230Y0038120D02*
X0152230Y0082810D01*
X0149040Y0085990D02*
X0149040Y0039200D01*
X0145860Y0038210D02*
X0145860Y0182040D01*
X0142670Y0185220D02*
X0142670Y0037680D01*
X0139490Y0039200D02*
X0139490Y0097600D01*
X0139940Y0097790D02*
X0141410Y0099260D01*
X0142200Y0101170D01*
X0142200Y0108830D01*
X0141410Y0110750D01*
X0139940Y0112210D01*
X0138030Y0113000D01*
X0135960Y0113000D01*
X0134050Y0112210D01*
X0132590Y0110750D01*
X0132100Y0109570D01*
X0132000Y0109870D01*
X0131620Y0110630D01*
X0131120Y0111320D01*
X0130510Y0111920D01*
X0129830Y0112420D01*
X0129070Y0112800D01*
X0128260Y0113070D01*
X0127420Y0113200D01*
X0127000Y0113200D01*
X0127000Y0105000D01*
X0127000Y0096800D01*
X0127420Y0096800D01*
X0128260Y0096930D01*
X0129070Y0097200D01*
X0129830Y0097580D01*
X0130510Y0098080D01*
X0131120Y0098680D01*
X0131620Y0099370D01*
X0132000Y0100130D01*
X0132100Y0100430D01*
X0132590Y0099260D01*
X0134050Y0097790D01*
X0135960Y0097000D01*
X0138030Y0097000D01*
X0139940Y0097790D01*
X0136300Y0097000D02*
X0136300Y0038660D01*
X0133120Y0037230D02*
X0133120Y0098730D01*
X0129930Y0097660D02*
X0129930Y0039200D01*
X0126750Y0039100D02*
X0126750Y0046680D01*
X0127000Y0046930D02*
X0127000Y0051070D01*
X0124070Y0054000D01*
X0119930Y0054000D01*
X0117000Y0051070D01*
X0117000Y0046930D01*
X0119930Y0044000D01*
X0124070Y0044000D01*
X0127000Y0046930D01*
X0126750Y0051320D02*
X0126750Y0066680D01*
X0127000Y0066930D02*
X0127000Y0071070D01*
X0124070Y0074000D01*
X0119930Y0074000D01*
X0117000Y0071070D01*
X0117000Y0066930D01*
X0119930Y0064000D01*
X0124070Y0064000D01*
X0127000Y0066930D01*
X0126750Y0071320D02*
X0126750Y0096800D01*
X0126570Y0096800D02*
X0125730Y0096930D01*
X0124920Y0097200D01*
X0124170Y0097580D01*
X0123480Y0098080D01*
X0122880Y0098680D01*
X0122380Y0099370D01*
X0121990Y0100130D01*
X0121730Y0100940D01*
X0121600Y0101780D01*
X0121600Y0105000D01*
X0127000Y0105000D01*
X0127000Y0105000D01*
X0127000Y0105000D01*
X0127000Y0096800D01*
X0126570Y0096800D01*
X0123560Y0098020D02*
X0123560Y0074000D01*
X0120380Y0074000D02*
X0120380Y0207520D01*
X0123560Y0204330D02*
X0123560Y0111980D01*
X0123480Y0111920D02*
X0122880Y0111320D01*
X0122380Y0110630D01*
X0121990Y0109870D01*
X0121730Y0109070D01*
X0121600Y0108230D01*
X0121600Y0105000D01*
X0127000Y0105000D01*
X0127000Y0113200D01*
X0126570Y0113200D01*
X0125730Y0113070D01*
X0124920Y0112800D01*
X0124170Y0112420D01*
X0123480Y0111920D01*
X0126750Y0113200D02*
X0126750Y0201150D01*
X0129930Y0197960D02*
X0129930Y0112340D01*
X0133120Y0111270D02*
X0133120Y0194780D01*
X0136300Y0191590D02*
X0136300Y0113000D01*
X0139490Y0112400D02*
X0139490Y0188410D01*
X0136300Y0209800D02*
X0136300Y0221900D01*
X0133120Y0218700D02*
X0133120Y0212980D01*
X0129930Y0216170D02*
X0129930Y0219090D01*
X0126750Y0220450D02*
X0126750Y0224150D01*
X0123560Y0222400D02*
X0123560Y0227330D01*
X0120380Y0230520D02*
X0120380Y0221600D01*
X0117190Y0220850D02*
X0117190Y0232600D01*
X0114010Y0235140D02*
X0114010Y0221350D01*
X0110820Y0218420D02*
X0110820Y0278070D01*
X0111600Y0277300D02*
X0111600Y0276130D01*
X0112270Y0274510D01*
X0113500Y0273270D01*
X0115120Y0272600D01*
X0116870Y0272600D01*
X0118490Y0273270D01*
X0119730Y0274510D01*
X0120400Y0276130D01*
X0120400Y0277880D01*
X0119730Y0279490D01*
X0118490Y0280730D01*
X0116870Y0281400D01*
X0115700Y0281400D01*
X0088000Y0309100D01*
X0088000Y0315600D01*
X0087240Y0317430D01*
X0085830Y0318840D01*
X0083990Y0319600D01*
X0082000Y0319600D01*
X0080160Y0318840D01*
X0078760Y0317430D01*
X0078000Y0315600D01*
X0078000Y0314900D01*
X0076420Y0314900D01*
X0075350Y0314460D01*
X0074540Y0313640D01*
X0071300Y0310400D01*
X0070120Y0310400D01*
X0068500Y0309730D01*
X0067270Y0308490D01*
X0066600Y0306880D01*
X0066600Y0305130D01*
X0067270Y0303510D01*
X0068500Y0302270D01*
X0070120Y0301600D01*
X0071870Y0301600D01*
X0073490Y0302270D01*
X0074730Y0303510D01*
X0075400Y0305130D01*
X0075400Y0306300D01*
X0078000Y0308900D01*
X0078000Y0308410D01*
X0078760Y0306570D01*
X0080160Y0305160D01*
X0082000Y0304400D01*
X0083990Y0304400D01*
X0084350Y0304550D01*
X0111600Y0277300D01*
X0114010Y0273060D02*
X0114010Y0238870D01*
X0117190Y0241400D02*
X0117190Y0272730D01*
X0120380Y0276080D02*
X0120380Y0240780D01*
X0123560Y0235540D02*
X0123560Y0301250D01*
X0123560Y0308750D02*
X0123560Y0397400D01*
X0120380Y0397400D02*
X0120380Y0277920D01*
X0117190Y0281270D02*
X0117190Y0397400D01*
X0114010Y0397400D02*
X0114010Y0283090D01*
X0110820Y0286280D02*
X0110820Y0397400D01*
X0107640Y0397400D02*
X0107640Y0289460D01*
X0104450Y0292650D02*
X0104450Y0397400D01*
X0101270Y0397400D02*
X0101270Y0371090D01*
X0100780Y0371580D02*
X0102300Y0370060D01*
X0103130Y0368070D01*
X0103130Y0365920D01*
X0102300Y0363930D01*
X0100780Y0362400D01*
X0098790Y0361580D01*
X0096640Y0361580D01*
X0094650Y0362400D01*
X0093130Y0363930D01*
X0092300Y0365920D01*
X0092300Y0368070D01*
X0093130Y0370060D01*
X0094650Y0371580D01*
X0096640Y0372400D01*
X0098790Y0372400D01*
X0100780Y0371580D01*
X0098080Y0372400D02*
X0098080Y0376560D01*
X0098460Y0376940D02*
X0099970Y0379560D01*
X0100750Y0382490D01*
X0100750Y0385520D01*
X0099970Y0388440D01*
X0098460Y0391070D01*
X0096310Y0393210D01*
X0093690Y0394720D01*
X0090760Y0395510D01*
X0087730Y0395510D01*
X0084810Y0394720D01*
X0082180Y0393210D01*
X0080040Y0391070D01*
X0080000Y0390990D01*
X0079950Y0391070D01*
X0077810Y0393210D01*
X0075190Y0394720D01*
X0072260Y0395510D01*
X0069230Y0395510D01*
X0066300Y0394720D01*
X0063680Y0393210D01*
X0061540Y0391070D01*
X0060020Y0388440D01*
X0059240Y0385520D01*
X0059240Y0382490D01*
X0060020Y0379560D01*
X0061540Y0376940D01*
X0063680Y0374790D01*
X0066300Y0373280D01*
X0069230Y0372500D01*
X0072260Y0372500D01*
X0075190Y0373280D01*
X0077810Y0374790D01*
X0079950Y0376940D01*
X0080000Y0377010D01*
X0080040Y0376940D01*
X0082180Y0374790D01*
X0084810Y0373280D01*
X0087730Y0372500D01*
X0090760Y0372500D01*
X0093690Y0373280D01*
X0096310Y0374790D01*
X0098460Y0376940D01*
X0094900Y0373980D02*
X0094900Y0371680D01*
X0091710Y0372750D02*
X0091710Y0305390D01*
X0088530Y0308570D02*
X0088530Y0350410D01*
X0088970Y0350590D02*
X0086980Y0349770D01*
X0084830Y0349770D01*
X0082840Y0350590D01*
X0081310Y0352120D01*
X0080490Y0354110D01*
X0080490Y0356260D01*
X0081310Y0358250D01*
X0082840Y0359770D01*
X0084830Y0360590D01*
X0086980Y0360590D01*
X0088970Y0359770D01*
X0090490Y0358250D01*
X0091310Y0356260D01*
X0091310Y0354110D01*
X0090490Y0352120D01*
X0088970Y0350590D01*
X0085830Y0348840D02*
X0083990Y0349600D01*
X0082000Y0349600D01*
X0080160Y0348840D01*
X0078760Y0347430D01*
X0078000Y0345600D01*
X0078000Y0338930D01*
X0076870Y0339400D01*
X0075700Y0339400D01*
X0067400Y0347700D01*
X0067400Y0348880D01*
X0066730Y0350490D01*
X0065990Y0351230D01*
X0066870Y0352120D01*
X0067690Y0354110D01*
X0067690Y0356260D01*
X0066870Y0358250D01*
X0065350Y0359770D01*
X0063360Y0360590D01*
X0061200Y0360590D01*
X0059210Y0359770D01*
X0057690Y0358250D01*
X0056870Y0356260D01*
X0056870Y0354110D01*
X0057690Y0352120D01*
X0059210Y0350590D01*
X0059320Y0350550D01*
X0059270Y0350490D01*
X0058600Y0348880D01*
X0058600Y0347130D01*
X0059270Y0345510D01*
X0060500Y0344270D01*
X0062120Y0343600D01*
X0063300Y0343600D01*
X0071600Y0335300D01*
X0071600Y0334130D01*
X0072270Y0332510D01*
X0073500Y0331270D01*
X0075120Y0330600D01*
X0076870Y0330600D01*
X0078490Y0331270D01*
X0079730Y0332510D01*
X0080400Y0334130D01*
X0080400Y0335070D01*
X0082000Y0334400D01*
X0083990Y0334400D01*
X0085830Y0335160D01*
X0087240Y0336570D01*
X0088000Y0338410D01*
X0088000Y0345600D01*
X0087240Y0347430D01*
X0085830Y0348840D01*
X0085340Y0349040D02*
X0085340Y0349770D01*
X0082160Y0349600D02*
X0082160Y0351270D01*
X0078970Y0352820D02*
X0078970Y0347650D01*
X0077160Y0350590D02*
X0078680Y0352120D01*
X0079500Y0354110D01*
X0079500Y0356260D01*
X0078680Y0358250D01*
X0077160Y0359770D01*
X0075170Y0360590D01*
X0073010Y0360590D01*
X0071030Y0359770D01*
X0069500Y0358250D01*
X0068680Y0356260D01*
X0068680Y0354110D01*
X0069500Y0352120D01*
X0071030Y0350590D01*
X0073010Y0349770D01*
X0075170Y0349770D01*
X0077160Y0350590D01*
X0075790Y0350030D02*
X0075790Y0339400D01*
X0072600Y0342500D02*
X0072600Y0349940D01*
X0069420Y0352330D02*
X0069420Y0345680D01*
X0066230Y0340660D02*
X0066230Y0143240D01*
X0067230Y0142830D02*
X0065130Y0143700D01*
X0062860Y0143700D01*
X0060770Y0142830D01*
X0059160Y0141230D01*
X0058300Y0139130D01*
X0058300Y0136870D01*
X0059160Y0134770D01*
X0060770Y0133170D01*
X0062860Y0132300D01*
X0065130Y0132300D01*
X0067230Y0133170D01*
X0068830Y0134770D01*
X0069700Y0136870D01*
X0069700Y0139130D01*
X0068830Y0141230D01*
X0067230Y0142830D01*
X0069420Y0139810D02*
X0069420Y0255890D01*
X0070120Y0255600D02*
X0068500Y0256270D01*
X0067270Y0257510D01*
X0066600Y0259130D01*
X0066600Y0260880D01*
X0067270Y0262490D01*
X0068500Y0263730D01*
X0070120Y0264400D01*
X0071300Y0264400D01*
X0073540Y0266640D01*
X0074350Y0267460D01*
X0075420Y0267900D01*
X0078000Y0267900D01*
X0078000Y0268600D01*
X0078760Y0270430D01*
X0080160Y0271840D01*
X0082000Y0272600D01*
X0083990Y0272600D01*
X0085830Y0271840D01*
X0087240Y0270430D01*
X0088000Y0268600D01*
X0088000Y0261410D01*
X0087240Y0259570D01*
X0085830Y0258160D01*
X0083990Y0257400D01*
X0082000Y0257400D01*
X0080160Y0258160D01*
X0078760Y0259570D01*
X0078000Y0261410D01*
X0078000Y0262100D01*
X0077200Y0262100D01*
X0075400Y0260300D01*
X0075400Y0259130D01*
X0074730Y0257510D01*
X0073490Y0256270D01*
X0071870Y0255600D01*
X0070120Y0255600D01*
X0072600Y0255900D02*
X0072600Y0083710D01*
X0075790Y0086890D02*
X0075790Y0260690D01*
X0078970Y0259350D02*
X0078970Y0090080D01*
X0082160Y0093260D02*
X0082160Y0105770D01*
X0082000Y0105930D02*
X0084930Y0103000D01*
X0089070Y0103000D01*
X0092000Y0105930D01*
X0093410Y0104520D01*
X0055210Y0066320D01*
X0054740Y0066320D01*
X0052750Y0065490D01*
X0051230Y0063970D01*
X0050400Y0061980D01*
X0050400Y0059830D01*
X0051230Y0057840D01*
X0052750Y0056320D01*
X0054740Y0055490D01*
X0056890Y0055490D01*
X0058880Y0056320D01*
X0060400Y0057840D01*
X0061230Y0059830D01*
X0061230Y0061980D01*
X0060600Y0063500D01*
X0099460Y0102360D01*
X0099900Y0103420D01*
X0099900Y0103830D01*
X0102000Y0105930D01*
X0102000Y0110070D01*
X0099070Y0113000D01*
X0094930Y0113000D01*
X0092000Y0110070D01*
X0092000Y0105930D01*
X0092000Y0110070D01*
X0089070Y0113000D01*
X0084930Y0113000D01*
X0082000Y0110070D01*
X0082000Y0105930D01*
X0082160Y0110230D02*
X0082160Y0257400D01*
X0085340Y0257960D02*
X0085340Y0113000D01*
X0088530Y0113000D02*
X0088530Y0300370D01*
X0087240Y0300430D02*
X0085830Y0301840D01*
X0083990Y0302600D01*
X0082000Y0302600D01*
X0080160Y0301840D01*
X0078760Y0300430D01*
X0078000Y0298600D01*
X0078000Y0291410D01*
X0078760Y0289570D01*
X0080160Y0288160D01*
X0082000Y0287400D01*
X0083990Y0287400D01*
X0085830Y0288160D01*
X0087240Y0289570D01*
X0088000Y0291410D01*
X0088000Y0298600D01*
X0087240Y0300430D01*
X0085340Y0302040D02*
X0085340Y0303550D01*
X0082160Y0304400D02*
X0082160Y0302600D01*
X0078970Y0300650D02*
X0078970Y0306350D01*
X0075790Y0306690D02*
X0075790Y0267900D01*
X0072600Y0265710D02*
X0072600Y0301900D01*
X0069420Y0301890D02*
X0069420Y0264110D01*
X0078970Y0270650D02*
X0078970Y0289350D01*
X0082160Y0287400D02*
X0082160Y0272600D01*
X0085340Y0272040D02*
X0085340Y0287960D01*
X0091710Y0297180D02*
X0091710Y0110360D01*
X0094900Y0112970D02*
X0094900Y0294000D01*
X0098080Y0290810D02*
X0098080Y0113000D01*
X0101270Y0110800D02*
X0101270Y0287630D01*
X0104450Y0284440D02*
X0104450Y0067770D01*
X0104730Y0067490D02*
X0103490Y0068730D01*
X0101870Y0069400D01*
X0100700Y0069400D01*
X0091400Y0078700D01*
X0091400Y0079880D01*
X0090730Y0081490D01*
X0089490Y0082730D01*
X0087870Y0083400D01*
X0086120Y0083400D01*
X0084500Y0082730D01*
X0083270Y0081490D01*
X0082600Y0079880D01*
X0082600Y0078130D01*
X0083270Y0076510D01*
X0084500Y0075270D01*
X0086120Y0074600D01*
X0087300Y0074600D01*
X0096600Y0065300D01*
X0096600Y0064130D01*
X0097270Y0062510D01*
X0098500Y0061270D01*
X0100120Y0060600D01*
X0101870Y0060600D01*
X0103490Y0061270D01*
X0104730Y0062510D01*
X0105400Y0064130D01*
X0105400Y0065880D01*
X0104730Y0067490D01*
X0106000Y0067930D02*
X0108930Y0065000D01*
X0113070Y0065000D01*
X0116000Y0067930D01*
X0116000Y0072070D01*
X0113070Y0075000D01*
X0108930Y0075000D01*
X0106000Y0072070D01*
X0106000Y0067930D01*
X0107640Y0066290D02*
X0107640Y0059580D01*
X0107490Y0059730D02*
X0105870Y0060400D01*
X0104120Y0060400D01*
X0102500Y0059730D01*
X0101270Y0058490D01*
X0101270Y0060600D01*
X0101270Y0058490D02*
X0100600Y0056880D01*
X0100600Y0055130D01*
X0101270Y0053510D01*
X0101270Y0039080D01*
X0098080Y0039200D02*
X0098080Y0052010D01*
X0097070Y0051000D02*
X0100000Y0053930D01*
X0100000Y0058070D01*
X0097070Y0061000D01*
X0092930Y0061000D01*
X0090000Y0058070D01*
X0090000Y0053930D01*
X0092930Y0051000D01*
X0097070Y0051000D01*
X0094900Y0051000D02*
X0094900Y0037250D01*
X0091710Y0038640D02*
X0091710Y0052210D01*
X0090000Y0053930D02*
X0090000Y0058070D01*
X0087070Y0061000D01*
X0082930Y0061000D01*
X0080000Y0058070D01*
X0080000Y0053930D01*
X0082930Y0051000D01*
X0087070Y0051000D01*
X0090000Y0053930D01*
X0088530Y0052460D02*
X0088530Y0039200D01*
X0085340Y0037700D02*
X0085340Y0051000D01*
X0082160Y0051770D02*
X0082160Y0038190D01*
X0078970Y0039200D02*
X0078970Y0081870D01*
X0075790Y0078690D02*
X0075790Y0038140D01*
X0075790Y0029860D02*
X0075790Y0028140D01*
X0075790Y0019860D02*
X0075790Y0015600D01*
X0078970Y0015600D02*
X0078970Y0018800D01*
X0082160Y0019810D02*
X0082160Y0015600D01*
X0085340Y0015600D02*
X0085340Y0020300D01*
X0088530Y0018800D02*
X0088530Y0015600D01*
X0091710Y0015600D02*
X0091710Y0019360D01*
X0094900Y0020750D02*
X0094900Y0015600D01*
X0098080Y0015600D02*
X0098080Y0018800D01*
X0101270Y0018920D02*
X0101270Y0015600D01*
X0104450Y0015600D02*
X0104450Y0021190D01*
X0107640Y0018800D02*
X0107640Y0015600D01*
X0110820Y0015600D02*
X0110820Y0018800D01*
X0114010Y0021640D02*
X0114010Y0015600D01*
X0117190Y0015600D02*
X0117190Y0018800D01*
X0120380Y0018800D02*
X0120380Y0015600D01*
X0123560Y0015600D02*
X0123560Y0021210D01*
X0126750Y0018900D02*
X0126750Y0015600D01*
X0129930Y0015600D02*
X0129930Y0018800D01*
X0133120Y0020770D02*
X0133120Y0015600D01*
X0136300Y0015600D02*
X0136300Y0019340D01*
X0139490Y0018800D02*
X0139490Y0015600D01*
X0142670Y0015600D02*
X0142670Y0020320D01*
X0145860Y0019790D02*
X0145860Y0015600D01*
X0149040Y0015600D02*
X0149040Y0018800D01*
X0152230Y0019880D02*
X0152230Y0015600D01*
X0155410Y0015600D02*
X0155410Y0020230D01*
X0158600Y0018800D02*
X0158600Y0015600D01*
X0161780Y0015600D02*
X0161780Y0019430D01*
X0164970Y0020680D02*
X0164970Y0015600D01*
X0168150Y0015600D02*
X0168150Y0018800D01*
X0171340Y0018990D02*
X0171340Y0015600D01*
X0174520Y0015600D02*
X0174520Y0020840D01*
X0177710Y0018600D02*
X0177710Y0015600D01*
X0180890Y0015600D02*
X0180890Y0018600D01*
X0179000Y0018600D02*
X0179000Y0024000D01*
X0179000Y0024000D01*
X0179000Y0018600D01*
X0184080Y0021440D02*
X0184080Y0015600D01*
X0187260Y0015600D02*
X0187260Y0018800D01*
X0190450Y0018800D02*
X0190450Y0015600D01*
X0193630Y0015600D02*
X0193630Y0021280D01*
X0196820Y0018830D02*
X0196820Y0015600D01*
X0200000Y0015600D02*
X0200000Y0018800D01*
X0203190Y0020840D02*
X0203190Y0015600D01*
X0206370Y0015600D02*
X0206370Y0397400D01*
X0203190Y0397400D02*
X0203190Y0384110D01*
X0200000Y0388150D02*
X0200000Y0397400D01*
X0196820Y0397400D02*
X0196820Y0389690D01*
X0193630Y0390130D02*
X0193630Y0397400D01*
X0190450Y0397400D02*
X0190450Y0389570D01*
X0187260Y0387720D02*
X0187260Y0397400D01*
X0184080Y0397400D02*
X0184080Y0382610D01*
X0184080Y0377390D02*
X0184080Y0376950D01*
X0180890Y0377470D02*
X0180890Y0397400D01*
X0177710Y0397400D02*
X0177710Y0375580D01*
X0174520Y0376830D02*
X0174520Y0397400D01*
X0171340Y0397400D02*
X0171340Y0377470D01*
X0168150Y0375870D02*
X0168150Y0397400D01*
X0164970Y0397400D02*
X0164970Y0377470D01*
X0161780Y0376960D02*
X0161780Y0397400D01*
X0158600Y0397400D02*
X0158600Y0375480D01*
X0155410Y0377550D02*
X0155410Y0397400D01*
X0152230Y0397400D02*
X0152230Y0381450D01*
X0152230Y0378550D02*
X0152230Y0377310D01*
X0152230Y0369330D02*
X0152230Y0369330D01*
X0142670Y0369870D02*
X0142670Y0345380D01*
X0143000Y0344600D02*
X0142240Y0346430D01*
X0140830Y0347840D01*
X0138990Y0348600D01*
X0137000Y0348600D01*
X0135160Y0347840D01*
X0133760Y0346430D01*
X0133000Y0344600D01*
X0133000Y0337410D01*
X0133760Y0335570D01*
X0135160Y0334160D01*
X0137000Y0333400D01*
X0138990Y0333400D01*
X0140830Y0334160D01*
X0142240Y0335570D01*
X0143000Y0337410D01*
X0143000Y0344600D01*
X0139490Y0348400D02*
X0139490Y0370220D01*
X0136300Y0371670D02*
X0136300Y0348310D01*
X0133120Y0344880D02*
X0133120Y0375360D01*
X0133120Y0384640D02*
X0133120Y0397400D01*
X0136300Y0397400D02*
X0136300Y0388330D01*
X0139490Y0389780D02*
X0139490Y0397400D01*
X0142670Y0397400D02*
X0142670Y0390130D01*
X0145860Y0389490D02*
X0145860Y0397400D01*
X0149040Y0397400D02*
X0149040Y0387410D01*
X0129930Y0397400D02*
X0129930Y0313040D01*
X0133120Y0314880D02*
X0133120Y0337120D01*
X0136300Y0333690D02*
X0136300Y0318310D01*
X0139490Y0318400D02*
X0139490Y0333610D01*
X0142670Y0336620D02*
X0142670Y0315380D01*
X0139490Y0303610D02*
X0139490Y0303400D01*
X0136300Y0303310D02*
X0136300Y0303690D01*
X0133120Y0307120D02*
X0133120Y0299880D01*
X0133120Y0292120D02*
X0133120Y0269880D01*
X0136300Y0273310D02*
X0136300Y0288690D01*
X0139490Y0288610D02*
X0139490Y0273400D01*
X0142670Y0270380D02*
X0142670Y0291620D01*
X0126750Y0309850D02*
X0126750Y0397400D01*
X0101270Y0362890D02*
X0101270Y0359280D01*
X0100780Y0359770D02*
X0102300Y0358250D01*
X0103130Y0356260D01*
X0103130Y0354110D01*
X0102300Y0352120D01*
X0100780Y0350590D01*
X0098790Y0349770D01*
X0096640Y0349770D01*
X0094650Y0350590D01*
X0093130Y0352120D01*
X0092300Y0354110D01*
X0092300Y0356260D01*
X0093130Y0358250D01*
X0094650Y0359770D01*
X0096640Y0360590D01*
X0098790Y0360590D01*
X0100780Y0359770D01*
X0098080Y0360590D02*
X0098080Y0361580D01*
X0094900Y0362300D02*
X0094900Y0359870D01*
X0090490Y0363930D02*
X0091310Y0365920D01*
X0091310Y0368070D01*
X0090490Y0370060D01*
X0088970Y0371580D01*
X0086980Y0372400D01*
X0084830Y0372400D01*
X0082840Y0371580D01*
X0081310Y0370060D01*
X0080490Y0368070D01*
X0080490Y0365920D01*
X0081310Y0363930D01*
X0082840Y0362400D01*
X0084830Y0361580D01*
X0086980Y0361580D01*
X0088970Y0362400D01*
X0090490Y0363930D01*
X0088530Y0362220D02*
X0088530Y0359950D01*
X0085340Y0360590D02*
X0085340Y0361580D01*
X0082160Y0363080D02*
X0082160Y0359090D01*
X0078970Y0357540D02*
X0078970Y0364630D01*
X0078680Y0363930D02*
X0079500Y0365920D01*
X0079500Y0368070D01*
X0078680Y0370060D01*
X0077160Y0371580D01*
X0075170Y0372400D01*
X0073010Y0372400D01*
X0071030Y0371580D01*
X0069500Y0370060D01*
X0068680Y0368070D01*
X0068680Y0365920D01*
X0069500Y0363930D01*
X0071030Y0362400D01*
X0073010Y0361580D01*
X0075170Y0361580D01*
X0077160Y0362400D01*
X0078680Y0363930D01*
X0075790Y0361840D02*
X0075790Y0360340D01*
X0072600Y0360420D02*
X0072600Y0361750D01*
X0069420Y0364140D02*
X0069420Y0358040D01*
X0066230Y0358880D02*
X0066230Y0361770D01*
X0066650Y0361950D02*
X0067330Y0362620D01*
X0067690Y0363500D01*
X0067690Y0370480D01*
X0067330Y0371360D01*
X0066650Y0372040D01*
X0065770Y0372400D01*
X0058790Y0372400D01*
X0057910Y0372040D01*
X0057230Y0371360D01*
X0056870Y0370480D01*
X0056870Y0363500D01*
X0057230Y0362620D01*
X0057910Y0361950D01*
X0058790Y0361580D01*
X0065770Y0361580D01*
X0066650Y0361950D01*
X0063050Y0361580D02*
X0063050Y0360590D01*
X0059860Y0360040D02*
X0059860Y0361580D01*
X0059860Y0372400D02*
X0059860Y0380160D01*
X0063050Y0375430D02*
X0063050Y0372400D01*
X0066230Y0372210D02*
X0066230Y0373320D01*
X0069420Y0372500D02*
X0069420Y0369850D01*
X0072600Y0372230D02*
X0072600Y0372590D01*
X0075790Y0372150D02*
X0075790Y0373630D01*
X0078970Y0375960D02*
X0078970Y0369350D01*
X0082160Y0370900D02*
X0082160Y0374820D01*
X0085340Y0373140D02*
X0085340Y0372400D01*
X0088530Y0372500D02*
X0088530Y0371760D01*
X0098080Y0391440D02*
X0098080Y0397400D01*
X0094900Y0397400D02*
X0094900Y0394030D01*
X0091710Y0395250D02*
X0091710Y0397400D01*
X0088530Y0397400D02*
X0088530Y0395510D01*
X0085340Y0394870D02*
X0085340Y0397400D01*
X0082160Y0397400D02*
X0082160Y0393180D01*
X0078970Y0392050D02*
X0078970Y0397400D01*
X0075790Y0397400D02*
X0075790Y0394380D01*
X0072600Y0395410D02*
X0072600Y0397400D01*
X0069420Y0397400D02*
X0069420Y0395510D01*
X0066230Y0394680D02*
X0066230Y0397400D01*
X0063050Y0397400D02*
X0063050Y0392570D01*
X0059860Y0387840D02*
X0059860Y0397400D01*
X0056680Y0397400D02*
X0056680Y0067780D01*
X0053490Y0065800D02*
X0053490Y0094420D01*
X0054000Y0094930D02*
X0054000Y0099070D01*
X0051070Y0102000D01*
X0046930Y0102000D01*
X0044000Y0099070D01*
X0044000Y0094930D01*
X0046930Y0092000D01*
X0051070Y0092000D01*
X0054000Y0094930D01*
X0053490Y0099580D02*
X0053490Y0124420D01*
X0054000Y0124930D02*
X0054000Y0129070D01*
X0051070Y0132000D01*
X0046930Y0132000D01*
X0044000Y0129070D01*
X0044000Y0124930D01*
X0046930Y0122000D01*
X0051070Y0122000D01*
X0054000Y0124930D01*
X0053490Y0129580D02*
X0053490Y0397400D01*
X0050310Y0397400D02*
X0050310Y0132000D01*
X0047120Y0132000D02*
X0047120Y0397400D01*
X0043940Y0397400D02*
X0043940Y0066320D01*
X0042930Y0066320D02*
X0040940Y0065490D01*
X0039420Y0063970D01*
X0038590Y0061980D01*
X0038590Y0059830D01*
X0039420Y0057840D01*
X0040940Y0056320D01*
X0042930Y0055490D01*
X0045080Y0055490D01*
X0047070Y0056320D01*
X0048590Y0057840D01*
X0049420Y0059830D01*
X0049420Y0061980D01*
X0048590Y0063970D01*
X0047070Y0065490D01*
X0045080Y0066320D01*
X0042930Y0066320D01*
X0040750Y0065310D02*
X0040750Y0397400D01*
X0037570Y0397400D02*
X0037570Y0059700D01*
X0040750Y0056510D02*
X0040750Y0054710D01*
X0040740Y0054710D02*
X0040230Y0054610D01*
X0039760Y0054410D01*
X0039340Y0054130D01*
X0038970Y0053760D01*
X0038690Y0053340D01*
X0038490Y0052870D01*
X0038390Y0052360D01*
X0038390Y0049100D01*
X0044000Y0049100D01*
X0044000Y0049100D01*
X0044000Y0054710D01*
X0040740Y0054710D01*
X0043940Y0054710D02*
X0043940Y0055490D01*
X0044000Y0054710D02*
X0044000Y0049100D01*
X0044000Y0049100D01*
X0038390Y0049100D01*
X0038390Y0045830D01*
X0038490Y0045320D01*
X0038690Y0044850D01*
X0038970Y0044430D01*
X0039340Y0044060D01*
X0039760Y0043780D01*
X0040230Y0043580D01*
X0040740Y0043480D01*
X0044000Y0043480D01*
X0044000Y0049090D01*
X0044000Y0049090D01*
X0044000Y0043480D01*
X0047270Y0043480D01*
X0047780Y0043580D01*
X0048250Y0043780D01*
X0048670Y0044060D01*
X0049040Y0044430D01*
X0049320Y0044850D01*
X0049520Y0045320D01*
X0049620Y0045830D01*
X0049620Y0049100D01*
X0049620Y0052360D01*
X0049520Y0052870D01*
X0049320Y0053340D01*
X0049040Y0053760D01*
X0048670Y0054130D01*
X0048250Y0054410D01*
X0047780Y0054610D01*
X0047270Y0054710D01*
X0044000Y0054710D01*
X0047120Y0054710D02*
X0047120Y0056370D01*
X0051230Y0052160D02*
X0050400Y0050170D01*
X0050400Y0048020D01*
X0051230Y0046030D01*
X0052750Y0044510D01*
X0054740Y0043680D01*
X0056890Y0043680D01*
X0058880Y0044510D01*
X0060400Y0046030D01*
X0061230Y0048020D01*
X0061230Y0050170D01*
X0060400Y0052160D01*
X0058880Y0053680D01*
X0056890Y0054510D01*
X0054740Y0054510D01*
X0052750Y0053680D01*
X0051230Y0052160D01*
X0053490Y0053990D02*
X0053490Y0056010D01*
X0056680Y0055490D02*
X0056680Y0054510D01*
X0059860Y0052700D02*
X0059860Y0057300D01*
X0063050Y0065950D02*
X0063050Y0015600D01*
X0066230Y0015600D02*
X0066230Y0069130D01*
X0069420Y0072320D02*
X0069420Y0015600D01*
X0072600Y0015600D02*
X0072600Y0075500D01*
X0069420Y0080520D02*
X0069420Y0096190D01*
X0069700Y0096870D02*
X0069700Y0099130D01*
X0068830Y0101230D01*
X0067230Y0102830D01*
X0065130Y0103700D01*
X0062860Y0103700D01*
X0060770Y0102830D01*
X0059160Y0101230D01*
X0058300Y0099130D01*
X0058300Y0096870D01*
X0059160Y0094770D01*
X0060770Y0093170D01*
X0062860Y0092300D01*
X0065130Y0092300D01*
X0067230Y0093170D01*
X0068830Y0094770D01*
X0069700Y0096870D01*
X0069420Y0099810D02*
X0069420Y0136190D01*
X0066230Y0132760D02*
X0066230Y0103240D01*
X0063050Y0103700D02*
X0063050Y0132300D01*
X0059860Y0134070D02*
X0059860Y0101930D01*
X0059860Y0094070D02*
X0059860Y0070970D01*
X0063050Y0074150D02*
X0063050Y0092300D01*
X0066230Y0092760D02*
X0066230Y0077340D01*
X0082160Y0085060D02*
X0082160Y0060230D01*
X0085340Y0061000D02*
X0085340Y0074920D01*
X0088530Y0073370D02*
X0088530Y0059540D01*
X0091710Y0059790D02*
X0091710Y0070180D01*
X0094900Y0067000D02*
X0094900Y0061000D01*
X0098080Y0061690D02*
X0098080Y0059990D01*
X0101270Y0053510D02*
X0102500Y0052270D01*
X0104120Y0051600D01*
X0105300Y0051600D01*
X0106000Y0050900D01*
X0106000Y0047930D01*
X0108930Y0045000D01*
X0113070Y0045000D01*
X0116000Y0047930D01*
X0116000Y0052070D01*
X0113070Y0055000D01*
X0110100Y0055000D01*
X0109400Y0055700D01*
X0109400Y0056880D01*
X0108730Y0058490D01*
X0107490Y0059730D01*
X0104450Y0060400D02*
X0104450Y0062230D01*
X0101270Y0069400D02*
X0101270Y0105200D01*
X0098080Y0100980D02*
X0098080Y0072020D01*
X0094900Y0075200D02*
X0094900Y0097800D01*
X0091710Y0094610D02*
X0091710Y0078390D01*
X0088530Y0083130D02*
X0088530Y0091430D01*
X0085340Y0088240D02*
X0085340Y0083080D01*
X0085340Y0096450D02*
X0085340Y0103000D01*
X0088530Y0103000D02*
X0088530Y0099630D01*
X0091710Y0102820D02*
X0091710Y0105640D01*
X0107640Y0073710D02*
X0107640Y0176140D01*
X0107270Y0176510D02*
X0108500Y0175270D01*
X0110120Y0174600D01*
X0111870Y0174600D01*
X0113490Y0175270D01*
X0114730Y0176510D01*
X0115400Y0178130D01*
X0115400Y0179880D01*
X0114730Y0181490D01*
X0113900Y0182320D01*
X0113900Y0184920D01*
X0114400Y0186130D01*
X0114400Y0187880D01*
X0113730Y0189490D01*
X0112490Y0190730D01*
X0110870Y0191400D01*
X0109120Y0191400D01*
X0107500Y0190730D01*
X0106270Y0189490D01*
X0105600Y0187880D01*
X0105600Y0186130D01*
X0106270Y0184510D01*
X0107500Y0183270D01*
X0108100Y0183030D01*
X0108100Y0182320D01*
X0107270Y0181490D01*
X0106600Y0179880D01*
X0106600Y0178130D01*
X0107270Y0176510D01*
X0107640Y0181860D02*
X0107640Y0183220D01*
X0107640Y0190790D02*
X0107640Y0281260D01*
X0101270Y0295830D02*
X0101270Y0351080D01*
X0098080Y0349770D02*
X0098080Y0299020D01*
X0094900Y0302200D02*
X0094900Y0350490D01*
X0085340Y0334960D02*
X0085340Y0319040D01*
X0082160Y0319600D02*
X0082160Y0334400D01*
X0078970Y0331750D02*
X0078970Y0317650D01*
X0075790Y0314640D02*
X0075790Y0330600D01*
X0072600Y0332170D02*
X0072600Y0311710D01*
X0069420Y0310110D02*
X0069420Y0337480D01*
X0063050Y0343600D02*
X0063050Y0143700D01*
X0059860Y0141930D02*
X0059860Y0344910D01*
X0066230Y0350990D02*
X0066230Y0351480D01*
X0034380Y0397400D02*
X0034380Y0063890D01*
X0031200Y0065790D02*
X0031200Y0101850D01*
X0031200Y0104000D01*
X0026000Y0104000D01*
X0026000Y0104000D01*
X0031200Y0104000D01*
X0031200Y0106150D01*
X0028210Y0109140D01*
X0031000Y0111930D01*
X0031000Y0116070D01*
X0028070Y0119000D01*
X0023930Y0119000D01*
X0021000Y0116070D01*
X0021000Y0111930D01*
X0023780Y0109140D01*
X0020800Y0106150D01*
X0020800Y0104000D01*
X0020800Y0101850D01*
X0023840Y0098800D01*
X0026000Y0098800D01*
X0028150Y0098800D01*
X0031200Y0101850D01*
X0031200Y0104000D02*
X0031200Y0104000D01*
X0031200Y0106150D02*
X0031200Y0383370D01*
X0028010Y0380730D02*
X0028010Y0119000D01*
X0024830Y0119000D02*
X0024830Y0379440D01*
X0021640Y0379100D02*
X0021640Y0116720D01*
X0021640Y0111280D02*
X0021640Y0107000D01*
X0021640Y0104000D02*
X0021640Y0104000D01*
X0020800Y0104000D02*
X0026000Y0104000D01*
X0026000Y0098800D01*
X0026000Y0104000D01*
X0026000Y0104000D01*
X0026000Y0104000D01*
X0020800Y0104000D01*
X0021640Y0101000D02*
X0021640Y0065190D01*
X0024830Y0066330D02*
X0024830Y0098800D01*
X0028010Y0098800D02*
X0028010Y0066510D01*
X0018460Y0062730D02*
X0018460Y0379630D01*
X0110820Y0215580D02*
X0110820Y0191400D01*
X0114010Y0188820D02*
X0114010Y0212650D01*
X0117190Y0210700D02*
X0117190Y0071270D01*
X0114010Y0074060D02*
X0114010Y0175790D01*
X0110820Y0174600D02*
X0110820Y0075000D01*
X0114010Y0065940D02*
X0114010Y0054060D01*
X0110820Y0055000D02*
X0110820Y0065000D01*
X0117190Y0066730D02*
X0117190Y0051270D01*
X0120380Y0054000D02*
X0120380Y0064000D01*
X0123560Y0064000D02*
X0123560Y0054000D01*
X0117190Y0046730D02*
X0117190Y0039200D01*
X0120380Y0039200D02*
X0120380Y0044000D01*
X0123560Y0044000D02*
X0123560Y0036790D01*
X0114010Y0036360D02*
X0114010Y0045940D01*
X0110820Y0045000D02*
X0110820Y0039200D01*
X0107640Y0039200D02*
X0107640Y0046290D01*
X0104450Y0051600D02*
X0104450Y0036810D01*
X0059860Y0045490D02*
X0059860Y0015600D01*
X0056680Y0015600D02*
X0056680Y0043680D01*
X0053490Y0044200D02*
X0053490Y0015600D01*
X0050310Y0015600D02*
X0050310Y0092000D01*
X0047120Y0092000D02*
X0047120Y0065440D01*
X0047120Y0049100D02*
X0047120Y0049100D01*
X0049620Y0049100D02*
X0044000Y0049100D01*
X0044000Y0049100D01*
X0049620Y0049100D01*
X0047120Y0043480D02*
X0047120Y0015600D01*
X0043940Y0015600D02*
X0043940Y0043480D01*
X0040750Y0043480D02*
X0040750Y0015600D01*
X0037570Y0015600D02*
X0037570Y0050300D01*
X0040750Y0049100D02*
X0040750Y0049100D01*
X0043940Y0049100D02*
X0043940Y0049100D01*
X0034380Y0046110D02*
X0034380Y0015600D01*
X0031200Y0029630D02*
X0031200Y0044210D01*
X0028010Y0043500D02*
X0028010Y0032270D01*
X0024830Y0033560D02*
X0024830Y0043670D01*
X0021640Y0044810D02*
X0021640Y0033900D01*
X0018460Y0033370D02*
X0018460Y0047270D01*
X0047120Y0102000D02*
X0047120Y0122000D01*
X0050310Y0122000D02*
X0050310Y0102000D01*
X0028010Y0104000D02*
X0028010Y0104000D01*
X0024830Y0104000D02*
X0024830Y0104000D01*
X0114010Y0182210D02*
X0114010Y0185180D01*
X0155410Y0182600D02*
X0155410Y0180690D01*
X0164970Y0162930D02*
X0164970Y0037320D01*
X0168150Y0039200D02*
X0168150Y0159740D01*
X0171340Y0154440D02*
X0171340Y0039010D01*
X0174520Y0036880D02*
X0174520Y0153600D01*
X0177710Y0155490D02*
X0177710Y0039200D01*
X0203190Y0030840D02*
X0203190Y0027160D01*
X0209560Y0015600D02*
X0209560Y0397400D01*
X0212740Y0397400D02*
X0212740Y0015600D01*
X0250960Y0066400D02*
X0250960Y0067960D01*
X0250960Y0076040D02*
X0250960Y0077960D01*
X0251930Y0077000D02*
X0256070Y0077000D01*
X0259000Y0079930D01*
X0259000Y0084070D01*
X0256070Y0087000D01*
X0251930Y0087000D01*
X0249000Y0084070D01*
X0249000Y0079930D01*
X0251930Y0077000D01*
X0254150Y0077000D02*
X0254150Y0077000D01*
X0257330Y0075740D02*
X0257330Y0078260D01*
X0257330Y0085740D02*
X0257330Y0142590D01*
X0254150Y0141080D02*
X0254150Y0087000D01*
X0250960Y0086040D02*
X0250960Y0140000D01*
X0247780Y0148850D02*
X0247780Y0150870D01*
X0244590Y0151520D02*
X0244590Y0148480D01*
X0241410Y0150000D02*
X0241410Y0150000D01*
X0238220Y0149300D02*
X0238220Y0150700D01*
X0254150Y0150800D02*
X0254150Y0148920D01*
X0257330Y0150310D02*
X0257330Y0147410D01*
X0260520Y0140000D02*
X0260520Y0068550D01*
X0263700Y0076780D02*
X0263700Y0077220D01*
X0266890Y0077000D02*
X0266890Y0077000D01*
X0270070Y0075000D02*
X0270070Y0079000D01*
X0263700Y0086780D02*
X0263700Y0140000D01*
X0276440Y0142370D02*
X0276440Y0033400D01*
X0263700Y0039080D02*
X0263700Y0059920D01*
X0260520Y0058600D02*
X0260520Y0040810D01*
X0257330Y0040150D02*
X0257330Y0058600D01*
X0270070Y0234320D02*
X0270070Y0252820D01*
X0266890Y0256010D02*
X0266890Y0236210D01*
X0263700Y0239400D02*
X0263700Y0259190D01*
X0266890Y0266110D02*
X0266890Y0381370D01*
X0270070Y0379730D02*
X0270070Y0287300D01*
X0270500Y0287730D02*
X0269270Y0286490D01*
X0268600Y0284880D01*
X0268600Y0283130D01*
X0269270Y0281510D01*
X0270100Y0280680D01*
X0270100Y0274320D01*
X0269270Y0273490D01*
X0268600Y0271880D01*
X0268600Y0270130D01*
X0269270Y0268510D01*
X0270500Y0267270D01*
X0272120Y0266600D01*
X0273870Y0266600D01*
X0275490Y0267270D01*
X0276730Y0268510D01*
X0277400Y0270130D01*
X0277400Y0271880D01*
X0276730Y0273490D01*
X0275900Y0274320D01*
X0275900Y0280680D01*
X0276730Y0281510D01*
X0277400Y0283130D01*
X0277400Y0284880D01*
X0276730Y0286490D01*
X0275490Y0287730D01*
X0273870Y0288400D01*
X0272120Y0288400D01*
X0270500Y0287730D01*
X0273260Y0288400D02*
X0273260Y0379100D01*
X0276440Y0379340D02*
X0276440Y0286780D01*
X0276440Y0281220D02*
X0276440Y0273780D01*
X0276440Y0268220D02*
X0276440Y0259660D01*
X0279630Y0256470D02*
X0279630Y0380510D01*
X0263700Y0385030D02*
X0263700Y0318370D01*
X0265000Y0317070D02*
X0262070Y0320000D01*
X0257930Y0320000D01*
X0255000Y0317070D01*
X0255000Y0312930D01*
X0257930Y0310000D01*
X0262070Y0310000D01*
X0265000Y0312930D01*
X0265000Y0317070D01*
X0263700Y0311630D02*
X0263700Y0289060D01*
X0264490Y0288730D02*
X0262870Y0289400D01*
X0261700Y0289400D01*
X0248400Y0302700D01*
X0248400Y0303880D01*
X0247730Y0305490D01*
X0246490Y0306730D01*
X0244870Y0307400D01*
X0243120Y0307400D01*
X0241500Y0306730D01*
X0240270Y0305490D01*
X0239600Y0303880D01*
X0239600Y0302130D01*
X0240270Y0300510D01*
X0241500Y0299270D01*
X0243120Y0298600D01*
X0244300Y0298600D01*
X0257600Y0285300D01*
X0257600Y0284130D01*
X0258270Y0282510D01*
X0259500Y0281270D01*
X0261120Y0280600D01*
X0262870Y0280600D01*
X0264490Y0281270D01*
X0265730Y0282510D01*
X0266400Y0284130D01*
X0266400Y0285880D01*
X0265730Y0287490D01*
X0264490Y0288730D01*
X0263700Y0280940D02*
X0263700Y0268400D01*
X0260520Y0267740D02*
X0260520Y0280850D01*
X0257330Y0285560D02*
X0257330Y0247030D01*
X0254150Y0250290D02*
X0254150Y0288750D01*
X0250960Y0291930D02*
X0250960Y0249920D01*
X0247780Y0243320D02*
X0247780Y0295120D01*
X0244590Y0298300D02*
X0244590Y0246510D01*
X0241410Y0255660D02*
X0241410Y0299370D01*
X0241410Y0306630D02*
X0241410Y0389630D01*
X0238220Y0389560D02*
X0238220Y0257000D01*
X0235040Y0256110D02*
X0235040Y0389560D01*
X0231850Y0390980D02*
X0231850Y0255220D01*
X0228670Y0257000D02*
X0228670Y0348230D01*
X0228670Y0354620D02*
X0228670Y0397400D01*
X0225480Y0397400D02*
X0225480Y0356400D01*
X0222300Y0356400D02*
X0222300Y0374700D01*
X0222900Y0374950D02*
X0224300Y0376350D01*
X0225060Y0378180D01*
X0225060Y0385310D01*
X0224300Y0387130D01*
X0222900Y0388530D01*
X0221070Y0389290D01*
X0219090Y0389290D01*
X0217270Y0388530D01*
X0215870Y0387130D01*
X0215110Y0385310D01*
X0215110Y0378180D01*
X0215870Y0376350D01*
X0217270Y0374950D01*
X0219090Y0374190D01*
X0221070Y0374190D01*
X0222900Y0374950D01*
X0219110Y0374190D02*
X0219110Y0356400D01*
X0215930Y0354710D02*
X0215930Y0376290D01*
X0215930Y0387190D02*
X0215930Y0397400D01*
X0219110Y0397400D02*
X0219110Y0389290D01*
X0222300Y0388780D02*
X0222300Y0397400D01*
X0231850Y0394730D02*
X0231850Y0394730D01*
X0235040Y0394730D02*
X0235040Y0394730D01*
X0238220Y0394730D02*
X0238220Y0394730D01*
X0241410Y0394730D02*
X0241410Y0394730D01*
X0244590Y0394730D02*
X0244590Y0394730D01*
X0244590Y0391460D02*
X0244590Y0375310D01*
X0244210Y0374930D02*
X0243460Y0373100D01*
X0243460Y0365970D01*
X0244210Y0364140D01*
X0245610Y0362740D01*
X0247440Y0361990D01*
X0249420Y0361990D01*
X0251250Y0362740D01*
X0252650Y0364140D01*
X0252900Y0364760D01*
X0252900Y0360460D01*
X0253660Y0358630D01*
X0255060Y0357230D01*
X0256890Y0356470D01*
X0258870Y0356470D01*
X0260700Y0357230D01*
X0262100Y0358630D01*
X0262850Y0360460D01*
X0262850Y0367590D01*
X0262100Y0369420D01*
X0260700Y0370820D01*
X0258870Y0371570D01*
X0256890Y0371570D01*
X0255060Y0370820D01*
X0253660Y0369420D01*
X0253400Y0368800D01*
X0253400Y0373100D01*
X0252650Y0374930D01*
X0251250Y0376330D01*
X0249420Y0377090D01*
X0247440Y0377090D01*
X0245610Y0376330D01*
X0244210Y0374930D01*
X0247780Y0377090D02*
X0247780Y0397400D01*
X0250960Y0397400D02*
X0250960Y0376450D01*
X0254150Y0369900D02*
X0254150Y0397400D01*
X0257330Y0397400D02*
X0257330Y0371570D01*
X0260520Y0370890D02*
X0260520Y0397400D01*
X0263700Y0397400D02*
X0263700Y0396970D01*
X0250960Y0362630D02*
X0250960Y0320000D01*
X0252070Y0320000D02*
X0255000Y0317070D01*
X0255000Y0312930D01*
X0252070Y0310000D01*
X0247930Y0310000D01*
X0245000Y0312930D01*
X0245000Y0317070D01*
X0247930Y0320000D01*
X0252070Y0320000D01*
X0254150Y0317920D02*
X0254150Y0358150D01*
X0257330Y0356470D02*
X0257330Y0319410D01*
X0260520Y0320000D02*
X0260520Y0357160D01*
X0247780Y0361990D02*
X0247780Y0319850D01*
X0247780Y0310150D02*
X0247780Y0305370D01*
X0244590Y0307400D02*
X0244590Y0363760D01*
X0254150Y0312080D02*
X0254150Y0296950D01*
X0257330Y0293770D02*
X0257330Y0310590D01*
X0260520Y0310000D02*
X0260520Y0290580D01*
X0250960Y0300140D02*
X0250960Y0310000D01*
X0270070Y0280700D02*
X0270070Y0274300D01*
X0270070Y0267700D02*
X0270070Y0263970D01*
X0273260Y0264240D02*
X0273260Y0266600D01*
X0260520Y0260270D02*
X0260520Y0242580D01*
X0184080Y0249320D02*
X0184080Y0361710D01*
X0180890Y0361190D02*
X0180890Y0248890D01*
X0177710Y0244400D02*
X0177710Y0363080D01*
X0161780Y0273160D02*
X0161780Y0250850D01*
X0164970Y0251360D02*
X0164970Y0272640D01*
X0127000Y0105000D02*
X0127000Y0105000D01*
X0126750Y0105000D02*
X0126750Y0105000D01*
X0123560Y0105000D02*
X0123560Y0105000D01*
D77*
X0130000Y0073000D03*
X0132000Y0048000D03*
X0105000Y0056000D03*
X0101000Y0065000D03*
X0087000Y0079000D03*
X0111000Y0179000D03*
X0110000Y0187000D03*
X0124000Y0213000D03*
X0123000Y0218000D03*
X0115000Y0217000D03*
X0118000Y0237000D03*
X0132000Y0242000D03*
X0137000Y0237000D03*
X0143000Y0247000D03*
X0143000Y0224000D03*
X0132000Y0223000D03*
X0134000Y0203000D03*
X0155000Y0187000D03*
X0164000Y0218000D03*
X0178000Y0240000D03*
X0183000Y0245000D03*
X0164000Y0247000D03*
X0164000Y0277000D03*
X0126000Y0305000D03*
X0116000Y0277000D03*
X0076000Y0335000D03*
X0063000Y0348000D03*
X0071000Y0306000D03*
X0071000Y0260000D03*
X0174000Y0158000D03*
X0222000Y0192000D03*
X0226000Y0188000D03*
X0252000Y0207000D03*
X0258000Y0212000D03*
X0264000Y0206000D03*
X0269000Y0206000D03*
X0269000Y0211000D03*
X0274000Y0200000D03*
X0262000Y0188000D03*
X0259000Y0201000D03*
X0254000Y0231000D03*
X0253000Y0241000D03*
X0253000Y0246000D03*
X0263000Y0264000D03*
X0272000Y0260000D03*
X0275000Y0252000D03*
X0273000Y0271000D03*
X0273000Y0284000D03*
X0262000Y0285000D03*
X0244000Y0303000D03*
X0269000Y0230000D03*
D118*
X0253000Y0246000D01*
X0253000Y0241000D02*
X0269000Y0225000D01*
X0269000Y0211000D01*
X0269000Y0206000D02*
X0281000Y0218000D01*
X0281000Y0251000D01*
X0272000Y0260000D01*
X0275000Y0252000D02*
X0263000Y0264000D01*
X0273000Y0271000D02*
X0273000Y0284000D01*
X0262000Y0285000D02*
X0244000Y0303000D01*
X0238000Y0252000D02*
X0238000Y0249000D01*
X0254000Y0233000D01*
X0254000Y0231000D01*
X0258000Y0212000D02*
X0264000Y0206000D01*
X0269000Y0206000D02*
X0264000Y0201000D01*
X0259000Y0201000D01*
X0253000Y0207000D02*
X0252000Y0207000D01*
X0253000Y0207000D02*
X0258000Y0212000D01*
X0274000Y0200000D02*
X0266000Y0192000D01*
X0222000Y0192000D01*
X0226000Y0188000D02*
X0262000Y0188000D01*
X0183000Y0245000D02*
X0178000Y0240000D01*
X0164000Y0247000D02*
X0164000Y0218000D01*
X0155000Y0187000D02*
X0124000Y0218000D01*
X0123000Y0218000D01*
X0124000Y0213000D02*
X0134000Y0203000D01*
X0132000Y0223000D02*
X0118000Y0237000D01*
X0132000Y0242000D02*
X0137000Y0237000D01*
X0143000Y0247000D02*
X0143000Y0224000D01*
X0115000Y0217000D02*
X0174000Y0158000D01*
X0111000Y0179000D02*
X0111000Y0186000D01*
X0110000Y0187000D01*
X0071000Y0260000D02*
X0076000Y0265000D01*
X0083000Y0265000D01*
X0071000Y0306000D02*
X0077000Y0312000D01*
X0083000Y0312000D01*
X0083000Y0310000D01*
X0116000Y0277000D01*
X0126000Y0305000D02*
X0132000Y0311000D01*
X0138000Y0311000D01*
X0164000Y0285000D01*
X0164000Y0277000D01*
X0076000Y0335000D02*
X0063000Y0348000D01*
X0097000Y0108000D02*
X0097000Y0104000D01*
X0056000Y0063000D01*
X0056000Y0061000D01*
X0055820Y0060910D01*
X0087000Y0079000D02*
X0101000Y0065000D01*
X0105000Y0056000D02*
X0111000Y0050000D01*
X0010000Y0409250D02*
G75*
%LPD*%
D104*
X0075000Y0454250D03*
X0085000Y0454250D03*
X0085000Y0484250D03*
X0075000Y0484250D03*
X0193030Y0543190D03*
X0223030Y0543190D03*
D34*
X0063550Y0446080D02*
X0063550Y0440930D01*
X0035810Y0441340D02*
X0030660Y0441340D01*
X0020240Y0456680D02*
X0020240Y0461820D01*
X0042860Y0469680D02*
X0048010Y0469680D01*
X0048370Y0479130D02*
X0053520Y0479130D01*
D55*
X0042010Y0498340D03*
X0042010Y0543340D03*
X0042010Y0588340D03*
D47*
X0053820Y0588340D03*
X0053820Y0600160D03*
X0042010Y0600160D03*
X0042010Y0555160D03*
X0053820Y0555160D03*
X0053820Y0543340D03*
X0053820Y0510160D03*
X0042010Y0510160D03*
X0053820Y0498340D03*
X0238150Y0447280D03*
X0249960Y0447280D03*
X0247990Y0589250D03*
X0236180Y0589250D03*
D42*
X0065000Y0589250D03*
X0065000Y0629250D03*
D14*
X0270910Y0478340D03*
D52*
X0260910Y0478340D03*
X0260910Y0488340D03*
X0270910Y0488340D03*
X0270910Y0498340D03*
X0260910Y0498340D03*
X0260910Y0508340D03*
X0270910Y0508340D03*
X0270910Y0518340D03*
X0260910Y0518340D03*
X0260910Y0528340D03*
X0270910Y0528340D03*
X0270910Y0538340D03*
X0260910Y0538340D03*
X0260910Y0548340D03*
X0270910Y0548340D03*
D65*
X0155670Y0503740D03*
X0126140Y0476180D03*
X0116300Y0507680D03*
X0122210Y0539170D03*
D99*
X0015600Y0454380D02*
X0015600Y0431680D01*
X0017700Y0433770D01*
X0020410Y0435340D01*
X0023440Y0436150D01*
X0026570Y0436150D01*
X0029600Y0435340D01*
X0032310Y0433770D01*
X0034520Y0431560D01*
X0036090Y0428840D01*
X0036900Y0425820D01*
X0036900Y0422680D01*
X0036090Y0419660D01*
X0034520Y0416940D01*
X0032430Y0414850D01*
X0262570Y0414850D01*
X0260480Y0416940D01*
X0258910Y0419660D01*
X0258100Y0422680D01*
X0258100Y0425820D01*
X0258910Y0428840D01*
X0260480Y0431560D01*
X0262700Y0433770D01*
X0265410Y0435340D01*
X0267040Y0435780D01*
X0265460Y0435780D01*
X0262530Y0436560D01*
X0259910Y0438070D01*
X0257760Y0440220D01*
X0256250Y0442840D01*
X0255470Y0445770D01*
X0255470Y0448800D01*
X0256250Y0451720D01*
X0257760Y0454350D01*
X0259910Y0456490D01*
X0262530Y0458000D01*
X0265460Y0458790D01*
X0268490Y0458790D01*
X0271410Y0458000D01*
X0274040Y0456490D01*
X0276180Y0454350D01*
X0277690Y0451720D01*
X0278480Y0448800D01*
X0278480Y0445770D01*
X0277690Y0442840D01*
X0276180Y0440220D01*
X0274040Y0438070D01*
X0271410Y0436560D01*
X0269880Y0436150D01*
X0271570Y0436150D01*
X0274600Y0435340D01*
X0277310Y0433770D01*
X0279520Y0431560D01*
X0279990Y0430740D01*
X0279990Y0633960D01*
X0276020Y0633960D01*
X0276090Y0633840D01*
X0276900Y0630820D01*
X0276900Y0627680D01*
X0276090Y0624660D01*
X0274520Y0621940D01*
X0272310Y0619730D01*
X0269600Y0618160D01*
X0266570Y0617350D01*
X0263440Y0617350D01*
X0260410Y0618160D01*
X0257700Y0619730D01*
X0255480Y0621940D01*
X0253910Y0624660D01*
X0253100Y0627680D01*
X0253100Y0630820D01*
X0253910Y0633840D01*
X0253980Y0633960D01*
X0098470Y0633960D01*
X0099050Y0632570D01*
X0099050Y0631390D01*
X0102630Y0627810D01*
X0103620Y0628220D01*
X0105370Y0628220D01*
X0106980Y0627550D01*
X0108220Y0626310D01*
X0108890Y0624690D01*
X0108890Y0622940D01*
X0108220Y0621320D01*
X0106980Y0620090D01*
X0105370Y0619420D01*
X0103620Y0619420D01*
X0102000Y0620090D01*
X0100760Y0621320D01*
X0100650Y0621590D01*
X0100060Y0622170D01*
X0094950Y0627290D01*
X0093770Y0627290D01*
X0092160Y0627960D01*
X0090920Y0629200D01*
X0090250Y0630820D01*
X0090250Y0632570D01*
X0090830Y0633960D01*
X0068350Y0633960D01*
X0069830Y0632480D01*
X0070700Y0630380D01*
X0070700Y0628120D01*
X0069830Y0626020D01*
X0068230Y0624420D01*
X0066140Y0623550D01*
X0063870Y0623550D01*
X0061770Y0624420D01*
X0060170Y0626020D01*
X0059300Y0628120D01*
X0059300Y0630380D01*
X0060170Y0632480D01*
X0061660Y0633960D01*
X0036020Y0633960D01*
X0036090Y0633840D01*
X0036900Y0630820D01*
X0036900Y0627680D01*
X0036090Y0624660D01*
X0034520Y0621940D01*
X0032310Y0619730D01*
X0029600Y0618160D01*
X0026570Y0617350D01*
X0023440Y0617350D01*
X0020410Y0618160D01*
X0017700Y0619730D01*
X0015600Y0621820D01*
X0015600Y0600980D01*
X0015800Y0601310D01*
X0017940Y0603460D01*
X0020560Y0604970D01*
X0023490Y0605760D01*
X0026520Y0605760D01*
X0029440Y0604970D01*
X0032070Y0603460D01*
X0034210Y0601310D01*
X0035720Y0598690D01*
X0036510Y0595760D01*
X0036510Y0592740D01*
X0035720Y0589810D01*
X0034210Y0587190D01*
X0032070Y0585040D01*
X0029440Y0583530D01*
X0026520Y0582740D01*
X0023490Y0582740D01*
X0020560Y0583530D01*
X0017940Y0585040D01*
X0015800Y0587190D01*
X0015600Y0587520D01*
X0015600Y0555980D01*
X0015800Y0556310D01*
X0017940Y0558460D01*
X0020560Y0559970D01*
X0023490Y0560760D01*
X0026520Y0560760D01*
X0029440Y0559970D01*
X0032070Y0558460D01*
X0034210Y0556310D01*
X0035720Y0553690D01*
X0036510Y0550760D01*
X0036510Y0547740D01*
X0035720Y0544810D01*
X0034210Y0542190D01*
X0032070Y0540040D01*
X0029440Y0538530D01*
X0026520Y0537740D01*
X0023490Y0537740D01*
X0020560Y0538530D01*
X0017940Y0540040D01*
X0015800Y0542190D01*
X0015600Y0542520D01*
X0015600Y0510980D01*
X0015800Y0511310D01*
X0017940Y0513460D01*
X0020560Y0514970D01*
X0023490Y0515760D01*
X0026520Y0515760D01*
X0029440Y0514970D01*
X0032070Y0513460D01*
X0034210Y0511310D01*
X0035720Y0508690D01*
X0036510Y0505760D01*
X0036510Y0502740D01*
X0035720Y0499810D01*
X0034210Y0497190D01*
X0032070Y0495040D01*
X0029440Y0493530D01*
X0026520Y0492740D01*
X0023490Y0492740D01*
X0020560Y0493530D01*
X0017940Y0495040D01*
X0015800Y0497190D01*
X0015600Y0497520D01*
X0015600Y0464120D01*
X0015810Y0464540D01*
X0016290Y0465200D01*
X0016870Y0465770D01*
X0017530Y0466250D01*
X0018250Y0466620D01*
X0019030Y0466870D01*
X0019830Y0467000D01*
X0020240Y0467000D01*
X0020240Y0459250D01*
X0025410Y0459250D01*
X0020240Y0459250D01*
X0020240Y0459250D01*
X0020240Y0459250D01*
X0020240Y0451500D01*
X0020650Y0451500D01*
X0021450Y0451630D01*
X0022220Y0451880D01*
X0022950Y0452250D01*
X0023610Y0452730D01*
X0024190Y0453300D01*
X0024660Y0453960D01*
X0025030Y0454690D01*
X0025290Y0455460D01*
X0025410Y0456270D01*
X0025410Y0459250D01*
X0025410Y0462230D01*
X0025290Y0463040D01*
X0025030Y0463810D01*
X0024660Y0464540D01*
X0024190Y0465200D01*
X0023610Y0465770D01*
X0022950Y0466250D01*
X0022220Y0466620D01*
X0021450Y0466870D01*
X0020650Y0467000D01*
X0020240Y0467000D01*
X0020240Y0459250D01*
X0020240Y0459250D01*
X0020240Y0451500D01*
X0019830Y0451500D01*
X0019030Y0451630D01*
X0018250Y0451880D01*
X0017530Y0452250D01*
X0016870Y0452730D01*
X0016290Y0453300D01*
X0015810Y0453960D01*
X0015600Y0454380D01*
X0015600Y0453840D02*
X0015900Y0453840D01*
X0015600Y0450660D02*
X0061600Y0450660D01*
X0060730Y0450290D02*
X0059330Y0448890D01*
X0058570Y0447070D01*
X0058570Y0439940D01*
X0059330Y0438110D01*
X0060730Y0436710D01*
X0062560Y0435950D01*
X0064530Y0435950D01*
X0066360Y0436710D01*
X0067760Y0438110D01*
X0068520Y0439940D01*
X0068520Y0447070D01*
X0067760Y0448890D01*
X0066360Y0450290D01*
X0064530Y0451050D01*
X0062560Y0451050D01*
X0060730Y0450290D01*
X0058740Y0447470D02*
X0015600Y0447470D01*
X0015600Y0444290D02*
X0026570Y0444290D01*
X0026440Y0444150D02*
X0025680Y0442330D01*
X0025680Y0440350D01*
X0026440Y0438520D01*
X0027840Y0437120D01*
X0029670Y0436360D01*
X0036790Y0436360D01*
X0038620Y0437120D01*
X0040020Y0438520D01*
X0040780Y0440350D01*
X0040780Y0442330D01*
X0040020Y0444150D01*
X0038620Y0445550D01*
X0036790Y0446310D01*
X0029670Y0446310D01*
X0027840Y0445550D01*
X0026440Y0444150D01*
X0025680Y0441100D02*
X0015600Y0441100D01*
X0015600Y0437920D02*
X0027040Y0437920D01*
X0030650Y0434730D02*
X0120180Y0434730D01*
X0120450Y0435360D02*
X0119780Y0433750D01*
X0119780Y0432570D01*
X0115100Y0427900D01*
X0111750Y0427900D01*
X0110920Y0428730D01*
X0109300Y0429400D01*
X0107550Y0429400D01*
X0105930Y0428730D01*
X0104700Y0427490D01*
X0104030Y0425870D01*
X0104030Y0424120D01*
X0104700Y0422510D01*
X0105930Y0421270D01*
X0107550Y0420600D01*
X0109300Y0420600D01*
X0110920Y0421270D01*
X0111750Y0422100D01*
X0116880Y0422100D01*
X0117940Y0422540D01*
X0118760Y0423360D01*
X0123880Y0428470D01*
X0125050Y0428470D01*
X0126670Y0429140D01*
X0127910Y0430380D01*
X0128580Y0432000D01*
X0128580Y0433750D01*
X0127910Y0435360D01*
X0126670Y0436600D01*
X0125050Y0437270D01*
X0123300Y0437270D01*
X0121680Y0436600D01*
X0120450Y0435360D01*
X0118750Y0431550D02*
X0034530Y0431550D01*
X0036220Y0428360D02*
X0105570Y0428360D01*
X0104030Y0425180D02*
X0036900Y0425180D01*
X0036720Y0421990D02*
X0105210Y0421990D01*
X0111640Y0421990D02*
X0258290Y0421990D01*
X0258100Y0425180D02*
X0120580Y0425180D01*
X0123760Y0428360D02*
X0151990Y0428360D01*
X0151940Y0428410D02*
X0153180Y0427170D01*
X0154800Y0426500D01*
X0156550Y0426500D01*
X0158160Y0427170D01*
X0159400Y0428410D01*
X0160070Y0430030D01*
X0160070Y0431200D01*
X0178990Y0450130D01*
X0180170Y0450130D01*
X0181790Y0450800D01*
X0183020Y0452030D01*
X0183690Y0453650D01*
X0183690Y0455400D01*
X0183020Y0457020D01*
X0182190Y0457850D01*
X0182190Y0472860D01*
X0183020Y0473690D01*
X0183190Y0474090D01*
X0194580Y0462700D01*
X0194580Y0461520D01*
X0195250Y0459910D01*
X0196490Y0458670D01*
X0198100Y0458000D01*
X0199850Y0458000D01*
X0201470Y0458670D01*
X0202710Y0459910D01*
X0203380Y0461520D01*
X0203380Y0463270D01*
X0202710Y0464890D01*
X0202250Y0465350D01*
X0202710Y0465810D01*
X0203380Y0467430D01*
X0203380Y0468600D01*
X0204590Y0469810D01*
X0205760Y0469810D01*
X0207380Y0470480D01*
X0208610Y0471720D01*
X0209280Y0473340D01*
X0209280Y0473430D01*
X0210270Y0472450D01*
X0211880Y0471780D01*
X0213630Y0471780D01*
X0215250Y0472450D01*
X0216490Y0473690D01*
X0217160Y0475300D01*
X0217160Y0475550D01*
X0237890Y0454820D01*
X0237890Y0453650D01*
X0238280Y0452690D01*
X0237080Y0452690D01*
X0235090Y0451870D01*
X0233560Y0450350D01*
X0232740Y0448360D01*
X0232740Y0446210D01*
X0233560Y0444220D01*
X0235090Y0442690D01*
X0237080Y0441870D01*
X0239230Y0441870D01*
X0241220Y0442690D01*
X0242740Y0444220D01*
X0243560Y0446210D01*
X0243560Y0448360D01*
X0242830Y0450130D01*
X0243160Y0450130D01*
X0244780Y0450800D01*
X0246020Y0452030D01*
X0246690Y0453650D01*
X0246690Y0455400D01*
X0246020Y0457020D01*
X0244780Y0458260D01*
X0243160Y0458930D01*
X0241990Y0458930D01*
X0238470Y0462440D01*
X0238870Y0462610D01*
X0240110Y0463840D01*
X0240320Y0464360D01*
X0241410Y0463910D01*
X0243160Y0463910D01*
X0244780Y0464570D01*
X0245240Y0465040D01*
X0245700Y0464570D01*
X0247320Y0463910D01*
X0249070Y0463910D01*
X0250680Y0464570D01*
X0251920Y0465810D01*
X0252590Y0467430D01*
X0252590Y0469180D01*
X0251920Y0470800D01*
X0251090Y0471630D01*
X0251090Y0476900D01*
X0251200Y0476790D01*
X0251200Y0475600D01*
X0251640Y0474540D01*
X0252450Y0473720D01*
X0257570Y0468600D01*
X0257570Y0467430D01*
X0258240Y0465810D01*
X0259480Y0464570D01*
X0261100Y0463910D01*
X0262850Y0463910D01*
X0264460Y0464570D01*
X0265700Y0465810D01*
X0266370Y0467430D01*
X0266370Y0469180D01*
X0265700Y0470800D01*
X0264460Y0472040D01*
X0262850Y0472710D01*
X0261670Y0472710D01*
X0261230Y0473140D01*
X0263060Y0473140D01*
X0266000Y0476080D01*
X0266290Y0475510D01*
X0266790Y0474830D01*
X0267390Y0474230D01*
X0268080Y0473730D01*
X0268830Y0473340D01*
X0269640Y0473080D01*
X0270480Y0472940D01*
X0270910Y0472940D01*
X0271330Y0472940D01*
X0272170Y0473080D01*
X0272980Y0473340D01*
X0273740Y0473730D01*
X0274430Y0474230D01*
X0275030Y0474830D01*
X0275530Y0475510D01*
X0275910Y0476270D01*
X0276170Y0477080D01*
X0276310Y0477920D01*
X0276310Y0478340D01*
X0270910Y0478340D01*
X0270910Y0472940D01*
X0270910Y0478340D01*
X0270910Y0478340D01*
X0270910Y0478340D01*
X0276310Y0478340D01*
X0276310Y0478770D01*
X0276170Y0479610D01*
X0275910Y0480420D01*
X0275530Y0481170D01*
X0275030Y0481860D01*
X0274430Y0482460D01*
X0273740Y0482960D01*
X0273170Y0483250D01*
X0276110Y0486190D01*
X0276110Y0490500D01*
X0273260Y0493340D01*
X0276110Y0496190D01*
X0276110Y0500500D01*
X0273260Y0503340D01*
X0276110Y0506190D01*
X0276110Y0510500D01*
X0273260Y0513340D01*
X0276110Y0516190D01*
X0276110Y0520500D01*
X0273260Y0523340D01*
X0276110Y0526190D01*
X0276110Y0530500D01*
X0273260Y0533340D01*
X0276110Y0536190D01*
X0276110Y0540500D01*
X0273260Y0543340D01*
X0276110Y0546190D01*
X0276110Y0550500D01*
X0273060Y0553540D01*
X0268750Y0553540D01*
X0265910Y0550700D01*
X0263060Y0553540D01*
X0258750Y0553540D01*
X0255710Y0550500D01*
X0255710Y0546190D01*
X0258550Y0543340D01*
X0255710Y0540500D01*
X0255710Y0536190D01*
X0258550Y0533340D01*
X0255710Y0530500D01*
X0255710Y0526190D01*
X0258550Y0523340D01*
X0255710Y0520500D01*
X0255710Y0516190D01*
X0258550Y0513340D01*
X0255710Y0510500D01*
X0255710Y0508200D01*
X0241540Y0522360D01*
X0242080Y0522900D01*
X0242750Y0524520D01*
X0242750Y0526270D01*
X0242080Y0527880D01*
X0240840Y0529120D01*
X0239220Y0529790D01*
X0237470Y0529790D01*
X0235860Y0529120D01*
X0234620Y0527880D01*
X0233950Y0526270D01*
X0233950Y0526020D01*
X0225030Y0534940D01*
X0225030Y0536110D01*
X0224360Y0537730D01*
X0223900Y0538190D01*
X0225100Y0538190D01*
X0228030Y0541120D01*
X0228030Y0545260D01*
X0225100Y0548190D01*
X0220960Y0548190D01*
X0218030Y0545260D01*
X0218030Y0541120D01*
X0219590Y0539560D01*
X0218140Y0538960D01*
X0216900Y0537730D01*
X0216230Y0536110D01*
X0216230Y0534360D01*
X0216900Y0532740D01*
X0218140Y0531500D01*
X0219760Y0530830D01*
X0220930Y0530830D01*
X0229850Y0521920D01*
X0229600Y0521920D01*
X0227980Y0521250D01*
X0226740Y0520010D01*
X0226070Y0518390D01*
X0226070Y0517220D01*
X0219430Y0510580D01*
X0200330Y0510580D01*
X0199500Y0511410D01*
X0197890Y0512080D01*
X0196130Y0512080D01*
X0194520Y0511410D01*
X0193280Y0510170D01*
X0192610Y0508550D01*
X0192610Y0506800D01*
X0193280Y0505180D01*
X0194520Y0503950D01*
X0196130Y0503280D01*
X0197890Y0503280D01*
X0199500Y0503950D01*
X0200330Y0504780D01*
X0220060Y0504780D01*
X0221210Y0504780D01*
X0222270Y0505220D01*
X0230180Y0513120D01*
X0231350Y0513120D01*
X0232970Y0513790D01*
X0234200Y0515030D01*
X0234870Y0516640D01*
X0234870Y0516890D01*
X0247100Y0504670D01*
X0216120Y0504670D01*
X0215050Y0504230D01*
X0214240Y0503410D01*
X0210300Y0499480D01*
X0209860Y0498410D01*
X0209860Y0479500D01*
X0209030Y0478670D01*
X0208360Y0477050D01*
X0208360Y0476960D01*
X0207380Y0477940D01*
X0205760Y0478610D01*
X0204010Y0478610D01*
X0202390Y0477940D01*
X0201150Y0476700D01*
X0200480Y0475090D01*
X0200480Y0473910D01*
X0199280Y0472710D01*
X0198100Y0472710D01*
X0196490Y0472040D01*
X0195250Y0470800D01*
X0195080Y0470400D01*
X0183690Y0481790D01*
X0183690Y0482960D01*
X0183020Y0484580D01*
X0181790Y0485810D01*
X0180170Y0486480D01*
X0178420Y0486480D01*
X0176800Y0485810D01*
X0175560Y0484580D01*
X0174890Y0482960D01*
X0174890Y0481210D01*
X0175560Y0479590D01*
X0176020Y0479130D01*
X0175560Y0478670D01*
X0174890Y0477050D01*
X0174890Y0475300D01*
X0175560Y0473690D01*
X0176390Y0472860D01*
X0176390Y0457850D01*
X0175560Y0457020D01*
X0174890Y0455400D01*
X0174890Y0454230D01*
X0155970Y0435300D01*
X0154800Y0435300D01*
X0153180Y0434630D01*
X0151940Y0433400D01*
X0151270Y0431780D01*
X0151270Y0430030D01*
X0151940Y0428410D01*
X0151270Y0431550D02*
X0128390Y0431550D01*
X0128170Y0434730D02*
X0153410Y0434730D01*
X0158580Y0437920D02*
X0067570Y0437920D01*
X0068520Y0441100D02*
X0161770Y0441100D01*
X0164950Y0444290D02*
X0123240Y0444290D01*
X0123080Y0444220D02*
X0124700Y0444890D01*
X0125940Y0446130D01*
X0126610Y0447740D01*
X0126610Y0449500D01*
X0125940Y0451110D01*
X0125110Y0451940D01*
X0125110Y0457070D01*
X0124670Y0458140D01*
X0124300Y0458500D01*
X0124700Y0458670D01*
X0125530Y0459500D01*
X0150530Y0459500D01*
X0159150Y0450890D01*
X0159150Y0449710D01*
X0159820Y0448100D01*
X0161050Y0446860D01*
X0162670Y0446190D01*
X0164420Y0446190D01*
X0166040Y0446860D01*
X0167280Y0448100D01*
X0167950Y0449710D01*
X0167950Y0451460D01*
X0167280Y0453080D01*
X0166040Y0454320D01*
X0164420Y0454990D01*
X0163250Y0454990D01*
X0159730Y0458500D01*
X0160130Y0458670D01*
X0160960Y0459500D01*
X0166130Y0459500D01*
X0166960Y0458670D01*
X0168580Y0458000D01*
X0170330Y0458000D01*
X0171940Y0458670D01*
X0173180Y0459910D01*
X0173850Y0461520D01*
X0173850Y0463270D01*
X0173180Y0464890D01*
X0171940Y0466130D01*
X0170330Y0466800D01*
X0168580Y0466800D01*
X0167500Y0466350D01*
X0167950Y0467430D01*
X0167950Y0469180D01*
X0167280Y0470800D01*
X0166040Y0472040D01*
X0164420Y0472710D01*
X0162670Y0472710D01*
X0161050Y0472040D01*
X0159820Y0470800D01*
X0159150Y0469180D01*
X0159150Y0467430D01*
X0159590Y0466350D01*
X0158520Y0466800D01*
X0156760Y0466800D01*
X0155150Y0466130D01*
X0153910Y0464890D01*
X0153740Y0464490D01*
X0153380Y0464860D01*
X0152310Y0465300D01*
X0125530Y0465300D01*
X0124700Y0466130D01*
X0123080Y0466800D01*
X0121330Y0466800D01*
X0119710Y0466130D01*
X0118480Y0464890D01*
X0118310Y0464490D01*
X0117230Y0465570D01*
X0117230Y0470890D01*
X0118060Y0471720D01*
X0118730Y0473340D01*
X0118730Y0475090D01*
X0118060Y0476700D01*
X0116830Y0477940D01*
X0115210Y0478610D01*
X0114960Y0478610D01*
X0129780Y0493430D01*
X0130960Y0493430D01*
X0132570Y0494100D01*
X0133810Y0495340D01*
X0134480Y0496960D01*
X0134480Y0498710D01*
X0133810Y0500330D01*
X0132570Y0501560D01*
X0130960Y0502230D01*
X0129210Y0502230D01*
X0127590Y0501560D01*
X0126350Y0500330D01*
X0125680Y0498710D01*
X0125680Y0497530D01*
X0087240Y0459090D01*
X0087070Y0459250D01*
X0082930Y0459250D01*
X0080000Y0456320D01*
X0077070Y0459250D01*
X0076310Y0459250D01*
X0066050Y0469510D01*
X0066050Y0481690D01*
X0066210Y0481620D01*
X0067960Y0481620D01*
X0069580Y0482290D01*
X0070000Y0482710D01*
X0070000Y0482180D01*
X0072930Y0479250D01*
X0077070Y0479250D01*
X0080000Y0482180D01*
X0080000Y0486320D01*
X0077070Y0489250D01*
X0074420Y0489250D01*
X0078570Y0493410D01*
X0079390Y0494220D01*
X0082540Y0497370D01*
X0083710Y0497370D01*
X0085330Y0498040D01*
X0086570Y0499280D01*
X0087240Y0500890D01*
X0087240Y0502640D01*
X0086910Y0503440D01*
X0092220Y0498130D01*
X0092220Y0496960D01*
X0092890Y0495340D01*
X0094120Y0494100D01*
X0095740Y0493430D01*
X0097490Y0493430D01*
X0099110Y0494100D01*
X0100350Y0495340D01*
X0101020Y0496960D01*
X0101020Y0498710D01*
X0100350Y0500330D01*
X0099110Y0501560D01*
X0097490Y0502230D01*
X0096320Y0502230D01*
X0087240Y0511310D01*
X0087240Y0512490D01*
X0086570Y0514100D01*
X0085330Y0515340D01*
X0083710Y0516010D01*
X0081960Y0516010D01*
X0080870Y0515560D01*
X0080660Y0516070D01*
X0079420Y0517310D01*
X0077810Y0517980D01*
X0076060Y0517980D01*
X0074440Y0517310D01*
X0073200Y0516070D01*
X0072530Y0514460D01*
X0072530Y0512710D01*
X0073200Y0511090D01*
X0074030Y0510260D01*
X0074030Y0507060D01*
X0073200Y0506230D01*
X0072530Y0504610D01*
X0072530Y0504370D01*
X0069990Y0506910D01*
X0069990Y0512230D01*
X0070820Y0513060D01*
X0071490Y0514670D01*
X0071490Y0516420D01*
X0070820Y0518040D01*
X0069580Y0519280D01*
X0067960Y0519950D01*
X0066210Y0519950D01*
X0066050Y0519880D01*
X0066050Y0533880D01*
X0066880Y0534710D01*
X0067550Y0536330D01*
X0067550Y0537000D01*
X0068180Y0536740D01*
X0069360Y0536740D01*
X0078440Y0527660D01*
X0078440Y0526490D01*
X0079110Y0524870D01*
X0080340Y0523630D01*
X0081960Y0522960D01*
X0083710Y0522960D01*
X0085330Y0523630D01*
X0086570Y0524870D01*
X0087240Y0526490D01*
X0087240Y0528240D01*
X0086570Y0529850D01*
X0085330Y0531090D01*
X0083710Y0531760D01*
X0082540Y0531760D01*
X0073460Y0540840D01*
X0073460Y0542010D01*
X0072790Y0543630D01*
X0071550Y0544870D01*
X0069930Y0545540D01*
X0068180Y0545540D01*
X0066560Y0544870D01*
X0065330Y0543630D01*
X0064660Y0542010D01*
X0064660Y0541340D01*
X0064030Y0541600D01*
X0062280Y0541600D01*
X0060660Y0540930D01*
X0059420Y0539700D01*
X0058750Y0538080D01*
X0058750Y0536330D01*
X0059420Y0534710D01*
X0060250Y0533880D01*
X0060250Y0467730D01*
X0060690Y0466660D01*
X0070520Y0456840D01*
X0070000Y0456320D01*
X0070000Y0452180D01*
X0072930Y0449250D01*
X0077070Y0449250D01*
X0080000Y0452180D01*
X0080000Y0456320D01*
X0080000Y0452180D01*
X0082930Y0449250D01*
X0087070Y0449250D01*
X0090000Y0452180D01*
X0090000Y0453650D01*
X0109930Y0473580D01*
X0109930Y0473340D01*
X0110600Y0471720D01*
X0111430Y0470890D01*
X0111430Y0463790D01*
X0111870Y0462730D01*
X0119310Y0455290D01*
X0119310Y0451940D01*
X0118480Y0451110D01*
X0117810Y0449500D01*
X0117810Y0447740D01*
X0118480Y0446130D01*
X0119710Y0444890D01*
X0121330Y0444220D01*
X0123080Y0444220D01*
X0121170Y0444290D02*
X0068520Y0444290D01*
X0068350Y0447470D02*
X0117920Y0447470D01*
X0118290Y0450660D02*
X0088480Y0450660D01*
X0090190Y0453840D02*
X0119310Y0453840D01*
X0117570Y0457030D02*
X0093370Y0457030D01*
X0096560Y0460210D02*
X0114390Y0460210D01*
X0111600Y0463400D02*
X0099740Y0463400D01*
X0102930Y0466580D02*
X0111430Y0466580D01*
X0111430Y0469770D02*
X0106110Y0469770D01*
X0109300Y0472950D02*
X0110090Y0472950D01*
X0104280Y0476140D02*
X0066050Y0476140D01*
X0066050Y0479320D02*
X0072860Y0479320D01*
X0077140Y0479320D02*
X0082860Y0479320D01*
X0082930Y0479250D02*
X0087070Y0479250D01*
X0090000Y0482180D01*
X0090000Y0486320D01*
X0087070Y0489250D01*
X0082930Y0489250D01*
X0080000Y0486320D01*
X0080000Y0482180D01*
X0082930Y0479250D01*
X0087140Y0479320D02*
X0107470Y0479320D01*
X0110650Y0482510D02*
X0090000Y0482510D01*
X0090000Y0485690D02*
X0113840Y0485690D01*
X0117020Y0488880D02*
X0087450Y0488880D01*
X0082560Y0488880D02*
X0077450Y0488880D01*
X0080000Y0485690D02*
X0080000Y0485690D01*
X0080000Y0482510D02*
X0080000Y0482510D01*
X0070000Y0482510D02*
X0069790Y0482510D01*
X0060250Y0482510D02*
X0057180Y0482510D01*
X0057740Y0481950D02*
X0056340Y0483350D01*
X0054510Y0484110D01*
X0047380Y0484110D01*
X0045550Y0483350D01*
X0044150Y0481950D01*
X0043400Y0480120D01*
X0043400Y0478140D01*
X0044150Y0476310D01*
X0045550Y0474910D01*
X0046170Y0474660D01*
X0041870Y0474660D01*
X0040040Y0473900D01*
X0038640Y0472500D01*
X0037890Y0470670D01*
X0037890Y0468690D01*
X0038640Y0466870D01*
X0040040Y0465470D01*
X0041870Y0464710D01*
X0049000Y0464710D01*
X0050830Y0465470D01*
X0052230Y0466870D01*
X0052980Y0468690D01*
X0052980Y0470670D01*
X0052230Y0472500D01*
X0050830Y0473900D01*
X0050210Y0474160D01*
X0054510Y0474160D01*
X0056340Y0474910D01*
X0057740Y0476310D01*
X0058500Y0478140D01*
X0058500Y0480120D01*
X0057740Y0481950D01*
X0058500Y0479320D02*
X0060250Y0479320D01*
X0060250Y0476140D02*
X0057560Y0476140D01*
X0060250Y0472950D02*
X0051780Y0472950D01*
X0052980Y0469770D02*
X0060250Y0469770D01*
X0060780Y0466580D02*
X0051940Y0466580D01*
X0044330Y0476140D02*
X0015600Y0476140D01*
X0015600Y0479320D02*
X0043400Y0479320D01*
X0044710Y0482510D02*
X0015600Y0482510D01*
X0015600Y0485690D02*
X0060250Y0485690D01*
X0060250Y0488880D02*
X0015600Y0488880D01*
X0015600Y0492060D02*
X0060250Y0492060D01*
X0060250Y0495250D02*
X0058380Y0495250D01*
X0058410Y0495280D02*
X0059230Y0497270D01*
X0059230Y0499420D01*
X0058410Y0501410D01*
X0056890Y0502930D01*
X0054900Y0503760D01*
X0053770Y0503760D01*
X0053770Y0504540D01*
X0053820Y0504540D01*
X0053820Y0510160D01*
X0053820Y0515770D01*
X0053380Y0515770D01*
X0052510Y0515630D01*
X0051670Y0515360D01*
X0050880Y0514960D01*
X0050170Y0514440D01*
X0049540Y0513810D01*
X0049020Y0513100D01*
X0048620Y0512310D01*
X0048350Y0511470D01*
X0048210Y0510600D01*
X0048210Y0510160D01*
X0053820Y0510160D01*
X0053820Y0510160D01*
X0053820Y0515770D01*
X0054260Y0515770D01*
X0055140Y0515630D01*
X0055980Y0515360D01*
X0056760Y0514960D01*
X0057480Y0514440D01*
X0058100Y0513810D01*
X0058620Y0513100D01*
X0059020Y0512310D01*
X0059290Y0511470D01*
X0059430Y0510600D01*
X0059430Y0510160D01*
X0053820Y0510160D01*
X0053820Y0510160D01*
X0053820Y0510160D01*
X0048210Y0510160D01*
X0048210Y0509710D01*
X0048340Y0508870D01*
X0047420Y0509790D01*
X0047420Y0511230D01*
X0046600Y0513220D01*
X0045080Y0514740D01*
X0043090Y0515570D01*
X0040930Y0515570D01*
X0038940Y0514740D01*
X0037420Y0513220D01*
X0036600Y0511230D01*
X0036600Y0509080D01*
X0037420Y0507090D01*
X0038940Y0505570D01*
X0040930Y0504740D01*
X0043090Y0504740D01*
X0043920Y0505090D01*
X0044970Y0504040D01*
X0044970Y0503760D01*
X0038520Y0503760D01*
X0037640Y0503390D01*
X0036960Y0502720D01*
X0036600Y0501830D01*
X0036600Y0494860D01*
X0036960Y0493970D01*
X0037640Y0493300D01*
X0038520Y0492930D01*
X0045500Y0492930D01*
X0046380Y0493300D01*
X0047060Y0493970D01*
X0047420Y0494860D01*
X0047420Y0499780D01*
X0048410Y0499370D01*
X0048410Y0497270D01*
X0049230Y0495280D01*
X0050760Y0493760D01*
X0052740Y0492930D01*
X0054900Y0492930D01*
X0056890Y0493760D01*
X0058410Y0495280D01*
X0059230Y0498430D02*
X0060250Y0498430D01*
X0060250Y0501620D02*
X0058200Y0501620D01*
X0060250Y0504800D02*
X0055500Y0504800D01*
X0055140Y0504680D02*
X0055980Y0504950D01*
X0056760Y0505360D01*
X0057480Y0505880D01*
X0058100Y0506500D01*
X0058620Y0507210D01*
X0059020Y0508000D01*
X0059290Y0508840D01*
X0059430Y0509710D01*
X0059430Y0510160D01*
X0053820Y0510160D01*
X0053820Y0510160D01*
X0053820Y0504540D01*
X0054260Y0504540D01*
X0055140Y0504680D01*
X0053820Y0504800D02*
X0053820Y0504800D01*
X0053820Y0507990D02*
X0053820Y0507990D01*
X0053820Y0511170D02*
X0053820Y0511170D01*
X0053820Y0514360D02*
X0053820Y0514360D01*
X0050080Y0514360D02*
X0045460Y0514360D01*
X0047420Y0511170D02*
X0048300Y0511170D01*
X0044210Y0504800D02*
X0043220Y0504800D01*
X0040800Y0504800D02*
X0036510Y0504800D01*
X0036600Y0501620D02*
X0036210Y0501620D01*
X0036600Y0498430D02*
X0034930Y0498430D01*
X0036600Y0495250D02*
X0032270Y0495250D01*
X0047420Y0495250D02*
X0049270Y0495250D01*
X0048410Y0498430D02*
X0047420Y0498430D01*
X0037050Y0507990D02*
X0035910Y0507990D01*
X0036600Y0511170D02*
X0034290Y0511170D01*
X0030510Y0514360D02*
X0038560Y0514360D01*
X0057560Y0514360D02*
X0060250Y0514360D01*
X0060250Y0511170D02*
X0059340Y0511170D01*
X0059010Y0507990D02*
X0060250Y0507990D01*
X0069990Y0507990D02*
X0074030Y0507990D01*
X0073170Y0511170D02*
X0069990Y0511170D01*
X0071360Y0514360D02*
X0072530Y0514360D01*
X0071030Y0517540D02*
X0074990Y0517540D01*
X0078870Y0517540D02*
X0110250Y0517540D01*
X0113440Y0520730D02*
X0066050Y0520730D01*
X0066050Y0523910D02*
X0080060Y0523910D01*
X0078440Y0527100D02*
X0066050Y0527100D01*
X0066050Y0530280D02*
X0075820Y0530280D01*
X0080830Y0533470D02*
X0094720Y0533470D01*
X0094850Y0533790D02*
X0094180Y0532170D01*
X0094180Y0530420D01*
X0094850Y0528800D01*
X0096090Y0527570D01*
X0097710Y0526900D01*
X0099460Y0526900D01*
X0101080Y0527570D01*
X0101910Y0528400D01*
X0103140Y0528400D01*
X0103970Y0527570D01*
X0105580Y0526900D01*
X0107330Y0526900D01*
X0108950Y0527570D01*
X0110190Y0528800D01*
X0110860Y0530420D01*
X0110860Y0532170D01*
X0110190Y0533790D01*
X0108950Y0535030D01*
X0107330Y0535700D01*
X0105580Y0535700D01*
X0103970Y0535030D01*
X0103140Y0534200D01*
X0101910Y0534200D01*
X0101080Y0535030D01*
X0099460Y0535700D01*
X0097710Y0535700D01*
X0096090Y0535030D01*
X0094850Y0533790D01*
X0094240Y0530280D02*
X0086140Y0530280D01*
X0087240Y0527100D02*
X0097230Y0527100D01*
X0099940Y0527100D02*
X0105110Y0527100D01*
X0107810Y0527100D02*
X0117690Y0527100D01*
X0117750Y0527150D02*
X0116510Y0525920D01*
X0115840Y0524300D01*
X0115840Y0523120D01*
X0104790Y0512080D01*
X0103620Y0512080D01*
X0102000Y0511410D01*
X0100760Y0510170D01*
X0100090Y0508550D01*
X0100090Y0506800D01*
X0100760Y0505180D01*
X0102000Y0503950D01*
X0103620Y0503280D01*
X0105370Y0503280D01*
X0106980Y0503950D01*
X0108220Y0505180D01*
X0108890Y0506800D01*
X0108890Y0507970D01*
X0119940Y0519020D01*
X0121110Y0519020D01*
X0122730Y0519690D01*
X0123970Y0520930D01*
X0124640Y0522550D01*
X0124640Y0524300D01*
X0123970Y0525920D01*
X0122730Y0527150D01*
X0121110Y0527820D01*
X0119360Y0527820D01*
X0117750Y0527150D01*
X0115840Y0523910D02*
X0085610Y0523910D01*
X0086320Y0514360D02*
X0107070Y0514360D01*
X0112090Y0511170D02*
X0194280Y0511170D01*
X0192610Y0507990D02*
X0108900Y0507990D01*
X0107840Y0504800D02*
X0193660Y0504800D01*
X0199740Y0511170D02*
X0220030Y0511170D01*
X0223210Y0514360D02*
X0115270Y0514360D01*
X0118460Y0517540D02*
X0198900Y0517540D01*
X0198450Y0517720D02*
X0200070Y0517050D01*
X0201820Y0517050D01*
X0203440Y0517720D01*
X0204680Y0518960D01*
X0205350Y0520580D01*
X0205350Y0521750D01*
X0210490Y0526900D01*
X0211660Y0526900D01*
X0213280Y0527570D01*
X0214520Y0528800D01*
X0215190Y0530420D01*
X0215190Y0532170D01*
X0214520Y0533790D01*
X0213280Y0535030D01*
X0211660Y0535700D01*
X0209910Y0535700D01*
X0208300Y0535030D01*
X0207060Y0533790D01*
X0206390Y0532170D01*
X0206390Y0531000D01*
X0201250Y0525850D01*
X0200070Y0525850D01*
X0198450Y0525180D01*
X0197220Y0523950D01*
X0196550Y0522330D01*
X0196550Y0520580D01*
X0197220Y0518960D01*
X0198450Y0517720D01*
X0196550Y0520730D02*
X0123760Y0520730D01*
X0124640Y0523910D02*
X0197200Y0523910D01*
X0202490Y0527100D02*
X0122790Y0527100D01*
X0110800Y0530280D02*
X0205670Y0530280D01*
X0206920Y0533470D02*
X0110320Y0533470D01*
X0101760Y0511170D02*
X0087380Y0511170D01*
X0090570Y0507990D02*
X0100090Y0507990D01*
X0101140Y0504800D02*
X0093750Y0504800D01*
X0088730Y0501620D02*
X0087240Y0501620D01*
X0085720Y0498430D02*
X0091920Y0498430D01*
X0092980Y0495250D02*
X0080410Y0495250D01*
X0077230Y0492060D02*
X0120210Y0492060D01*
X0123390Y0495250D02*
X0100250Y0495250D01*
X0101020Y0498430D02*
X0125680Y0498430D01*
X0127710Y0501620D02*
X0098980Y0501620D01*
X0122040Y0485690D02*
X0176680Y0485690D01*
X0174890Y0482510D02*
X0118850Y0482510D01*
X0115670Y0479320D02*
X0175840Y0479320D01*
X0174890Y0476140D02*
X0118300Y0476140D01*
X0118570Y0472950D02*
X0176300Y0472950D01*
X0176390Y0469770D02*
X0167700Y0469770D01*
X0167590Y0466580D02*
X0168050Y0466580D01*
X0170860Y0466580D02*
X0176390Y0466580D01*
X0176390Y0463400D02*
X0173800Y0463400D01*
X0173310Y0460210D02*
X0176390Y0460210D01*
X0175570Y0457030D02*
X0161210Y0457030D01*
X0156190Y0453840D02*
X0125110Y0453840D01*
X0125110Y0457030D02*
X0153010Y0457030D01*
X0159150Y0450660D02*
X0126130Y0450660D01*
X0126490Y0447470D02*
X0160440Y0447470D01*
X0166650Y0447470D02*
X0168140Y0447470D01*
X0167950Y0450660D02*
X0171320Y0450660D01*
X0174510Y0453840D02*
X0166520Y0453840D01*
X0176340Y0447470D02*
X0232740Y0447470D01*
X0233870Y0450660D02*
X0181450Y0450660D01*
X0183690Y0453840D02*
X0237890Y0453840D01*
X0235680Y0457030D02*
X0183020Y0457030D01*
X0182190Y0460210D02*
X0195120Y0460210D01*
X0193880Y0463400D02*
X0182190Y0463400D01*
X0182190Y0466580D02*
X0190700Y0466580D01*
X0187510Y0469770D02*
X0182190Y0469770D01*
X0182290Y0472950D02*
X0184330Y0472950D01*
X0189340Y0476140D02*
X0200920Y0476140D01*
X0199520Y0472950D02*
X0192530Y0472950D01*
X0186160Y0479320D02*
X0209680Y0479320D01*
X0209860Y0482510D02*
X0183690Y0482510D01*
X0181910Y0485690D02*
X0209860Y0485690D01*
X0209860Y0488880D02*
X0125220Y0488880D01*
X0128410Y0492060D02*
X0209860Y0492060D01*
X0209860Y0495250D02*
X0133720Y0495250D01*
X0134480Y0498430D02*
X0209870Y0498430D01*
X0212440Y0501620D02*
X0132450Y0501620D01*
X0101100Y0472950D02*
X0066050Y0472950D01*
X0066050Y0469770D02*
X0097910Y0469770D01*
X0094730Y0466580D02*
X0068980Y0466580D01*
X0072160Y0463400D02*
X0091540Y0463400D01*
X0088360Y0460210D02*
X0075350Y0460210D01*
X0070330Y0457030D02*
X0025410Y0457030D01*
X0025410Y0460210D02*
X0067150Y0460210D01*
X0063960Y0463400D02*
X0025170Y0463400D01*
X0022300Y0466580D02*
X0038930Y0466580D01*
X0037890Y0469770D02*
X0015600Y0469770D01*
X0015600Y0466580D02*
X0018170Y0466580D01*
X0020240Y0466580D02*
X0020240Y0466580D01*
X0020240Y0463400D02*
X0020240Y0463400D01*
X0020240Y0460210D02*
X0020240Y0460210D01*
X0020240Y0457030D02*
X0020240Y0457030D01*
X0020240Y0453840D02*
X0020240Y0453840D01*
X0024570Y0453840D02*
X0070000Y0453840D01*
X0071530Y0450660D02*
X0065490Y0450660D01*
X0058570Y0444290D02*
X0039890Y0444290D01*
X0040780Y0441100D02*
X0058570Y0441100D01*
X0059520Y0437920D02*
X0039420Y0437920D01*
X0019360Y0434730D02*
X0015600Y0434730D01*
X0035600Y0418810D02*
X0259410Y0418810D01*
X0261800Y0415620D02*
X0033200Y0415620D01*
X0078480Y0450660D02*
X0081530Y0450660D01*
X0080000Y0453840D02*
X0080000Y0453840D01*
X0079300Y0457030D02*
X0080710Y0457030D01*
X0117230Y0466580D02*
X0120800Y0466580D01*
X0123610Y0466580D02*
X0156230Y0466580D01*
X0159050Y0466580D02*
X0159500Y0466580D01*
X0159390Y0469770D02*
X0117230Y0469770D01*
X0072610Y0504800D02*
X0072100Y0504800D01*
X0060250Y0517540D02*
X0015600Y0517540D01*
X0015600Y0520730D02*
X0060250Y0520730D01*
X0060250Y0523910D02*
X0015600Y0523910D01*
X0015600Y0527100D02*
X0060250Y0527100D01*
X0060250Y0530280D02*
X0015600Y0530280D01*
X0015600Y0533470D02*
X0060250Y0533470D01*
X0066050Y0533470D02*
X0072630Y0533470D01*
X0069450Y0536650D02*
X0067550Y0536650D01*
X0065070Y0543020D02*
X0059230Y0543020D01*
X0059230Y0542270D02*
X0058410Y0540280D01*
X0056890Y0538760D01*
X0054900Y0537930D01*
X0052740Y0537930D01*
X0050760Y0538760D01*
X0049230Y0540280D01*
X0048410Y0542270D01*
X0048410Y0544420D01*
X0049230Y0546410D01*
X0050760Y0547930D01*
X0052740Y0548760D01*
X0054900Y0548760D01*
X0056890Y0547930D01*
X0058410Y0546410D01*
X0059230Y0544420D01*
X0059230Y0542270D01*
X0059560Y0539840D02*
X0057970Y0539840D01*
X0058750Y0536650D02*
X0015600Y0536650D01*
X0015600Y0539840D02*
X0018300Y0539840D01*
X0031710Y0539840D02*
X0036610Y0539840D01*
X0036600Y0539860D02*
X0036960Y0538970D01*
X0037640Y0538300D01*
X0038520Y0537930D01*
X0045500Y0537930D01*
X0046380Y0538300D01*
X0047060Y0538970D01*
X0047420Y0539860D01*
X0047420Y0546830D01*
X0047060Y0547720D01*
X0046380Y0548390D01*
X0045500Y0548760D01*
X0038520Y0548760D01*
X0037640Y0548390D01*
X0036960Y0547720D01*
X0036600Y0546830D01*
X0036600Y0539860D01*
X0036600Y0543020D02*
X0034690Y0543020D01*
X0036100Y0546210D02*
X0036600Y0546210D01*
X0036510Y0549390D02*
X0255710Y0549390D01*
X0255710Y0546210D02*
X0245410Y0546210D01*
X0246020Y0545600D02*
X0244780Y0546840D01*
X0243160Y0547510D01*
X0241410Y0547510D01*
X0239790Y0546840D01*
X0238960Y0546010D01*
X0235770Y0546010D01*
X0234940Y0546840D01*
X0233320Y0547510D01*
X0231570Y0547510D01*
X0229950Y0546840D01*
X0228710Y0545600D01*
X0228040Y0543980D01*
X0228040Y0542230D01*
X0228710Y0540620D01*
X0229950Y0539380D01*
X0231570Y0538710D01*
X0233320Y0538710D01*
X0234940Y0539380D01*
X0235770Y0540210D01*
X0238960Y0540210D01*
X0239790Y0539380D01*
X0241410Y0538710D01*
X0243160Y0538710D01*
X0244780Y0539380D01*
X0246020Y0540620D01*
X0246690Y0542230D01*
X0246690Y0543980D01*
X0246020Y0545600D01*
X0246690Y0543020D02*
X0258230Y0543020D01*
X0255710Y0539840D02*
X0245230Y0539840D01*
X0239340Y0539840D02*
X0235390Y0539840D01*
X0229490Y0539840D02*
X0226750Y0539840D01*
X0228030Y0543020D02*
X0228040Y0543020D01*
X0227090Y0546210D02*
X0229320Y0546210D01*
X0235570Y0546210D02*
X0239160Y0546210D01*
X0241410Y0550520D02*
X0239790Y0551190D01*
X0238560Y0552430D01*
X0237890Y0554040D01*
X0237890Y0555220D01*
X0230770Y0562330D01*
X0229600Y0562330D01*
X0227980Y0563000D01*
X0226740Y0564240D01*
X0226070Y0565860D01*
X0226070Y0567610D01*
X0226740Y0569220D01*
X0227980Y0570460D01*
X0229600Y0571130D01*
X0231350Y0571130D01*
X0232970Y0570460D01*
X0234200Y0569220D01*
X0234870Y0567610D01*
X0234870Y0566430D01*
X0241990Y0559320D01*
X0243160Y0559320D01*
X0244780Y0558650D01*
X0246020Y0557410D01*
X0246690Y0555790D01*
X0246690Y0554040D01*
X0246020Y0552430D01*
X0244780Y0551190D01*
X0243160Y0550520D01*
X0241410Y0550520D01*
X0238490Y0552580D02*
X0058800Y0552580D01*
X0058620Y0552210D02*
X0059020Y0553000D01*
X0059290Y0553840D01*
X0059430Y0554710D01*
X0059430Y0555160D01*
X0059430Y0555600D01*
X0059290Y0556470D01*
X0059020Y0557310D01*
X0058620Y0558100D01*
X0058100Y0558810D01*
X0057480Y0559440D01*
X0056760Y0559960D01*
X0055980Y0560360D01*
X0055140Y0560630D01*
X0054260Y0560770D01*
X0053820Y0560770D01*
X0053380Y0560770D01*
X0052510Y0560630D01*
X0051670Y0560360D01*
X0050880Y0559960D01*
X0050170Y0559440D01*
X0049540Y0558810D01*
X0049020Y0558100D01*
X0048620Y0557310D01*
X0048350Y0556470D01*
X0048210Y0555600D01*
X0048210Y0555160D01*
X0053820Y0555160D01*
X0053820Y0560770D01*
X0053820Y0555160D01*
X0053820Y0555160D01*
X0053820Y0555160D01*
X0059430Y0555160D01*
X0053820Y0555160D01*
X0053820Y0555160D01*
X0048210Y0555160D01*
X0048210Y0554710D01*
X0048350Y0553840D01*
X0048620Y0553000D01*
X0049020Y0552210D01*
X0049540Y0551500D01*
X0050170Y0550880D01*
X0050880Y0550360D01*
X0051670Y0549950D01*
X0052510Y0549680D01*
X0053380Y0549540D01*
X0053820Y0549540D01*
X0053820Y0555160D01*
X0053820Y0555160D01*
X0053820Y0549540D01*
X0054260Y0549540D01*
X0055140Y0549680D01*
X0055980Y0549950D01*
X0056760Y0550360D01*
X0057480Y0550880D01*
X0058100Y0551500D01*
X0058620Y0552210D01*
X0059410Y0555760D02*
X0237340Y0555760D01*
X0234160Y0558950D02*
X0114570Y0558950D01*
X0114860Y0559060D02*
X0115690Y0559890D01*
X0122780Y0559890D01*
X0123850Y0560330D01*
X0124670Y0561150D01*
X0127810Y0564300D01*
X0128990Y0564300D01*
X0130600Y0564970D01*
X0131840Y0566210D01*
X0132510Y0567820D01*
X0132510Y0569570D01*
X0131840Y0571190D01*
X0130600Y0572430D01*
X0128990Y0573100D01*
X0127240Y0573100D01*
X0125620Y0572430D01*
X0124380Y0571190D01*
X0123710Y0569570D01*
X0123710Y0568400D01*
X0121010Y0565690D01*
X0115690Y0565690D01*
X0114860Y0566520D01*
X0113240Y0567190D01*
X0111490Y0567190D01*
X0109870Y0566520D01*
X0108630Y0565290D01*
X0107960Y0563670D01*
X0107960Y0561920D01*
X0108630Y0560300D01*
X0109870Y0559060D01*
X0111490Y0558390D01*
X0113240Y0558390D01*
X0114860Y0559060D01*
X0110160Y0558950D02*
X0057970Y0558950D01*
X0053820Y0558950D02*
X0053820Y0558950D01*
X0053820Y0555760D02*
X0053820Y0555760D01*
X0049670Y0558950D02*
X0045870Y0558950D01*
X0046600Y0558220D02*
X0045080Y0559740D01*
X0043090Y0560570D01*
X0040930Y0560570D01*
X0038940Y0559740D01*
X0037420Y0558220D01*
X0036600Y0556230D01*
X0036600Y0554080D01*
X0037420Y0552090D01*
X0038940Y0550570D01*
X0040930Y0549740D01*
X0043090Y0549740D01*
X0045080Y0550570D01*
X0046600Y0552090D01*
X0047420Y0554080D01*
X0047420Y0556230D01*
X0046600Y0558220D01*
X0047420Y0555760D02*
X0048230Y0555760D01*
X0048840Y0552580D02*
X0046800Y0552580D01*
X0047420Y0546210D02*
X0049150Y0546210D01*
X0048410Y0543020D02*
X0047420Y0543020D01*
X0047410Y0539840D02*
X0049680Y0539840D01*
X0058490Y0546210D02*
X0188980Y0546210D01*
X0188030Y0545260D02*
X0188030Y0541120D01*
X0190960Y0538190D01*
X0195100Y0538190D01*
X0198030Y0541120D01*
X0198030Y0545260D01*
X0195100Y0548190D01*
X0190960Y0548190D01*
X0188030Y0545260D01*
X0188030Y0543020D02*
X0073040Y0543020D01*
X0074460Y0539840D02*
X0189310Y0539840D01*
X0196750Y0539840D02*
X0219310Y0539840D01*
X0218030Y0543020D02*
X0198030Y0543020D01*
X0197090Y0546210D02*
X0218980Y0546210D01*
X0216460Y0536650D02*
X0077650Y0536650D01*
X0053820Y0552580D02*
X0053820Y0552580D01*
X0037220Y0552580D02*
X0036020Y0552580D01*
X0036600Y0555760D02*
X0034530Y0555760D01*
X0031220Y0558950D02*
X0038150Y0558950D01*
X0018780Y0558950D02*
X0015600Y0558950D01*
X0015600Y0562130D02*
X0107960Y0562130D01*
X0108660Y0565320D02*
X0015600Y0565320D01*
X0015600Y0568500D02*
X0123710Y0568500D01*
X0120760Y0570870D02*
X0122000Y0572110D01*
X0122670Y0573730D01*
X0122670Y0574900D01*
X0125850Y0578080D01*
X0127020Y0578080D01*
X0128640Y0578750D01*
X0129870Y0579990D01*
X0130540Y0581600D01*
X0130540Y0583350D01*
X0129870Y0584970D01*
X0128640Y0586210D01*
X0127020Y0586880D01*
X0125270Y0586880D01*
X0123650Y0586210D01*
X0122410Y0584970D01*
X0121740Y0583350D01*
X0121740Y0582180D01*
X0118570Y0579000D01*
X0117390Y0579000D01*
X0115780Y0578330D01*
X0114540Y0577100D01*
X0113870Y0575480D01*
X0113870Y0573730D01*
X0114540Y0572110D01*
X0115780Y0570870D01*
X0117390Y0570200D01*
X0119150Y0570200D01*
X0120760Y0570870D01*
X0121570Y0571690D02*
X0124880Y0571690D01*
X0122670Y0574870D02*
X0279990Y0574870D01*
X0279990Y0571690D02*
X0131350Y0571690D01*
X0132510Y0568500D02*
X0226450Y0568500D01*
X0226300Y0565320D02*
X0130950Y0565320D01*
X0125640Y0562130D02*
X0230970Y0562130D01*
X0235990Y0565320D02*
X0279990Y0565320D01*
X0279990Y0568500D02*
X0234500Y0568500D01*
X0239180Y0562130D02*
X0279990Y0562130D01*
X0279990Y0558950D02*
X0244060Y0558950D01*
X0246690Y0555760D02*
X0279990Y0555760D01*
X0279990Y0552580D02*
X0274030Y0552580D01*
X0276110Y0549390D02*
X0279990Y0549390D01*
X0279990Y0546210D02*
X0276110Y0546210D01*
X0273590Y0543020D02*
X0279990Y0543020D01*
X0279990Y0539840D02*
X0276110Y0539840D01*
X0276110Y0536650D02*
X0279990Y0536650D01*
X0279990Y0533470D02*
X0273380Y0533470D01*
X0276110Y0530280D02*
X0279990Y0530280D01*
X0279990Y0527100D02*
X0276110Y0527100D01*
X0273830Y0523910D02*
X0279990Y0523910D01*
X0279990Y0520730D02*
X0275880Y0520730D01*
X0276110Y0517540D02*
X0279990Y0517540D01*
X0279990Y0514360D02*
X0274270Y0514360D01*
X0275440Y0511170D02*
X0279990Y0511170D01*
X0279990Y0507990D02*
X0276110Y0507990D01*
X0274720Y0504800D02*
X0279990Y0504800D01*
X0279990Y0501620D02*
X0274990Y0501620D01*
X0276110Y0498430D02*
X0279990Y0498430D01*
X0279990Y0495250D02*
X0275160Y0495250D01*
X0274550Y0492060D02*
X0279990Y0492060D01*
X0279990Y0488880D02*
X0276110Y0488880D01*
X0275610Y0485690D02*
X0279990Y0485690D01*
X0279990Y0482510D02*
X0274370Y0482510D01*
X0276220Y0479320D02*
X0279990Y0479320D01*
X0279990Y0476140D02*
X0275840Y0476140D01*
X0279990Y0472950D02*
X0271370Y0472950D01*
X0270910Y0472950D02*
X0270910Y0472950D01*
X0270450Y0472950D02*
X0261430Y0472950D01*
X0266130Y0469770D02*
X0279990Y0469770D01*
X0279990Y0466580D02*
X0266020Y0466580D01*
X0257920Y0466580D02*
X0252240Y0466580D01*
X0252350Y0469770D02*
X0256410Y0469770D01*
X0253220Y0472950D02*
X0251090Y0472950D01*
X0251090Y0476140D02*
X0251200Y0476140D01*
X0239660Y0463400D02*
X0279990Y0463400D01*
X0279990Y0460210D02*
X0240700Y0460210D01*
X0246010Y0457030D02*
X0260840Y0457030D01*
X0257470Y0453840D02*
X0246690Y0453840D01*
X0246900Y0451870D02*
X0245370Y0450350D01*
X0244550Y0448360D01*
X0244550Y0446210D01*
X0245370Y0444220D01*
X0246900Y0442690D01*
X0248890Y0441870D01*
X0251040Y0441870D01*
X0253030Y0442690D01*
X0254550Y0444220D01*
X0255370Y0446210D01*
X0255370Y0448360D01*
X0254550Y0450350D01*
X0253030Y0451870D01*
X0251040Y0452690D01*
X0248890Y0452690D01*
X0246900Y0451870D01*
X0245680Y0450660D02*
X0244440Y0450660D01*
X0244550Y0447470D02*
X0243560Y0447470D01*
X0242770Y0444290D02*
X0245350Y0444290D01*
X0254580Y0444290D02*
X0255860Y0444290D01*
X0257250Y0441100D02*
X0169970Y0441100D01*
X0173150Y0444290D02*
X0233540Y0444290D01*
X0232500Y0460210D02*
X0202830Y0460210D01*
X0203330Y0463400D02*
X0229310Y0463400D01*
X0226130Y0466580D02*
X0203030Y0466580D01*
X0204540Y0469770D02*
X0222940Y0469770D01*
X0219760Y0472950D02*
X0215750Y0472950D01*
X0209760Y0472950D02*
X0209120Y0472950D01*
X0221270Y0504800D02*
X0246960Y0504800D01*
X0243780Y0507990D02*
X0225040Y0507990D01*
X0228230Y0511170D02*
X0240590Y0511170D01*
X0237410Y0514360D02*
X0233530Y0514360D01*
X0226070Y0517540D02*
X0202990Y0517540D01*
X0205350Y0520730D02*
X0227460Y0520730D01*
X0227850Y0523910D02*
X0207500Y0523910D01*
X0212140Y0527100D02*
X0224670Y0527100D01*
X0221480Y0530280D02*
X0215130Y0530280D01*
X0214650Y0533470D02*
X0216600Y0533470D01*
X0224810Y0536650D02*
X0255710Y0536650D01*
X0258430Y0533470D02*
X0226500Y0533470D01*
X0229690Y0530280D02*
X0255710Y0530280D01*
X0255710Y0527100D02*
X0242410Y0527100D01*
X0242500Y0523910D02*
X0257990Y0523910D01*
X0255930Y0520730D02*
X0243180Y0520730D01*
X0246360Y0517540D02*
X0255710Y0517540D01*
X0257540Y0514360D02*
X0249550Y0514360D01*
X0252730Y0511170D02*
X0256380Y0511170D01*
X0234290Y0527100D02*
X0232870Y0527100D01*
X0246080Y0552580D02*
X0257780Y0552580D01*
X0264030Y0552580D02*
X0267780Y0552580D01*
X0266520Y0577740D02*
X0263490Y0577740D01*
X0260560Y0578530D01*
X0257940Y0580040D01*
X0255800Y0582190D01*
X0254280Y0584810D01*
X0253500Y0587740D01*
X0253500Y0590760D01*
X0254280Y0593690D01*
X0255800Y0596310D01*
X0257940Y0598460D01*
X0260560Y0599970D01*
X0263490Y0600760D01*
X0266520Y0600760D01*
X0269440Y0599970D01*
X0272070Y0598460D01*
X0274210Y0596310D01*
X0275720Y0593690D01*
X0276510Y0590760D01*
X0276510Y0587740D01*
X0275720Y0584810D01*
X0274210Y0582190D01*
X0272070Y0580040D01*
X0269440Y0578530D01*
X0266520Y0577740D01*
X0267680Y0578060D02*
X0279990Y0578060D01*
X0279990Y0581240D02*
X0273260Y0581240D01*
X0275500Y0584430D02*
X0279990Y0584430D01*
X0279990Y0587610D02*
X0276470Y0587610D01*
X0276500Y0590800D02*
X0279990Y0590800D01*
X0279990Y0593980D02*
X0275560Y0593980D01*
X0273360Y0597170D02*
X0279990Y0597170D01*
X0279990Y0600350D02*
X0268030Y0600350D01*
X0261970Y0600350D02*
X0059230Y0600350D01*
X0059230Y0601230D02*
X0058410Y0603220D01*
X0056890Y0604740D01*
X0054900Y0605570D01*
X0052740Y0605570D01*
X0050760Y0604740D01*
X0049230Y0603220D01*
X0048410Y0601230D01*
X0048410Y0599080D01*
X0049230Y0597090D01*
X0050760Y0595570D01*
X0052740Y0594740D01*
X0054900Y0594740D01*
X0056890Y0595570D01*
X0058410Y0597090D01*
X0059230Y0599080D01*
X0059230Y0601230D01*
X0058090Y0603540D02*
X0279990Y0603540D01*
X0279990Y0606720D02*
X0015600Y0606720D01*
X0015600Y0603540D02*
X0018070Y0603540D01*
X0015600Y0609910D02*
X0279990Y0609910D01*
X0279990Y0613090D02*
X0015600Y0613090D01*
X0015600Y0616280D02*
X0279990Y0616280D01*
X0279990Y0619460D02*
X0271840Y0619460D01*
X0274930Y0622650D02*
X0279990Y0622650D01*
X0279990Y0625830D02*
X0276400Y0625830D01*
X0276900Y0629020D02*
X0279990Y0629020D01*
X0279990Y0632200D02*
X0276530Y0632200D01*
X0258160Y0619460D02*
X0105470Y0619460D01*
X0103510Y0619460D02*
X0031840Y0619460D01*
X0034930Y0622650D02*
X0099590Y0622650D01*
X0096410Y0625830D02*
X0069640Y0625830D01*
X0070700Y0629020D02*
X0091100Y0629020D01*
X0090250Y0632200D02*
X0069950Y0632200D01*
X0060360Y0625830D02*
X0036400Y0625830D01*
X0036900Y0629020D02*
X0059300Y0629020D01*
X0060050Y0632200D02*
X0036530Y0632200D01*
X0018160Y0619460D02*
X0015600Y0619460D01*
X0031930Y0603540D02*
X0037740Y0603540D01*
X0037420Y0603220D02*
X0036600Y0601230D01*
X0036600Y0599080D01*
X0037420Y0597090D01*
X0038940Y0595570D01*
X0040930Y0594740D01*
X0043090Y0594740D01*
X0045080Y0595570D01*
X0046600Y0597090D01*
X0047420Y0599080D01*
X0047420Y0601230D01*
X0046600Y0603220D01*
X0045080Y0604740D01*
X0043090Y0605570D01*
X0040930Y0605570D01*
X0038940Y0604740D01*
X0037420Y0603220D01*
X0036600Y0600350D02*
X0034770Y0600350D01*
X0036130Y0597170D02*
X0037390Y0597170D01*
X0036510Y0593980D02*
X0061670Y0593980D01*
X0061770Y0594080D02*
X0060170Y0592480D01*
X0059300Y0590380D01*
X0059300Y0588120D01*
X0060170Y0586020D01*
X0061770Y0584420D01*
X0063870Y0583550D01*
X0066140Y0583550D01*
X0068230Y0584420D01*
X0069830Y0586020D01*
X0070700Y0588120D01*
X0070700Y0590380D01*
X0069830Y0592480D01*
X0068230Y0594080D01*
X0066140Y0594950D01*
X0063870Y0594950D01*
X0061770Y0594080D01*
X0059470Y0590800D02*
X0058660Y0590800D01*
X0058410Y0591410D02*
X0056890Y0592930D01*
X0054900Y0593760D01*
X0052740Y0593760D01*
X0050760Y0592930D01*
X0049230Y0591410D01*
X0048410Y0589420D01*
X0048410Y0587270D01*
X0049230Y0585280D01*
X0050760Y0583760D01*
X0052740Y0582930D01*
X0054900Y0582930D01*
X0056890Y0583760D01*
X0058410Y0585280D01*
X0059230Y0587270D01*
X0059230Y0589420D01*
X0058410Y0591410D01*
X0059230Y0587610D02*
X0059510Y0587610D01*
X0057560Y0584430D02*
X0061770Y0584430D01*
X0068240Y0584430D02*
X0122190Y0584430D01*
X0120800Y0581240D02*
X0015600Y0581240D01*
X0015600Y0584430D02*
X0019010Y0584430D01*
X0015600Y0578060D02*
X0115500Y0578060D01*
X0113870Y0574870D02*
X0015600Y0574870D01*
X0015600Y0571690D02*
X0114970Y0571690D01*
X0125820Y0578060D02*
X0262330Y0578060D01*
X0256740Y0581240D02*
X0130390Y0581240D01*
X0130100Y0584430D02*
X0233690Y0584430D01*
X0233120Y0584660D02*
X0235110Y0583840D01*
X0237260Y0583840D01*
X0239250Y0584660D01*
X0240770Y0586180D01*
X0241590Y0588170D01*
X0241590Y0590330D01*
X0240770Y0592320D01*
X0239250Y0593840D01*
X0237260Y0594660D01*
X0235110Y0594660D01*
X0233120Y0593840D01*
X0231600Y0592320D01*
X0230770Y0590330D01*
X0230770Y0588170D01*
X0231600Y0586180D01*
X0233120Y0584660D01*
X0231000Y0587610D02*
X0070490Y0587610D01*
X0070530Y0590800D02*
X0230970Y0590800D01*
X0233460Y0593980D02*
X0068330Y0593980D01*
X0058440Y0597170D02*
X0256650Y0597170D01*
X0254450Y0593980D02*
X0250720Y0593980D01*
X0251060Y0593840D02*
X0249070Y0594660D01*
X0246920Y0594660D01*
X0244930Y0593840D01*
X0243410Y0592320D01*
X0242580Y0590330D01*
X0242580Y0588170D01*
X0243410Y0586180D01*
X0244930Y0584660D01*
X0246920Y0583840D01*
X0249070Y0583840D01*
X0251060Y0584660D01*
X0252580Y0586180D01*
X0253410Y0588170D01*
X0253410Y0590330D01*
X0252580Y0592320D01*
X0251060Y0593840D01*
X0253210Y0590800D02*
X0253500Y0590800D01*
X0253530Y0587610D02*
X0253170Y0587610D01*
X0254500Y0584430D02*
X0250490Y0584430D01*
X0245500Y0584430D02*
X0238680Y0584430D01*
X0241360Y0587610D02*
X0242820Y0587610D01*
X0242780Y0590800D02*
X0241400Y0590800D01*
X0238910Y0593980D02*
X0245270Y0593980D01*
X0255080Y0622650D02*
X0108770Y0622650D01*
X0108420Y0625830D02*
X0253600Y0625830D01*
X0253100Y0629020D02*
X0101420Y0629020D01*
X0099050Y0632200D02*
X0253470Y0632200D01*
X0049550Y0603540D02*
X0046280Y0603540D01*
X0047420Y0600350D02*
X0048410Y0600350D01*
X0049200Y0597170D02*
X0046630Y0597170D01*
X0045780Y0593860D02*
X0045280Y0593960D01*
X0042010Y0593960D01*
X0038740Y0593960D01*
X0038240Y0593860D01*
X0037770Y0593660D01*
X0037340Y0593380D01*
X0036980Y0593010D01*
X0036690Y0592590D01*
X0036500Y0592110D01*
X0036400Y0591610D01*
X0036400Y0588340D01*
X0036400Y0585080D01*
X0036500Y0584570D01*
X0036690Y0584100D01*
X0036980Y0583680D01*
X0037340Y0583310D01*
X0037770Y0583030D01*
X0038240Y0582830D01*
X0038740Y0582730D01*
X0042010Y0582730D01*
X0045280Y0582730D01*
X0045780Y0582830D01*
X0046250Y0583030D01*
X0046680Y0583310D01*
X0047040Y0583680D01*
X0047330Y0584100D01*
X0047520Y0584570D01*
X0047620Y0585080D01*
X0047620Y0588340D01*
X0042010Y0588340D01*
X0042010Y0582730D01*
X0042010Y0588340D01*
X0042010Y0588340D01*
X0036400Y0588340D01*
X0042010Y0588340D01*
X0042010Y0588340D01*
X0042010Y0588340D01*
X0047620Y0588340D01*
X0047620Y0591610D01*
X0047520Y0592110D01*
X0047330Y0592590D01*
X0047040Y0593010D01*
X0046680Y0593380D01*
X0046250Y0593660D01*
X0045780Y0593860D01*
X0047620Y0590800D02*
X0048980Y0590800D01*
X0048410Y0587610D02*
X0047620Y0587610D01*
X0047460Y0584430D02*
X0050090Y0584430D01*
X0042010Y0584430D02*
X0042010Y0584430D01*
X0042010Y0587610D02*
X0042010Y0587610D01*
X0042010Y0588340D02*
X0042010Y0593960D01*
X0042010Y0588340D01*
X0042010Y0588340D01*
X0042010Y0590800D02*
X0042010Y0590800D01*
X0036400Y0590800D02*
X0035990Y0590800D01*
X0036400Y0587610D02*
X0034450Y0587610D01*
X0036560Y0584430D02*
X0031000Y0584430D01*
X0019490Y0514360D02*
X0015600Y0514360D01*
X0015600Y0511170D02*
X0015710Y0511170D01*
X0015600Y0495250D02*
X0017740Y0495250D01*
X0015600Y0472950D02*
X0039090Y0472950D01*
X0111290Y0428360D02*
X0115560Y0428360D01*
X0159350Y0428360D02*
X0258780Y0428360D01*
X0260470Y0431550D02*
X0160410Y0431550D01*
X0163600Y0434730D02*
X0264360Y0434730D01*
X0260180Y0437920D02*
X0166780Y0437920D01*
X0254240Y0450660D02*
X0255960Y0450660D01*
X0255470Y0447470D02*
X0255370Y0447470D01*
X0273110Y0457030D02*
X0279990Y0457030D01*
X0279990Y0453840D02*
X0276470Y0453840D01*
X0277980Y0450660D02*
X0279990Y0450660D01*
X0279990Y0447470D02*
X0278480Y0447470D01*
X0278080Y0444290D02*
X0279990Y0444290D01*
X0279990Y0441100D02*
X0276690Y0441100D01*
X0273760Y0437920D02*
X0279990Y0437920D01*
X0279990Y0434730D02*
X0275650Y0434730D01*
X0279530Y0431550D02*
X0279990Y0431550D01*
X0270910Y0476140D02*
X0270910Y0476140D01*
D118*
X0261970Y0468310D02*
X0254100Y0476180D01*
X0254100Y0480120D01*
X0248190Y0482080D02*
X0248190Y0468310D01*
X0242290Y0468310D02*
X0242290Y0482080D01*
X0236380Y0482080D02*
X0236380Y0466340D01*
X0242290Y0454530D02*
X0216700Y0480120D01*
X0216700Y0486020D01*
X0216700Y0495860D02*
X0238350Y0495860D01*
X0240320Y0497830D01*
X0246220Y0497830D02*
X0230470Y0482080D01*
X0212760Y0476180D02*
X0212760Y0497830D01*
X0216700Y0501770D01*
X0248190Y0501770D01*
X0252130Y0497830D01*
X0256070Y0499800D02*
X0260000Y0499800D01*
X0260910Y0498340D01*
X0256070Y0499800D02*
X0220630Y0535230D01*
X0210790Y0531300D02*
X0200950Y0521450D01*
X0197010Y0507680D02*
X0220630Y0507680D01*
X0230470Y0517520D01*
X0238350Y0521450D02*
X0238350Y0525390D01*
X0238350Y0521450D02*
X0256070Y0503740D01*
X0265910Y0503740D01*
X0269840Y0499800D01*
X0270910Y0498340D01*
X0242290Y0543110D02*
X0232440Y0543110D01*
X0242290Y0554920D02*
X0230470Y0566730D01*
X0130080Y0497830D02*
X0086770Y0454530D01*
X0085000Y0454250D01*
X0076930Y0454530D02*
X0075000Y0454250D01*
X0076930Y0454530D02*
X0063150Y0468310D01*
X0063150Y0537200D01*
X0069060Y0541140D02*
X0082840Y0527360D01*
X0098580Y0531300D02*
X0106460Y0531300D01*
X0120240Y0523420D02*
X0104490Y0507680D01*
X0096620Y0497830D02*
X0082840Y0511610D01*
X0076930Y0513580D02*
X0076930Y0503740D01*
X0082840Y0501770D02*
X0076930Y0495860D01*
X0067090Y0505710D01*
X0067090Y0515550D01*
X0049370Y0503740D02*
X0043470Y0509640D01*
X0042010Y0510160D01*
X0067090Y0486020D02*
X0076930Y0495860D01*
X0114330Y0474210D02*
X0114330Y0464370D01*
X0122210Y0456490D01*
X0122210Y0448620D01*
X0122210Y0462400D02*
X0151730Y0462400D01*
X0163550Y0450590D01*
X0163550Y0462400D02*
X0157640Y0462400D01*
X0163550Y0462400D02*
X0163550Y0468310D01*
X0163550Y0462400D02*
X0169450Y0462400D01*
X0179290Y0454530D02*
X0179290Y0476180D01*
X0179290Y0482080D02*
X0198980Y0462400D01*
X0198980Y0468310D02*
X0204880Y0474210D01*
X0179290Y0454530D02*
X0155670Y0430900D01*
X0124180Y0432870D02*
X0116300Y0425000D01*
X0108430Y0425000D01*
X0112360Y0562790D02*
X0122210Y0562790D01*
X0128110Y0568700D01*
X0118270Y0574600D02*
X0126140Y0582480D01*
X0104490Y0623820D02*
X0102520Y0623820D01*
X0094650Y0631690D01*
D77*
X0094650Y0631690D03*
X0104490Y0623820D03*
X0126140Y0582480D03*
X0118270Y0574600D03*
X0128110Y0568700D03*
X0112360Y0562790D03*
X0106460Y0531300D03*
X0098580Y0531300D03*
X0082840Y0527360D03*
X0067090Y0515550D03*
X0076930Y0513580D03*
X0082840Y0511610D03*
X0076930Y0503740D03*
X0082840Y0501770D03*
X0096620Y0497830D03*
X0104490Y0507680D03*
X0120240Y0523420D03*
X0130080Y0497830D03*
X0114330Y0474210D03*
X0122210Y0462400D03*
X0122210Y0448620D03*
X0124180Y0432870D03*
X0108430Y0425000D03*
X0155670Y0430900D03*
X0163550Y0450590D03*
X0169450Y0462400D03*
X0163550Y0468310D03*
X0157640Y0462400D03*
X0179290Y0454530D03*
X0198980Y0462400D03*
X0198980Y0468310D03*
X0204880Y0474210D03*
X0212760Y0476180D03*
X0216700Y0486020D03*
X0216700Y0495860D03*
X0230470Y0482080D03*
X0236380Y0482080D03*
X0242290Y0482080D03*
X0248190Y0482080D03*
X0254100Y0480120D03*
X0248190Y0468310D03*
X0242290Y0468310D03*
X0236380Y0466340D03*
X0242290Y0454530D03*
X0261970Y0468310D03*
X0252130Y0497830D03*
X0246220Y0497830D03*
X0240320Y0497830D03*
X0230470Y0517520D03*
X0238350Y0525390D03*
X0220630Y0535230D03*
X0210790Y0531300D03*
X0200950Y0521450D03*
X0197010Y0507680D03*
X0179290Y0482080D03*
X0179290Y0476180D03*
X0232440Y0543110D03*
X0242290Y0543110D03*
X0242290Y0554920D03*
X0230470Y0566730D03*
X0069060Y0541140D03*
X0063150Y0537200D03*
X0049370Y0503740D03*
X0067090Y0486020D03*
X0010000Y0645810D02*
G75*
%LPD*%
D42*
X0020000Y0719740D03*
X0060000Y0719740D03*
D104*
X0070000Y0705810D03*
X0070000Y0695810D03*
X0100000Y0695810D03*
X0100000Y0705810D03*
D55*
X0047010Y0684900D03*
X0247990Y0732620D03*
D47*
X0236180Y0732620D03*
X0236180Y0720810D03*
X0247990Y0720810D03*
X0247990Y0709000D03*
X0236180Y0709000D03*
X0058820Y0696710D03*
X0047010Y0696710D03*
X0058820Y0684900D03*
D99*
X0032900Y0653030D02*
X0031970Y0651410D01*
X0267560Y0651410D01*
X0266470Y0652030D01*
X0264260Y0654250D01*
X0262690Y0656960D01*
X0261880Y0659990D01*
X0261880Y0663120D01*
X0262690Y0666150D01*
X0264260Y0668860D01*
X0266470Y0671080D01*
X0269190Y0672640D01*
X0272210Y0673450D01*
X0275350Y0673450D01*
X0278370Y0672640D01*
X0279990Y0671710D01*
X0279990Y0785260D01*
X0278370Y0784330D01*
X0275350Y0783510D01*
X0272210Y0783510D01*
X0269190Y0784330D01*
X0266470Y0785890D01*
X0264260Y0788110D01*
X0262690Y0790820D01*
X0261880Y0793850D01*
X0261880Y0796980D01*
X0262690Y0800010D01*
X0263630Y0801620D01*
X0031970Y0801620D01*
X0032900Y0800010D01*
X0033710Y0796980D01*
X0033710Y0793850D01*
X0032900Y0790820D01*
X0031330Y0788110D01*
X0029120Y0785890D01*
X0026400Y0784330D01*
X0023380Y0783510D01*
X0020240Y0783510D01*
X0017220Y0784330D01*
X0015600Y0785260D01*
X0015600Y0723410D01*
X0016770Y0724580D01*
X0018870Y0725440D01*
X0021130Y0725440D01*
X0023230Y0724580D01*
X0024830Y0722970D01*
X0025700Y0720880D01*
X0025700Y0718610D01*
X0024830Y0716520D01*
X0023230Y0714910D01*
X0021130Y0714040D01*
X0018870Y0714040D01*
X0016770Y0714910D01*
X0015600Y0716080D01*
X0015600Y0667770D01*
X0017220Y0668710D01*
X0020240Y0669520D01*
X0023380Y0669520D01*
X0026400Y0668710D01*
X0029120Y0667140D01*
X0031330Y0664920D01*
X0032900Y0662210D01*
X0033710Y0659180D01*
X0033710Y0656050D01*
X0032900Y0653030D01*
X0032410Y0652180D02*
X0266330Y0652180D01*
X0263620Y0655360D02*
X0033530Y0655360D01*
X0033710Y0658550D02*
X0262270Y0658550D01*
X0261880Y0661730D02*
X0033030Y0661730D01*
X0031340Y0664920D02*
X0262360Y0664920D01*
X0263820Y0668100D02*
X0027450Y0668100D01*
X0016170Y0668100D02*
X0015600Y0668100D01*
X0015600Y0671290D02*
X0266840Y0671290D01*
X0279990Y0674470D02*
X0015600Y0674470D01*
X0015600Y0677660D02*
X0279990Y0677660D01*
X0279990Y0680840D02*
X0062410Y0680840D01*
X0061880Y0680310D02*
X0063410Y0681840D01*
X0064230Y0683830D01*
X0064230Y0685980D01*
X0063410Y0687970D01*
X0061880Y0689490D01*
X0059900Y0690310D01*
X0057740Y0690310D01*
X0055750Y0689490D01*
X0054230Y0687970D01*
X0053410Y0685980D01*
X0053410Y0683830D01*
X0054230Y0681840D01*
X0055750Y0680310D01*
X0057740Y0679490D01*
X0059900Y0679490D01*
X0061880Y0680310D01*
X0064230Y0684030D02*
X0279990Y0684030D01*
X0279990Y0687210D02*
X0063720Y0687210D01*
X0061880Y0692120D02*
X0063410Y0693650D01*
X0064230Y0695640D01*
X0064230Y0697790D01*
X0063410Y0699780D01*
X0061880Y0701300D01*
X0059900Y0702120D01*
X0057740Y0702120D01*
X0055750Y0701300D01*
X0054230Y0699780D01*
X0053410Y0697790D01*
X0053410Y0695640D01*
X0054230Y0693650D01*
X0055750Y0692120D01*
X0057740Y0691300D01*
X0059900Y0691300D01*
X0061880Y0692120D01*
X0063340Y0693580D02*
X0065150Y0693580D01*
X0065000Y0693740D02*
X0067930Y0690810D01*
X0072070Y0690810D01*
X0075000Y0693740D01*
X0075000Y0697880D01*
X0072070Y0700810D01*
X0075000Y0703740D01*
X0075000Y0707880D01*
X0072070Y0710810D01*
X0067930Y0710810D01*
X0065000Y0707880D01*
X0065000Y0703740D01*
X0067930Y0700810D01*
X0072070Y0700810D01*
X0067930Y0700810D01*
X0065000Y0697880D01*
X0065000Y0693740D01*
X0065000Y0696770D02*
X0064230Y0696770D01*
X0063230Y0699950D02*
X0067070Y0699950D01*
X0065600Y0703140D02*
X0015600Y0703140D01*
X0015600Y0706320D02*
X0065000Y0706320D01*
X0066630Y0709510D02*
X0015600Y0709510D01*
X0015600Y0712690D02*
X0082810Y0712690D01*
X0083040Y0713260D02*
X0082370Y0711640D01*
X0082370Y0710470D01*
X0081160Y0709260D01*
X0079990Y0709260D01*
X0078370Y0708590D01*
X0077140Y0707350D01*
X0076470Y0705740D01*
X0076470Y0703990D01*
X0077140Y0702370D01*
X0078370Y0701130D01*
X0079990Y0700460D01*
X0081740Y0700460D01*
X0083360Y0701130D01*
X0084600Y0702370D01*
X0085270Y0703990D01*
X0085270Y0705160D01*
X0086470Y0706370D01*
X0087650Y0706370D01*
X0089260Y0707040D01*
X0090500Y0708280D01*
X0091170Y0709890D01*
X0091170Y0711640D01*
X0090500Y0713260D01*
X0089260Y0714500D01*
X0087650Y0715170D01*
X0085900Y0715170D01*
X0084280Y0714500D01*
X0083040Y0713260D01*
X0081410Y0709510D02*
X0073370Y0709510D01*
X0075000Y0706320D02*
X0076710Y0706320D01*
X0076820Y0703140D02*
X0074400Y0703140D01*
X0072930Y0699950D02*
X0097070Y0699950D01*
X0097930Y0700810D02*
X0102070Y0700810D01*
X0105000Y0703740D01*
X0105000Y0707880D01*
X0102070Y0710810D01*
X0097930Y0710810D01*
X0095000Y0707880D01*
X0095000Y0703740D01*
X0097930Y0700810D01*
X0095000Y0697880D01*
X0095000Y0693740D01*
X0097930Y0690810D01*
X0102070Y0690810D01*
X0105000Y0693740D01*
X0105000Y0697880D01*
X0102070Y0700810D01*
X0097930Y0700810D01*
X0095600Y0703140D02*
X0084910Y0703140D01*
X0086430Y0706320D02*
X0095000Y0706320D01*
X0096630Y0709510D02*
X0091010Y0709510D01*
X0090740Y0712690D02*
X0130160Y0712690D01*
X0129550Y0712940D02*
X0131170Y0712270D01*
X0132920Y0712270D01*
X0134540Y0712940D01*
X0135780Y0714180D01*
X0136450Y0715800D01*
X0136450Y0717550D01*
X0136000Y0718620D01*
X0137080Y0718180D01*
X0138830Y0718180D01*
X0140450Y0718850D01*
X0141680Y0720090D01*
X0142350Y0721700D01*
X0142350Y0723450D01*
X0141680Y0725070D01*
X0140850Y0725900D01*
X0140850Y0731070D01*
X0141680Y0731900D01*
X0142350Y0733510D01*
X0142350Y0735260D01*
X0141680Y0736880D01*
X0140450Y0738120D01*
X0138830Y0738790D01*
X0137080Y0738790D01*
X0135460Y0738120D01*
X0134220Y0736880D01*
X0133550Y0735260D01*
X0133550Y0733510D01*
X0134220Y0731900D01*
X0135050Y0731070D01*
X0135050Y0725900D01*
X0134220Y0725070D01*
X0133550Y0723450D01*
X0133550Y0721700D01*
X0134000Y0720630D01*
X0132920Y0721070D01*
X0131750Y0721070D01*
X0107550Y0745270D01*
X0112940Y0745270D01*
X0114000Y0745710D01*
X0114820Y0746530D01*
X0125840Y0757550D01*
X0127020Y0757550D01*
X0128630Y0758220D01*
X0129870Y0759460D01*
X0130540Y0761070D01*
X0130540Y0762820D01*
X0129870Y0764440D01*
X0128630Y0765680D01*
X0127020Y0766350D01*
X0125270Y0766350D01*
X0123650Y0765680D01*
X0122410Y0764440D01*
X0121740Y0762820D01*
X0121740Y0761650D01*
X0111160Y0751070D01*
X0097970Y0751070D01*
X0097140Y0751900D01*
X0095520Y0752570D01*
X0093770Y0752570D01*
X0092150Y0751900D01*
X0090920Y0750660D01*
X0090250Y0749040D01*
X0090250Y0747290D01*
X0090310Y0747130D01*
X0089180Y0747130D01*
X0088530Y0748690D01*
X0088070Y0749150D01*
X0088530Y0749610D01*
X0089200Y0751230D01*
X0089200Y0752410D01*
X0094350Y0757550D01*
X0095520Y0757550D01*
X0097140Y0758220D01*
X0098380Y0759460D01*
X0099050Y0761070D01*
X0099050Y0762820D01*
X0098380Y0764440D01*
X0097140Y0765680D01*
X0095520Y0766350D01*
X0093770Y0766350D01*
X0092150Y0765680D01*
X0090920Y0764440D01*
X0090250Y0762820D01*
X0090250Y0761650D01*
X0085100Y0756510D01*
X0083930Y0756510D01*
X0082310Y0755840D01*
X0081070Y0754600D01*
X0080400Y0752980D01*
X0080400Y0751230D01*
X0081070Y0749610D01*
X0081530Y0749150D01*
X0081070Y0748690D01*
X0080400Y0747080D01*
X0080400Y0745330D01*
X0081070Y0743710D01*
X0082310Y0742470D01*
X0083930Y0741800D01*
X0085100Y0741800D01*
X0085130Y0741770D01*
X0086190Y0741330D01*
X0103290Y0741330D01*
X0127650Y0716970D01*
X0127650Y0715800D01*
X0128320Y0714180D01*
X0129550Y0712940D01*
X0133930Y0712690D02*
X0210670Y0712690D01*
X0213850Y0709510D02*
X0103370Y0709510D01*
X0105000Y0706320D02*
X0217040Y0706320D01*
X0220220Y0703140D02*
X0104400Y0703140D01*
X0102930Y0699950D02*
X0223410Y0699950D01*
X0226070Y0697290D02*
X0226070Y0696110D01*
X0226740Y0694500D01*
X0227980Y0693260D01*
X0229600Y0692590D01*
X0231350Y0692590D01*
X0232960Y0693260D01*
X0234200Y0694500D01*
X0234870Y0696110D01*
X0234870Y0697860D01*
X0234200Y0699480D01*
X0232960Y0700720D01*
X0231350Y0701390D01*
X0230170Y0701390D01*
X0207310Y0724250D01*
X0207310Y0725420D01*
X0206640Y0727040D01*
X0205410Y0728280D01*
X0203790Y0728950D01*
X0202040Y0728950D01*
X0200420Y0728280D01*
X0199180Y0727040D01*
X0198510Y0725420D01*
X0198510Y0723670D01*
X0199180Y0722050D01*
X0200420Y0720820D01*
X0202040Y0720150D01*
X0203210Y0720150D01*
X0226070Y0697290D01*
X0226070Y0696770D02*
X0105000Y0696770D01*
X0104850Y0693580D02*
X0227660Y0693580D01*
X0233290Y0693580D02*
X0279990Y0693580D01*
X0279990Y0690400D02*
X0050820Y0690400D01*
X0050780Y0690410D02*
X0050280Y0690510D01*
X0047010Y0690510D01*
X0047010Y0684900D01*
X0047010Y0684900D01*
X0052620Y0684900D01*
X0052620Y0681630D01*
X0052520Y0681130D01*
X0052320Y0680660D01*
X0052040Y0680230D01*
X0051680Y0679870D01*
X0051250Y0679590D01*
X0050780Y0679390D01*
X0050280Y0679290D01*
X0047010Y0679290D01*
X0047010Y0684900D01*
X0047010Y0684900D01*
X0052620Y0684900D01*
X0052620Y0688170D01*
X0052520Y0688670D01*
X0052320Y0689140D01*
X0052040Y0689570D01*
X0051680Y0689930D01*
X0051250Y0690220D01*
X0050780Y0690410D01*
X0050070Y0692120D02*
X0051600Y0693650D01*
X0052420Y0695640D01*
X0052420Y0697790D01*
X0051600Y0699780D01*
X0050070Y0701300D01*
X0048080Y0702120D01*
X0045930Y0702120D01*
X0043940Y0701300D01*
X0042420Y0699780D01*
X0041600Y0697790D01*
X0041600Y0695640D01*
X0042420Y0693650D01*
X0043940Y0692120D01*
X0045930Y0691300D01*
X0048080Y0691300D01*
X0050070Y0692120D01*
X0051530Y0693580D02*
X0054300Y0693580D01*
X0053410Y0696770D02*
X0052420Y0696770D01*
X0051420Y0699950D02*
X0054400Y0699950D01*
X0042590Y0699950D02*
X0037130Y0699950D01*
X0037060Y0700010D02*
X0034440Y0701530D01*
X0031510Y0702310D01*
X0028490Y0702310D01*
X0025560Y0701530D01*
X0022940Y0700010D01*
X0020790Y0697870D01*
X0019280Y0695250D01*
X0018490Y0692320D01*
X0018490Y0689290D01*
X0019280Y0686370D01*
X0020790Y0683740D01*
X0022940Y0681600D01*
X0025560Y0680090D01*
X0028490Y0679300D01*
X0031510Y0679300D01*
X0034440Y0680090D01*
X0037060Y0681600D01*
X0039210Y0683740D01*
X0040720Y0686370D01*
X0041510Y0689290D01*
X0041510Y0692320D01*
X0040720Y0695250D01*
X0039210Y0697870D01*
X0037060Y0700010D01*
X0039840Y0696770D02*
X0041600Y0696770D01*
X0041170Y0693580D02*
X0042480Y0693580D01*
X0043240Y0690410D02*
X0043740Y0690510D01*
X0047010Y0690510D01*
X0047010Y0684900D01*
X0047010Y0679290D01*
X0043740Y0679290D01*
X0043240Y0679390D01*
X0042760Y0679590D01*
X0042340Y0679870D01*
X0041980Y0680230D01*
X0041690Y0680660D01*
X0041500Y0681130D01*
X0041400Y0681630D01*
X0041400Y0684900D01*
X0047010Y0684900D01*
X0047010Y0684900D01*
X0047010Y0684900D01*
X0041400Y0684900D01*
X0041400Y0688170D01*
X0041500Y0688670D01*
X0041690Y0689140D01*
X0041980Y0689570D01*
X0042340Y0689930D01*
X0042760Y0690220D01*
X0043240Y0690410D01*
X0043200Y0690400D02*
X0041510Y0690400D01*
X0041400Y0687210D02*
X0040950Y0687210D01*
X0041400Y0684030D02*
X0039370Y0684030D01*
X0041620Y0680840D02*
X0035750Y0680840D01*
X0047010Y0680840D02*
X0047010Y0680840D01*
X0047010Y0684030D02*
X0047010Y0684030D01*
X0047010Y0687210D02*
X0047010Y0687210D01*
X0047010Y0690400D02*
X0047010Y0690400D01*
X0052620Y0687210D02*
X0053920Y0687210D01*
X0053410Y0684030D02*
X0052620Y0684030D01*
X0052400Y0680840D02*
X0055220Y0680840D01*
X0074850Y0693580D02*
X0095150Y0693580D01*
X0095000Y0696770D02*
X0075000Y0696770D01*
X0063230Y0714910D02*
X0061130Y0714040D01*
X0058870Y0714040D01*
X0056770Y0714910D01*
X0055170Y0716520D01*
X0054300Y0718610D01*
X0054300Y0720880D01*
X0055170Y0722970D01*
X0056770Y0724580D01*
X0058870Y0725440D01*
X0061130Y0725440D01*
X0063230Y0724580D01*
X0064830Y0722970D01*
X0065700Y0720880D01*
X0065700Y0718610D01*
X0064830Y0716520D01*
X0063230Y0714910D01*
X0064190Y0715880D02*
X0127650Y0715880D01*
X0125560Y0719060D02*
X0065700Y0719060D01*
X0065130Y0722250D02*
X0122370Y0722250D01*
X0119190Y0725430D02*
X0061160Y0725430D01*
X0058840Y0725430D02*
X0021160Y0725430D01*
X0018840Y0725430D02*
X0015600Y0725430D01*
X0015600Y0728620D02*
X0116000Y0728620D01*
X0112820Y0731800D02*
X0015600Y0731800D01*
X0015600Y0734990D02*
X0109630Y0734990D01*
X0106450Y0738170D02*
X0015600Y0738170D01*
X0015600Y0741360D02*
X0086130Y0741360D01*
X0080730Y0744540D02*
X0015600Y0744540D01*
X0015600Y0747730D02*
X0080670Y0747730D01*
X0080540Y0750910D02*
X0015600Y0750910D01*
X0015600Y0754100D02*
X0025670Y0754100D01*
X0025220Y0754280D02*
X0026840Y0753610D01*
X0028590Y0753610D01*
X0030210Y0754280D01*
X0031450Y0755520D01*
X0032120Y0757140D01*
X0032120Y0758310D01*
X0035290Y0761490D01*
X0036470Y0761490D01*
X0038080Y0762160D01*
X0039320Y0763390D01*
X0039990Y0765010D01*
X0039990Y0766760D01*
X0039320Y0768380D01*
X0038080Y0769620D01*
X0036470Y0770290D01*
X0034720Y0770290D01*
X0033100Y0769620D01*
X0031860Y0768380D01*
X0031190Y0766760D01*
X0031190Y0765590D01*
X0028020Y0762410D01*
X0026840Y0762410D01*
X0025220Y0761740D01*
X0023990Y0760500D01*
X0023320Y0758890D01*
X0023320Y0757140D01*
X0023990Y0755520D01*
X0025220Y0754280D01*
X0023320Y0757280D02*
X0015600Y0757280D01*
X0015600Y0760470D02*
X0023970Y0760470D01*
X0029260Y0763650D02*
X0015600Y0763650D01*
X0015600Y0766840D02*
X0031220Y0766840D01*
X0034080Y0770020D02*
X0015600Y0770020D01*
X0015600Y0773210D02*
X0076350Y0773210D01*
X0076440Y0773430D02*
X0076000Y0772370D01*
X0076000Y0765270D01*
X0075170Y0764440D01*
X0074500Y0762820D01*
X0074500Y0761070D01*
X0075170Y0759460D01*
X0076410Y0758220D01*
X0078020Y0757550D01*
X0079770Y0757550D01*
X0081390Y0758220D01*
X0082630Y0759460D01*
X0083300Y0761070D01*
X0083300Y0762820D01*
X0082630Y0764440D01*
X0081800Y0765270D01*
X0081800Y0770590D01*
X0086470Y0775270D01*
X0087650Y0775270D01*
X0089260Y0775940D01*
X0090500Y0777170D01*
X0091170Y0778790D01*
X0091170Y0780540D01*
X0090500Y0782160D01*
X0089260Y0783400D01*
X0087650Y0784070D01*
X0085900Y0784070D01*
X0084280Y0783400D01*
X0083040Y0782160D01*
X0082370Y0780540D01*
X0082370Y0779370D01*
X0076440Y0773430D01*
X0076000Y0770020D02*
X0054820Y0770020D01*
X0054180Y0770290D02*
X0055800Y0769620D01*
X0057040Y0768380D01*
X0057710Y0766760D01*
X0057710Y0765590D01*
X0062850Y0760440D01*
X0064020Y0760440D01*
X0065640Y0759770D01*
X0066880Y0758540D01*
X0067550Y0756920D01*
X0067550Y0755170D01*
X0066880Y0753550D01*
X0065640Y0752310D01*
X0064020Y0751640D01*
X0062270Y0751640D01*
X0060660Y0752310D01*
X0059420Y0753550D01*
X0058750Y0755170D01*
X0058750Y0756340D01*
X0053610Y0761490D01*
X0052430Y0761490D01*
X0050810Y0762160D01*
X0049580Y0763390D01*
X0048910Y0765010D01*
X0048910Y0766760D01*
X0049580Y0768380D01*
X0050810Y0769620D01*
X0052430Y0770290D01*
X0054180Y0770290D01*
X0051800Y0770020D02*
X0037100Y0770020D01*
X0039960Y0766840D02*
X0048940Y0766840D01*
X0049470Y0763650D02*
X0039430Y0763650D01*
X0034270Y0760470D02*
X0054620Y0760470D01*
X0057810Y0757280D02*
X0032120Y0757280D01*
X0029760Y0754100D02*
X0059190Y0754100D01*
X0062830Y0760470D02*
X0074750Y0760470D01*
X0074840Y0763650D02*
X0059640Y0763650D01*
X0057680Y0766840D02*
X0076000Y0766840D01*
X0081800Y0766840D02*
X0133610Y0766840D01*
X0133550Y0766980D02*
X0134220Y0765360D01*
X0135460Y0764120D01*
X0137080Y0763450D01*
X0138830Y0763450D01*
X0140450Y0764120D01*
X0141680Y0765360D01*
X0142350Y0766980D01*
X0142350Y0768730D01*
X0141680Y0770350D01*
X0140850Y0771180D01*
X0140850Y0776340D01*
X0141680Y0777170D01*
X0142350Y0778790D01*
X0142350Y0780540D01*
X0141680Y0782160D01*
X0140450Y0783400D01*
X0138830Y0784070D01*
X0137080Y0784070D01*
X0135460Y0783400D01*
X0134220Y0782160D01*
X0133550Y0780540D01*
X0133550Y0778790D01*
X0134220Y0777170D01*
X0135050Y0776340D01*
X0135050Y0771180D01*
X0134220Y0770350D01*
X0133550Y0768730D01*
X0133550Y0766980D01*
X0134090Y0770020D02*
X0081800Y0770020D01*
X0084410Y0773210D02*
X0135050Y0773210D01*
X0135000Y0776390D02*
X0089720Y0776390D01*
X0091170Y0779580D02*
X0133550Y0779580D01*
X0134830Y0782760D02*
X0089900Y0782760D01*
X0083650Y0782760D02*
X0015600Y0782760D01*
X0015600Y0779580D02*
X0082370Y0779580D01*
X0079400Y0776390D02*
X0015600Y0776390D01*
X0029170Y0785950D02*
X0266420Y0785950D01*
X0263670Y0789130D02*
X0031920Y0789130D01*
X0033300Y0792320D02*
X0262290Y0792320D01*
X0261880Y0795500D02*
X0033710Y0795500D01*
X0033250Y0798690D02*
X0262340Y0798690D01*
X0279990Y0782760D02*
X0141080Y0782760D01*
X0142350Y0779580D02*
X0279990Y0779580D01*
X0279990Y0776390D02*
X0140900Y0776390D01*
X0140850Y0773210D02*
X0279990Y0773210D01*
X0279990Y0770020D02*
X0141820Y0770020D01*
X0142290Y0766840D02*
X0279990Y0766840D01*
X0279990Y0763650D02*
X0139310Y0763650D01*
X0136600Y0763650D02*
X0130200Y0763650D01*
X0130290Y0760470D02*
X0279990Y0760470D01*
X0279990Y0757280D02*
X0125580Y0757280D01*
X0122390Y0754100D02*
X0279990Y0754100D01*
X0279990Y0750910D02*
X0119210Y0750910D01*
X0116020Y0747730D02*
X0279990Y0747730D01*
X0279990Y0744540D02*
X0108280Y0744540D01*
X0111460Y0741360D02*
X0279990Y0741360D01*
X0279990Y0738170D02*
X0140320Y0738170D01*
X0142350Y0734990D02*
X0231300Y0734990D01*
X0231590Y0735680D02*
X0230770Y0733690D01*
X0230770Y0731540D01*
X0231590Y0729550D01*
X0233120Y0728030D01*
X0235100Y0727210D01*
X0237260Y0727210D01*
X0239250Y0728030D01*
X0240770Y0729550D01*
X0241590Y0731540D01*
X0241590Y0733690D01*
X0240770Y0735680D01*
X0239250Y0737210D01*
X0237260Y0738030D01*
X0235100Y0738030D01*
X0233120Y0737210D01*
X0231590Y0735680D01*
X0230770Y0731800D02*
X0141590Y0731800D01*
X0140850Y0728620D02*
X0201240Y0728620D01*
X0204590Y0728620D02*
X0232530Y0728620D01*
X0233210Y0725430D02*
X0207310Y0725430D01*
X0209310Y0722250D02*
X0230920Y0722250D01*
X0230770Y0721880D02*
X0230770Y0719730D01*
X0230950Y0719290D01*
X0228240Y0716570D01*
X0227980Y0716470D01*
X0226740Y0715230D01*
X0226070Y0713610D01*
X0226070Y0711860D01*
X0226740Y0710240D01*
X0227980Y0709010D01*
X0229600Y0708340D01*
X0230770Y0708340D01*
X0230770Y0707920D01*
X0231590Y0705930D01*
X0233120Y0704410D01*
X0235100Y0703580D01*
X0237260Y0703580D01*
X0239250Y0704410D01*
X0240770Y0705930D01*
X0241590Y0707920D01*
X0241590Y0710070D01*
X0240770Y0712060D01*
X0239250Y0713580D01*
X0237260Y0714410D01*
X0235100Y0714410D01*
X0234620Y0714210D01*
X0234460Y0714600D01*
X0235260Y0715400D01*
X0237260Y0715400D01*
X0239250Y0716220D01*
X0240770Y0717740D01*
X0241590Y0719730D01*
X0241590Y0721880D01*
X0240770Y0723870D01*
X0239250Y0725390D01*
X0237260Y0726220D01*
X0235100Y0726220D01*
X0233120Y0725390D01*
X0231590Y0723870D01*
X0230770Y0721880D01*
X0230730Y0719060D02*
X0212500Y0719060D01*
X0215680Y0715880D02*
X0227390Y0715880D01*
X0226070Y0712690D02*
X0218870Y0712690D01*
X0222050Y0709510D02*
X0227480Y0709510D01*
X0225240Y0706320D02*
X0231430Y0706320D01*
X0228420Y0703140D02*
X0279990Y0703140D01*
X0279990Y0706320D02*
X0252740Y0706320D01*
X0252580Y0705930D02*
X0253400Y0707920D01*
X0253400Y0710070D01*
X0252580Y0712060D01*
X0251060Y0713580D01*
X0249070Y0714410D01*
X0246920Y0714410D01*
X0244930Y0713580D01*
X0243400Y0712060D01*
X0242580Y0710070D01*
X0242580Y0707920D01*
X0243400Y0705930D01*
X0244930Y0704410D01*
X0246920Y0703580D01*
X0249070Y0703580D01*
X0251060Y0704410D01*
X0252580Y0705930D01*
X0253400Y0709510D02*
X0262720Y0709510D01*
X0263490Y0709300D02*
X0266510Y0709300D01*
X0269440Y0710090D01*
X0272060Y0711600D01*
X0274210Y0713740D01*
X0275720Y0716370D01*
X0276510Y0719290D01*
X0276510Y0722320D01*
X0275720Y0725250D01*
X0274210Y0727870D01*
X0272060Y0730010D01*
X0269440Y0731530D01*
X0266510Y0732310D01*
X0263490Y0732310D01*
X0260560Y0731530D01*
X0257940Y0730010D01*
X0255790Y0727870D01*
X0254280Y0725250D01*
X0253490Y0722320D01*
X0253490Y0719290D01*
X0254280Y0716370D01*
X0255790Y0713740D01*
X0257940Y0711600D01*
X0260560Y0710090D01*
X0263490Y0709300D01*
X0267280Y0709510D02*
X0279990Y0709510D01*
X0279990Y0712690D02*
X0273160Y0712690D01*
X0275440Y0715880D02*
X0279990Y0715880D01*
X0279990Y0719060D02*
X0276440Y0719060D01*
X0276510Y0722250D02*
X0279990Y0722250D01*
X0279990Y0725430D02*
X0275620Y0725430D01*
X0273460Y0728620D02*
X0279990Y0728620D01*
X0279990Y0731800D02*
X0268420Y0731800D01*
X0261580Y0731800D02*
X0253400Y0731800D01*
X0253400Y0729130D02*
X0253400Y0736110D01*
X0253040Y0736990D01*
X0252360Y0737660D01*
X0251480Y0738030D01*
X0244500Y0738030D01*
X0243620Y0737660D01*
X0242950Y0736990D01*
X0242580Y0736110D01*
X0242580Y0729130D01*
X0242950Y0728250D01*
X0243620Y0727570D01*
X0244500Y0727210D01*
X0251480Y0727210D01*
X0252360Y0727570D01*
X0253040Y0728250D01*
X0253400Y0729130D01*
X0253190Y0728620D02*
X0256540Y0728620D01*
X0254380Y0725430D02*
X0250970Y0725430D01*
X0251060Y0725390D02*
X0249070Y0726220D01*
X0246920Y0726220D01*
X0244930Y0725390D01*
X0243400Y0723870D01*
X0242580Y0721880D01*
X0242580Y0719730D01*
X0243400Y0717740D01*
X0244930Y0716220D01*
X0246920Y0715400D01*
X0249070Y0715400D01*
X0251060Y0716220D01*
X0252580Y0717740D01*
X0253400Y0719730D01*
X0253400Y0721880D01*
X0252580Y0723870D01*
X0251060Y0725390D01*
X0253250Y0722250D02*
X0253490Y0722250D01*
X0253560Y0719060D02*
X0253130Y0719060D01*
X0254560Y0715880D02*
X0250230Y0715880D01*
X0245750Y0715880D02*
X0238420Y0715880D01*
X0241320Y0719060D02*
X0242860Y0719060D01*
X0242730Y0722250D02*
X0241440Y0722250D01*
X0239160Y0725430D02*
X0245020Y0725430D01*
X0242790Y0728620D02*
X0239830Y0728620D01*
X0241590Y0731800D02*
X0242580Y0731800D01*
X0242580Y0734990D02*
X0241060Y0734990D01*
X0253400Y0734990D02*
X0279990Y0734990D01*
X0256840Y0712690D02*
X0251950Y0712690D01*
X0244030Y0712690D02*
X0240140Y0712690D01*
X0241590Y0709510D02*
X0242580Y0709510D01*
X0243240Y0706320D02*
X0240930Y0706320D01*
X0233730Y0699950D02*
X0279990Y0699950D01*
X0279990Y0696770D02*
X0234870Y0696770D01*
X0207480Y0715880D02*
X0136450Y0715880D01*
X0140660Y0719060D02*
X0204300Y0719060D01*
X0199100Y0722250D02*
X0142350Y0722250D01*
X0141320Y0725430D02*
X0198520Y0725430D01*
X0135050Y0728620D02*
X0124200Y0728620D01*
X0121020Y0731800D02*
X0134320Y0731800D01*
X0133550Y0734990D02*
X0117830Y0734990D01*
X0114650Y0738170D02*
X0135590Y0738170D01*
X0134580Y0725430D02*
X0127390Y0725430D01*
X0130570Y0722250D02*
X0133550Y0722250D01*
X0114820Y0746530D02*
X0114820Y0746530D01*
X0114190Y0754100D02*
X0090900Y0754100D01*
X0094080Y0757280D02*
X0117370Y0757280D01*
X0120560Y0760470D02*
X0098790Y0760470D01*
X0098700Y0763650D02*
X0122080Y0763650D01*
X0091170Y0750910D02*
X0089070Y0750910D01*
X0088930Y0747730D02*
X0090250Y0747730D01*
X0080870Y0754100D02*
X0067110Y0754100D01*
X0067400Y0757280D02*
X0085880Y0757280D01*
X0083050Y0760470D02*
X0089060Y0760470D01*
X0090590Y0763650D02*
X0082950Y0763650D01*
X0054870Y0722250D02*
X0025130Y0722250D01*
X0025700Y0719060D02*
X0054300Y0719060D01*
X0055810Y0715880D02*
X0024190Y0715880D01*
X0015810Y0715880D02*
X0015600Y0715880D01*
X0015600Y0699950D02*
X0022870Y0699950D01*
X0020160Y0696770D02*
X0015600Y0696770D01*
X0015600Y0693580D02*
X0018830Y0693580D01*
X0018490Y0690400D02*
X0015600Y0690400D01*
X0015600Y0687210D02*
X0019050Y0687210D01*
X0020630Y0684030D02*
X0015600Y0684030D01*
X0015600Y0680840D02*
X0024250Y0680840D01*
D118*
X0080870Y0704860D02*
X0086770Y0710770D01*
X0104490Y0744230D02*
X0132050Y0716670D01*
X0137950Y0722580D02*
X0137950Y0734390D01*
X0112360Y0748170D02*
X0094650Y0748170D01*
X0086770Y0744230D02*
X0084800Y0746200D01*
X0086770Y0744230D02*
X0104490Y0744230D01*
X0112360Y0748170D02*
X0126140Y0761950D01*
X0137950Y0767850D02*
X0137950Y0779670D01*
X0094650Y0761950D02*
X0084800Y0752110D01*
X0078900Y0761950D02*
X0078900Y0771790D01*
X0086770Y0779670D01*
X0063150Y0756040D02*
X0053310Y0765890D01*
X0035590Y0765890D02*
X0027720Y0758010D01*
X0202910Y0724550D02*
X0230470Y0696990D01*
X0230470Y0712740D02*
X0230470Y0714700D01*
X0236380Y0720610D01*
X0236180Y0720810D01*
D77*
X0230470Y0712740D03*
X0230470Y0696990D03*
X0202910Y0724550D03*
X0137950Y0722580D03*
X0132050Y0716670D03*
X0137950Y0734390D03*
X0094650Y0748170D03*
X0084800Y0746200D03*
X0084800Y0752110D03*
X0078900Y0761950D03*
X0094650Y0761950D03*
X0086770Y0779670D03*
X0053310Y0765890D03*
X0063150Y0756040D03*
X0035590Y0765890D03*
X0027720Y0758010D03*
X0086770Y0710770D03*
X0080870Y0704860D03*
X0126140Y0761950D03*
X0137950Y0767850D03*
X0137950Y0779670D03*
M02*
