G75*
G70*
%OFA0B0*%
%FSLAX25Y25*%
%IPPOS*%
%LPD*%
%AMOC8*
5,1,8,0,0,1.08239X$1,22.5*
%
%ADD105OC8,0.05200*%
%ADD119C,0.01000*%
%ADD129OC8,0.08500*%
%ADD14C,0.05600*%
%ADD146C,0.05740*%
%ADD34C,0.05150*%
%ADD38C,0.03000*%
%ADD42C,0.06600*%
%ADD47C,0.01600*%
%ADD48C,0.06020*%
%ADD53OC8,0.05600*%
%ADD56R,0.06020X0.06020*%
%ADD66R,0.03960X0.03960*%
%ADD77C,0.05200*%
%ADD78C,0.04000*%
%ADD85OC8,0.10000*%
X0010000Y0010000D02*
G75*
%LPD*%
D105*
X0072000Y0030000D03*
X0082000Y0030000D03*
X0082000Y0042000D03*
X0072000Y0042000D03*
X0145000Y0045000D03*
X0155000Y0045000D03*
X0155000Y0055000D03*
X0145000Y0055000D03*
X0154000Y0035000D03*
X0145000Y0034000D03*
X0154000Y0025000D03*
X0145000Y0024000D03*
X0315000Y0036000D03*
X0315000Y0046000D03*
X0108000Y0199000D03*
X0108000Y0209000D03*
X0070000Y0185000D03*
X0069000Y0174000D03*
X0050000Y0185000D03*
X0049000Y0174000D03*
X0056000Y0201000D03*
X0056000Y0211000D03*
X0097000Y0247000D03*
X0098000Y0267000D03*
X0088000Y0267000D03*
X0127000Y0247000D03*
D85*
X0130000Y0140500D03*
X0090000Y0140500D03*
X0110000Y0070500D03*
D42*
X0098000Y0232000D03*
X0138000Y0232000D03*
D146*
X0366460Y0141780D02*
X0372200Y0141780D01*
X0372200Y0131940D02*
X0366460Y0131940D01*
X0366460Y0124060D02*
X0372200Y0124060D01*
X0372200Y0114220D02*
X0366460Y0114220D01*
D77*
X0343600Y0158000D02*
X0338400Y0158000D01*
X0313600Y0158000D02*
X0308400Y0158000D01*
X0299600Y0158000D02*
X0294400Y0158000D01*
X0269600Y0158000D02*
X0264400Y0158000D01*
X0263400Y0212000D02*
X0268600Y0212000D01*
X0293400Y0212000D02*
X0298600Y0212000D01*
X0308400Y0212000D02*
X0313600Y0212000D01*
X0338400Y0212000D02*
X0343600Y0212000D01*
D77*
X0181000Y0114000D03*
X0171000Y0114000D03*
X0252000Y0068000D03*
X0252000Y0058000D03*
D34*
X0035840Y0036090D02*
X0030690Y0036090D01*
X0020270Y0051430D02*
X0020270Y0056580D01*
X0042890Y0064430D02*
X0048040Y0064430D01*
X0048400Y0073880D02*
X0053550Y0073880D01*
X0063580Y0040830D02*
X0063580Y0035680D01*
X0351430Y0071180D02*
X0351430Y0076320D01*
X0379170Y0075920D02*
X0384320Y0075920D01*
X0394730Y0060580D02*
X0394730Y0055430D01*
X0372110Y0047570D02*
X0366960Y0047570D01*
X0366600Y0038120D02*
X0361450Y0038120D01*
D129*
X0225000Y0103000D03*
D14*
X0107800Y0159000D02*
X0102200Y0159000D01*
X0102200Y0169000D02*
X0107800Y0169000D01*
D48*
X0060910Y0240180D03*
X0060910Y0251990D03*
X0049100Y0240180D03*
X0355180Y0233720D03*
X0355180Y0221910D03*
X0366990Y0221910D03*
X0366990Y0210100D03*
X0355180Y0210100D03*
X0355180Y0198290D03*
X0366990Y0198290D03*
D56*
X0366990Y0233720D03*
X0049100Y0251990D03*
D14*
X0034000Y0097000D03*
D53*
X0024000Y0097000D03*
X0024000Y0107000D03*
X0034000Y0107000D03*
X0034000Y0117000D03*
X0024000Y0117000D03*
X0024000Y0127000D03*
X0034000Y0127000D03*
X0034000Y0137000D03*
X0024000Y0137000D03*
X0024000Y0147000D03*
X0034000Y0147000D03*
X0034000Y0157000D03*
X0024000Y0157000D03*
X0024000Y0167000D03*
X0034000Y0167000D03*
X0034000Y0177000D03*
X0024000Y0177000D03*
X0024000Y0187000D03*
X0034000Y0187000D03*
X0034000Y0197000D03*
X0024000Y0197000D03*
X0024000Y0207000D03*
X0034000Y0207000D03*
X0034000Y0217000D03*
X0024000Y0217000D03*
X0010000Y0331210D02*
G75*
%LPD*%
D105*
X0075000Y0376210D03*
X0085000Y0376210D03*
X0085000Y0406210D03*
X0075000Y0406210D03*
X0193030Y0465150D03*
X0223030Y0465150D03*
D34*
X0063550Y0368040D02*
X0063550Y0362890D01*
X0035810Y0363300D02*
X0030660Y0363300D01*
X0020240Y0378640D02*
X0020240Y0383780D01*
X0042860Y0391640D02*
X0048010Y0391640D01*
X0048370Y0401090D02*
X0053520Y0401090D01*
D56*
X0042010Y0420300D03*
X0042010Y0465300D03*
X0042010Y0510300D03*
D48*
X0053820Y0510300D03*
X0053820Y0522120D03*
X0042010Y0522120D03*
X0042010Y0477120D03*
X0053820Y0477120D03*
X0053820Y0465300D03*
X0053820Y0432120D03*
X0042010Y0432120D03*
X0053820Y0420300D03*
X0236180Y0511210D03*
X0247990Y0511210D03*
X0249960Y0369240D03*
X0238150Y0369240D03*
D42*
X0065000Y0511210D03*
X0065000Y0551210D03*
D14*
X0270910Y0400300D03*
D53*
X0260910Y0400300D03*
X0260910Y0410300D03*
X0270910Y0410300D03*
X0270910Y0420300D03*
X0260910Y0420300D03*
X0260910Y0430300D03*
X0270910Y0430300D03*
X0270910Y0440300D03*
X0260910Y0440300D03*
X0260910Y0450300D03*
X0270910Y0450300D03*
X0270910Y0460300D03*
X0260910Y0460300D03*
X0260910Y0470300D03*
X0270910Y0470300D03*
D47*
X0014800Y0422910D02*
X0014800Y0350740D01*
X0016120Y0353030D01*
X0018190Y0355090D01*
X0020720Y0356550D01*
X0023540Y0357310D01*
X0026460Y0357310D01*
X0029290Y0356550D01*
X0031820Y0355090D01*
X0033880Y0353030D01*
X0035340Y0350490D01*
X0036100Y0347670D01*
X0036100Y0344750D01*
X0035340Y0341930D01*
X0033880Y0339390D01*
X0031820Y0337330D01*
X0029530Y0336010D01*
X0265470Y0336010D01*
X0263190Y0337330D01*
X0261120Y0339390D01*
X0259660Y0341930D01*
X0258900Y0344750D01*
X0258900Y0347670D01*
X0259660Y0350490D01*
X0261120Y0353030D01*
X0263190Y0355090D01*
X0265720Y0356550D01*
X0268540Y0357310D01*
X0271460Y0357310D01*
X0274290Y0356550D01*
X0276820Y0355090D01*
X0276860Y0355050D01*
X0276860Y0364950D01*
X0275540Y0362670D01*
X0273540Y0360670D01*
X0271100Y0359270D01*
X0268380Y0358540D01*
X0265560Y0358540D01*
X0262840Y0359270D01*
X0260400Y0360670D01*
X0258400Y0362670D01*
X0256990Y0365110D01*
X0256270Y0367830D01*
X0256270Y0370650D01*
X0256990Y0373370D01*
X0258400Y0375810D01*
X0260400Y0377810D01*
X0262840Y0379220D01*
X0265560Y0379950D01*
X0268380Y0379950D01*
X0271100Y0379220D01*
X0273540Y0377810D01*
X0275540Y0375810D01*
X0276860Y0373530D01*
X0276860Y0556720D01*
X0274630Y0556720D01*
X0275340Y0555490D01*
X0276100Y0552670D01*
X0276100Y0549750D01*
X0275340Y0546930D01*
X0273880Y0544390D01*
X0271820Y0542330D01*
X0269290Y0540870D01*
X0266460Y0540110D01*
X0263540Y0540110D01*
X0260720Y0540870D01*
X0258190Y0542330D01*
X0256120Y0544390D01*
X0254660Y0546930D01*
X0253900Y0549750D01*
X0253900Y0552670D01*
X0254660Y0555490D01*
X0255370Y0556720D01*
X0096630Y0556720D01*
X0096690Y0556700D01*
X0097700Y0555690D01*
X0098250Y0554370D01*
X0098250Y0553020D01*
X0102450Y0548820D01*
X0102450Y0548830D01*
X0103770Y0549380D01*
X0105210Y0549380D01*
X0106530Y0548830D01*
X0107540Y0547820D01*
X0108090Y0546490D01*
X0108090Y0545060D01*
X0107540Y0543740D01*
X0106530Y0542720D01*
X0105210Y0542180D01*
X0103770Y0542180D01*
X0102450Y0542720D01*
X0101440Y0543740D01*
X0101330Y0544000D01*
X0100420Y0544910D01*
X0095280Y0550050D01*
X0093930Y0550050D01*
X0092610Y0550600D01*
X0091600Y0551610D01*
X0091050Y0552930D01*
X0091050Y0554370D01*
X0091600Y0555690D01*
X0092610Y0556700D01*
X0092660Y0556720D01*
X0034630Y0556720D01*
X0035340Y0555490D01*
X0036100Y0552670D01*
X0036100Y0549750D01*
X0035340Y0546930D01*
X0033880Y0544390D01*
X0031820Y0542330D01*
X0029290Y0540870D01*
X0026460Y0540110D01*
X0023540Y0540110D01*
X0020720Y0540870D01*
X0018190Y0542330D01*
X0016120Y0544390D01*
X0014800Y0546680D01*
X0014800Y0519510D01*
X0015030Y0520340D01*
X0016440Y0522780D01*
X0018430Y0524780D01*
X0020870Y0526190D01*
X0023590Y0526920D01*
X0026410Y0526920D01*
X0029130Y0526190D01*
X0031580Y0524780D01*
X0033570Y0522780D01*
X0034980Y0520340D01*
X0035710Y0517620D01*
X0035710Y0514800D01*
X0034980Y0512080D01*
X0033570Y0509640D01*
X0031580Y0507640D01*
X0029130Y0506230D01*
X0026410Y0505500D01*
X0023590Y0505500D01*
X0020870Y0506230D01*
X0018430Y0507640D01*
X0016440Y0509640D01*
X0015030Y0512080D01*
X0014800Y0512910D01*
X0014800Y0474510D01*
X0015030Y0475340D01*
X0016440Y0477780D01*
X0018430Y0479780D01*
X0020870Y0481190D01*
X0023590Y0481920D01*
X0026410Y0481920D01*
X0029130Y0481190D01*
X0031580Y0479780D01*
X0033570Y0477780D01*
X0034980Y0475340D01*
X0035710Y0472620D01*
X0035710Y0469800D01*
X0034980Y0467080D01*
X0033570Y0464640D01*
X0031580Y0462640D01*
X0029130Y0461230D01*
X0026410Y0460500D01*
X0023590Y0460500D01*
X0020870Y0461230D01*
X0018430Y0462640D01*
X0016440Y0464640D01*
X0015030Y0467080D01*
X0014800Y0467910D01*
X0014800Y0429510D01*
X0015030Y0430340D01*
X0016440Y0432780D01*
X0018430Y0434780D01*
X0020870Y0436190D01*
X0023590Y0436920D01*
X0026410Y0436920D01*
X0029130Y0436190D01*
X0031580Y0434780D01*
X0033570Y0432780D01*
X0034980Y0430340D01*
X0035710Y0427620D01*
X0035710Y0424800D01*
X0034980Y0422080D01*
X0033570Y0419640D01*
X0031580Y0417640D01*
X0029130Y0416230D01*
X0026410Y0415500D01*
X0023590Y0415500D01*
X0020870Y0416230D01*
X0018430Y0417640D01*
X0016440Y0419640D01*
X0015030Y0422080D01*
X0014800Y0422910D01*
X0014800Y0421560D02*
X0015330Y0421560D01*
X0014800Y0419970D02*
X0016240Y0419970D01*
X0014800Y0418390D02*
X0017690Y0418390D01*
X0019890Y0416800D02*
X0014800Y0416800D01*
X0014800Y0415220D02*
X0061050Y0415220D01*
X0061050Y0416800D02*
X0056840Y0416800D01*
X0056430Y0416390D02*
X0057730Y0417690D01*
X0058430Y0419390D01*
X0058430Y0421220D01*
X0057730Y0422920D01*
X0056430Y0424210D01*
X0054740Y0424920D01*
X0052940Y0424920D01*
X0052970Y0424980D01*
X0052970Y0426410D01*
X0052530Y0427470D01*
X0052690Y0427420D01*
X0053440Y0427300D01*
X0053620Y0427300D01*
X0053620Y0431910D01*
X0054020Y0431910D01*
X0054020Y0427300D01*
X0054200Y0427300D01*
X0054950Y0427420D01*
X0055670Y0427660D01*
X0056340Y0428000D01*
X0056960Y0428450D01*
X0057490Y0428980D01*
X0057940Y0429590D01*
X0058280Y0430270D01*
X0058510Y0430990D01*
X0058630Y0431740D01*
X0058630Y0431910D01*
X0054030Y0431910D01*
X0054030Y0432320D01*
X0058630Y0432320D01*
X0058630Y0432490D01*
X0058510Y0433240D01*
X0058280Y0433960D01*
X0057940Y0434640D01*
X0057490Y0435250D01*
X0056960Y0435790D01*
X0056340Y0436230D01*
X0055670Y0436570D01*
X0054950Y0436810D01*
X0054200Y0436930D01*
X0054020Y0436930D01*
X0054020Y0432320D01*
X0053620Y0432320D01*
X0053620Y0436930D01*
X0053440Y0436930D01*
X0052690Y0436810D01*
X0051970Y0436570D01*
X0051300Y0436230D01*
X0050690Y0435790D01*
X0050150Y0435250D01*
X0049710Y0434640D01*
X0049360Y0433960D01*
X0049130Y0433240D01*
X0049010Y0432490D01*
X0049010Y0432320D01*
X0053620Y0432320D01*
X0053620Y0431910D01*
X0049010Y0431910D01*
X0049010Y0431740D01*
X0049130Y0430990D01*
X0049360Y0430270D01*
X0049710Y0429590D01*
X0049920Y0429300D01*
X0048740Y0429300D01*
X0046620Y0431420D01*
X0046620Y0433030D01*
X0045920Y0434730D01*
X0044620Y0436030D01*
X0042930Y0436730D01*
X0041090Y0436730D01*
X0039400Y0436030D01*
X0038100Y0434730D01*
X0037400Y0433030D01*
X0037400Y0431200D01*
X0038100Y0429500D01*
X0039400Y0428210D01*
X0041090Y0427500D01*
X0042930Y0427500D01*
X0044110Y0427990D01*
X0045770Y0426330D01*
X0045770Y0424980D01*
X0045880Y0424720D01*
X0045680Y0424920D01*
X0038340Y0424920D01*
X0037400Y0423980D01*
X0037400Y0416630D01*
X0038340Y0415690D01*
X0045680Y0415690D01*
X0046620Y0416630D01*
X0046620Y0423360D01*
X0047330Y0422650D01*
X0048660Y0422100D01*
X0049570Y0422100D01*
X0049210Y0421220D01*
X0049210Y0419390D01*
X0049910Y0417690D01*
X0051210Y0416390D01*
X0052900Y0415690D01*
X0054740Y0415690D01*
X0056430Y0416390D01*
X0058020Y0418390D02*
X0061050Y0418390D01*
X0061050Y0419970D02*
X0058430Y0419970D01*
X0058290Y0421560D02*
X0061050Y0421560D01*
X0061050Y0423140D02*
X0057510Y0423140D01*
X0055200Y0424730D02*
X0061050Y0424730D01*
X0061050Y0426310D02*
X0052970Y0426310D01*
X0053620Y0427900D02*
X0054020Y0427900D01*
X0054020Y0429480D02*
X0053620Y0429480D01*
X0053620Y0431070D02*
X0054020Y0431070D01*
X0054020Y0432650D02*
X0053620Y0432650D01*
X0053620Y0434240D02*
X0054020Y0434240D01*
X0054020Y0435820D02*
X0053620Y0435820D01*
X0050730Y0435820D02*
X0044830Y0435820D01*
X0046120Y0434240D02*
X0049500Y0434240D01*
X0049030Y0432650D02*
X0046620Y0432650D01*
X0046980Y0431070D02*
X0049120Y0431070D01*
X0048560Y0429480D02*
X0049790Y0429480D01*
X0045770Y0426310D02*
X0035710Y0426310D01*
X0035690Y0424730D02*
X0038140Y0424730D01*
X0037400Y0423140D02*
X0035260Y0423140D01*
X0034680Y0421560D02*
X0037400Y0421560D01*
X0037400Y0419970D02*
X0033760Y0419970D01*
X0032320Y0418390D02*
X0037400Y0418390D01*
X0037400Y0416800D02*
X0030110Y0416800D01*
X0035630Y0427900D02*
X0040150Y0427900D01*
X0038120Y0429480D02*
X0035210Y0429480D01*
X0034560Y0431070D02*
X0037450Y0431070D01*
X0037400Y0432650D02*
X0033650Y0432650D01*
X0032120Y0434240D02*
X0037900Y0434240D01*
X0039190Y0435820D02*
X0029770Y0435820D01*
X0020240Y0435820D02*
X0014800Y0435820D01*
X0014800Y0434240D02*
X0017890Y0434240D01*
X0016360Y0432650D02*
X0014800Y0432650D01*
X0014800Y0431070D02*
X0015440Y0431070D01*
X0014800Y0437410D02*
X0061050Y0437410D01*
X0061050Y0438990D02*
X0014800Y0438990D01*
X0014800Y0440580D02*
X0061050Y0440580D01*
X0061050Y0442160D02*
X0014800Y0442160D01*
X0014800Y0443750D02*
X0061050Y0443750D01*
X0061050Y0445330D02*
X0014800Y0445330D01*
X0014800Y0446920D02*
X0061050Y0446920D01*
X0061050Y0448500D02*
X0014800Y0448500D01*
X0014800Y0450090D02*
X0061050Y0450090D01*
X0061050Y0451670D02*
X0014800Y0451670D01*
X0014800Y0453260D02*
X0061050Y0453260D01*
X0061050Y0454840D02*
X0014800Y0454840D01*
X0014800Y0456430D02*
X0060800Y0456430D01*
X0061050Y0456170D02*
X0061050Y0389400D01*
X0071650Y0378800D01*
X0070800Y0377950D01*
X0070800Y0374470D01*
X0073260Y0372010D01*
X0076740Y0372010D01*
X0079200Y0374470D01*
X0079200Y0377950D01*
X0076740Y0380410D01*
X0075980Y0380410D01*
X0065250Y0391130D01*
X0065250Y0404850D01*
X0066370Y0404380D01*
X0067800Y0404380D01*
X0069130Y0404930D01*
X0070140Y0405940D01*
X0070690Y0407270D01*
X0070690Y0408610D01*
X0077800Y0415720D01*
X0079030Y0416950D01*
X0082210Y0420130D01*
X0083550Y0420130D01*
X0084880Y0420680D01*
X0085890Y0421690D01*
X0086440Y0423010D01*
X0086440Y0424450D01*
X0085890Y0425770D01*
X0084880Y0426780D01*
X0083550Y0427330D01*
X0082120Y0427330D01*
X0080800Y0426780D01*
X0080500Y0426490D01*
X0079980Y0427740D01*
X0079030Y0428690D01*
X0079030Y0432550D01*
X0079270Y0432780D01*
X0079780Y0431530D01*
X0080800Y0430520D01*
X0082120Y0429970D01*
X0083470Y0429970D01*
X0093020Y0420420D01*
X0093020Y0419080D01*
X0093560Y0417750D01*
X0094580Y0416740D01*
X0095900Y0416190D01*
X0097330Y0416190D01*
X0098660Y0416740D01*
X0099670Y0417750D01*
X0100220Y0419080D01*
X0100220Y0420510D01*
X0099670Y0421830D01*
X0098660Y0422840D01*
X0097330Y0423390D01*
X0095990Y0423390D01*
X0086440Y0432940D01*
X0086440Y0434290D01*
X0085890Y0435610D01*
X0084880Y0436620D01*
X0083550Y0437170D01*
X0082120Y0437170D01*
X0080800Y0436620D01*
X0080500Y0436330D01*
X0079980Y0437580D01*
X0078970Y0438590D01*
X0077650Y0439140D01*
X0076220Y0439140D01*
X0074890Y0438590D01*
X0073880Y0437580D01*
X0073330Y0436260D01*
X0073330Y0434820D01*
X0073880Y0433500D01*
X0074830Y0432550D01*
X0074830Y0428690D01*
X0073880Y0427740D01*
X0073330Y0426410D01*
X0073330Y0424980D01*
X0073750Y0423980D01*
X0069190Y0428540D01*
X0069190Y0434520D01*
X0070140Y0435470D01*
X0070690Y0436790D01*
X0070690Y0438230D01*
X0070140Y0439550D01*
X0069130Y0440560D01*
X0067800Y0441110D01*
X0066370Y0441110D01*
X0065250Y0440640D01*
X0065250Y0456170D01*
X0066200Y0457120D01*
X0066750Y0458450D01*
X0066750Y0459880D01*
X0066440Y0460620D01*
X0067020Y0460050D01*
X0068340Y0459500D01*
X0069690Y0459500D01*
X0079240Y0449950D01*
X0079240Y0448600D01*
X0079780Y0447280D01*
X0080800Y0446270D01*
X0082120Y0445720D01*
X0083550Y0445720D01*
X0084880Y0446270D01*
X0085890Y0447280D01*
X0086440Y0448600D01*
X0086440Y0450040D01*
X0085890Y0451360D01*
X0084880Y0452370D01*
X0083550Y0452920D01*
X0082210Y0452920D01*
X0072660Y0462470D01*
X0072660Y0463820D01*
X0072110Y0465140D01*
X0071100Y0466150D01*
X0069770Y0466700D01*
X0068340Y0466700D01*
X0067020Y0466150D01*
X0066010Y0465140D01*
X0065460Y0463820D01*
X0065460Y0462380D01*
X0065770Y0461640D01*
X0065190Y0462210D01*
X0063870Y0462760D01*
X0062440Y0462760D01*
X0061110Y0462210D01*
X0060100Y0461200D01*
X0059550Y0459880D01*
X0059550Y0458450D01*
X0060100Y0457120D01*
X0061050Y0456170D01*
X0059730Y0458010D02*
X0014800Y0458010D01*
X0014800Y0459600D02*
X0059550Y0459600D01*
X0060090Y0461180D02*
X0055920Y0461180D01*
X0056430Y0461390D02*
X0057730Y0462690D01*
X0058430Y0464390D01*
X0058430Y0466220D01*
X0057730Y0467920D01*
X0056430Y0469210D01*
X0054740Y0469920D01*
X0052900Y0469920D01*
X0051210Y0469210D01*
X0049910Y0467920D01*
X0049210Y0466220D01*
X0049210Y0464390D01*
X0049910Y0462690D01*
X0051210Y0461390D01*
X0052900Y0460690D01*
X0054740Y0460690D01*
X0056430Y0461390D01*
X0057760Y0462770D02*
X0065460Y0462770D01*
X0065680Y0464350D02*
X0058420Y0464350D01*
X0058430Y0465940D02*
X0066800Y0465940D01*
X0071310Y0465940D02*
X0188830Y0465940D01*
X0188830Y0466890D02*
X0188830Y0463410D01*
X0191290Y0460950D01*
X0194770Y0460950D01*
X0197230Y0463410D01*
X0197230Y0466890D01*
X0194770Y0469350D01*
X0191290Y0469350D01*
X0188830Y0466890D01*
X0189470Y0467520D02*
X0057890Y0467520D01*
X0056540Y0469110D02*
X0191050Y0469110D01*
X0195020Y0469110D02*
X0221050Y0469110D01*
X0221290Y0469350D02*
X0218830Y0466890D01*
X0218830Y0463410D01*
X0221290Y0460950D01*
X0224770Y0460950D01*
X0227230Y0463410D01*
X0227230Y0466890D01*
X0224770Y0469350D01*
X0221290Y0469350D01*
X0219470Y0467520D02*
X0196600Y0467520D01*
X0197230Y0465940D02*
X0218830Y0465940D01*
X0218830Y0464350D02*
X0197230Y0464350D01*
X0196590Y0462770D02*
X0219480Y0462770D01*
X0219920Y0460790D02*
X0218590Y0460250D01*
X0217580Y0459230D01*
X0217030Y0457910D01*
X0217030Y0456480D01*
X0217580Y0455160D01*
X0218590Y0454140D01*
X0219920Y0453590D01*
X0221260Y0453590D01*
X0232190Y0442660D01*
X0231190Y0443080D01*
X0229760Y0443080D01*
X0228440Y0442530D01*
X0227420Y0441520D01*
X0226870Y0440190D01*
X0226870Y0438850D01*
X0219760Y0431740D01*
X0200000Y0431740D01*
X0199050Y0432690D01*
X0197730Y0433240D01*
X0196290Y0433240D01*
X0194970Y0432690D01*
X0193960Y0431670D01*
X0193410Y0430350D01*
X0193410Y0428920D01*
X0193960Y0427600D01*
X0194970Y0426580D01*
X0196290Y0426040D01*
X0197730Y0426040D01*
X0199050Y0426580D01*
X0200000Y0427540D01*
X0219760Y0427540D01*
X0221500Y0427540D01*
X0229840Y0435880D01*
X0231190Y0435880D01*
X0232510Y0436430D01*
X0233530Y0437440D01*
X0234070Y0438760D01*
X0234070Y0440190D01*
X0233660Y0441200D01*
X0249030Y0425830D01*
X0215830Y0425830D01*
X0214600Y0424600D01*
X0210660Y0420660D01*
X0210660Y0401130D01*
X0209710Y0400180D01*
X0209160Y0398860D01*
X0209160Y0397420D01*
X0209710Y0396100D01*
X0210720Y0395090D01*
X0212040Y0394540D01*
X0213470Y0394540D01*
X0214800Y0395090D01*
X0215810Y0396100D01*
X0216360Y0397420D01*
X0216360Y0398860D01*
X0215940Y0399860D01*
X0238690Y0377120D01*
X0238690Y0375770D01*
X0239230Y0374450D01*
X0240250Y0373430D01*
X0241570Y0372890D01*
X0243000Y0372890D01*
X0244320Y0373430D01*
X0245340Y0374450D01*
X0245890Y0375770D01*
X0245890Y0377200D01*
X0245340Y0378520D01*
X0244320Y0379540D01*
X0243000Y0380090D01*
X0241660Y0380090D01*
X0237040Y0384700D01*
X0237100Y0384700D01*
X0238420Y0385240D01*
X0239430Y0386260D01*
X0239950Y0387510D01*
X0240250Y0387210D01*
X0241570Y0386670D01*
X0243000Y0386670D01*
X0244320Y0387210D01*
X0245240Y0388130D01*
X0246150Y0387210D01*
X0247470Y0386670D01*
X0248910Y0386670D01*
X0250230Y0387210D01*
X0251240Y0388230D01*
X0251790Y0389550D01*
X0251790Y0390980D01*
X0251240Y0392300D01*
X0250290Y0393260D01*
X0250290Y0401050D01*
X0250530Y0401290D01*
X0251040Y0400040D01*
X0252000Y0399080D01*
X0252000Y0397270D01*
X0253230Y0396040D01*
X0258370Y0390900D01*
X0258370Y0389550D01*
X0258920Y0388230D01*
X0259930Y0387210D01*
X0261250Y0386670D01*
X0262690Y0386670D01*
X0264010Y0387210D01*
X0265020Y0388230D01*
X0265570Y0389550D01*
X0265570Y0390980D01*
X0265020Y0392300D01*
X0264010Y0393320D01*
X0262690Y0393870D01*
X0261340Y0393870D01*
X0259300Y0395900D01*
X0262730Y0395900D01*
X0265310Y0398480D01*
X0265310Y0402130D01*
X0262730Y0404700D01*
X0259090Y0404700D01*
X0257540Y0403160D01*
X0257150Y0404120D01*
X0256140Y0405130D01*
X0254810Y0405680D01*
X0253380Y0405680D01*
X0252060Y0405130D01*
X0251760Y0404830D01*
X0251240Y0406080D01*
X0250230Y0407100D01*
X0248910Y0407640D01*
X0247470Y0407640D01*
X0246150Y0407100D01*
X0245240Y0406180D01*
X0244320Y0407100D01*
X0243000Y0407640D01*
X0241570Y0407640D01*
X0240250Y0407100D01*
X0239330Y0406180D01*
X0238420Y0407100D01*
X0237100Y0407640D01*
X0237040Y0407640D01*
X0245590Y0416190D01*
X0246940Y0416190D01*
X0248260Y0416740D01*
X0249180Y0417650D01*
X0250090Y0416740D01*
X0251410Y0416190D01*
X0252840Y0416190D01*
X0254170Y0416740D01*
X0255180Y0417750D01*
X0255730Y0419080D01*
X0255730Y0419660D01*
X0256510Y0419660D01*
X0256510Y0418480D01*
X0259090Y0415900D01*
X0262730Y0415900D01*
X0265310Y0418480D01*
X0265310Y0422130D01*
X0263840Y0423600D01*
X0265040Y0423600D01*
X0266510Y0422130D01*
X0266510Y0422130D01*
X0266510Y0418480D01*
X0269090Y0415900D01*
X0272730Y0415900D01*
X0275310Y0418480D01*
X0275310Y0422130D01*
X0272730Y0424700D01*
X0269870Y0424700D01*
X0266780Y0427800D01*
X0264620Y0427800D01*
X0265310Y0428480D01*
X0265310Y0432130D01*
X0262730Y0434700D01*
X0259090Y0434700D01*
X0256510Y0432130D01*
X0256510Y0428480D01*
X0257190Y0427800D01*
X0256930Y0427800D01*
X0240450Y0444280D01*
X0240450Y0444360D01*
X0241400Y0445310D01*
X0241950Y0446640D01*
X0241950Y0448070D01*
X0241400Y0449390D01*
X0240390Y0450400D01*
X0239060Y0450950D01*
X0237630Y0450950D01*
X0236310Y0450400D01*
X0235300Y0449390D01*
X0234750Y0448070D01*
X0234750Y0446640D01*
X0235160Y0445630D01*
X0224230Y0456560D01*
X0224230Y0457910D01*
X0223680Y0459230D01*
X0222670Y0460250D01*
X0221350Y0460790D01*
X0219920Y0460790D01*
X0221060Y0461180D02*
X0195010Y0461180D01*
X0191060Y0461180D02*
X0073950Y0461180D01*
X0072660Y0462770D02*
X0189480Y0462770D01*
X0188830Y0464350D02*
X0072440Y0464350D01*
X0075530Y0459600D02*
X0217940Y0459600D01*
X0217070Y0458010D02*
X0077120Y0458010D01*
X0078700Y0456430D02*
X0096830Y0456430D01*
X0096550Y0456310D02*
X0095530Y0455300D01*
X0094980Y0453970D01*
X0094980Y0452540D01*
X0095530Y0451220D01*
X0096550Y0450210D01*
X0097870Y0449660D01*
X0099300Y0449660D01*
X0100620Y0450210D01*
X0101580Y0451160D01*
X0103470Y0451160D01*
X0104420Y0450210D01*
X0105740Y0449660D01*
X0107170Y0449660D01*
X0108500Y0450210D01*
X0109510Y0451220D01*
X0110060Y0452540D01*
X0110060Y0453970D01*
X0109510Y0455300D01*
X0108500Y0456310D01*
X0107170Y0456860D01*
X0105740Y0456860D01*
X0104420Y0456310D01*
X0103470Y0455360D01*
X0101580Y0455360D01*
X0100620Y0456310D01*
X0099300Y0456860D01*
X0097870Y0456860D01*
X0096550Y0456310D01*
X0095340Y0454840D02*
X0080290Y0454840D01*
X0081870Y0453260D02*
X0094980Y0453260D01*
X0095350Y0451670D02*
X0085580Y0451670D01*
X0086420Y0450090D02*
X0096840Y0450090D01*
X0100330Y0450090D02*
X0104710Y0450090D01*
X0108210Y0450090D02*
X0204650Y0450090D01*
X0206230Y0451670D02*
X0109700Y0451670D01*
X0110060Y0453260D02*
X0207190Y0453260D01*
X0207190Y0452630D02*
X0207190Y0453970D01*
X0207740Y0455300D01*
X0208750Y0456310D01*
X0210070Y0456860D01*
X0211510Y0456860D01*
X0212830Y0456310D01*
X0213840Y0455300D01*
X0214390Y0453970D01*
X0214390Y0452540D01*
X0213840Y0451220D01*
X0212830Y0450210D01*
X0211510Y0449660D01*
X0210160Y0449660D01*
X0204550Y0444040D01*
X0204550Y0442700D01*
X0204000Y0441380D01*
X0202990Y0440360D01*
X0201660Y0439810D01*
X0200230Y0439810D01*
X0198910Y0440360D01*
X0197900Y0441380D01*
X0197350Y0442700D01*
X0197350Y0444130D01*
X0197900Y0445450D01*
X0198910Y0446470D01*
X0200230Y0447010D01*
X0201580Y0447010D01*
X0207190Y0452630D01*
X0207550Y0454840D02*
X0109700Y0454840D01*
X0108220Y0456430D02*
X0209030Y0456430D01*
X0212550Y0456430D02*
X0217050Y0456430D01*
X0217890Y0454840D02*
X0214030Y0454840D01*
X0214390Y0453260D02*
X0221600Y0453260D01*
X0223190Y0451670D02*
X0214030Y0451670D01*
X0212540Y0450090D02*
X0224770Y0450090D01*
X0226360Y0448500D02*
X0209000Y0448500D01*
X0207420Y0446920D02*
X0227940Y0446920D01*
X0229530Y0445330D02*
X0205830Y0445330D01*
X0204550Y0443750D02*
X0231110Y0443750D01*
X0228070Y0442160D02*
X0204320Y0442160D01*
X0203200Y0440580D02*
X0227030Y0440580D01*
X0226870Y0438990D02*
X0116820Y0438990D01*
X0118400Y0440580D02*
X0198700Y0440580D01*
X0197570Y0442160D02*
X0121860Y0442160D01*
X0122280Y0442330D02*
X0120950Y0441780D01*
X0119610Y0441780D01*
X0108090Y0430270D01*
X0108090Y0428920D01*
X0107540Y0427600D01*
X0106530Y0426580D01*
X0105210Y0426040D01*
X0103770Y0426040D01*
X0102450Y0426580D01*
X0101440Y0427600D01*
X0100890Y0428920D01*
X0100890Y0430350D01*
X0101440Y0431670D01*
X0102450Y0432690D01*
X0103770Y0433240D01*
X0105120Y0433240D01*
X0116640Y0444750D01*
X0116640Y0446100D01*
X0117190Y0447420D01*
X0118200Y0448440D01*
X0119520Y0448980D01*
X0120950Y0448980D01*
X0122280Y0448440D01*
X0123290Y0447420D01*
X0123840Y0446100D01*
X0123840Y0444670D01*
X0123290Y0443340D01*
X0122280Y0442330D01*
X0123460Y0443750D02*
X0197350Y0443750D01*
X0197840Y0445330D02*
X0123840Y0445330D01*
X0123500Y0446920D02*
X0199990Y0446920D01*
X0203060Y0448500D02*
X0122120Y0448500D01*
X0118360Y0448500D02*
X0086390Y0448500D01*
X0085520Y0446920D02*
X0116980Y0446920D01*
X0116640Y0445330D02*
X0065250Y0445330D01*
X0065250Y0443750D02*
X0115630Y0443750D01*
X0114050Y0442160D02*
X0065250Y0442160D01*
X0069090Y0440580D02*
X0112460Y0440580D01*
X0110880Y0438990D02*
X0078010Y0438990D01*
X0075850Y0438990D02*
X0070370Y0438990D01*
X0070690Y0437410D02*
X0073810Y0437410D01*
X0073330Y0435820D02*
X0070290Y0435820D01*
X0069190Y0434240D02*
X0073580Y0434240D01*
X0074730Y0432650D02*
X0069190Y0432650D01*
X0069190Y0431070D02*
X0074830Y0431070D01*
X0074830Y0429480D02*
X0069190Y0429480D01*
X0069830Y0427900D02*
X0074040Y0427900D01*
X0073330Y0426310D02*
X0071420Y0426310D01*
X0073000Y0424730D02*
X0073440Y0424730D01*
X0079830Y0427900D02*
X0085540Y0427900D01*
X0085350Y0426310D02*
X0087130Y0426310D01*
X0086320Y0424730D02*
X0088710Y0424730D01*
X0090300Y0423140D02*
X0086440Y0423140D01*
X0085750Y0421560D02*
X0091880Y0421560D01*
X0093020Y0419970D02*
X0082050Y0419970D01*
X0080460Y0418390D02*
X0093300Y0418390D01*
X0094520Y0416800D02*
X0078880Y0416800D01*
X0077290Y0415220D02*
X0122530Y0415220D01*
X0124120Y0416800D02*
X0098710Y0416800D01*
X0099930Y0418390D02*
X0125700Y0418390D01*
X0126480Y0419160D02*
X0087240Y0379920D01*
X0086740Y0380410D01*
X0083260Y0380410D01*
X0080800Y0377950D01*
X0080800Y0374470D01*
X0083260Y0372010D01*
X0086740Y0372010D01*
X0089200Y0374470D01*
X0089200Y0375940D01*
X0111150Y0397890D01*
X0110730Y0396890D01*
X0110730Y0395450D01*
X0111280Y0394130D01*
X0112230Y0393180D01*
X0112230Y0385460D01*
X0120110Y0377580D01*
X0120110Y0373570D01*
X0119150Y0372620D01*
X0118610Y0371300D01*
X0118610Y0369860D01*
X0119150Y0368540D01*
X0120170Y0367530D01*
X0121490Y0366980D01*
X0122920Y0366980D01*
X0124250Y0367530D01*
X0125260Y0368540D01*
X0125810Y0369860D01*
X0125810Y0371300D01*
X0125260Y0372620D01*
X0124310Y0373570D01*
X0124310Y0379320D01*
X0122870Y0380760D01*
X0122920Y0380760D01*
X0124250Y0381310D01*
X0125200Y0382260D01*
X0150860Y0382260D01*
X0159950Y0373180D01*
X0159950Y0371830D01*
X0160490Y0370510D01*
X0161510Y0369500D01*
X0162830Y0368950D01*
X0164260Y0368950D01*
X0165580Y0369500D01*
X0166600Y0370510D01*
X0167150Y0371830D01*
X0167150Y0373260D01*
X0166600Y0374590D01*
X0165580Y0375600D01*
X0164260Y0376150D01*
X0162920Y0376150D01*
X0158300Y0380760D01*
X0158360Y0380760D01*
X0159680Y0381310D01*
X0160630Y0382260D01*
X0166460Y0382260D01*
X0167410Y0381310D01*
X0168730Y0380760D01*
X0170170Y0380760D01*
X0171490Y0381310D01*
X0172500Y0382320D01*
X0173050Y0383640D01*
X0173050Y0385080D01*
X0172500Y0386400D01*
X0171490Y0387410D01*
X0170170Y0387960D01*
X0168730Y0387960D01*
X0167410Y0387410D01*
X0166460Y0386460D01*
X0165650Y0386460D01*
X0165650Y0387270D01*
X0166600Y0388230D01*
X0167150Y0389550D01*
X0167150Y0390980D01*
X0166600Y0392300D01*
X0165580Y0393320D01*
X0164260Y0393870D01*
X0162830Y0393870D01*
X0161510Y0393320D01*
X0160490Y0392300D01*
X0159950Y0390980D01*
X0159950Y0389550D01*
X0160490Y0388230D01*
X0161450Y0387270D01*
X0161450Y0386460D01*
X0160630Y0386460D01*
X0159680Y0387410D01*
X0158360Y0387960D01*
X0156920Y0387960D01*
X0155600Y0387410D01*
X0154590Y0386400D01*
X0154040Y0385080D01*
X0154040Y0385020D01*
X0152600Y0386460D01*
X0125200Y0386460D01*
X0124250Y0387410D01*
X0122920Y0387960D01*
X0121490Y0387960D01*
X0120170Y0387410D01*
X0119150Y0386400D01*
X0118610Y0385080D01*
X0118610Y0385020D01*
X0116430Y0387200D01*
X0116430Y0393180D01*
X0117380Y0394130D01*
X0117930Y0395450D01*
X0117930Y0396890D01*
X0117380Y0398210D01*
X0116370Y0399220D01*
X0115050Y0399770D01*
X0113620Y0399770D01*
X0112610Y0399350D01*
X0129450Y0416190D01*
X0130800Y0416190D01*
X0132120Y0416740D01*
X0133130Y0417750D01*
X0133680Y0419080D01*
X0133680Y0420510D01*
X0133130Y0421830D01*
X0132120Y0422840D01*
X0130800Y0423390D01*
X0129360Y0423390D01*
X0128040Y0422840D01*
X0127030Y0421830D01*
X0126480Y0420510D01*
X0126480Y0419160D01*
X0126480Y0419970D02*
X0100220Y0419970D01*
X0099780Y0421560D02*
X0126910Y0421560D01*
X0128760Y0423140D02*
X0097940Y0423140D01*
X0094650Y0424730D02*
X0214720Y0424730D01*
X0213140Y0423140D02*
X0131410Y0423140D01*
X0133250Y0421560D02*
X0211550Y0421560D01*
X0210660Y0419970D02*
X0133680Y0419970D01*
X0133390Y0418390D02*
X0210660Y0418390D01*
X0210660Y0416800D02*
X0132180Y0416800D01*
X0128470Y0415220D02*
X0210660Y0415220D01*
X0210660Y0413630D02*
X0126890Y0413630D01*
X0125300Y0412050D02*
X0210660Y0412050D01*
X0210660Y0410460D02*
X0123720Y0410460D01*
X0122130Y0408880D02*
X0210660Y0408880D01*
X0210660Y0407290D02*
X0180870Y0407290D01*
X0181330Y0407100D02*
X0180010Y0407640D01*
X0178580Y0407640D01*
X0177250Y0407100D01*
X0176240Y0406080D01*
X0175690Y0404760D01*
X0175690Y0403330D01*
X0176240Y0402010D01*
X0177160Y0401090D01*
X0176240Y0400180D01*
X0175690Y0398860D01*
X0175690Y0397420D01*
X0176240Y0396100D01*
X0177190Y0395150D01*
X0177190Y0379480D01*
X0176240Y0378520D01*
X0175690Y0377200D01*
X0175690Y0375860D01*
X0156300Y0356460D01*
X0154960Y0356460D01*
X0153630Y0355920D01*
X0152620Y0354900D01*
X0152070Y0353580D01*
X0152070Y0352150D01*
X0152620Y0350820D01*
X0153630Y0349810D01*
X0154960Y0349260D01*
X0156390Y0349260D01*
X0157710Y0349810D01*
X0158720Y0350820D01*
X0159270Y0352150D01*
X0159270Y0353490D01*
X0178660Y0372890D01*
X0180010Y0372890D01*
X0181330Y0373430D01*
X0182350Y0374450D01*
X0182890Y0375770D01*
X0182890Y0377200D01*
X0182350Y0378520D01*
X0181390Y0379480D01*
X0181390Y0395150D01*
X0182350Y0396100D01*
X0182890Y0397420D01*
X0182890Y0397470D01*
X0195380Y0384990D01*
X0195380Y0383640D01*
X0195930Y0382320D01*
X0196940Y0381310D01*
X0198260Y0380760D01*
X0199690Y0380760D01*
X0201020Y0381310D01*
X0202030Y0382320D01*
X0202580Y0383640D01*
X0202580Y0385080D01*
X0202030Y0386400D01*
X0201120Y0387310D01*
X0202030Y0388230D01*
X0202580Y0389550D01*
X0202580Y0390900D01*
X0204250Y0392570D01*
X0205600Y0392570D01*
X0206920Y0393120D01*
X0207940Y0394130D01*
X0208480Y0395450D01*
X0208480Y0396890D01*
X0207940Y0398210D01*
X0206920Y0399220D01*
X0205600Y0399770D01*
X0204170Y0399770D01*
X0202840Y0399220D01*
X0201830Y0398210D01*
X0201280Y0396890D01*
X0201280Y0395540D01*
X0199610Y0393870D01*
X0198260Y0393870D01*
X0196940Y0393320D01*
X0195930Y0392300D01*
X0195380Y0390980D01*
X0195380Y0390930D01*
X0182890Y0403410D01*
X0182890Y0404760D01*
X0182350Y0406080D01*
X0181330Y0407100D01*
X0182500Y0405710D02*
X0210660Y0405710D01*
X0210660Y0404120D02*
X0182890Y0404120D01*
X0183770Y0402540D02*
X0210660Y0402540D01*
X0210480Y0400950D02*
X0185360Y0400950D01*
X0186940Y0399370D02*
X0203190Y0399370D01*
X0201650Y0397780D02*
X0188530Y0397780D01*
X0190110Y0396200D02*
X0201280Y0396200D01*
X0200350Y0394610D02*
X0191700Y0394610D01*
X0193280Y0393030D02*
X0196650Y0393030D01*
X0195570Y0391440D02*
X0194870Y0391440D01*
X0192100Y0388270D02*
X0181390Y0388270D01*
X0181390Y0386690D02*
X0193680Y0386690D01*
X0195270Y0385100D02*
X0181390Y0385100D01*
X0181390Y0383520D02*
X0195430Y0383520D01*
X0196320Y0381930D02*
X0181390Y0381930D01*
X0181390Y0380350D02*
X0235460Y0380350D01*
X0233870Y0381930D02*
X0201640Y0381930D01*
X0202530Y0383520D02*
X0232290Y0383520D01*
X0230700Y0385100D02*
X0202570Y0385100D01*
X0201740Y0386690D02*
X0229120Y0386690D01*
X0227530Y0388270D02*
X0202050Y0388270D01*
X0202580Y0389860D02*
X0225950Y0389860D01*
X0224360Y0391440D02*
X0203120Y0391440D01*
X0206700Y0393030D02*
X0222780Y0393030D01*
X0221190Y0394610D02*
X0213650Y0394610D01*
X0211870Y0394610D02*
X0208130Y0394610D01*
X0208480Y0396200D02*
X0209670Y0396200D01*
X0209160Y0397780D02*
X0208110Y0397780D01*
X0209370Y0399370D02*
X0206580Y0399370D01*
X0216150Y0399370D02*
X0216440Y0399370D01*
X0216360Y0397780D02*
X0218020Y0397780D01*
X0219610Y0396200D02*
X0215850Y0396200D01*
X0237950Y0407290D02*
X0240710Y0407290D01*
X0238270Y0408880D02*
X0256510Y0408880D01*
X0256510Y0408480D02*
X0259090Y0405900D01*
X0262730Y0405900D01*
X0265310Y0408480D01*
X0265310Y0412130D01*
X0262730Y0414700D01*
X0259090Y0414700D01*
X0256510Y0412130D01*
X0256510Y0408480D01*
X0257700Y0407290D02*
X0249760Y0407290D01*
X0251400Y0405710D02*
X0276860Y0405710D01*
X0276860Y0407290D02*
X0274120Y0407290D01*
X0275310Y0408480D02*
X0272730Y0405900D01*
X0269090Y0405900D01*
X0266510Y0408480D01*
X0266510Y0412130D01*
X0269090Y0414700D01*
X0272730Y0414700D01*
X0275310Y0412130D01*
X0275310Y0408480D01*
X0275310Y0408880D02*
X0276860Y0408880D01*
X0276860Y0410460D02*
X0275310Y0410460D01*
X0275310Y0412050D02*
X0276860Y0412050D01*
X0276860Y0413630D02*
X0273800Y0413630D01*
X0273630Y0416800D02*
X0276860Y0416800D01*
X0276860Y0415220D02*
X0244610Y0415220D01*
X0243030Y0413630D02*
X0258010Y0413630D01*
X0256510Y0412050D02*
X0241440Y0412050D01*
X0239860Y0410460D02*
X0256510Y0410460D01*
X0257140Y0404120D02*
X0258500Y0404120D01*
X0263310Y0404120D02*
X0268330Y0404120D01*
X0268500Y0404240D02*
X0267910Y0403810D01*
X0267400Y0403300D01*
X0266970Y0402720D01*
X0266640Y0402070D01*
X0266420Y0401380D01*
X0266310Y0400670D01*
X0266310Y0400400D01*
X0270810Y0400400D01*
X0270810Y0400200D01*
X0271010Y0400200D01*
X0271010Y0395700D01*
X0271270Y0395700D01*
X0271980Y0395820D01*
X0272670Y0396040D01*
X0273320Y0396370D01*
X0273900Y0396800D01*
X0274420Y0397310D01*
X0274840Y0397890D01*
X0275170Y0398540D01*
X0275390Y0399230D01*
X0275510Y0399940D01*
X0275510Y0400200D01*
X0271010Y0400200D01*
X0271010Y0400400D01*
X0275510Y0400400D01*
X0275510Y0400670D01*
X0275390Y0401380D01*
X0275170Y0402070D01*
X0274840Y0402720D01*
X0274420Y0403300D01*
X0273900Y0403810D01*
X0273320Y0404240D01*
X0272670Y0404570D01*
X0271980Y0404790D01*
X0271270Y0404900D01*
X0271010Y0404900D01*
X0271010Y0400400D01*
X0270810Y0400400D01*
X0270810Y0404900D01*
X0270550Y0404900D01*
X0269830Y0404790D01*
X0269140Y0404570D01*
X0268500Y0404240D01*
X0270810Y0404120D02*
X0271010Y0404120D01*
X0271010Y0402540D02*
X0270810Y0402540D01*
X0270810Y0400950D02*
X0271010Y0400950D01*
X0270810Y0400200D02*
X0266310Y0400200D01*
X0266310Y0399940D01*
X0266420Y0399230D01*
X0266640Y0398540D01*
X0266970Y0397890D01*
X0267400Y0397310D01*
X0267910Y0396800D01*
X0268500Y0396370D01*
X0269140Y0396040D01*
X0269830Y0395820D01*
X0270550Y0395700D01*
X0270810Y0395700D01*
X0270810Y0400200D01*
X0270810Y0399370D02*
X0271010Y0399370D01*
X0271010Y0397780D02*
X0270810Y0397780D01*
X0270810Y0396200D02*
X0271010Y0396200D01*
X0272970Y0396200D02*
X0276860Y0396200D01*
X0276860Y0397780D02*
X0274760Y0397780D01*
X0275420Y0399370D02*
X0276860Y0399370D01*
X0276860Y0400950D02*
X0275460Y0400950D01*
X0274930Y0402540D02*
X0276860Y0402540D01*
X0276860Y0404120D02*
X0273480Y0404120D01*
X0267700Y0407290D02*
X0264120Y0407290D01*
X0265310Y0408880D02*
X0266510Y0408880D01*
X0266510Y0410460D02*
X0265310Y0410460D01*
X0265310Y0412050D02*
X0266510Y0412050D01*
X0268010Y0413630D02*
X0263800Y0413630D01*
X0263630Y0416800D02*
X0268190Y0416800D01*
X0266600Y0418390D02*
X0265210Y0418390D01*
X0265310Y0419970D02*
X0266510Y0419970D01*
X0266510Y0421560D02*
X0265310Y0421560D01*
X0265500Y0423140D02*
X0264290Y0423140D01*
X0264720Y0427900D02*
X0267090Y0427900D01*
X0266510Y0428480D02*
X0269090Y0425900D01*
X0272730Y0425900D01*
X0275310Y0428480D01*
X0275310Y0432130D01*
X0272730Y0434700D01*
X0269090Y0434700D01*
X0266510Y0432130D01*
X0266510Y0428480D01*
X0266510Y0429480D02*
X0265310Y0429480D01*
X0265310Y0431070D02*
X0266510Y0431070D01*
X0267030Y0432650D02*
X0264780Y0432650D01*
X0263200Y0434240D02*
X0268620Y0434240D01*
X0269090Y0435900D02*
X0272730Y0435900D01*
X0275310Y0438480D01*
X0275310Y0442130D01*
X0272730Y0444700D01*
X0269090Y0444700D01*
X0266510Y0442130D01*
X0266510Y0438480D01*
X0269090Y0435900D01*
X0267580Y0437410D02*
X0264230Y0437410D01*
X0265310Y0438480D02*
X0262730Y0435900D01*
X0259090Y0435900D01*
X0256510Y0438480D01*
X0256510Y0442130D01*
X0259090Y0444700D01*
X0262730Y0444700D01*
X0265310Y0442130D01*
X0265310Y0438480D01*
X0265310Y0438990D02*
X0266510Y0438990D01*
X0266510Y0440580D02*
X0265310Y0440580D01*
X0265270Y0442160D02*
X0266540Y0442160D01*
X0268130Y0443750D02*
X0263690Y0443750D01*
X0262730Y0445900D02*
X0265310Y0448480D01*
X0265310Y0452130D01*
X0262730Y0454700D01*
X0259090Y0454700D01*
X0256510Y0452130D01*
X0256510Y0448480D01*
X0259090Y0445900D01*
X0262730Y0445900D01*
X0263740Y0446920D02*
X0268070Y0446920D01*
X0269090Y0445900D02*
X0266510Y0448480D01*
X0266510Y0452130D01*
X0269090Y0454700D01*
X0272730Y0454700D01*
X0275310Y0452130D01*
X0275310Y0448480D01*
X0272730Y0445900D01*
X0269090Y0445900D01*
X0273740Y0446920D02*
X0276860Y0446920D01*
X0276860Y0448500D02*
X0275310Y0448500D01*
X0275310Y0450090D02*
X0276860Y0450090D01*
X0276860Y0451670D02*
X0275310Y0451670D01*
X0274180Y0453260D02*
X0276860Y0453260D01*
X0276860Y0454840D02*
X0225960Y0454840D01*
X0227540Y0453260D02*
X0257640Y0453260D01*
X0256510Y0451670D02*
X0229130Y0451670D01*
X0230710Y0450090D02*
X0235990Y0450090D01*
X0234930Y0448500D02*
X0232300Y0448500D01*
X0233880Y0446920D02*
X0234750Y0446920D01*
X0240710Y0450090D02*
X0256510Y0450090D01*
X0256510Y0448500D02*
X0241770Y0448500D01*
X0241950Y0446920D02*
X0258070Y0446920D01*
X0258130Y0443750D02*
X0240990Y0443750D01*
X0241410Y0445330D02*
X0276860Y0445330D01*
X0276860Y0443750D02*
X0273690Y0443750D01*
X0275270Y0442160D02*
X0276860Y0442160D01*
X0276860Y0440580D02*
X0275310Y0440580D01*
X0275310Y0438990D02*
X0276860Y0438990D01*
X0276860Y0437410D02*
X0274230Y0437410D01*
X0276860Y0435820D02*
X0248910Y0435820D01*
X0247330Y0437410D02*
X0257580Y0437410D01*
X0256510Y0438990D02*
X0245740Y0438990D01*
X0244160Y0440580D02*
X0256510Y0440580D01*
X0256540Y0442160D02*
X0242570Y0442160D01*
X0237450Y0437410D02*
X0233490Y0437410D01*
X0234070Y0438990D02*
X0235870Y0438990D01*
X0234280Y0440580D02*
X0233920Y0440580D01*
X0229790Y0435820D02*
X0239040Y0435820D01*
X0240620Y0434240D02*
X0228200Y0434240D01*
X0226620Y0432650D02*
X0242210Y0432650D01*
X0243790Y0431070D02*
X0225030Y0431070D01*
X0223450Y0429480D02*
X0245380Y0429480D01*
X0246960Y0427900D02*
X0221860Y0427900D01*
X0220680Y0432650D02*
X0199090Y0432650D01*
X0194930Y0432650D02*
X0110480Y0432650D01*
X0112060Y0434240D02*
X0222260Y0434240D01*
X0223850Y0435820D02*
X0113650Y0435820D01*
X0115230Y0437410D02*
X0225430Y0437410D01*
X0248550Y0426310D02*
X0198390Y0426310D01*
X0195630Y0426310D02*
X0105870Y0426310D01*
X0107670Y0427900D02*
X0193830Y0427900D01*
X0193410Y0429480D02*
X0108090Y0429480D01*
X0108890Y0431070D02*
X0193710Y0431070D01*
X0177720Y0407290D02*
X0120550Y0407290D01*
X0118960Y0405710D02*
X0176080Y0405710D01*
X0175690Y0404120D02*
X0117380Y0404120D01*
X0115790Y0402540D02*
X0176020Y0402540D01*
X0177010Y0400950D02*
X0114210Y0400950D01*
X0112640Y0399370D02*
X0112620Y0399370D01*
X0111100Y0397780D02*
X0111040Y0397780D01*
X0110730Y0396200D02*
X0109450Y0396200D01*
X0107870Y0394610D02*
X0111080Y0394610D01*
X0112230Y0393030D02*
X0106280Y0393030D01*
X0104700Y0391440D02*
X0112230Y0391440D01*
X0112230Y0389860D02*
X0103110Y0389860D01*
X0101530Y0388270D02*
X0112230Y0388270D01*
X0112230Y0386690D02*
X0099940Y0386690D01*
X0098360Y0385100D02*
X0112590Y0385100D01*
X0114180Y0383520D02*
X0096770Y0383520D01*
X0095190Y0381930D02*
X0115760Y0381930D01*
X0117350Y0380350D02*
X0093600Y0380350D01*
X0092020Y0378760D02*
X0118930Y0378760D01*
X0120110Y0377180D02*
X0090430Y0377180D01*
X0089200Y0375590D02*
X0120110Y0375590D01*
X0120110Y0374010D02*
X0088740Y0374010D01*
X0087150Y0372420D02*
X0119070Y0372420D01*
X0118610Y0370840D02*
X0066650Y0370840D01*
X0067080Y0370400D02*
X0065910Y0371580D01*
X0064380Y0372210D01*
X0062710Y0372210D01*
X0061180Y0371580D01*
X0060010Y0370400D01*
X0059370Y0368870D01*
X0059370Y0362060D01*
X0060010Y0360520D01*
X0061180Y0359350D01*
X0062710Y0358710D01*
X0064380Y0358710D01*
X0065910Y0359350D01*
X0067080Y0360520D01*
X0067720Y0362060D01*
X0067720Y0368870D01*
X0067080Y0370400D01*
X0067560Y0369250D02*
X0118860Y0369250D01*
X0120030Y0367670D02*
X0067720Y0367670D01*
X0067720Y0366080D02*
X0165920Y0366080D01*
X0167500Y0367670D02*
X0124380Y0367670D01*
X0125550Y0369250D02*
X0162100Y0369250D01*
X0160360Y0370840D02*
X0125810Y0370840D01*
X0125340Y0372420D02*
X0159950Y0372420D01*
X0159120Y0374010D02*
X0124310Y0374010D01*
X0124310Y0375590D02*
X0157530Y0375590D01*
X0155950Y0377180D02*
X0124310Y0377180D01*
X0124310Y0378760D02*
X0154360Y0378760D01*
X0152780Y0380350D02*
X0123290Y0380350D01*
X0124870Y0381930D02*
X0151190Y0381930D01*
X0153960Y0385100D02*
X0154050Y0385100D01*
X0154870Y0386690D02*
X0124970Y0386690D01*
X0119440Y0386690D02*
X0116950Y0386690D01*
X0116430Y0388270D02*
X0160480Y0388270D01*
X0160410Y0386690D02*
X0161450Y0386690D01*
X0159950Y0389860D02*
X0116430Y0389860D01*
X0116430Y0391440D02*
X0160140Y0391440D01*
X0161210Y0393030D02*
X0116430Y0393030D01*
X0117580Y0394610D02*
X0177190Y0394610D01*
X0177190Y0393030D02*
X0165880Y0393030D01*
X0166960Y0391440D02*
X0177190Y0391440D01*
X0177190Y0389860D02*
X0167150Y0389860D01*
X0166620Y0388270D02*
X0177190Y0388270D01*
X0177190Y0386690D02*
X0172220Y0386690D01*
X0173040Y0385100D02*
X0177190Y0385100D01*
X0177190Y0383520D02*
X0173000Y0383520D01*
X0172110Y0381930D02*
X0177190Y0381930D01*
X0177190Y0380350D02*
X0158720Y0380350D01*
X0160300Y0381930D02*
X0166790Y0381930D01*
X0166690Y0386690D02*
X0165650Y0386690D01*
X0160300Y0378760D02*
X0176480Y0378760D01*
X0175690Y0377180D02*
X0161890Y0377180D01*
X0165600Y0375590D02*
X0175430Y0375590D01*
X0173840Y0374010D02*
X0166840Y0374010D01*
X0167150Y0372420D02*
X0172260Y0372420D01*
X0170670Y0370840D02*
X0166730Y0370840D01*
X0164990Y0369250D02*
X0169090Y0369250D01*
X0173440Y0367670D02*
X0233810Y0367670D01*
X0233540Y0368320D02*
X0233540Y0370160D01*
X0234240Y0371850D01*
X0235540Y0373150D01*
X0237230Y0373850D01*
X0239070Y0373850D01*
X0240760Y0373150D01*
X0242060Y0371850D01*
X0242760Y0370160D01*
X0242760Y0368320D01*
X0242060Y0366630D01*
X0240760Y0365330D01*
X0239070Y0364630D01*
X0237230Y0364630D01*
X0235540Y0365330D01*
X0234240Y0366630D01*
X0233540Y0368320D01*
X0233540Y0369250D02*
X0175030Y0369250D01*
X0176610Y0370840D02*
X0233820Y0370840D01*
X0234810Y0372420D02*
X0178200Y0372420D01*
X0181900Y0374010D02*
X0239670Y0374010D01*
X0238760Y0375590D02*
X0182820Y0375590D01*
X0182890Y0377180D02*
X0238630Y0377180D01*
X0237040Y0378760D02*
X0182110Y0378760D01*
X0181390Y0389860D02*
X0190510Y0389860D01*
X0188930Y0391440D02*
X0181390Y0391440D01*
X0181390Y0393030D02*
X0187340Y0393030D01*
X0185760Y0394610D02*
X0181390Y0394610D01*
X0182380Y0396200D02*
X0184170Y0396200D01*
X0176200Y0396200D02*
X0117930Y0396200D01*
X0117560Y0397780D02*
X0175690Y0397780D01*
X0175900Y0399370D02*
X0116030Y0399370D01*
X0111440Y0404120D02*
X0088850Y0404120D01*
X0089200Y0404470D02*
X0086740Y0402010D01*
X0083260Y0402010D01*
X0080800Y0404470D01*
X0080800Y0407950D01*
X0083260Y0410410D01*
X0086740Y0410410D01*
X0089200Y0407950D01*
X0089200Y0404470D01*
X0089200Y0405710D02*
X0113020Y0405710D01*
X0114610Y0407290D02*
X0089200Y0407290D01*
X0088280Y0408880D02*
X0116190Y0408880D01*
X0117780Y0410460D02*
X0072540Y0410460D01*
X0073260Y0410410D02*
X0070800Y0407950D01*
X0070800Y0404470D01*
X0073260Y0402010D01*
X0076740Y0402010D01*
X0079200Y0404470D01*
X0079200Y0407950D01*
X0076740Y0410410D01*
X0073260Y0410410D01*
X0074120Y0412050D02*
X0119360Y0412050D01*
X0120950Y0413630D02*
X0075710Y0413630D01*
X0078280Y0408880D02*
X0081730Y0408880D01*
X0080800Y0407290D02*
X0079200Y0407290D01*
X0079200Y0405710D02*
X0080800Y0405710D01*
X0081150Y0404120D02*
X0078850Y0404120D01*
X0077270Y0402540D02*
X0082740Y0402540D01*
X0087270Y0402540D02*
X0109850Y0402540D01*
X0108270Y0400950D02*
X0065250Y0400950D01*
X0065250Y0399370D02*
X0106680Y0399370D01*
X0105100Y0397780D02*
X0065250Y0397780D01*
X0065250Y0396200D02*
X0103510Y0396200D01*
X0101930Y0394610D02*
X0065250Y0394610D01*
X0065250Y0393030D02*
X0100340Y0393030D01*
X0098760Y0391440D02*
X0065250Y0391440D01*
X0066530Y0389860D02*
X0097170Y0389860D01*
X0095590Y0388270D02*
X0068120Y0388270D01*
X0069700Y0386690D02*
X0094000Y0386690D01*
X0092420Y0385100D02*
X0071290Y0385100D01*
X0072870Y0383520D02*
X0090830Y0383520D01*
X0089250Y0381930D02*
X0074460Y0381930D01*
X0076810Y0380350D02*
X0083200Y0380350D01*
X0081610Y0378760D02*
X0078390Y0378760D01*
X0079200Y0377180D02*
X0080800Y0377180D01*
X0080800Y0375590D02*
X0079200Y0375590D01*
X0078740Y0374010D02*
X0081270Y0374010D01*
X0082850Y0372420D02*
X0077150Y0372420D01*
X0072850Y0372420D02*
X0014800Y0372420D01*
X0014800Y0370840D02*
X0060440Y0370840D01*
X0059530Y0369250D02*
X0014800Y0369250D01*
X0014800Y0367670D02*
X0059370Y0367670D01*
X0059370Y0366080D02*
X0038930Y0366080D01*
X0039340Y0365660D02*
X0038170Y0366840D01*
X0036640Y0367470D01*
X0029830Y0367470D01*
X0028290Y0366840D01*
X0027120Y0365660D01*
X0026480Y0364130D01*
X0026480Y0362470D01*
X0027120Y0360930D01*
X0028290Y0359760D01*
X0029830Y0359120D01*
X0036640Y0359120D01*
X0038170Y0359760D01*
X0039340Y0360930D01*
X0039980Y0362470D01*
X0039980Y0364130D01*
X0039340Y0365660D01*
X0039830Y0364500D02*
X0059370Y0364500D01*
X0059370Y0362910D02*
X0039980Y0362910D01*
X0039510Y0361330D02*
X0059670Y0361330D01*
X0060790Y0359740D02*
X0038130Y0359740D01*
X0031920Y0354990D02*
X0120580Y0354990D01*
X0120580Y0355550D02*
X0120580Y0354200D01*
X0115430Y0349060D01*
X0111420Y0349060D01*
X0110470Y0350010D01*
X0109140Y0350560D01*
X0107710Y0350560D01*
X0106390Y0350010D01*
X0105380Y0349000D01*
X0104830Y0347670D01*
X0104830Y0346240D01*
X0105380Y0344920D01*
X0106390Y0343910D01*
X0107710Y0343360D01*
X0109140Y0343360D01*
X0110470Y0343910D01*
X0111420Y0344860D01*
X0117170Y0344860D01*
X0118400Y0346090D01*
X0123550Y0351230D01*
X0124890Y0351230D01*
X0126210Y0351780D01*
X0127230Y0352790D01*
X0127780Y0354120D01*
X0127780Y0355550D01*
X0127230Y0356870D01*
X0126210Y0357880D01*
X0124890Y0358430D01*
X0123460Y0358430D01*
X0122140Y0357880D01*
X0121120Y0356870D01*
X0120580Y0355550D01*
X0121000Y0356570D02*
X0029220Y0356570D01*
X0033510Y0353400D02*
X0119770Y0353400D01*
X0118190Y0351820D02*
X0034580Y0351820D01*
X0035420Y0350230D02*
X0106920Y0350230D01*
X0105230Y0348650D02*
X0035840Y0348650D01*
X0036100Y0347060D02*
X0104830Y0347060D01*
X0105140Y0345480D02*
X0036100Y0345480D01*
X0035870Y0343890D02*
X0106430Y0343890D01*
X0110430Y0343890D02*
X0259130Y0343890D01*
X0258900Y0345480D02*
X0117790Y0345480D01*
X0119370Y0347060D02*
X0258900Y0347060D01*
X0259160Y0348650D02*
X0120960Y0348650D01*
X0122540Y0350230D02*
X0153210Y0350230D01*
X0152210Y0351820D02*
X0126250Y0351820D01*
X0127480Y0353400D02*
X0152070Y0353400D01*
X0152700Y0354990D02*
X0127780Y0354990D01*
X0127350Y0356570D02*
X0156410Y0356570D01*
X0157990Y0358160D02*
X0125560Y0358160D01*
X0122790Y0358160D02*
X0014800Y0358160D01*
X0014800Y0359740D02*
X0028330Y0359740D01*
X0026950Y0361330D02*
X0014800Y0361330D01*
X0014800Y0362910D02*
X0026480Y0362910D01*
X0026630Y0364500D02*
X0014800Y0364500D01*
X0014800Y0366080D02*
X0027540Y0366080D01*
X0022530Y0374890D02*
X0021920Y0374580D01*
X0021260Y0374370D01*
X0020580Y0374260D01*
X0020240Y0374260D01*
X0020240Y0381210D01*
X0024610Y0381210D01*
X0024610Y0384130D01*
X0024510Y0384810D01*
X0024290Y0385460D01*
X0023980Y0386080D01*
X0023580Y0386630D01*
X0023090Y0387120D01*
X0022530Y0387530D01*
X0021920Y0387840D01*
X0021260Y0388050D01*
X0020580Y0388160D01*
X0020240Y0388160D01*
X0020240Y0381210D01*
X0020240Y0381210D01*
X0024610Y0381210D01*
X0024610Y0378290D01*
X0024510Y0377610D01*
X0024290Y0376960D01*
X0023980Y0376340D01*
X0023580Y0375790D01*
X0023090Y0375300D01*
X0022530Y0374890D01*
X0023380Y0375590D02*
X0070800Y0375590D01*
X0070800Y0377180D02*
X0024360Y0377180D01*
X0024610Y0378760D02*
X0071610Y0378760D01*
X0070100Y0380350D02*
X0024610Y0380350D01*
X0024610Y0381930D02*
X0068520Y0381930D01*
X0066930Y0383520D02*
X0024610Y0383520D01*
X0024410Y0385100D02*
X0065350Y0385100D01*
X0063760Y0386690D02*
X0023520Y0386690D01*
X0020240Y0386690D02*
X0020240Y0386690D01*
X0020240Y0388160D02*
X0019890Y0388160D01*
X0019210Y0388050D01*
X0018560Y0387840D01*
X0017950Y0387530D01*
X0017390Y0387120D01*
X0016900Y0386630D01*
X0016500Y0386080D01*
X0016180Y0385460D01*
X0015970Y0384810D01*
X0015860Y0384130D01*
X0015860Y0381210D01*
X0020240Y0381210D01*
X0020240Y0381210D01*
X0020240Y0381210D01*
X0020240Y0388160D01*
X0016950Y0386690D02*
X0014800Y0386690D01*
X0014800Y0388270D02*
X0040330Y0388270D01*
X0040500Y0388100D02*
X0042030Y0387470D01*
X0048840Y0387470D01*
X0050370Y0388100D01*
X0051550Y0389280D01*
X0052180Y0390810D01*
X0052180Y0392470D01*
X0051550Y0394010D01*
X0050370Y0395180D01*
X0048840Y0395820D01*
X0042030Y0395820D01*
X0040500Y0395180D01*
X0039320Y0394010D01*
X0038690Y0392470D01*
X0038690Y0390810D01*
X0039320Y0389280D01*
X0040500Y0388100D01*
X0039080Y0389860D02*
X0014800Y0389860D01*
X0014800Y0391440D02*
X0038690Y0391440D01*
X0038910Y0393030D02*
X0014800Y0393030D01*
X0014800Y0394610D02*
X0039920Y0394610D01*
X0044830Y0398730D02*
X0046010Y0397550D01*
X0047540Y0396920D01*
X0054350Y0396920D01*
X0055890Y0397550D01*
X0057060Y0398730D01*
X0057700Y0400260D01*
X0057700Y0401920D01*
X0057060Y0403460D01*
X0055890Y0404630D01*
X0054350Y0405270D01*
X0047540Y0405270D01*
X0046010Y0404630D01*
X0044830Y0403460D01*
X0044200Y0401920D01*
X0044200Y0400260D01*
X0044830Y0398730D01*
X0044570Y0399370D02*
X0014800Y0399370D01*
X0014800Y0400950D02*
X0044200Y0400950D01*
X0044450Y0402540D02*
X0014800Y0402540D01*
X0014800Y0404120D02*
X0045500Y0404120D01*
X0045780Y0397780D02*
X0014800Y0397780D01*
X0014800Y0396200D02*
X0061050Y0396200D01*
X0061050Y0397780D02*
X0056110Y0397780D01*
X0057330Y0399370D02*
X0061050Y0399370D01*
X0061050Y0400950D02*
X0057700Y0400950D01*
X0057440Y0402540D02*
X0061050Y0402540D01*
X0061050Y0404120D02*
X0056400Y0404120D01*
X0061050Y0405710D02*
X0014800Y0405710D01*
X0014800Y0407290D02*
X0061050Y0407290D01*
X0061050Y0408880D02*
X0014800Y0408880D01*
X0014800Y0410460D02*
X0061050Y0410460D01*
X0061050Y0412050D02*
X0014800Y0412050D01*
X0014800Y0413630D02*
X0061050Y0413630D01*
X0050800Y0416800D02*
X0046620Y0416800D01*
X0046620Y0418390D02*
X0049620Y0418390D01*
X0049210Y0419970D02*
X0046620Y0419970D01*
X0046620Y0421560D02*
X0049350Y0421560D01*
X0046840Y0423140D02*
X0046620Y0423140D01*
X0045880Y0424730D02*
X0045880Y0424730D01*
X0044210Y0427900D02*
X0043870Y0427900D01*
X0056140Y0427900D02*
X0061050Y0427900D01*
X0061050Y0429480D02*
X0057850Y0429480D01*
X0058530Y0431070D02*
X0061050Y0431070D01*
X0061050Y0432650D02*
X0058610Y0432650D01*
X0058140Y0434240D02*
X0061050Y0434240D01*
X0061050Y0435820D02*
X0056910Y0435820D01*
X0065250Y0446920D02*
X0080150Y0446920D01*
X0079280Y0448500D02*
X0065250Y0448500D01*
X0065250Y0450090D02*
X0079100Y0450090D01*
X0077520Y0451670D02*
X0065250Y0451670D01*
X0065250Y0453260D02*
X0075930Y0453260D01*
X0074350Y0454840D02*
X0065250Y0454840D01*
X0065510Y0456430D02*
X0072760Y0456430D01*
X0071180Y0458010D02*
X0066570Y0458010D01*
X0066750Y0459600D02*
X0068110Y0459600D01*
X0051730Y0461180D02*
X0046170Y0461180D01*
X0046620Y0461630D02*
X0046620Y0468980D01*
X0045680Y0469920D01*
X0038340Y0469920D01*
X0037400Y0468980D01*
X0037400Y0461630D01*
X0038340Y0460690D01*
X0045680Y0460690D01*
X0046620Y0461630D01*
X0046620Y0462770D02*
X0049880Y0462770D01*
X0049220Y0464350D02*
X0046620Y0464350D01*
X0046620Y0465940D02*
X0049210Y0465940D01*
X0049750Y0467520D02*
X0046620Y0467520D01*
X0046500Y0469110D02*
X0051100Y0469110D01*
X0051970Y0472660D02*
X0052690Y0472420D01*
X0053440Y0472300D01*
X0053620Y0472300D01*
X0053620Y0476910D01*
X0054020Y0476910D01*
X0054020Y0472300D01*
X0054200Y0472300D01*
X0054950Y0472420D01*
X0055670Y0472660D01*
X0056340Y0473000D01*
X0056960Y0473450D01*
X0057490Y0473980D01*
X0057940Y0474590D01*
X0058280Y0475270D01*
X0058510Y0475990D01*
X0058630Y0476740D01*
X0058630Y0476910D01*
X0054030Y0476910D01*
X0054030Y0477320D01*
X0058630Y0477320D01*
X0058630Y0477490D01*
X0058510Y0478240D01*
X0058280Y0478960D01*
X0057940Y0479640D01*
X0057490Y0480250D01*
X0056960Y0480790D01*
X0056340Y0481230D01*
X0055670Y0481570D01*
X0054950Y0481810D01*
X0054200Y0481930D01*
X0054020Y0481930D01*
X0054020Y0477320D01*
X0053620Y0477320D01*
X0053620Y0481930D01*
X0053440Y0481930D01*
X0052690Y0481810D01*
X0051970Y0481570D01*
X0051300Y0481230D01*
X0050690Y0480790D01*
X0050150Y0480250D01*
X0049710Y0479640D01*
X0049360Y0478960D01*
X0049130Y0478240D01*
X0049010Y0477490D01*
X0049010Y0477320D01*
X0053620Y0477320D01*
X0053620Y0476910D01*
X0049010Y0476910D01*
X0049010Y0476740D01*
X0049130Y0475990D01*
X0049360Y0475270D01*
X0049710Y0474590D01*
X0050150Y0473980D01*
X0050690Y0473450D01*
X0051300Y0473000D01*
X0051970Y0472660D01*
X0053620Y0473860D02*
X0054020Y0473860D01*
X0054020Y0475450D02*
X0053620Y0475450D01*
X0053620Y0477030D02*
X0046620Y0477030D01*
X0046620Y0476200D02*
X0046620Y0478030D01*
X0045920Y0479730D01*
X0044620Y0481030D01*
X0042930Y0481730D01*
X0041090Y0481730D01*
X0039400Y0481030D01*
X0038100Y0479730D01*
X0037400Y0478030D01*
X0037400Y0476200D01*
X0038100Y0474500D01*
X0039400Y0473210D01*
X0041090Y0472500D01*
X0042930Y0472500D01*
X0044620Y0473210D01*
X0045920Y0474500D01*
X0046620Y0476200D01*
X0046310Y0475450D02*
X0049300Y0475450D01*
X0050270Y0473860D02*
X0045280Y0473860D01*
X0038740Y0473860D02*
X0035380Y0473860D01*
X0035710Y0472280D02*
X0256660Y0472280D01*
X0256510Y0472130D02*
X0256510Y0468480D01*
X0259090Y0465900D01*
X0262730Y0465900D01*
X0265310Y0468480D01*
X0265310Y0472130D01*
X0262730Y0474700D01*
X0259090Y0474700D01*
X0256510Y0472130D01*
X0256510Y0470690D02*
X0035710Y0470690D01*
X0035520Y0469110D02*
X0037520Y0469110D01*
X0037400Y0467520D02*
X0035100Y0467520D01*
X0034320Y0465940D02*
X0037400Y0465940D01*
X0037400Y0464350D02*
X0033280Y0464350D01*
X0031700Y0462770D02*
X0037400Y0462770D01*
X0037850Y0461180D02*
X0028930Y0461180D01*
X0021070Y0461180D02*
X0014800Y0461180D01*
X0014800Y0462770D02*
X0018310Y0462770D01*
X0016720Y0464350D02*
X0014800Y0464350D01*
X0014800Y0465940D02*
X0015690Y0465940D01*
X0014910Y0467520D02*
X0014800Y0467520D01*
X0014800Y0475450D02*
X0015090Y0475450D01*
X0014800Y0477030D02*
X0016000Y0477030D01*
X0014800Y0478620D02*
X0017270Y0478620D01*
X0019160Y0480200D02*
X0014800Y0480200D01*
X0014800Y0481790D02*
X0023110Y0481790D01*
X0026900Y0481790D02*
X0052620Y0481790D01*
X0053620Y0481790D02*
X0054020Y0481790D01*
X0055020Y0481790D02*
X0110240Y0481790D01*
X0110330Y0481700D02*
X0111650Y0481150D01*
X0113080Y0481150D01*
X0114400Y0481700D01*
X0115360Y0482650D01*
X0123080Y0482650D01*
X0124310Y0483880D01*
X0127480Y0487060D01*
X0128830Y0487060D01*
X0130150Y0487610D01*
X0131160Y0488620D01*
X0131710Y0489940D01*
X0131710Y0491370D01*
X0131160Y0492700D01*
X0130150Y0493710D01*
X0128830Y0494260D01*
X0127400Y0494260D01*
X0126070Y0493710D01*
X0125060Y0492700D01*
X0124510Y0491370D01*
X0124510Y0490030D01*
X0121340Y0486850D01*
X0115360Y0486850D01*
X0114400Y0487810D01*
X0113080Y0488350D01*
X0111650Y0488350D01*
X0110330Y0487810D01*
X0109310Y0486790D01*
X0108760Y0485470D01*
X0108760Y0484040D01*
X0109310Y0482710D01*
X0110330Y0481700D01*
X0109040Y0483370D02*
X0014800Y0483370D01*
X0014800Y0484960D02*
X0108760Y0484960D01*
X0109210Y0486540D02*
X0014800Y0486540D01*
X0014800Y0488130D02*
X0111100Y0488130D01*
X0113630Y0488130D02*
X0122610Y0488130D01*
X0124190Y0489710D02*
X0014800Y0489710D01*
X0014800Y0491300D02*
X0124510Y0491300D01*
X0125240Y0492880D02*
X0014800Y0492880D01*
X0014800Y0494470D02*
X0115280Y0494470D01*
X0115220Y0494530D02*
X0116230Y0493510D01*
X0117550Y0492960D01*
X0118990Y0492960D01*
X0120310Y0493510D01*
X0121320Y0494530D01*
X0121870Y0495850D01*
X0121870Y0497190D01*
X0125510Y0500840D01*
X0126860Y0500840D01*
X0128180Y0501390D01*
X0129200Y0502400D01*
X0129740Y0503720D01*
X0129740Y0505150D01*
X0129200Y0506480D01*
X0128180Y0507490D01*
X0126860Y0508040D01*
X0125430Y0508040D01*
X0124100Y0507490D01*
X0123090Y0506480D01*
X0122540Y0505150D01*
X0122540Y0503810D01*
X0118900Y0500160D01*
X0117550Y0500160D01*
X0116230Y0499620D01*
X0115220Y0498600D01*
X0114670Y0497280D01*
X0114670Y0495850D01*
X0115220Y0494530D01*
X0114670Y0496050D02*
X0014800Y0496050D01*
X0014800Y0497640D02*
X0114820Y0497640D01*
X0115830Y0499220D02*
X0014800Y0499220D01*
X0014800Y0500810D02*
X0119540Y0500810D01*
X0121130Y0502390D02*
X0014800Y0502390D01*
X0014800Y0503980D02*
X0122540Y0503980D01*
X0122710Y0505560D02*
X0045510Y0505560D01*
X0045720Y0505620D02*
X0046130Y0505850D01*
X0046460Y0506190D01*
X0046700Y0506600D01*
X0046820Y0507060D01*
X0046820Y0510100D01*
X0042210Y0510100D01*
X0042210Y0505490D01*
X0045260Y0505490D01*
X0045720Y0505620D01*
X0046820Y0507150D02*
X0050460Y0507150D01*
X0049910Y0507690D02*
X0049210Y0509390D01*
X0049210Y0511220D01*
X0049910Y0512920D01*
X0051210Y0514210D01*
X0052900Y0514920D01*
X0054740Y0514920D01*
X0056430Y0514210D01*
X0057730Y0512920D01*
X0058430Y0511220D01*
X0058430Y0509390D01*
X0057730Y0507690D01*
X0056430Y0506390D01*
X0054740Y0505690D01*
X0052900Y0505690D01*
X0051210Y0506390D01*
X0049910Y0507690D01*
X0049480Y0508730D02*
X0046820Y0508730D01*
X0046820Y0510510D02*
X0042210Y0510510D01*
X0041810Y0510510D01*
X0041810Y0515120D01*
X0038760Y0515120D01*
X0038300Y0514990D01*
X0037890Y0514760D01*
X0037560Y0514420D01*
X0037320Y0514010D01*
X0037200Y0513550D01*
X0037200Y0510510D01*
X0041810Y0510510D01*
X0041810Y0510100D01*
X0042210Y0510100D01*
X0042210Y0510510D01*
X0042210Y0515120D01*
X0045260Y0515120D01*
X0045720Y0514990D01*
X0046130Y0514760D01*
X0046460Y0514420D01*
X0046700Y0514010D01*
X0046820Y0513550D01*
X0046820Y0510510D01*
X0046820Y0511900D02*
X0049490Y0511900D01*
X0049210Y0510320D02*
X0042210Y0510320D01*
X0041810Y0510320D02*
X0033960Y0510320D01*
X0034880Y0511900D02*
X0037200Y0511900D01*
X0037200Y0513490D02*
X0035360Y0513490D01*
X0035710Y0515070D02*
X0038590Y0515070D01*
X0041810Y0515070D02*
X0042210Y0515070D01*
X0042210Y0513490D02*
X0041810Y0513490D01*
X0041810Y0511900D02*
X0042210Y0511900D01*
X0041810Y0510100D02*
X0037200Y0510100D01*
X0037200Y0507060D01*
X0037320Y0506600D01*
X0037560Y0506190D01*
X0037890Y0505850D01*
X0038300Y0505620D01*
X0038760Y0505490D01*
X0041810Y0505490D01*
X0041810Y0510100D01*
X0041810Y0508730D02*
X0042210Y0508730D01*
X0042210Y0507150D02*
X0041810Y0507150D01*
X0041810Y0505560D02*
X0042210Y0505560D01*
X0038510Y0505560D02*
X0026620Y0505560D01*
X0023380Y0505560D02*
X0014800Y0505560D01*
X0014800Y0507150D02*
X0019290Y0507150D01*
X0017340Y0508730D02*
X0014800Y0508730D01*
X0014800Y0510320D02*
X0016040Y0510320D01*
X0015130Y0511900D02*
X0014800Y0511900D01*
X0014800Y0519830D02*
X0014890Y0519830D01*
X0014800Y0521410D02*
X0015640Y0521410D01*
X0014800Y0523000D02*
X0016650Y0523000D01*
X0018230Y0524580D02*
X0014800Y0524580D01*
X0014800Y0526170D02*
X0020830Y0526170D01*
X0014800Y0527750D02*
X0276860Y0527750D01*
X0276860Y0526170D02*
X0056100Y0526170D01*
X0056430Y0526030D02*
X0054740Y0526730D01*
X0052900Y0526730D01*
X0051210Y0526030D01*
X0049910Y0524730D01*
X0049210Y0523030D01*
X0049210Y0521200D01*
X0049910Y0519500D01*
X0051210Y0518210D01*
X0052900Y0517500D01*
X0054740Y0517500D01*
X0056430Y0518210D01*
X0057730Y0519500D01*
X0058430Y0521200D01*
X0058430Y0523030D01*
X0057730Y0524730D01*
X0056430Y0526030D01*
X0057790Y0524580D02*
X0276860Y0524580D01*
X0276860Y0523000D02*
X0058430Y0523000D01*
X0058430Y0521410D02*
X0261710Y0521410D01*
X0260870Y0521190D02*
X0258430Y0519780D01*
X0256440Y0517780D01*
X0255030Y0515340D01*
X0254300Y0512620D01*
X0254300Y0509800D01*
X0255030Y0507080D01*
X0256440Y0504640D01*
X0258430Y0502640D01*
X0260870Y0501230D01*
X0263590Y0500500D01*
X0266410Y0500500D01*
X0269130Y0501230D01*
X0271580Y0502640D01*
X0273570Y0504640D01*
X0274980Y0507080D01*
X0275710Y0509800D01*
X0275710Y0512620D01*
X0274980Y0515340D01*
X0273570Y0517780D01*
X0271580Y0519780D01*
X0269130Y0521190D01*
X0266410Y0521920D01*
X0263590Y0521920D01*
X0260870Y0521190D01*
X0258510Y0519830D02*
X0057860Y0519830D01*
X0056470Y0518240D02*
X0256890Y0518240D01*
X0255780Y0516660D02*
X0035710Y0516660D01*
X0035540Y0518240D02*
X0039360Y0518240D01*
X0039400Y0518210D02*
X0038100Y0519500D01*
X0037400Y0521200D01*
X0037400Y0523030D01*
X0038100Y0524730D01*
X0039400Y0526030D01*
X0041090Y0526730D01*
X0042930Y0526730D01*
X0044620Y0526030D01*
X0045920Y0524730D01*
X0046620Y0523030D01*
X0046620Y0521200D01*
X0045920Y0519500D01*
X0044620Y0518210D01*
X0042930Y0517500D01*
X0041090Y0517500D01*
X0039400Y0518210D01*
X0037970Y0519830D02*
X0035120Y0519830D01*
X0034360Y0521410D02*
X0037400Y0521410D01*
X0037400Y0523000D02*
X0033360Y0523000D01*
X0031770Y0524580D02*
X0038040Y0524580D01*
X0039740Y0526170D02*
X0029170Y0526170D01*
X0014800Y0529340D02*
X0276860Y0529340D01*
X0276860Y0530920D02*
X0014800Y0530920D01*
X0014800Y0532510D02*
X0276860Y0532510D01*
X0276860Y0534090D02*
X0014800Y0534090D01*
X0014800Y0535680D02*
X0276860Y0535680D01*
X0276860Y0537260D02*
X0014800Y0537260D01*
X0014800Y0538850D02*
X0276860Y0538850D01*
X0276860Y0540430D02*
X0267660Y0540430D01*
X0262350Y0540430D02*
X0027660Y0540430D01*
X0031270Y0542020D02*
X0258730Y0542020D01*
X0256920Y0543600D02*
X0107400Y0543600D01*
X0108090Y0545190D02*
X0255660Y0545190D01*
X0254750Y0546770D02*
X0107980Y0546770D01*
X0107000Y0548360D02*
X0254280Y0548360D01*
X0253900Y0549940D02*
X0101330Y0549940D01*
X0099740Y0551530D02*
X0253900Y0551530D01*
X0254020Y0553110D02*
X0098250Y0553110D01*
X0098110Y0554700D02*
X0254450Y0554700D01*
X0255110Y0556280D02*
X0097110Y0556280D01*
X0092190Y0556280D02*
X0034890Y0556280D01*
X0035560Y0554700D02*
X0061560Y0554700D01*
X0062230Y0555360D02*
X0060850Y0553990D01*
X0060100Y0552180D01*
X0060100Y0550240D01*
X0060850Y0548430D01*
X0062230Y0547060D01*
X0064030Y0546310D01*
X0065980Y0546310D01*
X0067780Y0547060D01*
X0069160Y0548430D01*
X0069900Y0550240D01*
X0069900Y0552180D01*
X0069160Y0553990D01*
X0067780Y0555360D01*
X0065980Y0556110D01*
X0064030Y0556110D01*
X0062230Y0555360D01*
X0060490Y0553110D02*
X0035980Y0553110D01*
X0036100Y0551530D02*
X0060100Y0551530D01*
X0060220Y0549940D02*
X0036100Y0549940D01*
X0035730Y0548360D02*
X0060930Y0548360D01*
X0062920Y0546770D02*
X0035260Y0546770D01*
X0034340Y0545190D02*
X0100140Y0545190D01*
X0101580Y0543600D02*
X0033090Y0543600D01*
X0022350Y0540430D02*
X0014800Y0540430D01*
X0014800Y0542020D02*
X0018730Y0542020D01*
X0016920Y0543600D02*
X0014800Y0543600D01*
X0014800Y0545190D02*
X0015660Y0545190D01*
X0044280Y0526170D02*
X0051550Y0526170D01*
X0049850Y0524580D02*
X0045980Y0524580D01*
X0046620Y0523000D02*
X0049210Y0523000D01*
X0049210Y0521410D02*
X0046620Y0521410D01*
X0046050Y0519830D02*
X0049780Y0519830D01*
X0051170Y0518240D02*
X0044660Y0518240D01*
X0045430Y0515070D02*
X0061930Y0515070D01*
X0062230Y0515360D02*
X0060850Y0513990D01*
X0060100Y0512180D01*
X0060100Y0510240D01*
X0060850Y0508430D01*
X0062230Y0507060D01*
X0064030Y0506310D01*
X0065980Y0506310D01*
X0067780Y0507060D01*
X0069160Y0508430D01*
X0069900Y0510240D01*
X0069900Y0512180D01*
X0069160Y0513990D01*
X0067780Y0515360D01*
X0065980Y0516110D01*
X0064030Y0516110D01*
X0062230Y0515360D01*
X0060640Y0513490D02*
X0057160Y0513490D01*
X0058150Y0511900D02*
X0060100Y0511900D01*
X0060100Y0510320D02*
X0058430Y0510320D01*
X0058160Y0508730D02*
X0060730Y0508730D01*
X0062140Y0507150D02*
X0057180Y0507150D01*
X0050480Y0513490D02*
X0046820Y0513490D01*
X0037200Y0508730D02*
X0032660Y0508730D01*
X0030710Y0507150D02*
X0037200Y0507150D01*
X0067870Y0507150D02*
X0123760Y0507150D01*
X0128530Y0507150D02*
X0233950Y0507150D01*
X0233570Y0507300D02*
X0235270Y0506600D01*
X0237100Y0506600D01*
X0238800Y0507300D01*
X0240090Y0508600D01*
X0240790Y0510290D01*
X0240790Y0512130D01*
X0240090Y0513820D01*
X0238800Y0515120D01*
X0237100Y0515820D01*
X0235270Y0515820D01*
X0233570Y0515120D01*
X0232270Y0513820D01*
X0231570Y0512130D01*
X0231570Y0510290D01*
X0232270Y0508600D01*
X0233570Y0507300D01*
X0232220Y0508730D02*
X0069280Y0508730D01*
X0069900Y0510320D02*
X0231570Y0510320D01*
X0231570Y0511900D02*
X0069900Y0511900D01*
X0069360Y0513490D02*
X0232130Y0513490D01*
X0233520Y0515070D02*
X0068070Y0515070D01*
X0067090Y0546770D02*
X0098560Y0546770D01*
X0096970Y0548360D02*
X0069080Y0548360D01*
X0069780Y0549940D02*
X0095390Y0549940D01*
X0091680Y0551530D02*
X0069900Y0551530D01*
X0069520Y0553110D02*
X0091050Y0553110D01*
X0091180Y0554700D02*
X0068450Y0554700D01*
X0129580Y0505560D02*
X0255900Y0505560D01*
X0255010Y0507150D02*
X0250230Y0507150D01*
X0250610Y0507300D02*
X0251900Y0508600D01*
X0252610Y0510290D01*
X0252610Y0512130D01*
X0251900Y0513820D01*
X0250610Y0515120D01*
X0248910Y0515820D01*
X0247080Y0515820D01*
X0245380Y0515120D01*
X0244080Y0513820D01*
X0243380Y0512130D01*
X0243380Y0510290D01*
X0244080Y0508600D01*
X0245380Y0507300D01*
X0247080Y0506600D01*
X0248910Y0506600D01*
X0250610Y0507300D01*
X0251960Y0508730D02*
X0254580Y0508730D01*
X0254300Y0510320D02*
X0252610Y0510320D01*
X0252610Y0511900D02*
X0254300Y0511900D01*
X0254530Y0513490D02*
X0252040Y0513490D01*
X0250660Y0515070D02*
X0254950Y0515070D01*
X0245330Y0515070D02*
X0238840Y0515070D01*
X0240230Y0513490D02*
X0243940Y0513490D01*
X0243380Y0511900D02*
X0240790Y0511900D01*
X0240790Y0510320D02*
X0243380Y0510320D01*
X0244030Y0508730D02*
X0240150Y0508730D01*
X0238420Y0507150D02*
X0245760Y0507150D01*
X0257100Y0503980D02*
X0129740Y0503980D01*
X0129190Y0502390D02*
X0258870Y0502390D01*
X0262470Y0500810D02*
X0125480Y0500810D01*
X0123900Y0499220D02*
X0276860Y0499220D01*
X0276860Y0497640D02*
X0122310Y0497640D01*
X0121870Y0496050D02*
X0276860Y0496050D01*
X0276860Y0494470D02*
X0121260Y0494470D01*
X0126960Y0486540D02*
X0227530Y0486540D01*
X0227420Y0486650D02*
X0228440Y0485640D01*
X0229760Y0485090D01*
X0231100Y0485090D01*
X0238690Y0477510D01*
X0238690Y0476160D01*
X0239230Y0474840D01*
X0240250Y0473830D01*
X0241570Y0473280D01*
X0243000Y0473280D01*
X0244320Y0473830D01*
X0245340Y0474840D01*
X0245890Y0476160D01*
X0245890Y0477600D01*
X0245340Y0478920D01*
X0244320Y0479930D01*
X0243000Y0480480D01*
X0241660Y0480480D01*
X0234070Y0488060D01*
X0234070Y0489410D01*
X0233530Y0490730D01*
X0232510Y0491740D01*
X0231190Y0492290D01*
X0229760Y0492290D01*
X0228440Y0491740D01*
X0227420Y0490730D01*
X0226870Y0489410D01*
X0226870Y0487970D01*
X0227420Y0486650D01*
X0226870Y0488130D02*
X0130670Y0488130D01*
X0131620Y0489710D02*
X0227000Y0489710D01*
X0227990Y0491300D02*
X0131710Y0491300D01*
X0130980Y0492880D02*
X0276860Y0492880D01*
X0276860Y0491300D02*
X0232960Y0491300D01*
X0233950Y0489710D02*
X0276860Y0489710D01*
X0276860Y0488130D02*
X0234070Y0488130D01*
X0235590Y0486540D02*
X0276860Y0486540D01*
X0276860Y0484960D02*
X0237180Y0484960D01*
X0238760Y0483370D02*
X0276860Y0483370D01*
X0276860Y0481790D02*
X0240350Y0481790D01*
X0243680Y0480200D02*
X0276860Y0480200D01*
X0276860Y0478620D02*
X0245460Y0478620D01*
X0245890Y0477030D02*
X0276860Y0477030D01*
X0276860Y0475450D02*
X0245590Y0475450D01*
X0244360Y0473860D02*
X0258240Y0473860D01*
X0256510Y0469110D02*
X0225020Y0469110D01*
X0226600Y0467520D02*
X0229800Y0467520D01*
X0229390Y0467110D02*
X0228840Y0465780D01*
X0228840Y0464350D01*
X0229390Y0463030D01*
X0230400Y0462020D01*
X0231730Y0461470D01*
X0233160Y0461470D01*
X0234480Y0462020D01*
X0235430Y0462970D01*
X0239290Y0462970D01*
X0240250Y0462020D01*
X0241570Y0461470D01*
X0243000Y0461470D01*
X0244320Y0462020D01*
X0245340Y0463030D01*
X0245890Y0464350D01*
X0245890Y0465780D01*
X0245340Y0467110D01*
X0244320Y0468120D01*
X0243000Y0468670D01*
X0241570Y0468670D01*
X0240250Y0468120D01*
X0239290Y0467170D01*
X0235430Y0467170D01*
X0234480Y0468120D01*
X0233160Y0468670D01*
X0231730Y0468670D01*
X0230400Y0468120D01*
X0229390Y0467110D01*
X0228910Y0465940D02*
X0227230Y0465940D01*
X0227230Y0464350D02*
X0228840Y0464350D01*
X0229650Y0462770D02*
X0226590Y0462770D01*
X0225010Y0461180D02*
X0256510Y0461180D01*
X0256510Y0462130D02*
X0256510Y0458480D01*
X0259090Y0455900D01*
X0262730Y0455900D01*
X0265310Y0458480D01*
X0265310Y0462130D01*
X0262730Y0464700D01*
X0259090Y0464700D01*
X0256510Y0462130D01*
X0257150Y0462770D02*
X0245070Y0462770D01*
X0245880Y0464350D02*
X0258730Y0464350D01*
X0259050Y0465940D02*
X0245820Y0465940D01*
X0244920Y0467520D02*
X0257470Y0467520D01*
X0262760Y0465940D02*
X0269050Y0465940D01*
X0269090Y0465900D02*
X0272730Y0465900D01*
X0275310Y0468480D01*
X0275310Y0472130D01*
X0272730Y0474700D01*
X0269090Y0474700D01*
X0266510Y0472130D01*
X0266510Y0468480D01*
X0269090Y0465900D01*
X0269090Y0464700D02*
X0266510Y0462130D01*
X0266510Y0458480D01*
X0269090Y0455900D01*
X0272730Y0455900D01*
X0275310Y0458480D01*
X0275310Y0462130D01*
X0272730Y0464700D01*
X0269090Y0464700D01*
X0268730Y0464350D02*
X0263080Y0464350D01*
X0264670Y0462770D02*
X0267150Y0462770D01*
X0266510Y0461180D02*
X0265310Y0461180D01*
X0265310Y0459600D02*
X0266510Y0459600D01*
X0266980Y0458010D02*
X0264840Y0458010D01*
X0263250Y0456430D02*
X0268560Y0456430D01*
X0267640Y0453260D02*
X0264180Y0453260D01*
X0265310Y0451670D02*
X0266510Y0451670D01*
X0266510Y0450090D02*
X0265310Y0450090D01*
X0265310Y0448500D02*
X0266510Y0448500D01*
X0273250Y0456430D02*
X0276860Y0456430D01*
X0276860Y0458010D02*
X0274840Y0458010D01*
X0275310Y0459600D02*
X0276860Y0459600D01*
X0276860Y0461180D02*
X0275310Y0461180D01*
X0274670Y0462770D02*
X0276860Y0462770D01*
X0276860Y0464350D02*
X0273080Y0464350D01*
X0272760Y0465940D02*
X0276860Y0465940D01*
X0276860Y0467520D02*
X0274350Y0467520D01*
X0275310Y0469110D02*
X0276860Y0469110D01*
X0276860Y0470690D02*
X0275310Y0470690D01*
X0275160Y0472280D02*
X0276860Y0472280D01*
X0276860Y0473860D02*
X0273570Y0473860D01*
X0268240Y0473860D02*
X0263570Y0473860D01*
X0265160Y0472280D02*
X0266660Y0472280D01*
X0266510Y0470690D02*
X0265310Y0470690D01*
X0265310Y0469110D02*
X0266510Y0469110D01*
X0267470Y0467520D02*
X0264350Y0467520D01*
X0256510Y0459600D02*
X0223320Y0459600D01*
X0224190Y0458010D02*
X0256980Y0458010D01*
X0258560Y0456430D02*
X0224370Y0456430D01*
X0235230Y0462770D02*
X0239500Y0462770D01*
X0239650Y0467520D02*
X0235080Y0467520D01*
X0240210Y0473860D02*
X0057370Y0473860D01*
X0058340Y0475450D02*
X0238980Y0475450D01*
X0238690Y0477030D02*
X0054030Y0477030D01*
X0054020Y0478620D02*
X0053620Y0478620D01*
X0053620Y0480200D02*
X0054020Y0480200D01*
X0057530Y0480200D02*
X0235990Y0480200D01*
X0234410Y0481790D02*
X0114490Y0481790D01*
X0123790Y0483370D02*
X0232820Y0483370D01*
X0231240Y0484960D02*
X0125380Y0484960D01*
X0104700Y0456430D02*
X0100340Y0456430D01*
X0109290Y0437410D02*
X0080060Y0437410D01*
X0079320Y0432650D02*
X0079130Y0432650D01*
X0079030Y0431070D02*
X0080250Y0431070D01*
X0079030Y0429480D02*
X0083960Y0429480D01*
X0086730Y0432650D02*
X0102410Y0432650D01*
X0101190Y0431070D02*
X0088310Y0431070D01*
X0089900Y0429480D02*
X0100890Y0429480D01*
X0101310Y0427900D02*
X0091480Y0427900D01*
X0093070Y0426310D02*
X0103110Y0426310D01*
X0106120Y0434240D02*
X0086440Y0434240D01*
X0085680Y0435820D02*
X0107710Y0435820D01*
X0071730Y0408880D02*
X0070950Y0408880D01*
X0070800Y0407290D02*
X0070690Y0407290D01*
X0070800Y0405710D02*
X0069900Y0405710D01*
X0071150Y0404120D02*
X0065250Y0404120D01*
X0065250Y0402540D02*
X0072740Y0402540D01*
X0061050Y0394610D02*
X0050950Y0394610D01*
X0051960Y0393030D02*
X0061050Y0393030D01*
X0061050Y0391440D02*
X0052180Y0391440D01*
X0051790Y0389860D02*
X0061050Y0389860D01*
X0062180Y0388270D02*
X0050540Y0388270D01*
X0071270Y0374010D02*
X0014800Y0374010D01*
X0014800Y0375590D02*
X0017100Y0375590D01*
X0016900Y0375790D02*
X0017390Y0375300D01*
X0017950Y0374890D01*
X0018560Y0374580D01*
X0019210Y0374370D01*
X0019890Y0374260D01*
X0020240Y0374260D01*
X0020240Y0381210D01*
X0015860Y0381210D01*
X0015860Y0378290D01*
X0015970Y0377610D01*
X0016180Y0376960D01*
X0016500Y0376340D01*
X0016900Y0375790D01*
X0016110Y0377180D02*
X0014800Y0377180D01*
X0014800Y0378760D02*
X0015860Y0378760D01*
X0015860Y0380350D02*
X0014800Y0380350D01*
X0014800Y0381930D02*
X0015860Y0381930D01*
X0015860Y0383520D02*
X0014800Y0383520D01*
X0014800Y0385100D02*
X0016070Y0385100D01*
X0020240Y0385100D02*
X0020240Y0385100D01*
X0020240Y0383520D02*
X0020240Y0383520D01*
X0020240Y0381930D02*
X0020240Y0381930D01*
X0020240Y0381210D02*
X0020240Y0381210D01*
X0020240Y0380350D02*
X0020240Y0380350D01*
X0020240Y0378760D02*
X0020240Y0378760D01*
X0020240Y0377180D02*
X0020240Y0377180D01*
X0020240Y0375590D02*
X0020240Y0375590D01*
X0020780Y0356570D02*
X0014800Y0356570D01*
X0014800Y0354990D02*
X0018080Y0354990D01*
X0016500Y0353400D02*
X0014800Y0353400D01*
X0014800Y0351820D02*
X0015420Y0351820D01*
X0032040Y0337550D02*
X0262970Y0337550D01*
X0261380Y0339140D02*
X0033620Y0339140D01*
X0034650Y0340720D02*
X0260360Y0340720D01*
X0259560Y0342310D02*
X0035450Y0342310D01*
X0066300Y0359740D02*
X0159580Y0359740D01*
X0161160Y0361330D02*
X0067420Y0361330D01*
X0067720Y0362910D02*
X0162750Y0362910D01*
X0164330Y0364500D02*
X0067720Y0364500D01*
X0086810Y0380350D02*
X0087660Y0380350D01*
X0118530Y0385100D02*
X0118620Y0385100D01*
X0159270Y0353400D02*
X0261500Y0353400D01*
X0260420Y0351820D02*
X0159130Y0351820D01*
X0158130Y0350230D02*
X0259590Y0350230D01*
X0263080Y0354990D02*
X0160760Y0354990D01*
X0162350Y0356570D02*
X0265780Y0356570D01*
X0262020Y0359740D02*
X0165520Y0359740D01*
X0167100Y0361330D02*
X0259750Y0361330D01*
X0258260Y0362910D02*
X0168690Y0362910D01*
X0170270Y0364500D02*
X0257350Y0364500D01*
X0256730Y0366080D02*
X0253320Y0366080D01*
X0253870Y0366630D02*
X0254570Y0368320D01*
X0254570Y0370160D01*
X0253870Y0371850D01*
X0252580Y0373150D01*
X0250880Y0373850D01*
X0249050Y0373850D01*
X0247350Y0373150D01*
X0246050Y0371850D01*
X0245350Y0370160D01*
X0245350Y0368320D01*
X0246050Y0366630D01*
X0247350Y0365330D01*
X0249050Y0364630D01*
X0250880Y0364630D01*
X0252580Y0365330D01*
X0253870Y0366630D01*
X0254300Y0367670D02*
X0256310Y0367670D01*
X0256270Y0369250D02*
X0254570Y0369250D01*
X0254290Y0370840D02*
X0256310Y0370840D01*
X0256740Y0372420D02*
X0253310Y0372420D01*
X0257360Y0374010D02*
X0244900Y0374010D01*
X0245810Y0375590D02*
X0258270Y0375590D01*
X0259760Y0377180D02*
X0245890Y0377180D01*
X0245100Y0378760D02*
X0262050Y0378760D01*
X0262730Y0386690D02*
X0276860Y0386690D01*
X0276860Y0388270D02*
X0265040Y0388270D01*
X0265570Y0389860D02*
X0276860Y0389860D01*
X0276860Y0391440D02*
X0265380Y0391440D01*
X0264300Y0393030D02*
X0276860Y0393030D01*
X0276860Y0394610D02*
X0260600Y0394610D01*
X0263020Y0396200D02*
X0268840Y0396200D01*
X0267060Y0397780D02*
X0264610Y0397780D01*
X0265310Y0399370D02*
X0266400Y0399370D01*
X0266350Y0400950D02*
X0265310Y0400950D01*
X0264900Y0402540D02*
X0266880Y0402540D01*
X0256240Y0393030D02*
X0250520Y0393030D01*
X0250290Y0394610D02*
X0254660Y0394610D01*
X0253070Y0396200D02*
X0250290Y0396200D01*
X0250290Y0397780D02*
X0252000Y0397780D01*
X0251720Y0399370D02*
X0250290Y0399370D01*
X0250290Y0400950D02*
X0250670Y0400950D01*
X0246620Y0407290D02*
X0243860Y0407290D01*
X0248320Y0416800D02*
X0250030Y0416800D01*
X0254230Y0416800D02*
X0258190Y0416800D01*
X0256600Y0418390D02*
X0255440Y0418390D01*
X0256840Y0427900D02*
X0257090Y0427900D01*
X0256510Y0429480D02*
X0255250Y0429480D01*
X0256510Y0431070D02*
X0253670Y0431070D01*
X0252080Y0432650D02*
X0257030Y0432650D01*
X0258620Y0434240D02*
X0250500Y0434240D01*
X0268270Y0426310D02*
X0268680Y0426310D01*
X0269850Y0424730D02*
X0276860Y0424730D01*
X0276860Y0426310D02*
X0273140Y0426310D01*
X0274720Y0427900D02*
X0276860Y0427900D01*
X0276860Y0429480D02*
X0275310Y0429480D01*
X0275310Y0431070D02*
X0276860Y0431070D01*
X0276860Y0432650D02*
X0274780Y0432650D01*
X0273200Y0434240D02*
X0276860Y0434240D01*
X0276860Y0423140D02*
X0274290Y0423140D01*
X0275310Y0421560D02*
X0276860Y0421560D01*
X0276860Y0419970D02*
X0275310Y0419970D01*
X0275210Y0418390D02*
X0276860Y0418390D01*
X0257830Y0391440D02*
X0251600Y0391440D01*
X0251790Y0389860D02*
X0258370Y0389860D01*
X0258900Y0388270D02*
X0251260Y0388270D01*
X0248960Y0386690D02*
X0261210Y0386690D01*
X0271890Y0378760D02*
X0276860Y0378760D01*
X0276860Y0377180D02*
X0274180Y0377180D01*
X0275670Y0375590D02*
X0276860Y0375590D01*
X0276860Y0374010D02*
X0276580Y0374010D01*
X0276860Y0380350D02*
X0241400Y0380350D01*
X0239810Y0381930D02*
X0276860Y0381930D01*
X0276860Y0383520D02*
X0238230Y0383520D01*
X0238070Y0385100D02*
X0276860Y0385100D01*
X0276590Y0364500D02*
X0276860Y0364500D01*
X0276860Y0362910D02*
X0275680Y0362910D01*
X0276860Y0361330D02*
X0274190Y0361330D01*
X0271920Y0359740D02*
X0276860Y0359740D01*
X0276860Y0358160D02*
X0163930Y0358160D01*
X0171860Y0366080D02*
X0234790Y0366080D01*
X0241510Y0366080D02*
X0246600Y0366080D01*
X0245620Y0367670D02*
X0242490Y0367670D01*
X0242760Y0369250D02*
X0245350Y0369250D01*
X0245630Y0370840D02*
X0242480Y0370840D01*
X0241500Y0372420D02*
X0246620Y0372420D01*
X0247430Y0386690D02*
X0243050Y0386690D01*
X0241520Y0386690D02*
X0239610Y0386690D01*
X0274220Y0356570D02*
X0276860Y0356570D01*
X0116600Y0350230D02*
X0109940Y0350230D01*
X0037710Y0475450D02*
X0034920Y0475450D01*
X0034000Y0477030D02*
X0037400Y0477030D01*
X0037640Y0478620D02*
X0032740Y0478620D01*
X0030840Y0480200D02*
X0038570Y0480200D01*
X0045450Y0480200D02*
X0050110Y0480200D01*
X0049250Y0478620D02*
X0046380Y0478620D01*
X0058390Y0478620D02*
X0237580Y0478620D01*
X0267530Y0500810D02*
X0276860Y0500810D01*
X0276860Y0502390D02*
X0271140Y0502390D01*
X0272910Y0503980D02*
X0276860Y0503980D01*
X0276860Y0505560D02*
X0274100Y0505560D01*
X0275000Y0507150D02*
X0276860Y0507150D01*
X0276860Y0508730D02*
X0275420Y0508730D01*
X0275710Y0510320D02*
X0276860Y0510320D01*
X0276860Y0511900D02*
X0275710Y0511900D01*
X0275480Y0513490D02*
X0276860Y0513490D01*
X0276860Y0515070D02*
X0275050Y0515070D01*
X0274220Y0516660D02*
X0276860Y0516660D01*
X0276860Y0518240D02*
X0273110Y0518240D01*
X0271490Y0519830D02*
X0276860Y0519830D01*
X0276860Y0521410D02*
X0268300Y0521410D01*
X0271270Y0542020D02*
X0276860Y0542020D01*
X0276860Y0543600D02*
X0273090Y0543600D01*
X0274340Y0545190D02*
X0276860Y0545190D01*
X0276860Y0546770D02*
X0275260Y0546770D01*
X0275730Y0548360D02*
X0276860Y0548360D01*
X0276860Y0549940D02*
X0276100Y0549940D01*
X0276100Y0551530D02*
X0276860Y0551530D01*
X0276860Y0553110D02*
X0275980Y0553110D01*
X0275560Y0554700D02*
X0276860Y0554700D01*
X0276860Y0556280D02*
X0274890Y0556280D01*
D66*
X0122210Y0461130D03*
X0116300Y0429640D03*
X0155670Y0425700D03*
X0126140Y0398140D03*
D119*
X0114330Y0396170D02*
X0114330Y0386330D01*
X0122210Y0378450D01*
X0122210Y0370580D01*
X0122210Y0384360D02*
X0151730Y0384360D01*
X0163550Y0372550D01*
X0163550Y0384360D02*
X0157640Y0384360D01*
X0163550Y0384360D02*
X0163550Y0390270D01*
X0163550Y0384360D02*
X0169450Y0384360D01*
X0179290Y0376490D02*
X0179290Y0398140D01*
X0179290Y0404040D02*
X0198980Y0384360D01*
X0198980Y0390270D02*
X0204880Y0396170D01*
X0212760Y0398140D02*
X0212760Y0419790D01*
X0216700Y0423730D01*
X0248190Y0423730D01*
X0252130Y0419790D01*
X0246220Y0419790D02*
X0230470Y0404040D01*
X0236380Y0404040D02*
X0236380Y0388300D01*
X0242290Y0390270D02*
X0242290Y0404040D01*
X0248190Y0404040D02*
X0248190Y0390270D01*
X0254100Y0398140D02*
X0254100Y0402080D01*
X0254100Y0398140D02*
X0261970Y0390270D01*
X0242290Y0376490D02*
X0216700Y0402080D01*
X0216700Y0407980D01*
X0216700Y0417820D02*
X0238350Y0417820D01*
X0240320Y0419790D01*
X0256070Y0421760D02*
X0260000Y0421760D01*
X0260910Y0420300D01*
X0256070Y0421760D02*
X0220630Y0457190D01*
X0210790Y0453260D02*
X0200950Y0443410D01*
X0197010Y0429640D02*
X0220630Y0429640D01*
X0230470Y0439480D01*
X0238350Y0443410D02*
X0238350Y0447350D01*
X0238350Y0443410D02*
X0256070Y0425700D01*
X0265910Y0425700D01*
X0269840Y0421760D01*
X0270910Y0420300D01*
X0242290Y0465070D02*
X0232440Y0465070D01*
X0242290Y0476880D02*
X0230470Y0488690D01*
X0128110Y0490660D02*
X0122210Y0484750D01*
X0112360Y0484750D01*
X0118270Y0496560D02*
X0126140Y0504440D01*
X0104490Y0545780D02*
X0102520Y0545780D01*
X0094650Y0553650D01*
X0069060Y0463100D02*
X0082840Y0449320D01*
X0098580Y0453260D02*
X0106460Y0453260D01*
X0120240Y0445380D02*
X0104490Y0429640D01*
X0096620Y0419790D02*
X0082840Y0433570D01*
X0076930Y0435540D02*
X0076930Y0425700D01*
X0082840Y0423730D02*
X0076930Y0417820D01*
X0067090Y0427670D01*
X0067090Y0437510D01*
X0049370Y0425700D02*
X0043470Y0431600D01*
X0042010Y0432120D01*
X0063150Y0459160D02*
X0063150Y0390270D01*
X0076930Y0376490D01*
X0075000Y0376210D01*
X0085000Y0376210D02*
X0086770Y0376490D01*
X0130080Y0419790D01*
X0076930Y0417820D02*
X0067090Y0407980D01*
X0124180Y0354830D02*
X0116300Y0346960D01*
X0108430Y0346960D01*
X0155670Y0352860D02*
X0179290Y0376490D01*
D78*
X0179290Y0376490D03*
X0169450Y0384360D03*
X0163550Y0390270D03*
X0157640Y0384360D03*
X0163550Y0372550D03*
X0155670Y0352860D03*
X0124180Y0354830D03*
X0108430Y0346960D03*
X0122210Y0370580D03*
X0122210Y0384360D03*
X0114330Y0396170D03*
X0130080Y0419790D03*
X0104490Y0429640D03*
X0096620Y0419790D03*
X0082840Y0423730D03*
X0076930Y0425700D03*
X0082840Y0433570D03*
X0076930Y0435540D03*
X0067090Y0437510D03*
X0082840Y0449320D03*
X0098580Y0453260D03*
X0106460Y0453260D03*
X0120240Y0445380D03*
X0069060Y0463100D03*
X0063150Y0459160D03*
X0049370Y0425700D03*
X0067090Y0407980D03*
X0112360Y0484750D03*
X0118270Y0496560D03*
X0126140Y0504440D03*
X0128110Y0490660D03*
X0104490Y0545780D03*
X0094650Y0553650D03*
X0220630Y0457190D03*
X0210790Y0453260D03*
X0200950Y0443410D03*
X0197010Y0429640D03*
X0216700Y0417820D03*
X0216700Y0407980D03*
X0212760Y0398140D03*
X0204880Y0396170D03*
X0198980Y0390270D03*
X0198980Y0384360D03*
X0179290Y0398140D03*
X0179290Y0404040D03*
X0230470Y0404040D03*
X0236380Y0404040D03*
X0242290Y0404040D03*
X0248190Y0404040D03*
X0254100Y0402080D03*
X0248190Y0390270D03*
X0242290Y0390270D03*
X0236380Y0388300D03*
X0242290Y0376490D03*
X0261970Y0390270D03*
X0252130Y0419790D03*
X0246220Y0419790D03*
X0240320Y0419790D03*
X0230470Y0439480D03*
X0238350Y0447350D03*
X0242290Y0465070D03*
X0232440Y0465070D03*
X0242290Y0476880D03*
X0230470Y0488690D03*
X0010000Y0567770D02*
G75*
%LPD*%
D42*
X0020000Y0637770D03*
X0060000Y0637770D03*
D105*
X0070000Y0627770D03*
X0070000Y0617770D03*
X0100000Y0617770D03*
X0100000Y0627770D03*
D56*
X0047010Y0606860D03*
X0247990Y0654580D03*
D48*
X0236180Y0654580D03*
X0236180Y0642770D03*
X0247990Y0642770D03*
X0247990Y0630960D03*
X0236180Y0630960D03*
X0058820Y0618680D03*
X0047010Y0618680D03*
X0058820Y0606860D03*
D119*
X0082830Y0595330D02*
X0031650Y0595330D01*
X0070000Y0627770D02*
X0086770Y0644540D01*
X0086770Y0601230D01*
X0106460Y0634700D02*
X0139920Y0634700D01*
X0137950Y0644540D02*
X0137950Y0662260D01*
X0108430Y0666200D02*
X0086770Y0644540D01*
X0084800Y0662260D02*
X0102520Y0679970D01*
X0139920Y0679970D01*
X0134020Y0685880D02*
X0114330Y0685880D01*
X0108430Y0676040D02*
X0108430Y0666200D01*
X0094650Y0685880D02*
X0084800Y0676040D01*
X0084800Y0681940D02*
X0084800Y0701630D01*
X0086770Y0703600D01*
X0057240Y0687850D02*
X0051340Y0687850D01*
X0065120Y0674070D01*
X0051340Y0687850D02*
X0043460Y0687850D01*
X0041500Y0697690D02*
X0025750Y0681940D01*
X0137950Y0689820D02*
X0137950Y0707530D01*
X0206850Y0660290D02*
X0242280Y0660290D01*
X0247990Y0654580D01*
X0238350Y0648480D02*
X0242280Y0644540D01*
X0242280Y0636670D01*
X0247990Y0630960D01*
X0236180Y0642770D02*
X0234410Y0642570D01*
X0181260Y0589420D01*
X0171420Y0589420D01*
X0169450Y0634700D02*
X0181260Y0634700D01*
X0206850Y0660290D01*
X0200940Y0648480D02*
X0238350Y0648480D01*
D78*
X0031650Y0595330D03*
X0082830Y0595330D03*
X0086770Y0601230D03*
X0106460Y0634700D03*
X0137950Y0644540D03*
X0139920Y0634700D03*
X0169450Y0634700D03*
X0200940Y0648480D03*
X0139920Y0679970D03*
X0134020Y0685880D03*
X0137950Y0689820D03*
X0114330Y0685880D03*
X0108430Y0676040D03*
X0094650Y0685880D03*
X0084800Y0681940D03*
X0084800Y0676040D03*
X0065120Y0674070D03*
X0084800Y0662260D03*
X0057240Y0687850D03*
X0043460Y0687850D03*
X0041500Y0697690D03*
X0019840Y0683910D03*
X0025750Y0681940D03*
X0086770Y0703600D03*
X0137950Y0707530D03*
X0137950Y0662260D03*
X0171420Y0589420D03*
D38*
X0020000Y0637770D02*
X0019840Y0638640D01*
X0019840Y0683910D01*
M02*
