G75*
G70*
%OFA0B0*%
%FSLAX25Y25*%
%IPPOS*%
%LPD*%
%AMOC8*
5,1,8,0,0,1.08239X$1,22.5*
%
%ADD10R,0.05920X0.06710*%
%ADD105R,0.06000X0.03000*%
%ADD109R,0.16800X0.30800*%
%ADD110C,0.05950*%
%ADD113OC8,0.09300*%
%ADD118C,0.06000*%
%ADD120R,0.13400X0.06780*%
%ADD122C,0.06540*%
%ADD125C,0.09860*%
%ADD127R,0.06780X0.05520*%
%ADD128C,0.06400*%
%ADD131R,0.06500X0.04400*%
%ADD132R,0.03560X0.03560*%
%ADD133C,0.07400*%
%ADD134R,0.03000X0.08600*%
%ADD135R,0.09800X0.09800*%
%ADD137R,0.07100X0.02900*%
%ADD141R,0.08600X0.03000*%
%ADD143C,0.13400*%
%ADD145C,0.04800*%
%ADD146R,0.05520X0.06780*%
%ADD148R,0.04340X0.03560*%
%ADD152R,0.11820X0.12610*%
%ADD169R,0.17000X0.13000*%
%ADD170R,0.13000X0.20000*%
%ADD171R,0.01800X0.05000*%
%ADD172R,0.03360X0.07490*%
%ADD173R,0.08600X0.02900*%
%ADD174R,0.05920X0.08670*%
%ADD175R,0.02500X0.06000*%
%ADD176R,0.07100X0.07890*%
%ADD177R,0.10250X0.07890*%
%ADD178R,0.16550X0.22060*%
%ADD179R,0.04740X0.08670*%
%ADD18R,0.03950X0.03950*%
%ADD180R,0.06710X0.12610*%
%ADD181R,0.03200X0.02000*%
%ADD20OC8,0.06000*%
%ADD22R,0.03000X0.06000*%
%ADD25R,0.04740X0.04740*%
%ADD27R,0.05130X0.04740*%
%ADD30R,0.06710X0.05920*%
%ADD36R,0.12610X0.11820*%
%ADD37R,0.02900X0.07100*%
%ADD40R,0.03560X0.04340*%
%ADD41OC8,0.06400*%
%ADD45R,0.07490X0.03360*%
%ADD49R,0.06600X0.02200*%
%ADD51R,0.04740X0.05130*%
%ADD55R,0.07890X0.07100*%
%ADD59R,0.05400X0.02200*%
%ADD60R,0.04700X0.02000*%
%ADD61R,0.06780X0.13400*%
%ADD62OC8,0.10800*%
%ADD70C,0.12610*%
%ADD73R,0.06820X0.06820*%
%ADD76R,0.02200X0.05400*%
%ADD83R,0.05920X0.05920*%
%ADD91R,0.04400X0.06500*%
%ADD97C,0.06820*%
X0010000Y0010000D02*
G75*
%LPD*%
D143*
X0273000Y0022000D03*
X0274000Y0391000D03*
X0022000Y0391000D03*
X0022000Y0022000D03*
D169*
X0168500Y0169500D03*
D170*
X0211500Y0258000D03*
D171*
X0155000Y0069600D03*
X0153000Y0069600D03*
X0151000Y0069600D03*
X0149000Y0069600D03*
X0149000Y0058400D03*
X0151000Y0058400D03*
X0153000Y0058400D03*
X0155000Y0058400D03*
D134*
X0098500Y0072300D03*
X0093500Y0072300D03*
X0088500Y0072300D03*
X0083500Y0072300D03*
X0083500Y0091700D03*
X0088500Y0091700D03*
X0093500Y0091700D03*
X0098500Y0091700D03*
D20*
X0096000Y0108000D03*
X0086000Y0108000D03*
X0114000Y0074000D03*
X0128000Y0074000D03*
X0128000Y0054000D03*
X0114000Y0054000D03*
X0096000Y0056000D03*
X0086000Y0056000D03*
X0049000Y0102000D03*
X0049000Y0132000D03*
X0026000Y0114000D03*
X0026000Y0104000D03*
X0241000Y0145000D03*
X0251000Y0145000D03*
X0251000Y0155000D03*
X0241000Y0155000D03*
X0261000Y0154000D03*
X0262000Y0145000D03*
X0272000Y0145000D03*
X0271000Y0154000D03*
X0266000Y0082000D03*
X0266000Y0072000D03*
X0254000Y0072000D03*
X0254000Y0082000D03*
X0250000Y0315000D03*
X0260000Y0315000D03*
D49*
X0259500Y0304700D03*
X0259500Y0302100D03*
X0259500Y0299600D03*
X0259500Y0297000D03*
X0259500Y0294400D03*
X0259500Y0291900D03*
X0259500Y0289300D03*
X0236500Y0289300D03*
X0236500Y0291900D03*
X0236500Y0294400D03*
X0236500Y0297000D03*
X0236500Y0299600D03*
X0236500Y0302100D03*
X0236500Y0304700D03*
D62*
X0155500Y0130000D03*
X0155500Y0090000D03*
X0225500Y0110000D03*
D173*
X0215700Y0157500D03*
X0215700Y0162500D03*
X0215700Y0167500D03*
X0215700Y0172500D03*
X0196300Y0172500D03*
X0196300Y0167500D03*
X0196300Y0162500D03*
X0196300Y0157500D03*
D22*
X0168000Y0247000D03*
X0164000Y0255000D03*
X0160000Y0247000D03*
X0147000Y0247000D03*
X0143000Y0255000D03*
X0139000Y0247000D03*
X0126000Y0247000D03*
X0122000Y0255000D03*
X0118000Y0247000D03*
X0106000Y0247000D03*
X0102000Y0255000D03*
X0098000Y0247000D03*
D59*
X0185900Y0285400D03*
X0185900Y0290600D03*
X0194100Y0290600D03*
X0194100Y0288000D03*
X0194100Y0285400D03*
D141*
X0071700Y0229500D03*
X0071700Y0224500D03*
X0071700Y0219500D03*
X0071700Y0214500D03*
X0052300Y0214500D03*
X0052300Y0219500D03*
X0052300Y0224500D03*
X0052300Y0229500D03*
D133*
X0064000Y0138000D03*
X0064000Y0098000D03*
D25*
X0173000Y0300000D03*
D10*
X0185260Y0300000D03*
X0192740Y0300000D03*
X0065740Y0206000D03*
X0058260Y0206000D03*
X0049740Y0240000D03*
X0042260Y0240000D03*
D176*
X0040490Y0252000D03*
X0051510Y0252000D03*
X0181490Y0275000D03*
X0192510Y0275000D03*
D177*
X0040000Y0228970D03*
X0040000Y0213030D03*
D122*
X0154220Y0366460D02*
X0154220Y0372200D01*
X0164060Y0372200D02*
X0164060Y0366460D01*
X0171940Y0366460D02*
X0171940Y0372200D01*
X0181780Y0372200D02*
X0181780Y0366460D01*
D125*
X0193870Y0380000D03*
X0142130Y0380000D03*
D118*
X0138000Y0345600D02*
X0138000Y0340400D01*
X0138000Y0315600D02*
X0138000Y0310400D01*
X0138000Y0300600D02*
X0138000Y0295400D01*
X0138000Y0270600D02*
X0138000Y0265400D01*
X0071000Y0265400D02*
X0071000Y0270600D01*
X0071000Y0295400D02*
X0071000Y0300600D01*
X0071000Y0307400D02*
X0071000Y0312600D01*
X0071000Y0337400D02*
X0071000Y0342600D01*
D76*
X0252400Y0186800D03*
X0257600Y0186800D03*
X0257600Y0179200D03*
X0255000Y0179200D03*
X0252400Y0179200D03*
X0269400Y0179200D03*
X0272000Y0179200D03*
X0274600Y0179200D03*
X0274600Y0186800D03*
X0269400Y0186800D03*
X0269400Y0208200D03*
X0272000Y0208200D03*
X0274600Y0208200D03*
X0274600Y0215800D03*
X0269400Y0215800D03*
X0269400Y0236200D03*
X0272000Y0236200D03*
X0274600Y0236200D03*
X0274600Y0243800D03*
X0269400Y0243800D03*
D40*
X0250560Y0281000D03*
X0245440Y0281000D03*
X0244560Y0229000D03*
X0239440Y0229000D03*
X0221560Y0200000D03*
X0216440Y0200000D03*
X0190560Y0229000D03*
X0185440Y0229000D03*
X0124560Y0171000D03*
X0119440Y0171000D03*
X0119440Y0163000D03*
X0124560Y0163000D03*
X0124560Y0156000D03*
X0119440Y0156000D03*
X0106560Y0156000D03*
X0106560Y0163000D03*
X0101440Y0163000D03*
X0101440Y0156000D03*
X0101440Y0171000D03*
X0106560Y0171000D03*
D83*
X0240830Y0322470D03*
X0240830Y0331530D03*
D174*
X0219170Y0327000D03*
D148*
X0227000Y0299560D03*
X0227000Y0294440D03*
X0226200Y0247960D03*
X0226200Y0242840D03*
X0198000Y0242440D03*
X0198000Y0247560D03*
X0268000Y0269440D03*
X0268000Y0274560D03*
X0276000Y0274560D03*
X0276000Y0269440D03*
X0269000Y0294440D03*
X0269000Y0299560D03*
X0274000Y0096560D03*
X0274000Y0091440D03*
X0255000Y0091440D03*
X0255000Y0096560D03*
D118*
X0182000Y0165000D03*
X0182000Y0175000D03*
X0207000Y0242000D03*
X0217000Y0242000D03*
D172*
X0168000Y0225820D03*
X0163000Y0225820D03*
X0158000Y0225820D03*
X0153000Y0225820D03*
X0148000Y0225820D03*
X0143000Y0225820D03*
X0138000Y0225820D03*
X0133000Y0225820D03*
X0128000Y0225820D03*
X0123000Y0225820D03*
X0118000Y0225820D03*
X0113000Y0225820D03*
X0108000Y0225820D03*
X0103000Y0225820D03*
X0103000Y0188180D03*
X0108000Y0188180D03*
X0113000Y0188180D03*
X0118000Y0188180D03*
X0123000Y0188180D03*
X0128000Y0188180D03*
X0133000Y0188180D03*
X0138000Y0188180D03*
X0143000Y0188180D03*
X0148000Y0188180D03*
X0153000Y0188180D03*
X0158000Y0188180D03*
X0163000Y0188180D03*
X0168000Y0188180D03*
D110*
X0222120Y0053550D02*
X0222120Y0048400D01*
X0231570Y0048040D02*
X0231570Y0042890D01*
X0239430Y0020270D02*
X0244570Y0020270D01*
X0259910Y0030690D02*
X0259910Y0035840D01*
X0260320Y0063580D02*
X0255170Y0063580D01*
X0224830Y0351430D02*
X0219680Y0351430D01*
X0220090Y0379170D02*
X0220090Y0384320D01*
X0235430Y0394730D02*
X0240570Y0394730D01*
X0248430Y0372110D02*
X0248430Y0366960D01*
X0257880Y0366600D02*
X0257880Y0361450D01*
D113*
X0185000Y0239000D03*
D175*
X0132800Y0101000D03*
X0130300Y0101000D03*
X0127700Y0101000D03*
X0125200Y0101000D03*
X0125200Y0091000D03*
X0127700Y0091000D03*
X0130300Y0091000D03*
X0132800Y0091000D03*
D128*
X0134000Y0125200D02*
X0134000Y0130800D01*
X0124000Y0130800D02*
X0124000Y0125200D01*
D179*
X0126000Y0266830D03*
X0116000Y0266830D03*
X0106000Y0266830D03*
X0096000Y0266830D03*
X0096000Y0295170D03*
X0106000Y0295170D03*
X0116000Y0295170D03*
X0126000Y0295170D03*
X0126000Y0314830D03*
X0116000Y0314830D03*
X0106000Y0314830D03*
X0096000Y0314830D03*
X0096000Y0343170D03*
X0106000Y0343170D03*
X0116000Y0343170D03*
X0126000Y0343170D03*
X0058000Y0341170D03*
X0048000Y0341170D03*
X0038000Y0341170D03*
X0028000Y0341170D03*
X0028000Y0312830D03*
X0038000Y0312830D03*
X0048000Y0312830D03*
X0058000Y0312830D03*
X0058000Y0295170D03*
X0048000Y0295170D03*
X0038000Y0295170D03*
X0028000Y0295170D03*
X0028000Y0266830D03*
X0038000Y0266830D03*
X0048000Y0266830D03*
X0058000Y0266830D03*
D132*
X0156000Y0155000D03*
X0167000Y0155000D03*
X0268000Y0202000D03*
X0268000Y0230000D03*
X0268000Y0262000D03*
X0276000Y0262000D03*
D127*
X0070200Y0069310D03*
X0070200Y0052300D03*
D146*
X0071310Y0083800D03*
X0054300Y0083800D03*
D181*
X0198000Y0206250D03*
X0198000Y0208750D03*
X0198000Y0211250D03*
X0198000Y0213750D03*
X0198000Y0216250D03*
X0198000Y0218750D03*
X0198000Y0221250D03*
X0198000Y0223750D03*
X0198000Y0226250D03*
X0198000Y0228750D03*
X0198000Y0231250D03*
X0198000Y0233750D03*
X0228000Y0233750D03*
X0228000Y0231250D03*
X0228000Y0228750D03*
X0228000Y0226250D03*
X0228000Y0223750D03*
X0228000Y0221250D03*
X0228000Y0218750D03*
X0228000Y0216250D03*
X0228000Y0213750D03*
X0228000Y0211250D03*
X0228000Y0208750D03*
X0228000Y0206250D03*
D18*
X0190000Y0216240D03*
X0190000Y0222150D03*
X0254850Y0105000D03*
X0260760Y0105000D03*
X0268240Y0105000D03*
X0274150Y0105000D03*
D180*
X0077510Y0243000D03*
X0065700Y0243000D03*
D178*
X0081870Y0172390D03*
X0039740Y0172390D03*
D97*
X0044010Y0060910D03*
X0055820Y0060910D03*
X0055820Y0049100D03*
X0062280Y0355180D03*
X0074090Y0355180D03*
X0074090Y0366990D03*
X0085910Y0366990D03*
X0085910Y0355180D03*
X0097720Y0355180D03*
X0097720Y0366990D03*
D73*
X0062280Y0366990D03*
X0044010Y0049100D03*
D70*
X0027000Y0055000D03*
X0070750Y0384000D03*
X0089250Y0384000D03*
D128*
X0199000Y0034000D03*
D41*
X0199000Y0024000D03*
X0189000Y0024000D03*
X0179000Y0024000D03*
X0179000Y0034000D03*
X0189000Y0034000D03*
X0169000Y0034000D03*
X0169000Y0024000D03*
X0159000Y0024000D03*
X0159000Y0034000D03*
X0149000Y0034000D03*
X0149000Y0024000D03*
X0139000Y0024000D03*
X0129000Y0024000D03*
X0129000Y0034000D03*
X0139000Y0034000D03*
X0119000Y0034000D03*
X0119000Y0024000D03*
X0109000Y0024000D03*
X0109000Y0034000D03*
X0099000Y0034000D03*
X0099000Y0024000D03*
X0089000Y0024000D03*
X0089000Y0034000D03*
X0079000Y0034000D03*
X0079000Y0024000D03*
D145*
X0088320Y0065360D03*
X0124750Y0115620D03*
X0114970Y0156830D03*
X0110940Y0163000D03*
X0112930Y0170590D03*
X0108000Y0177400D03*
X0143000Y0196480D03*
X0152170Y0194570D03*
X0148000Y0217260D03*
X0164320Y0232280D03*
X0171590Y0234030D03*
X0155790Y0246260D03*
X0134780Y0246540D03*
X0083480Y0243590D03*
X0033000Y0346720D03*
X0223000Y0224000D03*
X0223000Y0214000D03*
X0225940Y0199810D03*
X0229260Y0193230D03*
X0223080Y0170590D03*
X0250680Y0197430D03*
X0257400Y0193520D03*
X0265680Y0208070D03*
X0273090Y0221110D03*
X0264490Y0238860D03*
X0276180Y0249180D03*
X0242460Y0296100D03*
X0232310Y0234890D03*
X0274400Y0194120D03*
X0010000Y0409250D02*
G75*
%LPD*%
D143*
X0022090Y0422310D03*
X0273930Y0421310D03*
X0272870Y0627280D03*
X0022060Y0628280D03*
D49*
X0138500Y0570850D03*
X0138500Y0568350D03*
X0138500Y0565750D03*
X0138500Y0563250D03*
X0138500Y0560650D03*
X0138500Y0558050D03*
X0138500Y0555550D03*
X0138500Y0552950D03*
X0138500Y0550450D03*
X0138500Y0547850D03*
X0138500Y0545250D03*
X0138500Y0542750D03*
X0138500Y0540150D03*
X0138500Y0537650D03*
X0161500Y0537650D03*
X0161500Y0540150D03*
X0161500Y0542750D03*
X0161500Y0545250D03*
X0161500Y0547850D03*
X0161500Y0550450D03*
X0161500Y0552950D03*
X0161500Y0555550D03*
X0161500Y0558050D03*
X0161500Y0560650D03*
X0161500Y0563250D03*
X0161500Y0565750D03*
X0161500Y0568350D03*
X0161500Y0570850D03*
D141*
X0087200Y0541750D03*
X0087200Y0536750D03*
X0087200Y0531750D03*
X0087200Y0526750D03*
X0087200Y0511750D03*
X0087200Y0506750D03*
X0087200Y0501750D03*
X0087200Y0496750D03*
X0067800Y0496750D03*
X0067800Y0501750D03*
X0067800Y0506750D03*
X0067800Y0511750D03*
X0067800Y0526750D03*
X0067800Y0531750D03*
X0067800Y0536750D03*
X0067800Y0541750D03*
D20*
X0097500Y0519250D03*
X0097500Y0504250D03*
X0127500Y0504250D03*
X0127500Y0519250D03*
X0192500Y0544250D03*
X0222500Y0544250D03*
D22*
X0203700Y0603850D03*
X0200000Y0603850D03*
X0196300Y0603850D03*
X0196300Y0614650D03*
X0203700Y0614650D03*
D36*
X0220270Y0574250D03*
X0179720Y0574250D03*
D51*
X0155000Y0600900D03*
X0155000Y0607600D03*
X0196650Y0624250D03*
X0203340Y0624250D03*
X0090000Y0620900D03*
X0090000Y0627600D03*
D131*
X0215000Y0612450D03*
X0215000Y0606050D03*
D146*
X0085800Y0576550D03*
X0086200Y0561950D03*
X0069190Y0561950D03*
X0068800Y0576550D03*
D45*
X0188680Y0511750D03*
X0188680Y0506750D03*
X0188680Y0501750D03*
X0188680Y0496750D03*
X0188680Y0491750D03*
X0188680Y0486750D03*
X0188680Y0481750D03*
X0188680Y0476750D03*
X0188680Y0471750D03*
X0188680Y0466750D03*
X0188680Y0461750D03*
X0188680Y0456750D03*
X0188680Y0451750D03*
X0188680Y0446750D03*
X0226310Y0446750D03*
X0226310Y0451750D03*
X0226310Y0456750D03*
X0226310Y0461750D03*
X0226310Y0466750D03*
X0226310Y0471750D03*
X0226310Y0476750D03*
X0226310Y0481750D03*
X0226310Y0486750D03*
X0226310Y0491750D03*
X0226310Y0496750D03*
X0226310Y0501750D03*
X0226310Y0506750D03*
X0226310Y0511750D03*
D60*
X0146480Y0463320D03*
X0146480Y0460770D03*
X0146480Y0458210D03*
X0146480Y0455650D03*
X0146480Y0453090D03*
X0146480Y0450530D03*
X0146480Y0447970D03*
X0146480Y0445410D03*
X0146480Y0442850D03*
X0146480Y0440290D03*
X0146480Y0437730D03*
X0146480Y0435180D03*
X0123510Y0435180D03*
X0123510Y0437730D03*
X0123510Y0440290D03*
X0123510Y0442850D03*
X0123510Y0445410D03*
X0123510Y0447970D03*
X0123510Y0450530D03*
X0123510Y0453090D03*
X0123510Y0455650D03*
X0123510Y0458210D03*
X0123510Y0460770D03*
X0123510Y0463320D03*
D109*
X0135070Y0449330D03*
D59*
X0148400Y0506650D03*
X0148400Y0509250D03*
X0148400Y0511850D03*
X0156600Y0511850D03*
X0156600Y0506650D03*
X0193700Y0526650D03*
X0193700Y0529250D03*
X0193700Y0531850D03*
X0201300Y0531850D03*
X0201300Y0526650D03*
X0213700Y0526650D03*
X0213700Y0531850D03*
X0221300Y0531850D03*
X0221300Y0529250D03*
X0221300Y0526650D03*
D137*
X0130500Y0611750D03*
X0130500Y0616750D03*
X0130500Y0621750D03*
X0130500Y0626750D03*
X0109500Y0626750D03*
X0109500Y0621750D03*
X0109500Y0616750D03*
X0109500Y0611750D03*
D135*
X0120000Y0619250D03*
D110*
X0054050Y0479130D02*
X0048900Y0479130D01*
X0048540Y0469680D02*
X0043390Y0469680D01*
X0020760Y0461820D02*
X0020760Y0456680D01*
X0031180Y0441340D02*
X0036330Y0441340D01*
X0064070Y0440930D02*
X0064070Y0446080D01*
D18*
X0063150Y0431750D03*
X0057240Y0431750D03*
D73*
X0042000Y0498340D03*
X0042000Y0543340D03*
X0042000Y0588340D03*
D97*
X0053810Y0588340D03*
X0053810Y0600160D03*
X0042000Y0600160D03*
X0042000Y0555160D03*
X0053810Y0555160D03*
X0053810Y0543340D03*
X0053810Y0510160D03*
X0042000Y0510160D03*
X0053810Y0498340D03*
X0238680Y0446750D03*
X0250490Y0446750D03*
X0252990Y0604250D03*
X0241180Y0604250D03*
D70*
X0270000Y0604250D03*
X0267500Y0446750D03*
X0025000Y0504250D03*
X0025000Y0549250D03*
X0025000Y0594250D03*
D40*
X0102440Y0579250D03*
X0107550Y0579250D03*
X0107550Y0571750D03*
X0102440Y0571750D03*
X0102440Y0564250D03*
X0107550Y0564250D03*
X0117440Y0564250D03*
X0122550Y0564250D03*
X0122550Y0571750D03*
X0117440Y0571750D03*
X0117440Y0579250D03*
X0122550Y0579250D03*
X0237440Y0554250D03*
X0242550Y0554250D03*
X0242550Y0549250D03*
X0237440Y0549250D03*
X0102550Y0471750D03*
X0097440Y0471750D03*
X0087550Y0471750D03*
X0082440Y0471750D03*
X0082440Y0416750D03*
X0087550Y0416750D03*
X0097440Y0416750D03*
X0102550Y0416750D03*
D30*
X0107500Y0435510D03*
X0107500Y0442990D03*
X0137500Y0505510D03*
X0137500Y0512990D03*
X0180000Y0535510D03*
X0180000Y0542990D03*
D55*
X0170000Y0514760D03*
X0170000Y0503740D03*
X0080000Y0618740D03*
X0080000Y0629760D03*
D10*
X0119150Y0599250D03*
X0125840Y0599250D03*
X0106240Y0481750D03*
X0098760Y0481750D03*
X0088740Y0461750D03*
X0081260Y0461750D03*
X0081260Y0449250D03*
X0088740Y0449250D03*
X0088740Y0436750D03*
X0081260Y0436750D03*
X0081260Y0424250D03*
X0088740Y0424250D03*
X0131650Y0474250D03*
X0138340Y0474250D03*
X0163760Y0461750D03*
X0171240Y0461750D03*
X0171240Y0449250D03*
X0163760Y0449250D03*
X0163760Y0436750D03*
X0171240Y0436750D03*
X0171240Y0424250D03*
X0163760Y0424250D03*
D148*
X0237500Y0474190D03*
X0242500Y0474190D03*
X0247500Y0474190D03*
X0247500Y0479310D03*
X0242500Y0479310D03*
X0237500Y0479310D03*
X0237500Y0489190D03*
X0242500Y0489190D03*
X0247500Y0489190D03*
X0247500Y0494310D03*
X0242500Y0494310D03*
X0237500Y0494310D03*
D27*
X0145000Y0600900D03*
X0145000Y0607600D03*
X0145000Y0615900D03*
X0145000Y0622600D03*
D133*
X0065000Y0629250D03*
X0065000Y0589250D03*
D128*
X0272500Y0484250D03*
D41*
X0262500Y0484250D03*
X0262500Y0494250D03*
X0272500Y0494250D03*
X0272500Y0504250D03*
X0272500Y0514250D03*
X0272500Y0524250D03*
X0262500Y0524250D03*
X0262500Y0514250D03*
X0262500Y0504250D03*
X0262500Y0534250D03*
X0272500Y0534250D03*
X0272500Y0544250D03*
X0272500Y0554250D03*
X0262500Y0554250D03*
X0262500Y0544250D03*
D120*
X0179920Y0605430D03*
X0179920Y0629920D03*
D145*
X0208920Y0610300D03*
X0167460Y0564850D03*
X0152190Y0554220D03*
X0127000Y0565810D03*
X0126530Y0575500D03*
X0125840Y0593230D03*
X0079530Y0575790D03*
X0080230Y0511310D03*
X0080230Y0492110D03*
X0092500Y0471750D03*
X0109290Y0475060D03*
X0118530Y0462820D03*
X0106360Y0456590D03*
X0111400Y0450740D03*
X0115670Y0444790D03*
X0129800Y0445250D03*
X0134200Y0439250D03*
X0139200Y0450250D03*
X0133000Y0456250D03*
X0151460Y0451580D03*
X0153950Y0458700D03*
X0153260Y0465790D03*
X0159410Y0476340D03*
X0204940Y0510620D03*
X0208860Y0507470D03*
X0235720Y0520830D03*
X0215990Y0535580D03*
X0247100Y0547840D03*
X0247020Y0553430D03*
X0242500Y0484220D03*
X0242500Y0469710D03*
X0237840Y0466700D03*
X0219900Y0476130D03*
X0180530Y0439490D03*
X0119080Y0430540D03*
X0099480Y0429960D03*
X0010000Y0645810D02*
G75*
%LPD*%
D143*
X0021810Y0657620D03*
X0132050Y0734390D03*
X0023780Y0821010D03*
X0273780Y0821010D03*
X0273780Y0661560D03*
D49*
X0099000Y0784210D03*
X0099000Y0786710D03*
X0099000Y0789310D03*
X0099000Y0791810D03*
X0099000Y0794410D03*
X0099000Y0797010D03*
X0099000Y0799510D03*
X0099000Y0802110D03*
X0099000Y0804610D03*
X0099000Y0807210D03*
X0099000Y0809810D03*
X0099000Y0812310D03*
X0099000Y0814910D03*
X0099000Y0817410D03*
X0076000Y0817410D03*
X0076000Y0814910D03*
X0076000Y0812310D03*
X0076000Y0809810D03*
X0076000Y0807210D03*
X0076000Y0804610D03*
X0076000Y0802110D03*
X0076000Y0799510D03*
X0076000Y0797010D03*
X0076000Y0794410D03*
X0076000Y0791810D03*
X0076000Y0789310D03*
X0076000Y0786710D03*
X0076000Y0784210D03*
D22*
X0223800Y0771210D03*
X0231200Y0771210D03*
X0231200Y0760410D03*
X0227500Y0760410D03*
X0223800Y0760410D03*
D152*
X0207500Y0743590D03*
X0207500Y0703030D03*
D51*
X0224150Y0778310D03*
X0230850Y0778310D03*
X0060850Y0778310D03*
X0054150Y0778310D03*
X0043350Y0778310D03*
X0036650Y0778310D03*
D131*
X0215000Y0769010D03*
X0215000Y0762610D03*
D105*
X0190400Y0782110D03*
X0190400Y0789510D03*
X0179600Y0789510D03*
X0179600Y0785810D03*
X0179600Y0782110D03*
X0170400Y0662010D03*
X0170400Y0654610D03*
X0159600Y0654610D03*
X0159600Y0658310D03*
X0159600Y0662010D03*
D36*
X0217220Y0670810D03*
X0257780Y0670810D03*
X0257780Y0808310D03*
X0217220Y0808310D03*
D27*
X0200000Y0789160D03*
X0200000Y0782460D03*
X0060850Y0788310D03*
X0054150Y0788310D03*
X0053350Y0735810D03*
X0046650Y0735810D03*
X0182500Y0661660D03*
X0182500Y0654960D03*
D91*
X0165700Y0670810D03*
X0159300Y0670810D03*
X0181800Y0798310D03*
X0188200Y0798310D03*
D141*
X0102200Y0673310D03*
X0102200Y0668310D03*
X0102200Y0663310D03*
X0102200Y0658310D03*
X0082800Y0658310D03*
X0082800Y0663310D03*
X0082800Y0668310D03*
X0082800Y0673310D03*
D127*
X0067300Y0674510D03*
X0067300Y0657500D03*
D146*
X0055810Y0658110D03*
X0038800Y0658110D03*
D37*
X0045000Y0745310D03*
X0050000Y0745310D03*
X0055000Y0745310D03*
X0060000Y0745310D03*
X0060000Y0766310D03*
X0055000Y0766310D03*
X0050000Y0766310D03*
X0045000Y0766310D03*
D135*
X0052500Y0755810D03*
D55*
X0035000Y0758820D03*
X0035000Y0747800D03*
D30*
X0070000Y0749960D03*
X0070000Y0756660D03*
D133*
X0060000Y0720810D03*
X0020000Y0720810D03*
D20*
X0072500Y0715810D03*
X0085000Y0715810D03*
X0085000Y0685810D03*
X0072500Y0685810D03*
D73*
X0047010Y0684900D03*
X0250490Y0742620D03*
D97*
X0238680Y0742620D03*
X0238680Y0730810D03*
X0250490Y0730810D03*
X0250490Y0719000D03*
X0238680Y0719000D03*
X0058820Y0696720D03*
X0047010Y0696720D03*
X0058820Y0684900D03*
D70*
X0030000Y0690810D03*
X0267500Y0730810D03*
D61*
X0206320Y0763230D03*
X0181830Y0763230D03*
X0183820Y0818230D03*
X0159330Y0818230D03*
X0176830Y0683230D03*
X0201320Y0683230D03*
D148*
X0132500Y0790750D03*
X0127500Y0790750D03*
X0122500Y0790750D03*
X0122500Y0795870D03*
X0127500Y0795870D03*
X0132500Y0795870D03*
X0132500Y0808250D03*
X0127500Y0808250D03*
X0122500Y0808250D03*
X0122500Y0813370D03*
X0127500Y0813370D03*
X0132500Y0813370D03*
D145*
X0127500Y0800470D03*
X0123100Y0786110D03*
X0109160Y0786710D03*
X0104940Y0798960D03*
X0181670Y0774600D03*
X0205440Y0782260D03*
X0213100Y0757800D03*
X0193830Y0743450D03*
M02*
