G75*
G70*
%OFA0B0*%
%FSLAX25Y25*%
%IPPOS*%
%LPD*%
%AMOC8*
5,1,8,0,0,1.08239X$1,22.5*
%
%ADD104C,0.00000*%
X0010000Y0010000D02*
G75*
%LPD*%
D104*
X0010000Y0010000D02*
X0010000Y0324960D01*
X0403700Y0324960D01*
X0403700Y0010000D01*
X0010000Y0010000D01*
X0015700Y0022000D02*
X0015720Y0022500D01*
X0015780Y0023000D01*
X0015880Y0023490D01*
X0016020Y0023970D01*
X0016190Y0024440D01*
X0016400Y0024890D01*
X0016650Y0025330D01*
X0016930Y0025740D01*
X0017250Y0026130D01*
X0017590Y0026500D01*
X0017960Y0026840D01*
X0018360Y0027140D01*
X0018780Y0027410D01*
X0019220Y0027650D01*
X0019680Y0027860D01*
X0020150Y0028020D01*
X0020630Y0028150D01*
X0021130Y0028240D01*
X0021620Y0028290D01*
X0022130Y0028300D01*
X0022630Y0028270D01*
X0023120Y0028200D01*
X0023610Y0028090D01*
X0024090Y0027940D01*
X0024550Y0027760D01*
X0025000Y0027540D01*
X0025430Y0027280D01*
X0025840Y0026990D01*
X0026230Y0026670D01*
X0026590Y0026320D01*
X0026910Y0025940D01*
X0027210Y0025540D01*
X0027480Y0025110D01*
X0027710Y0024670D01*
X0027900Y0024210D01*
X0028060Y0023730D01*
X0028180Y0023240D01*
X0028260Y0022750D01*
X0028300Y0022250D01*
X0028300Y0021750D01*
X0028260Y0021250D01*
X0028180Y0020760D01*
X0028060Y0020270D01*
X0027900Y0019790D01*
X0027710Y0019330D01*
X0027480Y0018890D01*
X0027210Y0018460D01*
X0026910Y0018060D01*
X0026590Y0017680D01*
X0026230Y0017330D01*
X0025840Y0017010D01*
X0025430Y0016720D01*
X0025000Y0016460D01*
X0024550Y0016240D01*
X0024090Y0016060D01*
X0023610Y0015910D01*
X0023120Y0015800D01*
X0022630Y0015730D01*
X0022130Y0015700D01*
X0021620Y0015710D01*
X0021130Y0015760D01*
X0020630Y0015850D01*
X0020150Y0015980D01*
X0019680Y0016140D01*
X0019220Y0016350D01*
X0018780Y0016590D01*
X0018360Y0016860D01*
X0017960Y0017160D01*
X0017590Y0017500D01*
X0017250Y0017870D01*
X0016930Y0018260D01*
X0016650Y0018670D01*
X0016400Y0019110D01*
X0016190Y0019560D01*
X0016020Y0020030D01*
X0015880Y0020510D01*
X0015780Y0021000D01*
X0015720Y0021500D01*
X0015700Y0022000D01*
X0049090Y0269000D02*
X0049110Y0269480D01*
X0049170Y0269960D01*
X0049270Y0270430D01*
X0049400Y0270890D01*
X0049580Y0271340D01*
X0049780Y0271780D01*
X0050030Y0272200D01*
X0050310Y0272590D01*
X0050610Y0272960D01*
X0050950Y0273300D01*
X0051320Y0273620D01*
X0051700Y0273910D01*
X0052110Y0274160D01*
X0052540Y0274380D01*
X0052990Y0274560D01*
X0053450Y0274700D01*
X0053920Y0274810D01*
X0054400Y0274880D01*
X0054880Y0274910D01*
X0055360Y0274900D01*
X0055840Y0274850D01*
X0056320Y0274760D01*
X0056780Y0274640D01*
X0057230Y0274470D01*
X0057670Y0274270D01*
X0058090Y0274040D01*
X0058490Y0273770D01*
X0058870Y0273470D01*
X0059220Y0273140D01*
X0059540Y0272780D01*
X0059840Y0272400D01*
X0060100Y0271990D01*
X0060320Y0271560D01*
X0060520Y0271120D01*
X0060670Y0270670D01*
X0060790Y0270200D01*
X0060870Y0269720D01*
X0060910Y0269240D01*
X0060910Y0268760D01*
X0060870Y0268280D01*
X0060790Y0267800D01*
X0060670Y0267330D01*
X0060520Y0266880D01*
X0060320Y0266440D01*
X0060100Y0266010D01*
X0059840Y0265600D01*
X0059540Y0265220D01*
X0059220Y0264860D01*
X0058870Y0264530D01*
X0058490Y0264230D01*
X0058090Y0263960D01*
X0057670Y0263730D01*
X0057230Y0263530D01*
X0056780Y0263360D01*
X0056320Y0263240D01*
X0055840Y0263150D01*
X0055360Y0263100D01*
X0054880Y0263090D01*
X0054400Y0263120D01*
X0053920Y0263190D01*
X0053450Y0263300D01*
X0052990Y0263440D01*
X0052540Y0263620D01*
X0052110Y0263840D01*
X0051700Y0264090D01*
X0051320Y0264380D01*
X0050950Y0264700D01*
X0050610Y0265040D01*
X0050310Y0265410D01*
X0050030Y0265800D01*
X0049780Y0266220D01*
X0049580Y0266660D01*
X0049400Y0267110D01*
X0049270Y0267570D01*
X0049170Y0268040D01*
X0049110Y0268520D01*
X0049090Y0269000D01*
X0015700Y0271000D02*
X0015720Y0271500D01*
X0015780Y0272000D01*
X0015880Y0272490D01*
X0016020Y0272970D01*
X0016190Y0273440D01*
X0016400Y0273890D01*
X0016650Y0274330D01*
X0016930Y0274740D01*
X0017250Y0275130D01*
X0017590Y0275500D01*
X0017960Y0275840D01*
X0018360Y0276140D01*
X0018780Y0276410D01*
X0019220Y0276650D01*
X0019680Y0276860D01*
X0020150Y0277020D01*
X0020630Y0277150D01*
X0021130Y0277240D01*
X0021620Y0277290D01*
X0022130Y0277300D01*
X0022630Y0277270D01*
X0023120Y0277200D01*
X0023610Y0277090D01*
X0024090Y0276940D01*
X0024550Y0276760D01*
X0025000Y0276540D01*
X0025430Y0276280D01*
X0025840Y0275990D01*
X0026230Y0275670D01*
X0026590Y0275320D01*
X0026910Y0274940D01*
X0027210Y0274540D01*
X0027480Y0274110D01*
X0027710Y0273670D01*
X0027900Y0273210D01*
X0028060Y0272730D01*
X0028180Y0272240D01*
X0028260Y0271750D01*
X0028300Y0271250D01*
X0028300Y0270750D01*
X0028260Y0270250D01*
X0028180Y0269760D01*
X0028060Y0269270D01*
X0027900Y0268790D01*
X0027710Y0268330D01*
X0027480Y0267890D01*
X0027210Y0267460D01*
X0026910Y0267060D01*
X0026590Y0266680D01*
X0026230Y0266330D01*
X0025840Y0266010D01*
X0025430Y0265720D01*
X0025000Y0265460D01*
X0024550Y0265240D01*
X0024090Y0265060D01*
X0023610Y0264910D01*
X0023120Y0264800D01*
X0022630Y0264730D01*
X0022130Y0264700D01*
X0021620Y0264710D01*
X0021130Y0264760D01*
X0020630Y0264850D01*
X0020150Y0264980D01*
X0019680Y0265140D01*
X0019220Y0265350D01*
X0018780Y0265590D01*
X0018360Y0265860D01*
X0017960Y0266160D01*
X0017590Y0266500D01*
X0017250Y0266870D01*
X0016930Y0267260D01*
X0016650Y0267670D01*
X0016400Y0268110D01*
X0016190Y0268560D01*
X0016020Y0269030D01*
X0015880Y0269510D01*
X0015780Y0270000D01*
X0015720Y0270500D01*
X0015700Y0271000D01*
X0375470Y0153870D02*
X0375490Y0154290D01*
X0375550Y0154710D01*
X0375650Y0155130D01*
X0375780Y0155530D01*
X0375960Y0155920D01*
X0376170Y0156290D01*
X0376410Y0156630D01*
X0376690Y0156960D01*
X0376990Y0157260D01*
X0377320Y0157520D01*
X0377670Y0157760D01*
X0378050Y0157960D01*
X0378440Y0158120D01*
X0378840Y0158250D01*
X0379260Y0158340D01*
X0379680Y0158390D01*
X0380110Y0158400D01*
X0380530Y0158370D01*
X0380950Y0158300D01*
X0381360Y0158190D01*
X0381760Y0158040D01*
X0382140Y0157860D01*
X0382510Y0157640D01*
X0382850Y0157390D01*
X0383170Y0157110D01*
X0383450Y0156800D01*
X0383710Y0156460D01*
X0383940Y0156100D01*
X0384130Y0155730D01*
X0384290Y0155330D01*
X0384410Y0154920D01*
X0384490Y0154510D01*
X0384530Y0154080D01*
X0384530Y0153660D01*
X0384490Y0153230D01*
X0384410Y0152820D01*
X0384290Y0152410D01*
X0384130Y0152010D01*
X0383940Y0151640D01*
X0383710Y0151280D01*
X0383450Y0150940D01*
X0383170Y0150630D01*
X0382850Y0150350D01*
X0382510Y0150100D01*
X0382140Y0149880D01*
X0381760Y0149700D01*
X0381360Y0149550D01*
X0380950Y0149440D01*
X0380530Y0149370D01*
X0380110Y0149340D01*
X0379680Y0149350D01*
X0379260Y0149400D01*
X0378840Y0149490D01*
X0378440Y0149620D01*
X0378050Y0149780D01*
X0377670Y0149980D01*
X0377320Y0150220D01*
X0376990Y0150480D01*
X0376690Y0150780D01*
X0376410Y0151110D01*
X0376170Y0151450D01*
X0375960Y0151820D01*
X0375780Y0152210D01*
X0375650Y0152610D01*
X0375550Y0153030D01*
X0375490Y0153450D01*
X0375470Y0153870D01*
X0375470Y0102140D02*
X0375490Y0102560D01*
X0375550Y0102980D01*
X0375650Y0103400D01*
X0375780Y0103800D01*
X0375960Y0104190D01*
X0376170Y0104560D01*
X0376410Y0104900D01*
X0376690Y0105230D01*
X0376990Y0105530D01*
X0377320Y0105790D01*
X0377670Y0106030D01*
X0378050Y0106230D01*
X0378440Y0106390D01*
X0378840Y0106520D01*
X0379260Y0106610D01*
X0379680Y0106660D01*
X0380110Y0106670D01*
X0380530Y0106640D01*
X0380950Y0106570D01*
X0381360Y0106460D01*
X0381760Y0106310D01*
X0382140Y0106130D01*
X0382510Y0105910D01*
X0382850Y0105660D01*
X0383170Y0105380D01*
X0383450Y0105070D01*
X0383710Y0104730D01*
X0383940Y0104370D01*
X0384130Y0104000D01*
X0384290Y0103600D01*
X0384410Y0103190D01*
X0384490Y0102780D01*
X0384530Y0102350D01*
X0384530Y0101930D01*
X0384490Y0101500D01*
X0384410Y0101090D01*
X0384290Y0100680D01*
X0384130Y0100280D01*
X0383940Y0099910D01*
X0383710Y0099550D01*
X0383450Y0099210D01*
X0383170Y0098900D01*
X0382850Y0098620D01*
X0382510Y0098370D01*
X0382140Y0098150D01*
X0381760Y0097970D01*
X0381360Y0097820D01*
X0380950Y0097710D01*
X0380530Y0097640D01*
X0380110Y0097610D01*
X0379680Y0097620D01*
X0379260Y0097670D01*
X0378840Y0097760D01*
X0378440Y0097890D01*
X0378050Y0098050D01*
X0377670Y0098250D01*
X0377320Y0098490D01*
X0376990Y0098750D01*
X0376690Y0099050D01*
X0376410Y0099380D01*
X0376170Y0099720D01*
X0375960Y0100090D01*
X0375780Y0100480D01*
X0375650Y0100880D01*
X0375550Y0101300D01*
X0375490Y0101720D01*
X0375470Y0102140D01*
X0385700Y0023000D02*
X0385720Y0023500D01*
X0385780Y0024000D01*
X0385880Y0024490D01*
X0386020Y0024970D01*
X0386190Y0025440D01*
X0386400Y0025890D01*
X0386650Y0026330D01*
X0386930Y0026740D01*
X0387250Y0027130D01*
X0387590Y0027500D01*
X0387960Y0027840D01*
X0388360Y0028140D01*
X0388780Y0028410D01*
X0389220Y0028650D01*
X0389680Y0028860D01*
X0390150Y0029020D01*
X0390630Y0029150D01*
X0391130Y0029240D01*
X0391620Y0029290D01*
X0392130Y0029300D01*
X0392630Y0029270D01*
X0393120Y0029200D01*
X0393610Y0029090D01*
X0394090Y0028940D01*
X0394550Y0028760D01*
X0395000Y0028540D01*
X0395430Y0028280D01*
X0395840Y0027990D01*
X0396230Y0027670D01*
X0396590Y0027320D01*
X0396910Y0026940D01*
X0397210Y0026540D01*
X0397480Y0026110D01*
X0397710Y0025670D01*
X0397900Y0025210D01*
X0398060Y0024730D01*
X0398180Y0024240D01*
X0398260Y0023750D01*
X0398300Y0023250D01*
X0398300Y0022750D01*
X0398260Y0022250D01*
X0398180Y0021760D01*
X0398060Y0021270D01*
X0397900Y0020790D01*
X0397710Y0020330D01*
X0397480Y0019890D01*
X0397210Y0019460D01*
X0396910Y0019060D01*
X0396590Y0018680D01*
X0396230Y0018330D01*
X0395840Y0018010D01*
X0395430Y0017720D01*
X0395000Y0017460D01*
X0394550Y0017240D01*
X0394090Y0017060D01*
X0393610Y0016910D01*
X0393120Y0016800D01*
X0392630Y0016730D01*
X0392130Y0016700D01*
X0391620Y0016710D01*
X0391130Y0016760D01*
X0390630Y0016850D01*
X0390150Y0016980D01*
X0389680Y0017140D01*
X0389220Y0017350D01*
X0388780Y0017590D01*
X0388360Y0017860D01*
X0387960Y0018160D01*
X0387590Y0018500D01*
X0387250Y0018870D01*
X0386930Y0019260D01*
X0386650Y0019670D01*
X0386400Y0020110D01*
X0386190Y0020560D01*
X0386020Y0021030D01*
X0385880Y0021510D01*
X0385780Y0022000D01*
X0385720Y0022500D01*
X0385700Y0023000D01*
X0378090Y0206750D02*
X0378110Y0207230D01*
X0378170Y0207710D01*
X0378270Y0208180D01*
X0378400Y0208640D01*
X0378580Y0209090D01*
X0378780Y0209530D01*
X0379030Y0209950D01*
X0379310Y0210340D01*
X0379610Y0210710D01*
X0379950Y0211050D01*
X0380320Y0211370D01*
X0380700Y0211660D01*
X0381110Y0211910D01*
X0381540Y0212130D01*
X0381990Y0212310D01*
X0382450Y0212450D01*
X0382920Y0212560D01*
X0383400Y0212630D01*
X0383880Y0212660D01*
X0384360Y0212650D01*
X0384840Y0212600D01*
X0385320Y0212510D01*
X0385780Y0212390D01*
X0386230Y0212220D01*
X0386670Y0212020D01*
X0387090Y0211790D01*
X0387490Y0211520D01*
X0387870Y0211220D01*
X0388220Y0210890D01*
X0388540Y0210530D01*
X0388840Y0210150D01*
X0389100Y0209740D01*
X0389320Y0209310D01*
X0389520Y0208870D01*
X0389670Y0208420D01*
X0389790Y0207950D01*
X0389870Y0207470D01*
X0389910Y0206990D01*
X0389910Y0206510D01*
X0389870Y0206030D01*
X0389790Y0205550D01*
X0389670Y0205080D01*
X0389520Y0204630D01*
X0389320Y0204190D01*
X0389100Y0203760D01*
X0388840Y0203350D01*
X0388540Y0202970D01*
X0388220Y0202610D01*
X0387870Y0202280D01*
X0387490Y0201980D01*
X0387090Y0201710D01*
X0386670Y0201480D01*
X0386230Y0201280D01*
X0385780Y0201110D01*
X0385320Y0200990D01*
X0384840Y0200900D01*
X0384360Y0200850D01*
X0383880Y0200840D01*
X0383400Y0200870D01*
X0382920Y0200940D01*
X0382450Y0201050D01*
X0381990Y0201190D01*
X0381540Y0201370D01*
X0381110Y0201590D01*
X0380700Y0201840D01*
X0380320Y0202130D01*
X0379950Y0202450D01*
X0379610Y0202790D01*
X0379310Y0203160D01*
X0379030Y0203550D01*
X0378780Y0203970D01*
X0378580Y0204410D01*
X0378400Y0204860D01*
X0378270Y0205320D01*
X0378170Y0205790D01*
X0378110Y0206270D01*
X0378090Y0206750D01*
X0378090Y0225250D02*
X0378110Y0225730D01*
X0378170Y0226210D01*
X0378270Y0226680D01*
X0378400Y0227140D01*
X0378580Y0227590D01*
X0378780Y0228030D01*
X0379030Y0228450D01*
X0379310Y0228840D01*
X0379610Y0229210D01*
X0379950Y0229550D01*
X0380320Y0229870D01*
X0380700Y0230160D01*
X0381110Y0230410D01*
X0381540Y0230630D01*
X0381990Y0230810D01*
X0382450Y0230950D01*
X0382920Y0231060D01*
X0383400Y0231130D01*
X0383880Y0231160D01*
X0384360Y0231150D01*
X0384840Y0231100D01*
X0385320Y0231010D01*
X0385780Y0230890D01*
X0386230Y0230720D01*
X0386670Y0230520D01*
X0387090Y0230290D01*
X0387490Y0230020D01*
X0387870Y0229720D01*
X0388220Y0229390D01*
X0388540Y0229030D01*
X0388840Y0228650D01*
X0389100Y0228240D01*
X0389320Y0227810D01*
X0389520Y0227370D01*
X0389670Y0226920D01*
X0389790Y0226450D01*
X0389870Y0225970D01*
X0389910Y0225490D01*
X0389910Y0225010D01*
X0389870Y0224530D01*
X0389790Y0224050D01*
X0389670Y0223580D01*
X0389520Y0223130D01*
X0389320Y0222690D01*
X0389100Y0222260D01*
X0388840Y0221850D01*
X0388540Y0221470D01*
X0388220Y0221110D01*
X0387870Y0220780D01*
X0387490Y0220480D01*
X0387090Y0220210D01*
X0386670Y0219980D01*
X0386230Y0219780D01*
X0385780Y0219610D01*
X0385320Y0219490D01*
X0384840Y0219400D01*
X0384360Y0219350D01*
X0383880Y0219340D01*
X0383400Y0219370D01*
X0382920Y0219440D01*
X0382450Y0219550D01*
X0381990Y0219690D01*
X0381540Y0219870D01*
X0381110Y0220090D01*
X0380700Y0220340D01*
X0380320Y0220630D01*
X0379950Y0220950D01*
X0379610Y0221290D01*
X0379310Y0221660D01*
X0379030Y0222050D01*
X0378780Y0222470D01*
X0378580Y0222910D01*
X0378400Y0223360D01*
X0378270Y0223820D01*
X0378170Y0224290D01*
X0378110Y0224770D01*
X0378090Y0225250D01*
X0383700Y0272000D02*
X0383720Y0272500D01*
X0383780Y0273000D01*
X0383880Y0273490D01*
X0384020Y0273970D01*
X0384190Y0274440D01*
X0384400Y0274890D01*
X0384650Y0275330D01*
X0384930Y0275740D01*
X0385250Y0276130D01*
X0385590Y0276500D01*
X0385960Y0276840D01*
X0386360Y0277140D01*
X0386780Y0277410D01*
X0387220Y0277650D01*
X0387680Y0277860D01*
X0388150Y0278020D01*
X0388630Y0278150D01*
X0389130Y0278240D01*
X0389620Y0278290D01*
X0390130Y0278300D01*
X0390630Y0278270D01*
X0391120Y0278200D01*
X0391610Y0278090D01*
X0392090Y0277940D01*
X0392550Y0277760D01*
X0393000Y0277540D01*
X0393430Y0277280D01*
X0393840Y0276990D01*
X0394230Y0276670D01*
X0394590Y0276320D01*
X0394910Y0275940D01*
X0395210Y0275540D01*
X0395480Y0275110D01*
X0395710Y0274670D01*
X0395900Y0274210D01*
X0396060Y0273730D01*
X0396180Y0273240D01*
X0396260Y0272750D01*
X0396300Y0272250D01*
X0396300Y0271750D01*
X0396260Y0271250D01*
X0396180Y0270760D01*
X0396060Y0270270D01*
X0395900Y0269790D01*
X0395710Y0269330D01*
X0395480Y0268890D01*
X0395210Y0268460D01*
X0394910Y0268060D01*
X0394590Y0267680D01*
X0394230Y0267330D01*
X0393840Y0267010D01*
X0393430Y0266720D01*
X0393000Y0266460D01*
X0392550Y0266240D01*
X0392090Y0266060D01*
X0391610Y0265910D01*
X0391120Y0265800D01*
X0390630Y0265730D01*
X0390130Y0265700D01*
X0389620Y0265710D01*
X0389130Y0265760D01*
X0388630Y0265850D01*
X0388150Y0265980D01*
X0387680Y0266140D01*
X0387220Y0266350D01*
X0386780Y0266590D01*
X0386360Y0266860D01*
X0385960Y0267160D01*
X0385590Y0267500D01*
X0385250Y0267870D01*
X0384930Y0268260D01*
X0384650Y0268670D01*
X0384400Y0269110D01*
X0384190Y0269560D01*
X0384020Y0270030D01*
X0383880Y0270510D01*
X0383780Y0271000D01*
X0383720Y0271500D01*
X0383700Y0272000D01*
X0010000Y0331210D02*
G75*
%LPD*%
D104*
X0010000Y0331210D02*
X0010000Y0561520D01*
X0281660Y0561520D01*
X0281660Y0331210D01*
X0010000Y0331210D01*
X0018700Y0346210D02*
X0018720Y0346710D01*
X0018780Y0347210D01*
X0018880Y0347700D01*
X0019020Y0348180D01*
X0019190Y0348650D01*
X0019400Y0349100D01*
X0019650Y0349540D01*
X0019930Y0349950D01*
X0020250Y0350340D01*
X0020590Y0350710D01*
X0020960Y0351050D01*
X0021360Y0351350D01*
X0021780Y0351620D01*
X0022220Y0351860D01*
X0022680Y0352070D01*
X0023150Y0352230D01*
X0023630Y0352360D01*
X0024130Y0352450D01*
X0024620Y0352500D01*
X0025130Y0352510D01*
X0025630Y0352480D01*
X0026120Y0352410D01*
X0026610Y0352300D01*
X0027090Y0352150D01*
X0027550Y0351970D01*
X0028000Y0351750D01*
X0028430Y0351490D01*
X0028840Y0351200D01*
X0029230Y0350880D01*
X0029590Y0350530D01*
X0029910Y0350150D01*
X0030210Y0349750D01*
X0030480Y0349320D01*
X0030710Y0348880D01*
X0030900Y0348420D01*
X0031060Y0347940D01*
X0031180Y0347450D01*
X0031260Y0346960D01*
X0031300Y0346460D01*
X0031300Y0345960D01*
X0031260Y0345460D01*
X0031180Y0344970D01*
X0031060Y0344480D01*
X0030900Y0344000D01*
X0030710Y0343540D01*
X0030480Y0343100D01*
X0030210Y0342670D01*
X0029910Y0342270D01*
X0029590Y0341890D01*
X0029230Y0341540D01*
X0028840Y0341220D01*
X0028430Y0340930D01*
X0028000Y0340670D01*
X0027550Y0340450D01*
X0027090Y0340270D01*
X0026610Y0340120D01*
X0026120Y0340010D01*
X0025630Y0339940D01*
X0025130Y0339910D01*
X0024620Y0339920D01*
X0024130Y0339970D01*
X0023630Y0340060D01*
X0023150Y0340190D01*
X0022680Y0340350D01*
X0022220Y0340560D01*
X0021780Y0340800D01*
X0021360Y0341070D01*
X0020960Y0341370D01*
X0020590Y0341710D01*
X0020250Y0342080D01*
X0019930Y0342470D01*
X0019650Y0342880D01*
X0019400Y0343320D01*
X0019190Y0343770D01*
X0019020Y0344240D01*
X0018880Y0344720D01*
X0018780Y0345210D01*
X0018720Y0345710D01*
X0018700Y0346210D01*
X0019090Y0426210D02*
X0019110Y0426690D01*
X0019170Y0427170D01*
X0019270Y0427640D01*
X0019400Y0428100D01*
X0019580Y0428550D01*
X0019780Y0428990D01*
X0020030Y0429410D01*
X0020310Y0429800D01*
X0020610Y0430170D01*
X0020950Y0430510D01*
X0021320Y0430830D01*
X0021700Y0431120D01*
X0022110Y0431370D01*
X0022540Y0431590D01*
X0022990Y0431770D01*
X0023450Y0431910D01*
X0023920Y0432020D01*
X0024400Y0432090D01*
X0024880Y0432120D01*
X0025360Y0432110D01*
X0025840Y0432060D01*
X0026320Y0431970D01*
X0026780Y0431850D01*
X0027230Y0431680D01*
X0027670Y0431480D01*
X0028090Y0431250D01*
X0028490Y0430980D01*
X0028870Y0430680D01*
X0029220Y0430350D01*
X0029540Y0429990D01*
X0029840Y0429610D01*
X0030100Y0429200D01*
X0030320Y0428770D01*
X0030520Y0428330D01*
X0030670Y0427880D01*
X0030790Y0427410D01*
X0030870Y0426930D01*
X0030910Y0426450D01*
X0030910Y0425970D01*
X0030870Y0425490D01*
X0030790Y0425010D01*
X0030670Y0424540D01*
X0030520Y0424090D01*
X0030320Y0423650D01*
X0030100Y0423220D01*
X0029840Y0422810D01*
X0029540Y0422430D01*
X0029220Y0422070D01*
X0028870Y0421740D01*
X0028490Y0421440D01*
X0028090Y0421170D01*
X0027670Y0420940D01*
X0027230Y0420740D01*
X0026780Y0420570D01*
X0026320Y0420450D01*
X0025840Y0420360D01*
X0025360Y0420310D01*
X0024880Y0420300D01*
X0024400Y0420330D01*
X0023920Y0420400D01*
X0023450Y0420510D01*
X0022990Y0420650D01*
X0022540Y0420830D01*
X0022110Y0421050D01*
X0021700Y0421300D01*
X0021320Y0421590D01*
X0020950Y0421910D01*
X0020610Y0422250D01*
X0020310Y0422620D01*
X0020030Y0423010D01*
X0019780Y0423430D01*
X0019580Y0423870D01*
X0019400Y0424320D01*
X0019270Y0424780D01*
X0019170Y0425250D01*
X0019110Y0425730D01*
X0019090Y0426210D01*
X0019090Y0471210D02*
X0019110Y0471690D01*
X0019170Y0472170D01*
X0019270Y0472640D01*
X0019400Y0473100D01*
X0019580Y0473550D01*
X0019780Y0473990D01*
X0020030Y0474410D01*
X0020310Y0474800D01*
X0020610Y0475170D01*
X0020950Y0475510D01*
X0021320Y0475830D01*
X0021700Y0476120D01*
X0022110Y0476370D01*
X0022540Y0476590D01*
X0022990Y0476770D01*
X0023450Y0476910D01*
X0023920Y0477020D01*
X0024400Y0477090D01*
X0024880Y0477120D01*
X0025360Y0477110D01*
X0025840Y0477060D01*
X0026320Y0476970D01*
X0026780Y0476850D01*
X0027230Y0476680D01*
X0027670Y0476480D01*
X0028090Y0476250D01*
X0028490Y0475980D01*
X0028870Y0475680D01*
X0029220Y0475350D01*
X0029540Y0474990D01*
X0029840Y0474610D01*
X0030100Y0474200D01*
X0030320Y0473770D01*
X0030520Y0473330D01*
X0030670Y0472880D01*
X0030790Y0472410D01*
X0030870Y0471930D01*
X0030910Y0471450D01*
X0030910Y0470970D01*
X0030870Y0470490D01*
X0030790Y0470010D01*
X0030670Y0469540D01*
X0030520Y0469090D01*
X0030320Y0468650D01*
X0030100Y0468220D01*
X0029840Y0467810D01*
X0029540Y0467430D01*
X0029220Y0467070D01*
X0028870Y0466740D01*
X0028490Y0466440D01*
X0028090Y0466170D01*
X0027670Y0465940D01*
X0027230Y0465740D01*
X0026780Y0465570D01*
X0026320Y0465450D01*
X0025840Y0465360D01*
X0025360Y0465310D01*
X0024880Y0465300D01*
X0024400Y0465330D01*
X0023920Y0465400D01*
X0023450Y0465510D01*
X0022990Y0465650D01*
X0022540Y0465830D01*
X0022110Y0466050D01*
X0021700Y0466300D01*
X0021320Y0466590D01*
X0020950Y0466910D01*
X0020610Y0467250D01*
X0020310Y0467620D01*
X0020030Y0468010D01*
X0019780Y0468430D01*
X0019580Y0468870D01*
X0019400Y0469320D01*
X0019270Y0469780D01*
X0019170Y0470250D01*
X0019110Y0470730D01*
X0019090Y0471210D01*
X0019090Y0516210D02*
X0019110Y0516690D01*
X0019170Y0517170D01*
X0019270Y0517640D01*
X0019400Y0518100D01*
X0019580Y0518550D01*
X0019780Y0518990D01*
X0020030Y0519410D01*
X0020310Y0519800D01*
X0020610Y0520170D01*
X0020950Y0520510D01*
X0021320Y0520830D01*
X0021700Y0521120D01*
X0022110Y0521370D01*
X0022540Y0521590D01*
X0022990Y0521770D01*
X0023450Y0521910D01*
X0023920Y0522020D01*
X0024400Y0522090D01*
X0024880Y0522120D01*
X0025360Y0522110D01*
X0025840Y0522060D01*
X0026320Y0521970D01*
X0026780Y0521850D01*
X0027230Y0521680D01*
X0027670Y0521480D01*
X0028090Y0521250D01*
X0028490Y0520980D01*
X0028870Y0520680D01*
X0029220Y0520350D01*
X0029540Y0519990D01*
X0029840Y0519610D01*
X0030100Y0519200D01*
X0030320Y0518770D01*
X0030520Y0518330D01*
X0030670Y0517880D01*
X0030790Y0517410D01*
X0030870Y0516930D01*
X0030910Y0516450D01*
X0030910Y0515970D01*
X0030870Y0515490D01*
X0030790Y0515010D01*
X0030670Y0514540D01*
X0030520Y0514090D01*
X0030320Y0513650D01*
X0030100Y0513220D01*
X0029840Y0512810D01*
X0029540Y0512430D01*
X0029220Y0512070D01*
X0028870Y0511740D01*
X0028490Y0511440D01*
X0028090Y0511170D01*
X0027670Y0510940D01*
X0027230Y0510740D01*
X0026780Y0510570D01*
X0026320Y0510450D01*
X0025840Y0510360D01*
X0025360Y0510310D01*
X0024880Y0510300D01*
X0024400Y0510330D01*
X0023920Y0510400D01*
X0023450Y0510510D01*
X0022990Y0510650D01*
X0022540Y0510830D01*
X0022110Y0511050D01*
X0021700Y0511300D01*
X0021320Y0511590D01*
X0020950Y0511910D01*
X0020610Y0512250D01*
X0020310Y0512620D01*
X0020030Y0513010D01*
X0019780Y0513430D01*
X0019580Y0513870D01*
X0019400Y0514320D01*
X0019270Y0514780D01*
X0019170Y0515250D01*
X0019110Y0515730D01*
X0019090Y0516210D01*
X0018700Y0551210D02*
X0018720Y0551710D01*
X0018780Y0552210D01*
X0018880Y0552700D01*
X0019020Y0553180D01*
X0019190Y0553650D01*
X0019400Y0554100D01*
X0019650Y0554540D01*
X0019930Y0554950D01*
X0020250Y0555340D01*
X0020590Y0555710D01*
X0020960Y0556050D01*
X0021360Y0556350D01*
X0021780Y0556620D01*
X0022220Y0556860D01*
X0022680Y0557070D01*
X0023150Y0557230D01*
X0023630Y0557360D01*
X0024130Y0557450D01*
X0024620Y0557500D01*
X0025130Y0557510D01*
X0025630Y0557480D01*
X0026120Y0557410D01*
X0026610Y0557300D01*
X0027090Y0557150D01*
X0027550Y0556970D01*
X0028000Y0556750D01*
X0028430Y0556490D01*
X0028840Y0556200D01*
X0029230Y0555880D01*
X0029590Y0555530D01*
X0029910Y0555150D01*
X0030210Y0554750D01*
X0030480Y0554320D01*
X0030710Y0553880D01*
X0030900Y0553420D01*
X0031060Y0552940D01*
X0031180Y0552450D01*
X0031260Y0551960D01*
X0031300Y0551460D01*
X0031300Y0550960D01*
X0031260Y0550460D01*
X0031180Y0549970D01*
X0031060Y0549480D01*
X0030900Y0549000D01*
X0030710Y0548540D01*
X0030480Y0548100D01*
X0030210Y0547670D01*
X0029910Y0547270D01*
X0029590Y0546890D01*
X0029230Y0546540D01*
X0028840Y0546220D01*
X0028430Y0545930D01*
X0028000Y0545670D01*
X0027550Y0545450D01*
X0027090Y0545270D01*
X0026610Y0545120D01*
X0026120Y0545010D01*
X0025630Y0544940D01*
X0025130Y0544910D01*
X0024620Y0544920D01*
X0024130Y0544970D01*
X0023630Y0545060D01*
X0023150Y0545190D01*
X0022680Y0545350D01*
X0022220Y0545560D01*
X0021780Y0545800D01*
X0021360Y0546070D01*
X0020960Y0546370D01*
X0020590Y0546710D01*
X0020250Y0547080D01*
X0019930Y0547470D01*
X0019650Y0547880D01*
X0019400Y0548320D01*
X0019190Y0548770D01*
X0019020Y0549240D01*
X0018880Y0549720D01*
X0018780Y0550210D01*
X0018720Y0550710D01*
X0018700Y0551210D01*
X0258700Y0551210D02*
X0258720Y0551710D01*
X0258780Y0552210D01*
X0258880Y0552700D01*
X0259020Y0553180D01*
X0259190Y0553650D01*
X0259400Y0554100D01*
X0259650Y0554540D01*
X0259930Y0554950D01*
X0260250Y0555340D01*
X0260590Y0555710D01*
X0260960Y0556050D01*
X0261360Y0556350D01*
X0261780Y0556620D01*
X0262220Y0556860D01*
X0262680Y0557070D01*
X0263150Y0557230D01*
X0263630Y0557360D01*
X0264130Y0557450D01*
X0264620Y0557500D01*
X0265130Y0557510D01*
X0265630Y0557480D01*
X0266120Y0557410D01*
X0266610Y0557300D01*
X0267090Y0557150D01*
X0267550Y0556970D01*
X0268000Y0556750D01*
X0268430Y0556490D01*
X0268840Y0556200D01*
X0269230Y0555880D01*
X0269590Y0555530D01*
X0269910Y0555150D01*
X0270210Y0554750D01*
X0270480Y0554320D01*
X0270710Y0553880D01*
X0270900Y0553420D01*
X0271060Y0552940D01*
X0271180Y0552450D01*
X0271260Y0551960D01*
X0271300Y0551460D01*
X0271300Y0550960D01*
X0271260Y0550460D01*
X0271180Y0549970D01*
X0271060Y0549480D01*
X0270900Y0549000D01*
X0270710Y0548540D01*
X0270480Y0548100D01*
X0270210Y0547670D01*
X0269910Y0547270D01*
X0269590Y0546890D01*
X0269230Y0546540D01*
X0268840Y0546220D01*
X0268430Y0545930D01*
X0268000Y0545670D01*
X0267550Y0545450D01*
X0267090Y0545270D01*
X0266610Y0545120D01*
X0266120Y0545010D01*
X0265630Y0544940D01*
X0265130Y0544910D01*
X0264620Y0544920D01*
X0264130Y0544970D01*
X0263630Y0545060D01*
X0263150Y0545190D01*
X0262680Y0545350D01*
X0262220Y0545560D01*
X0261780Y0545800D01*
X0261360Y0546070D01*
X0260960Y0546370D01*
X0260590Y0546710D01*
X0260250Y0547080D01*
X0259930Y0547470D01*
X0259650Y0547880D01*
X0259400Y0548320D01*
X0259190Y0548770D01*
X0259020Y0549240D01*
X0258880Y0549720D01*
X0258780Y0550210D01*
X0258720Y0550710D01*
X0258700Y0551210D01*
X0259090Y0511210D02*
X0259110Y0511690D01*
X0259170Y0512170D01*
X0259270Y0512640D01*
X0259400Y0513100D01*
X0259580Y0513550D01*
X0259780Y0513990D01*
X0260030Y0514410D01*
X0260310Y0514800D01*
X0260610Y0515170D01*
X0260950Y0515510D01*
X0261320Y0515830D01*
X0261700Y0516120D01*
X0262110Y0516370D01*
X0262540Y0516590D01*
X0262990Y0516770D01*
X0263450Y0516910D01*
X0263920Y0517020D01*
X0264400Y0517090D01*
X0264880Y0517120D01*
X0265360Y0517110D01*
X0265840Y0517060D01*
X0266320Y0516970D01*
X0266780Y0516850D01*
X0267230Y0516680D01*
X0267670Y0516480D01*
X0268090Y0516250D01*
X0268490Y0515980D01*
X0268870Y0515680D01*
X0269220Y0515350D01*
X0269540Y0514990D01*
X0269840Y0514610D01*
X0270100Y0514200D01*
X0270320Y0513770D01*
X0270520Y0513330D01*
X0270670Y0512880D01*
X0270790Y0512410D01*
X0270870Y0511930D01*
X0270910Y0511450D01*
X0270910Y0510970D01*
X0270870Y0510490D01*
X0270790Y0510010D01*
X0270670Y0509540D01*
X0270520Y0509090D01*
X0270320Y0508650D01*
X0270100Y0508220D01*
X0269840Y0507810D01*
X0269540Y0507430D01*
X0269220Y0507070D01*
X0268870Y0506740D01*
X0268490Y0506440D01*
X0268090Y0506170D01*
X0267670Y0505940D01*
X0267230Y0505740D01*
X0266780Y0505570D01*
X0266320Y0505450D01*
X0265840Y0505360D01*
X0265360Y0505310D01*
X0264880Y0505300D01*
X0264400Y0505330D01*
X0263920Y0505400D01*
X0263450Y0505510D01*
X0262990Y0505650D01*
X0262540Y0505830D01*
X0262110Y0506050D01*
X0261700Y0506300D01*
X0261320Y0506590D01*
X0260950Y0506910D01*
X0260610Y0507250D01*
X0260310Y0507620D01*
X0260030Y0508010D01*
X0259780Y0508430D01*
X0259580Y0508870D01*
X0259400Y0509320D01*
X0259270Y0509780D01*
X0259170Y0510250D01*
X0259110Y0510730D01*
X0259090Y0511210D01*
X0261060Y0369240D02*
X0261080Y0369720D01*
X0261140Y0370200D01*
X0261240Y0370670D01*
X0261370Y0371130D01*
X0261550Y0371580D01*
X0261750Y0372020D01*
X0262000Y0372440D01*
X0262280Y0372830D01*
X0262580Y0373200D01*
X0262920Y0373540D01*
X0263290Y0373860D01*
X0263670Y0374150D01*
X0264080Y0374400D01*
X0264510Y0374620D01*
X0264960Y0374800D01*
X0265420Y0374940D01*
X0265890Y0375050D01*
X0266370Y0375120D01*
X0266850Y0375150D01*
X0267330Y0375140D01*
X0267810Y0375090D01*
X0268290Y0375000D01*
X0268750Y0374880D01*
X0269200Y0374710D01*
X0269640Y0374510D01*
X0270060Y0374280D01*
X0270460Y0374010D01*
X0270840Y0373710D01*
X0271190Y0373380D01*
X0271510Y0373020D01*
X0271810Y0372640D01*
X0272070Y0372230D01*
X0272290Y0371800D01*
X0272490Y0371360D01*
X0272640Y0370910D01*
X0272760Y0370440D01*
X0272840Y0369960D01*
X0272880Y0369480D01*
X0272880Y0369000D01*
X0272840Y0368520D01*
X0272760Y0368040D01*
X0272640Y0367570D01*
X0272490Y0367120D01*
X0272290Y0366680D01*
X0272070Y0366250D01*
X0271810Y0365840D01*
X0271510Y0365460D01*
X0271190Y0365100D01*
X0270840Y0364770D01*
X0270460Y0364470D01*
X0270060Y0364200D01*
X0269640Y0363970D01*
X0269200Y0363770D01*
X0268750Y0363600D01*
X0268290Y0363480D01*
X0267810Y0363390D01*
X0267330Y0363340D01*
X0266850Y0363330D01*
X0266370Y0363360D01*
X0265890Y0363430D01*
X0265420Y0363540D01*
X0264960Y0363680D01*
X0264510Y0363860D01*
X0264080Y0364080D01*
X0263670Y0364330D01*
X0263290Y0364620D01*
X0262920Y0364940D01*
X0262580Y0365280D01*
X0262280Y0365650D01*
X0262000Y0366040D01*
X0261750Y0366460D01*
X0261550Y0366900D01*
X0261370Y0367350D01*
X0261240Y0367810D01*
X0261140Y0368280D01*
X0261080Y0368760D01*
X0261060Y0369240D01*
X0263700Y0346210D02*
X0263720Y0346710D01*
X0263780Y0347210D01*
X0263880Y0347700D01*
X0264020Y0348180D01*
X0264190Y0348650D01*
X0264400Y0349100D01*
X0264650Y0349540D01*
X0264930Y0349950D01*
X0265250Y0350340D01*
X0265590Y0350710D01*
X0265960Y0351050D01*
X0266360Y0351350D01*
X0266780Y0351620D01*
X0267220Y0351860D01*
X0267680Y0352070D01*
X0268150Y0352230D01*
X0268630Y0352360D01*
X0269130Y0352450D01*
X0269620Y0352500D01*
X0270130Y0352510D01*
X0270630Y0352480D01*
X0271120Y0352410D01*
X0271610Y0352300D01*
X0272090Y0352150D01*
X0272550Y0351970D01*
X0273000Y0351750D01*
X0273430Y0351490D01*
X0273840Y0351200D01*
X0274230Y0350880D01*
X0274590Y0350530D01*
X0274910Y0350150D01*
X0275210Y0349750D01*
X0275480Y0349320D01*
X0275710Y0348880D01*
X0275900Y0348420D01*
X0276060Y0347940D01*
X0276180Y0347450D01*
X0276260Y0346960D01*
X0276300Y0346460D01*
X0276300Y0345960D01*
X0276260Y0345460D01*
X0276180Y0344970D01*
X0276060Y0344480D01*
X0275900Y0344000D01*
X0275710Y0343540D01*
X0275480Y0343100D01*
X0275210Y0342670D01*
X0274910Y0342270D01*
X0274590Y0341890D01*
X0274230Y0341540D01*
X0273840Y0341220D01*
X0273430Y0340930D01*
X0273000Y0340670D01*
X0272550Y0340450D01*
X0272090Y0340270D01*
X0271610Y0340120D01*
X0271120Y0340010D01*
X0270630Y0339940D01*
X0270130Y0339910D01*
X0269620Y0339920D01*
X0269130Y0339970D01*
X0268630Y0340060D01*
X0268150Y0340190D01*
X0267680Y0340350D01*
X0267220Y0340560D01*
X0266780Y0340800D01*
X0266360Y0341070D01*
X0265960Y0341370D01*
X0265590Y0341710D01*
X0265250Y0342080D01*
X0264930Y0342470D01*
X0264650Y0342880D01*
X0264400Y0343320D01*
X0264190Y0343770D01*
X0264020Y0344240D01*
X0263880Y0344720D01*
X0263780Y0345210D01*
X0263720Y0345710D01*
X0263700Y0346210D01*
X0010000Y0567770D02*
G75*
%LPD*%
D104*
X0010000Y0567770D02*
X0010000Y0729190D01*
X0277720Y0729190D01*
X0277720Y0567770D01*
X0010000Y0567770D01*
X0015510Y0579580D02*
X0015530Y0580080D01*
X0015590Y0580580D01*
X0015690Y0581070D01*
X0015830Y0581550D01*
X0016000Y0582020D01*
X0016210Y0582470D01*
X0016460Y0582910D01*
X0016740Y0583320D01*
X0017060Y0583710D01*
X0017400Y0584080D01*
X0017770Y0584420D01*
X0018170Y0584720D01*
X0018590Y0584990D01*
X0019030Y0585230D01*
X0019490Y0585440D01*
X0019960Y0585600D01*
X0020440Y0585730D01*
X0020940Y0585820D01*
X0021430Y0585870D01*
X0021940Y0585880D01*
X0022440Y0585850D01*
X0022930Y0585780D01*
X0023420Y0585670D01*
X0023900Y0585520D01*
X0024360Y0585340D01*
X0024810Y0585120D01*
X0025240Y0584860D01*
X0025650Y0584570D01*
X0026040Y0584250D01*
X0026400Y0583900D01*
X0026720Y0583520D01*
X0027020Y0583120D01*
X0027290Y0582690D01*
X0027520Y0582250D01*
X0027710Y0581790D01*
X0027870Y0581310D01*
X0027990Y0580820D01*
X0028070Y0580330D01*
X0028110Y0579830D01*
X0028110Y0579330D01*
X0028070Y0578830D01*
X0027990Y0578340D01*
X0027870Y0577850D01*
X0027710Y0577370D01*
X0027520Y0576910D01*
X0027290Y0576470D01*
X0027020Y0576040D01*
X0026720Y0575640D01*
X0026400Y0575260D01*
X0026040Y0574910D01*
X0025650Y0574590D01*
X0025240Y0574300D01*
X0024810Y0574040D01*
X0024360Y0573820D01*
X0023900Y0573640D01*
X0023420Y0573490D01*
X0022930Y0573380D01*
X0022440Y0573310D01*
X0021940Y0573280D01*
X0021430Y0573290D01*
X0020940Y0573340D01*
X0020440Y0573430D01*
X0019960Y0573560D01*
X0019490Y0573720D01*
X0019030Y0573930D01*
X0018590Y0574170D01*
X0018170Y0574440D01*
X0017770Y0574740D01*
X0017400Y0575080D01*
X0017060Y0575450D01*
X0016740Y0575840D01*
X0016460Y0576250D01*
X0016210Y0576690D01*
X0016000Y0577140D01*
X0015830Y0577610D01*
X0015690Y0578090D01*
X0015590Y0578580D01*
X0015530Y0579080D01*
X0015510Y0579580D01*
X0024090Y0612770D02*
X0024110Y0613250D01*
X0024170Y0613730D01*
X0024270Y0614200D01*
X0024400Y0614660D01*
X0024580Y0615110D01*
X0024780Y0615550D01*
X0025030Y0615970D01*
X0025310Y0616360D01*
X0025610Y0616730D01*
X0025950Y0617070D01*
X0026320Y0617390D01*
X0026700Y0617680D01*
X0027110Y0617930D01*
X0027540Y0618150D01*
X0027990Y0618330D01*
X0028450Y0618470D01*
X0028920Y0618580D01*
X0029400Y0618650D01*
X0029880Y0618680D01*
X0030360Y0618670D01*
X0030840Y0618620D01*
X0031320Y0618530D01*
X0031780Y0618410D01*
X0032230Y0618240D01*
X0032670Y0618040D01*
X0033090Y0617810D01*
X0033490Y0617540D01*
X0033870Y0617240D01*
X0034220Y0616910D01*
X0034540Y0616550D01*
X0034840Y0616170D01*
X0035100Y0615760D01*
X0035320Y0615330D01*
X0035520Y0614890D01*
X0035670Y0614440D01*
X0035790Y0613970D01*
X0035870Y0613490D01*
X0035910Y0613010D01*
X0035910Y0612530D01*
X0035870Y0612050D01*
X0035790Y0611570D01*
X0035670Y0611100D01*
X0035520Y0610650D01*
X0035320Y0610210D01*
X0035100Y0609780D01*
X0034840Y0609370D01*
X0034540Y0608990D01*
X0034220Y0608630D01*
X0033870Y0608300D01*
X0033490Y0608000D01*
X0033090Y0607730D01*
X0032670Y0607500D01*
X0032230Y0607300D01*
X0031780Y0607130D01*
X0031320Y0607010D01*
X0030840Y0606920D01*
X0030360Y0606870D01*
X0029880Y0606860D01*
X0029400Y0606890D01*
X0028920Y0606960D01*
X0028450Y0607070D01*
X0027990Y0607210D01*
X0027540Y0607390D01*
X0027110Y0607610D01*
X0026700Y0607860D01*
X0026320Y0608150D01*
X0025950Y0608470D01*
X0025610Y0608810D01*
X0025310Y0609180D01*
X0025030Y0609570D01*
X0024780Y0609990D01*
X0024580Y0610430D01*
X0024400Y0610880D01*
X0024270Y0611340D01*
X0024170Y0611810D01*
X0024110Y0612290D01*
X0024090Y0612770D01*
X0015510Y0717380D02*
X0015530Y0717880D01*
X0015590Y0718380D01*
X0015690Y0718870D01*
X0015830Y0719350D01*
X0016000Y0719820D01*
X0016210Y0720270D01*
X0016460Y0720710D01*
X0016740Y0721120D01*
X0017060Y0721510D01*
X0017400Y0721880D01*
X0017770Y0722220D01*
X0018170Y0722520D01*
X0018590Y0722790D01*
X0019030Y0723030D01*
X0019490Y0723240D01*
X0019960Y0723400D01*
X0020440Y0723530D01*
X0020940Y0723620D01*
X0021430Y0723670D01*
X0021940Y0723680D01*
X0022440Y0723650D01*
X0022930Y0723580D01*
X0023420Y0723470D01*
X0023900Y0723320D01*
X0024360Y0723140D01*
X0024810Y0722920D01*
X0025240Y0722660D01*
X0025650Y0722370D01*
X0026040Y0722050D01*
X0026400Y0721700D01*
X0026720Y0721320D01*
X0027020Y0720920D01*
X0027290Y0720490D01*
X0027520Y0720050D01*
X0027710Y0719590D01*
X0027870Y0719110D01*
X0027990Y0718620D01*
X0028070Y0718130D01*
X0028110Y0717630D01*
X0028110Y0717130D01*
X0028070Y0716630D01*
X0027990Y0716140D01*
X0027870Y0715650D01*
X0027710Y0715170D01*
X0027520Y0714710D01*
X0027290Y0714270D01*
X0027020Y0713840D01*
X0026720Y0713440D01*
X0026400Y0713060D01*
X0026040Y0712710D01*
X0025650Y0712390D01*
X0025240Y0712100D01*
X0024810Y0711840D01*
X0024360Y0711620D01*
X0023900Y0711440D01*
X0023420Y0711290D01*
X0022930Y0711180D01*
X0022440Y0711110D01*
X0021940Y0711080D01*
X0021430Y0711090D01*
X0020940Y0711140D01*
X0020440Y0711230D01*
X0019960Y0711360D01*
X0019490Y0711520D01*
X0019030Y0711730D01*
X0018590Y0711970D01*
X0018170Y0712240D01*
X0017770Y0712540D01*
X0017400Y0712880D01*
X0017060Y0713250D01*
X0016740Y0713640D01*
X0016460Y0714050D01*
X0016210Y0714490D01*
X0016000Y0714940D01*
X0015830Y0715410D01*
X0015690Y0715890D01*
X0015590Y0716380D01*
X0015530Y0716880D01*
X0015510Y0717380D01*
X0259090Y0642770D02*
X0259110Y0643250D01*
X0259170Y0643730D01*
X0259270Y0644200D01*
X0259400Y0644660D01*
X0259580Y0645110D01*
X0259780Y0645550D01*
X0260030Y0645970D01*
X0260310Y0646360D01*
X0260610Y0646730D01*
X0260950Y0647070D01*
X0261320Y0647390D01*
X0261700Y0647680D01*
X0262110Y0647930D01*
X0262540Y0648150D01*
X0262990Y0648330D01*
X0263450Y0648470D01*
X0263920Y0648580D01*
X0264400Y0648650D01*
X0264880Y0648680D01*
X0265360Y0648670D01*
X0265840Y0648620D01*
X0266320Y0648530D01*
X0266780Y0648410D01*
X0267230Y0648240D01*
X0267670Y0648040D01*
X0268090Y0647810D01*
X0268490Y0647540D01*
X0268870Y0647240D01*
X0269220Y0646910D01*
X0269540Y0646550D01*
X0269840Y0646170D01*
X0270100Y0645760D01*
X0270320Y0645330D01*
X0270520Y0644890D01*
X0270670Y0644440D01*
X0270790Y0643970D01*
X0270870Y0643490D01*
X0270910Y0643010D01*
X0270910Y0642530D01*
X0270870Y0642050D01*
X0270790Y0641570D01*
X0270670Y0641100D01*
X0270520Y0640650D01*
X0270320Y0640210D01*
X0270100Y0639780D01*
X0269840Y0639370D01*
X0269540Y0638990D01*
X0269220Y0638630D01*
X0268870Y0638300D01*
X0268490Y0638000D01*
X0268090Y0637730D01*
X0267670Y0637500D01*
X0267230Y0637300D01*
X0266780Y0637130D01*
X0266320Y0637010D01*
X0265840Y0636920D01*
X0265360Y0636870D01*
X0264880Y0636860D01*
X0264400Y0636890D01*
X0263920Y0636960D01*
X0263450Y0637070D01*
X0262990Y0637210D01*
X0262540Y0637390D01*
X0262110Y0637610D01*
X0261700Y0637860D01*
X0261320Y0638150D01*
X0260950Y0638470D01*
X0260610Y0638810D01*
X0260310Y0639180D01*
X0260030Y0639570D01*
X0259780Y0639990D01*
X0259580Y0640430D01*
X0259400Y0640880D01*
X0259270Y0641340D01*
X0259170Y0641810D01*
X0259110Y0642290D01*
X0259090Y0642770D01*
X0259610Y0579580D02*
X0259630Y0580080D01*
X0259690Y0580580D01*
X0259790Y0581070D01*
X0259930Y0581550D01*
X0260100Y0582020D01*
X0260310Y0582470D01*
X0260560Y0582910D01*
X0260840Y0583320D01*
X0261160Y0583710D01*
X0261500Y0584080D01*
X0261870Y0584420D01*
X0262270Y0584720D01*
X0262690Y0584990D01*
X0263130Y0585230D01*
X0263590Y0585440D01*
X0264060Y0585600D01*
X0264540Y0585730D01*
X0265040Y0585820D01*
X0265530Y0585870D01*
X0266040Y0585880D01*
X0266540Y0585850D01*
X0267030Y0585780D01*
X0267520Y0585670D01*
X0268000Y0585520D01*
X0268460Y0585340D01*
X0268910Y0585120D01*
X0269340Y0584860D01*
X0269750Y0584570D01*
X0270140Y0584250D01*
X0270500Y0583900D01*
X0270820Y0583520D01*
X0271120Y0583120D01*
X0271390Y0582690D01*
X0271620Y0582250D01*
X0271810Y0581790D01*
X0271970Y0581310D01*
X0272090Y0580820D01*
X0272170Y0580330D01*
X0272210Y0579830D01*
X0272210Y0579330D01*
X0272170Y0578830D01*
X0272090Y0578340D01*
X0271970Y0577850D01*
X0271810Y0577370D01*
X0271620Y0576910D01*
X0271390Y0576470D01*
X0271120Y0576040D01*
X0270820Y0575640D01*
X0270500Y0575260D01*
X0270140Y0574910D01*
X0269750Y0574590D01*
X0269340Y0574300D01*
X0268910Y0574040D01*
X0268460Y0573820D01*
X0268000Y0573640D01*
X0267520Y0573490D01*
X0267030Y0573380D01*
X0266540Y0573310D01*
X0266040Y0573280D01*
X0265530Y0573290D01*
X0265040Y0573340D01*
X0264540Y0573430D01*
X0264060Y0573560D01*
X0263590Y0573720D01*
X0263130Y0573930D01*
X0262690Y0574170D01*
X0262270Y0574440D01*
X0261870Y0574740D01*
X0261500Y0575080D01*
X0261160Y0575450D01*
X0260840Y0575840D01*
X0260560Y0576250D01*
X0260310Y0576690D01*
X0260100Y0577140D01*
X0259930Y0577610D01*
X0259790Y0578090D01*
X0259690Y0578580D01*
X0259630Y0579080D01*
X0259610Y0579580D01*
X0259610Y0717380D02*
X0259630Y0717880D01*
X0259690Y0718380D01*
X0259790Y0718870D01*
X0259930Y0719350D01*
X0260100Y0719820D01*
X0260310Y0720270D01*
X0260560Y0720710D01*
X0260840Y0721120D01*
X0261160Y0721510D01*
X0261500Y0721880D01*
X0261870Y0722220D01*
X0262270Y0722520D01*
X0262690Y0722790D01*
X0263130Y0723030D01*
X0263590Y0723240D01*
X0264060Y0723400D01*
X0264540Y0723530D01*
X0265040Y0723620D01*
X0265530Y0723670D01*
X0266040Y0723680D01*
X0266540Y0723650D01*
X0267030Y0723580D01*
X0267520Y0723470D01*
X0268000Y0723320D01*
X0268460Y0723140D01*
X0268910Y0722920D01*
X0269340Y0722660D01*
X0269750Y0722370D01*
X0270140Y0722050D01*
X0270500Y0721700D01*
X0270820Y0721320D01*
X0271120Y0720920D01*
X0271390Y0720490D01*
X0271620Y0720050D01*
X0271810Y0719590D01*
X0271970Y0719110D01*
X0272090Y0718620D01*
X0272170Y0718130D01*
X0272210Y0717630D01*
X0272210Y0717130D01*
X0272170Y0716630D01*
X0272090Y0716140D01*
X0271970Y0715650D01*
X0271810Y0715170D01*
X0271620Y0714710D01*
X0271390Y0714270D01*
X0271120Y0713840D01*
X0270820Y0713440D01*
X0270500Y0713060D01*
X0270140Y0712710D01*
X0269750Y0712390D01*
X0269340Y0712100D01*
X0268910Y0711840D01*
X0268460Y0711620D01*
X0268000Y0711440D01*
X0267520Y0711290D01*
X0267030Y0711180D01*
X0266540Y0711110D01*
X0266040Y0711080D01*
X0265530Y0711090D01*
X0265040Y0711140D01*
X0264540Y0711230D01*
X0264060Y0711360D01*
X0263590Y0711520D01*
X0263130Y0711730D01*
X0262690Y0711970D01*
X0262270Y0712240D01*
X0261870Y0712540D01*
X0261500Y0712880D01*
X0261160Y0713250D01*
X0260840Y0713640D01*
X0260560Y0714050D01*
X0260310Y0714490D01*
X0260100Y0714940D01*
X0259930Y0715410D01*
X0259790Y0715890D01*
X0259690Y0716380D01*
X0259630Y0716880D01*
X0259610Y0717380D01*
M02*
