G75*
G70*
%OFA0B0*%
%FSLAX25Y25*%
%IPPOS*%
%LPD*%
%AMOC8*
5,1,8,0,0,1.08239X$1,22.5*
%
%ADD100C,0.03200*%
%ADD101R,0.04200X0.01000*%
%ADD102R,0.07090X0.09450*%
%ADD105OC8,0.05200*%
%ADD107R,0.07800X0.02200*%
%ADD108R,0.06690X0.02560*%
%ADD109R,0.01400X0.05800*%
%ADD111R,0.05120X0.05910*%
%ADD112R,0.21260X0.15750*%
%ADD116R,0.11810X0.11020*%
%ADD119C,0.01000*%
%ADD12R,0.06300X0.07090*%
%ADD120R,0.18110X0.31500*%
%ADD122R,0.01200X0.02400*%
%ADD123R,0.03150X0.03150*%
%ADD125R,0.07870X0.03940*%
%ADD129OC8,0.08500*%
%ADD13R,0.11810X0.05910*%
%ADD138R,0.04600X0.01400*%
%ADD139R,0.02100X0.07800*%
%ADD14C,0.05600*%
%ADD141R,0.02200X0.05200*%
%ADD146C,0.05740*%
%ADD149R,0.07870X0.05120*%
%ADD19R,0.06300X0.02100*%
%ADD24R,0.05200X0.02200*%
%ADD25R,0.33540X0.26100*%
%ADD27R,0.04330X0.03940*%
%ADD29R,0.05700X0.03600*%
%ADD34C,0.05150*%
%ADD37R,0.02760X0.02760*%
%ADD38C,0.03000*%
%ADD42C,0.06600*%
%ADD46R,0.05910X0.05120*%
%ADD47C,0.01600*%
%ADD48C,0.06020*%
%ADD50R,0.03940X0.04330*%
%ADD52R,0.12600X0.05980*%
%ADD53OC8,0.05600*%
%ADD54R,0.05800X0.01400*%
%ADD56R,0.06020X0.06020*%
%ADD57R,0.02200X0.07800*%
%ADD62R,0.03940X0.03940*%
%ADD63R,0.05980X0.04720*%
%ADD65R,0.01400X0.04600*%
%ADD66R,0.03960X0.03960*%
%ADD70R,0.05200X0.01700*%
%ADD77C,0.05200*%
%ADD78C,0.04000*%
%ADD80R,0.03900X0.01200*%
%ADD81R,0.03540X0.02760*%
%ADD83R,0.02760X0.03540*%
%ADD84R,0.07090X0.06300*%
%ADD85OC8,0.10000*%
%ADD86R,0.05120X0.05120*%
%ADD93R,0.05980X0.12600*%
%ADD94R,0.04060X0.02760*%
%ADD95R,0.09000X0.09000*%
%ADD98R,0.04720X0.05980*%
X0010000Y0010000D02*
G75*
%LPD*%
D101*
X0053400Y0160000D03*
X0053400Y0162000D03*
X0053400Y0164000D03*
X0053400Y0166000D03*
X0064600Y0166000D03*
X0064600Y0164000D03*
X0064600Y0162000D03*
X0064600Y0160000D03*
D107*
X0072300Y0197500D03*
X0072300Y0202500D03*
X0072300Y0207500D03*
X0072300Y0212500D03*
X0091700Y0212500D03*
X0091700Y0207500D03*
X0091700Y0202500D03*
X0091700Y0197500D03*
D105*
X0108000Y0199000D03*
X0108000Y0209000D03*
X0070000Y0185000D03*
X0069000Y0174000D03*
X0050000Y0185000D03*
X0049000Y0174000D03*
X0056000Y0201000D03*
X0056000Y0211000D03*
X0097000Y0247000D03*
X0098000Y0267000D03*
X0088000Y0267000D03*
X0127000Y0247000D03*
X0145000Y0055000D03*
X0155000Y0055000D03*
X0155000Y0045000D03*
X0145000Y0045000D03*
X0154000Y0035000D03*
X0145000Y0034000D03*
X0154000Y0025000D03*
X0145000Y0024000D03*
X0082000Y0030000D03*
X0072000Y0030000D03*
X0072000Y0042000D03*
X0082000Y0042000D03*
X0315000Y0046000D03*
X0315000Y0036000D03*
D109*
X0304700Y0036500D03*
X0302100Y0036500D03*
X0299600Y0036500D03*
X0297000Y0036500D03*
X0294400Y0036500D03*
X0291900Y0036500D03*
X0289300Y0036500D03*
X0289300Y0059500D03*
X0291900Y0059500D03*
X0294400Y0059500D03*
X0297000Y0059500D03*
X0299600Y0059500D03*
X0302100Y0059500D03*
X0304700Y0059500D03*
D85*
X0130000Y0140500D03*
X0090000Y0140500D03*
X0110000Y0070500D03*
D139*
X0164500Y0080300D03*
X0169500Y0080300D03*
X0174500Y0080300D03*
X0179500Y0080300D03*
X0179500Y0099700D03*
X0174500Y0099700D03*
X0169500Y0099700D03*
X0164500Y0099700D03*
D24*
X0247000Y0142000D03*
X0247000Y0150000D03*
X0255000Y0146000D03*
X0247000Y0161000D03*
X0247000Y0169000D03*
X0255000Y0165000D03*
X0247000Y0177000D03*
X0247000Y0185000D03*
X0255000Y0181000D03*
X0247000Y0198000D03*
X0247000Y0206000D03*
X0255000Y0202000D03*
D65*
X0271400Y0096100D03*
X0276600Y0096100D03*
X0276600Y0087900D03*
X0274000Y0087900D03*
X0271400Y0087900D03*
D57*
X0225500Y0224300D03*
X0220500Y0224300D03*
X0215500Y0224300D03*
X0210500Y0224300D03*
X0210500Y0243700D03*
X0215500Y0243700D03*
X0220500Y0243700D03*
X0225500Y0243700D03*
D42*
X0138000Y0232000D03*
X0098000Y0232000D03*
D62*
X0259000Y0219000D03*
D46*
X0240000Y0246260D03*
X0240000Y0253740D03*
X0204000Y0238740D03*
X0204000Y0231260D03*
X0286000Y0096740D03*
X0286000Y0089260D03*
D84*
X0261000Y0087490D03*
X0261000Y0098510D03*
X0252000Y0245490D03*
X0252000Y0256510D03*
D102*
X0223970Y0256000D03*
X0208030Y0256000D03*
D146*
X0366460Y0141780D02*
X0372200Y0141780D01*
X0372200Y0131940D02*
X0366460Y0131940D01*
X0366460Y0124060D02*
X0372200Y0124060D01*
X0372200Y0114220D02*
X0366460Y0114220D01*
D77*
X0343600Y0158000D02*
X0338400Y0158000D01*
X0313600Y0158000D02*
X0308400Y0158000D01*
X0299600Y0158000D02*
X0294400Y0158000D01*
X0269600Y0158000D02*
X0264400Y0158000D01*
X0263400Y0212000D02*
X0268600Y0212000D01*
X0293400Y0212000D02*
X0298600Y0212000D01*
X0308400Y0212000D02*
X0313600Y0212000D01*
X0338400Y0212000D02*
X0343600Y0212000D01*
D138*
X0193800Y0043600D03*
X0193800Y0038400D03*
X0186200Y0038400D03*
X0186200Y0041000D03*
X0186200Y0043600D03*
X0186200Y0026600D03*
X0186200Y0024000D03*
X0186200Y0021400D03*
X0193800Y0021400D03*
X0193800Y0026600D03*
X0216200Y0026600D03*
X0216200Y0024000D03*
X0216200Y0021400D03*
X0223800Y0021400D03*
X0223800Y0026600D03*
X0235200Y0026600D03*
X0235200Y0024000D03*
X0235200Y0021400D03*
X0242800Y0021400D03*
X0242800Y0026600D03*
D81*
X0281000Y0045440D03*
X0281000Y0050560D03*
X0225000Y0085440D03*
X0225000Y0090560D03*
X0183000Y0171440D03*
X0183000Y0176560D03*
X0175000Y0176560D03*
X0175000Y0171440D03*
X0168000Y0171440D03*
X0168000Y0176560D03*
X0168000Y0189440D03*
X0175000Y0189440D03*
X0175000Y0194560D03*
X0168000Y0194560D03*
X0183000Y0194560D03*
X0183000Y0189440D03*
D86*
X0322470Y0055180D03*
X0331530Y0055180D03*
D149*
X0327000Y0076830D03*
D83*
X0299560Y0069000D03*
X0294440Y0069000D03*
X0257560Y0077000D03*
X0252440Y0077000D03*
X0252440Y0047000D03*
X0257560Y0047000D03*
X0269440Y0034000D03*
X0274560Y0034000D03*
X0274560Y0028000D03*
X0269440Y0028000D03*
X0294440Y0027000D03*
X0299560Y0027000D03*
X0238560Y0037000D03*
X0233440Y0037000D03*
X0223560Y0037000D03*
X0218440Y0037000D03*
X0096560Y0041000D03*
X0091440Y0041000D03*
X0091440Y0022000D03*
X0096560Y0022000D03*
D77*
X0171000Y0114000D03*
X0181000Y0114000D03*
X0252000Y0068000D03*
X0252000Y0058000D03*
D108*
X0230820Y0128000D03*
X0230820Y0133000D03*
X0230820Y0138000D03*
X0230820Y0143000D03*
X0230820Y0148000D03*
X0230820Y0153000D03*
X0230820Y0158000D03*
X0230820Y0163000D03*
X0230820Y0168000D03*
X0230820Y0173000D03*
X0230820Y0178000D03*
X0230820Y0183000D03*
X0230820Y0188000D03*
X0230820Y0193000D03*
X0193180Y0193000D03*
X0193180Y0188000D03*
X0193180Y0183000D03*
X0193180Y0178000D03*
X0193180Y0173000D03*
X0193180Y0168000D03*
X0193180Y0163000D03*
X0193180Y0158000D03*
X0193180Y0153000D03*
X0193180Y0148000D03*
X0193180Y0143000D03*
X0193180Y0138000D03*
X0193180Y0133000D03*
X0193180Y0128000D03*
D34*
X0035840Y0036090D02*
X0030690Y0036090D01*
X0020270Y0051430D02*
X0020270Y0056580D01*
X0042890Y0064430D02*
X0048040Y0064430D01*
X0048400Y0073880D02*
X0053550Y0073880D01*
X0063580Y0040830D02*
X0063580Y0035680D01*
X0351430Y0071180D02*
X0351430Y0076320D01*
X0379170Y0075920D02*
X0384320Y0075920D01*
X0394730Y0060580D02*
X0394730Y0055430D01*
X0372110Y0047570D02*
X0366960Y0047570D01*
X0366600Y0038120D02*
X0361450Y0038120D01*
D129*
X0225000Y0103000D03*
D70*
X0089000Y0160200D03*
X0089000Y0162700D03*
X0089000Y0165300D03*
X0089000Y0167800D03*
X0079000Y0167800D03*
X0079000Y0165300D03*
X0079000Y0162700D03*
X0079000Y0160200D03*
D14*
X0102200Y0159000D02*
X0107800Y0159000D01*
X0107800Y0169000D02*
X0102200Y0169000D01*
D125*
X0266830Y0170000D03*
X0266830Y0180000D03*
X0266830Y0190000D03*
X0266830Y0200000D03*
X0295170Y0200000D03*
X0295170Y0190000D03*
X0295170Y0180000D03*
X0295170Y0170000D03*
X0311830Y0172000D03*
X0311830Y0182000D03*
X0311830Y0192000D03*
X0311830Y0202000D03*
X0294170Y0223000D03*
X0294170Y0233000D03*
X0294170Y0243000D03*
X0294170Y0253000D03*
X0307830Y0254000D03*
X0307830Y0244000D03*
X0307830Y0234000D03*
X0307830Y0224000D03*
X0336170Y0224000D03*
X0336170Y0234000D03*
X0336170Y0244000D03*
X0336170Y0254000D03*
X0265830Y0253000D03*
X0265830Y0243000D03*
X0265830Y0233000D03*
X0265830Y0223000D03*
X0340170Y0202000D03*
X0340170Y0192000D03*
X0340170Y0182000D03*
X0340170Y0172000D03*
D37*
X0261000Y0039000D03*
X0261000Y0033000D03*
X0251000Y0033000D03*
X0251000Y0039000D03*
X0155000Y0109000D03*
X0155000Y0117000D03*
D98*
X0069310Y0225800D03*
X0052300Y0225800D03*
D63*
X0083800Y0224690D03*
X0083800Y0241700D03*
D122*
X0214250Y0077000D03*
X0216750Y0077000D03*
X0219250Y0077000D03*
X0221750Y0077000D03*
X0224250Y0077000D03*
X0226750Y0077000D03*
X0229250Y0077000D03*
X0231750Y0077000D03*
X0234250Y0077000D03*
X0236750Y0077000D03*
X0239250Y0077000D03*
X0241750Y0077000D03*
X0241750Y0047000D03*
X0239250Y0047000D03*
X0236750Y0047000D03*
X0234250Y0047000D03*
X0231750Y0047000D03*
X0229250Y0047000D03*
X0226750Y0047000D03*
X0224250Y0047000D03*
X0221750Y0047000D03*
X0219250Y0047000D03*
X0216750Y0047000D03*
X0214250Y0047000D03*
D25*
X0228120Y0062100D03*
D94*
X0215500Y0049010D03*
D123*
X0218150Y0084000D03*
X0212240Y0084000D03*
X0105000Y0041150D03*
X0105000Y0035250D03*
X0105000Y0027760D03*
X0105000Y0021850D03*
D13*
X0243000Y0218490D03*
X0243000Y0230300D03*
D112*
X0172390Y0214140D03*
X0172390Y0256260D03*
D48*
X0060910Y0251990D03*
X0060910Y0240180D03*
X0049100Y0240180D03*
X0355180Y0233720D03*
X0355180Y0221910D03*
X0366990Y0221910D03*
X0366990Y0210100D03*
X0355180Y0210100D03*
X0355180Y0198290D03*
X0366990Y0198290D03*
D56*
X0366990Y0233720D03*
X0049100Y0251990D03*
D14*
X0034000Y0097000D03*
D53*
X0024000Y0097000D03*
X0024000Y0107000D03*
X0034000Y0107000D03*
X0034000Y0117000D03*
X0024000Y0117000D03*
X0024000Y0127000D03*
X0034000Y0127000D03*
X0034000Y0137000D03*
X0024000Y0137000D03*
X0024000Y0147000D03*
X0034000Y0147000D03*
X0034000Y0157000D03*
X0024000Y0157000D03*
X0024000Y0167000D03*
X0034000Y0167000D03*
X0034000Y0177000D03*
X0024000Y0177000D03*
X0024000Y0187000D03*
X0034000Y0187000D03*
X0034000Y0197000D03*
X0024000Y0197000D03*
X0024000Y0207000D03*
X0034000Y0207000D03*
X0034000Y0217000D03*
X0024000Y0217000D03*
X0010000Y0331210D02*
G75*
%LPD*%
D54*
X0138500Y0459610D03*
X0138500Y0462110D03*
X0138500Y0464710D03*
X0138500Y0467210D03*
X0138500Y0469810D03*
X0138500Y0472410D03*
X0138500Y0474910D03*
X0138500Y0477510D03*
X0138500Y0480010D03*
X0138500Y0482610D03*
X0138500Y0485210D03*
X0138500Y0487710D03*
X0138500Y0490310D03*
X0138500Y0492810D03*
X0161500Y0492810D03*
X0161500Y0490310D03*
X0161500Y0487710D03*
X0161500Y0485210D03*
X0161500Y0482610D03*
X0161500Y0480010D03*
X0161500Y0477510D03*
X0161500Y0474910D03*
X0161500Y0472410D03*
X0161500Y0469810D03*
X0161500Y0467210D03*
X0161500Y0464710D03*
X0161500Y0462110D03*
X0161500Y0459610D03*
D107*
X0089700Y0458710D03*
X0089700Y0453710D03*
X0089700Y0448710D03*
X0089700Y0443710D03*
X0070300Y0443710D03*
X0070300Y0448710D03*
X0070300Y0453710D03*
X0070300Y0458710D03*
X0070300Y0428710D03*
X0070300Y0423710D03*
X0070300Y0418710D03*
X0070300Y0413710D03*
X0089700Y0413710D03*
X0089700Y0418710D03*
X0089700Y0423710D03*
X0089700Y0428710D03*
D105*
X0085000Y0406210D03*
X0075000Y0406210D03*
X0075000Y0376210D03*
X0085000Y0376210D03*
X0193030Y0465150D03*
X0223030Y0465150D03*
D141*
X0203700Y0525810D03*
X0200000Y0525810D03*
X0196300Y0525810D03*
X0196300Y0536610D03*
X0203700Y0536610D03*
D116*
X0220280Y0496210D03*
X0179730Y0496210D03*
D50*
X0155000Y0522860D03*
X0155000Y0529560D03*
X0196660Y0546210D03*
X0203350Y0546210D03*
X0090000Y0542860D03*
X0090000Y0549560D03*
D29*
X0215000Y0534410D03*
X0215000Y0528010D03*
D98*
X0083270Y0490460D03*
X0066260Y0490460D03*
X0066660Y0477080D03*
X0083660Y0477080D03*
D108*
X0186180Y0433770D03*
X0186180Y0428770D03*
X0186180Y0423770D03*
X0186180Y0418770D03*
X0186180Y0413770D03*
X0186180Y0408770D03*
X0186180Y0403770D03*
X0186180Y0398770D03*
X0186180Y0393770D03*
X0186180Y0388770D03*
X0186180Y0383770D03*
X0186180Y0378770D03*
X0186180Y0373770D03*
X0186180Y0368770D03*
X0223820Y0368770D03*
X0223820Y0373770D03*
X0223820Y0378770D03*
X0223820Y0383770D03*
X0223820Y0388770D03*
X0223820Y0393770D03*
X0223820Y0398770D03*
X0223820Y0403770D03*
X0223820Y0408770D03*
X0223820Y0413770D03*
X0223820Y0418770D03*
X0223820Y0423770D03*
X0223820Y0428770D03*
X0223820Y0433770D03*
D80*
X0151490Y0385280D03*
X0151490Y0382730D03*
X0151490Y0380170D03*
X0151490Y0377610D03*
X0151490Y0375050D03*
X0151490Y0372490D03*
X0151490Y0369930D03*
X0151490Y0367370D03*
X0151490Y0364810D03*
X0151490Y0362250D03*
X0151490Y0359690D03*
X0151490Y0357140D03*
X0128510Y0357140D03*
X0128510Y0359690D03*
X0128510Y0362250D03*
X0128510Y0364810D03*
X0128510Y0367370D03*
X0128510Y0369930D03*
X0128510Y0372490D03*
X0128510Y0375050D03*
X0128510Y0377610D03*
X0128510Y0380170D03*
X0128510Y0382730D03*
X0128510Y0385280D03*
D120*
X0140080Y0371290D03*
D138*
X0130240Y0430970D03*
X0130240Y0436170D03*
X0122040Y0436170D03*
X0122040Y0433570D03*
X0122040Y0430970D03*
X0196200Y0448610D03*
X0196200Y0451210D03*
X0196200Y0453810D03*
X0203800Y0453810D03*
X0203800Y0448610D03*
X0216200Y0448610D03*
X0216200Y0453810D03*
X0223800Y0453810D03*
X0223800Y0451210D03*
X0223800Y0448610D03*
D19*
X0131410Y0533710D03*
X0131410Y0538710D03*
X0131410Y0543710D03*
X0131410Y0548710D03*
X0110410Y0548710D03*
X0110410Y0543710D03*
X0110410Y0538710D03*
X0110410Y0533710D03*
D95*
X0120910Y0541210D03*
D34*
X0053520Y0401090D02*
X0048370Y0401090D01*
X0048010Y0391640D02*
X0042860Y0391640D01*
X0020240Y0383780D02*
X0020240Y0378640D01*
X0030660Y0363300D02*
X0035810Y0363300D01*
X0063550Y0362890D02*
X0063550Y0368040D01*
D123*
X0075000Y0369360D03*
X0075000Y0363450D03*
D56*
X0042010Y0420300D03*
X0042010Y0465300D03*
X0042010Y0510300D03*
D48*
X0053820Y0510300D03*
X0053820Y0522120D03*
X0042010Y0522120D03*
X0042010Y0477120D03*
X0053820Y0477120D03*
X0053820Y0465300D03*
X0053820Y0432120D03*
X0042010Y0432120D03*
X0053820Y0420300D03*
X0236180Y0511210D03*
X0247990Y0511210D03*
X0249960Y0369240D03*
X0238150Y0369240D03*
D83*
X0117560Y0390150D03*
X0112440Y0390150D03*
X0102560Y0390150D03*
X0097440Y0390150D03*
X0099180Y0341050D03*
X0094060Y0341050D03*
X0107840Y0341050D03*
X0112950Y0341050D03*
X0232440Y0471210D03*
X0232440Y0476210D03*
X0237560Y0476210D03*
X0237560Y0471210D03*
X0122800Y0478850D03*
X0117680Y0478850D03*
X0117680Y0484750D03*
X0122800Y0484750D03*
X0122800Y0490660D03*
X0117680Y0490660D03*
X0107050Y0490660D03*
X0101930Y0490660D03*
X0101930Y0484750D03*
X0107050Y0484750D03*
X0107050Y0478850D03*
X0101930Y0478850D03*
D46*
X0110400Y0437310D03*
X0110400Y0429830D03*
X0185000Y0457310D03*
X0185000Y0464790D03*
X0118270Y0364480D03*
X0118270Y0357000D03*
D84*
X0141890Y0428060D03*
X0141890Y0439080D03*
X0080000Y0540700D03*
X0080000Y0551720D03*
D111*
X0117920Y0520270D03*
X0124610Y0520270D03*
X0111850Y0404080D03*
X0104370Y0404080D03*
X0102320Y0382390D03*
X0094840Y0382390D03*
X0094840Y0370580D03*
X0102320Y0370580D03*
X0102320Y0360740D03*
X0094840Y0360740D03*
X0094840Y0348930D03*
X0102320Y0348930D03*
X0136660Y0396210D03*
X0143350Y0396210D03*
X0165710Y0378450D03*
X0173190Y0378450D03*
X0173190Y0366640D03*
X0165710Y0366640D03*
X0165710Y0354830D03*
X0173190Y0354830D03*
X0173190Y0341050D03*
X0165710Y0341050D03*
D81*
X0234770Y0394400D03*
X0239770Y0394400D03*
X0244770Y0394400D03*
X0244770Y0399520D03*
X0239770Y0399520D03*
X0234770Y0399520D03*
X0234770Y0409400D03*
X0239770Y0409400D03*
X0244770Y0409400D03*
X0244770Y0414520D03*
X0239770Y0414520D03*
X0234770Y0414520D03*
D27*
X0145000Y0522860D03*
X0145000Y0529560D03*
X0145000Y0537860D03*
X0145000Y0544560D03*
D42*
X0065000Y0551210D03*
X0065000Y0511210D03*
D14*
X0270910Y0400300D03*
D53*
X0260910Y0400300D03*
X0260910Y0410300D03*
X0270910Y0410300D03*
X0270910Y0420300D03*
X0260910Y0420300D03*
X0260910Y0430300D03*
X0270910Y0430300D03*
X0270910Y0440300D03*
X0260910Y0440300D03*
X0260910Y0450300D03*
X0270910Y0450300D03*
X0270910Y0460300D03*
X0260910Y0460300D03*
X0260910Y0470300D03*
X0270910Y0470300D03*
D52*
X0179920Y0527390D03*
X0179920Y0551880D03*
D47*
X0014800Y0422910D02*
X0014800Y0350740D01*
X0016120Y0353030D01*
X0018190Y0355090D01*
X0020720Y0356550D01*
X0023540Y0357310D01*
X0026460Y0357310D01*
X0029290Y0356550D01*
X0031820Y0355090D01*
X0033880Y0353030D01*
X0035340Y0350490D01*
X0036100Y0347670D01*
X0036100Y0344750D01*
X0035340Y0341930D01*
X0033880Y0339390D01*
X0031820Y0337330D01*
X0029530Y0336010D01*
X0265470Y0336010D01*
X0263190Y0337330D01*
X0261120Y0339390D01*
X0259660Y0341930D01*
X0258900Y0344750D01*
X0258900Y0347670D01*
X0259660Y0350490D01*
X0261120Y0353030D01*
X0263190Y0355090D01*
X0265720Y0356550D01*
X0268540Y0357310D01*
X0271460Y0357310D01*
X0274290Y0356550D01*
X0276820Y0355090D01*
X0276860Y0355050D01*
X0276860Y0364950D01*
X0275540Y0362670D01*
X0273540Y0360670D01*
X0271100Y0359270D01*
X0268380Y0358540D01*
X0265560Y0358540D01*
X0262840Y0359270D01*
X0260400Y0360670D01*
X0258400Y0362670D01*
X0256990Y0365110D01*
X0256270Y0367830D01*
X0256270Y0370650D01*
X0256990Y0373370D01*
X0258400Y0375810D01*
X0260400Y0377810D01*
X0262840Y0379220D01*
X0265560Y0379950D01*
X0268380Y0379950D01*
X0271100Y0379220D01*
X0273540Y0377810D01*
X0275540Y0375810D01*
X0276860Y0373530D01*
X0276860Y0396270D01*
X0276620Y0396040D01*
X0274650Y0394070D01*
X0262840Y0394070D01*
X0262630Y0393870D01*
X0262690Y0393870D01*
X0264010Y0393320D01*
X0265020Y0392300D01*
X0265570Y0390980D01*
X0265570Y0389550D01*
X0265020Y0388230D01*
X0264010Y0387210D01*
X0262690Y0386670D01*
X0261340Y0386670D01*
X0248160Y0373490D01*
X0249050Y0373850D01*
X0250880Y0373850D01*
X0252580Y0373150D01*
X0253870Y0371850D01*
X0254570Y0370160D01*
X0254570Y0368320D01*
X0253870Y0366630D01*
X0252580Y0365330D01*
X0250880Y0364630D01*
X0249050Y0364630D01*
X0247730Y0365180D01*
X0243160Y0360610D01*
X0184330Y0360610D01*
X0183100Y0361840D01*
X0177550Y0367390D01*
X0177550Y0367120D01*
X0173670Y0367120D01*
X0173670Y0366160D01*
X0173670Y0361890D01*
X0175990Y0361890D01*
X0176440Y0362010D01*
X0176860Y0362250D01*
X0177190Y0362590D01*
X0177430Y0363000D01*
X0177550Y0363450D01*
X0177550Y0366160D01*
X0173670Y0366160D01*
X0172710Y0366160D01*
X0172710Y0361890D01*
X0170400Y0361890D01*
X0169940Y0362010D01*
X0169530Y0362250D01*
X0169310Y0362470D01*
X0168930Y0362090D01*
X0162490Y0362090D01*
X0161550Y0363030D01*
X0161550Y0369480D01*
X0161510Y0369500D01*
X0160490Y0370510D01*
X0159950Y0371830D01*
X0159950Y0373260D01*
X0160490Y0374590D01*
X0161510Y0375600D01*
X0161550Y0375620D01*
X0161550Y0379400D01*
X0158510Y0376350D01*
X0157770Y0376350D01*
X0157770Y0365540D01*
X0160480Y0362840D01*
X0161710Y0361610D01*
X0161710Y0358600D01*
X0162490Y0359380D01*
X0168930Y0359380D01*
X0169310Y0359010D01*
X0169530Y0359230D01*
X0169940Y0359460D01*
X0170400Y0359580D01*
X0172710Y0359580D01*
X0172710Y0355310D01*
X0173670Y0355310D01*
X0177550Y0355310D01*
X0177550Y0358020D01*
X0177430Y0358480D01*
X0177190Y0358890D01*
X0176860Y0359230D01*
X0176440Y0359460D01*
X0175990Y0359580D01*
X0173670Y0359580D01*
X0173670Y0355310D01*
X0173670Y0354350D01*
X0173670Y0350080D01*
X0175990Y0350080D01*
X0176440Y0350200D01*
X0176860Y0350440D01*
X0177190Y0350770D01*
X0177430Y0351180D01*
X0177550Y0351640D01*
X0177550Y0354350D01*
X0173670Y0354350D01*
X0172710Y0354350D01*
X0172710Y0350080D01*
X0170400Y0350080D01*
X0169940Y0350200D01*
X0169530Y0350440D01*
X0169310Y0350660D01*
X0168930Y0350280D01*
X0162490Y0350280D01*
X0161710Y0351060D01*
X0161710Y0344820D01*
X0162490Y0345610D01*
X0168930Y0345610D01*
X0169310Y0345230D01*
X0169530Y0345450D01*
X0169940Y0345680D01*
X0170400Y0345810D01*
X0172710Y0345810D01*
X0172710Y0341530D01*
X0173670Y0341530D01*
X0177550Y0341530D01*
X0177550Y0344240D01*
X0177430Y0344700D01*
X0177190Y0345110D01*
X0176860Y0345450D01*
X0176440Y0345680D01*
X0175990Y0345810D01*
X0173670Y0345810D01*
X0173670Y0341530D01*
X0173670Y0340570D01*
X0173670Y0336300D01*
X0175990Y0336300D01*
X0176440Y0336420D01*
X0176860Y0336660D01*
X0177190Y0336990D01*
X0177430Y0337400D01*
X0177550Y0337860D01*
X0177550Y0340570D01*
X0173670Y0340570D01*
X0172710Y0340570D01*
X0172710Y0336300D01*
X0170400Y0336300D01*
X0169940Y0336420D01*
X0169530Y0336660D01*
X0169310Y0336880D01*
X0168930Y0336500D01*
X0162490Y0336500D01*
X0161550Y0337440D01*
X0161550Y0338950D01*
X0115930Y0338950D01*
X0115930Y0338620D01*
X0115000Y0337680D01*
X0110910Y0337680D01*
X0110400Y0338200D01*
X0109880Y0337680D01*
X0105800Y0337680D01*
X0104860Y0338620D01*
X0104860Y0338950D01*
X0102150Y0338950D01*
X0102150Y0338620D01*
X0101220Y0337680D01*
X0097130Y0337680D01*
X0096760Y0338060D01*
X0096540Y0337840D01*
X0096130Y0337600D01*
X0095670Y0337480D01*
X0094060Y0337480D01*
X0094060Y0341050D01*
X0094060Y0341050D01*
X0094060Y0337480D01*
X0092440Y0337480D01*
X0091980Y0337600D01*
X0091570Y0337840D01*
X0091240Y0338180D01*
X0091000Y0338590D01*
X0090880Y0339040D01*
X0090880Y0341050D01*
X0094060Y0341050D01*
X0094060Y0341050D01*
X0090880Y0341050D01*
X0090880Y0343060D01*
X0091000Y0343520D01*
X0091240Y0343930D01*
X0091570Y0344260D01*
X0091620Y0344290D01*
X0091590Y0344300D01*
X0091180Y0344530D01*
X0090850Y0344870D01*
X0090610Y0345280D01*
X0090490Y0345740D01*
X0090490Y0348450D01*
X0094360Y0348450D01*
X0094360Y0349410D01*
X0090490Y0349410D01*
X0090490Y0352120D01*
X0090610Y0352570D01*
X0090850Y0352980D01*
X0091180Y0353320D01*
X0091210Y0353330D01*
X0090580Y0353960D01*
X0088610Y0355930D01*
X0088610Y0359870D01*
X0078180Y0370300D01*
X0078180Y0367120D01*
X0077580Y0366530D01*
X0077680Y0366470D01*
X0078020Y0366130D01*
X0078250Y0365720D01*
X0078380Y0365270D01*
X0078380Y0363450D01*
X0075000Y0363450D01*
X0075000Y0363450D01*
X0075000Y0360080D01*
X0073190Y0360080D01*
X0072730Y0360200D01*
X0072320Y0360440D01*
X0071990Y0360770D01*
X0071750Y0361180D01*
X0071630Y0361640D01*
X0071630Y0363450D01*
X0075000Y0363450D01*
X0075000Y0363450D01*
X0075000Y0360080D01*
X0076810Y0360080D01*
X0077270Y0360200D01*
X0077680Y0360440D01*
X0078020Y0360770D01*
X0078250Y0361180D01*
X0078380Y0361640D01*
X0078380Y0363450D01*
X0075000Y0363450D01*
X0071630Y0363450D01*
X0071630Y0365270D01*
X0071750Y0365720D01*
X0071990Y0366130D01*
X0072320Y0366470D01*
X0072420Y0366530D01*
X0071830Y0367120D01*
X0071830Y0370750D01*
X0068190Y0374390D01*
X0066960Y0375620D01*
X0052060Y0390510D01*
X0051550Y0389280D01*
X0050370Y0388100D01*
X0048840Y0387470D01*
X0042030Y0387470D01*
X0040500Y0388100D01*
X0039320Y0389280D01*
X0038690Y0390810D01*
X0038690Y0392470D01*
X0039320Y0394010D01*
X0040500Y0395180D01*
X0042030Y0395820D01*
X0048840Y0395820D01*
X0049240Y0395650D01*
X0049240Y0396920D01*
X0047540Y0396920D01*
X0046010Y0397550D01*
X0044830Y0398730D01*
X0044200Y0400260D01*
X0044200Y0401920D01*
X0044830Y0403460D01*
X0046010Y0404630D01*
X0047540Y0405270D01*
X0054350Y0405270D01*
X0055890Y0404630D01*
X0057060Y0403460D01*
X0057700Y0401920D01*
X0057700Y0400260D01*
X0057060Y0398730D01*
X0055890Y0397550D01*
X0054350Y0396920D01*
X0053440Y0396920D01*
X0053440Y0395070D01*
X0069060Y0379460D01*
X0095750Y0406140D01*
X0100210Y0406140D01*
X0100210Y0407700D01*
X0101150Y0408640D01*
X0107590Y0408640D01*
X0108110Y0408120D01*
X0108630Y0408640D01*
X0115070Y0408640D01*
X0116010Y0407700D01*
X0116010Y0403370D01*
X0116170Y0403210D01*
X0116170Y0420890D01*
X0112360Y0424700D01*
X0093550Y0405880D01*
X0089200Y0405880D01*
X0089200Y0404470D01*
X0086740Y0402010D01*
X0083260Y0402010D01*
X0081360Y0403910D01*
X0078640Y0403910D01*
X0076740Y0402010D01*
X0073260Y0402010D01*
X0070800Y0404470D01*
X0070800Y0407950D01*
X0073260Y0410410D01*
X0076740Y0410410D01*
X0079040Y0408110D01*
X0080970Y0408110D01*
X0083260Y0410410D01*
X0086740Y0410410D01*
X0087070Y0410080D01*
X0091810Y0410080D01*
X0092740Y0411010D01*
X0085140Y0411010D01*
X0084200Y0411950D01*
X0084200Y0415470D01*
X0084940Y0416210D01*
X0084200Y0416950D01*
X0084200Y0420400D01*
X0083550Y0420130D01*
X0082120Y0420130D01*
X0080800Y0420680D01*
X0079780Y0421690D01*
X0079270Y0422940D01*
X0078970Y0422650D01*
X0077650Y0422100D01*
X0076300Y0422100D01*
X0075830Y0421630D01*
X0075480Y0421630D01*
X0075060Y0421210D01*
X0075800Y0420470D01*
X0075800Y0416950D01*
X0075180Y0416320D01*
X0075310Y0416250D01*
X0075640Y0415920D01*
X0075880Y0415500D01*
X0076000Y0415050D01*
X0076000Y0413710D01*
X0070300Y0413710D01*
X0064600Y0413710D01*
X0064600Y0413440D01*
X0058430Y0419610D01*
X0058430Y0421220D01*
X0057730Y0422920D01*
X0056430Y0424210D01*
X0054740Y0424920D01*
X0052940Y0424920D01*
X0052970Y0424980D01*
X0052970Y0425570D01*
X0064900Y0425570D01*
X0064800Y0425470D01*
X0064800Y0421950D01*
X0065540Y0421210D01*
X0064800Y0420470D01*
X0064800Y0416950D01*
X0065430Y0416320D01*
X0065300Y0416250D01*
X0064960Y0415920D01*
X0064720Y0415500D01*
X0064600Y0415050D01*
X0064600Y0413710D01*
X0070300Y0413710D01*
X0070300Y0413710D01*
X0070300Y0413710D01*
X0070300Y0410810D01*
X0069350Y0410810D01*
X0070140Y0410020D01*
X0070690Y0408700D01*
X0070690Y0407270D01*
X0070140Y0405940D01*
X0069130Y0404930D01*
X0067800Y0404380D01*
X0066370Y0404380D01*
X0065050Y0404930D01*
X0064040Y0405940D01*
X0063490Y0407270D01*
X0063490Y0408610D01*
X0055920Y0416180D01*
X0054740Y0415690D01*
X0052900Y0415690D01*
X0051210Y0416390D01*
X0049910Y0417690D01*
X0049210Y0419390D01*
X0049210Y0421220D01*
X0049570Y0422100D01*
X0048660Y0422100D01*
X0047330Y0422650D01*
X0046620Y0423360D01*
X0046620Y0416630D01*
X0045680Y0415690D01*
X0038340Y0415690D01*
X0037400Y0416630D01*
X0037400Y0423980D01*
X0038340Y0424920D01*
X0041370Y0424920D01*
X0041370Y0426570D01*
X0042300Y0427500D01*
X0041090Y0427500D01*
X0039400Y0428210D01*
X0038100Y0429500D01*
X0037400Y0431200D01*
X0037400Y0433030D01*
X0037890Y0434210D01*
X0035460Y0436640D01*
X0035460Y0468880D01*
X0034980Y0467080D01*
X0033570Y0464640D01*
X0031580Y0462640D01*
X0029130Y0461230D01*
X0026410Y0460500D01*
X0023590Y0460500D01*
X0020870Y0461230D01*
X0018430Y0462640D01*
X0016440Y0464640D01*
X0015030Y0467080D01*
X0014800Y0467910D01*
X0014800Y0429510D01*
X0015030Y0430340D01*
X0016440Y0432780D01*
X0018430Y0434780D01*
X0020870Y0436190D01*
X0023590Y0436920D01*
X0026410Y0436920D01*
X0029130Y0436190D01*
X0031580Y0434780D01*
X0033570Y0432780D01*
X0034980Y0430340D01*
X0035710Y0427620D01*
X0035710Y0424800D01*
X0034980Y0422080D01*
X0033570Y0419640D01*
X0031580Y0417640D01*
X0029130Y0416230D01*
X0026410Y0415500D01*
X0023590Y0415500D01*
X0020870Y0416230D01*
X0018430Y0417640D01*
X0016440Y0419640D01*
X0015030Y0422080D01*
X0014800Y0422910D01*
X0014800Y0421560D02*
X0015330Y0421560D01*
X0014800Y0419970D02*
X0016240Y0419970D01*
X0014800Y0418390D02*
X0017690Y0418390D01*
X0019890Y0416800D02*
X0014800Y0416800D01*
X0014800Y0415220D02*
X0056890Y0415220D01*
X0058470Y0413630D02*
X0014800Y0413630D01*
X0014800Y0412050D02*
X0060060Y0412050D01*
X0061640Y0410460D02*
X0014800Y0410460D01*
X0014800Y0408880D02*
X0063230Y0408880D01*
X0063490Y0407290D02*
X0014800Y0407290D01*
X0014800Y0405710D02*
X0064270Y0405710D01*
X0069900Y0405710D02*
X0070800Y0405710D01*
X0070690Y0407290D02*
X0070800Y0407290D01*
X0070620Y0408880D02*
X0071730Y0408880D01*
X0070300Y0410810D02*
X0074440Y0410810D01*
X0074900Y0410930D01*
X0075310Y0411170D01*
X0075640Y0411500D01*
X0075880Y0411920D01*
X0076000Y0412370D01*
X0076000Y0413710D01*
X0070300Y0413710D01*
X0070300Y0410810D01*
X0069700Y0410460D02*
X0092190Y0410460D01*
X0094960Y0407290D02*
X0100210Y0407290D01*
X0098130Y0410460D02*
X0116170Y0410460D01*
X0116170Y0408880D02*
X0096540Y0408880D01*
X0099710Y0412050D02*
X0116170Y0412050D01*
X0116170Y0413630D02*
X0101300Y0413630D01*
X0102880Y0415220D02*
X0116170Y0415220D01*
X0116170Y0416800D02*
X0104470Y0416800D01*
X0106050Y0418390D02*
X0116170Y0418390D01*
X0116170Y0419970D02*
X0107640Y0419970D01*
X0109220Y0421560D02*
X0115510Y0421560D01*
X0113920Y0423140D02*
X0110810Y0423140D01*
X0115110Y0427900D02*
X0123400Y0427900D01*
X0124180Y0428670D02*
X0119370Y0423860D01*
X0119250Y0423750D01*
X0114950Y0428050D01*
X0114950Y0433050D01*
X0114570Y0433430D01*
X0114790Y0433650D01*
X0115030Y0434060D01*
X0115150Y0434520D01*
X0115150Y0436830D01*
X0110880Y0436830D01*
X0110880Y0437790D01*
X0115150Y0437790D01*
X0115150Y0440110D01*
X0115030Y0440570D01*
X0114790Y0440980D01*
X0114450Y0441310D01*
X0114040Y0441550D01*
X0113590Y0441670D01*
X0110880Y0441670D01*
X0110880Y0437790D01*
X0109920Y0437790D01*
X0109920Y0441670D01*
X0107210Y0441670D01*
X0106750Y0441550D01*
X0106340Y0441310D01*
X0106000Y0440980D01*
X0105770Y0440570D01*
X0105770Y0440580D02*
X0104620Y0440580D01*
X0105640Y0440110D02*
X0105640Y0437790D01*
X0109920Y0437790D01*
X0109920Y0436830D01*
X0106170Y0436830D01*
X0104620Y0438380D01*
X0104620Y0450120D01*
X0105740Y0449660D01*
X0107170Y0449660D01*
X0108500Y0450210D01*
X0109450Y0451160D01*
X0137080Y0451160D01*
X0144410Y0443830D01*
X0137690Y0443830D01*
X0136750Y0442900D01*
X0136750Y0437640D01*
X0134040Y0437640D01*
X0133210Y0438470D01*
X0130120Y0438470D01*
X0123840Y0444750D01*
X0123840Y0446100D01*
X0123290Y0447420D01*
X0122280Y0448440D01*
X0120950Y0448980D01*
X0119520Y0448980D01*
X0118200Y0448440D01*
X0117190Y0447420D01*
X0116640Y0446100D01*
X0116640Y0444670D01*
X0117190Y0443340D01*
X0118200Y0442330D01*
X0119520Y0441780D01*
X0120870Y0441780D01*
X0124180Y0438470D01*
X0119080Y0438470D01*
X0118140Y0437530D01*
X0118140Y0435100D01*
X0118070Y0434970D01*
X0117940Y0434510D01*
X0117940Y0433570D01*
X0117940Y0432640D01*
X0118070Y0432180D01*
X0118140Y0432040D01*
X0118140Y0429610D01*
X0119080Y0428670D01*
X0124180Y0428670D01*
X0125940Y0430440D02*
X0125940Y0432040D01*
X0126020Y0432180D01*
X0126140Y0432640D01*
X0126140Y0433570D01*
X0122040Y0433570D01*
X0117940Y0433570D01*
X0122040Y0433570D01*
X0122040Y0433570D01*
X0122040Y0433570D01*
X0126140Y0433570D01*
X0126140Y0434510D01*
X0126020Y0434970D01*
X0125940Y0435100D01*
X0125940Y0436710D01*
X0126340Y0436310D01*
X0126340Y0434810D01*
X0127280Y0433870D01*
X0128630Y0433870D01*
X0128710Y0433720D01*
X0129000Y0433650D01*
X0129080Y0433570D01*
X0129000Y0433490D01*
X0128710Y0433420D01*
X0128630Y0433270D01*
X0127280Y0433270D01*
X0126340Y0432330D01*
X0126340Y0430840D01*
X0125940Y0430440D01*
X0125940Y0431070D02*
X0126340Y0431070D01*
X0126140Y0432650D02*
X0126660Y0432650D01*
X0126920Y0434240D02*
X0126140Y0434240D01*
X0125940Y0435820D02*
X0126340Y0435820D01*
X0123660Y0438990D02*
X0115150Y0438990D01*
X0115020Y0440580D02*
X0122080Y0440580D01*
X0126430Y0442160D02*
X0136750Y0442160D01*
X0136750Y0440580D02*
X0128020Y0440580D01*
X0129600Y0438990D02*
X0136750Y0438990D01*
X0137600Y0443750D02*
X0124850Y0443750D01*
X0123840Y0445330D02*
X0142910Y0445330D01*
X0141330Y0446920D02*
X0123500Y0446920D01*
X0122120Y0448500D02*
X0139740Y0448500D01*
X0138160Y0450090D02*
X0108210Y0450090D01*
X0104710Y0450090D02*
X0104620Y0450090D01*
X0104620Y0448500D02*
X0118360Y0448500D01*
X0116980Y0446920D02*
X0104620Y0446920D01*
X0104620Y0445330D02*
X0116640Y0445330D01*
X0117020Y0443750D02*
X0104620Y0443750D01*
X0104620Y0442160D02*
X0118610Y0442160D01*
X0118140Y0437410D02*
X0110880Y0437410D01*
X0109920Y0437410D02*
X0105600Y0437410D01*
X0105640Y0438990D02*
X0104620Y0438990D01*
X0105640Y0440110D02*
X0105770Y0440570D01*
X0109920Y0440580D02*
X0110880Y0440580D01*
X0110880Y0438990D02*
X0109920Y0438990D01*
X0115150Y0435820D02*
X0118140Y0435820D01*
X0117940Y0434240D02*
X0115070Y0434240D01*
X0114950Y0432650D02*
X0117940Y0432650D01*
X0118140Y0431070D02*
X0114950Y0431070D01*
X0114950Y0429480D02*
X0118270Y0429480D01*
X0116690Y0426310D02*
X0121820Y0426310D01*
X0120230Y0424730D02*
X0118280Y0424730D01*
X0123210Y0421760D02*
X0126900Y0418070D01*
X0126480Y0419080D01*
X0126480Y0420510D01*
X0127030Y0421830D01*
X0128040Y0422840D01*
X0129360Y0423390D01*
X0130800Y0423390D01*
X0132120Y0422840D01*
X0133070Y0421890D01*
X0161450Y0421890D01*
X0161450Y0426800D01*
X0147040Y0441210D01*
X0147040Y0435270D01*
X0146100Y0434330D01*
X0141690Y0434330D01*
X0140790Y0433440D01*
X0132530Y0433440D01*
X0132180Y0433270D01*
X0133210Y0433270D01*
X0134140Y0432330D01*
X0134140Y0429610D01*
X0133210Y0428670D01*
X0130120Y0428670D01*
X0123210Y0421760D01*
X0123410Y0421560D02*
X0126910Y0421560D01*
X0126480Y0419970D02*
X0125000Y0419970D01*
X0126580Y0418390D02*
X0126770Y0418390D01*
X0122230Y0416800D02*
X0120370Y0416800D01*
X0120370Y0415220D02*
X0123810Y0415220D01*
X0125400Y0413630D02*
X0120370Y0413630D01*
X0120370Y0412050D02*
X0126980Y0412050D01*
X0128570Y0410460D02*
X0120370Y0410460D01*
X0120370Y0408880D02*
X0130150Y0408880D01*
X0131740Y0407290D02*
X0120370Y0407290D01*
X0120370Y0405710D02*
X0133320Y0405710D01*
X0134910Y0404120D02*
X0120370Y0404120D01*
X0120370Y0402540D02*
X0136490Y0402540D01*
X0136180Y0400960D02*
X0133860Y0400960D01*
X0133400Y0400840D01*
X0132990Y0400600D01*
X0132660Y0400270D01*
X0132420Y0399860D01*
X0132300Y0399400D01*
X0132300Y0396690D01*
X0136180Y0396690D01*
X0136180Y0400960D01*
X0136180Y0400950D02*
X0137140Y0400950D01*
X0137140Y0400960D02*
X0137140Y0396690D01*
X0136180Y0396690D01*
X0136180Y0395730D01*
X0137140Y0395730D01*
X0137140Y0391460D01*
X0139450Y0391460D01*
X0139910Y0391580D01*
X0140100Y0391690D01*
X0140130Y0391660D01*
X0146570Y0391660D01*
X0147510Y0392590D01*
X0147510Y0394070D01*
X0150860Y0394070D01*
X0156980Y0387960D01*
X0156920Y0387960D01*
X0155600Y0387410D01*
X0154890Y0386700D01*
X0154100Y0387480D01*
X0150880Y0387480D01*
X0150810Y0387730D01*
X0150580Y0388140D01*
X0150240Y0388480D01*
X0149830Y0388710D01*
X0149370Y0388840D01*
X0140880Y0388840D01*
X0140880Y0372090D01*
X0139280Y0372090D01*
X0139280Y0388840D01*
X0130790Y0388840D01*
X0130330Y0388710D01*
X0129920Y0388480D01*
X0129590Y0388140D01*
X0129350Y0387730D01*
X0129340Y0387680D01*
X0128510Y0387680D01*
X0126330Y0387680D01*
X0125870Y0387560D01*
X0125460Y0387330D01*
X0125120Y0386990D01*
X0124960Y0386700D01*
X0124250Y0387410D01*
X0122920Y0387960D01*
X0121490Y0387960D01*
X0120290Y0387460D01*
X0120540Y0387710D01*
X0120540Y0392580D01*
X0120370Y0392750D01*
X0120370Y0418660D01*
X0138070Y0400960D01*
X0137140Y0400960D01*
X0137140Y0399370D02*
X0136180Y0399370D01*
X0136180Y0397780D02*
X0137140Y0397780D01*
X0136180Y0396200D02*
X0120370Y0396200D01*
X0120370Y0397780D02*
X0132300Y0397780D01*
X0132300Y0399370D02*
X0120370Y0399370D01*
X0120370Y0400950D02*
X0133810Y0400950D01*
X0132300Y0395730D02*
X0132300Y0393020D01*
X0132420Y0392560D01*
X0132660Y0392150D01*
X0132990Y0391820D01*
X0133400Y0391580D01*
X0133860Y0391460D01*
X0136180Y0391460D01*
X0136180Y0395730D01*
X0132300Y0395730D01*
X0132300Y0394610D02*
X0120370Y0394610D01*
X0120370Y0393030D02*
X0132300Y0393030D01*
X0136180Y0393030D02*
X0137140Y0393030D01*
X0137140Y0394610D02*
X0136180Y0394610D01*
X0139280Y0388270D02*
X0140880Y0388270D01*
X0140880Y0386690D02*
X0139280Y0386690D01*
X0139280Y0385100D02*
X0140880Y0385100D01*
X0140880Y0383520D02*
X0139280Y0383520D01*
X0139280Y0381930D02*
X0140880Y0381930D01*
X0140880Y0380350D02*
X0139280Y0380350D01*
X0139280Y0378760D02*
X0140880Y0378760D01*
X0140880Y0377180D02*
X0139280Y0377180D01*
X0139280Y0375590D02*
X0140880Y0375590D01*
X0140880Y0374010D02*
X0139280Y0374010D01*
X0139280Y0372420D02*
X0140880Y0372420D01*
X0140880Y0370490D02*
X0139280Y0370490D01*
X0139280Y0353740D01*
X0130790Y0353740D01*
X0130330Y0353860D01*
X0129920Y0354100D01*
X0129590Y0354440D01*
X0129350Y0354850D01*
X0129320Y0354940D01*
X0127780Y0354940D01*
X0127780Y0354120D01*
X0127310Y0353000D01*
X0152070Y0353000D01*
X0152070Y0353580D01*
X0152550Y0354740D01*
X0151490Y0354740D01*
X0151490Y0357140D01*
X0151490Y0357140D01*
X0151490Y0354740D01*
X0150750Y0354740D01*
X0150580Y0354440D01*
X0150240Y0354100D01*
X0149830Y0353860D01*
X0149370Y0353740D01*
X0140880Y0353740D01*
X0140880Y0370490D01*
X0140880Y0369250D02*
X0139280Y0369250D01*
X0139280Y0367670D02*
X0140880Y0367670D01*
X0140880Y0366080D02*
X0139280Y0366080D01*
X0139280Y0364500D02*
X0140880Y0364500D01*
X0140880Y0362910D02*
X0139280Y0362910D01*
X0139280Y0361330D02*
X0140880Y0361330D01*
X0140880Y0359740D02*
X0139280Y0359740D01*
X0139280Y0358160D02*
X0140880Y0358160D01*
X0140880Y0356570D02*
X0139280Y0356570D01*
X0139280Y0354990D02*
X0140880Y0354990D01*
X0151490Y0354990D02*
X0151490Y0354990D01*
X0151490Y0356570D02*
X0151490Y0356570D01*
X0152070Y0353400D02*
X0127480Y0353400D01*
X0117790Y0356520D02*
X0113650Y0356520D01*
X0113230Y0356930D01*
X0106290Y0356930D01*
X0106480Y0357120D01*
X0106480Y0364350D01*
X0105550Y0365290D01*
X0099100Y0365290D01*
X0098730Y0364910D01*
X0098510Y0365130D01*
X0098100Y0365370D01*
X0097640Y0365490D01*
X0095320Y0365490D01*
X0095320Y0361220D01*
X0094370Y0361220D01*
X0094370Y0365490D01*
X0092050Y0365490D01*
X0091590Y0365370D01*
X0091180Y0365130D01*
X0090850Y0364800D01*
X0090610Y0364390D01*
X0090490Y0363930D01*
X0079200Y0375220D01*
X0079200Y0377950D01*
X0076740Y0380410D01*
X0075950Y0380410D01*
X0097490Y0401940D01*
X0100210Y0401940D01*
X0100210Y0400470D01*
X0101150Y0399530D01*
X0107590Y0399530D01*
X0108110Y0400050D01*
X0108630Y0399530D01*
X0112230Y0399530D01*
X0112230Y0399160D01*
X0111280Y0398210D01*
X0110730Y0396890D01*
X0110730Y0395450D01*
X0111280Y0394130D01*
X0111890Y0393520D01*
X0110400Y0393520D01*
X0109470Y0392580D01*
X0109470Y0392370D01*
X0105540Y0392370D01*
X0105540Y0392580D01*
X0104600Y0393520D01*
X0100520Y0393520D01*
X0100140Y0393140D01*
X0099930Y0393360D01*
X0099520Y0393600D01*
X0099060Y0393720D01*
X0097440Y0393720D01*
X0095830Y0393720D01*
X0095370Y0393600D01*
X0094960Y0393360D01*
X0094620Y0393020D01*
X0094390Y0392610D01*
X0094270Y0392160D01*
X0094270Y0390150D01*
X0097440Y0390150D01*
X0097440Y0390150D01*
X0097440Y0393720D01*
X0097440Y0390150D01*
X0097440Y0390150D01*
X0094270Y0390150D01*
X0094270Y0388140D01*
X0094390Y0387680D01*
X0094620Y0387270D01*
X0094960Y0386930D01*
X0095320Y0386720D01*
X0095320Y0382870D01*
X0094370Y0382870D01*
X0094370Y0387140D01*
X0092050Y0387140D01*
X0091590Y0387020D01*
X0091180Y0386780D01*
X0090850Y0386450D01*
X0090610Y0386040D01*
X0090490Y0385580D01*
X0090490Y0382870D01*
X0094360Y0382870D01*
X0094360Y0381910D01*
X0090490Y0381910D01*
X0090490Y0379200D01*
X0090610Y0378740D01*
X0090850Y0378330D01*
X0091180Y0378000D01*
X0091590Y0377760D01*
X0092050Y0377640D01*
X0094370Y0377640D01*
X0094370Y0381910D01*
X0095320Y0381910D01*
X0095320Y0377640D01*
X0097640Y0377640D01*
X0098100Y0377760D01*
X0098510Y0378000D01*
X0098730Y0378220D01*
X0099100Y0377840D01*
X0105550Y0377840D01*
X0106030Y0378320D01*
X0124960Y0378320D01*
X0124960Y0376620D01*
X0105590Y0376620D01*
X0104100Y0375130D01*
X0099100Y0375130D01*
X0098730Y0374760D01*
X0098510Y0374970D01*
X0098100Y0375210D01*
X0097640Y0375330D01*
X0095320Y0375330D01*
X0095320Y0371060D01*
X0094370Y0371060D01*
X0094370Y0375330D01*
X0092050Y0375330D01*
X0091590Y0375210D01*
X0091180Y0374970D01*
X0090850Y0374640D01*
X0090610Y0374230D01*
X0090490Y0373770D01*
X0090490Y0371060D01*
X0094360Y0371060D01*
X0094360Y0370100D01*
X0090490Y0370100D01*
X0090490Y0367390D01*
X0090610Y0366930D01*
X0090850Y0366520D01*
X0091180Y0366190D01*
X0091590Y0365950D01*
X0092050Y0365830D01*
X0094370Y0365830D01*
X0094370Y0370100D01*
X0095320Y0370100D01*
X0095320Y0365830D01*
X0097640Y0365830D01*
X0098100Y0365950D01*
X0098510Y0366190D01*
X0098730Y0366400D01*
X0099100Y0366030D01*
X0105550Y0366030D01*
X0106480Y0366960D01*
X0106480Y0371570D01*
X0107330Y0372420D01*
X0119070Y0372420D01*
X0118610Y0371300D01*
X0118610Y0369860D01*
X0119120Y0368640D01*
X0114650Y0368640D01*
X0113720Y0367700D01*
X0113720Y0361260D01*
X0114090Y0360880D01*
X0113880Y0360660D01*
X0113640Y0360250D01*
X0113520Y0359790D01*
X0113520Y0357480D01*
X0117790Y0357480D01*
X0117790Y0356520D01*
X0117790Y0356570D02*
X0113600Y0356570D01*
X0113520Y0358160D02*
X0106480Y0358160D01*
X0106480Y0359740D02*
X0113520Y0359740D01*
X0113720Y0361330D02*
X0106480Y0361330D01*
X0106480Y0362910D02*
X0113720Y0362910D01*
X0113720Y0364500D02*
X0106340Y0364500D01*
X0105600Y0366080D02*
X0113720Y0366080D01*
X0113720Y0367670D02*
X0106480Y0367670D01*
X0106480Y0369250D02*
X0118860Y0369250D01*
X0118610Y0370840D02*
X0106480Y0370840D01*
X0104560Y0375590D02*
X0089200Y0375590D01*
X0089200Y0374470D02*
X0086740Y0372010D01*
X0083260Y0372010D01*
X0080800Y0374470D01*
X0080800Y0377950D01*
X0083260Y0380410D01*
X0086740Y0380410D01*
X0089200Y0377950D01*
X0089200Y0374470D01*
X0088740Y0374010D02*
X0090550Y0374010D01*
X0090490Y0372420D02*
X0087150Y0372420D01*
X0085170Y0369250D02*
X0090490Y0369250D01*
X0090490Y0367670D02*
X0086750Y0367670D01*
X0088340Y0366080D02*
X0091370Y0366080D01*
X0090670Y0364500D02*
X0089920Y0364500D01*
X0085570Y0362910D02*
X0078380Y0362910D01*
X0078380Y0364500D02*
X0083980Y0364500D01*
X0082400Y0366080D02*
X0078050Y0366080D01*
X0078180Y0367670D02*
X0080810Y0367670D01*
X0079230Y0369250D02*
X0078180Y0369250D01*
X0082000Y0372420D02*
X0082850Y0372420D01*
X0083580Y0370840D02*
X0094360Y0370840D01*
X0094370Y0372420D02*
X0095320Y0372420D01*
X0095320Y0374010D02*
X0094370Y0374010D01*
X0094370Y0378760D02*
X0095320Y0378760D01*
X0095320Y0380350D02*
X0094370Y0380350D01*
X0094360Y0381930D02*
X0077470Y0381930D01*
X0076810Y0380350D02*
X0083200Y0380350D01*
X0081610Y0378760D02*
X0078390Y0378760D01*
X0079200Y0377180D02*
X0080800Y0377180D01*
X0080800Y0375590D02*
X0079200Y0375590D01*
X0080410Y0374010D02*
X0081270Y0374010D01*
X0086810Y0380350D02*
X0090490Y0380350D01*
X0090600Y0378760D02*
X0088390Y0378760D01*
X0089200Y0377180D02*
X0124960Y0377180D01*
X0128510Y0385280D02*
X0128510Y0387680D01*
X0128510Y0385280D01*
X0128510Y0385280D01*
X0128510Y0386690D02*
X0128510Y0386690D01*
X0129710Y0388270D02*
X0120540Y0388270D01*
X0120540Y0389860D02*
X0155080Y0389860D01*
X0153500Y0391440D02*
X0120540Y0391440D01*
X0111080Y0394610D02*
X0090150Y0394610D01*
X0088570Y0393030D02*
X0094630Y0393030D01*
X0094270Y0391440D02*
X0086980Y0391440D01*
X0085400Y0389860D02*
X0094270Y0389860D01*
X0094270Y0388270D02*
X0083810Y0388270D01*
X0082230Y0386690D02*
X0091080Y0386690D01*
X0090490Y0385100D02*
X0080640Y0385100D01*
X0079060Y0383520D02*
X0090490Y0383520D01*
X0094370Y0383520D02*
X0095320Y0383520D01*
X0095320Y0385100D02*
X0094370Y0385100D01*
X0094370Y0386690D02*
X0095320Y0386690D01*
X0097440Y0391440D02*
X0097440Y0391440D01*
X0097440Y0393030D02*
X0097440Y0393030D01*
X0093320Y0397780D02*
X0111100Y0397780D01*
X0110730Y0396200D02*
X0091740Y0396200D01*
X0088970Y0399370D02*
X0057330Y0399370D01*
X0057700Y0400950D02*
X0090550Y0400950D01*
X0092140Y0402540D02*
X0087270Y0402540D01*
X0088850Y0404120D02*
X0093720Y0404120D01*
X0095310Y0405710D02*
X0089200Y0405710D01*
X0082740Y0402540D02*
X0077270Y0402540D01*
X0072740Y0402540D02*
X0057440Y0402540D01*
X0056400Y0404120D02*
X0071150Y0404120D01*
X0078280Y0408880D02*
X0081730Y0408880D01*
X0084200Y0412050D02*
X0075910Y0412050D01*
X0076000Y0413630D02*
X0084200Y0413630D01*
X0084200Y0415220D02*
X0075960Y0415220D01*
X0075650Y0416800D02*
X0084350Y0416800D01*
X0084200Y0418390D02*
X0075800Y0418390D01*
X0075800Y0419970D02*
X0084200Y0419970D01*
X0079920Y0421560D02*
X0075410Y0421560D01*
X0070300Y0413710D02*
X0070300Y0413710D01*
X0070300Y0413630D02*
X0070300Y0413630D01*
X0070300Y0412050D02*
X0070300Y0412050D01*
X0064600Y0413630D02*
X0064410Y0413630D01*
X0064650Y0415220D02*
X0062830Y0415220D01*
X0061240Y0416800D02*
X0064950Y0416800D01*
X0064800Y0418390D02*
X0059660Y0418390D01*
X0058430Y0419970D02*
X0064800Y0419970D01*
X0065190Y0421560D02*
X0058290Y0421560D01*
X0057510Y0423140D02*
X0064800Y0423140D01*
X0064800Y0424730D02*
X0055200Y0424730D01*
X0049350Y0421560D02*
X0046620Y0421560D01*
X0046620Y0423140D02*
X0046840Y0423140D01*
X0041370Y0426310D02*
X0035710Y0426310D01*
X0035690Y0424730D02*
X0038140Y0424730D01*
X0037400Y0423140D02*
X0035260Y0423140D01*
X0034680Y0421560D02*
X0037400Y0421560D01*
X0037400Y0419970D02*
X0033760Y0419970D01*
X0032320Y0418390D02*
X0037400Y0418390D01*
X0037400Y0416800D02*
X0030110Y0416800D01*
X0035630Y0427900D02*
X0040150Y0427900D01*
X0038120Y0429480D02*
X0035210Y0429480D01*
X0034560Y0431070D02*
X0037450Y0431070D01*
X0037400Y0432650D02*
X0033650Y0432650D01*
X0032120Y0434240D02*
X0037870Y0434240D01*
X0036280Y0435820D02*
X0029770Y0435820D01*
X0035460Y0437410D02*
X0014800Y0437410D01*
X0014800Y0438990D02*
X0035460Y0438990D01*
X0035460Y0440580D02*
X0014800Y0440580D01*
X0014800Y0442160D02*
X0035460Y0442160D01*
X0035460Y0443750D02*
X0014800Y0443750D01*
X0014800Y0445330D02*
X0035460Y0445330D01*
X0035460Y0446920D02*
X0014800Y0446920D01*
X0014800Y0448500D02*
X0035460Y0448500D01*
X0035460Y0450090D02*
X0014800Y0450090D01*
X0014800Y0451670D02*
X0035460Y0451670D01*
X0035460Y0453260D02*
X0014800Y0453260D01*
X0014800Y0454840D02*
X0035460Y0454840D01*
X0035460Y0456430D02*
X0014800Y0456430D01*
X0014800Y0458010D02*
X0035460Y0458010D01*
X0035460Y0459600D02*
X0014800Y0459600D01*
X0014800Y0461180D02*
X0021070Y0461180D01*
X0018310Y0462770D02*
X0014800Y0462770D01*
X0014800Y0464350D02*
X0016720Y0464350D01*
X0015690Y0465940D02*
X0014800Y0465940D01*
X0014800Y0467520D02*
X0014910Y0467520D01*
X0014800Y0474510D02*
X0014800Y0512910D01*
X0015030Y0512080D01*
X0016440Y0509640D01*
X0018430Y0507640D01*
X0020870Y0506230D01*
X0023590Y0505500D01*
X0026410Y0505500D01*
X0029130Y0506230D01*
X0031580Y0507640D01*
X0033570Y0509640D01*
X0034980Y0512080D01*
X0035710Y0514800D01*
X0035710Y0517620D01*
X0034980Y0520340D01*
X0033570Y0522780D01*
X0031580Y0524780D01*
X0029130Y0526190D01*
X0026410Y0526920D01*
X0023590Y0526920D01*
X0020870Y0526190D01*
X0018430Y0524780D01*
X0016440Y0522780D01*
X0015030Y0520340D01*
X0014800Y0519510D01*
X0014800Y0546680D01*
X0016120Y0544390D01*
X0018190Y0542330D01*
X0020720Y0540870D01*
X0023540Y0540110D01*
X0026460Y0540110D01*
X0029290Y0540870D01*
X0031820Y0542330D01*
X0033880Y0544390D01*
X0035340Y0546930D01*
X0036100Y0549750D01*
X0036100Y0552670D01*
X0035340Y0555490D01*
X0034630Y0556720D01*
X0092660Y0556720D01*
X0092610Y0556700D01*
X0091600Y0555690D01*
X0091050Y0554370D01*
X0091050Y0553320D01*
X0087370Y0553320D01*
X0086430Y0552380D01*
X0086430Y0546730D01*
X0086810Y0546350D01*
X0086590Y0546130D01*
X0086360Y0545720D01*
X0086230Y0545270D01*
X0086230Y0543050D01*
X0089820Y0543050D01*
X0089820Y0542680D01*
X0090190Y0542680D01*
X0090190Y0543050D01*
X0093770Y0543050D01*
X0093770Y0545270D01*
X0093650Y0545720D01*
X0093410Y0546130D01*
X0093190Y0546350D01*
X0093570Y0546730D01*
X0093570Y0549600D01*
X0094020Y0550050D01*
X0095360Y0550050D01*
X0096690Y0550600D01*
X0097700Y0551610D01*
X0098250Y0552930D01*
X0098250Y0554370D01*
X0097700Y0555690D01*
X0096690Y0556700D01*
X0096630Y0556720D01*
X0103810Y0556720D01*
X0102730Y0556280D01*
X0101860Y0555410D01*
X0095960Y0549500D01*
X0095480Y0548360D01*
X0095480Y0537070D01*
X0085280Y0537070D01*
X0085350Y0537310D01*
X0085350Y0539920D01*
X0080780Y0539920D01*
X0080780Y0541470D01*
X0085350Y0541470D01*
X0085350Y0544080D01*
X0085220Y0544540D01*
X0084990Y0544950D01*
X0084650Y0545290D01*
X0084240Y0545530D01*
X0083780Y0545650D01*
X0080780Y0545650D01*
X0080780Y0541470D01*
X0079230Y0541470D01*
X0079230Y0539920D01*
X0074660Y0539920D01*
X0074660Y0538650D01*
X0068220Y0545090D01*
X0068220Y0547500D01*
X0069160Y0548430D01*
X0069220Y0548580D01*
X0074860Y0548580D01*
X0074860Y0547910D01*
X0075800Y0546970D01*
X0084210Y0546970D01*
X0085150Y0547910D01*
X0085150Y0555530D01*
X0084210Y0556470D01*
X0075800Y0556470D01*
X0074860Y0555530D01*
X0074860Y0554780D01*
X0068360Y0554780D01*
X0067780Y0555360D01*
X0065980Y0556110D01*
X0064030Y0556110D01*
X0062230Y0555360D01*
X0060850Y0553990D01*
X0060100Y0552180D01*
X0060100Y0550240D01*
X0060850Y0548430D01*
X0062020Y0547260D01*
X0062020Y0543190D01*
X0062490Y0542050D01*
X0063360Y0541180D01*
X0073210Y0531340D01*
X0074350Y0530870D01*
X0109160Y0530870D01*
X0109930Y0530580D01*
X0111170Y0530640D01*
X0112060Y0531060D01*
X0114220Y0531060D01*
X0115160Y0532000D01*
X0115160Y0535410D01*
X0115300Y0535270D01*
X0115710Y0535030D01*
X0116170Y0534910D01*
X0120110Y0534910D01*
X0120110Y0540410D01*
X0121710Y0540410D01*
X0121710Y0542010D01*
X0126660Y0542010D01*
X0126660Y0542000D01*
X0127440Y0541210D01*
X0126660Y0540420D01*
X0126660Y0540410D01*
X0121710Y0540410D01*
X0121710Y0534910D01*
X0125640Y0534910D01*
X0126100Y0535030D01*
X0126510Y0535270D01*
X0126660Y0535410D01*
X0126660Y0532000D01*
X0127590Y0531060D01*
X0129950Y0531060D01*
X0129950Y0524250D01*
X0128390Y0524250D01*
X0127830Y0524820D01*
X0121390Y0524820D01*
X0121360Y0524790D01*
X0121170Y0524900D01*
X0120710Y0525020D01*
X0118400Y0525020D01*
X0118400Y0520740D01*
X0117440Y0520740D01*
X0117440Y0519790D01*
X0118400Y0519790D01*
X0118400Y0515510D01*
X0120110Y0515510D01*
X0120110Y0499700D01*
X0118990Y0500160D01*
X0117550Y0500160D01*
X0116230Y0499620D01*
X0115220Y0498600D01*
X0114670Y0497280D01*
X0114670Y0495850D01*
X0115220Y0494530D01*
X0115710Y0494030D01*
X0115640Y0494030D01*
X0114700Y0493090D01*
X0114700Y0492760D01*
X0110030Y0492760D01*
X0110030Y0493090D01*
X0109090Y0494030D01*
X0105010Y0494030D01*
X0104630Y0493650D01*
X0104410Y0493870D01*
X0104000Y0494110D01*
X0103550Y0494230D01*
X0101930Y0494230D01*
X0100320Y0494230D01*
X0099860Y0494110D01*
X0099450Y0493870D01*
X0099110Y0493540D01*
X0098880Y0493130D01*
X0098750Y0492670D01*
X0098750Y0490660D01*
X0101930Y0490660D01*
X0101930Y0494230D01*
X0101930Y0490660D01*
X0101930Y0490660D01*
X0101930Y0490660D01*
X0098750Y0490660D01*
X0098750Y0488650D01*
X0098880Y0488190D01*
X0099110Y0487780D01*
X0099190Y0487710D01*
X0099110Y0487630D01*
X0098880Y0487220D01*
X0098750Y0486760D01*
X0098750Y0484750D01*
X0098750Y0482740D01*
X0098880Y0482290D01*
X0099110Y0481880D01*
X0099190Y0481800D01*
X0099110Y0481720D01*
X0098880Y0481310D01*
X0098750Y0480860D01*
X0098750Y0478850D01*
X0101930Y0478850D01*
X0101930Y0481180D01*
X0101930Y0484750D01*
X0101930Y0484750D01*
X0098750Y0484750D01*
X0101930Y0484750D01*
X0101930Y0484750D01*
X0101930Y0478850D01*
X0101930Y0478850D01*
X0101930Y0478850D01*
X0098750Y0478850D01*
X0098750Y0476840D01*
X0098880Y0476380D01*
X0099110Y0475970D01*
X0099450Y0475640D01*
X0099860Y0475400D01*
X0100320Y0475280D01*
X0101930Y0475280D01*
X0101930Y0478850D01*
X0101930Y0478850D01*
X0101930Y0475280D01*
X0103550Y0475280D01*
X0104000Y0475400D01*
X0104410Y0475640D01*
X0104630Y0475850D01*
X0105010Y0475480D01*
X0109090Y0475480D01*
X0110030Y0476410D01*
X0110030Y0476750D01*
X0114700Y0476750D01*
X0114700Y0476410D01*
X0115640Y0475480D01*
X0117830Y0475480D01*
X0103620Y0461260D01*
X0094410Y0461260D01*
X0094260Y0461410D01*
X0090710Y0461410D01*
X0090640Y0461430D01*
X0090590Y0461410D01*
X0085140Y0461410D01*
X0084940Y0461210D01*
X0084940Y0472480D01*
X0086690Y0472480D01*
X0087630Y0473420D01*
X0087630Y0480730D01*
X0086690Y0481670D01*
X0084940Y0481670D01*
X0084940Y0483650D01*
X0082890Y0485700D01*
X0082890Y0490080D01*
X0083650Y0490080D01*
X0083650Y0485670D01*
X0085870Y0485670D01*
X0086330Y0485790D01*
X0086740Y0486030D01*
X0087070Y0486360D01*
X0087310Y0486780D01*
X0087430Y0487230D01*
X0087430Y0490080D01*
X0083650Y0490080D01*
X0083650Y0490840D01*
X0087430Y0490840D01*
X0087430Y0493690D01*
X0087310Y0494150D01*
X0087070Y0494560D01*
X0086740Y0494890D01*
X0086330Y0495130D01*
X0085870Y0495250D01*
X0083650Y0495250D01*
X0083650Y0490840D01*
X0082890Y0490840D01*
X0082890Y0490080D01*
X0079110Y0490080D01*
X0079110Y0489480D01*
X0058430Y0510160D01*
X0058430Y0511220D01*
X0057730Y0512920D01*
X0056430Y0514210D01*
X0054740Y0514920D01*
X0052900Y0514920D01*
X0051210Y0514210D01*
X0049910Y0512920D01*
X0049500Y0511930D01*
X0049500Y0517120D01*
X0046270Y0520350D01*
X0046620Y0521200D01*
X0046620Y0523030D01*
X0045920Y0524730D01*
X0044620Y0526030D01*
X0042930Y0526730D01*
X0041090Y0526730D01*
X0039400Y0526030D01*
X0038100Y0524730D01*
X0037400Y0523030D01*
X0037400Y0521200D01*
X0038100Y0519500D01*
X0039400Y0518210D01*
X0041090Y0517500D01*
X0042930Y0517500D01*
X0043110Y0517580D01*
X0045300Y0515380D01*
X0045300Y0515100D01*
X0045260Y0515120D01*
X0042210Y0515120D01*
X0042210Y0510510D01*
X0041810Y0510510D01*
X0041810Y0515120D01*
X0038760Y0515120D01*
X0038300Y0514990D01*
X0037890Y0514760D01*
X0037560Y0514420D01*
X0037320Y0514010D01*
X0037200Y0513550D01*
X0037200Y0510510D01*
X0041810Y0510510D01*
X0041810Y0510100D01*
X0042210Y0510100D01*
X0042210Y0505490D01*
X0045260Y0505490D01*
X0045720Y0505620D01*
X0046130Y0505850D01*
X0046460Y0506190D01*
X0046520Y0506290D01*
X0046530Y0506280D01*
X0059080Y0493730D01*
X0059080Y0474040D01*
X0060310Y0472810D01*
X0066960Y0466170D01*
X0066960Y0466090D01*
X0066010Y0465140D01*
X0065460Y0463820D01*
X0065460Y0462380D01*
X0065770Y0461640D01*
X0065190Y0462210D01*
X0063870Y0462760D01*
X0062440Y0462760D01*
X0061110Y0462210D01*
X0060100Y0461200D01*
X0059550Y0459880D01*
X0059550Y0458450D01*
X0060100Y0457120D01*
X0061110Y0456110D01*
X0062440Y0455560D01*
X0063870Y0455560D01*
X0065190Y0456110D01*
X0065410Y0456330D01*
X0065540Y0456210D01*
X0064800Y0455470D01*
X0064800Y0451950D01*
X0065540Y0451210D01*
X0064800Y0450470D01*
X0064800Y0446950D01*
X0065430Y0446320D01*
X0065300Y0446250D01*
X0064960Y0445920D01*
X0064720Y0445500D01*
X0064600Y0445050D01*
X0064600Y0443710D01*
X0064600Y0442970D01*
X0057380Y0450190D01*
X0057380Y0462340D01*
X0057730Y0462690D01*
X0058430Y0464390D01*
X0058430Y0466220D01*
X0057730Y0467920D01*
X0056430Y0469210D01*
X0054740Y0469920D01*
X0052900Y0469920D01*
X0051210Y0469210D01*
X0049910Y0467920D01*
X0049210Y0466220D01*
X0049210Y0464390D01*
X0049910Y0462690D01*
X0051210Y0461390D01*
X0052900Y0460690D01*
X0053180Y0460690D01*
X0053180Y0448480D01*
X0051470Y0450190D01*
X0050240Y0451420D01*
X0045570Y0456100D01*
X0045570Y0460690D01*
X0045680Y0460690D01*
X0046620Y0461630D01*
X0046620Y0468980D01*
X0045680Y0469920D01*
X0041440Y0469920D01*
X0043600Y0472070D01*
X0043600Y0472780D01*
X0044620Y0473210D01*
X0045920Y0474500D01*
X0046620Y0476200D01*
X0046620Y0478030D01*
X0045920Y0479730D01*
X0044620Y0481030D01*
X0042930Y0481730D01*
X0041090Y0481730D01*
X0039400Y0481030D01*
X0038100Y0479730D01*
X0037400Y0478030D01*
X0037400Y0476200D01*
X0038100Y0474500D01*
X0039090Y0473510D01*
X0036690Y0471110D01*
X0035710Y0470120D01*
X0035710Y0472620D01*
X0034980Y0475340D01*
X0033570Y0477780D01*
X0031580Y0479780D01*
X0029130Y0481190D01*
X0026410Y0481920D01*
X0023590Y0481920D01*
X0020870Y0481190D01*
X0018430Y0479780D01*
X0016440Y0477780D01*
X0015030Y0475340D01*
X0014800Y0474510D01*
X0014800Y0475450D02*
X0015090Y0475450D01*
X0014800Y0477030D02*
X0016000Y0477030D01*
X0014800Y0478620D02*
X0017270Y0478620D01*
X0019160Y0480200D02*
X0014800Y0480200D01*
X0014800Y0481790D02*
X0023110Y0481790D01*
X0026900Y0481790D02*
X0052620Y0481790D01*
X0052690Y0481810D02*
X0051970Y0481570D01*
X0051300Y0481230D01*
X0050690Y0480790D01*
X0050150Y0480250D01*
X0049710Y0479640D01*
X0049360Y0478960D01*
X0049130Y0478240D01*
X0049010Y0477490D01*
X0049010Y0477320D01*
X0053620Y0477320D01*
X0053620Y0481930D01*
X0053440Y0481930D01*
X0052690Y0481810D01*
X0053620Y0481790D02*
X0054020Y0481790D01*
X0054020Y0481930D02*
X0054020Y0477320D01*
X0053620Y0477320D01*
X0053620Y0476910D01*
X0054020Y0476910D01*
X0054020Y0472300D01*
X0054200Y0472300D01*
X0054950Y0472420D01*
X0055670Y0472660D01*
X0056340Y0473000D01*
X0056960Y0473450D01*
X0057490Y0473980D01*
X0057940Y0474590D01*
X0058280Y0475270D01*
X0058510Y0475990D01*
X0058630Y0476740D01*
X0058630Y0476910D01*
X0054030Y0476910D01*
X0054030Y0477320D01*
X0058630Y0477320D01*
X0058630Y0477490D01*
X0058510Y0478240D01*
X0058280Y0478960D01*
X0057940Y0479640D01*
X0057490Y0480250D01*
X0056960Y0480790D01*
X0056340Y0481230D01*
X0055670Y0481570D01*
X0054950Y0481810D01*
X0054200Y0481930D01*
X0054020Y0481930D01*
X0055020Y0481790D02*
X0059080Y0481790D01*
X0059080Y0483370D02*
X0014800Y0483370D01*
X0014800Y0484960D02*
X0059080Y0484960D01*
X0059080Y0486540D02*
X0014800Y0486540D01*
X0014800Y0488130D02*
X0059080Y0488130D01*
X0059080Y0489710D02*
X0014800Y0489710D01*
X0014800Y0491300D02*
X0059080Y0491300D01*
X0059080Y0492880D02*
X0014800Y0492880D01*
X0014800Y0494470D02*
X0058340Y0494470D01*
X0056760Y0496050D02*
X0014800Y0496050D01*
X0014800Y0497640D02*
X0055170Y0497640D01*
X0053590Y0499220D02*
X0014800Y0499220D01*
X0014800Y0500810D02*
X0052000Y0500810D01*
X0050420Y0502390D02*
X0014800Y0502390D01*
X0014800Y0503980D02*
X0048830Y0503980D01*
X0047250Y0505560D02*
X0045510Y0505560D01*
X0042210Y0505560D02*
X0041810Y0505560D01*
X0041810Y0505490D02*
X0041810Y0510100D01*
X0037200Y0510100D01*
X0037200Y0507060D01*
X0037320Y0506600D01*
X0037560Y0506190D01*
X0037890Y0505850D01*
X0038300Y0505620D01*
X0038760Y0505490D01*
X0041810Y0505490D01*
X0041810Y0507150D02*
X0042210Y0507150D01*
X0042210Y0508730D02*
X0041810Y0508730D01*
X0041810Y0510320D02*
X0033960Y0510320D01*
X0034880Y0511900D02*
X0037200Y0511900D01*
X0037200Y0513490D02*
X0035360Y0513490D01*
X0035710Y0515070D02*
X0038590Y0515070D01*
X0041810Y0515070D02*
X0042210Y0515070D01*
X0042210Y0513490D02*
X0041810Y0513490D01*
X0041810Y0511900D02*
X0042210Y0511900D01*
X0044030Y0516660D02*
X0035710Y0516660D01*
X0035540Y0518240D02*
X0039360Y0518240D01*
X0037970Y0519830D02*
X0035120Y0519830D01*
X0034360Y0521410D02*
X0037400Y0521410D01*
X0037400Y0523000D02*
X0033360Y0523000D01*
X0031770Y0524580D02*
X0038040Y0524580D01*
X0039740Y0526170D02*
X0029170Y0526170D01*
X0020830Y0526170D02*
X0014800Y0526170D01*
X0014800Y0527750D02*
X0129950Y0527750D01*
X0129950Y0526170D02*
X0056100Y0526170D01*
X0056430Y0526030D02*
X0054740Y0526730D01*
X0052900Y0526730D01*
X0051210Y0526030D01*
X0049910Y0524730D01*
X0049210Y0523030D01*
X0049210Y0521200D01*
X0049910Y0519500D01*
X0051210Y0518210D01*
X0052900Y0517500D01*
X0054740Y0517500D01*
X0054920Y0517580D01*
X0060160Y0512330D01*
X0060100Y0512180D01*
X0060100Y0510240D01*
X0060850Y0508430D01*
X0062230Y0507060D01*
X0064030Y0506310D01*
X0065980Y0506310D01*
X0067780Y0507060D01*
X0069160Y0508430D01*
X0069900Y0510240D01*
X0069900Y0512180D01*
X0069160Y0513990D01*
X0067780Y0515360D01*
X0065980Y0516110D01*
X0064030Y0516110D01*
X0062820Y0515610D01*
X0058080Y0520350D01*
X0058430Y0521200D01*
X0058430Y0523030D01*
X0057730Y0524730D01*
X0056430Y0526030D01*
X0057790Y0524580D02*
X0114170Y0524580D01*
X0114250Y0524660D02*
X0113920Y0524320D01*
X0113680Y0523910D01*
X0113560Y0523450D01*
X0113560Y0520740D01*
X0117440Y0520740D01*
X0117440Y0525020D01*
X0115120Y0525020D01*
X0114660Y0524900D01*
X0114250Y0524660D01*
X0113560Y0523000D02*
X0058430Y0523000D01*
X0058430Y0521410D02*
X0113560Y0521410D01*
X0113560Y0519790D02*
X0113560Y0517080D01*
X0113680Y0516620D01*
X0113920Y0516210D01*
X0114250Y0515870D01*
X0114660Y0515640D01*
X0115120Y0515510D01*
X0117440Y0515510D01*
X0117440Y0519790D01*
X0113560Y0519790D01*
X0113560Y0518240D02*
X0060190Y0518240D01*
X0058610Y0519830D02*
X0117440Y0519830D01*
X0117440Y0521410D02*
X0118400Y0521410D01*
X0118400Y0523000D02*
X0117440Y0523000D01*
X0117440Y0524580D02*
X0118400Y0524580D01*
X0118400Y0518240D02*
X0117440Y0518240D01*
X0117440Y0516660D02*
X0118400Y0516660D01*
X0120110Y0515070D02*
X0068070Y0515070D01*
X0069360Y0513490D02*
X0120110Y0513490D01*
X0120110Y0511900D02*
X0069900Y0511900D01*
X0069900Y0510320D02*
X0120110Y0510320D01*
X0120110Y0508730D02*
X0069280Y0508730D01*
X0067870Y0507150D02*
X0120110Y0507150D01*
X0120110Y0505560D02*
X0063030Y0505560D01*
X0062140Y0507150D02*
X0061450Y0507150D01*
X0060730Y0508730D02*
X0059860Y0508730D01*
X0060100Y0510320D02*
X0058430Y0510320D01*
X0058150Y0511900D02*
X0060100Y0511900D01*
X0059010Y0513490D02*
X0057160Y0513490D01*
X0057420Y0515070D02*
X0049500Y0515070D01*
X0049500Y0513490D02*
X0050480Y0513490D01*
X0049500Y0516660D02*
X0055840Y0516660D01*
X0051170Y0518240D02*
X0048380Y0518240D01*
X0049780Y0519830D02*
X0046800Y0519830D01*
X0046620Y0521410D02*
X0049210Y0521410D01*
X0049210Y0523000D02*
X0046620Y0523000D01*
X0045980Y0524580D02*
X0049850Y0524580D01*
X0051550Y0526170D02*
X0044280Y0526170D01*
X0061780Y0516660D02*
X0113670Y0516660D01*
X0124310Y0515710D02*
X0127830Y0515710D01*
X0128770Y0516650D01*
X0128770Y0520050D01*
X0141410Y0520050D01*
X0142170Y0519300D01*
X0147830Y0519300D01*
X0148590Y0520050D01*
X0151430Y0520050D01*
X0151430Y0520040D01*
X0152370Y0519100D01*
X0155760Y0519100D01*
X0157510Y0517350D01*
X0157510Y0494680D01*
X0157000Y0494170D01*
X0157000Y0486740D01*
X0156920Y0486600D01*
X0156800Y0486150D01*
X0156800Y0485210D01*
X0156800Y0484270D01*
X0156900Y0483910D01*
X0156800Y0483550D01*
X0156800Y0482610D01*
X0156800Y0481670D01*
X0156900Y0481310D01*
X0156800Y0480950D01*
X0156800Y0480010D01*
X0156800Y0479070D01*
X0156920Y0478620D01*
X0143000Y0478620D01*
X0143000Y0480200D02*
X0156800Y0480200D01*
X0156800Y0480010D02*
X0161500Y0480010D01*
X0156800Y0480010D01*
X0156920Y0478620D02*
X0157000Y0478480D01*
X0157000Y0458250D01*
X0157940Y0457310D01*
X0165060Y0457310D01*
X0166000Y0458250D01*
X0166000Y0478480D01*
X0166080Y0478620D01*
X0173260Y0478620D01*
X0173260Y0480200D02*
X0166200Y0480200D01*
X0166200Y0480010D02*
X0166200Y0480950D01*
X0166100Y0481310D01*
X0166200Y0481670D01*
X0166200Y0482610D01*
X0166200Y0483550D01*
X0166100Y0483910D01*
X0166200Y0484270D01*
X0166200Y0485210D01*
X0166200Y0486150D01*
X0166080Y0486600D01*
X0166000Y0486740D01*
X0166000Y0487200D01*
X0166610Y0486590D01*
X0173260Y0486590D01*
X0173260Y0401210D01*
X0174490Y0399980D01*
X0175690Y0398770D01*
X0175690Y0397420D01*
X0176160Y0396300D01*
X0172520Y0396300D01*
X0171290Y0395070D01*
X0167150Y0390930D01*
X0167150Y0390980D01*
X0166600Y0392300D01*
X0165650Y0393260D01*
X0165650Y0428540D01*
X0164420Y0429770D01*
X0138820Y0455360D01*
X0109450Y0455360D01*
X0108500Y0456310D01*
X0107170Y0456860D01*
X0105740Y0456860D01*
X0104620Y0456390D01*
X0104620Y0457060D01*
X0105360Y0457060D01*
X0123080Y0474780D01*
X0123770Y0475480D01*
X0124840Y0475480D01*
X0125780Y0476410D01*
X0125780Y0481280D01*
X0125260Y0481800D01*
X0125780Y0482320D01*
X0125780Y0487190D01*
X0125260Y0487710D01*
X0125620Y0488060D01*
X0126070Y0487610D01*
X0127400Y0487060D01*
X0128830Y0487060D01*
X0130150Y0487610D01*
X0131100Y0488560D01*
X0134000Y0488560D01*
X0134000Y0486740D01*
X0133920Y0486600D01*
X0133800Y0486150D01*
X0133800Y0485210D01*
X0133800Y0484270D01*
X0133900Y0483910D01*
X0133800Y0483550D01*
X0133800Y0482610D01*
X0133800Y0481670D01*
X0133920Y0481220D01*
X0134000Y0481080D01*
X0134000Y0461140D01*
X0133920Y0461000D01*
X0133800Y0460550D01*
X0133800Y0459610D01*
X0133800Y0458670D01*
X0133920Y0458220D01*
X0134160Y0457800D01*
X0134500Y0457470D01*
X0134910Y0457230D01*
X0135370Y0457110D01*
X0138500Y0457110D01*
X0138500Y0459610D01*
X0133800Y0459610D01*
X0138500Y0459610D01*
X0138500Y0459610D01*
X0138500Y0459610D01*
X0138500Y0457110D01*
X0141640Y0457110D01*
X0142100Y0457230D01*
X0142510Y0457470D01*
X0142840Y0457800D01*
X0143080Y0458220D01*
X0143200Y0458670D01*
X0143200Y0459610D01*
X0143200Y0460550D01*
X0143080Y0461000D01*
X0143000Y0461140D01*
X0143000Y0481080D01*
X0143080Y0481220D01*
X0143200Y0481670D01*
X0143200Y0482610D01*
X0143200Y0483550D01*
X0143100Y0483910D01*
X0143200Y0484270D01*
X0143200Y0485210D01*
X0143200Y0486150D01*
X0143080Y0486600D01*
X0143000Y0486740D01*
X0143000Y0494170D01*
X0142060Y0495110D01*
X0138440Y0495110D01*
X0129740Y0503810D01*
X0129740Y0505150D01*
X0129200Y0506480D01*
X0128180Y0507490D01*
X0126860Y0508040D01*
X0125430Y0508040D01*
X0124310Y0507570D01*
X0124310Y0515710D01*
X0124310Y0515070D02*
X0157510Y0515070D01*
X0157510Y0513490D02*
X0124310Y0513490D01*
X0124310Y0511900D02*
X0157510Y0511900D01*
X0157510Y0510320D02*
X0124310Y0510320D01*
X0124310Y0508730D02*
X0157510Y0508730D01*
X0157510Y0507150D02*
X0128530Y0507150D01*
X0129580Y0505560D02*
X0157510Y0505560D01*
X0157510Y0503980D02*
X0129740Y0503980D01*
X0131160Y0502390D02*
X0157510Y0502390D01*
X0157510Y0500810D02*
X0132750Y0500810D01*
X0134330Y0499220D02*
X0157510Y0499220D01*
X0157510Y0497640D02*
X0135920Y0497640D01*
X0137500Y0496050D02*
X0157510Y0496050D01*
X0157290Y0494470D02*
X0142710Y0494470D01*
X0143000Y0492880D02*
X0157000Y0492880D01*
X0157000Y0491300D02*
X0143000Y0491300D01*
X0143000Y0489710D02*
X0157000Y0489710D01*
X0157000Y0488130D02*
X0143000Y0488130D01*
X0143100Y0486540D02*
X0156910Y0486540D01*
X0156800Y0485210D02*
X0161500Y0485210D01*
X0156800Y0485210D01*
X0156800Y0484960D02*
X0143200Y0484960D01*
X0143200Y0485210D02*
X0138500Y0485210D01*
X0133800Y0485210D01*
X0138500Y0485210D01*
X0138500Y0485210D01*
X0138500Y0485210D01*
X0138500Y0485110D01*
X0138500Y0482610D01*
X0133800Y0482610D01*
X0138500Y0482610D01*
X0138500Y0482610D01*
X0138500Y0482610D01*
X0138500Y0485210D01*
X0143200Y0485210D01*
X0143200Y0483370D02*
X0156800Y0483370D01*
X0156800Y0482610D02*
X0161500Y0482610D01*
X0156800Y0482610D01*
X0156800Y0481790D02*
X0143200Y0481790D01*
X0143200Y0482610D02*
X0138500Y0482610D01*
X0143200Y0482610D01*
X0138500Y0482610D02*
X0138500Y0482610D01*
X0138500Y0483370D02*
X0138500Y0483370D01*
X0138500Y0484960D02*
X0138500Y0484960D01*
X0138500Y0485210D02*
X0138500Y0485210D01*
X0133800Y0484960D02*
X0125780Y0484960D01*
X0125780Y0486540D02*
X0133910Y0486540D01*
X0134000Y0488130D02*
X0130670Y0488130D01*
X0133800Y0483370D02*
X0125780Y0483370D01*
X0125270Y0481790D02*
X0133800Y0481790D01*
X0134000Y0480200D02*
X0125780Y0480200D01*
X0125780Y0478620D02*
X0134000Y0478620D01*
X0134000Y0477030D02*
X0125780Y0477030D01*
X0123740Y0475450D02*
X0134000Y0475450D01*
X0134000Y0473860D02*
X0122160Y0473860D01*
X0120570Y0472280D02*
X0134000Y0472280D01*
X0134000Y0470690D02*
X0118990Y0470690D01*
X0117400Y0469110D02*
X0134000Y0469110D01*
X0134000Y0467520D02*
X0115820Y0467520D01*
X0114230Y0465940D02*
X0134000Y0465940D01*
X0134000Y0464350D02*
X0112650Y0464350D01*
X0111060Y0462770D02*
X0134000Y0462770D01*
X0134000Y0461180D02*
X0109480Y0461180D01*
X0107890Y0459600D02*
X0133800Y0459600D01*
X0134040Y0458010D02*
X0106310Y0458010D01*
X0104700Y0456430D02*
X0104620Y0456430D01*
X0108220Y0456430D02*
X0173260Y0456430D01*
X0173260Y0458010D02*
X0165770Y0458010D01*
X0166000Y0459600D02*
X0173260Y0459600D01*
X0173260Y0461180D02*
X0166000Y0461180D01*
X0166000Y0462770D02*
X0173260Y0462770D01*
X0173260Y0464350D02*
X0166000Y0464350D01*
X0166000Y0465940D02*
X0173260Y0465940D01*
X0173260Y0467520D02*
X0166000Y0467520D01*
X0166000Y0469110D02*
X0173260Y0469110D01*
X0173260Y0470690D02*
X0166000Y0470690D01*
X0166000Y0472280D02*
X0173260Y0472280D01*
X0173260Y0473860D02*
X0166000Y0473860D01*
X0166000Y0475450D02*
X0173260Y0475450D01*
X0173260Y0477030D02*
X0166000Y0477030D01*
X0166080Y0478620D02*
X0166200Y0479070D01*
X0166200Y0480010D01*
X0161500Y0480010D01*
X0161500Y0480010D01*
X0161500Y0482610D01*
X0161500Y0482610D01*
X0161500Y0485210D01*
X0161500Y0485210D01*
X0161500Y0485210D01*
X0161500Y0482710D01*
X0161500Y0482610D01*
X0161500Y0482610D01*
X0161500Y0482610D01*
X0161500Y0480110D01*
X0161500Y0480010D01*
X0161500Y0480010D01*
X0161500Y0480010D01*
X0166200Y0480010D01*
X0166200Y0481790D02*
X0173260Y0481790D01*
X0173260Y0483370D02*
X0166200Y0483370D01*
X0166200Y0482610D02*
X0161500Y0482610D01*
X0161500Y0482610D01*
X0166200Y0482610D01*
X0166200Y0484960D02*
X0173260Y0484960D01*
X0173260Y0486540D02*
X0166100Y0486540D01*
X0166200Y0485210D02*
X0161500Y0485210D01*
X0161500Y0485210D01*
X0166200Y0485210D01*
X0161500Y0484960D02*
X0161500Y0484960D01*
X0161500Y0483370D02*
X0161500Y0483370D01*
X0161500Y0481790D02*
X0161500Y0481790D01*
X0161500Y0480200D02*
X0161500Y0480200D01*
X0157000Y0477030D02*
X0143000Y0477030D01*
X0143000Y0475450D02*
X0157000Y0475450D01*
X0157000Y0473860D02*
X0143000Y0473860D01*
X0143000Y0472280D02*
X0157000Y0472280D01*
X0157000Y0470690D02*
X0143000Y0470690D01*
X0143000Y0469110D02*
X0157000Y0469110D01*
X0157000Y0467520D02*
X0143000Y0467520D01*
X0143000Y0465940D02*
X0157000Y0465940D01*
X0157000Y0464350D02*
X0143000Y0464350D01*
X0143000Y0462770D02*
X0157000Y0462770D01*
X0157000Y0461180D02*
X0143000Y0461180D01*
X0143200Y0459610D02*
X0138500Y0459610D01*
X0138500Y0459610D01*
X0143200Y0459610D01*
X0143200Y0459600D02*
X0157000Y0459600D01*
X0157240Y0458010D02*
X0142960Y0458010D01*
X0138500Y0458010D02*
X0138500Y0458010D01*
X0138500Y0459600D02*
X0138500Y0459600D01*
X0139340Y0454840D02*
X0173260Y0454840D01*
X0173260Y0453260D02*
X0140930Y0453260D01*
X0142510Y0451670D02*
X0173260Y0451670D01*
X0173260Y0450090D02*
X0144100Y0450090D01*
X0145680Y0448500D02*
X0173260Y0448500D01*
X0173260Y0446920D02*
X0147270Y0446920D01*
X0148850Y0445330D02*
X0173260Y0445330D01*
X0173260Y0443750D02*
X0150440Y0443750D01*
X0152020Y0442160D02*
X0173260Y0442160D01*
X0173260Y0440580D02*
X0153610Y0440580D01*
X0155190Y0438990D02*
X0173260Y0438990D01*
X0173260Y0437410D02*
X0156780Y0437410D01*
X0158360Y0435820D02*
X0173260Y0435820D01*
X0173260Y0434240D02*
X0159950Y0434240D01*
X0161530Y0432650D02*
X0173260Y0432650D01*
X0173260Y0431070D02*
X0163120Y0431070D01*
X0164700Y0429480D02*
X0173260Y0429480D01*
X0173260Y0427900D02*
X0165650Y0427900D01*
X0165650Y0426310D02*
X0173260Y0426310D01*
X0173260Y0424730D02*
X0165650Y0424730D01*
X0165650Y0423140D02*
X0173260Y0423140D01*
X0173260Y0421560D02*
X0165650Y0421560D01*
X0165650Y0419970D02*
X0173260Y0419970D01*
X0173260Y0418390D02*
X0165650Y0418390D01*
X0165650Y0416800D02*
X0173260Y0416800D01*
X0173260Y0415220D02*
X0165650Y0415220D01*
X0165650Y0413630D02*
X0173260Y0413630D01*
X0173260Y0412050D02*
X0165650Y0412050D01*
X0165650Y0410460D02*
X0173260Y0410460D01*
X0173260Y0408880D02*
X0165650Y0408880D01*
X0165650Y0407290D02*
X0173260Y0407290D01*
X0173260Y0405710D02*
X0165650Y0405710D01*
X0165650Y0404120D02*
X0173260Y0404120D01*
X0173260Y0402540D02*
X0165650Y0402540D01*
X0165650Y0400950D02*
X0173510Y0400950D01*
X0175100Y0399370D02*
X0165650Y0399370D01*
X0165650Y0397780D02*
X0175690Y0397780D01*
X0172410Y0396200D02*
X0165650Y0396200D01*
X0165650Y0394610D02*
X0170830Y0394610D01*
X0169240Y0393030D02*
X0165880Y0393030D01*
X0166960Y0391440D02*
X0167660Y0391440D01*
X0170430Y0388270D02*
X0181040Y0388270D01*
X0181040Y0388770D02*
X0181040Y0387250D01*
X0181160Y0386790D01*
X0181400Y0386380D01*
X0181650Y0386130D01*
X0181240Y0385710D01*
X0181240Y0383420D01*
X0178190Y0386460D01*
X0172440Y0386460D01*
X0171490Y0387410D01*
X0170170Y0387960D01*
X0170120Y0387960D01*
X0174260Y0392100D01*
X0181240Y0392100D01*
X0181240Y0391830D01*
X0181650Y0391410D01*
X0181400Y0391150D01*
X0181160Y0390740D01*
X0181040Y0390290D01*
X0181040Y0388770D01*
X0186180Y0388770D01*
X0186180Y0388770D01*
X0181040Y0388770D01*
X0181040Y0389860D02*
X0172010Y0389860D01*
X0173600Y0391440D02*
X0181620Y0391440D01*
X0186180Y0388770D02*
X0191330Y0388770D01*
X0191330Y0390290D01*
X0191210Y0390740D01*
X0190970Y0391150D01*
X0190710Y0391410D01*
X0191130Y0391830D01*
X0191130Y0393230D01*
X0191240Y0393330D01*
X0195040Y0397140D01*
X0198310Y0393870D01*
X0198260Y0393870D01*
X0196940Y0393320D01*
X0195930Y0392300D01*
X0195380Y0390980D01*
X0195380Y0389630D01*
X0191130Y0385390D01*
X0191130Y0385710D01*
X0190710Y0386130D01*
X0190970Y0386380D01*
X0191210Y0386790D01*
X0191330Y0387250D01*
X0191330Y0388770D01*
X0186180Y0388770D01*
X0186180Y0388770D01*
X0181220Y0386690D02*
X0172220Y0386690D01*
X0179550Y0385100D02*
X0181240Y0385100D01*
X0181140Y0383520D02*
X0181240Y0383520D01*
X0191140Y0386690D02*
X0192430Y0386690D01*
X0191330Y0388270D02*
X0194010Y0388270D01*
X0195380Y0389860D02*
X0191330Y0389860D01*
X0190740Y0391440D02*
X0195570Y0391440D01*
X0196650Y0393030D02*
X0191130Y0393030D01*
X0192510Y0394610D02*
X0197570Y0394610D01*
X0195980Y0396200D02*
X0194100Y0396200D01*
X0161550Y0378760D02*
X0160920Y0378760D01*
X0161550Y0377180D02*
X0159330Y0377180D01*
X0157770Y0375590D02*
X0161500Y0375590D01*
X0160250Y0374010D02*
X0157770Y0374010D01*
X0157770Y0372420D02*
X0159950Y0372420D01*
X0160360Y0370840D02*
X0157770Y0370840D01*
X0157770Y0369250D02*
X0161550Y0369250D01*
X0161550Y0367670D02*
X0157770Y0367670D01*
X0157770Y0366080D02*
X0161550Y0366080D01*
X0161550Y0364500D02*
X0158820Y0364500D01*
X0160410Y0362910D02*
X0161670Y0362910D01*
X0161710Y0361330D02*
X0183610Y0361330D01*
X0182030Y0362910D02*
X0177380Y0362910D01*
X0177550Y0364500D02*
X0180440Y0364500D01*
X0178860Y0366080D02*
X0177550Y0366080D01*
X0173670Y0366080D02*
X0172710Y0366080D01*
X0172710Y0364500D02*
X0173670Y0364500D01*
X0173670Y0362910D02*
X0172710Y0362910D01*
X0172710Y0358160D02*
X0173670Y0358160D01*
X0173670Y0356570D02*
X0172710Y0356570D01*
X0173670Y0354990D02*
X0263080Y0354990D01*
X0261500Y0353400D02*
X0177550Y0353400D01*
X0177550Y0351820D02*
X0260420Y0351820D01*
X0259590Y0350230D02*
X0176490Y0350230D01*
X0173670Y0350230D02*
X0172710Y0350230D01*
X0172710Y0351820D02*
X0173670Y0351820D01*
X0173670Y0353400D02*
X0172710Y0353400D01*
X0177550Y0356570D02*
X0265780Y0356570D01*
X0262020Y0359740D02*
X0161710Y0359740D01*
X0161710Y0350230D02*
X0169890Y0350230D01*
X0169580Y0345480D02*
X0169060Y0345480D01*
X0172710Y0345480D02*
X0173670Y0345480D01*
X0173670Y0343890D02*
X0172710Y0343890D01*
X0172710Y0342310D02*
X0173670Y0342310D01*
X0173670Y0340720D02*
X0260360Y0340720D01*
X0259560Y0342310D02*
X0177550Y0342310D01*
X0177550Y0343890D02*
X0259130Y0343890D01*
X0258900Y0345480D02*
X0176800Y0345480D01*
X0177550Y0339140D02*
X0261380Y0339140D01*
X0262970Y0337550D02*
X0177470Y0337550D01*
X0173670Y0337550D02*
X0172710Y0337550D01*
X0172710Y0339140D02*
X0173670Y0339140D01*
X0162360Y0345480D02*
X0161710Y0345480D01*
X0161710Y0347060D02*
X0258900Y0347060D01*
X0259160Y0348650D02*
X0161710Y0348650D01*
X0161550Y0337550D02*
X0095930Y0337550D01*
X0094060Y0337550D02*
X0094060Y0337550D01*
X0094060Y0339140D02*
X0094060Y0339140D01*
X0094060Y0340720D02*
X0094060Y0340720D01*
X0090880Y0340720D02*
X0034650Y0340720D01*
X0035450Y0342310D02*
X0090880Y0342310D01*
X0091220Y0343890D02*
X0035870Y0343890D01*
X0036100Y0345480D02*
X0090560Y0345480D01*
X0090490Y0347060D02*
X0036100Y0347060D01*
X0035840Y0348650D02*
X0094360Y0348650D01*
X0090490Y0350230D02*
X0035420Y0350230D01*
X0034580Y0351820D02*
X0090490Y0351820D01*
X0091140Y0353400D02*
X0033510Y0353400D01*
X0031920Y0354990D02*
X0089560Y0354990D01*
X0088610Y0356570D02*
X0029220Y0356570D01*
X0029830Y0359120D02*
X0028290Y0359760D01*
X0027120Y0360930D01*
X0026480Y0362470D01*
X0026480Y0364130D01*
X0027120Y0365660D01*
X0028290Y0366840D01*
X0029830Y0367470D01*
X0036640Y0367470D01*
X0038170Y0366840D01*
X0039340Y0365660D01*
X0039980Y0364130D01*
X0039980Y0362470D01*
X0039340Y0360930D01*
X0038170Y0359760D01*
X0036640Y0359120D01*
X0029830Y0359120D01*
X0028330Y0359740D02*
X0014800Y0359740D01*
X0014800Y0358160D02*
X0088610Y0358160D01*
X0088610Y0359740D02*
X0066300Y0359740D01*
X0065910Y0359350D02*
X0067080Y0360520D01*
X0067720Y0362060D01*
X0067720Y0368870D01*
X0067080Y0370400D01*
X0065910Y0371580D01*
X0064380Y0372210D01*
X0062710Y0372210D01*
X0061180Y0371580D01*
X0060010Y0370400D01*
X0059370Y0368870D01*
X0059370Y0362060D01*
X0060010Y0360520D01*
X0061180Y0359350D01*
X0062710Y0358710D01*
X0064380Y0358710D01*
X0065910Y0359350D01*
X0067420Y0361330D02*
X0071710Y0361330D01*
X0071630Y0362910D02*
X0067720Y0362910D01*
X0067720Y0364500D02*
X0071630Y0364500D01*
X0071960Y0366080D02*
X0067720Y0366080D01*
X0067720Y0367670D02*
X0071830Y0367670D01*
X0071830Y0369250D02*
X0067560Y0369250D01*
X0066650Y0370840D02*
X0071740Y0370840D01*
X0070150Y0372420D02*
X0014800Y0372420D01*
X0014800Y0370840D02*
X0060440Y0370840D01*
X0059530Y0369250D02*
X0014800Y0369250D01*
X0014800Y0367670D02*
X0059370Y0367670D01*
X0059370Y0366080D02*
X0038930Y0366080D01*
X0039830Y0364500D02*
X0059370Y0364500D01*
X0059370Y0362910D02*
X0039980Y0362910D01*
X0039510Y0361330D02*
X0059670Y0361330D01*
X0060790Y0359740D02*
X0038130Y0359740D01*
X0026950Y0361330D02*
X0014800Y0361330D01*
X0014800Y0362910D02*
X0026480Y0362910D01*
X0026630Y0364500D02*
X0014800Y0364500D01*
X0014800Y0366080D02*
X0027540Y0366080D01*
X0022530Y0374890D02*
X0021920Y0374580D01*
X0021260Y0374370D01*
X0020580Y0374260D01*
X0020240Y0374260D01*
X0020240Y0381210D01*
X0024610Y0381210D01*
X0024610Y0384130D01*
X0024510Y0384810D01*
X0024290Y0385460D01*
X0023980Y0386080D01*
X0023580Y0386630D01*
X0023090Y0387120D01*
X0022530Y0387530D01*
X0021920Y0387840D01*
X0021260Y0388050D01*
X0020580Y0388160D01*
X0020240Y0388160D01*
X0020240Y0381210D01*
X0020240Y0381210D01*
X0024610Y0381210D01*
X0024610Y0378290D01*
X0024510Y0377610D01*
X0024290Y0376960D01*
X0023980Y0376340D01*
X0023580Y0375790D01*
X0023090Y0375300D01*
X0022530Y0374890D01*
X0023380Y0375590D02*
X0066980Y0375590D01*
X0065400Y0377180D02*
X0024360Y0377180D01*
X0024610Y0378760D02*
X0063810Y0378760D01*
X0062230Y0380350D02*
X0024610Y0380350D01*
X0024610Y0381930D02*
X0060640Y0381930D01*
X0059060Y0383520D02*
X0024610Y0383520D01*
X0024410Y0385100D02*
X0057470Y0385100D01*
X0055890Y0386690D02*
X0023520Y0386690D01*
X0020240Y0386690D02*
X0020240Y0386690D01*
X0020240Y0388160D02*
X0019890Y0388160D01*
X0019210Y0388050D01*
X0018560Y0387840D01*
X0017950Y0387530D01*
X0017390Y0387120D01*
X0016900Y0386630D01*
X0016500Y0386080D01*
X0016180Y0385460D01*
X0015970Y0384810D01*
X0015860Y0384130D01*
X0015860Y0381210D01*
X0020240Y0381210D01*
X0020240Y0381210D01*
X0020240Y0381210D01*
X0020240Y0388160D01*
X0016950Y0386690D02*
X0014800Y0386690D01*
X0014800Y0388270D02*
X0040330Y0388270D01*
X0039080Y0389860D02*
X0014800Y0389860D01*
X0014800Y0391440D02*
X0038690Y0391440D01*
X0038910Y0393030D02*
X0014800Y0393030D01*
X0014800Y0394610D02*
X0039920Y0394610D01*
X0045780Y0397780D02*
X0014800Y0397780D01*
X0014800Y0396200D02*
X0049240Y0396200D01*
X0053440Y0396200D02*
X0085800Y0396200D01*
X0087380Y0397780D02*
X0056110Y0397780D01*
X0053900Y0394610D02*
X0084210Y0394610D01*
X0082630Y0393030D02*
X0055490Y0393030D01*
X0057070Y0391440D02*
X0081040Y0391440D01*
X0079460Y0389860D02*
X0058660Y0389860D01*
X0060240Y0388270D02*
X0077870Y0388270D01*
X0076290Y0386690D02*
X0061830Y0386690D01*
X0063410Y0385100D02*
X0074700Y0385100D01*
X0073120Y0383520D02*
X0065000Y0383520D01*
X0066580Y0381930D02*
X0071530Y0381930D01*
X0069950Y0380350D02*
X0068170Y0380350D01*
X0068570Y0374010D02*
X0014800Y0374010D01*
X0014800Y0375590D02*
X0017100Y0375590D01*
X0016900Y0375790D02*
X0017390Y0375300D01*
X0017950Y0374890D01*
X0018560Y0374580D01*
X0019210Y0374370D01*
X0019890Y0374260D01*
X0020240Y0374260D01*
X0020240Y0381210D01*
X0015860Y0381210D01*
X0015860Y0378290D01*
X0015970Y0377610D01*
X0016180Y0376960D01*
X0016500Y0376340D01*
X0016900Y0375790D01*
X0016110Y0377180D02*
X0014800Y0377180D01*
X0014800Y0378760D02*
X0015860Y0378760D01*
X0015860Y0380350D02*
X0014800Y0380350D01*
X0014800Y0381930D02*
X0015860Y0381930D01*
X0015860Y0383520D02*
X0014800Y0383520D01*
X0014800Y0385100D02*
X0016070Y0385100D01*
X0020240Y0385100D02*
X0020240Y0385100D01*
X0020240Y0383520D02*
X0020240Y0383520D01*
X0020240Y0381930D02*
X0020240Y0381930D01*
X0020240Y0381210D02*
X0020240Y0381210D01*
X0020240Y0380350D02*
X0020240Y0380350D01*
X0020240Y0378760D02*
X0020240Y0378760D01*
X0020240Y0377180D02*
X0020240Y0377180D01*
X0020240Y0375590D02*
X0020240Y0375590D01*
X0020780Y0356570D02*
X0014800Y0356570D01*
X0014800Y0354990D02*
X0018080Y0354990D01*
X0016500Y0353400D02*
X0014800Y0353400D01*
X0014800Y0351820D02*
X0015420Y0351820D01*
X0032040Y0337550D02*
X0092180Y0337550D01*
X0090880Y0339140D02*
X0033620Y0339140D01*
X0075000Y0361330D02*
X0075000Y0361330D01*
X0075000Y0362910D02*
X0075000Y0362910D01*
X0075000Y0363450D02*
X0075000Y0363450D01*
X0078290Y0361330D02*
X0087150Y0361330D01*
X0094370Y0361330D02*
X0095320Y0361330D01*
X0095320Y0362910D02*
X0094370Y0362910D01*
X0094370Y0364500D02*
X0095320Y0364500D01*
X0095320Y0366080D02*
X0094370Y0366080D01*
X0094370Y0367670D02*
X0095320Y0367670D01*
X0095320Y0369250D02*
X0094370Y0369250D01*
X0098320Y0366080D02*
X0099050Y0366080D01*
X0105100Y0393030D02*
X0109910Y0393030D01*
X0112230Y0399370D02*
X0094910Y0399370D01*
X0096490Y0400950D02*
X0100210Y0400950D01*
X0116010Y0404120D02*
X0116170Y0404120D01*
X0116010Y0405710D02*
X0116170Y0405710D01*
X0116010Y0407290D02*
X0116170Y0407290D01*
X0120370Y0418390D02*
X0120640Y0418390D01*
X0124590Y0423140D02*
X0128760Y0423140D01*
X0131410Y0423140D02*
X0138000Y0423140D01*
X0138110Y0423110D02*
X0141120Y0423110D01*
X0141120Y0427290D01*
X0136550Y0427290D01*
X0136550Y0424670D01*
X0136670Y0424220D01*
X0136910Y0423810D01*
X0137240Y0423470D01*
X0137650Y0423230D01*
X0138110Y0423110D01*
X0136550Y0424730D02*
X0126170Y0424730D01*
X0127760Y0426310D02*
X0136550Y0426310D01*
X0136550Y0428840D02*
X0141120Y0428840D01*
X0141120Y0433010D01*
X0138110Y0433010D01*
X0137650Y0432890D01*
X0137240Y0432650D01*
X0133830Y0432650D01*
X0134140Y0431070D02*
X0136550Y0431070D01*
X0136550Y0431450D02*
X0136550Y0428840D01*
X0136550Y0429480D02*
X0134010Y0429480D01*
X0136550Y0431450D02*
X0136670Y0431900D01*
X0136910Y0432320D01*
X0137240Y0432650D01*
X0141120Y0432650D02*
X0142670Y0432650D01*
X0142670Y0433010D02*
X0142670Y0428840D01*
X0141120Y0428840D01*
X0141120Y0427290D01*
X0142670Y0427290D01*
X0142670Y0428840D01*
X0147240Y0428840D01*
X0147240Y0431450D01*
X0147110Y0431900D01*
X0146880Y0432320D01*
X0146540Y0432650D01*
X0146130Y0432890D01*
X0145670Y0433010D01*
X0142670Y0433010D01*
X0141590Y0434240D02*
X0154010Y0434240D01*
X0152420Y0435820D02*
X0147040Y0435820D01*
X0147040Y0437410D02*
X0150840Y0437410D01*
X0149250Y0438990D02*
X0147040Y0438990D01*
X0147040Y0440580D02*
X0147670Y0440580D01*
X0146540Y0432650D02*
X0155590Y0432650D01*
X0157180Y0431070D02*
X0147240Y0431070D01*
X0147240Y0429480D02*
X0158760Y0429480D01*
X0160350Y0427900D02*
X0142670Y0427900D01*
X0142670Y0427290D02*
X0147240Y0427290D01*
X0147240Y0424670D01*
X0147110Y0424220D01*
X0146880Y0423810D01*
X0146540Y0423470D01*
X0146130Y0423230D01*
X0145670Y0423110D01*
X0142670Y0423110D01*
X0142670Y0427290D01*
X0142670Y0426310D02*
X0141120Y0426310D01*
X0141120Y0424730D02*
X0142670Y0424730D01*
X0142670Y0423140D02*
X0141120Y0423140D01*
X0145780Y0423140D02*
X0161450Y0423140D01*
X0161450Y0424730D02*
X0147240Y0424730D01*
X0147240Y0426310D02*
X0161450Y0426310D01*
X0177460Y0430770D02*
X0177460Y0486590D01*
X0227480Y0486590D01*
X0228440Y0485640D01*
X0229760Y0485090D01*
X0231190Y0485090D01*
X0232510Y0485640D01*
X0233530Y0486650D01*
X0234070Y0487970D01*
X0234070Y0489410D01*
X0233530Y0490730D01*
X0232510Y0491740D01*
X0231190Y0492290D01*
X0229760Y0492290D01*
X0228440Y0491740D01*
X0227780Y0491090D01*
X0227780Y0500750D01*
X0234110Y0507080D01*
X0235270Y0506600D01*
X0237100Y0506600D01*
X0238800Y0507300D01*
X0240090Y0508600D01*
X0240790Y0510290D01*
X0240790Y0512130D01*
X0240090Y0513820D01*
X0239770Y0514150D01*
X0241420Y0514150D01*
X0243400Y0512170D01*
X0243380Y0512130D01*
X0243380Y0510290D01*
X0244080Y0508600D01*
X0245380Y0507300D01*
X0247080Y0506600D01*
X0248910Y0506600D01*
X0250610Y0507300D01*
X0251900Y0508600D01*
X0252610Y0510290D01*
X0252610Y0512130D01*
X0251900Y0513820D01*
X0250610Y0515120D01*
X0248910Y0515820D01*
X0247080Y0515820D01*
X0246090Y0515410D01*
X0243160Y0518350D01*
X0219530Y0518350D01*
X0213470Y0524410D01*
X0214900Y0524410D01*
X0214900Y0527910D01*
X0215100Y0527910D01*
X0215100Y0524410D01*
X0218090Y0524410D01*
X0218550Y0524530D01*
X0218960Y0524770D01*
X0219290Y0525100D01*
X0219530Y0525520D01*
X0219650Y0525970D01*
X0219650Y0527910D01*
X0215100Y0527910D01*
X0215100Y0528110D01*
X0219650Y0528110D01*
X0219650Y0530050D01*
X0219530Y0530500D01*
X0219290Y0530920D01*
X0276860Y0530920D01*
X0276860Y0529340D02*
X0219650Y0529340D01*
X0219650Y0527750D02*
X0276860Y0527750D01*
X0276860Y0526170D02*
X0219650Y0526170D01*
X0218630Y0524580D02*
X0276860Y0524580D01*
X0276860Y0523000D02*
X0214890Y0523000D01*
X0214900Y0524580D02*
X0215100Y0524580D01*
X0215100Y0526170D02*
X0214900Y0526170D01*
X0214900Y0527750D02*
X0215100Y0527750D01*
X0218830Y0531320D02*
X0219450Y0531950D01*
X0219450Y0536870D01*
X0218510Y0537810D01*
X0217830Y0537810D01*
X0217830Y0544430D01*
X0217350Y0545560D01*
X0209480Y0553440D01*
X0208610Y0554310D01*
X0207470Y0554780D01*
X0187820Y0554780D01*
X0187820Y0555530D01*
X0186890Y0556470D01*
X0172960Y0556470D01*
X0172020Y0555530D01*
X0172020Y0552810D01*
X0132320Y0552810D01*
X0131990Y0552870D01*
X0131710Y0552810D01*
X0131430Y0552810D01*
X0131380Y0552790D01*
X0127900Y0556280D01*
X0126820Y0556720D01*
X0255370Y0556720D01*
X0254660Y0555490D01*
X0253900Y0552670D01*
X0253900Y0549750D01*
X0254660Y0546930D01*
X0256120Y0544390D01*
X0258190Y0542330D01*
X0260720Y0540870D01*
X0263540Y0540110D01*
X0266460Y0540110D01*
X0269290Y0540870D01*
X0271820Y0542330D01*
X0273880Y0544390D01*
X0275340Y0546930D01*
X0276100Y0549750D01*
X0276100Y0552670D01*
X0275340Y0555490D01*
X0274630Y0556720D01*
X0276860Y0556720D01*
X0276860Y0437410D01*
X0276860Y0437410D01*
X0275310Y0438950D01*
X0275310Y0442130D01*
X0272730Y0444700D01*
X0269090Y0444700D01*
X0268010Y0443630D01*
X0268010Y0444510D01*
X0269400Y0445900D01*
X0272730Y0445900D01*
X0275310Y0448480D01*
X0275310Y0452130D01*
X0272730Y0454700D01*
X0269090Y0454700D01*
X0266510Y0452130D01*
X0266510Y0448950D01*
X0263810Y0446250D01*
X0263810Y0443630D01*
X0262730Y0444700D01*
X0259090Y0444700D01*
X0256510Y0442130D01*
X0256510Y0441580D01*
X0255230Y0441580D01*
X0259560Y0445900D01*
X0262730Y0445900D01*
X0265310Y0448480D01*
X0265310Y0452130D01*
X0264310Y0453130D01*
X0266780Y0453130D01*
X0269560Y0455900D01*
X0272730Y0455900D01*
X0275310Y0458480D01*
X0275310Y0462130D01*
X0272730Y0464700D01*
X0269090Y0464700D01*
X0266510Y0462130D01*
X0266510Y0458800D01*
X0265040Y0457330D01*
X0264150Y0457330D01*
X0265310Y0458480D01*
X0265310Y0462130D01*
X0264470Y0462970D01*
X0266780Y0462970D01*
X0269710Y0465900D01*
X0272730Y0465900D01*
X0275310Y0468480D01*
X0275310Y0472130D01*
X0272730Y0474700D01*
X0269090Y0474700D01*
X0266510Y0472130D01*
X0266510Y0468640D01*
X0265040Y0467170D01*
X0263990Y0467170D01*
X0265310Y0468480D01*
X0265310Y0472130D01*
X0262730Y0474700D01*
X0259240Y0474700D01*
X0247090Y0486850D01*
X0239450Y0486850D01*
X0238220Y0485620D01*
X0232180Y0479580D01*
X0230400Y0479580D01*
X0229470Y0478640D01*
X0229470Y0473780D01*
X0229530Y0473710D01*
X0229470Y0473640D01*
X0229470Y0468780D01*
X0230260Y0467980D01*
X0229390Y0467110D01*
X0228840Y0465780D01*
X0228840Y0464350D01*
X0229260Y0463350D01*
X0227230Y0465370D01*
X0227230Y0466890D01*
X0224770Y0469350D01*
X0221290Y0469350D01*
X0218830Y0466890D01*
X0218830Y0464270D01*
X0211420Y0456860D01*
X0210070Y0456860D01*
X0208750Y0456310D01*
X0207740Y0455300D01*
X0207690Y0455180D01*
X0206760Y0456110D01*
X0200840Y0456110D01*
X0200000Y0455270D01*
X0199160Y0456110D01*
X0193240Y0456110D01*
X0193200Y0456080D01*
X0193200Y0460950D01*
X0194770Y0460950D01*
X0197230Y0463410D01*
X0197230Y0466890D01*
X0194770Y0469350D01*
X0191290Y0469350D01*
X0189550Y0467610D01*
X0189550Y0468010D01*
X0188620Y0468950D01*
X0181390Y0468950D01*
X0180450Y0468010D01*
X0180450Y0461570D01*
X0180830Y0461190D01*
X0180610Y0460980D01*
X0180370Y0460570D01*
X0180250Y0460110D01*
X0180250Y0457790D01*
X0184520Y0457790D01*
X0184520Y0456830D01*
X0185480Y0456830D01*
X0185480Y0452950D01*
X0188190Y0452950D01*
X0188650Y0453080D01*
X0189000Y0453280D01*
X0189000Y0452390D01*
X0190230Y0451160D01*
X0192100Y0449290D01*
X0192100Y0448610D01*
X0196200Y0448610D01*
X0192100Y0448610D01*
X0192100Y0447670D01*
X0192220Y0447220D01*
X0192460Y0446800D01*
X0192800Y0446470D01*
X0193210Y0446230D01*
X0193670Y0446110D01*
X0196200Y0446110D01*
X0196200Y0448610D01*
X0196200Y0448610D01*
X0196200Y0448610D01*
X0196200Y0446110D01*
X0198550Y0446110D01*
X0197900Y0445450D01*
X0197350Y0444130D01*
X0197350Y0442700D01*
X0197900Y0441380D01*
X0198850Y0440420D01*
X0198850Y0432770D01*
X0197730Y0433240D01*
X0196290Y0433240D01*
X0194970Y0432690D01*
X0194020Y0431740D01*
X0191040Y0431740D01*
X0191130Y0431830D01*
X0191130Y0435710D01*
X0190190Y0436650D01*
X0182170Y0436650D01*
X0181240Y0435710D01*
X0181240Y0434550D01*
X0178420Y0431740D01*
X0177460Y0430770D01*
X0177460Y0431070D02*
X0177750Y0431070D01*
X0177460Y0432650D02*
X0179340Y0432650D01*
X0180920Y0434240D02*
X0177460Y0434240D01*
X0177460Y0435820D02*
X0181350Y0435820D01*
X0177460Y0437410D02*
X0198850Y0437410D01*
X0198850Y0438990D02*
X0177460Y0438990D01*
X0177460Y0440580D02*
X0198700Y0440580D01*
X0197570Y0442160D02*
X0177460Y0442160D01*
X0177460Y0443750D02*
X0197350Y0443750D01*
X0197840Y0445330D02*
X0177460Y0445330D01*
X0177460Y0446920D02*
X0192400Y0446920D01*
X0192100Y0448500D02*
X0177460Y0448500D01*
X0177460Y0450090D02*
X0191310Y0450090D01*
X0189720Y0451670D02*
X0177460Y0451670D01*
X0177460Y0453260D02*
X0181040Y0453260D01*
X0180940Y0453310D02*
X0181350Y0453080D01*
X0181810Y0452950D01*
X0184520Y0452950D01*
X0184520Y0456830D01*
X0180250Y0456830D01*
X0180250Y0454520D01*
X0180370Y0454060D01*
X0180610Y0453650D01*
X0180940Y0453310D01*
X0180250Y0454840D02*
X0177460Y0454840D01*
X0177460Y0456430D02*
X0180250Y0456430D01*
X0180250Y0458010D02*
X0177460Y0458010D01*
X0177460Y0459600D02*
X0180250Y0459600D01*
X0180810Y0461180D02*
X0177460Y0461180D01*
X0177460Y0462770D02*
X0180450Y0462770D01*
X0180450Y0464350D02*
X0177460Y0464350D01*
X0177460Y0465940D02*
X0180450Y0465940D01*
X0180450Y0467520D02*
X0177460Y0467520D01*
X0177460Y0469110D02*
X0191050Y0469110D01*
X0195020Y0469110D02*
X0221050Y0469110D01*
X0219470Y0467520D02*
X0196600Y0467520D01*
X0197230Y0465940D02*
X0218830Y0465940D01*
X0218830Y0464350D02*
X0197230Y0464350D01*
X0196590Y0462770D02*
X0217330Y0462770D01*
X0215740Y0461180D02*
X0195010Y0461180D01*
X0193200Y0459600D02*
X0214160Y0459600D01*
X0212570Y0458010D02*
X0193200Y0458010D01*
X0193200Y0456430D02*
X0209030Y0456430D01*
X0196200Y0448500D02*
X0196200Y0448500D01*
X0196200Y0446920D02*
X0196200Y0446920D01*
X0189000Y0453260D02*
X0188960Y0453260D01*
X0185480Y0453260D02*
X0184520Y0453260D01*
X0184520Y0454840D02*
X0185480Y0454840D01*
X0185480Y0456430D02*
X0184520Y0456430D01*
X0177460Y0470690D02*
X0229470Y0470690D01*
X0229470Y0469110D02*
X0225020Y0469110D01*
X0226600Y0467520D02*
X0229800Y0467520D01*
X0228910Y0465940D02*
X0227230Y0465940D01*
X0228260Y0464350D02*
X0228840Y0464350D01*
X0229470Y0472280D02*
X0177460Y0472280D01*
X0177460Y0473860D02*
X0229470Y0473860D01*
X0229470Y0475450D02*
X0177460Y0475450D01*
X0177460Y0477030D02*
X0229470Y0477030D01*
X0229470Y0478620D02*
X0177460Y0478620D01*
X0177460Y0480200D02*
X0232790Y0480200D01*
X0234380Y0481790D02*
X0177460Y0481790D01*
X0177460Y0483370D02*
X0235960Y0483370D01*
X0237550Y0484960D02*
X0177460Y0484960D01*
X0177460Y0486540D02*
X0227530Y0486540D01*
X0227780Y0491300D02*
X0227990Y0491300D01*
X0227780Y0492880D02*
X0276860Y0492880D01*
X0276860Y0491300D02*
X0232960Y0491300D01*
X0233950Y0489710D02*
X0276860Y0489710D01*
X0276860Y0488130D02*
X0234070Y0488130D01*
X0233420Y0486540D02*
X0239130Y0486540D01*
X0247410Y0486540D02*
X0276860Y0486540D01*
X0276860Y0484960D02*
X0248990Y0484960D01*
X0250580Y0483370D02*
X0276860Y0483370D01*
X0276860Y0481790D02*
X0252160Y0481790D01*
X0253750Y0480200D02*
X0276860Y0480200D01*
X0276860Y0478620D02*
X0255330Y0478620D01*
X0256920Y0477030D02*
X0276860Y0477030D01*
X0276860Y0475450D02*
X0258500Y0475450D01*
X0263570Y0473860D02*
X0268240Y0473860D01*
X0266660Y0472280D02*
X0265160Y0472280D01*
X0265310Y0470690D02*
X0266510Y0470690D01*
X0266510Y0469110D02*
X0265310Y0469110D01*
X0265390Y0467520D02*
X0264350Y0467520D01*
X0264670Y0462770D02*
X0267150Y0462770D01*
X0266510Y0461180D02*
X0265310Y0461180D01*
X0265310Y0459600D02*
X0266510Y0459600D01*
X0265720Y0458010D02*
X0264840Y0458010D01*
X0268490Y0454840D02*
X0276860Y0454840D01*
X0276860Y0453260D02*
X0274180Y0453260D01*
X0275310Y0451670D02*
X0276860Y0451670D01*
X0276860Y0450090D02*
X0275310Y0450090D01*
X0275310Y0448500D02*
X0276860Y0448500D01*
X0276860Y0446920D02*
X0273740Y0446920D01*
X0273690Y0443750D02*
X0276860Y0443750D01*
X0276860Y0445330D02*
X0268820Y0445330D01*
X0268130Y0443750D02*
X0268010Y0443750D01*
X0263810Y0443750D02*
X0263690Y0443750D01*
X0263810Y0445330D02*
X0258980Y0445330D01*
X0258130Y0443750D02*
X0257400Y0443750D01*
X0256540Y0442160D02*
X0255810Y0442160D01*
X0263740Y0446920D02*
X0264470Y0446920D01*
X0265310Y0448500D02*
X0266050Y0448500D01*
X0266510Y0450090D02*
X0265310Y0450090D01*
X0265310Y0451670D02*
X0266510Y0451670D01*
X0266910Y0453260D02*
X0267640Y0453260D01*
X0273250Y0456430D02*
X0276860Y0456430D01*
X0276860Y0458010D02*
X0274840Y0458010D01*
X0275310Y0459600D02*
X0276860Y0459600D01*
X0276860Y0461180D02*
X0275310Y0461180D01*
X0274670Y0462770D02*
X0276860Y0462770D01*
X0276860Y0464350D02*
X0273080Y0464350D01*
X0272760Y0465940D02*
X0276860Y0465940D01*
X0276860Y0467520D02*
X0274350Y0467520D01*
X0275310Y0469110D02*
X0276860Y0469110D01*
X0276860Y0470690D02*
X0275310Y0470690D01*
X0275160Y0472280D02*
X0276860Y0472280D01*
X0276860Y0473860D02*
X0273570Y0473860D01*
X0268730Y0464350D02*
X0268160Y0464350D01*
X0275270Y0442160D02*
X0276860Y0442160D01*
X0276860Y0440580D02*
X0275310Y0440580D01*
X0275310Y0438990D02*
X0276860Y0438990D01*
X0273650Y0426820D02*
X0273650Y0423780D01*
X0272730Y0424700D01*
X0269090Y0424700D01*
X0266510Y0422130D01*
X0266510Y0418480D01*
X0269090Y0415900D01*
X0272730Y0415900D01*
X0273650Y0416820D01*
X0273650Y0413780D01*
X0272730Y0414700D01*
X0269090Y0414700D01*
X0266510Y0412130D01*
X0266510Y0408480D01*
X0269090Y0405900D01*
X0272730Y0405900D01*
X0273650Y0406820D01*
X0273650Y0404000D01*
X0273320Y0404240D01*
X0272670Y0404570D01*
X0271980Y0404790D01*
X0271270Y0404900D01*
X0271010Y0404900D01*
X0271010Y0400400D01*
X0270810Y0400400D01*
X0270810Y0400200D01*
X0266310Y0400200D01*
X0266310Y0399940D01*
X0266420Y0399230D01*
X0266640Y0398540D01*
X0266780Y0398270D01*
X0265100Y0398270D01*
X0265310Y0398480D01*
X0265310Y0402130D01*
X0262730Y0404700D01*
X0259690Y0404700D01*
X0260890Y0405900D01*
X0262730Y0405900D01*
X0265310Y0408480D01*
X0265310Y0412130D01*
X0262730Y0414700D01*
X0259090Y0414700D01*
X0256510Y0412130D01*
X0256510Y0408480D01*
X0257020Y0407970D01*
X0254730Y0405680D01*
X0253380Y0405680D01*
X0252060Y0405130D01*
X0251760Y0404830D01*
X0251240Y0406080D01*
X0250230Y0407100D01*
X0248910Y0407640D01*
X0248320Y0407640D01*
X0248320Y0409500D01*
X0248490Y0409880D01*
X0248320Y0410330D01*
X0248320Y0410820D01*
X0248140Y0411010D01*
X0248140Y0411440D01*
X0247760Y0411820D01*
X0247980Y0412030D01*
X0248210Y0412440D01*
X0248340Y0412900D01*
X0248340Y0414520D01*
X0248340Y0416130D01*
X0248210Y0416590D01*
X0248150Y0416700D01*
X0248260Y0416740D01*
X0249180Y0417650D01*
X0250090Y0416740D01*
X0251410Y0416190D01*
X0252840Y0416190D01*
X0254170Y0416740D01*
X0255180Y0417750D01*
X0255730Y0419080D01*
X0255730Y0420420D01*
X0256510Y0421200D01*
X0256510Y0418480D01*
X0259090Y0415900D01*
X0262730Y0415900D01*
X0265310Y0418480D01*
X0265310Y0422130D01*
X0263840Y0423600D01*
X0266780Y0423600D01*
X0269080Y0425910D01*
X0269090Y0425900D01*
X0272730Y0425900D01*
X0273650Y0426820D01*
X0273650Y0426310D02*
X0273140Y0426310D01*
X0273650Y0424730D02*
X0267900Y0424730D01*
X0267520Y0423140D02*
X0264290Y0423140D01*
X0265310Y0421560D02*
X0266510Y0421560D01*
X0266510Y0419970D02*
X0265310Y0419970D01*
X0265210Y0418390D02*
X0266600Y0418390D01*
X0268190Y0416800D02*
X0263630Y0416800D01*
X0263800Y0413630D02*
X0268010Y0413630D01*
X0266510Y0412050D02*
X0265310Y0412050D01*
X0265310Y0410460D02*
X0266510Y0410460D01*
X0266510Y0408880D02*
X0265310Y0408880D01*
X0264120Y0407290D02*
X0267700Y0407290D01*
X0269140Y0404570D02*
X0268500Y0404240D01*
X0267910Y0403810D01*
X0267400Y0403300D01*
X0266970Y0402720D01*
X0266640Y0402070D01*
X0266420Y0401380D01*
X0266310Y0400670D01*
X0266310Y0400400D01*
X0270810Y0400400D01*
X0270810Y0404900D01*
X0270550Y0404900D01*
X0269830Y0404790D01*
X0269140Y0404570D01*
X0268330Y0404120D02*
X0263310Y0404120D01*
X0264900Y0402540D02*
X0266880Y0402540D01*
X0266350Y0400950D02*
X0265310Y0400950D01*
X0265310Y0399370D02*
X0266400Y0399370D01*
X0270810Y0400950D02*
X0271010Y0400950D01*
X0271010Y0402540D02*
X0270810Y0402540D01*
X0270810Y0404120D02*
X0271010Y0404120D01*
X0273480Y0404120D02*
X0273650Y0404120D01*
X0273650Y0405710D02*
X0260700Y0405710D01*
X0256340Y0407290D02*
X0249760Y0407290D01*
X0248320Y0408880D02*
X0256510Y0408880D01*
X0256510Y0410460D02*
X0248320Y0410460D01*
X0247980Y0412050D02*
X0256510Y0412050D01*
X0258010Y0413630D02*
X0248340Y0413630D01*
X0248340Y0414520D02*
X0244770Y0414520D01*
X0248340Y0414520D01*
X0248340Y0415220D02*
X0273650Y0415220D01*
X0273630Y0416800D02*
X0273650Y0416800D01*
X0258190Y0416800D02*
X0254230Y0416800D01*
X0255440Y0418390D02*
X0256600Y0418390D01*
X0256510Y0419970D02*
X0255730Y0419970D01*
X0250030Y0416800D02*
X0248320Y0416800D01*
X0244770Y0414520D02*
X0244770Y0414520D01*
X0244770Y0414520D01*
X0239770Y0414520D01*
X0239770Y0414520D01*
X0241190Y0414520D01*
X0244770Y0414520D01*
X0239770Y0414520D02*
X0234770Y0414520D01*
X0238340Y0414520D01*
X0239770Y0414520D01*
X0239770Y0414520D01*
X0234770Y0414520D02*
X0234770Y0414520D01*
X0251400Y0405710D02*
X0254760Y0405710D01*
X0264300Y0393030D02*
X0276860Y0393030D01*
X0276860Y0394610D02*
X0275190Y0394610D01*
X0276780Y0396200D02*
X0276860Y0396200D01*
X0276860Y0391440D02*
X0265380Y0391440D01*
X0265570Y0389860D02*
X0276860Y0389860D01*
X0276860Y0388270D02*
X0265040Y0388270D01*
X0262730Y0386690D02*
X0276860Y0386690D01*
X0276860Y0385100D02*
X0259780Y0385100D01*
X0258190Y0383520D02*
X0276860Y0383520D01*
X0276860Y0381930D02*
X0256610Y0381930D01*
X0255020Y0380350D02*
X0276860Y0380350D01*
X0276860Y0378760D02*
X0271890Y0378760D01*
X0274180Y0377180D02*
X0276860Y0377180D01*
X0276860Y0375590D02*
X0275670Y0375590D01*
X0276580Y0374010D02*
X0276860Y0374010D01*
X0276590Y0364500D02*
X0276860Y0364500D01*
X0276860Y0362910D02*
X0275680Y0362910D01*
X0276860Y0361330D02*
X0274190Y0361330D01*
X0271920Y0359740D02*
X0276860Y0359740D01*
X0276860Y0358160D02*
X0177510Y0358160D01*
X0156670Y0388270D02*
X0150450Y0388270D01*
X0151910Y0393030D02*
X0147510Y0393030D01*
X0141120Y0427900D02*
X0129340Y0427900D01*
X0141120Y0429480D02*
X0142670Y0429480D01*
X0142670Y0431070D02*
X0141120Y0431070D01*
X0106710Y0464350D02*
X0084940Y0464350D01*
X0084940Y0462770D02*
X0105120Y0462770D01*
X0108290Y0465940D02*
X0084940Y0465940D01*
X0084940Y0467520D02*
X0109880Y0467520D01*
X0111460Y0469110D02*
X0084940Y0469110D01*
X0084940Y0470690D02*
X0113050Y0470690D01*
X0114630Y0472280D02*
X0084940Y0472280D01*
X0087630Y0473860D02*
X0116220Y0473860D01*
X0117800Y0475450D02*
X0104080Y0475450D01*
X0101930Y0475450D02*
X0101930Y0475450D01*
X0101930Y0477030D02*
X0101930Y0477030D01*
X0101930Y0478620D02*
X0101930Y0478620D01*
X0101930Y0480200D02*
X0101930Y0480200D01*
X0101930Y0481790D02*
X0101930Y0481790D01*
X0101930Y0483370D02*
X0101930Y0483370D01*
X0101930Y0484750D02*
X0101930Y0488320D01*
X0101930Y0490660D01*
X0101930Y0490660D01*
X0101930Y0484750D01*
X0101930Y0484750D01*
X0101930Y0484960D02*
X0101930Y0484960D01*
X0101930Y0486540D02*
X0101930Y0486540D01*
X0101930Y0488130D02*
X0101930Y0488130D01*
X0101930Y0489710D02*
X0101930Y0489710D01*
X0101930Y0491300D02*
X0101930Y0491300D01*
X0101930Y0492880D02*
X0101930Y0492880D01*
X0098810Y0492880D02*
X0087430Y0492880D01*
X0087430Y0491300D02*
X0098750Y0491300D01*
X0098750Y0489710D02*
X0087430Y0489710D01*
X0087430Y0488130D02*
X0098910Y0488130D01*
X0098750Y0486540D02*
X0087170Y0486540D01*
X0083650Y0486540D02*
X0082890Y0486540D01*
X0082890Y0488130D02*
X0083650Y0488130D01*
X0083650Y0489710D02*
X0082890Y0489710D01*
X0082890Y0490840D02*
X0079110Y0490840D01*
X0079110Y0493690D01*
X0079230Y0494150D01*
X0079470Y0494560D01*
X0079800Y0494890D01*
X0080210Y0495130D01*
X0080670Y0495250D01*
X0082890Y0495250D01*
X0082890Y0490840D01*
X0082890Y0491300D02*
X0083650Y0491300D01*
X0083650Y0492880D02*
X0082890Y0492880D01*
X0082890Y0494470D02*
X0083650Y0494470D01*
X0087130Y0494470D02*
X0115280Y0494470D01*
X0114700Y0492880D02*
X0110030Y0492880D01*
X0114670Y0496050D02*
X0072540Y0496050D01*
X0070960Y0497640D02*
X0114820Y0497640D01*
X0115830Y0499220D02*
X0069370Y0499220D01*
X0067790Y0500810D02*
X0120110Y0500810D01*
X0120110Y0502390D02*
X0066200Y0502390D01*
X0064620Y0503980D02*
X0120110Y0503980D01*
X0128770Y0516660D02*
X0157510Y0516660D01*
X0156620Y0518240D02*
X0128770Y0518240D01*
X0128770Y0519830D02*
X0141640Y0519830D01*
X0148360Y0519830D02*
X0151640Y0519830D01*
X0158570Y0522230D02*
X0158570Y0525690D01*
X0158050Y0526210D01*
X0158570Y0526730D01*
X0158570Y0532380D01*
X0157630Y0533320D01*
X0152370Y0533320D01*
X0151430Y0532380D01*
X0151430Y0532130D01*
X0148770Y0532130D01*
X0148770Y0532190D01*
X0147930Y0533030D01*
X0147930Y0534390D01*
X0148770Y0535230D01*
X0148770Y0540490D01*
X0148170Y0541090D01*
X0148270Y0541150D01*
X0148610Y0541480D01*
X0148840Y0541890D01*
X0148970Y0542350D01*
X0148970Y0544370D01*
X0145190Y0544370D01*
X0145190Y0544740D01*
X0148970Y0544740D01*
X0148970Y0546610D01*
X0177940Y0546610D01*
X0179080Y0547090D01*
X0179280Y0547290D01*
X0186890Y0547290D01*
X0187820Y0548220D01*
X0187820Y0548580D01*
X0193090Y0548580D01*
X0193090Y0543380D01*
X0193910Y0542560D01*
X0193910Y0540180D01*
X0193600Y0539870D01*
X0193600Y0538130D01*
X0193290Y0537560D01*
X0193150Y0536330D01*
X0193500Y0535150D01*
X0193600Y0535020D01*
X0193600Y0533350D01*
X0194540Y0532410D01*
X0198060Y0532410D01*
X0199000Y0533350D01*
X0199000Y0535090D01*
X0199520Y0536020D01*
X0199640Y0536150D01*
X0199810Y0536560D01*
X0200030Y0536960D01*
X0200040Y0537130D01*
X0200110Y0537290D01*
X0200110Y0537740D01*
X0200160Y0538180D01*
X0200110Y0538350D01*
X0200110Y0543050D01*
X0200720Y0542440D01*
X0200820Y0542440D01*
X0200820Y0538150D01*
X0200670Y0537550D01*
X0200820Y0537310D01*
X0200820Y0537030D01*
X0200890Y0536960D01*
X0200890Y0536960D01*
X0200880Y0536870D01*
X0200820Y0536800D01*
X0200820Y0536010D01*
X0200760Y0535230D01*
X0200820Y0535160D01*
X0200820Y0535060D01*
X0201000Y0534880D01*
X0201000Y0533350D01*
X0201940Y0532410D01*
X0203470Y0532410D01*
X0208690Y0527190D01*
X0208690Y0523250D01*
X0216560Y0515380D01*
X0217790Y0514150D01*
X0232600Y0514150D01*
X0232270Y0513820D01*
X0231570Y0512130D01*
X0231570Y0510470D01*
X0224420Y0503320D01*
X0213710Y0503320D01*
X0212770Y0502380D01*
X0212770Y0490790D01*
X0187230Y0490790D01*
X0187230Y0502380D01*
X0186290Y0503320D01*
X0183360Y0503320D01*
X0183360Y0522800D01*
X0186890Y0522800D01*
X0187820Y0523740D01*
X0187820Y0523990D01*
X0193600Y0523990D01*
X0193600Y0522550D01*
X0194540Y0521610D01*
X0198060Y0521610D01*
X0198070Y0521610D01*
X0198210Y0521530D01*
X0198670Y0521410D01*
X0200000Y0521410D01*
X0200000Y0525810D01*
X0200000Y0525810D01*
X0200000Y0530210D01*
X0198670Y0530210D01*
X0198210Y0530090D01*
X0198070Y0530010D01*
X0198060Y0530010D01*
X0194540Y0530010D01*
X0193600Y0529070D01*
X0193600Y0528190D01*
X0187820Y0528190D01*
X0187820Y0531050D01*
X0186890Y0531980D01*
X0172960Y0531980D01*
X0172020Y0531050D01*
X0172020Y0523740D01*
X0172960Y0522800D01*
X0179160Y0522800D01*
X0179160Y0503320D01*
X0173160Y0503320D01*
X0172220Y0502380D01*
X0172220Y0490790D01*
X0168350Y0490790D01*
X0167610Y0491530D01*
X0166380Y0492760D01*
X0166000Y0492760D01*
X0166000Y0494170D01*
X0165060Y0495110D01*
X0161710Y0495110D01*
X0161710Y0519090D01*
X0158570Y0522230D01*
X0158570Y0523000D02*
X0172770Y0523000D01*
X0172020Y0524580D02*
X0158570Y0524580D01*
X0158100Y0526170D02*
X0172020Y0526170D01*
X0172020Y0527750D02*
X0158570Y0527750D01*
X0158570Y0529340D02*
X0172020Y0529340D01*
X0172020Y0530920D02*
X0158570Y0530920D01*
X0158450Y0532510D02*
X0194440Y0532510D01*
X0193600Y0534090D02*
X0147930Y0534090D01*
X0148450Y0532510D02*
X0151550Y0532510D01*
X0148770Y0535680D02*
X0193350Y0535680D01*
X0193250Y0537260D02*
X0148770Y0537260D01*
X0148770Y0538850D02*
X0193600Y0538850D01*
X0193910Y0540430D02*
X0148770Y0540430D01*
X0148880Y0542020D02*
X0193910Y0542020D01*
X0193090Y0543600D02*
X0148970Y0543600D01*
X0148970Y0545190D02*
X0193090Y0545190D01*
X0193090Y0546770D02*
X0178320Y0546770D01*
X0172020Y0553110D02*
X0131070Y0553110D01*
X0129480Y0554700D02*
X0172020Y0554700D01*
X0172770Y0556280D02*
X0127900Y0556280D01*
X0124860Y0550550D02*
X0126660Y0548750D01*
X0126660Y0547010D01*
X0126510Y0547150D01*
X0126100Y0547390D01*
X0125640Y0547510D01*
X0121710Y0547510D01*
X0121710Y0542010D01*
X0120110Y0542010D01*
X0120110Y0547510D01*
X0116170Y0547510D01*
X0115710Y0547390D01*
X0115300Y0547150D01*
X0115160Y0547010D01*
X0115160Y0550420D01*
X0115030Y0550550D01*
X0124860Y0550550D01*
X0125470Y0549940D02*
X0115160Y0549940D01*
X0115160Y0548360D02*
X0126660Y0548360D01*
X0121710Y0546770D02*
X0120110Y0546770D01*
X0120110Y0545190D02*
X0121710Y0545190D01*
X0121710Y0543600D02*
X0120110Y0543600D01*
X0120110Y0542020D02*
X0121710Y0542020D01*
X0121710Y0540430D02*
X0126670Y0540430D01*
X0121710Y0538850D02*
X0120110Y0538850D01*
X0120110Y0540410D02*
X0115250Y0540410D01*
X0115230Y0540450D01*
X0115000Y0540870D01*
X0114660Y0541200D01*
X0114470Y0541310D01*
X0115160Y0542000D01*
X0115160Y0542010D01*
X0120110Y0542010D01*
X0120110Y0540410D01*
X0120110Y0540430D02*
X0115240Y0540430D01*
X0110410Y0538710D02*
X0110410Y0538710D01*
X0105460Y0538710D01*
X0105460Y0537420D01*
X0105550Y0537070D01*
X0101680Y0537070D01*
X0101680Y0543490D01*
X0102450Y0542720D01*
X0103770Y0542180D01*
X0105210Y0542180D01*
X0105660Y0542360D01*
X0105660Y0542000D01*
X0106340Y0541310D01*
X0106150Y0541200D01*
X0105820Y0540870D01*
X0105580Y0540450D01*
X0105460Y0540000D01*
X0105460Y0538710D01*
X0110410Y0538710D01*
X0105460Y0538850D02*
X0101680Y0538850D01*
X0101680Y0540430D02*
X0105570Y0540430D01*
X0105660Y0542020D02*
X0101680Y0542020D01*
X0101680Y0537260D02*
X0105500Y0537260D01*
X0111760Y0530920D02*
X0129950Y0530920D01*
X0129950Y0529340D02*
X0014800Y0529340D01*
X0014800Y0530920D02*
X0074210Y0530920D01*
X0072040Y0532510D02*
X0014800Y0532510D01*
X0014800Y0534090D02*
X0070450Y0534090D01*
X0068870Y0535680D02*
X0014800Y0535680D01*
X0014800Y0537260D02*
X0067280Y0537260D01*
X0065700Y0538850D02*
X0014800Y0538850D01*
X0014800Y0540430D02*
X0022350Y0540430D01*
X0018730Y0542020D02*
X0014800Y0542020D01*
X0014800Y0543600D02*
X0016920Y0543600D01*
X0015660Y0545190D02*
X0014800Y0545190D01*
X0027660Y0540430D02*
X0064110Y0540430D01*
X0062530Y0542020D02*
X0031270Y0542020D01*
X0033090Y0543600D02*
X0062020Y0543600D01*
X0062020Y0545190D02*
X0034340Y0545190D01*
X0035260Y0546770D02*
X0062020Y0546770D01*
X0060930Y0548360D02*
X0035730Y0548360D01*
X0036100Y0549940D02*
X0060220Y0549940D01*
X0060100Y0551530D02*
X0036100Y0551530D01*
X0035980Y0553110D02*
X0060490Y0553110D01*
X0061560Y0554700D02*
X0035560Y0554700D01*
X0034890Y0556280D02*
X0075600Y0556280D01*
X0084400Y0556280D02*
X0092190Y0556280D01*
X0091180Y0554700D02*
X0085150Y0554700D01*
X0085150Y0553110D02*
X0087160Y0553110D01*
X0086430Y0551530D02*
X0085150Y0551530D01*
X0085150Y0549940D02*
X0086430Y0549940D01*
X0086430Y0548360D02*
X0085150Y0548360D01*
X0086430Y0546770D02*
X0068220Y0546770D01*
X0068220Y0545190D02*
X0075250Y0545190D01*
X0075350Y0545290D02*
X0075020Y0544950D01*
X0074780Y0544540D01*
X0074660Y0544080D01*
X0074660Y0541470D01*
X0079230Y0541470D01*
X0079230Y0545650D01*
X0076220Y0545650D01*
X0075760Y0545530D01*
X0075350Y0545290D01*
X0074660Y0543600D02*
X0069710Y0543600D01*
X0071300Y0542020D02*
X0074660Y0542020D01*
X0072880Y0540430D02*
X0079230Y0540430D01*
X0080780Y0540430D02*
X0086240Y0540430D01*
X0086230Y0540460D02*
X0086360Y0540000D01*
X0086590Y0539590D01*
X0086930Y0539260D01*
X0087340Y0539020D01*
X0087800Y0538900D01*
X0089820Y0538900D01*
X0089820Y0542680D01*
X0086230Y0542680D01*
X0086230Y0540460D01*
X0086230Y0542020D02*
X0085350Y0542020D01*
X0085350Y0543600D02*
X0086230Y0543600D01*
X0086230Y0545190D02*
X0084750Y0545190D01*
X0089820Y0542020D02*
X0090190Y0542020D01*
X0090190Y0542680D02*
X0090190Y0538900D01*
X0092210Y0538900D01*
X0092670Y0539020D01*
X0093080Y0539260D01*
X0093410Y0539590D01*
X0093650Y0540000D01*
X0093770Y0540460D01*
X0093770Y0542680D01*
X0090190Y0542680D01*
X0090190Y0540430D02*
X0089820Y0540430D01*
X0093760Y0540430D02*
X0095480Y0540430D01*
X0095480Y0538850D02*
X0085350Y0538850D01*
X0085330Y0537260D02*
X0095480Y0537260D01*
X0095480Y0542020D02*
X0093770Y0542020D01*
X0093770Y0543600D02*
X0095480Y0543600D01*
X0095480Y0545190D02*
X0093770Y0545190D01*
X0093570Y0546770D02*
X0095480Y0546770D01*
X0095480Y0548360D02*
X0093570Y0548360D01*
X0093910Y0549940D02*
X0096400Y0549940D01*
X0097610Y0551530D02*
X0097980Y0551530D01*
X0098250Y0553110D02*
X0099570Y0553110D01*
X0098110Y0554700D02*
X0101150Y0554700D01*
X0102740Y0556280D02*
X0097110Y0556280D01*
X0080780Y0545190D02*
X0079230Y0545190D01*
X0079230Y0543600D02*
X0080780Y0543600D01*
X0080780Y0542020D02*
X0079230Y0542020D01*
X0074660Y0538850D02*
X0074470Y0538850D01*
X0074860Y0548360D02*
X0069080Y0548360D01*
X0115160Y0534090D02*
X0126660Y0534090D01*
X0126660Y0532510D02*
X0115160Y0532510D01*
X0120110Y0535680D02*
X0121710Y0535680D01*
X0121710Y0537260D02*
X0120110Y0537260D01*
X0135370Y0541210D02*
X0136160Y0542000D01*
X0136160Y0545420D01*
X0135370Y0546210D01*
X0135770Y0546610D01*
X0141040Y0546610D01*
X0141040Y0544740D01*
X0144820Y0544740D01*
X0144820Y0544370D01*
X0141040Y0544370D01*
X0141040Y0542350D01*
X0141160Y0541890D01*
X0141400Y0541480D01*
X0141730Y0541150D01*
X0141830Y0541090D01*
X0141240Y0540490D01*
X0141240Y0540000D01*
X0136160Y0540000D01*
X0136160Y0540420D01*
X0135370Y0541210D01*
X0136150Y0540430D02*
X0141240Y0540430D01*
X0141130Y0542020D02*
X0136160Y0542020D01*
X0136160Y0543600D02*
X0141040Y0543600D01*
X0141040Y0545190D02*
X0136160Y0545190D01*
X0129950Y0524580D02*
X0128070Y0524580D01*
X0159390Y0521410D02*
X0179160Y0521410D01*
X0179160Y0519830D02*
X0160970Y0519830D01*
X0161710Y0518240D02*
X0179160Y0518240D01*
X0179160Y0516660D02*
X0161710Y0516660D01*
X0161710Y0515070D02*
X0179160Y0515070D01*
X0179160Y0513490D02*
X0161710Y0513490D01*
X0161710Y0511900D02*
X0179160Y0511900D01*
X0179160Y0510320D02*
X0161710Y0510320D01*
X0161710Y0508730D02*
X0179160Y0508730D01*
X0179160Y0507150D02*
X0161710Y0507150D01*
X0161710Y0505560D02*
X0179160Y0505560D01*
X0179160Y0503980D02*
X0161710Y0503980D01*
X0161710Y0502390D02*
X0172230Y0502390D01*
X0172220Y0500810D02*
X0161710Y0500810D01*
X0161710Y0499220D02*
X0172220Y0499220D01*
X0172220Y0497640D02*
X0161710Y0497640D01*
X0161710Y0496050D02*
X0172220Y0496050D01*
X0172220Y0494470D02*
X0165710Y0494470D01*
X0166000Y0492880D02*
X0172220Y0492880D01*
X0172220Y0491300D02*
X0167850Y0491300D01*
X0183360Y0503980D02*
X0225070Y0503980D01*
X0226660Y0505560D02*
X0183360Y0505560D01*
X0183360Y0507150D02*
X0228240Y0507150D01*
X0229830Y0508730D02*
X0183360Y0508730D01*
X0183360Y0510320D02*
X0231410Y0510320D01*
X0231570Y0511900D02*
X0183360Y0511900D01*
X0183360Y0513490D02*
X0232130Y0513490D01*
X0238420Y0507150D02*
X0245760Y0507150D01*
X0244030Y0508730D02*
X0240150Y0508730D01*
X0240790Y0510320D02*
X0243380Y0510320D01*
X0243380Y0511900D02*
X0240790Y0511900D01*
X0240230Y0513490D02*
X0242080Y0513490D01*
X0244850Y0516660D02*
X0255780Y0516660D01*
X0256440Y0517780D02*
X0255030Y0515340D01*
X0254300Y0512620D01*
X0254300Y0509800D01*
X0255030Y0507080D01*
X0256440Y0504640D01*
X0258430Y0502640D01*
X0260870Y0501230D01*
X0263590Y0500500D01*
X0266410Y0500500D01*
X0269130Y0501230D01*
X0271580Y0502640D01*
X0273570Y0504640D01*
X0274980Y0507080D01*
X0275710Y0509800D01*
X0275710Y0512620D01*
X0274980Y0515340D01*
X0273570Y0517780D01*
X0271580Y0519780D01*
X0269130Y0521190D01*
X0266410Y0521920D01*
X0263590Y0521920D01*
X0260870Y0521190D01*
X0258430Y0519780D01*
X0256440Y0517780D01*
X0256890Y0518240D02*
X0243260Y0518240D01*
X0250660Y0515070D02*
X0254950Y0515070D01*
X0254530Y0513490D02*
X0252040Y0513490D01*
X0252610Y0511900D02*
X0254300Y0511900D01*
X0254300Y0510320D02*
X0252610Y0510320D01*
X0251960Y0508730D02*
X0254580Y0508730D01*
X0255010Y0507150D02*
X0250230Y0507150D01*
X0255900Y0505560D02*
X0232600Y0505560D01*
X0231010Y0503980D02*
X0257100Y0503980D01*
X0258870Y0502390D02*
X0229430Y0502390D01*
X0227840Y0500810D02*
X0262470Y0500810D01*
X0267530Y0500810D02*
X0276860Y0500810D01*
X0276860Y0502390D02*
X0271140Y0502390D01*
X0272910Y0503980D02*
X0276860Y0503980D01*
X0276860Y0505560D02*
X0274100Y0505560D01*
X0275000Y0507150D02*
X0276860Y0507150D01*
X0276860Y0508730D02*
X0275420Y0508730D01*
X0275710Y0510320D02*
X0276860Y0510320D01*
X0276860Y0511900D02*
X0275710Y0511900D01*
X0275480Y0513490D02*
X0276860Y0513490D01*
X0276860Y0515070D02*
X0275050Y0515070D01*
X0274220Y0516660D02*
X0276860Y0516660D01*
X0276860Y0518240D02*
X0273110Y0518240D01*
X0271490Y0519830D02*
X0276860Y0519830D01*
X0276860Y0521410D02*
X0268300Y0521410D01*
X0261710Y0521410D02*
X0216470Y0521410D01*
X0218060Y0519830D02*
X0258510Y0519830D01*
X0276860Y0532510D02*
X0219450Y0532510D01*
X0218830Y0531320D02*
X0218960Y0531250D01*
X0219290Y0530920D01*
X0219450Y0534090D02*
X0276860Y0534090D01*
X0276860Y0535680D02*
X0219450Y0535680D01*
X0219060Y0537260D02*
X0276860Y0537260D01*
X0276860Y0538850D02*
X0217830Y0538850D01*
X0217830Y0540430D02*
X0262350Y0540430D01*
X0258730Y0542020D02*
X0217830Y0542020D01*
X0217830Y0543600D02*
X0256920Y0543600D01*
X0255660Y0545190D02*
X0217510Y0545190D01*
X0216150Y0546770D02*
X0254750Y0546770D01*
X0254280Y0548360D02*
X0214560Y0548360D01*
X0212980Y0549940D02*
X0253900Y0549940D01*
X0253900Y0551530D02*
X0211390Y0551530D01*
X0209810Y0553110D02*
X0254020Y0553110D01*
X0254450Y0554700D02*
X0207680Y0554700D01*
X0200820Y0542020D02*
X0200110Y0542020D01*
X0200110Y0540430D02*
X0200820Y0540430D01*
X0200820Y0538850D02*
X0200110Y0538850D01*
X0200100Y0537260D02*
X0200820Y0537260D01*
X0200790Y0535680D02*
X0199320Y0535680D01*
X0199000Y0534090D02*
X0201000Y0534090D01*
X0201840Y0532510D02*
X0198160Y0532510D01*
X0200000Y0530210D02*
X0200000Y0525810D01*
X0200000Y0525810D01*
X0200000Y0521410D01*
X0200000Y0521410D01*
X0201340Y0521410D01*
X0210530Y0521410D01*
X0208950Y0523000D02*
X0206400Y0523000D01*
X0206400Y0522550D02*
X0205460Y0521610D01*
X0201940Y0521610D01*
X0201940Y0521610D01*
X0201800Y0521530D01*
X0201340Y0521410D01*
X0200000Y0523000D02*
X0200000Y0523000D01*
X0200000Y0524580D02*
X0200000Y0524580D01*
X0200000Y0526170D02*
X0200000Y0526170D01*
X0200000Y0527750D02*
X0200000Y0527750D01*
X0200000Y0529340D02*
X0200000Y0529340D01*
X0200000Y0530210D02*
X0201340Y0530210D01*
X0201800Y0530090D01*
X0201940Y0530010D01*
X0201940Y0530010D01*
X0205460Y0530010D01*
X0206400Y0529070D01*
X0206400Y0522550D01*
X0206400Y0524580D02*
X0208690Y0524580D01*
X0208690Y0526170D02*
X0206400Y0526170D01*
X0206400Y0527750D02*
X0208130Y0527750D01*
X0206540Y0529340D02*
X0206140Y0529340D01*
X0204960Y0530920D02*
X0187820Y0530920D01*
X0187820Y0529340D02*
X0193860Y0529340D01*
X0193600Y0523000D02*
X0187080Y0523000D01*
X0183360Y0521410D02*
X0198660Y0521410D01*
X0212120Y0519830D02*
X0183360Y0519830D01*
X0183360Y0518240D02*
X0213700Y0518240D01*
X0215290Y0516660D02*
X0183360Y0516660D01*
X0183360Y0515070D02*
X0216870Y0515070D01*
X0212780Y0502390D02*
X0187230Y0502390D01*
X0187230Y0500810D02*
X0212770Y0500810D01*
X0212770Y0499220D02*
X0187230Y0499220D01*
X0187230Y0497640D02*
X0212770Y0497640D01*
X0212770Y0496050D02*
X0187230Y0496050D01*
X0187230Y0494470D02*
X0212770Y0494470D01*
X0212770Y0492880D02*
X0187230Y0492880D01*
X0187230Y0491300D02*
X0212770Y0491300D01*
X0227780Y0494470D02*
X0276860Y0494470D01*
X0276860Y0496050D02*
X0227780Y0496050D01*
X0227780Y0497640D02*
X0276860Y0497640D01*
X0276860Y0499220D02*
X0227780Y0499220D01*
X0267660Y0540430D02*
X0276860Y0540430D01*
X0276860Y0542020D02*
X0271270Y0542020D01*
X0273090Y0543600D02*
X0276860Y0543600D01*
X0276860Y0545190D02*
X0274340Y0545190D01*
X0275260Y0546770D02*
X0276860Y0546770D01*
X0276860Y0548360D02*
X0275730Y0548360D01*
X0276100Y0549940D02*
X0276860Y0549940D01*
X0276860Y0551530D02*
X0276100Y0551530D01*
X0275980Y0553110D02*
X0276860Y0553110D01*
X0276860Y0554700D02*
X0275560Y0554700D01*
X0274890Y0556280D02*
X0276860Y0556280D01*
X0255110Y0556280D02*
X0187080Y0556280D01*
X0187820Y0548360D02*
X0193090Y0548360D01*
X0098750Y0484960D02*
X0083640Y0484960D01*
X0084940Y0483370D02*
X0098750Y0483370D01*
X0099170Y0481790D02*
X0084940Y0481790D01*
X0087630Y0480200D02*
X0098750Y0480200D01*
X0098750Y0478620D02*
X0087630Y0478620D01*
X0087630Y0477030D02*
X0098750Y0477030D01*
X0099780Y0475450D02*
X0087630Y0475450D01*
X0080740Y0472480D02*
X0080740Y0460030D01*
X0075800Y0455100D01*
X0075800Y0455470D01*
X0075060Y0456210D01*
X0075800Y0456950D01*
X0075800Y0460470D01*
X0074860Y0461410D01*
X0072250Y0461410D01*
X0072660Y0462380D01*
X0072660Y0463820D01*
X0072110Y0465140D01*
X0071160Y0466090D01*
X0071160Y0467910D01*
X0066270Y0472790D01*
X0066270Y0476690D01*
X0067040Y0476690D01*
X0067040Y0472280D01*
X0069250Y0472280D01*
X0069710Y0472410D01*
X0070120Y0472640D01*
X0070460Y0472980D01*
X0070700Y0473390D01*
X0070820Y0473850D01*
X0070820Y0476700D01*
X0067040Y0476700D01*
X0067040Y0477460D01*
X0070820Y0477460D01*
X0070820Y0480310D01*
X0070700Y0480760D01*
X0070460Y0481170D01*
X0070120Y0481510D01*
X0069710Y0481750D01*
X0069250Y0481870D01*
X0067040Y0481870D01*
X0067040Y0477460D01*
X0066270Y0477460D01*
X0066270Y0481870D01*
X0064060Y0481870D01*
X0063600Y0481750D01*
X0063280Y0481560D01*
X0063280Y0485870D01*
X0069290Y0485870D01*
X0070220Y0486810D01*
X0070220Y0492430D01*
X0080740Y0481910D01*
X0080740Y0481670D01*
X0080640Y0481670D01*
X0079700Y0480730D01*
X0079700Y0473420D01*
X0080640Y0472480D01*
X0080740Y0472480D01*
X0080740Y0472280D02*
X0066790Y0472280D01*
X0067040Y0473860D02*
X0066270Y0473860D01*
X0066270Y0475450D02*
X0067040Y0475450D01*
X0067040Y0477030D02*
X0079700Y0477030D01*
X0079700Y0475450D02*
X0070820Y0475450D01*
X0070820Y0473860D02*
X0079700Y0473860D01*
X0080740Y0470690D02*
X0068370Y0470690D01*
X0069960Y0469110D02*
X0080740Y0469110D01*
X0080740Y0467520D02*
X0071160Y0467520D01*
X0071310Y0465940D02*
X0080740Y0465940D01*
X0080740Y0464350D02*
X0072440Y0464350D01*
X0072660Y0462770D02*
X0080740Y0462770D01*
X0080740Y0461180D02*
X0075090Y0461180D01*
X0075800Y0459600D02*
X0080300Y0459600D01*
X0078710Y0458010D02*
X0075800Y0458010D01*
X0075280Y0456430D02*
X0077130Y0456430D01*
X0064800Y0454840D02*
X0057380Y0454840D01*
X0057380Y0453260D02*
X0064800Y0453260D01*
X0065080Y0451670D02*
X0057380Y0451670D01*
X0057480Y0450090D02*
X0064800Y0450090D01*
X0064800Y0448500D02*
X0059070Y0448500D01*
X0060650Y0446920D02*
X0064830Y0446920D01*
X0064680Y0445330D02*
X0062240Y0445330D01*
X0063820Y0443750D02*
X0064600Y0443750D01*
X0064600Y0443710D02*
X0070300Y0443710D01*
X0064600Y0443710D01*
X0068530Y0440810D02*
X0070300Y0440810D01*
X0070300Y0443710D01*
X0070300Y0443710D01*
X0070300Y0443710D01*
X0070300Y0440810D01*
X0074440Y0440810D01*
X0074830Y0440920D01*
X0074830Y0438530D01*
X0073880Y0437580D01*
X0073330Y0436260D01*
X0073330Y0435670D01*
X0070220Y0435670D01*
X0070690Y0436790D01*
X0070690Y0438230D01*
X0070140Y0439550D01*
X0069130Y0440560D01*
X0068530Y0440810D01*
X0069090Y0440580D02*
X0074830Y0440580D01*
X0074830Y0438990D02*
X0070370Y0438990D01*
X0070690Y0437410D02*
X0073810Y0437410D01*
X0073330Y0435820D02*
X0070290Y0435820D01*
X0072120Y0431470D02*
X0064250Y0431470D01*
X0051470Y0444250D01*
X0051470Y0436320D01*
X0051970Y0436570D01*
X0052690Y0436810D01*
X0053440Y0436930D01*
X0053620Y0436930D01*
X0053620Y0432320D01*
X0054020Y0432320D01*
X0054020Y0436930D01*
X0054200Y0436930D01*
X0054950Y0436810D01*
X0055670Y0436570D01*
X0056340Y0436230D01*
X0056960Y0435790D01*
X0057490Y0435250D01*
X0057940Y0434640D01*
X0058280Y0433960D01*
X0058510Y0433240D01*
X0058630Y0432490D01*
X0058630Y0432320D01*
X0054030Y0432320D01*
X0054030Y0431910D01*
X0058630Y0431910D01*
X0058630Y0431740D01*
X0058510Y0430990D01*
X0058280Y0430270D01*
X0058020Y0429770D01*
X0064800Y0429770D01*
X0064800Y0430470D01*
X0065740Y0431410D01*
X0072190Y0431410D01*
X0072120Y0431470D01*
X0065390Y0431070D02*
X0058530Y0431070D01*
X0058610Y0432650D02*
X0063070Y0432650D01*
X0061490Y0434240D02*
X0058140Y0434240D01*
X0056910Y0435820D02*
X0059900Y0435820D01*
X0058320Y0437410D02*
X0051470Y0437410D01*
X0051470Y0438990D02*
X0056730Y0438990D01*
X0055150Y0440580D02*
X0051470Y0440580D01*
X0051470Y0442160D02*
X0053560Y0442160D01*
X0051980Y0443750D02*
X0051470Y0443750D01*
X0053160Y0448500D02*
X0053180Y0448500D01*
X0053180Y0450090D02*
X0051580Y0450090D01*
X0051470Y0450190D02*
X0051470Y0450190D01*
X0050240Y0451420D02*
X0050240Y0451420D01*
X0049990Y0451670D02*
X0053180Y0451670D01*
X0053180Y0453260D02*
X0048410Y0453260D01*
X0046820Y0454840D02*
X0053180Y0454840D01*
X0053180Y0456430D02*
X0045570Y0456430D01*
X0045570Y0458010D02*
X0053180Y0458010D01*
X0053180Y0459600D02*
X0045570Y0459600D01*
X0046170Y0461180D02*
X0051730Y0461180D01*
X0049880Y0462770D02*
X0046620Y0462770D01*
X0046620Y0464350D02*
X0049220Y0464350D01*
X0049210Y0465940D02*
X0046620Y0465940D01*
X0046620Y0467520D02*
X0049750Y0467520D01*
X0051100Y0469110D02*
X0046500Y0469110D01*
X0042220Y0470690D02*
X0062430Y0470690D01*
X0060850Y0472280D02*
X0043600Y0472280D01*
X0045280Y0473860D02*
X0050270Y0473860D01*
X0050150Y0473980D02*
X0050690Y0473450D01*
X0051300Y0473000D01*
X0051970Y0472660D01*
X0052690Y0472420D01*
X0053440Y0472300D01*
X0053620Y0472300D01*
X0053620Y0476910D01*
X0049010Y0476910D01*
X0049010Y0476740D01*
X0049130Y0475990D01*
X0049360Y0475270D01*
X0049710Y0474590D01*
X0050150Y0473980D01*
X0049300Y0475450D02*
X0046310Y0475450D01*
X0046620Y0477030D02*
X0053620Y0477030D01*
X0054030Y0477030D02*
X0059080Y0477030D01*
X0059080Y0475450D02*
X0058340Y0475450D01*
X0059260Y0473860D02*
X0057370Y0473860D01*
X0054020Y0473860D02*
X0053620Y0473860D01*
X0053620Y0475450D02*
X0054020Y0475450D01*
X0054020Y0478620D02*
X0053620Y0478620D01*
X0053620Y0480200D02*
X0054020Y0480200D01*
X0057530Y0480200D02*
X0059080Y0480200D01*
X0059080Y0478620D02*
X0058390Y0478620D01*
X0063280Y0481790D02*
X0063750Y0481790D01*
X0063280Y0483370D02*
X0079280Y0483370D01*
X0080740Y0481790D02*
X0069560Y0481790D01*
X0070820Y0480200D02*
X0079700Y0480200D01*
X0079700Y0478620D02*
X0070820Y0478620D01*
X0067040Y0478620D02*
X0066270Y0478620D01*
X0066270Y0480200D02*
X0067040Y0480200D01*
X0067040Y0481790D02*
X0066270Y0481790D01*
X0063280Y0484960D02*
X0077700Y0484960D01*
X0076110Y0486540D02*
X0069960Y0486540D01*
X0070220Y0488130D02*
X0074530Y0488130D01*
X0072940Y0489710D02*
X0070220Y0489710D01*
X0070220Y0491300D02*
X0071360Y0491300D01*
X0074130Y0494470D02*
X0079410Y0494470D01*
X0079110Y0492880D02*
X0075710Y0492880D01*
X0077300Y0491300D02*
X0079110Y0491300D01*
X0079110Y0489710D02*
X0078880Y0489710D01*
X0064020Y0469110D02*
X0056540Y0469110D01*
X0057890Y0467520D02*
X0065600Y0467520D01*
X0066800Y0465940D02*
X0058430Y0465940D01*
X0058420Y0464350D02*
X0065680Y0464350D01*
X0065460Y0462770D02*
X0057760Y0462770D01*
X0057380Y0461180D02*
X0060090Y0461180D01*
X0059550Y0459600D02*
X0057380Y0459600D01*
X0057380Y0458010D02*
X0059730Y0458010D01*
X0060800Y0456430D02*
X0057380Y0456430D01*
X0070300Y0442160D02*
X0070300Y0442160D01*
X0054020Y0435820D02*
X0053620Y0435820D01*
X0053620Y0434240D02*
X0054020Y0434240D01*
X0054020Y0432650D02*
X0053620Y0432650D01*
X0049210Y0419970D02*
X0046620Y0419970D01*
X0046620Y0418390D02*
X0049620Y0418390D01*
X0050800Y0416800D02*
X0046620Y0416800D01*
X0045500Y0404120D02*
X0014800Y0404120D01*
X0014800Y0402540D02*
X0044450Y0402540D01*
X0044200Y0400950D02*
X0014800Y0400950D01*
X0014800Y0399370D02*
X0044570Y0399370D01*
X0051790Y0389860D02*
X0052720Y0389860D01*
X0054300Y0388270D02*
X0050540Y0388270D01*
X0015440Y0431070D02*
X0014800Y0431070D01*
X0014800Y0432650D02*
X0016360Y0432650D01*
X0017890Y0434240D02*
X0014800Y0434240D01*
X0014800Y0435820D02*
X0020240Y0435820D01*
X0028930Y0461180D02*
X0035460Y0461180D01*
X0035460Y0462770D02*
X0031700Y0462770D01*
X0033280Y0464350D02*
X0035460Y0464350D01*
X0035460Y0465940D02*
X0034320Y0465940D01*
X0035100Y0467520D02*
X0035460Y0467520D01*
X0035710Y0470690D02*
X0036280Y0470690D01*
X0035710Y0472280D02*
X0037860Y0472280D01*
X0038740Y0473860D02*
X0035380Y0473860D01*
X0034920Y0475450D02*
X0037710Y0475450D01*
X0037400Y0477030D02*
X0034000Y0477030D01*
X0032740Y0478620D02*
X0037640Y0478620D01*
X0038570Y0480200D02*
X0030840Y0480200D01*
X0045450Y0480200D02*
X0050110Y0480200D01*
X0049250Y0478620D02*
X0046380Y0478620D01*
X0038510Y0505560D02*
X0026620Y0505560D01*
X0023380Y0505560D02*
X0014800Y0505560D01*
X0014800Y0507150D02*
X0019290Y0507150D01*
X0017340Y0508730D02*
X0014800Y0508730D01*
X0014800Y0510320D02*
X0016040Y0510320D01*
X0015130Y0511900D02*
X0014800Y0511900D01*
X0014800Y0519830D02*
X0014890Y0519830D01*
X0014800Y0521410D02*
X0015640Y0521410D01*
X0014800Y0523000D02*
X0016650Y0523000D01*
X0018230Y0524580D02*
X0014800Y0524580D01*
X0030710Y0507150D02*
X0037200Y0507150D01*
X0037200Y0508730D02*
X0032660Y0508730D01*
X0191020Y0435820D02*
X0198850Y0435820D01*
X0198850Y0434240D02*
X0191130Y0434240D01*
X0191130Y0432650D02*
X0194930Y0432650D01*
X0253440Y0378760D02*
X0262050Y0378760D01*
X0259760Y0377180D02*
X0251850Y0377180D01*
X0250270Y0375590D02*
X0258270Y0375590D01*
X0257360Y0374010D02*
X0248680Y0374010D01*
X0253310Y0372420D02*
X0256740Y0372420D01*
X0256310Y0370840D02*
X0254290Y0370840D01*
X0254570Y0369250D02*
X0256270Y0369250D01*
X0256310Y0367670D02*
X0254300Y0367670D01*
X0253320Y0366080D02*
X0256730Y0366080D01*
X0257350Y0364500D02*
X0247040Y0364500D01*
X0245460Y0362910D02*
X0258260Y0362910D01*
X0259750Y0361330D02*
X0243870Y0361330D01*
X0274220Y0356570D02*
X0276860Y0356570D01*
D66*
X0155670Y0425700D03*
X0116300Y0429640D03*
X0126140Y0398140D03*
X0122210Y0461130D03*
D38*
X0110410Y0533710D02*
X0110400Y0533970D01*
X0098580Y0533970D01*
X0098580Y0547750D01*
X0104490Y0553650D01*
X0126140Y0553650D01*
X0130080Y0549710D01*
X0131410Y0548710D01*
X0132050Y0549710D01*
X0177320Y0549710D01*
X0179290Y0551680D01*
X0179920Y0551880D01*
X0181260Y0551680D01*
X0197010Y0551680D01*
X0197010Y0547750D01*
X0196660Y0546210D01*
X0197010Y0545780D01*
X0197010Y0537900D01*
X0196300Y0536610D01*
X0206850Y0551680D02*
X0214730Y0543810D01*
X0214730Y0535930D01*
X0215000Y0534410D01*
X0206850Y0551680D02*
X0197010Y0551680D01*
X0098580Y0533970D02*
X0074960Y0533970D01*
X0065120Y0543810D01*
X0065120Y0549710D01*
X0065000Y0551210D01*
X0065120Y0551680D01*
X0078900Y0551680D01*
X0080000Y0551720D01*
D119*
X0090000Y0549560D02*
X0090710Y0549710D01*
X0094650Y0553650D01*
X0104490Y0545780D02*
X0106460Y0547750D01*
X0110400Y0547750D01*
X0110410Y0548710D01*
X0131410Y0538710D02*
X0132050Y0537900D01*
X0143860Y0537900D01*
X0145000Y0537860D01*
X0145830Y0535930D01*
X0145830Y0530030D01*
X0145000Y0529560D01*
X0145830Y0530030D02*
X0153700Y0530030D01*
X0155000Y0529560D01*
X0155000Y0522860D02*
X0155670Y0522150D01*
X0159610Y0518220D01*
X0159610Y0492630D01*
X0161500Y0492810D01*
X0161580Y0490660D02*
X0161500Y0490310D01*
X0161580Y0490660D02*
X0165510Y0490660D01*
X0167480Y0488690D01*
X0175360Y0488690D01*
X0175360Y0402080D01*
X0179290Y0398140D01*
X0173390Y0394200D02*
X0185200Y0394200D01*
X0186180Y0393770D01*
X0187170Y0394200D01*
X0189140Y0394200D01*
X0195040Y0400110D01*
X0210790Y0384360D01*
X0222600Y0384360D01*
X0223820Y0383770D01*
X0224570Y0384360D01*
X0226540Y0384360D01*
X0236380Y0394200D01*
X0234770Y0394400D01*
X0236380Y0394200D02*
X0238350Y0394200D01*
X0239770Y0394400D01*
X0240320Y0394200D01*
X0244250Y0394200D01*
X0244770Y0394400D01*
X0246220Y0394200D01*
X0254100Y0394200D01*
X0260000Y0400110D01*
X0260910Y0400300D01*
X0261970Y0396170D02*
X0273780Y0396170D01*
X0275750Y0398140D01*
X0275750Y0435540D01*
X0271810Y0439480D01*
X0270910Y0440300D01*
X0265910Y0439480D02*
X0265910Y0445380D01*
X0269840Y0449320D01*
X0270910Y0450300D01*
X0265910Y0455230D02*
X0269840Y0459160D01*
X0270910Y0460300D01*
X0265910Y0465070D02*
X0269840Y0469010D01*
X0270910Y0470300D01*
X0265910Y0465070D02*
X0242290Y0465070D01*
X0237560Y0471210D02*
X0236380Y0470970D01*
X0236380Y0453260D01*
X0212760Y0429640D01*
X0212760Y0404040D01*
X0204880Y0396170D01*
X0198980Y0390270D02*
X0191100Y0382390D01*
X0191100Y0380420D01*
X0189140Y0378450D01*
X0187170Y0378450D01*
X0186180Y0378770D01*
X0185200Y0378450D01*
X0183230Y0378450D01*
X0177320Y0384360D01*
X0169450Y0384360D01*
X0163550Y0384360D02*
X0151730Y0396170D01*
X0143860Y0396170D01*
X0143350Y0396210D01*
X0141890Y0398140D01*
X0141890Y0400110D01*
X0120240Y0421760D01*
X0130080Y0431600D01*
X0130240Y0430970D01*
X0130080Y0435540D02*
X0130240Y0436170D01*
X0132050Y0435540D01*
X0139920Y0435540D01*
X0141890Y0437510D01*
X0141890Y0439080D01*
X0130080Y0435540D02*
X0120240Y0445380D01*
X0106460Y0453260D02*
X0137950Y0453260D01*
X0163550Y0427670D01*
X0163550Y0419790D01*
X0130080Y0419790D01*
X0120240Y0421760D02*
X0118270Y0419790D01*
X0118270Y0390270D01*
X0117560Y0390150D01*
X0112440Y0390150D02*
X0112360Y0390270D01*
X0102520Y0390270D01*
X0102560Y0390150D01*
X0102520Y0382390D02*
X0102320Y0382390D01*
X0102520Y0382390D02*
X0104490Y0380420D01*
X0128110Y0380420D01*
X0128510Y0380170D01*
X0128110Y0382390D02*
X0128510Y0382730D01*
X0128110Y0382390D02*
X0124180Y0382390D01*
X0122210Y0384360D01*
X0128510Y0375050D02*
X0128110Y0374520D01*
X0106460Y0374520D01*
X0102520Y0370580D01*
X0102320Y0370580D01*
X0090710Y0360740D02*
X0090710Y0356800D01*
X0092680Y0354830D01*
X0112360Y0354830D01*
X0116300Y0350900D01*
X0153700Y0350900D01*
X0155670Y0352860D01*
X0155670Y0360740D01*
X0153700Y0362710D01*
X0151730Y0362710D01*
X0151490Y0362250D01*
X0151730Y0364670D02*
X0151490Y0364810D01*
X0151730Y0364670D02*
X0155670Y0364670D01*
X0155670Y0372550D01*
X0151730Y0372550D01*
X0151490Y0372490D01*
X0151730Y0372550D02*
X0151730Y0374520D01*
X0151490Y0375050D01*
X0155670Y0372550D02*
X0155670Y0378450D01*
X0157640Y0378450D01*
X0163550Y0384360D01*
X0173390Y0394200D01*
X0163550Y0390270D02*
X0163550Y0419790D01*
X0179290Y0429640D02*
X0179290Y0404040D01*
X0195040Y0400110D02*
X0208820Y0413890D01*
X0208820Y0449320D01*
X0204880Y0453260D01*
X0203800Y0453810D01*
X0210790Y0453260D02*
X0222600Y0465070D01*
X0223030Y0465150D01*
X0224570Y0465070D01*
X0228510Y0461130D01*
X0228510Y0453260D01*
X0226540Y0451290D01*
X0224570Y0451290D01*
X0223800Y0451210D01*
X0220630Y0457190D02*
X0216700Y0453260D01*
X0216200Y0453810D01*
X0200950Y0443410D02*
X0200950Y0427670D01*
X0197010Y0423730D01*
X0187170Y0423730D01*
X0186180Y0423770D01*
X0186180Y0428770D02*
X0187170Y0429640D01*
X0197010Y0429640D01*
X0186180Y0433770D02*
X0185200Y0433570D01*
X0183230Y0433570D01*
X0179290Y0429640D01*
X0193070Y0451290D02*
X0191100Y0453260D01*
X0191100Y0465070D01*
X0193030Y0465150D01*
X0191100Y0465070D02*
X0185200Y0465070D01*
X0185000Y0464790D01*
X0193070Y0451290D02*
X0195040Y0451290D01*
X0196200Y0451210D01*
X0223820Y0433770D02*
X0224570Y0433570D01*
X0234410Y0433570D01*
X0260000Y0459160D01*
X0260910Y0460300D01*
X0260000Y0455230D02*
X0265910Y0455230D01*
X0260000Y0455230D02*
X0234410Y0429640D01*
X0224570Y0429640D01*
X0223820Y0428770D01*
X0223820Y0423770D02*
X0224570Y0423730D01*
X0234410Y0423730D01*
X0260000Y0449320D01*
X0260910Y0450300D01*
X0260910Y0440300D02*
X0260000Y0439480D01*
X0254100Y0439480D01*
X0228510Y0413890D01*
X0224570Y0413890D01*
X0223820Y0413770D01*
X0222600Y0417820D02*
X0223820Y0418770D01*
X0222600Y0417820D02*
X0216700Y0417820D01*
X0222600Y0407980D02*
X0223820Y0408770D01*
X0222600Y0407980D02*
X0216700Y0407980D01*
X0223820Y0403770D02*
X0224570Y0404040D01*
X0230470Y0404040D01*
X0236380Y0404040D02*
X0236380Y0400110D01*
X0234770Y0399520D01*
X0239770Y0399520D02*
X0240320Y0400110D01*
X0240320Y0404040D01*
X0242290Y0404040D01*
X0240320Y0404040D02*
X0240320Y0409950D01*
X0239770Y0409400D01*
X0236380Y0409950D02*
X0234770Y0409400D01*
X0236380Y0409950D02*
X0236380Y0404040D01*
X0244770Y0399520D02*
X0246220Y0400110D01*
X0246220Y0404040D01*
X0248190Y0404040D01*
X0246220Y0404040D02*
X0246220Y0409950D01*
X0244770Y0409400D01*
X0254100Y0402080D02*
X0261970Y0409950D01*
X0260910Y0410300D01*
X0252130Y0419790D02*
X0258030Y0425700D01*
X0265910Y0425700D01*
X0269840Y0429640D01*
X0270910Y0430300D01*
X0261970Y0435540D02*
X0265910Y0439480D01*
X0261970Y0435540D02*
X0256070Y0435540D01*
X0240320Y0419790D01*
X0246220Y0419790D02*
X0256070Y0429640D01*
X0260000Y0429640D01*
X0260910Y0430300D01*
X0238350Y0447350D02*
X0230470Y0439480D01*
X0232440Y0465070D02*
X0232440Y0471210D01*
X0232440Y0476210D02*
X0232440Y0476880D01*
X0240320Y0484750D01*
X0246220Y0484750D01*
X0260000Y0470970D01*
X0260910Y0470300D01*
X0242290Y0476880D02*
X0238350Y0476880D01*
X0237560Y0476210D01*
X0230470Y0488690D02*
X0175360Y0488690D01*
X0179730Y0496210D02*
X0181260Y0496560D01*
X0181260Y0526090D01*
X0179920Y0527390D01*
X0181260Y0526090D02*
X0197010Y0526090D01*
X0196300Y0525810D01*
X0202920Y0535930D02*
X0203700Y0536610D01*
X0202920Y0537900D01*
X0202920Y0545780D01*
X0203350Y0546210D01*
X0202920Y0535930D02*
X0210790Y0528060D01*
X0210790Y0524120D01*
X0218660Y0516250D01*
X0242290Y0516250D01*
X0246220Y0512310D01*
X0247990Y0511210D01*
X0236180Y0511210D02*
X0234410Y0510340D01*
X0220280Y0496210D01*
X0155000Y0522860D02*
X0153700Y0522150D01*
X0145830Y0522150D01*
X0145000Y0522860D01*
X0143860Y0522150D01*
X0132050Y0522150D01*
X0132050Y0533970D01*
X0131410Y0533710D01*
X0132050Y0522150D02*
X0126140Y0522150D01*
X0124610Y0520270D01*
X0124180Y0520190D01*
X0122210Y0518220D01*
X0122210Y0490660D01*
X0122800Y0490660D01*
X0122210Y0490660D02*
X0122210Y0484750D01*
X0122800Y0484750D01*
X0122210Y0484750D02*
X0122210Y0478850D01*
X0122800Y0478850D01*
X0122210Y0478850D02*
X0122210Y0476880D01*
X0104490Y0459160D01*
X0102520Y0459160D01*
X0102520Y0437510D01*
X0110400Y0429640D01*
X0110400Y0429830D01*
X0112360Y0427670D01*
X0092680Y0407980D01*
X0086770Y0407980D01*
X0085000Y0406210D01*
X0084810Y0406010D01*
X0076930Y0406010D01*
X0075000Y0406210D01*
X0067090Y0407980D02*
X0055280Y0419790D01*
X0053820Y0420300D01*
X0049370Y0425700D02*
X0051340Y0427670D01*
X0069060Y0427670D01*
X0070300Y0428710D01*
X0070300Y0423710D02*
X0071030Y0423730D01*
X0074960Y0423730D01*
X0076930Y0425700D01*
X0076930Y0429640D02*
X0072990Y0433570D01*
X0065120Y0433570D01*
X0049370Y0449320D01*
X0049370Y0431600D01*
X0043470Y0425700D01*
X0043470Y0421760D01*
X0042010Y0420300D01*
X0042010Y0432120D02*
X0041500Y0433570D01*
X0037560Y0437510D01*
X0037560Y0469010D01*
X0041500Y0472940D01*
X0041500Y0476880D01*
X0042010Y0477120D01*
X0042010Y0465300D02*
X0043470Y0465070D01*
X0043470Y0455230D01*
X0049370Y0449320D01*
X0055280Y0449320D02*
X0067090Y0437510D01*
X0076930Y0435540D02*
X0076930Y0445380D01*
X0072990Y0449320D01*
X0070300Y0448710D01*
X0071030Y0449320D01*
X0071030Y0451290D01*
X0072990Y0449320D01*
X0082840Y0459160D01*
X0082840Y0476880D01*
X0083660Y0477080D01*
X0082840Y0478850D01*
X0082840Y0482780D01*
X0055280Y0510340D01*
X0053820Y0510300D01*
X0047400Y0508380D02*
X0047400Y0516250D01*
X0043470Y0520190D01*
X0042010Y0522120D01*
X0053820Y0522120D02*
X0055280Y0520190D01*
X0063150Y0512310D01*
X0065000Y0511210D01*
X0061180Y0494600D02*
X0047400Y0508380D01*
X0061180Y0494600D02*
X0061180Y0474910D01*
X0069060Y0467040D01*
X0069060Y0463100D01*
X0069060Y0459160D02*
X0063150Y0459160D01*
X0069060Y0459160D02*
X0070300Y0458710D01*
X0070300Y0453710D02*
X0071030Y0453260D01*
X0071030Y0451290D01*
X0082840Y0449320D02*
X0088740Y0449320D01*
X0089700Y0448710D01*
X0090710Y0449320D01*
X0090710Y0443410D01*
X0089700Y0443710D01*
X0088740Y0443410D01*
X0082840Y0437510D01*
X0082840Y0433570D01*
X0088740Y0429640D02*
X0076930Y0429640D01*
X0071030Y0423730D02*
X0071030Y0419790D01*
X0070300Y0418710D01*
X0082840Y0423730D02*
X0088740Y0423730D01*
X0089700Y0423710D01*
X0090710Y0419790D02*
X0089700Y0418710D01*
X0090710Y0417820D01*
X0090710Y0413890D01*
X0089700Y0413710D01*
X0090710Y0419790D02*
X0096620Y0419790D01*
X0089700Y0428710D02*
X0090710Y0429640D01*
X0104490Y0429640D01*
X0110400Y0429640D02*
X0112360Y0427670D01*
X0118270Y0421760D01*
X0118270Y0419790D01*
X0112360Y0404040D02*
X0111850Y0404080D01*
X0112360Y0404040D02*
X0114330Y0402080D01*
X0114330Y0396170D01*
X0104370Y0404080D02*
X0102520Y0404040D01*
X0096620Y0404040D01*
X0069060Y0376490D01*
X0074960Y0370580D01*
X0075000Y0369360D01*
X0076930Y0374520D02*
X0075000Y0376210D01*
X0076930Y0374520D02*
X0090710Y0360740D01*
X0102320Y0348930D02*
X0104490Y0348930D01*
X0106460Y0350900D01*
X0110400Y0350900D01*
X0120240Y0341050D01*
X0112950Y0341050D01*
X0112360Y0341050D01*
X0108430Y0341050D02*
X0107840Y0341050D01*
X0099180Y0341050D01*
X0098580Y0341050D01*
X0108430Y0341050D02*
X0108430Y0346960D01*
X0120240Y0341050D02*
X0159610Y0341050D01*
X0159610Y0360740D01*
X0155670Y0364670D01*
X0163550Y0372550D02*
X0175360Y0372550D01*
X0185200Y0362710D01*
X0242290Y0362710D01*
X0248190Y0368610D01*
X0249960Y0369240D01*
X0244250Y0368610D02*
X0244250Y0372550D01*
X0261970Y0390270D01*
X0261970Y0396170D02*
X0242290Y0376490D01*
X0244250Y0368610D02*
X0240320Y0364670D01*
X0218660Y0364670D01*
X0198980Y0384360D01*
X0186180Y0373770D02*
X0185200Y0372550D01*
X0183230Y0372550D01*
X0179290Y0376490D01*
X0157640Y0384360D02*
X0155670Y0382390D01*
X0151730Y0382390D01*
X0151490Y0382730D01*
X0151730Y0380420D02*
X0151490Y0380170D01*
X0151730Y0380420D02*
X0153700Y0380420D01*
X0155670Y0378450D01*
X0128510Y0372490D02*
X0128110Y0372550D01*
X0124180Y0372550D01*
X0122210Y0370580D01*
X0118270Y0364670D02*
X0118270Y0364480D01*
X0118270Y0364670D02*
X0128110Y0364670D01*
X0128510Y0364810D01*
X0128110Y0362710D02*
X0126140Y0362710D01*
X0124180Y0360740D01*
X0124180Y0354830D01*
X0128510Y0362250D02*
X0128110Y0362710D01*
X0159610Y0341050D02*
X0165710Y0341050D01*
X0223820Y0368770D02*
X0224570Y0368610D01*
X0226540Y0368610D01*
X0248190Y0390270D01*
X0242290Y0390270D02*
X0242290Y0388300D01*
X0228510Y0374520D01*
X0224570Y0374520D01*
X0223820Y0373770D01*
X0224570Y0378450D02*
X0223820Y0378770D01*
X0224570Y0378450D02*
X0226540Y0378450D01*
X0236380Y0388300D01*
X0223820Y0398770D02*
X0222600Y0398140D01*
X0212760Y0398140D01*
X0118270Y0478850D02*
X0117680Y0478850D01*
X0107050Y0478850D01*
X0106460Y0478850D01*
X0106460Y0484750D02*
X0107050Y0484750D01*
X0112360Y0484750D01*
X0117680Y0484750D01*
X0118270Y0484750D01*
X0118270Y0490660D02*
X0117680Y0490660D01*
X0107050Y0490660D01*
X0106460Y0490660D01*
X0118270Y0490660D02*
X0118270Y0496560D01*
X0126140Y0504440D02*
X0137950Y0492630D01*
X0138500Y0492810D01*
X0137950Y0490660D02*
X0138500Y0490310D01*
X0137950Y0490660D02*
X0128110Y0490660D01*
X0102520Y0459160D02*
X0090710Y0459160D01*
X0089700Y0458710D01*
X0089700Y0453710D02*
X0090710Y0453260D01*
X0098580Y0453260D01*
X0088740Y0429640D02*
X0089700Y0428710D01*
X0055280Y0449320D02*
X0055280Y0465070D01*
X0053820Y0465300D01*
X0065120Y0490660D02*
X0066260Y0490460D01*
X0065120Y0490660D02*
X0061180Y0494600D01*
X0050950Y0401090D02*
X0051340Y0400110D01*
X0051340Y0394200D01*
X0069060Y0376490D01*
D78*
X0067090Y0407980D03*
X0082840Y0423730D03*
X0076930Y0425700D03*
X0082840Y0433570D03*
X0076930Y0435540D03*
X0067090Y0437510D03*
X0082840Y0449320D03*
X0098580Y0453260D03*
X0106460Y0453260D03*
X0120240Y0445380D03*
X0104490Y0429640D03*
X0096620Y0419790D03*
X0114330Y0396170D03*
X0122210Y0384360D03*
X0122210Y0370580D03*
X0124180Y0354830D03*
X0108430Y0346960D03*
X0155670Y0352860D03*
X0163550Y0372550D03*
X0169450Y0384360D03*
X0163550Y0390270D03*
X0157640Y0384360D03*
X0179290Y0376490D03*
X0198980Y0384360D03*
X0198980Y0390270D03*
X0204880Y0396170D03*
X0212760Y0398140D03*
X0216700Y0407980D03*
X0216700Y0417820D03*
X0230470Y0404040D03*
X0236380Y0404040D03*
X0242290Y0404040D03*
X0248190Y0404040D03*
X0254100Y0402080D03*
X0248190Y0390270D03*
X0242290Y0390270D03*
X0236380Y0388300D03*
X0242290Y0376490D03*
X0261970Y0390270D03*
X0252130Y0419790D03*
X0246220Y0419790D03*
X0240320Y0419790D03*
X0230470Y0439480D03*
X0238350Y0447350D03*
X0220630Y0457190D03*
X0210790Y0453260D03*
X0200950Y0443410D03*
X0197010Y0429640D03*
X0179290Y0404040D03*
X0179290Y0398140D03*
X0130080Y0419790D03*
X0069060Y0463100D03*
X0063150Y0459160D03*
X0049370Y0425700D03*
X0112360Y0484750D03*
X0118270Y0496560D03*
X0126140Y0504440D03*
X0128110Y0490660D03*
X0104490Y0545780D03*
X0094650Y0553650D03*
X0230470Y0488690D03*
X0242290Y0476880D03*
X0242290Y0465070D03*
X0232440Y0465070D03*
X0010000Y0567770D02*
G75*
%LPD*%
D54*
X0078500Y0646170D03*
X0078500Y0648670D03*
X0078500Y0651270D03*
X0078500Y0653770D03*
X0078500Y0656370D03*
X0078500Y0658970D03*
X0078500Y0661470D03*
X0078500Y0664070D03*
X0078500Y0666570D03*
X0078500Y0669170D03*
X0078500Y0671770D03*
X0078500Y0674270D03*
X0078500Y0676870D03*
X0078500Y0679370D03*
X0101500Y0679370D03*
X0101500Y0676870D03*
X0101500Y0674270D03*
X0101500Y0671770D03*
X0101500Y0669170D03*
X0101500Y0666570D03*
X0101500Y0664070D03*
X0101500Y0661470D03*
X0101500Y0658970D03*
X0101500Y0656370D03*
X0101500Y0653770D03*
X0101500Y0651270D03*
X0101500Y0648670D03*
X0101500Y0646170D03*
D24*
X0144600Y0646470D03*
X0144600Y0642770D03*
X0144600Y0639070D03*
X0155400Y0639070D03*
X0155400Y0646470D03*
X0155400Y0684070D03*
X0144600Y0684070D03*
X0144600Y0687770D03*
X0144600Y0691470D03*
X0155400Y0691470D03*
X0155400Y0596470D03*
X0144600Y0596470D03*
X0144600Y0592770D03*
X0144600Y0589070D03*
X0155400Y0589070D03*
D116*
X0179720Y0597770D03*
X0220280Y0597770D03*
X0220280Y0642770D03*
X0179720Y0642770D03*
X0179720Y0687770D03*
X0220280Y0687770D03*
D27*
X0165000Y0684420D03*
X0165000Y0691120D03*
X0165000Y0646120D03*
X0165000Y0639420D03*
X0165000Y0596120D03*
X0165000Y0589420D03*
X0063350Y0667770D03*
X0056650Y0667770D03*
X0053350Y0697770D03*
X0046650Y0697770D03*
D29*
X0120000Y0690970D03*
X0120000Y0684570D03*
X0120000Y0645970D03*
X0120000Y0639570D03*
X0125000Y0595970D03*
X0125000Y0589570D03*
D107*
X0094700Y0590270D03*
X0094700Y0595270D03*
X0094700Y0600270D03*
X0094700Y0605270D03*
X0075300Y0605270D03*
X0075300Y0600270D03*
X0075300Y0595270D03*
X0075300Y0590270D03*
D63*
X0059800Y0596470D03*
X0059800Y0579460D03*
D98*
X0031300Y0582570D03*
X0048310Y0582570D03*
D19*
X0045500Y0660270D03*
X0045500Y0665270D03*
X0045500Y0670270D03*
X0045500Y0675270D03*
X0024500Y0675270D03*
X0024500Y0670270D03*
X0024500Y0665270D03*
X0024500Y0660270D03*
D95*
X0035000Y0667770D03*
D12*
X0035510Y0697770D03*
X0024490Y0697770D03*
D50*
X0041650Y0682770D03*
X0048350Y0682770D03*
X0061650Y0682770D03*
X0068350Y0682770D03*
D111*
X0063350Y0657770D03*
X0056650Y0657770D03*
D42*
X0060000Y0637770D03*
X0020000Y0637770D03*
D105*
X0070000Y0627770D03*
X0070000Y0617770D03*
X0100000Y0617770D03*
X0100000Y0627770D03*
D56*
X0047010Y0606860D03*
X0247990Y0654580D03*
D48*
X0236180Y0654580D03*
X0236180Y0642770D03*
X0247990Y0642770D03*
X0247990Y0630960D03*
X0236180Y0630960D03*
X0058820Y0618680D03*
X0047010Y0618680D03*
X0058820Y0606860D03*
D93*
X0124330Y0612690D03*
X0148820Y0612690D03*
X0143820Y0667690D03*
X0119330Y0667690D03*
X0119330Y0712690D03*
X0143820Y0712690D03*
D83*
X0097560Y0702770D03*
X0092440Y0702770D03*
X0092440Y0697770D03*
X0097560Y0697770D03*
X0097560Y0692770D03*
X0092440Y0692770D03*
X0082560Y0692770D03*
X0077440Y0692770D03*
X0077440Y0697770D03*
X0082560Y0697770D03*
X0082560Y0702770D03*
X0077440Y0702770D03*
D119*
X0076930Y0703600D01*
X0080870Y0707530D01*
X0098580Y0707530D01*
X0114330Y0691790D01*
X0114330Y0685880D01*
X0118270Y0685880D01*
X0120000Y0684570D01*
X0118270Y0683910D01*
X0118270Y0679970D01*
X0110390Y0672100D01*
X0110390Y0648480D01*
X0118270Y0640600D01*
X0120000Y0639570D01*
X0118270Y0638640D01*
X0118270Y0595330D01*
X0110390Y0587460D01*
X0088740Y0587460D01*
X0086770Y0589420D01*
X0076930Y0589420D01*
X0075300Y0590270D01*
X0074960Y0589420D01*
X0051340Y0589420D01*
X0051340Y0620920D01*
X0035590Y0636670D01*
X0035590Y0666200D01*
X0035000Y0667770D01*
X0033620Y0666200D01*
X0025750Y0666200D01*
X0024500Y0665270D01*
X0024500Y0675270D02*
X0025750Y0676040D01*
X0025750Y0681940D01*
X0041650Y0682770D02*
X0043460Y0683910D01*
X0043460Y0687850D01*
X0048350Y0682770D02*
X0049370Y0683910D01*
X0049370Y0693750D01*
X0039530Y0693750D01*
X0035510Y0697770D01*
X0041500Y0697690D02*
X0045430Y0697690D01*
X0046650Y0697770D01*
X0049370Y0693750D02*
X0053310Y0697690D01*
X0053350Y0697770D01*
X0055280Y0697690D01*
X0076930Y0697690D01*
X0077440Y0697770D01*
X0076930Y0697690D02*
X0076930Y0701630D01*
X0077440Y0702770D01*
X0082560Y0702770D02*
X0082830Y0703600D01*
X0086770Y0703600D01*
X0092680Y0703600D01*
X0092440Y0702770D01*
X0097560Y0702770D02*
X0098580Y0701630D01*
X0098580Y0697690D01*
X0097560Y0697770D01*
X0098580Y0697690D02*
X0098580Y0693750D01*
X0097560Y0692770D01*
X0098580Y0691790D01*
X0100550Y0689820D01*
X0100550Y0681940D01*
X0090710Y0681940D01*
X0086770Y0685880D01*
X0071020Y0685880D01*
X0069060Y0683910D01*
X0068350Y0682770D01*
X0067090Y0681940D01*
X0057240Y0672100D01*
X0057240Y0668160D01*
X0056650Y0667770D01*
X0057240Y0666200D01*
X0057240Y0660290D01*
X0056650Y0657770D01*
X0057240Y0656350D01*
X0084800Y0628790D01*
X0098580Y0628790D01*
X0100000Y0627770D01*
X0100550Y0626830D01*
X0100550Y0618950D01*
X0100000Y0617770D01*
X0098580Y0616980D01*
X0096610Y0615010D01*
X0096610Y0605170D01*
X0094700Y0605270D01*
X0094650Y0601230D02*
X0094700Y0600270D01*
X0094650Y0601230D02*
X0086770Y0601230D01*
X0082830Y0595330D02*
X0094650Y0595330D01*
X0094700Y0595270D01*
X0096610Y0595330D01*
X0096610Y0589420D01*
X0094700Y0590270D01*
X0076930Y0595330D02*
X0075300Y0595270D01*
X0074960Y0595330D01*
X0061180Y0595330D01*
X0059800Y0596470D01*
X0059210Y0597300D01*
X0059210Y0605170D01*
X0058820Y0606860D01*
X0047400Y0605170D02*
X0047010Y0606860D01*
X0047400Y0605170D02*
X0047400Y0591390D01*
X0049370Y0589420D01*
X0051340Y0589420D01*
X0049370Y0589420D02*
X0059210Y0579580D01*
X0059800Y0579460D01*
X0048310Y0582570D02*
X0047400Y0583520D01*
X0047400Y0591390D01*
X0031650Y0595330D02*
X0031650Y0583520D01*
X0031300Y0582570D01*
X0031650Y0595330D02*
X0031650Y0599270D01*
X0041500Y0609110D01*
X0041500Y0613050D01*
X0045430Y0616980D01*
X0047010Y0618680D01*
X0070000Y0617770D02*
X0071020Y0616980D01*
X0074960Y0613050D01*
X0074960Y0605170D01*
X0075300Y0605270D01*
X0075300Y0600270D02*
X0076930Y0599270D01*
X0076930Y0595330D01*
X0118270Y0595330D02*
X0124170Y0589420D01*
X0125000Y0589570D01*
X0126140Y0589420D01*
X0130080Y0593360D01*
X0143860Y0593360D01*
X0144600Y0592770D01*
X0145830Y0597300D02*
X0149760Y0593360D01*
X0149760Y0587460D01*
X0151730Y0585490D01*
X0173390Y0585490D01*
X0179290Y0591390D01*
X0179290Y0597300D01*
X0179720Y0597770D01*
X0179290Y0599270D01*
X0167480Y0611080D01*
X0149760Y0611080D01*
X0148820Y0612690D01*
X0145830Y0597300D02*
X0144600Y0596470D01*
X0155400Y0589070D02*
X0155670Y0589420D01*
X0165000Y0589420D01*
X0171420Y0589420D01*
X0220280Y0597770D02*
X0220630Y0599270D01*
X0220630Y0616980D01*
X0234410Y0630760D01*
X0236180Y0630960D01*
X0234410Y0636670D02*
X0240310Y0636670D01*
X0246220Y0642570D01*
X0247990Y0642770D01*
X0234410Y0636670D02*
X0228500Y0642570D01*
X0220630Y0642570D01*
X0220280Y0642770D01*
X0236180Y0654580D02*
X0220630Y0670130D01*
X0220630Y0685880D01*
X0220280Y0687770D01*
X0179720Y0687770D02*
X0179290Y0687850D01*
X0175350Y0687850D01*
X0151730Y0711470D01*
X0143860Y0711470D01*
X0143820Y0712690D01*
X0141890Y0711470D01*
X0137950Y0707530D01*
X0139920Y0691790D02*
X0137950Y0689820D01*
X0139920Y0691790D02*
X0143860Y0691790D01*
X0144600Y0691470D01*
X0143860Y0687850D02*
X0144600Y0687770D01*
X0143860Y0687850D02*
X0141890Y0687850D01*
X0139920Y0685880D01*
X0134020Y0685880D01*
X0139920Y0679970D02*
X0143860Y0683910D01*
X0144600Y0684070D01*
X0155400Y0684070D02*
X0155670Y0683910D01*
X0163540Y0683910D01*
X0165000Y0684420D01*
X0200940Y0648480D01*
X0179720Y0642770D02*
X0179290Y0644540D01*
X0173390Y0644540D01*
X0151730Y0666200D01*
X0143860Y0666200D01*
X0143820Y0667690D01*
X0141890Y0666200D01*
X0137950Y0662260D01*
X0139920Y0646510D02*
X0137950Y0644540D01*
X0139920Y0646510D02*
X0143860Y0646510D01*
X0144600Y0646470D01*
X0144600Y0642770D02*
X0143860Y0642570D01*
X0141890Y0642570D01*
X0139920Y0640600D01*
X0120240Y0640600D01*
X0120000Y0639570D01*
X0106460Y0634700D02*
X0088740Y0652420D01*
X0088740Y0664230D01*
X0086770Y0666200D01*
X0078900Y0666200D01*
X0078500Y0666570D01*
X0078900Y0664230D02*
X0078500Y0664070D01*
X0078900Y0664230D02*
X0082830Y0664230D01*
X0084800Y0662260D01*
X0078500Y0671770D02*
X0076930Y0672100D01*
X0063150Y0658320D01*
X0063350Y0657770D01*
X0065120Y0656350D01*
X0074960Y0646510D01*
X0076930Y0646510D01*
X0078500Y0646170D01*
X0057240Y0658320D02*
X0056650Y0657770D01*
X0057240Y0658320D02*
X0057240Y0660290D01*
X0047400Y0660290D01*
X0045500Y0660270D01*
X0045500Y0665270D02*
X0047400Y0666200D01*
X0049370Y0666200D01*
X0051340Y0668160D01*
X0051340Y0672100D01*
X0061180Y0681940D01*
X0061650Y0682770D01*
X0061180Y0683910D01*
X0057240Y0687850D01*
X0076930Y0693750D02*
X0077440Y0692770D01*
X0076930Y0693750D02*
X0076930Y0697690D01*
X0082560Y0697770D02*
X0082830Y0697690D01*
X0092680Y0697690D01*
X0092440Y0697770D01*
X0092680Y0693750D02*
X0086770Y0693750D01*
X0094650Y0685880D01*
X0100550Y0681940D02*
X0100550Y0679970D01*
X0101500Y0679370D01*
X0101500Y0674270D02*
X0102520Y0674070D01*
X0106460Y0674070D01*
X0108430Y0676040D01*
X0110390Y0672100D02*
X0102520Y0672100D01*
X0101500Y0671770D01*
X0100550Y0672100D01*
X0078900Y0672100D01*
X0078500Y0671770D01*
X0078900Y0674070D02*
X0078500Y0674270D01*
X0078900Y0674070D02*
X0082830Y0674070D01*
X0084800Y0676040D01*
X0078900Y0679970D02*
X0078500Y0679370D01*
X0078900Y0679970D02*
X0082830Y0679970D01*
X0084800Y0681940D01*
X0102520Y0672100D02*
X0102520Y0666200D01*
X0101500Y0666570D01*
X0065120Y0668160D02*
X0063350Y0667770D01*
X0065120Y0668160D02*
X0065120Y0674070D01*
X0082560Y0692770D02*
X0082830Y0693750D01*
X0086770Y0693750D01*
X0092440Y0692770D02*
X0092680Y0693750D01*
X0143860Y0638640D02*
X0144600Y0639070D01*
X0143860Y0638640D02*
X0139920Y0634700D01*
X0155400Y0639070D02*
X0155670Y0638640D01*
X0163540Y0638640D01*
X0165000Y0639420D01*
X0165510Y0638640D01*
X0169450Y0634700D01*
D78*
X0169450Y0634700D03*
X0139920Y0634700D03*
X0137950Y0644540D03*
X0137950Y0662260D03*
X0108430Y0676040D03*
X0114330Y0685880D03*
X0094650Y0685880D03*
X0084800Y0681940D03*
X0084800Y0676040D03*
X0065120Y0674070D03*
X0084800Y0662260D03*
X0057240Y0687850D03*
X0043460Y0687850D03*
X0041500Y0697690D03*
X0019840Y0683910D03*
X0025750Y0681940D03*
X0086770Y0703600D03*
X0134020Y0685880D03*
X0137950Y0689820D03*
X0139920Y0679970D03*
X0137950Y0707530D03*
X0200940Y0648480D03*
X0106460Y0634700D03*
X0086770Y0601230D03*
X0082830Y0595330D03*
X0031650Y0595330D03*
X0171420Y0589420D03*
D38*
X0165000Y0596120D02*
X0163540Y0597300D01*
X0155670Y0597300D02*
X0155670Y0601230D01*
X0149760Y0601230D02*
X0124170Y0601230D01*
X0124170Y0597300D01*
X0125000Y0595970D01*
X0124170Y0601230D02*
X0124170Y0611080D01*
X0124330Y0612690D01*
X0126140Y0613050D01*
X0149760Y0636670D01*
X0149760Y0648480D01*
X0150750Y0649460D01*
X0153700Y0646510D01*
X0155400Y0646470D01*
X0155670Y0646510D01*
X0150750Y0649460D02*
X0149760Y0650450D01*
X0128110Y0650450D01*
X0128110Y0695720D01*
X0149760Y0695720D01*
X0153700Y0691790D02*
X0155400Y0691470D01*
X0155670Y0691790D01*
X0155670Y0695720D01*
X0163540Y0691790D02*
X0165000Y0691120D01*
X0128110Y0695720D02*
X0120240Y0695720D01*
X0120240Y0691790D01*
X0120000Y0690970D01*
X0120240Y0695720D02*
X0120240Y0711470D01*
X0119330Y0712690D01*
X0118270Y0711470D01*
X0037560Y0711470D01*
X0025750Y0699660D01*
X0024490Y0697770D01*
X0025750Y0697690D01*
X0025750Y0689820D01*
X0019840Y0683910D01*
X0025750Y0689820D02*
X0039530Y0676040D01*
X0045430Y0676040D01*
X0045500Y0675270D01*
X0024500Y0660270D02*
X0023780Y0660290D01*
X0023780Y0640600D01*
X0021810Y0638640D01*
X0020000Y0637770D01*
X0059210Y0636670D02*
X0059210Y0618950D01*
X0058820Y0618680D01*
X0059210Y0636670D02*
X0060000Y0637770D01*
X0120000Y0645970D02*
X0120240Y0646510D01*
X0120240Y0650450D01*
X0128110Y0650450D01*
X0120240Y0650450D02*
X0120240Y0666200D01*
X0119330Y0667690D01*
X0163540Y0646510D02*
X0165000Y0646120D01*
X0155670Y0597300D02*
X0155400Y0596470D01*
X0153700Y0597300D01*
D100*
X0159880Y0601240D02*
X0160300Y0601220D01*
X0160720Y0601170D01*
X0161140Y0601080D01*
X0161540Y0600960D01*
X0161940Y0600810D01*
X0162320Y0600620D01*
X0162680Y0600410D01*
X0163020Y0600160D01*
X0163350Y0599890D01*
X0163650Y0599590D01*
X0163920Y0599260D01*
X0164170Y0598920D01*
X0164380Y0598560D01*
X0164570Y0598180D01*
X0164720Y0597780D01*
X0164840Y0597380D01*
X0164930Y0596960D01*
X0164980Y0596540D01*
X0165000Y0596120D01*
X0159880Y0601230D02*
X0155670Y0601230D01*
X0149760Y0601230D01*
X0163940Y0646120D02*
X0165000Y0646120D01*
X0163940Y0646120D02*
X0159610Y0650450D01*
X0151730Y0650450D01*
X0150750Y0649460D01*
X0165000Y0691120D02*
X0160390Y0695720D01*
X0155670Y0695720D01*
X0149760Y0695720D01*
M02*
