G75*
G70*
%OFA0B0*%
%FSLAX25Y25*%
%IPPOS*%
%LPD*%
%AMOC8*
5,1,8,0,0,1.08239X$1,22.5*
%
%ADD152C,0.00100*%
D152*
X0187210Y0156610D02*
X0195210Y0164610D01*
X0195210Y0156610D02*
X0187210Y0164610D01*
X0187210Y0160610D02*
X0195210Y0160610D01*
X0172910Y0157260D02*
X0180910Y0165260D01*
X0180910Y0157260D02*
X0172910Y0165260D01*
X0172910Y0161260D02*
X0180910Y0161260D01*
X0191050Y0192660D02*
X0199050Y0200660D01*
X0199050Y0192660D02*
X0191050Y0200660D01*
X0191050Y0196660D02*
X0199050Y0196660D01*
X0208250Y0179680D02*
X0216250Y0187680D01*
X0216250Y0179680D02*
X0208250Y0187680D01*
X0208250Y0183680D02*
X0216250Y0183680D01*
X0174410Y0218690D02*
X0182410Y0226690D01*
X0182410Y0218690D02*
X0174410Y0226690D01*
X0174410Y0222690D02*
X0182410Y0222690D01*
X0164520Y0232770D02*
X0172520Y0240770D01*
X0172520Y0232770D02*
X0164520Y0240770D01*
X0164520Y0236770D02*
X0172520Y0236770D01*
X0149000Y0215620D02*
X0157000Y0223620D01*
X0157000Y0215620D02*
X0149000Y0223620D01*
X0149000Y0219620D02*
X0157000Y0219620D01*
X0146530Y0177960D02*
X0154530Y0185960D01*
X0154530Y0177960D02*
X0146530Y0185960D01*
X0146530Y0181960D02*
X0154530Y0181960D01*
X0114830Y0171970D02*
X0122830Y0179970D01*
X0122830Y0171970D02*
X0114830Y0179970D01*
X0114830Y0175970D02*
X0122830Y0175970D01*
X0099590Y0174620D02*
X0107590Y0182620D01*
X0107590Y0174620D02*
X0099590Y0182620D01*
X0099590Y0178620D02*
X0107590Y0178620D01*
X0079530Y0240750D02*
X0087530Y0248750D01*
X0087530Y0240750D02*
X0079530Y0248750D01*
X0079530Y0244750D02*
X0087530Y0244750D01*
X0029300Y0340920D02*
X0037300Y0348920D01*
X0037300Y0340920D02*
X0029300Y0348920D01*
X0029300Y0344920D02*
X0037300Y0344920D01*
X0111840Y0096480D02*
X0119840Y0104480D01*
X0119840Y0096480D02*
X0111840Y0104480D01*
X0111840Y0100480D02*
X0119840Y0100480D01*
X0130190Y0051110D02*
X0138190Y0059110D01*
X0138190Y0051110D02*
X0130190Y0059110D01*
X0130190Y0055110D02*
X0138190Y0055110D01*
X0249340Y0215380D02*
X0257340Y0223380D01*
X0257340Y0215380D02*
X0249340Y0223380D01*
X0249340Y0219380D02*
X0257340Y0219380D01*
X0261820Y0207200D02*
X0269820Y0215200D01*
X0269820Y0207200D02*
X0261820Y0215200D01*
X0261820Y0211200D02*
X0269820Y0211200D01*
X0265970Y0201990D02*
X0273970Y0209990D01*
X0273970Y0201990D02*
X0265970Y0209990D01*
X0265970Y0205990D02*
X0273970Y0205990D01*
X0270890Y0201380D02*
X0278890Y0209380D01*
X0278890Y0201380D02*
X0270890Y0209380D01*
X0270890Y0205380D02*
X0278890Y0205380D01*
X0254520Y0187950D02*
X0262520Y0195950D01*
X0262520Y0187950D02*
X0254520Y0195950D01*
X0254520Y0191950D02*
X0262520Y0191950D01*
X0270900Y0169060D02*
X0278900Y0177060D01*
X0278900Y0169060D02*
X0270900Y0177060D01*
X0270900Y0173060D02*
X0278900Y0173060D01*
X0265290Y0223710D02*
X0273290Y0231710D01*
X0273290Y0223710D02*
X0265290Y0231710D01*
X0265290Y0227710D02*
X0273290Y0227710D01*
X0262610Y0243680D02*
X0270610Y0251680D01*
X0270610Y0243680D02*
X0262610Y0251680D01*
X0262610Y0247680D02*
X0270610Y0247680D01*
X0266200Y0256000D02*
X0274200Y0264000D01*
X0274200Y0256000D02*
X0266200Y0264000D01*
X0266200Y0260000D02*
X0274200Y0260000D01*
X0253120Y0238910D02*
X0261120Y0246910D01*
X0261120Y0238910D02*
X0253120Y0246910D01*
X0253120Y0242910D02*
X0261120Y0242910D01*
X0258000Y0277130D02*
X0266000Y0285130D01*
X0266000Y0277130D02*
X0258000Y0285130D01*
X0258000Y0281130D02*
X0266000Y0281130D01*
X0239010Y0290170D02*
X0247010Y0298170D01*
X0247010Y0290170D02*
X0239010Y0298170D01*
X0239010Y0294170D02*
X0247010Y0294170D01*
X0238230Y0298720D02*
X0246230Y0306720D01*
X0246230Y0298720D02*
X0238230Y0306720D01*
X0238230Y0302720D02*
X0246230Y0302720D01*
X0088500Y0467750D02*
X0096500Y0475750D01*
X0096500Y0467750D02*
X0088500Y0475750D01*
X0088500Y0471750D02*
X0096500Y0471750D01*
X0105290Y0471060D02*
X0113290Y0479060D01*
X0113290Y0471060D02*
X0105290Y0479060D01*
X0105290Y0475060D02*
X0113290Y0475060D01*
X0114530Y0458820D02*
X0122530Y0466820D01*
X0122530Y0458820D02*
X0114530Y0466820D01*
X0114530Y0462820D02*
X0122530Y0462820D01*
X0102360Y0452590D02*
X0110360Y0460590D01*
X0110360Y0452590D02*
X0102360Y0460590D01*
X0102360Y0456590D02*
X0110360Y0456590D01*
X0107400Y0446740D02*
X0115400Y0454740D01*
X0115400Y0446740D02*
X0107400Y0454740D01*
X0107400Y0450740D02*
X0115400Y0450740D01*
X0111670Y0440790D02*
X0119670Y0448790D01*
X0119670Y0440790D02*
X0111670Y0448790D01*
X0111670Y0444790D02*
X0119670Y0444790D01*
X0125800Y0441250D02*
X0133800Y0449250D01*
X0133800Y0441250D02*
X0125800Y0449250D01*
X0125800Y0445250D02*
X0133800Y0445250D01*
X0130200Y0435250D02*
X0138200Y0443250D01*
X0138200Y0435250D02*
X0130200Y0443250D01*
X0130200Y0439250D02*
X0138200Y0439250D01*
X0135200Y0446250D02*
X0143200Y0454250D01*
X0143200Y0446250D02*
X0135200Y0454250D01*
X0135200Y0450250D02*
X0143200Y0450250D01*
X0129000Y0452250D02*
X0137000Y0460250D01*
X0137000Y0452250D02*
X0129000Y0460250D01*
X0129000Y0456250D02*
X0137000Y0456250D01*
X0147460Y0447580D02*
X0155460Y0455580D01*
X0155460Y0447580D02*
X0147460Y0455580D01*
X0147460Y0451580D02*
X0155460Y0451580D01*
X0149950Y0454700D02*
X0157950Y0462700D01*
X0157950Y0454700D02*
X0149950Y0462700D01*
X0149950Y0458700D02*
X0157950Y0458700D01*
X0149260Y0461790D02*
X0157260Y0469790D01*
X0157260Y0461790D02*
X0149260Y0469790D01*
X0149260Y0465790D02*
X0157260Y0465790D01*
X0155410Y0472340D02*
X0163410Y0480340D01*
X0163410Y0472340D02*
X0155410Y0480340D01*
X0155410Y0476340D02*
X0163410Y0476340D01*
X0200940Y0506620D02*
X0208940Y0514620D01*
X0208940Y0506620D02*
X0200940Y0514620D01*
X0200940Y0510620D02*
X0208940Y0510620D01*
X0204860Y0503470D02*
X0212860Y0511470D01*
X0212860Y0503470D02*
X0204860Y0511470D01*
X0204860Y0507470D02*
X0212860Y0507470D01*
X0231720Y0516830D02*
X0239720Y0524830D01*
X0239720Y0516830D02*
X0231720Y0524830D01*
X0231720Y0520830D02*
X0239720Y0520830D01*
X0211990Y0531580D02*
X0219990Y0539580D01*
X0219990Y0531580D02*
X0211990Y0539580D01*
X0211990Y0535580D02*
X0219990Y0535580D01*
X0243100Y0543840D02*
X0251100Y0551840D01*
X0251100Y0543840D02*
X0243100Y0551840D01*
X0243100Y0547840D02*
X0251100Y0547840D01*
X0243020Y0549430D02*
X0251020Y0557430D01*
X0251020Y0549430D02*
X0243020Y0557430D01*
X0243020Y0553430D02*
X0251020Y0553430D01*
X0204920Y0606300D02*
X0212920Y0614300D01*
X0212920Y0606300D02*
X0204920Y0614300D01*
X0204920Y0610300D02*
X0212920Y0610300D01*
X0163460Y0560850D02*
X0171460Y0568850D01*
X0171460Y0560850D02*
X0163460Y0568850D01*
X0163460Y0564850D02*
X0171460Y0564850D01*
X0148190Y0550220D02*
X0156190Y0558220D01*
X0156190Y0550220D02*
X0148190Y0558220D01*
X0148190Y0554220D02*
X0156190Y0554220D01*
X0123000Y0561810D02*
X0131000Y0569810D01*
X0131000Y0561810D02*
X0123000Y0569810D01*
X0123000Y0565810D02*
X0131000Y0565810D01*
X0122530Y0571500D02*
X0130530Y0579500D01*
X0130530Y0571500D02*
X0122530Y0579500D01*
X0122530Y0575500D02*
X0130530Y0575500D01*
X0121840Y0589230D02*
X0129840Y0597230D01*
X0129840Y0589230D02*
X0121840Y0597230D01*
X0121840Y0593230D02*
X0129840Y0593230D01*
X0075530Y0571790D02*
X0083530Y0579790D01*
X0083530Y0571790D02*
X0075530Y0579790D01*
X0075530Y0575790D02*
X0083530Y0575790D01*
X0076230Y0507310D02*
X0084230Y0515310D01*
X0084230Y0507310D02*
X0076230Y0515310D01*
X0076230Y0511310D02*
X0084230Y0511310D01*
X0076230Y0488110D02*
X0084230Y0496110D01*
X0084230Y0488110D02*
X0076230Y0496110D01*
X0076230Y0492110D02*
X0084230Y0492110D01*
X0095480Y0425960D02*
X0103480Y0433960D01*
X0103480Y0425960D02*
X0095480Y0433960D01*
X0095480Y0429960D02*
X0103480Y0429960D01*
X0115080Y0426540D02*
X0123080Y0434540D01*
X0123080Y0426540D02*
X0115080Y0434540D01*
X0115080Y0430540D02*
X0123080Y0430540D01*
X0176530Y0435490D02*
X0184530Y0443490D01*
X0184530Y0435490D02*
X0176530Y0443490D01*
X0176530Y0439490D02*
X0184530Y0439490D01*
X0215900Y0472130D02*
X0223900Y0480130D01*
X0223900Y0472130D02*
X0215900Y0480130D01*
X0215900Y0476130D02*
X0223900Y0476130D01*
X0233840Y0462700D02*
X0241840Y0470700D01*
X0241840Y0462700D02*
X0233840Y0470700D01*
X0233840Y0466700D02*
X0241840Y0466700D01*
X0238500Y0465710D02*
X0246500Y0473710D01*
X0246500Y0465710D02*
X0238500Y0473710D01*
X0238500Y0469710D02*
X0246500Y0469710D01*
X0238500Y0480220D02*
X0246500Y0488220D01*
X0246500Y0480220D02*
X0238500Y0488220D01*
X0238500Y0484220D02*
X0246500Y0484220D01*
X0189830Y0739450D02*
X0197830Y0747450D01*
X0197830Y0739450D02*
X0189830Y0747450D01*
X0189830Y0743450D02*
X0197830Y0743450D01*
X0209100Y0753800D02*
X0217100Y0761800D01*
X0217100Y0753800D02*
X0209100Y0761800D01*
X0209100Y0757800D02*
X0217100Y0757800D01*
X0177670Y0770600D02*
X0185670Y0778600D01*
X0185670Y0770600D02*
X0177670Y0778600D01*
X0177670Y0774600D02*
X0185670Y0774600D01*
X0201440Y0778260D02*
X0209440Y0786260D01*
X0209440Y0778260D02*
X0201440Y0786260D01*
X0201440Y0782260D02*
X0209440Y0782260D01*
X0123500Y0796470D02*
X0131500Y0804470D01*
X0131500Y0796470D02*
X0123500Y0804470D01*
X0123500Y0800470D02*
X0131500Y0800470D01*
X0119100Y0782110D02*
X0127100Y0790110D01*
X0127100Y0782110D02*
X0119100Y0790110D01*
X0119100Y0786110D02*
X0127100Y0786110D01*
X0105160Y0782710D02*
X0113160Y0790710D01*
X0113160Y0782710D02*
X0105160Y0790710D01*
X0105160Y0786710D02*
X0113160Y0786710D01*
X0100940Y0794960D02*
X0108940Y0802960D01*
X0108940Y0794960D02*
X0100940Y0802960D01*
X0100940Y0798960D02*
X0108940Y0798960D01*
X0254000Y0072000D02*
X0250000Y0072000D01*
X0254000Y0072000D02*
X0258000Y0076000D01*
X0258000Y0068000D01*
X0254000Y0072000D01*
X0254000Y0082000D02*
X0250000Y0082000D01*
X0254000Y0082000D02*
X0258000Y0086000D01*
X0258000Y0078000D01*
X0254000Y0082000D01*
X0266000Y0082000D02*
X0262000Y0082000D01*
X0266000Y0082000D02*
X0270000Y0086000D01*
X0270000Y0078000D01*
X0266000Y0082000D01*
X0266000Y0072000D02*
X0262000Y0072000D01*
X0266000Y0072000D02*
X0270000Y0076000D01*
X0270000Y0068000D01*
X0266000Y0072000D01*
X0262000Y0145000D02*
X0258000Y0145000D01*
X0262000Y0145000D02*
X0266000Y0149000D01*
X0266000Y0141000D01*
X0262000Y0145000D01*
X0261000Y0154000D02*
X0257000Y0154000D01*
X0261000Y0154000D02*
X0265000Y0158000D01*
X0265000Y0150000D01*
X0261000Y0154000D01*
X0271000Y0154000D02*
X0267000Y0154000D01*
X0271000Y0154000D02*
X0275000Y0158000D01*
X0275000Y0150000D01*
X0271000Y0154000D01*
X0272000Y0145000D02*
X0268000Y0145000D01*
X0272000Y0145000D02*
X0276000Y0149000D01*
X0276000Y0141000D01*
X0272000Y0145000D01*
X0251000Y0145000D02*
X0247000Y0145000D01*
X0251000Y0145000D02*
X0255000Y0149000D01*
X0255000Y0141000D01*
X0251000Y0145000D01*
X0251000Y0155000D02*
X0247000Y0155000D01*
X0251000Y0155000D02*
X0255000Y0159000D01*
X0255000Y0151000D01*
X0251000Y0155000D01*
X0241000Y0155000D02*
X0237000Y0155000D01*
X0241000Y0155000D02*
X0245000Y0159000D01*
X0245000Y0151000D01*
X0241000Y0155000D01*
X0241000Y0145000D02*
X0237000Y0145000D01*
X0241000Y0145000D02*
X0245000Y0149000D01*
X0245000Y0141000D01*
X0241000Y0145000D01*
X0182000Y0171000D02*
X0178000Y0171000D01*
X0182000Y0171000D02*
X0186000Y0175000D01*
X0186000Y0167000D01*
X0182000Y0171000D01*
X0182000Y0181000D02*
X0178000Y0181000D01*
X0182000Y0181000D02*
X0186000Y0185000D01*
X0186000Y0177000D01*
X0182000Y0181000D01*
X0228000Y0252000D02*
X0224000Y0252000D01*
X0228000Y0252000D02*
X0232000Y0256000D01*
X0232000Y0248000D01*
X0228000Y0252000D01*
X0238000Y0252000D02*
X0234000Y0252000D01*
X0238000Y0252000D02*
X0242000Y0256000D01*
X0242000Y0248000D01*
X0238000Y0252000D01*
X0250000Y0315000D02*
X0246000Y0315000D01*
X0250000Y0315000D02*
X0254000Y0319000D01*
X0254000Y0311000D01*
X0250000Y0315000D01*
X0260000Y0315000D02*
X0256000Y0315000D01*
X0260000Y0315000D02*
X0264000Y0319000D01*
X0264000Y0311000D01*
X0260000Y0315000D01*
X0138500Y0312500D02*
X0134500Y0312500D01*
X0138500Y0312500D02*
X0142500Y0316500D01*
X0142500Y0308500D01*
X0138500Y0312500D01*
X0138500Y0297500D02*
X0134500Y0297500D01*
X0138500Y0297500D02*
X0142500Y0301500D01*
X0142500Y0293500D01*
X0138500Y0297500D01*
X0138500Y0267500D02*
X0134500Y0267500D01*
X0138500Y0267500D02*
X0142500Y0271500D01*
X0142500Y0263500D01*
X0138500Y0267500D01*
X0138500Y0342500D02*
X0134500Y0342500D01*
X0138500Y0342500D02*
X0142500Y0346500D01*
X0142500Y0338500D01*
X0138500Y0342500D01*
X0071000Y0340000D02*
X0067000Y0340000D01*
X0071000Y0340000D02*
X0075000Y0344000D01*
X0075000Y0336000D01*
X0071000Y0340000D01*
X0071000Y0310000D02*
X0067000Y0310000D01*
X0071000Y0310000D02*
X0075000Y0314000D01*
X0075000Y0306000D01*
X0071000Y0310000D01*
X0071000Y0297500D02*
X0067000Y0297500D01*
X0071000Y0297500D02*
X0075000Y0301500D01*
X0075000Y0293500D01*
X0071000Y0297500D01*
X0071000Y0267500D02*
X0067000Y0267500D01*
X0071000Y0267500D02*
X0075000Y0271500D01*
X0075000Y0263500D01*
X0071000Y0267500D01*
X0049000Y0132000D02*
X0045000Y0132000D01*
X0049000Y0132000D02*
X0053000Y0136000D01*
X0053000Y0128000D01*
X0049000Y0132000D01*
X0049000Y0102000D02*
X0045000Y0102000D01*
X0049000Y0102000D02*
X0053000Y0106000D01*
X0053000Y0098000D01*
X0049000Y0102000D01*
X0026000Y0104000D02*
X0022000Y0104000D01*
X0026000Y0104000D02*
X0030000Y0108000D01*
X0030000Y0100000D01*
X0026000Y0104000D01*
X0026000Y0114000D02*
X0022000Y0114000D01*
X0026000Y0114000D02*
X0030000Y0118000D01*
X0030000Y0110000D01*
X0026000Y0114000D01*
X0085000Y0056000D02*
X0081000Y0056000D01*
X0085000Y0056000D02*
X0089000Y0060000D01*
X0089000Y0052000D01*
X0085000Y0056000D01*
X0095000Y0056000D02*
X0091000Y0056000D01*
X0095000Y0056000D02*
X0099000Y0060000D01*
X0099000Y0052000D01*
X0095000Y0056000D01*
X0113500Y0050000D02*
X0109500Y0050000D01*
X0113500Y0050000D02*
X0117500Y0054000D01*
X0117500Y0046000D01*
X0113500Y0050000D01*
X0123500Y0050000D02*
X0119500Y0050000D01*
X0123500Y0050000D02*
X0127500Y0054000D01*
X0127500Y0046000D01*
X0123500Y0050000D01*
X0123500Y0070000D02*
X0119500Y0070000D01*
X0123500Y0070000D02*
X0127500Y0074000D01*
X0127500Y0066000D01*
X0123500Y0070000D01*
X0113500Y0070000D02*
X0109500Y0070000D01*
X0113500Y0070000D02*
X0117500Y0074000D01*
X0117500Y0066000D01*
X0113500Y0070000D01*
X0097000Y0108000D02*
X0093000Y0108000D01*
X0097000Y0108000D02*
X0101000Y0112000D01*
X0101000Y0104000D01*
X0097000Y0108000D01*
X0087000Y0108000D02*
X0083000Y0108000D01*
X0087000Y0108000D02*
X0091000Y0112000D01*
X0091000Y0104000D01*
X0087000Y0108000D01*
X0222250Y0351430D02*
X0218250Y0351430D01*
X0222250Y0351430D02*
X0226250Y0355430D01*
X0226250Y0347430D01*
X0222250Y0351430D01*
X0220090Y0381740D02*
X0216090Y0381740D01*
X0220090Y0381740D02*
X0224090Y0385740D01*
X0224090Y0377740D01*
X0220090Y0381740D01*
X0238000Y0394730D02*
X0234000Y0394730D01*
X0238000Y0394730D02*
X0242000Y0398730D01*
X0242000Y0390730D01*
X0238000Y0394730D01*
X0248430Y0369540D02*
X0244430Y0369540D01*
X0248430Y0369540D02*
X0252430Y0373540D01*
X0252430Y0365540D01*
X0248430Y0369540D01*
X0257880Y0364020D02*
X0253880Y0364020D01*
X0257880Y0364020D02*
X0261880Y0368020D01*
X0261880Y0360020D01*
X0257880Y0364020D01*
X0257750Y0063580D02*
X0253750Y0063580D01*
X0257750Y0063580D02*
X0261750Y0067580D01*
X0261750Y0059580D01*
X0257750Y0063580D01*
X0259910Y0033260D02*
X0255910Y0033260D01*
X0259910Y0033260D02*
X0263910Y0037260D01*
X0263910Y0029260D01*
X0259910Y0033260D01*
X0242000Y0020270D02*
X0238000Y0020270D01*
X0242000Y0020270D02*
X0246000Y0024270D01*
X0246000Y0016270D01*
X0242000Y0020270D01*
X0231570Y0045470D02*
X0227570Y0045470D01*
X0231570Y0045470D02*
X0235570Y0049470D01*
X0235570Y0041470D01*
X0231570Y0045470D01*
X0222120Y0050980D02*
X0218120Y0050980D01*
X0222120Y0050980D02*
X0226120Y0054980D01*
X0226120Y0046980D01*
X0222120Y0050980D01*
X0097500Y0504250D02*
X0093500Y0504250D01*
X0097500Y0504250D02*
X0101500Y0508250D01*
X0101500Y0500250D01*
X0097500Y0504250D01*
X0097500Y0519250D02*
X0093500Y0519250D01*
X0097500Y0519250D02*
X0101500Y0523250D01*
X0101500Y0515250D01*
X0097500Y0519250D01*
X0127500Y0519250D02*
X0123500Y0519250D01*
X0127500Y0519250D02*
X0131500Y0523250D01*
X0131500Y0515250D01*
X0127500Y0519250D01*
X0127500Y0504250D02*
X0123500Y0504250D01*
X0127500Y0504250D02*
X0131500Y0508250D01*
X0131500Y0500250D01*
X0127500Y0504250D01*
X0192500Y0544250D02*
X0188500Y0544250D01*
X0192500Y0544250D02*
X0196500Y0548250D01*
X0196500Y0540250D01*
X0192500Y0544250D01*
X0222500Y0544250D02*
X0218500Y0544250D01*
X0222500Y0544250D02*
X0226500Y0548250D01*
X0226500Y0540250D01*
X0222500Y0544250D01*
X0064070Y0443500D02*
X0060070Y0443500D01*
X0064070Y0443500D02*
X0068070Y0447500D01*
X0068070Y0439500D01*
X0064070Y0443500D01*
X0033760Y0441340D02*
X0029760Y0441340D01*
X0033760Y0441340D02*
X0037760Y0445340D01*
X0037760Y0437340D01*
X0033760Y0441340D01*
X0020760Y0459250D02*
X0016760Y0459250D01*
X0020760Y0459250D02*
X0024760Y0463250D01*
X0024760Y0455250D01*
X0020760Y0459250D01*
X0045960Y0469680D02*
X0041960Y0469680D01*
X0045960Y0469680D02*
X0049960Y0473680D01*
X0049960Y0465680D01*
X0045960Y0469680D01*
X0051470Y0479130D02*
X0047470Y0479130D01*
X0051470Y0479130D02*
X0055470Y0483130D01*
X0055470Y0475130D01*
X0051470Y0479130D01*
X0085000Y0715810D02*
X0081000Y0715810D01*
X0085000Y0715810D02*
X0089000Y0719810D01*
X0089000Y0711810D01*
X0085000Y0715810D01*
X0072500Y0715810D02*
X0068500Y0715810D01*
X0072500Y0715810D02*
X0076500Y0719810D01*
X0076500Y0711810D01*
X0072500Y0715810D01*
X0072500Y0685810D02*
X0068500Y0685810D01*
X0072500Y0685810D02*
X0076500Y0689810D01*
X0076500Y0681810D01*
X0072500Y0685810D01*
X0085000Y0685810D02*
X0081000Y0685810D01*
X0085000Y0685810D02*
X0089000Y0689810D01*
X0089000Y0681810D01*
X0085000Y0685810D01*
X0181780Y0369330D02*
X0185780Y0369330D01*
X0181780Y0369330D02*
X0177780Y0373330D01*
X0177780Y0365330D01*
X0181780Y0369330D01*
X0171940Y0369330D02*
X0175940Y0369330D01*
X0171940Y0369330D02*
X0167940Y0373330D01*
X0167940Y0365330D01*
X0171940Y0369330D01*
X0164060Y0369330D02*
X0168060Y0369330D01*
X0164060Y0369330D02*
X0160060Y0373330D01*
X0160060Y0365330D01*
X0164060Y0369330D01*
X0154220Y0369330D02*
X0158220Y0369330D01*
X0154220Y0369330D02*
X0150220Y0373330D01*
X0150220Y0365330D01*
X0154220Y0369330D01*
X0124500Y0120000D02*
X0128500Y0120000D01*
X0124500Y0120000D02*
X0120500Y0124000D01*
X0120500Y0116000D01*
X0124500Y0120000D01*
X0134500Y0120000D02*
X0138500Y0120000D01*
X0134500Y0120000D02*
X0130500Y0124000D01*
X0130500Y0116000D01*
X0134500Y0120000D01*
X0139000Y0034000D02*
X0143000Y0034000D01*
X0139000Y0034000D02*
X0135000Y0038000D01*
X0135000Y0030000D01*
X0139000Y0034000D01*
X0139000Y0024000D02*
X0143000Y0024000D01*
X0139000Y0024000D02*
X0135000Y0028000D01*
X0135000Y0020000D01*
X0139000Y0024000D01*
X0129000Y0024000D02*
X0133000Y0024000D01*
X0129000Y0024000D02*
X0125000Y0028000D01*
X0125000Y0020000D01*
X0129000Y0024000D01*
X0129000Y0034000D02*
X0133000Y0034000D01*
X0129000Y0034000D02*
X0125000Y0038000D01*
X0125000Y0030000D01*
X0129000Y0034000D01*
X0119000Y0034000D02*
X0123000Y0034000D01*
X0119000Y0034000D02*
X0115000Y0038000D01*
X0115000Y0030000D01*
X0119000Y0034000D01*
X0119000Y0024000D02*
X0123000Y0024000D01*
X0119000Y0024000D02*
X0115000Y0028000D01*
X0115000Y0020000D01*
X0119000Y0024000D01*
X0109000Y0024000D02*
X0113000Y0024000D01*
X0109000Y0024000D02*
X0105000Y0028000D01*
X0105000Y0020000D01*
X0109000Y0024000D01*
X0109000Y0034000D02*
X0113000Y0034000D01*
X0109000Y0034000D02*
X0105000Y0038000D01*
X0105000Y0030000D01*
X0109000Y0034000D01*
X0099000Y0034000D02*
X0103000Y0034000D01*
X0099000Y0034000D02*
X0095000Y0038000D01*
X0095000Y0030000D01*
X0099000Y0034000D01*
X0099000Y0024000D02*
X0103000Y0024000D01*
X0099000Y0024000D02*
X0095000Y0028000D01*
X0095000Y0020000D01*
X0099000Y0024000D01*
X0089000Y0024000D02*
X0093000Y0024000D01*
X0089000Y0024000D02*
X0085000Y0028000D01*
X0085000Y0020000D01*
X0089000Y0024000D01*
X0079000Y0024000D02*
X0083000Y0024000D01*
X0079000Y0024000D02*
X0075000Y0028000D01*
X0075000Y0020000D01*
X0079000Y0024000D01*
X0079000Y0034000D02*
X0083000Y0034000D01*
X0079000Y0034000D02*
X0075000Y0038000D01*
X0075000Y0030000D01*
X0079000Y0034000D01*
X0089000Y0034000D02*
X0093000Y0034000D01*
X0089000Y0034000D02*
X0085000Y0038000D01*
X0085000Y0030000D01*
X0089000Y0034000D01*
X0149000Y0034000D02*
X0153000Y0034000D01*
X0149000Y0034000D02*
X0145000Y0038000D01*
X0145000Y0030000D01*
X0149000Y0034000D01*
X0149000Y0024000D02*
X0153000Y0024000D01*
X0149000Y0024000D02*
X0145000Y0028000D01*
X0145000Y0020000D01*
X0149000Y0024000D01*
X0159000Y0024000D02*
X0163000Y0024000D01*
X0159000Y0024000D02*
X0155000Y0028000D01*
X0155000Y0020000D01*
X0159000Y0024000D01*
X0159000Y0034000D02*
X0163000Y0034000D01*
X0159000Y0034000D02*
X0155000Y0038000D01*
X0155000Y0030000D01*
X0159000Y0034000D01*
X0169000Y0034000D02*
X0173000Y0034000D01*
X0169000Y0034000D02*
X0165000Y0038000D01*
X0165000Y0030000D01*
X0169000Y0034000D01*
X0169000Y0024000D02*
X0173000Y0024000D01*
X0169000Y0024000D02*
X0165000Y0028000D01*
X0165000Y0020000D01*
X0169000Y0024000D01*
X0179000Y0024000D02*
X0183000Y0024000D01*
X0179000Y0024000D02*
X0175000Y0028000D01*
X0175000Y0020000D01*
X0179000Y0024000D01*
X0179000Y0034000D02*
X0183000Y0034000D01*
X0179000Y0034000D02*
X0175000Y0038000D01*
X0175000Y0030000D01*
X0179000Y0034000D01*
X0189000Y0034000D02*
X0193000Y0034000D01*
X0189000Y0034000D02*
X0185000Y0038000D01*
X0185000Y0030000D01*
X0189000Y0034000D01*
X0189000Y0024000D02*
X0193000Y0024000D01*
X0189000Y0024000D02*
X0185000Y0028000D01*
X0185000Y0020000D01*
X0189000Y0024000D01*
X0199000Y0024000D02*
X0203000Y0024000D01*
X0199000Y0024000D02*
X0195000Y0028000D01*
X0195000Y0020000D01*
X0199000Y0024000D01*
X0199000Y0034000D02*
X0203000Y0034000D01*
X0199000Y0034000D02*
X0195000Y0038000D01*
X0195000Y0030000D01*
X0199000Y0034000D01*
X0262500Y0544250D02*
X0266500Y0544250D01*
X0262500Y0544250D02*
X0258500Y0548250D01*
X0258500Y0540250D01*
X0262500Y0544250D01*
X0272500Y0544250D02*
X0276500Y0544250D01*
X0272500Y0544250D02*
X0268500Y0548250D01*
X0268500Y0540250D01*
X0272500Y0544250D01*
X0272500Y0534250D02*
X0276500Y0534250D01*
X0272500Y0534250D02*
X0268500Y0538250D01*
X0268500Y0530250D01*
X0272500Y0534250D01*
X0262500Y0534250D02*
X0266500Y0534250D01*
X0262500Y0534250D02*
X0258500Y0538250D01*
X0258500Y0530250D01*
X0262500Y0534250D01*
X0262500Y0524250D02*
X0266500Y0524250D01*
X0262500Y0524250D02*
X0258500Y0528250D01*
X0258500Y0520250D01*
X0262500Y0524250D01*
X0272500Y0524250D02*
X0276500Y0524250D01*
X0272500Y0524250D02*
X0268500Y0528250D01*
X0268500Y0520250D01*
X0272500Y0524250D01*
X0272500Y0514250D02*
X0276500Y0514250D01*
X0272500Y0514250D02*
X0268500Y0518250D01*
X0268500Y0510250D01*
X0272500Y0514250D01*
X0272500Y0504250D02*
X0276500Y0504250D01*
X0272500Y0504250D02*
X0268500Y0508250D01*
X0268500Y0500250D01*
X0272500Y0504250D01*
X0272500Y0494250D02*
X0276500Y0494250D01*
X0272500Y0494250D02*
X0268500Y0498250D01*
X0268500Y0490250D01*
X0272500Y0494250D01*
X0262500Y0494250D02*
X0266500Y0494250D01*
X0262500Y0494250D02*
X0258500Y0498250D01*
X0258500Y0490250D01*
X0262500Y0494250D01*
X0262500Y0504250D02*
X0266500Y0504250D01*
X0262500Y0504250D02*
X0258500Y0508250D01*
X0258500Y0500250D01*
X0262500Y0504250D01*
X0262500Y0514250D02*
X0266500Y0514250D01*
X0262500Y0514250D02*
X0258500Y0518250D01*
X0258500Y0510250D01*
X0262500Y0514250D01*
X0262500Y0484250D02*
X0266500Y0484250D01*
X0262500Y0484250D02*
X0258500Y0488250D01*
X0258500Y0480250D01*
X0262500Y0484250D01*
X0272500Y0484250D02*
X0276500Y0484250D01*
X0272500Y0484250D02*
X0268500Y0488250D01*
X0268500Y0480250D01*
X0272500Y0484250D01*
X0272500Y0554250D02*
X0276500Y0554250D01*
X0272500Y0554250D02*
X0268500Y0558250D01*
X0268500Y0550250D01*
X0272500Y0554250D01*
X0262500Y0554250D02*
X0266500Y0554250D01*
X0262500Y0554250D02*
X0258500Y0558250D01*
X0258500Y0550250D01*
X0262500Y0554250D01*
X0060000Y0098000D02*
X0068000Y0098000D01*
X0064000Y0094000D02*
X0064000Y0102000D01*
X0060100Y0098000D02*
X0060120Y0098390D01*
X0060180Y0098790D01*
X0060280Y0099170D01*
X0060420Y0099540D01*
X0060590Y0099890D01*
X0060800Y0100230D01*
X0061040Y0100540D01*
X0061310Y0100830D01*
X0061610Y0101080D01*
X0061940Y0101310D01*
X0062280Y0101500D01*
X0062650Y0101660D01*
X0063020Y0101780D01*
X0063410Y0101860D01*
X0063800Y0101890D01*
X0064200Y0101890D01*
X0064590Y0101860D01*
X0064980Y0101780D01*
X0065350Y0101660D01*
X0065720Y0101500D01*
X0066060Y0101310D01*
X0066390Y0101080D01*
X0066690Y0100830D01*
X0066960Y0100540D01*
X0067200Y0100230D01*
X0067410Y0099890D01*
X0067580Y0099540D01*
X0067720Y0099170D01*
X0067820Y0098790D01*
X0067880Y0098390D01*
X0067900Y0098000D01*
X0067880Y0097610D01*
X0067820Y0097210D01*
X0067720Y0096830D01*
X0067580Y0096460D01*
X0067410Y0096110D01*
X0067200Y0095770D01*
X0066960Y0095460D01*
X0066690Y0095170D01*
X0066390Y0094920D01*
X0066060Y0094690D01*
X0065720Y0094500D01*
X0065350Y0094340D01*
X0064980Y0094220D01*
X0064590Y0094140D01*
X0064200Y0094110D01*
X0063800Y0094110D01*
X0063410Y0094140D01*
X0063020Y0094220D01*
X0062650Y0094340D01*
X0062280Y0094500D01*
X0061940Y0094690D01*
X0061610Y0094920D01*
X0061310Y0095170D01*
X0061040Y0095460D01*
X0060800Y0095770D01*
X0060590Y0096110D01*
X0060420Y0096460D01*
X0060280Y0096830D01*
X0060180Y0097210D01*
X0060120Y0097610D01*
X0060100Y0098000D01*
X0060000Y0138000D02*
X0068000Y0138000D01*
X0064000Y0134000D02*
X0064000Y0142000D01*
X0060100Y0138000D02*
X0060120Y0138390D01*
X0060180Y0138790D01*
X0060280Y0139170D01*
X0060420Y0139540D01*
X0060590Y0139890D01*
X0060800Y0140230D01*
X0061040Y0140540D01*
X0061310Y0140830D01*
X0061610Y0141080D01*
X0061940Y0141310D01*
X0062280Y0141500D01*
X0062650Y0141660D01*
X0063020Y0141780D01*
X0063410Y0141860D01*
X0063800Y0141890D01*
X0064200Y0141890D01*
X0064590Y0141860D01*
X0064980Y0141780D01*
X0065350Y0141660D01*
X0065720Y0141500D01*
X0066060Y0141310D01*
X0066390Y0141080D01*
X0066690Y0140830D01*
X0066960Y0140540D01*
X0067200Y0140230D01*
X0067410Y0139890D01*
X0067580Y0139540D01*
X0067720Y0139170D01*
X0067820Y0138790D01*
X0067880Y0138390D01*
X0067900Y0138000D01*
X0067880Y0137610D01*
X0067820Y0137210D01*
X0067720Y0136830D01*
X0067580Y0136460D01*
X0067410Y0136110D01*
X0067200Y0135770D01*
X0066960Y0135460D01*
X0066690Y0135170D01*
X0066390Y0134920D01*
X0066060Y0134690D01*
X0065720Y0134500D01*
X0065350Y0134340D01*
X0064980Y0134220D01*
X0064590Y0134140D01*
X0064200Y0134110D01*
X0063800Y0134110D01*
X0063410Y0134140D01*
X0063020Y0134220D01*
X0062650Y0134340D01*
X0062280Y0134500D01*
X0061940Y0134690D01*
X0061610Y0134920D01*
X0061310Y0135170D01*
X0061040Y0135460D01*
X0060800Y0135770D01*
X0060590Y0136110D01*
X0060420Y0136460D01*
X0060280Y0136830D01*
X0060180Y0137210D01*
X0060120Y0137610D01*
X0060100Y0138000D01*
X0151500Y0130000D02*
X0159500Y0130000D01*
X0155500Y0126000D02*
X0155500Y0134000D01*
X0151600Y0130000D02*
X0151620Y0130390D01*
X0151680Y0130790D01*
X0151780Y0131170D01*
X0151920Y0131540D01*
X0152090Y0131890D01*
X0152300Y0132230D01*
X0152540Y0132540D01*
X0152810Y0132830D01*
X0153110Y0133080D01*
X0153440Y0133310D01*
X0153780Y0133500D01*
X0154150Y0133660D01*
X0154520Y0133780D01*
X0154910Y0133860D01*
X0155300Y0133890D01*
X0155700Y0133890D01*
X0156090Y0133860D01*
X0156480Y0133780D01*
X0156850Y0133660D01*
X0157220Y0133500D01*
X0157560Y0133310D01*
X0157890Y0133080D01*
X0158190Y0132830D01*
X0158460Y0132540D01*
X0158700Y0132230D01*
X0158910Y0131890D01*
X0159080Y0131540D01*
X0159220Y0131170D01*
X0159320Y0130790D01*
X0159380Y0130390D01*
X0159400Y0130000D01*
X0159380Y0129610D01*
X0159320Y0129210D01*
X0159220Y0128830D01*
X0159080Y0128460D01*
X0158910Y0128110D01*
X0158700Y0127770D01*
X0158460Y0127460D01*
X0158190Y0127170D01*
X0157890Y0126920D01*
X0157560Y0126690D01*
X0157220Y0126500D01*
X0156850Y0126340D01*
X0156480Y0126220D01*
X0156090Y0126140D01*
X0155700Y0126110D01*
X0155300Y0126110D01*
X0154910Y0126140D01*
X0154520Y0126220D01*
X0154150Y0126340D01*
X0153780Y0126500D01*
X0153440Y0126690D01*
X0153110Y0126920D01*
X0152810Y0127170D01*
X0152540Y0127460D01*
X0152300Y0127770D01*
X0152090Y0128110D01*
X0151920Y0128460D01*
X0151780Y0128830D01*
X0151680Y0129210D01*
X0151620Y0129610D01*
X0151600Y0130000D01*
X0151500Y0090000D02*
X0159500Y0090000D01*
X0155500Y0086000D02*
X0155500Y0094000D01*
X0151600Y0090000D02*
X0151620Y0090390D01*
X0151680Y0090790D01*
X0151780Y0091170D01*
X0151920Y0091540D01*
X0152090Y0091890D01*
X0152300Y0092230D01*
X0152540Y0092540D01*
X0152810Y0092830D01*
X0153110Y0093080D01*
X0153440Y0093310D01*
X0153780Y0093500D01*
X0154150Y0093660D01*
X0154520Y0093780D01*
X0154910Y0093860D01*
X0155300Y0093890D01*
X0155700Y0093890D01*
X0156090Y0093860D01*
X0156480Y0093780D01*
X0156850Y0093660D01*
X0157220Y0093500D01*
X0157560Y0093310D01*
X0157890Y0093080D01*
X0158190Y0092830D01*
X0158460Y0092540D01*
X0158700Y0092230D01*
X0158910Y0091890D01*
X0159080Y0091540D01*
X0159220Y0091170D01*
X0159320Y0090790D01*
X0159380Y0090390D01*
X0159400Y0090000D01*
X0159380Y0089610D01*
X0159320Y0089210D01*
X0159220Y0088830D01*
X0159080Y0088460D01*
X0158910Y0088110D01*
X0158700Y0087770D01*
X0158460Y0087460D01*
X0158190Y0087170D01*
X0157890Y0086920D01*
X0157560Y0086690D01*
X0157220Y0086500D01*
X0156850Y0086340D01*
X0156480Y0086220D01*
X0156090Y0086140D01*
X0155700Y0086110D01*
X0155300Y0086110D01*
X0154910Y0086140D01*
X0154520Y0086220D01*
X0154150Y0086340D01*
X0153780Y0086500D01*
X0153440Y0086690D01*
X0153110Y0086920D01*
X0152810Y0087170D01*
X0152540Y0087460D01*
X0152300Y0087770D01*
X0152090Y0088110D01*
X0151920Y0088460D01*
X0151780Y0088830D01*
X0151680Y0089210D01*
X0151620Y0089610D01*
X0151600Y0090000D01*
X0221500Y0110000D02*
X0229500Y0110000D01*
X0225500Y0106000D02*
X0225500Y0114000D01*
X0221600Y0110000D02*
X0221620Y0110390D01*
X0221680Y0110790D01*
X0221780Y0111170D01*
X0221920Y0111540D01*
X0222090Y0111890D01*
X0222300Y0112230D01*
X0222540Y0112540D01*
X0222810Y0112830D01*
X0223110Y0113080D01*
X0223440Y0113310D01*
X0223780Y0113500D01*
X0224150Y0113660D01*
X0224520Y0113780D01*
X0224910Y0113860D01*
X0225300Y0113890D01*
X0225700Y0113890D01*
X0226090Y0113860D01*
X0226480Y0113780D01*
X0226850Y0113660D01*
X0227220Y0113500D01*
X0227560Y0113310D01*
X0227890Y0113080D01*
X0228190Y0112830D01*
X0228460Y0112540D01*
X0228700Y0112230D01*
X0228910Y0111890D01*
X0229080Y0111540D01*
X0229220Y0111170D01*
X0229320Y0110790D01*
X0229380Y0110390D01*
X0229400Y0110000D01*
X0229380Y0109610D01*
X0229320Y0109210D01*
X0229220Y0108830D01*
X0229080Y0108460D01*
X0228910Y0108110D01*
X0228700Y0107770D01*
X0228460Y0107460D01*
X0228190Y0107170D01*
X0227890Y0106920D01*
X0227560Y0106690D01*
X0227220Y0106500D01*
X0226850Y0106340D01*
X0226480Y0106220D01*
X0226090Y0106140D01*
X0225700Y0106110D01*
X0225300Y0106110D01*
X0224910Y0106140D01*
X0224520Y0106220D01*
X0224150Y0106340D01*
X0223780Y0106500D01*
X0223440Y0106690D01*
X0223110Y0106920D01*
X0222810Y0107170D01*
X0222540Y0107460D01*
X0222300Y0107770D01*
X0222090Y0108110D01*
X0221920Y0108460D01*
X0221780Y0108830D01*
X0221680Y0109210D01*
X0221620Y0109610D01*
X0221600Y0110000D01*
X0093720Y0366990D02*
X0101720Y0366990D01*
X0097720Y0362990D02*
X0097720Y0370990D01*
X0093820Y0366990D02*
X0093840Y0367380D01*
X0093900Y0367780D01*
X0094000Y0368160D01*
X0094140Y0368530D01*
X0094310Y0368880D01*
X0094520Y0369220D01*
X0094760Y0369530D01*
X0095030Y0369820D01*
X0095330Y0370070D01*
X0095660Y0370300D01*
X0096000Y0370490D01*
X0096370Y0370650D01*
X0096740Y0370770D01*
X0097130Y0370850D01*
X0097520Y0370880D01*
X0097920Y0370880D01*
X0098310Y0370850D01*
X0098700Y0370770D01*
X0099070Y0370650D01*
X0099440Y0370490D01*
X0099780Y0370300D01*
X0100110Y0370070D01*
X0100410Y0369820D01*
X0100680Y0369530D01*
X0100920Y0369220D01*
X0101130Y0368880D01*
X0101300Y0368530D01*
X0101440Y0368160D01*
X0101540Y0367780D01*
X0101600Y0367380D01*
X0101620Y0366990D01*
X0101600Y0366600D01*
X0101540Y0366200D01*
X0101440Y0365820D01*
X0101300Y0365450D01*
X0101130Y0365100D01*
X0100920Y0364760D01*
X0100680Y0364450D01*
X0100410Y0364160D01*
X0100110Y0363910D01*
X0099780Y0363680D01*
X0099440Y0363490D01*
X0099070Y0363330D01*
X0098700Y0363210D01*
X0098310Y0363130D01*
X0097920Y0363100D01*
X0097520Y0363100D01*
X0097130Y0363130D01*
X0096740Y0363210D01*
X0096370Y0363330D01*
X0096000Y0363490D01*
X0095660Y0363680D01*
X0095330Y0363910D01*
X0095030Y0364160D01*
X0094760Y0364450D01*
X0094520Y0364760D01*
X0094310Y0365100D01*
X0094140Y0365450D01*
X0094000Y0365820D01*
X0093900Y0366200D01*
X0093840Y0366600D01*
X0093820Y0366990D01*
X0093720Y0355180D02*
X0101720Y0355180D01*
X0097720Y0351180D02*
X0097720Y0359180D01*
X0093820Y0355180D02*
X0093840Y0355570D01*
X0093900Y0355970D01*
X0094000Y0356350D01*
X0094140Y0356720D01*
X0094310Y0357070D01*
X0094520Y0357410D01*
X0094760Y0357720D01*
X0095030Y0358010D01*
X0095330Y0358260D01*
X0095660Y0358490D01*
X0096000Y0358680D01*
X0096370Y0358840D01*
X0096740Y0358960D01*
X0097130Y0359040D01*
X0097520Y0359070D01*
X0097920Y0359070D01*
X0098310Y0359040D01*
X0098700Y0358960D01*
X0099070Y0358840D01*
X0099440Y0358680D01*
X0099780Y0358490D01*
X0100110Y0358260D01*
X0100410Y0358010D01*
X0100680Y0357720D01*
X0100920Y0357410D01*
X0101130Y0357070D01*
X0101300Y0356720D01*
X0101440Y0356350D01*
X0101540Y0355970D01*
X0101600Y0355570D01*
X0101620Y0355180D01*
X0101600Y0354790D01*
X0101540Y0354390D01*
X0101440Y0354010D01*
X0101300Y0353640D01*
X0101130Y0353290D01*
X0100920Y0352950D01*
X0100680Y0352640D01*
X0100410Y0352350D01*
X0100110Y0352100D01*
X0099780Y0351870D01*
X0099440Y0351680D01*
X0099070Y0351520D01*
X0098700Y0351400D01*
X0098310Y0351320D01*
X0097920Y0351290D01*
X0097520Y0351290D01*
X0097130Y0351320D01*
X0096740Y0351400D01*
X0096370Y0351520D01*
X0096000Y0351680D01*
X0095660Y0351870D01*
X0095330Y0352100D01*
X0095030Y0352350D01*
X0094760Y0352640D01*
X0094520Y0352950D01*
X0094310Y0353290D01*
X0094140Y0353640D01*
X0094000Y0354010D01*
X0093900Y0354390D01*
X0093840Y0354790D01*
X0093820Y0355180D01*
X0081910Y0355180D02*
X0089910Y0355180D01*
X0085910Y0351180D02*
X0085910Y0359180D01*
X0082010Y0355180D02*
X0082030Y0355570D01*
X0082090Y0355970D01*
X0082190Y0356350D01*
X0082330Y0356720D01*
X0082500Y0357070D01*
X0082710Y0357410D01*
X0082950Y0357720D01*
X0083220Y0358010D01*
X0083520Y0358260D01*
X0083850Y0358490D01*
X0084190Y0358680D01*
X0084560Y0358840D01*
X0084930Y0358960D01*
X0085320Y0359040D01*
X0085710Y0359070D01*
X0086110Y0359070D01*
X0086500Y0359040D01*
X0086890Y0358960D01*
X0087260Y0358840D01*
X0087630Y0358680D01*
X0087970Y0358490D01*
X0088300Y0358260D01*
X0088600Y0358010D01*
X0088870Y0357720D01*
X0089110Y0357410D01*
X0089320Y0357070D01*
X0089490Y0356720D01*
X0089630Y0356350D01*
X0089730Y0355970D01*
X0089790Y0355570D01*
X0089810Y0355180D01*
X0089790Y0354790D01*
X0089730Y0354390D01*
X0089630Y0354010D01*
X0089490Y0353640D01*
X0089320Y0353290D01*
X0089110Y0352950D01*
X0088870Y0352640D01*
X0088600Y0352350D01*
X0088300Y0352100D01*
X0087970Y0351870D01*
X0087630Y0351680D01*
X0087260Y0351520D01*
X0086890Y0351400D01*
X0086500Y0351320D01*
X0086110Y0351290D01*
X0085710Y0351290D01*
X0085320Y0351320D01*
X0084930Y0351400D01*
X0084560Y0351520D01*
X0084190Y0351680D01*
X0083850Y0351870D01*
X0083520Y0352100D01*
X0083220Y0352350D01*
X0082950Y0352640D01*
X0082710Y0352950D01*
X0082500Y0353290D01*
X0082330Y0353640D01*
X0082190Y0354010D01*
X0082090Y0354390D01*
X0082030Y0354790D01*
X0082010Y0355180D01*
X0081910Y0366990D02*
X0089910Y0366990D01*
X0085910Y0362990D02*
X0085910Y0370990D01*
X0082010Y0366990D02*
X0082030Y0367380D01*
X0082090Y0367780D01*
X0082190Y0368160D01*
X0082330Y0368530D01*
X0082500Y0368880D01*
X0082710Y0369220D01*
X0082950Y0369530D01*
X0083220Y0369820D01*
X0083520Y0370070D01*
X0083850Y0370300D01*
X0084190Y0370490D01*
X0084560Y0370650D01*
X0084930Y0370770D01*
X0085320Y0370850D01*
X0085710Y0370880D01*
X0086110Y0370880D01*
X0086500Y0370850D01*
X0086890Y0370770D01*
X0087260Y0370650D01*
X0087630Y0370490D01*
X0087970Y0370300D01*
X0088300Y0370070D01*
X0088600Y0369820D01*
X0088870Y0369530D01*
X0089110Y0369220D01*
X0089320Y0368880D01*
X0089490Y0368530D01*
X0089630Y0368160D01*
X0089730Y0367780D01*
X0089790Y0367380D01*
X0089810Y0366990D01*
X0089790Y0366600D01*
X0089730Y0366200D01*
X0089630Y0365820D01*
X0089490Y0365450D01*
X0089320Y0365100D01*
X0089110Y0364760D01*
X0088870Y0364450D01*
X0088600Y0364160D01*
X0088300Y0363910D01*
X0087970Y0363680D01*
X0087630Y0363490D01*
X0087260Y0363330D01*
X0086890Y0363210D01*
X0086500Y0363130D01*
X0086110Y0363100D01*
X0085710Y0363100D01*
X0085320Y0363130D01*
X0084930Y0363210D01*
X0084560Y0363330D01*
X0084190Y0363490D01*
X0083850Y0363680D01*
X0083520Y0363910D01*
X0083220Y0364160D01*
X0082950Y0364450D01*
X0082710Y0364760D01*
X0082500Y0365100D01*
X0082330Y0365450D01*
X0082190Y0365820D01*
X0082090Y0366200D01*
X0082030Y0366600D01*
X0082010Y0366990D01*
X0070090Y0366990D02*
X0078090Y0366990D01*
X0074090Y0362990D02*
X0074090Y0370990D01*
X0070190Y0366990D02*
X0070210Y0367380D01*
X0070270Y0367780D01*
X0070370Y0368160D01*
X0070510Y0368530D01*
X0070680Y0368880D01*
X0070890Y0369220D01*
X0071130Y0369530D01*
X0071400Y0369820D01*
X0071700Y0370070D01*
X0072030Y0370300D01*
X0072370Y0370490D01*
X0072740Y0370650D01*
X0073110Y0370770D01*
X0073500Y0370850D01*
X0073890Y0370880D01*
X0074290Y0370880D01*
X0074680Y0370850D01*
X0075070Y0370770D01*
X0075440Y0370650D01*
X0075810Y0370490D01*
X0076150Y0370300D01*
X0076480Y0370070D01*
X0076780Y0369820D01*
X0077050Y0369530D01*
X0077290Y0369220D01*
X0077500Y0368880D01*
X0077670Y0368530D01*
X0077810Y0368160D01*
X0077910Y0367780D01*
X0077970Y0367380D01*
X0077990Y0366990D01*
X0077970Y0366600D01*
X0077910Y0366200D01*
X0077810Y0365820D01*
X0077670Y0365450D01*
X0077500Y0365100D01*
X0077290Y0364760D01*
X0077050Y0364450D01*
X0076780Y0364160D01*
X0076480Y0363910D01*
X0076150Y0363680D01*
X0075810Y0363490D01*
X0075440Y0363330D01*
X0075070Y0363210D01*
X0074680Y0363130D01*
X0074290Y0363100D01*
X0073890Y0363100D01*
X0073500Y0363130D01*
X0073110Y0363210D01*
X0072740Y0363330D01*
X0072370Y0363490D01*
X0072030Y0363680D01*
X0071700Y0363910D01*
X0071400Y0364160D01*
X0071130Y0364450D01*
X0070890Y0364760D01*
X0070680Y0365100D01*
X0070510Y0365450D01*
X0070370Y0365820D01*
X0070270Y0366200D01*
X0070210Y0366600D01*
X0070190Y0366990D01*
X0070090Y0355180D02*
X0078090Y0355180D01*
X0074090Y0351180D02*
X0074090Y0359180D01*
X0070190Y0355180D02*
X0070210Y0355570D01*
X0070270Y0355970D01*
X0070370Y0356350D01*
X0070510Y0356720D01*
X0070680Y0357070D01*
X0070890Y0357410D01*
X0071130Y0357720D01*
X0071400Y0358010D01*
X0071700Y0358260D01*
X0072030Y0358490D01*
X0072370Y0358680D01*
X0072740Y0358840D01*
X0073110Y0358960D01*
X0073500Y0359040D01*
X0073890Y0359070D01*
X0074290Y0359070D01*
X0074680Y0359040D01*
X0075070Y0358960D01*
X0075440Y0358840D01*
X0075810Y0358680D01*
X0076150Y0358490D01*
X0076480Y0358260D01*
X0076780Y0358010D01*
X0077050Y0357720D01*
X0077290Y0357410D01*
X0077500Y0357070D01*
X0077670Y0356720D01*
X0077810Y0356350D01*
X0077910Y0355970D01*
X0077970Y0355570D01*
X0077990Y0355180D01*
X0077970Y0354790D01*
X0077910Y0354390D01*
X0077810Y0354010D01*
X0077670Y0353640D01*
X0077500Y0353290D01*
X0077290Y0352950D01*
X0077050Y0352640D01*
X0076780Y0352350D01*
X0076480Y0352100D01*
X0076150Y0351870D01*
X0075810Y0351680D01*
X0075440Y0351520D01*
X0075070Y0351400D01*
X0074680Y0351320D01*
X0074290Y0351290D01*
X0073890Y0351290D01*
X0073500Y0351320D01*
X0073110Y0351400D01*
X0072740Y0351520D01*
X0072370Y0351680D01*
X0072030Y0351870D01*
X0071700Y0352100D01*
X0071400Y0352350D01*
X0071130Y0352640D01*
X0070890Y0352950D01*
X0070680Y0353290D01*
X0070510Y0353640D01*
X0070370Y0354010D01*
X0070270Y0354390D01*
X0070210Y0354790D01*
X0070190Y0355180D01*
X0058280Y0355180D02*
X0066280Y0355180D01*
X0062280Y0351180D02*
X0062280Y0359180D01*
X0058380Y0355180D02*
X0058400Y0355570D01*
X0058460Y0355970D01*
X0058560Y0356350D01*
X0058700Y0356720D01*
X0058870Y0357070D01*
X0059080Y0357410D01*
X0059320Y0357720D01*
X0059590Y0358010D01*
X0059890Y0358260D01*
X0060220Y0358490D01*
X0060560Y0358680D01*
X0060930Y0358840D01*
X0061300Y0358960D01*
X0061690Y0359040D01*
X0062080Y0359070D01*
X0062480Y0359070D01*
X0062870Y0359040D01*
X0063260Y0358960D01*
X0063630Y0358840D01*
X0064000Y0358680D01*
X0064340Y0358490D01*
X0064670Y0358260D01*
X0064970Y0358010D01*
X0065240Y0357720D01*
X0065480Y0357410D01*
X0065690Y0357070D01*
X0065860Y0356720D01*
X0066000Y0356350D01*
X0066100Y0355970D01*
X0066160Y0355570D01*
X0066180Y0355180D01*
X0066160Y0354790D01*
X0066100Y0354390D01*
X0066000Y0354010D01*
X0065860Y0353640D01*
X0065690Y0353290D01*
X0065480Y0352950D01*
X0065240Y0352640D01*
X0064970Y0352350D01*
X0064670Y0352100D01*
X0064340Y0351870D01*
X0064000Y0351680D01*
X0063630Y0351520D01*
X0063260Y0351400D01*
X0062870Y0351320D01*
X0062480Y0351290D01*
X0062080Y0351290D01*
X0061690Y0351320D01*
X0061300Y0351400D01*
X0060930Y0351520D01*
X0060560Y0351680D01*
X0060220Y0351870D01*
X0059890Y0352100D01*
X0059590Y0352350D01*
X0059320Y0352640D01*
X0059080Y0352950D01*
X0058870Y0353290D01*
X0058700Y0353640D01*
X0058560Y0354010D01*
X0058460Y0354390D01*
X0058400Y0354790D01*
X0058380Y0355180D01*
X0058280Y0366990D02*
X0066280Y0366990D01*
X0062280Y0362990D02*
X0062280Y0370990D01*
X0058380Y0366990D02*
X0058400Y0367380D01*
X0058460Y0367780D01*
X0058560Y0368160D01*
X0058700Y0368530D01*
X0058870Y0368880D01*
X0059080Y0369220D01*
X0059320Y0369530D01*
X0059590Y0369820D01*
X0059890Y0370070D01*
X0060220Y0370300D01*
X0060560Y0370490D01*
X0060930Y0370650D01*
X0061300Y0370770D01*
X0061690Y0370850D01*
X0062080Y0370880D01*
X0062480Y0370880D01*
X0062870Y0370850D01*
X0063260Y0370770D01*
X0063630Y0370650D01*
X0064000Y0370490D01*
X0064340Y0370300D01*
X0064670Y0370070D01*
X0064970Y0369820D01*
X0065240Y0369530D01*
X0065480Y0369220D01*
X0065690Y0368880D01*
X0065860Y0368530D01*
X0066000Y0368160D01*
X0066100Y0367780D01*
X0066160Y0367380D01*
X0066180Y0366990D01*
X0066160Y0366600D01*
X0066100Y0366200D01*
X0066000Y0365820D01*
X0065860Y0365450D01*
X0065690Y0365100D01*
X0065480Y0364760D01*
X0065240Y0364450D01*
X0064970Y0364160D01*
X0064670Y0363910D01*
X0064340Y0363680D01*
X0064000Y0363490D01*
X0063630Y0363330D01*
X0063260Y0363210D01*
X0062870Y0363130D01*
X0062480Y0363100D01*
X0062080Y0363100D01*
X0061690Y0363130D01*
X0061300Y0363210D01*
X0060930Y0363330D01*
X0060560Y0363490D01*
X0060220Y0363680D01*
X0059890Y0363910D01*
X0059590Y0364160D01*
X0059320Y0364450D01*
X0059080Y0364760D01*
X0058870Y0365100D01*
X0058700Y0365450D01*
X0058560Y0365820D01*
X0058460Y0366200D01*
X0058400Y0366600D01*
X0058380Y0366990D01*
X0051820Y0060910D02*
X0059820Y0060910D01*
X0055820Y0056910D02*
X0055820Y0064910D01*
X0051920Y0060910D02*
X0051940Y0061300D01*
X0052000Y0061700D01*
X0052100Y0062080D01*
X0052240Y0062450D01*
X0052410Y0062800D01*
X0052620Y0063140D01*
X0052860Y0063450D01*
X0053130Y0063740D01*
X0053430Y0063990D01*
X0053760Y0064220D01*
X0054100Y0064410D01*
X0054470Y0064570D01*
X0054840Y0064690D01*
X0055230Y0064770D01*
X0055620Y0064800D01*
X0056020Y0064800D01*
X0056410Y0064770D01*
X0056800Y0064690D01*
X0057170Y0064570D01*
X0057540Y0064410D01*
X0057880Y0064220D01*
X0058210Y0063990D01*
X0058510Y0063740D01*
X0058780Y0063450D01*
X0059020Y0063140D01*
X0059230Y0062800D01*
X0059400Y0062450D01*
X0059540Y0062080D01*
X0059640Y0061700D01*
X0059700Y0061300D01*
X0059720Y0060910D01*
X0059700Y0060520D01*
X0059640Y0060120D01*
X0059540Y0059740D01*
X0059400Y0059370D01*
X0059230Y0059020D01*
X0059020Y0058680D01*
X0058780Y0058370D01*
X0058510Y0058080D01*
X0058210Y0057830D01*
X0057880Y0057600D01*
X0057540Y0057410D01*
X0057170Y0057250D01*
X0056800Y0057130D01*
X0056410Y0057050D01*
X0056020Y0057020D01*
X0055620Y0057020D01*
X0055230Y0057050D01*
X0054840Y0057130D01*
X0054470Y0057250D01*
X0054100Y0057410D01*
X0053760Y0057600D01*
X0053430Y0057830D01*
X0053130Y0058080D01*
X0052860Y0058370D01*
X0052620Y0058680D01*
X0052410Y0059020D01*
X0052240Y0059370D01*
X0052100Y0059740D01*
X0052000Y0060120D01*
X0051940Y0060520D01*
X0051920Y0060910D01*
X0051820Y0049100D02*
X0059820Y0049100D01*
X0055820Y0045100D02*
X0055820Y0053100D01*
X0051920Y0049100D02*
X0051940Y0049490D01*
X0052000Y0049890D01*
X0052100Y0050270D01*
X0052240Y0050640D01*
X0052410Y0050990D01*
X0052620Y0051330D01*
X0052860Y0051640D01*
X0053130Y0051930D01*
X0053430Y0052180D01*
X0053760Y0052410D01*
X0054100Y0052600D01*
X0054470Y0052760D01*
X0054840Y0052880D01*
X0055230Y0052960D01*
X0055620Y0052990D01*
X0056020Y0052990D01*
X0056410Y0052960D01*
X0056800Y0052880D01*
X0057170Y0052760D01*
X0057540Y0052600D01*
X0057880Y0052410D01*
X0058210Y0052180D01*
X0058510Y0051930D01*
X0058780Y0051640D01*
X0059020Y0051330D01*
X0059230Y0050990D01*
X0059400Y0050640D01*
X0059540Y0050270D01*
X0059640Y0049890D01*
X0059700Y0049490D01*
X0059720Y0049100D01*
X0059700Y0048710D01*
X0059640Y0048310D01*
X0059540Y0047930D01*
X0059400Y0047560D01*
X0059230Y0047210D01*
X0059020Y0046870D01*
X0058780Y0046560D01*
X0058510Y0046270D01*
X0058210Y0046020D01*
X0057880Y0045790D01*
X0057540Y0045600D01*
X0057170Y0045440D01*
X0056800Y0045320D01*
X0056410Y0045240D01*
X0056020Y0045210D01*
X0055620Y0045210D01*
X0055230Y0045240D01*
X0054840Y0045320D01*
X0054470Y0045440D01*
X0054100Y0045600D01*
X0053760Y0045790D01*
X0053430Y0046020D01*
X0053130Y0046270D01*
X0052860Y0046560D01*
X0052620Y0046870D01*
X0052410Y0047210D01*
X0052240Y0047560D01*
X0052100Y0047930D01*
X0052000Y0048310D01*
X0051940Y0048710D01*
X0051920Y0049100D01*
X0040010Y0049100D02*
X0048010Y0049100D01*
X0044010Y0045100D02*
X0044010Y0053100D01*
X0040110Y0049100D02*
X0040130Y0049490D01*
X0040190Y0049890D01*
X0040290Y0050270D01*
X0040430Y0050640D01*
X0040600Y0050990D01*
X0040810Y0051330D01*
X0041050Y0051640D01*
X0041320Y0051930D01*
X0041620Y0052180D01*
X0041950Y0052410D01*
X0042290Y0052600D01*
X0042660Y0052760D01*
X0043030Y0052880D01*
X0043420Y0052960D01*
X0043810Y0052990D01*
X0044210Y0052990D01*
X0044600Y0052960D01*
X0044990Y0052880D01*
X0045360Y0052760D01*
X0045730Y0052600D01*
X0046070Y0052410D01*
X0046400Y0052180D01*
X0046700Y0051930D01*
X0046970Y0051640D01*
X0047210Y0051330D01*
X0047420Y0050990D01*
X0047590Y0050640D01*
X0047730Y0050270D01*
X0047830Y0049890D01*
X0047890Y0049490D01*
X0047910Y0049100D01*
X0047890Y0048710D01*
X0047830Y0048310D01*
X0047730Y0047930D01*
X0047590Y0047560D01*
X0047420Y0047210D01*
X0047210Y0046870D01*
X0046970Y0046560D01*
X0046700Y0046270D01*
X0046400Y0046020D01*
X0046070Y0045790D01*
X0045730Y0045600D01*
X0045360Y0045440D01*
X0044990Y0045320D01*
X0044600Y0045240D01*
X0044210Y0045210D01*
X0043810Y0045210D01*
X0043420Y0045240D01*
X0043030Y0045320D01*
X0042660Y0045440D01*
X0042290Y0045600D01*
X0041950Y0045790D01*
X0041620Y0046020D01*
X0041320Y0046270D01*
X0041050Y0046560D01*
X0040810Y0046870D01*
X0040600Y0047210D01*
X0040430Y0047560D01*
X0040290Y0047930D01*
X0040190Y0048310D01*
X0040130Y0048710D01*
X0040110Y0049100D01*
X0040010Y0060910D02*
X0048010Y0060910D01*
X0044010Y0056910D02*
X0044010Y0064910D01*
X0040110Y0060910D02*
X0040130Y0061300D01*
X0040190Y0061700D01*
X0040290Y0062080D01*
X0040430Y0062450D01*
X0040600Y0062800D01*
X0040810Y0063140D01*
X0041050Y0063450D01*
X0041320Y0063740D01*
X0041620Y0063990D01*
X0041950Y0064220D01*
X0042290Y0064410D01*
X0042660Y0064570D01*
X0043030Y0064690D01*
X0043420Y0064770D01*
X0043810Y0064800D01*
X0044210Y0064800D01*
X0044600Y0064770D01*
X0044990Y0064690D01*
X0045360Y0064570D01*
X0045730Y0064410D01*
X0046070Y0064220D01*
X0046400Y0063990D01*
X0046700Y0063740D01*
X0046970Y0063450D01*
X0047210Y0063140D01*
X0047420Y0062800D01*
X0047590Y0062450D01*
X0047730Y0062080D01*
X0047830Y0061700D01*
X0047890Y0061300D01*
X0047910Y0060910D01*
X0047890Y0060520D01*
X0047830Y0060120D01*
X0047730Y0059740D01*
X0047590Y0059370D01*
X0047420Y0059020D01*
X0047210Y0058680D01*
X0046970Y0058370D01*
X0046700Y0058080D01*
X0046400Y0057830D01*
X0046070Y0057600D01*
X0045730Y0057410D01*
X0045360Y0057250D01*
X0044990Y0057130D01*
X0044600Y0057050D01*
X0044210Y0057020D01*
X0043810Y0057020D01*
X0043420Y0057050D01*
X0043030Y0057130D01*
X0042660Y0057250D01*
X0042290Y0057410D01*
X0041950Y0057600D01*
X0041620Y0057830D01*
X0041320Y0058080D01*
X0041050Y0058370D01*
X0040810Y0058680D01*
X0040600Y0059020D01*
X0040430Y0059370D01*
X0040290Y0059740D01*
X0040190Y0060120D01*
X0040130Y0060520D01*
X0040110Y0060910D01*
X0061000Y0589250D02*
X0069000Y0589250D01*
X0065000Y0585250D02*
X0065000Y0593250D01*
X0061100Y0589250D02*
X0061120Y0589640D01*
X0061180Y0590040D01*
X0061280Y0590420D01*
X0061420Y0590790D01*
X0061590Y0591140D01*
X0061800Y0591480D01*
X0062040Y0591790D01*
X0062310Y0592080D01*
X0062610Y0592330D01*
X0062940Y0592560D01*
X0063280Y0592750D01*
X0063650Y0592910D01*
X0064020Y0593030D01*
X0064410Y0593110D01*
X0064800Y0593140D01*
X0065200Y0593140D01*
X0065590Y0593110D01*
X0065980Y0593030D01*
X0066350Y0592910D01*
X0066720Y0592750D01*
X0067060Y0592560D01*
X0067390Y0592330D01*
X0067690Y0592080D01*
X0067960Y0591790D01*
X0068200Y0591480D01*
X0068410Y0591140D01*
X0068580Y0590790D01*
X0068720Y0590420D01*
X0068820Y0590040D01*
X0068880Y0589640D01*
X0068900Y0589250D01*
X0068880Y0588860D01*
X0068820Y0588460D01*
X0068720Y0588080D01*
X0068580Y0587710D01*
X0068410Y0587360D01*
X0068200Y0587020D01*
X0067960Y0586710D01*
X0067690Y0586420D01*
X0067390Y0586170D01*
X0067060Y0585940D01*
X0066720Y0585750D01*
X0066350Y0585590D01*
X0065980Y0585470D01*
X0065590Y0585390D01*
X0065200Y0585360D01*
X0064800Y0585360D01*
X0064410Y0585390D01*
X0064020Y0585470D01*
X0063650Y0585590D01*
X0063280Y0585750D01*
X0062940Y0585940D01*
X0062610Y0586170D01*
X0062310Y0586420D01*
X0062040Y0586710D01*
X0061800Y0587020D01*
X0061590Y0587360D01*
X0061420Y0587710D01*
X0061280Y0588080D01*
X0061180Y0588460D01*
X0061120Y0588860D01*
X0061100Y0589250D01*
X0061000Y0629250D02*
X0069000Y0629250D01*
X0065000Y0625250D02*
X0065000Y0633250D01*
X0061100Y0629250D02*
X0061120Y0629640D01*
X0061180Y0630040D01*
X0061280Y0630420D01*
X0061420Y0630790D01*
X0061590Y0631140D01*
X0061800Y0631480D01*
X0062040Y0631790D01*
X0062310Y0632080D01*
X0062610Y0632330D01*
X0062940Y0632560D01*
X0063280Y0632750D01*
X0063650Y0632910D01*
X0064020Y0633030D01*
X0064410Y0633110D01*
X0064800Y0633140D01*
X0065200Y0633140D01*
X0065590Y0633110D01*
X0065980Y0633030D01*
X0066350Y0632910D01*
X0066720Y0632750D01*
X0067060Y0632560D01*
X0067390Y0632330D01*
X0067690Y0632080D01*
X0067960Y0631790D01*
X0068200Y0631480D01*
X0068410Y0631140D01*
X0068580Y0630790D01*
X0068720Y0630420D01*
X0068820Y0630040D01*
X0068880Y0629640D01*
X0068900Y0629250D01*
X0068880Y0628860D01*
X0068820Y0628460D01*
X0068720Y0628080D01*
X0068580Y0627710D01*
X0068410Y0627360D01*
X0068200Y0627020D01*
X0067960Y0626710D01*
X0067690Y0626420D01*
X0067390Y0626170D01*
X0067060Y0625940D01*
X0066720Y0625750D01*
X0066350Y0625590D01*
X0065980Y0625470D01*
X0065590Y0625390D01*
X0065200Y0625360D01*
X0064800Y0625360D01*
X0064410Y0625390D01*
X0064020Y0625470D01*
X0063650Y0625590D01*
X0063280Y0625750D01*
X0062940Y0625940D01*
X0062610Y0626170D01*
X0062310Y0626420D01*
X0062040Y0626710D01*
X0061800Y0627020D01*
X0061590Y0627360D01*
X0061420Y0627710D01*
X0061280Y0628080D01*
X0061180Y0628460D01*
X0061120Y0628860D01*
X0061100Y0629250D01*
X0248990Y0604250D02*
X0256990Y0604250D01*
X0252990Y0600250D02*
X0252990Y0608250D01*
X0249090Y0604250D02*
X0249110Y0604640D01*
X0249170Y0605040D01*
X0249270Y0605420D01*
X0249410Y0605790D01*
X0249580Y0606140D01*
X0249790Y0606480D01*
X0250030Y0606790D01*
X0250300Y0607080D01*
X0250600Y0607330D01*
X0250930Y0607560D01*
X0251270Y0607750D01*
X0251640Y0607910D01*
X0252010Y0608030D01*
X0252400Y0608110D01*
X0252790Y0608140D01*
X0253190Y0608140D01*
X0253580Y0608110D01*
X0253970Y0608030D01*
X0254340Y0607910D01*
X0254710Y0607750D01*
X0255050Y0607560D01*
X0255380Y0607330D01*
X0255680Y0607080D01*
X0255950Y0606790D01*
X0256190Y0606480D01*
X0256400Y0606140D01*
X0256570Y0605790D01*
X0256710Y0605420D01*
X0256810Y0605040D01*
X0256870Y0604640D01*
X0256890Y0604250D01*
X0256870Y0603860D01*
X0256810Y0603460D01*
X0256710Y0603080D01*
X0256570Y0602710D01*
X0256400Y0602360D01*
X0256190Y0602020D01*
X0255950Y0601710D01*
X0255680Y0601420D01*
X0255380Y0601170D01*
X0255050Y0600940D01*
X0254710Y0600750D01*
X0254340Y0600590D01*
X0253970Y0600470D01*
X0253580Y0600390D01*
X0253190Y0600360D01*
X0252790Y0600360D01*
X0252400Y0600390D01*
X0252010Y0600470D01*
X0251640Y0600590D01*
X0251270Y0600750D01*
X0250930Y0600940D01*
X0250600Y0601170D01*
X0250300Y0601420D01*
X0250030Y0601710D01*
X0249790Y0602020D01*
X0249580Y0602360D01*
X0249410Y0602710D01*
X0249270Y0603080D01*
X0249170Y0603460D01*
X0249110Y0603860D01*
X0249090Y0604250D01*
X0237180Y0604250D02*
X0245180Y0604250D01*
X0241180Y0600250D02*
X0241180Y0608250D01*
X0237280Y0604250D02*
X0237300Y0604640D01*
X0237360Y0605040D01*
X0237460Y0605420D01*
X0237600Y0605790D01*
X0237770Y0606140D01*
X0237980Y0606480D01*
X0238220Y0606790D01*
X0238490Y0607080D01*
X0238790Y0607330D01*
X0239120Y0607560D01*
X0239460Y0607750D01*
X0239830Y0607910D01*
X0240200Y0608030D01*
X0240590Y0608110D01*
X0240980Y0608140D01*
X0241380Y0608140D01*
X0241770Y0608110D01*
X0242160Y0608030D01*
X0242530Y0607910D01*
X0242900Y0607750D01*
X0243240Y0607560D01*
X0243570Y0607330D01*
X0243870Y0607080D01*
X0244140Y0606790D01*
X0244380Y0606480D01*
X0244590Y0606140D01*
X0244760Y0605790D01*
X0244900Y0605420D01*
X0245000Y0605040D01*
X0245060Y0604640D01*
X0245080Y0604250D01*
X0245060Y0603860D01*
X0245000Y0603460D01*
X0244900Y0603080D01*
X0244760Y0602710D01*
X0244590Y0602360D01*
X0244380Y0602020D01*
X0244140Y0601710D01*
X0243870Y0601420D01*
X0243570Y0601170D01*
X0243240Y0600940D01*
X0242900Y0600750D01*
X0242530Y0600590D01*
X0242160Y0600470D01*
X0241770Y0600390D01*
X0241380Y0600360D01*
X0240980Y0600360D01*
X0240590Y0600390D01*
X0240200Y0600470D01*
X0239830Y0600590D01*
X0239460Y0600750D01*
X0239120Y0600940D01*
X0238790Y0601170D01*
X0238490Y0601420D01*
X0238220Y0601710D01*
X0237980Y0602020D01*
X0237770Y0602360D01*
X0237600Y0602710D01*
X0237460Y0603080D01*
X0237360Y0603460D01*
X0237300Y0603860D01*
X0237280Y0604250D01*
X0049810Y0600160D02*
X0057810Y0600160D01*
X0053810Y0596160D02*
X0053810Y0604160D01*
X0049910Y0600160D02*
X0049930Y0600550D01*
X0049990Y0600950D01*
X0050090Y0601330D01*
X0050230Y0601700D01*
X0050400Y0602050D01*
X0050610Y0602390D01*
X0050850Y0602700D01*
X0051120Y0602990D01*
X0051420Y0603240D01*
X0051750Y0603470D01*
X0052090Y0603660D01*
X0052460Y0603820D01*
X0052830Y0603940D01*
X0053220Y0604020D01*
X0053610Y0604050D01*
X0054010Y0604050D01*
X0054400Y0604020D01*
X0054790Y0603940D01*
X0055160Y0603820D01*
X0055530Y0603660D01*
X0055870Y0603470D01*
X0056200Y0603240D01*
X0056500Y0602990D01*
X0056770Y0602700D01*
X0057010Y0602390D01*
X0057220Y0602050D01*
X0057390Y0601700D01*
X0057530Y0601330D01*
X0057630Y0600950D01*
X0057690Y0600550D01*
X0057710Y0600160D01*
X0057690Y0599770D01*
X0057630Y0599370D01*
X0057530Y0598990D01*
X0057390Y0598620D01*
X0057220Y0598270D01*
X0057010Y0597930D01*
X0056770Y0597620D01*
X0056500Y0597330D01*
X0056200Y0597080D01*
X0055870Y0596850D01*
X0055530Y0596660D01*
X0055160Y0596500D01*
X0054790Y0596380D01*
X0054400Y0596300D01*
X0054010Y0596270D01*
X0053610Y0596270D01*
X0053220Y0596300D01*
X0052830Y0596380D01*
X0052460Y0596500D01*
X0052090Y0596660D01*
X0051750Y0596850D01*
X0051420Y0597080D01*
X0051120Y0597330D01*
X0050850Y0597620D01*
X0050610Y0597930D01*
X0050400Y0598270D01*
X0050230Y0598620D01*
X0050090Y0598990D01*
X0049990Y0599370D01*
X0049930Y0599770D01*
X0049910Y0600160D01*
X0038000Y0600160D02*
X0046000Y0600160D01*
X0042000Y0596160D02*
X0042000Y0604160D01*
X0038100Y0600160D02*
X0038120Y0600550D01*
X0038180Y0600950D01*
X0038280Y0601330D01*
X0038420Y0601700D01*
X0038590Y0602050D01*
X0038800Y0602390D01*
X0039040Y0602700D01*
X0039310Y0602990D01*
X0039610Y0603240D01*
X0039940Y0603470D01*
X0040280Y0603660D01*
X0040650Y0603820D01*
X0041020Y0603940D01*
X0041410Y0604020D01*
X0041800Y0604050D01*
X0042200Y0604050D01*
X0042590Y0604020D01*
X0042980Y0603940D01*
X0043350Y0603820D01*
X0043720Y0603660D01*
X0044060Y0603470D01*
X0044390Y0603240D01*
X0044690Y0602990D01*
X0044960Y0602700D01*
X0045200Y0602390D01*
X0045410Y0602050D01*
X0045580Y0601700D01*
X0045720Y0601330D01*
X0045820Y0600950D01*
X0045880Y0600550D01*
X0045900Y0600160D01*
X0045880Y0599770D01*
X0045820Y0599370D01*
X0045720Y0598990D01*
X0045580Y0598620D01*
X0045410Y0598270D01*
X0045200Y0597930D01*
X0044960Y0597620D01*
X0044690Y0597330D01*
X0044390Y0597080D01*
X0044060Y0596850D01*
X0043720Y0596660D01*
X0043350Y0596500D01*
X0042980Y0596380D01*
X0042590Y0596300D01*
X0042200Y0596270D01*
X0041800Y0596270D01*
X0041410Y0596300D01*
X0041020Y0596380D01*
X0040650Y0596500D01*
X0040280Y0596660D01*
X0039940Y0596850D01*
X0039610Y0597080D01*
X0039310Y0597330D01*
X0039040Y0597620D01*
X0038800Y0597930D01*
X0038590Y0598270D01*
X0038420Y0598620D01*
X0038280Y0598990D01*
X0038180Y0599370D01*
X0038120Y0599770D01*
X0038100Y0600160D01*
X0038000Y0588340D02*
X0046000Y0588340D01*
X0042000Y0584340D02*
X0042000Y0592340D01*
X0038100Y0588340D02*
X0038120Y0588730D01*
X0038180Y0589130D01*
X0038280Y0589510D01*
X0038420Y0589880D01*
X0038590Y0590230D01*
X0038800Y0590570D01*
X0039040Y0590880D01*
X0039310Y0591170D01*
X0039610Y0591420D01*
X0039940Y0591650D01*
X0040280Y0591840D01*
X0040650Y0592000D01*
X0041020Y0592120D01*
X0041410Y0592200D01*
X0041800Y0592230D01*
X0042200Y0592230D01*
X0042590Y0592200D01*
X0042980Y0592120D01*
X0043350Y0592000D01*
X0043720Y0591840D01*
X0044060Y0591650D01*
X0044390Y0591420D01*
X0044690Y0591170D01*
X0044960Y0590880D01*
X0045200Y0590570D01*
X0045410Y0590230D01*
X0045580Y0589880D01*
X0045720Y0589510D01*
X0045820Y0589130D01*
X0045880Y0588730D01*
X0045900Y0588340D01*
X0045880Y0587950D01*
X0045820Y0587550D01*
X0045720Y0587170D01*
X0045580Y0586800D01*
X0045410Y0586450D01*
X0045200Y0586110D01*
X0044960Y0585800D01*
X0044690Y0585510D01*
X0044390Y0585260D01*
X0044060Y0585030D01*
X0043720Y0584840D01*
X0043350Y0584680D01*
X0042980Y0584560D01*
X0042590Y0584480D01*
X0042200Y0584450D01*
X0041800Y0584450D01*
X0041410Y0584480D01*
X0041020Y0584560D01*
X0040650Y0584680D01*
X0040280Y0584840D01*
X0039940Y0585030D01*
X0039610Y0585260D01*
X0039310Y0585510D01*
X0039040Y0585800D01*
X0038800Y0586110D01*
X0038590Y0586450D01*
X0038420Y0586800D01*
X0038280Y0587170D01*
X0038180Y0587550D01*
X0038120Y0587950D01*
X0038100Y0588340D01*
X0049810Y0588340D02*
X0057810Y0588340D01*
X0053810Y0584340D02*
X0053810Y0592340D01*
X0049910Y0588340D02*
X0049930Y0588730D01*
X0049990Y0589130D01*
X0050090Y0589510D01*
X0050230Y0589880D01*
X0050400Y0590230D01*
X0050610Y0590570D01*
X0050850Y0590880D01*
X0051120Y0591170D01*
X0051420Y0591420D01*
X0051750Y0591650D01*
X0052090Y0591840D01*
X0052460Y0592000D01*
X0052830Y0592120D01*
X0053220Y0592200D01*
X0053610Y0592230D01*
X0054010Y0592230D01*
X0054400Y0592200D01*
X0054790Y0592120D01*
X0055160Y0592000D01*
X0055530Y0591840D01*
X0055870Y0591650D01*
X0056200Y0591420D01*
X0056500Y0591170D01*
X0056770Y0590880D01*
X0057010Y0590570D01*
X0057220Y0590230D01*
X0057390Y0589880D01*
X0057530Y0589510D01*
X0057630Y0589130D01*
X0057690Y0588730D01*
X0057710Y0588340D01*
X0057690Y0587950D01*
X0057630Y0587550D01*
X0057530Y0587170D01*
X0057390Y0586800D01*
X0057220Y0586450D01*
X0057010Y0586110D01*
X0056770Y0585800D01*
X0056500Y0585510D01*
X0056200Y0585260D01*
X0055870Y0585030D01*
X0055530Y0584840D01*
X0055160Y0584680D01*
X0054790Y0584560D01*
X0054400Y0584480D01*
X0054010Y0584450D01*
X0053610Y0584450D01*
X0053220Y0584480D01*
X0052830Y0584560D01*
X0052460Y0584680D01*
X0052090Y0584840D01*
X0051750Y0585030D01*
X0051420Y0585260D01*
X0051120Y0585510D01*
X0050850Y0585800D01*
X0050610Y0586110D01*
X0050400Y0586450D01*
X0050230Y0586800D01*
X0050090Y0587170D01*
X0049990Y0587550D01*
X0049930Y0587950D01*
X0049910Y0588340D01*
X0049810Y0555160D02*
X0057810Y0555160D01*
X0053810Y0551160D02*
X0053810Y0559160D01*
X0049910Y0555160D02*
X0049930Y0555550D01*
X0049990Y0555950D01*
X0050090Y0556330D01*
X0050230Y0556700D01*
X0050400Y0557050D01*
X0050610Y0557390D01*
X0050850Y0557700D01*
X0051120Y0557990D01*
X0051420Y0558240D01*
X0051750Y0558470D01*
X0052090Y0558660D01*
X0052460Y0558820D01*
X0052830Y0558940D01*
X0053220Y0559020D01*
X0053610Y0559050D01*
X0054010Y0559050D01*
X0054400Y0559020D01*
X0054790Y0558940D01*
X0055160Y0558820D01*
X0055530Y0558660D01*
X0055870Y0558470D01*
X0056200Y0558240D01*
X0056500Y0557990D01*
X0056770Y0557700D01*
X0057010Y0557390D01*
X0057220Y0557050D01*
X0057390Y0556700D01*
X0057530Y0556330D01*
X0057630Y0555950D01*
X0057690Y0555550D01*
X0057710Y0555160D01*
X0057690Y0554770D01*
X0057630Y0554370D01*
X0057530Y0553990D01*
X0057390Y0553620D01*
X0057220Y0553270D01*
X0057010Y0552930D01*
X0056770Y0552620D01*
X0056500Y0552330D01*
X0056200Y0552080D01*
X0055870Y0551850D01*
X0055530Y0551660D01*
X0055160Y0551500D01*
X0054790Y0551380D01*
X0054400Y0551300D01*
X0054010Y0551270D01*
X0053610Y0551270D01*
X0053220Y0551300D01*
X0052830Y0551380D01*
X0052460Y0551500D01*
X0052090Y0551660D01*
X0051750Y0551850D01*
X0051420Y0552080D01*
X0051120Y0552330D01*
X0050850Y0552620D01*
X0050610Y0552930D01*
X0050400Y0553270D01*
X0050230Y0553620D01*
X0050090Y0553990D01*
X0049990Y0554370D01*
X0049930Y0554770D01*
X0049910Y0555160D01*
X0038000Y0555160D02*
X0046000Y0555160D01*
X0042000Y0551160D02*
X0042000Y0559160D01*
X0038100Y0555160D02*
X0038120Y0555550D01*
X0038180Y0555950D01*
X0038280Y0556330D01*
X0038420Y0556700D01*
X0038590Y0557050D01*
X0038800Y0557390D01*
X0039040Y0557700D01*
X0039310Y0557990D01*
X0039610Y0558240D01*
X0039940Y0558470D01*
X0040280Y0558660D01*
X0040650Y0558820D01*
X0041020Y0558940D01*
X0041410Y0559020D01*
X0041800Y0559050D01*
X0042200Y0559050D01*
X0042590Y0559020D01*
X0042980Y0558940D01*
X0043350Y0558820D01*
X0043720Y0558660D01*
X0044060Y0558470D01*
X0044390Y0558240D01*
X0044690Y0557990D01*
X0044960Y0557700D01*
X0045200Y0557390D01*
X0045410Y0557050D01*
X0045580Y0556700D01*
X0045720Y0556330D01*
X0045820Y0555950D01*
X0045880Y0555550D01*
X0045900Y0555160D01*
X0045880Y0554770D01*
X0045820Y0554370D01*
X0045720Y0553990D01*
X0045580Y0553620D01*
X0045410Y0553270D01*
X0045200Y0552930D01*
X0044960Y0552620D01*
X0044690Y0552330D01*
X0044390Y0552080D01*
X0044060Y0551850D01*
X0043720Y0551660D01*
X0043350Y0551500D01*
X0042980Y0551380D01*
X0042590Y0551300D01*
X0042200Y0551270D01*
X0041800Y0551270D01*
X0041410Y0551300D01*
X0041020Y0551380D01*
X0040650Y0551500D01*
X0040280Y0551660D01*
X0039940Y0551850D01*
X0039610Y0552080D01*
X0039310Y0552330D01*
X0039040Y0552620D01*
X0038800Y0552930D01*
X0038590Y0553270D01*
X0038420Y0553620D01*
X0038280Y0553990D01*
X0038180Y0554370D01*
X0038120Y0554770D01*
X0038100Y0555160D01*
X0038000Y0543340D02*
X0046000Y0543340D01*
X0042000Y0539340D02*
X0042000Y0547340D01*
X0038100Y0543340D02*
X0038120Y0543730D01*
X0038180Y0544130D01*
X0038280Y0544510D01*
X0038420Y0544880D01*
X0038590Y0545230D01*
X0038800Y0545570D01*
X0039040Y0545880D01*
X0039310Y0546170D01*
X0039610Y0546420D01*
X0039940Y0546650D01*
X0040280Y0546840D01*
X0040650Y0547000D01*
X0041020Y0547120D01*
X0041410Y0547200D01*
X0041800Y0547230D01*
X0042200Y0547230D01*
X0042590Y0547200D01*
X0042980Y0547120D01*
X0043350Y0547000D01*
X0043720Y0546840D01*
X0044060Y0546650D01*
X0044390Y0546420D01*
X0044690Y0546170D01*
X0044960Y0545880D01*
X0045200Y0545570D01*
X0045410Y0545230D01*
X0045580Y0544880D01*
X0045720Y0544510D01*
X0045820Y0544130D01*
X0045880Y0543730D01*
X0045900Y0543340D01*
X0045880Y0542950D01*
X0045820Y0542550D01*
X0045720Y0542170D01*
X0045580Y0541800D01*
X0045410Y0541450D01*
X0045200Y0541110D01*
X0044960Y0540800D01*
X0044690Y0540510D01*
X0044390Y0540260D01*
X0044060Y0540030D01*
X0043720Y0539840D01*
X0043350Y0539680D01*
X0042980Y0539560D01*
X0042590Y0539480D01*
X0042200Y0539450D01*
X0041800Y0539450D01*
X0041410Y0539480D01*
X0041020Y0539560D01*
X0040650Y0539680D01*
X0040280Y0539840D01*
X0039940Y0540030D01*
X0039610Y0540260D01*
X0039310Y0540510D01*
X0039040Y0540800D01*
X0038800Y0541110D01*
X0038590Y0541450D01*
X0038420Y0541800D01*
X0038280Y0542170D01*
X0038180Y0542550D01*
X0038120Y0542950D01*
X0038100Y0543340D01*
X0049810Y0543340D02*
X0057810Y0543340D01*
X0053810Y0539340D02*
X0053810Y0547340D01*
X0049910Y0543340D02*
X0049930Y0543730D01*
X0049990Y0544130D01*
X0050090Y0544510D01*
X0050230Y0544880D01*
X0050400Y0545230D01*
X0050610Y0545570D01*
X0050850Y0545880D01*
X0051120Y0546170D01*
X0051420Y0546420D01*
X0051750Y0546650D01*
X0052090Y0546840D01*
X0052460Y0547000D01*
X0052830Y0547120D01*
X0053220Y0547200D01*
X0053610Y0547230D01*
X0054010Y0547230D01*
X0054400Y0547200D01*
X0054790Y0547120D01*
X0055160Y0547000D01*
X0055530Y0546840D01*
X0055870Y0546650D01*
X0056200Y0546420D01*
X0056500Y0546170D01*
X0056770Y0545880D01*
X0057010Y0545570D01*
X0057220Y0545230D01*
X0057390Y0544880D01*
X0057530Y0544510D01*
X0057630Y0544130D01*
X0057690Y0543730D01*
X0057710Y0543340D01*
X0057690Y0542950D01*
X0057630Y0542550D01*
X0057530Y0542170D01*
X0057390Y0541800D01*
X0057220Y0541450D01*
X0057010Y0541110D01*
X0056770Y0540800D01*
X0056500Y0540510D01*
X0056200Y0540260D01*
X0055870Y0540030D01*
X0055530Y0539840D01*
X0055160Y0539680D01*
X0054790Y0539560D01*
X0054400Y0539480D01*
X0054010Y0539450D01*
X0053610Y0539450D01*
X0053220Y0539480D01*
X0052830Y0539560D01*
X0052460Y0539680D01*
X0052090Y0539840D01*
X0051750Y0540030D01*
X0051420Y0540260D01*
X0051120Y0540510D01*
X0050850Y0540800D01*
X0050610Y0541110D01*
X0050400Y0541450D01*
X0050230Y0541800D01*
X0050090Y0542170D01*
X0049990Y0542550D01*
X0049930Y0542950D01*
X0049910Y0543340D01*
X0049810Y0510160D02*
X0057810Y0510160D01*
X0053810Y0506160D02*
X0053810Y0514160D01*
X0049910Y0510160D02*
X0049930Y0510550D01*
X0049990Y0510950D01*
X0050090Y0511330D01*
X0050230Y0511700D01*
X0050400Y0512050D01*
X0050610Y0512390D01*
X0050850Y0512700D01*
X0051120Y0512990D01*
X0051420Y0513240D01*
X0051750Y0513470D01*
X0052090Y0513660D01*
X0052460Y0513820D01*
X0052830Y0513940D01*
X0053220Y0514020D01*
X0053610Y0514050D01*
X0054010Y0514050D01*
X0054400Y0514020D01*
X0054790Y0513940D01*
X0055160Y0513820D01*
X0055530Y0513660D01*
X0055870Y0513470D01*
X0056200Y0513240D01*
X0056500Y0512990D01*
X0056770Y0512700D01*
X0057010Y0512390D01*
X0057220Y0512050D01*
X0057390Y0511700D01*
X0057530Y0511330D01*
X0057630Y0510950D01*
X0057690Y0510550D01*
X0057710Y0510160D01*
X0057690Y0509770D01*
X0057630Y0509370D01*
X0057530Y0508990D01*
X0057390Y0508620D01*
X0057220Y0508270D01*
X0057010Y0507930D01*
X0056770Y0507620D01*
X0056500Y0507330D01*
X0056200Y0507080D01*
X0055870Y0506850D01*
X0055530Y0506660D01*
X0055160Y0506500D01*
X0054790Y0506380D01*
X0054400Y0506300D01*
X0054010Y0506270D01*
X0053610Y0506270D01*
X0053220Y0506300D01*
X0052830Y0506380D01*
X0052460Y0506500D01*
X0052090Y0506660D01*
X0051750Y0506850D01*
X0051420Y0507080D01*
X0051120Y0507330D01*
X0050850Y0507620D01*
X0050610Y0507930D01*
X0050400Y0508270D01*
X0050230Y0508620D01*
X0050090Y0508990D01*
X0049990Y0509370D01*
X0049930Y0509770D01*
X0049910Y0510160D01*
X0038000Y0510160D02*
X0046000Y0510160D01*
X0042000Y0506160D02*
X0042000Y0514160D01*
X0038100Y0510160D02*
X0038120Y0510550D01*
X0038180Y0510950D01*
X0038280Y0511330D01*
X0038420Y0511700D01*
X0038590Y0512050D01*
X0038800Y0512390D01*
X0039040Y0512700D01*
X0039310Y0512990D01*
X0039610Y0513240D01*
X0039940Y0513470D01*
X0040280Y0513660D01*
X0040650Y0513820D01*
X0041020Y0513940D01*
X0041410Y0514020D01*
X0041800Y0514050D01*
X0042200Y0514050D01*
X0042590Y0514020D01*
X0042980Y0513940D01*
X0043350Y0513820D01*
X0043720Y0513660D01*
X0044060Y0513470D01*
X0044390Y0513240D01*
X0044690Y0512990D01*
X0044960Y0512700D01*
X0045200Y0512390D01*
X0045410Y0512050D01*
X0045580Y0511700D01*
X0045720Y0511330D01*
X0045820Y0510950D01*
X0045880Y0510550D01*
X0045900Y0510160D01*
X0045880Y0509770D01*
X0045820Y0509370D01*
X0045720Y0508990D01*
X0045580Y0508620D01*
X0045410Y0508270D01*
X0045200Y0507930D01*
X0044960Y0507620D01*
X0044690Y0507330D01*
X0044390Y0507080D01*
X0044060Y0506850D01*
X0043720Y0506660D01*
X0043350Y0506500D01*
X0042980Y0506380D01*
X0042590Y0506300D01*
X0042200Y0506270D01*
X0041800Y0506270D01*
X0041410Y0506300D01*
X0041020Y0506380D01*
X0040650Y0506500D01*
X0040280Y0506660D01*
X0039940Y0506850D01*
X0039610Y0507080D01*
X0039310Y0507330D01*
X0039040Y0507620D01*
X0038800Y0507930D01*
X0038590Y0508270D01*
X0038420Y0508620D01*
X0038280Y0508990D01*
X0038180Y0509370D01*
X0038120Y0509770D01*
X0038100Y0510160D01*
X0038000Y0498340D02*
X0046000Y0498340D01*
X0042000Y0494340D02*
X0042000Y0502340D01*
X0038100Y0498340D02*
X0038120Y0498730D01*
X0038180Y0499130D01*
X0038280Y0499510D01*
X0038420Y0499880D01*
X0038590Y0500230D01*
X0038800Y0500570D01*
X0039040Y0500880D01*
X0039310Y0501170D01*
X0039610Y0501420D01*
X0039940Y0501650D01*
X0040280Y0501840D01*
X0040650Y0502000D01*
X0041020Y0502120D01*
X0041410Y0502200D01*
X0041800Y0502230D01*
X0042200Y0502230D01*
X0042590Y0502200D01*
X0042980Y0502120D01*
X0043350Y0502000D01*
X0043720Y0501840D01*
X0044060Y0501650D01*
X0044390Y0501420D01*
X0044690Y0501170D01*
X0044960Y0500880D01*
X0045200Y0500570D01*
X0045410Y0500230D01*
X0045580Y0499880D01*
X0045720Y0499510D01*
X0045820Y0499130D01*
X0045880Y0498730D01*
X0045900Y0498340D01*
X0045880Y0497950D01*
X0045820Y0497550D01*
X0045720Y0497170D01*
X0045580Y0496800D01*
X0045410Y0496450D01*
X0045200Y0496110D01*
X0044960Y0495800D01*
X0044690Y0495510D01*
X0044390Y0495260D01*
X0044060Y0495030D01*
X0043720Y0494840D01*
X0043350Y0494680D01*
X0042980Y0494560D01*
X0042590Y0494480D01*
X0042200Y0494450D01*
X0041800Y0494450D01*
X0041410Y0494480D01*
X0041020Y0494560D01*
X0040650Y0494680D01*
X0040280Y0494840D01*
X0039940Y0495030D01*
X0039610Y0495260D01*
X0039310Y0495510D01*
X0039040Y0495800D01*
X0038800Y0496110D01*
X0038590Y0496450D01*
X0038420Y0496800D01*
X0038280Y0497170D01*
X0038180Y0497550D01*
X0038120Y0497950D01*
X0038100Y0498340D01*
X0049810Y0498340D02*
X0057810Y0498340D01*
X0053810Y0494340D02*
X0053810Y0502340D01*
X0049910Y0498340D02*
X0049930Y0498730D01*
X0049990Y0499130D01*
X0050090Y0499510D01*
X0050230Y0499880D01*
X0050400Y0500230D01*
X0050610Y0500570D01*
X0050850Y0500880D01*
X0051120Y0501170D01*
X0051420Y0501420D01*
X0051750Y0501650D01*
X0052090Y0501840D01*
X0052460Y0502000D01*
X0052830Y0502120D01*
X0053220Y0502200D01*
X0053610Y0502230D01*
X0054010Y0502230D01*
X0054400Y0502200D01*
X0054790Y0502120D01*
X0055160Y0502000D01*
X0055530Y0501840D01*
X0055870Y0501650D01*
X0056200Y0501420D01*
X0056500Y0501170D01*
X0056770Y0500880D01*
X0057010Y0500570D01*
X0057220Y0500230D01*
X0057390Y0499880D01*
X0057530Y0499510D01*
X0057630Y0499130D01*
X0057690Y0498730D01*
X0057710Y0498340D01*
X0057690Y0497950D01*
X0057630Y0497550D01*
X0057530Y0497170D01*
X0057390Y0496800D01*
X0057220Y0496450D01*
X0057010Y0496110D01*
X0056770Y0495800D01*
X0056500Y0495510D01*
X0056200Y0495260D01*
X0055870Y0495030D01*
X0055530Y0494840D01*
X0055160Y0494680D01*
X0054790Y0494560D01*
X0054400Y0494480D01*
X0054010Y0494450D01*
X0053610Y0494450D01*
X0053220Y0494480D01*
X0052830Y0494560D01*
X0052460Y0494680D01*
X0052090Y0494840D01*
X0051750Y0495030D01*
X0051420Y0495260D01*
X0051120Y0495510D01*
X0050850Y0495800D01*
X0050610Y0496110D01*
X0050400Y0496450D01*
X0050230Y0496800D01*
X0050090Y0497170D01*
X0049990Y0497550D01*
X0049930Y0497950D01*
X0049910Y0498340D01*
X0234680Y0446750D02*
X0242680Y0446750D01*
X0238680Y0442750D02*
X0238680Y0450750D01*
X0234780Y0446750D02*
X0234800Y0447140D01*
X0234860Y0447540D01*
X0234960Y0447920D01*
X0235100Y0448290D01*
X0235270Y0448640D01*
X0235480Y0448980D01*
X0235720Y0449290D01*
X0235990Y0449580D01*
X0236290Y0449830D01*
X0236620Y0450060D01*
X0236960Y0450250D01*
X0237330Y0450410D01*
X0237700Y0450530D01*
X0238090Y0450610D01*
X0238480Y0450640D01*
X0238880Y0450640D01*
X0239270Y0450610D01*
X0239660Y0450530D01*
X0240030Y0450410D01*
X0240400Y0450250D01*
X0240740Y0450060D01*
X0241070Y0449830D01*
X0241370Y0449580D01*
X0241640Y0449290D01*
X0241880Y0448980D01*
X0242090Y0448640D01*
X0242260Y0448290D01*
X0242400Y0447920D01*
X0242500Y0447540D01*
X0242560Y0447140D01*
X0242580Y0446750D01*
X0242560Y0446360D01*
X0242500Y0445960D01*
X0242400Y0445580D01*
X0242260Y0445210D01*
X0242090Y0444860D01*
X0241880Y0444520D01*
X0241640Y0444210D01*
X0241370Y0443920D01*
X0241070Y0443670D01*
X0240740Y0443440D01*
X0240400Y0443250D01*
X0240030Y0443090D01*
X0239660Y0442970D01*
X0239270Y0442890D01*
X0238880Y0442860D01*
X0238480Y0442860D01*
X0238090Y0442890D01*
X0237700Y0442970D01*
X0237330Y0443090D01*
X0236960Y0443250D01*
X0236620Y0443440D01*
X0236290Y0443670D01*
X0235990Y0443920D01*
X0235720Y0444210D01*
X0235480Y0444520D01*
X0235270Y0444860D01*
X0235100Y0445210D01*
X0234960Y0445580D01*
X0234860Y0445960D01*
X0234800Y0446360D01*
X0234780Y0446750D01*
X0246490Y0446750D02*
X0254490Y0446750D01*
X0250490Y0442750D02*
X0250490Y0450750D01*
X0246590Y0446750D02*
X0246610Y0447140D01*
X0246670Y0447540D01*
X0246770Y0447920D01*
X0246910Y0448290D01*
X0247080Y0448640D01*
X0247290Y0448980D01*
X0247530Y0449290D01*
X0247800Y0449580D01*
X0248100Y0449830D01*
X0248430Y0450060D01*
X0248770Y0450250D01*
X0249140Y0450410D01*
X0249510Y0450530D01*
X0249900Y0450610D01*
X0250290Y0450640D01*
X0250690Y0450640D01*
X0251080Y0450610D01*
X0251470Y0450530D01*
X0251840Y0450410D01*
X0252210Y0450250D01*
X0252550Y0450060D01*
X0252880Y0449830D01*
X0253180Y0449580D01*
X0253450Y0449290D01*
X0253690Y0448980D01*
X0253900Y0448640D01*
X0254070Y0448290D01*
X0254210Y0447920D01*
X0254310Y0447540D01*
X0254370Y0447140D01*
X0254390Y0446750D01*
X0254370Y0446360D01*
X0254310Y0445960D01*
X0254210Y0445580D01*
X0254070Y0445210D01*
X0253900Y0444860D01*
X0253690Y0444520D01*
X0253450Y0444210D01*
X0253180Y0443920D01*
X0252880Y0443670D01*
X0252550Y0443440D01*
X0252210Y0443250D01*
X0251840Y0443090D01*
X0251470Y0442970D01*
X0251080Y0442890D01*
X0250690Y0442860D01*
X0250290Y0442860D01*
X0249900Y0442890D01*
X0249510Y0442970D01*
X0249140Y0443090D01*
X0248770Y0443250D01*
X0248430Y0443440D01*
X0248100Y0443670D01*
X0247800Y0443920D01*
X0247530Y0444210D01*
X0247290Y0444520D01*
X0247080Y0444860D01*
X0246910Y0445210D01*
X0246770Y0445580D01*
X0246670Y0445960D01*
X0246610Y0446360D01*
X0246590Y0446750D01*
X0056000Y0720810D02*
X0064000Y0720810D01*
X0060000Y0716810D02*
X0060000Y0724810D01*
X0056100Y0720810D02*
X0056120Y0721200D01*
X0056180Y0721600D01*
X0056280Y0721980D01*
X0056420Y0722350D01*
X0056590Y0722700D01*
X0056800Y0723040D01*
X0057040Y0723350D01*
X0057310Y0723640D01*
X0057610Y0723890D01*
X0057940Y0724120D01*
X0058280Y0724310D01*
X0058650Y0724470D01*
X0059020Y0724590D01*
X0059410Y0724670D01*
X0059800Y0724700D01*
X0060200Y0724700D01*
X0060590Y0724670D01*
X0060980Y0724590D01*
X0061350Y0724470D01*
X0061720Y0724310D01*
X0062060Y0724120D01*
X0062390Y0723890D01*
X0062690Y0723640D01*
X0062960Y0723350D01*
X0063200Y0723040D01*
X0063410Y0722700D01*
X0063580Y0722350D01*
X0063720Y0721980D01*
X0063820Y0721600D01*
X0063880Y0721200D01*
X0063900Y0720810D01*
X0063880Y0720420D01*
X0063820Y0720020D01*
X0063720Y0719640D01*
X0063580Y0719270D01*
X0063410Y0718920D01*
X0063200Y0718580D01*
X0062960Y0718270D01*
X0062690Y0717980D01*
X0062390Y0717730D01*
X0062060Y0717500D01*
X0061720Y0717310D01*
X0061350Y0717150D01*
X0060980Y0717030D01*
X0060590Y0716950D01*
X0060200Y0716920D01*
X0059800Y0716920D01*
X0059410Y0716950D01*
X0059020Y0717030D01*
X0058650Y0717150D01*
X0058280Y0717310D01*
X0057940Y0717500D01*
X0057610Y0717730D01*
X0057310Y0717980D01*
X0057040Y0718270D01*
X0056800Y0718580D01*
X0056590Y0718920D01*
X0056420Y0719270D01*
X0056280Y0719640D01*
X0056180Y0720020D01*
X0056120Y0720420D01*
X0056100Y0720810D01*
X0016000Y0720810D02*
X0024000Y0720810D01*
X0020000Y0716810D02*
X0020000Y0724810D01*
X0016100Y0720810D02*
X0016120Y0721200D01*
X0016180Y0721600D01*
X0016280Y0721980D01*
X0016420Y0722350D01*
X0016590Y0722700D01*
X0016800Y0723040D01*
X0017040Y0723350D01*
X0017310Y0723640D01*
X0017610Y0723890D01*
X0017940Y0724120D01*
X0018280Y0724310D01*
X0018650Y0724470D01*
X0019020Y0724590D01*
X0019410Y0724670D01*
X0019800Y0724700D01*
X0020200Y0724700D01*
X0020590Y0724670D01*
X0020980Y0724590D01*
X0021350Y0724470D01*
X0021720Y0724310D01*
X0022060Y0724120D01*
X0022390Y0723890D01*
X0022690Y0723640D01*
X0022960Y0723350D01*
X0023200Y0723040D01*
X0023410Y0722700D01*
X0023580Y0722350D01*
X0023720Y0721980D01*
X0023820Y0721600D01*
X0023880Y0721200D01*
X0023900Y0720810D01*
X0023880Y0720420D01*
X0023820Y0720020D01*
X0023720Y0719640D01*
X0023580Y0719270D01*
X0023410Y0718920D01*
X0023200Y0718580D01*
X0022960Y0718270D01*
X0022690Y0717980D01*
X0022390Y0717730D01*
X0022060Y0717500D01*
X0021720Y0717310D01*
X0021350Y0717150D01*
X0020980Y0717030D01*
X0020590Y0716950D01*
X0020200Y0716920D01*
X0019800Y0716920D01*
X0019410Y0716950D01*
X0019020Y0717030D01*
X0018650Y0717150D01*
X0018280Y0717310D01*
X0017940Y0717500D01*
X0017610Y0717730D01*
X0017310Y0717980D01*
X0017040Y0718270D01*
X0016800Y0718580D01*
X0016590Y0718920D01*
X0016420Y0719270D01*
X0016280Y0719640D01*
X0016180Y0720020D01*
X0016120Y0720420D01*
X0016100Y0720810D01*
X0054820Y0684900D02*
X0062820Y0684900D01*
X0058820Y0680900D02*
X0058820Y0688900D01*
X0054920Y0684900D02*
X0054940Y0685290D01*
X0055000Y0685690D01*
X0055100Y0686070D01*
X0055240Y0686440D01*
X0055410Y0686790D01*
X0055620Y0687130D01*
X0055860Y0687440D01*
X0056130Y0687730D01*
X0056430Y0687980D01*
X0056760Y0688210D01*
X0057100Y0688400D01*
X0057470Y0688560D01*
X0057840Y0688680D01*
X0058230Y0688760D01*
X0058620Y0688790D01*
X0059020Y0688790D01*
X0059410Y0688760D01*
X0059800Y0688680D01*
X0060170Y0688560D01*
X0060540Y0688400D01*
X0060880Y0688210D01*
X0061210Y0687980D01*
X0061510Y0687730D01*
X0061780Y0687440D01*
X0062020Y0687130D01*
X0062230Y0686790D01*
X0062400Y0686440D01*
X0062540Y0686070D01*
X0062640Y0685690D01*
X0062700Y0685290D01*
X0062720Y0684900D01*
X0062700Y0684510D01*
X0062640Y0684110D01*
X0062540Y0683730D01*
X0062400Y0683360D01*
X0062230Y0683010D01*
X0062020Y0682670D01*
X0061780Y0682360D01*
X0061510Y0682070D01*
X0061210Y0681820D01*
X0060880Y0681590D01*
X0060540Y0681400D01*
X0060170Y0681240D01*
X0059800Y0681120D01*
X0059410Y0681040D01*
X0059020Y0681010D01*
X0058620Y0681010D01*
X0058230Y0681040D01*
X0057840Y0681120D01*
X0057470Y0681240D01*
X0057100Y0681400D01*
X0056760Y0681590D01*
X0056430Y0681820D01*
X0056130Y0682070D01*
X0055860Y0682360D01*
X0055620Y0682670D01*
X0055410Y0683010D01*
X0055240Y0683360D01*
X0055100Y0683730D01*
X0055000Y0684110D01*
X0054940Y0684510D01*
X0054920Y0684900D01*
X0043010Y0684900D02*
X0051010Y0684900D01*
X0047010Y0680900D02*
X0047010Y0688900D01*
X0043110Y0684900D02*
X0043130Y0685290D01*
X0043190Y0685690D01*
X0043290Y0686070D01*
X0043430Y0686440D01*
X0043600Y0686790D01*
X0043810Y0687130D01*
X0044050Y0687440D01*
X0044320Y0687730D01*
X0044620Y0687980D01*
X0044950Y0688210D01*
X0045290Y0688400D01*
X0045660Y0688560D01*
X0046030Y0688680D01*
X0046420Y0688760D01*
X0046810Y0688790D01*
X0047210Y0688790D01*
X0047600Y0688760D01*
X0047990Y0688680D01*
X0048360Y0688560D01*
X0048730Y0688400D01*
X0049070Y0688210D01*
X0049400Y0687980D01*
X0049700Y0687730D01*
X0049970Y0687440D01*
X0050210Y0687130D01*
X0050420Y0686790D01*
X0050590Y0686440D01*
X0050730Y0686070D01*
X0050830Y0685690D01*
X0050890Y0685290D01*
X0050910Y0684900D01*
X0050890Y0684510D01*
X0050830Y0684110D01*
X0050730Y0683730D01*
X0050590Y0683360D01*
X0050420Y0683010D01*
X0050210Y0682670D01*
X0049970Y0682360D01*
X0049700Y0682070D01*
X0049400Y0681820D01*
X0049070Y0681590D01*
X0048730Y0681400D01*
X0048360Y0681240D01*
X0047990Y0681120D01*
X0047600Y0681040D01*
X0047210Y0681010D01*
X0046810Y0681010D01*
X0046420Y0681040D01*
X0046030Y0681120D01*
X0045660Y0681240D01*
X0045290Y0681400D01*
X0044950Y0681590D01*
X0044620Y0681820D01*
X0044320Y0682070D01*
X0044050Y0682360D01*
X0043810Y0682670D01*
X0043600Y0683010D01*
X0043430Y0683360D01*
X0043290Y0683730D01*
X0043190Y0684110D01*
X0043130Y0684510D01*
X0043110Y0684900D01*
X0043010Y0696720D02*
X0051010Y0696720D01*
X0047010Y0692720D02*
X0047010Y0700720D01*
X0043110Y0696720D02*
X0043130Y0697110D01*
X0043190Y0697510D01*
X0043290Y0697890D01*
X0043430Y0698260D01*
X0043600Y0698610D01*
X0043810Y0698950D01*
X0044050Y0699260D01*
X0044320Y0699550D01*
X0044620Y0699800D01*
X0044950Y0700030D01*
X0045290Y0700220D01*
X0045660Y0700380D01*
X0046030Y0700500D01*
X0046420Y0700580D01*
X0046810Y0700610D01*
X0047210Y0700610D01*
X0047600Y0700580D01*
X0047990Y0700500D01*
X0048360Y0700380D01*
X0048730Y0700220D01*
X0049070Y0700030D01*
X0049400Y0699800D01*
X0049700Y0699550D01*
X0049970Y0699260D01*
X0050210Y0698950D01*
X0050420Y0698610D01*
X0050590Y0698260D01*
X0050730Y0697890D01*
X0050830Y0697510D01*
X0050890Y0697110D01*
X0050910Y0696720D01*
X0050890Y0696330D01*
X0050830Y0695930D01*
X0050730Y0695550D01*
X0050590Y0695180D01*
X0050420Y0694830D01*
X0050210Y0694490D01*
X0049970Y0694180D01*
X0049700Y0693890D01*
X0049400Y0693640D01*
X0049070Y0693410D01*
X0048730Y0693220D01*
X0048360Y0693060D01*
X0047990Y0692940D01*
X0047600Y0692860D01*
X0047210Y0692830D01*
X0046810Y0692830D01*
X0046420Y0692860D01*
X0046030Y0692940D01*
X0045660Y0693060D01*
X0045290Y0693220D01*
X0044950Y0693410D01*
X0044620Y0693640D01*
X0044320Y0693890D01*
X0044050Y0694180D01*
X0043810Y0694490D01*
X0043600Y0694830D01*
X0043430Y0695180D01*
X0043290Y0695550D01*
X0043190Y0695930D01*
X0043130Y0696330D01*
X0043110Y0696720D01*
X0054820Y0696720D02*
X0062820Y0696720D01*
X0058820Y0692720D02*
X0058820Y0700720D01*
X0054920Y0696720D02*
X0054940Y0697110D01*
X0055000Y0697510D01*
X0055100Y0697890D01*
X0055240Y0698260D01*
X0055410Y0698610D01*
X0055620Y0698950D01*
X0055860Y0699260D01*
X0056130Y0699550D01*
X0056430Y0699800D01*
X0056760Y0700030D01*
X0057100Y0700220D01*
X0057470Y0700380D01*
X0057840Y0700500D01*
X0058230Y0700580D01*
X0058620Y0700610D01*
X0059020Y0700610D01*
X0059410Y0700580D01*
X0059800Y0700500D01*
X0060170Y0700380D01*
X0060540Y0700220D01*
X0060880Y0700030D01*
X0061210Y0699800D01*
X0061510Y0699550D01*
X0061780Y0699260D01*
X0062020Y0698950D01*
X0062230Y0698610D01*
X0062400Y0698260D01*
X0062540Y0697890D01*
X0062640Y0697510D01*
X0062700Y0697110D01*
X0062720Y0696720D01*
X0062700Y0696330D01*
X0062640Y0695930D01*
X0062540Y0695550D01*
X0062400Y0695180D01*
X0062230Y0694830D01*
X0062020Y0694490D01*
X0061780Y0694180D01*
X0061510Y0693890D01*
X0061210Y0693640D01*
X0060880Y0693410D01*
X0060540Y0693220D01*
X0060170Y0693060D01*
X0059800Y0692940D01*
X0059410Y0692860D01*
X0059020Y0692830D01*
X0058620Y0692830D01*
X0058230Y0692860D01*
X0057840Y0692940D01*
X0057470Y0693060D01*
X0057100Y0693220D01*
X0056760Y0693410D01*
X0056430Y0693640D01*
X0056130Y0693890D01*
X0055860Y0694180D01*
X0055620Y0694490D01*
X0055410Y0694830D01*
X0055240Y0695180D01*
X0055100Y0695550D01*
X0055000Y0695930D01*
X0054940Y0696330D01*
X0054920Y0696720D01*
X0234680Y0719000D02*
X0242680Y0719000D01*
X0238680Y0715000D02*
X0238680Y0723000D01*
X0234780Y0719000D02*
X0234800Y0719390D01*
X0234860Y0719790D01*
X0234960Y0720170D01*
X0235100Y0720540D01*
X0235270Y0720890D01*
X0235480Y0721230D01*
X0235720Y0721540D01*
X0235990Y0721830D01*
X0236290Y0722080D01*
X0236620Y0722310D01*
X0236960Y0722500D01*
X0237330Y0722660D01*
X0237700Y0722780D01*
X0238090Y0722860D01*
X0238480Y0722890D01*
X0238880Y0722890D01*
X0239270Y0722860D01*
X0239660Y0722780D01*
X0240030Y0722660D01*
X0240400Y0722500D01*
X0240740Y0722310D01*
X0241070Y0722080D01*
X0241370Y0721830D01*
X0241640Y0721540D01*
X0241880Y0721230D01*
X0242090Y0720890D01*
X0242260Y0720540D01*
X0242400Y0720170D01*
X0242500Y0719790D01*
X0242560Y0719390D01*
X0242580Y0719000D01*
X0242560Y0718610D01*
X0242500Y0718210D01*
X0242400Y0717830D01*
X0242260Y0717460D01*
X0242090Y0717110D01*
X0241880Y0716770D01*
X0241640Y0716460D01*
X0241370Y0716170D01*
X0241070Y0715920D01*
X0240740Y0715690D01*
X0240400Y0715500D01*
X0240030Y0715340D01*
X0239660Y0715220D01*
X0239270Y0715140D01*
X0238880Y0715110D01*
X0238480Y0715110D01*
X0238090Y0715140D01*
X0237700Y0715220D01*
X0237330Y0715340D01*
X0236960Y0715500D01*
X0236620Y0715690D01*
X0236290Y0715920D01*
X0235990Y0716170D01*
X0235720Y0716460D01*
X0235480Y0716770D01*
X0235270Y0717110D01*
X0235100Y0717460D01*
X0234960Y0717830D01*
X0234860Y0718210D01*
X0234800Y0718610D01*
X0234780Y0719000D01*
X0246490Y0719000D02*
X0254490Y0719000D01*
X0250490Y0715000D02*
X0250490Y0723000D01*
X0246590Y0719000D02*
X0246610Y0719390D01*
X0246670Y0719790D01*
X0246770Y0720170D01*
X0246910Y0720540D01*
X0247080Y0720890D01*
X0247290Y0721230D01*
X0247530Y0721540D01*
X0247800Y0721830D01*
X0248100Y0722080D01*
X0248430Y0722310D01*
X0248770Y0722500D01*
X0249140Y0722660D01*
X0249510Y0722780D01*
X0249900Y0722860D01*
X0250290Y0722890D01*
X0250690Y0722890D01*
X0251080Y0722860D01*
X0251470Y0722780D01*
X0251840Y0722660D01*
X0252210Y0722500D01*
X0252550Y0722310D01*
X0252880Y0722080D01*
X0253180Y0721830D01*
X0253450Y0721540D01*
X0253690Y0721230D01*
X0253900Y0720890D01*
X0254070Y0720540D01*
X0254210Y0720170D01*
X0254310Y0719790D01*
X0254370Y0719390D01*
X0254390Y0719000D01*
X0254370Y0718610D01*
X0254310Y0718210D01*
X0254210Y0717830D01*
X0254070Y0717460D01*
X0253900Y0717110D01*
X0253690Y0716770D01*
X0253450Y0716460D01*
X0253180Y0716170D01*
X0252880Y0715920D01*
X0252550Y0715690D01*
X0252210Y0715500D01*
X0251840Y0715340D01*
X0251470Y0715220D01*
X0251080Y0715140D01*
X0250690Y0715110D01*
X0250290Y0715110D01*
X0249900Y0715140D01*
X0249510Y0715220D01*
X0249140Y0715340D01*
X0248770Y0715500D01*
X0248430Y0715690D01*
X0248100Y0715920D01*
X0247800Y0716170D01*
X0247530Y0716460D01*
X0247290Y0716770D01*
X0247080Y0717110D01*
X0246910Y0717460D01*
X0246770Y0717830D01*
X0246670Y0718210D01*
X0246610Y0718610D01*
X0246590Y0719000D01*
X0246490Y0730810D02*
X0254490Y0730810D01*
X0250490Y0726810D02*
X0250490Y0734810D01*
X0246590Y0730810D02*
X0246610Y0731200D01*
X0246670Y0731600D01*
X0246770Y0731980D01*
X0246910Y0732350D01*
X0247080Y0732700D01*
X0247290Y0733040D01*
X0247530Y0733350D01*
X0247800Y0733640D01*
X0248100Y0733890D01*
X0248430Y0734120D01*
X0248770Y0734310D01*
X0249140Y0734470D01*
X0249510Y0734590D01*
X0249900Y0734670D01*
X0250290Y0734700D01*
X0250690Y0734700D01*
X0251080Y0734670D01*
X0251470Y0734590D01*
X0251840Y0734470D01*
X0252210Y0734310D01*
X0252550Y0734120D01*
X0252880Y0733890D01*
X0253180Y0733640D01*
X0253450Y0733350D01*
X0253690Y0733040D01*
X0253900Y0732700D01*
X0254070Y0732350D01*
X0254210Y0731980D01*
X0254310Y0731600D01*
X0254370Y0731200D01*
X0254390Y0730810D01*
X0254370Y0730420D01*
X0254310Y0730020D01*
X0254210Y0729640D01*
X0254070Y0729270D01*
X0253900Y0728920D01*
X0253690Y0728580D01*
X0253450Y0728270D01*
X0253180Y0727980D01*
X0252880Y0727730D01*
X0252550Y0727500D01*
X0252210Y0727310D01*
X0251840Y0727150D01*
X0251470Y0727030D01*
X0251080Y0726950D01*
X0250690Y0726920D01*
X0250290Y0726920D01*
X0249900Y0726950D01*
X0249510Y0727030D01*
X0249140Y0727150D01*
X0248770Y0727310D01*
X0248430Y0727500D01*
X0248100Y0727730D01*
X0247800Y0727980D01*
X0247530Y0728270D01*
X0247290Y0728580D01*
X0247080Y0728920D01*
X0246910Y0729270D01*
X0246770Y0729640D01*
X0246670Y0730020D01*
X0246610Y0730420D01*
X0246590Y0730810D01*
X0234680Y0730810D02*
X0242680Y0730810D01*
X0238680Y0726810D02*
X0238680Y0734810D01*
X0234780Y0730810D02*
X0234800Y0731200D01*
X0234860Y0731600D01*
X0234960Y0731980D01*
X0235100Y0732350D01*
X0235270Y0732700D01*
X0235480Y0733040D01*
X0235720Y0733350D01*
X0235990Y0733640D01*
X0236290Y0733890D01*
X0236620Y0734120D01*
X0236960Y0734310D01*
X0237330Y0734470D01*
X0237700Y0734590D01*
X0238090Y0734670D01*
X0238480Y0734700D01*
X0238880Y0734700D01*
X0239270Y0734670D01*
X0239660Y0734590D01*
X0240030Y0734470D01*
X0240400Y0734310D01*
X0240740Y0734120D01*
X0241070Y0733890D01*
X0241370Y0733640D01*
X0241640Y0733350D01*
X0241880Y0733040D01*
X0242090Y0732700D01*
X0242260Y0732350D01*
X0242400Y0731980D01*
X0242500Y0731600D01*
X0242560Y0731200D01*
X0242580Y0730810D01*
X0242560Y0730420D01*
X0242500Y0730020D01*
X0242400Y0729640D01*
X0242260Y0729270D01*
X0242090Y0728920D01*
X0241880Y0728580D01*
X0241640Y0728270D01*
X0241370Y0727980D01*
X0241070Y0727730D01*
X0240740Y0727500D01*
X0240400Y0727310D01*
X0240030Y0727150D01*
X0239660Y0727030D01*
X0239270Y0726950D01*
X0238880Y0726920D01*
X0238480Y0726920D01*
X0238090Y0726950D01*
X0237700Y0727030D01*
X0237330Y0727150D01*
X0236960Y0727310D01*
X0236620Y0727500D01*
X0236290Y0727730D01*
X0235990Y0727980D01*
X0235720Y0728270D01*
X0235480Y0728580D01*
X0235270Y0728920D01*
X0235100Y0729270D01*
X0234960Y0729640D01*
X0234860Y0730020D01*
X0234800Y0730420D01*
X0234780Y0730810D01*
X0234680Y0742620D02*
X0242680Y0742620D01*
X0238680Y0738620D02*
X0238680Y0746620D01*
X0234780Y0742620D02*
X0234800Y0743010D01*
X0234860Y0743410D01*
X0234960Y0743790D01*
X0235100Y0744160D01*
X0235270Y0744510D01*
X0235480Y0744850D01*
X0235720Y0745160D01*
X0235990Y0745450D01*
X0236290Y0745700D01*
X0236620Y0745930D01*
X0236960Y0746120D01*
X0237330Y0746280D01*
X0237700Y0746400D01*
X0238090Y0746480D01*
X0238480Y0746510D01*
X0238880Y0746510D01*
X0239270Y0746480D01*
X0239660Y0746400D01*
X0240030Y0746280D01*
X0240400Y0746120D01*
X0240740Y0745930D01*
X0241070Y0745700D01*
X0241370Y0745450D01*
X0241640Y0745160D01*
X0241880Y0744850D01*
X0242090Y0744510D01*
X0242260Y0744160D01*
X0242400Y0743790D01*
X0242500Y0743410D01*
X0242560Y0743010D01*
X0242580Y0742620D01*
X0242560Y0742230D01*
X0242500Y0741830D01*
X0242400Y0741450D01*
X0242260Y0741080D01*
X0242090Y0740730D01*
X0241880Y0740390D01*
X0241640Y0740080D01*
X0241370Y0739790D01*
X0241070Y0739540D01*
X0240740Y0739310D01*
X0240400Y0739120D01*
X0240030Y0738960D01*
X0239660Y0738840D01*
X0239270Y0738760D01*
X0238880Y0738730D01*
X0238480Y0738730D01*
X0238090Y0738760D01*
X0237700Y0738840D01*
X0237330Y0738960D01*
X0236960Y0739120D01*
X0236620Y0739310D01*
X0236290Y0739540D01*
X0235990Y0739790D01*
X0235720Y0740080D01*
X0235480Y0740390D01*
X0235270Y0740730D01*
X0235100Y0741080D01*
X0234960Y0741450D01*
X0234860Y0741830D01*
X0234800Y0742230D01*
X0234780Y0742620D01*
X0246490Y0742620D02*
X0254490Y0742620D01*
X0250490Y0738620D02*
X0250490Y0746620D01*
X0246590Y0742620D02*
X0246610Y0743010D01*
X0246670Y0743410D01*
X0246770Y0743790D01*
X0246910Y0744160D01*
X0247080Y0744510D01*
X0247290Y0744850D01*
X0247530Y0745160D01*
X0247800Y0745450D01*
X0248100Y0745700D01*
X0248430Y0745930D01*
X0248770Y0746120D01*
X0249140Y0746280D01*
X0249510Y0746400D01*
X0249900Y0746480D01*
X0250290Y0746510D01*
X0250690Y0746510D01*
X0251080Y0746480D01*
X0251470Y0746400D01*
X0251840Y0746280D01*
X0252210Y0746120D01*
X0252550Y0745930D01*
X0252880Y0745700D01*
X0253180Y0745450D01*
X0253450Y0745160D01*
X0253690Y0744850D01*
X0253900Y0744510D01*
X0254070Y0744160D01*
X0254210Y0743790D01*
X0254310Y0743410D01*
X0254370Y0743010D01*
X0254390Y0742620D01*
X0254370Y0742230D01*
X0254310Y0741830D01*
X0254210Y0741450D01*
X0254070Y0741080D01*
X0253900Y0740730D01*
X0253690Y0740390D01*
X0253450Y0740080D01*
X0253180Y0739790D01*
X0252880Y0739540D01*
X0252550Y0739310D01*
X0252210Y0739120D01*
X0251840Y0738960D01*
X0251470Y0738840D01*
X0251080Y0738760D01*
X0250690Y0738730D01*
X0250290Y0738730D01*
X0249900Y0738760D01*
X0249510Y0738840D01*
X0249140Y0738960D01*
X0248770Y0739120D01*
X0248430Y0739310D01*
X0248100Y0739540D01*
X0247800Y0739790D01*
X0247530Y0740080D01*
X0247290Y0740390D01*
X0247080Y0740730D01*
X0246910Y0741080D01*
X0246770Y0741450D01*
X0246670Y0741830D01*
X0246610Y0742230D01*
X0246590Y0742620D01*
X0191000Y0233000D02*
X0199000Y0233000D01*
X0195000Y0229000D02*
X0195000Y0237000D01*
X0191100Y0233000D02*
X0191120Y0233390D01*
X0191180Y0233790D01*
X0191280Y0234170D01*
X0191420Y0234540D01*
X0191590Y0234890D01*
X0191800Y0235230D01*
X0192040Y0235540D01*
X0192310Y0235830D01*
X0192610Y0236080D01*
X0192940Y0236310D01*
X0193280Y0236500D01*
X0193650Y0236660D01*
X0194020Y0236780D01*
X0194410Y0236860D01*
X0194800Y0236890D01*
X0195200Y0236890D01*
X0195590Y0236860D01*
X0195980Y0236780D01*
X0196350Y0236660D01*
X0196720Y0236500D01*
X0197060Y0236310D01*
X0197390Y0236080D01*
X0197690Y0235830D01*
X0197960Y0235540D01*
X0198200Y0235230D01*
X0198410Y0234890D01*
X0198580Y0234540D01*
X0198720Y0234170D01*
X0198820Y0233790D01*
X0198880Y0233390D01*
X0198900Y0233000D01*
X0198880Y0232610D01*
X0198820Y0232210D01*
X0198720Y0231830D01*
X0198580Y0231460D01*
X0198410Y0231110D01*
X0198200Y0230770D01*
X0197960Y0230460D01*
X0197690Y0230170D01*
X0197390Y0229920D01*
X0197060Y0229690D01*
X0196720Y0229500D01*
X0196350Y0229340D01*
X0195980Y0229220D01*
X0195590Y0229140D01*
X0195200Y0229110D01*
X0194800Y0229110D01*
X0194410Y0229140D01*
X0194020Y0229220D01*
X0193650Y0229340D01*
X0193280Y0229500D01*
X0192940Y0229690D01*
X0192610Y0229920D01*
X0192310Y0230170D01*
X0192040Y0230460D01*
X0191800Y0230770D01*
X0191590Y0231110D01*
X0191420Y0231460D01*
X0191280Y0231830D01*
X0191180Y0232210D01*
X0191120Y0232610D01*
X0191100Y0233000D01*
X0193050Y0233000D02*
X0193070Y0233280D01*
X0193130Y0233560D01*
X0193230Y0233830D01*
X0193370Y0234080D01*
X0193550Y0234300D01*
X0193750Y0234500D01*
X0193980Y0234660D01*
X0194240Y0234790D01*
X0194510Y0234890D01*
X0194790Y0234940D01*
X0195070Y0234950D01*
X0195350Y0234920D01*
X0195630Y0234850D01*
X0195890Y0234730D01*
X0196130Y0234590D01*
X0196350Y0234400D01*
X0196540Y0234190D01*
X0196700Y0233950D01*
X0196820Y0233700D01*
X0196900Y0233420D01*
X0196940Y0233140D01*
X0196940Y0232860D01*
X0196900Y0232580D01*
X0196820Y0232300D01*
X0196700Y0232050D01*
X0196540Y0231810D01*
X0196350Y0231600D01*
X0196130Y0231410D01*
X0195890Y0231270D01*
X0195630Y0231150D01*
X0195350Y0231080D01*
X0195070Y0231050D01*
X0194790Y0231060D01*
X0194510Y0231110D01*
X0194240Y0231210D01*
X0193980Y0231340D01*
X0193750Y0231500D01*
X0193550Y0231700D01*
X0193370Y0231920D01*
X0193230Y0232170D01*
X0193130Y0232440D01*
X0193070Y0232720D01*
X0193050Y0233000D01*
X0189870Y0380000D02*
X0197870Y0380000D01*
X0193870Y0384000D01*
X0193870Y0376000D01*
X0189870Y0380000D01*
X0138130Y0380000D02*
X0146130Y0380000D01*
X0142130Y0384000D01*
X0142130Y0376000D01*
X0138130Y0380000D01*
X0085250Y0384000D02*
X0093250Y0384000D01*
X0089250Y0380000D02*
X0089250Y0388000D01*
X0085350Y0387900D02*
X0093150Y0387900D01*
X0093150Y0380100D01*
X0085350Y0380100D01*
X0085350Y0387900D01*
X0066750Y0384000D02*
X0074750Y0384000D01*
X0070750Y0380000D02*
X0070750Y0388000D01*
X0066850Y0387900D02*
X0074650Y0387900D01*
X0074650Y0380100D01*
X0066850Y0380100D01*
X0066850Y0387900D01*
X0023000Y0055000D02*
X0031000Y0055000D01*
X0027000Y0051000D02*
X0027000Y0059000D01*
X0023100Y0058900D02*
X0030900Y0058900D01*
X0030900Y0051100D01*
X0023100Y0051100D01*
X0023100Y0058900D01*
X0021000Y0594250D02*
X0029000Y0594250D01*
X0025000Y0590250D02*
X0025000Y0598250D01*
X0021100Y0598150D02*
X0028900Y0598150D01*
X0028900Y0590350D01*
X0021100Y0590350D01*
X0021100Y0598150D01*
X0021000Y0549250D02*
X0029000Y0549250D01*
X0025000Y0545250D02*
X0025000Y0553250D01*
X0021100Y0553150D02*
X0028900Y0553150D01*
X0028900Y0545350D01*
X0021100Y0545350D01*
X0021100Y0553150D01*
X0021000Y0504250D02*
X0029000Y0504250D01*
X0025000Y0500250D02*
X0025000Y0508250D01*
X0021100Y0508150D02*
X0028900Y0508150D01*
X0028900Y0500350D01*
X0021100Y0500350D01*
X0021100Y0508150D01*
X0263500Y0446750D02*
X0271500Y0446750D01*
X0267500Y0442750D02*
X0267500Y0450750D01*
X0263600Y0450650D02*
X0271400Y0450650D01*
X0271400Y0442850D01*
X0263600Y0442850D01*
X0263600Y0450650D01*
X0266000Y0604250D02*
X0274000Y0604250D01*
X0270000Y0600250D02*
X0270000Y0608250D01*
X0266100Y0608150D02*
X0273900Y0608150D01*
X0273900Y0600350D01*
X0266100Y0600350D01*
X0266100Y0608150D01*
X0026000Y0690810D02*
X0034000Y0690810D01*
X0030000Y0686810D02*
X0030000Y0694810D01*
X0026100Y0694710D02*
X0033900Y0694710D01*
X0033900Y0686910D01*
X0026100Y0686910D01*
X0026100Y0694710D01*
X0263500Y0730810D02*
X0271500Y0730810D01*
X0267500Y0726810D02*
X0267500Y0734810D01*
X0263600Y0734710D02*
X0271400Y0734710D01*
X0271400Y0726910D01*
X0263600Y0726910D01*
X0263600Y0734710D01*
X0269000Y0022000D02*
X0277000Y0022000D01*
X0273000Y0018000D02*
X0273000Y0026000D01*
X0270000Y0391000D02*
X0278000Y0391000D01*
X0274000Y0387000D02*
X0274000Y0395000D01*
X0018000Y0391000D02*
X0026000Y0391000D01*
X0022000Y0387000D02*
X0022000Y0395000D01*
X0018000Y0022000D02*
X0026000Y0022000D01*
X0022000Y0018000D02*
X0022000Y0026000D01*
X0018090Y0422310D02*
X0026090Y0422310D01*
X0022090Y0418310D02*
X0022090Y0426310D01*
X0269930Y0421310D02*
X0277930Y0421310D01*
X0273930Y0417310D02*
X0273930Y0425310D01*
X0268870Y0627280D02*
X0276870Y0627280D01*
X0272870Y0623280D02*
X0272870Y0631280D01*
X0018060Y0628280D02*
X0026060Y0628280D01*
X0022060Y0624280D02*
X0022060Y0632280D01*
X0017810Y0657620D02*
X0025810Y0657620D01*
X0021810Y0653620D02*
X0021810Y0661620D01*
X0128050Y0734390D02*
X0136050Y0734390D01*
X0132050Y0730390D02*
X0132050Y0738390D01*
X0019780Y0821010D02*
X0027780Y0821010D01*
X0023780Y0817010D02*
X0023780Y0825010D01*
X0269780Y0821010D02*
X0277780Y0821010D01*
X0273780Y0817010D02*
X0273780Y0825010D01*
X0269780Y0661560D02*
X0277780Y0661560D01*
X0273780Y0657560D02*
X0273780Y0665560D01*
X0010000Y0010000D02*
X0286000Y0010000D01*
X0286000Y0832820D01*
X0010000Y0832820D01*
X0010000Y0010000D01*
X0332000Y0013500D02*
X0340000Y0013500D01*
X0336000Y0009500D02*
X0336000Y0017500D01*
X0347500Y0010000D02*
X0346500Y0011000D01*
X0350500Y0015000D01*
X0350500Y0011000D01*
X0349500Y0010000D01*
X0347500Y0010000D01*
X0346500Y0011000D02*
X0346500Y0015000D01*
X0347500Y0016000D01*
X0349500Y0016000D01*
X0350500Y0015000D01*
X0354000Y0011000D02*
X0355000Y0011000D01*
X0355000Y0010000D01*
X0354000Y0010000D01*
X0354000Y0011000D01*
X0359500Y0015000D02*
X0360500Y0016000D01*
X0360500Y0010000D01*
X0359500Y0010000D02*
X0361500Y0010000D01*
X0364500Y0010000D02*
X0368500Y0014000D01*
X0368500Y0015000D01*
X0367500Y0016000D01*
X0365500Y0016000D01*
X0364500Y0015000D01*
X0364500Y0010000D02*
X0368500Y0010000D01*
X0370500Y0013000D02*
X0370500Y0011000D01*
X0371500Y0010000D01*
X0373500Y0010000D01*
X0374500Y0011000D01*
X0374500Y0012000D01*
X0373500Y0013000D01*
X0370500Y0013000D01*
X0372500Y0015000D01*
X0374500Y0016000D01*
X0380000Y0015000D02*
X0379000Y0014000D01*
X0380000Y0015000D02*
X0380000Y0017000D01*
X0378000Y0017000D02*
X0378000Y0015000D01*
X0377000Y0014000D01*
X0332000Y0024000D02*
X0340000Y0024000D01*
X0336000Y0020000D02*
X0336000Y0028000D01*
X0332100Y0027900D02*
X0339900Y0027900D01*
X0339900Y0020100D01*
X0332100Y0020100D01*
X0332100Y0027900D01*
X0347500Y0020500D02*
X0346500Y0021500D01*
X0350500Y0025500D01*
X0350500Y0021500D01*
X0349500Y0020500D01*
X0347500Y0020500D01*
X0346500Y0021500D02*
X0346500Y0025500D01*
X0347500Y0026500D01*
X0349500Y0026500D01*
X0350500Y0025500D01*
X0354000Y0021500D02*
X0355000Y0021500D01*
X0355000Y0020500D01*
X0354000Y0020500D01*
X0354000Y0021500D01*
X0359500Y0025500D02*
X0360500Y0026500D01*
X0360500Y0020500D01*
X0359500Y0020500D02*
X0361500Y0020500D01*
X0365500Y0025500D02*
X0366500Y0026500D01*
X0366500Y0020500D01*
X0365500Y0020500D02*
X0367500Y0020500D01*
X0370500Y0021500D02*
X0370500Y0022500D01*
X0371500Y0023500D01*
X0373500Y0023500D01*
X0374500Y0022500D01*
X0374500Y0021500D01*
X0373500Y0020500D01*
X0371500Y0020500D01*
X0370500Y0021500D01*
X0371500Y0023500D02*
X0370500Y0024500D01*
X0370500Y0025500D01*
X0371500Y0026500D01*
X0373500Y0026500D01*
X0374500Y0025500D01*
X0374500Y0024500D01*
X0373500Y0023500D01*
X0380000Y0025500D02*
X0379000Y0024500D01*
X0380000Y0025500D02*
X0380000Y0027500D01*
X0378000Y0027500D02*
X0378000Y0025500D01*
X0377000Y0024500D01*
X0332000Y0034500D02*
X0340000Y0034500D01*
X0336000Y0038500D01*
X0336000Y0030500D01*
X0332000Y0034500D01*
X0347500Y0031000D02*
X0346500Y0032000D01*
X0350500Y0036000D01*
X0350500Y0032000D01*
X0349500Y0031000D01*
X0347500Y0031000D01*
X0346500Y0032000D02*
X0346500Y0036000D01*
X0347500Y0037000D01*
X0349500Y0037000D01*
X0350500Y0036000D01*
X0354000Y0032000D02*
X0355000Y0032000D01*
X0355000Y0031000D01*
X0354000Y0031000D01*
X0354000Y0032000D01*
X0359500Y0031000D02*
X0358500Y0032000D01*
X0362500Y0036000D01*
X0362500Y0032000D01*
X0361500Y0031000D01*
X0359500Y0031000D01*
X0358500Y0032000D02*
X0358500Y0036000D01*
X0359500Y0037000D01*
X0361500Y0037000D01*
X0362500Y0036000D01*
X0364500Y0035000D02*
X0365500Y0034000D01*
X0368500Y0034000D01*
X0368500Y0032000D02*
X0368500Y0036000D01*
X0367500Y0037000D01*
X0365500Y0037000D01*
X0364500Y0036000D01*
X0364500Y0035000D01*
X0364500Y0032000D02*
X0365500Y0031000D01*
X0367500Y0031000D01*
X0368500Y0032000D01*
X0371500Y0036000D02*
X0372500Y0037000D01*
X0372500Y0031000D01*
X0371500Y0031000D02*
X0373500Y0031000D01*
X0380000Y0036000D02*
X0379000Y0035000D01*
X0380000Y0036000D02*
X0380000Y0038000D01*
X0378000Y0038000D02*
X0378000Y0036000D01*
X0377000Y0035000D01*
X0332000Y0045000D02*
X0340000Y0045000D01*
X0336000Y0041000D02*
X0336000Y0049000D01*
X0332100Y0045000D02*
X0332120Y0045390D01*
X0332180Y0045790D01*
X0332280Y0046170D01*
X0332420Y0046540D01*
X0332590Y0046890D01*
X0332800Y0047230D01*
X0333040Y0047540D01*
X0333310Y0047830D01*
X0333610Y0048080D01*
X0333940Y0048310D01*
X0334280Y0048500D01*
X0334650Y0048660D01*
X0335020Y0048780D01*
X0335410Y0048860D01*
X0335800Y0048890D01*
X0336200Y0048890D01*
X0336590Y0048860D01*
X0336980Y0048780D01*
X0337350Y0048660D01*
X0337720Y0048500D01*
X0338060Y0048310D01*
X0338390Y0048080D01*
X0338690Y0047830D01*
X0338960Y0047540D01*
X0339200Y0047230D01*
X0339410Y0046890D01*
X0339580Y0046540D01*
X0339720Y0046170D01*
X0339820Y0045790D01*
X0339880Y0045390D01*
X0339900Y0045000D01*
X0339880Y0044610D01*
X0339820Y0044210D01*
X0339720Y0043830D01*
X0339580Y0043460D01*
X0339410Y0043110D01*
X0339200Y0042770D01*
X0338960Y0042460D01*
X0338690Y0042170D01*
X0338390Y0041920D01*
X0338060Y0041690D01*
X0337720Y0041500D01*
X0337350Y0041340D01*
X0336980Y0041220D01*
X0336590Y0041140D01*
X0336200Y0041110D01*
X0335800Y0041110D01*
X0335410Y0041140D01*
X0335020Y0041220D01*
X0334650Y0041340D01*
X0334280Y0041500D01*
X0333940Y0041690D01*
X0333610Y0041920D01*
X0333310Y0042170D01*
X0333040Y0042460D01*
X0332800Y0042770D01*
X0332590Y0043110D01*
X0332420Y0043460D01*
X0332280Y0043830D01*
X0332180Y0044210D01*
X0332120Y0044610D01*
X0332100Y0045000D01*
X0334050Y0045000D02*
X0334070Y0045280D01*
X0334130Y0045560D01*
X0334230Y0045830D01*
X0334370Y0046080D01*
X0334550Y0046300D01*
X0334750Y0046500D01*
X0334980Y0046660D01*
X0335240Y0046790D01*
X0335510Y0046890D01*
X0335790Y0046940D01*
X0336070Y0046950D01*
X0336350Y0046920D01*
X0336630Y0046850D01*
X0336890Y0046730D01*
X0337130Y0046590D01*
X0337350Y0046400D01*
X0337540Y0046190D01*
X0337700Y0045950D01*
X0337820Y0045700D01*
X0337900Y0045420D01*
X0337940Y0045140D01*
X0337940Y0044860D01*
X0337900Y0044580D01*
X0337820Y0044300D01*
X0337700Y0044050D01*
X0337540Y0043810D01*
X0337350Y0043600D01*
X0337130Y0043410D01*
X0336890Y0043270D01*
X0336630Y0043150D01*
X0336350Y0043080D01*
X0336070Y0043050D01*
X0335790Y0043060D01*
X0335510Y0043110D01*
X0335240Y0043210D01*
X0334980Y0043340D01*
X0334750Y0043500D01*
X0334550Y0043700D01*
X0334370Y0043920D01*
X0334230Y0044170D01*
X0334130Y0044440D01*
X0334070Y0044720D01*
X0334050Y0045000D01*
X0347500Y0041500D02*
X0346500Y0042500D01*
X0350500Y0046500D01*
X0350500Y0042500D01*
X0349500Y0041500D01*
X0347500Y0041500D01*
X0346500Y0042500D02*
X0346500Y0046500D01*
X0347500Y0047500D01*
X0349500Y0047500D01*
X0350500Y0046500D01*
X0354000Y0042500D02*
X0355000Y0042500D01*
X0355000Y0041500D01*
X0354000Y0041500D01*
X0354000Y0042500D01*
X0359500Y0041500D02*
X0358500Y0042500D01*
X0362500Y0046500D01*
X0362500Y0042500D01*
X0361500Y0041500D01*
X0359500Y0041500D01*
X0358500Y0042500D02*
X0358500Y0046500D01*
X0359500Y0047500D01*
X0361500Y0047500D01*
X0362500Y0046500D01*
X0364500Y0044500D02*
X0366500Y0045500D01*
X0367500Y0045500D01*
X0368500Y0044500D01*
X0368500Y0042500D01*
X0367500Y0041500D01*
X0365500Y0041500D01*
X0364500Y0042500D01*
X0364500Y0044500D02*
X0364500Y0047500D01*
X0368500Y0047500D01*
X0370500Y0041500D02*
X0374500Y0045500D01*
X0374500Y0046500D01*
X0373500Y0047500D01*
X0371500Y0047500D01*
X0370500Y0046500D01*
X0370500Y0041500D02*
X0374500Y0041500D01*
X0380000Y0046500D02*
X0379000Y0045500D01*
X0380000Y0046500D02*
X0380000Y0048500D01*
X0378000Y0048500D02*
X0378000Y0046500D01*
X0377000Y0045500D01*
X0332000Y0055500D02*
X0340000Y0055500D01*
X0336000Y0051500D02*
X0336000Y0059500D01*
X0332100Y0055500D02*
X0332120Y0055890D01*
X0332180Y0056290D01*
X0332280Y0056670D01*
X0332420Y0057040D01*
X0332590Y0057390D01*
X0332800Y0057730D01*
X0333040Y0058040D01*
X0333310Y0058330D01*
X0333610Y0058580D01*
X0333940Y0058810D01*
X0334280Y0059000D01*
X0334650Y0059160D01*
X0335020Y0059280D01*
X0335410Y0059360D01*
X0335800Y0059390D01*
X0336200Y0059390D01*
X0336590Y0059360D01*
X0336980Y0059280D01*
X0337350Y0059160D01*
X0337720Y0059000D01*
X0338060Y0058810D01*
X0338390Y0058580D01*
X0338690Y0058330D01*
X0338960Y0058040D01*
X0339200Y0057730D01*
X0339410Y0057390D01*
X0339580Y0057040D01*
X0339720Y0056670D01*
X0339820Y0056290D01*
X0339880Y0055890D01*
X0339900Y0055500D01*
X0339880Y0055110D01*
X0339820Y0054710D01*
X0339720Y0054330D01*
X0339580Y0053960D01*
X0339410Y0053610D01*
X0339200Y0053270D01*
X0338960Y0052960D01*
X0338690Y0052670D01*
X0338390Y0052420D01*
X0338060Y0052190D01*
X0337720Y0052000D01*
X0337350Y0051840D01*
X0336980Y0051720D01*
X0336590Y0051640D01*
X0336200Y0051610D01*
X0335800Y0051610D01*
X0335410Y0051640D01*
X0335020Y0051720D01*
X0334650Y0051840D01*
X0334280Y0052000D01*
X0333940Y0052190D01*
X0333610Y0052420D01*
X0333310Y0052670D01*
X0333040Y0052960D01*
X0332800Y0053270D01*
X0332590Y0053610D01*
X0332420Y0053960D01*
X0332280Y0054330D01*
X0332180Y0054710D01*
X0332120Y0055110D01*
X0332100Y0055500D01*
X0347500Y0052000D02*
X0346500Y0053000D01*
X0350500Y0057000D01*
X0350500Y0053000D01*
X0349500Y0052000D01*
X0347500Y0052000D01*
X0346500Y0053000D02*
X0346500Y0057000D01*
X0347500Y0058000D01*
X0349500Y0058000D01*
X0350500Y0057000D01*
X0354000Y0053000D02*
X0355000Y0053000D01*
X0355000Y0052000D01*
X0354000Y0052000D01*
X0354000Y0053000D01*
X0359500Y0052000D02*
X0358500Y0053000D01*
X0362500Y0057000D01*
X0362500Y0053000D01*
X0361500Y0052000D01*
X0359500Y0052000D01*
X0358500Y0053000D02*
X0358500Y0057000D01*
X0359500Y0058000D01*
X0361500Y0058000D01*
X0362500Y0057000D01*
X0364500Y0055000D02*
X0368500Y0055000D01*
X0367500Y0052000D02*
X0367500Y0058000D01*
X0364500Y0055000D01*
X0370500Y0052000D02*
X0374500Y0056000D01*
X0374500Y0057000D01*
X0373500Y0058000D01*
X0371500Y0058000D01*
X0370500Y0057000D01*
X0370500Y0052000D02*
X0374500Y0052000D01*
X0380000Y0057000D02*
X0379000Y0056000D01*
X0380000Y0057000D02*
X0380000Y0059000D01*
X0378000Y0059000D02*
X0378000Y0057000D01*
X0377000Y0056000D01*
X0336000Y0066000D02*
X0340000Y0066000D01*
X0336000Y0066000D02*
X0332000Y0070000D01*
X0332000Y0062000D01*
X0336000Y0066000D01*
X0347500Y0062500D02*
X0346500Y0063500D01*
X0350500Y0067500D01*
X0350500Y0063500D01*
X0349500Y0062500D01*
X0347500Y0062500D01*
X0346500Y0063500D02*
X0346500Y0067500D01*
X0347500Y0068500D01*
X0349500Y0068500D01*
X0350500Y0067500D01*
X0354000Y0063500D02*
X0355000Y0063500D01*
X0355000Y0062500D01*
X0354000Y0062500D01*
X0354000Y0063500D01*
X0359500Y0062500D02*
X0358500Y0063500D01*
X0362500Y0067500D01*
X0362500Y0063500D01*
X0361500Y0062500D01*
X0359500Y0062500D01*
X0358500Y0063500D02*
X0358500Y0067500D01*
X0359500Y0068500D01*
X0361500Y0068500D01*
X0362500Y0067500D01*
X0364500Y0063500D02*
X0365500Y0062500D01*
X0367500Y0062500D01*
X0368500Y0063500D01*
X0368500Y0064500D01*
X0367500Y0065500D01*
X0366500Y0065500D01*
X0367500Y0065500D02*
X0368500Y0066500D01*
X0368500Y0067500D01*
X0367500Y0068500D01*
X0365500Y0068500D01*
X0364500Y0067500D01*
X0370500Y0068500D02*
X0374500Y0068500D01*
X0374500Y0067500D01*
X0370500Y0063500D01*
X0370500Y0062500D01*
X0380000Y0067500D02*
X0379000Y0066500D01*
X0380000Y0067500D02*
X0380000Y0069500D01*
X0378000Y0069500D02*
X0378000Y0067500D01*
X0377000Y0066500D01*
X0336000Y0076500D02*
X0332000Y0076500D01*
X0336000Y0076500D02*
X0340000Y0080500D01*
X0340000Y0072500D01*
X0336000Y0076500D01*
X0347500Y0073000D02*
X0346500Y0074000D01*
X0350500Y0078000D01*
X0350500Y0074000D01*
X0349500Y0073000D01*
X0347500Y0073000D01*
X0346500Y0074000D02*
X0346500Y0078000D01*
X0347500Y0079000D01*
X0349500Y0079000D01*
X0350500Y0078000D01*
X0354000Y0074000D02*
X0355000Y0074000D01*
X0355000Y0073000D01*
X0354000Y0073000D01*
X0354000Y0074000D01*
X0359500Y0073000D02*
X0358500Y0074000D01*
X0362500Y0078000D01*
X0362500Y0074000D01*
X0361500Y0073000D01*
X0359500Y0073000D01*
X0358500Y0074000D02*
X0358500Y0078000D01*
X0359500Y0079000D01*
X0361500Y0079000D01*
X0362500Y0078000D01*
X0364500Y0074000D02*
X0365500Y0073000D01*
X0367500Y0073000D01*
X0368500Y0074000D01*
X0368500Y0075000D01*
X0367500Y0076000D01*
X0366500Y0076000D01*
X0367500Y0076000D02*
X0368500Y0077000D01*
X0368500Y0078000D01*
X0367500Y0079000D01*
X0365500Y0079000D01*
X0364500Y0078000D01*
X0370500Y0073000D02*
X0374500Y0077000D01*
X0374500Y0078000D01*
X0373500Y0079000D01*
X0371500Y0079000D01*
X0370500Y0078000D01*
X0370500Y0073000D02*
X0374500Y0073000D01*
X0380000Y0078000D02*
X0379000Y0077000D01*
X0380000Y0078000D02*
X0380000Y0080000D01*
X0378000Y0080000D02*
X0378000Y0078000D01*
X0377000Y0077000D01*
X0332000Y0083000D02*
X0340000Y0091000D01*
X0340000Y0083000D02*
X0332000Y0091000D01*
X0332000Y0087000D02*
X0340000Y0087000D01*
X0347500Y0083500D02*
X0346500Y0084500D01*
X0350500Y0088500D01*
X0350500Y0084500D01*
X0349500Y0083500D01*
X0347500Y0083500D01*
X0346500Y0084500D02*
X0346500Y0088500D01*
X0347500Y0089500D01*
X0349500Y0089500D01*
X0350500Y0088500D01*
X0354000Y0084500D02*
X0355000Y0084500D01*
X0355000Y0083500D01*
X0354000Y0083500D01*
X0354000Y0084500D01*
X0359500Y0083500D02*
X0358500Y0084500D01*
X0362500Y0088500D01*
X0362500Y0084500D01*
X0361500Y0083500D01*
X0359500Y0083500D01*
X0358500Y0084500D02*
X0358500Y0088500D01*
X0359500Y0089500D01*
X0361500Y0089500D01*
X0362500Y0088500D01*
X0364500Y0083500D02*
X0368500Y0087500D01*
X0368500Y0088500D01*
X0367500Y0089500D01*
X0365500Y0089500D01*
X0364500Y0088500D01*
X0364500Y0083500D02*
X0368500Y0083500D01*
X0370500Y0086500D02*
X0374500Y0086500D01*
X0373500Y0083500D02*
X0373500Y0089500D01*
X0370500Y0086500D01*
X0380000Y0088500D02*
X0379000Y0087500D01*
X0380000Y0088500D02*
X0380000Y0090500D01*
X0378000Y0090500D02*
X0378000Y0088500D01*
X0377000Y0087500D01*
X0010000Y0845320D02*
X0010000Y0860320D01*
X0017500Y0856570D02*
X0010000Y0852820D01*
X0017500Y0849070D01*
X0010000Y0852820D02*
X0022500Y0852820D01*
X0286000Y0860320D02*
X0286000Y0845320D01*
X0278500Y0849070D02*
X0286000Y0852820D01*
X0278500Y0856570D01*
X0286000Y0852820D02*
X0273500Y0852820D01*
X0298500Y0832820D02*
X0313500Y0832820D01*
X0309750Y0825320D02*
X0306000Y0832820D01*
X0302250Y0825320D01*
X0306000Y0832820D02*
X0306000Y0820320D01*
X0313500Y0010000D02*
X0298500Y0010000D01*
X0302250Y0017500D02*
X0306000Y0010000D01*
X0309750Y0017500D01*
X0306000Y0010000D02*
X0306000Y0022500D01*
X0141000Y0849320D02*
X0145000Y0853320D01*
X0145000Y0854320D01*
X0144000Y0855320D01*
X0142000Y0855320D01*
X0141000Y0854320D01*
X0141000Y0849320D02*
X0145000Y0849320D01*
X0148500Y0850320D02*
X0149500Y0850320D01*
X0149500Y0849320D01*
X0148500Y0849320D01*
X0148500Y0850320D01*
X0153000Y0855320D02*
X0157000Y0855320D01*
X0157000Y0854320D01*
X0153000Y0850320D01*
X0153000Y0849320D01*
X0159000Y0852320D02*
X0159000Y0850320D01*
X0160000Y0849320D01*
X0162000Y0849320D01*
X0163000Y0850320D01*
X0163000Y0851320D01*
X0162000Y0852320D01*
X0159000Y0852320D01*
X0161000Y0854320D01*
X0163000Y0855320D01*
X0166000Y0849320D02*
X0165000Y0850320D01*
X0169000Y0854320D01*
X0169000Y0850320D01*
X0168000Y0849320D01*
X0166000Y0849320D01*
X0165000Y0850320D02*
X0165000Y0854320D01*
X0166000Y0855320D01*
X0168000Y0855320D01*
X0169000Y0854320D01*
X0174500Y0854320D02*
X0173500Y0853320D01*
X0174500Y0854320D02*
X0174500Y0856320D01*
X0172500Y0856320D02*
X0172500Y0854320D01*
X0171500Y0853320D01*
X0010000Y0852820D02*
X0130500Y0852820D01*
X0185500Y0852820D02*
X0286000Y0852820D01*
X0303500Y0448410D02*
X0304500Y0448410D01*
X0305500Y0447410D01*
X0305500Y0445410D01*
X0304500Y0444410D01*
X0303500Y0444410D01*
X0302500Y0445410D01*
X0302500Y0447410D01*
X0303500Y0448410D01*
X0305500Y0447410D02*
X0306500Y0448410D01*
X0307500Y0448410D01*
X0308500Y0447410D01*
X0308500Y0445410D01*
X0307500Y0444410D01*
X0306500Y0444410D01*
X0305500Y0445410D01*
X0303500Y0440910D02*
X0303500Y0439910D01*
X0302500Y0439910D01*
X0302500Y0440910D01*
X0303500Y0440910D01*
X0302500Y0436410D02*
X0306500Y0432410D01*
X0307500Y0432410D01*
X0308500Y0433410D01*
X0308500Y0435410D01*
X0307500Y0436410D01*
X0302500Y0436410D02*
X0302500Y0432410D01*
X0302500Y0430410D02*
X0306500Y0426410D01*
X0307500Y0426410D01*
X0308500Y0427410D01*
X0308500Y0429410D01*
X0307500Y0430410D01*
X0302500Y0430410D02*
X0302500Y0426410D01*
X0303500Y0424410D02*
X0304500Y0424410D01*
X0305500Y0423410D01*
X0305500Y0421410D01*
X0304500Y0420410D01*
X0303500Y0420410D01*
X0302500Y0421410D01*
X0302500Y0423410D01*
X0303500Y0424410D01*
X0305500Y0423410D02*
X0306500Y0424410D01*
X0307500Y0424410D01*
X0308500Y0423410D01*
X0308500Y0421410D01*
X0307500Y0420410D01*
X0306500Y0420410D01*
X0305500Y0421410D01*
X0307500Y0414910D02*
X0306500Y0415910D01*
X0307500Y0414910D02*
X0309500Y0414910D01*
X0309500Y0416910D02*
X0307500Y0416910D01*
X0306500Y0417910D01*
X0306000Y0832820D02*
X0306000Y0458910D01*
X0306000Y0403910D02*
X0306000Y0010000D01*
M02*
