G75*
G70*
%OFA0B0*%
%FSLAX25Y25*%
%IPPOS*%
%LPD*%
%AMOC8*
5,1,8,0,0,1.08239X$1,22.5*
%
%ADD111C,0.05950*%
%ADD114OC8,0.09300*%
%ADD119C,0.06000*%
%ADD123C,0.06540*%
%ADD126C,0.09860*%
%ADD129C,0.06400*%
%ADD134C,0.07400*%
%ADD144C,0.13400*%
%ADD146C,0.04800*%
%ADD20OC8,0.06000*%
%ADD41OC8,0.06400*%
%ADD62OC8,0.10800*%
%ADD70C,0.12610*%
%ADD73R,0.06820X0.06820*%
%ADD98C,0.06820*%
X0010000Y0010000D02*
G75*
%LPD*%
D144*
X0273000Y0022000D03*
X0274000Y0391000D03*
X0022000Y0391000D03*
X0022000Y0022000D03*
D20*
X0026000Y0104000D03*
X0026000Y0114000D03*
X0049000Y0102000D03*
X0049000Y0132000D03*
X0086000Y0108000D03*
X0096000Y0108000D03*
X0111000Y0074000D03*
X0122000Y0074000D03*
X0122000Y0054000D03*
X0111000Y0054000D03*
X0096000Y0056000D03*
X0086000Y0056000D03*
X0241000Y0145000D03*
X0242000Y0154000D03*
X0251000Y0145000D03*
X0252000Y0154000D03*
X0261000Y0154000D03*
X0262000Y0145000D03*
X0272000Y0145000D03*
X0271000Y0154000D03*
X0266000Y0082000D03*
X0266000Y0072000D03*
X0254000Y0072000D03*
X0254000Y0082000D03*
X0250000Y0315000D03*
X0260000Y0315000D03*
D134*
X0064000Y0138000D03*
X0064000Y0098000D03*
D123*
X0154220Y0366460D02*
X0154220Y0372200D01*
X0164060Y0372200D02*
X0164060Y0366460D01*
X0171940Y0366460D02*
X0171940Y0372200D01*
X0181780Y0372200D02*
X0181780Y0366460D01*
D126*
X0193870Y0380000D03*
X0142130Y0380000D03*
D119*
X0134000Y0346600D02*
X0134000Y0341400D01*
X0134000Y0316600D02*
X0134000Y0311400D01*
X0134000Y0298600D02*
X0134000Y0293400D01*
X0134000Y0268600D02*
X0134000Y0263400D01*
X0070000Y0263400D02*
X0070000Y0268600D01*
X0070000Y0293400D02*
X0070000Y0298600D01*
X0070000Y0311400D02*
X0070000Y0316600D01*
X0070000Y0341400D02*
X0070000Y0346600D01*
D119*
X0182000Y0175000D03*
X0182000Y0165000D03*
X0207000Y0242000D03*
X0217000Y0242000D03*
D111*
X0219680Y0351430D02*
X0224830Y0351430D01*
X0220090Y0379170D02*
X0220090Y0384320D01*
X0235430Y0394730D02*
X0240570Y0394730D01*
X0248430Y0372110D02*
X0248430Y0366960D01*
X0257880Y0366600D02*
X0257880Y0361450D01*
X0260320Y0063580D02*
X0255170Y0063580D01*
X0259910Y0035840D02*
X0259910Y0030690D01*
X0244570Y0020270D02*
X0239430Y0020270D01*
X0231570Y0042890D02*
X0231570Y0048040D01*
X0222120Y0048400D02*
X0222120Y0053550D01*
D114*
X0183000Y0199000D03*
D129*
X0120000Y0127800D02*
X0120000Y0122200D01*
X0110000Y0122200D02*
X0110000Y0127800D01*
D98*
X0055820Y0060910D03*
X0055820Y0049100D03*
X0044010Y0060910D03*
X0062280Y0355180D03*
X0074090Y0355180D03*
X0074090Y0366990D03*
X0085910Y0366990D03*
X0085910Y0355180D03*
X0097720Y0355180D03*
X0097720Y0366990D03*
D73*
X0062280Y0366990D03*
X0044010Y0049100D03*
D70*
X0027000Y0055000D03*
X0070750Y0384000D03*
X0089250Y0384000D03*
D129*
X0199000Y0034000D03*
D41*
X0199000Y0024000D03*
X0189000Y0024000D03*
X0179000Y0024000D03*
X0179000Y0034000D03*
X0189000Y0034000D03*
X0169000Y0034000D03*
X0169000Y0024000D03*
X0159000Y0024000D03*
X0159000Y0034000D03*
X0149000Y0034000D03*
X0149000Y0024000D03*
X0139000Y0024000D03*
X0129000Y0024000D03*
X0129000Y0034000D03*
X0139000Y0034000D03*
X0119000Y0034000D03*
X0119000Y0024000D03*
X0109000Y0024000D03*
X0109000Y0034000D03*
X0099000Y0034000D03*
X0099000Y0024000D03*
X0089000Y0024000D03*
X0089000Y0034000D03*
X0079000Y0034000D03*
X0079000Y0024000D03*
D62*
X0134090Y0100000D03*
X0134250Y0109920D03*
X0240060Y0105000D03*
D146*
X0275970Y0172590D03*
X0261360Y0188590D03*
X0251630Y0202280D03*
X0265700Y0207250D03*
X0274460Y0195940D03*
X0274400Y0225360D03*
X0275800Y0249110D03*
X0251380Y0229810D03*
X0234370Y0240120D03*
X0232220Y0222880D03*
X0229170Y0201530D03*
X0215740Y0186090D03*
X0185680Y0149810D03*
X0180810Y0139830D03*
X0138270Y0209510D03*
X0131900Y0219470D03*
X0123990Y0199530D03*
X0113000Y0219470D03*
X0108000Y0216030D03*
X0099270Y0238020D03*
X0097340Y0255000D03*
X0125320Y0259900D03*
X0159770Y0253780D03*
X0159000Y0237810D03*
X0163460Y0232350D03*
X0161430Y0219470D03*
X0162080Y0214380D03*
X0181260Y0257760D03*
X0182390Y0308040D03*
X0242480Y0296060D03*
X0252650Y0294450D03*
X0264060Y0307990D03*
X0118850Y0176570D03*
X0113470Y0174780D03*
X0103000Y0178370D03*
X0113000Y0161800D03*
X0112200Y0084380D03*
X0088350Y0065330D03*
X0010000Y0409250D02*
G75*
%LPD*%
D144*
X0022090Y0422310D03*
X0273930Y0421310D03*
X0272870Y0627280D03*
X0022060Y0628280D03*
D20*
X0098000Y0552250D03*
X0098000Y0538250D03*
X0128000Y0538250D03*
X0128000Y0552250D03*
X0192500Y0546250D03*
X0222500Y0546250D03*
D111*
X0064070Y0446080D02*
X0064070Y0440930D01*
X0036330Y0441340D02*
X0031180Y0441340D01*
X0020760Y0456680D02*
X0020760Y0461820D01*
X0043390Y0469680D02*
X0048540Y0469680D01*
X0048900Y0479130D02*
X0054050Y0479130D01*
D73*
X0042000Y0498340D03*
X0042000Y0543340D03*
X0042000Y0588340D03*
D98*
X0053810Y0588340D03*
X0053810Y0600160D03*
X0042000Y0600160D03*
X0042000Y0555160D03*
X0053810Y0555160D03*
X0053810Y0543340D03*
X0053810Y0510160D03*
X0042000Y0510160D03*
X0053810Y0498340D03*
X0238680Y0446750D03*
X0250490Y0446750D03*
X0252990Y0604250D03*
X0241180Y0604250D03*
D70*
X0270000Y0604250D03*
X0267500Y0446750D03*
X0025000Y0504250D03*
X0025000Y0549250D03*
X0025000Y0594250D03*
D134*
X0064000Y0592250D03*
X0064000Y0632250D03*
D129*
X0272500Y0484250D03*
D41*
X0262500Y0484250D03*
X0262500Y0494250D03*
X0272500Y0494250D03*
X0272500Y0504250D03*
X0272500Y0514250D03*
X0262500Y0514250D03*
X0262500Y0504250D03*
X0262500Y0524250D03*
X0272500Y0524250D03*
X0272500Y0534250D03*
X0272500Y0544250D03*
X0272500Y0554250D03*
X0262500Y0554250D03*
X0262500Y0544250D03*
X0262500Y0534250D03*
D146*
X0247100Y0552890D03*
X0216570Y0538160D03*
X0203690Y0538590D03*
X0182050Y0550160D03*
X0170480Y0565740D03*
X0144590Y0576870D03*
X0130780Y0571730D03*
X0126940Y0564980D03*
X0138000Y0530250D03*
X0119000Y0501250D03*
X0092000Y0484620D03*
X0115330Y0463950D03*
X0104880Y0459280D03*
X0113140Y0447980D03*
X0148340Y0440610D03*
X0151270Y0444870D03*
X0150340Y0454810D03*
X0150670Y0467700D03*
X0163000Y0486250D03*
X0183500Y0471090D03*
X0183520Y0461780D03*
X0235770Y0467210D03*
X0244390Y0469720D03*
X0242470Y0484220D03*
X0208510Y0516750D03*
X0199760Y0520830D03*
X0080470Y0532750D03*
X0210260Y0617480D03*
X0010000Y0645810D02*
G75*
%LPD*%
D144*
X0021810Y0657620D03*
X0132050Y0734390D03*
X0023780Y0821010D03*
X0273780Y0821010D03*
X0273780Y0661560D03*
D134*
X0060000Y0720810D03*
X0020000Y0720810D03*
D20*
X0072500Y0715810D03*
X0085000Y0715810D03*
X0085000Y0685810D03*
X0072500Y0685810D03*
D73*
X0047010Y0684900D03*
X0250490Y0742620D03*
D98*
X0238680Y0742620D03*
X0238680Y0730810D03*
X0250490Y0730810D03*
X0250490Y0719000D03*
X0238680Y0719000D03*
X0058820Y0696720D03*
X0047010Y0696720D03*
X0058820Y0684900D03*
D70*
X0030000Y0690810D03*
X0267500Y0730810D03*
D146*
X0197070Y0743120D03*
X0187850Y0760030D03*
X0205620Y0782720D03*
X0205450Y0789960D03*
X0125320Y0801910D03*
X0111670Y0796970D03*
X0116970Y0788820D03*
X0105940Y0786790D03*
M02*
